<svg width="234" height="21" viewBox="0 0 234 21" fill="none" xmlns="http://www.w3.org/2000/svg">
<path d="M-0.00021863 19.936V0.336034H4.53578V19.936H-0.00021863ZM9.18728 19.936V0.336034H12.9393L21.2833 14.168H19.2953L27.4993 0.336034H31.2233L31.2793 19.936H27.0233L26.9953 6.86003H27.7793L21.2273 17.864H19.1833L12.4913 6.86003H13.4433V19.936H9.18728ZM35.9295 19.936V0.336034H40.4655V16.24H50.2935V19.936H35.9295ZM60.7576 19.936V0.336034H69.2416C70.9963 0.336034 72.5083 0.625367 73.7776 1.20403C75.0469 1.76403 76.0269 2.57603 76.7176 3.64003C77.4083 4.70403 77.7536 5.97337 77.7536 7.44803C77.7536 8.90403 77.4083 10.164 76.7176 11.228C76.0269 12.292 75.0469 13.1134 73.7776 13.692C72.5083 14.252 70.9963 14.532 69.2416 14.532H63.2776L65.2936 12.488V19.936H60.7576ZM65.2936 12.992L63.2776 10.836H68.9896C70.3896 10.836 71.4349 10.5374 72.1256 9.94003C72.8163 9.3427 73.1616 8.51203 73.1616 7.44803C73.1616 6.36537 72.8163 5.52537 72.1256 4.92803C71.4349 4.3307 70.3896 4.03203 68.9896 4.03203H63.2776L65.2936 1.87603V12.992ZM77.4316 19.936L86.1676 0.336034H90.6476L99.4116 19.936H94.6516L87.4836 2.63203H89.2756L82.0796 19.936H77.4316ZM81.7996 15.736L83.0036 12.292H93.0836L94.3156 15.736H81.7996ZM110.552 20.272C109.04 20.272 107.63 20.0294 106.324 19.544C105.036 19.04 103.916 18.3307 102.964 17.416C102.012 16.5014 101.265 15.428 100.724 14.196C100.201 12.964 99.9397 11.6107 99.9397 10.136C99.9397 8.66137 100.201 7.30803 100.724 6.07603C101.265 4.84403 102.012 3.7707 102.964 2.85603C103.934 1.94137 105.064 1.24137 106.352 0.756033C107.64 0.252034 109.049 3.48091e-05 110.58 3.48091e-05C112.278 3.48091e-05 113.809 0.298702 115.172 0.896035C116.553 1.4747 117.71 2.33337 118.644 3.47204L115.732 6.16003C115.06 5.3947 114.313 4.82537 113.492 4.45203C112.67 4.06003 111.774 3.86404 110.804 3.86404C109.889 3.86404 109.049 4.01337 108.284 4.31203C107.518 4.6107 106.856 5.04003 106.296 5.60003C105.736 6.16003 105.297 6.8227 104.98 7.58803C104.681 8.35337 104.532 9.2027 104.532 10.136C104.532 11.0694 104.681 11.9187 104.98 12.684C105.297 13.4494 105.736 14.112 106.296 14.672C106.856 15.232 107.518 15.6614 108.284 15.96C109.049 16.2587 109.889 16.408 110.804 16.408C111.774 16.408 112.67 16.2214 113.492 15.848C114.313 15.456 115.06 14.868 115.732 14.084L118.644 16.772C117.71 17.9107 116.553 18.7787 115.172 19.376C113.809 19.9734 112.269 20.272 110.552 20.272ZM125.767 15.456L125.515 10.22L134.895 0.336034H139.935L131.479 9.43603L128.959 12.124L125.767 15.456ZM121.707 19.936V0.336034H126.215V19.936H121.707ZM135.119 19.936L128.147 11.396L131.115 8.17603L140.411 19.936H135.119ZM138.982 19.936L147.718 0.336034H152.198L160.962 19.936H156.202L149.034 2.63203H150.826L143.63 19.936H138.982ZM143.35 15.736L144.554 12.292H154.634L155.866 15.736H143.35ZM172.186 20.272C170.637 20.272 169.209 20.0294 167.902 19.544C166.614 19.04 165.485 18.3307 164.514 17.416C163.562 16.5014 162.816 15.428 162.274 14.196C161.752 12.964 161.49 11.6107 161.49 10.136C161.49 8.66137 161.752 7.30803 162.274 6.07603C162.816 4.84403 163.572 3.7707 164.542 2.85603C165.513 1.94137 166.652 1.24137 167.958 0.756033C169.265 0.252034 170.702 3.48091e-05 172.27 3.48091e-05C174.006 3.48091e-05 175.565 0.289368 176.946 0.868034C178.346 1.4467 179.522 2.2867 180.474 3.38803L177.562 6.07603C176.853 5.32937 176.078 4.7787 175.238 4.42403C174.398 4.0507 173.484 3.86404 172.494 3.86404C171.542 3.86404 170.674 4.01337 169.89 4.31203C169.106 4.6107 168.425 5.04003 167.846 5.60003C167.286 6.16003 166.848 6.8227 166.53 7.58803C166.232 8.35337 166.082 9.2027 166.082 10.136C166.082 11.0507 166.232 11.8907 166.53 12.656C166.848 13.4214 167.286 14.0934 167.846 14.672C168.425 15.232 169.097 15.6614 169.862 15.96C170.646 16.2587 171.505 16.408 172.438 16.408C173.334 16.408 174.202 16.268 175.042 15.988C175.901 15.6894 176.732 15.1947 177.534 14.504L180.11 17.78C179.046 18.5827 177.805 19.1987 176.386 19.628C174.986 20.0574 173.586 20.272 172.186 20.272ZM175.966 17.192V9.82803H180.11V17.78L175.966 17.192ZM184.324 19.936V0.336034H188.86V19.936H184.324ZM193.512 19.936V0.336034H197.264L208.828 14.448H207.007V0.336034H211.488V19.936H207.764L196.172 5.82403H197.992V19.936H193.512ZM225.589 20.272C224.039 20.272 222.611 20.0294 221.305 19.544C220.017 19.04 218.887 18.3307 217.917 17.416C216.965 16.5014 216.218 15.428 215.677 14.196C215.154 12.964 214.893 11.6107 214.893 10.136C214.893 8.66137 215.154 7.30803 215.677 6.07603C216.218 4.84403 216.974 3.7707 217.945 2.85603C218.915 1.94137 220.054 1.24137 221.361 0.756033C222.667 0.252034 224.105 3.48091e-05 225.673 3.48091e-05C227.409 3.48091e-05 228.967 0.289368 230.349 0.868034C231.749 1.4467 232.925 2.2867 233.877 3.38803L230.965 6.07603C230.255 5.32937 229.481 4.7787 228.641 4.42403C227.801 4.0507 226.886 3.86404 225.897 3.86404C224.945 3.86404 224.077 4.01337 223.293 4.31203C222.509 4.6107 221.827 5.04003 221.249 5.60003C220.689 6.16003 220.25 6.8227 219.933 7.58803C219.634 8.35337 219.485 9.2027 219.485 10.136C219.485 11.0507 219.634 11.8907 219.933 12.656C220.25 13.4214 220.689 14.0934 221.249 14.672C221.827 15.232 222.499 15.6614 223.265 15.96C224.049 16.2587 224.907 16.408 225.841 16.408C226.737 16.408 227.605 16.268 228.445 15.988C229.303 15.6894 230.134 15.1947 230.937 14.504L233.513 17.78C232.449 18.5827 231.207 19.1987 229.789 19.628C228.389 20.0574 226.989 20.272 225.589 20.272ZM229.369 17.192V9.82803H233.513V17.78L229.369 17.192Z" fill="#265715"/>
</svg>
