<svg width="149" height="19" viewBox="0 0 149 19" fill="none" xmlns="http://www.w3.org/2000/svg">
<path d="M-0.000273287 14.8398V0.839843H5.23973C6.42639 0.839843 7.44639 1.03318 8.29973 1.41984C9.15306 1.79318 9.80639 2.33984 10.2597 3.05984C10.7264 3.76651 10.9597 4.62651 10.9597 5.63984C10.9597 6.62651 10.7264 7.47984 10.2597 8.19984C9.80639 8.90651 9.15306 9.45318 8.29973 9.83984C7.44639 10.2265 6.42639 10.4198 5.23973 10.4198H0.819727L1.47973 9.71984V14.8398H-0.000273287ZM1.47973 9.83984L0.819727 9.11984H5.19973C6.59973 9.11984 7.65973 8.81984 8.37973 8.21984C9.11306 7.60651 9.47973 6.74651 9.47973 5.63984C9.47973 4.51984 9.11306 3.65318 8.37973 3.03984C7.65973 2.42651 6.59973 2.11984 5.19973 2.11984H0.819727L1.47973 1.41984V9.83984ZM13.5864 14.8398V4.33984H14.9464V7.19984L14.8064 6.69984C15.0998 5.89984 15.5931 5.29318 16.2864 4.87984C16.9798 4.45318 17.8398 4.23984 18.8664 4.23984V5.61984C18.8131 5.61984 18.7598 5.61984 18.7064 5.61984C18.6531 5.60651 18.5998 5.59984 18.5464 5.59984C17.4398 5.59984 16.5731 5.93984 15.9464 6.61984C15.3198 7.28651 15.0064 8.23984 15.0064 9.47984V14.8398H13.5864ZM25.6399 14.9398C24.6265 14.9398 23.7132 14.7132 22.8999 14.2598C22.0999 13.7932 21.4665 13.1598 20.9999 12.3598C20.5332 11.5465 20.2999 10.6198 20.2999 9.57984C20.2999 8.52651 20.5332 7.59984 20.9999 6.79984C21.4665 5.99984 22.0999 5.37318 22.8999 4.91984C23.6999 4.46651 24.6132 4.23984 25.6399 4.23984C26.6799 4.23984 27.5999 4.46651 28.3999 4.91984C29.2132 5.37318 29.8465 5.99984 30.2999 6.79984C30.7665 7.59984 30.9999 8.52651 30.9999 9.57984C30.9999 10.6198 30.7665 11.5465 30.2999 12.3598C29.8465 13.1598 29.2132 13.7932 28.3999 14.2598C27.5865 14.7132 26.6665 14.9398 25.6399 14.9398ZM25.6399 13.6798C26.3999 13.6798 27.0732 13.5132 27.6599 13.1798C28.2466 12.8332 28.7066 12.3532 29.0399 11.7398C29.3865 11.1132 29.5599 10.3932 29.5599 9.57984C29.5599 8.75318 29.3865 8.03318 29.0399 7.41984C28.7066 6.80651 28.2466 6.33318 27.6599 5.99984C27.0732 5.65318 26.4065 5.47984 25.6599 5.47984C24.9132 5.47984 24.2465 5.65318 23.6599 5.99984C23.0732 6.33318 22.6065 6.80651 22.2599 7.41984C21.9132 8.03318 21.7399 8.75318 21.7399 9.57984C21.7399 10.3932 21.9132 11.1132 22.2599 11.7398C22.6065 12.3532 23.0732 12.8332 23.6599 13.1798C24.2465 13.5132 24.9065 13.6798 25.6399 13.6798ZM38.0789 14.9398C37.0789 14.9398 36.1789 14.7132 35.3789 14.2598C34.5923 13.8065 33.9723 13.1798 33.5189 12.3798C33.0656 11.5665 32.8389 10.6332 32.8389 9.57984C32.8389 8.51318 33.0656 7.57984 33.5189 6.77984C33.9723 5.97984 34.5923 5.35984 35.3789 4.91984C36.1789 4.46651 37.0789 4.23984 38.0789 4.23984C38.9989 4.23984 39.8189 4.44651 40.5389 4.85984C41.2723 5.27318 41.8523 5.87984 42.2789 6.67984C42.7189 7.46651 42.9389 8.43318 42.9389 9.57984C42.9389 10.7132 42.7256 11.6798 42.2989 12.4798C41.8723 13.2798 41.2923 13.8932 40.5589 14.3198C39.8389 14.7332 39.0123 14.9398 38.0789 14.9398ZM38.1789 13.6798C38.9256 13.6798 39.5923 13.5132 40.1789 13.1798C40.7789 12.8332 41.2456 12.3532 41.5789 11.7398C41.9256 11.1132 42.0989 10.3932 42.0989 9.57984C42.0989 8.75318 41.9256 8.03318 41.5789 7.41984C41.2456 6.80651 40.7789 6.33318 40.1789 5.99984C39.5923 5.65318 38.9256 5.47984 38.1789 5.47984C37.4456 5.47984 36.7856 5.65318 36.1989 5.99984C35.6123 6.33318 35.1456 6.80651 34.7989 7.41984C34.4523 8.03318 34.2789 8.75318 34.2789 9.57984C34.2789 10.3932 34.4523 11.1132 34.7989 11.7398C35.1456 12.3532 35.6123 12.8332 36.1989 13.1798C36.7856 13.5132 37.4456 13.6798 38.1789 13.6798ZM42.1389 14.8398V11.6798L42.2789 9.55984L42.0789 7.43984V-0.000157118H43.4989V14.8398H42.1389ZM51.7936 14.9398C50.9003 14.9398 50.1203 14.7732 49.4536 14.4398C48.787 14.1065 48.267 13.6065 47.8936 12.9398C47.5336 12.2732 47.3536 11.4398 47.3536 10.4398V4.33984H48.7736V10.2798C48.7736 11.3998 49.047 12.2465 49.5936 12.8198C50.1536 13.3798 50.9336 13.6598 51.9336 13.6598C52.667 13.6598 53.3003 13.5132 53.8336 13.2198C54.3803 12.9132 54.7936 12.4732 55.0736 11.8998C55.367 11.3265 55.5136 10.6398 55.5136 9.83984V4.33984H56.9336V14.8398H55.5736V11.9598L55.7936 12.4798C55.4603 13.2532 54.9403 13.8598 54.2336 14.2998C53.5403 14.7265 52.727 14.9398 51.7936 14.9398ZM65.2511 14.9398C64.2111 14.9398 63.2778 14.7132 62.4511 14.2598C61.6378 13.7932 60.9978 13.1598 60.5311 12.3598C60.0645 11.5465 59.8311 10.6198 59.8311 9.57984C59.8311 8.52651 60.0645 7.59984 60.5311 6.79984C60.9978 5.99984 61.6378 5.37318 62.4511 4.91984C63.2778 4.46651 64.2111 4.23984 65.2511 4.23984C66.1445 4.23984 66.9511 4.41318 67.6711 4.75984C68.3911 5.10651 68.9578 5.62651 69.3711 6.31984L68.3111 7.03984C67.9511 6.50651 67.5045 6.11318 66.9711 5.85984C66.4378 5.60651 65.8578 5.47984 65.2311 5.47984C64.4845 5.47984 63.8111 5.65318 63.2111 5.99984C62.6111 6.33318 62.1378 6.80651 61.7911 7.41984C61.4445 8.03318 61.2711 8.75318 61.2711 9.57984C61.2711 10.4065 61.4445 11.1265 61.7911 11.7398C62.1378 12.3532 62.6111 12.8332 63.2111 13.1798C63.8111 13.5132 64.4845 13.6798 65.2311 13.6798C65.8578 13.6798 66.4378 13.5532 66.9711 13.2998C67.5045 13.0465 67.9511 12.6598 68.3111 12.1398L69.3711 12.8598C68.9578 13.5398 68.3911 14.0598 67.6711 14.4198C66.9511 14.7665 66.1445 14.9398 65.2511 14.9398ZM75.5979 14.9398C74.6112 14.9398 73.8512 14.6732 73.3179 14.1398C72.7845 13.6065 72.5179 12.8532 72.5179 11.8798V2.01984H73.9379V11.7998C73.9379 12.4132 74.0912 12.8865 74.3979 13.2198C74.7179 13.5532 75.1712 13.7198 75.7579 13.7198C76.3845 13.7198 76.9045 13.5398 77.3179 13.1798L77.8179 14.1998C77.5379 14.4532 77.1979 14.6398 76.7979 14.7598C76.4112 14.8798 76.0112 14.9398 75.5979 14.9398ZM70.6379 5.51984V4.33984H77.1379V5.51984H70.6379ZM85.9372 14.8398V0.839843H91.1772C92.3639 0.839843 93.3839 1.03318 94.2372 1.41984C95.0906 1.79318 95.7439 2.33984 96.1972 3.05984C96.6639 3.76651 96.8972 4.62651 96.8972 5.63984C96.8972 6.62651 96.6639 7.47984 96.1972 8.19984C95.7439 8.90651 95.0906 9.45318 94.2372 9.83984C93.3839 10.2132 92.3639 10.3998 91.1772 10.3998H86.7572L87.4172 9.71984V14.8398H85.9372ZM95.4972 14.8398L91.8972 9.75984H93.4972L97.1172 14.8398H95.4972ZM87.4172 9.83984L86.7572 9.13984H91.1372C92.5372 9.13984 93.5972 8.83318 94.3172 8.21984C95.0506 7.60651 95.4172 6.74651 95.4172 5.63984C95.4172 4.51984 95.0506 3.65318 94.3172 3.03984C93.5972 2.42651 92.5372 2.11984 91.1372 2.11984H86.7572L87.4172 1.41984V9.83984ZM106.573 14.8398V12.5198L106.513 12.1398V8.25984C106.513 7.36651 106.259 6.67984 105.753 6.19984C105.259 5.71984 104.519 5.47984 103.533 5.47984C102.853 5.47984 102.206 5.59318 101.593 5.81984C100.979 6.04651 100.459 6.34651 100.033 6.71984L99.3927 5.65984C99.926 5.20651 100.566 4.85984 101.313 4.61984C102.059 4.36651 102.846 4.23984 103.673 4.23984C105.033 4.23984 106.079 4.57984 106.813 5.25984C107.559 5.92651 107.933 6.94651 107.933 8.31984V14.8398H106.573ZM102.953 14.9398C102.166 14.9398 101.479 14.8132 100.893 14.5598C100.319 14.2932 99.8794 13.9332 99.5727 13.4798C99.266 13.0132 99.1127 12.4798 99.1127 11.8798C99.1127 11.3332 99.2394 10.8398 99.4927 10.3998C99.7594 9.94651 100.186 9.58651 100.773 9.31984C101.373 9.03984 102.173 8.89984 103.173 8.89984H106.793V9.95984H103.213C102.199 9.95984 101.493 10.1398 101.093 10.4998C100.706 10.8598 100.513 11.3065 100.513 11.8398C100.513 12.4398 100.746 12.9198 101.213 13.2798C101.679 13.6398 102.333 13.8198 103.173 13.8198C103.973 13.8198 104.659 13.6398 105.233 13.2798C105.819 12.9065 106.246 12.3732 106.513 11.6798L106.833 12.6598C106.566 13.3532 106.099 13.9065 105.433 14.3198C104.779 14.7332 103.953 14.9398 102.953 14.9398ZM117.15 4.23984C118.003 4.23984 118.75 4.40651 119.39 4.73984C120.043 5.05984 120.55 5.55318 120.91 6.21984C121.283 6.88651 121.47 7.72651 121.47 8.73984V14.8398H120.05V8.87984C120.05 7.77318 119.77 6.93984 119.21 6.37984C118.663 5.80651 117.89 5.51984 116.89 5.51984C116.143 5.51984 115.49 5.67318 114.93 5.97984C114.383 6.27318 113.956 6.70651 113.65 7.27984C113.356 7.83984 113.21 8.51984 113.21 9.31984V14.8398H111.79V4.33984H113.15V7.21984L112.93 6.67984C113.263 5.91984 113.796 5.32651 114.53 4.89984C115.263 4.45984 116.136 4.23984 117.15 4.23984ZM129.785 18.8198C128.825 18.8198 127.905 18.6798 127.025 18.3998C126.145 18.1198 125.432 17.7198 124.885 17.1998L125.605 16.1198C126.099 16.5598 126.705 16.9065 127.425 17.1598C128.159 17.4265 128.932 17.5598 129.745 17.5598C131.079 17.5598 132.059 17.2465 132.685 16.6198C133.312 16.0065 133.625 15.0465 133.625 13.7398V11.1198L133.825 9.31984L133.685 7.51984V4.33984H135.045V13.5598C135.045 15.3732 134.599 16.6998 133.705 17.5398C132.825 18.3932 131.519 18.8198 129.785 18.8198ZM129.525 14.4398C128.525 14.4398 127.625 14.2265 126.825 13.7998C126.025 13.3598 125.392 12.7532 124.925 11.9798C124.472 11.2065 124.245 10.3198 124.245 9.31984C124.245 8.31984 124.472 7.43984 124.925 6.67984C125.392 5.90651 126.025 5.30651 126.825 4.87984C127.625 4.45318 128.525 4.23984 129.525 4.23984C130.459 4.23984 131.299 4.43318 132.045 4.81984C132.792 5.20651 133.385 5.77984 133.825 6.53984C134.265 7.29984 134.485 8.22651 134.485 9.31984C134.485 10.4132 134.265 11.3398 133.825 12.0998C133.385 12.8598 132.792 13.4398 132.045 13.8398C131.299 14.2398 130.459 14.4398 129.525 14.4398ZM129.665 13.1798C130.439 13.1798 131.125 13.0198 131.725 12.6998C132.325 12.3665 132.799 11.9132 133.145 11.3398C133.492 10.7532 133.665 10.0798 133.665 9.31984C133.665 8.55984 133.492 7.89318 133.145 7.31984C132.799 6.74651 132.325 6.29984 131.725 5.97984C131.125 5.64651 130.439 5.47984 129.665 5.47984C128.905 5.47984 128.219 5.64651 127.605 5.97984C127.005 6.29984 126.532 6.74651 126.185 7.31984C125.852 7.89318 125.685 8.55984 125.685 9.31984C125.685 10.0798 125.852 10.7532 126.185 11.3398C126.532 11.9132 127.005 12.3665 127.605 12.6998C128.219 13.0198 128.905 13.1798 129.665 13.1798ZM143.457 14.9398C142.363 14.9398 141.403 14.7132 140.577 14.2598C139.75 13.7932 139.103 13.1598 138.637 12.3598C138.17 11.5465 137.937 10.6198 137.937 9.57984C137.937 8.53984 138.157 7.61984 138.597 6.81984C139.05 6.01984 139.663 5.39318 140.437 4.93984C141.223 4.47318 142.103 4.23984 143.077 4.23984C144.063 4.23984 144.937 4.46651 145.697 4.91984C146.47 5.35984 147.077 5.98651 147.517 6.79984C147.957 7.59984 148.177 8.52651 148.177 9.57984C148.177 9.64651 148.17 9.71984 148.157 9.79984C148.157 9.86651 148.157 9.93984 148.157 10.0198H139.017V8.95984H147.397L146.837 9.37984C146.837 8.61984 146.67 7.94651 146.337 7.35984C146.017 6.75984 145.577 6.29318 145.017 5.95984C144.457 5.62651 143.81 5.45984 143.077 5.45984C142.357 5.45984 141.71 5.62651 141.137 5.95984C140.563 6.29318 140.117 6.75984 139.797 7.35984C139.477 7.95984 139.317 8.64651 139.317 9.41984V9.63984C139.317 10.4398 139.49 11.1465 139.837 11.7598C140.197 12.3598 140.69 12.8332 141.317 13.1798C141.957 13.5132 142.683 13.6798 143.497 13.6798C144.137 13.6798 144.73 13.5665 145.277 13.3398C145.837 13.1132 146.317 12.7665 146.717 12.2998L147.517 13.2198C147.05 13.7798 146.463 14.2065 145.757 14.4998C145.063 14.7932 144.297 14.9398 143.457 14.9398Z" fill="#265715"/>
</svg>
