<svg width="152" height="113" viewBox="0 0 152 113" fill="none" xmlns="http://www.w3.org/2000/svg">
<path d="M2.352 20V9.76L3.472 10.88H0.112V8.8H4.944V20H2.352ZM11.3696 20.192C10.4523 20.192 9.63096 19.968 8.90562 19.52C8.18029 19.0613 7.60962 18.4 7.19362 17.536C6.77762 16.672 6.56962 15.6267 6.56962 14.4C6.56962 13.1733 6.77762 12.128 7.19362 11.264C7.60962 10.4 8.18029 9.744 8.90562 9.296C9.63096 8.83733 10.4523 8.608 11.3696 8.608C12.2976 8.608 13.119 8.83733 13.8336 9.296C14.559 9.744 15.1296 10.4 15.5456 11.264C15.9616 12.128 16.1696 13.1733 16.1696 14.4C16.1696 15.6267 15.9616 16.672 15.5456 17.536C15.1296 18.4 14.559 19.0613 13.8336 19.52C13.119 19.968 12.2976 20.192 11.3696 20.192ZM11.3696 18C11.807 18 12.1856 17.8773 12.5056 17.632C12.8363 17.3867 13.0923 16.9973 13.2736 16.464C13.4656 15.9307 13.5616 15.2427 13.5616 14.4C13.5616 13.5573 13.4656 12.8693 13.2736 12.336C13.0923 11.8027 12.8363 11.4133 12.5056 11.168C12.1856 10.9227 11.807 10.8 11.3696 10.8C10.943 10.8 10.5643 10.9227 10.2336 11.168C9.91362 11.4133 9.65762 11.8027 9.46563 12.336C9.28429 12.8693 9.19362 13.5573 9.19362 14.4C9.19362 15.2427 9.28429 15.9307 9.46563 16.464C9.65762 16.9973 9.91362 17.3867 10.2336 17.632C10.5643 17.8773 10.943 18 11.3696 18ZM21.909 20.192C20.9917 20.192 20.1703 19.968 19.445 19.52C18.7197 19.0613 18.149 18.4 17.733 17.536C17.317 16.672 17.109 15.6267 17.109 14.4C17.109 13.1733 17.317 12.128 17.733 11.264C18.149 10.4 18.7197 9.744 19.445 9.296C20.1703 8.83733 20.9917 8.608 21.909 8.608C22.837 8.608 23.6583 8.83733 24.373 9.296C25.0983 9.744 25.669 10.4 26.085 11.264C26.501 12.128 26.709 13.1733 26.709 14.4C26.709 15.6267 26.501 16.672 26.085 17.536C25.669 18.4 25.0983 19.0613 24.373 19.52C23.6583 19.968 22.837 20.192 21.909 20.192ZM21.909 18C22.3463 18 22.725 17.8773 23.045 17.632C23.3757 17.3867 23.6317 16.9973 23.813 16.464C24.005 15.9307 24.101 15.2427 24.101 14.4C24.101 13.5573 24.005 12.8693 23.813 12.336C23.6317 11.8027 23.3757 11.4133 23.045 11.168C22.725 10.9227 22.3463 10.8 21.909 10.8C21.4823 10.8 21.1037 10.9227 20.773 11.168C20.453 11.4133 20.197 11.8027 20.005 12.336C19.8237 12.8693 19.733 13.5573 19.733 14.4C19.733 15.2427 19.8237 15.9307 20.005 16.464C20.197 16.9973 20.453 17.3867 20.773 17.632C21.1037 17.8773 21.4823 18 21.909 18ZM32.5636 20V8.8H34.7076L39.4756 16.704H38.3396L43.0276 8.8H45.1556L45.1876 20H42.7556L42.7396 12.528H43.1876L39.4436 18.816H38.2756L34.4516 12.528H34.9956V20H32.5636ZM47.5249 20V8.8H50.1169V17.888H55.7329V20H47.5249ZM60.5764 16.496V14.496H65.1044V16.496H60.5764ZM3.168 51.104C2.528 50.1333 2.032 49.0133 1.68 47.744C1.33867 46.464 1.168 45.088 1.168 43.616C1.168 42.144 1.33867 40.768 1.68 39.488C2.032 38.1973 2.528 37.0773 3.168 36.128H5.552C4.88 37.3333 4.38933 38.5493 4.08 39.776C3.77067 40.992 3.616 42.272 3.616 43.616C3.616 44.96 3.77067 46.2453 4.08 47.472C4.38933 48.688 4.88 49.8987 5.552 51.104H3.168ZM8.51875 48L5.41475 39.392H7.76675L10.3428 46.8H9.22275L11.9107 39.392H14.0228L16.6308 46.8H15.5108L18.1668 39.392H20.3748L17.2548 48H14.8388L12.5508 41.648H13.2868L10.9188 48H8.51875ZM21.2151 48V39.392H23.7111V48H21.2151ZM22.4631 38.192C22.0045 38.192 21.6311 38.0587 21.3431 37.792C21.0551 37.5253 20.9111 37.1947 20.9111 36.8C20.9111 36.4053 21.0551 36.0747 21.3431 35.808C21.6311 35.5413 22.0045 35.408 22.4631 35.408C22.9218 35.408 23.2951 35.536 23.5831 35.792C23.8711 36.0373 24.0151 36.3573 24.0151 36.752C24.0151 37.168 23.8711 37.5147 23.5831 37.792C23.3058 38.0587 22.9325 38.192 22.4631 38.192ZM29.2276 48.128C28.2143 48.128 27.425 47.872 26.8596 47.36C26.2943 46.8373 26.0116 46.064 26.0116 45.04V37.488H28.5076V45.008C28.5076 45.3707 28.6036 45.6533 28.7956 45.856C28.9876 46.048 29.249 46.144 29.5796 46.144C29.9743 46.144 30.3103 46.0373 30.5876 45.824L31.2596 47.584C31.0036 47.7653 30.6943 47.904 30.3316 48C29.9796 48.0853 29.6116 48.128 29.2276 48.128ZM24.6836 41.504V39.584H30.6516V41.504H24.6836ZM37.5727 39.264C38.2554 39.264 38.8634 39.4027 39.3967 39.68C39.9407 39.9467 40.3674 40.3627 40.6768 40.928C40.9861 41.4827 41.1407 42.1973 41.1407 43.072V48H38.6447V43.456C38.6447 42.7627 38.4901 42.2507 38.1807 41.92C37.8821 41.5893 37.4554 41.424 36.9007 41.424C36.5061 41.424 36.1487 41.5093 35.8287 41.68C35.5194 41.84 35.2741 42.0907 35.0927 42.432C34.9221 42.7733 34.8367 43.2107 34.8367 43.744V48H32.3407V36.128H34.8367V41.776L34.2767 41.056C34.5861 40.48 35.0287 40.0373 35.6047 39.728C36.1807 39.4187 36.8367 39.264 37.5727 39.264ZM50.1905 48.128C49.4545 48.128 48.7452 48.0427 48.0625 47.872C47.3905 47.6907 46.8572 47.4667 46.4625 47.2L47.2945 45.408C47.6892 45.6533 48.1532 45.856 48.6865 46.016C49.2305 46.1653 49.7638 46.24 50.2865 46.24C50.8625 46.24 51.2678 46.1707 51.5025 46.032C51.7478 45.8933 51.8705 45.7013 51.8705 45.456C51.8705 45.2533 51.7745 45.104 51.5825 45.008C51.4012 44.9013 51.1558 44.8213 50.8465 44.768C50.5372 44.7147 50.1958 44.6613 49.8225 44.608C49.4598 44.5547 49.0918 44.4853 48.7185 44.4C48.3452 44.304 48.0038 44.1653 47.6945 43.984C47.3852 43.8027 47.1345 43.5573 46.9425 43.248C46.7612 42.9387 46.6705 42.5387 46.6705 42.048C46.6705 41.504 46.8252 41.024 47.1345 40.608C47.4545 40.192 47.9132 39.8667 48.5105 39.632C49.1078 39.3867 49.8225 39.264 50.6545 39.264C51.2412 39.264 51.8385 39.328 52.4465 39.456C53.0545 39.584 53.5612 39.7707 53.9665 40.016L53.1345 41.792C52.7185 41.5467 52.2972 41.3813 51.8705 41.296C51.4545 41.2 51.0492 41.152 50.6545 41.152C50.0998 41.152 49.6945 41.2267 49.4385 41.376C49.1825 41.5253 49.0545 41.7173 49.0545 41.952C49.0545 42.1653 49.1452 42.3253 49.3265 42.432C49.5185 42.5387 49.7692 42.624 50.0785 42.688C50.3878 42.752 50.7238 42.8107 51.0865 42.864C51.4598 42.9067 51.8332 42.976 52.2065 43.072C52.5798 43.168 52.9158 43.3067 53.2145 43.488C53.5238 43.6587 53.7745 43.8987 53.9665 44.208C54.1585 44.5067 54.2545 44.9013 54.2545 45.392C54.2545 45.9253 54.0945 46.4 53.7745 46.816C53.4545 47.2213 52.9905 47.5413 52.3825 47.776C51.7852 48.0107 51.0545 48.128 50.1905 48.128ZM60.5625 48.128C59.8372 48.128 59.2025 47.968 58.6585 47.648C58.1145 47.328 57.6878 46.8427 57.3785 46.192C57.0798 45.5307 56.9305 44.6987 56.9305 43.696C56.9305 42.6827 57.0745 41.8507 57.3625 41.2C57.6505 40.5493 58.0665 40.064 58.6105 39.744C59.1545 39.424 59.8052 39.264 60.5625 39.264C61.3732 39.264 62.0985 39.4507 62.7385 39.824C63.3892 40.1867 63.9012 40.6987 64.2745 41.36C64.6585 42.0213 64.8505 42.8 64.8505 43.696C64.8505 44.6027 64.6585 45.3867 64.2745 46.048C63.9012 46.7093 63.3892 47.2213 62.7385 47.584C62.0985 47.9467 61.3732 48.128 60.5625 48.128ZM55.4745 51.104V39.392H57.8585V41.152L57.8105 43.712L57.9705 46.256V51.104H55.4745ZM60.1305 46.08C60.5465 46.08 60.9145 45.984 61.2345 45.792C61.5652 45.6 61.8265 45.328 62.0185 44.976C62.2212 44.6133 62.3225 44.1867 62.3225 43.696C62.3225 43.1947 62.2212 42.768 62.0185 42.416C61.8265 42.064 61.5652 41.792 61.2345 41.6C60.9145 41.408 60.5465 41.312 60.1305 41.312C59.7145 41.312 59.3412 41.408 59.0105 41.6C58.6798 41.792 58.4185 42.064 58.2265 42.416C58.0345 42.768 57.9385 43.1947 57.9385 43.696C57.9385 44.1867 58.0345 44.6133 58.2265 44.976C58.4185 45.328 58.6798 45.6 59.0105 45.792C59.3412 45.984 59.7145 46.08 60.1305 46.08ZM70.2974 48.128C69.38 48.128 68.564 47.936 67.8494 47.552C67.1454 47.168 66.5854 46.6453 66.1694 45.984C65.764 45.312 65.5614 44.5493 65.5614 43.696C65.5614 42.832 65.764 42.0693 66.1694 41.408C66.5854 40.736 67.1454 40.2133 67.8494 39.84C68.564 39.456 69.38 39.264 70.2974 39.264C71.204 39.264 72.0147 39.456 72.7294 39.84C73.444 40.2133 74.004 40.7307 74.4094 41.392C74.8147 42.0533 75.0174 42.8213 75.0174 43.696C75.0174 44.5493 74.8147 45.312 74.4094 45.984C74.004 46.6453 73.444 47.168 72.7294 47.552C72.0147 47.936 71.204 48.128 70.2974 48.128ZM70.2974 46.08C70.7134 46.08 71.0867 45.984 71.4174 45.792C71.748 45.6 72.0094 45.328 72.2014 44.976C72.3934 44.6133 72.4894 44.1867 72.4894 43.696C72.4894 43.1947 72.3934 42.768 72.2014 42.416C72.0094 42.064 71.748 41.792 71.4174 41.6C71.0867 41.408 70.7134 41.312 70.2974 41.312C69.8814 41.312 69.508 41.408 69.1774 41.6C68.8467 41.792 68.58 42.064 68.3774 42.416C68.1854 42.768 68.0894 43.1947 68.0894 43.696C68.0894 44.1867 68.1854 44.6133 68.3774 44.976C68.58 45.328 68.8467 45.6 69.1774 45.792C69.508 45.984 69.8814 46.08 70.2974 46.08ZM80.4618 48.128C79.5444 48.128 78.7284 47.936 78.0138 47.552C77.3098 47.168 76.7498 46.6453 76.3338 45.984C75.9284 45.312 75.7258 44.5493 75.7258 43.696C75.7258 42.832 75.9284 42.0693 76.3338 41.408C76.7498 40.736 77.3098 40.2133 78.0138 39.84C78.7284 39.456 79.5444 39.264 80.4618 39.264C81.3684 39.264 82.1791 39.456 82.8938 39.84C83.6084 40.2133 84.1684 40.7307 84.5738 41.392C84.9791 42.0533 85.1818 42.8213 85.1818 43.696C85.1818 44.5493 84.9791 45.312 84.5738 45.984C84.1684 46.6453 83.6084 47.168 82.8938 47.552C82.1791 47.936 81.3684 48.128 80.4618 48.128ZM80.4618 46.08C80.8778 46.08 81.2511 45.984 81.5818 45.792C81.9124 45.6 82.1738 45.328 82.3658 44.976C82.5578 44.6133 82.6538 44.1867 82.6538 43.696C82.6538 43.1947 82.5578 42.768 82.3658 42.416C82.1738 42.064 81.9124 41.792 81.5818 41.6C81.2511 41.408 80.8778 41.312 80.4618 41.312C80.0458 41.312 79.6724 41.408 79.3418 41.6C79.0111 41.792 78.7444 42.064 78.5418 42.416C78.3498 42.768 78.2538 43.1947 78.2538 43.696C78.2538 44.1867 78.3498 44.6133 78.5418 44.976C78.7444 45.328 79.0111 45.6 79.3418 45.792C79.6724 45.984 80.0458 46.08 80.4618 46.08ZM91.7621 39.264C92.4448 39.264 93.0528 39.4027 93.5861 39.68C94.1301 39.9467 94.5568 40.3627 94.8661 40.928C95.1755 41.4827 95.3301 42.1973 95.3301 43.072V48H92.8341V43.456C92.8341 42.7627 92.6795 42.2507 92.3701 41.92C92.0715 41.5893 91.6448 41.424 91.0901 41.424C90.6955 41.424 90.3381 41.5093 90.0181 41.68C89.7088 41.84 89.4635 42.0907 89.2821 42.432C89.1115 42.7733 89.0261 43.2107 89.0261 43.744V48H86.5301V39.392H88.9141V41.776L88.4661 41.056C88.7755 40.48 89.2181 40.0373 89.7941 39.728C90.3701 39.4187 91.0261 39.264 91.7621 39.264ZM98.6646 51.104H96.2806C96.974 49.8987 97.47 48.688 97.7686 47.472C98.078 46.2453 98.2326 44.96 98.2326 43.616C98.2326 42.272 98.078 40.992 97.7686 39.776C97.47 38.5493 96.974 37.3333 96.2806 36.128H98.6646C99.326 37.0773 99.8273 38.1973 100.169 39.488C100.51 40.768 100.681 42.144 100.681 43.616C100.681 45.088 100.51 46.464 100.169 47.744C99.8273 49.0133 99.326 50.1333 98.6646 51.104ZM112.514 48.192C111.629 48.192 110.808 48.048 110.05 47.76C109.304 47.472 108.653 47.0667 108.098 46.544C107.554 46.0213 107.128 45.408 106.818 44.704C106.52 44 106.37 43.232 106.37 42.4C106.37 41.568 106.52 40.8 106.818 40.096C107.128 39.392 107.56 38.7787 108.114 38.256C108.669 37.7333 109.32 37.328 110.066 37.04C110.813 36.752 111.624 36.608 112.498 36.608C113.384 36.608 114.194 36.752 114.93 37.04C115.677 37.328 116.322 37.7333 116.866 38.256C117.421 38.7787 117.853 39.392 118.162 40.096C118.472 40.7893 118.626 41.5573 118.626 42.4C118.626 43.232 118.472 44.0053 118.162 44.72C117.853 45.424 117.421 46.0373 116.866 46.56C116.322 47.072 115.677 47.472 114.93 47.76C114.194 48.048 113.389 48.192 112.514 48.192ZM112.498 45.984C113 45.984 113.458 45.8987 113.874 45.728C114.301 45.5573 114.674 45.312 114.994 44.992C115.314 44.672 115.56 44.2933 115.73 43.856C115.912 43.4187 116.002 42.9333 116.002 42.4C116.002 41.8667 115.912 41.3813 115.73 40.944C115.56 40.5067 115.314 40.128 114.994 39.808C114.685 39.488 114.317 39.2427 113.89 39.072C113.464 38.9013 113 38.816 112.498 38.816C111.997 38.816 111.533 38.9013 111.106 39.072C110.69 39.2427 110.322 39.488 110.002 39.808C109.682 40.128 109.432 40.5067 109.25 40.944C109.08 41.3813 108.994 41.8667 108.994 42.4C108.994 42.9227 109.08 43.408 109.25 43.856C109.432 44.2933 109.677 44.672 109.986 44.992C110.306 45.312 110.68 45.5573 111.106 45.728C111.533 45.8987 111.997 45.984 112.498 45.984ZM123.239 48L118.407 36.8H121.207L125.431 46.72H123.783L128.071 36.8H130.647L125.799 48H123.239ZM129.415 48L134.407 36.8H136.967L141.975 48H139.255L135.159 38.112H136.183L132.071 48H129.415ZM131.911 45.6L132.599 43.632H138.359L139.063 45.6H131.911ZM142.817 48V36.8H145.409V45.888H151.025V48H142.817Z" fill="#4A8036"/>
<path d="M1.316 74V64.2H3.136V74H1.316ZM9.0487 74.098C8.2647 74.098 7.5647 73.9347 6.9487 73.608C6.34204 73.272 5.86604 72.8147 5.5207 72.236C5.17537 71.6573 5.0027 70.9993 5.0027 70.262C5.0027 69.5153 5.17537 68.8573 5.5207 68.288C5.86604 67.7093 6.34204 67.2567 6.9487 66.93C7.5647 66.6033 8.2647 66.44 9.0487 66.44C9.7767 66.44 10.416 66.5893 10.9667 66.888C11.5267 67.1773 11.9514 67.6067 12.2407 68.176L10.8967 68.96C10.6727 68.6053 10.3974 68.344 10.0707 68.176C9.75337 68.008 9.40804 67.924 9.0347 67.924C8.60537 67.924 8.21804 68.0173 7.8727 68.204C7.52737 68.3907 7.2567 68.6613 7.0607 69.016C6.8647 69.3613 6.7667 69.7767 6.7667 70.262C6.7667 70.7473 6.8647 71.1673 7.0607 71.522C7.2567 71.8673 7.52737 72.1333 7.8727 72.32C8.21804 72.5067 8.60537 72.6 9.0347 72.6C9.40804 72.6 9.75337 72.516 10.0707 72.348C10.3974 72.18 10.6727 71.9187 10.8967 71.564L12.2407 72.348C11.9514 72.908 11.5267 73.342 10.9667 73.65C10.416 73.9487 9.7767 74.098 9.0487 74.098ZM17.1581 74.098C16.3274 74.098 15.5994 73.9347 14.9741 73.608C14.3581 73.272 13.8774 72.8147 13.5321 72.236C13.1961 71.6573 13.0281 70.9993 13.0281 70.262C13.0281 69.5153 13.1914 68.8573 13.5181 68.288C13.8541 67.7093 14.3114 67.2567 14.8901 66.93C15.4781 66.6033 16.1454 66.44 16.8921 66.44C17.6201 66.44 18.2688 66.5987 18.8381 66.916C19.4074 67.2333 19.8554 67.6813 20.1821 68.26C20.5088 68.8387 20.6721 69.52 20.6721 70.304C20.6721 70.3787 20.6674 70.4627 20.6581 70.556C20.6581 70.6493 20.6534 70.738 20.6441 70.822H14.4141V69.66H19.7201L19.0341 70.024C19.0434 69.5947 18.9548 69.2167 18.7681 68.89C18.5814 68.5633 18.3248 68.3067 17.9981 68.12C17.6808 67.9333 17.3121 67.84 16.8921 67.84C16.4628 67.84 16.0848 67.9333 15.7581 68.12C15.4408 68.3067 15.1888 68.568 15.0021 68.904C14.8248 69.2307 14.7361 69.618 14.7361 70.066V70.346C14.7361 70.794 14.8388 71.1907 15.0441 71.536C15.2494 71.8813 15.5388 72.1473 15.9121 72.334C16.2854 72.5207 16.7148 72.614 17.2001 72.614C17.6201 72.614 17.9981 72.5487 18.3341 72.418C18.6701 72.2873 18.9688 72.082 19.2301 71.802L20.1681 72.88C19.8321 73.272 19.4074 73.5753 18.8941 73.79C18.3901 73.9953 17.8114 74.098 17.1581 74.098ZM30.9262 74.14C30.1796 74.14 29.4842 74.0187 28.8402 73.776C28.2056 73.524 27.6502 73.174 27.1742 72.726C26.7076 72.2687 26.3436 71.732 26.0822 71.116C25.8209 70.5 25.6902 69.828 25.6902 69.1C25.6902 68.372 25.8209 67.7 26.0822 67.084C26.3436 66.468 26.7122 65.936 27.1882 65.488C27.6642 65.0307 28.2196 64.6807 28.8542 64.438C29.4889 64.186 30.1842 64.06 30.9402 64.06C31.7429 64.06 32.4756 64.2 33.1382 64.48C33.8009 64.7507 34.3609 65.1567 34.8182 65.698L33.6422 66.804C33.2876 66.4213 32.8909 66.1367 32.4522 65.95C32.0136 65.754 31.5376 65.656 31.0242 65.656C30.5109 65.656 30.0396 65.74 29.6102 65.908C29.1902 66.076 28.8216 66.314 28.5042 66.622C28.1962 66.93 27.9536 67.294 27.7762 67.714C27.6082 68.134 27.5242 68.596 27.5242 69.1C27.5242 69.604 27.6082 70.066 27.7762 70.486C27.9536 70.906 28.1962 71.27 28.5042 71.578C28.8216 71.886 29.1902 72.124 29.6102 72.292C30.0396 72.46 30.5109 72.544 31.0242 72.544C31.5376 72.544 32.0136 72.4507 32.4522 72.264C32.8909 72.068 33.2876 71.774 33.6422 71.382L34.8182 72.502C34.3609 73.034 33.8009 73.44 33.1382 73.72C32.4756 74 31.7382 74.14 30.9262 74.14ZM36.3941 74V66.524H38.0601V68.582L37.8641 67.98C38.0881 67.476 38.4381 67.0933 38.9141 66.832C39.3994 66.5707 40.0014 66.44 40.7201 66.44V68.106C40.6454 68.0873 40.5754 68.078 40.5101 68.078C40.4448 68.0687 40.3794 68.064 40.3141 68.064C39.6514 68.064 39.1241 68.26 38.7321 68.652C38.3401 69.0347 38.1441 69.6087 38.1441 70.374V74H36.3941ZM45.6503 74.098C44.8196 74.098 44.0916 73.9347 43.4663 73.608C42.8503 73.272 42.3696 72.8147 42.0243 72.236C41.6883 71.6573 41.5203 70.9993 41.5203 70.262C41.5203 69.5153 41.6836 68.8573 42.0103 68.288C42.3463 67.7093 42.8036 67.2567 43.3823 66.93C43.9703 66.6033 44.6376 66.44 45.3843 66.44C46.1123 66.44 46.7609 66.5987 47.3303 66.916C47.8996 67.2333 48.3476 67.6813 48.6743 68.26C49.0009 68.8387 49.1643 69.52 49.1643 70.304C49.1643 70.3787 49.1596 70.4627 49.1503 70.556C49.1503 70.6493 49.1456 70.738 49.1363 70.822H42.9063V69.66H48.2123L47.5263 70.024C47.5356 69.5947 47.4469 69.2167 47.2603 68.89C47.0736 68.5633 46.8169 68.3067 46.4903 68.12C46.1729 67.9333 45.8043 67.84 45.3843 67.84C44.9549 67.84 44.5769 67.9333 44.2503 68.12C43.9329 68.3067 43.6809 68.568 43.4943 68.904C43.3169 69.2307 43.2283 69.618 43.2283 70.066V70.346C43.2283 70.794 43.3309 71.1907 43.5363 71.536C43.7416 71.8813 44.0309 72.1473 44.4043 72.334C44.7776 72.5207 45.2069 72.614 45.6923 72.614C46.1123 72.614 46.4903 72.5487 46.8263 72.418C47.1623 72.2873 47.4609 72.082 47.7223 71.802L48.6603 72.88C48.3243 73.272 47.8996 73.5753 47.3863 73.79C46.8823 73.9953 46.3036 74.098 45.6503 74.098ZM55.2462 74V72.488L55.1482 72.166V69.52C55.1482 69.0067 54.9942 68.61 54.6862 68.33C54.3782 68.0407 53.9115 67.896 53.2862 67.896C52.8662 67.896 52.4509 67.9613 52.0402 68.092C51.6389 68.2227 51.2982 68.4047 51.0182 68.638L50.3322 67.364C50.7335 67.056 51.2095 66.8273 51.7602 66.678C52.3202 66.5193 52.8989 66.44 53.4962 66.44C54.5789 66.44 55.4142 66.7013 56.0022 67.224C56.5995 67.7373 56.8982 68.5353 56.8982 69.618V74H55.2462ZM52.8942 74.098C52.3342 74.098 51.8442 74.0047 51.4242 73.818C51.0042 73.622 50.6775 73.356 50.4442 73.02C50.2202 72.6747 50.1082 72.2873 50.1082 71.858C50.1082 71.438 50.2062 71.06 50.4022 70.724C50.6075 70.388 50.9389 70.122 51.3962 69.926C51.8535 69.73 52.4602 69.632 53.2162 69.632H55.3862V70.794H53.3422C52.7449 70.794 52.3435 70.892 52.1382 71.088C51.9329 71.2747 51.8302 71.508 51.8302 71.788C51.8302 72.1053 51.9562 72.3573 52.2082 72.544C52.4602 72.7307 52.8102 72.824 53.2582 72.824C53.6875 72.824 54.0702 72.726 54.4062 72.53C54.7515 72.334 54.9989 72.0447 55.1482 71.662L55.4422 72.712C55.2742 73.1507 54.9709 73.4913 54.5322 73.734C54.1029 73.9767 53.5569 74.098 52.8942 74.098ZM68.5801 66.44C69.1774 66.44 69.7048 66.5567 70.1621 66.79C70.6288 67.0233 70.9928 67.3827 71.2541 67.868C71.5154 68.344 71.6461 68.96 71.6461 69.716V74H69.8961V69.94C69.8961 69.2773 69.7514 68.7827 69.4621 68.456C69.1728 68.1293 68.7574 67.966 68.2161 67.966C67.8334 67.966 67.4928 68.05 67.1941 68.218C66.9048 68.386 66.6761 68.6333 66.5081 68.96C66.3494 69.2867 66.2701 69.702 66.2701 70.206V74H64.5201V69.94C64.5201 69.2773 64.3754 68.7827 64.0861 68.456C63.7968 68.1293 63.3814 67.966 62.8401 67.966C62.4574 67.966 62.1168 68.05 61.8181 68.218C61.5288 68.386 61.3001 68.6333 61.1321 68.96C60.9734 69.2867 60.8941 69.702 60.8941 70.206V74H59.1441V66.524H60.8101V68.512L60.5161 67.924C60.7681 67.4387 61.1321 67.07 61.6081 66.818C62.0934 66.566 62.6441 66.44 63.2601 66.44C63.9601 66.44 64.5668 66.6127 65.0801 66.958C65.6028 67.3033 65.9481 67.826 66.1161 68.526L65.4301 68.288C65.6728 67.728 66.0741 67.28 66.6341 66.944C67.1941 66.608 67.8428 66.44 68.5801 66.44ZM82.5115 74.14C81.7462 74.14 81.0415 74.014 80.3975 73.762C79.7535 73.51 79.1935 73.16 78.7175 72.712C78.2415 72.2547 77.8728 71.7227 77.6115 71.116C77.3502 70.5 77.2195 69.828 77.2195 69.1C77.2195 68.372 77.3502 67.7047 77.6115 67.098C77.8728 66.482 78.2415 65.95 78.7175 65.502C79.1935 65.0447 79.7535 64.69 80.3975 64.438C81.0415 64.186 81.7415 64.06 82.4975 64.06C83.2628 64.06 83.9628 64.186 84.5975 64.438C85.2415 64.69 85.8015 65.0447 86.2775 65.502C86.7535 65.95 87.1222 66.482 87.3835 67.098C87.6448 67.7047 87.7755 68.372 87.7755 69.1C87.7755 69.828 87.6448 70.5 87.3835 71.116C87.1222 71.732 86.7535 72.264 86.2775 72.712C85.8015 73.16 85.2415 73.51 84.5975 73.762C83.9628 74.014 83.2675 74.14 82.5115 74.14ZM82.4975 72.544C82.9922 72.544 83.4495 72.46 83.8695 72.292C84.2895 72.124 84.6535 71.886 84.9615 71.578C85.2695 71.2607 85.5075 70.8967 85.6755 70.486C85.8528 70.066 85.9415 69.604 85.9415 69.1C85.9415 68.596 85.8528 68.1387 85.6755 67.728C85.5075 67.308 85.2695 66.944 84.9615 66.636C84.6535 66.3187 84.2895 66.076 83.8695 65.908C83.4495 65.74 82.9922 65.656 82.4975 65.656C82.0028 65.656 81.5455 65.74 81.1255 65.908C80.7148 66.076 80.3508 66.3187 80.0335 66.636C79.7255 66.944 79.4828 67.308 79.3055 67.728C79.1375 68.1387 79.0535 68.596 79.0535 69.1C79.0535 69.5947 79.1375 70.052 79.3055 70.472C79.4828 70.892 79.7255 71.2607 80.0335 71.578C80.3415 71.886 80.7055 72.124 81.1255 72.292C81.5455 72.46 82.0028 72.544 82.4975 72.544ZM91.5247 74L88.3187 66.524H90.1387L92.8967 73.118H92.0007L94.8567 66.524H96.5367L93.3307 74H91.5247ZM102.004 74V72.488L101.906 72.166V69.52C101.906 69.0067 101.752 68.61 101.444 68.33C101.136 68.0407 100.669 67.896 100.044 67.896C99.624 67.896 99.2087 67.9613 98.798 68.092C98.3967 68.2227 98.056 68.4047 97.776 68.638L97.09 67.364C97.4913 67.056 97.9673 66.8273 98.518 66.678C99.078 66.5193 99.6567 66.44 100.254 66.44C101.337 66.44 102.172 66.7013 102.76 67.224C103.357 67.7373 103.656 68.5353 103.656 69.618V74H102.004ZM99.652 74.098C99.092 74.098 98.602 74.0047 98.182 73.818C97.762 73.622 97.4353 73.356 97.202 73.02C96.978 72.6747 96.866 72.2873 96.866 71.858C96.866 71.438 96.964 71.06 97.16 70.724C97.3653 70.388 97.6967 70.122 98.154 69.926C98.6113 69.73 99.218 69.632 99.974 69.632H102.144V70.794H100.1C99.5027 70.794 99.1013 70.892 98.896 71.088C98.6907 71.2747 98.588 71.508 98.588 71.788C98.588 72.1053 98.714 72.3573 98.966 72.544C99.218 72.7307 99.568 72.824 100.016 72.824C100.445 72.824 100.828 72.726 101.164 72.53C101.509 72.334 101.757 72.0447 101.906 71.662L102.2 72.712C102.032 73.1507 101.729 73.4913 101.29 73.734C100.861 73.9767 100.315 74.098 99.652 74.098ZM105.902 74V63.612H107.652V74H105.902Z" fill="black"/>
<path d="M3.09 96.08C2.55667 96.08 2.04667 96 1.56 95.84C1.07333 95.6733 0.69 95.46 0.41 95.2L0.78 94.42C1.04667 94.6533 1.38667 94.8467 1.8 95C2.21333 95.1533 2.64333 95.23 3.09 95.23C3.49667 95.23 3.82667 95.1833 4.08 95.09C4.33333 94.9967 4.52 94.87 4.64 94.71C4.76 94.5433 4.82 94.3567 4.82 94.15C4.82 93.91 4.74 93.7167 4.58 93.57C4.42667 93.4233 4.22333 93.3067 3.97 93.22C3.72333 93.1267 3.45 93.0467 3.15 92.98C2.85 92.9133 2.54667 92.8367 2.24 92.75C1.94 92.6567 1.66333 92.54 1.41 92.4C1.16333 92.26 0.963333 92.0733 0.81 91.84C0.656667 91.6 0.58 91.2933 0.58 90.92C0.58 90.56 0.673333 90.23 0.86 89.93C1.05333 89.6233 1.34667 89.38 1.74 89.2C2.14 89.0133 2.64667 88.92 3.26 88.92C3.66667 88.92 4.07 88.9733 4.47 89.08C4.87 89.1867 5.21667 89.34 5.51 89.54L5.18 90.34C4.88 90.14 4.56333 89.9967 4.23 89.91C3.89667 89.8167 3.57333 89.77 3.26 89.77C2.86667 89.77 2.54333 89.82 2.29 89.92C2.03667 90.02 1.85 90.1533 1.73 90.32C1.61667 90.4867 1.56 90.6733 1.56 90.88C1.56 91.1267 1.63667 91.3233 1.79 91.47C1.95 91.6167 2.15333 91.7333 2.4 91.82C2.65333 91.9067 2.93 91.9867 3.23 92.06C3.53 92.1267 3.83 92.2033 4.13 92.29C4.43667 92.3767 4.71333 92.49 4.96 92.63C5.21333 92.77 5.41667 92.9567 5.57 93.19C5.72333 93.4233 5.8 93.7233 5.8 94.09C5.8 94.4433 5.70333 94.7733 5.51 95.08C5.31667 95.38 5.01667 95.6233 4.61 95.81C4.21 95.99 3.70333 96.08 3.09 96.08ZM9.04094 96.06C8.5076 96.06 8.09427 95.9167 7.80094 95.63C7.5076 95.3433 7.36094 94.9333 7.36094 94.4V89.54H8.32094V94.36C8.32094 94.6467 8.39094 94.8667 8.53094 95.02C8.6776 95.1733 8.88427 95.25 9.15094 95.25C9.45094 95.25 9.70094 95.1667 9.90094 95L10.2009 95.69C10.0543 95.8167 9.8776 95.91 9.67094 95.97C9.47094 96.03 9.26094 96.06 9.04094 96.06ZM6.46094 91.49V90.7H9.84094V91.49H6.46094ZM11.4616 96V90.7H12.3816V92.14L12.2916 91.78C12.4382 91.4133 12.6849 91.1333 13.0316 90.94C13.3782 90.7467 13.8049 90.65 14.3116 90.65V91.58C14.2716 91.5733 14.2316 91.57 14.1916 91.57C14.1582 91.57 14.1249 91.57 14.0916 91.57C13.5782 91.57 13.1716 91.7233 12.8716 92.03C12.5716 92.3367 12.4216 92.78 12.4216 93.36V96H11.4616ZM17.8159 96.06C17.2826 96.06 16.8093 95.9433 16.3959 95.71C15.9826 95.4767 15.6559 95.1567 15.4159 94.75C15.1759 94.3367 15.0559 93.87 15.0559 93.35C15.0559 92.8233 15.1759 92.3567 15.4159 91.95C15.6559 91.5433 15.9826 91.2267 16.3959 91C16.8093 90.7667 17.2826 90.65 17.8159 90.65C18.3426 90.65 18.8126 90.7667 19.2259 91C19.6459 91.2267 19.9726 91.5433 20.2059 91.95C20.4459 92.35 20.5659 92.8167 20.5659 93.35C20.5659 93.8767 20.4459 94.3433 20.2059 94.75C19.9726 95.1567 19.6459 95.4767 19.2259 95.71C18.8126 95.9433 18.3426 96.06 17.8159 96.06ZM17.8159 95.22C18.1559 95.22 18.4593 95.1433 18.7259 94.99C18.9993 94.8367 19.2126 94.62 19.3659 94.34C19.5193 94.0533 19.5959 93.7233 19.5959 93.35C19.5959 92.97 19.5193 92.6433 19.3659 92.37C19.2126 92.09 18.9993 91.8733 18.7259 91.72C18.4593 91.5667 18.1559 91.49 17.8159 91.49C17.4759 91.49 17.1726 91.5667 16.9059 91.72C16.6393 91.8733 16.4259 92.09 16.2659 92.37C16.1059 92.6433 16.0259 92.97 16.0259 93.35C16.0259 93.7233 16.1059 94.0533 16.2659 94.34C16.4259 94.62 16.6393 94.8367 16.9059 94.99C17.1726 95.1433 17.4759 95.22 17.8159 95.22ZM24.8236 90.65C25.2569 90.65 25.6369 90.7333 25.9636 90.9C26.2969 91.0667 26.5569 91.32 26.7436 91.66C26.9303 92 27.0236 92.43 27.0236 92.95V96H26.0636V93.06C26.0636 92.5467 25.9369 92.16 25.6836 91.9C25.4369 91.64 25.0869 91.51 24.6336 91.51C24.2936 91.51 23.9969 91.5767 23.7436 91.71C23.4903 91.8433 23.2936 92.04 23.1536 92.3C23.0203 92.56 22.9536 92.8833 22.9536 93.27V96H21.9936V90.7H22.9136V92.13L22.7636 91.75C22.9369 91.4033 23.2036 91.1333 23.5636 90.94C23.9236 90.7467 24.3436 90.65 24.8236 90.65ZM31.2202 98C30.7336 98 30.2602 97.93 29.8002 97.79C29.3469 97.6567 28.9769 97.4633 28.6902 97.21L29.1502 96.47C29.3969 96.6833 29.7002 96.85 30.0602 96.97C30.4202 97.0967 30.7969 97.16 31.1902 97.16C31.8169 97.16 32.2769 97.0133 32.5702 96.72C32.8636 96.4267 33.0102 95.98 33.0102 95.38V94.26L33.1102 93.21L33.0602 92.15V90.7H33.9702V95.28C33.9702 96.2133 33.7369 96.9 33.2702 97.34C32.8036 97.78 32.1202 98 31.2202 98ZM31.1002 95.78C30.5869 95.78 30.1269 95.6733 29.7202 95.46C29.3202 95.24 29.0002 94.9367 28.7602 94.55C28.5269 94.1633 28.4102 93.7167 28.4102 93.21C28.4102 92.6967 28.5269 92.25 28.7602 91.87C29.0002 91.4833 29.3202 91.1833 29.7202 90.97C30.1269 90.7567 30.5869 90.65 31.1002 90.65C31.5536 90.65 31.9669 90.7433 32.3402 90.93C32.7136 91.11 33.0102 91.39 33.2302 91.77C33.4569 92.15 33.5702 92.63 33.5702 93.21C33.5702 93.7833 33.4569 94.26 33.2302 94.64C33.0102 95.02 32.7136 95.3067 32.3402 95.5C31.9669 95.6867 31.5536 95.78 31.1002 95.78ZM31.2102 94.94C31.5636 94.94 31.8769 94.8667 32.1502 94.72C32.4236 94.5733 32.6369 94.37 32.7902 94.11C32.9502 93.85 33.0302 93.55 33.0302 93.21C33.0302 92.87 32.9502 92.57 32.7902 92.31C32.6369 92.05 32.4236 91.85 32.1502 91.71C31.8769 91.5633 31.5636 91.49 31.2102 91.49C30.8569 91.49 30.5402 91.5633 30.2602 91.71C29.9869 91.85 29.7702 92.05 29.6102 92.31C29.4569 92.57 29.3802 92.87 29.3802 93.21C29.3802 93.55 29.4569 93.85 29.6102 94.11C29.7702 94.37 29.9869 94.5733 30.2602 94.72C30.5402 94.8667 30.8569 94.94 31.2102 94.94ZM35.5245 97.48L36.0245 95.46L36.1545 96.04C35.9612 96.04 35.7979 95.98 35.6645 95.86C35.5379 95.74 35.4745 95.5767 35.4745 95.37C35.4745 95.17 35.5379 95.0067 35.6645 94.88C35.7979 94.7533 35.9579 94.69 36.1445 94.69C36.3379 94.69 36.4945 94.7567 36.6145 94.89C36.7345 95.0167 36.7945 95.1767 36.7945 95.37C36.7945 95.4367 36.7879 95.5033 36.7745 95.57C36.7679 95.63 36.7512 95.7033 36.7245 95.79C36.7045 95.87 36.6712 95.97 36.6245 96.09L36.1545 97.48H35.5245ZM41.1957 96V90.23C41.1957 89.71 41.3457 89.2967 41.6457 88.99C41.9524 88.6767 42.3857 88.52 42.9457 88.52C43.1524 88.52 43.349 88.5467 43.5357 88.6C43.729 88.6467 43.8924 88.7233 44.0257 88.83L43.7357 89.56C43.6357 89.48 43.5224 89.42 43.3957 89.38C43.269 89.3333 43.1357 89.31 42.9957 89.31C42.7157 89.31 42.5024 89.39 42.3557 89.55C42.209 89.7033 42.1357 89.9333 42.1357 90.24V90.95L42.1557 91.39V96H41.1957ZM40.2957 91.49V90.7H43.6757V91.49H40.2957ZM44.6811 96V90.7H45.6011V92.14L45.5111 91.78C45.6578 91.4133 45.9044 91.1333 46.2511 90.94C46.5978 90.7467 47.0244 90.65 47.5311 90.65V91.58C47.4911 91.5733 47.4511 91.57 47.4111 91.57C47.3778 91.57 47.3444 91.57 47.3111 91.57C46.7978 91.57 46.3911 91.7233 46.0911 92.03C45.7911 92.3367 45.6411 92.78 45.6411 93.36V96H44.6811ZM51.1255 96.06C50.5588 96.06 50.0588 95.9433 49.6255 95.71C49.1988 95.4767 48.8655 95.1567 48.6255 94.75C48.3921 94.3433 48.2755 93.8767 48.2755 93.35C48.2755 92.8233 48.3888 92.3567 48.6155 91.95C48.8488 91.5433 49.1655 91.2267 49.5655 91C49.9721 90.7667 50.4288 90.65 50.9355 90.65C51.4488 90.65 51.9021 90.7633 52.2955 90.99C52.6888 91.2167 52.9955 91.5367 53.2155 91.95C53.4421 92.3567 53.5555 92.8333 53.5555 93.38C53.5555 93.42 53.5521 93.4667 53.5455 93.52C53.5455 93.5733 53.5421 93.6233 53.5355 93.67H49.0255V92.98H53.0355L52.6455 93.22C52.6521 92.88 52.5821 92.5767 52.4355 92.31C52.2888 92.0433 52.0855 91.8367 51.8255 91.69C51.5721 91.5367 51.2755 91.46 50.9355 91.46C50.6021 91.46 50.3055 91.5367 50.0455 91.69C49.7855 91.8367 49.5821 92.0467 49.4355 92.32C49.2888 92.5867 49.2155 92.8933 49.2155 93.24V93.4C49.2155 93.7533 49.2955 94.07 49.4555 94.35C49.6221 94.6233 49.8521 94.8367 50.1455 94.99C50.4388 95.1433 50.7755 95.22 51.1555 95.22C51.4688 95.22 51.7521 95.1667 52.0055 95.06C52.2655 94.9533 52.4921 94.7933 52.6855 94.58L53.2155 95.2C52.9755 95.48 52.6755 95.6933 52.3155 95.84C51.9621 95.9867 51.5655 96.06 51.1255 96.06ZM56.5085 96.06C56.0685 96.06 55.6485 96 55.2485 95.88C54.8552 95.76 54.5452 95.6133 54.3185 95.44L54.7185 94.68C54.9452 94.8333 55.2252 94.9633 55.5585 95.07C55.8918 95.1767 56.2318 95.23 56.5785 95.23C57.0252 95.23 57.3452 95.1667 57.5385 95.04C57.7385 94.9133 57.8385 94.7367 57.8385 94.51C57.8385 94.3433 57.7785 94.2133 57.6585 94.12C57.5385 94.0267 57.3785 93.9567 57.1785 93.91C56.9852 93.8633 56.7685 93.8233 56.5285 93.79C56.2885 93.75 56.0485 93.7033 55.8085 93.65C55.5685 93.59 55.3485 93.51 55.1485 93.41C54.9485 93.3033 54.7885 93.16 54.6685 92.98C54.5485 92.7933 54.4885 92.5467 54.4885 92.24C54.4885 91.92 54.5785 91.64 54.7585 91.4C54.9385 91.16 55.1918 90.9767 55.5185 90.85C55.8518 90.7167 56.2452 90.65 56.6985 90.65C57.0452 90.65 57.3952 90.6933 57.7485 90.78C58.1085 90.86 58.4018 90.9767 58.6285 91.13L58.2185 91.89C57.9785 91.73 57.7285 91.62 57.4685 91.56C57.2085 91.5 56.9485 91.47 56.6885 91.47C56.2685 91.47 55.9552 91.54 55.7485 91.68C55.5418 91.8133 55.4385 91.9867 55.4385 92.2C55.4385 92.38 55.4985 92.52 55.6185 92.62C55.7452 92.7133 55.9052 92.7867 56.0985 92.84C56.2985 92.8933 56.5185 92.94 56.7585 92.98C56.9985 93.0133 57.2385 93.06 57.4785 93.12C57.7185 93.1733 57.9352 93.25 58.1285 93.35C58.3285 93.45 58.4885 93.59 58.6085 93.77C58.7352 93.95 58.7985 94.19 58.7985 94.49C58.7985 94.81 58.7052 95.0867 58.5185 95.32C58.3318 95.5533 58.0685 95.7367 57.7285 95.87C57.3885 95.9967 56.9818 96.06 56.5085 96.06ZM62.9283 90.65C63.3616 90.65 63.7416 90.7333 64.0683 90.9C64.4016 91.0667 64.6616 91.32 64.8483 91.66C65.0349 92 65.1283 92.43 65.1283 92.95V96H64.1683V93.06C64.1683 92.5467 64.0416 92.16 63.7883 91.9C63.5416 91.64 63.1916 91.51 62.7383 91.51C62.3983 91.51 62.1016 91.5767 61.8483 91.71C61.5949 91.8433 61.3983 92.04 61.2583 92.3C61.1249 92.56 61.0583 92.8833 61.0583 93.27V96H60.0983V88.58H61.0583V92.13L60.8683 91.75C61.0416 91.4033 61.3083 91.1333 61.6683 90.94C62.0283 90.7467 62.4483 90.65 62.9283 90.65ZM66.6249 97.48L67.1249 95.46L67.2549 96.04C67.0616 96.04 66.8983 95.98 66.7649 95.86C66.6383 95.74 66.5749 95.5767 66.5749 95.37C66.5749 95.17 66.6383 95.0067 66.7649 94.88C66.8983 94.7533 67.0583 94.69 67.2449 94.69C67.4383 94.69 67.5949 94.7567 67.7149 94.89C67.8349 95.0167 67.8949 95.1767 67.8949 95.37C67.8949 95.4367 67.8883 95.5033 67.8749 95.57C67.8683 95.63 67.8516 95.7033 67.8249 95.79C67.8049 95.87 67.7716 95.97 67.7249 96.09L67.2549 97.48H66.6249ZM75.4461 96V94.88L75.3961 94.67V92.76C75.3961 92.3533 75.2761 92.04 75.0361 91.82C74.8028 91.5933 74.4494 91.48 73.9761 91.48C73.6628 91.48 73.3561 91.5333 73.0561 91.64C72.7561 91.74 72.5028 91.8767 72.2961 92.05L71.8961 91.33C72.1694 91.11 72.4961 90.9433 72.8761 90.83C73.2628 90.71 73.6661 90.65 74.0861 90.65C74.8128 90.65 75.3728 90.8267 75.7661 91.18C76.1594 91.5333 76.3561 92.0733 76.3561 92.8V96H75.4461ZM73.7061 96.06C73.3128 96.06 72.9661 95.9933 72.6661 95.86C72.3728 95.7267 72.1461 95.5433 71.9861 95.31C71.8261 95.07 71.7461 94.8 71.7461 94.5C71.7461 94.2133 71.8128 93.9533 71.9461 93.72C72.0861 93.4867 72.3094 93.3 72.6161 93.16C72.9294 93.02 73.3494 92.95 73.8761 92.95H75.5561V93.64H73.9161C73.4361 93.64 73.1128 93.72 72.9461 93.88C72.7794 94.04 72.6961 94.2333 72.6961 94.46C72.6961 94.72 72.7994 94.93 73.0061 95.09C73.2128 95.2433 73.4994 95.32 73.8661 95.32C74.2261 95.32 74.5394 95.24 74.8061 95.08C75.0794 94.92 75.2761 94.6867 75.3961 94.38L75.5861 95.04C75.4594 95.3533 75.2361 95.6033 74.9161 95.79C74.5961 95.97 74.1928 96.06 73.7061 96.06ZM81.0627 90.65C81.496 90.65 81.876 90.7333 82.2027 90.9C82.536 91.0667 82.796 91.32 82.9827 91.66C83.1693 92 83.2627 92.43 83.2627 92.95V96H82.3027V93.06C82.3027 92.5467 82.176 92.16 81.9227 91.9C81.676 91.64 81.326 91.51 80.8727 91.51C80.5327 91.51 80.236 91.5767 79.9827 91.71C79.7293 91.8433 79.5327 92.04 79.3927 92.3C79.2593 92.56 79.1927 92.8833 79.1927 93.27V96H78.2327V90.7H79.1527V92.13L79.0027 91.75C79.176 91.4033 79.4427 91.1333 79.8027 90.94C80.1627 90.7467 80.5827 90.65 81.0627 90.65ZM87.3293 96.06C86.816 96.06 86.356 95.9467 85.9493 95.72C85.5493 95.4933 85.2326 95.1767 84.9993 94.77C84.766 94.3633 84.6493 93.89 84.6493 93.35C84.6493 92.81 84.766 92.34 84.9993 91.94C85.2326 91.5333 85.5493 91.2167 85.9493 90.99C86.356 90.7633 86.816 90.65 87.3293 90.65C87.776 90.65 88.1793 90.75 88.5393 90.95C88.8993 91.15 89.186 91.45 89.3993 91.85C89.6193 92.25 89.7293 92.75 89.7293 93.35C89.7293 93.95 89.6226 94.45 89.4093 94.85C89.2026 95.25 88.9193 95.5533 88.5593 95.76C88.1993 95.96 87.7893 96.06 87.3293 96.06ZM87.4093 95.22C87.7426 95.22 88.0426 95.1433 88.3093 94.99C88.5826 94.8367 88.796 94.62 88.9493 94.34C89.1093 94.0533 89.1893 93.7233 89.1893 93.35C89.1893 92.97 89.1093 92.6433 88.9493 92.37C88.796 92.09 88.5826 91.8733 88.3093 91.72C88.0426 91.5667 87.7426 91.49 87.4093 91.49C87.0693 91.49 86.766 91.5667 86.4993 91.72C86.2326 91.8733 86.0193 92.09 85.8593 92.37C85.6993 92.6433 85.6193 92.97 85.6193 93.35C85.6193 93.7233 85.6993 94.0533 85.8593 94.34C86.0193 94.62 86.2326 94.8367 86.4993 94.99C86.766 95.1433 87.0693 95.22 87.4093 95.22ZM89.2193 96V94.57L89.2793 93.34L89.1793 92.11V88.58H90.1393V96H89.2193ZM96.3613 96.06C95.9213 96.06 95.5013 96 95.1013 95.88C94.7079 95.76 94.3979 95.6133 94.1713 95.44L94.5713 94.68C94.7979 94.8333 95.0779 94.9633 95.4113 95.07C95.7446 95.1767 96.0846 95.23 96.4313 95.23C96.8779 95.23 97.1979 95.1667 97.3913 95.04C97.5913 94.9133 97.6913 94.7367 97.6913 94.51C97.6913 94.3433 97.6313 94.2133 97.5113 94.12C97.3913 94.0267 97.2313 93.9567 97.0313 93.91C96.8379 93.8633 96.6213 93.8233 96.3813 93.79C96.1413 93.75 95.9013 93.7033 95.6613 93.65C95.4213 93.59 95.2013 93.51 95.0013 93.41C94.8013 93.3033 94.6413 93.16 94.5213 92.98C94.4013 92.7933 94.3413 92.5467 94.3413 92.24C94.3413 91.92 94.4313 91.64 94.6113 91.4C94.7913 91.16 95.0446 90.9767 95.3713 90.85C95.7046 90.7167 96.0979 90.65 96.5513 90.65C96.8979 90.65 97.2479 90.6933 97.6013 90.78C97.9613 90.86 98.2546 90.9767 98.4813 91.13L98.0713 91.89C97.8313 91.73 97.5813 91.62 97.3213 91.56C97.0613 91.5 96.8013 91.47 96.5413 91.47C96.1213 91.47 95.8079 91.54 95.6013 91.68C95.3946 91.8133 95.2913 91.9867 95.2913 92.2C95.2913 92.38 95.3513 92.52 95.4713 92.62C95.5979 92.7133 95.7579 92.7867 95.9513 92.84C96.1513 92.8933 96.3713 92.94 96.6113 92.98C96.8513 93.0133 97.0913 93.06 97.3313 93.12C97.5713 93.1733 97.7879 93.25 97.9813 93.35C98.1813 93.45 98.3413 93.59 98.4613 93.77C98.5879 93.95 98.6513 94.19 98.6513 94.49C98.6513 94.81 98.5579 95.0867 98.3713 95.32C98.1846 95.5533 97.9213 95.7367 97.5813 95.87C97.2413 95.9967 96.8346 96.06 96.3613 96.06ZM101.771 96.06C101.238 96.06 100.824 95.9167 100.531 95.63C100.238 95.3433 100.091 94.9333 100.091 94.4V89.54H101.051V94.36C101.051 94.6467 101.121 94.8667 101.261 95.02C101.408 95.1733 101.614 95.25 101.881 95.25C102.181 95.25 102.431 95.1667 102.631 95L102.931 95.69C102.784 95.8167 102.608 95.91 102.401 95.97C102.201 96.03 101.991 96.06 101.771 96.06ZM99.191 91.49V90.7H102.571V91.49H99.191ZM104.324 98C104.071 98 103.824 97.9567 103.584 97.87C103.344 97.79 103.137 97.67 102.964 97.51L103.374 96.79C103.507 96.9167 103.654 97.0133 103.814 97.08C103.974 97.1467 104.144 97.18 104.324 97.18C104.557 97.18 104.751 97.12 104.904 97C105.057 96.88 105.201 96.6667 105.334 96.36L105.664 95.63L105.764 95.51L107.844 90.7H108.784L106.214 96.53C106.061 96.9033 105.887 97.1967 105.694 97.41C105.507 97.6233 105.301 97.7733 105.074 97.86C104.847 97.9533 104.597 98 104.324 98ZM105.584 96.17L103.164 90.7H104.164L106.224 95.42L105.584 96.17ZM109.78 96V88.58H110.74V96H109.78ZM112.673 96V90.7H113.633V96H112.673ZM113.153 89.68C112.966 89.68 112.81 89.62 112.683 89.5C112.563 89.38 112.503 89.2333 112.503 89.06C112.503 88.88 112.563 88.73 112.683 88.61C112.81 88.49 112.966 88.43 113.153 88.43C113.34 88.43 113.493 88.49 113.613 88.61C113.74 88.7233 113.803 88.8667 113.803 89.04C113.803 89.22 113.743 89.3733 113.623 89.5C113.503 89.62 113.346 89.68 113.153 89.68ZM117.086 96.06C116.646 96.06 116.226 96 115.826 95.88C115.433 95.76 115.123 95.6133 114.896 95.44L115.296 94.68C115.523 94.8333 115.803 94.9633 116.136 95.07C116.469 95.1767 116.809 95.23 117.156 95.23C117.603 95.23 117.923 95.1667 118.116 95.04C118.316 94.9133 118.416 94.7367 118.416 94.51C118.416 94.3433 118.356 94.2133 118.236 94.12C118.116 94.0267 117.956 93.9567 117.756 93.91C117.563 93.8633 117.346 93.8233 117.106 93.79C116.866 93.75 116.626 93.7033 116.386 93.65C116.146 93.59 115.926 93.51 115.726 93.41C115.526 93.3033 115.366 93.16 115.246 92.98C115.126 92.7933 115.066 92.5467 115.066 92.24C115.066 91.92 115.156 91.64 115.336 91.4C115.516 91.16 115.769 90.9767 116.096 90.85C116.429 90.7167 116.823 90.65 117.276 90.65C117.623 90.65 117.973 90.6933 118.326 90.78C118.686 90.86 118.979 90.9767 119.206 91.13L118.796 91.89C118.556 91.73 118.306 91.62 118.046 91.56C117.786 91.5 117.526 91.47 117.266 91.47C116.846 91.47 116.533 91.54 116.326 91.68C116.119 91.8133 116.016 91.9867 116.016 92.2C116.016 92.38 116.076 92.52 116.196 92.62C116.323 92.7133 116.483 92.7867 116.676 92.84C116.876 92.8933 117.096 92.94 117.336 92.98C117.576 93.0133 117.816 93.06 118.056 93.12C118.296 93.1733 118.513 93.25 118.706 93.35C118.906 93.45 119.066 93.59 119.186 93.77C119.313 93.95 119.376 94.19 119.376 94.49C119.376 94.81 119.283 95.0867 119.096 95.32C118.909 95.5533 118.646 95.7367 118.306 95.87C117.966 95.9967 117.559 96.06 117.086 96.06ZM123.506 90.65C123.939 90.65 124.319 90.7333 124.646 90.9C124.979 91.0667 125.239 91.32 125.426 91.66C125.612 92 125.706 92.43 125.706 92.95V96H124.746V93.06C124.746 92.5467 124.619 92.16 124.366 91.9C124.119 91.64 123.769 91.51 123.316 91.51C122.976 91.51 122.679 91.5767 122.426 91.71C122.172 91.8433 121.976 92.04 121.836 92.3C121.702 92.56 121.636 92.8833 121.636 93.27V96H120.676V88.58H121.636V92.13L121.446 91.75C121.619 91.4033 121.886 91.1333 122.246 90.94C122.606 90.7467 123.026 90.65 123.506 90.65ZM1.05 110V103H2.05V110H1.05ZM4.2457 110V103H5.0657L8.2057 108.29H7.7657L10.8657 103H11.6857L11.6957 110H10.7357L10.7257 104.51H10.9557L8.1957 109.15H7.7357L4.9557 104.51H5.2057V110H4.2457ZM13.8965 110V103H14.8965V109.13H18.6865V110H13.8965ZM22.7195 110V104.23C22.7195 103.71 22.8695 103.297 23.1695 102.99C23.4762 102.677 23.9095 102.52 24.4695 102.52C24.6762 102.52 24.8729 102.547 25.0595 102.6C25.2529 102.647 25.4162 102.723 25.5495 102.83L25.2595 103.56C25.1595 103.48 25.0462 103.42 24.9195 103.38C24.7929 103.333 24.6595 103.31 24.5195 103.31C24.2395 103.31 24.0262 103.39 23.8795 103.55C23.7329 103.703 23.6595 103.933 23.6595 104.24V104.95L23.6795 105.39V110H22.7195ZM21.8195 105.49V104.7H25.1995V105.49H21.8195ZM29.3973 110V108.88L29.3473 108.67V106.76C29.3473 106.353 29.2273 106.04 28.9873 105.82C28.7539 105.593 28.4006 105.48 27.9273 105.48C27.6139 105.48 27.3073 105.533 27.0073 105.64C26.7073 105.74 26.4539 105.877 26.2473 106.05L25.8473 105.33C26.1206 105.11 26.4473 104.943 26.8273 104.83C27.2139 104.71 27.6173 104.65 28.0373 104.65C28.7639 104.65 29.3239 104.827 29.7173 105.18C30.1106 105.533 30.3073 106.073 30.3073 106.8V110H29.3973ZM27.6573 110.06C27.2639 110.06 26.9173 109.993 26.6173 109.86C26.3239 109.727 26.0973 109.543 25.9373 109.31C25.7773 109.07 25.6973 108.8 25.6973 108.5C25.6973 108.213 25.7639 107.953 25.8973 107.72C26.0373 107.487 26.2606 107.3 26.5673 107.16C26.8806 107.02 27.3006 106.95 27.8273 106.95H29.5073V107.64H27.8673C27.3873 107.64 27.0639 107.72 26.8973 107.88C26.7306 108.04 26.6473 108.233 26.6473 108.46C26.6473 108.72 26.7506 108.93 26.9573 109.09C27.1639 109.243 27.4506 109.32 27.8173 109.32C28.1773 109.32 28.4906 109.24 28.7573 109.08C29.0306 108.92 29.2273 108.687 29.3473 108.38L29.5373 109.04C29.4106 109.353 29.1873 109.603 28.8673 109.79C28.5473 109.97 28.1439 110.06 27.6573 110.06ZM38.8138 104.65C39.2405 104.65 39.6172 104.733 39.9438 104.9C40.2705 105.067 40.5238 105.32 40.7038 105.66C40.8905 106 40.9838 106.43 40.9838 106.95V110H40.0238V107.06C40.0238 106.547 39.9038 106.16 39.6638 105.9C39.4238 105.64 39.0872 105.51 38.6538 105.51C38.3338 105.51 38.0538 105.577 37.8138 105.71C37.5738 105.843 37.3872 106.04 37.2538 106.3C37.1272 106.56 37.0638 106.883 37.0638 107.27V110H36.1038V107.06C36.1038 106.547 35.9838 106.16 35.7438 105.9C35.5105 105.64 35.1738 105.51 34.7338 105.51C34.4205 105.51 34.1438 105.577 33.9038 105.71C33.6638 105.843 33.4772 106.04 33.3438 106.3C33.2105 106.56 33.1438 106.883 33.1438 107.27V110H32.1838V104.7H33.1038V106.11L32.9538 105.75C33.1205 105.403 33.3772 105.133 33.7238 104.94C34.0705 104.747 34.4738 104.65 34.9338 104.65C35.4405 104.65 35.8772 104.777 36.2438 105.03C36.6105 105.277 36.8505 105.653 36.9638 106.16L36.5738 106C36.7338 105.593 37.0138 105.267 37.4138 105.02C37.8138 104.773 38.2805 104.65 38.8138 104.65ZM42.8502 110V104.7H43.8102V110H42.8502ZM43.3302 103.68C43.1436 103.68 42.9869 103.62 42.8602 103.5C42.7402 103.38 42.6802 103.233 42.6802 103.06C42.6802 102.88 42.7402 102.73 42.8602 102.61C42.9869 102.49 43.1436 102.43 43.3302 102.43C43.5169 102.43 43.6702 102.49 43.7902 102.61C43.9169 102.723 43.9802 102.867 43.9802 103.04C43.9802 103.22 43.9202 103.373 43.8002 103.5C43.6802 103.62 43.5236 103.68 43.3302 103.68ZM45.7432 110V102.58H46.7032V110H45.7432ZM48.8662 112C48.6128 112 48.3662 111.957 48.1262 111.87C47.8862 111.79 47.6795 111.67 47.5062 111.51L47.9162 110.79C48.0495 110.917 48.1962 111.013 48.3562 111.08C48.5162 111.147 48.6862 111.18 48.8662 111.18C49.0995 111.18 49.2928 111.12 49.4462 111C49.5995 110.88 49.7428 110.667 49.8762 110.36L50.2062 109.63L50.3062 109.51L52.3862 104.7H53.3262L50.7562 110.53C50.6028 110.903 50.4295 111.197 50.2362 111.41C50.0495 111.623 49.8428 111.773 49.6162 111.86C49.3895 111.953 49.1395 112 48.8662 112ZM50.1262 110.17L47.7062 104.7H48.7062L50.7662 109.42L50.1262 110.17ZM58.9277 110.06C58.3943 110.06 57.981 109.917 57.6877 109.63C57.3943 109.343 57.2477 108.933 57.2477 108.4V103.54H58.2077V108.36C58.2077 108.647 58.2777 108.867 58.4177 109.02C58.5643 109.173 58.771 109.25 59.0377 109.25C59.3377 109.25 59.5877 109.167 59.7877 109L60.0877 109.69C59.941 109.817 59.7643 109.91 59.5577 109.97C59.3577 110.03 59.1477 110.06 58.9277 110.06ZM56.3477 105.49V104.7H59.7277V105.49H56.3477ZM63.5783 110.06C63.1249 110.06 62.7249 109.977 62.3783 109.81C62.0383 109.643 61.7716 109.39 61.5783 109.05C61.3916 108.703 61.2983 108.27 61.2983 107.75V104.7H62.2583V107.64C62.2583 108.16 62.3816 108.55 62.6283 108.81C62.8816 109.07 63.2349 109.2 63.6883 109.2C64.0216 109.2 64.3116 109.133 64.5583 109C64.8049 108.86 64.9949 108.66 65.1283 108.4C65.2616 108.133 65.3283 107.813 65.3283 107.44V104.7H66.2883V110H65.3783V108.57L65.5283 108.95C65.3549 109.303 65.0949 109.577 64.7483 109.77C64.4016 109.963 64.0116 110.06 63.5783 110.06ZM71.0259 110.06C70.5725 110.06 70.1625 109.96 69.7959 109.76C69.4359 109.553 69.1492 109.25 68.9359 108.85C68.7292 108.45 68.6259 107.95 68.6259 107.35C68.6259 106.75 68.7325 106.25 68.9459 105.85C69.1659 105.45 69.4559 105.15 69.8159 104.95C70.1825 104.75 70.5859 104.65 71.0259 104.65C71.5459 104.65 72.0059 104.763 72.4059 104.99C72.8059 105.217 73.1225 105.533 73.3559 105.94C73.5892 106.34 73.7059 106.81 73.7059 107.35C73.7059 107.89 73.5892 108.363 73.3559 108.77C73.1225 109.177 72.8059 109.493 72.4059 109.72C72.0059 109.947 71.5459 110.06 71.0259 110.06ZM68.2159 110V102.58H69.1759V106.11L69.0759 107.34L69.1359 108.57V110H68.2159ZM70.9459 109.22C71.2859 109.22 71.5892 109.143 71.8559 108.99C72.1292 108.837 72.3425 108.62 72.4959 108.34C72.6559 108.053 72.7359 107.723 72.7359 107.35C72.7359 106.97 72.6559 106.643 72.4959 106.37C72.3425 106.09 72.1292 105.873 71.8559 105.72C71.5892 105.567 71.2859 105.49 70.9459 105.49C70.6125 105.49 70.3092 105.567 70.0359 105.72C69.7692 105.873 69.5559 106.09 69.3959 106.37C69.2425 106.643 69.1659 106.97 69.1659 107.35C69.1659 107.723 69.2425 108.053 69.3959 108.34C69.5559 108.62 69.7692 108.837 70.0359 108.99C70.3092 109.143 70.6125 109.22 70.9459 109.22ZM76.6523 110.06C76.2123 110.06 75.7923 110 75.3923 109.88C74.9989 109.76 74.6889 109.613 74.4623 109.44L74.8623 108.68C75.0889 108.833 75.3689 108.963 75.7023 109.07C76.0356 109.177 76.3756 109.23 76.7223 109.23C77.1689 109.23 77.4889 109.167 77.6823 109.04C77.8823 108.913 77.9823 108.737 77.9823 108.51C77.9823 108.343 77.9223 108.213 77.8023 108.12C77.6823 108.027 77.5223 107.957 77.3223 107.91C77.1289 107.863 76.9123 107.823 76.6723 107.79C76.4323 107.75 76.1923 107.703 75.9523 107.65C75.7123 107.59 75.4923 107.51 75.2923 107.41C75.0923 107.303 74.9323 107.16 74.8123 106.98C74.6923 106.793 74.6323 106.547 74.6323 106.24C74.6323 105.92 74.7223 105.64 74.9023 105.4C75.0823 105.16 75.3356 104.977 75.6623 104.85C75.9956 104.717 76.3889 104.65 76.8423 104.65C77.1889 104.65 77.5389 104.693 77.8923 104.78C78.2523 104.86 78.5456 104.977 78.7723 105.13L78.3623 105.89C78.1223 105.73 77.8723 105.62 77.6123 105.56C77.3523 105.5 77.0923 105.47 76.8323 105.47C76.4123 105.47 76.0989 105.54 75.8923 105.68C75.6856 105.813 75.5823 105.987 75.5823 106.2C75.5823 106.38 75.6423 106.52 75.7623 106.62C75.8889 106.713 76.0489 106.787 76.2423 106.84C76.4423 106.893 76.6623 106.94 76.9023 106.98C77.1423 107.013 77.3823 107.06 77.6223 107.12C77.8623 107.173 78.0789 107.25 78.2723 107.35C78.4723 107.45 78.6323 107.59 78.7523 107.77C78.8789 107.95 78.9423 108.19 78.9423 108.49C78.9423 108.81 78.8489 109.087 78.6623 109.32C78.4756 109.553 78.2123 109.737 77.8723 109.87C77.5323 109.997 77.1256 110.06 76.6523 110.06Z" fill="black"/>
</svg>
