<svg width="153" height="33" viewBox="0 0 153 33" fill="none" xmlns="http://www.w3.org/2000/svg">
<circle cx="16.5" cy="16.5" r="16.5" fill="#A86959"/>
<path d="M21.215 7.45318C21.2326 7.42936 21.2716 7.39317 21.3018 7.3729C21.3432 7.34491 21.3785 7.33563 21.4456 7.33501C21.5155 7.33424 21.5469 7.34228 21.5925 7.37259C21.6244 7.39363 21.6663 7.43369 21.6857 7.46153C21.705 7.48921 21.7246 7.53979 21.7296 7.57381C21.7351 7.61341 21.7017 7.87201 21.6363 8.29301C21.5803 8.65462 21.5345 8.96596 21.5345 8.98514C21.5345 9.00432 21.5398 9.01994 21.5461 9.02009C21.5525 9.02009 21.7143 9.03772 21.9057 9.05907C22.0971 9.08057 22.2955 9.10562 22.3465 9.11475C22.3976 9.12372 22.4811 9.14645 22.5321 9.16501C22.5832 9.18357 22.6701 9.22379 22.7255 9.25441C22.7807 9.28504 22.867 9.34752 22.9171 9.39315C22.9672 9.43877 23.0382 9.51796 23.0746 9.569C23.1111 9.62004 23.1616 9.70712 23.1868 9.76233C23.2122 9.8177 23.2438 9.90463 23.2569 9.95567C23.2702 10.0067 23.303 10.2433 23.3299 10.4815C23.3567 10.7197 23.3797 10.9164 23.3808 10.9186C23.3819 10.9209 23.7412 10.8971 24.9759 10.809L25.0523 10.8464C25.097 10.8682 25.1435 10.9061 25.1644 10.9378C25.184 10.9676 25.2045 11.0267 25.2099 11.0693C25.2173 11.1279 25.2125 11.1633 25.1898 11.2162C25.1732 11.2545 25.1358 11.3048 25.1066 11.328C25.0718 11.3554 25.0209 11.3755 24.9604 11.3857C24.9094 11.3942 24.6622 11.4154 24.4113 11.4326C24.1605 11.4497 23.842 11.4725 23.4522 11.5023L23.4524 11.5487C23.4526 11.5742 23.5534 12.5103 23.6765 13.629L23.909 15.7402C23.9138 15.7827 23.9105 15.8698 23.9017 15.9335C23.8929 15.9974 23.868 16.1018 23.8465 16.1655C23.8248 16.2294 23.7787 16.3302 23.7439 16.3898C23.6892 16.4835 23.122 17.0567 19.5104 20.6683C15.8592 24.3196 15.3267 24.8464 15.2319 24.901C15.1724 24.9352 15.068 24.9824 14.9999 25.0059C14.8982 25.0408 14.8417 25.0496 14.6829 25.0552C14.5345 25.0603 14.4643 25.0558 14.3813 25.0356C14.3217 25.0209 14.2243 24.9868 14.1647 24.9596C14.1052 24.9324 14.0217 24.8871 13.9791 24.8588C13.9366 24.8305 12.4936 23.4004 10.7724 21.6812C9.05133 19.9618 7.61309 18.5167 7.57644 18.47C7.53978 18.4233 7.48472 18.3362 7.45425 18.2767C7.42378 18.2171 7.38403 18.1127 7.36594 18.0447C7.34196 17.9554 7.33253 17.8736 7.33207 17.7508C7.33145 17.6201 7.33918 17.5521 7.36578 17.457C7.38481 17.3889 7.42734 17.2811 7.46044 17.2172C7.49354 17.1535 7.56592 17.0491 7.62129 16.9852C7.67666 16.9213 9.5509 15.0412 11.7863 12.8071C14.6856 9.90942 15.8794 8.72607 15.9511 8.67859C16.0063 8.64194 16.0934 8.59492 16.1445 8.57419C16.1955 8.55331 16.272 8.52686 16.3146 8.51542C16.3571 8.50397 16.444 8.49005 16.5079 8.4848C16.5981 8.47722 16.8463 8.4998 17.6215 8.58579L19.7791 8.82506C20.4171 8.8959 20.9408 8.95297 20.943 8.95204C20.945 8.95111 20.9945 8.6407 21.0531 8.26208C21.1115 7.88346 21.1646 7.55634 21.1711 7.53515C21.1776 7.5138 21.1974 7.47699 21.215 7.45318Z" fill="white"/>
<path fill-rule="evenodd" clip-rule="evenodd" d="M16.5775 9.06515C16.6371 9.06484 17.1869 9.1199 17.7994 9.18765C18.4118 9.25539 19.6716 9.39474 20.5988 9.49744C22.2149 9.67624 22.2885 9.68583 22.3775 9.72697C22.4285 9.75079 22.4981 9.79486 22.5321 9.82518C22.5662 9.85549 22.6124 9.91427 22.635 9.95572C22.6576 9.99732 22.6839 10.059 22.6935 10.0931C22.703 10.1271 22.7312 10.3359 22.7558 10.5571C22.7805 10.7782 22.7994 10.9603 22.7979 10.9615C22.7963 10.9627 22.6314 10.975 22.4316 10.9886C22.2318 11.0023 22.0369 11.0175 21.9985 11.0223C21.9336 11.0306 21.9276 11.0283 21.9081 10.9875C21.8966 10.9634 21.8618 10.9057 21.8307 10.859C21.7996 10.8124 21.7359 10.7369 21.6892 10.6912C21.6425 10.6454 21.5554 10.5778 21.4959 10.5408C21.4363 10.504 21.3216 10.4513 21.2407 10.4236C21.1047 10.377 21.0786 10.3733 20.8927 10.373C20.7728 10.3729 20.6635 10.3807 20.622 10.3928C20.5837 10.4038 20.5073 10.4307 20.4519 10.4523C20.3965 10.4742 20.3062 10.521 20.2508 10.5567C20.1954 10.5923 20.1095 10.6627 20.0597 10.713C20.0099 10.7634 19.9385 10.8532 19.9014 10.9128C19.8642 10.9723 19.8167 11.0698 19.7956 11.1293C19.7748 11.1889 19.7503 11.2829 19.7415 11.3381C19.7325 11.3935 19.7251 11.4821 19.7251 11.5353C19.725 11.5885 19.7361 11.686 19.7496 11.7519C19.7632 11.8177 19.7918 11.9135 19.8133 11.9645C19.8348 12.0156 19.8818 12.1026 19.918 12.1578C19.954 12.2132 20.0211 12.2958 20.0669 12.3416C20.1129 12.3872 20.199 12.4564 20.2586 12.4952C20.3181 12.534 20.4052 12.5813 20.4519 12.6002C20.4986 12.6191 20.5909 12.6455 20.6568 12.6591C20.7227 12.6726 20.8254 12.6837 20.8849 12.6837C20.9445 12.6837 21.0472 12.6727 21.1131 12.6593C21.179 12.6458 21.2781 12.616 21.3335 12.5929C21.3889 12.5699 21.4724 12.5258 21.5191 12.4949C21.5658 12.4641 21.6493 12.3934 21.7047 12.338C21.76 12.2828 21.8348 12.1882 21.8709 12.128C21.9071 12.0678 21.954 11.9665 21.9753 11.9026C21.9965 11.8389 22.0193 11.7449 22.0256 11.6937C22.0319 11.6425 22.0372 11.6007 22.0372 11.6007C22.0372 11.6007 22.2216 11.5871 22.4471 11.5706C22.6726 11.554 22.8585 11.542 22.8603 11.5437C22.8622 11.5455 22.9123 11.9854 22.9717 12.5213C23.0311 13.0572 23.1364 14.0073 23.2056 14.6325C23.2925 15.418 23.3287 15.7968 23.3223 15.8582C23.3174 15.9071 23.2956 15.9872 23.2739 16.0361C23.2382 16.1171 22.8718 16.488 19.1095 20.2501C15.3502 24.0096 14.9763 24.3791 14.8917 24.4184C14.8086 24.457 14.7818 24.4615 14.6365 24.4613C14.4996 24.4612 14.4606 24.4553 14.389 24.4242C14.3127 24.3911 13.979 24.0625 11.1752 21.2615C9.45454 19.5422 8.02651 18.1044 8.00192 18.0661C7.97748 18.0279 7.94547 17.9547 7.93093 17.9037C7.9133 17.8415 7.9068 17.7776 7.91144 17.7103C7.91624 17.6407 7.93387 17.5766 7.96851 17.5015C8.01723 17.3964 8.13385 17.2781 12.097 13.3134C14.3401 11.0695 16.2102 9.20775 16.2527 9.17651C16.2952 9.14511 16.3613 9.10738 16.3996 9.09268C16.4406 9.07706 16.5138 9.06562 16.5775 9.06515ZM20.9081 10.8942C21.0277 10.8978 21.062 10.9055 21.1517 10.9482C21.2124 10.977 21.2886 11.0303 21.3335 11.0752C21.3777 11.1194 21.4323 11.1972 21.4611 11.2569C21.5079 11.3544 21.5113 11.3723 21.5113 11.5237C21.5113 11.6736 21.5076 11.6939 21.4632 11.7866C21.4368 11.842 21.3845 11.9211 21.3472 11.9623C21.3022 12.0122 21.2405 12.0565 21.1641 12.0938C21.0537 12.1478 21.0421 12.1501 20.8849 12.1501C20.7278 12.1501 20.7162 12.1478 20.6058 12.0938C20.5294 12.0565 20.4677 12.0122 20.4227 11.9623C20.3854 11.9211 20.3331 11.842 20.3067 11.7866C20.2623 11.6939 20.2586 11.6737 20.2586 11.5229C20.2586 11.3666 20.2609 11.3548 20.3149 11.2445C20.3524 11.1675 20.3961 11.107 20.4463 11.062C20.4876 11.0249 20.5493 10.9804 20.5834 10.9627C20.6174 10.9453 20.6731 10.9216 20.7071 10.9105C20.7451 10.8978 20.8226 10.8916 20.9081 10.8942Z" fill="#A86959"/>
<path d="M16.3571 12.04C16.3851 12.0113 16.4289 11.9785 16.4544 11.9672C16.4799 11.956 16.5303 11.9466 16.5665 11.9463C16.6027 11.946 16.6549 11.9554 16.6825 11.9673C16.7127 11.9803 17.4726 12.73 18.5832 13.8427C20.1393 15.4014 20.4367 15.7062 20.4528 15.7582C20.464 15.7945 20.4674 15.8456 20.4612 15.8819C20.4555 15.9159 20.4353 15.9674 20.4168 15.9964C20.3982 16.0253 20.3551 16.0652 20.321 16.085C20.2773 16.1105 20.2344 16.1212 20.1741 16.1215C20.1059 16.122 20.0753 16.1131 20.0194 16.0771C19.9811 16.0525 19.1309 15.2119 18.1299 14.2094C16.5525 12.6293 16.3078 12.3783 16.2934 12.3246C16.2843 12.2906 16.2767 12.2488 16.2767 12.2318C16.2767 12.2148 16.2833 12.1766 16.2915 12.1467C16.2997 12.117 16.3293 12.0689 16.3571 12.04Z" fill="white"/>
<path d="M15.5383 12.8598C15.5659 12.831 15.6092 12.7982 15.6347 12.7869C15.6602 12.7758 15.7106 12.7663 15.7468 12.766C15.783 12.7657 15.8317 12.7727 15.8551 12.7816C15.8784 12.7906 16.516 13.4152 17.2718 14.1698C18.2156 15.112 18.6551 15.561 18.6751 15.6035C18.691 15.6375 18.7042 15.6898 18.7042 15.7195C18.7042 15.7492 18.6915 15.8015 18.6762 15.8355C18.6609 15.8695 18.6262 15.9166 18.5992 15.9399C18.5722 15.9633 18.5206 15.9899 18.4844 15.999C18.4361 16.0112 18.3981 16.0108 18.3413 15.9973C18.2662 15.9795 18.2244 15.9395 16.8983 14.6158C16.1472 13.866 15.5196 13.2317 15.5038 13.2062C15.4879 13.1807 15.4701 13.132 15.4641 13.0979C15.4581 13.0631 15.461 13.009 15.4709 12.9742C15.4805 12.9402 15.5108 12.8887 15.5383 12.8598Z" fill="white"/>
<path d="M14.6932 13.7059C14.7155 13.6745 14.7625 13.6345 14.7976 13.617C14.8326 13.5995 14.8909 13.5851 14.9271 13.5851C14.9633 13.5851 15.019 13.5986 15.0508 13.615C15.0842 13.6323 15.6859 14.2227 16.4733 15.0108C17.4455 15.9843 17.8444 16.3936 17.8614 16.4348C17.8744 16.4667 17.8849 16.5154 17.8848 16.5431C17.8846 16.5708 17.8718 16.6212 17.8565 16.6552C17.8411 16.6893 17.8065 16.7363 17.7794 16.7596C17.7525 16.783 17.7043 16.8091 17.6724 16.8175C17.6405 16.826 17.604 16.8328 17.5912 16.8328C17.5784 16.8326 17.5402 16.8246 17.5061 16.8149C17.4534 16.7999 17.2413 16.5948 16.0713 15.427C15.0397 14.3976 14.69 14.0395 14.6652 13.9873C14.6389 13.9319 14.6343 13.9019 14.6425 13.8403C14.6485 13.795 14.6696 13.7393 14.6932 13.7059Z" fill="white"/>
<path d="M13.8738 14.5257C13.8959 14.4943 13.9428 14.4542 13.9779 14.4367C14.0129 14.4192 14.0661 14.405 14.0958 14.4052C14.1256 14.4053 14.1743 14.4126 14.204 14.4214C14.2464 14.4339 14.6629 14.8423 16.1169 16.2964C17.8351 18.0149 17.9769 18.1608 17.9936 18.2251C18.0035 18.2635 18.0071 18.3156 18.0017 18.3411C17.9963 18.3666 17.98 18.4113 17.9655 18.4404C17.9511 18.4696 17.9183 18.5089 17.8928 18.5279C17.8673 18.547 17.8169 18.5702 17.7807 18.5794C17.7327 18.5917 17.695 18.5917 17.6415 18.579C17.5712 18.5623 17.4868 18.4805 15.7157 16.7114C14.134 15.1315 13.8597 14.8509 13.8379 14.7915C13.82 14.7427 13.8155 14.7012 13.8229 14.6523C13.8288 14.614 13.8517 14.5571 13.8738 14.5257Z" fill="white"/>
<path d="M13.0522 15.3466C13.0745 15.316 13.1217 15.2761 13.1572 15.2578C13.1928 15.2396 13.2497 15.2247 13.2838 15.2249C13.3178 15.2251 13.3735 15.2384 13.4075 15.2543C13.45 15.2742 13.8986 15.7133 14.8408 16.6576C16.0252 17.8445 16.2145 18.0403 16.2287 18.0936C16.238 18.1277 16.2453 18.173 16.2451 18.1942C16.245 18.2155 16.2323 18.2607 16.217 18.2947C16.2017 18.3287 16.167 18.3757 16.14 18.3991C16.1131 18.4225 16.0648 18.4486 16.0329 18.4569C16.0011 18.4655 15.9646 18.4724 15.9517 18.4724C15.9389 18.4724 15.9007 18.4648 15.8667 18.4557C15.8133 18.4413 15.6164 18.2509 14.4243 17.06C13.3702 16.007 13.0378 15.6662 13.019 15.619C13.0024 15.5771 12.9973 15.5322 13.003 15.4798C13.0085 15.4317 13.027 15.3814 13.0522 15.3466Z" fill="white"/>
<path d="M12.263 16.1294C12.2928 16.0997 12.3397 16.0689 12.3674 16.0612C12.3951 16.0534 12.4419 16.0466 12.4718 16.046C12.5016 16.0454 12.5537 16.0581 12.5878 16.074C12.6301 16.094 13.0782 16.5323 14.0141 17.4696C14.986 18.443 15.3852 18.8527 15.4022 18.894C15.4152 18.9259 15.4259 18.9729 15.4259 18.9984C15.4259 19.024 15.4151 19.071 15.4018 19.1028C15.3886 19.1347 15.3625 19.1774 15.3438 19.1976C15.3252 19.2179 15.282 19.2473 15.248 19.2631C15.214 19.2788 15.1636 19.2918 15.1359 19.292C15.1082 19.2921 15.0595 19.2816 15.0276 19.2686C14.9863 19.2516 14.5766 18.8524 13.6031 17.8805C12.6659 16.9446 12.2275 16.4966 12.2076 16.4542C12.1917 16.4202 12.1785 16.3714 12.1784 16.3459C12.1782 16.3204 12.185 16.2734 12.1935 16.2415C12.2019 16.2097 12.2331 16.1591 12.263 16.1294Z" fill="white"/>
<path d="M11.4695 16.927C11.4977 16.9064 11.538 16.8843 11.5592 16.8781C11.5806 16.8718 11.6223 16.8662 11.652 16.8657C11.6819 16.8651 11.734 16.8778 11.768 16.8937C11.8109 16.9138 12.3969 17.4908 13.6727 18.7688C14.6863 19.784 15.5191 20.6286 15.5235 20.6456C15.5278 20.6626 15.5354 20.6957 15.5405 20.7191C15.5454 20.7424 15.5413 20.7947 15.5309 20.8351C15.519 20.8823 15.4927 20.9282 15.4574 20.9633C15.4223 20.9986 15.3764 21.0249 15.3292 21.0368C15.2888 21.0471 15.2332 21.051 15.2055 21.0456C15.1778 21.04 15.1379 21.0266 15.1165 21.0156C15.0954 21.0046 14.2517 20.1686 13.2417 19.1579C11.9242 17.8392 11.399 17.3039 11.3818 17.2623C11.3688 17.2304 11.3583 17.1782 11.3583 17.1463C11.3585 17.1144 11.3721 17.0605 11.3886 17.0264C11.405 16.9924 11.4415 16.9477 11.4695 16.927Z" fill="white"/>
<path d="M10.6544 17.7402C10.68 17.7229 10.7183 17.7037 10.7395 17.6975C10.7609 17.6915 10.8025 17.6859 10.8323 17.6855C10.8622 17.6849 10.9143 17.6975 10.9483 17.7135C10.9912 17.7334 11.5773 18.3105 12.8532 19.5885C14.683 21.4214 14.6962 21.435 14.7112 21.5117C14.7195 21.5543 14.7212 21.61 14.715 21.6355C14.7088 21.661 14.6923 21.7045 14.6782 21.7321C14.6642 21.7598 14.6334 21.7957 14.61 21.812C14.5867 21.8282 14.5362 21.8497 14.4979 21.8596C14.4451 21.8734 14.4114 21.8734 14.3587 21.8599C14.2943 21.8434 14.1507 21.7038 12.4432 19.9988C11.1664 18.7239 10.5882 18.1365 10.5681 18.0936C10.5522 18.0596 10.5391 18.0039 10.5391 17.9699C10.5389 17.9359 10.5544 17.8774 10.5734 17.8398C10.5924 17.8024 10.6289 17.7575 10.6544 17.7402Z" fill="white"/>
<path d="M41.924 12.2773V3.81734H45.596C46.22 3.81734 46.748 3.92134 47.18 4.12934C47.612 4.33734 47.94 4.63734 48.164 5.02934C48.388 5.42134 48.5 5.89734 48.5 6.45734C48.5 7.00934 48.388 7.48534 48.164 7.88534C47.94 8.27734 47.612 8.58134 47.18 8.79734C46.748 9.00534 46.22 9.10934 45.596 9.10934H43.46V12.2773H41.924ZM43.46 7.89734H45.356C45.9 7.89734 46.312 7.77734 46.592 7.53734C46.872 7.28934 47.012 6.92934 47.012 6.45734C47.012 5.98534 46.872 5.62934 46.592 5.38934C46.312 5.14934 45.9 5.02934 45.356 5.02934H43.46V7.89734ZM49.4909 12.2773V6.40934H50.9549V7.82534H50.8349C50.9469 7.34534 51.1669 6.98134 51.4949 6.73334C51.8229 6.47734 52.2589 6.32934 52.8029 6.28934L53.2589 6.25334L53.3549 7.52534L52.4909 7.60934C52.0029 7.65734 51.6349 7.80934 51.3869 8.06534C51.1389 8.31334 51.0149 8.66534 51.0149 9.12134V12.2773H49.4909ZM56.7724 12.3973C56.1644 12.3973 55.6364 12.2733 55.1884 12.0253C54.7404 11.7773 54.3924 11.4253 54.1444 10.9693C53.8964 10.5053 53.7724 9.96134 53.7724 9.33734C53.7724 8.71334 53.8964 8.17334 54.1444 7.71734C54.3924 7.26134 54.7404 6.90934 55.1884 6.66134C55.6364 6.41334 56.1644 6.28934 56.7724 6.28934C57.3804 6.28934 57.9084 6.41334 58.3564 6.66134C58.8044 6.90934 59.1524 7.26134 59.4004 7.71734C59.6484 8.17334 59.7724 8.71334 59.7724 9.33734C59.7724 9.96134 59.6484 10.5053 59.4004 10.9693C59.1524 11.4253 58.8044 11.7773 58.3564 12.0253C57.9084 12.2733 57.3804 12.3973 56.7724 12.3973ZM56.7724 11.2573C57.2204 11.2573 57.5804 11.0973 57.8524 10.7773C58.1244 10.4493 58.2604 9.96934 58.2604 9.33734C58.2604 8.69734 58.1244 8.22134 57.8524 7.90934C57.5804 7.58934 57.2204 7.42934 56.7724 7.42934C56.3244 7.42934 55.9644 7.58934 55.6924 7.90934C55.4204 8.22134 55.2844 8.69734 55.2844 9.33734C55.2844 9.96934 55.4204 10.4493 55.6924 10.7773C55.9644 11.0973 56.3244 11.2573 56.7724 11.2573ZM63.2665 12.3973C62.7545 12.3973 62.3025 12.2733 61.9105 12.0253C61.5265 11.7773 61.2265 11.4253 61.0105 10.9693C60.7945 10.5053 60.6865 9.96134 60.6865 9.33734C60.6865 8.70534 60.7945 8.16534 61.0105 7.71734C61.2265 7.26134 61.5265 6.90934 61.9105 6.66134C62.3025 6.41334 62.7545 6.28934 63.2665 6.28934C63.7545 6.28934 64.1785 6.40934 64.5385 6.64934C64.9065 6.88934 65.1545 7.20534 65.2825 7.59734H65.1505V3.81734H66.6505V12.2773H65.1865V11.0293H65.2945C65.1745 11.4453 64.9305 11.7773 64.5625 12.0253C64.1945 12.2733 63.7625 12.3973 63.2665 12.3973ZM63.6865 11.2573C64.1345 11.2573 64.4945 11.0973 64.7665 10.7773C65.0385 10.4493 65.1745 9.96934 65.1745 9.33734C65.1745 8.69734 65.0385 8.22134 64.7665 7.90934C64.4945 7.58934 64.1345 7.42934 63.6865 7.42934C63.2385 7.42934 62.8785 7.58934 62.6065 7.90934C62.3345 8.22134 62.1985 8.69734 62.1985 9.33734C62.1985 9.96934 62.3345 10.4493 62.6065 10.7773C62.8785 11.0973 63.2385 11.2573 63.6865 11.2573ZM70.3298 12.3973C69.8418 12.3973 69.4378 12.3093 69.1178 12.1333C68.7978 11.9493 68.5578 11.6773 68.3978 11.3173C68.2458 10.9573 68.1698 10.5093 68.1698 9.97334V6.40934H69.6698V9.99734C69.6698 10.2693 69.7058 10.4973 69.7778 10.6813C69.8578 10.8653 69.9738 11.0013 70.1258 11.0893C70.2858 11.1773 70.4858 11.2213 70.7258 11.2213C70.9978 11.2213 71.2338 11.1613 71.4338 11.0413C71.6418 10.9133 71.8018 10.7373 71.9138 10.5133C72.0338 10.2813 72.0938 10.0133 72.0938 9.70934V6.40934H73.5938V12.2773H72.1298V11.0533H72.2978C72.1298 11.4853 71.8738 11.8173 71.5298 12.0493C71.1938 12.2813 70.7938 12.3973 70.3298 12.3973ZM77.867 12.3973C77.251 12.3973 76.715 12.2733 76.259 12.0253C75.803 11.7693 75.451 11.4093 75.203 10.9453C74.955 10.4813 74.831 9.93734 74.831 9.31334C74.831 8.68934 74.955 8.15334 75.203 7.70534C75.451 7.24934 75.803 6.90134 76.259 6.66134C76.715 6.41334 77.251 6.28934 77.867 6.28934C78.243 6.28934 78.615 6.34934 78.983 6.46934C79.351 6.58934 79.655 6.75734 79.895 6.97334L79.451 8.01734C79.243 7.83334 79.007 7.69334 78.743 7.59734C78.487 7.50134 78.239 7.45334 77.999 7.45334C77.479 7.45334 77.075 7.61734 76.787 7.94534C76.507 8.26534 76.367 8.72534 76.367 9.32534C76.367 9.91734 76.507 10.3853 76.787 10.7293C77.075 11.0653 77.479 11.2333 77.999 11.2333C78.231 11.2333 78.479 11.1853 78.743 11.0893C79.007 10.9933 79.243 10.8493 79.451 10.6573L79.895 11.7133C79.655 11.9213 79.347 12.0893 78.971 12.2173C78.603 12.3373 78.235 12.3973 77.867 12.3973ZM83.5266 12.3973C82.7426 12.3973 82.1586 12.2013 81.7746 11.8093C81.3906 11.4173 81.1986 10.8453 81.1986 10.0933V7.53734H80.0706V6.40934H81.1986V4.65734H82.6986V6.40934H84.4746V7.53734H82.6986V10.0093C82.6986 10.3933 82.7826 10.6813 82.9506 10.8733C83.1186 11.0653 83.3906 11.1613 83.7666 11.1613C83.8786 11.1613 83.9946 11.1493 84.1146 11.1253C84.2346 11.0933 84.3586 11.0613 84.4866 11.0293L84.7146 12.1333C84.5706 12.2133 84.3866 12.2773 84.1626 12.3253C83.9466 12.3733 83.7346 12.3973 83.5266 12.3973ZM92.7584 12.3973C91.8784 12.3973 91.1224 12.2213 90.4904 11.8693C89.8664 11.5093 89.3864 11.0053 89.0504 10.3573C88.7144 9.70134 88.5464 8.92934 88.5464 8.04134C88.5464 7.15334 88.7144 6.38534 89.0504 5.73734C89.3864 5.08934 89.8664 4.58934 90.4904 4.23734C91.1224 3.87734 91.8784 3.69734 92.7584 3.69734C93.3264 3.69734 93.8624 3.78534 94.3664 3.96134C94.8784 4.13734 95.2984 4.38934 95.6264 4.71734L95.1224 5.94134C94.7624 5.63734 94.3944 5.41734 94.0184 5.28134C93.6424 5.13734 93.2384 5.06534 92.8064 5.06534C91.9504 5.06534 91.2984 5.32534 90.8504 5.84534C90.4024 6.35734 90.1784 7.08934 90.1784 8.04134C90.1784 8.99334 90.4024 9.72934 90.8504 10.2493C91.2984 10.7693 91.9504 11.0293 92.8064 11.0293C93.2384 11.0293 93.6424 10.9613 94.0184 10.8253C94.3944 10.6813 94.7624 10.4573 95.1224 10.1533L95.6264 11.3773C95.2984 11.6973 94.8784 11.9493 94.3664 12.1333C93.8624 12.3093 93.3264 12.3973 92.7584 12.3973ZM99.0771 12.3973C98.4691 12.3973 97.9411 12.2733 97.4931 12.0253C97.0451 11.7773 96.6971 11.4253 96.4491 10.9693C96.2011 10.5053 96.0771 9.96134 96.0771 9.33734C96.0771 8.71334 96.2011 8.17334 96.4491 7.71734C96.6971 7.26134 97.0451 6.90934 97.4931 6.66134C97.9411 6.41334 98.4691 6.28934 99.0771 6.28934C99.6851 6.28934 100.213 6.41334 100.661 6.66134C101.109 6.90934 101.457 7.26134 101.705 7.71734C101.953 8.17334 102.077 8.71334 102.077 9.33734C102.077 9.96134 101.953 10.5053 101.705 10.9693C101.457 11.4253 101.109 11.7773 100.661 12.0253C100.213 12.2733 99.6851 12.3973 99.0771 12.3973ZM99.0771 11.2573C99.5251 11.2573 99.8851 11.0973 100.157 10.7773C100.429 10.4493 100.565 9.96934 100.565 9.33734C100.565 8.69734 100.429 8.22134 100.157 7.90934C99.8851 7.58934 99.5251 7.42934 99.0771 7.42934C98.6291 7.42934 98.2691 7.58934 97.9971 7.90934C97.7251 8.22134 97.5891 8.69734 97.5891 9.33734C97.5891 9.96934 97.7251 10.4493 97.9971 10.7773C98.2691 11.0973 98.6291 11.2573 99.0771 11.2573ZM105.571 12.3973C105.059 12.3973 104.607 12.2733 104.215 12.0253C103.831 11.7773 103.531 11.4253 103.315 10.9693C103.099 10.5053 102.991 9.96134 102.991 9.33734C102.991 8.70534 103.099 8.16534 103.315 7.71734C103.531 7.26134 103.831 6.90934 104.215 6.66134C104.607 6.41334 105.059 6.28934 105.571 6.28934C106.059 6.28934 106.483 6.40934 106.843 6.64934C107.211 6.88934 107.459 7.20534 107.587 7.59734H107.455V3.81734H108.955V12.2773H107.491V11.0293H107.599C107.479 11.4453 107.235 11.7773 106.867 12.0253C106.499 12.2733 106.067 12.3973 105.571 12.3973ZM105.991 11.2573C106.439 11.2573 106.799 11.0973 107.071 10.7773C107.343 10.4493 107.479 9.96934 107.479 9.33734C107.479 8.69734 107.343 8.22134 107.071 7.90934C106.799 7.58934 106.439 7.42934 105.991 7.42934C105.543 7.42934 105.183 7.58934 104.911 7.90934C104.639 8.22134 104.503 8.69734 104.503 9.33734C104.503 9.96934 104.639 10.4493 104.911 10.7773C105.183 11.0973 105.543 11.2573 105.991 11.2573ZM113.402 12.3973C112.738 12.3973 112.166 12.2733 111.686 12.0253C111.206 11.7773 110.834 11.4253 110.57 10.9693C110.314 10.5133 110.186 9.97334 110.186 9.34934C110.186 8.74134 110.31 8.20934 110.558 7.75334C110.814 7.29734 111.162 6.94134 111.602 6.68534C112.05 6.42134 112.558 6.28934 113.126 6.28934C113.686 6.28934 114.166 6.40934 114.566 6.64934C114.966 6.88934 115.274 7.22934 115.49 7.66934C115.714 8.10934 115.826 8.63334 115.826 9.24134V9.68534H111.398V8.82134H114.77L114.578 9.00134C114.578 8.45734 114.458 8.04134 114.218 7.75334C113.978 7.45734 113.634 7.30934 113.186 7.30934C112.85 7.30934 112.562 7.38934 112.322 7.54934C112.09 7.70134 111.91 7.92134 111.782 8.20934C111.662 8.48934 111.602 8.82534 111.602 9.21734V9.30134C111.602 9.74134 111.67 10.1053 111.806 10.3933C111.942 10.6813 112.146 10.8973 112.418 11.0413C112.69 11.1853 113.026 11.2573 113.426 11.2573C113.754 11.2573 114.082 11.2093 114.41 11.1133C114.738 11.0093 115.038 10.8493 115.31 10.6333L115.73 11.6413C115.45 11.8733 115.098 12.0573 114.674 12.1933C114.25 12.3293 113.826 12.3973 113.402 12.3973Z" fill="black"/>
<path d="M42.12 28.7217V28.1517H43.93V22.2117L44.3 22.2417L42.46 23.4517L42.15 22.9417L44.1 21.6717H44.58V28.1517H46.25V28.7217H42.12ZM49.9961 28.8017C49.4694 28.8017 49.0228 28.665 48.6561 28.3917C48.2961 28.1183 48.0228 27.715 47.8361 27.1817C47.6494 26.6417 47.5561 25.9817 47.5561 25.2017C47.5561 24.4083 47.6494 23.745 47.8361 23.2117C48.0228 22.6783 48.2961 22.275 48.6561 22.0017C49.0228 21.7283 49.4694 21.5917 49.9961 21.5917C50.5361 21.5917 50.9861 21.7283 51.3461 22.0017C51.7061 22.2683 51.9761 22.6683 52.1561 23.2017C52.3428 23.735 52.4361 24.395 52.4361 25.1817C52.4361 25.9683 52.3428 26.6317 52.1561 27.1717C51.9694 27.7117 51.6961 28.1183 51.3361 28.3917C50.9761 28.665 50.5294 28.8017 49.9961 28.8017ZM49.9961 28.2117C50.5961 28.2117 51.0428 27.965 51.3361 27.4717C51.6294 26.9783 51.7761 26.215 51.7761 25.1817C51.7761 24.1483 51.6294 23.3917 51.3361 22.9117C51.0494 22.425 50.6028 22.1817 49.9961 22.1817C49.3961 22.1817 48.9494 22.425 48.6561 22.9117C48.3628 23.3983 48.2161 24.1583 48.2161 25.1917C48.2161 26.2183 48.3628 26.9783 48.6561 27.4717C48.9494 27.965 49.3961 28.2117 49.9961 28.2117ZM54.2322 28.7217L57.7122 21.9017L57.7322 22.2517H53.7022V21.6717H58.2722V22.1617L54.9522 28.7217H54.2322ZM61.5583 28.8017C61.3049 28.8017 61.0583 28.7717 60.8183 28.7117C60.5783 28.645 60.3516 28.5483 60.1383 28.4217C59.9249 28.2883 59.7316 28.1317 59.5583 27.9517L59.8383 27.4317C60.0916 27.7117 60.3649 27.9117 60.6583 28.0317C60.9516 28.1517 61.2549 28.2117 61.5683 28.2117C61.9083 28.2117 62.2083 28.145 62.4683 28.0117C62.7349 27.8783 62.9583 27.6817 63.1383 27.4217C63.3249 27.1617 63.4649 26.8383 63.5583 26.4517C63.6516 26.065 63.6983 25.6183 63.6983 25.1117V24.2717H63.7283C63.6816 24.6383 63.5649 24.955 63.3783 25.2217C63.1916 25.4883 62.9549 25.695 62.6683 25.8417C62.3816 25.9883 62.0616 26.0617 61.7083 26.0617C61.2816 26.0617 60.9049 25.9683 60.5783 25.7817C60.2583 25.5883 60.0049 25.325 59.8183 24.9917C59.6383 24.6583 59.5483 24.275 59.5483 23.8417C59.5483 23.4017 59.6416 23.015 59.8283 22.6817C60.0216 22.3417 60.2849 22.075 60.6183 21.8817C60.9516 21.6883 61.3316 21.5917 61.7583 21.5917C62.3116 21.5917 62.7783 21.725 63.1583 21.9917C63.5449 22.2583 63.8349 22.6483 64.0283 23.1617C64.2283 23.6683 64.3283 24.285 64.3283 25.0117C64.3283 25.825 64.2183 26.515 63.9983 27.0817C63.7783 27.6417 63.4616 28.0683 63.0483 28.3617C62.6349 28.655 62.1383 28.8017 61.5583 28.8017ZM61.7983 25.4817C62.1183 25.4817 62.4016 25.4117 62.6483 25.2717C62.8949 25.1317 63.0849 24.9383 63.2183 24.6917C63.3583 24.4383 63.4283 24.1517 63.4283 23.8317C63.4283 23.4983 63.3583 23.2083 63.2183 22.9617C63.0849 22.7083 62.8949 22.515 62.6483 22.3817C62.4083 22.2417 62.1249 22.1717 61.7983 22.1717C61.4783 22.1717 61.1983 22.2417 60.9583 22.3817C60.7183 22.5217 60.5283 22.715 60.3883 22.9617C60.2549 23.2083 60.1883 23.4983 60.1883 23.8317C60.1883 24.1583 60.2549 24.445 60.3883 24.6917C60.5283 24.9383 60.7183 25.1317 60.9583 25.2717C61.1983 25.4117 61.4783 25.4817 61.7983 25.4817Z" fill="black"/>
</svg>
