<svg width="124" height="14" viewBox="0 0 124 14" fill="none" xmlns="http://www.w3.org/2000/svg">
<path d="M-0.000140548 12.816V0.216039H6.15586C7.73986 0.216039 8.92786 0.516039 9.71986 1.11604C10.5239 1.71604 10.9259 2.50804 10.9259 3.49204C10.9259 4.15204 10.7639 4.72804 10.4399 5.22004C10.1159 5.70004 9.67186 6.07204 9.10786 6.33604C8.54386 6.60004 7.89586 6.73204 7.16386 6.73204L7.50586 5.99404C8.29786 5.99404 8.99986 6.12604 9.61186 6.39004C10.2239 6.64204 10.6979 7.02004 11.0339 7.52404C11.3819 8.02804 11.5559 8.64604 11.5559 9.37804C11.5559 10.458 11.1299 11.304 10.2779 11.916C9.42586 12.516 8.17186 12.816 6.51586 12.816H-0.000140548ZM2.89786 10.62H6.29986C7.05586 10.62 7.62586 10.5 8.00986 10.26C8.40586 10.008 8.60386 9.61204 8.60386 9.07204C8.60386 8.54404 8.40586 8.15404 8.00986 7.90204C7.62586 7.63804 7.05586 7.50604 6.29986 7.50604H2.68186V5.38204H5.79586C6.50386 5.38204 7.04386 5.26204 7.41586 5.02204C7.79986 4.77004 7.99186 4.39204 7.99186 3.88804C7.99186 3.39604 7.79986 3.03004 7.41586 2.79004C7.04386 2.53804 6.50386 2.41204 5.79586 2.41204H2.89786V10.62ZM16.1978 12.816V2.59204H12.1658V0.216039H23.1458V2.59204H19.1138V12.816H16.1978ZM23.4887 8.87404V6.62404H28.5827V8.87404H23.4887ZM31.7554 12.816V1.29604L33.0154 2.55604H29.2354V0.216039H34.6714V12.816H31.7554ZM36.7162 10.17V8.20804L42.6562 0.216039H45.7162L39.9022 8.20804L38.4802 7.79404H48.3982V10.17H36.7162ZM43.5022 12.816V10.17L43.5922 7.79404V5.43604H46.3462V12.816H43.5022ZM49.6801 8.87404V6.62404H54.7741V8.87404H49.6801ZM60.6735 13.032C59.7975 13.032 58.9275 12.918 58.0635 12.69C57.2115 12.45 56.4795 12.114 55.8675 11.682L57.0195 9.45004C57.4995 9.79804 58.0515 10.074 58.6755 10.278C59.3115 10.482 59.9535 10.584 60.6015 10.584C61.3335 10.584 61.9095 10.44 62.3295 10.152C62.7495 9.86404 62.9595 9.46204 62.9595 8.94604C62.9595 8.62204 62.8755 8.33404 62.7075 8.08204C62.5395 7.83004 62.2395 7.63804 61.8075 7.50604C61.3875 7.37404 60.7935 7.30804 60.0255 7.30804H56.8035L57.4515 0.216039H65.1375V2.55604H58.4955L60.0075 1.22404L59.5575 6.28204L58.0455 4.95004H60.7095C61.9575 4.95004 62.9595 5.12404 63.7155 5.47204C64.4835 5.80804 65.0415 6.27004 65.3895 6.85804C65.7375 7.44604 65.9115 8.11204 65.9115 8.85604C65.9115 9.60004 65.7255 10.29 65.3535 10.926C64.9815 11.55 64.4055 12.06 63.6255 12.456C62.8575 12.84 61.8735 13.032 60.6735 13.032ZM72.4946 13.032C71.4626 13.032 70.5386 12.78 69.7226 12.276C68.9066 11.76 68.2646 11.016 67.7966 10.044C67.3286 9.07204 67.0946 7.89604 67.0946 6.51604C67.0946 5.13604 67.3286 3.96004 67.7966 2.98804C68.2646 2.01604 68.9066 1.27804 69.7226 0.77404C70.5386 0.25804 71.4626 3.98159e-05 72.4946 3.98159e-05C73.5386 3.98159e-05 74.4626 0.25804 75.2666 0.77404C76.0826 1.27804 76.7246 2.01604 77.1926 2.98804C77.6606 3.96004 77.8946 5.13604 77.8946 6.51604C77.8946 7.89604 77.6606 9.07204 77.1926 10.044C76.7246 11.016 76.0826 11.76 75.2666 12.276C74.4626 12.78 73.5386 13.032 72.4946 13.032ZM72.4946 10.566C72.9866 10.566 73.4126 10.428 73.7726 10.152C74.1446 9.87604 74.4326 9.43804 74.6366 8.83804C74.8526 8.23804 74.9606 7.46404 74.9606 6.51604C74.9606 5.56804 74.8526 4.79404 74.6366 4.19404C74.4326 3.59404 74.1446 3.15604 73.7726 2.88004C73.4126 2.60404 72.9866 2.46604 72.4946 2.46604C72.0146 2.46604 71.5886 2.60404 71.2166 2.88004C70.8566 3.15604 70.5686 3.59404 70.3526 4.19404C70.1486 4.79404 70.0466 5.56804 70.0466 6.51604C70.0466 7.46404 70.1486 8.23804 70.3526 8.83804C70.5686 9.43804 70.8566 9.87604 71.2166 10.152C71.5886 10.428 72.0146 10.566 72.4946 10.566ZM84.7114 13.032C83.6794 13.032 82.7554 12.78 81.9394 12.276C81.1234 11.76 80.4814 11.016 80.0134 10.044C79.5454 9.07204 79.3114 7.89604 79.3114 6.51604C79.3114 5.13604 79.5454 3.96004 80.0134 2.98804C80.4814 2.01604 81.1234 1.27804 81.9394 0.77404C82.7554 0.25804 83.6794 3.98159e-05 84.7114 3.98159e-05C85.7554 3.98159e-05 86.6794 0.25804 87.4834 0.77404C88.2994 1.27804 88.9414 2.01604 89.4094 2.98804C89.8774 3.96004 90.1114 5.13604 90.1114 6.51604C90.1114 7.89604 89.8774 9.07204 89.4094 10.044C88.9414 11.016 88.2994 11.76 87.4834 12.276C86.6794 12.78 85.7554 13.032 84.7114 13.032ZM84.7114 10.566C85.2034 10.566 85.6294 10.428 85.9894 10.152C86.3614 9.87604 86.6494 9.43804 86.8534 8.83804C87.0694 8.23804 87.1774 7.46404 87.1774 6.51604C87.1774 5.56804 87.0694 4.79404 86.8534 4.19404C86.6494 3.59404 86.3614 3.15604 85.9894 2.88004C85.6294 2.60404 85.2034 2.46604 84.7114 2.46604C84.2314 2.46604 83.8054 2.60404 83.4334 2.88004C83.0734 3.15604 82.7854 3.59404 82.5694 4.19404C82.3654 4.79404 82.2634 5.56804 82.2634 6.51604C82.2634 7.46404 82.3654 8.23804 82.5694 8.83804C82.7854 9.43804 83.0734 9.87604 83.4334 10.152C83.8054 10.428 84.2314 10.566 84.7114 10.566ZM97.4178 12.816V0.216039H99.8298L105.194 9.10804H103.916L109.19 0.216039H111.584L111.62 12.816H108.884L108.866 4.41004H109.37L105.158 11.484H103.844L99.5418 4.41004H100.154V12.816H97.4178ZM114.609 12.816V0.216039H117.525V10.44H123.843V12.816H114.609Z" fill="#1B622D"/>
</svg>
