<svg width="152" height="113" viewBox="0 0 152 113" fill="none" xmlns="http://www.w3.org/2000/svg">
<path d="M2.36177 20V9.76L3.48177 10.88H0.121766V8.8H4.95377V20H2.36177ZM11.6994 20.192C10.7821 20.192 9.96072 19.968 9.23539 19.52C8.51006 19.0613 7.93939 18.4 7.52339 17.536C7.10739 16.672 6.89939 15.6267 6.89939 14.4C6.89939 13.1733 7.10739 12.128 7.52339 11.264C7.93939 10.4 8.51006 9.744 9.23539 9.296C9.96072 8.83733 10.7821 8.608 11.6994 8.608C12.6274 8.608 13.4487 8.83733 14.1634 9.296C14.8887 9.744 15.4594 10.4 15.8754 11.264C16.2914 12.128 16.4994 13.1733 16.4994 14.4C16.4994 15.6267 16.2914 16.672 15.8754 17.536C15.4594 18.4 14.8887 19.0613 14.1634 19.52C13.4487 19.968 12.6274 20.192 11.6994 20.192ZM11.6994 18C12.1367 18 12.5154 17.8773 12.8354 17.632C13.1661 17.3867 13.4221 16.9973 13.6034 16.464C13.7954 15.9307 13.8914 15.2427 13.8914 14.4C13.8914 13.5573 13.7954 12.8693 13.6034 12.336C13.4221 11.8027 13.1661 11.4133 12.8354 11.168C12.5154 10.9227 12.1367 10.8 11.6994 10.8C11.2727 10.8 10.8941 10.9227 10.5634 11.168C10.2434 11.4133 9.98739 11.8027 9.79539 12.336C9.61406 12.8693 9.52339 13.5573 9.52339 14.4C9.52339 15.2427 9.61406 15.9307 9.79539 16.464C9.98739 16.9973 10.2434 17.3867 10.5634 17.632C10.8941 17.8773 11.2727 18 11.6994 18ZM22.5588 20.192C21.6414 20.192 20.8201 19.968 20.0948 19.52C19.3694 19.0613 18.7988 18.4 18.3828 17.536C17.9668 16.672 17.7588 15.6267 17.7588 14.4C17.7588 13.1733 17.9668 12.128 18.3828 11.264C18.7988 10.4 19.3694 9.744 20.0948 9.296C20.8201 8.83733 21.6414 8.608 22.5588 8.608C23.4868 8.608 24.3081 8.83733 25.0228 9.296C25.7481 9.744 26.3188 10.4 26.7348 11.264C27.1508 12.128 27.3588 13.1733 27.3588 14.4C27.3588 15.6267 27.1508 16.672 26.7348 17.536C26.3188 18.4 25.7481 19.0613 25.0228 19.52C24.3081 19.968 23.4868 20.192 22.5588 20.192ZM22.5588 18C22.9961 18 23.3748 17.8773 23.6948 17.632C24.0254 17.3867 24.2814 16.9973 24.4628 16.464C24.6548 15.9307 24.7508 15.2427 24.7508 14.4C24.7508 13.5573 24.6548 12.8693 24.4628 12.336C24.2814 11.8027 24.0254 11.4133 23.6948 11.168C23.3748 10.9227 22.9961 10.8 22.5588 10.8C22.1321 10.8 21.7534 10.9227 21.4228 11.168C21.1028 11.4133 20.8468 11.8027 20.6548 12.336C20.4734 12.8693 20.3828 13.5573 20.3828 14.4C20.3828 15.2427 20.4734 15.9307 20.6548 16.464C20.8468 16.9973 21.1028 17.3867 21.4228 17.632C21.7534 17.8773 22.1321 18 22.5588 18ZM33.8534 20V8.8H35.9974L40.7654 16.704H39.6294L44.3174 8.8H46.4454L46.4774 20H44.0454L44.0294 12.528H44.4774L40.7334 18.816H39.5654L35.7414 12.528H36.2854V20H33.8534ZM49.1346 20V8.8H51.7266V17.888H57.3426V20H49.1346ZM62.8261 16.496V14.496H67.3541V16.496H62.8261ZM79.4653 20.192C78.5799 20.192 77.7586 20.048 77.0013 19.76C76.2546 19.472 75.6039 19.0667 75.0493 18.544C74.5053 18.0213 74.0786 17.408 73.7693 16.704C73.4706 16 73.3213 15.232 73.3213 14.4C73.3213 13.568 73.4706 12.8 73.7693 12.096C74.0786 11.392 74.5106 10.7787 75.0653 10.256C75.6199 9.73333 76.2706 9.328 77.0173 9.04C77.7639 8.752 78.5746 8.608 79.4493 8.608C80.3346 8.608 81.1453 8.752 81.8813 9.04C82.6279 9.328 83.2733 9.73333 83.8173 10.256C84.3719 10.7787 84.8039 11.392 85.1133 12.096C85.4226 12.7893 85.5773 13.5573 85.5773 14.4C85.5773 15.232 85.4226 16.0053 85.1133 16.72C84.8039 17.424 84.3719 18.0373 83.8173 18.56C83.2733 19.072 82.6279 19.472 81.8813 19.76C81.1453 20.048 80.3399 20.192 79.4653 20.192ZM79.4493 17.984C79.9506 17.984 80.4093 17.8987 80.8253 17.728C81.2519 17.5573 81.6253 17.312 81.9453 16.992C82.2653 16.672 82.5106 16.2933 82.6813 15.856C82.8626 15.4187 82.9533 14.9333 82.9533 14.4C82.9533 13.8667 82.8626 13.3813 82.6813 12.944C82.5106 12.5067 82.2653 12.128 81.9453 11.808C81.6359 11.488 81.2679 11.2427 80.8413 11.072C80.4146 10.9013 79.9506 10.816 79.4493 10.816C78.9479 10.816 78.4839 10.9013 78.0573 11.072C77.6413 11.2427 77.2733 11.488 76.9533 11.808C76.6333 12.128 76.3826 12.5067 76.2013 12.944C76.0306 13.3813 75.9453 13.8667 75.9453 14.4C75.9453 14.9227 76.0306 15.408 76.2013 15.856C76.3826 16.2933 76.6279 16.672 76.9373 16.992C77.2573 17.312 77.6306 17.5573 78.0573 17.728C78.4839 17.8987 78.9479 17.984 79.4493 17.984ZM90.5259 20L85.6939 8.8H88.4939L92.7179 18.72H91.0699L95.3579 8.8H97.9339L93.0859 20H90.5259ZM97.022 20L102.014 8.8H104.574L109.582 20H106.862L102.766 10.112H103.79L99.678 20H97.022ZM99.518 17.6L100.206 15.632H105.966L106.67 17.6H99.518ZM110.744 20V8.8H113.336V17.888H118.952V20H110.744Z" fill="#4A8036"/>
<path d="M1.32577 46V36.2H3.14577V46H1.32577ZM9.05847 46.098C8.27447 46.098 7.57447 45.9347 6.95847 45.608C6.3518 45.272 5.8758 44.8147 5.53047 44.236C5.18514 43.6573 5.01247 42.9993 5.01247 42.262C5.01247 41.5153 5.18514 40.8573 5.53047 40.288C5.8758 39.7093 6.3518 39.2567 6.95847 38.93C7.57447 38.6033 8.27447 38.44 9.05847 38.44C9.78647 38.44 10.4258 38.5893 10.9765 38.888C11.5365 39.1773 11.9611 39.6067 12.2505 40.176L10.9065 40.96C10.6825 40.6053 10.4071 40.344 10.0805 40.176C9.76314 40.008 9.4178 39.924 9.04447 39.924C8.61514 39.924 8.2278 40.0173 7.88247 40.204C7.53714 40.3907 7.26647 40.6613 7.07047 41.016C6.87447 41.3613 6.77647 41.7767 6.77647 42.262C6.77647 42.7473 6.87447 43.1673 7.07047 43.522C7.26647 43.8673 7.53714 44.1333 7.88247 44.32C8.2278 44.5067 8.61514 44.6 9.04447 44.6C9.4178 44.6 9.76314 44.516 10.0805 44.348C10.4071 44.18 10.6825 43.9187 10.9065 43.564L12.2505 44.348C11.9611 44.908 11.5365 45.342 10.9765 45.65C10.4258 45.9487 9.78647 46.098 9.05847 46.098ZM17.1679 46.098C16.3372 46.098 15.6092 45.9347 14.9839 45.608C14.3679 45.272 13.8872 44.8147 13.5419 44.236C13.2059 43.6573 13.0379 42.9993 13.0379 42.262C13.0379 41.5153 13.2012 40.8573 13.5279 40.288C13.8639 39.7093 14.3212 39.2567 14.8999 38.93C15.4879 38.6033 16.1552 38.44 16.9019 38.44C17.6299 38.44 18.2785 38.5987 18.8479 38.916C19.4172 39.2333 19.8652 39.6813 20.1919 40.26C20.5185 40.8387 20.6819 41.52 20.6819 42.304C20.6819 42.3787 20.6772 42.4627 20.6679 42.556C20.6679 42.6493 20.6632 42.738 20.6539 42.822H14.4239V41.66H19.7299L19.0439 42.024C19.0532 41.5947 18.9645 41.2167 18.7779 40.89C18.5912 40.5633 18.3345 40.3067 18.0079 40.12C17.6905 39.9333 17.3219 39.84 16.9019 39.84C16.4725 39.84 16.0945 39.9333 15.7679 40.12C15.4505 40.3067 15.1985 40.568 15.0119 40.904C14.8345 41.2307 14.7459 41.618 14.7459 42.066V42.346C14.7459 42.794 14.8485 43.1907 15.0539 43.536C15.2592 43.8813 15.5485 44.1473 15.9219 44.334C16.2952 44.5207 16.7245 44.614 17.2099 44.614C17.6299 44.614 18.0079 44.5487 18.3439 44.418C18.6799 44.2873 18.9785 44.082 19.2399 43.802L20.1779 44.88C19.8419 45.272 19.4172 45.5753 18.9039 45.79C18.3999 45.9953 17.8212 46.098 17.1679 46.098ZM30.936 46.14C30.1893 46.14 29.494 46.0187 28.85 45.776C28.2153 45.524 27.66 45.174 27.184 44.726C26.7173 44.2687 26.3533 43.732 26.092 43.116C25.8307 42.5 25.7 41.828 25.7 41.1C25.7 40.372 25.8307 39.7 26.092 39.084C26.3533 38.468 26.722 37.936 27.198 37.488C27.674 37.0307 28.2293 36.6807 28.864 36.438C29.4987 36.186 30.194 36.06 30.95 36.06C31.7527 36.06 32.4853 36.2 33.148 36.48C33.8107 36.7507 34.3707 37.1567 34.828 37.698L33.652 38.804C33.2973 38.4213 32.9007 38.1367 32.462 37.95C32.0233 37.754 31.5473 37.656 31.034 37.656C30.5207 37.656 30.0493 37.74 29.62 37.908C29.2 38.076 28.8313 38.314 28.514 38.622C28.206 38.93 27.9633 39.294 27.786 39.714C27.618 40.134 27.534 40.596 27.534 41.1C27.534 41.604 27.618 42.066 27.786 42.486C27.9633 42.906 28.206 43.27 28.514 43.578C28.8313 43.886 29.2 44.124 29.62 44.292C30.0493 44.46 30.5207 44.544 31.034 44.544C31.5473 44.544 32.0233 44.4507 32.462 44.264C32.9007 44.068 33.2973 43.774 33.652 43.382L34.828 44.502C34.3707 45.034 33.8107 45.44 33.148 45.72C32.4853 46 31.748 46.14 30.936 46.14ZM36.4039 46V38.524H38.0699V40.582L37.8739 39.98C38.0979 39.476 38.4479 39.0933 38.9239 38.832C39.4092 38.5707 40.0112 38.44 40.7299 38.44V40.106C40.6552 40.0873 40.5852 40.078 40.5199 40.078C40.4545 40.0687 40.3892 40.064 40.3239 40.064C39.6612 40.064 39.1339 40.26 38.7419 40.652C38.3499 41.0347 38.1539 41.6087 38.1539 42.374V46H36.4039ZM45.66 46.098C44.8294 46.098 44.1014 45.9347 43.476 45.608C42.86 45.272 42.3794 44.8147 42.034 44.236C41.698 43.6573 41.53 42.9993 41.53 42.262C41.53 41.5153 41.6934 40.8573 42.02 40.288C42.356 39.7093 42.8134 39.2567 43.392 38.93C43.98 38.6033 44.6474 38.44 45.394 38.44C46.122 38.44 46.7707 38.5987 47.34 38.916C47.9094 39.2333 48.3574 39.6813 48.684 40.26C49.0107 40.8387 49.174 41.52 49.174 42.304C49.174 42.3787 49.1694 42.4627 49.16 42.556C49.16 42.6493 49.1554 42.738 49.146 42.822H42.916V41.66H48.222L47.536 42.024C47.5454 41.5947 47.4567 41.2167 47.27 40.89C47.0834 40.5633 46.8267 40.3067 46.5 40.12C46.1827 39.9333 45.814 39.84 45.394 39.84C44.9647 39.84 44.5867 39.9333 44.26 40.12C43.9427 40.3067 43.6907 40.568 43.504 40.904C43.3267 41.2307 43.238 41.618 43.238 42.066V42.346C43.238 42.794 43.3407 43.1907 43.546 43.536C43.7514 43.8813 44.0407 44.1473 44.414 44.334C44.7874 44.5207 45.2167 44.614 45.702 44.614C46.122 44.614 46.5 44.5487 46.836 44.418C47.172 44.2873 47.4707 44.082 47.732 43.802L48.67 44.88C48.334 45.272 47.9094 45.5753 47.396 45.79C46.892 45.9953 46.3134 46.098 45.66 46.098ZM55.256 46V44.488L55.158 44.166V41.52C55.158 41.0067 55.004 40.61 54.696 40.33C54.388 40.0407 53.9213 39.896 53.296 39.896C52.876 39.896 52.4606 39.9613 52.05 40.092C51.6486 40.2227 51.308 40.4047 51.028 40.638L50.342 39.364C50.7433 39.056 51.2193 38.8273 51.77 38.678C52.33 38.5193 52.9086 38.44 53.506 38.44C54.5886 38.44 55.424 38.7013 56.012 39.224C56.6093 39.7373 56.908 40.5353 56.908 41.618V46H55.256ZM52.904 46.098C52.344 46.098 51.854 46.0047 51.434 45.818C51.014 45.622 50.6873 45.356 50.454 45.02C50.23 44.6747 50.118 44.2873 50.118 43.858C50.118 43.438 50.216 43.06 50.412 42.724C50.6173 42.388 50.9486 42.122 51.406 41.926C51.8633 41.73 52.47 41.632 53.226 41.632H55.396V42.794H53.352C52.7546 42.794 52.3533 42.892 52.148 43.088C51.9426 43.2747 51.84 43.508 51.84 43.788C51.84 44.1053 51.966 44.3573 52.218 44.544C52.47 44.7307 52.82 44.824 53.268 44.824C53.6973 44.824 54.08 44.726 54.416 44.53C54.7613 44.334 55.0086 44.0447 55.158 43.662L55.452 44.712C55.284 45.1507 54.9806 45.4913 54.542 45.734C54.1126 45.9767 53.5666 46.098 52.904 46.098ZM68.5899 38.44C69.1872 38.44 69.7145 38.5567 70.1719 38.79C70.6385 39.0233 71.0025 39.3827 71.2639 39.868C71.5252 40.344 71.6559 40.96 71.6559 41.716V46H69.9059V41.94C69.9059 41.2773 69.7612 40.7827 69.4719 40.456C69.1825 40.1293 68.7672 39.966 68.2259 39.966C67.8432 39.966 67.5025 40.05 67.2039 40.218C66.9145 40.386 66.6859 40.6333 66.5179 40.96C66.3592 41.2867 66.2799 41.702 66.2799 42.206V46H64.5299V41.94C64.5299 41.2773 64.3852 40.7827 64.0959 40.456C63.8065 40.1293 63.3912 39.966 62.8499 39.966C62.4672 39.966 62.1265 40.05 61.8279 40.218C61.5385 40.386 61.3099 40.6333 61.1419 40.96C60.9832 41.2867 60.9039 41.702 60.9039 42.206V46H59.1539V38.524H60.8199V40.512L60.5259 39.924C60.7779 39.4387 61.1419 39.07 61.6179 38.818C62.1032 38.566 62.6539 38.44 63.2699 38.44C63.9699 38.44 64.5765 38.6127 65.0899 38.958C65.6125 39.3033 65.9579 39.826 66.1259 40.526L65.4399 40.288C65.6825 39.728 66.0839 39.28 66.6439 38.944C67.2039 38.608 67.8525 38.44 68.5899 38.44ZM82.5213 46.14C81.7559 46.14 81.0513 46.014 80.4073 45.762C79.7633 45.51 79.2033 45.16 78.7273 44.712C78.2513 44.2547 77.8826 43.7227 77.6213 43.116C77.3599 42.5 77.2293 41.828 77.2293 41.1C77.2293 40.372 77.3599 39.7047 77.6213 39.098C77.8826 38.482 78.2513 37.95 78.7273 37.502C79.2033 37.0447 79.7633 36.69 80.4073 36.438C81.0513 36.186 81.7513 36.06 82.5073 36.06C83.2726 36.06 83.9726 36.186 84.6073 36.438C85.2513 36.69 85.8113 37.0447 86.2873 37.502C86.7633 37.95 87.1319 38.482 87.3933 39.098C87.6546 39.7047 87.7853 40.372 87.7853 41.1C87.7853 41.828 87.6546 42.5 87.3933 43.116C87.1319 43.732 86.7633 44.264 86.2873 44.712C85.8113 45.16 85.2513 45.51 84.6073 45.762C83.9726 46.014 83.2773 46.14 82.5213 46.14ZM82.5073 44.544C83.0019 44.544 83.4593 44.46 83.8793 44.292C84.2993 44.124 84.6633 43.886 84.9713 43.578C85.2793 43.2607 85.5173 42.8967 85.6853 42.486C85.8626 42.066 85.9513 41.604 85.9513 41.1C85.9513 40.596 85.8626 40.1387 85.6853 39.728C85.5173 39.308 85.2793 38.944 84.9713 38.636C84.6633 38.3187 84.2993 38.076 83.8793 37.908C83.4593 37.74 83.0019 37.656 82.5073 37.656C82.0126 37.656 81.5553 37.74 81.1353 37.908C80.7246 38.076 80.3606 38.3187 80.0433 38.636C79.7353 38.944 79.4926 39.308 79.3153 39.728C79.1473 40.1387 79.0633 40.596 79.0633 41.1C79.0633 41.5947 79.1473 42.052 79.3153 42.472C79.4926 42.892 79.7353 43.2607 80.0433 43.578C80.3513 43.886 80.7153 44.124 81.1353 44.292C81.5553 44.46 82.0126 44.544 82.5073 44.544ZM91.5344 46L88.3284 38.524H90.1484L92.9064 45.118H92.0104L94.8664 38.524H96.5464L93.3404 46H91.5344ZM102.014 46V44.488L101.916 44.166V41.52C101.916 41.0067 101.762 40.61 101.454 40.33C101.146 40.0407 100.679 39.896 100.054 39.896C99.6338 39.896 99.2184 39.9613 98.8078 40.092C98.4064 40.2227 98.0658 40.4047 97.7858 40.638L97.0998 39.364C97.5011 39.056 97.9771 38.8273 98.5278 38.678C99.0878 38.5193 99.6664 38.44 100.264 38.44C101.346 38.44 102.182 38.7013 102.77 39.224C103.367 39.7373 103.666 40.5353 103.666 41.618V46H102.014ZM99.6618 46.098C99.1018 46.098 98.6118 46.0047 98.1918 45.818C97.7718 45.622 97.4451 45.356 97.2118 45.02C96.9878 44.6747 96.8758 44.2873 96.8758 43.858C96.8758 43.438 96.9738 43.06 97.1698 42.724C97.3751 42.388 97.7064 42.122 98.1638 41.926C98.6211 41.73 99.2278 41.632 99.9838 41.632H102.154V42.794H100.11C99.5124 42.794 99.1111 42.892 98.9058 43.088C98.7004 43.2747 98.5978 43.508 98.5978 43.788C98.5978 44.1053 98.7238 44.3573 98.9758 44.544C99.2278 44.7307 99.5778 44.824 100.026 44.824C100.455 44.824 100.838 44.726 101.174 44.53C101.519 44.334 101.766 44.0447 101.916 43.662L102.21 44.712C102.042 45.1507 101.738 45.4913 101.3 45.734C100.87 45.9767 100.324 46.098 99.6618 46.098ZM105.912 46V35.612H107.662V46H105.912Z" fill="black"/>
<path d="M-0.000234375 70L3.16977 63H4.15977L7.33977 70H6.28977L3.45977 63.56H3.85977L1.02977 70H-0.000234375ZM1.34977 68.25L1.61977 67.45H5.55977L5.84977 68.25H1.34977ZM10.1152 70.06C9.58182 70.06 9.16849 69.9167 8.87516 69.63C8.58182 69.3433 8.43516 68.9333 8.43516 68.4V63.54H9.39516V68.36C9.39516 68.6467 9.46516 68.8667 9.60516 69.02C9.75182 69.1733 9.95849 69.25 10.2252 69.25C10.5252 69.25 10.7752 69.1667 10.9752 69L11.2752 69.69C11.1285 69.8167 10.9518 69.91 10.7452 69.97C10.5452 70.03 10.3352 70.06 10.1152 70.06ZM7.53516 65.49V64.7H10.9152V65.49H7.53516ZM14.2288 70.06C13.6955 70.06 13.2822 69.9167 12.9888 69.63C12.6955 69.3433 12.5488 68.9333 12.5488 68.4V63.54H13.5088V68.36C13.5088 68.6467 13.5788 68.8667 13.7188 69.02C13.8655 69.1733 14.0722 69.25 14.3388 69.25C14.6388 69.25 14.8888 69.1667 15.0888 69L15.3888 69.69C15.2422 69.8167 15.0655 69.91 14.8588 69.97C14.6588 70.03 14.4488 70.06 14.2288 70.06ZM11.6488 65.49V64.7H15.0288V65.49H11.6488ZM16.6495 70V64.7H17.5695V66.14L17.4795 65.78C17.6261 65.4133 17.8728 65.1333 18.2195 64.94C18.5661 64.7467 18.9928 64.65 19.4995 64.65V65.58C19.4595 65.5733 19.4195 65.57 19.3795 65.57C19.3461 65.57 19.3128 65.57 19.2795 65.57C18.7661 65.57 18.3595 65.7233 18.0595 66.03C17.7595 66.3367 17.6095 66.78 17.6095 67.36V70H16.6495ZM23.682 70V68.88L23.632 68.67V66.76C23.632 66.3533 23.512 66.04 23.272 65.82C23.0387 65.5933 22.6854 65.48 22.212 65.48C21.8987 65.48 21.592 65.5333 21.292 65.64C20.992 65.74 20.7387 65.8767 20.532 66.05L20.132 65.33C20.4054 65.11 20.732 64.9433 21.112 64.83C21.4987 64.71 21.902 64.65 22.322 64.65C23.0487 64.65 23.6087 64.8267 24.002 65.18C24.3954 65.5333 24.592 66.0733 24.592 66.8V70H23.682ZM21.942 70.06C21.5487 70.06 21.202 69.9933 20.902 69.86C20.6087 69.7267 20.382 69.5433 20.222 69.31C20.062 69.07 19.982 68.8 19.982 68.5C19.982 68.2133 20.0487 67.9533 20.182 67.72C20.322 67.4867 20.5454 67.3 20.852 67.16C21.1654 67.02 21.5854 66.95 22.112 66.95H23.792V67.64H22.152C21.672 67.64 21.3487 67.72 21.182 67.88C21.0154 68.04 20.932 68.2333 20.932 68.46C20.932 68.72 21.0354 68.93 21.242 69.09C21.4487 69.2433 21.7354 69.32 22.102 69.32C22.462 69.32 22.7754 69.24 23.042 69.08C23.3154 68.92 23.512 68.6867 23.632 68.38L23.822 69.04C23.6954 69.3533 23.472 69.6033 23.152 69.79C22.832 69.97 22.4287 70.06 21.942 70.06ZM28.7786 70.06C28.2386 70.06 27.7553 69.9433 27.3286 69.71C26.9086 69.4767 26.5786 69.1567 26.3386 68.75C26.0986 68.3433 25.9786 67.8767 25.9786 67.35C25.9786 66.8233 26.0986 66.3567 26.3386 65.95C26.5786 65.5433 26.9086 65.2267 27.3286 65C27.7553 64.7667 28.2386 64.65 28.7786 64.65C29.2586 64.65 29.6853 64.7467 30.0586 64.94C30.4386 65.1267 30.7319 65.4067 30.9386 65.78L30.2086 66.25C30.0353 65.99 29.8219 65.8 29.5686 65.68C29.3219 65.5533 29.0553 65.49 28.7686 65.49C28.4219 65.49 28.1119 65.5667 27.8386 65.72C27.5653 65.8733 27.3486 66.09 27.1886 66.37C27.0286 66.6433 26.9486 66.97 26.9486 67.35C26.9486 67.73 27.0286 68.06 27.1886 68.34C27.3486 68.62 27.5653 68.8367 27.8386 68.99C28.1119 69.1433 28.4219 69.22 28.7686 69.22C29.0553 69.22 29.3219 69.16 29.5686 69.04C29.8219 68.9133 30.0353 68.72 30.2086 68.46L30.9386 68.92C30.7319 69.2867 30.4386 69.57 30.0586 69.77C29.6853 69.9633 29.2586 70.06 28.7786 70.06ZM34.1698 70.06C33.6365 70.06 33.2232 69.9167 32.9298 69.63C32.6365 69.3433 32.4898 68.9333 32.4898 68.4V63.54H33.4498V68.36C33.4498 68.6467 33.5198 68.8667 33.6598 69.02C33.8065 69.1733 34.0132 69.25 34.2798 69.25C34.5798 69.25 34.8298 69.1667 35.0298 69L35.3298 69.69C35.1832 69.8167 35.0065 69.91 34.7998 69.97C34.5998 70.03 34.3898 70.06 34.1698 70.06ZM31.5898 65.49V64.7H34.9698V65.49H31.5898ZM36.5905 70V64.7H37.5505V70H36.5905ZM37.0705 63.68C36.8838 63.68 36.7271 63.62 36.6005 63.5C36.4805 63.38 36.4205 63.2333 36.4205 63.06C36.4205 62.88 36.4805 62.73 36.6005 62.61C36.7271 62.49 36.8838 62.43 37.0705 62.43C37.2571 62.43 37.4105 62.49 37.5305 62.61C37.6571 62.7233 37.7205 62.8667 37.7205 63.04C37.7205 63.22 37.6605 63.3733 37.5405 63.5C37.4205 63.62 37.2638 63.68 37.0705 63.68ZM40.8734 70L38.5534 64.7H39.5534L41.6134 69.5H41.1334L43.2334 64.7H44.1734L41.8534 70H40.8734ZM47.3829 70.06C46.8162 70.06 46.3162 69.9433 45.8829 69.71C45.4562 69.4767 45.1229 69.1567 44.8829 68.75C44.6496 68.3433 44.5329 67.8767 44.5329 67.35C44.5329 66.8233 44.6462 66.3567 44.8729 65.95C45.1062 65.5433 45.4229 65.2267 45.8229 65C46.2296 64.7667 46.6862 64.65 47.1929 64.65C47.7062 64.65 48.1596 64.7633 48.5529 64.99C48.9462 65.2167 49.2529 65.5367 49.4729 65.95C49.6996 66.3567 49.8129 66.8333 49.8129 67.38C49.8129 67.42 49.8096 67.4667 49.8029 67.52C49.8029 67.5733 49.7996 67.6233 49.7929 67.67H45.2829V66.98H49.2929L48.9029 67.22C48.9096 66.88 48.8396 66.5767 48.6929 66.31C48.5462 66.0433 48.3429 65.8367 48.0829 65.69C47.8296 65.5367 47.5329 65.46 47.1929 65.46C46.8596 65.46 46.5629 65.5367 46.3029 65.69C46.0429 65.8367 45.8396 66.0467 45.6929 66.32C45.5462 66.5867 45.4729 66.8933 45.4729 67.24V67.4C45.4729 67.7533 45.5529 68.07 45.7129 68.35C45.8796 68.6233 46.1096 68.8367 46.4029 68.99C46.6962 69.1433 47.0329 69.22 47.4129 69.22C47.7262 69.22 48.0096 69.1667 48.2629 69.06C48.5229 68.9533 48.7496 68.7933 48.9429 68.58L49.4729 69.2C49.2329 69.48 48.9329 69.6933 48.5729 69.84C48.2196 69.9867 47.8229 70.06 47.3829 70.06ZM54.1715 70V63H55.1715V70H54.1715ZM57.3672 70V63H58.1872L61.3272 68.29H60.8872L63.9872 63H64.8072L64.8172 70H63.8572L63.8472 64.51H64.0772L61.3172 69.15H60.8572L58.0772 64.51H58.3272V70H57.3672ZM67.018 70V63H68.018V69.13H71.808V70H67.018ZM77.971 70.06C77.4377 70.06 76.9643 69.9433 76.551 69.71C76.1377 69.4767 75.811 69.1567 75.571 68.75C75.331 68.3367 75.211 67.87 75.211 67.35C75.211 66.8233 75.331 66.3567 75.571 65.95C75.811 65.5433 76.1377 65.2267 76.551 65C76.9643 64.7667 77.4377 64.65 77.971 64.65C78.4977 64.65 78.9677 64.7667 79.381 65C79.801 65.2267 80.1277 65.5433 80.361 65.95C80.601 66.35 80.721 66.8167 80.721 67.35C80.721 67.8767 80.601 68.3433 80.361 68.75C80.1277 69.1567 79.801 69.4767 79.381 69.71C78.9677 69.9433 78.4977 70.06 77.971 70.06ZM77.971 69.22C78.311 69.22 78.6143 69.1433 78.881 68.99C79.1543 68.8367 79.3677 68.62 79.521 68.34C79.6743 68.0533 79.751 67.7233 79.751 67.35C79.751 66.97 79.6743 66.6433 79.521 66.37C79.3677 66.09 79.1543 65.8733 78.881 65.72C78.6143 65.5667 78.311 65.49 77.971 65.49C77.631 65.49 77.3277 65.5667 77.061 65.72C76.7943 65.8733 76.581 66.09 76.421 66.37C76.261 66.6433 76.181 66.97 76.181 67.35C76.181 67.7233 76.261 68.0533 76.421 68.34C76.581 68.62 76.7943 68.8367 77.061 68.99C77.3277 69.1433 77.631 69.22 77.971 69.22ZM83.3922 70L81.0722 64.7H82.0722L84.1322 69.5H83.6522L85.7522 64.7H86.6922L84.3722 70H83.3922ZM90.8121 70V68.88L90.7621 68.67V66.76C90.7621 66.3533 90.6421 66.04 90.4021 65.82C90.1688 65.5933 89.8154 65.48 89.3421 65.48C89.0288 65.48 88.7221 65.5333 88.4221 65.64C88.1221 65.74 87.8688 65.8767 87.6621 66.05L87.2621 65.33C87.5354 65.11 87.8621 64.9433 88.2421 64.83C88.6288 64.71 89.0321 64.65 89.4521 64.65C90.1788 64.65 90.7388 64.8267 91.1321 65.18C91.5254 65.5333 91.7221 66.0733 91.7221 66.8V70H90.8121ZM89.0721 70.06C88.6788 70.06 88.3321 69.9933 88.0321 69.86C87.7388 69.7267 87.5121 69.5433 87.3521 69.31C87.1921 69.07 87.1121 68.8 87.1121 68.5C87.1121 68.2133 87.1788 67.9533 87.3121 67.72C87.4521 67.4867 87.6754 67.3 87.9821 67.16C88.2954 67.02 88.7154 66.95 89.2421 66.95H90.9221V67.64H89.2821C88.8021 67.64 88.4788 67.72 88.3121 67.88C88.1454 68.04 88.0621 68.2333 88.0621 68.46C88.0621 68.72 88.1654 68.93 88.3721 69.09C88.5788 69.2433 88.8654 69.32 89.2321 69.32C89.5921 69.32 89.9054 69.24 90.1721 69.08C90.4454 68.92 90.6421 68.6867 90.7621 68.38L90.9521 69.04C90.8254 69.3533 90.6021 69.6033 90.2821 69.79C89.9621 69.97 89.5588 70.06 89.0721 70.06ZM93.5987 70V62.58H94.5587V70H93.5987ZM101.097 70.06C100.564 70.06 100.151 69.9167 99.8572 69.63C99.5639 69.3433 99.4172 68.9333 99.4172 68.4V63.54H100.377V68.36C100.377 68.6467 100.447 68.8667 100.587 69.02C100.734 69.1733 100.941 69.25 101.207 69.25C101.507 69.25 101.757 69.1667 101.957 69L102.257 69.69C102.111 69.8167 101.934 69.91 101.727 69.97C101.527 70.03 101.317 70.06 101.097 70.06ZM98.5172 65.49V64.7H101.897V65.49H98.5172ZM105.748 70.06C105.294 70.06 104.894 69.9767 104.548 69.81C104.208 69.6433 103.941 69.39 103.748 69.05C103.561 68.7033 103.468 68.27 103.468 67.75V64.7H104.428V67.64C104.428 68.16 104.551 68.55 104.798 68.81C105.051 69.07 105.404 69.2 105.858 69.2C106.191 69.2 106.481 69.1333 106.728 69C106.974 68.86 107.164 68.66 107.298 68.4C107.431 68.1333 107.498 67.8133 107.498 67.44V64.7H108.458V70H107.548V68.57L107.698 68.95C107.524 69.3033 107.264 69.5767 106.918 69.77C106.571 69.9633 106.181 70.06 105.748 70.06ZM113.195 70.06C112.742 70.06 112.332 69.96 111.965 69.76C111.605 69.5533 111.319 69.25 111.105 68.85C110.899 68.45 110.795 67.95 110.795 67.35C110.795 66.75 110.902 66.25 111.115 65.85C111.335 65.45 111.625 65.15 111.985 64.95C112.352 64.75 112.755 64.65 113.195 64.65C113.715 64.65 114.175 64.7633 114.575 64.99C114.975 65.2167 115.292 65.5333 115.525 65.94C115.759 66.34 115.875 66.81 115.875 67.35C115.875 67.89 115.759 68.3633 115.525 68.77C115.292 69.1767 114.975 69.4933 114.575 69.72C114.175 69.9467 113.715 70.06 113.195 70.06ZM110.385 70V62.58H111.345V66.11L111.245 67.34L111.305 68.57V70H110.385ZM113.115 69.22C113.455 69.22 113.759 69.1433 114.025 68.99C114.299 68.8367 114.512 68.62 114.665 68.34C114.825 68.0533 114.905 67.7233 114.905 67.35C114.905 66.97 114.825 66.6433 114.665 66.37C114.512 66.09 114.299 65.8733 114.025 65.72C113.759 65.5667 113.455 65.49 113.115 65.49C112.782 65.49 112.479 65.5667 112.205 65.72C111.939 65.8733 111.725 66.09 111.565 66.37C111.412 66.6433 111.335 66.97 111.335 67.35C111.335 67.7233 111.412 68.0533 111.565 68.34C111.725 68.62 111.939 68.8367 112.205 68.99C112.479 69.1433 112.782 69.22 113.115 69.22ZM118.822 70.06C118.382 70.06 117.962 70 117.562 69.88C117.168 69.76 116.858 69.6133 116.632 69.44L117.032 68.68C117.258 68.8333 117.538 68.9633 117.872 69.07C118.205 69.1767 118.545 69.23 118.892 69.23C119.338 69.23 119.658 69.1667 119.852 69.04C120.052 68.9133 120.152 68.7367 120.152 68.51C120.152 68.3433 120.092 68.2133 119.972 68.12C119.852 68.0267 119.692 67.9567 119.492 67.91C119.298 67.8633 119.082 67.8233 118.842 67.79C118.602 67.75 118.362 67.7033 118.122 67.65C117.882 67.59 117.662 67.51 117.462 67.41C117.262 67.3033 117.102 67.16 116.982 66.98C116.862 66.7933 116.802 66.5467 116.802 66.24C116.802 65.92 116.892 65.64 117.072 65.4C117.252 65.16 117.505 64.9767 117.832 64.85C118.165 64.7167 118.558 64.65 119.012 64.65C119.358 64.65 119.708 64.6933 120.062 64.78C120.422 64.86 120.715 64.9767 120.942 65.13L120.532 65.89C120.292 65.73 120.042 65.62 119.782 65.56C119.522 65.5 119.262 65.47 119.002 65.47C118.582 65.47 118.268 65.54 118.062 65.68C117.855 65.8133 117.752 65.9867 117.752 66.2C117.752 66.38 117.812 66.52 117.932 66.62C118.058 66.7133 118.218 66.7867 118.412 66.84C118.612 66.8933 118.832 66.94 119.072 66.98C119.312 67.0133 119.552 67.06 119.792 67.12C120.032 67.1733 120.248 67.25 120.442 67.35C120.642 67.45 120.802 67.59 120.922 67.77C121.048 67.95 121.112 68.19 121.112 68.49C121.112 68.81 121.018 69.0867 120.832 69.32C120.645 69.5533 120.382 69.7367 120.042 69.87C119.702 69.9967 119.295 70.06 118.822 70.06ZM127.017 70.06C126.484 70.06 126.07 69.9167 125.777 69.63C125.484 69.3433 125.337 68.9333 125.337 68.4V63.54H126.297V68.36C126.297 68.6467 126.367 68.8667 126.507 69.02C126.654 69.1733 126.86 69.25 127.127 69.25C127.427 69.25 127.677 69.1667 127.877 69L128.177 69.69C128.03 69.8167 127.854 69.91 127.647 69.97C127.447 70.03 127.237 70.06 127.017 70.06ZM124.437 65.49V64.7H127.817V65.49H124.437ZM132.268 64.65C132.701 64.65 133.081 64.7333 133.408 64.9C133.741 65.0667 134.001 65.32 134.188 65.66C134.374 66 134.468 66.43 134.468 66.95V70H133.508V67.06C133.508 66.5467 133.381 66.16 133.128 65.9C132.881 65.64 132.531 65.51 132.078 65.51C131.738 65.51 131.441 65.5767 131.188 65.71C130.934 65.8433 130.738 66.04 130.598 66.3C130.464 66.56 130.398 66.8833 130.398 67.27V70H129.438V62.58H130.398V66.13L130.208 65.75C130.381 65.4033 130.648 65.1333 131.008 64.94C131.368 64.7467 131.788 64.65 132.268 64.65ZM139.634 70V68.88L139.584 68.67V66.76C139.584 66.3533 139.464 66.04 139.224 65.82C138.991 65.5933 138.638 65.48 138.164 65.48C137.851 65.48 137.544 65.5333 137.244 65.64C136.944 65.74 136.691 65.8767 136.484 66.05L136.084 65.33C136.358 65.11 136.684 64.9433 137.064 64.83C137.451 64.71 137.854 64.65 138.274 64.65C139.001 64.65 139.561 64.8267 139.954 65.18C140.348 65.5333 140.544 66.0733 140.544 66.8V70H139.634ZM137.894 70.06C137.501 70.06 137.154 69.9933 136.854 69.86C136.561 69.7267 136.334 69.5433 136.174 69.31C136.014 69.07 135.934 68.8 135.934 68.5C135.934 68.2133 136.001 67.9533 136.134 67.72C136.274 67.4867 136.498 67.3 136.804 67.16C137.118 67.02 137.538 66.95 138.064 66.95H139.744V67.64H138.104C137.624 67.64 137.301 67.72 137.134 67.88C136.968 68.04 136.884 68.2333 136.884 68.46C136.884 68.72 136.988 68.93 137.194 69.09C137.401 69.2433 137.688 69.32 138.054 69.32C138.414 69.32 138.728 69.24 138.994 69.08C139.268 68.92 139.464 68.6867 139.584 68.38L139.774 69.04C139.648 69.3533 139.424 69.6033 139.104 69.79C138.784 69.97 138.381 70.06 137.894 70.06ZM144.241 70.06C143.708 70.06 143.294 69.9167 143.001 69.63C142.708 69.3433 142.561 68.9333 142.561 68.4V63.54H143.521V68.36C143.521 68.6467 143.591 68.8667 143.731 69.02C143.878 69.1733 144.084 69.25 144.351 69.25C144.651 69.25 144.901 69.1667 145.101 69L145.401 69.69C145.254 69.8167 145.078 69.91 144.871 69.97C144.671 70.03 144.461 70.06 144.241 70.06ZM141.661 65.49V64.7H145.041V65.49H141.661ZM0.919766 84V76.58H1.87977V84H0.919766ZM6.08273 84.06C5.5494 84.06 5.07607 83.9433 4.66273 83.71C4.2494 83.4767 3.92273 83.1567 3.68273 82.75C3.44273 82.3367 3.32273 81.87 3.32273 81.35C3.32273 80.8233 3.44273 80.3567 3.68273 79.95C3.92273 79.5433 4.2494 79.2267 4.66273 79C5.07607 78.7667 5.5494 78.65 6.08273 78.65C6.6094 78.65 7.0794 78.7667 7.49273 79C7.91273 79.2267 8.2394 79.5433 8.47273 79.95C8.71273 80.35 8.83273 80.8167 8.83273 81.35C8.83273 81.8767 8.71273 82.3433 8.47273 82.75C8.2394 83.1567 7.91273 83.4767 7.49273 83.71C7.0794 83.9433 6.6094 84.06 6.08273 84.06ZM6.08273 83.22C6.42273 83.22 6.72607 83.1433 6.99273 82.99C7.26607 82.8367 7.4794 82.62 7.63273 82.34C7.78607 82.0533 7.86273 81.7233 7.86273 81.35C7.86273 80.97 7.78607 80.6433 7.63273 80.37C7.4794 80.09 7.26607 79.8733 6.99273 79.72C6.72607 79.5667 6.42273 79.49 6.08273 79.49C5.74273 79.49 5.4394 79.5667 5.17273 79.72C4.90607 79.8733 4.69273 80.09 4.53273 80.37C4.37273 80.6433 4.29273 80.97 4.29273 81.35C4.29273 81.7233 4.37273 82.0533 4.53273 82.34C4.69273 82.62 4.90607 82.8367 5.17273 82.99C5.4394 83.1433 5.74273 83.22 6.08273 83.22ZM12.5704 84.06C12.0304 84.06 11.5471 83.9433 11.1204 83.71C10.7004 83.4767 10.3704 83.1567 10.1304 82.75C9.89039 82.3433 9.77039 81.8767 9.77039 81.35C9.77039 80.8233 9.89039 80.3567 10.1304 79.95C10.3704 79.5433 10.7004 79.2267 11.1204 79C11.5471 78.7667 12.0304 78.65 12.5704 78.65C13.0504 78.65 13.4771 78.7467 13.8504 78.94C14.2304 79.1267 14.5237 79.4067 14.7304 79.78L14.0004 80.25C13.8271 79.99 13.6137 79.8 13.3604 79.68C13.1137 79.5533 12.8471 79.49 12.5604 79.49C12.2137 79.49 11.9037 79.5667 11.6304 79.72C11.3571 79.8733 11.1404 80.09 10.9804 80.37C10.8204 80.6433 10.7404 80.97 10.7404 81.35C10.7404 81.73 10.8204 82.06 10.9804 82.34C11.1404 82.62 11.3571 82.8367 11.6304 82.99C11.9037 83.1433 12.2137 83.22 12.5604 83.22C12.8471 83.22 13.1137 83.16 13.3604 83.04C13.6137 82.9133 13.8271 82.72 14.0004 82.46L14.7304 82.92C14.5237 83.2867 14.2304 83.57 13.8504 83.77C13.4771 83.9633 13.0504 84.06 12.5704 84.06ZM16.7849 82.72L16.8049 81.49L19.8549 78.7H21.0149L18.6749 81L18.1549 81.44L16.7849 82.72ZM16.0049 84V76.58H16.9649V84H16.0049ZM20.0549 84L17.9749 81.42L18.5949 80.65L21.2349 84H20.0549ZM25.0526 84V78.7H26.0126V84H25.0526ZM25.5326 77.68C25.3459 77.68 25.1892 77.62 25.0626 77.5C24.9426 77.38 24.8826 77.2333 24.8826 77.06C24.8826 76.88 24.9426 76.73 25.0626 76.61C25.1892 76.49 25.3459 76.43 25.5326 76.43C25.7192 76.43 25.8726 76.49 25.9926 76.61C26.1192 76.7233 26.1826 76.8667 26.1826 77.04C26.1826 77.22 26.1226 77.3733 26.0026 77.5C25.8826 77.62 25.7259 77.68 25.5326 77.68ZM30.7755 78.65C31.2089 78.65 31.5889 78.7333 31.9155 78.9C32.2489 79.0667 32.5089 79.32 32.6955 79.66C32.8822 80 32.9755 80.43 32.9755 80.95V84H32.0155V81.06C32.0155 80.5467 31.8889 80.16 31.6355 79.9C31.3889 79.64 31.0389 79.51 30.5855 79.51C30.2455 79.51 29.9489 79.5767 29.6955 79.71C29.4422 79.8433 29.2455 80.04 29.1055 80.3C28.9722 80.56 28.9055 80.8833 28.9055 81.27V84H27.9455V78.7H28.8655V80.13L28.7155 79.75C28.8889 79.4033 29.1555 79.1333 29.5155 78.94C29.8755 78.7467 30.2955 78.65 30.7755 78.65ZM37.7777 84V78.23C37.7777 77.71 37.9277 77.2967 38.2277 76.99C38.5344 76.6767 38.9677 76.52 39.5277 76.52C39.7344 76.52 39.9311 76.5467 40.1177 76.6C40.3111 76.6467 40.4744 76.7233 40.6077 76.83L40.3177 77.56C40.2177 77.48 40.1044 77.42 39.9777 77.38C39.8511 77.3333 39.7177 77.31 39.5777 77.31C39.2977 77.31 39.0844 77.39 38.9377 77.55C38.7911 77.7033 38.7177 77.9333 38.7177 78.24V78.95L38.7377 79.39V84H37.7777ZM36.8777 79.49V78.7H40.2577V79.49H36.8777ZM41.2631 84V78.7H42.1831V80.14L42.0931 79.78C42.2398 79.4133 42.4865 79.1333 42.8331 78.94C43.1798 78.7467 43.6065 78.65 44.1131 78.65V79.58C44.0731 79.5733 44.0331 79.57 43.9931 79.57C43.9598 79.57 43.9265 79.57 43.8931 79.57C43.3798 79.57 42.9731 79.7233 42.6731 80.03C42.3731 80.3367 42.2231 80.78 42.2231 81.36V84H41.2631ZM47.7075 84.06C47.1408 84.06 46.6408 83.9433 46.2075 83.71C45.7808 83.4767 45.4475 83.1567 45.2075 82.75C44.9742 82.3433 44.8575 81.8767 44.8575 81.35C44.8575 80.8233 44.9708 80.3567 45.1975 79.95C45.4308 79.5433 45.7475 79.2267 46.1475 79C46.5542 78.7667 47.0108 78.65 47.5175 78.65C48.0308 78.65 48.4842 78.7633 48.8775 78.99C49.2708 79.2167 49.5775 79.5367 49.7975 79.95C50.0242 80.3567 50.1375 80.8333 50.1375 81.38C50.1375 81.42 50.1342 81.4667 50.1275 81.52C50.1275 81.5733 50.1242 81.6233 50.1175 81.67H45.6075V80.98H49.6175L49.2275 81.22C49.2342 80.88 49.1642 80.5767 49.0175 80.31C48.8708 80.0433 48.6675 79.8367 48.4075 79.69C48.1542 79.5367 47.8575 79.46 47.5175 79.46C47.1842 79.46 46.8875 79.5367 46.6275 79.69C46.3675 79.8367 46.1642 80.0467 46.0175 80.32C45.8708 80.5867 45.7975 80.8933 45.7975 81.24V81.4C45.7975 81.7533 45.8775 82.07 46.0375 82.35C46.2042 82.6233 46.4342 82.8367 46.7275 82.99C47.0208 83.1433 47.3575 83.22 47.7375 83.22C48.0508 83.22 48.3342 83.1667 48.5875 83.06C48.8475 82.9533 49.0742 82.7933 49.2675 82.58L49.7975 83.2C49.5575 83.48 49.2575 83.6933 48.8975 83.84C48.5442 83.9867 48.1475 84.06 47.7075 84.06ZM53.0905 84.06C52.6505 84.06 52.2305 84 51.8305 83.88C51.4372 83.76 51.1272 83.6133 50.9005 83.44L51.3005 82.68C51.5272 82.8333 51.8072 82.9633 52.1405 83.07C52.4739 83.1767 52.8139 83.23 53.1605 83.23C53.6072 83.23 53.9272 83.1667 54.1205 83.04C54.3205 82.9133 54.4205 82.7367 54.4205 82.51C54.4205 82.3433 54.3605 82.2133 54.2405 82.12C54.1205 82.0267 53.9605 81.9567 53.7605 81.91C53.5672 81.8633 53.3505 81.8233 53.1105 81.79C52.8705 81.75 52.6305 81.7033 52.3905 81.65C52.1505 81.59 51.9305 81.51 51.7305 81.41C51.5305 81.3033 51.3705 81.16 51.2505 80.98C51.1305 80.7933 51.0705 80.5467 51.0705 80.24C51.0705 79.92 51.1605 79.64 51.3405 79.4C51.5205 79.16 51.7739 78.9767 52.1005 78.85C52.4339 78.7167 52.8272 78.65 53.2805 78.65C53.6272 78.65 53.9772 78.6933 54.3305 78.78C54.6905 78.86 54.9839 78.9767 55.2105 79.13L54.8005 79.89C54.5605 79.73 54.3105 79.62 54.0505 79.56C53.7905 79.5 53.5305 79.47 53.2705 79.47C52.8505 79.47 52.5372 79.54 52.3305 79.68C52.1239 79.8133 52.0205 79.9867 52.0205 80.2C52.0205 80.38 52.0805 80.52 52.2005 80.62C52.3272 80.7133 52.4872 80.7867 52.6805 80.84C52.8805 80.8933 53.1005 80.94 53.3405 80.98C53.5805 81.0133 53.8205 81.06 54.0605 81.12C54.3005 81.1733 54.5172 81.25 54.7105 81.35C54.9105 81.45 55.0705 81.59 55.1905 81.77C55.3172 81.95 55.3805 82.19 55.3805 82.49C55.3805 82.81 55.2872 83.0867 55.1005 83.32C54.9139 83.5533 54.6505 83.7367 54.3105 83.87C53.9705 83.9967 53.5639 84.06 53.0905 84.06ZM59.5103 78.65C59.9436 78.65 60.3236 78.7333 60.6503 78.9C60.9836 79.0667 61.2436 79.32 61.4303 79.66C61.617 80 61.7103 80.43 61.7103 80.95V84H60.7503V81.06C60.7503 80.5467 60.6236 80.16 60.3703 79.9C60.1236 79.64 59.7736 79.51 59.3203 79.51C58.9803 79.51 58.6836 79.5767 58.4303 79.71C58.177 79.8433 57.9803 80.04 57.8403 80.3C57.707 80.56 57.6403 80.8833 57.6403 81.27V84H56.6803V76.58H57.6403V80.13L57.4503 79.75C57.6236 79.4033 57.8903 79.1333 58.2503 78.94C58.6103 78.7467 59.0303 78.65 59.5103 78.65ZM66.417 78.65C66.8503 78.65 67.2303 78.7333 67.557 78.9C67.8903 79.0667 68.1503 79.32 68.337 79.66C68.5236 80 68.617 80.43 68.617 80.95V84H67.657V81.06C67.657 80.5467 67.5303 80.16 67.277 79.9C67.0303 79.64 66.6803 79.51 66.227 79.51C65.887 79.51 65.5903 79.5767 65.337 79.71C65.0836 79.8433 64.887 80.04 64.747 80.3C64.6136 80.56 64.547 80.8833 64.547 81.27V84H63.587V78.7H64.507V80.13L64.357 79.75C64.5303 79.4033 64.797 79.1333 65.157 78.94C65.517 78.7467 65.937 78.65 66.417 78.65ZM72.8536 84.06C72.2869 84.06 71.7869 83.9433 71.3536 83.71C70.9269 83.4767 70.5936 83.1567 70.3536 82.75C70.1203 82.3433 70.0036 81.8767 70.0036 81.35C70.0036 80.8233 70.1169 80.3567 70.3436 79.95C70.5769 79.5433 70.8936 79.2267 71.2936 79C71.7003 78.7667 72.1569 78.65 72.6636 78.65C73.1769 78.65 73.6303 78.7633 74.0236 78.99C74.4169 79.2167 74.7236 79.5367 74.9436 79.95C75.1703 80.3567 75.2836 80.8333 75.2836 81.38C75.2836 81.42 75.2803 81.4667 75.2736 81.52C75.2736 81.5733 75.2703 81.6233 75.2636 81.67H70.7536V80.98H74.7636L74.3736 81.22C74.3803 80.88 74.3103 80.5767 74.1636 80.31C74.0169 80.0433 73.8136 79.8367 73.5536 79.69C73.3003 79.5367 73.0036 79.46 72.6636 79.46C72.3303 79.46 72.0336 79.5367 71.7736 79.69C71.5136 79.8367 71.3103 80.0467 71.1636 80.32C71.0169 80.5867 70.9436 80.8933 70.9436 81.24V81.4C70.9436 81.7533 71.0236 82.07 71.1836 82.35C71.3503 82.6233 71.5803 82.8367 71.8736 82.99C72.1669 83.1433 72.5036 83.22 72.8836 83.22C73.1969 83.22 73.4803 83.1667 73.7336 83.06C73.9936 82.9533 74.2203 82.7933 74.4136 82.58L74.9436 83.2C74.7036 83.48 74.4036 83.6933 74.0436 83.84C73.6903 83.9867 73.2936 84.06 72.8536 84.06ZM78.2366 84.06C77.7966 84.06 77.3766 84 76.9766 83.88C76.5833 83.76 76.2733 83.6133 76.0466 83.44L76.4466 82.68C76.6733 82.8333 76.9533 82.9633 77.2866 83.07C77.62 83.1767 77.96 83.23 78.3066 83.23C78.7533 83.23 79.0733 83.1667 79.2666 83.04C79.4666 82.9133 79.5666 82.7367 79.5666 82.51C79.5666 82.3433 79.5066 82.2133 79.3866 82.12C79.2666 82.0267 79.1066 81.9567 78.9066 81.91C78.7133 81.8633 78.4966 81.8233 78.2566 81.79C78.0166 81.75 77.7766 81.7033 77.5366 81.65C77.2966 81.59 77.0766 81.51 76.8766 81.41C76.6766 81.3033 76.5166 81.16 76.3966 80.98C76.2766 80.7933 76.2166 80.5467 76.2166 80.24C76.2166 79.92 76.3066 79.64 76.4866 79.4C76.6666 79.16 76.92 78.9767 77.2466 78.85C77.58 78.7167 77.9733 78.65 78.4266 78.65C78.7733 78.65 79.1233 78.6933 79.4766 78.78C79.8366 78.86 80.13 78.9767 80.3566 79.13L79.9466 79.89C79.7066 79.73 79.4566 79.62 79.1966 79.56C78.9366 79.5 78.6766 79.47 78.4166 79.47C77.9966 79.47 77.6833 79.54 77.4766 79.68C77.27 79.8133 77.1666 79.9867 77.1666 80.2C77.1666 80.38 77.2266 80.52 77.3466 80.62C77.4733 80.7133 77.6333 80.7867 77.8266 80.84C78.0266 80.8933 78.2466 80.94 78.4866 80.98C78.7266 81.0133 78.9666 81.06 79.2066 81.12C79.4466 81.1733 79.6633 81.25 79.8566 81.35C80.0566 81.45 80.2166 81.59 80.3366 81.77C80.4633 81.95 80.5266 82.19 80.5266 82.49C80.5266 82.81 80.4333 83.0867 80.2466 83.32C80.06 83.5533 79.7966 83.7367 79.4566 83.87C79.1166 83.9967 78.71 84.06 78.2366 84.06ZM83.3464 84.06C82.9064 84.06 82.4864 84 82.0864 83.88C81.6931 83.76 81.3831 83.6133 81.1564 83.44L81.5564 82.68C81.7831 82.8333 82.0631 82.9633 82.3964 83.07C82.7297 83.1767 83.0697 83.23 83.4164 83.23C83.8631 83.23 84.1831 83.1667 84.3764 83.04C84.5764 82.9133 84.6764 82.7367 84.6764 82.51C84.6764 82.3433 84.6164 82.2133 84.4964 82.12C84.3764 82.0267 84.2164 81.9567 84.0164 81.91C83.8231 81.8633 83.6064 81.8233 83.3664 81.79C83.1264 81.75 82.8864 81.7033 82.6464 81.65C82.4064 81.59 82.1864 81.51 81.9864 81.41C81.7864 81.3033 81.6264 81.16 81.5064 80.98C81.3864 80.7933 81.3264 80.5467 81.3264 80.24C81.3264 79.92 81.4164 79.64 81.5964 79.4C81.7764 79.16 82.0297 78.9767 82.3564 78.85C82.6897 78.7167 83.0831 78.65 83.5364 78.65C83.8831 78.65 84.2331 78.6933 84.5864 78.78C84.9464 78.86 85.2397 78.9767 85.4664 79.13L85.0564 79.89C84.8164 79.73 84.5664 79.62 84.3064 79.56C84.0464 79.5 83.7864 79.47 83.5264 79.47C83.1064 79.47 82.7931 79.54 82.5864 79.68C82.3797 79.8133 82.2764 79.9867 82.2764 80.2C82.2764 80.38 82.3364 80.52 82.4564 80.62C82.5831 80.7133 82.7431 80.7867 82.9364 80.84C83.1364 80.8933 83.3564 80.94 83.5964 80.98C83.8364 81.0133 84.0764 81.06 84.3164 81.12C84.5564 81.1733 84.7731 81.25 84.9664 81.35C85.1664 81.45 85.3264 81.59 85.4464 81.77C85.5731 81.95 85.6364 82.19 85.6364 82.49C85.6364 82.81 85.5431 83.0867 85.3564 83.32C85.1697 83.5533 84.9064 83.7367 84.5664 83.87C84.2264 83.9967 83.8197 84.06 83.3464 84.06ZM87.1662 84.06C86.9795 84.06 86.8195 83.9967 86.6862 83.87C86.5528 83.7367 86.4862 83.57 86.4862 83.37C86.4862 83.17 86.5528 83.0067 86.6862 82.88C86.8195 82.7533 86.9795 82.69 87.1662 82.69C87.3462 82.69 87.4995 82.7533 87.6262 82.88C87.7595 83.0067 87.8262 83.17 87.8262 83.37C87.8262 83.57 87.7595 83.7367 87.6262 83.87C87.4995 83.9967 87.3462 84.06 87.1662 84.06Z" fill="black"/>
</svg>
