<svg width="152" height="84" viewBox="0 0 152 84" fill="none" xmlns="http://www.w3.org/2000/svg">
<path d="M2.36177 20V9.76L3.48177 10.88H0.121766V8.8H4.95377V20H2.36177ZM11.6994 20.192C10.7821 20.192 9.96072 19.968 9.23539 19.52C8.51006 19.0613 7.93939 18.4 7.52339 17.536C7.10739 16.672 6.89939 15.6267 6.89939 14.4C6.89939 13.1733 7.10739 12.128 7.52339 11.264C7.93939 10.4 8.51006 9.744 9.23539 9.296C9.96072 8.83733 10.7821 8.608 11.6994 8.608C12.6274 8.608 13.4487 8.83733 14.1634 9.296C14.8887 9.744 15.4594 10.4 15.8754 11.264C16.2914 12.128 16.4994 13.1733 16.4994 14.4C16.4994 15.6267 16.2914 16.672 15.8754 17.536C15.4594 18.4 14.8887 19.0613 14.1634 19.52C13.4487 19.968 12.6274 20.192 11.6994 20.192ZM11.6994 18C12.1367 18 12.5154 17.8773 12.8354 17.632C13.1661 17.3867 13.4221 16.9973 13.6034 16.464C13.7954 15.9307 13.8914 15.2427 13.8914 14.4C13.8914 13.5573 13.7954 12.8693 13.6034 12.336C13.4221 11.8027 13.1661 11.4133 12.8354 11.168C12.5154 10.9227 12.1367 10.8 11.6994 10.8C11.2727 10.8 10.8941 10.9227 10.5634 11.168C10.2434 11.4133 9.98739 11.8027 9.79539 12.336C9.61406 12.8693 9.52339 13.5573 9.52339 14.4C9.52339 15.2427 9.61406 15.9307 9.79539 16.464C9.98739 16.9973 10.2434 17.3867 10.5634 17.632C10.8941 17.8773 11.2727 18 11.6994 18ZM22.5588 20.192C21.6414 20.192 20.8201 19.968 20.0948 19.52C19.3694 19.0613 18.7988 18.4 18.3828 17.536C17.9668 16.672 17.7588 15.6267 17.7588 14.4C17.7588 13.1733 17.9668 12.128 18.3828 11.264C18.7988 10.4 19.3694 9.744 20.0948 9.296C20.8201 8.83733 21.6414 8.608 22.5588 8.608C23.4868 8.608 24.3081 8.83733 25.0228 9.296C25.7481 9.744 26.3188 10.4 26.7348 11.264C27.1508 12.128 27.3588 13.1733 27.3588 14.4C27.3588 15.6267 27.1508 16.672 26.7348 17.536C26.3188 18.4 25.7481 19.0613 25.0228 19.52C24.3081 19.968 23.4868 20.192 22.5588 20.192ZM22.5588 18C22.9961 18 23.3748 17.8773 23.6948 17.632C24.0254 17.3867 24.2814 16.9973 24.4628 16.464C24.6548 15.9307 24.7508 15.2427 24.7508 14.4C24.7508 13.5573 24.6548 12.8693 24.4628 12.336C24.2814 11.8027 24.0254 11.4133 23.6948 11.168C23.3748 10.9227 22.9961 10.8 22.5588 10.8C22.1321 10.8 21.7534 10.9227 21.4228 11.168C21.1028 11.4133 20.8468 11.8027 20.6548 12.336C20.4734 12.8693 20.3828 13.5573 20.3828 14.4C20.3828 15.2427 20.4734 15.9307 20.6548 16.464C20.8468 16.9973 21.1028 17.3867 21.4228 17.632C21.7534 17.8773 22.1321 18 22.5588 18ZM44.7014 11.264C45.3841 11.264 45.9867 11.4027 46.5094 11.68C47.0427 11.9467 47.4587 12.3627 47.7574 12.928C48.0667 13.4827 48.2214 14.1973 48.2214 15.072V20H45.7254V15.456C45.7254 14.7627 45.5814 14.2507 45.2934 13.92C45.0054 13.5893 44.6001 13.424 44.0774 13.424C43.7147 13.424 43.3894 13.5093 43.1014 13.68C42.8134 13.84 42.5894 14.0853 42.4294 14.416C42.2694 14.7467 42.1894 15.168 42.1894 15.68V20H39.6934V15.456C39.6934 14.7627 39.5494 14.2507 39.2614 13.92C38.9841 13.5893 38.5841 13.424 38.0614 13.424C37.6987 13.424 37.3734 13.5093 37.0854 13.68C36.7974 13.84 36.5734 14.0853 36.4134 14.416C36.2534 14.7467 36.1734 15.168 36.1734 15.68V20H33.6774V11.392H36.0614V13.744L35.6134 13.056C35.9121 12.4693 36.3334 12.0267 36.8774 11.728C37.4321 11.4187 38.0614 11.264 38.7654 11.264C39.5547 11.264 40.2427 11.4667 40.8294 11.872C41.4267 12.2667 41.8214 12.8747 42.0134 13.696L41.1334 13.456C41.4214 12.784 41.8801 12.2507 42.5094 11.856C43.1494 11.4613 43.8801 11.264 44.7014 11.264ZM50.4586 20V8.128H52.9546V20H50.4586ZM59.4824 16.496V14.496H64.0104V16.496H59.4824ZM76.1215 20.192C75.2362 20.192 74.4148 20.048 73.6575 19.76C72.9108 19.472 72.2602 19.0667 71.7055 18.544C71.1615 18.0213 70.7348 17.408 70.4255 16.704C70.1268 16 69.9775 15.232 69.9775 14.4C69.9775 13.568 70.1268 12.8 70.4255 12.096C70.7348 11.392 71.1668 10.7787 71.7215 10.256C72.2762 9.73333 72.9268 9.328 73.6735 9.04C74.4202 8.752 75.2308 8.608 76.1055 8.608C76.9908 8.608 77.8015 8.752 78.5375 9.04C79.2842 9.328 79.9295 9.73333 80.4735 10.256C81.0282 10.7787 81.4602 11.392 81.7695 12.096C82.0788 12.7893 82.2335 13.5573 82.2335 14.4C82.2335 15.232 82.0788 16.0053 81.7695 16.72C81.4602 17.424 81.0282 18.0373 80.4735 18.56C79.9295 19.072 79.2842 19.472 78.5375 19.76C77.8015 20.048 76.9962 20.192 76.1215 20.192ZM76.1055 17.984C76.6068 17.984 77.0655 17.8987 77.4815 17.728C77.9082 17.5573 78.2815 17.312 78.6015 16.992C78.9215 16.672 79.1668 16.2933 79.3375 15.856C79.5188 15.4187 79.6095 14.9333 79.6095 14.4C79.6095 13.8667 79.5188 13.3813 79.3375 12.944C79.1668 12.5067 78.9215 12.128 78.6015 11.808C78.2922 11.488 77.9242 11.2427 77.4975 11.072C77.0708 10.9013 76.6068 10.816 76.1055 10.816C75.6042 10.816 75.1402 10.9013 74.7135 11.072C74.2975 11.2427 73.9295 11.488 73.6095 11.808C73.2895 12.128 73.0388 12.5067 72.8575 12.944C72.6868 13.3813 72.6015 13.8667 72.6015 14.4C72.6015 14.9227 72.6868 15.408 72.8575 15.856C73.0388 16.2933 73.2842 16.672 73.5935 16.992C73.9135 17.312 74.2868 17.5573 74.7135 17.728C75.1402 17.8987 75.6042 17.984 76.1055 17.984ZM87.1821 20L82.3501 8.8H85.1501L89.3741 18.72H87.7261L92.0141 8.8H94.5901L89.7421 20H87.1821ZM93.6783 20L98.6703 8.8H101.23L106.238 20H103.518L99.4223 10.112H100.446L96.3343 20H93.6783ZM96.1743 17.6L96.8623 15.632H102.622L103.326 17.6H96.1743ZM107.4 20V8.8H109.992V17.888H115.608V20H107.4Z" fill="#4A8036"/>
<path d="M1.32577 46V36.2H3.14577V46H1.32577ZM5.79647 46V36.2H7.29447L11.5785 43.354H10.7945L15.0085 36.2H16.5065L16.5205 46H14.7985L14.7845 38.902H15.1485L11.5645 44.88H10.7525L7.11247 38.902H7.53247V46H5.79647ZM19.1676 46V36.2H20.9876V44.46H26.1116V46H19.1676ZM31.4176 46V36.2H32.9156L37.1996 43.354H36.4156L40.6296 36.2H42.1276L42.1416 46H40.4196L40.4056 38.902H40.7696L37.1856 44.88H36.3736L32.7336 38.902H33.1536V46H31.4176ZM49.3807 46.14C48.6153 46.14 47.9107 46.014 47.2667 45.762C46.6227 45.51 46.0627 45.16 45.5867 44.712C45.1107 44.2547 44.742 43.7227 44.4807 43.116C44.2193 42.5 44.0887 41.828 44.0887 41.1C44.0887 40.372 44.2193 39.7047 44.4807 39.098C44.742 38.482 45.1107 37.95 45.5867 37.502C46.0627 37.0447 46.6227 36.69 47.2667 36.438C47.9107 36.186 48.6107 36.06 49.3667 36.06C50.132 36.06 50.832 36.186 51.4667 36.438C52.1107 36.69 52.6707 37.0447 53.1467 37.502C53.6227 37.95 53.9913 38.482 54.2527 39.098C54.514 39.7047 54.6447 40.372 54.6447 41.1C54.6447 41.828 54.514 42.5 54.2527 43.116C53.9913 43.732 53.6227 44.264 53.1467 44.712C52.6707 45.16 52.1107 45.51 51.4667 45.762C50.832 46.014 50.1367 46.14 49.3807 46.14ZM49.3667 44.544C49.8613 44.544 50.3187 44.46 50.7387 44.292C51.1587 44.124 51.5227 43.886 51.8307 43.578C52.1387 43.2607 52.3767 42.8967 52.5447 42.486C52.722 42.066 52.8107 41.604 52.8107 41.1C52.8107 40.596 52.722 40.1387 52.5447 39.728C52.3767 39.308 52.1387 38.944 51.8307 38.636C51.5227 38.3187 51.1587 38.076 50.7387 37.908C50.3187 37.74 49.8613 37.656 49.3667 37.656C48.872 37.656 48.4147 37.74 47.9947 37.908C47.584 38.076 47.22 38.3187 46.9027 38.636C46.5947 38.944 46.352 39.308 46.1747 39.728C46.0067 40.1387 45.9227 40.596 45.9227 41.1C45.9227 41.5947 46.0067 42.052 46.1747 42.472C46.352 42.892 46.5947 43.2607 46.9027 43.578C47.2107 43.886 47.5747 44.124 47.9947 44.292C48.4147 44.46 48.872 44.544 49.3667 44.544ZM61.1658 46.14C60.4005 46.14 59.6958 46.014 59.0518 45.762C58.4078 45.51 57.8478 45.16 57.3718 44.712C56.8958 44.2547 56.5271 43.7227 56.2658 43.116C56.0045 42.5 55.8738 41.828 55.8738 41.1C55.8738 40.372 56.0045 39.7047 56.2658 39.098C56.5271 38.482 56.8958 37.95 57.3718 37.502C57.8478 37.0447 58.4078 36.69 59.0518 36.438C59.6958 36.186 60.3958 36.06 61.1518 36.06C61.9171 36.06 62.6171 36.186 63.2518 36.438C63.8958 36.69 64.4558 37.04 64.9318 37.488C65.4078 37.936 65.7765 38.468 66.0378 39.084C66.2991 39.7 66.4298 40.372 66.4298 41.1C66.4298 41.828 66.2991 42.5 66.0378 43.116C65.7765 43.732 65.4078 44.264 64.9318 44.712C64.4558 45.16 63.8958 45.51 63.2518 45.762C62.6171 46.014 61.9218 46.14 61.1658 46.14ZM64.3578 48.142C64.0125 48.142 63.6765 48.1 63.3498 48.016C63.0325 47.9413 62.7151 47.8107 62.3978 47.624C62.0898 47.4467 61.7678 47.2087 61.4318 46.91C61.0958 46.6207 60.7271 46.2613 60.3258 45.832L62.2578 45.328C62.5191 45.6733 62.7665 45.9487 62.9998 46.154C63.2425 46.3687 63.4758 46.5227 63.6998 46.616C63.9238 46.7093 64.1571 46.756 64.3998 46.756C65.0438 46.756 65.6038 46.4947 66.0798 45.972L66.9198 46.98C66.2665 47.7547 65.4125 48.142 64.3578 48.142ZM61.1518 44.544C61.6465 44.544 62.1038 44.46 62.5238 44.292C62.9438 44.124 63.3078 43.886 63.6158 43.578C63.9238 43.2607 64.1618 42.892 64.3298 42.472C64.5071 42.052 64.5958 41.5947 64.5958 41.1C64.5958 40.596 64.5071 40.1387 64.3298 39.728C64.1618 39.308 63.9238 38.944 63.6158 38.636C63.3078 38.3187 62.9438 38.076 62.5238 37.908C62.1038 37.74 61.6465 37.656 61.1518 37.656C60.6571 37.656 60.1998 37.74 59.7798 37.908C59.3598 38.076 58.9958 38.3187 58.6878 38.636C58.3798 38.944 58.1371 39.308 57.9598 39.728C57.7918 40.1387 57.7078 40.596 57.7078 41.1C57.7078 41.5947 57.7918 42.052 57.9598 42.472C58.1371 42.892 58.3798 43.2607 58.6878 43.578C58.9958 43.886 59.3598 44.124 59.7798 44.292C60.1998 44.46 60.6571 44.544 61.1518 44.544ZM71.6821 42.836V41.38H75.5321V42.836H71.6821ZM82.352 46V36.9L83.15 37.726H80.28V36.2H84.172V46H82.352ZM90.204 46.14C89.4293 46.14 88.7293 45.944 88.104 45.552C87.488 45.16 87.0027 44.5907 86.648 43.844C86.2933 43.088 86.116 42.1733 86.116 41.1C86.116 40.0267 86.2933 39.1167 86.648 38.37C87.0027 37.614 87.488 37.04 88.104 36.648C88.7293 36.256 89.4293 36.06 90.204 36.06C90.988 36.06 91.688 36.256 92.304 36.648C92.92 37.04 93.4053 37.614 93.76 38.37C94.124 39.1167 94.306 40.0267 94.306 41.1C94.306 42.1733 94.124 43.088 93.76 43.844C93.4053 44.5907 92.92 45.16 92.304 45.552C91.688 45.944 90.988 46.14 90.204 46.14ZM90.204 44.558C90.6613 44.558 91.058 44.4367 91.394 44.194C91.73 43.942 91.9913 43.5593 92.178 43.046C92.374 42.5327 92.472 41.884 92.472 41.1C92.472 40.3067 92.374 39.658 92.178 39.154C91.9913 38.6407 91.73 38.2627 91.394 38.02C91.058 37.768 90.6613 37.642 90.204 37.642C89.7653 37.642 89.3733 37.768 89.028 38.02C88.692 38.2627 88.426 38.6407 88.23 39.154C88.0433 39.658 87.95 40.3067 87.95 41.1C87.95 41.884 88.0433 42.5327 88.23 43.046C88.426 43.5593 88.692 43.942 89.028 44.194C89.3733 44.4367 89.7653 44.558 90.204 44.558ZM99.6239 46.14C98.8493 46.14 98.1493 45.944 97.5239 45.552C96.9079 45.16 96.4226 44.5907 96.0679 43.844C95.7133 43.088 95.5359 42.1733 95.5359 41.1C95.5359 40.0267 95.7133 39.1167 96.0679 38.37C96.4226 37.614 96.9079 37.04 97.5239 36.648C98.1493 36.256 98.8493 36.06 99.6239 36.06C100.408 36.06 101.108 36.256 101.724 36.648C102.34 37.04 102.825 37.614 103.18 38.37C103.544 39.1167 103.726 40.0267 103.726 41.1C103.726 42.1733 103.544 43.088 103.18 43.844C102.825 44.5907 102.34 45.16 101.724 45.552C101.108 45.944 100.408 46.14 99.6239 46.14ZM99.6239 44.558C100.081 44.558 100.478 44.4367 100.814 44.194C101.15 43.942 101.411 43.5593 101.598 43.046C101.794 42.5327 101.892 41.884 101.892 41.1C101.892 40.3067 101.794 39.658 101.598 39.154C101.411 38.6407 101.15 38.2627 100.814 38.02C100.478 37.768 100.081 37.642 99.6239 37.642C99.1853 37.642 98.7933 37.768 98.4479 38.02C98.1119 38.2627 97.8459 38.6407 97.6499 39.154C97.4633 39.658 97.3699 40.3067 97.3699 41.1C97.3699 41.884 97.4633 42.5327 97.6499 43.046C97.8459 43.5593 98.1119 43.942 98.4479 44.194C98.7933 44.4367 99.1853 44.558 99.6239 44.558ZM109.044 46.14C108.269 46.14 107.569 45.944 106.944 45.552C106.328 45.16 105.843 44.5907 105.488 43.844C105.133 43.088 104.956 42.1733 104.956 41.1C104.956 40.0267 105.133 39.1167 105.488 38.37C105.843 37.614 106.328 37.04 106.944 36.648C107.569 36.256 108.269 36.06 109.044 36.06C109.828 36.06 110.528 36.256 111.144 36.648C111.76 37.04 112.245 37.614 112.6 38.37C112.964 39.1167 113.146 40.0267 113.146 41.1C113.146 42.1733 112.964 43.088 112.6 43.844C112.245 44.5907 111.76 45.16 111.144 45.552C110.528 45.944 109.828 46.14 109.044 46.14ZM109.044 44.558C109.501 44.558 109.898 44.4367 110.234 44.194C110.57 43.942 110.831 43.5593 111.018 43.046C111.214 42.5327 111.312 41.884 111.312 41.1C111.312 40.3067 111.214 39.658 111.018 39.154C110.831 38.6407 110.57 38.2627 110.234 38.02C109.898 37.768 109.501 37.642 109.044 37.642C108.605 37.642 108.213 37.768 107.868 38.02C107.532 38.2627 107.266 38.6407 107.07 39.154C106.883 39.658 106.79 40.3067 106.79 41.1C106.79 41.884 106.883 42.5327 107.07 43.046C107.266 43.5593 107.532 43.942 107.868 44.194C108.213 44.4367 108.605 44.558 109.044 44.558ZM118.945 46V36.2H122.977C123.845 36.2 124.587 36.34 125.203 36.62C125.828 36.9 126.309 37.3013 126.645 37.824C126.981 38.3467 127.149 38.9673 127.149 39.686C127.149 40.4047 126.981 41.0253 126.645 41.548C126.309 42.0707 125.828 42.472 125.203 42.752C124.587 43.032 123.845 43.172 122.977 43.172H119.953L120.765 42.318V46H118.945ZM120.765 42.514L119.953 41.632H122.893C123.696 41.632 124.298 41.464 124.699 41.128C125.11 40.7827 125.315 40.302 125.315 39.686C125.315 39.0607 125.11 38.58 124.699 38.244C124.298 37.908 123.696 37.74 122.893 37.74H119.953L120.765 36.844V42.514ZM132.201 46.098C131.417 46.098 130.717 45.9347 130.101 45.608C129.494 45.272 129.018 44.8147 128.673 44.236C128.328 43.6573 128.155 42.9993 128.155 42.262C128.155 41.5153 128.328 40.8573 128.673 40.288C129.018 39.7093 129.494 39.2567 130.101 38.93C130.717 38.6033 131.417 38.44 132.201 38.44C132.929 38.44 133.568 38.5893 134.119 38.888C134.679 39.1773 135.104 39.6067 135.393 40.176L134.049 40.96C133.825 40.6053 133.55 40.344 133.223 40.176C132.906 40.008 132.56 39.924 132.187 39.924C131.758 39.924 131.37 40.0173 131.025 40.204C130.68 40.3907 130.409 40.6613 130.213 41.016C130.017 41.3613 129.919 41.7767 129.919 42.262C129.919 42.7473 130.017 43.1673 130.213 43.522C130.409 43.8673 130.68 44.1333 131.025 44.32C131.37 44.5067 131.758 44.6 132.187 44.6C132.56 44.6 132.906 44.516 133.223 44.348C133.55 44.18 133.825 43.9187 134.049 43.564L135.393 44.348C135.104 44.908 134.679 45.342 134.119 45.65C133.568 45.9487 132.929 46.098 132.201 46.098ZM139.216 46.098C138.59 46.098 137.988 46.0187 137.41 45.86C136.84 45.692 136.388 45.4913 136.052 45.258L136.724 43.928C137.06 44.1427 137.461 44.32 137.928 44.46C138.394 44.6 138.861 44.67 139.328 44.67C139.878 44.67 140.275 44.5953 140.518 44.446C140.77 44.2967 140.896 44.096 140.896 43.844C140.896 43.6387 140.812 43.4847 140.644 43.382C140.476 43.27 140.256 43.186 139.986 43.13C139.715 43.074 139.412 43.0227 139.076 42.976C138.749 42.9293 138.418 42.8687 138.082 42.794C137.755 42.71 137.456 42.5933 137.186 42.444C136.915 42.2853 136.696 42.0753 136.528 41.814C136.36 41.5527 136.276 41.2073 136.276 40.778C136.276 40.302 136.411 39.8913 136.682 39.546C136.952 39.1913 137.33 38.9207 137.816 38.734C138.31 38.538 138.894 38.44 139.566 38.44C140.07 38.44 140.578 38.496 141.092 38.608C141.605 38.72 142.03 38.8787 142.366 39.084L141.694 40.414C141.339 40.1993 140.98 40.0547 140.616 39.98C140.261 39.896 139.906 39.854 139.552 39.854C139.02 39.854 138.623 39.9333 138.362 40.092C138.11 40.2507 137.984 40.4513 137.984 40.694C137.984 40.918 138.068 41.086 138.236 41.198C138.404 41.31 138.623 41.3987 138.894 41.464C139.164 41.5293 139.463 41.5853 139.79 41.632C140.126 41.6693 140.457 41.73 140.784 41.814C141.11 41.898 141.409 42.0147 141.68 42.164C141.96 42.304 142.184 42.5047 142.352 42.766C142.52 43.0273 142.604 43.368 142.604 43.788C142.604 44.2547 142.464 44.6607 142.184 45.006C141.913 45.3513 141.526 45.622 141.022 45.818C140.518 46.0047 139.916 46.098 139.216 46.098Z" fill="black"/>
<path d="M-0.000234375 67L3.16977 60H4.15977L7.33977 67H6.28977L3.45977 60.56H3.85977L1.02977 67H-0.000234375ZM1.34977 65.25L1.61977 64.45H5.55977L5.84977 65.25H1.34977ZM10.1152 67.06C9.58182 67.06 9.16849 66.9167 8.87516 66.63C8.58182 66.3433 8.43516 65.9333 8.43516 65.4V60.54H9.39516V65.36C9.39516 65.6467 9.46516 65.8667 9.60516 66.02C9.75182 66.1733 9.95849 66.25 10.2252 66.25C10.5252 66.25 10.7752 66.1667 10.9752 66L11.2752 66.69C11.1285 66.8167 10.9518 66.91 10.7452 66.97C10.5452 67.03 10.3352 67.06 10.1152 67.06ZM7.53516 62.49V61.7H10.9152V62.49H7.53516ZM14.2288 67.06C13.6955 67.06 13.2822 66.9167 12.9888 66.63C12.6955 66.3433 12.5488 65.9333 12.5488 65.4V60.54H13.5088V65.36C13.5088 65.6467 13.5788 65.8667 13.7188 66.02C13.8655 66.1733 14.0722 66.25 14.3388 66.25C14.6388 66.25 14.8888 66.1667 15.0888 66L15.3888 66.69C15.2422 66.8167 15.0655 66.91 14.8588 66.97C14.6588 67.03 14.4488 67.06 14.2288 67.06ZM11.6488 62.49V61.7H15.0288V62.49H11.6488ZM16.6495 67V61.7H17.5695V63.14L17.4795 62.78C17.6261 62.4133 17.8728 62.1333 18.2195 61.94C18.5661 61.7467 18.9928 61.65 19.4995 61.65V62.58C19.4595 62.5733 19.4195 62.57 19.3795 62.57C19.3461 62.57 19.3128 62.57 19.2795 62.57C18.7661 62.57 18.3595 62.7233 18.0595 63.03C17.7595 63.3367 17.6095 63.78 17.6095 64.36V67H16.6495ZM23.682 67V65.88L23.632 65.67V63.76C23.632 63.3533 23.512 63.04 23.272 62.82C23.0387 62.5933 22.6854 62.48 22.212 62.48C21.8987 62.48 21.592 62.5333 21.292 62.64C20.992 62.74 20.7387 62.8767 20.532 63.05L20.132 62.33C20.4054 62.11 20.732 61.9433 21.112 61.83C21.4987 61.71 21.902 61.65 22.322 61.65C23.0487 61.65 23.6087 61.8267 24.002 62.18C24.3954 62.5333 24.592 63.0733 24.592 63.8V67H23.682ZM21.942 67.06C21.5487 67.06 21.202 66.9933 20.902 66.86C20.6087 66.7267 20.382 66.5433 20.222 66.31C20.062 66.07 19.982 65.8 19.982 65.5C19.982 65.2133 20.0487 64.9533 20.182 64.72C20.322 64.4867 20.5454 64.3 20.852 64.16C21.1654 64.02 21.5854 63.95 22.112 63.95H23.792V64.64H22.152C21.672 64.64 21.3487 64.72 21.182 64.88C21.0154 65.04 20.932 65.2333 20.932 65.46C20.932 65.72 21.0354 65.93 21.242 66.09C21.4487 66.2433 21.7354 66.32 22.102 66.32C22.462 66.32 22.7754 66.24 23.042 66.08C23.3154 65.92 23.512 65.6867 23.632 65.38L23.822 66.04C23.6954 66.3533 23.472 66.6033 23.152 66.79C22.832 66.97 22.4287 67.06 21.942 67.06ZM28.7786 67.06C28.2386 67.06 27.7553 66.9433 27.3286 66.71C26.9086 66.4767 26.5786 66.1567 26.3386 65.75C26.0986 65.3433 25.9786 64.8767 25.9786 64.35C25.9786 63.8233 26.0986 63.3567 26.3386 62.95C26.5786 62.5433 26.9086 62.2267 27.3286 62C27.7553 61.7667 28.2386 61.65 28.7786 61.65C29.2586 61.65 29.6853 61.7467 30.0586 61.94C30.4386 62.1267 30.7319 62.4067 30.9386 62.78L30.2086 63.25C30.0353 62.99 29.8219 62.8 29.5686 62.68C29.3219 62.5533 29.0553 62.49 28.7686 62.49C28.4219 62.49 28.1119 62.5667 27.8386 62.72C27.5653 62.8733 27.3486 63.09 27.1886 63.37C27.0286 63.6433 26.9486 63.97 26.9486 64.35C26.9486 64.73 27.0286 65.06 27.1886 65.34C27.3486 65.62 27.5653 65.8367 27.8386 65.99C28.1119 66.1433 28.4219 66.22 28.7686 66.22C29.0553 66.22 29.3219 66.16 29.5686 66.04C29.8219 65.9133 30.0353 65.72 30.2086 65.46L30.9386 65.92C30.7319 66.2867 30.4386 66.57 30.0586 66.77C29.6853 66.9633 29.2586 67.06 28.7786 67.06ZM34.1698 67.06C33.6365 67.06 33.2232 66.9167 32.9298 66.63C32.6365 66.3433 32.4898 65.9333 32.4898 65.4V60.54H33.4498V65.36C33.4498 65.6467 33.5198 65.8667 33.6598 66.02C33.8065 66.1733 34.0132 66.25 34.2798 66.25C34.5798 66.25 34.8298 66.1667 35.0298 66L35.3298 66.69C35.1832 66.8167 35.0065 66.91 34.7998 66.97C34.5998 67.03 34.3898 67.06 34.1698 67.06ZM31.5898 62.49V61.7H34.9698V62.49H31.5898ZM36.5905 67V61.7H37.5505V67H36.5905ZM37.0705 60.68C36.8838 60.68 36.7271 60.62 36.6005 60.5C36.4805 60.38 36.4205 60.2333 36.4205 60.06C36.4205 59.88 36.4805 59.73 36.6005 59.61C36.7271 59.49 36.8838 59.43 37.0705 59.43C37.2571 59.43 37.4105 59.49 37.5305 59.61C37.6571 59.7233 37.7205 59.8667 37.7205 60.04C37.7205 60.22 37.6605 60.3733 37.5405 60.5C37.4205 60.62 37.2638 60.68 37.0705 60.68ZM40.8734 67L38.5534 61.7H39.5534L41.6134 66.5H41.1334L43.2334 61.7H44.1734L41.8534 67H40.8734ZM47.3829 67.06C46.8162 67.06 46.3162 66.9433 45.8829 66.71C45.4562 66.4767 45.1229 66.1567 44.8829 65.75C44.6496 65.3433 44.5329 64.8767 44.5329 64.35C44.5329 63.8233 44.6462 63.3567 44.8729 62.95C45.1062 62.5433 45.4229 62.2267 45.8229 62C46.2296 61.7667 46.6862 61.65 47.1929 61.65C47.7062 61.65 48.1596 61.7633 48.5529 61.99C48.9462 62.2167 49.2529 62.5367 49.4729 62.95C49.6996 63.3567 49.8129 63.8333 49.8129 64.38C49.8129 64.42 49.8096 64.4667 49.8029 64.52C49.8029 64.5733 49.7996 64.6233 49.7929 64.67H45.2829V63.98H49.2929L48.9029 64.22C48.9096 63.88 48.8396 63.5767 48.6929 63.31C48.5462 63.0433 48.3429 62.8367 48.0829 62.69C47.8296 62.5367 47.5329 62.46 47.1929 62.46C46.8596 62.46 46.5629 62.5367 46.3029 62.69C46.0429 62.8367 45.8396 63.0467 45.6929 63.32C45.5462 63.5867 45.4729 63.8933 45.4729 64.24V64.4C45.4729 64.7533 45.5529 65.07 45.7129 65.35C45.8796 65.6233 46.1096 65.8367 46.4029 65.99C46.6962 66.1433 47.0329 66.22 47.4129 66.22C47.7262 66.22 48.0096 66.1667 48.2629 66.06C48.5229 65.9533 48.7496 65.7933 48.9429 65.58L49.4729 66.2C49.2329 66.48 48.9329 66.6933 48.5729 66.84C48.2196 66.9867 47.8229 67.06 47.3829 67.06ZM54.1715 67V60H55.1715V67H54.1715ZM57.3672 67V60H58.1872L61.3272 65.29H60.8872L63.9872 60H64.8072L64.8172 67H63.8572L63.8472 61.51H64.0772L61.3172 66.15H60.8572L58.0772 61.51H58.3272V67H57.3672ZM67.018 67V60H68.018V66.13H71.808V67H67.018ZM77.971 67.06C77.4377 67.06 76.9643 66.9433 76.551 66.71C76.1377 66.4767 75.811 66.1567 75.571 65.75C75.331 65.3367 75.211 64.87 75.211 64.35C75.211 63.8233 75.331 63.3567 75.571 62.95C75.811 62.5433 76.1377 62.2267 76.551 62C76.9643 61.7667 77.4377 61.65 77.971 61.65C78.4977 61.65 78.9677 61.7667 79.381 62C79.801 62.2267 80.1277 62.5433 80.361 62.95C80.601 63.35 80.721 63.8167 80.721 64.35C80.721 64.8767 80.601 65.3433 80.361 65.75C80.1277 66.1567 79.801 66.4767 79.381 66.71C78.9677 66.9433 78.4977 67.06 77.971 67.06ZM77.971 66.22C78.311 66.22 78.6143 66.1433 78.881 65.99C79.1543 65.8367 79.3677 65.62 79.521 65.34C79.6743 65.0533 79.751 64.7233 79.751 64.35C79.751 63.97 79.6743 63.6433 79.521 63.37C79.3677 63.09 79.1543 62.8733 78.881 62.72C78.6143 62.5667 78.311 62.49 77.971 62.49C77.631 62.49 77.3277 62.5667 77.061 62.72C76.7943 62.8733 76.581 63.09 76.421 63.37C76.261 63.6433 76.181 63.97 76.181 64.35C76.181 64.7233 76.261 65.0533 76.421 65.34C76.581 65.62 76.7943 65.8367 77.061 65.99C77.3277 66.1433 77.631 66.22 77.971 66.22ZM83.3922 67L81.0722 61.7H82.0722L84.1322 66.5H83.6522L85.7522 61.7H86.6922L84.3722 67H83.3922ZM90.8121 67V65.88L90.7621 65.67V63.76C90.7621 63.3533 90.6421 63.04 90.4021 62.82C90.1688 62.5933 89.8154 62.48 89.3421 62.48C89.0288 62.48 88.7221 62.5333 88.4221 62.64C88.1221 62.74 87.8688 62.8767 87.6621 63.05L87.2621 62.33C87.5354 62.11 87.8621 61.9433 88.2421 61.83C88.6288 61.71 89.0321 61.65 89.4521 61.65C90.1788 61.65 90.7388 61.8267 91.1321 62.18C91.5254 62.5333 91.7221 63.0733 91.7221 63.8V67H90.8121ZM89.0721 67.06C88.6788 67.06 88.3321 66.9933 88.0321 66.86C87.7388 66.7267 87.5121 66.5433 87.3521 66.31C87.1921 66.07 87.1121 65.8 87.1121 65.5C87.1121 65.2133 87.1788 64.9533 87.3121 64.72C87.4521 64.4867 87.6754 64.3 87.9821 64.16C88.2954 64.02 88.7154 63.95 89.2421 63.95H90.9221V64.64H89.2821C88.8021 64.64 88.4788 64.72 88.3121 64.88C88.1454 65.04 88.0621 65.2333 88.0621 65.46C88.0621 65.72 88.1654 65.93 88.3721 66.09C88.5788 66.2433 88.8654 66.32 89.2321 66.32C89.5921 66.32 89.9054 66.24 90.1721 66.08C90.4454 65.92 90.6421 65.6867 90.7621 65.38L90.9521 66.04C90.8254 66.3533 90.6021 66.6033 90.2821 66.79C89.9621 66.97 89.5588 67.06 89.0721 67.06ZM93.5987 67V59.58H94.5587V67H93.5987ZM101.097 67.06C100.564 67.06 100.151 66.9167 99.8572 66.63C99.5639 66.3433 99.4172 65.9333 99.4172 65.4V60.54H100.377V65.36C100.377 65.6467 100.447 65.8667 100.587 66.02C100.734 66.1733 100.941 66.25 101.207 66.25C101.507 66.25 101.757 66.1667 101.957 66L102.257 66.69C102.111 66.8167 101.934 66.91 101.727 66.97C101.527 67.03 101.317 67.06 101.097 67.06ZM98.5172 62.49V61.7H101.897V62.49H98.5172ZM105.748 67.06C105.294 67.06 104.894 66.9767 104.548 66.81C104.208 66.6433 103.941 66.39 103.748 66.05C103.561 65.7033 103.468 65.27 103.468 64.75V61.7H104.428V64.64C104.428 65.16 104.551 65.55 104.798 65.81C105.051 66.07 105.404 66.2 105.858 66.2C106.191 66.2 106.481 66.1333 106.728 66C106.974 65.86 107.164 65.66 107.298 65.4C107.431 65.1333 107.498 64.8133 107.498 64.44V61.7H108.458V67H107.548V65.57L107.698 65.95C107.524 66.3033 107.264 66.5767 106.918 66.77C106.571 66.9633 106.181 67.06 105.748 67.06ZM113.195 67.06C112.742 67.06 112.332 66.96 111.965 66.76C111.605 66.5533 111.319 66.25 111.105 65.85C110.899 65.45 110.795 64.95 110.795 64.35C110.795 63.75 110.902 63.25 111.115 62.85C111.335 62.45 111.625 62.15 111.985 61.95C112.352 61.75 112.755 61.65 113.195 61.65C113.715 61.65 114.175 61.7633 114.575 61.99C114.975 62.2167 115.292 62.5333 115.525 62.94C115.759 63.34 115.875 63.81 115.875 64.35C115.875 64.89 115.759 65.3633 115.525 65.77C115.292 66.1767 114.975 66.4933 114.575 66.72C114.175 66.9467 113.715 67.06 113.195 67.06ZM110.385 67V59.58H111.345V63.11L111.245 64.34L111.305 65.57V67H110.385ZM113.115 66.22C113.455 66.22 113.759 66.1433 114.025 65.99C114.299 65.8367 114.512 65.62 114.665 65.34C114.825 65.0533 114.905 64.7233 114.905 64.35C114.905 63.97 114.825 63.6433 114.665 63.37C114.512 63.09 114.299 62.8733 114.025 62.72C113.759 62.5667 113.455 62.49 113.115 62.49C112.782 62.49 112.479 62.5667 112.205 62.72C111.939 62.8733 111.725 63.09 111.565 63.37C111.412 63.6433 111.335 63.97 111.335 64.35C111.335 64.7233 111.412 65.0533 111.565 65.34C111.725 65.62 111.939 65.8367 112.205 65.99C112.479 66.1433 112.782 66.22 113.115 66.22ZM118.822 67.06C118.382 67.06 117.962 67 117.562 66.88C117.168 66.76 116.858 66.6133 116.632 66.44L117.032 65.68C117.258 65.8333 117.538 65.9633 117.872 66.07C118.205 66.1767 118.545 66.23 118.892 66.23C119.338 66.23 119.658 66.1667 119.852 66.04C120.052 65.9133 120.152 65.7367 120.152 65.51C120.152 65.3433 120.092 65.2133 119.972 65.12C119.852 65.0267 119.692 64.9567 119.492 64.91C119.298 64.8633 119.082 64.8233 118.842 64.79C118.602 64.75 118.362 64.7033 118.122 64.65C117.882 64.59 117.662 64.51 117.462 64.41C117.262 64.3033 117.102 64.16 116.982 63.98C116.862 63.7933 116.802 63.5467 116.802 63.24C116.802 62.92 116.892 62.64 117.072 62.4C117.252 62.16 117.505 61.9767 117.832 61.85C118.165 61.7167 118.558 61.65 119.012 61.65C119.358 61.65 119.708 61.6933 120.062 61.78C120.422 61.86 120.715 61.9767 120.942 62.13L120.532 62.89C120.292 62.73 120.042 62.62 119.782 62.56C119.522 62.5 119.262 62.47 119.002 62.47C118.582 62.47 118.268 62.54 118.062 62.68C117.855 62.8133 117.752 62.9867 117.752 63.2C117.752 63.38 117.812 63.52 117.932 63.62C118.058 63.7133 118.218 63.7867 118.412 63.84C118.612 63.8933 118.832 63.94 119.072 63.98C119.312 64.0133 119.552 64.06 119.792 64.12C120.032 64.1733 120.248 64.25 120.442 64.35C120.642 64.45 120.802 64.59 120.922 64.77C121.048 64.95 121.112 65.19 121.112 65.49C121.112 65.81 121.018 66.0867 120.832 66.32C120.645 66.5533 120.382 66.7367 120.042 66.87C119.702 66.9967 119.295 67.06 118.822 67.06ZM127.017 67.06C126.484 67.06 126.07 66.9167 125.777 66.63C125.484 66.3433 125.337 65.9333 125.337 65.4V60.54H126.297V65.36C126.297 65.6467 126.367 65.8667 126.507 66.02C126.654 66.1733 126.86 66.25 127.127 66.25C127.427 66.25 127.677 66.1667 127.877 66L128.177 66.69C128.03 66.8167 127.854 66.91 127.647 66.97C127.447 67.03 127.237 67.06 127.017 67.06ZM124.437 62.49V61.7H127.817V62.49H124.437ZM132.268 61.65C132.701 61.65 133.081 61.7333 133.408 61.9C133.741 62.0667 134.001 62.32 134.188 62.66C134.374 63 134.468 63.43 134.468 63.95V67H133.508V64.06C133.508 63.5467 133.381 63.16 133.128 62.9C132.881 62.64 132.531 62.51 132.078 62.51C131.738 62.51 131.441 62.5767 131.188 62.71C130.934 62.8433 130.738 63.04 130.598 63.3C130.464 63.56 130.398 63.8833 130.398 64.27V67H129.438V59.58H130.398V63.13L130.208 62.75C130.381 62.4033 130.648 62.1333 131.008 61.94C131.368 61.7467 131.788 61.65 132.268 61.65ZM139.634 67V65.88L139.584 65.67V63.76C139.584 63.3533 139.464 63.04 139.224 62.82C138.991 62.5933 138.638 62.48 138.164 62.48C137.851 62.48 137.544 62.5333 137.244 62.64C136.944 62.74 136.691 62.8767 136.484 63.05L136.084 62.33C136.358 62.11 136.684 61.9433 137.064 61.83C137.451 61.71 137.854 61.65 138.274 61.65C139.001 61.65 139.561 61.8267 139.954 62.18C140.348 62.5333 140.544 63.0733 140.544 63.8V67H139.634ZM137.894 67.06C137.501 67.06 137.154 66.9933 136.854 66.86C136.561 66.7267 136.334 66.5433 136.174 66.31C136.014 66.07 135.934 65.8 135.934 65.5C135.934 65.2133 136.001 64.9533 136.134 64.72C136.274 64.4867 136.498 64.3 136.804 64.16C137.118 64.02 137.538 63.95 138.064 63.95H139.744V64.64H138.104C137.624 64.64 137.301 64.72 137.134 64.88C136.968 65.04 136.884 65.2333 136.884 65.46C136.884 65.72 136.988 65.93 137.194 66.09C137.401 66.2433 137.688 66.32 138.054 66.32C138.414 66.32 138.728 66.24 138.994 66.08C139.268 65.92 139.464 65.6867 139.584 65.38L139.774 66.04C139.648 66.3533 139.424 66.6033 139.104 66.79C138.784 66.97 138.381 67.06 137.894 67.06ZM144.241 67.06C143.708 67.06 143.294 66.9167 143.001 66.63C142.708 66.3433 142.561 65.9333 142.561 65.4V60.54H143.521V65.36C143.521 65.6467 143.591 65.8667 143.731 66.02C143.878 66.1733 144.084 66.25 144.351 66.25C144.651 66.25 144.901 66.1667 145.101 66L145.401 66.69C145.254 66.8167 145.078 66.91 144.871 66.97C144.671 67.03 144.461 67.06 144.241 67.06ZM141.661 62.49V61.7H145.041V62.49H141.661ZM0.919766 81V73.58H1.87977V81H0.919766ZM6.08273 81.06C5.5494 81.06 5.07607 80.9433 4.66273 80.71C4.2494 80.4767 3.92273 80.1567 3.68273 79.75C3.44273 79.3367 3.32273 78.87 3.32273 78.35C3.32273 77.8233 3.44273 77.3567 3.68273 76.95C3.92273 76.5433 4.2494 76.2267 4.66273 76C5.07607 75.7667 5.5494 75.65 6.08273 75.65C6.6094 75.65 7.0794 75.7667 7.49273 76C7.91273 76.2267 8.2394 76.5433 8.47273 76.95C8.71273 77.35 8.83273 77.8167 8.83273 78.35C8.83273 78.8767 8.71273 79.3433 8.47273 79.75C8.2394 80.1567 7.91273 80.4767 7.49273 80.71C7.0794 80.9433 6.6094 81.06 6.08273 81.06ZM6.08273 80.22C6.42273 80.22 6.72607 80.1433 6.99273 79.99C7.26607 79.8367 7.4794 79.62 7.63273 79.34C7.78607 79.0533 7.86273 78.7233 7.86273 78.35C7.86273 77.97 7.78607 77.6433 7.63273 77.37C7.4794 77.09 7.26607 76.8733 6.99273 76.72C6.72607 76.5667 6.42273 76.49 6.08273 76.49C5.74273 76.49 5.4394 76.5667 5.17273 76.72C4.90607 76.8733 4.69273 77.09 4.53273 77.37C4.37273 77.6433 4.29273 77.97 4.29273 78.35C4.29273 78.7233 4.37273 79.0533 4.53273 79.34C4.69273 79.62 4.90607 79.8367 5.17273 79.99C5.4394 80.1433 5.74273 80.22 6.08273 80.22ZM12.5704 81.06C12.0304 81.06 11.5471 80.9433 11.1204 80.71C10.7004 80.4767 10.3704 80.1567 10.1304 79.75C9.89039 79.3433 9.77039 78.8767 9.77039 78.35C9.77039 77.8233 9.89039 77.3567 10.1304 76.95C10.3704 76.5433 10.7004 76.2267 11.1204 76C11.5471 75.7667 12.0304 75.65 12.5704 75.65C13.0504 75.65 13.4771 75.7467 13.8504 75.94C14.2304 76.1267 14.5237 76.4067 14.7304 76.78L14.0004 77.25C13.8271 76.99 13.6137 76.8 13.3604 76.68C13.1137 76.5533 12.8471 76.49 12.5604 76.49C12.2137 76.49 11.9037 76.5667 11.6304 76.72C11.3571 76.8733 11.1404 77.09 10.9804 77.37C10.8204 77.6433 10.7404 77.97 10.7404 78.35C10.7404 78.73 10.8204 79.06 10.9804 79.34C11.1404 79.62 11.3571 79.8367 11.6304 79.99C11.9037 80.1433 12.2137 80.22 12.5604 80.22C12.8471 80.22 13.1137 80.16 13.3604 80.04C13.6137 79.9133 13.8271 79.72 14.0004 79.46L14.7304 79.92C14.5237 80.2867 14.2304 80.57 13.8504 80.77C13.4771 80.9633 13.0504 81.06 12.5704 81.06ZM16.7849 79.72L16.8049 78.49L19.8549 75.7H21.0149L18.6749 78L18.1549 78.44L16.7849 79.72ZM16.0049 81V73.58H16.9649V81H16.0049ZM20.0549 81L17.9749 78.42L18.5949 77.65L21.2349 81H20.0549ZM25.0526 81V75.7H26.0126V81H25.0526ZM25.5326 74.68C25.3459 74.68 25.1892 74.62 25.0626 74.5C24.9426 74.38 24.8826 74.2333 24.8826 74.06C24.8826 73.88 24.9426 73.73 25.0626 73.61C25.1892 73.49 25.3459 73.43 25.5326 73.43C25.7192 73.43 25.8726 73.49 25.9926 73.61C26.1192 73.7233 26.1826 73.8667 26.1826 74.04C26.1826 74.22 26.1226 74.3733 26.0026 74.5C25.8826 74.62 25.7259 74.68 25.5326 74.68ZM30.7755 75.65C31.2089 75.65 31.5889 75.7333 31.9155 75.9C32.2489 76.0667 32.5089 76.32 32.6955 76.66C32.8822 77 32.9755 77.43 32.9755 77.95V81H32.0155V78.06C32.0155 77.5467 31.8889 77.16 31.6355 76.9C31.3889 76.64 31.0389 76.51 30.5855 76.51C30.2455 76.51 29.9489 76.5767 29.6955 76.71C29.4422 76.8433 29.2455 77.04 29.1055 77.3C28.9722 77.56 28.9055 77.8833 28.9055 78.27V81H27.9455V75.7H28.8655V77.13L28.7155 76.75C28.8889 76.4033 29.1555 76.1333 29.5155 75.94C29.8755 75.7467 30.2955 75.65 30.7755 75.65ZM37.7777 81V75.23C37.7777 74.71 37.9277 74.2967 38.2277 73.99C38.5344 73.6767 38.9677 73.52 39.5277 73.52C39.7344 73.52 39.9311 73.5467 40.1177 73.6C40.3111 73.6467 40.4744 73.7233 40.6077 73.83L40.3177 74.56C40.2177 74.48 40.1044 74.42 39.9777 74.38C39.8511 74.3333 39.7177 74.31 39.5777 74.31C39.2977 74.31 39.0844 74.39 38.9377 74.55C38.7911 74.7033 38.7177 74.9333 38.7177 75.24V75.95L38.7377 76.39V81H37.7777ZM36.8777 76.49V75.7H40.2577V76.49H36.8777ZM41.2631 81V75.7H42.1831V77.14L42.0931 76.78C42.2398 76.4133 42.4865 76.1333 42.8331 75.94C43.1798 75.7467 43.6065 75.65 44.1131 75.65V76.58C44.0731 76.5733 44.0331 76.57 43.9931 76.57C43.9598 76.57 43.9265 76.57 43.8931 76.57C43.3798 76.57 42.9731 76.7233 42.6731 77.03C42.3731 77.3367 42.2231 77.78 42.2231 78.36V81H41.2631ZM47.7075 81.06C47.1408 81.06 46.6408 80.9433 46.2075 80.71C45.7808 80.4767 45.4475 80.1567 45.2075 79.75C44.9742 79.3433 44.8575 78.8767 44.8575 78.35C44.8575 77.8233 44.9708 77.3567 45.1975 76.95C45.4308 76.5433 45.7475 76.2267 46.1475 76C46.5542 75.7667 47.0108 75.65 47.5175 75.65C48.0308 75.65 48.4842 75.7633 48.8775 75.99C49.2708 76.2167 49.5775 76.5367 49.7975 76.95C50.0242 77.3567 50.1375 77.8333 50.1375 78.38C50.1375 78.42 50.1342 78.4667 50.1275 78.52C50.1275 78.5733 50.1242 78.6233 50.1175 78.67H45.6075V77.98H49.6175L49.2275 78.22C49.2342 77.88 49.1642 77.5767 49.0175 77.31C48.8708 77.0433 48.6675 76.8367 48.4075 76.69C48.1542 76.5367 47.8575 76.46 47.5175 76.46C47.1842 76.46 46.8875 76.5367 46.6275 76.69C46.3675 76.8367 46.1642 77.0467 46.0175 77.32C45.8708 77.5867 45.7975 77.8933 45.7975 78.24V78.4C45.7975 78.7533 45.8775 79.07 46.0375 79.35C46.2042 79.6233 46.4342 79.8367 46.7275 79.99C47.0208 80.1433 47.3575 80.22 47.7375 80.22C48.0508 80.22 48.3342 80.1667 48.5875 80.06C48.8475 79.9533 49.0742 79.7933 49.2675 79.58L49.7975 80.2C49.5575 80.48 49.2575 80.6933 48.8975 80.84C48.5442 80.9867 48.1475 81.06 47.7075 81.06ZM53.0905 81.06C52.6505 81.06 52.2305 81 51.8305 80.88C51.4372 80.76 51.1272 80.6133 50.9005 80.44L51.3005 79.68C51.5272 79.8333 51.8072 79.9633 52.1405 80.07C52.4739 80.1767 52.8139 80.23 53.1605 80.23C53.6072 80.23 53.9272 80.1667 54.1205 80.04C54.3205 79.9133 54.4205 79.7367 54.4205 79.51C54.4205 79.3433 54.3605 79.2133 54.2405 79.12C54.1205 79.0267 53.9605 78.9567 53.7605 78.91C53.5672 78.8633 53.3505 78.8233 53.1105 78.79C52.8705 78.75 52.6305 78.7033 52.3905 78.65C52.1505 78.59 51.9305 78.51 51.7305 78.41C51.5305 78.3033 51.3705 78.16 51.2505 77.98C51.1305 77.7933 51.0705 77.5467 51.0705 77.24C51.0705 76.92 51.1605 76.64 51.3405 76.4C51.5205 76.16 51.7739 75.9767 52.1005 75.85C52.4339 75.7167 52.8272 75.65 53.2805 75.65C53.6272 75.65 53.9772 75.6933 54.3305 75.78C54.6905 75.86 54.9839 75.9767 55.2105 76.13L54.8005 76.89C54.5605 76.73 54.3105 76.62 54.0505 76.56C53.7905 76.5 53.5305 76.47 53.2705 76.47C52.8505 76.47 52.5372 76.54 52.3305 76.68C52.1239 76.8133 52.0205 76.9867 52.0205 77.2C52.0205 77.38 52.0805 77.52 52.2005 77.62C52.3272 77.7133 52.4872 77.7867 52.6805 77.84C52.8805 77.8933 53.1005 77.94 53.3405 77.98C53.5805 78.0133 53.8205 78.06 54.0605 78.12C54.3005 78.1733 54.5172 78.25 54.7105 78.35C54.9105 78.45 55.0705 78.59 55.1905 78.77C55.3172 78.95 55.3805 79.19 55.3805 79.49C55.3805 79.81 55.2872 80.0867 55.1005 80.32C54.9139 80.5533 54.6505 80.7367 54.3105 80.87C53.9705 80.9967 53.5639 81.06 53.0905 81.06ZM59.5103 75.65C59.9436 75.65 60.3236 75.7333 60.6503 75.9C60.9836 76.0667 61.2436 76.32 61.4303 76.66C61.617 77 61.7103 77.43 61.7103 77.95V81H60.7503V78.06C60.7503 77.5467 60.6236 77.16 60.3703 76.9C60.1236 76.64 59.7736 76.51 59.3203 76.51C58.9803 76.51 58.6836 76.5767 58.4303 76.71C58.177 76.8433 57.9803 77.04 57.8403 77.3C57.707 77.56 57.6403 77.8833 57.6403 78.27V81H56.6803V73.58H57.6403V77.13L57.4503 76.75C57.6236 76.4033 57.8903 76.1333 58.2503 75.94C58.6103 75.7467 59.0303 75.65 59.5103 75.65ZM66.417 75.65C66.8503 75.65 67.2303 75.7333 67.557 75.9C67.8903 76.0667 68.1503 76.32 68.337 76.66C68.5236 77 68.617 77.43 68.617 77.95V81H67.657V78.06C67.657 77.5467 67.5303 77.16 67.277 76.9C67.0303 76.64 66.6803 76.51 66.227 76.51C65.887 76.51 65.5903 76.5767 65.337 76.71C65.0836 76.8433 64.887 77.04 64.747 77.3C64.6136 77.56 64.547 77.8833 64.547 78.27V81H63.587V75.7H64.507V77.13L64.357 76.75C64.5303 76.4033 64.797 76.1333 65.157 75.94C65.517 75.7467 65.937 75.65 66.417 75.65ZM72.8536 81.06C72.2869 81.06 71.7869 80.9433 71.3536 80.71C70.9269 80.4767 70.5936 80.1567 70.3536 79.75C70.1203 79.3433 70.0036 78.8767 70.0036 78.35C70.0036 77.8233 70.1169 77.3567 70.3436 76.95C70.5769 76.5433 70.8936 76.2267 71.2936 76C71.7003 75.7667 72.1569 75.65 72.6636 75.65C73.1769 75.65 73.6303 75.7633 74.0236 75.99C74.4169 76.2167 74.7236 76.5367 74.9436 76.95C75.1703 77.3567 75.2836 77.8333 75.2836 78.38C75.2836 78.42 75.2803 78.4667 75.2736 78.52C75.2736 78.5733 75.2703 78.6233 75.2636 78.67H70.7536V77.98H74.7636L74.3736 78.22C74.3803 77.88 74.3103 77.5767 74.1636 77.31C74.0169 77.0433 73.8136 76.8367 73.5536 76.69C73.3003 76.5367 73.0036 76.46 72.6636 76.46C72.3303 76.46 72.0336 76.5367 71.7736 76.69C71.5136 76.8367 71.3103 77.0467 71.1636 77.32C71.0169 77.5867 70.9436 77.8933 70.9436 78.24V78.4C70.9436 78.7533 71.0236 79.07 71.1836 79.35C71.3503 79.6233 71.5803 79.8367 71.8736 79.99C72.1669 80.1433 72.5036 80.22 72.8836 80.22C73.1969 80.22 73.4803 80.1667 73.7336 80.06C73.9936 79.9533 74.2203 79.7933 74.4136 79.58L74.9436 80.2C74.7036 80.48 74.4036 80.6933 74.0436 80.84C73.6903 80.9867 73.2936 81.06 72.8536 81.06ZM78.2366 81.06C77.7966 81.06 77.3766 81 76.9766 80.88C76.5833 80.76 76.2733 80.6133 76.0466 80.44L76.4466 79.68C76.6733 79.8333 76.9533 79.9633 77.2866 80.07C77.62 80.1767 77.96 80.23 78.3066 80.23C78.7533 80.23 79.0733 80.1667 79.2666 80.04C79.4666 79.9133 79.5666 79.7367 79.5666 79.51C79.5666 79.3433 79.5066 79.2133 79.3866 79.12C79.2666 79.0267 79.1066 78.9567 78.9066 78.91C78.7133 78.8633 78.4966 78.8233 78.2566 78.79C78.0166 78.75 77.7766 78.7033 77.5366 78.65C77.2966 78.59 77.0766 78.51 76.8766 78.41C76.6766 78.3033 76.5166 78.16 76.3966 77.98C76.2766 77.7933 76.2166 77.5467 76.2166 77.24C76.2166 76.92 76.3066 76.64 76.4866 76.4C76.6666 76.16 76.92 75.9767 77.2466 75.85C77.58 75.7167 77.9733 75.65 78.4266 75.65C78.7733 75.65 79.1233 75.6933 79.4766 75.78C79.8366 75.86 80.13 75.9767 80.3566 76.13L79.9466 76.89C79.7066 76.73 79.4566 76.62 79.1966 76.56C78.9366 76.5 78.6766 76.47 78.4166 76.47C77.9966 76.47 77.6833 76.54 77.4766 76.68C77.27 76.8133 77.1666 76.9867 77.1666 77.2C77.1666 77.38 77.2266 77.52 77.3466 77.62C77.4733 77.7133 77.6333 77.7867 77.8266 77.84C78.0266 77.8933 78.2466 77.94 78.4866 77.98C78.7266 78.0133 78.9666 78.06 79.2066 78.12C79.4466 78.1733 79.6633 78.25 79.8566 78.35C80.0566 78.45 80.2166 78.59 80.3366 78.77C80.4633 78.95 80.5266 79.19 80.5266 79.49C80.5266 79.81 80.4333 80.0867 80.2466 80.32C80.06 80.5533 79.7966 80.7367 79.4566 80.87C79.1166 80.9967 78.71 81.06 78.2366 81.06ZM83.3464 81.06C82.9064 81.06 82.4864 81 82.0864 80.88C81.6931 80.76 81.3831 80.6133 81.1564 80.44L81.5564 79.68C81.7831 79.8333 82.0631 79.9633 82.3964 80.07C82.7297 80.1767 83.0697 80.23 83.4164 80.23C83.8631 80.23 84.1831 80.1667 84.3764 80.04C84.5764 79.9133 84.6764 79.7367 84.6764 79.51C84.6764 79.3433 84.6164 79.2133 84.4964 79.12C84.3764 79.0267 84.2164 78.9567 84.0164 78.91C83.8231 78.8633 83.6064 78.8233 83.3664 78.79C83.1264 78.75 82.8864 78.7033 82.6464 78.65C82.4064 78.59 82.1864 78.51 81.9864 78.41C81.7864 78.3033 81.6264 78.16 81.5064 77.98C81.3864 77.7933 81.3264 77.5467 81.3264 77.24C81.3264 76.92 81.4164 76.64 81.5964 76.4C81.7764 76.16 82.0297 75.9767 82.3564 75.85C82.6897 75.7167 83.0831 75.65 83.5364 75.65C83.8831 75.65 84.2331 75.6933 84.5864 75.78C84.9464 75.86 85.2397 75.9767 85.4664 76.13L85.0564 76.89C84.8164 76.73 84.5664 76.62 84.3064 76.56C84.0464 76.5 83.7864 76.47 83.5264 76.47C83.1064 76.47 82.7931 76.54 82.5864 76.68C82.3797 76.8133 82.2764 76.9867 82.2764 77.2C82.2764 77.38 82.3364 77.52 82.4564 77.62C82.5831 77.7133 82.7431 77.7867 82.9364 77.84C83.1364 77.8933 83.3564 77.94 83.5964 77.98C83.8364 78.0133 84.0764 78.06 84.3164 78.12C84.5564 78.1733 84.7731 78.25 84.9664 78.35C85.1664 78.45 85.3264 78.59 85.4464 78.77C85.5731 78.95 85.6364 79.19 85.6364 79.49C85.6364 79.81 85.5431 80.0867 85.3564 80.32C85.1697 80.5533 84.9064 80.7367 84.5664 80.87C84.2264 80.9967 83.8197 81.06 83.3464 81.06ZM87.1662 81.06C86.9795 81.06 86.8195 80.9967 86.6862 80.87C86.5528 80.7367 86.4862 80.57 86.4862 80.37C86.4862 80.17 86.5528 80.0067 86.6862 79.88C86.8195 79.7533 86.9795 79.69 87.1662 79.69C87.3462 79.69 87.4995 79.7533 87.6262 79.88C87.7595 80.0067 87.8262 80.17 87.8262 80.37C87.8262 80.57 87.7595 80.7367 87.6262 80.87C87.4995 80.9967 87.3462 81.06 87.1662 81.06Z" fill="black"/>
</svg>
