<svg width="152" height="113" viewBox="0 0 152 113" fill="none" xmlns="http://www.w3.org/2000/svg">
<path d="M4.432 20.192C3.65333 20.192 2.88 20.0907 2.112 19.888C1.35467 19.6747 0.704 19.376 0.16 18.992L1.184 17.008C1.61067 17.3173 2.10133 17.5627 2.656 17.744C3.22133 17.9253 3.792 18.016 4.368 18.016C5.01867 18.016 5.53067 17.888 5.904 17.632C6.27733 17.376 6.464 17.0187 6.464 16.56C6.464 16.272 6.38933 16.016 6.24 15.792C6.09067 15.568 5.824 15.3973 5.44 15.28C5.06667 15.1627 4.53867 15.104 3.856 15.104H0.992L1.568 8.8H8.4V10.88H2.496L3.84 9.696L3.44 14.192L2.096 13.008H4.464C5.57333 13.008 6.464 13.1627 7.136 13.472C7.81867 13.7707 8.31467 14.1813 8.624 14.704C8.93333 15.2267 9.088 15.8187 9.088 16.48C9.088 17.1413 8.92267 17.7547 8.592 18.32C8.26133 18.8747 7.74933 19.328 7.056 19.68C6.37333 20.0213 5.49867 20.192 4.432 20.192ZM14.6196 20.192C13.7023 20.192 12.881 19.968 12.1556 19.52C11.4303 19.0613 10.8596 18.4 10.4436 17.536C10.0276 16.672 9.81963 15.6267 9.81963 14.4C9.81963 13.1733 10.0276 12.128 10.4436 11.264C10.8596 10.4 11.4303 9.744 12.1556 9.296C12.881 8.83733 13.7023 8.608 14.6196 8.608C15.5476 8.608 16.369 8.83733 17.0836 9.296C17.809 9.744 18.3796 10.4 18.7956 11.264C19.2116 12.128 19.4196 13.1733 19.4196 14.4C19.4196 15.6267 19.2116 16.672 18.7956 17.536C18.3796 18.4 17.809 19.0613 17.0836 19.52C16.369 19.968 15.5476 20.192 14.6196 20.192ZM14.6196 18C15.057 18 15.4356 17.8773 15.7556 17.632C16.0863 17.3867 16.3423 16.9973 16.5236 16.464C16.7156 15.9307 16.8116 15.2427 16.8116 14.4C16.8116 13.5573 16.7156 12.8693 16.5236 12.336C16.3423 11.8027 16.0863 11.4133 15.7556 11.168C15.4356 10.9227 15.057 10.8 14.6196 10.8C14.193 10.8 13.8143 10.9227 13.4836 11.168C13.1636 11.4133 12.9076 11.8027 12.7156 12.336C12.5343 12.8693 12.4436 13.5573 12.4436 14.4C12.4436 15.2427 12.5343 15.9307 12.7156 16.464C12.9076 16.9973 13.1636 17.3867 13.4836 17.632C13.8143 17.8773 14.193 18 14.6196 18ZM25.159 20.192C24.2417 20.192 23.4203 19.968 22.695 19.52C21.9697 19.0613 21.399 18.4 20.983 17.536C20.567 16.672 20.359 15.6267 20.359 14.4C20.359 13.1733 20.567 12.128 20.983 11.264C21.399 10.4 21.9697 9.744 22.695 9.296C23.4203 8.83733 24.2417 8.608 25.159 8.608C26.087 8.608 26.9083 8.83733 27.623 9.296C28.3483 9.744 28.919 10.4 29.335 11.264C29.751 12.128 29.959 13.1733 29.959 14.4C29.959 15.6267 29.751 16.672 29.335 17.536C28.919 18.4 28.3483 19.0613 27.623 19.52C26.9083 19.968 26.087 20.192 25.159 20.192ZM25.159 18C25.5963 18 25.975 17.8773 26.295 17.632C26.6257 17.3867 26.8817 16.9973 27.063 16.464C27.255 15.9307 27.351 15.2427 27.351 14.4C27.351 13.5573 27.255 12.8693 27.063 12.336C26.8817 11.8027 26.6257 11.4133 26.295 11.168C25.975 10.9227 25.5963 10.8 25.159 10.8C24.7323 10.8 24.3537 10.9227 24.023 11.168C23.703 11.4133 23.447 11.8027 23.255 12.336C23.0737 12.8693 22.983 13.5573 22.983 14.4C22.983 15.2427 23.0737 15.9307 23.255 16.464C23.447 16.9973 23.703 17.3867 24.023 17.632C24.3537 17.8773 24.7323 18 25.159 18ZM46.6616 11.264C47.3443 11.264 47.947 11.4027 48.4696 11.68C49.003 11.9467 49.419 12.3627 49.7176 12.928C50.027 13.4827 50.1816 14.1973 50.1816 15.072V20H47.6856V15.456C47.6856 14.7627 47.5416 14.2507 47.2536 13.92C46.9656 13.5893 46.5603 13.424 46.0376 13.424C45.675 13.424 45.3496 13.5093 45.0616 13.68C44.7736 13.84 44.5496 14.0853 44.3896 14.416C44.2296 14.7467 44.1496 15.168 44.1496 15.68V20H41.6536V15.456C41.6536 14.7627 41.5096 14.2507 41.2216 13.92C40.9443 13.5893 40.5443 13.424 40.0216 13.424C39.659 13.424 39.3336 13.5093 39.0456 13.68C38.7576 13.84 38.5336 14.0853 38.3736 14.416C38.2136 14.7467 38.1336 15.168 38.1336 15.68V20H35.6376V11.392H38.0216V13.744L37.5736 13.056C37.8723 12.4693 38.2936 12.0267 38.8376 11.728C39.3923 11.4187 40.0216 11.264 40.7256 11.264C41.515 11.264 42.203 11.4667 42.7896 11.872C43.387 12.2667 43.7816 12.8747 43.9736 13.696L43.0936 13.456C43.3816 12.784 43.8403 12.2507 44.4696 11.856C45.1096 11.4613 45.8403 11.264 46.6616 11.264ZM52.0989 20V8.128H54.5949V20H52.0989ZM60.4826 16.496V14.496H65.0106V16.496H60.4826ZM76.4818 20.192C75.5964 20.192 74.7751 20.048 74.0178 19.76C73.2711 19.472 72.6204 19.0667 72.0658 18.544C71.5218 18.0213 71.0951 17.408 70.7858 16.704C70.4871 16 70.3378 15.232 70.3378 14.4C70.3378 13.568 70.4871 12.8 70.7858 12.096C71.0951 11.392 71.5271 10.7787 72.0818 10.256C72.6364 9.73333 73.2871 9.328 74.0338 9.04C74.7804 8.752 75.5911 8.608 76.4658 8.608C77.3511 8.608 78.1618 8.752 78.8978 9.04C79.6444 9.328 80.2898 9.73333 80.8338 10.256C81.3884 10.7787 81.8204 11.392 82.1298 12.096C82.4391 12.7893 82.5938 13.5573 82.5938 14.4C82.5938 15.232 82.4391 16.0053 82.1298 16.72C81.8204 17.424 81.3884 18.0373 80.8338 18.56C80.2898 19.072 79.6444 19.472 78.8978 19.76C78.1618 20.048 77.3564 20.192 76.4818 20.192ZM76.4658 17.984C76.9671 17.984 77.4258 17.8987 77.8418 17.728C78.2684 17.5573 78.6418 17.312 78.9618 16.992C79.2818 16.672 79.5271 16.2933 79.6978 15.856C79.8791 15.4187 79.9698 14.9333 79.9698 14.4C79.9698 13.8667 79.8791 13.3813 79.6978 12.944C79.5271 12.5067 79.2818 12.128 78.9618 11.808C78.6524 11.488 78.2844 11.2427 77.8578 11.072C77.4311 10.9013 76.9671 10.816 76.4658 10.816C75.9644 10.816 75.5004 10.9013 75.0738 11.072C74.6578 11.2427 74.2898 11.488 73.9698 11.808C73.6498 12.128 73.3991 12.5067 73.2178 12.944C73.0471 13.3813 72.9618 13.8667 72.9618 14.4C72.9618 14.9227 73.0471 15.408 73.2178 15.856C73.3991 16.2933 73.6444 16.672 73.9538 16.992C74.2738 17.312 74.6471 17.5573 75.0738 17.728C75.5004 17.8987 75.9644 17.984 76.4658 17.984ZM87.2224 20L82.3904 8.8H85.1904L89.4144 18.72H87.7664L92.0544 8.8H94.6304L89.7824 20H87.2224ZM93.3985 20L98.3905 8.8H100.951L105.959 20H103.239L99.1425 10.112H100.167L96.0545 20H93.3985ZM95.8945 17.6L96.5825 15.632H102.343L103.047 17.6H95.8945ZM106.801 20V8.8H109.393V17.888H115.009V20H106.801Z" fill="#4A8036"/>
<path d="M1.316 46V36.2H3.136V46H1.316ZM9.0487 46.098C8.2647 46.098 7.5647 45.9347 6.9487 45.608C6.34204 45.272 5.86604 44.8147 5.5207 44.236C5.17537 43.6573 5.0027 42.9993 5.0027 42.262C5.0027 41.5153 5.17537 40.8573 5.5207 40.288C5.86604 39.7093 6.34204 39.2567 6.9487 38.93C7.5647 38.6033 8.2647 38.44 9.0487 38.44C9.7767 38.44 10.416 38.5893 10.9667 38.888C11.5267 39.1773 11.9514 39.6067 12.2407 40.176L10.8967 40.96C10.6727 40.6053 10.3974 40.344 10.0707 40.176C9.75337 40.008 9.40804 39.924 9.0347 39.924C8.60537 39.924 8.21804 40.0173 7.8727 40.204C7.52737 40.3907 7.2567 40.6613 7.0607 41.016C6.8647 41.3613 6.7667 41.7767 6.7667 42.262C6.7667 42.7473 6.8647 43.1673 7.0607 43.522C7.2567 43.8673 7.52737 44.1333 7.8727 44.32C8.21804 44.5067 8.60537 44.6 9.0347 44.6C9.40804 44.6 9.75337 44.516 10.0707 44.348C10.3974 44.18 10.6727 43.9187 10.8967 43.564L12.2407 44.348C11.9514 44.908 11.5267 45.342 10.9667 45.65C10.416 45.9487 9.7767 46.098 9.0487 46.098ZM17.1581 46.098C16.3274 46.098 15.5994 45.9347 14.9741 45.608C14.3581 45.272 13.8774 44.8147 13.5321 44.236C13.1961 43.6573 13.0281 42.9993 13.0281 42.262C13.0281 41.5153 13.1914 40.8573 13.5181 40.288C13.8541 39.7093 14.3114 39.2567 14.8901 38.93C15.4781 38.6033 16.1454 38.44 16.8921 38.44C17.6201 38.44 18.2688 38.5987 18.8381 38.916C19.4074 39.2333 19.8554 39.6813 20.1821 40.26C20.5088 40.8387 20.6721 41.52 20.6721 42.304C20.6721 42.3787 20.6674 42.4627 20.6581 42.556C20.6581 42.6493 20.6534 42.738 20.6441 42.822H14.4141V41.66H19.7201L19.0341 42.024C19.0434 41.5947 18.9548 41.2167 18.7681 40.89C18.5814 40.5633 18.3248 40.3067 17.9981 40.12C17.6808 39.9333 17.3121 39.84 16.8921 39.84C16.4628 39.84 16.0848 39.9333 15.7581 40.12C15.4408 40.3067 15.1888 40.568 15.0021 40.904C14.8248 41.2307 14.7361 41.618 14.7361 42.066V42.346C14.7361 42.794 14.8388 43.1907 15.0441 43.536C15.2494 43.8813 15.5388 44.1473 15.9121 44.334C16.2854 44.5207 16.7148 44.614 17.2001 44.614C17.6201 44.614 17.9981 44.5487 18.3341 44.418C18.6701 44.2873 18.9688 44.082 19.2301 43.802L20.1681 44.88C19.8321 45.272 19.4074 45.5753 18.8941 45.79C18.3901 45.9953 17.8114 46.098 17.1581 46.098ZM30.9262 46.14C30.1796 46.14 29.4842 46.0187 28.8402 45.776C28.2056 45.524 27.6502 45.174 27.1742 44.726C26.7076 44.2687 26.3436 43.732 26.0822 43.116C25.8209 42.5 25.6902 41.828 25.6902 41.1C25.6902 40.372 25.8209 39.7 26.0822 39.084C26.3436 38.468 26.7122 37.936 27.1882 37.488C27.6642 37.0307 28.2196 36.6807 28.8542 36.438C29.4889 36.186 30.1842 36.06 30.9402 36.06C31.7429 36.06 32.4756 36.2 33.1382 36.48C33.8009 36.7507 34.3609 37.1567 34.8182 37.698L33.6422 38.804C33.2876 38.4213 32.8909 38.1367 32.4522 37.95C32.0136 37.754 31.5376 37.656 31.0242 37.656C30.5109 37.656 30.0396 37.74 29.6102 37.908C29.1902 38.076 28.8216 38.314 28.5042 38.622C28.1962 38.93 27.9536 39.294 27.7762 39.714C27.6082 40.134 27.5242 40.596 27.5242 41.1C27.5242 41.604 27.6082 42.066 27.7762 42.486C27.9536 42.906 28.1962 43.27 28.5042 43.578C28.8216 43.886 29.1902 44.124 29.6102 44.292C30.0396 44.46 30.5109 44.544 31.0242 44.544C31.5376 44.544 32.0136 44.4507 32.4522 44.264C32.8909 44.068 33.2876 43.774 33.6422 43.382L34.8182 44.502C34.3609 45.034 33.8009 45.44 33.1382 45.72C32.4756 46 31.7382 46.14 30.9262 46.14ZM36.3941 46V38.524H38.0601V40.582L37.8641 39.98C38.0881 39.476 38.4381 39.0933 38.9141 38.832C39.3994 38.5707 40.0014 38.44 40.7201 38.44V40.106C40.6454 40.0873 40.5754 40.078 40.5101 40.078C40.4448 40.0687 40.3794 40.064 40.3141 40.064C39.6514 40.064 39.1241 40.26 38.7321 40.652C38.3401 41.0347 38.1441 41.6087 38.1441 42.374V46H36.3941ZM45.6503 46.098C44.8196 46.098 44.0916 45.9347 43.4663 45.608C42.8503 45.272 42.3696 44.8147 42.0243 44.236C41.6883 43.6573 41.5203 42.9993 41.5203 42.262C41.5203 41.5153 41.6836 40.8573 42.0103 40.288C42.3463 39.7093 42.8036 39.2567 43.3823 38.93C43.9703 38.6033 44.6376 38.44 45.3843 38.44C46.1123 38.44 46.7609 38.5987 47.3303 38.916C47.8996 39.2333 48.3476 39.6813 48.6743 40.26C49.0009 40.8387 49.1643 41.52 49.1643 42.304C49.1643 42.3787 49.1596 42.4627 49.1503 42.556C49.1503 42.6493 49.1456 42.738 49.1363 42.822H42.9063V41.66H48.2123L47.5263 42.024C47.5356 41.5947 47.4469 41.2167 47.2603 40.89C47.0736 40.5633 46.8169 40.3067 46.4903 40.12C46.1729 39.9333 45.8043 39.84 45.3843 39.84C44.9549 39.84 44.5769 39.9333 44.2503 40.12C43.9329 40.3067 43.6809 40.568 43.4943 40.904C43.3169 41.2307 43.2283 41.618 43.2283 42.066V42.346C43.2283 42.794 43.3309 43.1907 43.5363 43.536C43.7416 43.8813 44.0309 44.1473 44.4043 44.334C44.7776 44.5207 45.2069 44.614 45.6923 44.614C46.1123 44.614 46.4903 44.5487 46.8263 44.418C47.1623 44.2873 47.4609 44.082 47.7223 43.802L48.6603 44.88C48.3243 45.272 47.8996 45.5753 47.3863 45.79C46.8823 45.9953 46.3036 46.098 45.6503 46.098ZM55.2462 46V44.488L55.1482 44.166V41.52C55.1482 41.0067 54.9942 40.61 54.6862 40.33C54.3782 40.0407 53.9115 39.896 53.2862 39.896C52.8662 39.896 52.4509 39.9613 52.0402 40.092C51.6389 40.2227 51.2982 40.4047 51.0182 40.638L50.3322 39.364C50.7335 39.056 51.2095 38.8273 51.7602 38.678C52.3202 38.5193 52.8989 38.44 53.4962 38.44C54.5789 38.44 55.4142 38.7013 56.0022 39.224C56.5995 39.7373 56.8982 40.5353 56.8982 41.618V46H55.2462ZM52.8942 46.098C52.3342 46.098 51.8442 46.0047 51.4242 45.818C51.0042 45.622 50.6775 45.356 50.4442 45.02C50.2202 44.6747 50.1082 44.2873 50.1082 43.858C50.1082 43.438 50.2062 43.06 50.4022 42.724C50.6075 42.388 50.9389 42.122 51.3962 41.926C51.8535 41.73 52.4602 41.632 53.2162 41.632H55.3862V42.794H53.3422C52.7449 42.794 52.3435 42.892 52.1382 43.088C51.9329 43.2747 51.8302 43.508 51.8302 43.788C51.8302 44.1053 51.9562 44.3573 52.2082 44.544C52.4602 44.7307 52.8102 44.824 53.2582 44.824C53.6875 44.824 54.0702 44.726 54.4062 44.53C54.7515 44.334 54.9989 44.0447 55.1482 43.662L55.4422 44.712C55.2742 45.1507 54.9709 45.4913 54.5322 45.734C54.1029 45.9767 53.5569 46.098 52.8942 46.098ZM68.5801 38.44C69.1774 38.44 69.7048 38.5567 70.1621 38.79C70.6288 39.0233 70.9928 39.3827 71.2541 39.868C71.5154 40.344 71.6461 40.96 71.6461 41.716V46H69.8961V41.94C69.8961 41.2773 69.7514 40.7827 69.4621 40.456C69.1728 40.1293 68.7574 39.966 68.2161 39.966C67.8334 39.966 67.4928 40.05 67.1941 40.218C66.9048 40.386 66.6761 40.6333 66.5081 40.96C66.3494 41.2867 66.2701 41.702 66.2701 42.206V46H64.5201V41.94C64.5201 41.2773 64.3754 40.7827 64.0861 40.456C63.7968 40.1293 63.3814 39.966 62.8401 39.966C62.4574 39.966 62.1168 40.05 61.8181 40.218C61.5288 40.386 61.3001 40.6333 61.1321 40.96C60.9734 41.2867 60.8941 41.702 60.8941 42.206V46H59.1441V38.524H60.8101V40.512L60.5161 39.924C60.7681 39.4387 61.1321 39.07 61.6081 38.818C62.0934 38.566 62.6441 38.44 63.2601 38.44C63.9601 38.44 64.5668 38.6127 65.0801 38.958C65.6028 39.3033 65.9481 39.826 66.1161 40.526L65.4301 40.288C65.6728 39.728 66.0741 39.28 66.6341 38.944C67.1941 38.608 67.8428 38.44 68.5801 38.44ZM82.5115 46.14C81.7462 46.14 81.0415 46.014 80.3975 45.762C79.7535 45.51 79.1935 45.16 78.7175 44.712C78.2415 44.2547 77.8728 43.7227 77.6115 43.116C77.3502 42.5 77.2195 41.828 77.2195 41.1C77.2195 40.372 77.3502 39.7047 77.6115 39.098C77.8728 38.482 78.2415 37.95 78.7175 37.502C79.1935 37.0447 79.7535 36.69 80.3975 36.438C81.0415 36.186 81.7415 36.06 82.4975 36.06C83.2628 36.06 83.9628 36.186 84.5975 36.438C85.2415 36.69 85.8015 37.0447 86.2775 37.502C86.7535 37.95 87.1222 38.482 87.3835 39.098C87.6448 39.7047 87.7755 40.372 87.7755 41.1C87.7755 41.828 87.6448 42.5 87.3835 43.116C87.1222 43.732 86.7535 44.264 86.2775 44.712C85.8015 45.16 85.2415 45.51 84.5975 45.762C83.9628 46.014 83.2675 46.14 82.5115 46.14ZM82.4975 44.544C82.9922 44.544 83.4495 44.46 83.8695 44.292C84.2895 44.124 84.6535 43.886 84.9615 43.578C85.2695 43.2607 85.5075 42.8967 85.6755 42.486C85.8528 42.066 85.9415 41.604 85.9415 41.1C85.9415 40.596 85.8528 40.1387 85.6755 39.728C85.5075 39.308 85.2695 38.944 84.9615 38.636C84.6535 38.3187 84.2895 38.076 83.8695 37.908C83.4495 37.74 82.9922 37.656 82.4975 37.656C82.0028 37.656 81.5455 37.74 81.1255 37.908C80.7148 38.076 80.3508 38.3187 80.0335 38.636C79.7255 38.944 79.4828 39.308 79.3055 39.728C79.1375 40.1387 79.0535 40.596 79.0535 41.1C79.0535 41.5947 79.1375 42.052 79.3055 42.472C79.4828 42.892 79.7255 43.2607 80.0335 43.578C80.3415 43.886 80.7055 44.124 81.1255 44.292C81.5455 44.46 82.0028 44.544 82.4975 44.544ZM91.5247 46L88.3187 38.524H90.1387L92.8967 45.118H92.0007L94.8567 38.524H96.5367L93.3307 46H91.5247ZM102.004 46V44.488L101.906 44.166V41.52C101.906 41.0067 101.752 40.61 101.444 40.33C101.136 40.0407 100.669 39.896 100.044 39.896C99.624 39.896 99.2087 39.9613 98.798 40.092C98.3967 40.2227 98.056 40.4047 97.776 40.638L97.09 39.364C97.4913 39.056 97.9673 38.8273 98.518 38.678C99.078 38.5193 99.6567 38.44 100.254 38.44C101.337 38.44 102.172 38.7013 102.76 39.224C103.357 39.7373 103.656 40.5353 103.656 41.618V46H102.004ZM99.652 46.098C99.092 46.098 98.602 46.0047 98.182 45.818C97.762 45.622 97.4353 45.356 97.202 45.02C96.978 44.6747 96.866 44.2873 96.866 43.858C96.866 43.438 96.964 43.06 97.16 42.724C97.3653 42.388 97.6967 42.122 98.154 41.926C98.6113 41.73 99.218 41.632 99.974 41.632H102.144V42.794H100.1C99.5027 42.794 99.1013 42.892 98.896 43.088C98.6907 43.2747 98.588 43.508 98.588 43.788C98.588 44.1053 98.714 44.3573 98.966 44.544C99.218 44.7307 99.568 44.824 100.016 44.824C100.445 44.824 100.828 44.726 101.164 44.53C101.509 44.334 101.757 44.0447 101.906 43.662L102.2 44.712C102.032 45.1507 101.729 45.4913 101.29 45.734C100.861 45.9767 100.315 46.098 99.652 46.098ZM105.902 46V35.612H107.652V46H105.902Z" fill="black"/>
<path d="M2.96 70.02H6.56V70.87H2.96V70.02ZM3.05 73.13H7.13V74H2.05V67H6.99V67.87H3.05V73.13ZM8.85133 76C8.59799 76 8.35133 75.9567 8.11133 75.87C7.87133 75.79 7.66466 75.67 7.49133 75.51L7.90133 74.79C8.03466 74.9167 8.18133 75.0133 8.34133 75.08C8.50133 75.1467 8.67133 75.18 8.85133 75.18C9.08466 75.18 9.27799 75.12 9.43133 75C9.58466 74.88 9.72799 74.6667 9.86133 74.36L10.1913 73.63L10.2913 73.51L12.3713 68.7H13.3113L10.7413 74.53C10.588 74.9033 10.4147 75.1967 10.2213 75.41C10.0347 75.6233 9.82799 75.7733 9.60133 75.86C9.37466 75.9533 9.12466 76 8.85133 76ZM10.1113 74.17L7.69133 68.7H8.69133L10.7513 73.42L10.1113 74.17ZM16.5208 74.06C15.9541 74.06 15.4541 73.9433 15.0208 73.71C14.5941 73.4767 14.2608 73.1567 14.0208 72.75C13.7874 72.3433 13.6708 71.8767 13.6708 71.35C13.6708 70.8233 13.7841 70.3567 14.0108 69.95C14.2441 69.5433 14.5608 69.2267 14.9608 69C15.3674 68.7667 15.8241 68.65 16.3308 68.65C16.8441 68.65 17.2974 68.7633 17.6908 68.99C18.0841 69.2167 18.3908 69.5367 18.6108 69.95C18.8374 70.3567 18.9508 70.8333 18.9508 71.38C18.9508 71.42 18.9474 71.4667 18.9408 71.52C18.9408 71.5733 18.9374 71.6233 18.9308 71.67H14.4208V70.98H18.4308L18.0408 71.22C18.0474 70.88 17.9774 70.5767 17.8308 70.31C17.6841 70.0433 17.4808 69.8367 17.2208 69.69C16.9674 69.5367 16.6708 69.46 16.3308 69.46C15.9974 69.46 15.7008 69.5367 15.4408 69.69C15.1808 69.8367 14.9774 70.0467 14.8308 70.32C14.6841 70.5867 14.6108 70.8933 14.6108 71.24V71.4C14.6108 71.7533 14.6908 72.07 14.8508 72.35C15.0174 72.6233 15.2474 72.8367 15.5408 72.99C15.8341 73.1433 16.1708 73.22 16.5508 73.22C16.8641 73.22 17.1474 73.1667 17.4008 73.06C17.6608 72.9533 17.8874 72.7933 18.0808 72.58L18.6108 73.2C18.3708 73.48 18.0708 73.6933 17.7108 73.84C17.3574 73.9867 16.9608 74.06 16.5208 74.06ZM20.1415 71.67V70.84H22.8315V71.67H20.1415ZM26.8173 74.06C26.2773 74.06 25.7939 73.9433 25.3673 73.71C24.9473 73.4767 24.6173 73.1567 24.3773 72.75C24.1373 72.3433 24.0173 71.8767 24.0173 71.35C24.0173 70.8233 24.1373 70.3567 24.3773 69.95C24.6173 69.5433 24.9473 69.2267 25.3673 69C25.7939 68.7667 26.2773 68.65 26.8173 68.65C27.2973 68.65 27.7239 68.7467 28.0973 68.94C28.4773 69.1267 28.7706 69.4067 28.9773 69.78L28.2473 70.25C28.0739 69.99 27.8606 69.8 27.6073 69.68C27.3606 69.5533 27.0939 69.49 26.8073 69.49C26.4606 69.49 26.1506 69.5667 25.8773 69.72C25.6039 69.8733 25.3873 70.09 25.2273 70.37C25.0673 70.6433 24.9873 70.97 24.9873 71.35C24.9873 71.73 25.0673 72.06 25.2273 72.34C25.3873 72.62 25.6039 72.8367 25.8773 72.99C26.1506 73.1433 26.4606 73.22 26.8073 73.22C27.0939 73.22 27.3606 73.16 27.6073 73.04C27.8606 72.9133 28.0739 72.72 28.2473 72.46L28.9773 72.92C28.7706 73.2867 28.4773 73.57 28.0973 73.77C27.7239 73.9633 27.2973 74.06 26.8173 74.06ZM33.6102 74V72.88L33.5602 72.67V70.76C33.5602 70.3533 33.4402 70.04 33.2002 69.82C32.9668 69.5933 32.6135 69.48 32.1402 69.48C31.8268 69.48 31.5202 69.5333 31.2202 69.64C30.9202 69.74 30.6668 69.8767 30.4602 70.05L30.0602 69.33C30.3335 69.11 30.6602 68.9433 31.0402 68.83C31.4268 68.71 31.8302 68.65 32.2502 68.65C32.9768 68.65 33.5368 68.8267 33.9302 69.18C34.3235 69.5333 34.5202 70.0733 34.5202 70.8V74H33.6102ZM31.8702 74.06C31.4768 74.06 31.1302 73.9933 30.8302 73.86C30.5368 73.7267 30.3102 73.5433 30.1502 73.31C29.9902 73.07 29.9102 72.8 29.9102 72.5C29.9102 72.2133 29.9768 71.9533 30.1102 71.72C30.2502 71.4867 30.4735 71.3 30.7802 71.16C31.0935 71.02 31.5135 70.95 32.0402 70.95H33.7202V71.64H32.0802C31.6002 71.64 31.2768 71.72 31.1102 71.88C30.9435 72.04 30.8602 72.2333 30.8602 72.46C30.8602 72.72 30.9635 72.93 31.1702 73.09C31.3768 73.2433 31.6635 73.32 32.0302 73.32C32.3902 73.32 32.7035 73.24 32.9702 73.08C33.2435 72.92 33.4402 72.6867 33.5602 72.38L33.7502 73.04C33.6235 73.3533 33.4002 73.6033 33.0802 73.79C32.7602 73.97 32.3568 74.06 31.8702 74.06ZM38.2167 74.06C37.6834 74.06 37.2701 73.9167 36.9767 73.63C36.6834 73.3433 36.5367 72.9333 36.5367 72.4V67.54H37.4967V72.36C37.4967 72.6467 37.5667 72.8667 37.7067 73.02C37.8534 73.1733 38.0601 73.25 38.3267 73.25C38.6267 73.25 38.8767 73.1667 39.0767 73L39.3767 73.69C39.2301 73.8167 39.0534 73.91 38.8467 73.97C38.6467 74.03 38.4367 74.06 38.2167 74.06ZM35.6367 69.49V68.7H39.0167V69.49H35.6367ZM42.7716 74.06C42.2316 74.06 41.7482 73.9433 41.3216 73.71C40.9016 73.4767 40.5716 73.1567 40.3316 72.75C40.0916 72.3433 39.9716 71.8767 39.9716 71.35C39.9716 70.8233 40.0916 70.3567 40.3316 69.95C40.5716 69.5433 40.9016 69.2267 41.3216 69C41.7482 68.7667 42.2316 68.65 42.7716 68.65C43.2516 68.65 43.6782 68.7467 44.0516 68.94C44.4316 69.1267 44.7249 69.4067 44.9316 69.78L44.2016 70.25C44.0282 69.99 43.8149 69.8 43.5616 69.68C43.3149 69.5533 43.0482 69.49 42.7616 69.49C42.4149 69.49 42.1049 69.5667 41.8316 69.72C41.5582 69.8733 41.3416 70.09 41.1816 70.37C41.0216 70.6433 40.9416 70.97 40.9416 71.35C40.9416 71.73 41.0216 72.06 41.1816 72.34C41.3416 72.62 41.5582 72.8367 41.8316 72.99C42.1049 73.1433 42.4149 73.22 42.7616 73.22C43.0482 73.22 43.3149 73.16 43.5616 73.04C43.8149 72.9133 44.0282 72.72 44.2016 72.46L44.9316 72.92C44.7249 73.2867 44.4316 73.57 44.0516 73.77C43.6782 73.9633 43.2516 74.06 42.7716 74.06ZM49.0361 68.65C49.4694 68.65 49.8494 68.7333 50.1761 68.9C50.5094 69.0667 50.7694 69.32 50.9561 69.66C51.1428 70 51.2361 70.43 51.2361 70.95V74H50.2761V71.06C50.2761 70.5467 50.1494 70.16 49.8961 69.9C49.6494 69.64 49.2994 69.51 48.8461 69.51C48.5061 69.51 48.2094 69.5767 47.9561 69.71C47.7028 69.8433 47.5061 70.04 47.3661 70.3C47.2328 70.56 47.1661 70.8833 47.1661 71.27V74H46.2061V66.58H47.1661V70.13L46.9761 69.75C47.1494 69.4033 47.4161 69.1333 47.7761 68.94C48.1361 68.7467 48.5561 68.65 49.0361 68.65ZM53.1127 74V68.7H54.0727V74H53.1127ZM53.5927 67.68C53.4061 67.68 53.2494 67.62 53.1227 67.5C53.0027 67.38 52.9427 67.2333 52.9427 67.06C52.9427 66.88 53.0027 66.73 53.1227 66.61C53.2494 66.49 53.4061 66.43 53.5927 66.43C53.7794 66.43 53.9327 66.49 54.0527 66.61C54.1794 66.7233 54.2427 66.8667 54.2427 67.04C54.2427 67.22 54.1827 67.3733 54.0627 67.5C53.9427 67.62 53.7861 67.68 53.5927 67.68ZM58.8357 68.65C59.269 68.65 59.649 68.7333 59.9757 68.9C60.309 69.0667 60.569 69.32 60.7557 69.66C60.9424 70 61.0357 70.43 61.0357 70.95V74H60.0757V71.06C60.0757 70.5467 59.949 70.16 59.6957 69.9C59.449 69.64 59.099 69.51 58.6457 69.51C58.3057 69.51 58.009 69.5767 57.7557 69.71C57.5024 69.8433 57.3057 70.04 57.1657 70.3C57.0324 70.56 56.9657 70.8833 56.9657 71.27V74H56.0057V68.7H56.9257V70.13L56.7757 69.75C56.949 69.4033 57.2157 69.1333 57.5757 68.94C57.9357 68.7467 58.3557 68.65 58.8357 68.65ZM65.2323 76C64.7457 76 64.2723 75.93 63.8123 75.79C63.359 75.6567 62.989 75.4633 62.7023 75.21L63.1623 74.47C63.409 74.6833 63.7123 74.85 64.0723 74.97C64.4323 75.0967 64.809 75.16 65.2023 75.16C65.829 75.16 66.289 75.0133 66.5823 74.72C66.8757 74.4267 67.0223 73.98 67.0223 73.38V72.26L67.1223 71.21L67.0723 70.15V68.7H67.9823V73.28C67.9823 74.2133 67.749 74.9 67.2823 75.34C66.8157 75.78 66.1323 76 65.2323 76ZM65.1123 73.78C64.599 73.78 64.139 73.6733 63.7323 73.46C63.3323 73.24 63.0123 72.9367 62.7723 72.55C62.539 72.1633 62.4223 71.7167 62.4223 71.21C62.4223 70.6967 62.539 70.25 62.7723 69.87C63.0123 69.4833 63.3323 69.1833 63.7323 68.97C64.139 68.7567 64.599 68.65 65.1123 68.65C65.5657 68.65 65.979 68.7433 66.3523 68.93C66.7257 69.11 67.0223 69.39 67.2423 69.77C67.469 70.15 67.5823 70.63 67.5823 71.21C67.5823 71.7833 67.469 72.26 67.2423 72.64C67.0223 73.02 66.7257 73.3067 66.3523 73.5C65.979 73.6867 65.5657 73.78 65.1123 73.78ZM65.2223 72.94C65.5757 72.94 65.889 72.8667 66.1623 72.72C66.4357 72.5733 66.649 72.37 66.8023 72.11C66.9623 71.85 67.0423 71.55 67.0423 71.21C67.0423 70.87 66.9623 70.57 66.8023 70.31C66.649 70.05 66.4357 69.85 66.1623 69.71C65.889 69.5633 65.5757 69.49 65.2223 69.49C64.869 69.49 64.5523 69.5633 64.2723 69.71C63.999 69.85 63.7823 70.05 63.6223 70.31C63.469 70.57 63.3923 70.87 63.3923 71.21C63.3923 71.55 63.469 71.85 63.6223 72.11C63.7823 72.37 63.999 72.5733 64.2723 72.72C64.5523 72.8667 64.869 72.94 65.2223 72.94ZM72.8422 74V67H73.8422V74H72.8422ZM76.0379 74V67H76.8579L79.9979 72.29H79.5579L82.6579 67H83.4779L83.4879 74H82.5279L82.5179 68.51H82.7479L79.9879 73.15H79.5279L76.7479 68.51H76.9979V74H76.0379ZM85.6887 74V67H86.6887V73.13H90.4787V74H85.6887ZM96.6417 74.06C96.1084 74.06 95.635 73.9433 95.2217 73.71C94.8084 73.4767 94.4817 73.1567 94.2417 72.75C94.0017 72.3367 93.8817 71.87 93.8817 71.35C93.8817 70.8233 94.0017 70.3567 94.2417 69.95C94.4817 69.5433 94.8084 69.2267 95.2217 69C95.635 68.7667 96.1084 68.65 96.6417 68.65C97.1684 68.65 97.6384 68.7667 98.0517 69C98.4717 69.2267 98.7984 69.5433 99.0317 69.95C99.2717 70.35 99.3917 70.8167 99.3917 71.35C99.3917 71.8767 99.2717 72.3433 99.0317 72.75C98.7984 73.1567 98.4717 73.4767 98.0517 73.71C97.6384 73.9433 97.1684 74.06 96.6417 74.06ZM96.6417 73.22C96.9817 73.22 97.285 73.1433 97.5517 72.99C97.825 72.8367 98.0384 72.62 98.1917 72.34C98.345 72.0533 98.4217 71.7233 98.4217 71.35C98.4217 70.97 98.345 70.6433 98.1917 70.37C98.0384 70.09 97.825 69.8733 97.5517 69.72C97.285 69.5667 96.9817 69.49 96.6417 69.49C96.3017 69.49 95.9984 69.5667 95.7317 69.72C95.465 69.8733 95.2517 70.09 95.0917 70.37C94.9317 70.6433 94.8517 70.97 94.8517 71.35C94.8517 71.7233 94.9317 72.0533 95.0917 72.34C95.2517 72.62 95.465 72.8367 95.7317 72.99C95.9984 73.1433 96.3017 73.22 96.6417 73.22ZM102.063 74L99.7429 68.7H100.743L102.803 73.5H102.323L104.423 68.7H105.363L103.043 74H102.063ZM109.483 74V72.88L109.433 72.67V70.76C109.433 70.3533 109.313 70.04 109.073 69.82C108.839 69.5933 108.486 69.48 108.013 69.48C107.699 69.48 107.393 69.5333 107.093 69.64C106.793 69.74 106.539 69.8767 106.333 70.05L105.933 69.33C106.206 69.11 106.533 68.9433 106.913 68.83C107.299 68.71 107.703 68.65 108.123 68.65C108.849 68.65 109.409 68.8267 109.803 69.18C110.196 69.5333 110.393 70.0733 110.393 70.8V74H109.483ZM107.743 74.06C107.349 74.06 107.003 73.9933 106.703 73.86C106.409 73.7267 106.183 73.5433 106.023 73.31C105.863 73.07 105.783 72.8 105.783 72.5C105.783 72.2133 105.849 71.9533 105.983 71.72C106.123 71.4867 106.346 71.3 106.653 71.16C106.966 71.02 107.386 70.95 107.913 70.95H109.593V71.64H107.953C107.473 71.64 107.149 71.72 106.983 71.88C106.816 72.04 106.733 72.2333 106.733 72.46C106.733 72.72 106.836 72.93 107.043 73.09C107.249 73.2433 107.536 73.32 107.903 73.32C108.263 73.32 108.576 73.24 108.843 73.08C109.116 72.92 109.313 72.6867 109.433 72.38L109.623 73.04C109.496 73.3533 109.273 73.6033 108.953 73.79C108.633 73.97 108.229 74.06 107.743 74.06ZM112.269 74V66.58H113.229V74H112.269ZM119.768 74.06C119.235 74.06 118.821 73.9167 118.528 73.63C118.235 73.3433 118.088 72.9333 118.088 72.4V67.54H119.048V72.36C119.048 72.6467 119.118 72.8667 119.258 73.02C119.405 73.1733 119.611 73.25 119.878 73.25C120.178 73.25 120.428 73.1667 120.628 73L120.928 73.69C120.781 73.8167 120.605 73.91 120.398 73.97C120.198 74.03 119.988 74.06 119.768 74.06ZM117.188 69.49V68.7H120.568V69.49H117.188ZM124.419 74.06C123.965 74.06 123.565 73.9767 123.219 73.81C122.879 73.6433 122.612 73.39 122.419 73.05C122.232 72.7033 122.139 72.27 122.139 71.75V68.7H123.099V71.64C123.099 72.16 123.222 72.55 123.469 72.81C123.722 73.07 124.075 73.2 124.529 73.2C124.862 73.2 125.152 73.1333 125.399 73C125.645 72.86 125.835 72.66 125.969 72.4C126.102 72.1333 126.169 71.8133 126.169 71.44V68.7H127.129V74H126.219V72.57L126.369 72.95C126.195 73.3033 125.935 73.5767 125.589 73.77C125.242 73.9633 124.852 74.06 124.419 74.06ZM131.866 74.06C131.413 74.06 131.003 73.96 130.636 73.76C130.276 73.5533 129.989 73.25 129.776 72.85C129.569 72.45 129.466 71.95 129.466 71.35C129.466 70.75 129.573 70.25 129.786 69.85C130.006 69.45 130.296 69.15 130.656 68.95C131.023 68.75 131.426 68.65 131.866 68.65C132.386 68.65 132.846 68.7633 133.246 68.99C133.646 69.2167 133.963 69.5333 134.196 69.94C134.429 70.34 134.546 70.81 134.546 71.35C134.546 71.89 134.429 72.3633 134.196 72.77C133.963 73.1767 133.646 73.4933 133.246 73.72C132.846 73.9467 132.386 74.06 131.866 74.06ZM129.056 74V66.58H130.016V70.11L129.916 71.34L129.976 72.57V74H129.056ZM131.786 73.22C132.126 73.22 132.429 73.1433 132.696 72.99C132.969 72.8367 133.183 72.62 133.336 72.34C133.496 72.0533 133.576 71.7233 133.576 71.35C133.576 70.97 133.496 70.6433 133.336 70.37C133.183 70.09 132.969 69.8733 132.696 69.72C132.429 69.5667 132.126 69.49 131.786 69.49C131.453 69.49 131.149 69.5667 130.876 69.72C130.609 69.8733 130.396 70.09 130.236 70.37C130.083 70.6433 130.006 70.97 130.006 71.35C130.006 71.7233 130.083 72.0533 130.236 72.34C130.396 72.62 130.609 72.8367 130.876 72.99C131.149 73.1433 131.453 73.22 131.786 73.22ZM137.493 74.06C137.053 74.06 136.633 74 136.233 73.88C135.839 73.76 135.529 73.6133 135.303 73.44L135.703 72.68C135.929 72.8333 136.209 72.9633 136.543 73.07C136.876 73.1767 137.216 73.23 137.562 73.23C138.009 73.23 138.329 73.1667 138.523 73.04C138.723 72.9133 138.823 72.7367 138.823 72.51C138.823 72.3433 138.763 72.2133 138.643 72.12C138.523 72.0267 138.363 71.9567 138.163 71.91C137.969 71.8633 137.753 71.8233 137.513 71.79C137.273 71.75 137.033 71.7033 136.793 71.65C136.553 71.59 136.333 71.51 136.133 71.41C135.933 71.3033 135.773 71.16 135.653 70.98C135.533 70.7933 135.473 70.5467 135.473 70.24C135.473 69.92 135.563 69.64 135.743 69.4C135.923 69.16 136.176 68.9767 136.503 68.85C136.836 68.7167 137.229 68.65 137.683 68.65C138.029 68.65 138.379 68.6933 138.733 68.78C139.093 68.86 139.386 68.9767 139.613 69.13L139.203 69.89C138.963 69.73 138.713 69.62 138.453 69.56C138.193 69.5 137.933 69.47 137.673 69.47C137.253 69.47 136.939 69.54 136.733 69.68C136.526 69.8133 136.423 69.9867 136.423 70.2C136.423 70.38 136.483 70.52 136.603 70.62C136.729 70.7133 136.889 70.7867 137.083 70.84C137.283 70.8933 137.503 70.94 137.743 70.98C137.983 71.0133 138.223 71.06 138.463 71.12C138.703 71.1733 138.919 71.25 139.113 71.35C139.313 71.45 139.473 71.59 139.593 71.77C139.719 71.95 139.783 72.19 139.783 72.49C139.783 72.81 139.689 73.0867 139.503 73.32C139.316 73.5533 139.053 73.7367 138.713 73.87C138.373 73.9967 137.966 74.06 137.493 74.06ZM3.73 88.06C3.19667 88.06 2.78333 87.9167 2.49 87.63C2.19667 87.3433 2.05 86.9333 2.05 86.4V81.54H3.01V86.36C3.01 86.6467 3.08 86.8667 3.22 87.02C3.36667 87.1733 3.57333 87.25 3.84 87.25C4.14 87.25 4.39 87.1667 4.59 87L4.89 87.69C4.74333 87.8167 4.56667 87.91 4.36 87.97C4.16 88.03 3.95 88.06 3.73 88.06ZM1.15 83.49V82.7H4.53V83.49H1.15ZM8.98063 82.65C9.41396 82.65 9.79396 82.7333 10.1206 82.9C10.454 83.0667 10.714 83.32 10.9006 83.66C11.0873 84 11.1806 84.43 11.1806 84.95V88H10.2206V85.06C10.2206 84.5467 10.094 84.16 9.84062 83.9C9.59396 83.64 9.24396 83.51 8.79063 83.51C8.45063 83.51 8.15396 83.5767 7.90062 83.71C7.64729 83.8433 7.45063 84.04 7.31063 84.3C7.17729 84.56 7.11062 84.8833 7.11062 85.27V88H6.15062V80.58H7.11062V84.13L6.92063 83.75C7.09396 83.4033 7.36062 83.1333 7.72063 82.94C8.08063 82.7467 8.50063 82.65 8.98063 82.65ZM16.3473 88V86.88L16.2973 86.67V84.76C16.2973 84.3533 16.1773 84.04 15.9373 83.82C15.7039 83.5933 15.3506 83.48 14.8773 83.48C14.5639 83.48 14.2573 83.5333 13.9573 83.64C13.6573 83.74 13.4039 83.8767 13.1973 84.05L12.7973 83.33C13.0706 83.11 13.3973 82.9433 13.7773 82.83C14.1639 82.71 14.5673 82.65 14.9873 82.65C15.7139 82.65 16.2739 82.8267 16.6673 83.18C17.0606 83.5333 17.2573 84.0733 17.2573 84.8V88H16.3473ZM14.6073 88.06C14.2139 88.06 13.8673 87.9933 13.5673 87.86C13.2739 87.7267 13.0473 87.5433 12.8873 87.31C12.7273 87.07 12.6473 86.8 12.6473 86.5C12.6473 86.2133 12.7139 85.9533 12.8473 85.72C12.9873 85.4867 13.2106 85.3 13.5173 85.16C13.8306 85.02 14.2506 84.95 14.7773 84.95H16.4573V85.64H14.8173C14.3373 85.64 14.0139 85.72 13.8473 85.88C13.6806 86.04 13.5973 86.2333 13.5973 86.46C13.5973 86.72 13.7006 86.93 13.9073 87.09C14.1139 87.2433 14.4006 87.32 14.7673 87.32C15.1273 87.32 15.4406 87.24 15.7073 87.08C15.9806 86.92 16.1773 86.6867 16.2973 86.38L16.4873 87.04C16.3606 87.3533 16.1373 87.6033 15.8173 87.79C15.4973 87.97 15.0939 88.06 14.6073 88.06ZM20.9538 88.06C20.4205 88.06 20.0072 87.9167 19.7138 87.63C19.4205 87.3433 19.2738 86.9333 19.2738 86.4V81.54H20.2338V86.36C20.2338 86.6467 20.3038 86.8667 20.4438 87.02C20.5905 87.1733 20.7972 87.25 21.0638 87.25C21.3638 87.25 21.6138 87.1667 21.8138 87L22.1138 87.69C21.9672 87.8167 21.7905 87.91 21.5838 87.97C21.3838 88.03 21.1738 88.06 20.9538 88.06ZM18.3738 83.49V82.7H21.7538V83.49H18.3738ZM26.94 86.72L26.96 85.49L30.01 82.7H31.17L28.83 85L28.31 85.44L26.94 86.72ZM26.16 88V80.58H27.12V88H26.16ZM30.21 88L28.13 85.42L28.75 84.65L31.39 88H30.21ZM34.5673 88.06C34.0006 88.06 33.5006 87.9433 33.0673 87.71C32.6406 87.4767 32.3073 87.1567 32.0673 86.75C31.8339 86.3433 31.7173 85.8767 31.7173 85.35C31.7173 84.8233 31.8306 84.3567 32.0573 83.95C32.2906 83.5433 32.6073 83.2267 33.0073 83C33.4139 82.7667 33.8706 82.65 34.3773 82.65C34.8906 82.65 35.3439 82.7633 35.7373 82.99C36.1306 83.2167 36.4373 83.5367 36.6573 83.95C36.8839 84.3567 36.9973 84.8333 36.9973 85.38C36.9973 85.42 36.9939 85.4667 36.9873 85.52C36.9873 85.5733 36.9839 85.6233 36.9773 85.67H32.4673V84.98H36.4773L36.0873 85.22C36.0939 84.88 36.0239 84.5767 35.8773 84.31C35.7306 84.0433 35.5273 83.8367 35.2673 83.69C35.0139 83.5367 34.7173 83.46 34.3773 83.46C34.0439 83.46 33.7473 83.5367 33.4873 83.69C33.2273 83.8367 33.0239 84.0467 32.8773 84.32C32.7306 84.5867 32.6573 84.8933 32.6573 85.24V85.4C32.6573 85.7533 32.7373 86.07 32.8973 86.35C33.0639 86.6233 33.2939 86.8367 33.5873 86.99C33.8806 87.1433 34.2173 87.22 34.5973 87.22C34.9106 87.22 35.1939 87.1667 35.4473 87.06C35.7073 86.9533 35.9339 86.7933 36.1273 86.58L36.6573 87.2C36.4173 87.48 36.1173 87.6933 35.7573 87.84C35.4039 87.9867 35.0073 88.06 34.5673 88.06ZM40.7903 88.06C40.2236 88.06 39.7236 87.9433 39.2903 87.71C38.8636 87.4767 38.5303 87.1567 38.2903 86.75C38.057 86.3433 37.9403 85.8767 37.9403 85.35C37.9403 84.8233 38.0536 84.3567 38.2803 83.95C38.5136 83.5433 38.8303 83.2267 39.2303 83C39.637 82.7667 40.0936 82.65 40.6003 82.65C41.1136 82.65 41.567 82.7633 41.9603 82.99C42.3536 83.2167 42.6603 83.5367 42.8803 83.95C43.107 84.3567 43.2203 84.8333 43.2203 85.38C43.2203 85.42 43.217 85.4667 43.2103 85.52C43.2103 85.5733 43.207 85.6233 43.2003 85.67H38.6903V84.98H42.7003L42.3103 85.22C42.317 84.88 42.247 84.5767 42.1003 84.31C41.9536 84.0433 41.7503 83.8367 41.4903 83.69C41.237 83.5367 40.9403 83.46 40.6003 83.46C40.267 83.46 39.9703 83.5367 39.7103 83.69C39.4503 83.8367 39.247 84.0467 39.1003 84.32C38.9536 84.5867 38.8803 84.8933 38.8803 85.24V85.4C38.8803 85.7533 38.9603 86.07 39.1203 86.35C39.287 86.6233 39.517 86.8367 39.8103 86.99C40.1036 87.1433 40.4403 87.22 40.8203 87.22C41.1336 87.22 41.417 87.1667 41.6703 87.06C41.9303 86.9533 42.157 86.7933 42.3503 86.58L42.8803 87.2C42.6403 87.48 42.3403 87.6933 41.9803 87.84C41.627 87.9867 41.2303 88.06 40.7903 88.06ZM47.4634 88.06C47.0234 88.06 46.62 87.96 46.2534 87.76C45.8934 87.5533 45.6034 87.25 45.3834 86.85C45.17 86.45 45.0634 85.95 45.0634 85.35C45.0634 84.75 45.1667 84.25 45.3734 83.85C45.5867 83.45 45.8734 83.15 46.2334 82.95C46.6 82.75 47.01 82.65 47.4634 82.65C47.9834 82.65 48.4434 82.7633 48.8434 82.99C49.2434 83.2167 49.56 83.5333 49.7934 83.94C50.0267 84.34 50.1434 84.81 50.1434 85.35C50.1434 85.89 50.0267 86.3633 49.7934 86.77C49.56 87.1767 49.2434 87.4933 48.8434 87.72C48.4434 87.9467 47.9834 88.06 47.4634 88.06ZM44.6534 89.94V82.7H45.5734V84.13L45.5134 85.36L45.6134 86.59V89.94H44.6534ZM47.3834 87.22C47.7234 87.22 48.0267 87.1433 48.2934 86.99C48.5667 86.8367 48.78 86.62 48.9334 86.34C49.0934 86.0533 49.1734 85.7233 49.1734 85.35C49.1734 84.97 49.0934 84.6433 48.9334 84.37C48.78 84.09 48.5667 83.8733 48.2934 83.72C48.0267 83.5667 47.7234 83.49 47.3834 83.49C47.05 83.49 46.7467 83.5667 46.4734 83.72C46.2067 83.8733 45.9934 84.09 45.8334 84.37C45.68 84.6433 45.6034 84.97 45.6034 85.35C45.6034 85.7233 45.68 86.0533 45.8334 86.34C45.9934 86.62 46.2067 86.8367 46.4734 86.99C46.7467 87.1433 47.05 87.22 47.3834 87.22ZM56.7153 88.06C56.1486 88.06 55.6486 87.9433 55.2153 87.71C54.7886 87.4767 54.4553 87.1567 54.2153 86.75C53.982 86.3433 53.8653 85.8767 53.8653 85.35C53.8653 84.8233 53.9786 84.3567 54.2053 83.95C54.4386 83.5433 54.7553 83.2267 55.1553 83C55.562 82.7667 56.0186 82.65 56.5253 82.65C57.0386 82.65 57.492 82.7633 57.8853 82.99C58.2786 83.2167 58.5853 83.5367 58.8053 83.95C59.032 84.3567 59.1453 84.8333 59.1453 85.38C59.1453 85.42 59.142 85.4667 59.1353 85.52C59.1353 85.5733 59.132 85.6233 59.1253 85.67H54.6153V84.98H58.6253L58.2353 85.22C58.242 84.88 58.172 84.5767 58.0253 84.31C57.8786 84.0433 57.6753 83.8367 57.4153 83.69C57.162 83.5367 56.8653 83.46 56.5253 83.46C56.192 83.46 55.8953 83.5367 55.6353 83.69C55.3753 83.8367 55.172 84.0467 55.0253 84.32C54.8786 84.5867 54.8053 84.8933 54.8053 85.24V85.4C54.8053 85.7533 54.8853 86.07 55.0453 86.35C55.212 86.6233 55.442 86.8367 55.7353 86.99C56.0286 87.1433 56.3653 87.22 56.7453 87.22C57.0586 87.22 57.342 87.1667 57.5953 87.06C57.8553 86.9533 58.082 86.7933 58.2753 86.58L58.8053 87.2C58.5653 87.48 58.2653 87.6933 57.9053 87.84C57.552 87.9867 57.1553 88.06 56.7153 88.06ZM61.8707 88L59.5507 82.7H60.5507L62.6107 87.5H62.1307L64.2307 82.7H65.1707L62.8507 88H61.8707ZM68.3802 88.06C67.8135 88.06 67.3135 87.9433 66.8802 87.71C66.4535 87.4767 66.1202 87.1567 65.8802 86.75C65.6468 86.3433 65.5302 85.8767 65.5302 85.35C65.5302 84.8233 65.6435 84.3567 65.8702 83.95C66.1035 83.5433 66.4202 83.2267 66.8202 83C67.2268 82.7667 67.6835 82.65 68.1902 82.65C68.7035 82.65 69.1568 82.7633 69.5502 82.99C69.9435 83.2167 70.2502 83.5367 70.4702 83.95C70.6968 84.3567 70.8102 84.8333 70.8102 85.38C70.8102 85.42 70.8068 85.4667 70.8002 85.52C70.8002 85.5733 70.7968 85.6233 70.7902 85.67H66.2802V84.98H70.2902L69.9002 85.22C69.9068 84.88 69.8368 84.5767 69.6902 84.31C69.5435 84.0433 69.3402 83.8367 69.0802 83.69C68.8268 83.5367 68.5302 83.46 68.1902 83.46C67.8568 83.46 67.5602 83.5367 67.3002 83.69C67.0402 83.8367 66.8368 84.0467 66.6902 84.32C66.5435 84.5867 66.4702 84.8933 66.4702 85.24V85.4C66.4702 85.7533 66.5502 86.07 66.7102 86.35C66.8768 86.6233 67.1068 86.8367 67.4002 86.99C67.6935 87.1433 68.0302 87.22 68.4102 87.22C68.7235 87.22 69.0068 87.1667 69.2602 87.06C69.5202 86.9533 69.7468 86.7933 69.9402 86.58L70.4702 87.2C70.2302 87.48 69.9302 87.6933 69.5702 87.84C69.2168 87.9867 68.8202 88.06 68.3802 88.06ZM72.2432 88V82.7H73.1632V84.14L73.0732 83.78C73.2199 83.4133 73.4665 83.1333 73.8132 82.94C74.1599 82.7467 74.5865 82.65 75.0932 82.65V83.58C75.0532 83.5733 75.0132 83.57 74.9732 83.57C74.9399 83.57 74.9065 83.57 74.8732 83.57C74.3599 83.57 73.9532 83.7233 73.6532 84.03C73.3532 84.3367 73.2032 84.78 73.2032 85.36V88H72.2432ZM76.8213 90C76.5679 90 76.3213 89.9567 76.0813 89.87C75.8413 89.79 75.6346 89.67 75.4613 89.51L75.8713 88.79C76.0046 88.9167 76.1513 89.0133 76.3113 89.08C76.4713 89.1467 76.6413 89.18 76.8213 89.18C77.0546 89.18 77.2479 89.12 77.4013 89C77.5546 88.88 77.6979 88.6667 77.8313 88.36L78.1613 87.63L78.2613 87.51L80.3413 82.7H81.2813L78.7113 88.53C78.5579 88.9033 78.3846 89.1967 78.1913 89.41C78.0046 89.6233 77.7979 89.7733 77.5713 89.86C77.3446 89.9533 77.0946 90 76.8213 90ZM78.0813 88.17L75.6613 82.7H76.6613L78.7213 87.42L78.0813 88.17ZM86.5827 88.06C86.1427 88.06 85.7227 88 85.3227 87.88C84.9294 87.76 84.6194 87.6133 84.3927 87.44L84.7927 86.68C85.0194 86.8333 85.2994 86.9633 85.6327 87.07C85.9661 87.1767 86.3061 87.23 86.6527 87.23C87.0994 87.23 87.4194 87.1667 87.6127 87.04C87.8127 86.9133 87.9127 86.7367 87.9127 86.51C87.9127 86.3433 87.8527 86.2133 87.7327 86.12C87.6127 86.0267 87.4527 85.9567 87.2527 85.91C87.0594 85.8633 86.8427 85.8233 86.6027 85.79C86.3627 85.75 86.1227 85.7033 85.8827 85.65C85.6427 85.59 85.4227 85.51 85.2227 85.41C85.0227 85.3033 84.8627 85.16 84.7427 84.98C84.6227 84.7933 84.5627 84.5467 84.5627 84.24C84.5627 83.92 84.6527 83.64 84.8327 83.4C85.0127 83.16 85.2661 82.9767 85.5927 82.85C85.9261 82.7167 86.3194 82.65 86.7727 82.65C87.1194 82.65 87.4694 82.6933 87.8227 82.78C88.1827 82.86 88.4761 82.9767 88.7027 83.13L88.2927 83.89C88.0527 83.73 87.8027 83.62 87.5427 83.56C87.2827 83.5 87.0227 83.47 86.7627 83.47C86.3427 83.47 86.0294 83.54 85.8227 83.68C85.6161 83.8133 85.5127 83.9867 85.5127 84.2C85.5127 84.38 85.5727 84.52 85.6927 84.62C85.8194 84.7133 85.9794 84.7867 86.1727 84.84C86.3727 84.8933 86.5927 84.94 86.8327 84.98C87.0727 85.0133 87.3127 85.06 87.5527 85.12C87.7927 85.1733 88.0094 85.25 88.2027 85.35C88.4027 85.45 88.5627 85.59 88.6827 85.77C88.8094 85.95 88.8727 86.19 88.8727 86.49C88.8727 86.81 88.7794 87.0867 88.5927 87.32C88.4061 87.5533 88.1427 87.7367 87.8027 87.87C87.4627 87.9967 87.0561 88.06 86.5827 88.06ZM92.4825 88.06C91.9425 88.06 91.4592 87.9433 91.0325 87.71C90.6125 87.4767 90.2825 87.1567 90.0425 86.75C89.8025 86.3433 89.6825 85.8767 89.6825 85.35C89.6825 84.8233 89.8025 84.3567 90.0425 83.95C90.2825 83.5433 90.6125 83.2267 91.0325 83C91.4592 82.7667 91.9425 82.65 92.4825 82.65C92.9625 82.65 93.3892 82.7467 93.7625 82.94C94.1425 83.1267 94.4358 83.4067 94.6425 83.78L93.9125 84.25C93.7392 83.99 93.5258 83.8 93.2725 83.68C93.0258 83.5533 92.7592 83.49 92.4725 83.49C92.1258 83.49 91.8158 83.5667 91.5425 83.72C91.2692 83.8733 91.0525 84.09 90.8925 84.37C90.7325 84.6433 90.6525 84.97 90.6525 85.35C90.6525 85.73 90.7325 86.06 90.8925 86.34C91.0525 86.62 91.2692 86.8367 91.5425 86.99C91.8158 87.1433 92.1258 87.22 92.4725 87.22C92.7592 87.22 93.0258 87.16 93.2725 87.04C93.5258 86.9133 93.7392 86.72 93.9125 86.46L94.6425 86.92C94.4358 87.2867 94.1425 87.57 93.7625 87.77C93.3892 87.9633 92.9625 88.06 92.4825 88.06ZM98.1773 88.06C97.6439 88.06 97.1706 87.9433 96.7573 87.71C96.3439 87.4767 96.0173 87.1567 95.7773 86.75C95.5373 86.3367 95.4173 85.87 95.4173 85.35C95.4173 84.8233 95.5373 84.3567 95.7773 83.95C96.0173 83.5433 96.3439 83.2267 96.7573 83C97.1706 82.7667 97.6439 82.65 98.1773 82.65C98.7039 82.65 99.1739 82.7667 99.5873 83C100.007 83.2267 100.334 83.5433 100.567 83.95C100.807 84.35 100.927 84.8167 100.927 85.35C100.927 85.8767 100.807 86.3433 100.567 86.75C100.334 87.1567 100.007 87.4767 99.5873 87.71C99.1739 87.9433 98.7039 88.06 98.1773 88.06ZM98.1773 87.22C98.5173 87.22 98.8206 87.1433 99.0873 86.99C99.3606 86.8367 99.5739 86.62 99.7273 86.34C99.8806 86.0533 99.9573 85.7233 99.9573 85.35C99.9573 84.97 99.8806 84.6433 99.7273 84.37C99.5739 84.09 99.3606 83.8733 99.0873 83.72C98.8206 83.5667 98.5173 83.49 98.1773 83.49C97.8373 83.49 97.5339 83.5667 97.2673 83.72C97.0006 83.8733 96.7873 84.09 96.6273 84.37C96.4673 84.6433 96.3873 84.97 96.3873 85.35C96.3873 85.7233 96.4673 86.0533 96.6273 86.34C96.7873 86.62 97.0006 86.8367 97.2673 86.99C97.5339 87.1433 97.8373 87.22 98.1773 87.22ZM104.625 88.06C104.092 88.06 103.618 87.9433 103.205 87.71C102.792 87.4767 102.465 87.1567 102.225 86.75C101.985 86.3367 101.865 85.87 101.865 85.35C101.865 84.8233 101.985 84.3567 102.225 83.95C102.465 83.5433 102.792 83.2267 103.205 83C103.618 82.7667 104.092 82.65 104.625 82.65C105.152 82.65 105.622 82.7667 106.035 83C106.455 83.2267 106.782 83.5433 107.015 83.95C107.255 84.35 107.375 84.8167 107.375 85.35C107.375 85.8767 107.255 86.3433 107.015 86.75C106.782 87.1567 106.455 87.4767 106.035 87.71C105.622 87.9433 105.152 88.06 104.625 88.06ZM104.625 87.22C104.965 87.22 105.268 87.1433 105.535 86.99C105.808 86.8367 106.022 86.62 106.175 86.34C106.328 86.0533 106.405 85.7233 106.405 85.35C106.405 84.97 106.328 84.6433 106.175 84.37C106.022 84.09 105.808 83.8733 105.535 83.72C105.268 83.5667 104.965 83.49 104.625 83.49C104.285 83.49 103.982 83.5667 103.715 83.72C103.448 83.8733 103.235 84.09 103.075 84.37C102.915 84.6433 102.835 84.97 102.835 85.35C102.835 85.7233 102.915 86.0533 103.075 86.34C103.235 86.62 103.448 86.8367 103.715 86.99C103.982 87.1433 104.285 87.22 104.625 87.22ZM111.613 88.06C111.173 88.06 110.769 87.96 110.403 87.76C110.043 87.5533 109.753 87.25 109.533 86.85C109.319 86.45 109.213 85.95 109.213 85.35C109.213 84.75 109.316 84.25 109.523 83.85C109.736 83.45 110.023 83.15 110.383 82.95C110.749 82.75 111.159 82.65 111.613 82.65C112.133 82.65 112.593 82.7633 112.993 82.99C113.393 83.2167 113.709 83.5333 113.943 83.94C114.176 84.34 114.293 84.81 114.293 85.35C114.293 85.89 114.176 86.3633 113.943 86.77C113.709 87.1767 113.393 87.4933 112.993 87.72C112.593 87.9467 112.133 88.06 111.613 88.06ZM108.803 89.94V82.7H109.723V84.13L109.663 85.36L109.763 86.59V89.94H108.803ZM111.533 87.22C111.873 87.22 112.176 87.1433 112.443 86.99C112.716 86.8367 112.929 86.62 113.083 86.34C113.243 86.0533 113.323 85.7233 113.323 85.35C113.323 84.97 113.243 84.6433 113.083 84.37C112.929 84.09 112.716 83.8733 112.443 83.72C112.176 83.5667 111.873 83.49 111.533 83.49C111.199 83.49 110.896 83.5667 110.623 83.72C110.356 83.8733 110.143 84.09 109.983 84.37C109.829 84.6433 109.753 84.97 109.753 85.35C109.753 85.7233 109.829 86.0533 109.983 86.34C110.143 86.62 110.356 86.8367 110.623 86.99C110.896 87.1433 111.199 87.22 111.533 87.22ZM118.645 88V82.23C118.645 81.71 118.795 81.2967 119.095 80.99C119.401 80.6767 119.835 80.52 120.395 80.52C120.601 80.52 120.798 80.5467 120.985 80.6C121.178 80.6467 121.341 80.7233 121.475 80.83L121.185 81.56C121.085 81.48 120.971 81.42 120.845 81.38C120.718 81.3333 120.585 81.31 120.445 81.31C120.165 81.31 119.951 81.39 119.805 81.55C119.658 81.7033 119.585 81.9333 119.585 82.24V82.95L119.605 83.39V88H118.645ZM117.745 83.49V82.7H121.125V83.49H117.745ZM122.13 88V82.7H123.05V84.14L122.96 83.78C123.107 83.4133 123.353 83.1333 123.7 82.94C124.047 82.7467 124.473 82.65 124.98 82.65V83.58C124.94 83.5733 124.9 83.57 124.86 83.57C124.827 83.57 124.793 83.57 124.76 83.57C124.247 83.57 123.84 83.7233 123.54 84.03C123.24 84.3367 123.09 84.78 123.09 85.36V88H122.13ZM128.574 88.06C128.008 88.06 127.508 87.9433 127.074 87.71C126.648 87.4767 126.314 87.1567 126.074 86.75C125.841 86.3433 125.724 85.8767 125.724 85.35C125.724 84.8233 125.838 84.3567 126.064 83.95C126.298 83.5433 126.614 83.2267 127.014 83C127.421 82.7667 127.878 82.65 128.384 82.65C128.898 82.65 129.351 82.7633 129.744 82.99C130.138 83.2167 130.444 83.5367 130.664 83.95C130.891 84.3567 131.004 84.8333 131.004 85.38C131.004 85.42 131.001 85.4667 130.994 85.52C130.994 85.5733 130.991 85.6233 130.984 85.67H126.474V84.98H130.484L130.094 85.22C130.101 84.88 130.031 84.5767 129.884 84.31C129.738 84.0433 129.534 83.8367 129.274 83.69C129.021 83.5367 128.724 83.46 128.384 83.46C128.051 83.46 127.754 83.5367 127.494 83.69C127.234 83.8367 127.031 84.0467 126.884 84.32C126.738 84.5867 126.664 84.8933 126.664 85.24V85.4C126.664 85.7533 126.744 86.07 126.904 86.35C127.071 86.6233 127.301 86.8367 127.594 86.99C127.888 87.1433 128.224 87.22 128.604 87.22C128.918 87.22 129.201 87.1667 129.454 87.06C129.714 86.9533 129.941 86.7933 130.134 86.58L130.664 87.2C130.424 87.48 130.124 87.6933 129.764 87.84C129.411 87.9867 129.014 88.06 128.574 88.06ZM133.957 88.06C133.517 88.06 133.097 88 132.697 87.88C132.304 87.76 131.994 87.6133 131.767 87.44L132.167 86.68C132.394 86.8333 132.674 86.9633 133.007 87.07C133.341 87.1767 133.681 87.23 134.027 87.23C134.474 87.23 134.794 87.1667 134.987 87.04C135.187 86.9133 135.287 86.7367 135.287 86.51C135.287 86.3433 135.227 86.2133 135.107 86.12C134.987 86.0267 134.827 85.9567 134.627 85.91C134.434 85.8633 134.217 85.8233 133.977 85.79C133.737 85.75 133.497 85.7033 133.257 85.65C133.017 85.59 132.797 85.51 132.597 85.41C132.397 85.3033 132.237 85.16 132.117 84.98C131.997 84.7933 131.937 84.5467 131.937 84.24C131.937 83.92 132.027 83.64 132.207 83.4C132.387 83.16 132.641 82.9767 132.967 82.85C133.301 82.7167 133.694 82.65 134.147 82.65C134.494 82.65 134.844 82.6933 135.197 82.78C135.557 82.86 135.851 82.9767 136.077 83.13L135.667 83.89C135.427 83.73 135.177 83.62 134.917 83.56C134.657 83.5 134.397 83.47 134.137 83.47C133.717 83.47 133.404 83.54 133.197 83.68C132.991 83.8133 132.887 83.9867 132.887 84.2C132.887 84.38 132.947 84.52 133.067 84.62C133.194 84.7133 133.354 84.7867 133.547 84.84C133.747 84.8933 133.967 84.94 134.207 84.98C134.447 85.0133 134.687 85.06 134.927 85.12C135.167 85.1733 135.384 85.25 135.577 85.35C135.777 85.45 135.937 85.59 136.057 85.77C136.184 85.95 136.247 86.19 136.247 86.49C136.247 86.81 136.154 87.0867 135.967 87.32C135.781 87.5533 135.517 87.7367 135.177 87.87C134.837 87.9967 134.431 88.06 133.957 88.06ZM140.377 82.65C140.81 82.65 141.19 82.7333 141.517 82.9C141.85 83.0667 142.11 83.32 142.297 83.66C142.484 84 142.577 84.43 142.577 84.95V88H141.617V85.06C141.617 84.5467 141.49 84.16 141.237 83.9C140.99 83.64 140.64 83.51 140.187 83.51C139.847 83.51 139.55 83.5767 139.297 83.71C139.044 83.8433 138.847 84.04 138.707 84.3C138.574 84.56 138.507 84.8833 138.507 85.27V88H137.547V80.58H138.507V84.13L138.317 83.75C138.49 83.4033 138.757 83.1333 139.117 82.94C139.477 82.7467 139.897 82.65 140.377 82.65Z" fill="black"/>
</svg>
