<svg width="152" height="89" viewBox="0 0 152 89" fill="none" xmlns="http://www.w3.org/2000/svg">
<path d="M4.432 20.192C3.65333 20.192 2.88 20.0907 2.112 19.888C1.35467 19.6747 0.704 19.376 0.16 18.992L1.184 17.008C1.61067 17.3173 2.10133 17.5627 2.656 17.744C3.22133 17.9253 3.792 18.016 4.368 18.016C5.01867 18.016 5.53067 17.888 5.904 17.632C6.27733 17.376 6.464 17.0187 6.464 16.56C6.464 16.272 6.38933 16.016 6.24 15.792C6.09067 15.568 5.824 15.3973 5.44 15.28C5.06667 15.1627 4.53867 15.104 3.856 15.104H0.992L1.568 8.8H8.4V10.88H2.496L3.84 9.696L3.44 14.192L2.096 13.008H4.464C5.57333 13.008 6.464 13.1627 7.136 13.472C7.81867 13.7707 8.31467 14.1813 8.624 14.704C8.93333 15.2267 9.088 15.8187 9.088 16.48C9.088 17.1413 8.92267 17.7547 8.592 18.32C8.26133 18.8747 7.74933 19.328 7.056 19.68C6.37333 20.0213 5.49867 20.192 4.432 20.192ZM9.6455 20V18.32L13.9655 14.24C14.3068 13.9307 14.5575 13.6533 14.7175 13.408C14.8775 13.1627 14.9842 12.9387 15.0375 12.736C15.1015 12.5333 15.1335 12.3467 15.1335 12.176C15.1335 11.728 14.9788 11.3867 14.6695 11.152C14.3708 10.9067 13.9282 10.784 13.3415 10.784C12.8722 10.784 12.4348 10.8747 12.0295 11.056C11.6348 11.2373 11.2988 11.52 11.0215 11.904L9.1335 10.688C9.56017 10.048 10.1575 9.54133 10.9255 9.168C11.6935 8.79467 12.5788 8.608 13.5815 8.608C14.4135 8.608 15.1388 8.74667 15.7575 9.024C16.3868 9.29067 16.8722 9.66933 17.2135 10.16C17.5655 10.6507 17.7415 11.2373 17.7415 11.92C17.7415 12.2827 17.6935 12.6453 17.5975 13.008C17.5122 13.36 17.3308 13.7333 17.0535 14.128C16.7868 14.5227 16.3922 14.9653 15.8695 15.456L12.2855 18.832L11.7895 17.888H18.1095V20H9.6455ZM23.659 20.192C22.7417 20.192 21.9203 19.968 21.195 19.52C20.4697 19.0613 19.899 18.4 19.483 17.536C19.067 16.672 18.859 15.6267 18.859 14.4C18.859 13.1733 19.067 12.128 19.483 11.264C19.899 10.4 20.4697 9.744 21.195 9.296C21.9203 8.83733 22.7417 8.608 23.659 8.608C24.587 8.608 25.4083 8.83733 26.123 9.296C26.8483 9.744 27.419 10.4 27.835 11.264C28.251 12.128 28.459 13.1733 28.459 14.4C28.459 15.6267 28.251 16.672 27.835 17.536C27.419 18.4 26.8483 19.0613 26.123 19.52C25.4083 19.968 24.587 20.192 23.659 20.192ZM23.659 18C24.0963 18 24.475 17.8773 24.795 17.632C25.1257 17.3867 25.3817 16.9973 25.563 16.464C25.755 15.9307 25.851 15.2427 25.851 14.4C25.851 13.5573 25.755 12.8693 25.563 12.336C25.3817 11.8027 25.1257 11.4133 24.795 11.168C24.475 10.9227 24.0963 10.8 23.659 10.8C23.2323 10.8 22.8537 10.9227 22.523 11.168C22.203 11.4133 21.947 11.8027 21.755 12.336C21.5737 12.8693 21.483 13.5573 21.483 14.4C21.483 15.2427 21.5737 15.9307 21.755 16.464C21.947 16.9973 22.203 17.3867 22.523 17.632C22.8537 17.8773 23.2323 18 23.659 18ZM45.1616 11.264C45.8443 11.264 46.447 11.4027 46.9696 11.68C47.503 11.9467 47.919 12.3627 48.2176 12.928C48.527 13.4827 48.6816 14.1973 48.6816 15.072V20H46.1856V15.456C46.1856 14.7627 46.0416 14.2507 45.7536 13.92C45.4656 13.5893 45.0603 13.424 44.5376 13.424C44.175 13.424 43.8496 13.5093 43.5616 13.68C43.2736 13.84 43.0496 14.0853 42.8896 14.416C42.7296 14.7467 42.6496 15.168 42.6496 15.68V20H40.1536V15.456C40.1536 14.7627 40.0096 14.2507 39.7216 13.92C39.4443 13.5893 39.0443 13.424 38.5216 13.424C38.159 13.424 37.8336 13.5093 37.5456 13.68C37.2576 13.84 37.0336 14.0853 36.8736 14.416C36.7136 14.7467 36.6336 15.168 36.6336 15.68V20H34.1376V11.392H36.5216V13.744L36.0736 13.056C36.3723 12.4693 36.7936 12.0267 37.3376 11.728C37.8923 11.4187 38.5216 11.264 39.2256 11.264C40.015 11.264 40.703 11.4667 41.2896 11.872C41.887 12.2667 42.2816 12.8747 42.4736 13.696L41.5936 13.456C41.8816 12.784 42.3403 12.2507 42.9696 11.856C43.6096 11.4613 44.3403 11.264 45.1616 11.264ZM50.5989 20V8.128H53.0949V20H50.5989ZM58.9826 16.496V14.496H63.5106V16.496H58.9826ZM74.9818 20.192C74.0964 20.192 73.2751 20.048 72.5178 19.76C71.7711 19.472 71.1204 19.0667 70.5658 18.544C70.0218 18.0213 69.5951 17.408 69.2858 16.704C68.9871 16 68.8378 15.232 68.8378 14.4C68.8378 13.568 68.9871 12.8 69.2858 12.096C69.5951 11.392 70.0271 10.7787 70.5818 10.256C71.1364 9.73333 71.7871 9.328 72.5338 9.04C73.2804 8.752 74.0911 8.608 74.9658 8.608C75.8511 8.608 76.6618 8.752 77.3978 9.04C78.1444 9.328 78.7898 9.73333 79.3338 10.256C79.8884 10.7787 80.3204 11.392 80.6298 12.096C80.9391 12.7893 81.0938 13.5573 81.0938 14.4C81.0938 15.232 80.9391 16.0053 80.6298 16.72C80.3204 17.424 79.8884 18.0373 79.3338 18.56C78.7898 19.072 78.1444 19.472 77.3978 19.76C76.6618 20.048 75.8564 20.192 74.9818 20.192ZM74.9658 17.984C75.4671 17.984 75.9258 17.8987 76.3418 17.728C76.7684 17.5573 77.1418 17.312 77.4618 16.992C77.7818 16.672 78.0271 16.2933 78.1978 15.856C78.3791 15.4187 78.4698 14.9333 78.4698 14.4C78.4698 13.8667 78.3791 13.3813 78.1978 12.944C78.0271 12.5067 77.7818 12.128 77.4618 11.808C77.1524 11.488 76.7844 11.2427 76.3578 11.072C75.9311 10.9013 75.4671 10.816 74.9658 10.816C74.4644 10.816 74.0004 10.9013 73.5738 11.072C73.1578 11.2427 72.7898 11.488 72.4698 11.808C72.1498 12.128 71.8991 12.5067 71.7178 12.944C71.5471 13.3813 71.4618 13.8667 71.4618 14.4C71.4618 14.9227 71.5471 15.408 71.7178 15.856C71.8991 16.2933 72.1444 16.672 72.4538 16.992C72.7738 17.312 73.1471 17.5573 73.5738 17.728C74.0004 17.8987 74.4644 17.984 74.9658 17.984ZM85.7068 20L80.8748 8.8H83.6748L87.8988 18.72H86.2508L90.5388 8.8H93.1148L88.2668 20H85.7068ZM91.8829 20L96.8749 8.8H99.4349L104.443 20H101.723L97.6269 10.112H98.6509L94.5389 20H91.8829ZM94.3789 17.6L95.0669 15.632H100.827L101.531 17.6H94.3789ZM105.285 20V8.8H107.877V17.888H113.493V20H105.285Z" fill="#4A8036"/>
<path d="M1.316 46V36.2H3.136V46H1.316ZM9.0487 46.098C8.2647 46.098 7.5647 45.9347 6.9487 45.608C6.34204 45.272 5.86604 44.8147 5.5207 44.236C5.17537 43.6573 5.0027 42.9993 5.0027 42.262C5.0027 41.5153 5.17537 40.8573 5.5207 40.288C5.86604 39.7093 6.34204 39.2567 6.9487 38.93C7.5647 38.6033 8.2647 38.44 9.0487 38.44C9.7767 38.44 10.416 38.5893 10.9667 38.888C11.5267 39.1773 11.9514 39.6067 12.2407 40.176L10.8967 40.96C10.6727 40.6053 10.3974 40.344 10.0707 40.176C9.75337 40.008 9.40804 39.924 9.0347 39.924C8.60537 39.924 8.21804 40.0173 7.8727 40.204C7.52737 40.3907 7.2567 40.6613 7.0607 41.016C6.8647 41.3613 6.7667 41.7767 6.7667 42.262C6.7667 42.7473 6.8647 43.1673 7.0607 43.522C7.2567 43.8673 7.52737 44.1333 7.8727 44.32C8.21804 44.5067 8.60537 44.6 9.0347 44.6C9.40804 44.6 9.75337 44.516 10.0707 44.348C10.3974 44.18 10.6727 43.9187 10.8967 43.564L12.2407 44.348C11.9514 44.908 11.5267 45.342 10.9667 45.65C10.416 45.9487 9.7767 46.098 9.0487 46.098ZM17.1581 46.098C16.3274 46.098 15.5994 45.9347 14.9741 45.608C14.3581 45.272 13.8774 44.8147 13.5321 44.236C13.1961 43.6573 13.0281 42.9993 13.0281 42.262C13.0281 41.5153 13.1914 40.8573 13.5181 40.288C13.8541 39.7093 14.3114 39.2567 14.8901 38.93C15.4781 38.6033 16.1454 38.44 16.8921 38.44C17.6201 38.44 18.2688 38.5987 18.8381 38.916C19.4074 39.2333 19.8554 39.6813 20.1821 40.26C20.5088 40.8387 20.6721 41.52 20.6721 42.304C20.6721 42.3787 20.6674 42.4627 20.6581 42.556C20.6581 42.6493 20.6534 42.738 20.6441 42.822H14.4141V41.66H19.7201L19.0341 42.024C19.0434 41.5947 18.9548 41.2167 18.7681 40.89C18.5814 40.5633 18.3248 40.3067 17.9981 40.12C17.6808 39.9333 17.3121 39.84 16.8921 39.84C16.4628 39.84 16.0848 39.9333 15.7581 40.12C15.4408 40.3067 15.1888 40.568 15.0021 40.904C14.8248 41.2307 14.7361 41.618 14.7361 42.066V42.346C14.7361 42.794 14.8388 43.1907 15.0441 43.536C15.2494 43.8813 15.5388 44.1473 15.9121 44.334C16.2854 44.5207 16.7148 44.614 17.2001 44.614C17.6201 44.614 17.9981 44.5487 18.3341 44.418C18.6701 44.2873 18.9688 44.082 19.2301 43.802L20.1681 44.88C19.8321 45.272 19.4074 45.5753 18.8941 45.79C18.3901 45.9953 17.8114 46.098 17.1581 46.098ZM30.9262 46.14C30.1796 46.14 29.4842 46.0187 28.8402 45.776C28.2056 45.524 27.6502 45.174 27.1742 44.726C26.7076 44.2687 26.3436 43.732 26.0822 43.116C25.8209 42.5 25.6902 41.828 25.6902 41.1C25.6902 40.372 25.8209 39.7 26.0822 39.084C26.3436 38.468 26.7122 37.936 27.1882 37.488C27.6642 37.0307 28.2196 36.6807 28.8542 36.438C29.4889 36.186 30.1842 36.06 30.9402 36.06C31.7429 36.06 32.4756 36.2 33.1382 36.48C33.8009 36.7507 34.3609 37.1567 34.8182 37.698L33.6422 38.804C33.2876 38.4213 32.8909 38.1367 32.4522 37.95C32.0136 37.754 31.5376 37.656 31.0242 37.656C30.5109 37.656 30.0396 37.74 29.6102 37.908C29.1902 38.076 28.8216 38.314 28.5042 38.622C28.1962 38.93 27.9536 39.294 27.7762 39.714C27.6082 40.134 27.5242 40.596 27.5242 41.1C27.5242 41.604 27.6082 42.066 27.7762 42.486C27.9536 42.906 28.1962 43.27 28.5042 43.578C28.8216 43.886 29.1902 44.124 29.6102 44.292C30.0396 44.46 30.5109 44.544 31.0242 44.544C31.5376 44.544 32.0136 44.4507 32.4522 44.264C32.8909 44.068 33.2876 43.774 33.6422 43.382L34.8182 44.502C34.3609 45.034 33.8009 45.44 33.1382 45.72C32.4756 46 31.7382 46.14 30.9262 46.14ZM36.3941 46V38.524H38.0601V40.582L37.8641 39.98C38.0881 39.476 38.4381 39.0933 38.9141 38.832C39.3994 38.5707 40.0014 38.44 40.7201 38.44V40.106C40.6454 40.0873 40.5754 40.078 40.5101 40.078C40.4448 40.0687 40.3794 40.064 40.3141 40.064C39.6514 40.064 39.1241 40.26 38.7321 40.652C38.3401 41.0347 38.1441 41.6087 38.1441 42.374V46H36.3941ZM45.6503 46.098C44.8196 46.098 44.0916 45.9347 43.4663 45.608C42.8503 45.272 42.3696 44.8147 42.0243 44.236C41.6883 43.6573 41.5203 42.9993 41.5203 42.262C41.5203 41.5153 41.6836 40.8573 42.0103 40.288C42.3463 39.7093 42.8036 39.2567 43.3823 38.93C43.9703 38.6033 44.6376 38.44 45.3843 38.44C46.1123 38.44 46.7609 38.5987 47.3303 38.916C47.8996 39.2333 48.3476 39.6813 48.6743 40.26C49.0009 40.8387 49.1643 41.52 49.1643 42.304C49.1643 42.3787 49.1596 42.4627 49.1503 42.556C49.1503 42.6493 49.1456 42.738 49.1363 42.822H42.9063V41.66H48.2123L47.5263 42.024C47.5356 41.5947 47.4469 41.2167 47.2603 40.89C47.0736 40.5633 46.8169 40.3067 46.4903 40.12C46.1729 39.9333 45.8043 39.84 45.3843 39.84C44.9549 39.84 44.5769 39.9333 44.2503 40.12C43.9329 40.3067 43.6809 40.568 43.4943 40.904C43.3169 41.2307 43.2283 41.618 43.2283 42.066V42.346C43.2283 42.794 43.3309 43.1907 43.5363 43.536C43.7416 43.8813 44.0309 44.1473 44.4043 44.334C44.7776 44.5207 45.2069 44.614 45.6923 44.614C46.1123 44.614 46.4903 44.5487 46.8263 44.418C47.1623 44.2873 47.4609 44.082 47.7223 43.802L48.6603 44.88C48.3243 45.272 47.8996 45.5753 47.3863 45.79C46.8823 45.9953 46.3036 46.098 45.6503 46.098ZM55.2462 46V44.488L55.1482 44.166V41.52C55.1482 41.0067 54.9942 40.61 54.6862 40.33C54.3782 40.0407 53.9115 39.896 53.2862 39.896C52.8662 39.896 52.4509 39.9613 52.0402 40.092C51.6389 40.2227 51.2982 40.4047 51.0182 40.638L50.3322 39.364C50.7335 39.056 51.2095 38.8273 51.7602 38.678C52.3202 38.5193 52.8989 38.44 53.4962 38.44C54.5789 38.44 55.4142 38.7013 56.0022 39.224C56.5995 39.7373 56.8982 40.5353 56.8982 41.618V46H55.2462ZM52.8942 46.098C52.3342 46.098 51.8442 46.0047 51.4242 45.818C51.0042 45.622 50.6775 45.356 50.4442 45.02C50.2202 44.6747 50.1082 44.2873 50.1082 43.858C50.1082 43.438 50.2062 43.06 50.4022 42.724C50.6075 42.388 50.9389 42.122 51.3962 41.926C51.8535 41.73 52.4602 41.632 53.2162 41.632H55.3862V42.794H53.3422C52.7449 42.794 52.3435 42.892 52.1382 43.088C51.9329 43.2747 51.8302 43.508 51.8302 43.788C51.8302 44.1053 51.9562 44.3573 52.2082 44.544C52.4602 44.7307 52.8102 44.824 53.2582 44.824C53.6875 44.824 54.0702 44.726 54.4062 44.53C54.7515 44.334 54.9989 44.0447 55.1482 43.662L55.4422 44.712C55.2742 45.1507 54.9709 45.4913 54.5322 45.734C54.1029 45.9767 53.5569 46.098 52.8942 46.098ZM68.5801 38.44C69.1774 38.44 69.7048 38.5567 70.1621 38.79C70.6288 39.0233 70.9928 39.3827 71.2541 39.868C71.5154 40.344 71.6461 40.96 71.6461 41.716V46H69.8961V41.94C69.8961 41.2773 69.7514 40.7827 69.4621 40.456C69.1728 40.1293 68.7574 39.966 68.2161 39.966C67.8334 39.966 67.4928 40.05 67.1941 40.218C66.9048 40.386 66.6761 40.6333 66.5081 40.96C66.3494 41.2867 66.2701 41.702 66.2701 42.206V46H64.5201V41.94C64.5201 41.2773 64.3754 40.7827 64.0861 40.456C63.7968 40.1293 63.3814 39.966 62.8401 39.966C62.4574 39.966 62.1168 40.05 61.8181 40.218C61.5288 40.386 61.3001 40.6333 61.1321 40.96C60.9734 41.2867 60.8941 41.702 60.8941 42.206V46H59.1441V38.524H60.8101V40.512L60.5161 39.924C60.7681 39.4387 61.1321 39.07 61.6081 38.818C62.0934 38.566 62.6441 38.44 63.2601 38.44C63.9601 38.44 64.5668 38.6127 65.0801 38.958C65.6028 39.3033 65.9481 39.826 66.1161 40.526L65.4301 40.288C65.6728 39.728 66.0741 39.28 66.6341 38.944C67.1941 38.608 67.8428 38.44 68.5801 38.44ZM82.5115 46.14C81.7462 46.14 81.0415 46.014 80.3975 45.762C79.7535 45.51 79.1935 45.16 78.7175 44.712C78.2415 44.2547 77.8728 43.7227 77.6115 43.116C77.3502 42.5 77.2195 41.828 77.2195 41.1C77.2195 40.372 77.3502 39.7047 77.6115 39.098C77.8728 38.482 78.2415 37.95 78.7175 37.502C79.1935 37.0447 79.7535 36.69 80.3975 36.438C81.0415 36.186 81.7415 36.06 82.4975 36.06C83.2628 36.06 83.9628 36.186 84.5975 36.438C85.2415 36.69 85.8015 37.0447 86.2775 37.502C86.7535 37.95 87.1222 38.482 87.3835 39.098C87.6448 39.7047 87.7755 40.372 87.7755 41.1C87.7755 41.828 87.6448 42.5 87.3835 43.116C87.1222 43.732 86.7535 44.264 86.2775 44.712C85.8015 45.16 85.2415 45.51 84.5975 45.762C83.9628 46.014 83.2675 46.14 82.5115 46.14ZM82.4975 44.544C82.9922 44.544 83.4495 44.46 83.8695 44.292C84.2895 44.124 84.6535 43.886 84.9615 43.578C85.2695 43.2607 85.5075 42.8967 85.6755 42.486C85.8528 42.066 85.9415 41.604 85.9415 41.1C85.9415 40.596 85.8528 40.1387 85.6755 39.728C85.5075 39.308 85.2695 38.944 84.9615 38.636C84.6535 38.3187 84.2895 38.076 83.8695 37.908C83.4495 37.74 82.9922 37.656 82.4975 37.656C82.0028 37.656 81.5455 37.74 81.1255 37.908C80.7148 38.076 80.3508 38.3187 80.0335 38.636C79.7255 38.944 79.4828 39.308 79.3055 39.728C79.1375 40.1387 79.0535 40.596 79.0535 41.1C79.0535 41.5947 79.1375 42.052 79.3055 42.472C79.4828 42.892 79.7255 43.2607 80.0335 43.578C80.3415 43.886 80.7055 44.124 81.1255 44.292C81.5455 44.46 82.0028 44.544 82.4975 44.544ZM91.5247 46L88.3187 38.524H90.1387L92.8967 45.118H92.0007L94.8567 38.524H96.5367L93.3307 46H91.5247ZM102.004 46V44.488L101.906 44.166V41.52C101.906 41.0067 101.752 40.61 101.444 40.33C101.136 40.0407 100.669 39.896 100.044 39.896C99.624 39.896 99.2087 39.9613 98.798 40.092C98.3967 40.2227 98.056 40.4047 97.776 40.638L97.09 39.364C97.4913 39.056 97.9673 38.8273 98.518 38.678C99.078 38.5193 99.6567 38.44 100.254 38.44C101.337 38.44 102.172 38.7013 102.76 39.224C103.357 39.7373 103.656 40.5353 103.656 41.618V46H102.004ZM99.652 46.098C99.092 46.098 98.602 46.0047 98.182 45.818C97.762 45.622 97.4353 45.356 97.202 45.02C96.978 44.6747 96.866 44.2873 96.866 43.858C96.866 43.438 96.964 43.06 97.16 42.724C97.3653 42.388 97.6967 42.122 98.154 41.926C98.6113 41.73 99.218 41.632 99.974 41.632H102.144V42.794H100.1C99.5027 42.794 99.1013 42.892 98.896 43.088C98.6907 43.2747 98.588 43.508 98.588 43.788C98.588 44.1053 98.714 44.3573 98.966 44.544C99.218 44.7307 99.568 44.824 100.016 44.824C100.445 44.824 100.828 44.726 101.164 44.53C101.509 44.334 101.757 44.0447 101.906 43.662L102.2 44.712C102.032 45.1507 101.729 45.4913 101.29 45.734C100.861 45.9767 100.315 46.098 99.652 46.098ZM105.902 46V35.612H107.652V46H105.902Z" fill="black"/>
<path d="M2.96 68.02H6.56V68.87H2.96V68.02ZM3.05 71.13H7.13V72H2.05V65H6.99V65.87H3.05V71.13ZM8.85133 74C8.59799 74 8.35133 73.9567 8.11133 73.87C7.87133 73.79 7.66466 73.67 7.49133 73.51L7.90133 72.79C8.03466 72.9167 8.18133 73.0133 8.34133 73.08C8.50133 73.1467 8.67133 73.18 8.85133 73.18C9.08466 73.18 9.27799 73.12 9.43133 73C9.58466 72.88 9.72799 72.6667 9.86133 72.36L10.1913 71.63L10.2913 71.51L12.3713 66.7H13.3113L10.7413 72.53C10.588 72.9033 10.4147 73.1967 10.2213 73.41C10.0347 73.6233 9.82799 73.7733 9.60133 73.86C9.37466 73.9533 9.12466 74 8.85133 74ZM10.1113 72.17L7.69133 66.7H8.69133L10.7513 71.42L10.1113 72.17ZM16.5208 72.06C15.9541 72.06 15.4541 71.9433 15.0208 71.71C14.5941 71.4767 14.2608 71.1567 14.0208 70.75C13.7874 70.3433 13.6708 69.8767 13.6708 69.35C13.6708 68.8233 13.7841 68.3567 14.0108 67.95C14.2441 67.5433 14.5608 67.2267 14.9608 67C15.3674 66.7667 15.8241 66.65 16.3308 66.65C16.8441 66.65 17.2974 66.7633 17.6908 66.99C18.0841 67.2167 18.3908 67.5367 18.6108 67.95C18.8374 68.3567 18.9508 68.8333 18.9508 69.38C18.9508 69.42 18.9474 69.4667 18.9408 69.52C18.9408 69.5733 18.9374 69.6233 18.9308 69.67H14.4208V68.98H18.4308L18.0408 69.22C18.0474 68.88 17.9774 68.5767 17.8308 68.31C17.6841 68.0433 17.4808 67.8367 17.2208 67.69C16.9674 67.5367 16.6708 67.46 16.3308 67.46C15.9974 67.46 15.7008 67.5367 15.4408 67.69C15.1808 67.8367 14.9774 68.0467 14.8308 68.32C14.6841 68.5867 14.6108 68.8933 14.6108 69.24V69.4C14.6108 69.7533 14.6908 70.07 14.8508 70.35C15.0174 70.6233 15.2474 70.8367 15.5408 70.99C15.8341 71.1433 16.1708 71.22 16.5508 71.22C16.8641 71.22 17.1474 71.1667 17.4008 71.06C17.6608 70.9533 17.8874 70.7933 18.0808 70.58L18.6108 71.2C18.3708 71.48 18.0708 71.6933 17.7108 71.84C17.3574 71.9867 16.9608 72.06 16.5208 72.06ZM20.1415 69.67V68.84H22.8315V69.67H20.1415ZM26.8173 72.06C26.2773 72.06 25.7939 71.9433 25.3673 71.71C24.9473 71.4767 24.6173 71.1567 24.3773 70.75C24.1373 70.3433 24.0173 69.8767 24.0173 69.35C24.0173 68.8233 24.1373 68.3567 24.3773 67.95C24.6173 67.5433 24.9473 67.2267 25.3673 67C25.7939 66.7667 26.2773 66.65 26.8173 66.65C27.2973 66.65 27.7239 66.7467 28.0973 66.94C28.4773 67.1267 28.7706 67.4067 28.9773 67.78L28.2473 68.25C28.0739 67.99 27.8606 67.8 27.6073 67.68C27.3606 67.5533 27.0939 67.49 26.8073 67.49C26.4606 67.49 26.1506 67.5667 25.8773 67.72C25.6039 67.8733 25.3873 68.09 25.2273 68.37C25.0673 68.6433 24.9873 68.97 24.9873 69.35C24.9873 69.73 25.0673 70.06 25.2273 70.34C25.3873 70.62 25.6039 70.8367 25.8773 70.99C26.1506 71.1433 26.4606 71.22 26.8073 71.22C27.0939 71.22 27.3606 71.16 27.6073 71.04C27.8606 70.9133 28.0739 70.72 28.2473 70.46L28.9773 70.92C28.7706 71.2867 28.4773 71.57 28.0973 71.77C27.7239 71.9633 27.2973 72.06 26.8173 72.06ZM33.6102 72V70.88L33.5602 70.67V68.76C33.5602 68.3533 33.4402 68.04 33.2002 67.82C32.9668 67.5933 32.6135 67.48 32.1402 67.48C31.8268 67.48 31.5202 67.5333 31.2202 67.64C30.9202 67.74 30.6668 67.8767 30.4602 68.05L30.0602 67.33C30.3335 67.11 30.6602 66.9433 31.0402 66.83C31.4268 66.71 31.8302 66.65 32.2502 66.65C32.9768 66.65 33.5368 66.8267 33.9302 67.18C34.3235 67.5333 34.5202 68.0733 34.5202 68.8V72H33.6102ZM31.8702 72.06C31.4768 72.06 31.1302 71.9933 30.8302 71.86C30.5368 71.7267 30.3102 71.5433 30.1502 71.31C29.9902 71.07 29.9102 70.8 29.9102 70.5C29.9102 70.2133 29.9768 69.9533 30.1102 69.72C30.2502 69.4867 30.4735 69.3 30.7802 69.16C31.0935 69.02 31.5135 68.95 32.0402 68.95H33.7202V69.64H32.0802C31.6002 69.64 31.2768 69.72 31.1102 69.88C30.9435 70.04 30.8602 70.2333 30.8602 70.46C30.8602 70.72 30.9635 70.93 31.1702 71.09C31.3768 71.2433 31.6635 71.32 32.0302 71.32C32.3902 71.32 32.7035 71.24 32.9702 71.08C33.2435 70.92 33.4402 70.6867 33.5602 70.38L33.7502 71.04C33.6235 71.3533 33.4002 71.6033 33.0802 71.79C32.7602 71.97 32.3568 72.06 31.8702 72.06ZM38.2167 72.06C37.6834 72.06 37.2701 71.9167 36.9767 71.63C36.6834 71.3433 36.5367 70.9333 36.5367 70.4V65.54H37.4967V70.36C37.4967 70.6467 37.5667 70.8667 37.7067 71.02C37.8534 71.1733 38.0601 71.25 38.3267 71.25C38.6267 71.25 38.8767 71.1667 39.0767 71L39.3767 71.69C39.2301 71.8167 39.0534 71.91 38.8467 71.97C38.6467 72.03 38.4367 72.06 38.2167 72.06ZM35.6367 67.49V66.7H39.0167V67.49H35.6367ZM42.7716 72.06C42.2316 72.06 41.7482 71.9433 41.3216 71.71C40.9016 71.4767 40.5716 71.1567 40.3316 70.75C40.0916 70.3433 39.9716 69.8767 39.9716 69.35C39.9716 68.8233 40.0916 68.3567 40.3316 67.95C40.5716 67.5433 40.9016 67.2267 41.3216 67C41.7482 66.7667 42.2316 66.65 42.7716 66.65C43.2516 66.65 43.6782 66.7467 44.0516 66.94C44.4316 67.1267 44.7249 67.4067 44.9316 67.78L44.2016 68.25C44.0282 67.99 43.8149 67.8 43.5616 67.68C43.3149 67.5533 43.0482 67.49 42.7616 67.49C42.4149 67.49 42.1049 67.5667 41.8316 67.72C41.5582 67.8733 41.3416 68.09 41.1816 68.37C41.0216 68.6433 40.9416 68.97 40.9416 69.35C40.9416 69.73 41.0216 70.06 41.1816 70.34C41.3416 70.62 41.5582 70.8367 41.8316 70.99C42.1049 71.1433 42.4149 71.22 42.7616 71.22C43.0482 71.22 43.3149 71.16 43.5616 71.04C43.8149 70.9133 44.0282 70.72 44.2016 70.46L44.9316 70.92C44.7249 71.2867 44.4316 71.57 44.0516 71.77C43.6782 71.9633 43.2516 72.06 42.7716 72.06ZM49.0361 66.65C49.4694 66.65 49.8494 66.7333 50.1761 66.9C50.5094 67.0667 50.7694 67.32 50.9561 67.66C51.1428 68 51.2361 68.43 51.2361 68.95V72H50.2761V69.06C50.2761 68.5467 50.1494 68.16 49.8961 67.9C49.6494 67.64 49.2994 67.51 48.8461 67.51C48.5061 67.51 48.2094 67.5767 47.9561 67.71C47.7028 67.8433 47.5061 68.04 47.3661 68.3C47.2328 68.56 47.1661 68.8833 47.1661 69.27V72H46.2061V64.58H47.1661V68.13L46.9761 67.75C47.1494 67.4033 47.4161 67.1333 47.7761 66.94C48.1361 66.7467 48.5561 66.65 49.0361 66.65ZM53.1127 72V66.7H54.0727V72H53.1127ZM53.5927 65.68C53.4061 65.68 53.2494 65.62 53.1227 65.5C53.0027 65.38 52.9427 65.2333 52.9427 65.06C52.9427 64.88 53.0027 64.73 53.1227 64.61C53.2494 64.49 53.4061 64.43 53.5927 64.43C53.7794 64.43 53.9327 64.49 54.0527 64.61C54.1794 64.7233 54.2427 64.8667 54.2427 65.04C54.2427 65.22 54.1827 65.3733 54.0627 65.5C53.9427 65.62 53.7861 65.68 53.5927 65.68ZM58.8357 66.65C59.269 66.65 59.649 66.7333 59.9757 66.9C60.309 67.0667 60.569 67.32 60.7557 67.66C60.9424 68 61.0357 68.43 61.0357 68.95V72H60.0757V69.06C60.0757 68.5467 59.949 68.16 59.6957 67.9C59.449 67.64 59.099 67.51 58.6457 67.51C58.3057 67.51 58.009 67.5767 57.7557 67.71C57.5024 67.8433 57.3057 68.04 57.1657 68.3C57.0324 68.56 56.9657 68.8833 56.9657 69.27V72H56.0057V66.7H56.9257V68.13L56.7757 67.75C56.949 67.4033 57.2157 67.1333 57.5757 66.94C57.9357 66.7467 58.3557 66.65 58.8357 66.65ZM65.2323 74C64.7457 74 64.2723 73.93 63.8123 73.79C63.359 73.6567 62.989 73.4633 62.7023 73.21L63.1623 72.47C63.409 72.6833 63.7123 72.85 64.0723 72.97C64.4323 73.0967 64.809 73.16 65.2023 73.16C65.829 73.16 66.289 73.0133 66.5823 72.72C66.8757 72.4267 67.0223 71.98 67.0223 71.38V70.26L67.1223 69.21L67.0723 68.15V66.7H67.9823V71.28C67.9823 72.2133 67.749 72.9 67.2823 73.34C66.8157 73.78 66.1323 74 65.2323 74ZM65.1123 71.78C64.599 71.78 64.139 71.6733 63.7323 71.46C63.3323 71.24 63.0123 70.9367 62.7723 70.55C62.539 70.1633 62.4223 69.7167 62.4223 69.21C62.4223 68.6967 62.539 68.25 62.7723 67.87C63.0123 67.4833 63.3323 67.1833 63.7323 66.97C64.139 66.7567 64.599 66.65 65.1123 66.65C65.5657 66.65 65.979 66.7433 66.3523 66.93C66.7257 67.11 67.0223 67.39 67.2423 67.77C67.469 68.15 67.5823 68.63 67.5823 69.21C67.5823 69.7833 67.469 70.26 67.2423 70.64C67.0223 71.02 66.7257 71.3067 66.3523 71.5C65.979 71.6867 65.5657 71.78 65.1123 71.78ZM65.2223 70.94C65.5757 70.94 65.889 70.8667 66.1623 70.72C66.4357 70.5733 66.649 70.37 66.8023 70.11C66.9623 69.85 67.0423 69.55 67.0423 69.21C67.0423 68.87 66.9623 68.57 66.8023 68.31C66.649 68.05 66.4357 67.85 66.1623 67.71C65.889 67.5633 65.5757 67.49 65.2223 67.49C64.869 67.49 64.5523 67.5633 64.2723 67.71C63.999 67.85 63.7823 68.05 63.6223 68.31C63.469 68.57 63.3923 68.87 63.3923 69.21C63.3923 69.55 63.469 69.85 63.6223 70.11C63.7823 70.37 63.999 70.5733 64.2723 70.72C64.5523 70.8667 64.869 70.94 65.2223 70.94ZM72.8422 72V65H73.8422V72H72.8422ZM76.0379 72V65H76.8579L79.9979 70.29H79.5579L82.6579 65H83.4779L83.4879 72H82.5279L82.5179 66.51H82.7479L79.9879 71.15H79.5279L76.7479 66.51H76.9979V72H76.0379ZM85.6887 72V65H86.6887V71.13H90.4787V72H85.6887ZM96.6417 72.06C96.1084 72.06 95.635 71.9433 95.2217 71.71C94.8084 71.4767 94.4817 71.1567 94.2417 70.75C94.0017 70.3367 93.8817 69.87 93.8817 69.35C93.8817 68.8233 94.0017 68.3567 94.2417 67.95C94.4817 67.5433 94.8084 67.2267 95.2217 67C95.635 66.7667 96.1084 66.65 96.6417 66.65C97.1684 66.65 97.6384 66.7667 98.0517 67C98.4717 67.2267 98.7984 67.5433 99.0317 67.95C99.2717 68.35 99.3917 68.8167 99.3917 69.35C99.3917 69.8767 99.2717 70.3433 99.0317 70.75C98.7984 71.1567 98.4717 71.4767 98.0517 71.71C97.6384 71.9433 97.1684 72.06 96.6417 72.06ZM96.6417 71.22C96.9817 71.22 97.285 71.1433 97.5517 70.99C97.825 70.8367 98.0384 70.62 98.1917 70.34C98.345 70.0533 98.4217 69.7233 98.4217 69.35C98.4217 68.97 98.345 68.6433 98.1917 68.37C98.0384 68.09 97.825 67.8733 97.5517 67.72C97.285 67.5667 96.9817 67.49 96.6417 67.49C96.3017 67.49 95.9984 67.5667 95.7317 67.72C95.465 67.8733 95.2517 68.09 95.0917 68.37C94.9317 68.6433 94.8517 68.97 94.8517 69.35C94.8517 69.7233 94.9317 70.0533 95.0917 70.34C95.2517 70.62 95.465 70.8367 95.7317 70.99C95.9984 71.1433 96.3017 71.22 96.6417 71.22ZM102.063 72L99.7429 66.7H100.743L102.803 71.5H102.323L104.423 66.7H105.363L103.043 72H102.063ZM109.483 72V70.88L109.433 70.67V68.76C109.433 68.3533 109.313 68.04 109.073 67.82C108.839 67.5933 108.486 67.48 108.013 67.48C107.699 67.48 107.393 67.5333 107.093 67.64C106.793 67.74 106.539 67.8767 106.333 68.05L105.933 67.33C106.206 67.11 106.533 66.9433 106.913 66.83C107.299 66.71 107.703 66.65 108.123 66.65C108.849 66.65 109.409 66.8267 109.803 67.18C110.196 67.5333 110.393 68.0733 110.393 68.8V72H109.483ZM107.743 72.06C107.349 72.06 107.003 71.9933 106.703 71.86C106.409 71.7267 106.183 71.5433 106.023 71.31C105.863 71.07 105.783 70.8 105.783 70.5C105.783 70.2133 105.849 69.9533 105.983 69.72C106.123 69.4867 106.346 69.3 106.653 69.16C106.966 69.02 107.386 68.95 107.913 68.95H109.593V69.64H107.953C107.473 69.64 107.149 69.72 106.983 69.88C106.816 70.04 106.733 70.2333 106.733 70.46C106.733 70.72 106.836 70.93 107.043 71.09C107.249 71.2433 107.536 71.32 107.903 71.32C108.263 71.32 108.576 71.24 108.843 71.08C109.116 70.92 109.313 70.6867 109.433 70.38L109.623 71.04C109.496 71.3533 109.273 71.6033 108.953 71.79C108.633 71.97 108.229 72.06 107.743 72.06ZM112.269 72V64.58H113.229V72H112.269ZM119.768 72.06C119.235 72.06 118.821 71.9167 118.528 71.63C118.235 71.3433 118.088 70.9333 118.088 70.4V65.54H119.048V70.36C119.048 70.6467 119.118 70.8667 119.258 71.02C119.405 71.1733 119.611 71.25 119.878 71.25C120.178 71.25 120.428 71.1667 120.628 71L120.928 71.69C120.781 71.8167 120.605 71.91 120.398 71.97C120.198 72.03 119.988 72.06 119.768 72.06ZM117.188 67.49V66.7H120.568V67.49H117.188ZM124.419 72.06C123.965 72.06 123.565 71.9767 123.219 71.81C122.879 71.6433 122.612 71.39 122.419 71.05C122.232 70.7033 122.139 70.27 122.139 69.75V66.7H123.099V69.64C123.099 70.16 123.222 70.55 123.469 70.81C123.722 71.07 124.075 71.2 124.529 71.2C124.862 71.2 125.152 71.1333 125.399 71C125.645 70.86 125.835 70.66 125.969 70.4C126.102 70.1333 126.169 69.8133 126.169 69.44V66.7H127.129V72H126.219V70.57L126.369 70.95C126.195 71.3033 125.935 71.5767 125.589 71.77C125.242 71.9633 124.852 72.06 124.419 72.06ZM131.866 72.06C131.413 72.06 131.003 71.96 130.636 71.76C130.276 71.5533 129.989 71.25 129.776 70.85C129.569 70.45 129.466 69.95 129.466 69.35C129.466 68.75 129.573 68.25 129.786 67.85C130.006 67.45 130.296 67.15 130.656 66.95C131.023 66.75 131.426 66.65 131.866 66.65C132.386 66.65 132.846 66.7633 133.246 66.99C133.646 67.2167 133.963 67.5333 134.196 67.94C134.429 68.34 134.546 68.81 134.546 69.35C134.546 69.89 134.429 70.3633 134.196 70.77C133.963 71.1767 133.646 71.4933 133.246 71.72C132.846 71.9467 132.386 72.06 131.866 72.06ZM129.056 72V64.58H130.016V68.11L129.916 69.34L129.976 70.57V72H129.056ZM131.786 71.22C132.126 71.22 132.429 71.1433 132.696 70.99C132.969 70.8367 133.183 70.62 133.336 70.34C133.496 70.0533 133.576 69.7233 133.576 69.35C133.576 68.97 133.496 68.6433 133.336 68.37C133.183 68.09 132.969 67.8733 132.696 67.72C132.429 67.5667 132.126 67.49 131.786 67.49C131.453 67.49 131.149 67.5667 130.876 67.72C130.609 67.8733 130.396 68.09 130.236 68.37C130.083 68.6433 130.006 68.97 130.006 69.35C130.006 69.7233 130.083 70.0533 130.236 70.34C130.396 70.62 130.609 70.8367 130.876 70.99C131.149 71.1433 131.453 71.22 131.786 71.22ZM137.493 72.06C137.053 72.06 136.633 72 136.233 71.88C135.839 71.76 135.529 71.6133 135.303 71.44L135.703 70.68C135.929 70.8333 136.209 70.9633 136.543 71.07C136.876 71.1767 137.216 71.23 137.562 71.23C138.009 71.23 138.329 71.1667 138.523 71.04C138.723 70.9133 138.823 70.7367 138.823 70.51C138.823 70.3433 138.763 70.2133 138.643 70.12C138.523 70.0267 138.363 69.9567 138.163 69.91C137.969 69.8633 137.753 69.8233 137.513 69.79C137.273 69.75 137.033 69.7033 136.793 69.65C136.553 69.59 136.333 69.51 136.133 69.41C135.933 69.3033 135.773 69.16 135.653 68.98C135.533 68.7933 135.473 68.5467 135.473 68.24C135.473 67.92 135.563 67.64 135.743 67.4C135.923 67.16 136.176 66.9767 136.503 66.85C136.836 66.7167 137.229 66.65 137.683 66.65C138.029 66.65 138.379 66.6933 138.733 66.78C139.093 66.86 139.386 66.9767 139.613 67.13L139.203 67.89C138.963 67.73 138.713 67.62 138.453 67.56C138.193 67.5 137.933 67.47 137.673 67.47C137.253 67.47 136.939 67.54 136.733 67.68C136.526 67.8133 136.423 67.9867 136.423 68.2C136.423 68.38 136.483 68.52 136.603 68.62C136.729 68.7133 136.889 68.7867 137.083 68.84C137.283 68.8933 137.503 68.94 137.743 68.98C137.983 69.0133 138.223 69.06 138.463 69.12C138.703 69.1733 138.919 69.25 139.113 69.35C139.313 69.45 139.473 69.59 139.593 69.77C139.719 69.95 139.783 70.19 139.783 70.49C139.783 70.81 139.689 71.0867 139.503 71.32C139.316 71.5533 139.053 71.7367 138.713 71.87C138.373 71.9967 137.966 72.06 137.493 72.06ZM3.73 86.06C3.19667 86.06 2.78333 85.9167 2.49 85.63C2.19667 85.3433 2.05 84.9333 2.05 84.4V79.54H3.01V84.36C3.01 84.6467 3.08 84.8667 3.22 85.02C3.36667 85.1733 3.57333 85.25 3.84 85.25C4.14 85.25 4.39 85.1667 4.59 85L4.89 85.69C4.74333 85.8167 4.56667 85.91 4.36 85.97C4.16 86.03 3.95 86.06 3.73 86.06ZM1.15 81.49V80.7H4.53V81.49H1.15ZM8.98063 80.65C9.41396 80.65 9.79396 80.7333 10.1206 80.9C10.454 81.0667 10.714 81.32 10.9006 81.66C11.0873 82 11.1806 82.43 11.1806 82.95V86H10.2206V83.06C10.2206 82.5467 10.094 82.16 9.84062 81.9C9.59396 81.64 9.24396 81.51 8.79063 81.51C8.45063 81.51 8.15396 81.5767 7.90062 81.71C7.64729 81.8433 7.45063 82.04 7.31063 82.3C7.17729 82.56 7.11062 82.8833 7.11062 83.27V86H6.15062V78.58H7.11062V82.13L6.92063 81.75C7.09396 81.4033 7.36062 81.1333 7.72063 80.94C8.08063 80.7467 8.50063 80.65 8.98063 80.65ZM16.3473 86V84.88L16.2973 84.67V82.76C16.2973 82.3533 16.1773 82.04 15.9373 81.82C15.7039 81.5933 15.3506 81.48 14.8773 81.48C14.5639 81.48 14.2573 81.5333 13.9573 81.64C13.6573 81.74 13.4039 81.8767 13.1973 82.05L12.7973 81.33C13.0706 81.11 13.3973 80.9433 13.7773 80.83C14.1639 80.71 14.5673 80.65 14.9873 80.65C15.7139 80.65 16.2739 80.8267 16.6673 81.18C17.0606 81.5333 17.2573 82.0733 17.2573 82.8V86H16.3473ZM14.6073 86.06C14.2139 86.06 13.8673 85.9933 13.5673 85.86C13.2739 85.7267 13.0473 85.5433 12.8873 85.31C12.7273 85.07 12.6473 84.8 12.6473 84.5C12.6473 84.2133 12.7139 83.9533 12.8473 83.72C12.9873 83.4867 13.2106 83.3 13.5173 83.16C13.8306 83.02 14.2506 82.95 14.7773 82.95H16.4573V83.64H14.8173C14.3373 83.64 14.0139 83.72 13.8473 83.88C13.6806 84.04 13.5973 84.2333 13.5973 84.46C13.5973 84.72 13.7006 84.93 13.9073 85.09C14.1139 85.2433 14.4006 85.32 14.7673 85.32C15.1273 85.32 15.4406 85.24 15.7073 85.08C15.9806 84.92 16.1773 84.6867 16.2973 84.38L16.4873 85.04C16.3606 85.3533 16.1373 85.6033 15.8173 85.79C15.4973 85.97 15.0939 86.06 14.6073 86.06ZM20.9538 86.06C20.4205 86.06 20.0072 85.9167 19.7138 85.63C19.4205 85.3433 19.2738 84.9333 19.2738 84.4V79.54H20.2338V84.36C20.2338 84.6467 20.3038 84.8667 20.4438 85.02C20.5905 85.1733 20.7972 85.25 21.0638 85.25C21.3638 85.25 21.6138 85.1667 21.8138 85L22.1138 85.69C21.9672 85.8167 21.7905 85.91 21.5838 85.97C21.3838 86.03 21.1738 86.06 20.9538 86.06ZM18.3738 81.49V80.7H21.7538V81.49H18.3738ZM26.94 84.72L26.96 83.49L30.01 80.7H31.17L28.83 83L28.31 83.44L26.94 84.72ZM26.16 86V78.58H27.12V86H26.16ZM30.21 86L28.13 83.42L28.75 82.65L31.39 86H30.21ZM34.5575 86.06C33.9908 86.06 33.4908 85.9433 33.0575 85.71C32.6308 85.4767 32.2975 85.1567 32.0575 84.75C31.8242 84.3433 31.7075 83.8767 31.7075 83.35C31.7075 82.8233 31.8208 82.3567 32.0475 81.95C32.2808 81.5433 32.5975 81.2267 32.9975 81C33.4042 80.7667 33.8608 80.65 34.3675 80.65C34.8808 80.65 35.3342 80.7633 35.7275 80.99C36.1208 81.2167 36.4275 81.5367 36.6475 81.95C36.8742 82.3567 36.9875 82.8333 36.9875 83.38C36.9875 83.42 36.9842 83.4667 36.9775 83.52C36.9775 83.5733 36.9742 83.6233 36.9675 83.67H32.4575V82.98H36.4675L36.0775 83.22C36.0842 82.88 36.0142 82.5767 35.8675 82.31C35.7208 82.0433 35.5175 81.8367 35.2575 81.69C35.0042 81.5367 34.7075 81.46 34.3675 81.46C34.0342 81.46 33.7375 81.5367 33.4775 81.69C33.2175 81.8367 33.0142 82.0467 32.8675 82.32C32.7208 82.5867 32.6475 82.8933 32.6475 83.24V83.4C32.6475 83.7533 32.7275 84.07 32.8875 84.35C33.0542 84.6233 33.2842 84.8367 33.5775 84.99C33.8708 85.1433 34.2075 85.22 34.5875 85.22C34.9008 85.22 35.1842 85.1667 35.4375 85.06C35.6975 84.9533 35.9242 84.7933 36.1175 84.58L36.6475 85.2C36.4075 85.48 36.1075 85.6933 35.7475 85.84C35.3942 85.9867 34.9975 86.06 34.5575 86.06ZM40.7805 86.06C40.2139 86.06 39.7139 85.9433 39.2805 85.71C38.8539 85.4767 38.5205 85.1567 38.2805 84.75C38.0472 84.3433 37.9305 83.8767 37.9305 83.35C37.9305 82.8233 38.0439 82.3567 38.2705 81.95C38.5039 81.5433 38.8205 81.2267 39.2205 81C39.6272 80.7667 40.0839 80.65 40.5905 80.65C41.1039 80.65 41.5572 80.7633 41.9505 80.99C42.3439 81.2167 42.6505 81.5367 42.8705 81.95C43.0972 82.3567 43.2105 82.8333 43.2105 83.38C43.2105 83.42 43.2072 83.4667 43.2005 83.52C43.2005 83.5733 43.1972 83.6233 43.1905 83.67H38.6805V82.98H42.6905L42.3005 83.22C42.3072 82.88 42.2372 82.5767 42.0905 82.31C41.9439 82.0433 41.7405 81.8367 41.4805 81.69C41.2272 81.5367 40.9305 81.46 40.5905 81.46C40.2572 81.46 39.9605 81.5367 39.7005 81.69C39.4405 81.8367 39.2372 82.0467 39.0905 82.32C38.9439 82.5867 38.8705 82.8933 38.8705 83.24V83.4C38.8705 83.7533 38.9505 84.07 39.1105 84.35C39.2772 84.6233 39.5072 84.8367 39.8005 84.99C40.0939 85.1433 40.4305 85.22 40.8105 85.22C41.1239 85.22 41.4072 85.1667 41.6605 85.06C41.9205 84.9533 42.1472 84.7933 42.3405 84.58L42.8705 85.2C42.6305 85.48 42.3305 85.6933 41.9705 85.84C41.6172 85.9867 41.2205 86.06 40.7805 86.06ZM47.4536 86.06C47.0136 86.06 46.6103 85.96 46.2436 85.76C45.8836 85.5533 45.5936 85.25 45.3736 84.85C45.1603 84.45 45.0536 83.95 45.0536 83.35C45.0536 82.75 45.1569 82.25 45.3636 81.85C45.5769 81.45 45.8636 81.15 46.2236 80.95C46.5903 80.75 47.0003 80.65 47.4536 80.65C47.9736 80.65 48.4336 80.7633 48.8336 80.99C49.2336 81.2167 49.5503 81.5333 49.7836 81.94C50.0169 82.34 50.1336 82.81 50.1336 83.35C50.1336 83.89 50.0169 84.3633 49.7836 84.77C49.5503 85.1767 49.2336 85.4933 48.8336 85.72C48.4336 85.9467 47.9736 86.06 47.4536 86.06ZM44.6436 87.94V80.7H45.5636V82.13L45.5036 83.36L45.6036 84.59V87.94H44.6436ZM47.3736 85.22C47.7136 85.22 48.0169 85.1433 48.2836 84.99C48.5569 84.8367 48.7703 84.62 48.9236 84.34C49.0836 84.0533 49.1636 83.7233 49.1636 83.35C49.1636 82.97 49.0836 82.6433 48.9236 82.37C48.7703 82.09 48.5569 81.8733 48.2836 81.72C48.0169 81.5667 47.7136 81.49 47.3736 81.49C47.0403 81.49 46.7369 81.5667 46.4636 81.72C46.1969 81.8733 45.9836 82.09 45.8236 82.37C45.6703 82.6433 45.5936 82.97 45.5936 83.35C45.5936 83.7233 45.6703 84.0533 45.8236 84.34C45.9836 84.62 46.1969 84.8367 46.4636 84.99C46.7369 85.1433 47.0403 85.22 47.3736 85.22ZM56.7055 86.06C56.1389 86.06 55.6389 85.9433 55.2055 85.71C54.7789 85.4767 54.4455 85.1567 54.2055 84.75C53.9722 84.3433 53.8555 83.8767 53.8555 83.35C53.8555 82.8233 53.9689 82.3567 54.1955 81.95C54.4289 81.5433 54.7455 81.2267 55.1455 81C55.5522 80.7667 56.0089 80.65 56.5155 80.65C57.0289 80.65 57.4822 80.7633 57.8755 80.99C58.2689 81.2167 58.5755 81.5367 58.7955 81.95C59.0222 82.3567 59.1355 82.8333 59.1355 83.38C59.1355 83.42 59.1322 83.4667 59.1255 83.52C59.1255 83.5733 59.1222 83.6233 59.1155 83.67H54.6055V82.98H58.6155L58.2255 83.22C58.2322 82.88 58.1622 82.5767 58.0155 82.31C57.8689 82.0433 57.6655 81.8367 57.4055 81.69C57.1522 81.5367 56.8555 81.46 56.5155 81.46C56.1822 81.46 55.8855 81.5367 55.6255 81.69C55.3655 81.8367 55.1622 82.0467 55.0155 82.32C54.8689 82.5867 54.7955 82.8933 54.7955 83.24V83.4C54.7955 83.7533 54.8755 84.07 55.0355 84.35C55.2022 84.6233 55.4322 84.8367 55.7255 84.99C56.0189 85.1433 56.3555 85.22 56.7355 85.22C57.0489 85.22 57.3322 85.1667 57.5855 85.06C57.8455 84.9533 58.0722 84.7933 58.2655 84.58L58.7955 85.2C58.5555 85.48 58.2555 85.6933 57.8955 85.84C57.5422 85.9867 57.1455 86.06 56.7055 86.06ZM61.8609 86L59.5409 80.7H60.5409L62.6009 85.5H62.1209L64.2209 80.7H65.1609L62.8409 86H61.8609ZM68.3704 86.06C67.8037 86.06 67.3037 85.9433 66.8704 85.71C66.4437 85.4767 66.1104 85.1567 65.8704 84.75C65.6371 84.3433 65.5204 83.8767 65.5204 83.35C65.5204 82.8233 65.6337 82.3567 65.8604 81.95C66.0937 81.5433 66.4104 81.2267 66.8104 81C67.2171 80.7667 67.6737 80.65 68.1804 80.65C68.6937 80.65 69.1471 80.7633 69.5404 80.99C69.9337 81.2167 70.2404 81.5367 70.4604 81.95C70.6871 82.3567 70.8004 82.8333 70.8004 83.38C70.8004 83.42 70.7971 83.4667 70.7904 83.52C70.7904 83.5733 70.7871 83.6233 70.7804 83.67H66.2704V82.98H70.2804L69.8904 83.22C69.8971 82.88 69.8271 82.5767 69.6804 82.31C69.5337 82.0433 69.3304 81.8367 69.0704 81.69C68.8171 81.5367 68.5204 81.46 68.1804 81.46C67.8471 81.46 67.5504 81.5367 67.2904 81.69C67.0304 81.8367 66.8271 82.0467 66.6804 82.32C66.5337 82.5867 66.4604 82.8933 66.4604 83.24V83.4C66.4604 83.7533 66.5404 84.07 66.7004 84.35C66.8671 84.6233 67.0971 84.8367 67.3904 84.99C67.6837 85.1433 68.0204 85.22 68.4004 85.22C68.7137 85.22 68.9971 85.1667 69.2504 85.06C69.5104 84.9533 69.7371 84.7933 69.9304 84.58L70.4604 85.2C70.2204 85.48 69.9204 85.6933 69.5604 85.84C69.2071 85.9867 68.8104 86.06 68.3704 86.06ZM72.2334 86V80.7H73.1534V82.14L73.0634 81.78C73.2101 81.4133 73.4568 81.1333 73.8034 80.94C74.1501 80.7467 74.5768 80.65 75.0834 80.65V81.58C75.0434 81.5733 75.0034 81.57 74.9634 81.57C74.9301 81.57 74.8968 81.57 74.8634 81.57C74.3501 81.57 73.9434 81.7233 73.6434 82.03C73.3434 82.3367 73.1934 82.78 73.1934 83.36V86H72.2334ZM76.8115 88C76.5582 88 76.3115 87.9567 76.0715 87.87C75.8315 87.79 75.6248 87.67 75.4515 87.51L75.8615 86.79C75.9948 86.9167 76.1415 87.0133 76.3015 87.08C76.4615 87.1467 76.6315 87.18 76.8115 87.18C77.0448 87.18 77.2382 87.12 77.3915 87C77.5448 86.88 77.6882 86.6667 77.8215 86.36L78.1515 85.63L78.2515 85.51L80.3315 80.7H81.2715L78.7015 86.53C78.5482 86.9033 78.3748 87.1967 78.1815 87.41C77.9948 87.6233 77.7882 87.7733 77.5615 87.86C77.3348 87.9533 77.0848 88 76.8115 88ZM78.0715 86.17L75.6515 80.7H76.6515L78.7115 85.42L78.0715 86.17ZM86.573 86.06C86.133 86.06 85.713 86 85.313 85.88C84.9196 85.76 84.6096 85.6133 84.383 85.44L84.783 84.68C85.0096 84.8333 85.2896 84.9633 85.623 85.07C85.9563 85.1767 86.2963 85.23 86.643 85.23C87.0896 85.23 87.4096 85.1667 87.603 85.04C87.803 84.9133 87.903 84.7367 87.903 84.51C87.903 84.3433 87.843 84.2133 87.723 84.12C87.603 84.0267 87.443 83.9567 87.243 83.91C87.0496 83.8633 86.833 83.8233 86.593 83.79C86.353 83.75 86.113 83.7033 85.873 83.65C85.633 83.59 85.413 83.51 85.213 83.41C85.013 83.3033 84.853 83.16 84.733 82.98C84.613 82.7933 84.553 82.5467 84.553 82.24C84.553 81.92 84.643 81.64 84.823 81.4C85.003 81.16 85.2563 80.9767 85.583 80.85C85.9163 80.7167 86.3096 80.65 86.763 80.65C87.1096 80.65 87.4596 80.6933 87.813 80.78C88.173 80.86 88.4663 80.9767 88.693 81.13L88.283 81.89C88.043 81.73 87.793 81.62 87.533 81.56C87.273 81.5 87.013 81.47 86.753 81.47C86.333 81.47 86.0196 81.54 85.813 81.68C85.6063 81.8133 85.503 81.9867 85.503 82.2C85.503 82.38 85.563 82.52 85.683 82.62C85.8096 82.7133 85.9696 82.7867 86.163 82.84C86.363 82.8933 86.583 82.94 86.823 82.98C87.063 83.0133 87.303 83.06 87.543 83.12C87.783 83.1733 87.9996 83.25 88.193 83.35C88.393 83.45 88.553 83.59 88.673 83.77C88.7996 83.95 88.863 84.19 88.863 84.49C88.863 84.81 88.7696 85.0867 88.583 85.32C88.3963 85.5533 88.133 85.7367 87.793 85.87C87.453 85.9967 87.0463 86.06 86.573 86.06ZM92.4727 86.06C91.9327 86.06 91.4494 85.9433 91.0227 85.71C90.6027 85.4767 90.2727 85.1567 90.0327 84.75C89.7927 84.3433 89.6727 83.8767 89.6727 83.35C89.6727 82.8233 89.7927 82.3567 90.0327 81.95C90.2727 81.5433 90.6027 81.2267 91.0227 81C91.4494 80.7667 91.9327 80.65 92.4727 80.65C92.9527 80.65 93.3794 80.7467 93.7527 80.94C94.1327 81.1267 94.4261 81.4067 94.6327 81.78L93.9027 82.25C93.7294 81.99 93.5161 81.8 93.2627 81.68C93.0161 81.5533 92.7494 81.49 92.4627 81.49C92.1161 81.49 91.8061 81.5667 91.5327 81.72C91.2594 81.8733 91.0427 82.09 90.8827 82.37C90.7227 82.6433 90.6427 82.97 90.6427 83.35C90.6427 83.73 90.7227 84.06 90.8827 84.34C91.0427 84.62 91.2594 84.8367 91.5327 84.99C91.8061 85.1433 92.1161 85.22 92.4627 85.22C92.7494 85.22 93.0161 85.16 93.2627 85.04C93.5161 84.9133 93.7294 84.72 93.9027 84.46L94.6327 84.92C94.4261 85.2867 94.1327 85.57 93.7527 85.77C93.3794 85.9633 92.9527 86.06 92.4727 86.06ZM98.1675 86.06C97.6342 86.06 97.1608 85.9433 96.7475 85.71C96.3342 85.4767 96.0075 85.1567 95.7675 84.75C95.5275 84.3367 95.4075 83.87 95.4075 83.35C95.4075 82.8233 95.5275 82.3567 95.7675 81.95C96.0075 81.5433 96.3342 81.2267 96.7475 81C97.1608 80.7667 97.6342 80.65 98.1675 80.65C98.6942 80.65 99.1642 80.7667 99.5775 81C99.9975 81.2267 100.324 81.5433 100.558 81.95C100.798 82.35 100.918 82.8167 100.918 83.35C100.918 83.8767 100.798 84.3433 100.558 84.75C100.324 85.1567 99.9975 85.4767 99.5775 85.71C99.1642 85.9433 98.6942 86.06 98.1675 86.06ZM98.1675 85.22C98.5075 85.22 98.8108 85.1433 99.0775 84.99C99.3508 84.8367 99.5642 84.62 99.7175 84.34C99.8708 84.0533 99.9475 83.7233 99.9475 83.35C99.9475 82.97 99.8708 82.6433 99.7175 82.37C99.5642 82.09 99.3508 81.8733 99.0775 81.72C98.8108 81.5667 98.5075 81.49 98.1675 81.49C97.8275 81.49 97.5242 81.5667 97.2575 81.72C96.9908 81.8733 96.7775 82.09 96.6175 82.37C96.4575 82.6433 96.3775 82.97 96.3775 83.35C96.3775 83.7233 96.4575 84.0533 96.6175 84.34C96.7775 84.62 96.9908 84.8367 97.2575 84.99C97.5242 85.1433 97.8275 85.22 98.1675 85.22ZM104.615 86.06C104.082 86.06 103.608 85.9433 103.195 85.71C102.782 85.4767 102.455 85.1567 102.215 84.75C101.975 84.3367 101.855 83.87 101.855 83.35C101.855 82.8233 101.975 82.3567 102.215 81.95C102.455 81.5433 102.782 81.2267 103.195 81C103.608 80.7667 104.082 80.65 104.615 80.65C105.142 80.65 105.612 80.7667 106.025 81C106.445 81.2267 106.772 81.5433 107.005 81.95C107.245 82.35 107.365 82.8167 107.365 83.35C107.365 83.8767 107.245 84.3433 107.005 84.75C106.772 85.1567 106.445 85.4767 106.025 85.71C105.612 85.9433 105.142 86.06 104.615 86.06ZM104.615 85.22C104.955 85.22 105.258 85.1433 105.525 84.99C105.798 84.8367 106.012 84.62 106.165 84.34C106.318 84.0533 106.395 83.7233 106.395 83.35C106.395 82.97 106.318 82.6433 106.165 82.37C106.012 82.09 105.798 81.8733 105.525 81.72C105.258 81.5667 104.955 81.49 104.615 81.49C104.275 81.49 103.972 81.5667 103.705 81.72C103.438 81.8733 103.225 82.09 103.065 82.37C102.905 82.6433 102.825 82.97 102.825 83.35C102.825 83.7233 102.905 84.0533 103.065 84.34C103.225 84.62 103.438 84.8367 103.705 84.99C103.972 85.1433 104.275 85.22 104.615 85.22ZM111.603 86.06C111.163 86.06 110.759 85.96 110.393 85.76C110.033 85.5533 109.743 85.25 109.523 84.85C109.309 84.45 109.203 83.95 109.203 83.35C109.203 82.75 109.306 82.25 109.513 81.85C109.726 81.45 110.013 81.15 110.373 80.95C110.739 80.75 111.149 80.65 111.603 80.65C112.123 80.65 112.583 80.7633 112.983 80.99C113.383 81.2167 113.699 81.5333 113.933 81.94C114.166 82.34 114.283 82.81 114.283 83.35C114.283 83.89 114.166 84.3633 113.933 84.77C113.699 85.1767 113.383 85.4933 112.983 85.72C112.583 85.9467 112.123 86.06 111.603 86.06ZM108.793 87.94V80.7H109.713V82.13L109.653 83.36L109.753 84.59V87.94H108.793ZM111.523 85.22C111.863 85.22 112.166 85.1433 112.433 84.99C112.706 84.8367 112.919 84.62 113.073 84.34C113.233 84.0533 113.313 83.7233 113.313 83.35C113.313 82.97 113.233 82.6433 113.073 82.37C112.919 82.09 112.706 81.8733 112.433 81.72C112.166 81.5667 111.863 81.49 111.523 81.49C111.189 81.49 110.886 81.5667 110.613 81.72C110.346 81.8733 110.133 82.09 109.973 82.37C109.819 82.6433 109.743 82.97 109.743 83.35C109.743 83.7233 109.819 84.0533 109.973 84.34C110.133 84.62 110.346 84.8367 110.613 84.99C110.886 85.1433 111.189 85.22 111.523 85.22ZM118.635 86V80.23C118.635 79.71 118.785 79.2967 119.085 78.99C119.391 78.6767 119.825 78.52 120.385 78.52C120.591 78.52 120.788 78.5467 120.975 78.6C121.168 78.6467 121.331 78.7233 121.465 78.83L121.175 79.56C121.075 79.48 120.961 79.42 120.835 79.38C120.708 79.3333 120.575 79.31 120.435 79.31C120.155 79.31 119.941 79.39 119.795 79.55C119.648 79.7033 119.575 79.9333 119.575 80.24V80.95L119.595 81.39V86H118.635ZM117.735 81.49V80.7H121.115V81.49H117.735ZM122.12 86V80.7H123.04V82.14L122.95 81.78C123.097 81.4133 123.343 81.1333 123.69 80.94C124.037 80.7467 124.463 80.65 124.97 80.65V81.58C124.93 81.5733 124.89 81.57 124.85 81.57C124.817 81.57 124.783 81.57 124.75 81.57C124.237 81.57 123.83 81.7233 123.53 82.03C123.23 82.3367 123.08 82.78 123.08 83.36V86H122.12ZM128.565 86.06C127.998 86.06 127.498 85.9433 127.065 85.71C126.638 85.4767 126.305 85.1567 126.065 84.75C125.831 84.3433 125.715 83.8767 125.715 83.35C125.715 82.8233 125.828 82.3567 126.055 81.95C126.288 81.5433 126.605 81.2267 127.005 81C127.411 80.7667 127.868 80.65 128.375 80.65C128.888 80.65 129.341 80.7633 129.735 80.99C130.128 81.2167 130.435 81.5367 130.655 81.95C130.881 82.3567 130.995 82.8333 130.995 83.38C130.995 83.42 130.991 83.4667 130.985 83.52C130.985 83.5733 130.981 83.6233 130.975 83.67H126.465V82.98H130.475L130.085 83.22C130.091 82.88 130.021 82.5767 129.875 82.31C129.728 82.0433 129.525 81.8367 129.265 81.69C129.011 81.5367 128.715 81.46 128.375 81.46C128.041 81.46 127.745 81.5367 127.485 81.69C127.225 81.8367 127.021 82.0467 126.875 82.32C126.728 82.5867 126.655 82.8933 126.655 83.24V83.4C126.655 83.7533 126.735 84.07 126.895 84.35C127.061 84.6233 127.291 84.8367 127.585 84.99C127.878 85.1433 128.215 85.22 128.595 85.22C128.908 85.22 129.191 85.1667 129.445 85.06C129.705 84.9533 129.931 84.7933 130.125 84.58L130.655 85.2C130.415 85.48 130.115 85.6933 129.755 85.84C129.401 85.9867 129.005 86.06 128.565 86.06ZM133.948 86.06C133.508 86.06 133.088 86 132.688 85.88C132.294 85.76 131.984 85.6133 131.758 85.44L132.158 84.68C132.384 84.8333 132.664 84.9633 132.998 85.07C133.331 85.1767 133.671 85.23 134.018 85.23C134.464 85.23 134.784 85.1667 134.978 85.04C135.178 84.9133 135.278 84.7367 135.278 84.51C135.278 84.3433 135.218 84.2133 135.098 84.12C134.978 84.0267 134.818 83.9567 134.618 83.91C134.424 83.8633 134.208 83.8233 133.968 83.79C133.728 83.75 133.488 83.7033 133.248 83.65C133.008 83.59 132.788 83.51 132.588 83.41C132.388 83.3033 132.228 83.16 132.108 82.98C131.988 82.7933 131.928 82.5467 131.928 82.24C131.928 81.92 132.018 81.64 132.198 81.4C132.378 81.16 132.631 80.9767 132.958 80.85C133.291 80.7167 133.684 80.65 134.138 80.65C134.484 80.65 134.834 80.6933 135.188 80.78C135.548 80.86 135.841 80.9767 136.068 81.13L135.658 81.89C135.418 81.73 135.168 81.62 134.908 81.56C134.648 81.5 134.388 81.47 134.128 81.47C133.708 81.47 133.394 81.54 133.188 81.68C132.981 81.8133 132.878 81.9867 132.878 82.2C132.878 82.38 132.938 82.52 133.058 82.62C133.184 82.7133 133.344 82.7867 133.538 82.84C133.738 82.8933 133.958 82.94 134.198 82.98C134.438 83.0133 134.678 83.06 134.918 83.12C135.158 83.1733 135.374 83.25 135.568 83.35C135.768 83.45 135.928 83.59 136.048 83.77C136.174 83.95 136.238 84.19 136.238 84.49C136.238 84.81 136.144 85.0867 135.958 85.32C135.771 85.5533 135.508 85.7367 135.168 85.87C134.828 85.9967 134.421 86.06 133.948 86.06ZM140.367 80.65C140.801 80.65 141.181 80.7333 141.507 80.9C141.841 81.0667 142.101 81.32 142.287 81.66C142.474 82 142.567 82.43 142.567 82.95V86H141.607V83.06C141.607 82.5467 141.481 82.16 141.227 81.9C140.981 81.64 140.631 81.51 140.177 81.51C139.837 81.51 139.541 81.5767 139.287 81.71C139.034 81.8433 138.837 82.04 138.697 82.3C138.564 82.56 138.497 82.8833 138.497 83.27V86H137.537V78.58H138.497V82.13L138.307 81.75C138.481 81.4033 138.747 81.1333 139.107 80.94C139.467 80.7467 139.887 80.65 140.367 80.65Z" fill="black"/>
</svg>
