<svg width="76" height="33" viewBox="0 0 76 33" fill="none" xmlns="http://www.w3.org/2000/svg">
<path d="M2.964 12V4.824H0.06V3.54H7.404V4.824H4.5V12H2.964ZM9.97163 12.12C9.36363 12.12 8.83563 11.996 8.38763 11.748C7.93963 11.5 7.59163 11.148 7.34363 10.692C7.09563 10.228 6.97163 9.684 6.97163 9.06C6.97163 8.436 7.09563 7.896 7.34363 7.44C7.59163 6.984 7.93963 6.632 8.38763 6.384C8.83563 6.136 9.36363 6.012 9.97163 6.012C10.5796 6.012 11.1076 6.136 11.5556 6.384C12.0036 6.632 12.3516 6.984 12.5996 7.44C12.8476 7.896 12.9716 8.436 12.9716 9.06C12.9716 9.684 12.8476 10.228 12.5996 10.692C12.3516 11.148 12.0036 11.5 11.5556 11.748C11.1076 11.996 10.5796 12.12 9.97163 12.12ZM9.97163 10.98C10.4196 10.98 10.7796 10.82 11.0516 10.5C11.3236 10.172 11.4596 9.692 11.4596 9.06C11.4596 8.42 11.3236 7.944 11.0516 7.632C10.7796 7.312 10.4196 7.152 9.97163 7.152C9.52363 7.152 9.16363 7.312 8.89163 7.632C8.61963 7.944 8.48363 8.42 8.48363 9.06C8.48363 9.692 8.61963 10.172 8.89163 10.5C9.16363 10.82 9.52363 10.98 9.97163 10.98ZM14.2097 14.16V6.132H15.6737V7.368H15.5537C15.6737 6.96 15.9177 6.632 16.2857 6.384C16.6617 6.136 17.0977 6.012 17.5937 6.012C18.1057 6.012 18.5537 6.136 18.9377 6.384C19.3297 6.632 19.6337 6.984 19.8497 7.44C20.0657 7.888 20.1737 8.428 20.1737 9.06C20.1737 9.684 20.0657 10.228 19.8497 10.692C19.6337 11.148 19.3337 11.5 18.9497 11.748C18.5657 11.996 18.1137 12.12 17.5937 12.12C17.1057 12.12 16.6777 12 16.3097 11.76C15.9417 11.512 15.6937 11.192 15.5657 10.8H15.7097V14.16H14.2097ZM17.1737 10.98C17.6217 10.98 17.9817 10.82 18.2537 10.5C18.5257 10.172 18.6617 9.692 18.6617 9.06C18.6617 8.42 18.5257 7.944 18.2537 7.632C17.9817 7.312 17.6217 7.152 17.1737 7.152C16.7257 7.152 16.3657 7.312 16.0937 7.632C15.8217 7.944 15.6857 8.42 15.6857 9.06C15.6857 9.692 15.8217 10.172 16.0937 10.5C16.3657 10.82 16.7257 10.98 17.1737 10.98Z" fill="#BB5F6A"/>
<path d="M3 30.6037C2.20667 30.6037 1.58667 30.4337 1.14 30.0937C0.693333 29.747 0.47 29.267 0.47 28.6537C0.47 28.327 0.533333 28.0403 0.66 27.7937C0.793333 27.547 0.976667 27.3437 1.21 27.1837C1.44333 27.0237 1.71 26.9203 2.01 26.8737V26.9537C1.74333 26.887 1.50667 26.7737 1.3 26.6137C1.09333 26.4537 0.93 26.257 0.81 26.0237C0.696667 25.7903 0.64 25.5337 0.64 25.2537C0.64 24.667 0.853333 24.207 1.28 23.8737C1.70667 23.5403 2.28 23.3737 3 23.3737C3.72 23.3737 4.29333 23.5403 4.72 23.8737C5.14667 24.207 5.36 24.667 5.36 25.2537C5.36 25.5337 5.3 25.7937 5.18 26.0337C5.06667 26.267 4.90667 26.4637 4.7 26.6237C4.5 26.777 4.26333 26.887 3.99 26.9537V26.8737C4.29 26.9203 4.55333 27.0237 4.78 27.1837C5.01333 27.3437 5.19667 27.547 5.33 27.7937C5.46333 28.0403 5.53 28.327 5.53 28.6537C5.53 29.267 5.30667 29.747 4.86 30.0937C4.41333 30.4337 3.79333 30.6037 3 30.6037ZM3 29.8937C3.56 29.8937 3.98333 29.7837 4.27 29.5637C4.56333 29.3437 4.71 29.0203 4.71 28.5937C4.71 28.167 4.56333 27.8437 4.27 27.6237C3.98333 27.4037 3.56 27.2937 3 27.2937C2.44667 27.2937 2.02333 27.4037 1.73 27.6237C1.43667 27.8437 1.29 28.167 1.29 28.5937C1.29 29.0203 1.43667 29.3437 1.73 29.5637C2.02333 29.7837 2.44667 29.8937 3 29.8937ZM3 26.5837C3.48667 26.5837 3.86667 26.4737 4.14 26.2537C4.41333 26.027 4.55 25.717 4.55 25.3237C4.55 24.937 4.41333 24.6337 4.14 24.4137C3.86667 24.1937 3.48667 24.0837 3 24.0837C2.52 24.0837 2.14333 24.1937 1.87 24.4137C1.59667 24.6337 1.46 24.937 1.46 25.3237C1.46 25.717 1.59667 26.027 1.87 26.2537C2.14333 26.4737 2.52 26.5837 3 26.5837ZM9.23609 30.6037C8.67609 30.6037 8.19943 30.467 7.80609 30.1937C7.41943 29.9203 7.12276 29.527 6.91609 29.0137C6.70943 28.5003 6.60609 27.8803 6.60609 27.1537C6.60609 26.3403 6.71943 25.6537 6.94609 25.0937C7.17276 24.5337 7.49943 24.107 7.92609 23.8137C8.35276 23.5203 8.86609 23.3737 9.46609 23.3737C9.71943 23.3737 9.96609 23.407 10.2061 23.4737C10.4528 23.5403 10.6828 23.637 10.8961 23.7637C11.1161 23.8903 11.3094 24.0437 11.4761 24.2237L11.1561 24.8837C10.9028 24.617 10.6328 24.4237 10.3461 24.3037C10.0594 24.1837 9.76276 24.1237 9.45609 24.1237C9.12943 24.1237 8.83943 24.187 8.58609 24.3137C8.33276 24.4337 8.11943 24.617 7.94609 24.8637C7.77276 25.1037 7.64276 25.4037 7.55609 25.7637C7.46943 26.1237 7.42609 26.5403 7.42609 27.0137V27.7737H7.37609C7.42943 27.427 7.54609 27.127 7.72609 26.8737C7.90609 26.6203 8.13609 26.427 8.41609 26.2937C8.69609 26.1537 9.00276 26.0837 9.33609 26.0837C9.75609 26.0837 10.1261 26.1803 10.4461 26.3737C10.7728 26.5603 11.0261 26.8203 11.2061 27.1537C11.3928 27.487 11.4861 27.8737 11.4861 28.3137C11.4861 28.7537 11.3894 29.147 11.1961 29.4937C11.0094 29.8403 10.7461 30.1137 10.4061 30.3137C10.0661 30.507 9.67609 30.6037 9.23609 30.6037ZM9.18609 29.8737C9.47943 29.8737 9.73609 29.8103 9.95609 29.6837C10.1828 29.557 10.3594 29.377 10.4861 29.1437C10.6128 28.9103 10.6761 28.6403 10.6761 28.3337C10.6761 28.0337 10.6128 27.7703 10.4861 27.5437C10.3594 27.3103 10.1828 27.1303 9.95609 27.0037C9.73609 26.8703 9.47943 26.8037 9.18609 26.8037C8.88609 26.8037 8.62276 26.8703 8.39609 27.0037C8.17609 27.1303 8.00276 27.3103 7.87609 27.5437C7.74943 27.7703 7.68609 28.0337 7.68609 28.3337C7.68609 28.6403 7.74943 28.9103 7.87609 29.1437C8.00276 29.377 8.17609 29.557 8.39609 29.6837C8.62276 29.8103 8.88609 29.8737 9.18609 29.8737ZM12.6622 30.5137V29.4537H13.7522V30.5137H12.6622ZM17.5438 30.6037C17.2372 30.6037 16.9405 30.5703 16.6538 30.5037C16.3672 30.437 16.1005 30.3403 15.8538 30.2137C15.6072 30.087 15.3872 29.9337 15.1938 29.7537L15.5238 29.0737C15.8372 29.3403 16.1572 29.537 16.4838 29.6637C16.8105 29.7903 17.1605 29.8537 17.5338 29.8537C18.0272 29.8537 18.4105 29.7203 18.6838 29.4537C18.9638 29.187 19.1038 28.827 19.1038 28.3737C19.1038 27.9137 18.9705 27.5403 18.7038 27.2537C18.4438 26.967 18.0838 26.8237 17.6238 26.8237C17.2972 26.8237 17.0072 26.8903 16.7538 27.0237C16.5005 27.1503 16.2705 27.3603 16.0638 27.6537H15.4138V23.4637H19.5638V24.2037H16.2238V26.9237H16.0838C16.2572 26.6703 16.4872 26.4703 16.7738 26.3237C17.0672 26.1703 17.3972 26.0937 17.7638 26.0937C18.2105 26.0937 18.5972 26.187 18.9238 26.3737C19.2505 26.5603 19.5005 26.8203 19.6738 27.1537C19.8538 27.487 19.9438 27.877 19.9438 28.3237C19.9438 28.7837 19.8438 29.1837 19.6438 29.5237C19.4505 29.8637 19.1738 30.1303 18.8138 30.3237C18.4605 30.5103 18.0372 30.6037 17.5438 30.6037ZM23.9357 30.5137V25.6137H24.7457V26.6937H24.6857C24.7724 26.4603 24.8924 26.257 25.0457 26.0837C25.2057 25.9037 25.3957 25.767 25.6157 25.6737C25.8357 25.5737 26.079 25.5237 26.3457 25.5237C26.7657 25.5237 27.109 25.627 27.3757 25.8337C27.6424 26.0403 27.8157 26.3303 27.8957 26.7037H27.8157C27.9424 26.357 28.1557 26.0737 28.4557 25.8537C28.7557 25.6337 29.119 25.5237 29.5457 25.5237C29.919 25.5237 30.229 25.597 30.4757 25.7437C30.7224 25.8837 30.909 26.097 31.0357 26.3837C31.1624 26.6703 31.2257 27.0337 31.2257 27.4737V30.5137H30.3857V27.5237C30.3857 27.0903 30.3057 26.767 30.1457 26.5537C29.9924 26.3403 29.7257 26.2337 29.3457 26.2337C29.0724 26.2337 28.8324 26.3003 28.6257 26.4337C28.4257 26.5603 28.2724 26.737 28.1657 26.9637C28.059 27.1903 28.0057 27.457 28.0057 27.7637V30.5137H27.1557V27.5237C27.1557 27.0903 27.0724 26.767 26.9057 26.5537C26.7457 26.3403 26.4857 26.2337 26.1257 26.2337C25.8524 26.2337 25.6124 26.3003 25.4057 26.4337C25.2057 26.567 25.0524 26.7503 24.9457 26.9837C24.839 27.2103 24.7857 27.4637 24.7857 27.7437V30.5137H23.9357ZM32.881 30.5137V25.6137H33.691V26.6937H33.631C33.7177 26.4603 33.8377 26.257 33.991 26.0837C34.151 25.9037 34.341 25.767 34.561 25.6737C34.781 25.5737 35.0243 25.5237 35.291 25.5237C35.711 25.5237 36.0543 25.627 36.321 25.8337C36.5877 26.0403 36.761 26.3303 36.841 26.7037H36.761C36.8877 26.357 37.101 26.0737 37.401 25.8537C37.701 25.6337 38.0643 25.5237 38.491 25.5237C38.8643 25.5237 39.1743 25.597 39.421 25.7437C39.6677 25.8837 39.8543 26.097 39.981 26.3837C40.1077 26.6703 40.171 27.0337 40.171 27.4737V30.5137H39.331V27.5237C39.331 27.0903 39.251 26.767 39.091 26.5537C38.9377 26.3403 38.671 26.2337 38.291 26.2337C38.0177 26.2337 37.7777 26.3003 37.571 26.4337C37.371 26.5603 37.2177 26.737 37.111 26.9637C37.0043 27.1903 36.951 27.457 36.951 27.7637V30.5137H36.101V27.5237C36.101 27.0903 36.0177 26.767 35.851 26.5537C35.691 26.3403 35.431 26.2337 35.071 26.2337C34.7977 26.2337 34.5577 26.3003 34.351 26.4337C34.151 26.567 33.9977 26.7503 33.891 26.9837C33.7843 27.2103 33.731 27.4637 33.731 27.7437V30.5137H32.881Z" fill="black"/>
</svg>
