<svg width="165" height="50" viewBox="0 0 165 50" fill="none" xmlns="http://www.w3.org/2000/svg">
<g filter="url(#filter0_d_2040_758)">
<rect x="24.1406" y="4.7168" width="33" height="31" rx="6" transform="rotate(46.3303 24.1406 4.7168)" fill="white"/>
</g>
<path d="M20.1982 21.1045H28.2373C28.4651 21.1045 28.6809 21.2079 28.8232 21.3857L30.3037 23.2363C30.4101 23.3693 30.4677 23.5348 30.4678 23.7051V33.3545C30.4678 33.7687 30.132 34.1045 29.7178 34.1045H18.7178C18.3036 34.1045 17.9678 33.7687 17.9678 33.3545V23.7051C17.9678 23.5348 18.0255 23.3693 18.1318 23.2363L19.6123 21.3857C19.7546 21.2079 19.9705 21.1045 20.1982 21.1045Z" stroke="black" stroke-width="0.5"/>
<path d="M18.2178 23.3545H30.2178" stroke="black" stroke-width="0.5"/>
<path d="M26.4678 23.6045V29.834L24.374 28.1592L24.2178 28.0342L24.0615 28.1592L21.9678 29.834V23.6045H26.4678Z" stroke="black" stroke-width="0.5"/>
<path d="M55.967 22.667V13.1515H60.0971C60.799 13.1515 61.3929 13.2685 61.8788 13.5024C62.3647 13.7364 62.7336 14.0738 62.9855 14.5147C63.2375 14.9556 63.3634 15.491 63.3634 16.1209C63.3634 16.7417 63.2375 17.2771 62.9855 17.727C62.7336 18.1679 62.3647 18.5099 61.8788 18.7528C61.3929 18.9868 60.799 19.1037 60.0971 19.1037H57.6946V22.667H55.967ZM57.6946 17.7405H59.8272C60.4391 17.7405 60.9025 17.6056 61.2174 17.3356C61.5323 17.0567 61.6898 16.6518 61.6898 16.1209C61.6898 15.59 61.5323 15.1896 61.2174 14.9196C60.9025 14.6497 60.4391 14.5147 59.8272 14.5147H57.6946V17.7405ZM67.3307 22.802C66.6378 22.802 66.0349 22.6625 65.522 22.3836C65.0092 22.0956 64.6132 21.6907 64.3343 21.1688C64.0554 20.6469 63.9159 20.035 63.9159 19.3332C63.9159 18.6313 64.0554 18.0285 64.3343 17.5246C64.6132 17.0117 65.0092 16.6203 65.522 16.3503C66.0349 16.0714 66.6378 15.9319 67.3307 15.9319C67.7536 15.9319 68.172 15.9994 68.5859 16.1344C68.9998 16.2693 69.3417 16.4583 69.6117 16.7013L69.1123 17.8755C68.8783 17.6685 68.6129 17.5111 68.316 17.4031C68.028 17.2951 67.7491 17.2411 67.4791 17.2411C66.8943 17.2411 66.4398 17.4256 66.1159 17.7945C65.801 18.1544 65.6435 18.6718 65.6435 19.3467C65.6435 20.0126 65.801 20.5389 66.1159 20.9259C66.4398 21.3038 66.8943 21.4927 67.4791 21.4927C67.7401 21.4927 68.019 21.4388 68.316 21.3308C68.6129 21.2228 68.8783 21.0608 69.1123 20.8449L69.6117 22.0326C69.3417 22.2666 68.9953 22.4555 68.5724 22.5995C68.1585 22.7345 67.7446 22.802 67.3307 22.802ZM73.0626 22.802C72.6937 22.802 72.3338 22.7705 71.9829 22.7075C71.6409 22.6445 71.326 22.559 71.0381 22.451C70.7501 22.3341 70.4982 22.1901 70.2822 22.0191L70.7141 20.9124C70.9391 21.0563 71.182 21.1823 71.443 21.2903C71.7039 21.3983 71.9739 21.4792 72.2528 21.5332C72.5317 21.5872 72.8062 21.6142 73.0761 21.6142C73.508 21.6142 73.8275 21.5422 74.0344 21.3983C74.2504 21.2453 74.3583 21.0473 74.3583 20.8044C74.3583 20.5974 74.2864 20.44 74.1424 20.332C74.0074 20.215 73.8005 20.1295 73.5215 20.0755L72.1718 19.8191C71.6139 19.7111 71.1865 19.5087 70.8896 19.2117C70.6016 18.9058 70.4577 18.5144 70.4577 18.0375C70.4577 17.6056 70.5746 17.2321 70.8086 16.9172C71.0515 16.6023 71.3845 16.3593 71.8074 16.1884C72.2303 16.0174 72.7162 15.9319 73.2651 15.9319C73.58 15.9319 73.8859 15.9634 74.1829 16.0264C74.4798 16.0804 74.7588 16.1659 75.0197 16.2828C75.2897 16.3908 75.5236 16.5348 75.7216 16.7148L75.2627 17.8215C75.0917 17.6775 74.8937 17.5561 74.6688 17.4571C74.4438 17.3491 74.2099 17.2681 73.9669 17.2141C73.733 17.1512 73.5035 17.1197 73.2786 17.1197C72.8377 17.1197 72.5092 17.1961 72.2933 17.3491C72.0863 17.5021 71.9829 17.7045 71.9829 17.9565C71.9829 18.1454 72.0458 18.3029 72.1718 18.4289C72.2978 18.5549 72.4912 18.6403 72.7522 18.6853L74.1019 18.9418C74.6868 19.0498 75.1277 19.2477 75.4246 19.5357C75.7306 19.8236 75.8835 20.2105 75.8835 20.6964C75.8835 21.1373 75.7666 21.5152 75.5326 21.8302C75.2986 22.1451 74.9702 22.3881 74.5473 22.559C74.1244 22.721 73.6295 22.802 73.0626 22.802ZM81.0369 22.667V13.1515H85.167C85.8689 13.1515 86.4628 13.2685 86.9487 13.5024C87.4345 13.7364 87.8035 14.0738 88.0554 14.5147C88.3074 14.9556 88.4333 15.491 88.4333 16.1209C88.4333 16.7417 88.3074 17.2771 88.0554 17.727C87.8035 18.1679 87.4345 18.5099 86.9487 18.7528C86.4628 18.9868 85.8689 19.1037 85.167 19.1037H82.7645V22.667H81.0369ZM82.7645 17.7405H84.8971C85.509 17.7405 85.9724 17.6056 86.2873 17.3356C86.6022 17.0567 86.7597 16.6518 86.7597 16.1209C86.7597 15.59 86.6022 15.1896 86.2873 14.9196C85.9724 14.6497 85.509 14.5147 84.8971 14.5147H82.7645V17.7405ZM92.603 22.802C91.8562 22.802 91.2128 22.6625 90.6729 22.3836C90.133 22.1046 89.7146 21.7087 89.4177 21.1958C89.1297 20.6829 88.9858 20.0755 88.9858 19.3737C88.9858 18.6898 89.1252 18.0915 89.4042 17.5786C89.6921 17.0657 90.0835 16.6653 90.5784 16.3773C91.0823 16.0804 91.6537 15.9319 92.2926 15.9319C92.9224 15.9319 93.4623 16.0669 93.9122 16.3368C94.3621 16.6068 94.7086 16.9892 94.9515 17.4841C95.2035 17.979 95.3294 18.5684 95.3294 19.2522V19.7516H90.349V18.7798H94.1417L93.9257 18.9823C93.9257 18.3704 93.7908 17.9025 93.5208 17.5786C93.2509 17.2456 92.864 17.0792 92.3601 17.0792C91.9821 17.0792 91.6582 17.1692 91.3883 17.3491C91.1273 17.5201 90.9249 17.7675 90.7809 18.0915C90.6459 18.4064 90.5784 18.7843 90.5784 19.2252V19.3197C90.5784 19.8146 90.6549 20.224 90.8079 20.5479C90.9609 20.8719 91.1903 21.1148 91.4962 21.2768C91.8022 21.4388 92.1801 21.5197 92.63 21.5197C92.9989 21.5197 93.3678 21.4657 93.7368 21.3578C94.1057 21.2408 94.4431 21.0608 94.7491 20.8179L95.2215 21.9516C94.9065 22.2126 94.5106 22.4195 94.0337 22.5725C93.5568 22.7255 93.0799 22.802 92.603 22.802ZM96.6655 22.667V16.0669H98.3122V17.6596H98.1772C98.3032 17.1197 98.5506 16.7103 98.9196 16.4313C99.2885 16.1434 99.7789 15.9769 100.391 15.9319L100.904 15.8914L101.012 17.3221L100.04 17.4166C99.4909 17.4706 99.077 17.6416 98.7981 17.9295C98.5191 18.2084 98.3797 18.6044 98.3797 19.1172V22.667H96.6655ZM105.751 22.667V13.1515H109.908C110.907 13.1515 111.681 13.372 112.23 13.8129C112.778 14.2448 113.053 14.8476 113.053 15.6215C113.053 16.1974 112.886 16.6833 112.553 17.0792C112.221 17.4751 111.766 17.7405 111.19 17.8755V17.673C111.631 17.736 112.009 17.871 112.324 18.078C112.639 18.2849 112.877 18.5504 113.039 18.8743C113.21 19.1982 113.296 19.5761 113.296 20.0081C113.296 20.5659 113.165 21.0473 112.904 21.4522C112.652 21.8482 112.284 22.1496 111.798 22.3566C111.312 22.5635 110.731 22.667 110.057 22.667H105.751ZM107.411 21.3578H109.841C110.083 21.3578 110.299 21.3398 110.488 21.3038C110.686 21.2678 110.853 21.2138 110.988 21.1418C111.132 21.0608 111.249 20.9619 111.339 20.8449C111.438 20.7279 111.51 20.5929 111.555 20.44C111.6 20.287 111.622 20.116 111.622 19.9271C111.622 19.7291 111.6 19.5537 111.555 19.4007C111.51 19.2477 111.438 19.1172 111.339 19.0093C111.249 18.8923 111.132 18.7978 110.988 18.7258C110.853 18.6448 110.686 18.5864 110.488 18.5504C110.299 18.5144 110.083 18.4964 109.841 18.4964H107.411V21.3578ZM107.411 17.1872H109.611C110.205 17.1872 110.646 17.0747 110.934 16.8497C111.231 16.6158 111.379 16.2738 111.379 15.8239C111.379 15.374 111.231 15.0366 110.934 14.8117C110.646 14.5777 110.205 14.4607 109.611 14.4607H107.411V17.1872ZM117.891 22.802C117.207 22.802 116.614 22.6625 116.11 22.3836C115.606 22.1046 115.214 21.7087 114.935 21.1958C114.656 20.6739 114.517 20.062 114.517 19.3602C114.517 18.6583 114.656 18.051 114.935 17.5381C115.214 17.0252 115.606 16.6293 116.11 16.3503C116.614 16.0714 117.207 15.9319 117.891 15.9319C118.575 15.9319 119.169 16.0714 119.673 16.3503C120.177 16.6293 120.568 17.0252 120.847 17.5381C121.126 18.051 121.266 18.6583 121.266 19.3602C121.266 20.062 121.126 20.6739 120.847 21.1958C120.568 21.7087 120.177 22.1046 119.673 22.3836C119.169 22.6625 118.575 22.802 117.891 22.802ZM117.891 21.5197C118.395 21.5197 118.8 21.3398 119.106 20.9798C119.412 20.6109 119.565 20.071 119.565 19.3602C119.565 18.6403 119.412 18.105 119.106 17.754C118.8 17.3941 118.395 17.2141 117.891 17.2141C117.387 17.2141 116.982 17.3941 116.677 17.754C116.371 18.105 116.218 18.6403 116.218 19.3602C116.218 20.071 116.371 20.6109 116.677 20.9798C116.982 21.3398 117.387 21.5197 117.891 21.5197ZM121.569 22.667L124.66 18.8608V19.6571L121.744 16.0669H123.715L125.605 18.4829H125.011L126.9 16.0669H128.871L125.956 19.6436V18.8878L129.046 22.667H127.062L125.011 20.0755H125.578L123.54 22.667H121.569Z" fill="black"/>
<path d="M55.3776 39.9715V39.3866L59.5505 34.1677H60.4503L56.3112 39.3866L55.8725 39.2516H62.2049V39.9715H55.3776ZM59.8204 42.041V39.9715L59.8429 39.2516V37.4295H60.6303V42.041H59.8204ZM66.0869 42.1085C65.4795 42.1085 64.9396 41.951 64.4672 41.6361C63.9948 41.3137 63.6236 40.8563 63.3537 40.2639C63.0838 39.664 62.9488 38.9442 62.9488 38.1043C62.9488 37.2645 63.0838 36.5484 63.3537 35.9561C63.6236 35.3562 63.9948 34.8988 64.4672 34.5838C64.9396 34.2614 65.4795 34.1002 66.0869 34.1002C66.6942 34.1002 67.2341 34.2614 67.7065 34.5838C68.1789 34.8988 68.5501 35.3562 68.82 35.9561C69.0975 36.5484 69.2362 37.2645 69.2362 38.1043C69.2362 38.9442 69.0975 39.664 68.82 40.2639C68.5501 40.8563 68.1789 41.3137 67.7065 41.6361C67.2341 41.951 66.6942 42.1085 66.0869 42.1085ZM66.0869 41.3662C66.5518 41.3662 66.9567 41.2424 67.3016 40.995C67.6465 40.74 67.9165 40.3726 68.1114 39.8927C68.3064 39.4053 68.4039 38.8092 68.4039 38.1043C68.4039 37.3995 68.3064 36.8071 68.1114 36.3272C67.9165 35.8398 67.6465 35.4724 67.3016 35.225C66.9567 34.97 66.5518 34.8425 66.0869 34.8425C65.637 34.8425 65.2358 34.97 64.8834 35.225C64.5309 35.4724 64.2573 35.8398 64.0623 36.3272C63.8673 36.8071 63.7699 37.3995 63.7699 38.1043C63.7699 38.8092 63.8673 39.4053 64.0623 39.8927C64.2573 40.3726 64.5309 40.74 64.8834 40.995C65.2358 41.2424 65.637 41.3662 66.0869 41.3662ZM73.534 42.1085C72.9267 42.1085 72.3868 41.951 71.9144 41.6361C71.442 41.3137 71.0708 40.8563 70.8009 40.2639C70.5309 39.664 70.3959 38.9442 70.3959 38.1043C70.3959 37.2645 70.5309 36.5484 70.8009 35.9561C71.0708 35.3562 71.442 34.8988 71.9144 34.5838C72.3868 34.2614 72.9267 34.1002 73.534 34.1002C74.1414 34.1002 74.6813 34.2614 75.1537 34.5838C75.6261 34.8988 75.9973 35.3562 76.2672 35.9561C76.5446 36.5484 76.6834 37.2645 76.6834 38.1043C76.6834 38.9442 76.5446 39.664 76.2672 40.2639C75.9973 40.8563 75.6261 41.3137 75.1537 41.6361C74.6813 41.951 74.1414 42.1085 73.534 42.1085ZM73.534 41.3662C73.9989 41.3662 74.4038 41.2424 74.7488 40.995C75.0937 40.74 75.3636 40.3726 75.5586 39.8927C75.7536 39.4053 75.851 38.8092 75.851 38.1043C75.851 37.3995 75.7536 36.8071 75.5586 36.3272C75.3636 35.8398 75.0937 35.4724 74.7488 35.225C74.4038 34.97 73.9989 34.8425 73.534 34.8425C73.0841 34.8425 72.683 34.97 72.3305 35.225C71.9781 35.4724 71.7044 35.8398 71.5095 36.3272C71.3145 36.8071 71.217 37.3995 71.217 38.1043C71.217 38.8092 71.3145 39.4053 71.5095 39.8927C71.7044 40.3726 71.9781 40.74 72.3305 40.995C72.683 41.2424 73.0841 41.3662 73.534 41.3662ZM81.4842 42.041V34.1677H82.1703L87.6029 41.0062H87.2429V34.1677H88.064V42.041H87.3779L81.9566 35.2025H82.3165V42.041H81.4842ZM92.8721 42.0973C92.3022 42.0973 91.7886 41.9698 91.3312 41.7148C90.8813 41.4524 90.5251 41.0962 90.2627 40.6463C90.0002 40.1889 89.869 39.6678 89.869 39.0829C89.869 38.4905 90.0002 37.9694 90.2627 37.5195C90.5251 37.0696 90.8813 36.7171 91.3312 36.4622C91.7811 36.2072 92.2947 36.0798 92.8721 36.0798C93.457 36.0798 93.9744 36.2072 94.4243 36.4622C94.8817 36.7171 95.2379 37.0696 95.4928 37.5195C95.7553 37.9694 95.8865 38.4905 95.8865 39.0829C95.8865 39.6678 95.7553 40.1889 95.4928 40.6463C95.2379 41.0962 94.8817 41.4524 94.4243 41.7148C93.9669 41.9698 93.4495 42.0973 92.8721 42.0973ZM92.8721 41.3887C93.2995 41.3887 93.6782 41.2949 94.0081 41.1075C94.338 40.9125 94.5967 40.6426 94.7842 40.2976C94.9792 39.9452 95.0766 39.5403 95.0766 39.0829C95.0766 38.618 94.9792 38.2131 94.7842 37.8681C94.5967 37.5232 94.338 37.257 94.0081 37.0696C93.6782 36.8746 93.3033 36.7771 92.8834 36.7771C92.4634 36.7771 92.0885 36.8746 91.7586 37.0696C91.4287 37.257 91.1662 37.5232 90.9713 37.8681C90.7763 38.2131 90.6788 38.618 90.6788 39.0829C90.6788 39.5403 90.7763 39.9452 90.9713 40.2976C91.1662 40.6426 91.4287 40.9125 91.7586 41.1075C92.0885 41.2949 92.4597 41.3887 92.8721 41.3887ZM99.1028 42.0973C98.6154 42.0973 98.1542 42.0298 97.7193 41.8948C97.2844 41.7523 96.9432 41.5761 96.6958 41.3662L97.0557 40.7363C97.2956 40.9163 97.6031 41.0737 97.978 41.2087C98.3529 41.3362 98.7466 41.3999 99.159 41.3999C99.7214 41.3999 100.126 41.3137 100.374 41.1412C100.621 40.9612 100.745 40.725 100.745 40.4326C100.745 40.2152 100.674 40.0464 100.531 39.9265C100.396 39.799 100.216 39.7053 99.9913 39.6453C99.7664 39.5778 99.5152 39.5215 99.2377 39.4766C98.9603 39.4316 98.6829 39.3791 98.4054 39.3191C98.1355 39.2591 97.888 39.1729 97.6631 39.0604C97.4381 38.9404 97.2544 38.7792 97.1119 38.5767C96.977 38.3743 96.9095 38.1043 96.9095 37.7669C96.9095 37.4445 96.9995 37.1558 97.1794 36.9009C97.3594 36.6459 97.6218 36.4472 97.9668 36.3047C98.3192 36.1548 98.7466 36.0798 99.249 36.0798C99.6314 36.0798 100.014 36.1323 100.396 36.2372C100.779 36.3347 101.094 36.4659 101.341 36.6309L100.992 37.272C100.73 37.0921 100.449 36.9646 100.149 36.8896C99.8489 36.8071 99.5489 36.7659 99.249 36.7659C98.7166 36.7659 98.3229 36.8596 98.068 37.0471C97.8205 37.227 97.6968 37.4595 97.6968 37.7444C97.6968 37.9694 97.7643 38.1456 97.8993 38.2731C98.0417 38.4005 98.2255 38.5018 98.4504 38.5767C98.6829 38.6442 98.9341 38.7005 99.204 38.7455C99.4814 38.7905 99.7551 38.8467 100.025 38.9142C100.303 38.9742 100.554 39.0604 100.779 39.1729C101.011 39.2778 101.195 39.4316 101.33 39.634C101.472 39.829 101.543 40.0877 101.543 40.4101C101.543 40.755 101.446 41.055 101.251 41.3099C101.064 41.5574 100.786 41.7523 100.419 41.8948C100.059 42.0298 99.6202 42.0973 99.1028 42.0973ZM101.614 43.1658L105.326 32.5705H106.057L102.345 43.1658H101.614ZM108.459 42.0973C107.875 42.0973 107.35 41.9698 106.885 41.7148C106.427 41.4524 106.067 41.0962 105.805 40.6463C105.543 40.1889 105.411 39.6678 105.411 39.0829C105.411 38.4905 105.543 37.9694 105.805 37.5195C106.067 37.0696 106.427 36.7171 106.885 36.4622C107.35 36.2072 107.875 36.0798 108.459 36.0798C108.962 36.0798 109.416 36.1773 109.82 36.3722C110.225 36.5672 110.544 36.8596 110.776 37.2495L110.18 37.6544C109.978 37.3545 109.727 37.1333 109.427 36.9908C109.127 36.8484 108.801 36.7771 108.448 36.7771C108.028 36.7771 107.65 36.8746 107.312 37.0696C106.975 37.257 106.709 37.5232 106.514 37.8681C106.319 38.2131 106.221 38.618 106.221 39.0829C106.221 39.5478 106.319 39.9527 106.514 40.2976C106.709 40.6426 106.975 40.9125 107.312 41.1075C107.65 41.2949 108.028 41.3887 108.448 41.3887C108.801 41.3887 109.127 41.3174 109.427 41.1749C109.727 41.0325 109.978 40.815 110.18 40.5226L110.776 40.9275C110.544 41.3099 110.225 41.6024 109.82 41.8048C109.416 41.9998 108.962 42.0973 108.459 42.0973ZM114.278 42.0973C113.723 42.0973 113.296 41.9473 112.996 41.6473C112.696 41.3474 112.546 40.9238 112.546 40.3764V34.8313H113.345V40.3314C113.345 40.6763 113.431 40.9425 113.603 41.13C113.783 41.3174 114.038 41.4111 114.368 41.4111C114.721 41.4111 115.013 41.3099 115.246 41.1075L115.527 41.6811C115.369 41.8236 115.178 41.9285 114.953 41.996C114.736 42.0635 114.511 42.0973 114.278 42.0973ZM111.489 36.7996V36.136H115.144V36.7996H111.489ZM119.995 36.0798C120.475 36.0798 120.895 36.1735 121.255 36.361C121.622 36.5409 121.907 36.8184 122.109 37.1933C122.319 37.5682 122.424 38.0406 122.424 38.6105V42.041H121.626V38.6892C121.626 38.0669 121.468 37.5982 121.153 37.2833C120.846 36.9608 120.411 36.7996 119.849 36.7996C119.429 36.7996 119.061 36.8859 118.746 37.0583C118.439 37.2233 118.199 37.467 118.027 37.7894C117.862 38.1043 117.779 38.4868 117.779 38.9367V42.041H116.981V36.136H117.745V37.7557L117.622 37.452C117.809 37.0246 118.109 36.6909 118.521 36.4509C118.934 36.2035 119.425 36.0798 119.995 36.0798Z" fill="black"/>
<defs>
<filter id="filter0_d_2040_758" x="0.000195503" y="0.000195503" width="48.6441" height="48.7096" filterUnits="userSpaceOnUse" color-interpolation-filters="sRGB">
<feFlood flood-opacity="0" result="BackgroundImageFix"/>
<feColorMatrix in="SourceAlpha" type="matrix" values="0 0 0 0 0 0 0 0 0 0 0 0 0 0 0 0 0 0 127 0" result="hardAlpha"/>
<feOffset dy="-3"/>
<feGaussianBlur stdDeviation="2.1"/>
<feComposite in2="hardAlpha" operator="out"/>
<feColorMatrix type="matrix" values="0 0 0 0 0 0 0 0 0 0 0 0 0 0 0 0 0 0 0.25 0"/>
<feBlend mode="normal" in2="BackgroundImageFix" result="effect1_dropShadow_2040_758"/>
<feBlend mode="normal" in="SourceGraphic" in2="effect1_dropShadow_2040_758" result="shape"/>
</filter>
</defs>
</svg>
