<svg width="165" height="50" viewBox="0 0 165 50" fill="none" xmlns="http://www.w3.org/2000/svg">
<g filter="url(#filter0_d_1844_1125)">
<rect x="24.1387" y="4.71704" width="33" height="31" rx="6" transform="rotate(46.3303 24.1387 4.71704)" fill="white"/>
</g>
<path d="M17.4195 22.964V34.1356C17.4195 34.3251 17.4804 34.4807 17.6022 34.6025C17.724 34.7243 17.88 34.7852 18.0701 34.7852H31.557C31.7464 34.7852 31.9021 34.7243 32.0239 34.6025C32.1457 34.4807 32.2066 34.3251 32.2066 34.1356V22.964H27.9817V30.1336L24.8131 28.5493L21.6444 30.1336V22.964H17.4195ZM18.0701 35.8414C17.5969 35.8414 17.1942 35.6753 16.8618 35.3429C16.5295 35.0105 16.3633 34.6081 16.3633 34.1356V22.6239C16.3633 22.4183 16.396 22.2246 16.4615 22.043C16.527 21.8613 16.6256 21.6941 16.7573 21.5413L18.4028 19.5661C18.5556 19.3598 18.7468 19.2042 18.9764 19.0993C19.2059 18.9944 19.452 18.9419 19.7147 18.9419H29.8713C30.1332 18.9419 30.3825 18.9944 30.6191 19.0993C30.8557 19.2042 31.0504 19.3595 31.2032 19.5651L32.8689 21.5824C33.0005 21.7352 33.0991 21.906 33.1646 22.0947C33.2301 22.2827 33.2628 22.4799 33.2628 22.6862V34.1356C33.2628 34.6074 33.0967 35.0098 32.7643 35.3429C32.4319 35.6753 32.0295 35.8414 31.557 35.8414H18.0701ZM17.8209 21.9078H31.7841L30.3793 20.2199C30.311 20.1523 30.2329 20.0985 30.1449 20.0583C30.0568 20.0182 29.9653 19.9981 29.8702 19.9981H19.7347C19.6404 19.9981 19.5488 20.0185 19.4601 20.0594C19.3714 20.1002 19.2939 20.1544 19.2278 20.222L17.8209 21.9078ZM22.6996 22.964V28.4067L24.812 27.3505L26.9244 28.4067V22.965L22.6996 22.964Z" fill="black"/>
<path d="M55.9631 22.6675V13.152H60.0932C60.7951 13.152 61.389 13.269 61.8749 13.5029C62.3608 13.7369 62.7297 14.0743 62.9816 14.5152C63.2336 14.9561 63.3595 15.4915 63.3595 16.1214C63.3595 16.7422 63.2336 17.2776 62.9816 17.7275C62.7297 18.1684 62.3608 18.5104 61.8749 18.7533C61.389 18.9873 60.7951 19.1042 60.0932 19.1042H57.6907V22.6675H55.9631ZM57.6907 17.741H59.8233C60.4352 17.741 60.8986 17.6061 61.2135 17.3361C61.5284 17.0572 61.6859 16.6523 61.6859 16.1214C61.6859 15.5905 61.5284 15.1901 61.2135 14.9201C60.8986 14.6502 60.4352 14.5152 59.8233 14.5152H57.6907V17.741ZM67.3268 22.8025C66.6339 22.8025 66.031 22.663 65.5181 22.384C65.0052 22.0961 64.6093 21.6912 64.3304 21.1693C64.0514 20.6474 63.912 20.0355 63.912 19.3337C63.912 18.6318 64.0514 18.029 64.3304 17.5251C64.6093 17.0122 65.0052 16.6208 65.5181 16.3508C66.031 16.0719 66.6339 15.9324 67.3268 15.9324C67.7497 15.9324 68.1681 15.9999 68.582 16.1349C68.9959 16.2698 69.3378 16.4588 69.6078 16.7017L69.1084 17.876C68.8744 17.669 68.609 17.5116 68.312 17.4036C68.0241 17.2956 67.7452 17.2416 67.4752 17.2416C66.8903 17.2416 66.4359 17.4261 66.112 17.795C65.7971 18.1549 65.6396 18.6723 65.6396 19.3472C65.6396 20.013 65.7971 20.5394 66.112 20.9263C66.4359 21.3043 66.8903 21.4932 67.4752 21.4932C67.7362 21.4932 68.0151 21.4392 68.312 21.3313C68.609 21.2233 68.8744 21.0613 69.1084 20.8454L69.6078 22.0331C69.3378 22.2671 68.9914 22.456 68.5685 22.6C68.1546 22.735 67.7407 22.8025 67.3268 22.8025ZM73.0587 22.8025C72.6898 22.8025 72.3299 22.771 71.9789 22.708C71.637 22.645 71.3221 22.5595 71.0341 22.4515C70.7462 22.3346 70.4943 22.1906 70.2783 22.0196L70.7102 20.9129C70.9352 21.0568 71.1781 21.1828 71.4391 21.2908C71.7 21.3987 71.9699 21.4797 72.2489 21.5337C72.5278 21.5877 72.8023 21.6147 73.0722 21.6147C73.5041 21.6147 73.8236 21.5427 74.0305 21.3987C74.2465 21.2458 74.3544 21.0478 74.3544 20.8049C74.3544 20.5979 74.2825 20.4405 74.1385 20.3325C74.0035 20.2155 73.7966 20.13 73.5176 20.076L72.1679 19.8196C71.61 19.7116 71.1826 19.5091 70.8857 19.2122C70.5977 18.9063 70.4538 18.5149 70.4538 18.038C70.4538 17.6061 70.5707 17.2326 70.8047 16.9177C71.0476 16.6028 71.3806 16.3598 71.8035 16.1889C72.2264 16.0179 72.7123 15.9324 73.2612 15.9324C73.5761 15.9324 73.882 15.9639 74.179 16.0269C74.4759 16.0809 74.7549 16.1664 75.0158 16.2833C75.2857 16.3913 75.5197 16.5353 75.7177 16.7152L75.2588 17.822C75.0878 17.678 74.8898 17.5566 74.6649 17.4576C74.4399 17.3496 74.206 17.2686 73.963 17.2146C73.7291 17.1516 73.4996 17.1202 73.2747 17.1202C72.8338 17.1202 72.5053 17.1966 72.2894 17.3496C72.0824 17.5026 71.9789 17.705 71.9789 17.957C71.9789 18.1459 72.0419 18.3034 72.1679 18.4294C72.2939 18.5554 72.4873 18.6408 72.7483 18.6858L74.098 18.9423C74.6829 19.0502 75.1238 19.2482 75.4207 19.5361C75.7267 19.8241 75.8796 20.211 75.8796 20.6969C75.8796 21.1378 75.7626 21.5157 75.5287 21.8307C75.2947 22.1456 74.9663 22.3885 74.5434 22.5595C74.1205 22.7215 73.6256 22.8025 73.0587 22.8025ZM81.033 22.6675V13.152H85.1631C85.865 13.152 86.4588 13.269 86.9447 13.5029C87.4306 13.7369 87.7996 14.0743 88.0515 14.5152C88.3035 14.9561 88.4294 15.4915 88.4294 16.1214C88.4294 16.7422 88.3035 17.2776 88.0515 17.7275C87.7996 18.1684 87.4306 18.5104 86.9447 18.7533C86.4588 18.9873 85.865 19.1042 85.1631 19.1042H82.7606V22.6675H81.033ZM82.7606 17.741H84.8932C85.5051 17.741 85.9685 17.6061 86.2834 17.3361C86.5983 17.0572 86.7558 16.6523 86.7558 16.1214C86.7558 15.5905 86.5983 15.1901 86.2834 14.9201C85.9685 14.6502 85.5051 14.5152 84.8932 14.5152H82.7606V17.741ZM92.5991 22.8025C91.8523 22.8025 91.2089 22.663 90.669 22.384C90.1291 22.1051 89.7107 21.7092 89.4138 21.1963C89.1258 20.6834 88.9819 20.076 88.9819 19.3742C88.9819 18.6903 89.1213 18.0919 89.4003 17.5791C89.6882 17.0662 90.0796 16.6658 90.5745 16.3778C91.0784 16.0809 91.6498 15.9324 92.2887 15.9324C92.9185 15.9324 93.4584 16.0674 93.9083 16.3373C94.3582 16.6073 94.7047 16.9897 94.9476 17.4846C95.1996 17.9795 95.3255 18.5688 95.3255 19.2527V19.7521H90.3451V18.7803H94.1378L93.9218 18.9828C93.9218 18.3709 93.7868 17.903 93.5169 17.5791C93.247 17.2461 92.86 17.0797 92.3562 17.0797C91.9782 17.0797 91.6543 17.1696 91.3844 17.3496C91.1234 17.5206 90.921 17.768 90.777 18.0919C90.642 18.4069 90.5745 18.7848 90.5745 19.2257V19.3202C90.5745 19.8151 90.651 20.2245 90.804 20.5484C90.9569 20.8724 91.1864 21.1153 91.4923 21.2773C91.7983 21.4392 92.1762 21.5202 92.6261 21.5202C92.995 21.5202 93.3639 21.4662 93.7329 21.3583C94.1018 21.2413 94.4392 21.0613 94.7451 20.8184L95.2175 21.9521C94.9026 22.2131 94.5067 22.42 94.0298 22.573C93.5529 22.726 93.076 22.8025 92.5991 22.8025ZM96.6616 22.6675V16.0674H98.3083V17.66H98.1733C98.2993 17.1202 98.5467 16.7107 98.9157 16.4318C99.2846 16.1439 99.775 15.9774 100.387 15.9324L100.9 15.8919L101.008 17.3226L100.036 17.4171C99.487 17.4711 99.0731 17.642 98.7942 17.93C98.5152 18.2089 98.3758 18.6048 98.3758 19.1177V22.6675H96.6616ZM105.747 22.6675V13.152H109.904C110.903 13.152 111.677 13.3724 112.226 13.8134C112.775 14.2453 113.049 14.8481 113.049 15.622C113.049 16.1978 112.882 16.6837 112.55 17.0797C112.217 17.4756 111.762 17.741 111.186 17.876V17.6735C111.627 17.7365 112.005 17.8715 112.32 18.0785C112.635 18.2854 112.873 18.5509 113.035 18.8748C113.206 19.1987 113.292 19.5766 113.292 20.0085C113.292 20.5664 113.161 21.0478 112.9 21.4527C112.649 21.8487 112.28 22.1501 111.794 22.357C111.308 22.564 110.727 22.6675 110.053 22.6675H105.747ZM107.407 21.3583H109.837C110.08 21.3583 110.296 21.3403 110.485 21.3043C110.682 21.2683 110.849 21.2143 110.984 21.1423C111.128 21.0613 111.245 20.9623 111.335 20.8454C111.434 20.7284 111.506 20.5934 111.551 20.4405C111.596 20.2875 111.618 20.1165 111.618 19.9276C111.618 19.7296 111.596 19.5541 111.551 19.4012C111.506 19.2482 111.434 19.1177 111.335 19.0098C111.245 18.8928 111.128 18.7983 110.984 18.7263C110.849 18.6453 110.682 18.5868 110.485 18.5509C110.296 18.5149 110.08 18.4969 109.837 18.4969H107.407V21.3583ZM107.407 17.1876H109.607C110.201 17.1876 110.642 17.0752 110.93 16.8502C111.227 16.6163 111.375 16.2743 111.375 15.8244C111.375 15.3745 111.227 15.0371 110.93 14.8121C110.642 14.5782 110.201 14.4612 109.607 14.4612H107.407V17.1876ZM117.887 22.8025C117.204 22.8025 116.61 22.663 116.106 22.384C115.602 22.1051 115.21 21.7092 114.931 21.1963C114.653 20.6744 114.513 20.0625 114.513 19.3607C114.513 18.6588 114.653 18.0515 114.931 17.5386C115.21 17.0257 115.602 16.6298 116.106 16.3508C116.61 16.0719 117.204 15.9324 117.887 15.9324C118.571 15.9324 119.165 16.0719 119.669 16.3508C120.173 16.6298 120.564 17.0257 120.843 17.5386C121.122 18.0515 121.262 18.6588 121.262 19.3607C121.262 20.0625 121.122 20.6744 120.843 21.1963C120.564 21.7092 120.173 22.1051 119.669 22.384C119.165 22.663 118.571 22.8025 117.887 22.8025ZM117.887 21.5202C118.391 21.5202 118.796 21.3403 119.102 20.9803C119.408 20.6114 119.561 20.0715 119.561 19.3607C119.561 18.6408 119.408 18.1054 119.102 17.7545C118.796 17.3946 118.391 17.2146 117.887 17.2146C117.383 17.2146 116.979 17.3946 116.673 17.7545C116.367 18.1054 116.214 18.6408 116.214 19.3607C116.214 20.0715 116.367 20.6114 116.673 20.9803C116.979 21.3403 117.383 21.5202 117.887 21.5202ZM121.565 22.6675L124.656 18.8613V19.6576L121.74 16.0674H123.711L125.601 18.4834H125.007L126.896 16.0674H128.867L125.952 19.6441V18.8883L129.042 22.6675H127.058L125.007 20.076H125.574L123.536 22.6675H121.565Z" fill="black"/>
<path d="M55.3737 39.9722V39.3873L59.5466 34.1684H60.4464L56.3073 39.3873L55.8686 39.2523H62.201V39.9722H55.3737ZM59.8165 42.0417V39.9722L59.839 39.2523V37.4302H60.6264V42.0417H59.8165ZM66.083 42.1092C65.4756 42.1092 64.9357 41.9518 64.4633 41.6368C63.9909 41.3144 63.6197 40.857 63.3498 40.2646C63.0798 39.6648 62.9449 38.9449 62.9449 38.1051C62.9449 37.2653 63.0798 36.5492 63.3498 35.9568C63.6197 35.3569 63.9909 34.8995 64.4633 34.5846C64.9357 34.2621 65.4756 34.1009 66.083 34.1009C66.6903 34.1009 67.2302 34.2621 67.7026 34.5846C68.175 34.8995 68.5462 35.3569 68.8161 35.9568C69.0936 36.5492 69.2323 37.2653 69.2323 38.1051C69.2323 38.9449 69.0936 39.6648 68.8161 40.2646C68.5462 40.857 68.175 41.3144 67.7026 41.6368C67.2302 41.9518 66.6903 42.1092 66.083 42.1092ZM66.083 41.3669C66.5479 41.3669 66.9528 41.2432 67.2977 40.9957C67.6426 40.7408 67.9126 40.3734 68.1075 39.8935C68.3025 39.4061 68.4 38.8099 68.4 38.1051C68.4 37.4002 68.3025 36.8079 68.1075 36.328C67.9126 35.8406 67.6426 35.4731 67.2977 35.2257C66.9528 34.9707 66.5479 34.8433 66.083 34.8433C65.6331 34.8433 65.2319 34.9707 64.8795 35.2257C64.527 35.4731 64.2533 35.8406 64.0584 36.328C63.8634 36.8079 63.766 37.4002 63.766 38.1051C63.766 38.8099 63.8634 39.4061 64.0584 39.8935C64.2533 40.3734 64.527 40.7408 64.8795 40.9957C65.2319 41.2432 65.6331 41.3669 66.083 41.3669ZM73.5301 42.1092C72.9227 42.1092 72.3829 41.9518 71.9105 41.6368C71.4381 41.3144 71.0669 40.857 70.7969 40.2646C70.527 39.6648 70.392 38.9449 70.392 38.1051C70.392 37.2653 70.527 36.5492 70.7969 35.9568C71.0669 35.3569 71.4381 34.8995 71.9105 34.5846C72.3829 34.2621 72.9227 34.1009 73.5301 34.1009C74.1375 34.1009 74.6774 34.2621 75.1498 34.5846C75.6222 34.8995 75.9933 35.3569 76.2633 35.9568C76.5407 36.5492 76.6794 37.2653 76.6794 38.1051C76.6794 38.9449 76.5407 39.6648 76.2633 40.2646C75.9933 40.857 75.6222 41.3144 75.1498 41.6368C74.6774 41.9518 74.1375 42.1092 73.5301 42.1092ZM73.5301 41.3669C73.995 41.3669 74.3999 41.2432 74.7449 40.9957C75.0898 40.7408 75.3597 40.3734 75.5547 39.8935C75.7496 39.4061 75.8471 38.8099 75.8471 38.1051C75.8471 37.4002 75.7496 36.8079 75.5547 36.328C75.3597 35.8406 75.0898 35.4731 74.7449 35.2257C74.3999 34.9707 73.995 34.8433 73.5301 34.8433C73.0802 34.8433 72.679 34.9707 72.3266 35.2257C71.9742 35.4731 71.7005 35.8406 71.5055 36.328C71.3106 36.8079 71.2131 37.4002 71.2131 38.1051C71.2131 38.8099 71.3106 39.4061 71.5055 39.8935C71.7005 40.3734 71.9742 40.7408 72.3266 40.9957C72.679 41.2432 73.0802 41.3669 73.5301 41.3669ZM81.4803 42.0417V34.1684H82.1664L87.599 41.007H87.239V34.1684H88.0601V42.0417H87.374L81.9527 35.2032H82.3126V42.0417H81.4803ZM92.8682 42.098C92.2983 42.098 91.7847 41.9705 91.3273 41.7156C90.8774 41.4531 90.5212 41.0969 90.2588 40.647C89.9963 40.1896 89.8651 39.6685 89.8651 39.0836C89.8651 38.4912 89.9963 37.9701 90.2588 37.5202C90.5212 37.0703 90.8774 36.7179 91.3273 36.4629C91.7772 36.208 92.2908 36.0805 92.8682 36.0805C93.4531 36.0805 93.9705 36.208 94.4204 36.4629C94.8778 36.7179 95.234 37.0703 95.4889 37.5202C95.7513 37.9701 95.8826 38.4912 95.8826 39.0836C95.8826 39.6685 95.7513 40.1896 95.4889 40.647C95.234 41.0969 94.8778 41.4531 94.4204 41.7156C93.963 41.9705 93.4456 42.098 92.8682 42.098ZM92.8682 41.3894C93.2956 41.3894 93.6743 41.2957 94.0042 41.1082C94.3341 40.9132 94.5928 40.6433 94.7803 40.2984C94.9753 39.9459 95.0727 39.541 95.0727 39.0836C95.0727 38.6187 94.9753 38.2138 94.7803 37.8689C94.5928 37.524 94.3341 37.2578 94.0042 37.0703C93.6743 36.8753 93.2994 36.7779 92.8795 36.7779C92.4595 36.7779 92.0846 36.8753 91.7547 37.0703C91.4248 37.2578 91.1623 37.524 90.9674 37.8689C90.7724 38.2138 90.6749 38.6187 90.6749 39.0836C90.6749 39.541 90.7724 39.9459 90.9674 40.2984C91.1623 40.6433 91.4248 40.9132 91.7547 41.1082C92.0846 41.2957 92.4558 41.3894 92.8682 41.3894ZM99.0989 42.098C98.6115 42.098 98.1503 42.0305 97.7154 41.8955C97.2805 41.7531 96.9393 41.5768 96.6919 41.3669L97.0518 40.737C97.2917 40.917 97.5992 41.0745 97.9741 41.2094C98.349 41.3369 98.7427 41.4006 99.1551 41.4006C99.7175 41.4006 100.122 41.3144 100.37 41.1419C100.617 40.962 100.741 40.7258 100.741 40.4333C100.741 40.2159 100.67 40.0472 100.527 39.9272C100.392 39.7997 100.212 39.706 99.9874 39.646C99.7625 39.5785 99.5113 39.5223 99.2338 39.4773C98.9564 39.4323 98.6789 39.3798 98.4015 39.3198C98.1316 39.2598 97.8841 39.1736 97.6592 39.0611C97.4342 38.9412 97.2505 38.7799 97.108 38.5775C96.9731 38.375 96.9056 38.1051 96.9056 37.7677C96.9056 37.4452 96.9956 37.1565 97.1755 36.9016C97.3555 36.6466 97.6179 36.4479 97.9628 36.3055C98.3153 36.1555 98.7427 36.0805 99.2451 36.0805C99.6275 36.0805 100.01 36.133 100.392 36.238C100.775 36.3355 101.09 36.4667 101.337 36.6316L100.988 37.2728C100.726 37.0928 100.445 36.9653 100.145 36.8903C99.845 36.8079 99.545 36.7666 99.2451 36.7666C98.7127 36.7666 98.319 36.8603 98.0641 37.0478C97.8166 37.2278 97.6929 37.4602 97.6929 37.7452C97.6929 37.9701 97.7604 38.1463 97.8954 38.2738C98.0378 38.4013 98.2215 38.5025 98.4465 38.5775C98.6789 38.645 98.9301 38.7012 99.2001 38.7462C99.4775 38.7912 99.7512 38.8474 100.021 38.9149C100.299 38.9749 100.55 39.0611 100.775 39.1736C101.007 39.2786 101.191 39.4323 101.326 39.6348C101.468 39.8297 101.54 40.0884 101.54 40.4108C101.54 40.7558 101.442 41.0557 101.247 41.3107C101.06 41.5581 100.782 41.7531 100.415 41.8955C100.055 42.0305 99.6162 42.098 99.0989 42.098ZM101.61 43.1665L105.322 32.5713H106.053L102.341 43.1665H101.61ZM108.456 42.098C107.871 42.098 107.346 41.9705 106.881 41.7156C106.423 41.4531 106.064 41.0969 105.801 40.647C105.539 40.1896 105.407 39.6685 105.407 39.0836C105.407 38.4912 105.539 37.9701 105.801 37.5202C106.064 37.0703 106.423 36.7179 106.881 36.4629C107.346 36.208 107.871 36.0805 108.456 36.0805C108.958 36.0805 109.412 36.178 109.817 36.3729C110.221 36.5679 110.54 36.8603 110.773 37.2503L110.176 37.6552C109.974 37.3552 109.723 37.134 109.423 36.9916C109.123 36.8491 108.797 36.7779 108.444 36.7779C108.024 36.7779 107.646 36.8753 107.308 37.0703C106.971 37.2578 106.705 37.524 106.51 37.8689C106.315 38.2138 106.217 38.6187 106.217 39.0836C106.217 39.5485 106.315 39.9534 106.51 40.2984C106.705 40.6433 106.971 40.9132 107.308 41.1082C107.646 41.2957 108.024 41.3894 108.444 41.3894C108.797 41.3894 109.123 41.3182 109.423 41.1757C109.723 41.0332 109.974 40.8158 110.176 40.5233L110.773 40.9282C110.54 41.3107 110.221 41.6031 109.817 41.8055C109.412 42.0005 108.958 42.098 108.456 42.098ZM114.274 42.098C113.719 42.098 113.292 41.948 112.992 41.6481C112.692 41.3481 112.542 40.9245 112.542 40.3771V34.832H113.341V40.3321C113.341 40.677 113.427 40.9432 113.6 41.1307C113.779 41.3182 114.034 41.4119 114.364 41.4119C114.717 41.4119 115.009 41.3107 115.242 41.1082L115.523 41.6818C115.365 41.8243 115.174 41.9293 114.949 41.9968C114.732 42.0642 114.507 42.098 114.274 42.098ZM111.485 36.8004V36.1367H115.14V36.8004H111.485ZM119.991 36.0805C120.471 36.0805 120.891 36.1742 121.251 36.3617C121.618 36.5417 121.903 36.8191 122.106 37.194C122.315 37.5689 122.42 38.0413 122.42 38.6112V42.0417H121.622V38.69C121.622 38.0676 121.464 37.5989 121.149 37.284C120.842 36.9616 120.407 36.8004 119.845 36.8004C119.425 36.8004 119.057 36.8866 118.742 37.0591C118.435 37.224 118.195 37.4677 118.023 37.7901C117.858 38.1051 117.775 38.4875 117.775 38.9374V42.0417H116.977V36.1367H117.741V37.7564L117.618 37.4527C117.805 37.0253 118.105 36.6916 118.518 36.4517C118.93 36.2042 119.421 36.0805 119.991 36.0805Z" fill="black"/>
<defs>
<filter id="filter0_d_1844_1125" x="-0.000781059" y="-4.86374e-05" width="48.6422" height="48.7096" filterUnits="userSpaceOnUse" color-interpolation-filters="sRGB">
<feFlood flood-opacity="0" result="BackgroundImageFix"/>
<feColorMatrix in="SourceAlpha" type="matrix" values="0 0 0 0 0 0 0 0 0 0 0 0 0 0 0 0 0 0 127 0" result="hardAlpha"/>
<feOffset dy="-3"/>
<feGaussianBlur stdDeviation="2.1"/>
<feComposite in2="hardAlpha" operator="out"/>
<feColorMatrix type="matrix" values="0 0 0 0 0 0 0 0 0 0 0 0 0 0 0 0 0 0 0.25 0"/>
<feBlend mode="normal" in2="BackgroundImageFix" result="effect1_dropShadow_1844_1125"/>
<feBlend mode="normal" in="SourceGraphic" in2="effect1_dropShadow_1844_1125" result="shape"/>
</filter>
</defs>
</svg>
