<svg width="165" height="50" viewBox="0 0 165 50" fill="none" xmlns="http://www.w3.org/2000/svg">
<g filter="url(#filter0_d_2040_758)">
<rect x="24.1406" y="4.7168" width="33" height="31" rx="6" transform="rotate(46.3303 24.1406 4.7168)" fill="white"/>
</g>
<path d="M20.1982 21.1045H28.2373C28.4651 21.1045 28.6809 21.2079 28.8232 21.3857L30.3037 23.2363C30.4101 23.3693 30.4677 23.5348 30.4678 23.7051V33.3545C30.4678 33.7687 30.132 34.1045 29.7178 34.1045H18.7178C18.3036 34.1045 17.9678 33.7687 17.9678 33.3545V23.7051C17.9678 23.5348 18.0255 23.3693 18.1318 23.2363L19.6123 21.3857C19.7546 21.2079 19.9705 21.1045 20.1982 21.1045Z" stroke="black" stroke-width="0.5"/>
<path d="M18.2178 23.3545H30.2178" stroke="black" stroke-width="0.5"/>
<path d="M26.4678 23.6045V29.834L24.374 28.1592L24.2178 28.0342L24.0615 28.1592L21.9678 29.834V23.6045H26.4678Z" stroke="black" stroke-width="0.5"/>
<path d="M55.967 22.667V13.1515H60.0971C60.799 13.1515 61.3929 13.2685 61.8788 13.5024C62.3647 13.7364 62.7336 14.0738 62.9855 14.5147C63.2375 14.9556 63.3634 15.491 63.3634 16.1209C63.3634 16.7417 63.2375 17.2771 62.9855 17.727C62.7336 18.1679 62.3647 18.5099 61.8788 18.7528C61.3929 18.9868 60.799 19.1037 60.0971 19.1037H57.6946V22.667H55.967ZM57.6946 17.7405H59.8272C60.4391 17.7405 60.9025 17.6056 61.2174 17.3356C61.5323 17.0567 61.6898 16.6518 61.6898 16.1209C61.6898 15.59 61.5323 15.1896 61.2174 14.9196C60.9025 14.6497 60.4391 14.5147 59.8272 14.5147H57.6946V17.7405ZM67.3307 22.802C66.6378 22.802 66.0349 22.6625 65.522 22.3836C65.0092 22.0956 64.6132 21.6907 64.3343 21.1688C64.0554 20.6469 63.9159 20.035 63.9159 19.3332C63.9159 18.6313 64.0554 18.0285 64.3343 17.5246C64.6132 17.0117 65.0092 16.6203 65.522 16.3503C66.0349 16.0714 66.6378 15.9319 67.3307 15.9319C67.7536 15.9319 68.172 15.9994 68.5859 16.1344C68.9998 16.2693 69.3417 16.4583 69.6117 16.7013L69.1123 17.8755C68.8783 17.6685 68.6129 17.5111 68.316 17.4031C68.028 17.2951 67.7491 17.2411 67.4791 17.2411C66.8943 17.2411 66.4398 17.4256 66.1159 17.7945C65.801 18.1544 65.6435 18.6718 65.6435 19.3467C65.6435 20.0126 65.801 20.5389 66.1159 20.9259C66.4398 21.3038 66.8943 21.4927 67.4791 21.4927C67.7401 21.4927 68.019 21.4388 68.316 21.3308C68.6129 21.2228 68.8783 21.0608 69.1123 20.8449L69.6117 22.0326C69.3417 22.2666 68.9953 22.4555 68.5724 22.5995C68.1585 22.7345 67.7446 22.802 67.3307 22.802ZM73.0626 22.802C72.6937 22.802 72.3338 22.7705 71.9829 22.7075C71.6409 22.6445 71.326 22.559 71.0381 22.451C70.7501 22.3341 70.4982 22.1901 70.2822 22.0191L70.7141 20.9124C70.9391 21.0563 71.182 21.1823 71.443 21.2903C71.7039 21.3983 71.9739 21.4792 72.2528 21.5332C72.5317 21.5872 72.8062 21.6142 73.0761 21.6142C73.508 21.6142 73.8275 21.5422 74.0344 21.3983C74.2504 21.2453 74.3583 21.0473 74.3583 20.8044C74.3583 20.5974 74.2864 20.44 74.1424 20.332C74.0074 20.215 73.8005 20.1295 73.5215 20.0755L72.1718 19.8191C71.6139 19.7111 71.1865 19.5087 70.8896 19.2117C70.6016 18.9058 70.4577 18.5144 70.4577 18.0375C70.4577 17.6056 70.5746 17.2321 70.8086 16.9172C71.0515 16.6023 71.3845 16.3593 71.8074 16.1884C72.2303 16.0174 72.7162 15.9319 73.2651 15.9319C73.58 15.9319 73.8859 15.9634 74.1829 16.0264C74.4798 16.0804 74.7588 16.1659 75.0197 16.2828C75.2897 16.3908 75.5236 16.5348 75.7216 16.7148L75.2627 17.8215C75.0917 17.6775 74.8937 17.5561 74.6688 17.4571C74.4438 17.3491 74.2099 17.2681 73.9669 17.2141C73.733 17.1512 73.5035 17.1197 73.2786 17.1197C72.8377 17.1197 72.5092 17.1961 72.2933 17.3491C72.0863 17.5021 71.9829 17.7045 71.9829 17.9565C71.9829 18.1454 72.0458 18.3029 72.1718 18.4289C72.2978 18.5549 72.4912 18.6403 72.7522 18.6853L74.1019 18.9418C74.6868 19.0498 75.1277 19.2477 75.4246 19.5357C75.7306 19.8236 75.8835 20.2105 75.8835 20.6964C75.8835 21.1373 75.7666 21.5152 75.5326 21.8302C75.2986 22.1451 74.9702 22.3881 74.5473 22.559C74.1244 22.721 73.6295 22.802 73.0626 22.802ZM81.0369 22.667V13.1515H85.167C85.8689 13.1515 86.4628 13.2685 86.9487 13.5024C87.4345 13.7364 87.8035 14.0738 88.0554 14.5147C88.3074 14.9556 88.4333 15.491 88.4333 16.1209C88.4333 16.7417 88.3074 17.2771 88.0554 17.727C87.8035 18.1679 87.4345 18.5099 86.9487 18.7528C86.4628 18.9868 85.8689 19.1037 85.167 19.1037H82.7645V22.667H81.0369ZM82.7645 17.7405H84.8971C85.509 17.7405 85.9724 17.6056 86.2873 17.3356C86.6022 17.0567 86.7597 16.6518 86.7597 16.1209C86.7597 15.59 86.6022 15.1896 86.2873 14.9196C85.9724 14.6497 85.509 14.5147 84.8971 14.5147H82.7645V17.7405ZM92.603 22.802C91.8562 22.802 91.2128 22.6625 90.6729 22.3836C90.133 22.1046 89.7146 21.7087 89.4177 21.1958C89.1297 20.6829 88.9858 20.0755 88.9858 19.3737C88.9858 18.6898 89.1252 18.0915 89.4042 17.5786C89.6921 17.0657 90.0835 16.6653 90.5784 16.3773C91.0823 16.0804 91.6537 15.9319 92.2926 15.9319C92.9224 15.9319 93.4623 16.0669 93.9122 16.3368C94.3621 16.6068 94.7086 16.9892 94.9515 17.4841C95.2035 17.979 95.3294 18.5684 95.3294 19.2522V19.7516H90.349V18.7798H94.1417L93.9257 18.9823C93.9257 18.3704 93.7908 17.9025 93.5208 17.5786C93.2509 17.2456 92.864 17.0792 92.3601 17.0792C91.9821 17.0792 91.6582 17.1692 91.3883 17.3491C91.1273 17.5201 90.9249 17.7675 90.7809 18.0915C90.6459 18.4064 90.5784 18.7843 90.5784 19.2252V19.3197C90.5784 19.8146 90.6549 20.224 90.8079 20.5479C90.9609 20.8719 91.1903 21.1148 91.4962 21.2768C91.8022 21.4388 92.1801 21.5197 92.63 21.5197C92.9989 21.5197 93.3678 21.4657 93.7368 21.3578C94.1057 21.2408 94.4431 21.0608 94.7491 20.8179L95.2215 21.9516C94.9065 22.2126 94.5106 22.4195 94.0337 22.5725C93.5568 22.7255 93.0799 22.802 92.603 22.802ZM96.6655 22.667V16.0669H98.3122V17.6596H98.1772C98.3032 17.1197 98.5506 16.7103 98.9196 16.4313C99.2885 16.1434 99.7789 15.9769 100.391 15.9319L100.904 15.8914L101.012 17.3221L100.04 17.4166C99.4909 17.4706 99.077 17.6416 98.7981 17.9295C98.5191 18.2084 98.3797 18.6044 98.3797 19.1172V22.667H96.6655ZM105.751 22.667V13.1515H109.908C110.907 13.1515 111.681 13.372 112.23 13.8129C112.778 14.2448 113.053 14.8476 113.053 15.6215C113.053 16.1974 112.886 16.6833 112.553 17.0792C112.221 17.4751 111.766 17.7405 111.19 17.8755V17.673C111.631 17.736 112.009 17.871 112.324 18.078C112.639 18.2849 112.877 18.5504 113.039 18.8743C113.21 19.1982 113.296 19.5761 113.296 20.0081C113.296 20.5659 113.165 21.0473 112.904 21.4522C112.652 21.8482 112.284 22.1496 111.798 22.3566C111.312 22.5635 110.731 22.667 110.057 22.667H105.751ZM107.411 21.3578H109.841C110.083 21.3578 110.299 21.3398 110.488 21.3038C110.686 21.2678 110.853 21.2138 110.988 21.1418C111.132 21.0608 111.249 20.9619 111.339 20.8449C111.438 20.7279 111.51 20.5929 111.555 20.44C111.6 20.287 111.622 20.116 111.622 19.9271C111.622 19.7291 111.6 19.5537 111.555 19.4007C111.51 19.2477 111.438 19.1172 111.339 19.0093C111.249 18.8923 111.132 18.7978 110.988 18.7258C110.853 18.6448 110.686 18.5864 110.488 18.5504C110.299 18.5144 110.083 18.4964 109.841 18.4964H107.411V21.3578ZM107.411 17.1872H109.611C110.205 17.1872 110.646 17.0747 110.934 16.8497C111.231 16.6158 111.379 16.2738 111.379 15.8239C111.379 15.374 111.231 15.0366 110.934 14.8117C110.646 14.5777 110.205 14.4607 109.611 14.4607H107.411V17.1872ZM117.891 22.802C117.207 22.802 116.614 22.6625 116.11 22.3836C115.606 22.1046 115.214 21.7087 114.935 21.1958C114.656 20.6739 114.517 20.062 114.517 19.3602C114.517 18.6583 114.656 18.051 114.935 17.5381C115.214 17.0252 115.606 16.6293 116.11 16.3503C116.614 16.0714 117.207 15.9319 117.891 15.9319C118.575 15.9319 119.169 16.0714 119.673 16.3503C120.177 16.6293 120.568 17.0252 120.847 17.5381C121.126 18.051 121.266 18.6583 121.266 19.3602C121.266 20.062 121.126 20.6739 120.847 21.1958C120.568 21.7087 120.177 22.1046 119.673 22.3836C119.169 22.6625 118.575 22.802 117.891 22.802ZM117.891 21.5197C118.395 21.5197 118.8 21.3398 119.106 20.9798C119.412 20.6109 119.565 20.071 119.565 19.3602C119.565 18.6403 119.412 18.105 119.106 17.754C118.8 17.3941 118.395 17.2141 117.891 17.2141C117.387 17.2141 116.982 17.3941 116.677 17.754C116.371 18.105 116.218 18.6403 116.218 19.3602C116.218 20.071 116.371 20.6109 116.677 20.9798C116.982 21.3398 117.387 21.5197 117.891 21.5197ZM121.569 22.667L124.66 18.8608V19.6571L121.744 16.0669H123.715L125.605 18.4829H125.011L126.9 16.0669H128.871L125.956 19.6436V18.8878L129.046 22.667H127.062L125.011 20.0755H125.578L123.54 22.667H121.569Z" fill="black"/>
<path d="M57.9983 42.1085C57.436 42.1085 56.8998 42.0185 56.3899 41.8386C55.88 41.6511 55.4751 41.4037 55.1752 41.0962L55.5688 40.4551C55.8163 40.7175 56.1537 40.935 56.5811 41.1075C57.016 41.2799 57.4847 41.3662 57.9871 41.3662C58.6544 41.3662 59.1606 41.2199 59.5055 40.9275C59.8579 40.6276 60.0342 40.2376 60.0342 39.7577C60.0342 39.4203 59.9517 39.1316 59.7867 38.8917C59.6292 38.6442 59.3593 38.453 58.9769 38.3181C58.5945 38.1831 58.0696 38.1156 57.4022 38.1156H55.7263L56.1312 34.1677H60.4391V34.8875H56.4574L56.8736 34.4939L56.5249 37.8007L56.1087 37.3957H57.5822C58.377 37.3957 59.0144 37.4932 59.4943 37.6882C59.9742 37.8831 60.3191 38.1568 60.529 38.5093C60.7465 38.8542 60.8552 39.2591 60.8552 39.724C60.8552 40.1664 60.7503 40.5713 60.5403 40.9387C60.3303 41.2987 60.0154 41.5836 59.5955 41.7936C59.1756 42.0035 58.6432 42.1085 57.9983 42.1085ZM65.0214 42.1085C64.414 42.1085 63.8742 41.951 63.4018 41.6361C62.9294 41.3137 62.5582 40.8563 62.2882 40.2639C62.0183 39.664 61.8833 38.9442 61.8833 38.1043C61.8833 37.2645 62.0183 36.5484 62.2882 35.9561C62.5582 35.3562 62.9294 34.8988 63.4018 34.5838C63.8742 34.2614 64.414 34.1002 65.0214 34.1002C65.6288 34.1002 66.1687 34.2614 66.6411 34.5838C67.1135 34.8988 67.4846 35.3562 67.7546 35.9561C68.032 36.5484 68.1708 37.2645 68.1708 38.1043C68.1708 38.9442 68.032 39.664 67.7546 40.2639C67.4846 40.8563 67.1135 41.3137 66.6411 41.6361C66.1687 41.951 65.6288 42.1085 65.0214 42.1085ZM65.0214 41.3662C65.4863 41.3662 65.8912 41.2424 66.2362 40.995C66.5811 40.74 66.851 40.3726 67.046 39.8927C67.241 39.4053 67.3384 38.8092 67.3384 38.1043C67.3384 37.3995 67.241 36.8071 67.046 36.3272C66.851 35.8398 66.5811 35.4724 66.2362 35.225C65.8912 34.97 65.4863 34.8425 65.0214 34.8425C64.5715 34.8425 64.1703 34.97 63.8179 35.225C63.4655 35.4724 63.1918 35.8398 62.9968 36.3272C62.8019 36.8071 62.7044 37.3995 62.7044 38.1043C62.7044 38.8092 62.8019 39.4053 62.9968 39.8927C63.1918 40.3726 63.4655 40.74 63.8179 40.995C64.1703 41.2424 64.5715 41.3662 65.0214 41.3662ZM72.4686 42.1085C71.8612 42.1085 71.3213 41.951 70.8489 41.6361C70.3765 41.3137 70.0053 40.8563 69.7354 40.2639C69.4655 39.664 69.3305 38.9442 69.3305 38.1043C69.3305 37.2645 69.4655 36.5484 69.7354 35.9561C70.0053 35.3562 70.3765 34.8988 70.8489 34.5838C71.3213 34.2614 71.8612 34.1002 72.4686 34.1002C73.0759 34.1002 73.6158 34.2614 74.0882 34.5838C74.5606 34.8988 74.9318 35.3562 75.2017 35.9561C75.4792 36.5484 75.6179 37.2645 75.6179 38.1043C75.6179 38.9442 75.4792 39.664 75.2017 40.2639C74.9318 40.8563 74.5606 41.3137 74.0882 41.6361C73.6158 41.951 73.0759 42.1085 72.4686 42.1085ZM72.4686 41.3662C72.9335 41.3662 73.3384 41.2424 73.6833 40.995C74.0282 40.74 74.2982 40.3726 74.4931 39.8927C74.6881 39.4053 74.7856 38.8092 74.7856 38.1043C74.7856 37.3995 74.6881 36.8071 74.4931 36.3272C74.2982 35.8398 74.0282 35.4724 73.6833 35.225C73.3384 34.97 72.9335 34.8425 72.4686 34.8425C72.0187 34.8425 71.6175 34.97 71.2651 35.225C70.9127 35.4724 70.639 35.8398 70.444 36.3272C70.249 36.8071 70.1516 37.3995 70.1516 38.1043C70.1516 38.8092 70.249 39.4053 70.444 39.8927C70.639 40.3726 70.9127 40.74 71.2651 40.995C71.6175 41.2424 72.0187 41.3662 72.4686 41.3662ZM80.4187 42.041V34.1677H81.1048L86.5374 41.0062H86.1775V34.1677H86.9986V42.041H86.3125L80.8911 35.2025H81.251V42.041H80.4187ZM91.8067 42.0973C91.2368 42.0973 90.7231 41.9698 90.2657 41.7148C89.8158 41.4524 89.4597 41.0962 89.1972 40.6463C88.9348 40.1889 88.8035 39.6678 88.8035 39.0829C88.8035 38.4905 88.9348 37.9694 89.1972 37.5195C89.4597 37.0696 89.8158 36.7171 90.2657 36.4622C90.7156 36.2072 91.2293 36.0798 91.8067 36.0798C92.3915 36.0798 92.9089 36.2072 93.3588 36.4622C93.8162 36.7171 94.1724 37.0696 94.4274 37.5195C94.6898 37.9694 94.821 38.4905 94.821 39.0829C94.821 39.6678 94.6898 40.1889 94.4274 40.6463C94.1724 41.0962 93.8162 41.4524 93.3588 41.7148C92.9014 41.9698 92.384 42.0973 91.8067 42.0973ZM91.8067 41.3887C92.2341 41.3887 92.6127 41.2949 92.9427 41.1075C93.2726 40.9125 93.5313 40.6426 93.7188 40.2976C93.9137 39.9452 94.0112 39.5403 94.0112 39.0829C94.0112 38.618 93.9137 38.2131 93.7188 37.8681C93.5313 37.5232 93.2726 37.257 92.9427 37.0696C92.6127 36.8746 92.2378 36.7771 91.8179 36.7771C91.398 36.7771 91.0231 36.8746 90.6931 37.0696C90.3632 37.257 90.1008 37.5232 89.9058 37.8681C89.7109 38.2131 89.6134 38.618 89.6134 39.0829C89.6134 39.5403 89.7109 39.9452 89.9058 40.2976C90.1008 40.6426 90.3632 40.9125 90.6931 41.1075C91.0231 41.2949 91.3942 41.3887 91.8067 41.3887ZM98.0373 42.0973C97.5499 42.0973 97.0888 42.0298 96.6539 41.8948C96.219 41.7523 95.8778 41.5761 95.6303 41.3662L95.9902 40.7363C96.2302 40.9163 96.5376 41.0737 96.9126 41.2087C97.2875 41.3362 97.6811 41.3999 98.0936 41.3999C98.6559 41.3999 99.0608 41.3137 99.3083 41.1412C99.5557 40.9612 99.6795 40.725 99.6795 40.4326C99.6795 40.2152 99.6082 40.0464 99.4658 39.9265C99.3308 39.799 99.1508 39.7053 98.9259 39.6453C98.7009 39.5778 98.4497 39.5215 98.1723 39.4766C97.8948 39.4316 97.6174 39.3791 97.34 39.3191C97.07 39.2591 96.8226 39.1729 96.5976 39.0604C96.3727 38.9404 96.189 38.7792 96.0465 38.5767C95.9115 38.3743 95.844 38.1043 95.844 37.7669C95.844 37.4445 95.934 37.1558 96.114 36.9009C96.2939 36.6459 96.5564 36.4472 96.9013 36.3047C97.2537 36.1548 97.6811 36.0798 98.1835 36.0798C98.566 36.0798 98.9484 36.1323 99.3308 36.2372C99.7132 36.3347 100.028 36.4659 100.276 36.6309L99.9269 37.272C99.6645 37.0921 99.3833 36.9646 99.0833 36.8896C98.7834 36.8071 98.4835 36.7659 98.1835 36.7659C97.6511 36.7659 97.2575 36.8596 97.0025 37.0471C96.7551 37.227 96.6314 37.4595 96.6314 37.7444C96.6314 37.9694 96.6988 38.1456 96.8338 38.2731C96.9763 38.4005 97.16 38.5018 97.385 38.5767C97.6174 38.6442 97.8686 38.7005 98.1385 38.7455C98.416 38.7905 98.6897 38.8467 98.9596 38.9142C99.2371 38.9742 99.4883 39.0604 99.7132 39.1729C99.9457 39.2778 100.129 39.4316 100.264 39.634C100.407 39.829 100.478 40.0877 100.478 40.4101C100.478 40.755 100.381 41.055 100.186 41.3099C99.9982 41.5574 99.7207 41.7523 99.3533 41.8948C98.9934 42.0298 98.5547 42.0973 98.0373 42.0973ZM100.549 43.1658L104.26 32.5705H104.992L101.28 43.1658H100.549ZM107.394 42.0973C106.809 42.0973 106.284 41.9698 105.819 41.7148C105.362 41.4524 105.002 41.0962 104.74 40.6463C104.477 40.1889 104.346 39.6678 104.346 39.0829C104.346 38.4905 104.477 37.9694 104.74 37.5195C105.002 37.0696 105.362 36.7171 105.819 36.4622C106.284 36.2072 106.809 36.0798 107.394 36.0798C107.896 36.0798 108.35 36.1773 108.755 36.3722C109.16 36.5672 109.479 36.8596 109.711 37.2495L109.115 37.6544C108.912 37.3545 108.661 37.1333 108.361 36.9908C108.061 36.8484 107.735 36.7771 107.383 36.7771C106.963 36.7771 106.584 36.8746 106.247 37.0696C105.909 37.257 105.643 37.5232 105.448 37.8681C105.253 38.2131 105.156 38.618 105.156 39.0829C105.156 39.5478 105.253 39.9527 105.448 40.2976C105.643 40.6426 105.909 40.9125 106.247 41.1075C106.584 41.2949 106.963 41.3887 107.383 41.3887C107.735 41.3887 108.061 41.3174 108.361 41.1749C108.661 41.0325 108.912 40.815 109.115 40.5226L109.711 40.9275C109.479 41.3099 109.16 41.6024 108.755 41.8048C108.35 41.9998 107.896 42.0973 107.394 42.0973ZM113.213 42.0973C112.658 42.0973 112.231 41.9473 111.931 41.6473C111.631 41.3474 111.481 40.9238 111.481 40.3764V34.8313H112.279V40.3314C112.279 40.6763 112.365 40.9425 112.538 41.13C112.718 41.3174 112.973 41.4111 113.303 41.4111C113.655 41.4111 113.948 41.3099 114.18 41.1075L114.461 41.6811C114.304 41.8236 114.113 41.9285 113.888 41.996C113.67 42.0635 113.445 42.0973 113.213 42.0973ZM110.423 36.7996V36.136H114.079V36.7996H110.423ZM118.929 36.0798C119.409 36.0798 119.829 36.1735 120.189 36.361C120.557 36.5409 120.842 36.8184 121.044 37.1933C121.254 37.5682 121.359 38.0406 121.359 38.6105V42.041H120.56V38.6892C120.56 38.0669 120.403 37.5982 120.088 37.2833C119.78 36.9608 119.346 36.7996 118.783 36.7996C118.363 36.7996 117.996 36.8859 117.681 37.0583C117.374 37.2233 117.134 37.467 116.961 37.7894C116.796 38.1043 116.714 38.4868 116.714 38.9367V42.041H115.915V36.136H116.68V37.7557L116.556 37.452C116.744 37.0246 117.044 36.6909 117.456 36.4509C117.868 36.2035 118.36 36.0798 118.929 36.0798Z" fill="black"/>
<defs>
<filter id="filter0_d_2040_758" x="0.000195503" y="0.000195503" width="48.6441" height="48.7096" filterUnits="userSpaceOnUse" color-interpolation-filters="sRGB">
<feFlood flood-opacity="0" result="BackgroundImageFix"/>
<feColorMatrix in="SourceAlpha" type="matrix" values="0 0 0 0 0 0 0 0 0 0 0 0 0 0 0 0 0 0 127 0" result="hardAlpha"/>
<feOffset dy="-3"/>
<feGaussianBlur stdDeviation="2.1"/>
<feComposite in2="hardAlpha" operator="out"/>
<feColorMatrix type="matrix" values="0 0 0 0 0 0 0 0 0 0 0 0 0 0 0 0 0 0 0.25 0"/>
<feBlend mode="normal" in2="BackgroundImageFix" result="effect1_dropShadow_2040_758"/>
<feBlend mode="normal" in="SourceGraphic" in2="effect1_dropShadow_2040_758" result="shape"/>
</filter>
</defs>
</svg>
