<svg width="326" height="76" viewBox="0 0 326 76" fill="none" xmlns="http://www.w3.org/2000/svg">
<path d="M12.3154 45.8429C10.3085 45.8455 8.38472 45.5853 6.54393 45.0621C4.70309 44.515 3.22025 43.8122 2.09542 42.9536L4.05645 38.579C5.13328 39.3421 6.40094 39.9735 7.85942 40.4733C9.34174 40.9492 10.8355 41.1861 12.3406 41.1841C13.4873 41.1826 14.4069 41.0739 15.0992 40.858C15.8154 40.6181 16.3403 40.2949 16.6738 39.8883C17.0074 39.4817 17.1735 39.0156 17.1724 38.49C17.1708 37.8211 16.9068 37.2959 16.3804 36.9143C15.8538 36.5088 15.1603 36.1872 14.2997 35.9495C13.439 35.6878 12.4828 35.4501 11.4311 35.2365C10.4033 34.9989 9.36337 34.7136 8.31141 34.3805C7.28335 34.0474 6.33868 33.6186 5.47741 33.0942C4.61614 32.5697 3.90979 31.8778 3.35834 31.0185C2.83078 30.1591 2.56548 29.0604 2.56243 27.7226C2.55916 26.2891 2.93845 24.9866 3.70029 23.8149C4.48597 22.6193 5.65447 21.6741 7.20579 20.9792C8.78095 20.2604 10.7511 19.8995 13.1163 19.8964C14.6931 19.8943 16.2465 20.0834 17.7763 20.4636C19.3062 20.8199 20.6572 21.3677 21.8296 22.1067L20.0478 26.5169C18.8756 25.8495 17.7039 25.3613 16.5325 25.0523C15.3611 24.7194 14.214 24.5536 13.0911 24.5551C11.9682 24.5566 11.0487 24.6892 10.3326 24.9529C9.61648 25.2167 9.10362 25.5638 8.79401 25.9942C8.48436 26.4008 8.33016 26.8788 8.33141 27.4283C8.33288 28.0733 8.59688 28.5986 9.1234 29.004C9.64987 29.3856 10.3434 29.6953 11.204 29.933C12.0646 30.1708 13.0089 30.4085 14.0367 30.646C15.0885 30.8836 16.1283 31.1569 17.1563 31.4662C18.2083 31.7753 19.1648 32.1922 20.0261 32.7166C20.8874 33.2411 21.5818 33.933 22.1093 34.7924C22.6608 35.6517 22.938 36.7384 22.941 38.0524C22.9442 39.462 22.553 40.7526 21.7672 41.9243C20.9815 43.096 19.8011 44.0412 18.2259 44.76C16.6746 45.4788 14.7044 45.8397 12.3154 45.8429ZM28.3581 45.3917L28.3009 20.3064L40.5569 20.2903C43.7105 20.2861 46.0771 20.8803 47.6566 22.0727C49.26 23.2651 50.0639 24.8409 50.0684 26.7999C50.0714 28.1139 49.7515 29.2611 49.1087 30.2415C48.4658 31.198 47.5835 31.9397 46.4618 32.4668C45.3402 32.9939 44.0507 33.2584 42.5933 33.2603L43.2709 31.7901C44.8477 31.788 46.2459 32.049 47.4655 32.573C48.6851 33.0731 49.6305 33.8244 50.3017 34.8269C50.9968 35.8294 51.346 37.0594 51.3494 38.5167C51.3543 40.6669 50.51 42.3523 48.8165 43.573C47.123 44.7697 44.6277 45.3703 41.3308 45.3746L28.3581 45.3917ZM34.1178 41.0121L40.8908 41.0032C42.3959 41.0012 43.5302 40.7608 44.2936 40.282C45.0809 39.7792 45.4733 38.9903 45.4708 37.9152C45.4684 36.864 45.0725 36.0881 44.2829 35.5874C43.5172 35.0628 42.3818 34.8015 40.8767 34.8035L33.6736 34.813L33.664 30.5843L39.8636 30.5762C41.2732 30.5743 42.3477 30.334 43.0873 29.8552C43.8506 29.3525 44.2312 28.5994 44.2289 27.596C44.2267 26.6165 43.8427 25.8883 43.0771 25.4115C42.3354 24.9108 41.2597 24.6614 39.8502 24.6632L34.0805 24.6708L34.1178 41.0121ZM56.0649 37.5071L56.0546 33.0276L66.1963 33.0142L66.2065 37.4937L56.0649 37.5071ZM76.317 45.3285L76.2707 24.9736L68.2434 24.9842L68.2326 20.2538L90.0927 20.225L90.1035 24.9554L82.0761 24.966L82.1225 45.3209L76.317 45.3285ZM100.012 30.3178L112.089 30.3019L112.099 34.8172L100.023 34.8331L100.012 30.3178ZM100.466 40.638L114.12 40.62L114.13 45.2787L94.7069 45.3043L94.6498 20.219L113.607 20.194L113.618 24.8527L100.43 24.8701L100.466 40.638ZM118.354 37.425L118.344 32.9455L128.486 32.9322L128.496 37.4117L118.354 37.425ZM132.353 45.2547L132.345 41.4919L142 32.341C142.762 31.6471 143.322 31.0252 143.68 30.4753C144.037 29.9253 144.274 29.4233 144.393 28.9692C144.535 28.5151 144.606 28.0969 144.605 27.7147C144.603 26.7113 144.255 25.9472 143.561 25.4225C142.89 24.8739 141.898 24.6005 140.584 24.6022C139.533 24.6036 138.554 24.808 137.647 25.2153C136.764 25.6226 136.013 26.2567 135.394 27.1176L131.159 24.3996C132.111 22.9649 133.447 21.8283 135.165 20.9899C136.883 20.1514 138.865 19.7307 141.111 19.7278C142.974 19.7253 144.599 20.0338 145.987 20.6531C147.397 21.2485 148.486 22.0952 149.253 23.1932C150.044 24.2911 150.442 25.6046 150.445 27.1336C150.447 27.9459 150.341 28.7583 150.128 29.5709C149.939 30.3595 149.535 31.1962 148.915 32.081C148.32 32.9658 147.438 33.9584 146.27 35.0589L138.26 42.6309L137.144 40.518L151.3 40.4994L151.311 45.2298L132.353 45.2547ZM163.669 45.6435C161.925 45.6458 160.193 45.4211 158.472 44.9695C156.774 44.4939 155.315 43.8269 154.095 42.9684L156.378 38.5217C157.336 39.2133 158.436 39.7613 159.679 40.1658C160.946 40.5703 162.225 40.7717 163.515 40.77C164.972 40.7681 166.118 40.4799 166.953 39.9054C167.788 39.3309 168.204 38.53 168.202 37.5027C168.201 36.8577 168.032 36.2845 167.696 35.7833C167.361 35.282 166.763 34.9005 165.902 34.6389C165.065 34.3772 163.882 34.2473 162.353 34.2493L155.939 34.2578L157.197 20.1366L172.499 20.1165L172.509 24.7752L159.286 24.7926L162.29 22.1368L161.417 32.2079L158.401 29.56L163.704 29.553C166.189 29.5497 168.185 29.8935 169.691 30.5844C171.222 31.2513 172.335 32.1696 173.03 33.3394C173.726 34.5091 174.075 35.8346 174.079 37.3158C174.082 38.797 173.715 40.1712 172.977 41.4384C172.239 42.6817 171.095 43.6986 169.544 44.489C168.017 45.2556 166.058 45.6404 163.669 45.6435ZM188.637 45.6106C186.583 45.6134 184.742 45.1141 183.115 44.1128C181.488 43.0876 180.207 41.6081 179.271 39.6742C178.334 37.7402 177.863 35.3996 177.857 32.6521C177.851 29.9047 178.311 27.5628 179.239 25.6264C180.166 23.69 181.441 22.219 183.063 21.2135C184.685 20.184 186.524 19.668 188.578 19.6653C190.657 19.6625 192.498 20.1738 194.101 21.1989C195.727 22.2002 197.009 23.6678 197.945 25.6017C198.881 27.5357 199.353 29.8764 199.359 32.6238C199.365 35.3712 198.904 37.7131 197.977 39.6495C197.05 41.5859 195.775 43.0688 194.153 44.0983C192.554 45.1038 190.716 45.6079 188.637 45.6106ZM188.626 40.7011C189.606 40.6998 190.453 40.4239 191.169 39.8735C191.908 39.323 192.48 38.4503 192.883 37.2552C193.31 36.0601 193.522 34.5189 193.517 32.6315C193.513 30.7441 193.295 29.2034 192.862 28.0095C192.453 26.8155 191.878 25.9442 191.136 25.3957C190.418 24.8472 189.569 24.5735 188.59 24.5748C187.634 24.5761 186.786 24.8519 186.047 25.4024C185.332 25.9528 184.76 26.8256 184.333 28.0207C183.929 29.2158 183.73 30.757 183.734 32.6444C183.738 34.5317 183.945 36.0724 184.354 37.2664C184.787 38.4604 185.362 39.3317 186.08 39.8802C186.822 40.4287 187.671 40.7024 188.626 40.7011ZM217.332 45.5729C215.349 45.5755 213.521 45.2673 211.847 44.6483C210.197 44.0055 208.749 43.0995 207.504 41.9305C206.283 40.7615 205.325 39.389 204.628 37.8131C203.956 36.2372 203.617 34.5056 203.613 32.6182C203.609 30.7308 203.939 28.9983 204.604 27.4206C205.294 25.8429 206.258 24.4679 207.498 23.2956C208.737 22.1234 210.193 21.2255 211.864 20.6022C213.535 19.9549 215.373 19.63 217.38 19.6273C219.602 19.6244 221.598 19.9921 223.367 20.7304C225.161 21.4686 226.669 22.5417 227.89 23.9497L224.171 27.3949C223.261 26.4404 222.268 25.7369 221.192 25.2844C220.116 24.808 218.944 24.5707 217.678 24.5723C216.46 24.5739 215.349 24.7665 214.347 25.1501C213.344 25.5337 212.474 26.0843 211.735 26.802C211.019 27.5197 210.46 28.3685 210.056 29.3486C209.676 30.3286 209.487 31.4159 209.49 32.6105C209.493 33.7811 209.686 34.8559 210.071 35.835C210.479 36.8139 211.043 37.6733 211.761 38.4129C212.503 39.1287 213.365 39.677 214.345 40.058C215.349 40.4389 216.449 40.6286 217.643 40.627C218.79 40.6255 219.9 40.4449 220.975 40.0851C222.073 39.7014 223.135 39.0669 224.16 38.1816L227.466 42.3701C226.107 43.3992 224.52 44.1897 222.705 44.7415C220.915 45.2934 219.124 45.5705 217.332 45.5729ZM222.161 41.6245L222.139 32.1996L227.443 32.1926L227.466 42.3701L222.161 41.6245Z" fill="#490606"/>
<path d="M47.9377 68.9093C47.4847 68.1893 47.1344 67.3583 46.8868 66.4163C46.6391 65.4664 46.5141 64.4451 46.5116 63.3524C46.5091 62.2596 46.6295 61.238 46.8728 60.2874C47.1161 59.329 47.4626 58.4971 47.9124 57.7917L48.9933 57.7903C48.5201 58.6303 48.1736 59.5097 47.954 60.4285C47.7344 61.3395 47.6257 62.3136 47.6281 63.3509C47.6305 64.3882 47.7435 65.366 47.9674 66.2843C48.1912 67.1946 48.5416 68.0691 49.0186 68.9079L47.9377 68.9093ZM50.6396 66.6014L50.6206 58.287L51.8084 58.2855L51.8273 66.5999L50.6396 66.6014ZM54.3166 66.5966L54.2976 58.2822L55.2716 58.2809L59.0155 64.5593L58.4929 64.56L62.1607 58.2718L63.1347 58.2705L63.1655 66.5849L62.0252 66.5864L61.9985 60.0656L62.2717 60.0652L59.006 65.5808L58.4596 65.5815L55.145 60.0746L55.442 60.0742L55.4568 66.5951L54.3166 66.5966ZM65.6607 66.5817L65.6418 58.2672L66.8296 58.2657L66.8462 65.5467L71.3478 65.5408L71.3502 66.5742L65.6607 66.5817ZM75.903 66.5682L75.884 58.2538L76.858 58.2525L80.6019 64.5309L80.0793 64.5316L83.7471 58.2434L84.7211 58.2421L84.7519 66.5565L83.6116 66.558L83.5849 60.0372L83.8581 60.0368L80.5924 65.5524L80.046 65.5531L76.7314 60.0462L77.0284 60.0458L77.0432 66.5667L75.903 66.5682ZM91.0007 66.6433C90.3672 66.6441 89.7771 66.538 89.2302 66.3249C88.6913 66.1118 88.2234 65.8155 87.8266 65.436C87.4298 65.0485 87.1199 64.5975 86.8971 64.0831C86.6742 63.5687 86.562 63.0066 86.5606 62.3969C86.5592 61.7872 86.6688 61.2248 86.8894 60.7098C87.1099 60.1948 87.4177 59.747 87.8128 59.3664C88.2078 58.9779 88.6743 58.6764 89.2123 58.4619C89.7503 58.2474 90.3399 58.1397 90.9813 58.1389C91.6148 58.138 92.1971 58.2441 92.7281 58.4572C93.267 58.6624 93.7349 58.9587 94.1317 59.3462C94.5364 59.7258 94.8463 60.1728 95.0612 60.6872C95.2841 61.2016 95.3963 61.7676 95.3977 62.3853C95.3991 63.0029 95.2895 63.5692 95.069 64.0842C94.8563 64.5992 94.5486 65.051 94.1456 65.4395C93.7505 65.8201 93.284 66.1177 92.746 66.3322C92.216 66.5388 91.6342 66.6425 91.0007 66.6433ZM90.9983 65.5862C91.4576 65.5856 91.881 65.5058 92.2687 65.347C92.6643 65.1881 93.0042 64.9659 93.2887 64.6805C93.581 64.3871 93.8059 64.0463 93.9634 63.6581C94.1288 63.2699 94.211 62.8461 94.2099 62.3868C94.2089 61.9276 94.1247 61.504 93.9576 61.1162C93.7983 60.7285 93.5719 60.3922 93.2782 60.1075C92.9925 59.8149 92.6515 59.5897 92.2552 59.4318C91.8668 59.274 91.443 59.1954 90.9838 59.196C90.5166 59.1966 90.0852 59.2763 89.6896 59.4352C89.302 59.5941 88.962 59.8202 88.6697 60.1136C88.3773 60.3991 88.1485 60.7359 87.9831 61.1241C87.8256 61.5123 87.7474 61.9361 87.7484 62.3953C87.7495 62.8546 87.8296 63.2782 87.9889 63.666C88.156 64.0537 88.3864 64.3939 88.6801 64.6865C88.9737 64.9712 89.3147 65.1925 89.7031 65.3503C90.0994 65.5082 90.5311 65.5868 90.9983 65.5862ZM100.976 66.6302C100.343 66.631 99.7525 66.5249 99.2057 66.3118C98.6667 66.0987 98.1988 65.8024 97.8021 65.4228C97.4052 65.0353 97.0954 64.5844 96.8725 64.07C96.6496 63.5556 96.5375 62.9935 96.5361 62.3838C96.5347 61.774 96.6443 61.2117 96.8648 60.6967C97.0854 60.1817 97.3932 59.7339 97.7882 59.3533C98.1833 58.9648 98.6498 58.6633 99.1877 58.4487C99.7257 58.2342 100.315 58.1266 100.957 58.1257C101.59 58.1249 102.173 58.231 102.704 58.4441C103.242 58.6493 103.71 58.9456 104.107 59.3331C104.512 59.7127 104.822 60.1596 105.037 60.6741C105.26 61.1885 105.372 61.7545 105.373 62.3721C105.375 62.9898 105.265 63.5561 105.044 64.0711C104.832 64.5861 104.524 65.0378 104.121 65.4264C103.726 65.807 103.259 66.1045 102.721 66.319C102.191 66.5256 101.61 66.6293 100.976 66.6302ZM103.7 68.2657C103.423 68.2661 103.157 68.2308 102.904 68.1599C102.65 68.0968 102.397 67.9903 102.143 67.8402C101.889 67.698 101.627 67.5083 101.358 67.2711C101.088 67.0418 100.794 66.7571 100.477 66.417L101.747 66.0828C101.985 66.3754 102.211 66.6127 102.426 66.7945C102.648 66.9843 102.866 67.1186 103.08 67.1975C103.294 67.2843 103.504 67.3276 103.71 67.3274C104.304 67.3266 104.81 67.0883 105.228 66.6127L105.788 67.289C105.251 67.939 104.555 68.2646 103.7 68.2657ZM100.974 65.573C101.433 65.5724 101.856 65.4927 102.244 65.3338C102.64 65.1749 102.98 64.9488 103.264 64.6554C103.556 64.3621 103.781 64.0213 103.939 63.6331C104.104 63.2448 104.186 62.8251 104.185 62.3737C104.184 61.9144 104.1 61.4909 103.933 61.1031C103.774 60.7153 103.547 60.3791 103.254 60.0944C102.968 59.8018 102.627 59.5766 102.231 59.4187C101.842 59.2609 101.418 59.1822 100.959 59.1828C100.492 59.1834 100.061 59.2632 99.6651 59.4221C99.2774 59.581 98.9374 59.8071 98.6451 60.1005C98.3528 60.3859 98.1239 60.7228 97.9585 61.111C97.801 61.4992 97.7228 61.9229 97.7239 62.3822C97.7249 62.8336 97.805 63.2531 97.9643 63.6409C98.1315 64.0287 98.3619 64.3689 98.6555 64.6615C98.9492 64.9541 99.2902 65.1793 99.6786 65.3372C100.075 65.495 100.507 65.5737 100.974 65.573ZM109.811 63.756L109.809 62.7701L113.004 62.7659L113.007 63.7518L109.811 63.756ZM120.132 66.6049C119.546 66.6057 118.976 66.5154 118.421 66.334C117.874 66.1526 117.426 65.9077 117.077 65.5993L117.622 64.6603C117.899 64.9212 118.26 65.1346 118.704 65.3003C119.148 65.466 119.619 65.5485 120.118 65.5478C120.751 65.547 121.238 65.4117 121.578 65.1421C121.918 64.8724 122.087 64.5119 122.086 64.0605C122.086 63.7517 122.01 63.4826 121.859 63.2531C121.708 63.0237 121.446 62.8498 121.074 62.7315C120.709 62.6053 120.206 62.5426 119.565 62.5435L117.676 62.546L118.106 58.1981L122.797 58.192L122.8 59.2253L118.548 59.2309L119.164 58.6481L118.827 62.0812L118.208 61.5119L119.812 61.5098C120.643 61.5087 121.313 61.6147 121.82 61.8279C122.327 62.041 122.696 62.3374 122.926 62.7172C123.157 63.0891 123.273 63.5205 123.274 64.0114C123.275 64.4866 123.161 64.9222 122.932 65.3184C122.704 65.7068 122.356 66.02 121.889 66.2582C121.431 66.4884 120.845 66.604 120.132 66.6049ZM127.665 66.595C127.016 66.5959 126.434 66.4303 125.918 66.0984C125.411 65.7665 125.006 65.284 124.703 64.651C124.409 64.0179 124.261 63.25 124.259 62.3473C124.257 61.4446 124.401 60.6763 124.693 60.0424C124.992 59.4085 125.395 58.925 125.901 58.5917C126.415 58.2585 126.997 58.0914 127.646 58.0906C128.287 58.0897 128.866 58.2552 129.381 58.5871C129.897 58.919 130.302 59.4015 130.596 60.0346C130.89 60.6677 131.039 61.4356 131.041 62.3383C131.043 63.241 130.898 64.0093 130.607 64.6432C130.315 65.277 129.912 65.7606 129.398 66.0939C128.884 66.4271 128.307 66.5942 127.665 66.595ZM127.663 65.5379C128.098 65.5373 128.478 65.418 128.802 65.1801C129.134 64.9421 129.391 64.5854 129.572 64.11C129.761 63.6347 129.855 63.0446 129.853 62.3399C129.851 61.6351 129.755 61.0453 129.564 60.5705C129.381 60.0956 129.123 59.7396 128.789 59.5025C128.464 59.2654 128.084 59.1471 127.648 59.1477C127.213 59.1483 126.829 59.2675 126.497 59.5055C126.165 59.7435 125.904 60.1002 125.715 60.5756C125.534 61.0509 125.445 61.641 125.446 62.3457C125.448 63.0504 125.54 63.6402 125.724 64.1151C125.915 64.59 126.177 64.946 126.51 65.1831C126.843 65.4202 127.227 65.5385 127.663 65.5379ZM135.588 66.5846C134.938 66.5854 134.356 66.4199 133.84 66.088C133.333 65.7561 132.928 65.2736 132.626 64.6405C132.331 64.0074 132.183 63.2395 132.181 62.3368C132.179 61.4341 132.324 60.6658 132.615 60.032C132.915 59.3981 133.317 58.9145 133.823 58.5813C134.337 58.248 134.919 58.081 135.568 58.0801C136.21 58.0793 136.788 58.2448 137.304 58.5767C137.819 58.9086 138.224 59.3911 138.518 60.0242C138.813 60.6573 138.961 61.4252 138.963 62.3279C138.965 63.2306 138.82 63.9989 138.529 64.6328C138.237 65.2666 137.835 65.7502 137.321 66.0834C136.807 66.4167 136.229 66.5837 135.588 66.5846ZM135.585 65.5275C136.021 65.5269 136.401 65.4076 136.725 65.1696C137.057 64.9316 137.313 64.575 137.494 64.0996C137.683 63.6243 137.777 63.0342 137.775 62.3295C137.774 61.6247 137.677 61.0349 137.486 60.5601C137.303 60.0852 137.045 59.7292 136.712 59.4921C136.387 59.2549 136.006 59.1367 135.571 59.1372C135.135 59.1378 134.751 59.2571 134.419 59.4951C134.087 59.7331 133.827 60.0898 133.638 60.5651C133.457 61.0405 133.367 61.6305 133.369 62.3353C133.37 63.04 133.463 63.6298 133.646 64.1047C133.837 64.5795 134.099 64.9355 134.432 65.1726C134.765 65.4098 135.15 65.528 135.585 65.5275ZM143.51 66.5741C142.861 66.575 142.278 66.4095 141.763 66.0776C141.255 65.7457 140.85 65.2632 140.548 64.6301C140.254 63.997 140.105 63.2291 140.103 62.3264C140.101 61.4237 140.246 60.6554 140.538 60.0215C140.837 59.3877 141.24 58.9041 141.746 58.5709C142.26 58.2376 142.841 58.0705 143.491 58.0697C144.132 58.0688 144.71 58.2344 145.226 58.5663C145.741 58.8982 146.146 59.3807 146.441 60.0138C146.735 60.6469 146.883 61.4148 146.885 62.3175C146.888 63.2202 146.743 63.9885 146.451 64.6223C146.16 65.2562 145.757 65.7397 145.243 66.073C144.729 66.4062 144.151 66.5733 143.51 66.5741ZM143.508 65.517C143.943 65.5165 144.323 65.3972 144.647 65.1592C144.979 64.9212 145.236 64.5645 145.417 64.0892C145.606 63.6138 145.699 63.0238 145.698 62.319C145.696 61.6143 145.6 61.0245 145.409 60.5496C145.225 60.0747 144.967 59.7188 144.634 59.4816C144.309 59.2445 143.929 59.1262 143.493 59.1268C143.058 59.1274 142.674 59.2467 142.342 59.4847C142.01 59.7227 141.749 60.0793 141.56 60.5547C141.379 61.03 141.289 61.6201 141.291 62.3248C141.293 63.0296 141.385 63.6194 141.568 64.0942C141.759 64.5691 142.022 64.9251 142.355 65.1622C142.688 65.3993 143.072 65.5176 143.508 65.517ZM151.902 66.4681L151.883 58.1537L155.126 58.1494C155.854 58.1484 156.476 58.2624 156.991 58.4914C157.506 58.7203 157.903 59.0524 158.181 59.4876C158.459 59.9227 158.599 60.4412 158.601 61.043C158.602 61.6448 158.465 62.1636 158.188 62.5995C157.912 63.0275 157.517 63.3606 157.003 63.5988C156.489 63.8291 155.867 63.9448 155.139 63.9457L152.55 63.9491L153.083 63.3902L153.09 66.4665L151.902 66.4681ZM153.083 63.509L152.547 62.9158L155.101 62.9124C155.861 62.9114 156.435 62.7483 156.822 62.4232C157.217 62.098 157.414 61.6384 157.413 61.0446C157.411 60.4507 157.212 59.9917 156.816 59.6675C156.427 59.3434 155.853 59.1818 155.092 59.1828L152.539 59.1862L153.072 58.5916L153.083 63.509ZM162.912 66.5248C162.271 66.5257 161.697 66.3879 161.189 66.1114C160.69 65.8349 160.297 65.4553 160.011 64.9727C159.724 64.49 159.581 63.9359 159.579 63.3104C159.578 62.6848 159.719 62.1303 160.003 61.6469C160.287 61.1635 160.678 60.7869 161.176 60.517C161.683 60.2392 162.256 60.0998 162.898 60.099C163.468 60.0982 163.975 60.2124 164.419 60.4414C164.871 60.6626 165.22 60.9947 165.466 61.4378L164.601 61.9972C164.394 61.6886 164.14 61.4633 163.839 61.3212C163.546 61.1711 163.229 61.0963 162.888 61.0967C162.476 61.0973 162.108 61.1888 161.784 61.3714C161.46 61.5539 161.203 61.8116 161.014 62.1444C160.824 62.4693 160.73 62.8575 160.731 63.3088C160.732 63.7602 160.828 64.152 161.019 64.4844C161.21 64.8167 161.468 65.0737 161.793 65.2554C162.118 65.4371 162.486 65.5277 162.898 65.5271C163.239 65.5267 163.555 65.455 163.848 65.3121C164.148 65.1612 164.401 64.9313 164.607 64.6222L165.475 65.1674C165.23 65.6032 164.883 65.9402 164.432 66.1784C163.989 66.4086 163.482 66.5241 162.912 66.5248ZM168.76 66.5171C168.237 66.5178 167.738 66.4472 167.263 66.3053C166.795 66.1634 166.426 65.9897 166.157 65.7841L166.63 64.8808C166.899 65.0626 167.232 65.2165 167.629 65.3427C168.025 65.4689 168.429 65.5317 168.841 65.5312C169.371 65.5305 169.751 65.4547 169.98 65.304C170.217 65.1532 170.336 64.9432 170.335 64.674C170.335 64.476 170.263 64.3217 170.12 64.2111C169.978 64.1004 169.787 64.0175 169.55 63.9624C169.32 63.9072 169.062 63.8601 168.777 63.8209C168.492 63.7737 168.207 63.7187 167.922 63.6557C167.636 63.5848 167.375 63.4901 167.137 63.3717C166.899 63.2453 166.709 63.0753 166.566 62.8617C166.423 62.6401 166.351 62.3473 166.35 61.983C166.349 61.6029 166.455 61.2702 166.668 60.9849C166.882 60.6995 167.182 60.4813 167.57 60.3304C167.965 60.1715 168.432 60.0917 168.971 60.091C169.382 60.0904 169.798 60.1414 170.218 60.2438C170.646 60.3382 170.995 60.4763 171.264 60.6581L170.779 61.5614C170.494 61.3718 170.197 61.2415 169.888 61.1707C169.579 61.0998 169.27 61.0646 168.961 61.065C168.462 61.0656 168.09 61.1493 167.845 61.3159C167.6 61.4746 167.478 61.6806 167.478 61.934C167.479 62.1478 167.55 62.314 167.693 62.4326C167.844 62.5432 168.034 62.6301 168.264 62.6931C168.502 62.7562 168.763 62.8113 169.048 62.8584C169.333 62.8976 169.619 62.9527 169.904 63.0236C170.189 63.0865 170.447 63.1773 170.676 63.2957C170.914 63.4142 171.105 63.5802 171.248 63.7938C171.399 64.0074 171.475 64.2924 171.475 64.6487C171.476 65.0288 171.366 65.3576 171.145 65.635C170.924 65.9125 170.612 66.1306 170.208 66.2895C169.805 66.4405 169.322 66.5164 168.76 66.5171ZM173.29 68.7442L172.209 68.7456C172.69 67.9056 173.04 67.0302 173.26 66.1192C173.48 65.2004 173.588 64.2223 173.586 63.185C173.584 62.1477 173.471 61.1739 173.247 60.2635C173.023 59.3453 172.669 58.4668 172.184 57.6281L173.265 57.6266C173.733 58.3308 174.088 59.1617 174.327 60.1196C174.575 61.0695 174.7 62.0908 174.703 63.1835C174.705 64.2763 174.585 65.2979 174.341 66.2485C174.106 67.1911 173.755 68.023 173.29 68.7442Z" fill="black"/>
<path d="M182.853 61.6064H221.225" stroke="url(#paint0_linear_2040_723)" stroke-width="0.863039"/>
<path d="M38.3721 62.6787H-0.000434399" stroke="url(#paint1_linear_2040_723)" stroke-width="0.863039"/>
<defs>
<linearGradient id="paint0_linear_2040_723" x1="215.469" y1="62.1064" x2="183.492" y2="62.1064" gradientUnits="userSpaceOnUse">
<stop stop-color="#666666" stop-opacity="0"/>
<stop offset="1"/>
</linearGradient>
<linearGradient id="paint1_linear_2040_723" x1="5.75544" y1="63.1787" x2="37.7325" y2="63.1787" gradientUnits="userSpaceOnUse">
<stop stop-color="#666666" stop-opacity="0"/>
<stop offset="1"/>
</linearGradient>
</defs>
</svg>
