<svg width="124" height="14" viewBox="0 0 124 14" fill="none" xmlns="http://www.w3.org/2000/svg">
<path d="M-0.000140548 12.8159V0.215917H6.15586C7.73986 0.215917 8.92786 0.515917 9.71986 1.11592C10.5239 1.71592 10.9259 2.50792 10.9259 3.49192C10.9259 4.15192 10.7639 4.72792 10.4399 5.21992C10.1159 5.69992 9.67186 6.07192 9.10786 6.33592C8.54386 6.59992 7.89586 6.73192 7.16386 6.73192L7.50586 5.99392C8.29786 5.99392 8.99986 6.12592 9.61186 6.38992C10.2239 6.64192 10.6979 7.01992 11.0339 7.52392C11.3819 8.02792 11.5559 8.64592 11.5559 9.37792C11.5559 10.4579 11.1299 11.3039 10.2779 11.9159C9.42586 12.5159 8.17186 12.8159 6.51586 12.8159H-0.000140548ZM2.89786 10.6199H6.29986C7.05586 10.6199 7.62586 10.4999 8.00986 10.2599C8.40586 10.0079 8.60386 9.61192 8.60386 9.07192C8.60386 8.54392 8.40586 8.15392 8.00986 7.90192C7.62586 7.63792 7.05586 7.50592 6.29986 7.50592H2.68186V5.38192H5.79586C6.50386 5.38192 7.04386 5.26192 7.41586 5.02192C7.79986 4.76992 7.99186 4.39192 7.99186 3.88792C7.99186 3.39592 7.79986 3.02992 7.41586 2.78992C7.04386 2.53792 6.50386 2.41192 5.79586 2.41192H2.89786V10.6199ZM16.1978 12.8159V2.59192H12.1658V0.215917H23.1458V2.59192H19.1138V12.8159H16.1978ZM23.4887 8.87392V6.62392H28.5827V8.87392H23.4887ZM31.7554 12.8159V1.29592L33.0154 2.55592H29.2354V0.215917H34.6714V12.8159H31.7554ZM36.7162 10.1699V8.20792L42.6562 0.215917H45.7162L39.9022 8.20792L38.4802 7.79392H48.3982V10.1699H36.7162ZM43.5022 12.8159V10.1699L43.5922 7.79392V5.43592H46.3462V12.8159H43.5022ZM49.6801 8.87392V6.62392H54.7741V8.87392H49.6801ZM62.0762 13.0319C60.9242 13.0319 59.9222 12.7919 59.0702 12.3119C58.2302 11.8319 57.5822 11.1299 57.1262 10.2059C56.6702 9.28192 56.4422 8.14192 56.4422 6.78592C56.4422 5.33392 56.7122 4.10392 57.2522 3.09592C57.8042 2.08792 58.5602 1.31992 59.5202 0.791917C60.4922 0.263918 61.6082 -8.22544e-05 62.8682 -8.22544e-05C63.5402 -8.22544e-05 64.1822 0.0719175 64.7942 0.215917C65.4062 0.359917 65.9342 0.575917 66.3782 0.863917L65.2982 3.00592C64.9502 2.76592 64.5782 2.60392 64.1822 2.51992C63.7862 2.42392 63.3722 2.37592 62.9402 2.37592C61.8482 2.37592 60.9842 2.70592 60.3482 3.36592C59.7122 4.02592 59.3942 5.00392 59.3942 6.29992C59.3942 6.51592 59.3942 6.75592 59.3942 7.01992C59.4062 7.28392 59.4422 7.54792 59.5022 7.81192L58.6922 7.05592C58.9202 6.58792 59.2142 6.19792 59.5742 5.88592C59.9342 5.56192 60.3602 5.32192 60.8522 5.16592C61.3562 4.99792 61.9082 4.91392 62.5082 4.91392C63.3242 4.91392 64.0562 5.07592 64.7042 5.39992C65.3522 5.72392 65.8682 6.17992 66.2522 6.76792C66.6482 7.35592 66.8462 8.04592 66.8462 8.83792C66.8462 9.68992 66.6302 10.4339 66.1982 11.0699C65.7782 11.6939 65.2082 12.1799 64.4882 12.5279C63.7802 12.8639 62.9762 13.0319 62.0762 13.0319ZM61.9142 10.8539C62.3222 10.8539 62.6822 10.7819 62.9942 10.6379C63.3182 10.4819 63.5702 10.2599 63.7502 9.97192C63.9302 9.68392 64.0202 9.35392 64.0202 8.98192C64.0202 8.40592 63.8222 7.94992 63.4262 7.61392C63.0422 7.26592 62.5262 7.09192 61.8782 7.09192C61.4462 7.09192 61.0682 7.17592 60.7442 7.34392C60.4202 7.49992 60.1622 7.72192 59.9702 8.00992C59.7902 8.28592 59.7002 8.60992 59.7002 8.98192C59.7002 9.34192 59.7902 9.66592 59.9702 9.95392C60.1502 10.2299 60.4022 10.4519 60.7262 10.6199C61.0502 10.7759 61.4462 10.8539 61.9142 10.8539ZM72.1872 13.0319C71.3112 13.0319 70.4412 12.9179 69.5772 12.6899C68.7252 12.4499 67.9932 12.1139 67.3812 11.6819L68.5332 9.44992C69.0132 9.79792 69.5652 10.0739 70.1892 10.2779C70.8252 10.4819 71.4672 10.5839 72.1152 10.5839C72.8472 10.5839 73.4232 10.4399 73.8432 10.1519C74.2632 9.86392 74.4732 9.46192 74.4732 8.94592C74.4732 8.62192 74.3892 8.33392 74.2212 8.08192C74.0532 7.82992 73.7532 7.63792 73.3212 7.50592C72.9012 7.37392 72.3072 7.30792 71.5392 7.30792H68.3172L68.9652 0.215917H76.6512V2.55592H70.0092L71.5212 1.22392L71.0712 6.28192L69.5592 4.94992H72.2232C73.4712 4.94992 74.4732 5.12392 75.2292 5.47192C75.9972 5.80792 76.5552 6.26992 76.9032 6.85792C77.2512 7.44592 77.4252 8.11192 77.4252 8.85592C77.4252 9.59992 77.2392 10.2899 76.8672 10.9259C76.4952 11.5499 75.9192 12.0599 75.1392 12.4559C74.3712 12.8399 73.3872 13.0319 72.1872 13.0319ZM84.0083 13.0319C82.9763 13.0319 82.0523 12.7799 81.2363 12.2759C80.4203 11.7599 79.7783 11.0159 79.3103 10.0439C78.8423 9.07192 78.6083 7.89592 78.6083 6.51592C78.6083 5.13592 78.8423 3.95992 79.3103 2.98792C79.7783 2.01592 80.4203 1.27792 81.2363 0.773917C82.0523 0.257918 82.9763 -8.22544e-05 84.0083 -8.22544e-05C85.0523 -8.22544e-05 85.9763 0.257918 86.7803 0.773917C87.5963 1.27792 88.2383 2.01592 88.7063 2.98792C89.1743 3.95992 89.4083 5.13592 89.4083 6.51592C89.4083 7.89592 89.1743 9.07192 88.7063 10.0439C88.2383 11.0159 87.5963 11.7599 86.7803 12.2759C85.9763 12.7799 85.0523 13.0319 84.0083 13.0319ZM84.0083 10.5659C84.5003 10.5659 84.9263 10.4279 85.2863 10.1519C85.6583 9.87592 85.9463 9.43792 86.1503 8.83792C86.3663 8.23792 86.4743 7.46392 86.4743 6.51592C86.4743 5.56792 86.3663 4.79392 86.1503 4.19392C85.9463 3.59392 85.6583 3.15592 85.2863 2.87992C84.9263 2.60392 84.5003 2.46592 84.0083 2.46592C83.5283 2.46592 83.1023 2.60392 82.7303 2.87992C82.3703 3.15592 82.0823 3.59392 81.8663 4.19392C81.6623 4.79392 81.5603 5.56792 81.5603 6.51592C81.5603 7.46392 81.6623 8.23792 81.8663 8.83792C82.0823 9.43792 82.3703 9.87592 82.7303 10.1519C83.1023 10.4279 83.5283 10.5659 84.0083 10.5659ZM96.7147 12.8159V0.215917H99.1267L104.491 9.10792H103.213L108.487 0.215917H110.881L110.917 12.8159H108.181L108.163 4.40992H108.667L104.455 11.4839H103.141L98.8387 4.40992H99.4507V12.8159H96.7147ZM113.906 12.8159V0.215917H116.822V10.4399H123.14V12.8159H113.906Z" fill="#1B622D"/>
</svg>
