<svg width="328" height="75" viewBox="0 0 328 75" fill="none" xmlns="http://www.w3.org/2000/svg">
<path fill-rule="evenodd" clip-rule="evenodd" d="M6.16343 4.62109H18.8898L18.8729 14.4035L18.3722 15.4434C18.0826 16.0457 17.5311 16.8283 17.0628 17.3013C16.6083 17.7619 15.8658 18.3011 14.4823 18.9481V21.1434C14.4839 23.0675 14.5209 23.4003 14.7905 23.8393C14.9599 24.1151 15.3235 24.4401 15.5992 24.5618C15.875 24.6836 16.2909 24.8222 16.5236 24.87C16.901 24.947 16.9472 25.024 16.9472 25.5724C16.9472 26.1733 16.9349 26.1887 16.408 26.1887C16.1122 26.1887 15.5222 26.0146 15.0986 25.8035C14.6241 25.5663 14.1496 25.1673 13.8646 24.7637C13.6089 24.4032 13.3316 23.7793 13.2484 23.3772C13.1636 22.9751 13.0959 21.8828 13.0959 19.2562H12.0175L12.019 21.0664C12.0206 22.2248 11.9374 23.1677 11.7879 23.6853C11.6601 24.1305 11.3643 24.7113 11.1317 24.9778C10.8991 25.2428 10.3783 25.6248 9.97627 25.8251C9.57419 26.0254 9.00111 26.1887 8.70532 26.1887C8.17846 26.1887 8.16613 26.1733 8.16613 25.5724C8.16613 24.9639 8.17384 24.9547 8.89789 24.7898C9.29997 24.699 9.75751 24.5095 9.91465 24.3662C10.0718 24.2245 10.3121 23.901 10.4461 23.6468C10.6295 23.3032 10.7049 22.6393 10.7851 18.9481L10.0533 18.6323C9.65121 18.4598 9.04886 18.1301 8.71611 17.9006C8.38335 17.6726 7.80719 17.0687 7.43592 16.5603C7.04154 16.0211 6.63484 15.22 6.45767 14.6346C6.18808 13.738 6.15727 13.1618 6.16035 9.12717L6.16343 4.62109ZM7.42667 10.1224C7.47135 13.8551 7.48213 13.9599 7.86881 14.7887C8.08757 15.2554 8.50351 15.904 8.79313 16.2337C9.0843 16.5618 9.59884 16.9932 9.93776 17.1919C10.2767 17.3922 10.7958 17.6279 11.0932 17.7172C11.3889 17.8081 12.1176 17.879 12.7107 17.8759C13.5549 17.8713 13.9863 17.7788 14.6996 17.4461C15.2542 17.1873 15.8858 16.722 16.3202 16.2522C16.7115 15.8285 17.1644 15.1353 17.3262 14.7116C17.5896 14.0276 17.6235 13.4915 17.6358 9.89744L17.6512 5.85353C8.31095 5.85353 7.52989 5.88742 7.46057 6.07844C7.41589 6.20169 7.40049 8.02107 7.42667 10.1224ZM19.7202 4.62109H20.9526V10.6292H19.7202V4.62109ZM23.4391 4.62109H24.6499V8.08731C24.6499 11.5181 24.6453 11.5597 24.2648 12.1697C24.0522 12.5087 23.6347 12.9077 22.7951 13.3251L22.8013 26.1887H21.5688V12.0157L22.1465 12.0203C22.5425 12.0234 22.8213 11.9217 23.0324 11.6968C23.3174 11.3918 23.3435 11.1176 23.3898 7.99488L23.4391 4.62109ZM21.5688 4.62109H22.8013V10.6292H21.5688V4.62109Z" fill="black"/>
<path d="M42.9547 15.3012H48.1288V16.932H42.9547V15.3012ZM43.1178 20.9053H41.1905V10.5274H48.7663V12.1434H43.1178V20.9053ZM53.7932 21.0091C52.9827 21.0091 52.2612 20.8361 51.6287 20.4902C50.9961 20.1343 50.497 19.65 50.1313 19.0373C49.7656 18.4245 49.5827 17.7277 49.5827 16.9469C49.5827 16.1562 49.7656 15.4594 50.1313 14.8565C50.497 14.2437 50.9961 13.7643 51.6287 13.4184C52.2612 13.0725 52.9827 12.8995 53.7932 12.8995C54.6135 12.8995 55.34 13.0725 55.9725 13.4184C56.615 13.7643 57.1141 14.2387 57.4699 14.8416C57.8356 15.4446 58.0184 16.1463 58.0184 16.9469C58.0184 17.7277 57.8356 18.4245 57.4699 19.0373C57.1141 19.65 56.615 20.1343 55.9725 20.4902C55.34 20.8361 54.6135 21.0091 53.7932 21.0091ZM53.7932 19.4227C54.2478 19.4227 54.6531 19.3239 55.0089 19.1262C55.3647 18.9285 55.6414 18.6419 55.8391 18.2663C56.0467 17.8908 56.1504 17.4509 56.1504 16.9469C56.1504 16.4329 56.0467 15.9931 55.8391 15.6274C55.6414 15.2518 55.3647 14.9652 55.0089 14.7675C54.6531 14.5698 54.2528 14.471 53.808 14.471C53.3534 14.471 52.9481 14.5698 52.5923 14.7675C52.2464 14.9652 51.9696 15.2518 51.7621 15.6274C51.5545 15.9931 51.4508 16.4329 51.4508 16.9469C51.4508 17.4509 51.5545 17.8908 51.7621 18.2663C51.9696 18.6419 52.2464 18.9285 52.5923 19.1262C52.9481 19.3239 53.3484 19.4227 53.7932 19.4227ZM63.3487 21.0091C62.5382 21.0091 61.8167 20.8361 61.1841 20.4902C60.5516 20.1343 60.0525 19.65 59.6868 19.0373C59.3211 18.4245 59.1382 17.7277 59.1382 16.9469C59.1382 16.1562 59.3211 15.4594 59.6868 14.8565C60.0525 14.2437 60.5516 13.7643 61.1841 13.4184C61.8167 13.0725 62.5382 12.8995 63.3487 12.8995C64.169 12.8995 64.8955 13.0725 65.528 13.4184C66.1705 13.7643 66.6696 14.2387 67.0254 14.8416C67.3911 15.4446 67.5739 16.1463 67.5739 16.9469C67.5739 17.7277 67.3911 18.4245 67.0254 19.0373C66.6696 19.65 66.1705 20.1343 65.528 20.4902C64.8955 20.8361 64.169 21.0091 63.3487 21.0091ZM63.3487 19.4227C63.8033 19.4227 64.2085 19.3239 64.5644 19.1262C64.9202 18.9285 65.1969 18.6419 65.3946 18.2663C65.6021 17.8908 65.7059 17.4509 65.7059 16.9469C65.7059 16.4329 65.6021 15.9931 65.3946 15.6274C65.1969 15.2518 64.9202 14.9652 64.5644 14.7675C64.2085 14.5698 63.8083 14.471 63.3635 14.471C62.9088 14.471 62.5036 14.5698 62.1478 14.7675C61.8019 14.9652 61.5251 15.2518 61.3176 15.6274C61.11 15.9931 61.0062 16.4329 61.0062 16.9469C61.0062 17.4509 61.11 17.8908 61.3176 18.2663C61.5251 18.6419 61.8019 18.9285 62.1478 19.1262C62.5036 19.3239 62.9039 19.4227 63.3487 19.4227ZM72.6966 21.0091C71.9356 21.0091 71.2486 20.841 70.6359 20.505C70.033 20.1591 69.5585 19.6846 69.2126 19.0817C68.8667 18.4788 68.6937 17.7672 68.6937 16.9469C68.6937 16.1265 68.8667 15.4149 69.2126 14.812C69.5585 14.2091 70.033 13.7396 70.6359 13.4036C71.2486 13.0675 71.9356 12.8995 72.6966 12.8995C73.3588 12.8995 73.9518 13.0478 74.4757 13.3443C74.9995 13.6309 75.4146 14.0707 75.721 14.6637C76.0274 15.2568 76.1806 16.0178 76.1806 16.9469C76.1806 17.866 76.0323 18.6271 75.7358 19.23C75.4393 19.823 75.0291 20.2678 74.5053 20.5643C73.9815 20.8608 73.3786 21.0091 72.6966 21.0091ZM72.919 19.4227C73.3637 19.4227 73.7591 19.3239 74.105 19.1262C74.4608 18.9285 74.7425 18.6419 74.9501 18.2663C75.1675 17.8908 75.2762 17.4509 75.2762 16.9469C75.2762 16.4329 75.1675 15.9931 74.9501 15.6274C74.7425 15.2518 74.4608 14.9652 74.105 14.7675C73.7591 14.5698 73.3637 14.471 72.919 14.471C72.4742 14.471 72.0739 14.5698 71.7181 14.7675C71.3722 14.9652 71.0905 15.2518 70.8731 15.6274C70.6655 15.9931 70.5617 16.4329 70.5617 16.9469C70.5617 17.4509 70.6655 17.8908 70.8731 18.2663C71.0905 18.6419 71.3722 18.9285 71.7181 19.1262C72.0739 19.3239 72.4742 19.4227 72.919 19.4227ZM75.3207 20.9053V19.0373L75.3948 16.932L75.2466 14.8268V9.90476H77.0849V20.9053H75.3207ZM88.6472 21.0535C87.8367 21.0535 87.0905 20.925 86.4086 20.6681C85.7365 20.4012 85.1484 20.0306 84.6443 19.5562C84.1403 19.0719 83.7498 18.5035 83.4731 17.8512C83.1964 17.1989 83.058 16.4873 83.058 15.7164C83.058 14.9454 83.1964 14.2338 83.4731 13.5815C83.7498 12.9292 84.1403 12.3658 84.6443 11.8914C85.1583 11.4071 85.7562 11.0364 86.4382 10.7795C87.1202 10.5126 87.8664 10.3792 88.6769 10.3792C89.5565 10.3792 90.3472 10.5225 91.0489 10.8091C91.7606 11.0957 92.3585 11.5158 92.8428 12.0693L91.6271 13.2553C91.2219 12.8501 90.7821 12.5536 90.3077 12.3658C89.8431 12.1681 89.3292 12.0693 88.7658 12.0693C88.2222 12.0693 87.7181 12.1582 87.2536 12.3361C86.7891 12.514 86.3888 12.7661 86.0527 13.0922C85.7167 13.4184 85.4548 13.8039 85.267 14.2486C85.0891 14.6934 85.0001 15.1826 85.0001 15.7164C85.0001 16.2402 85.0891 16.7245 85.267 17.1693C85.4548 17.614 85.7167 18.0044 86.0527 18.3405C86.3888 18.6666 86.7841 18.9187 87.2388 19.0966C87.6934 19.2745 88.1975 19.3634 88.751 19.3634C89.2649 19.3634 89.7591 19.2844 90.2335 19.1262C90.7178 18.9582 91.1774 18.6815 91.6123 18.296L92.7094 19.7341C92.1658 20.1689 91.5332 20.5 90.8117 20.7274C90.1001 20.9448 89.3786 21.0535 88.6472 21.0535ZM90.8858 19.482V15.5977H92.7094V19.7341L90.8858 19.482ZM95.0735 20.9053V12.9885H96.8377V15.1678L96.6301 14.5303C96.8674 13.9966 97.238 13.5914 97.7421 13.3146C98.256 13.0379 98.8935 12.8995 99.6545 12.8995V14.6637C99.5755 14.644 99.5013 14.6341 99.4322 14.6341C99.363 14.6242 99.2938 14.6193 99.2246 14.6193C98.5229 14.6193 97.9644 14.8268 97.5493 15.2419C97.1342 15.6472 96.9267 16.255 96.9267 17.0655V20.9053H95.0735ZM105.54 20.9053V19.3041L105.436 18.9631V16.1611C105.436 15.6175 105.273 15.1975 104.947 14.901C104.62 14.5946 104.126 14.4414 103.464 14.4414C103.019 14.4414 102.579 14.5105 102.145 14.6489C101.72 14.7873 101.359 14.98 101.062 15.2271L100.336 13.878C100.761 13.5518 101.265 13.3097 101.848 13.1515C102.441 12.9835 103.054 12.8995 103.686 12.8995C104.833 12.8995 105.717 13.1763 106.34 13.7297C106.973 14.2733 107.289 15.1184 107.289 16.2649V20.9053H105.54ZM103.049 21.0091C102.456 21.0091 101.937 20.9102 101.492 20.7125C101.047 20.505 100.702 20.2233 100.454 19.8675C100.217 19.5018 100.099 19.0916 100.099 18.637C100.099 18.1922 100.202 17.7919 100.41 17.4361C100.627 17.0803 100.978 16.7986 101.463 16.5911C101.947 16.3835 102.589 16.2797 103.39 16.2797H105.688V17.5102H103.523C102.891 17.5102 102.466 17.614 102.248 17.8216C102.031 18.0192 101.922 18.2663 101.922 18.5628C101.922 18.8989 102.056 19.1657 102.322 19.3634C102.589 19.5611 102.96 19.6599 103.434 19.6599C103.889 19.6599 104.294 19.5562 104.65 19.3486C105.016 19.141 105.278 18.8346 105.436 18.4294L105.747 19.5413C105.569 20.0059 105.248 20.3666 104.783 20.6236C104.329 20.8806 103.751 21.0091 103.049 21.0091ZM113.032 21.0091C112.271 21.0091 111.584 20.841 110.972 20.505C110.369 20.1591 109.894 19.6846 109.548 19.0817C109.202 18.4788 109.029 17.7672 109.029 16.9469C109.029 16.1265 109.202 15.4149 109.548 14.812C109.894 14.2091 110.369 13.7396 110.972 13.4036C111.584 13.0675 112.271 12.8995 113.032 12.8995C113.695 12.8995 114.288 13.0478 114.811 13.3443C115.335 13.6309 115.75 14.0707 116.057 14.6637C116.363 15.2568 116.516 16.0178 116.516 16.9469C116.516 17.866 116.368 18.6271 116.072 19.23C115.775 19.823 115.365 20.2678 114.841 20.5643C114.317 20.8608 113.714 21.0091 113.032 21.0091ZM113.255 19.4227C113.699 19.4227 114.095 19.3239 114.441 19.1262C114.797 18.9285 115.078 18.6419 115.286 18.2663C115.503 17.8908 115.612 17.4509 115.612 16.9469C115.612 16.4329 115.503 15.9931 115.286 15.6274C115.078 15.2518 114.797 14.9652 114.441 14.7675C114.095 14.5698 113.699 14.471 113.255 14.471C112.81 14.471 112.41 14.5698 112.054 14.7675C111.708 14.9652 111.426 15.2518 111.209 15.6274C111.001 15.9931 110.897 16.4329 110.897 16.9469C110.897 17.4509 111.001 17.8908 111.209 18.2663C111.426 18.6419 111.708 18.9285 112.054 19.1262C112.41 19.3239 112.81 19.4227 113.255 19.4227ZM115.656 20.9053V19.0373L115.731 16.932L115.582 14.8268V9.90476H117.421V20.9053H115.656ZM123.581 21.0091C122.701 21.0091 121.93 20.8361 121.268 20.4902C120.616 20.1343 120.107 19.65 119.741 19.0373C119.385 18.4245 119.208 17.7277 119.208 16.9469C119.208 16.1562 119.38 15.4594 119.726 14.8565C120.082 14.2437 120.567 13.7643 121.179 13.4184C121.802 13.0725 122.509 12.8995 123.299 12.8995C124.07 12.8995 124.757 13.0675 125.36 13.4036C125.963 13.7396 126.437 14.214 126.783 14.8268C127.129 15.4396 127.302 16.1611 127.302 16.9913C127.302 17.0704 127.297 17.1594 127.287 17.2582C127.287 17.357 127.282 17.4509 127.273 17.5399H120.675V16.3094H126.294L125.568 16.6948C125.578 16.2402 125.484 15.8399 125.286 15.494C125.088 15.148 124.816 14.8762 124.471 14.6786C124.135 14.4809 123.744 14.3821 123.299 14.3821C122.845 14.3821 122.444 14.4809 122.098 14.6786C121.762 14.8762 121.496 15.153 121.298 15.5088C121.11 15.8547 121.016 16.2649 121.016 16.7393V17.0358C121.016 17.5102 121.125 17.9303 121.342 18.296C121.56 18.6617 121.866 18.9434 122.262 19.141C122.657 19.3387 123.112 19.4376 123.626 19.4376C124.07 19.4376 124.471 19.3684 124.826 19.23C125.182 19.0916 125.498 18.8742 125.775 18.5777L126.769 19.7192C126.413 20.1343 125.963 20.4556 125.419 20.6829C124.886 20.9003 124.273 21.0091 123.581 21.0091Z" fill="#203E13"/>
<path d="M184.947 7.45432C185.069 7.3795 185.269 7.29134 185.392 7.25859C185.584 7.20763 187.135 7.19914 196.897 7.19671C206.922 7.19429 208.207 7.20076 208.422 7.25616C208.556 7.29013 208.765 7.3795 208.887 7.45472C209.01 7.52954 209.177 7.67027 209.259 7.76692C209.34 7.86357 210.03 9.04321 210.791 10.3891C211.552 11.7345 212.209 12.9404 212.25 13.0682C212.313 13.2652 212.325 13.433 212.324 14.1601C212.324 14.793 212.307 15.0886 212.261 15.2823C212.227 15.4267 212.141 15.6544 212.071 15.7878C212 15.9213 211.833 16.1417 211.699 16.2771C211.557 16.4219 211.351 16.5768 211.203 16.6512C211.064 16.7212 210.845 16.8061 210.717 16.8397C210.59 16.8728 210.421 16.9003 210.202 16.8999L209.843 18.8107C209.646 19.8617 209.433 20.8853 209.37 21.0855C209.306 21.2856 209.158 21.612 209.041 21.811C208.898 22.052 208.711 22.2879 208.48 22.5187C208.261 22.737 208.008 22.9392 207.794 23.067C207.607 23.1782 207.308 23.3202 207.13 23.3825C206.951 23.4447 206.65 23.5224 206.461 23.5547C206.167 23.6053 204.799 23.6138 196.917 23.6138C189.035 23.6138 187.668 23.6053 187.373 23.5547C187.184 23.5224 186.884 23.4447 186.705 23.3825C186.526 23.3202 186.227 23.1782 186.041 23.067C185.827 22.9392 185.573 22.737 185.355 22.5187C185.123 22.2879 184.936 22.052 184.794 21.811C184.676 21.612 184.528 21.2856 184.465 21.0855C184.401 20.8853 184.188 19.8617 183.633 16.8995L183.491 16.8999C183.413 16.9003 183.24 16.8716 183.107 16.8368C182.973 16.802 182.755 16.7155 182.623 16.6447C182.49 16.5736 182.279 16.4154 182.155 16.2933C182.03 16.1712 181.88 15.9892 181.821 15.8889C181.763 15.7886 181.675 15.5977 181.626 15.4643C181.545 15.2455 181.535 15.1282 181.52 14.2713C181.505 13.4184 181.512 13.2959 181.582 13.0783C181.625 12.9404 182.256 11.7794 183.043 10.3891C183.804 9.04321 184.494 7.86357 184.576 7.76692C184.658 7.67027 184.824 7.52954 184.947 7.45432Z" fill="black"/>
<path d="M185.206 8.29905C185.299 8.19552 185.436 8.09523 185.529 8.06248C185.666 8.01435 187.39 8.00586 196.913 8.00586C206.424 8.00586 208.16 8.01435 208.297 8.06248C208.389 8.09442 208.526 8.19391 208.615 8.29298C208.701 8.38883 209.382 9.54986 210.128 10.8735C211.12 12.6322 211.49 13.3233 211.503 13.4414C211.513 13.5304 211.5 13.6804 211.476 13.775C211.452 13.8697 211.372 14.0136 211.3 14.0949C211.227 14.1766 211.096 14.2761 211.007 14.3165C210.851 14.3869 210.286 14.3901 196.913 14.3901C183.541 14.3901 182.975 14.3869 182.82 14.3165C182.731 14.2761 182.599 14.1766 182.527 14.0949C182.454 14.0136 182.375 13.8697 182.351 13.775C182.326 13.6804 182.317 13.5259 182.331 13.4313C182.348 13.3092 182.644 12.7479 183.353 11.4902C183.902 10.5172 184.507 9.44148 184.698 9.09976C184.888 8.75845 185.117 8.39813 185.206 8.29905Z" stroke="#F0E1DA" stroke-width="1.28378"/>
<path d="M182.449 15.3421C182.398 15.2309 182.356 15.1075 182.358 15.0675C182.359 15.0056 182.372 15.0024 182.448 15.0441C182.497 15.0707 182.628 15.1164 182.739 15.146C182.905 15.19 185.437 15.1997 196.913 15.1997C208.389 15.1997 210.921 15.19 211.088 15.146C211.199 15.1164 211.331 15.0711 211.381 15.0453C211.458 15.0052 211.472 15.0089 211.471 15.0691C211.471 15.1079 211.426 15.2353 211.37 15.3522C211.315 15.4691 211.2 15.6329 211.115 15.7162C211.03 15.7995 210.871 15.9131 210.562 16.07H183.265L183.052 15.9588C182.936 15.8977 182.773 15.7793 182.691 15.6959C182.609 15.6126 182.5 15.4533 182.449 15.3421Z" stroke="#F0E1DA" stroke-width="1.28378"/>
<path d="M184.821 18.8402C184.643 17.8947 184.487 17.0713 184.474 17.0103L184.45 16.899H209.369L209.349 17.0103L209.004 18.8604C208.825 19.8168 208.65 20.6903 208.615 20.8015C208.579 20.9127 208.485 21.1311 208.405 21.2868C208.302 21.487 208.152 21.6774 207.894 21.9371C207.596 22.2367 207.465 22.3354 207.185 22.4729C206.996 22.5655 206.723 22.6731 206.578 22.7119C206.331 22.7786 205.751 22.7831 196.913 22.7831C188.075 22.7831 187.495 22.7786 187.248 22.7119C187.104 22.6731 186.831 22.5655 186.642 22.4729C186.361 22.3354 186.23 22.2367 185.933 21.9371C185.676 21.6795 185.524 21.4854 185.421 21.2868C185.34 21.1311 185.245 20.9034 185.209 20.7813C185.173 20.6592 184.998 19.7853 184.821 18.8402Z" stroke="#F0E1DA" stroke-width="1.28378"/>
<path d="M185.775 8.69703C185.866 8.64688 186.046 8.62383 186.483 8.60644C186.806 8.5935 191.737 8.5846 207.815 8.58905L207.997 8.67478C208.097 8.7221 208.236 8.82239 208.305 8.8972C208.374 8.97242 208.846 9.77111 209.353 10.6717C209.86 11.5723 210.308 12.3823 210.349 12.4713C210.389 12.5603 210.422 12.7241 210.422 12.8353C210.422 12.9521 210.387 13.1143 210.339 13.2194C210.294 13.3197 210.208 13.4532 210.148 13.5163C210.088 13.5794 209.966 13.6703 209.716 13.8058H184.117L183.955 13.7185C183.866 13.6703 183.745 13.5794 183.685 13.5163C183.625 13.4532 183.539 13.3197 183.493 13.2194C183.447 13.1159 183.411 12.9505 183.41 12.8353C183.41 12.6945 183.445 12.5595 183.525 12.3904C183.589 12.257 183.828 11.8202 184.056 11.4199C184.283 11.0195 184.679 10.3187 184.936 9.86291C185.192 9.40675 185.458 8.97323 185.528 8.89882C185.597 8.82482 185.708 8.73383 185.775 8.69703Z" fill="black"/>
<path d="M193.398 20.4182C193.854 20.3943 194.346 20.3697 194.49 20.3636C194.634 20.3575 195.554 20.349 196.532 20.3446C197.511 20.3405 198.739 20.3555 199.262 20.3781C199.784 20.4012 200.603 20.4469 201.082 20.4801C201.56 20.5136 202.342 20.5771 202.821 20.6212C203.299 20.6657 204.081 20.7482 204.56 20.8048C205.038 20.8614 205.675 20.9435 205.975 20.9876C206.275 21.0317 206.562 21.0943 206.612 21.1271C206.662 21.1595 206.721 21.25 206.743 21.3277C206.774 21.4357 206.769 21.5028 206.723 21.6108C206.69 21.6884 206.622 21.7733 206.571 21.7988C206.521 21.8243 206.417 21.8441 206.339 21.8429C206.261 21.8417 205.788 21.7851 205.287 21.7175C204.787 21.6496 203.932 21.5481 203.387 21.4919C202.842 21.4357 202.032 21.3621 201.587 21.3281C201.142 21.2945 200.478 21.2476 200.111 21.2246C199.744 21.2011 198.534 21.1716 197.422 21.1582C196.103 21.1425 195.034 21.151 194.348 21.1825C193.77 21.2088 192.915 21.2573 192.448 21.2901C191.981 21.3224 191.326 21.3766 190.992 21.4098C190.658 21.4433 190.14 21.4987 189.839 21.5335C189.539 21.5683 188.911 21.652 188.444 21.72C187.977 21.7875 187.54 21.8433 187.474 21.8437C187.407 21.8437 187.311 21.8235 187.261 21.798C187.211 21.7729 187.143 21.6884 187.11 21.6108C187.064 21.5028 187.059 21.4357 187.089 21.3277C187.112 21.25 187.171 21.159 187.221 21.1259C187.272 21.0923 187.666 21.0135 188.121 20.9463C188.565 20.8804 189.321 20.7801 189.799 20.7239C190.277 20.6673 191.096 20.5852 191.619 20.5415C192.142 20.4974 192.942 20.442 193.398 20.4182Z" fill="black"/>
<path d="M184.544 12.2093C184.724 11.8866 185.153 11.1271 185.497 10.5209L186.122 9.41895L207.721 9.43917L208.648 11.077C209.158 11.9776 209.586 12.7601 209.599 12.8159C209.617 12.8883 209.602 12.9316 209.548 12.9684C209.487 13.0092 206.986 13.0193 196.925 13.0189C188.643 13.0185 184.351 13.0044 184.298 12.9777C184.253 12.9554 184.217 12.9053 184.217 12.8665C184.217 12.8276 184.364 12.532 184.544 12.2093Z" fill="#F0E1DA"/>
<path d="M225.273 20.9053V10.5274H229.542C230.461 10.5274 231.247 10.6757 231.899 10.9722C232.562 11.2687 233.071 11.6937 233.427 12.2472C233.782 12.8007 233.96 13.4579 233.96 14.219C233.96 14.98 233.782 15.6373 233.427 16.1908C233.071 16.7443 232.562 17.1693 231.899 17.4658C231.247 17.7623 230.461 17.9105 229.542 17.9105H226.34L227.2 17.0062V20.9053H225.273ZM227.2 17.2137L226.34 16.2797H229.453C230.303 16.2797 230.941 16.1018 231.366 15.746C231.801 15.3803 232.018 14.8713 232.018 14.219C232.018 13.5568 231.801 13.0478 231.366 12.692C230.941 12.3361 230.303 12.1582 229.453 12.1582H226.34L227.2 11.2094V17.2137ZM235.635 20.9053V12.9885H237.399V15.1678L237.191 14.5303C237.428 13.9966 237.799 13.5914 238.303 13.3146C238.817 13.0379 239.455 12.8995 240.216 12.8995V14.6637C240.137 14.644 240.062 14.6341 239.993 14.6341C239.924 14.6242 239.855 14.6193 239.786 14.6193C239.084 14.6193 238.526 14.8268 238.11 15.2419C237.695 15.6472 237.488 16.255 237.488 17.0655V20.9053H235.635ZM245.437 21.0091C244.557 21.0091 243.786 20.8361 243.124 20.4902C242.471 20.1343 241.962 19.65 241.597 19.0373C241.241 18.4245 241.063 17.7277 241.063 16.9469C241.063 16.1562 241.236 15.4594 241.582 14.8565C241.938 14.2437 242.422 13.7643 243.035 13.4184C243.657 13.0725 244.364 12.8995 245.155 12.8995C245.926 12.8995 246.613 13.0675 247.216 13.4036C247.819 13.7396 248.293 14.214 248.639 14.8268C248.985 15.4396 249.158 16.1611 249.158 16.9913C249.158 17.0704 249.153 17.1594 249.143 17.2582C249.143 17.357 249.138 17.4509 249.128 17.5399H242.531V16.3094H248.15L247.423 16.6948C247.433 16.2402 247.339 15.8399 247.141 15.494C246.944 15.148 246.672 14.8762 246.326 14.6786C245.99 14.4809 245.6 14.3821 245.155 14.3821C244.7 14.3821 244.3 14.4809 243.954 14.6786C243.618 14.8762 243.351 15.153 243.153 15.5088C242.966 15.8547 242.872 16.2649 242.872 16.7393V17.0358C242.872 17.5102 242.98 17.9303 243.198 18.296C243.415 18.6617 243.722 18.9434 244.117 19.141C244.512 19.3387 244.967 19.4376 245.481 19.4376C245.926 19.4376 246.326 19.3684 246.682 19.23C247.038 19.0916 247.354 18.8742 247.631 18.5777L248.624 19.7192C248.268 20.1343 247.819 20.4556 247.275 20.6829C246.741 20.9003 246.128 21.0091 245.437 21.0091ZM260.93 12.8995C261.563 12.8995 262.121 13.0231 262.606 13.2701C263.1 13.5172 263.485 13.8978 263.762 14.4117C264.039 14.9158 264.177 15.5681 264.177 16.3687V20.9053H262.324V16.6059C262.324 15.9041 262.171 15.3803 261.864 15.0344C261.558 14.6885 261.118 14.5155 260.545 14.5155C260.14 14.5155 259.779 14.6044 259.463 14.7823C259.156 14.9603 258.914 15.2222 258.736 15.5681C258.568 15.914 258.484 16.3538 258.484 16.8876V20.9053H256.631V16.6059C256.631 15.9041 256.478 15.3803 256.171 15.0344C255.865 14.6885 255.425 14.5155 254.852 14.5155C254.447 14.5155 254.086 14.6044 253.77 14.7823C253.463 14.9603 253.221 15.2222 253.043 15.5681C252.875 15.914 252.791 16.3538 252.791 16.8876V20.9053H250.938V12.9885H252.702V15.0937L252.391 14.471C252.658 13.9571 253.043 13.5667 253.547 13.2998C254.061 13.0329 254.644 12.8995 255.297 12.8995C256.038 12.8995 256.68 13.0824 257.224 13.4481C257.777 13.8137 258.143 14.3672 258.321 15.1085L257.594 14.8565C257.851 14.2635 258.276 13.789 258.869 13.4332C259.463 13.0774 260.149 12.8995 260.93 12.8995ZM266.545 20.9053V12.9885H268.398V20.9053H266.545ZM267.479 11.6838C267.133 11.6838 266.847 11.5751 266.619 11.3577C266.402 11.1402 266.293 10.8783 266.293 10.5719C266.293 10.2556 266.402 9.99371 266.619 9.78616C266.847 9.56872 267.133 9.46 267.479 9.46C267.825 9.46 268.107 9.56378 268.324 9.77133C268.552 9.96901 268.665 10.221 268.665 10.5274C268.665 10.8536 268.556 11.1303 268.339 11.3577C268.122 11.5751 267.835 11.6838 267.479 11.6838ZM274.181 21.0091C273.509 21.0091 272.916 20.8855 272.402 20.6384C271.888 20.3814 271.488 19.996 271.201 19.482C270.915 18.9582 270.771 18.3009 270.771 17.5102V12.9885H272.625V17.2582C272.625 17.9698 272.783 18.5035 273.099 18.8594C273.425 19.2053 273.885 19.3782 274.478 19.3782C274.913 19.3782 275.288 19.2893 275.604 19.1114C275.931 18.9335 276.183 18.6666 276.361 18.3108C276.548 17.955 276.642 17.5152 276.642 16.9913V12.9885H278.495V20.9053H276.731V18.7704L277.043 19.4227C276.776 19.9367 276.385 20.332 275.871 20.6088C275.357 20.8756 274.794 21.0091 274.181 21.0091ZM290.914 12.8995C291.547 12.8995 292.105 13.0231 292.589 13.2701C293.084 13.5172 293.469 13.8978 293.746 14.4117C294.023 14.9158 294.161 15.5681 294.161 16.3687V20.9053H292.308V16.6059C292.308 15.9041 292.155 15.3803 291.848 15.0344C291.542 14.6885 291.102 14.5155 290.529 14.5155C290.124 14.5155 289.763 14.6044 289.446 14.7823C289.14 14.9603 288.898 15.2222 288.72 15.5681C288.552 15.914 288.468 16.3538 288.468 16.8876V20.9053H286.615V16.6059C286.615 15.9041 286.462 15.3803 286.155 15.0344C285.849 14.6885 285.409 14.5155 284.836 14.5155C284.431 14.5155 284.07 14.6044 283.753 14.7823C283.447 14.9603 283.205 15.2222 283.027 15.5681C282.859 15.914 282.775 16.3538 282.775 16.8876V20.9053H280.922V12.9885H282.686V15.0937L282.375 14.471C282.642 13.9571 283.027 13.5667 283.531 13.2998C284.045 13.0329 284.628 12.8995 285.281 12.8995C286.022 12.8995 286.664 13.0824 287.208 13.4481C287.761 13.8137 288.127 14.3672 288.305 15.1085L287.578 14.8565C287.835 14.2635 288.26 13.789 288.853 13.4332C289.446 13.0774 290.133 12.8995 290.914 12.8995ZM300.804 20.9053V10.5274H302.732V20.9053H300.804ZM305.539 20.9053V10.5274H307.125L311.662 18.1033H310.831L315.294 10.5274H316.88L316.895 20.9053H315.071L315.057 13.3888H315.442L311.647 19.7192H310.787L306.932 13.3888H307.377V20.9053H305.539ZM319.698 20.9053V10.5274H321.625V19.2745H327.052V20.9053H319.698Z" fill="#203E13"/>
<path d="M9.33522 54.1224C9.9703 53.4905 10.8632 52.6632 11.3196 52.2836C12.0148 51.707 12.1951 51.5947 12.4268 51.5947C12.6585 51.5947 12.8381 51.707 13.5333 52.2868C13.9904 52.6672 14.7702 53.3695 15.2669 53.848C15.7636 54.3265 16.4928 55.0952 16.8882 55.5563C17.2837 56.0174 17.8587 56.7474 18.1663 57.1776C18.4732 57.6087 18.8805 58.2271 19.0703 58.5538C19.2609 58.8796 19.5646 59.4673 19.7465 59.8587C19.9276 60.2502 20.1696 60.8553 20.2827 61.2033C20.3958 61.5513 20.5279 62.0139 20.5754 62.2314C20.6228 62.4489 20.6908 62.9472 20.7272 63.3387C20.7636 63.7302 20.762 64.389 20.724 64.8018C20.6869 65.2147 20.5627 65.8735 20.4496 66.265C20.3365 66.6565 20.1601 67.1547 20.0573 67.3722C19.9545 67.5897 19.6967 68.0342 19.4839 68.3608C19.2712 68.6875 18.833 69.2166 18.5103 69.5369C18.1877 69.858 17.6388 70.3048 17.2908 70.531C16.9428 70.758 16.4089 71.0538 16.1045 71.1898C15.8 71.3259 15.2487 71.5244 14.8786 71.6312C14.5084 71.7371 13.8504 71.8676 13.4154 71.9206C12.9622 71.9752 12.3374 71.9942 11.9523 71.9649C11.5821 71.9372 11.0665 71.8763 10.8055 71.8305C10.5445 71.7846 10.0462 71.6581 9.69823 71.5489C9.35024 71.4398 8.7808 71.208 8.43281 71.034C8.08482 70.8593 7.58656 70.5658 7.32556 70.3816C7.06457 70.1965 6.6185 69.8176 6.33378 69.5393C6.04906 69.2609 5.62514 68.7484 5.39104 68.4004C5.15694 68.0524 4.86747 67.5359 4.74726 67.2536C4.62783 66.9712 4.45621 66.473 4.36605 66.1463C4.27588 65.8205 4.16911 65.1973 4.12799 64.7623C4.08291 64.2735 4.08212 63.7072 4.12799 63.2794C4.16832 62.8989 4.23792 62.4181 4.283 62.2117C4.32808 62.0052 4.457 61.5513 4.5693 61.2033C4.6824 60.8553 4.97741 60.1435 5.22654 59.6215C5.47488 59.0995 5.97709 58.2279 6.34169 57.6838C6.70708 57.1405 7.2702 56.3749 7.59367 55.9834C7.91715 55.5919 8.70092 54.7543 9.33522 54.1224Z" fill="black"/>
<path d="M0.00032637 66.923C-0.00441898 66.6952 0.0414527 66.5971 0.212285 66.4682C0.33171 66.3781 0.512824 66.3045 0.614849 66.3045C0.716874 66.3045 1.45873 66.6778 2.26386 67.1349C3.06898 67.5913 3.7626 68.0366 3.80609 68.1236C3.84959 68.2106 3.88677 68.3616 3.88756 68.4597C3.88914 68.5578 3.81796 68.7357 3.72938 68.8551C3.61154 69.0149 3.50081 69.0726 3.31179 69.0718C3.13384 69.071 2.64269 68.8377 1.71023 68.3094C0.97075 67.8902 0.285047 67.4719 0.185395 67.3801C0.0643886 67.2686 0.00428083 67.1191 0.00032637 66.923Z" fill="black"/>
<path d="M21.0657 68.1038C21.1211 68.0271 21.8068 67.5921 22.5898 67.1357C23.4487 66.6359 24.0996 66.3069 24.2309 66.3061C24.359 66.3053 24.5298 66.386 24.6461 66.5022C24.7742 66.6304 24.8446 66.7909 24.8462 66.957C24.8478 67.1049 24.7892 67.2686 24.7078 67.3437C24.6303 67.4149 24.1755 67.7028 23.697 67.9844C23.2185 68.2651 22.5953 68.6242 22.3129 68.7824C22.0306 68.9398 21.6921 69.0687 21.5616 69.0695C21.4224 69.0695 21.25 68.9967 21.144 68.8931C21.0357 68.7863 20.9645 68.6226 20.9653 68.4795C20.9653 68.349 21.0111 68.1797 21.0657 68.1038Z" fill="black"/>
<path d="M0.160086 70.2692C0.155341 70.1886 0.228894 70.028 0.32301 69.9133C0.442435 69.7694 0.57135 69.7046 0.746928 69.7038C0.885334 69.703 1.94196 69.9537 3.09429 70.2598C4.80894 70.7161 5.22258 70.8537 5.36811 71.0127C5.46618 71.1202 5.54606 71.2966 5.54606 71.4058C5.54606 71.5141 5.51521 71.666 5.47725 71.7419C5.43929 71.8178 5.30642 71.927 5.18066 71.9847C4.97345 72.0796 4.77177 72.0416 2.97566 71.5663C1.88818 71.2792 0.856071 70.9937 0.682075 70.932C0.49147 70.864 0.326174 70.739 0.266857 70.618C0.212285 70.5073 0.164041 70.3507 0.160086 70.2692Z" fill="black"/>
<path d="M19.4855 71.0127C19.6302 70.8537 20.0431 70.7145 21.6802 70.2708C22.7891 69.9695 23.8307 69.7196 23.9936 69.7148C24.2127 69.7077 24.3424 69.7575 24.4879 69.9031C24.597 70.0114 24.6856 70.172 24.6856 70.259C24.6856 70.346 24.6318 70.5239 24.567 70.6544C24.5021 70.7849 24.4302 70.8917 24.4088 70.8917C24.3875 70.8917 23.364 71.1606 22.135 71.4888C20.1079 72.0306 19.8794 72.0764 19.673 71.9831C19.5472 71.927 19.4143 71.8178 19.3764 71.7419C19.3384 71.666 19.3076 71.5141 19.3076 71.4058C19.3076 71.2966 19.3874 71.1202 19.4855 71.0127Z" fill="black"/>
<path d="M9.59162 55.6726C10.0432 55.1972 10.8389 54.423 11.3608 53.9532C11.8828 53.4826 12.3637 53.099 12.4285 53.1006C12.4934 53.1022 12.8849 53.3995 13.2985 53.7626C13.7122 54.1248 14.4596 54.8453 14.9594 55.3633C15.4592 55.8814 16.0856 56.5702 16.3514 56.8953C16.6163 57.2203 17.0988 57.8776 17.4238 58.3561C17.7481 58.8346 18.1965 59.5993 18.4203 60.0565C18.6442 60.5136 18.9313 61.2072 19.0594 61.5987C19.1867 61.9902 19.3362 62.5952 19.3916 62.9432C19.454 63.3387 19.4746 63.9026 19.4461 64.4459C19.4184 64.9671 19.3322 65.5532 19.231 65.9091C19.1377 66.2357 18.9194 66.7696 18.7462 67.0954C18.5722 67.422 18.2448 67.9203 18.017 68.2027C17.79 68.485 17.3558 68.9042 17.0529 69.1327C16.75 69.3613 16.2351 69.688 15.9085 69.8588C15.5826 70.0288 14.995 70.2669 14.6035 70.3871C13.9415 70.5912 13.792 70.6062 12.4681 70.6101C11.2114 70.6141 10.9701 70.5935 10.4118 70.433C10.0638 70.3333 9.45875 70.0945 9.06726 69.9031C8.67577 69.7109 8.1079 69.3661 7.80578 69.1351C7.50287 68.905 7.04495 68.4502 6.78712 68.1236C6.52929 67.7977 6.19869 67.29 6.05159 66.9966C5.90527 66.7031 5.71071 66.2049 5.62055 65.8893C5.51853 65.535 5.43865 64.9679 5.41176 64.4064C5.38566 63.8575 5.40543 63.277 5.46158 62.9432C5.51299 62.6387 5.64032 62.1049 5.74472 61.7569C5.84912 61.4089 6.08164 60.8039 6.26117 60.4124C6.44071 60.0209 6.77051 59.3985 6.99433 59.0283C7.21815 58.659 7.7093 57.9472 8.08655 57.4465C8.46381 56.9467 9.14081 56.1479 9.59162 55.6726Z" fill="#F0E1DA"/>
<path d="M7.06366 63.5316C7.11586 63.4422 7.23133 63.3378 7.3207 63.2999C7.40928 63.2611 7.49944 63.2271 7.52158 63.224C7.54294 63.22 7.6679 63.2524 7.79839 63.2951C7.94234 63.3418 8.07125 63.4596 8.12503 63.5933C8.17486 63.7143 8.24841 64.0805 8.28875 64.4063C8.3362 64.7876 8.45563 65.1972 8.6225 65.5531C8.77594 65.879 9.05433 66.2855 9.29951 66.5417C9.52886 66.7814 9.92589 67.0883 10.1813 67.2243C10.4368 67.3603 10.8236 67.5288 11.041 67.5984C11.2585 67.668 11.7386 67.7589 12.1088 67.8001C12.6687 67.8617 12.8047 67.9052 12.9226 68.0587C13.0009 68.1591 13.0641 68.3315 13.0641 68.4399C13.0634 68.549 12.9906 68.7357 12.902 68.8551C12.7525 69.0576 12.7011 69.0726 12.1681 69.0734C11.8383 69.0734 11.3258 69.0038 10.962 68.9081C10.614 68.8171 10.1157 68.636 9.85471 68.5055C9.59372 68.375 9.2046 68.1378 8.99106 67.9788C8.77673 67.819 8.40896 67.475 8.17407 67.214C7.93917 66.953 7.62677 66.4903 7.47967 66.1858C7.33256 65.8814 7.15856 65.4005 7.09134 65.1181C7.0249 64.8358 6.96954 64.3992 6.96875 64.1493C6.96875 63.8994 7.01067 63.621 7.06366 63.5316Z" fill="black"/>
<path d="M35.2256 67.3105V56.9327H37.1529V65.6797H42.5791V67.3105H35.2256ZM47.5716 67.4143C46.6919 67.4143 45.921 67.2414 45.2588 66.8954C44.6065 66.5396 44.0974 66.0553 43.7318 65.4425C43.3759 64.8297 43.198 64.133 43.198 63.3521C43.198 62.5614 43.371 61.8647 43.7169 61.2617C44.0727 60.649 44.557 60.1696 45.1698 59.8237C45.7925 59.4777 46.4992 59.3048 47.2899 59.3048C48.0608 59.3048 48.7477 59.4728 49.3506 59.8088C49.9535 60.1449 50.4279 60.6193 50.7739 61.2321C51.1198 61.8449 51.2927 62.5664 51.2927 63.3966C51.2927 63.4757 51.2878 63.5646 51.2779 63.6635C51.2779 63.7623 51.273 63.8562 51.2631 63.9452H44.6658V62.7146H50.2846L49.5582 63.1001C49.5681 62.6455 49.4742 62.2452 49.2765 61.8992C49.0788 61.5533 48.807 61.2815 48.4611 61.0838C48.125 60.8862 47.7346 60.7873 47.2899 60.7873C46.8352 60.7873 46.4349 60.8862 46.089 61.0838C45.753 61.2815 45.4861 61.5583 45.2884 61.9141C45.1006 62.26 45.0067 62.6702 45.0067 63.1446V63.4411C45.0067 63.9155 45.1155 64.3356 45.3329 64.7013C45.5503 65.067 45.8567 65.3486 46.2521 65.5463C46.6474 65.744 47.1021 65.8428 47.616 65.8428C48.0608 65.8428 48.4611 65.7736 48.8169 65.6353C49.1727 65.4969 49.489 65.2795 49.7657 64.9829L50.759 66.1245C50.4032 66.5396 49.9535 66.8608 49.4099 67.0882C48.8762 67.3056 48.2634 67.4143 47.5716 67.4143ZM57.7333 67.3105V65.7094L57.6295 65.3684V62.5664C57.6295 62.0228 57.4664 61.6027 57.1402 61.3062C56.8141 60.9998 56.3199 60.8466 55.6577 60.8466C55.2129 60.8466 54.7731 60.9158 54.3382 61.0542C53.9132 61.1926 53.5525 61.3853 53.256 61.6324L52.5295 60.2833C52.9545 59.9571 53.4586 59.715 54.0417 59.5568C54.6347 59.3888 55.2475 59.3048 55.8801 59.3048C57.0266 59.3048 57.9112 59.5815 58.5338 60.135C59.1664 60.6786 59.4827 61.5237 59.4827 62.6702V67.3105H57.7333ZM55.2426 67.4143C54.6496 67.4143 54.1307 67.3155 53.6859 67.1178C53.2411 66.9103 52.8952 66.6286 52.6481 66.2728C52.4109 65.9071 52.2923 65.4969 52.2923 65.0422C52.2923 64.5975 52.3961 64.1972 52.6036 63.8414C52.8211 63.4856 53.172 63.2039 53.6563 62.9963C54.1406 62.7888 54.783 62.685 55.5836 62.685H57.8815V63.9155H55.717C55.0844 63.9155 54.6594 64.0193 54.442 64.2268C54.2246 64.4245 54.1158 64.6716 54.1158 64.9681C54.1158 65.3042 54.2493 65.571 54.5161 65.7687C54.783 65.9664 55.1536 66.0652 55.628 66.0652C56.0827 66.0652 56.4879 65.9614 56.8437 65.7539C57.2094 65.5463 57.4713 65.2399 57.6295 64.8347L57.9408 65.9466C57.7629 66.4111 57.4417 66.7719 56.9772 67.0289C56.5225 67.2858 55.9443 67.4143 55.2426 67.4143ZM63.3732 65.5463L63.4177 63.2187L67.554 59.3937H69.7778L66.2642 62.9222L65.2857 63.7376L63.3732 65.5463ZM61.861 67.3105V56.31H63.7142V67.3105H61.861ZM67.8357 67.3105L64.9447 63.7376L66.1159 62.2551L70.0892 67.3105H67.8357ZM75.5614 67.3105V56.9327H79.8311C80.7503 56.9327 81.536 57.081 82.1884 57.3775C82.8506 57.674 83.3596 58.099 83.7154 58.6525C84.0712 59.2059 84.2491 59.8632 84.2491 60.6243C84.2491 61.3853 84.0712 62.0426 83.7154 62.596C83.3596 63.1495 82.8506 63.5745 82.1884 63.871C81.536 64.1675 80.7503 64.3158 79.8311 64.3158H76.6288L77.4887 63.4114V67.3105H75.5614ZM77.4887 63.619L76.6288 62.685H79.7422C80.5922 62.685 81.2297 62.5071 81.6547 62.1513C82.0895 61.7856 82.307 61.2766 82.307 60.6243C82.307 59.962 82.0895 59.453 81.6547 59.0972C81.2297 58.7414 80.5922 58.5635 79.7422 58.5635H76.6288L77.4887 57.6147V63.619ZM85.9235 67.3105V59.3937H87.6877V61.5731L87.4801 60.9356C87.7173 60.4019 88.088 59.9966 88.5921 59.7199C89.106 59.4432 89.7435 59.3048 90.5045 59.3048V61.069C90.4255 61.0492 90.3513 61.0394 90.2822 61.0394C90.213 61.0295 90.1438 61.0245 90.0746 61.0245C89.3729 61.0245 88.8144 61.2321 88.3993 61.6472C87.9842 62.0524 87.7767 62.6603 87.7767 63.4707V67.3105H85.9235ZM95.5624 67.4143C94.7519 67.4143 94.0304 67.2414 93.3978 66.8954C92.7653 66.5396 92.2662 66.0553 91.9005 65.4425C91.5348 64.8297 91.3519 64.133 91.3519 63.3521C91.3519 62.5614 91.5348 61.8647 91.9005 61.2617C92.2662 60.649 92.7653 60.1696 93.3978 59.8237C94.0304 59.4777 94.7519 59.3048 95.5624 59.3048C96.3827 59.3048 97.1091 59.4777 97.7417 59.8237C98.3841 60.1696 98.8833 60.644 99.2391 61.2469C99.6048 61.8498 99.7876 62.5516 99.7876 63.3521C99.7876 64.133 99.6048 64.8297 99.2391 65.4425C98.8833 66.0553 98.3841 66.5396 97.7417 66.8954C97.1091 67.2414 96.3827 67.4143 95.5624 67.4143ZM95.5624 65.828C96.017 65.828 96.4222 65.7292 96.778 65.5315C97.1339 65.3338 97.4106 65.0472 97.6083 64.6716C97.8158 64.296 97.9196 63.8562 97.9196 63.3521C97.9196 62.8382 97.8158 62.3984 97.6083 62.0327C97.4106 61.6571 97.1339 61.3705 96.778 61.1728C96.4222 60.9751 96.0219 60.8763 95.5772 60.8763C95.1225 60.8763 94.7173 60.9751 94.3615 61.1728C94.0156 61.3705 93.7388 61.6571 93.5313 62.0327C93.3237 62.3984 93.2199 62.8382 93.2199 63.3521C93.2199 63.8562 93.3237 64.296 93.5313 64.6716C93.7388 65.0472 94.0156 65.3338 94.3615 65.5315C94.7173 65.7292 95.1176 65.828 95.5624 65.828ZM105.118 67.4143C104.307 67.4143 103.586 67.2414 102.953 66.8954C102.321 66.5396 101.822 66.0553 101.456 65.4425C101.09 64.8297 100.907 64.133 100.907 63.3521C100.907 62.5614 101.09 61.8647 101.456 61.2617C101.822 60.649 102.321 60.1696 102.953 59.8237C103.586 59.4777 104.307 59.3048 105.118 59.3048C105.938 59.3048 106.665 59.4777 107.297 59.8237C107.94 60.1696 108.439 60.644 108.795 61.2469C109.16 61.8498 109.343 62.5516 109.343 63.3521C109.343 64.133 109.16 64.8297 108.795 65.4425C108.439 66.0553 107.94 66.5396 107.297 66.8954C106.665 67.2414 105.938 67.4143 105.118 67.4143ZM105.118 65.828C105.572 65.828 105.978 65.7292 106.334 65.5315C106.689 65.3338 106.966 65.0472 107.164 64.6716C107.371 64.296 107.475 63.8562 107.475 63.3521C107.475 62.8382 107.371 62.3984 107.164 62.0327C106.966 61.6571 106.689 61.3705 106.334 61.1728C105.978 60.9751 105.577 60.8763 105.133 60.8763C104.678 60.8763 104.273 60.9751 103.917 61.1728C103.571 61.3705 103.294 61.6571 103.087 62.0327C102.879 62.3984 102.775 62.8382 102.775 63.3521C102.775 63.8562 102.879 64.296 103.087 64.6716C103.294 65.0472 103.571 65.3338 103.917 65.5315C104.273 65.7292 104.673 65.828 105.118 65.828ZM111.367 67.3105V58.949C111.367 58.1187 111.609 57.4565 112.094 56.9624C112.588 56.4583 113.29 56.2063 114.199 56.2063C114.525 56.2063 114.831 56.2408 115.118 56.31C115.415 56.3792 115.662 56.4879 115.859 56.6362L115.355 58.0298C115.217 57.9211 115.059 57.842 114.881 57.7926C114.703 57.7333 114.52 57.7036 114.332 57.7036C113.947 57.7036 113.655 57.8124 113.458 58.0298C113.26 58.2373 113.161 58.5536 113.161 58.9786V59.8682L113.22 60.6984V67.3105H111.367ZM110.063 60.9356V59.453H115.34V60.9356H110.063Z" fill="#203E13"/>
<g clip-path="url(#clip0_1928_2)">
<path d="M210.083 66.8927L208.394 63.854L206.974 64.6421L208.662 67.6825C208.792 67.9129 208.858 68.1734 208.855 68.4378C208.852 68.7021 208.779 68.9609 208.644 69.188C208.367 69.656 207.879 69.9355 207.335 69.9355H201.407L203.503 67.8312L202.357 66.6855L198.295 70.748L202.357 74.8105L203.503 73.6649L201.407 71.5605H207.336C207.884 71.5635 208.423 71.4218 208.898 71.1499C209.373 70.878 209.768 70.4854 210.044 70.0119C210.324 69.5413 210.475 69.005 210.482 68.4572C210.489 67.9093 210.351 67.3702 210.083 66.8927ZM190.879 69.9355C190.615 69.9371 190.354 69.8688 190.125 69.7375C189.895 69.6063 189.704 69.4167 189.571 69.188C189.436 68.9608 189.363 68.702 189.36 68.4377C189.357 68.1733 189.423 67.9128 189.553 67.6825L192.892 61.67L193.745 64.53L195.298 64.0693L193.666 58.5605L188.157 60.192L188.618 61.7455L191.456 60.9087L188.133 66.8927C187.864 67.3701 187.726 67.91 187.733 68.4579C187.739 69.0057 187.891 69.5421 188.171 70.0127C188.446 70.4862 188.842 70.8787 189.317 71.1504C189.793 71.4222 190.331 71.5637 190.879 71.5605H195.857V69.9355H190.879ZM206.834 56.6544L205.983 59.5136L201.829 52.0362C201.272 51.0344 200.255 50.4355 199.107 50.4355C197.96 50.4355 196.942 51.0344 196.385 52.037L193.883 56.5415L195.304 57.3296L197.806 52.8259C198.071 52.3465 198.558 52.0605 199.107 52.0605C199.657 52.0605 200.142 52.3474 200.409 52.8259L204.546 60.2741L201.707 59.4372L201.247 60.9915L206.756 62.623L208.388 57.1143L206.834 56.6544Z" fill="black"/>
</g>
<path d="M221.204 67.3105V56.9327H225.474C226.393 56.9327 227.179 57.081 227.831 57.3775C228.493 57.674 229.002 58.099 229.358 58.6525C229.714 59.2059 229.892 59.8632 229.892 60.6243C229.892 61.3853 229.714 62.0426 229.358 62.596C229.002 63.1396 228.493 63.5597 227.831 63.8562C227.179 64.1428 226.393 64.2861 225.474 64.2861H222.272L223.131 63.4114V67.3105H221.204ZM227.994 67.3105L225.37 63.5449H227.431L230.07 67.3105H227.994ZM223.131 63.619L222.272 62.6998H225.385C226.235 62.6998 226.872 62.517 227.297 62.1513C227.732 61.7856 227.95 61.2766 227.95 60.6243C227.95 59.962 227.732 59.453 227.297 59.0972C226.872 58.7414 226.235 58.5635 225.385 58.5635H222.272L223.131 57.6147V63.619ZM235.591 67.4143C234.712 67.4143 233.941 67.2414 233.279 66.8954C232.626 66.5396 232.117 66.0553 231.752 65.4425C231.396 64.8297 231.218 64.133 231.218 63.3521C231.218 62.5614 231.391 61.8647 231.737 61.2617C232.093 60.649 232.577 60.1696 233.19 59.8237C233.812 59.4777 234.519 59.3048 235.31 59.3048C236.081 59.3048 236.768 59.4728 237.371 59.8088C237.973 60.1449 238.448 60.6193 238.794 61.2321C239.14 61.8449 239.313 62.5664 239.313 63.3966C239.313 63.4757 239.308 63.5646 239.298 63.6635C239.298 63.7623 239.293 63.8562 239.283 63.9452H232.686V62.7146H238.305L237.578 63.1001C237.588 62.6455 237.494 62.2452 237.296 61.8992C237.099 61.5533 236.827 61.2815 236.481 61.0838C236.145 60.8862 235.755 60.7873 235.31 60.7873C234.855 60.7873 234.455 60.8862 234.109 61.0838C233.773 61.2815 233.506 61.5583 233.308 61.9141C233.121 62.26 233.027 62.6702 233.027 63.1446V63.4411C233.027 63.9155 233.135 64.3356 233.353 64.7013C233.57 65.067 233.877 65.3486 234.272 65.5463C234.667 65.744 235.122 65.8428 235.636 65.8428C236.081 65.8428 236.481 65.7736 236.837 65.6353C237.193 65.4969 237.509 65.2795 237.786 64.9829L238.779 66.1245C238.423 66.5396 237.973 66.8608 237.43 67.0882C236.896 67.3056 236.283 67.4143 235.591 67.4143ZM244.725 67.4143C243.895 67.4143 243.154 67.2414 242.501 66.8954C241.859 66.5396 241.355 66.0553 240.989 65.4425C240.623 64.8297 240.44 64.133 240.44 63.3521C240.44 62.5614 240.623 61.8647 240.989 61.2617C241.355 60.649 241.859 60.1696 242.501 59.8237C243.154 59.4777 243.895 59.3048 244.725 59.3048C245.496 59.3048 246.173 59.4629 246.756 59.7792C247.349 60.0856 247.799 60.5402 248.105 61.1431L246.682 61.9734C246.445 61.5978 246.153 61.321 245.807 61.1431C245.471 60.9652 245.106 60.8763 244.71 60.8763C244.256 60.8763 243.845 60.9751 243.48 61.1728C243.114 61.3705 242.827 61.6571 242.62 62.0327C242.412 62.3984 242.308 62.8382 242.308 63.3521C242.308 63.8661 242.412 64.3109 242.62 64.6864C242.827 65.0521 243.114 65.3338 243.48 65.5315C243.845 65.7292 244.256 65.828 244.71 65.828C245.106 65.828 245.471 65.739 245.807 65.5611C246.153 65.3832 246.445 65.1065 246.682 64.7309L248.105 65.5611C247.799 66.1542 247.349 66.6137 246.756 66.9399C246.173 67.2562 245.496 67.4143 244.725 67.4143ZM250.258 70.2905C249.873 70.2905 249.487 70.2262 249.102 70.0977C248.716 69.9693 248.395 69.7913 248.138 69.564L248.879 68.2001C249.067 68.3681 249.28 68.5015 249.517 68.6004C249.754 68.6992 249.996 68.7486 250.243 68.7486C250.579 68.7486 250.851 68.6646 251.059 68.4966C251.266 68.3286 251.459 68.0469 251.637 67.6515L252.097 66.6137L252.245 66.3914L255.24 59.3937H257.019L253.312 67.948C253.065 68.5411 252.788 69.0105 252.482 69.3565C252.185 69.7024 251.849 69.9445 251.474 70.0829C251.108 70.2213 250.703 70.2905 250.258 70.2905ZM251.889 67.5922L248.316 59.3937H250.243L253.149 66.2283L251.889 67.5922ZM261.592 67.4143C260.762 67.4143 260.02 67.2414 259.368 66.8954C258.726 66.5396 258.222 66.0553 257.856 65.4425C257.49 64.8297 257.307 64.133 257.307 63.3521C257.307 62.5614 257.49 61.8647 257.856 61.2617C258.222 60.649 258.726 60.1696 259.368 59.8237C260.02 59.4777 260.762 59.3048 261.592 59.3048C262.363 59.3048 263.04 59.4629 263.623 59.7792C264.216 60.0856 264.666 60.5402 264.972 61.1431L263.549 61.9734C263.312 61.5978 263.02 61.321 262.674 61.1431C262.338 60.9652 261.972 60.8763 261.577 60.8763C261.122 60.8763 260.712 60.9751 260.347 61.1728C259.981 61.3705 259.694 61.6571 259.487 62.0327C259.279 62.3984 259.175 62.8382 259.175 63.3521C259.175 63.8661 259.279 64.3109 259.487 64.6864C259.694 65.0521 259.981 65.3338 260.347 65.5315C260.712 65.7292 261.122 65.828 261.577 65.828C261.972 65.828 262.338 65.739 262.674 65.5611C263.02 65.3832 263.312 65.1065 263.549 64.7309L264.972 65.5611C264.666 66.1542 264.216 66.6137 263.623 66.9399C263.04 67.2562 262.363 67.4143 261.592 67.4143ZM266.502 67.3105V56.31H268.355V67.3105H266.502ZM275.665 67.3105V65.7094L275.561 65.3684V62.5664C275.561 62.0228 275.398 61.6027 275.072 61.3062C274.746 60.9998 274.251 60.8466 273.589 60.8466C273.144 60.8466 272.705 60.9158 272.27 61.0542C271.845 61.1926 271.484 61.3853 271.187 61.6324L270.461 60.2833C270.886 59.9571 271.39 59.715 271.973 59.5568C272.566 59.3888 273.179 59.3048 273.812 59.3048C274.958 59.3048 275.843 59.5815 276.465 60.135C277.098 60.6786 277.414 61.5237 277.414 62.6702V67.3105H275.665ZM273.174 67.4143C272.581 67.4143 272.062 67.3155 271.617 67.1178C271.173 66.9103 270.827 66.6286 270.58 66.2728C270.342 65.9071 270.224 65.4969 270.224 65.0422C270.224 64.5975 270.328 64.1972 270.535 63.8414C270.753 63.4856 271.103 63.2039 271.588 62.9963C272.072 62.7888 272.714 62.685 273.515 62.685H275.813V63.9155H273.648C273.016 63.9155 272.591 64.0193 272.374 64.2268C272.156 64.4245 272.047 64.6716 272.047 64.9681C272.047 65.3042 272.181 65.571 272.448 65.7687C272.714 65.9664 273.085 66.0652 273.56 66.0652C274.014 66.0652 274.419 65.9614 274.775 65.7539C275.141 65.5463 275.403 65.2399 275.561 64.8347L275.872 65.9466C275.694 66.4111 275.373 66.7719 274.909 67.0289C274.454 67.2858 273.876 67.4143 273.174 67.4143ZM284.181 67.4143C283.509 67.4143 282.911 67.2661 282.387 66.9696C281.863 66.6731 281.448 66.2283 281.142 65.6353C280.845 65.0324 280.697 64.2713 280.697 63.3521C280.697 62.4231 280.85 61.662 281.156 61.069C281.473 60.476 281.893 60.0362 282.417 59.7495C282.95 59.453 283.538 59.3048 284.181 59.3048C284.962 59.3048 285.649 59.4728 286.242 59.8088C286.844 60.1449 287.319 60.6144 287.665 61.2173C288.021 61.8202 288.199 62.5318 288.199 63.3521C288.199 64.1725 288.021 64.8841 287.665 65.487C287.319 66.0899 286.844 66.5643 286.242 66.9103C285.649 67.2463 284.962 67.4143 284.181 67.4143ZM279.792 67.3105V56.31H281.646V61.2321L281.497 63.3373L281.557 65.4425V67.3105H279.792ZM283.973 65.828C284.418 65.828 284.813 65.7292 285.159 65.5315C285.515 65.3338 285.797 65.0472 286.004 64.6716C286.212 64.296 286.316 63.8562 286.316 63.3521C286.316 62.8382 286.212 62.3984 286.004 62.0327C285.797 61.6571 285.515 61.3705 285.159 61.1728C284.813 60.9751 284.418 60.8763 283.973 60.8763C283.529 60.8763 283.128 60.9751 282.772 61.1728C282.417 61.3705 282.135 61.6571 281.927 62.0327C281.72 62.3984 281.616 62.8382 281.616 63.3521C281.616 63.8562 281.72 64.296 281.927 64.6716C282.135 65.0472 282.417 65.3338 282.772 65.5315C283.128 65.7292 283.529 65.828 283.973 65.828ZM289.956 67.3105V56.31H291.809V67.3105H289.956ZM297.963 67.4143C297.083 67.4143 296.312 67.2414 295.65 66.8954C294.998 66.5396 294.489 66.0553 294.123 65.4425C293.767 64.8297 293.589 64.133 293.589 63.3521C293.589 62.5614 293.762 61.8647 294.108 61.2617C294.464 60.649 294.948 60.1696 295.561 59.8237C296.184 59.4777 296.89 59.3048 297.681 59.3048C298.452 59.3048 299.139 59.4728 299.742 59.8088C300.345 60.1449 300.819 60.6193 301.165 61.2321C301.511 61.8449 301.684 62.5664 301.684 63.3966C301.684 63.4757 301.679 63.5646 301.669 63.6635C301.669 63.7623 301.664 63.8562 301.654 63.9452H295.057V62.7146H300.676L299.949 63.1001C299.959 62.6455 299.865 62.2452 299.668 61.8992C299.47 61.5533 299.198 61.2815 298.852 61.0838C298.516 60.8862 298.126 60.7873 297.681 60.7873C297.226 60.7873 296.826 60.8862 296.48 61.0838C296.144 61.2815 295.877 61.5583 295.68 61.9141C295.492 62.26 295.398 62.6702 295.398 63.1446V63.4411C295.398 63.9155 295.507 64.3356 295.724 64.7013C295.942 65.067 296.248 65.3486 296.643 65.5463C297.039 65.744 297.493 65.8428 298.007 65.8428C298.452 65.8428 298.852 65.7736 299.208 65.6353C299.564 65.4969 299.88 65.2795 300.157 64.9829L301.15 66.1245C300.794 66.5396 300.345 66.8608 299.801 67.0882C299.267 67.3056 298.655 67.4143 297.963 67.4143Z" fill="#203E13"/>
<defs>
<clipPath id="clip0_1928_2">
<rect width="26" height="26" fill="white" transform="translate(186.107 48.8105)"/>
</clipPath>
</defs>
</svg>
