<svg width="121" height="24" viewBox="0 0 121 24" fill="none" xmlns="http://www.w3.org/2000/svg">
<path d="M1.02377 22.7842V19.4242L9.66377 11.2642C10.3464 10.6455 10.8478 10.0908 11.1678 9.60018C11.4878 9.10951 11.7011 8.66151 11.8078 8.25618C11.9358 7.85085 11.9998 7.47751 11.9998 7.13618C11.9998 6.24018 11.6904 5.55751 11.0718 5.08818C10.4744 4.59751 9.58911 4.35218 8.41577 4.35218C7.47711 4.35218 6.60244 4.53351 5.79177 4.89618C5.00244 5.25885 4.33044 5.82418 3.77577 6.59218L-0.000226561 4.16018C0.853107 2.88018 2.04777 1.86685 3.58377 1.12018C5.11977 0.373512 6.89044 0.000179291 8.89577 0.000179291C10.5598 0.000179291 12.0104 0.277512 13.2478 0.832178C14.5064 1.36551 15.4771 2.12285 16.1598 3.10418C16.8638 4.08551 17.2158 5.25885 17.2158 6.62418C17.2158 7.34951 17.1198 8.07485 16.9278 8.80018C16.7571 9.50418 16.3944 10.2508 15.8398 11.0402C15.3064 11.8295 14.5171 12.7148 13.4718 13.6962L6.30377 20.4482L5.31177 18.5602H17.9518V22.7842H1.02377ZM29.6908 23.1682C27.8561 23.1682 26.2134 22.7202 24.7628 21.8242C23.3121 20.9068 22.1708 19.5842 21.3388 17.8562C20.5068 16.1282 20.0908 14.0375 20.0908 11.5842C20.0908 9.13085 20.5068 7.04018 21.3388 5.31218C22.1708 3.58418 23.3121 2.27218 24.7628 1.37618C26.2134 0.458846 27.8561 0.000179291 29.6908 0.000179291C31.5468 0.000179291 33.1894 0.458846 34.6188 1.37618C36.0694 2.27218 37.2108 3.58418 38.0428 5.31218C38.8748 7.04018 39.2908 9.13085 39.2908 11.5842C39.2908 14.0375 38.8748 16.1282 38.0428 17.8562C37.2108 19.5842 36.0694 20.9068 34.6188 21.8242C33.1894 22.7202 31.5468 23.1682 29.6908 23.1682ZM29.6908 18.7842C30.5654 18.7842 31.3228 18.5388 31.9628 18.0482C32.6241 17.5575 33.1361 16.7788 33.4988 15.7122C33.8828 14.6455 34.0748 13.2695 34.0748 11.5842C34.0748 9.89885 33.8828 8.52285 33.4988 7.45618C33.1361 6.38951 32.6241 5.61084 31.9628 5.12018C31.3228 4.62951 30.5654 4.38418 29.6908 4.38418C28.8374 4.38418 28.0801 4.62951 27.4188 5.12018C26.7788 5.61084 26.2668 6.38951 25.8828 7.45618C25.5201 8.52285 25.3388 9.89885 25.3388 11.5842C25.3388 13.2695 25.5201 14.6455 25.8828 15.7122C26.2668 16.7788 26.7788 17.5575 27.4188 18.0482C28.0801 18.5388 28.8374 18.7842 29.6908 18.7842ZM51.4095 23.1682C49.5749 23.1682 47.9322 22.7202 46.4815 21.8242C45.0309 20.9068 43.8895 19.5842 43.0575 17.8562C42.2255 16.1282 41.8095 14.0375 41.8095 11.5842C41.8095 9.13085 42.2255 7.04018 43.0575 5.31218C43.8895 3.58418 45.0309 2.27218 46.4815 1.37618C47.9322 0.458846 49.5749 0.000179291 51.4095 0.000179291C53.2655 0.000179291 54.9082 0.458846 56.3375 1.37618C57.7882 2.27218 58.9295 3.58418 59.7615 5.31218C60.5935 7.04018 61.0095 9.13085 61.0095 11.5842C61.0095 14.0375 60.5935 16.1282 59.7615 17.8562C58.9295 19.5842 57.7882 20.9068 56.3375 21.8242C54.9082 22.7202 53.2655 23.1682 51.4095 23.1682ZM51.4095 18.7842C52.2842 18.7842 53.0415 18.5388 53.6815 18.0482C54.3429 17.5575 54.8549 16.7788 55.2175 15.7122C55.6015 14.6455 55.7935 13.2695 55.7935 11.5842C55.7935 9.89885 55.6015 8.52285 55.2175 7.45618C54.8549 6.38951 54.3429 5.61084 53.6815 5.12018C53.0415 4.62951 52.2842 4.38418 51.4095 4.38418C50.5562 4.38418 49.7989 4.62951 49.1375 5.12018C48.4975 5.61084 47.9855 6.38951 47.6015 7.45618C47.2389 8.52285 47.0575 9.89885 47.0575 11.5842C47.0575 13.2695 47.2389 14.6455 47.6015 15.7122C47.9855 16.7788 48.4975 17.5575 49.1375 18.0482C49.7989 18.5388 50.5562 18.7842 51.4095 18.7842ZM73.9988 22.7842V0.384178H78.2868L87.8228 16.1922H85.5508L94.9268 0.384178H99.1828L99.2468 22.7842H94.3828L94.3508 7.84018H95.2468L87.7588 20.4162H85.4228L77.7748 7.84018H78.8628V22.7842H73.9988ZM104.561 22.7842V0.384178H109.745V18.5602H120.977V22.7842H104.561Z" fill="black"/>
</svg>
