<svg width="75" height="33" viewBox="0 0 75 33" fill="none" xmlns="http://www.w3.org/2000/svg">
<path d="M0 7C0 4.79086 1.79086 3 4 3H14C21.1797 3 27 8.8203 27 16V26C27 28.2091 25.2091 30 23 30H4C1.79086 30 0 28.2091 0 26V7Z" fill="white"/>
<path d="M17.0633 22.8094C17.2157 21.2034 18.815 8.91797 18.815 8.91797C14.6648 9.69714 12.3113 9.65407 8.07617 8.99827C8.07617 8.99827 9.52336 20.9625 9.82794 22.8094C10.1325 24.6562 16.9109 24.4153 17.0633 22.8094Z" stroke="black" stroke-width="0.153412"/>
<path d="M19.0059 7.76635C19.057 7.81749 19.236 7.88908 19.236 8.07318C19.3894 8.14988 19.5 8.30329 19.5 8.45671C19.5 8.57944 19.0398 8.76353 18.8096 8.84024C17.2244 9.30047 12.8573 9.96014 8.07082 8.91694C7.764 8.79421 7.58502 8.55898 7.53388 8.45671C7.50831 8.38 7.47252 8.21125 7.53388 8.14988C7.59525 8.08852 7.66171 8.02204 7.68727 7.99647L7.84068 7.61294C7.81511 7.58737 8.25454 7.5 8.5 7.5" stroke="black" stroke-width="0.153412"/>
<path d="M14.4014 7.07715C14.9085 7.07715 16.0753 7.09943 17.1143 7.20703C17.6343 7.2609 18.1183 7.33586 18.4707 7.43848C18.6475 7.48995 18.7863 7.54683 18.8789 7.6084C18.9725 7.6707 19.0037 7.72649 19.0039 7.77344C19.0039 7.85506 18.9394 7.94791 18.7695 8.04492C18.6038 8.1395 18.3604 8.22533 18.0566 8.30078C17.4505 8.45133 16.6238 8.55744 15.748 8.62793C13.9959 8.76893 12.0638 8.76417 11.3418 8.6875C10.8389 8.63408 9.97969 8.50332 9.2373 8.32812C8.86561 8.2404 8.52619 8.14194 8.27637 8.03809C8.15119 7.98605 8.05146 7.93465 7.98242 7.88379C7.91638 7.83513 7.89026 7.7952 7.88281 7.76758C7.88478 7.75366 7.89274 7.73427 7.91992 7.70898C7.95215 7.67906 8.00369 7.64654 8.07715 7.61426C8.22382 7.54985 8.43933 7.49141 8.70703 7.43945C9.2414 7.33576 9.96731 7.26097 10.7275 7.20703C12.2471 7.09922 13.894 7.07715 14.4014 7.07715Z" stroke="black" stroke-width="0.153412"/>
<path d="M21.0884 27.1939C21.1372 27.145 21.1372 27.0659 21.0884 27.0171L20.2929 26.2216C20.2441 26.1728 20.1649 26.1728 20.1161 26.2216C20.0673 26.2704 20.0673 26.3495 20.1161 26.3984L20.8232 27.1055L20.1161 27.8126C20.0673 27.8614 20.0673 27.9405 20.1161 27.9894C20.1649 28.0382 20.2441 28.0382 20.2929 27.9894L21.0884 27.1939ZM5.91161 27.0171C5.8628 27.0659 5.8628 27.145 5.91161 27.1939L6.70711 27.9894C6.75592 28.0382 6.83507 28.0382 6.88388 27.9894C6.9327 27.9405 6.9327 27.8614 6.88388 27.8126L6.17678 27.1055L6.88388 26.3984C6.9327 26.3495 6.9327 26.2704 6.88388 26.2216C6.83507 26.1728 6.75592 26.1728 6.70711 26.2216L5.91161 27.0171ZM21 27.1055V26.9805L6 26.9805V27.1055V27.2305L21 27.2305V27.1055Z" fill="black"/>
<path d="M33.924 12.2773V3.81734H37.62C38.508 3.81734 39.196 4.01334 39.684 4.40534C40.172 4.78934 40.416 5.32534 40.416 6.01334C40.416 6.52534 40.268 6.95734 39.972 7.30934C39.676 7.66134 39.272 7.89734 38.76 8.01734V7.83734C39.152 7.89334 39.488 8.01334 39.768 8.19734C40.048 8.38134 40.26 8.61734 40.404 8.90534C40.556 9.19334 40.632 9.52934 40.632 9.91334C40.632 10.4093 40.516 10.8373 40.284 11.1973C40.06 11.5493 39.732 11.8173 39.3 12.0013C38.868 12.1853 38.352 12.2773 37.752 12.2773H33.924ZM35.4 11.1133H37.56C37.776 11.1133 37.968 11.0973 38.136 11.0653C38.312 11.0333 38.46 10.9853 38.58 10.9213C38.708 10.8493 38.812 10.7613 38.892 10.6573C38.98 10.5533 39.044 10.4333 39.084 10.2973C39.124 10.1613 39.144 10.0093 39.144 9.84134C39.144 9.66534 39.124 9.50934 39.084 9.37334C39.044 9.23734 38.98 9.12134 38.892 9.02534C38.812 8.92134 38.708 8.83734 38.58 8.77334C38.46 8.70134 38.312 8.64934 38.136 8.61734C37.968 8.58534 37.776 8.56934 37.56 8.56934H35.4V11.1133ZM35.4 7.40534H37.356C37.884 7.40534 38.276 7.30534 38.532 7.10534C38.796 6.89734 38.928 6.59334 38.928 6.19334C38.928 5.79334 38.796 5.49334 38.532 5.29334C38.276 5.08534 37.884 4.98134 37.356 4.98134H35.4V7.40534ZM44.7177 12.3973C44.1097 12.3973 43.5817 12.2733 43.1337 12.0253C42.6857 11.7773 42.3377 11.4253 42.0897 10.9693C41.8417 10.5053 41.7177 9.96134 41.7177 9.33734C41.7177 8.71334 41.8417 8.17334 42.0897 7.71734C42.3377 7.26134 42.6857 6.90934 43.1337 6.66134C43.5817 6.41334 44.1097 6.28934 44.7177 6.28934C45.3257 6.28934 45.8537 6.41334 46.3017 6.66134C46.7497 6.90934 47.0977 7.26134 47.3457 7.71734C47.5937 8.17334 47.7177 8.71334 47.7177 9.33734C47.7177 9.96134 47.5937 10.5053 47.3457 10.9693C47.0977 11.4253 46.7497 11.7773 46.3017 12.0253C45.8537 12.2733 45.3257 12.3973 44.7177 12.3973ZM44.7177 11.2573C45.1657 11.2573 45.5257 11.0973 45.7977 10.7773C46.0697 10.4493 46.2057 9.96934 46.2057 9.33734C46.2057 8.69734 46.0697 8.22134 45.7977 7.90934C45.5257 7.58934 45.1657 7.42934 44.7177 7.42934C44.2697 7.42934 43.9097 7.58934 43.6377 7.90934C43.3657 8.22134 43.2297 8.69734 43.2297 9.33734C43.2297 9.96934 43.3657 10.4493 43.6377 10.7773C43.9097 11.0973 44.2697 11.2573 44.7177 11.2573ZM51.5852 12.3973C50.8012 12.3973 50.2172 12.2013 49.8332 11.8093C49.4492 11.4173 49.2572 10.8453 49.2572 10.0933V7.53734H48.1292V6.40934H49.2572V4.65734H50.7572V6.40934H52.5332V7.53734H50.7572V10.0093C50.7572 10.3933 50.8412 10.6813 51.0092 10.8733C51.1772 11.0653 51.4492 11.1613 51.8252 11.1613C51.9372 11.1613 52.0532 11.1493 52.1732 11.1253C52.2932 11.0933 52.4172 11.0613 52.5452 11.0293L52.7732 12.1333C52.6292 12.2133 52.4452 12.2773 52.2212 12.3253C52.0052 12.3733 51.7932 12.3973 51.5852 12.3973ZM55.8508 12.3973C55.0668 12.3973 54.4828 12.2013 54.0988 11.8093C53.7148 11.4173 53.5228 10.8453 53.5228 10.0933V7.53734H52.3948V6.40934H53.5228V4.65734H55.0228V6.40934H56.7988V7.53734H55.0228V10.0093C55.0228 10.3933 55.1068 10.6813 55.2748 10.8733C55.4428 11.0653 55.7148 11.1613 56.0908 11.1613C56.2028 11.1613 56.3188 11.1493 56.4388 11.1253C56.5588 11.0933 56.6828 11.0613 56.8108 11.0293L57.0388 12.1333C56.8948 12.2133 56.7108 12.2773 56.4868 12.3253C56.2708 12.3733 56.0588 12.3973 55.8508 12.3973ZM60.3857 12.3973C59.7777 12.3973 59.2497 12.2733 58.8017 12.0253C58.3537 11.7773 58.0057 11.4253 57.7577 10.9693C57.5097 10.5053 57.3857 9.96134 57.3857 9.33734C57.3857 8.71334 57.5097 8.17334 57.7577 7.71734C58.0057 7.26134 58.3537 6.90934 58.8017 6.66134C59.2497 6.41334 59.7777 6.28934 60.3857 6.28934C60.9937 6.28934 61.5217 6.41334 61.9697 6.66134C62.4177 6.90934 62.7657 7.26134 63.0137 7.71734C63.2617 8.17334 63.3857 8.71334 63.3857 9.33734C63.3857 9.96134 63.2617 10.5053 63.0137 10.9693C62.7657 11.4253 62.4177 11.7773 61.9697 12.0253C61.5217 12.2733 60.9937 12.3973 60.3857 12.3973ZM60.3857 11.2573C60.8337 11.2573 61.1937 11.0973 61.4657 10.7773C61.7377 10.4493 61.8737 9.96934 61.8737 9.33734C61.8737 8.69734 61.7377 8.22134 61.4657 7.90934C61.1937 7.58934 60.8337 7.42934 60.3857 7.42934C59.9377 7.42934 59.5777 7.58934 59.3057 7.90934C59.0337 8.22134 58.8977 8.69734 58.8977 9.33734C58.8977 9.96934 59.0337 10.4493 59.3057 10.7773C59.5777 11.0973 59.9377 11.2573 60.3857 11.2573ZM64.6478 12.2773V6.40934H66.1118V7.58534H65.9798C66.0838 7.31334 66.2278 7.08134 66.4118 6.88934C66.5958 6.69734 66.8158 6.54934 67.0718 6.44534C67.3278 6.34134 67.6118 6.28934 67.9238 6.28934C68.3958 6.28934 68.7838 6.40134 69.0878 6.62534C69.3918 6.84934 69.6038 7.19334 69.7238 7.65734H69.5558C69.7158 7.23334 69.9798 6.90134 70.3478 6.66134C70.7158 6.41334 71.1398 6.28934 71.6198 6.28934C72.0678 6.28934 72.4358 6.37734 72.7238 6.55334C73.0198 6.72934 73.2398 6.99734 73.3838 7.35734C73.5278 7.70934 73.5998 8.15734 73.5998 8.70134V12.2773H72.0998V8.76134C72.0998 8.31334 72.0238 7.98534 71.8718 7.77734C71.7278 7.56934 71.4798 7.46534 71.1278 7.46534C70.8718 7.46534 70.6478 7.52934 70.4557 7.65734C70.2638 7.77734 70.1158 7.95334 70.0117 8.18534C69.9158 8.41734 69.8678 8.69734 69.8678 9.02534V12.2773H68.3678V8.76134C68.3678 8.31334 68.2918 7.98534 68.1398 7.77734C67.9958 7.56934 67.7518 7.46534 67.4078 7.46534C67.1438 7.46534 66.9158 7.52934 66.7238 7.65734C66.5398 7.77734 66.3958 7.95334 66.2918 8.18534C66.1958 8.41734 66.1478 8.69734 66.1478 9.02534V12.2773H64.6478Z" fill="#CF4747"/>
<path d="M36.79 28.7217V27.2317H33.52V26.5917L36.84 21.6717H37.63V26.5117H38.64V27.2317H37.63V28.7217H36.79ZM36.8 26.5117V22.7217H36.95L34.26 26.7017L34.22 26.5117H36.8ZM41.9061 28.8117C41.6061 28.8117 41.3094 28.7817 41.0161 28.7217C40.7294 28.655 40.4561 28.5617 40.1961 28.4417C39.9428 28.315 39.7161 28.1583 39.5161 27.9717L39.8361 27.3017C40.1561 27.5683 40.4861 27.7617 40.8261 27.8817C41.1661 28.0017 41.5228 28.0617 41.8961 28.0617C42.2161 28.0617 42.4928 28.015 42.7261 27.9217C42.9594 27.8217 43.1394 27.6783 43.2661 27.4917C43.3994 27.2983 43.4661 27.0583 43.4661 26.7717C43.4661 26.3583 43.3294 26.045 43.0561 25.8317C42.7828 25.6183 42.3828 25.5117 41.8561 25.5117H40.8061V24.7817H41.7561C42.0628 24.7817 42.3294 24.7317 42.5561 24.6317C42.7828 24.525 42.9594 24.375 43.0861 24.1817C43.2128 23.9817 43.2761 23.7417 43.2761 23.4617C43.2761 23.0883 43.1528 22.8083 42.9061 22.6217C42.6594 22.4283 42.3228 22.3317 41.8961 22.3317C41.5361 22.3317 41.1928 22.395 40.8661 22.5217C40.5394 22.6483 40.2361 22.855 39.9561 23.1417L39.6361 22.4717C39.9094 22.185 40.2494 21.965 40.6561 21.8117C41.0694 21.6583 41.4961 21.5817 41.9361 21.5817C42.3894 21.5817 42.7761 21.655 43.0961 21.8017C43.4228 21.9417 43.6728 22.1483 43.8461 22.4217C44.0261 22.6883 44.1161 23.0117 44.1161 23.3917C44.1161 23.8117 43.9994 24.175 43.7661 24.4817C43.5328 24.7883 43.2161 25.0017 42.8161 25.1217V25.0617C43.1228 25.115 43.3861 25.2217 43.6061 25.3817C43.8261 25.535 43.9961 25.7317 44.1161 25.9717C44.2428 26.2117 44.3061 26.4917 44.3061 26.8117C44.3061 27.225 44.2061 27.5817 44.0061 27.8817C43.8128 28.1817 43.5361 28.4117 43.1761 28.5717C42.8161 28.7317 42.3928 28.8117 41.9061 28.8117ZM45.6622 28.7217V27.6617H46.7522V28.7217H45.6622ZM50.5438 28.8117C50.2372 28.8117 49.9405 28.7783 49.6538 28.7117C49.3672 28.645 49.1005 28.5483 48.8538 28.4217C48.6072 28.295 48.3872 28.1417 48.1938 27.9617L48.5238 27.2817C48.8372 27.5483 49.1572 27.745 49.4838 27.8717C49.8105 27.9983 50.1605 28.0617 50.5338 28.0617C51.0272 28.0617 51.4105 27.9283 51.6838 27.6617C51.9638 27.395 52.1038 27.035 52.1038 26.5817C52.1038 26.1217 51.9705 25.7483 51.7038 25.4617C51.4438 25.175 51.0838 25.0317 50.6238 25.0317C50.2972 25.0317 50.0072 25.0983 49.7538 25.2317C49.5005 25.3583 49.2705 25.5683 49.0638 25.8617H48.4138V21.6717H52.5638V22.4117H49.2238V25.1317H49.0838C49.2572 24.8783 49.4872 24.6783 49.7738 24.5317C50.0672 24.3783 50.3972 24.3017 50.7638 24.3017C51.2105 24.3017 51.5972 24.395 51.9238 24.5817C52.2505 24.7683 52.5005 25.0283 52.6738 25.3617C52.8538 25.695 52.9438 26.085 52.9438 26.5317C52.9438 26.9917 52.8438 27.3917 52.6438 27.7317C52.4505 28.0717 52.1738 28.3383 51.8138 28.5317C51.4605 28.7183 51.0372 28.8117 50.5438 28.8117ZM56.9357 28.7217V23.8217H57.7457V24.9017H57.6857C57.7724 24.6683 57.8924 24.465 58.0457 24.2917C58.2057 24.1117 58.3957 23.975 58.6157 23.8817C58.8357 23.7817 59.079 23.7317 59.3457 23.7317C59.7657 23.7317 60.109 23.835 60.3757 24.0417C60.6424 24.2483 60.8157 24.5383 60.8957 24.9117H60.8157C60.9424 24.565 61.1557 24.2817 61.4557 24.0617C61.7557 23.8417 62.119 23.7317 62.5457 23.7317C62.919 23.7317 63.229 23.805 63.4757 23.9517C63.7224 24.0917 63.909 24.305 64.0357 24.5917C64.1624 24.8783 64.2257 25.2417 64.2257 25.6817V28.7217H63.3857V25.7317C63.3857 25.2983 63.3057 24.975 63.1457 24.7617C62.9924 24.5483 62.7257 24.4417 62.3457 24.4417C62.0724 24.4417 61.8324 24.5083 61.6257 24.6417C61.4257 24.7683 61.2724 24.945 61.1657 25.1717C61.059 25.3983 61.0057 25.665 61.0057 25.9717V28.7217H60.1557V25.7317C60.1557 25.2983 60.0724 24.975 59.9057 24.7617C59.7457 24.5483 59.4857 24.4417 59.1257 24.4417C58.8524 24.4417 58.6124 24.5083 58.4057 24.6417C58.2057 24.775 58.0524 24.9583 57.9457 25.1917C57.839 25.4183 57.7857 25.6717 57.7857 25.9517V28.7217H56.9357ZM65.881 28.7217V23.8217H66.691V24.9017H66.631C66.7177 24.6683 66.8377 24.465 66.991 24.2917C67.151 24.1117 67.341 23.975 67.561 23.8817C67.781 23.7817 68.0243 23.7317 68.291 23.7317C68.711 23.7317 69.0543 23.835 69.321 24.0417C69.5877 24.2483 69.761 24.5383 69.841 24.9117H69.761C69.8877 24.565 70.101 24.2817 70.401 24.0617C70.701 23.8417 71.0643 23.7317 71.491 23.7317C71.8643 23.7317 72.1743 23.805 72.421 23.9517C72.6677 24.0917 72.8543 24.305 72.981 24.5917C73.1077 24.8783 73.171 25.2417 73.171 25.6817V28.7217H72.331V25.7317C72.331 25.2983 72.251 24.975 72.091 24.7617C71.9377 24.5483 71.671 24.4417 71.291 24.4417C71.0177 24.4417 70.7777 24.5083 70.571 24.6417C70.371 24.7683 70.2177 24.945 70.111 25.1717C70.0043 25.3983 69.951 25.665 69.951 25.9717V28.7217H69.101V25.7317C69.101 25.2983 69.0177 24.975 68.851 24.7617C68.691 24.5483 68.431 24.4417 68.071 24.4417C67.7977 24.4417 67.5577 24.5083 67.351 24.6417C67.151 24.775 66.9977 24.9583 66.891 25.1917C66.7843 25.4183 66.731 25.6717 66.731 25.9517V28.7217H65.881Z" fill="black"/>
</svg>
