<svg width="388" height="46" viewBox="0 0 388 46" fill="none" xmlns="http://www.w3.org/2000/svg">
<path d="M7.512 18.288C6.168 18.288 4.88 18.112 3.648 17.76C2.416 17.392 1.424 16.92 0.672 16.344L1.992 13.416C2.712 13.928 3.56 14.352 4.536 14.688C5.528 15.008 6.528 15.168 7.536 15.168C8.304 15.168 8.92 15.096 9.384 14.952C9.864 14.792 10.216 14.576 10.44 14.304C10.664 14.032 10.776 13.72 10.776 13.368C10.776 12.92 10.6 12.568 10.248 12.312C9.896 12.04 9.432 11.824 8.856 11.664C8.28 11.488 7.64 11.328 6.936 11.184C6.248 11.024 5.552 10.832 4.848 10.608C4.16 10.384 3.528 10.096 2.952 9.744C2.376 9.392 1.904 8.928 1.536 8.352C1.184 7.776 1.008 7.04 1.008 6.144C1.008 5.184 1.264 4.312 1.776 3.528C2.304 2.728 3.088 2.096 4.128 1.632C5.184 1.152 6.504 0.912 8.088 0.912C9.144 0.912 10.184 1.04 11.208 1.296C12.232 1.536 13.136 1.904 13.92 2.4L12.72 5.352C11.936 4.904 11.152 4.576 10.368 4.368C9.584 4.144 8.816 4.032 8.064 4.032C7.312 4.032 6.696 4.12 6.216 4.296C5.736 4.472 5.392 4.704 5.184 4.992C4.976 5.264 4.872 5.584 4.872 5.952C4.872 6.384 5.048 6.736 5.4 7.008C5.752 7.264 6.216 7.472 6.792 7.632C7.368 7.792 8 7.952 8.688 8.112C9.392 8.272 10.088 8.456 10.776 8.664C11.48 8.872 12.12 9.152 12.696 9.504C13.272 9.856 13.736 10.32 14.088 10.896C14.456 11.472 14.64 12.2 14.64 13.08C14.64 14.024 14.376 14.888 13.848 15.672C13.32 16.456 12.528 17.088 11.472 17.568C10.432 18.048 9.112 18.288 7.512 18.288ZM24.7607 18.288C22.3767 18.288 20.5127 17.624 19.1687 16.296C17.8247 14.968 17.1527 13.072 17.1527 10.608V1.2H21.0407V10.464C21.0407 12.064 21.3687 13.216 22.0247 13.92C22.6807 14.624 23.6007 14.976 24.7847 14.976C25.9687 14.976 26.8887 14.624 27.5447 13.92C28.2007 13.216 28.5287 12.064 28.5287 10.464V1.2H32.3687V10.608C32.3687 13.072 31.6967 14.968 30.3527 16.296C29.0087 17.624 27.1447 18.288 24.7607 18.288ZM41.7308 18.288C40.3868 18.288 39.0988 18.112 37.8668 17.76C36.6348 17.392 35.6428 16.92 34.8908 16.344L36.2108 13.416C36.9308 13.928 37.7788 14.352 38.7548 14.688C39.7468 15.008 40.7468 15.168 41.7548 15.168C42.5228 15.168 43.1388 15.096 43.6028 14.952C44.0828 14.792 44.4348 14.576 44.6588 14.304C44.8828 14.032 44.9948 13.72 44.9948 13.368C44.9948 12.92 44.8188 12.568 44.4668 12.312C44.1148 12.04 43.6508 11.824 43.0748 11.664C42.4988 11.488 41.8588 11.328 41.1548 11.184C40.4668 11.024 39.7708 10.832 39.0668 10.608C38.3788 10.384 37.7468 10.096 37.1708 9.744C36.5948 9.392 36.1228 8.928 35.7548 8.352C35.4028 7.776 35.2268 7.04 35.2268 6.144C35.2268 5.184 35.4828 4.312 35.9948 3.528C36.5228 2.728 37.3068 2.096 38.3468 1.632C39.4028 1.152 40.7228 0.912 42.3068 0.912C43.3628 0.912 44.4028 1.04 45.4268 1.296C46.4508 1.536 47.3548 1.904 48.1388 2.4L46.9388 5.352C46.1548 4.904 45.3708 4.576 44.5868 4.368C43.8028 4.144 43.0348 4.032 42.2828 4.032C41.5308 4.032 40.9148 4.12 40.4348 4.296C39.9548 4.472 39.6108 4.704 39.4028 4.992C39.1948 5.264 39.0908 5.584 39.0908 5.952C39.0908 6.384 39.2668 6.736 39.6188 7.008C39.9708 7.264 40.4348 7.472 41.0108 7.632C41.5868 7.792 42.2188 7.952 42.9068 8.112C43.6108 8.272 44.3068 8.456 44.9948 8.664C45.6988 8.872 46.3388 9.152 46.9148 9.504C47.4908 9.856 47.9548 10.32 48.3068 10.896C48.6748 11.472 48.8588 12.2 48.8588 13.08C48.8588 14.024 48.5948 14.888 48.0668 15.672C47.5388 16.456 46.7468 17.088 45.6908 17.568C44.6508 18.048 43.3308 18.288 41.7308 18.288ZM54.7611 18V4.368H49.3851V1.2H64.0251V4.368H58.6491V18H54.7611ZM63.0652 18L70.5533 1.2H74.3933L81.9053 18H77.8253L71.6813 3.168H73.2173L67.0493 18H63.0652ZM66.8092 14.4L67.8413 11.448H76.4813L77.5373 14.4H66.8092ZM83.6483 18V1.2H87.5363V18H83.6483ZM91.5233 18V1.2H94.7393L104.651 13.296H103.091V1.2H106.931V18H103.739L93.8033 5.904H95.3633V18H91.5233ZM108.698 18L116.186 1.2H120.026L127.538 18H123.458L117.314 3.168H118.85L112.682 18H108.698ZM112.442 14.4L113.474 11.448H122.114L123.17 14.4H112.442ZM129.281 18V1.2H137.489C139.601 1.2 141.185 1.6 142.241 2.4C143.313 3.2 143.849 4.256 143.849 5.568C143.849 6.448 143.633 7.216 143.201 7.872C142.769 8.512 142.177 9.008 141.425 9.36C140.673 9.712 139.809 9.888 138.833 9.888L139.289 8.904C140.345 8.904 141.281 9.08 142.097 9.432C142.913 9.768 143.545 10.272 143.993 10.944C144.457 11.616 144.689 12.44 144.689 13.416C144.689 14.856 144.121 15.984 142.985 16.8C141.849 17.6 140.177 18 137.969 18H129.281ZM133.145 15.072H137.681C138.689 15.072 139.449 14.912 139.961 14.592C140.489 14.256 140.753 13.728 140.753 13.008C140.753 12.304 140.489 11.784 139.961 11.448C139.449 11.096 138.689 10.92 137.681 10.92H132.857V8.088H137.009C137.953 8.088 138.673 7.928 139.169 7.608C139.681 7.272 139.937 6.768 139.937 6.096C139.937 5.44 139.681 4.952 139.169 4.632C138.673 4.296 137.953 4.128 137.009 4.128H133.145V15.072ZM147.633 18V1.2H151.521V14.832H159.945V18H147.633ZM165.693 7.968H173.781V10.992H165.693V7.968ZM165.981 14.88H175.125V18H162.117V1.2H174.813V4.32H165.981V14.88ZM188.615 8.76H196.679V11.88H188.615V8.76ZM188.903 18H185.015V1.2H197.711V4.32H188.903V18ZM208.34 18.288C207.012 18.288 205.78 18.072 204.644 17.64C203.524 17.208 202.548 16.6 201.715 15.816C200.9 15.032 200.26 14.112 199.796 13.056C199.348 12 199.124 10.848 199.124 9.6C199.124 8.352 199.348 7.2 199.796 6.144C200.26 5.088 200.908 4.168 201.74 3.384C202.572 2.6 203.548 1.992 204.668 1.56C205.788 1.128 207.004 0.912 208.316 0.912C209.644 0.912 210.859 1.128 211.964 1.56C213.084 1.992 214.052 2.6 214.868 3.384C215.7 4.168 216.348 5.088 216.812 6.144C217.276 7.184 217.508 8.336 217.508 9.6C217.508 10.848 217.276 12.008 216.812 13.08C216.348 14.136 215.7 15.056 214.868 15.84C214.052 16.608 213.084 17.208 211.964 17.64C210.859 18.072 209.651 18.288 208.34 18.288ZM208.316 14.976C209.068 14.976 209.756 14.848 210.38 14.592C211.02 14.336 211.58 13.968 212.06 13.488C212.54 13.008 212.908 12.44 213.164 11.784C213.436 11.128 213.572 10.4 213.572 9.6C213.572 8.8 213.436 8.072 213.164 7.416C212.908 6.76 212.54 6.192 212.06 5.712C211.596 5.232 211.044 4.864 210.404 4.608C209.764 4.352 209.068 4.224 208.316 4.224C207.564 4.224 206.868 4.352 206.228 4.608C205.604 4.864 205.052 5.232 204.572 5.712C204.092 6.192 203.716 6.76 203.444 7.416C203.188 8.072 203.06 8.8 203.06 9.6C203.06 10.384 203.188 11.112 203.444 11.784C203.716 12.44 204.084 13.008 204.548 13.488C205.028 13.968 205.588 14.336 206.228 14.592C206.868 14.848 207.564 14.976 208.316 14.976ZM228.59 18.288C227.262 18.288 226.03 18.072 224.894 17.64C223.774 17.208 222.798 16.6 221.965 15.816C221.15 15.032 220.51 14.112 220.046 13.056C219.598 12 219.374 10.848 219.374 9.6C219.374 8.352 219.598 7.2 220.046 6.144C220.51 5.088 221.158 4.168 221.99 3.384C222.822 2.6 223.798 1.992 224.918 1.56C226.038 1.128 227.254 0.912 228.566 0.912C229.894 0.912 231.109 1.128 232.214 1.56C233.334 1.992 234.302 2.6 235.118 3.384C235.95 4.168 236.598 5.088 237.062 6.144C237.526 7.184 237.758 8.336 237.758 9.6C237.758 10.848 237.526 12.008 237.062 13.08C236.598 14.136 235.95 15.056 235.118 15.84C234.302 16.608 233.334 17.208 232.214 17.64C231.109 18.072 229.901 18.288 228.59 18.288ZM228.566 14.976C229.318 14.976 230.006 14.848 230.63 14.592C231.27 14.336 231.83 13.968 232.31 13.488C232.79 13.008 233.158 12.44 233.414 11.784C233.686 11.128 233.822 10.4 233.822 9.6C233.822 8.8 233.686 8.072 233.414 7.416C233.158 6.76 232.79 6.192 232.31 5.712C231.846 5.232 231.294 4.864 230.654 4.608C230.014 4.352 229.318 4.224 228.566 4.224C227.814 4.224 227.118 4.352 226.478 4.608C225.854 4.864 225.302 5.232 224.822 5.712C224.342 6.192 223.966 6.76 223.694 7.416C223.438 8.072 223.31 8.8 223.31 9.6C223.31 10.384 223.438 11.112 223.694 11.784C223.966 12.44 224.334 13.008 224.798 13.488C225.278 13.968 225.838 14.336 226.478 14.592C227.118 14.848 227.814 14.976 228.566 14.976ZM240.68 18V1.2H248.312C250.136 1.2 251.744 1.552 253.136 2.256C254.528 2.944 255.616 3.912 256.4 5.16C257.184 6.408 257.576 7.888 257.576 9.6C257.576 11.296 257.184 12.776 256.4 14.04C255.616 15.288 254.528 16.264 253.136 16.968C251.744 17.656 250.136 18 248.312 18H240.68ZM244.568 14.808H248.12C249.24 14.808 250.208 14.6 251.023 14.184C251.856 13.752 252.496 13.144 252.944 12.36C253.408 11.576 253.64 10.656 253.64 9.6C253.64 8.528 253.408 7.608 252.944 6.84C252.496 6.056 251.856 5.456 251.023 5.04C250.208 4.608 249.24 4.392 248.12 4.392H244.568V14.808ZM267.305 18V1.2H274.577C276.081 1.2 277.377 1.448 278.465 1.944C279.553 2.424 280.393 3.12 280.985 4.032C281.577 4.944 281.873 6.032 281.873 7.296C281.873 8.544 281.577 9.624 280.985 10.536C280.393 11.448 279.553 12.152 278.465 12.648C277.377 13.128 276.081 13.368 274.577 13.368H269.465L271.193 11.616V18H267.305ZM271.193 12.048L269.465 10.2H274.361C275.561 10.2 276.457 9.944 277.049 9.432C277.641 8.92 277.937 8.208 277.937 7.296C277.937 6.368 277.641 5.648 277.049 5.136C276.457 4.624 275.561 4.368 274.361 4.368H269.465L271.193 2.52V12.048ZM281.596 18L289.085 1.2H292.925L300.437 18H296.357L290.213 3.168H291.749L285.581 18H281.596ZM285.34 14.4L286.373 11.448H295.013L296.069 14.4H285.34ZM309.985 18.288C308.689 18.288 307.481 18.08 306.361 17.664C305.257 17.232 304.297 16.624 303.481 15.84C302.665 15.056 302.025 14.136 301.561 13.08C301.113 12.024 300.889 10.864 300.889 9.6C300.889 8.336 301.113 7.176 301.561 6.12C302.025 5.064 302.665 4.144 303.481 3.36C304.313 2.576 305.281 1.976 306.385 1.56C307.489 1.128 308.697 0.912 310.009 0.912C311.465 0.912 312.777 1.168 313.945 1.68C315.129 2.176 316.121 2.912 316.921 3.888L314.425 6.192C313.849 5.536 313.209 5.048 312.505 4.728C311.801 4.392 311.033 4.224 310.201 4.224C309.417 4.224 308.697 4.352 308.041 4.608C307.385 4.864 306.817 5.232 306.337 5.712C305.857 6.192 305.481 6.76 305.209 7.416C304.953 8.072 304.825 8.8 304.825 9.6C304.825 10.4 304.953 11.128 305.209 11.784C305.481 12.44 305.857 13.008 306.337 13.488C306.817 13.968 307.385 14.336 308.041 14.592C308.697 14.848 309.417 14.976 310.201 14.976C311.033 14.976 311.801 14.816 312.505 14.496C313.209 14.16 313.849 13.656 314.425 12.984L316.921 15.288C316.121 16.264 315.129 17.008 313.945 17.52C312.777 18.032 311.457 18.288 309.985 18.288ZM323.027 14.16L322.811 9.672L330.851 1.2H335.171L327.923 9L325.763 11.304L323.027 14.16ZM319.547 18V1.2H323.411V18H319.547ZM331.043 18L325.067 10.68L327.611 7.92L335.579 18H331.043ZM337.312 18V1.2H341.2V18H337.312ZM345.187 18V1.2H348.403L358.315 13.296H356.755V1.2H360.595V18H357.403L347.467 5.904H349.027V18H345.187ZM372.682 18.288C371.354 18.288 370.13 18.08 369.01 17.664C367.906 17.232 366.938 16.624 366.106 15.84C365.29 15.056 364.65 14.136 364.186 13.08C363.738 12.024 363.514 10.864 363.514 9.6C363.514 8.336 363.738 7.176 364.186 6.12C364.65 5.064 365.298 4.144 366.13 3.36C366.962 2.576 367.938 1.976 369.058 1.56C370.178 1.128 371.41 0.912 372.754 0.912C374.242 0.912 375.578 1.16 376.762 1.656C377.962 2.152 378.97 2.872 379.786 3.816L377.29 6.12C376.682 5.48 376.018 5.008 375.298 4.704C374.578 4.384 373.794 4.224 372.946 4.224C372.13 4.224 371.386 4.352 370.714 4.608C370.042 4.864 369.458 5.232 368.962 5.712C368.482 6.192 368.106 6.76 367.834 7.416C367.578 8.072 367.45 8.8 367.45 9.6C367.45 10.384 367.578 11.104 367.834 11.76C368.106 12.416 368.482 12.992 368.962 13.488C369.458 13.968 370.034 14.336 370.69 14.592C371.362 14.848 372.098 14.976 372.898 14.976C373.666 14.976 374.41 14.856 375.13 14.616C375.866 14.36 376.578 13.936 377.266 13.344L379.474 16.152C378.562 16.84 377.498 17.368 376.282 17.736C375.082 18.104 373.882 18.288 372.682 18.288ZM375.922 15.648V9.336H379.474V16.152L375.922 15.648ZM382.408 21.696L383.992 15.936L384.52 18.096C383.832 18.096 383.264 17.896 382.816 17.496C382.384 17.096 382.168 16.544 382.168 15.84C382.168 15.136 382.392 14.576 382.84 14.16C383.288 13.744 383.84 13.536 384.496 13.536C385.168 13.536 385.72 13.752 386.152 14.184C386.584 14.6 386.8 15.152 386.8 15.84C386.8 16.048 386.784 16.256 386.752 16.464C386.72 16.656 386.656 16.896 386.56 17.184C386.48 17.456 386.344 17.808 386.152 18.24L384.784 21.696H382.408Z" fill="black"/>
<path d="M40.66 44V30H47.5C49.26 30 50.58 30.3333 51.46 31C52.3533 31.6667 52.8 32.5467 52.8 33.64C52.8 34.3733 52.62 35.0133 52.26 35.56C51.9 36.0933 51.4067 36.5067 50.78 36.8C50.1533 37.0933 49.4333 37.24 48.62 37.24L49 36.42C49.88 36.42 50.66 36.5667 51.34 36.86C52.02 37.14 52.5467 37.56 52.92 38.12C53.3067 38.68 53.5 39.3667 53.5 40.18C53.5 41.38 53.0267 42.32 52.08 43C51.1333 43.6667 49.74 44 47.9 44H40.66ZM43.88 41.56H47.66C48.5 41.56 49.1333 41.4267 49.56 41.16C50 40.88 50.22 40.44 50.22 39.84C50.22 39.2533 50 38.82 49.56 38.54C49.1333 38.2467 48.5 38.1 47.66 38.1H43.64V35.74H47.1C47.8867 35.74 48.4867 35.6067 48.9 35.34C49.3267 35.06 49.54 34.64 49.54 34.08C49.54 33.5333 49.3267 33.1267 48.9 32.86C48.4867 32.58 47.8867 32.44 47.1 32.44H43.88V41.56ZM62.173 44.24C60.1863 44.24 58.633 43.6867 57.513 42.58C56.393 41.4733 55.833 39.8933 55.833 37.84V30H59.073V37.72C59.073 39.0533 59.3463 40.0133 59.893 40.6C60.4396 41.1867 61.2063 41.48 62.193 41.48C63.1796 41.48 63.9463 41.1867 64.493 40.6C65.0396 40.0133 65.313 39.0533 65.313 37.72V30H68.513V37.84C68.513 39.8933 67.953 41.4733 66.833 42.58C65.713 43.6867 64.1596 44.24 62.173 44.24ZM71.7147 44V30H74.9547V44H71.7147ZM78.2772 44V30H81.5172V41.36H88.5372V44H78.2772ZM91.9389 44V32.64H87.4589V30H99.6589V32.64H95.1789V44H91.9389ZM110.066 36.3H116.786V38.9H110.066V36.3ZM110.306 44H107.066V30H117.646V32.6H110.306V44ZM126.503 44.24C125.396 44.24 124.37 44.06 123.423 43.7C122.49 43.34 121.676 42.8333 120.983 42.18C120.303 41.5267 119.77 40.76 119.383 39.88C119.01 39 118.823 38.04 118.823 37C118.823 35.96 119.01 35 119.383 34.12C119.77 33.24 120.31 32.4733 121.003 31.82C121.696 31.1667 122.51 30.66 123.443 30.3C124.376 29.94 125.39 29.76 126.483 29.76C127.59 29.76 128.603 29.94 129.523 30.3C130.456 30.66 131.263 31.1667 131.943 31.82C132.636 32.4733 133.176 33.24 133.563 34.12C133.95 34.9867 134.143 35.9467 134.143 37C134.143 38.04 133.95 39.0067 133.563 39.9C133.176 40.78 132.636 41.5467 131.943 42.2C131.263 42.84 130.456 43.34 129.523 43.7C128.603 44.06 127.596 44.24 126.503 44.24ZM126.483 41.48C127.11 41.48 127.683 41.3733 128.203 41.16C128.736 40.9467 129.203 40.64 129.603 40.24C130.003 39.84 130.31 39.3667 130.523 38.82C130.75 38.2733 130.863 37.6667 130.863 37C130.863 36.3333 130.75 35.7267 130.523 35.18C130.31 34.6333 130.003 34.16 129.603 33.76C129.216 33.36 128.756 33.0533 128.223 32.84C127.69 32.6267 127.11 32.52 126.483 32.52C125.856 32.52 125.276 32.6267 124.743 32.84C124.223 33.0533 123.763 33.36 123.363 33.76C122.963 34.16 122.65 34.6333 122.423 35.18C122.21 35.7267 122.103 36.3333 122.103 37C122.103 37.6533 122.21 38.26 122.423 38.82C122.65 39.3667 122.956 39.84 123.343 40.24C123.743 40.64 124.21 40.9467 124.743 41.16C125.276 41.3733 125.856 41.48 126.483 41.48ZM136.578 44V30H142.638C143.891 30 144.971 30.2067 145.878 30.62C146.785 31.02 147.485 31.6 147.978 32.36C148.471 33.12 148.718 34.0267 148.718 35.08C148.718 36.12 148.471 37.02 147.978 37.78C147.485 38.5267 146.785 39.1 145.878 39.5C144.971 39.9 143.891 40.1 142.638 40.1H138.378L139.818 38.68V44H136.578ZM145.478 44L141.978 38.92H145.438L148.978 44H145.478ZM139.818 39.04L138.378 37.52H142.458C143.458 37.52 144.205 37.3067 144.698 36.88C145.191 36.44 145.438 35.84 145.438 35.08C145.438 34.3067 145.191 33.7067 144.698 33.28C144.205 32.8533 143.458 32.64 142.458 32.64H138.378L139.818 31.1V39.04ZM156.949 44V30H159.629L165.589 39.88H164.169L170.029 30H172.689L172.729 44H169.689L169.669 34.66H170.229L165.549 42.52H164.089L159.309 34.66H159.989V44H156.949ZM182.851 44.24C181.744 44.24 180.717 44.06 179.771 43.7C178.837 43.34 178.024 42.8333 177.331 42.18C176.651 41.5267 176.117 40.76 175.731 39.88C175.357 39 175.171 38.04 175.171 37C175.171 35.96 175.357 35 175.731 34.12C176.117 33.24 176.657 32.4733 177.351 31.82C178.044 31.1667 178.857 30.66 179.791 30.3C180.724 29.94 181.737 29.76 182.831 29.76C183.937 29.76 184.951 29.94 185.871 30.3C186.804 30.66 187.611 31.1667 188.291 31.82C188.984 32.4733 189.524 33.24 189.911 34.12C190.297 34.9867 190.491 35.9467 190.491 37C190.491 38.04 190.297 39.0067 189.911 39.9C189.524 40.78 188.984 41.5467 188.291 42.2C187.611 42.84 186.804 43.34 185.871 43.7C184.951 44.06 183.944 44.24 182.851 44.24ZM182.831 41.48C183.457 41.48 184.031 41.3733 184.551 41.16C185.084 40.9467 185.551 40.64 185.951 40.24C186.351 39.84 186.657 39.3667 186.871 38.82C187.097 38.2733 187.211 37.6667 187.211 37C187.211 36.3333 187.097 35.7267 186.871 35.18C186.657 34.6333 186.351 34.16 185.951 33.76C185.564 33.36 185.104 33.0533 184.571 32.84C184.037 32.6267 183.457 32.52 182.831 32.52C182.204 32.52 181.624 32.6267 181.091 32.84C180.571 33.0533 180.111 33.36 179.711 33.76C179.311 34.16 178.997 34.6333 178.771 35.18C178.557 35.7267 178.451 36.3333 178.451 37C178.451 37.6533 178.557 38.26 178.771 38.82C178.997 39.3667 179.304 39.84 179.691 40.24C180.091 40.64 180.557 40.9467 181.091 41.16C181.624 41.3733 182.204 41.48 182.831 41.48ZM192.926 44V30H199.286C200.806 30 202.146 30.2933 203.306 30.88C204.466 31.4533 205.372 32.26 206.026 33.3C206.679 34.34 207.006 35.5733 207.006 37C207.006 38.4133 206.679 39.6467 206.026 40.7C205.372 41.74 204.466 42.5533 203.306 43.14C202.146 43.7133 200.806 44 199.286 44H192.926ZM196.166 41.34H199.126C200.059 41.34 200.866 41.1667 201.546 40.82C202.239 40.46 202.772 39.9533 203.146 39.3C203.532 38.6467 203.726 37.88 203.726 37C203.726 36.1067 203.532 35.34 203.146 34.7C202.772 34.0467 202.239 33.5467 201.546 33.2C200.866 32.84 200.059 32.66 199.126 32.66H196.166V41.34ZM212.429 35.64H219.169V38.16H212.429V35.64ZM212.669 41.4H220.289V44H209.449V30H220.029V32.6H212.669V41.4ZM222.867 44V30H228.927C230.18 30 231.26 30.2067 232.167 30.62C233.074 31.02 233.774 31.6 234.267 32.36C234.76 33.12 235.007 34.0267 235.007 35.08C235.007 36.12 234.76 37.02 234.267 37.78C233.774 38.5267 233.074 39.1 232.167 39.5C231.26 39.9 230.18 40.1 228.927 40.1H224.667L226.107 38.68V44H222.867ZM231.767 44L228.267 38.92H231.727L235.267 44H231.767ZM226.107 39.04L224.667 37.52H228.747C229.747 37.52 230.494 37.3067 230.987 36.88C231.48 36.44 231.727 35.84 231.727 35.08C231.727 34.3067 231.48 33.7067 230.987 33.28C230.494 32.8533 229.747 32.64 228.747 32.64H224.667L226.107 31.1V39.04ZM237.574 44V30H240.254L248.514 40.08H247.214V30H250.414V44H247.754L239.474 33.92H240.774V44H237.574ZM259.39 44V30H266.23C267.99 30 269.31 30.3333 270.19 31C271.084 31.6667 271.53 32.5467 271.53 33.64C271.53 34.3733 271.35 35.0133 270.99 35.56C270.63 36.0933 270.137 36.5067 269.51 36.8C268.884 37.0933 268.164 37.24 267.35 37.24L267.73 36.42C268.61 36.42 269.39 36.5667 270.07 36.86C270.75 37.14 271.277 37.56 271.65 38.12C272.037 38.68 272.23 39.3667 272.23 40.18C272.23 41.38 271.757 42.32 270.81 43C269.864 43.6667 268.47 44 266.63 44H259.39ZM262.61 41.56H266.39C267.23 41.56 267.864 41.4267 268.29 41.16C268.73 40.88 268.95 40.44 268.95 39.84C268.95 39.2533 268.73 38.82 268.29 38.54C267.864 38.2467 267.23 38.1 266.39 38.1H262.37V35.74H265.83C266.617 35.74 267.217 35.6067 267.63 35.34C268.057 35.06 268.27 34.64 268.27 34.08C268.27 33.5333 268.057 33.1267 267.63 32.86C267.217 32.58 266.617 32.44 265.83 32.44H262.61V41.56ZM274.683 44V30H280.743C281.997 30 283.077 30.2067 283.983 30.62C284.89 31.02 285.59 31.6 286.083 32.36C286.577 33.12 286.823 34.0267 286.823 35.08C286.823 36.12 286.577 37.02 286.083 37.78C285.59 38.5267 284.89 39.1 283.983 39.5C283.077 39.9 281.997 40.1 280.743 40.1H276.483L277.923 38.68V44H274.683ZM283.583 44L280.083 38.92H283.543L287.083 44H283.583ZM277.923 39.04L276.483 37.52H280.563C281.563 37.52 282.31 37.3067 282.803 36.88C283.297 36.44 283.543 35.84 283.543 35.08C283.543 34.3067 283.297 33.7067 282.803 33.28C282.31 32.8533 281.563 32.64 280.563 32.64H276.483L277.923 31.1V39.04ZM287.55 44L293.79 30H296.99L303.25 44H299.85L294.73 31.64H296.01L290.87 44H287.55ZM290.67 41L291.53 38.54H298.73L299.61 41H290.67ZM304.703 44V30H307.383L315.643 40.08H314.343V30H317.543V44H314.883L306.603 33.92H307.903V44H304.703ZM320.855 44V30H327.215C328.735 30 330.075 30.2933 331.235 30.88C332.395 31.4533 333.302 32.26 333.955 33.3C334.609 34.34 334.935 35.5733 334.935 37C334.935 38.4133 334.609 39.6467 333.955 40.7C333.302 41.74 332.395 42.5533 331.235 43.14C330.075 43.7133 328.735 44 327.215 44H320.855ZM324.095 41.34H327.055C327.989 41.34 328.795 41.1667 329.475 40.82C330.169 40.46 330.702 39.9533 331.075 39.3C331.462 38.6467 331.655 37.88 331.655 37C331.655 36.1067 331.462 35.34 331.075 34.7C330.702 34.0467 330.169 33.5467 329.475 33.2C328.795 32.84 327.989 32.66 327.055 32.66H324.095V41.34ZM341.979 44.24C340.859 44.24 339.785 44.0933 338.759 43.8C337.732 43.4933 336.905 43.1 336.279 42.62L337.379 40.18C337.979 40.6067 338.685 40.96 339.499 41.24C340.325 41.5067 341.159 41.64 341.999 41.64C342.639 41.64 343.152 41.58 343.539 41.46C343.939 41.3267 344.232 41.1467 344.419 40.92C344.605 40.6933 344.699 40.4333 344.699 40.14C344.699 39.7667 344.552 39.4733 344.259 39.26C343.965 39.0333 343.579 38.8533 343.099 38.72C342.619 38.5733 342.085 38.44 341.499 38.32C340.925 38.1867 340.345 38.0267 339.759 37.84C339.185 37.6533 338.659 37.4133 338.179 37.12C337.699 36.8267 337.305 36.44 336.999 35.96C336.705 35.48 336.559 34.8667 336.559 34.12C336.559 33.32 336.772 32.5933 337.199 31.94C337.639 31.2733 338.292 30.7467 339.159 30.36C340.039 29.96 341.139 29.76 342.459 29.76C343.339 29.76 344.205 29.8667 345.059 30.08C345.912 30.28 346.665 30.5867 347.319 31L346.319 33.46C345.665 33.0867 345.012 32.8133 344.359 32.64C343.705 32.4533 343.065 32.36 342.439 32.36C341.812 32.36 341.299 32.4333 340.899 32.58C340.499 32.7267 340.212 32.92 340.039 33.16C339.865 33.3867 339.779 33.6533 339.779 33.96C339.779 34.32 339.925 34.6133 340.219 34.84C340.512 35.0533 340.899 35.2267 341.379 35.36C341.859 35.4933 342.385 35.6267 342.959 35.76C343.545 35.8933 344.125 36.0467 344.699 36.22C345.285 36.3933 345.819 36.6267 346.299 36.92C346.779 37.2133 347.165 37.6 347.459 38.08C347.765 38.56 347.919 39.1667 347.919 39.9C347.919 40.6867 347.699 41.4067 347.259 42.06C346.819 42.7133 346.159 43.24 345.279 43.64C344.412 44.04 343.312 44.24 341.979 44.24Z" fill="black"/>
</svg>
