<svg width="98" height="9" viewBox="0 0 98 9" fill="none" xmlns="http://www.w3.org/2000/svg">
<path d="M2.33518 7.32528V1.70028H3.28973V7.32528H2.33518ZM-4.43161e-05 4.99006V4.03551H5.62496V4.99006H-4.43161e-05ZM10.4499 0.0127838C10.8078 0.0156248 11.1658 0.0838065 11.5237 0.217329C11.8817 0.350852 12.2084 0.572443 12.5039 0.882102C12.7993 1.18892 13.0365 1.60795 13.2155 2.1392C13.3945 2.67045 13.484 3.33665 13.484 4.13778C13.484 4.91335 13.4101 5.60227 13.2624 6.20455C13.1175 6.80398 12.9073 7.30966 12.6317 7.72159C12.359 8.13352 12.0266 8.44602 11.6345 8.65909C11.2453 8.87216 10.805 8.97869 10.3135 8.97869C9.82488 8.97869 9.38881 8.8821 9.00528 8.68892C8.6246 8.4929 8.3121 8.22159 8.06778 7.875C7.82631 7.52557 7.67148 7.12074 7.60329 6.66051H8.64307C8.73682 7.06108 8.9229 7.39205 9.20131 7.65341C9.48256 7.91193 9.85329 8.04119 10.3135 8.04119C10.9868 8.04119 11.5181 7.74716 11.9073 7.15909C12.2993 6.57102 12.4953 5.74006 12.4953 4.66619H12.4272C12.2681 4.90483 12.0791 5.1108 11.8604 5.28409C11.6416 5.45739 11.3987 5.59091 11.1317 5.68466C10.8647 5.77841 10.5806 5.82528 10.2794 5.82528C9.77943 5.82528 9.32062 5.7017 8.90301 5.45455C8.48824 5.20455 8.15585 4.86222 7.90585 4.42756C7.65869 3.99006 7.53511 3.49006 7.53511 2.92756C7.53511 2.39347 7.65443 1.90483 7.89307 1.46165C8.13454 1.01562 8.47261 0.660511 8.90727 0.396307C9.34477 0.132102 9.85898 0.00426126 10.4499 0.0127838ZM10.4499 0.950284C10.0919 0.950284 9.76949 1.03977 9.48256 1.21875C9.19846 1.39489 8.97261 1.63352 8.805 1.93466C8.64023 2.23295 8.55784 2.56392 8.55784 2.92756C8.55784 3.29119 8.63738 3.62216 8.79648 3.92045C8.95841 4.21591 9.17858 4.4517 9.45699 4.62784C9.73824 4.80114 10.0578 4.88778 10.4158 4.88778C10.6857 4.88778 10.9371 4.83523 11.1701 4.73011C11.403 4.62216 11.6061 4.47585 11.7794 4.29119C11.9556 4.10369 12.0934 3.89205 12.1928 3.65625C12.2922 3.41761 12.3419 3.16903 12.3419 2.91051C12.3419 2.5696 12.2595 2.25 12.0948 1.9517C11.9328 1.65341 11.7084 1.41193 11.4215 1.22727C11.1374 1.04261 10.8135 0.950284 10.4499 0.950284ZM18.2279 0.132102V8.85938H17.1711V1.24006H17.12L14.9893 2.65483V1.58097L17.1711 0.132102H18.2279ZM24.3856 8.85938L28.289 1.13778V1.0696H23.789V0.132102H29.3799V1.12074L25.4936 8.85938H24.3856ZM31.4755 8.85938L35.3789 1.13778V1.0696H30.8789V0.132102H36.4698V1.12074L32.5834 8.85938H31.4755ZM40.7173 8.97869C40.0752 8.97869 39.5284 8.80398 39.0767 8.45455C38.625 8.10227 38.2798 7.59233 38.0411 6.92472C37.8025 6.25426 37.6832 5.4446 37.6832 4.49574C37.6832 3.55256 37.8025 2.74716 38.0411 2.07955C38.2826 1.40909 38.6292 0.897727 39.0809 0.545454C39.5355 0.190341 40.0809 0.0127838 40.7173 0.0127838C41.3536 0.0127838 41.8977 0.190341 42.3494 0.545454C42.8039 0.897727 43.1505 1.40909 43.3892 2.07955C43.6306 2.74716 43.7514 3.55256 43.7514 4.49574C43.7514 5.4446 43.6321 6.25426 43.3934 6.92472C43.1548 7.59233 42.8096 8.10227 42.3579 8.45455C41.9062 8.80398 41.3593 8.97869 40.7173 8.97869ZM40.7173 8.04119C41.3536 8.04119 41.848 7.73437 42.2002 7.12074C42.5525 6.5071 42.7286 5.6321 42.7286 4.49574C42.7286 3.74006 42.6477 3.09659 42.4858 2.56534C42.3267 2.03409 42.0965 1.62926 41.7954 1.35085C41.4971 1.07244 41.1377 0.933239 40.7173 0.933239C40.0866 0.933239 39.5937 1.24432 39.2386 1.86648C38.8835 2.4858 38.7059 3.36222 38.7059 4.49574C38.7059 5.25142 38.7855 5.89347 38.9446 6.42188C39.1036 6.95028 39.3323 7.35227 39.6306 7.62784C39.9318 7.90341 40.294 8.04119 40.7173 8.04119ZM48.1661 8.97869C47.5809 8.97869 47.0639 8.875 46.615 8.66761C46.169 8.45739 45.821 8.16903 45.571 7.80256C45.321 7.43324 45.1974 7.01278 45.2002 6.54119C45.1974 6.17187 45.2698 5.83097 45.4176 5.51847C45.5653 5.20312 45.767 4.94034 46.0227 4.73011C46.2812 4.51705 46.5696 4.3821 46.8877 4.32528V4.27415C46.4701 4.16619 46.1377 3.93182 45.8906 3.57102C45.6434 3.20739 45.5213 2.79403 45.5241 2.33097C45.5213 1.88778 45.6335 1.49148 45.8608 1.14205C46.088 0.792613 46.4005 0.517045 46.7983 0.315341C47.1988 0.113636 47.6548 0.0127838 48.1661 0.0127838C48.6718 0.0127838 49.1235 0.113636 49.5213 0.315341C49.919 0.517045 50.2315 0.792613 50.4588 1.14205C50.6889 1.49148 50.8054 1.88778 50.8082 2.33097C50.8054 2.79403 50.6789 3.20739 50.4289 3.57102C50.1818 3.93182 49.8536 4.16619 49.4446 4.27415V4.32528C49.7599 4.3821 50.044 4.51705 50.2968 4.73011C50.5497 4.94034 50.7514 5.20312 50.9019 5.51847C51.0525 5.83097 51.1292 6.17187 51.1321 6.54119C51.1292 7.01278 51.0014 7.43324 50.7485 7.80256C50.4985 8.16903 50.1505 8.45739 49.7045 8.66761C49.2613 8.875 48.7485 8.97869 48.1661 8.97869ZM48.1661 8.04119C48.561 8.04119 48.9019 7.97727 49.1889 7.84943C49.4758 7.72159 49.6974 7.54119 49.8536 7.30824C50.0099 7.07528 50.0894 6.80256 50.0923 6.49006C50.0894 6.16051 50.0042 5.86932 49.8366 5.61648C49.669 5.36364 49.4403 5.16477 49.1505 5.01989C48.8636 4.875 48.5355 4.80256 48.1661 4.80256C47.794 4.80256 47.4616 4.875 47.169 5.01989C46.8792 5.16477 46.6505 5.36364 46.4829 5.61648C46.3181 5.86932 46.2372 6.16051 46.24 6.49006C46.2372 6.80256 46.3125 7.07528 46.4659 7.30824C46.6221 7.54119 46.8451 7.72159 47.1349 7.84943C47.4247 7.97727 47.7684 8.04119 48.1661 8.04119ZM48.1661 3.89915C48.4786 3.89915 48.7556 3.83665 48.9971 3.71165C49.2414 3.58665 49.4332 3.41193 49.5724 3.1875C49.7116 2.96307 49.7826 2.70028 49.7855 2.39915C49.7826 2.10369 49.713 1.84659 49.5767 1.62784C49.4403 1.40625 49.2514 1.2358 49.0099 1.11648C48.7684 0.994318 48.4872 0.933239 48.1661 0.933239C47.8394 0.933239 47.5539 0.994318 47.3096 1.11648C47.0653 1.2358 46.8764 1.40625 46.7429 1.62784C46.6093 1.84659 46.544 2.10369 46.5468 2.39915C46.544 2.70028 46.6108 2.96307 46.7471 3.1875C46.8863 3.41193 47.0781 3.58665 47.3224 3.71165C47.5667 3.83665 47.848 3.89915 48.1661 3.89915ZM52.7652 8.85938V8.09233L55.6459 4.93892C55.984 4.5696 56.2624 4.24858 56.4811 3.97585C56.6999 3.70028 56.8618 3.44176 56.9669 3.20028C57.0749 2.95597 57.1289 2.70028 57.1289 2.43324C57.1289 2.12642 57.055 1.8608 56.9073 1.63636C56.7624 1.41193 56.5635 1.23864 56.3107 1.11648C56.0578 0.994318 55.7737 0.933239 55.4584 0.933239C55.1232 0.933239 54.8306 1.00284 54.5806 1.14205C54.3334 1.27841 54.1416 1.47017 54.0053 1.71733C53.8718 1.96449 53.805 2.25426 53.805 2.58665H52.7993C52.7993 2.07528 52.9172 1.62642 53.153 1.24006C53.3888 0.853693 53.7098 0.552556 54.1161 0.336647C54.5252 0.120738 54.984 0.0127838 55.4925 0.0127838C56.0039 0.0127838 56.457 0.120738 56.8519 0.336647C57.2468 0.552556 57.5564 0.84375 57.7809 1.21023C58.0053 1.5767 58.1175 1.98438 58.1175 2.43324C58.1175 2.75426 58.0593 3.06818 57.9428 3.375C57.8291 3.67898 57.6303 4.01847 57.3462 4.39347C57.0649 4.76562 56.6743 5.22017 56.1743 5.7571L54.2141 7.85369V7.92188H58.2709V8.85938H52.7652ZM63.2013 7.0696V6.20028L67.0365 0.132102H67.6672V1.47869H67.2411L64.3434 6.06392V6.1321H69.5081V7.0696H63.2013ZM67.3093 8.85938V6.8054V6.40057V0.132102H68.3149V8.85938H67.3093ZM71.1051 8.85938V8.09233L73.9858 4.93892C74.3238 4.5696 74.6022 4.24858 74.821 3.97585C75.0397 3.70028 75.2017 3.44176 75.3068 3.20028C75.4147 2.95597 75.4687 2.70028 75.4687 2.43324C75.4687 2.12642 75.3948 1.8608 75.2471 1.63636C75.1022 1.41193 74.9034 1.23864 74.6505 1.11648C74.3977 0.994318 74.1136 0.933239 73.7983 0.933239C73.463 0.933239 73.1704 1.00284 72.9204 1.14205C72.6733 1.27841 72.4815 1.47017 72.3451 1.71733C72.2116 1.96449 72.1448 2.25426 72.1448 2.58665H71.1392C71.1392 2.07528 71.2571 1.62642 71.4929 1.24006C71.7286 0.853693 72.0497 0.552556 72.4559 0.336647C72.865 0.120738 73.3238 0.0127838 73.8323 0.0127838C74.3437 0.0127838 74.7968 0.120738 75.1917 0.336647C75.5866 0.552556 75.8963 0.84375 76.1207 1.21023C76.3451 1.5767 76.4573 1.98438 76.4573 2.43324C76.4573 2.75426 76.3991 3.06818 76.2826 3.375C76.169 3.67898 75.9701 4.01847 75.686 4.39347C75.4048 4.76562 75.0142 5.22017 74.5142 5.7571L72.5539 7.85369V7.92188H76.6108V8.85938H71.1051ZM81.4389 0.132102V8.85938H80.3821V1.24006H80.3309L78.2002 2.65483V1.58097L80.3821 0.132102H81.4389ZM86.8977 8.97869C86.3352 8.97869 85.8338 8.8821 85.3934 8.68892C84.9559 8.49574 84.6079 8.22727 84.3494 7.88352C84.0937 7.53693 83.9545 7.13494 83.9318 6.67756H85.0056C85.0284 6.95881 85.125 7.2017 85.2954 7.40625C85.4659 7.60795 85.6889 7.7642 85.9644 7.875C86.24 7.9858 86.5454 8.04119 86.8806 8.04119C87.2556 8.04119 87.588 7.97585 87.8778 7.84517C88.1676 7.71449 88.3948 7.53267 88.5596 7.29972C88.7244 7.06676 88.8068 6.79688 88.8068 6.49006C88.8068 6.16903 88.7272 5.88636 88.5681 5.64205C88.409 5.39489 88.1761 5.2017 87.8693 5.0625C87.5625 4.9233 87.1875 4.85369 86.7443 4.85369H86.0454V3.91619H86.7443C87.0909 3.91619 87.3948 3.85369 87.6562 3.72869C87.9204 3.60369 88.1264 3.42756 88.2741 3.20028C88.4247 2.97301 88.5 2.70597 88.5 2.39915C88.5 2.10369 88.4346 1.84659 88.3039 1.62784C88.1733 1.40909 87.9886 1.23864 87.75 1.11648C87.5142 0.994318 87.2358 0.933239 86.9147 0.933239C86.6136 0.933239 86.3295 0.988636 86.0625 1.09943C85.7983 1.20739 85.5823 1.36506 85.4147 1.57244C85.2471 1.77699 85.1562 2.02415 85.142 2.31392H84.1193C84.1363 1.85653 84.2741 1.45597 84.5326 1.11222C84.7911 0.765625 85.1292 0.495738 85.5468 0.302557C85.9673 0.109375 86.4289 0.0127838 86.9318 0.0127838C87.4715 0.0127838 87.9346 0.122159 88.321 0.340909C88.7073 0.556818 89.0042 0.842329 89.2116 1.19744C89.419 1.55256 89.5227 1.93608 89.5227 2.34801C89.5227 2.83949 89.3934 3.25852 89.1349 3.60511C88.8792 3.9517 88.5312 4.19176 88.0909 4.32528V4.39347C88.642 4.48437 89.0724 4.71875 89.3821 5.09659C89.6917 5.47159 89.8465 5.93608 89.8465 6.49006C89.8465 6.96449 89.7173 7.39062 89.4588 7.76847C89.2031 8.14347 88.8536 8.43892 88.4105 8.65483C87.9673 8.87074 87.463 8.97869 86.8977 8.97869ZM94.436 8.97869C93.794 8.97869 93.2471 8.80398 92.7954 8.45455C92.3437 8.10227 91.9985 7.59233 91.7599 6.92472C91.5213 6.25426 91.4019 5.4446 91.4019 4.49574C91.4019 3.55256 91.5213 2.74716 91.7599 2.07955C92.0014 1.40909 92.348 0.897727 92.7997 0.545454C93.2542 0.190341 93.7997 0.0127838 94.436 0.0127838C95.0724 0.0127838 95.6164 0.190341 96.0681 0.545454C96.5227 0.897727 96.8693 1.40909 97.1079 2.07955C97.3494 2.74716 97.4701 3.55256 97.4701 4.49574C97.4701 5.4446 97.3508 6.25426 97.1122 6.92472C96.8735 7.59233 96.5284 8.10227 96.0767 8.45455C95.625 8.80398 95.0781 8.97869 94.436 8.97869ZM94.436 8.04119C95.0724 8.04119 95.5667 7.73437 95.919 7.12074C96.2713 6.5071 96.4474 5.6321 96.4474 4.49574C96.4474 3.74006 96.3664 3.09659 96.2045 2.56534C96.0454 2.03409 95.8153 1.62926 95.5142 1.35085C95.2159 1.07244 94.8565 0.933239 94.436 0.933239C93.8054 0.933239 93.3125 1.24432 92.9573 1.86648C92.6022 2.4858 92.4247 3.36222 92.4247 4.49574C92.4247 5.25142 92.5042 5.89347 92.6633 6.42188C92.8224 6.95028 93.0511 7.35227 93.3494 7.62784C93.6505 7.90341 94.0127 8.04119 94.436 8.04119Z" fill="#202020"/>
</svg>
