<svg width="107" height="9" viewBox="0 0 107 9" fill="none" xmlns="http://www.w3.org/2000/svg">
<path d="M2.33518 7.32528V1.70028H3.28973V7.32528H2.33518ZM-4.43161e-05 4.99006V4.03551H5.62496V4.99006H-4.43161e-05ZM10.4499 0.0127838C10.8078 0.0156248 11.1658 0.0838065 11.5237 0.217329C11.8817 0.350852 12.2084 0.572443 12.5039 0.882102C12.7993 1.18892 13.0365 1.60795 13.2155 2.1392C13.3945 2.67045 13.484 3.33665 13.484 4.13778C13.484 4.91335 13.4101 5.60227 13.2624 6.20455C13.1175 6.80398 12.9073 7.30966 12.6317 7.72159C12.359 8.13352 12.0266 8.44602 11.6345 8.65909C11.2453 8.87216 10.805 8.97869 10.3135 8.97869C9.82488 8.97869 9.38881 8.8821 9.00528 8.68892C8.6246 8.4929 8.3121 8.22159 8.06778 7.875C7.82631 7.52557 7.67148 7.12074 7.60329 6.66051H8.64307C8.73682 7.06108 8.9229 7.39205 9.20131 7.65341C9.48256 7.91193 9.85329 8.04119 10.3135 8.04119C10.9868 8.04119 11.5181 7.74716 11.9073 7.15909C12.2993 6.57102 12.4953 5.74006 12.4953 4.66619H12.4272C12.2681 4.90483 12.0791 5.1108 11.8604 5.28409C11.6416 5.45739 11.3987 5.59091 11.1317 5.68466C10.8647 5.77841 10.5806 5.82528 10.2794 5.82528C9.77943 5.82528 9.32062 5.7017 8.90301 5.45455C8.48824 5.20455 8.15585 4.86222 7.90585 4.42756C7.65869 3.99006 7.53511 3.49006 7.53511 2.92756C7.53511 2.39347 7.65443 1.90483 7.89307 1.46165C8.13454 1.01562 8.47261 0.660511 8.90727 0.396307C9.34477 0.132102 9.85898 0.00426126 10.4499 0.0127838ZM10.4499 0.950284C10.0919 0.950284 9.76949 1.03977 9.48256 1.21875C9.19846 1.39489 8.97261 1.63352 8.805 1.93466C8.64023 2.23295 8.55784 2.56392 8.55784 2.92756C8.55784 3.29119 8.63738 3.62216 8.79648 3.92045C8.95841 4.21591 9.17858 4.4517 9.45699 4.62784C9.73824 4.80114 10.0578 4.88778 10.4158 4.88778C10.6857 4.88778 10.9371 4.83523 11.1701 4.73011C11.403 4.62216 11.6061 4.47585 11.7794 4.29119C11.9556 4.10369 12.0934 3.89205 12.1928 3.65625C12.2922 3.41761 12.3419 3.16903 12.3419 2.91051C12.3419 2.5696 12.2595 2.25 12.0948 1.9517C11.9328 1.65341 11.7084 1.41193 11.4215 1.22727C11.1374 1.04261 10.8135 0.950284 10.4499 0.950284ZM18.2279 0.132102V8.85938H17.1711V1.24006H17.12L14.9893 2.65483V1.58097L17.1711 0.132102H18.2279ZM26.8913 0.0127838C27.2492 0.0156248 27.6072 0.0838065 27.9652 0.217329C28.3231 0.350852 28.6498 0.572443 28.9453 0.882102C29.2407 1.18892 29.4779 1.60795 29.6569 2.1392C29.8359 2.67045 29.9254 3.33665 29.9254 4.13778C29.9254 4.91335 29.8515 5.60227 29.7038 6.20455C29.5589 6.80398 29.3487 7.30966 29.0731 7.72159C28.8004 8.13352 28.468 8.44602 28.076 8.65909C27.6867 8.87216 27.2464 8.97869 26.7549 8.97869C26.2663 8.97869 25.8302 8.8821 25.4467 8.68892C25.066 8.4929 24.7535 8.22159 24.5092 7.875C24.2677 7.52557 24.1129 7.12074 24.0447 6.66051H25.0845C25.1782 7.06108 25.3643 7.39205 25.6427 7.65341C25.924 7.91193 26.2947 8.04119 26.7549 8.04119C27.4282 8.04119 27.9595 7.74716 28.3487 7.15909C28.7407 6.57102 28.9367 5.74006 28.9367 4.66619H28.8686C28.7095 4.90483 28.5206 5.1108 28.3018 5.28409C28.0831 5.45739 27.8402 5.59091 27.5731 5.68466C27.3061 5.77841 27.022 5.82528 26.7208 5.82528C26.2208 5.82528 25.762 5.7017 25.3444 5.45455C24.9296 5.20455 24.5973 4.86222 24.3473 4.42756C24.1001 3.99006 23.9765 3.49006 23.9765 2.92756C23.9765 2.39347 24.0958 1.90483 24.3345 1.46165C24.5759 1.01562 24.914 0.660511 25.3487 0.396307C25.7862 0.132102 26.3004 0.00426126 26.8913 0.0127838ZM26.8913 0.950284C26.5333 0.950284 26.2109 1.03977 25.924 1.21875C25.6399 1.39489 25.414 1.63352 25.2464 1.93466C25.0816 2.23295 24.9992 2.56392 24.9992 2.92756C24.9992 3.29119 25.0788 3.62216 25.2379 3.92045C25.3998 4.21591 25.62 4.4517 25.8984 4.62784C26.1796 4.80114 26.4992 4.88778 26.8572 4.88778C27.1271 4.88778 27.3785 4.83523 27.6115 4.73011C27.8444 4.62216 28.0475 4.47585 28.2208 4.29119C28.397 4.10369 28.5348 3.89205 28.6342 3.65625C28.7336 3.41761 28.7833 3.16903 28.7833 2.91051C28.7833 2.5696 28.701 2.25 28.5362 1.9517C28.3742 1.65341 28.1498 1.41193 27.8629 1.22727C27.5788 1.04261 27.2549 0.950284 26.8913 0.950284ZM34.3796 0.0127838C34.7375 0.0156248 35.0955 0.0838065 35.4534 0.217329C35.8114 0.350852 36.1381 0.572443 36.4335 0.882102C36.729 1.18892 36.9662 1.60795 37.1452 2.1392C37.3242 2.67045 37.4137 3.33665 37.4137 4.13778C37.4137 4.91335 37.3398 5.60227 37.1921 6.20455C37.0472 6.80398 36.837 7.30966 36.5614 7.72159C36.2887 8.13352 35.9563 8.44602 35.5642 8.65909C35.175 8.87216 34.7347 8.97869 34.2432 8.97869C33.7546 8.97869 33.3185 8.8821 32.935 8.68892C32.5543 8.4929 32.2418 8.22159 31.9975 7.875C31.756 7.52557 31.6012 7.12074 31.533 6.66051H32.5728C32.6665 7.06108 32.8526 7.39205 33.131 7.65341C33.4122 7.91193 33.783 8.04119 34.2432 8.04119C34.9165 8.04119 35.4478 7.74716 35.837 7.15909C36.229 6.57102 36.425 5.74006 36.425 4.66619H36.3568C36.1978 4.90483 36.0088 5.1108 35.7901 5.28409C35.5713 5.45739 35.3284 5.59091 35.0614 5.68466C34.7943 5.77841 34.5103 5.82528 34.2091 5.82528C33.7091 5.82528 33.2503 5.7017 32.8327 5.45455C32.4179 5.20455 32.0855 4.86222 31.8355 4.42756C31.5884 3.99006 31.4648 3.49006 31.4648 2.92756C31.4648 2.39347 31.5841 1.90483 31.8228 1.46165C32.0642 1.01562 32.4023 0.660511 32.837 0.396307C33.2745 0.132102 33.7887 0.00426126 34.3796 0.0127838ZM34.3796 0.950284C34.0216 0.950284 33.6992 1.03977 33.4122 1.21875C33.1282 1.39489 32.9023 1.63352 32.7347 1.93466C32.5699 2.23295 32.4875 2.56392 32.4875 2.92756C32.4875 3.29119 32.5671 3.62216 32.7262 3.92045C32.8881 4.21591 33.1083 4.4517 33.3867 4.62784C33.6679 4.80114 33.9875 4.88778 34.3455 4.88778C34.6154 4.88778 34.8668 4.83523 35.0997 4.73011C35.3327 4.62216 35.5358 4.47585 35.7091 4.29119C35.8853 4.10369 36.023 3.89205 36.1225 3.65625C36.2219 3.41761 36.2716 3.16903 36.2716 2.91051C36.2716 2.5696 36.1892 2.25 36.0245 1.9517C35.8625 1.65341 35.6381 1.41193 35.3512 1.22727C35.0671 1.04261 34.7432 0.950284 34.3796 0.950284ZM41.8679 0.0127838C42.2258 0.0156248 42.5838 0.0838065 42.9417 0.217329C43.2997 0.350852 43.6264 0.572443 43.9218 0.882102C44.2173 1.18892 44.4545 1.60795 44.6335 2.1392C44.8125 2.67045 44.9019 3.33665 44.9019 4.13778C44.9019 4.91335 44.8281 5.60227 44.6804 6.20455C44.5355 6.80398 44.3252 7.30966 44.0497 7.72159C43.7769 8.13352 43.4446 8.44602 43.0525 8.65909C42.6633 8.87216 42.223 8.97869 41.7315 8.97869C41.2429 8.97869 40.8068 8.8821 40.4233 8.68892C40.0426 8.4929 39.7301 8.22159 39.4858 7.875C39.2443 7.52557 39.0894 7.12074 39.0213 6.66051H40.061C40.1548 7.06108 40.3409 7.39205 40.6193 7.65341C40.9005 7.91193 41.2713 8.04119 41.7315 8.04119C42.4048 8.04119 42.936 7.74716 43.3252 7.15909C43.7173 6.57102 43.9133 5.74006 43.9133 4.66619H43.8451C43.686 4.90483 43.4971 5.1108 43.2784 5.28409C43.0596 5.45739 42.8167 5.59091 42.5497 5.68466C42.2826 5.77841 41.9985 5.82528 41.6974 5.82528C41.1974 5.82528 40.7386 5.7017 40.321 5.45455C39.9062 5.20455 39.5738 4.86222 39.3238 4.42756C39.0767 3.99006 38.9531 3.49006 38.9531 2.92756C38.9531 2.39347 39.0724 1.90483 39.311 1.46165C39.5525 1.01562 39.8906 0.660511 40.3252 0.396307C40.7627 0.132102 41.2769 0.00426126 41.8679 0.0127838ZM41.8679 0.950284C41.5099 0.950284 41.1875 1.03977 40.9005 1.21875C40.6164 1.39489 40.3906 1.63352 40.223 1.93466C40.0582 2.23295 39.9758 2.56392 39.9758 2.92756C39.9758 3.29119 40.0554 3.62216 40.2144 3.92045C40.3764 4.21591 40.5965 4.4517 40.875 4.62784C41.1562 4.80114 41.4758 4.88778 41.8338 4.88778C42.1036 4.88778 42.3551 4.83523 42.588 4.73011C42.821 4.62216 43.0241 4.47585 43.1974 4.29119C43.3735 4.10369 43.5113 3.89205 43.6108 3.65625C43.7102 3.41761 43.7599 3.16903 43.7599 2.91051C43.7599 2.5696 43.6775 2.25 43.5127 1.9517C43.3508 1.65341 43.1264 1.41193 42.8394 1.22727C42.5554 1.04261 42.2315 0.950284 41.8679 0.950284ZM46.3732 7.0696V6.20028L50.2084 0.132102H50.8391V1.47869H50.413L47.5152 6.06392V6.1321H52.68V7.0696H46.3732ZM50.4811 8.85938V6.8054V6.40057V0.132102H51.4868V8.85938H50.4811ZM54.0724 7.0696V6.20028L57.9076 0.132102H58.5383V1.47869H58.1122L55.2144 6.06392V6.1321H60.3792V7.0696H54.0724ZM58.1804 8.85938V6.8054V6.40057V0.132102H59.186V8.85938H58.1804ZM64.7034 8.97869C64.2034 8.97869 63.7532 8.87926 63.3526 8.6804C62.952 8.48153 62.631 8.20881 62.3895 7.86222C62.148 7.51562 62.0159 7.12074 61.9932 6.67756H63.0159C63.0557 7.07244 63.2347 7.39915 63.5529 7.65767C63.8739 7.91335 64.2574 8.04119 64.7034 8.04119C65.0614 8.04119 65.3796 7.95739 65.658 7.78977C65.9392 7.62216 66.1594 7.39205 66.3185 7.09943C66.4804 6.80398 66.5614 6.47017 66.5614 6.09801C66.5614 5.71733 66.4776 5.37784 66.31 5.07955C66.1452 4.77841 65.9179 4.54119 65.6282 4.3679C65.3384 4.1946 65.0074 4.10653 64.6353 4.10369C64.3682 4.10085 64.0941 4.14205 63.8128 4.22727C63.5316 4.30966 63.3 4.41619 63.1182 4.54688L62.1296 4.42756L62.658 0.132102H67.1921V1.0696H63.5443L63.2375 3.64347H63.2887C63.4676 3.50142 63.6921 3.38352 63.962 3.28977C64.2318 3.19602 64.5131 3.14915 64.8057 3.14915C65.3398 3.14915 65.8157 3.27699 66.2333 3.53267C66.6537 3.78551 66.9833 4.1321 67.2219 4.57244C67.4634 5.01278 67.5841 5.51562 67.5841 6.08097C67.5841 6.63778 67.4591 7.13494 67.2091 7.57244C66.962 8.0071 66.621 8.35085 66.1864 8.60369C65.7517 8.85369 65.2574 8.97869 64.7034 8.97869ZM75.3792 8.97869C74.8792 8.97869 74.4289 8.87926 74.0284 8.6804C73.6278 8.48153 73.3068 8.20881 73.0653 7.86222C72.8238 7.51562 72.6917 7.12074 72.669 6.67756H73.6917C73.7315 7.07244 73.9105 7.39915 74.2286 7.65767C74.5497 7.91335 74.9332 8.04119 75.3792 8.04119C75.7372 8.04119 76.0554 7.95739 76.3338 7.78977C76.615 7.62216 76.8352 7.39205 76.9943 7.09943C77.1562 6.80398 77.2372 6.47017 77.2372 6.09801C77.2372 5.71733 77.1534 5.37784 76.9858 5.07955C76.821 4.77841 76.5937 4.54119 76.3039 4.3679C76.0142 4.1946 75.6832 4.10653 75.311 4.10369C75.044 4.10085 74.7698 4.14205 74.4886 4.22727C74.2073 4.30966 73.9758 4.41619 73.794 4.54688L72.8054 4.42756L73.3338 0.132102H77.8679V1.0696H74.2201L73.9133 3.64347H73.9644C74.1434 3.50142 74.3679 3.38352 74.6377 3.28977C74.9076 3.19602 75.1889 3.14915 75.4815 3.14915C76.0156 3.14915 76.4914 3.27699 76.909 3.53267C77.3295 3.78551 77.659 4.1321 77.8977 4.57244C78.1392 5.01278 78.2599 5.51562 78.2599 6.08097C78.2599 6.63778 78.1349 7.13494 77.8849 7.57244C77.6377 8.0071 77.2968 8.35085 76.8622 8.60369C76.4275 8.85369 75.9332 8.97869 75.3792 8.97869ZM79.9527 8.85938V8.09233L82.8334 4.93892C83.1715 4.5696 83.4499 4.24858 83.6686 3.97585C83.8874 3.70028 84.0493 3.44176 84.1544 3.20028C84.2624 2.95597 84.3164 2.70028 84.3164 2.43324C84.3164 2.12642 84.2425 1.8608 84.0948 1.63636C83.9499 1.41193 83.751 1.23864 83.4982 1.11648C83.2453 0.994318 82.9612 0.933239 82.6459 0.933239C82.3107 0.933239 82.0181 1.00284 81.7681 1.14205C81.5209 1.27841 81.3291 1.47017 81.1928 1.71733C81.0593 1.96449 80.9925 2.25426 80.9925 2.58665H79.9868C79.9868 2.07528 80.1047 1.62642 80.3405 1.24006C80.5763 0.853693 80.8973 0.552556 81.3036 0.336647C81.7127 0.120738 82.1715 0.0127838 82.68 0.0127838C83.1914 0.0127838 83.6445 0.120738 84.0394 0.336647C84.4343 0.552556 84.7439 0.84375 84.9684 1.21023C85.1928 1.5767 85.305 1.98438 85.305 2.43324C85.305 2.75426 85.2468 3.06818 85.1303 3.375C85.0166 3.67898 84.8178 4.01847 84.5337 4.39347C84.2524 4.76562 83.8618 5.22017 83.3618 5.7571L81.4016 7.85369V7.92188H85.4584V8.85938H79.9527ZM90.2865 0.132102V8.85938H89.2297V1.24006H89.1786L87.0479 2.65483V1.58097L89.2297 0.132102H90.2865ZM95.7453 8.97869C95.1828 8.97869 94.6814 8.8821 94.2411 8.68892C93.8036 8.49574 93.4556 8.22727 93.197 7.88352C92.9414 7.53693 92.8022 7.13494 92.7794 6.67756H93.8533C93.876 6.95881 93.9726 7.2017 94.1431 7.40625C94.3135 7.60795 94.5365 7.7642 94.8121 7.875C95.0877 7.9858 95.3931 8.04119 95.7283 8.04119C96.1033 8.04119 96.4357 7.97585 96.7255 7.84517C97.0152 7.71449 97.2425 7.53267 97.4073 7.29972C97.572 7.06676 97.6544 6.79688 97.6544 6.49006C97.6544 6.16903 97.5749 5.88636 97.4158 5.64205C97.2567 5.39489 97.0237 5.2017 96.7169 5.0625C96.4101 4.9233 96.0351 4.85369 95.5919 4.85369H94.8931V3.91619H95.5919C95.9385 3.91619 96.2425 3.85369 96.5039 3.72869C96.7681 3.60369 96.974 3.42756 97.1218 3.20028C97.2723 2.97301 97.3476 2.70597 97.3476 2.39915C97.3476 2.10369 97.2823 1.84659 97.1516 1.62784C97.0209 1.40909 96.8362 1.23864 96.5976 1.11648C96.3618 0.994318 96.0834 0.933239 95.7624 0.933239C95.4612 0.933239 95.1772 0.988636 94.9101 1.09943C94.6459 1.20739 94.43 1.36506 94.2624 1.57244C94.0948 1.77699 94.0039 2.02415 93.9897 2.31392H92.9669C92.984 1.85653 93.1218 1.45597 93.3803 1.11222C93.6388 0.765625 93.9769 0.495738 94.3945 0.302557C94.8149 0.109375 95.2766 0.0127838 95.7794 0.0127838C96.3192 0.0127838 96.7823 0.122159 97.1686 0.340909C97.555 0.556818 97.8519 0.842329 98.0593 1.19744C98.2666 1.55256 98.3703 1.93608 98.3703 2.34801C98.3703 2.83949 98.2411 3.25852 97.9826 3.60511C97.7269 3.9517 97.3789 4.19176 96.9385 4.32528V4.39347C97.4897 4.48437 97.9201 4.71875 98.2297 5.09659C98.5394 5.47159 98.6942 5.93608 98.6942 6.49006C98.6942 6.96449 98.5649 7.39062 98.3064 7.76847C98.0507 8.14347 97.7013 8.43892 97.2581 8.65483C96.8149 8.87074 96.3107 8.97869 95.7453 8.97869ZM103.284 8.97869C102.642 8.97869 102.095 8.80398 101.643 8.45455C101.191 8.10227 100.846 7.59233 100.608 6.92472C100.369 6.25426 100.25 5.4446 100.25 4.49574C100.25 3.55256 100.369 2.74716 100.608 2.07955C100.849 1.40909 101.196 0.897727 101.647 0.545454C102.102 0.190341 102.647 0.0127838 103.284 0.0127838C103.92 0.0127838 104.464 0.190341 104.916 0.545454C105.37 0.897727 105.717 1.40909 105.956 2.07955C106.197 2.74716 106.318 3.55256 106.318 4.49574C106.318 5.4446 106.198 6.25426 105.96 6.92472C105.721 7.59233 105.376 8.10227 104.924 8.45455C104.473 8.80398 103.926 8.97869 103.284 8.97869ZM103.284 8.04119C103.92 8.04119 104.414 7.73437 104.767 7.12074C105.119 6.5071 105.295 5.6321 105.295 4.49574C105.295 3.74006 105.214 3.09659 105.052 2.56534C104.893 2.03409 104.663 1.62926 104.362 1.35085C104.064 1.07244 103.704 0.933239 103.284 0.933239C102.653 0.933239 102.16 1.24432 101.805 1.86648C101.45 2.4858 101.272 3.36222 101.272 4.49574C101.272 5.25142 101.352 5.89347 101.511 6.42188C101.67 6.95028 101.899 7.35227 102.197 7.62784C102.498 7.90341 102.86 8.04119 103.284 8.04119Z" fill="#202020"/>
</svg>
