<svg width="105" height="9" viewBox="0 0 105 9" fill="none" xmlns="http://www.w3.org/2000/svg">
<path d="M2.33518 7.32528V1.70028H3.28973V7.32528H2.33518ZM-4.43161e-05 4.99006V4.03551H5.62496V4.99006H-4.43161e-05ZM10.4499 0.0127838C10.8078 0.0156248 11.1658 0.0838065 11.5237 0.217329C11.8817 0.350852 12.2084 0.572443 12.5039 0.882102C12.7993 1.18892 13.0365 1.60795 13.2155 2.1392C13.3945 2.67045 13.484 3.33665 13.484 4.13778C13.484 4.91335 13.4101 5.60227 13.2624 6.20455C13.1175 6.80398 12.9073 7.30966 12.6317 7.72159C12.359 8.13352 12.0266 8.44602 11.6345 8.65909C11.2453 8.87216 10.805 8.97869 10.3135 8.97869C9.82488 8.97869 9.38881 8.8821 9.00528 8.68892C8.6246 8.4929 8.3121 8.22159 8.06778 7.875C7.82631 7.52557 7.67148 7.12074 7.60329 6.66051H8.64307C8.73682 7.06108 8.9229 7.39205 9.20131 7.65341C9.48256 7.91193 9.85329 8.04119 10.3135 8.04119C10.9868 8.04119 11.5181 7.74716 11.9073 7.15909C12.2993 6.57102 12.4953 5.74006 12.4953 4.66619H12.4272C12.2681 4.90483 12.0791 5.1108 11.8604 5.28409C11.6416 5.45739 11.3987 5.59091 11.1317 5.68466C10.8647 5.77841 10.5806 5.82528 10.2794 5.82528C9.77943 5.82528 9.32062 5.7017 8.90301 5.45455C8.48824 5.20455 8.15585 4.86222 7.90585 4.42756C7.65869 3.99006 7.53511 3.49006 7.53511 2.92756C7.53511 2.39347 7.65443 1.90483 7.89307 1.46165C8.13454 1.01562 8.47261 0.660511 8.90727 0.396307C9.34477 0.132102 9.85898 0.00426126 10.4499 0.0127838ZM10.4499 0.950284C10.0919 0.950284 9.76949 1.03977 9.48256 1.21875C9.19846 1.39489 8.97261 1.63352 8.805 1.93466C8.64023 2.23295 8.55784 2.56392 8.55784 2.92756C8.55784 3.29119 8.63738 3.62216 8.79648 3.92045C8.95841 4.21591 9.17858 4.4517 9.45699 4.62784C9.73824 4.80114 10.0578 4.88778 10.4158 4.88778C10.6857 4.88778 10.9371 4.83523 11.1701 4.73011C11.403 4.62216 11.6061 4.47585 11.7794 4.29119C11.9556 4.10369 12.0934 3.89205 12.1928 3.65625C12.2922 3.41761 12.3419 3.16903 12.3419 2.91051C12.3419 2.5696 12.2595 2.25 12.0948 1.9517C11.9328 1.65341 11.7084 1.41193 11.4215 1.22727C11.1374 1.04261 10.8135 0.950284 10.4499 0.950284ZM18.2279 0.132102V8.85938H17.1711V1.24006H17.12L14.9893 2.65483V1.58097L17.1711 0.132102H18.2279ZM26.8913 0.0127838C27.2492 0.0156248 27.6072 0.0838065 27.9652 0.217329C28.3231 0.350852 28.6498 0.572443 28.9453 0.882102C29.2407 1.18892 29.4779 1.60795 29.6569 2.1392C29.8359 2.67045 29.9254 3.33665 29.9254 4.13778C29.9254 4.91335 29.8515 5.60227 29.7038 6.20455C29.5589 6.80398 29.3487 7.30966 29.0731 7.72159C28.8004 8.13352 28.468 8.44602 28.076 8.65909C27.6867 8.87216 27.2464 8.97869 26.7549 8.97869C26.2663 8.97869 25.8302 8.8821 25.4467 8.68892C25.066 8.4929 24.7535 8.22159 24.5092 7.875C24.2677 7.52557 24.1129 7.12074 24.0447 6.66051H25.0845C25.1782 7.06108 25.3643 7.39205 25.6427 7.65341C25.924 7.91193 26.2947 8.04119 26.7549 8.04119C27.4282 8.04119 27.9595 7.74716 28.3487 7.15909C28.7407 6.57102 28.9367 5.74006 28.9367 4.66619H28.8686C28.7095 4.90483 28.5206 5.1108 28.3018 5.28409C28.0831 5.45739 27.8402 5.59091 27.5731 5.68466C27.3061 5.77841 27.022 5.82528 26.7208 5.82528C26.2208 5.82528 25.762 5.7017 25.3444 5.45455C24.9296 5.20455 24.5973 4.86222 24.3473 4.42756C24.1001 3.99006 23.9765 3.49006 23.9765 2.92756C23.9765 2.39347 24.0958 1.90483 24.3345 1.46165C24.5759 1.01562 24.914 0.660511 25.3487 0.396307C25.7862 0.132102 26.3004 0.00426126 26.8913 0.0127838ZM26.8913 0.950284C26.5333 0.950284 26.2109 1.03977 25.924 1.21875C25.6399 1.39489 25.414 1.63352 25.2464 1.93466C25.0816 2.23295 24.9992 2.56392 24.9992 2.92756C24.9992 3.29119 25.0788 3.62216 25.2379 3.92045C25.3998 4.21591 25.62 4.4517 25.8984 4.62784C26.1796 4.80114 26.4992 4.88778 26.8572 4.88778C27.1271 4.88778 27.3785 4.83523 27.6115 4.73011C27.8444 4.62216 28.0475 4.47585 28.2208 4.29119C28.397 4.10369 28.5348 3.89205 28.6342 3.65625C28.7336 3.41761 28.7833 3.16903 28.7833 2.91051C28.7833 2.5696 28.701 2.25 28.5362 1.9517C28.3742 1.65341 28.1498 1.41193 27.8629 1.22727C27.5788 1.04261 27.2549 0.950284 26.8913 0.950284ZM34.3796 0.0127838C34.7375 0.0156248 35.0955 0.0838065 35.4534 0.217329C35.8114 0.350852 36.1381 0.572443 36.4335 0.882102C36.729 1.18892 36.9662 1.60795 37.1452 2.1392C37.3242 2.67045 37.4137 3.33665 37.4137 4.13778C37.4137 4.91335 37.3398 5.60227 37.1921 6.20455C37.0472 6.80398 36.837 7.30966 36.5614 7.72159C36.2887 8.13352 35.9563 8.44602 35.5642 8.65909C35.175 8.87216 34.7347 8.97869 34.2432 8.97869C33.7546 8.97869 33.3185 8.8821 32.935 8.68892C32.5543 8.4929 32.2418 8.22159 31.9975 7.875C31.756 7.52557 31.6012 7.12074 31.533 6.66051H32.5728C32.6665 7.06108 32.8526 7.39205 33.131 7.65341C33.4122 7.91193 33.783 8.04119 34.2432 8.04119C34.9165 8.04119 35.4478 7.74716 35.837 7.15909C36.229 6.57102 36.425 5.74006 36.425 4.66619H36.3568C36.1978 4.90483 36.0088 5.1108 35.7901 5.28409C35.5713 5.45739 35.3284 5.59091 35.0614 5.68466C34.7943 5.77841 34.5103 5.82528 34.2091 5.82528C33.7091 5.82528 33.2503 5.7017 32.8327 5.45455C32.4179 5.20455 32.0855 4.86222 31.8355 4.42756C31.5884 3.99006 31.4648 3.49006 31.4648 2.92756C31.4648 2.39347 31.5841 1.90483 31.8228 1.46165C32.0642 1.01562 32.4023 0.660511 32.837 0.396307C33.2745 0.132102 33.7887 0.00426126 34.3796 0.0127838ZM34.3796 0.950284C34.0216 0.950284 33.6992 1.03977 33.4122 1.21875C33.1282 1.39489 32.9023 1.63352 32.7347 1.93466C32.5699 2.23295 32.4875 2.56392 32.4875 2.92756C32.4875 3.29119 32.5671 3.62216 32.7262 3.92045C32.8881 4.21591 33.1083 4.4517 33.3867 4.62784C33.6679 4.80114 33.9875 4.88778 34.3455 4.88778C34.6154 4.88778 34.8668 4.83523 35.0997 4.73011C35.3327 4.62216 35.5358 4.47585 35.7091 4.29119C35.8853 4.10369 36.023 3.89205 36.1225 3.65625C36.2219 3.41761 36.2716 3.16903 36.2716 2.91051C36.2716 2.5696 36.1892 2.25 36.0245 1.9517C35.8625 1.65341 35.6381 1.41193 35.3512 1.22727C35.0671 1.04261 34.7432 0.950284 34.3796 0.950284ZM41.8679 0.0127838C42.2258 0.0156248 42.5838 0.0838065 42.9417 0.217329C43.2997 0.350852 43.6264 0.572443 43.9218 0.882102C44.2173 1.18892 44.4545 1.60795 44.6335 2.1392C44.8125 2.67045 44.9019 3.33665 44.9019 4.13778C44.9019 4.91335 44.8281 5.60227 44.6804 6.20455C44.5355 6.80398 44.3252 7.30966 44.0497 7.72159C43.7769 8.13352 43.4446 8.44602 43.0525 8.65909C42.6633 8.87216 42.223 8.97869 41.7315 8.97869C41.2429 8.97869 40.8068 8.8821 40.4233 8.68892C40.0426 8.4929 39.7301 8.22159 39.4858 7.875C39.2443 7.52557 39.0894 7.12074 39.0213 6.66051H40.061C40.1548 7.06108 40.3409 7.39205 40.6193 7.65341C40.9005 7.91193 41.2713 8.04119 41.7315 8.04119C42.4048 8.04119 42.936 7.74716 43.3252 7.15909C43.7173 6.57102 43.9133 5.74006 43.9133 4.66619H43.8451C43.686 4.90483 43.4971 5.1108 43.2784 5.28409C43.0596 5.45739 42.8167 5.59091 42.5497 5.68466C42.2826 5.77841 41.9985 5.82528 41.6974 5.82528C41.1974 5.82528 40.7386 5.7017 40.321 5.45455C39.9062 5.20455 39.5738 4.86222 39.3238 4.42756C39.0767 3.99006 38.9531 3.49006 38.9531 2.92756C38.9531 2.39347 39.0724 1.90483 39.311 1.46165C39.5525 1.01562 39.8906 0.660511 40.3252 0.396307C40.7627 0.132102 41.2769 0.00426126 41.8679 0.0127838ZM41.8679 0.950284C41.5099 0.950284 41.1875 1.03977 40.9005 1.21875C40.6164 1.39489 40.3906 1.63352 40.223 1.93466C40.0582 2.23295 39.9758 2.56392 39.9758 2.92756C39.9758 3.29119 40.0554 3.62216 40.2144 3.92045C40.3764 4.21591 40.5965 4.4517 40.875 4.62784C41.1562 4.80114 41.4758 4.88778 41.8338 4.88778C42.1036 4.88778 42.3551 4.83523 42.588 4.73011C42.821 4.62216 43.0241 4.47585 43.1974 4.29119C43.3735 4.10369 43.5113 3.89205 43.6108 3.65625C43.7102 3.41761 43.7599 3.16903 43.7599 2.91051C43.7599 2.5696 43.6775 2.25 43.5127 1.9517C43.3508 1.65341 43.1264 1.41193 42.8394 1.22727C42.5554 1.04261 42.2315 0.950284 41.8679 0.950284ZM49.4755 8.97869C49.1175 8.97301 48.7595 8.90483 48.4016 8.77415C48.0436 8.64347 47.7169 8.4233 47.4215 8.11364C47.126 7.80114 46.8888 7.37926 46.7098 6.84801C46.5309 6.31392 46.4414 5.64347 46.4414 4.83665C46.4414 4.06392 46.5138 3.37926 46.6587 2.78267C46.8036 2.18324 47.0138 1.67898 47.2894 1.26989C47.5649 0.857955 47.8973 0.545454 48.2865 0.332386C48.6786 0.119318 49.1203 0.0127838 49.6118 0.0127838C50.1005 0.0127838 50.5351 0.110795 50.9158 0.306818C51.2993 0.5 51.6118 0.769886 51.8533 1.11648C52.0948 1.46307 52.251 1.86222 52.322 2.31392H51.2823C51.1857 1.92187 50.9982 1.59659 50.7198 1.33807C50.4414 1.07955 50.072 0.950284 49.6118 0.950284C48.9357 0.950284 48.403 1.24432 48.0138 1.83239C47.6274 2.42045 47.4328 3.24574 47.43 4.30824H47.4982C47.6573 4.06676 47.8462 3.8608 48.0649 3.69034C48.2865 3.51705 48.5309 3.38352 48.7979 3.28977C49.0649 3.19602 49.3476 3.14915 49.6459 3.14915C50.1459 3.14915 50.6033 3.27415 51.0181 3.52415C51.4328 3.77131 51.7652 4.11364 52.0152 4.55114C52.2652 4.9858 52.3902 5.48438 52.3902 6.04688C52.3902 6.58665 52.2695 7.08097 52.028 7.52983C51.7865 7.97585 51.447 8.33097 51.0095 8.59517C50.5749 8.85653 50.0635 8.98438 49.4755 8.97869ZM49.4755 8.04119C49.8334 8.04119 50.1544 7.9517 50.4385 7.77273C50.7255 7.59375 50.9513 7.35369 51.1161 7.05256C51.2837 6.75142 51.3675 6.41619 51.3675 6.04688C51.3675 5.68608 51.2865 5.35795 51.1246 5.0625C50.9655 4.7642 50.7453 4.52699 50.4641 4.35085C50.1857 4.17472 49.8675 4.08665 49.5095 4.08665C49.2397 4.08665 48.9882 4.14062 48.7553 4.24858C48.5223 4.35369 48.3178 4.49858 48.1416 4.68324C47.9684 4.8679 47.832 5.07955 47.7326 5.31818C47.6331 5.55398 47.5834 5.80256 47.5834 6.06392C47.5834 6.41051 47.6644 6.73437 47.8263 7.03551C47.9911 7.33665 48.2155 7.57955 48.4996 7.7642C48.7865 7.94886 49.1118 8.04119 49.4755 8.04119ZM54.066 8.85938V8.09233L56.9467 4.93892C57.2848 4.5696 57.5632 4.24858 57.7819 3.97585C58.0007 3.70028 58.1626 3.44176 58.2677 3.20028C58.3757 2.95597 58.4296 2.70028 58.4296 2.43324C58.4296 2.12642 58.3558 1.8608 58.2081 1.63636C58.0632 1.41193 57.8643 1.23864 57.6115 1.11648C57.3586 0.994318 57.0745 0.933239 56.7592 0.933239C56.424 0.933239 56.1313 1.00284 55.8813 1.14205C55.6342 1.27841 55.4424 1.47017 55.3061 1.71733C55.1725 1.96449 55.1058 2.25426 55.1058 2.58665H54.1001C54.1001 2.07528 54.218 1.62642 54.4538 1.24006C54.6896 0.853693 55.0106 0.552556 55.4169 0.336647C55.826 0.120738 56.2848 0.0127838 56.7933 0.0127838C57.3046 0.0127838 57.7578 0.120738 58.1527 0.336647C58.5475 0.552556 58.8572 0.84375 59.0816 1.21023C59.3061 1.5767 59.4183 1.98438 59.4183 2.43324C59.4183 2.75426 59.36 3.06818 59.2436 3.375C59.1299 3.67898 58.9311 4.01847 58.647 4.39347C58.3657 4.76562 57.9751 5.22017 57.4751 5.7571L55.5149 7.85369V7.92188H59.5717V8.85938H54.066ZM60.9396 7.0696V6.20028L64.7748 0.132102H65.4055V1.47869H64.9794L62.0816 6.06392V6.1321H67.2464V7.0696H60.9396ZM65.0475 8.85938V6.8054V6.40057V0.132102H66.0532V8.85938H65.0475ZM72.4911 8.85938L76.3945 1.13778V1.0696H71.8945V0.132102H77.4854V1.12074L73.599 8.85938H72.4911ZM78.1661 7.0696V6.20028L82.0014 0.132102H82.6321V1.47869H82.2059L79.3082 6.06392V6.1321H84.473V7.0696H78.1661ZM82.2741 8.85938V6.8054V6.40057V0.132102H83.2798V8.85938H82.2741ZM88.9165 8.97869C88.2745 8.97869 87.7276 8.80398 87.2759 8.45455C86.8242 8.10227 86.479 7.59233 86.2404 6.92472C86.0017 6.25426 85.8824 5.4446 85.8824 4.49574C85.8824 3.55256 86.0017 2.74716 86.2404 2.07955C86.4818 1.40909 86.8284 0.897727 87.2801 0.545454C87.7347 0.190341 88.2801 0.0127838 88.9165 0.0127838C89.5529 0.0127838 90.0969 0.190341 90.5486 0.545454C91.0032 0.897727 91.3497 1.40909 91.5884 2.07955C91.8299 2.74716 91.9506 3.55256 91.9506 4.49574C91.9506 5.4446 91.8313 6.25426 91.5926 6.92472C91.354 7.59233 91.0088 8.10227 90.5571 8.45455C90.1054 8.80398 89.5585 8.97869 88.9165 8.97869ZM88.9165 8.04119C89.5529 8.04119 90.0472 7.73437 90.3995 7.12074C90.7517 6.5071 90.9279 5.6321 90.9279 4.49574C90.9279 3.74006 90.8469 3.09659 90.685 2.56534C90.5259 2.03409 90.2958 1.62926 89.9946 1.35085C89.6963 1.07244 89.337 0.933239 88.9165 0.933239C88.2858 0.933239 87.7929 1.24432 87.4378 1.86648C87.0827 2.4858 86.9051 3.36222 86.9051 4.49574C86.9051 5.25142 86.9847 5.89347 87.1438 6.42188C87.3029 6.95028 87.5316 7.35227 87.8299 7.62784C88.131 7.90341 88.4932 8.04119 88.9165 8.04119ZM96.4165 8.97869C95.7745 8.97869 95.2276 8.80398 94.7759 8.45455C94.3242 8.10227 93.979 7.59233 93.7404 6.92472C93.5017 6.25426 93.3824 5.4446 93.3824 4.49574C93.3824 3.55256 93.5017 2.74716 93.7404 2.07955C93.9818 1.40909 94.3284 0.897727 94.7801 0.545454C95.2347 0.190341 95.7801 0.0127838 96.4165 0.0127838C97.0529 0.0127838 97.5969 0.190341 98.0486 0.545454C98.5032 0.897727 98.8497 1.40909 99.0884 2.07955C99.3299 2.74716 99.4506 3.55256 99.4506 4.49574C99.4506 5.4446 99.3313 6.25426 99.0926 6.92472C98.854 7.59233 98.5088 8.10227 98.0571 8.45455C97.6054 8.80398 97.0585 8.97869 96.4165 8.97869ZM96.4165 8.04119C97.0529 8.04119 97.5472 7.73437 97.8995 7.12074C98.2517 6.5071 98.4279 5.6321 98.4279 4.49574C98.4279 3.74006 98.3469 3.09659 98.185 2.56534C98.0259 2.03409 97.7958 1.62926 97.4946 1.35085C97.1963 1.07244 96.837 0.933239 96.4165 0.933239C95.7858 0.933239 95.2929 1.24432 94.9378 1.86648C94.5827 2.4858 94.4051 3.36222 94.4051 4.49574C94.4051 5.25142 94.4847 5.89347 94.6438 6.42188C94.8029 6.95028 95.0316 7.35227 95.3299 7.62784C95.631 7.90341 95.9932 8.04119 96.4165 8.04119ZM104.138 0.132102V8.85938H103.081V1.24006H103.03L100.899 2.65483V1.58097L103.081 0.132102H104.138Z" fill="#202020"/>
</svg>
