<svg width="118" height="12" viewBox="0 0 118 12" fill="none" xmlns="http://www.w3.org/2000/svg">
<path d="M0.203658 9.13672V2.59126H1.20934V9.13672H0.203658ZM0.715021 1.50036C0.518999 1.50036 0.349965 1.43359 0.207919 1.30007C0.0687145 1.16655 -0.000887752 1.00604 -0.000887752 0.818537C-0.000887752 0.631037 0.0687145 0.470526 0.207919 0.337003C0.349965 0.20348 0.518999 0.136719 0.715021 0.136719C0.911044 0.136719 1.07866 0.20348 1.21786 0.337003C1.35991 0.470526 1.43093 0.631037 1.43093 0.818537C1.43093 1.00604 1.35991 1.16655 1.21786 1.30007C1.07866 1.43359 0.911044 1.50036 0.715021 1.50036ZM4.057 5.19922V9.13672H3.05131V2.59126H4.0229V3.61399H4.10813C4.26154 3.28161 4.4945 3.01456 4.807 2.81286C5.1195 2.60831 5.5229 2.50604 6.01722 2.50604C6.4604 2.50604 6.84819 2.59695 7.18058 2.77876C7.51296 2.95774 7.77148 3.23047 7.95614 3.59695C8.1408 3.96058 8.23313 4.42081 8.23313 4.97763V9.13672H7.22745V5.04581C7.22745 4.53161 7.09393 4.13104 6.82688 3.8441C6.55984 3.55433 6.19336 3.40945 5.72745 3.40945C5.40643 3.40945 5.1195 3.47905 4.86665 3.61825C4.61665 3.75746 4.41921 3.96058 4.27433 4.22763C4.12944 4.49467 4.057 4.81854 4.057 5.19922ZM12.9856 2.59126V3.44354H9.45721V2.59126H12.9856ZM10.514 9.13672V1.68786C10.514 1.31285 10.6021 1.00035 10.7782 0.750355C10.9544 0.500355 11.1831 0.312855 11.4643 0.187855C11.7456 0.0628545 12.0424 0.000354528 12.3549 0.000354528C12.6021 0.000354528 12.8038 0.020241 12.96 0.060014C13.1163 0.0997865 13.2328 0.136718 13.3095 0.170809L13.0197 1.04013C12.9686 1.02308 12.8975 1.00178 12.8066 0.976207C12.7186 0.950639 12.6021 0.937855 12.4572 0.937855C12.1248 0.937855 11.8848 1.02166 11.737 1.18928C11.5922 1.35689 11.5197 1.60263 11.5197 1.92649V9.13672H10.514ZM16.7846 9.27308C16.1937 9.27308 15.6752 9.13246 15.2292 8.85121C14.786 8.56996 14.4395 8.17649 14.1895 7.67081C13.9423 7.16513 13.8187 6.57422 13.8187 5.89808C13.8187 5.21626 13.9423 4.62109 14.1895 4.11257C14.4395 3.60405 14.786 3.20916 15.2292 2.92791C15.6752 2.64666 16.1937 2.50604 16.7846 2.50604C17.3755 2.50604 17.8926 2.64666 18.3358 2.92791C18.7818 3.20916 19.1284 3.60405 19.3755 4.11257C19.6255 4.62109 19.7505 5.21626 19.7505 5.89808C19.7505 6.57422 19.6255 7.16513 19.3755 7.67081C19.1284 8.17649 18.7818 8.56996 18.3358 8.85121C17.8926 9.13246 17.3755 9.27308 16.7846 9.27308ZM16.7846 8.36967C17.2335 8.36967 17.6028 8.25462 17.8926 8.0245C18.1824 7.79439 18.3968 7.49183 18.536 7.11683C18.6752 6.74183 18.7449 6.33558 18.7449 5.89808C18.7449 5.46058 18.6752 5.05291 18.536 4.67507C18.3968 4.29723 18.1824 3.99183 17.8926 3.75888C17.6028 3.52592 17.2335 3.40945 16.7846 3.40945C16.3358 3.40945 15.9664 3.52592 15.6767 3.75888C15.3869 3.99183 15.1724 4.29723 15.0332 4.67507C14.894 5.05291 14.8244 5.46058 14.8244 5.89808C14.8244 6.33558 14.894 6.74183 15.0332 7.11683C15.1724 7.49183 15.3869 7.79439 15.6767 8.0245C15.9664 8.25462 16.3358 8.36967 16.7846 8.36967ZM26.3141 11.4379C25.4448 11.4379 24.6763 11.3185 24.0087 11.0799C23.3411 10.8441 22.78 10.4961 22.3255 10.0359C21.8709 9.57564 21.5272 9.01172 21.2942 8.34411C21.0613 7.67649 20.9448 6.91229 20.9448 6.05149C20.9448 5.2191 21.0627 4.47479 21.2985 3.81854C21.5371 3.16229 21.8823 2.60547 22.334 2.14808C22.7885 1.68785 23.3397 1.337 23.9874 1.09553C24.638 0.854048 25.3738 0.733309 26.1948 0.733309C26.9931 0.733309 27.6919 0.863991 28.2914 1.12535C28.8936 1.38388 29.3965 1.73473 29.7999 2.17791C30.2061 2.61825 30.5101 3.11399 30.7118 3.66513C30.9164 4.21626 31.0186 4.78445 31.0186 5.36967C31.0186 5.7816 30.9988 6.19922 30.959 6.62251C30.9192 7.04581 30.8354 7.43501 30.7076 7.79013C30.5797 8.1424 30.3823 8.42649 30.1152 8.6424C29.851 8.85831 29.4931 8.96626 29.0414 8.96626C28.8425 8.96626 28.6238 8.93501 28.3851 8.87251C28.1465 8.81001 27.9348 8.70632 27.7502 8.56143C27.5655 8.41655 27.4561 8.22195 27.4221 7.97763H27.3709C27.3027 8.1424 27.1976 8.29865 27.0556 8.44638C26.9164 8.59411 26.7331 8.712 26.5059 8.80007C26.2814 8.88814 26.0073 8.92649 25.6834 8.91513C25.3141 8.90092 24.9888 8.81854 24.7076 8.66797C24.4263 8.51456 24.1905 8.30717 24.0002 8.04581C23.8127 7.78161 23.6706 7.47621 23.574 7.12962C23.4803 6.78018 23.4334 6.40376 23.4334 6.00035C23.4334 5.61683 23.4902 5.26598 23.6039 4.9478C23.7175 4.62962 23.8752 4.35121 24.0769 4.11257C24.2814 3.87393 24.5201 3.68359 24.7928 3.54155C25.0684 3.39666 25.3652 3.30717 25.6834 3.27308C25.9675 3.24467 26.226 3.25746 26.459 3.31143C26.6919 3.36257 26.8837 3.4407 27.0343 3.54581C27.1848 3.64808 27.28 3.76172 27.3198 3.88672H27.3709V3.40945H28.2743V7.26172C28.2743 7.50036 28.3411 7.71058 28.4746 7.8924C28.6081 8.07422 28.8027 8.16513 29.0584 8.16513C29.3482 8.16513 29.5698 8.0657 29.7232 7.86683C29.8794 7.66797 29.986 7.36115 30.0428 6.94638C30.1025 6.53161 30.1323 6.00036 30.1323 5.35263C30.1323 4.97195 30.0797 4.59695 29.9746 4.22763C29.8723 3.85547 29.7161 3.50746 29.5059 3.18359C29.2985 2.85973 29.0357 2.57422 28.7175 2.32706C28.3993 2.0799 28.0257 1.88672 27.5968 1.74751C27.1706 1.60547 26.6863 1.53445 26.1436 1.53445C25.476 1.53445 24.878 1.63814 24.3496 1.84553C23.824 2.05007 23.3766 2.34979 23.0073 2.74467C22.6408 3.13672 22.361 3.61399 22.1678 4.17649C21.9775 4.73615 21.8823 5.37251 21.8823 6.08558C21.8823 6.81001 21.9775 7.45348 22.1678 8.01598C22.361 8.57848 22.6451 9.05291 23.0201 9.43928C23.3979 9.82564 23.8652 10.1183 24.4221 10.3171C24.9789 10.5188 25.6209 10.6197 26.3482 10.6197C26.6607 10.6197 26.9689 10.5898 27.2729 10.5302C27.5769 10.4705 27.8453 10.4052 28.0783 10.3342C28.3113 10.2631 28.4789 10.2106 28.5811 10.1765L28.8198 10.9606C28.6436 11.0344 28.4135 11.1083 28.1294 11.1822C27.8482 11.256 27.5471 11.3171 27.226 11.3654C26.9078 11.4137 26.6039 11.4379 26.3141 11.4379ZM25.8198 8.04581C26.2005 8.04581 26.5087 7.96911 26.7445 7.8157C26.9803 7.66229 27.1522 7.43075 27.2601 7.12109C27.3681 6.81143 27.4221 6.42081 27.4221 5.94922C27.4221 5.47195 27.3624 5.09979 27.2431 4.83274C27.1238 4.5657 26.9476 4.3782 26.7147 4.27024C26.4817 4.16229 26.1948 4.10831 25.8539 4.10831C25.53 4.10831 25.253 4.19354 25.0229 4.36399C24.7956 4.5316 24.6209 4.75604 24.4988 5.03729C24.3794 5.3157 24.3198 5.61967 24.3198 5.94922C24.3198 6.31286 24.3681 6.65518 24.4647 6.97621C24.5613 7.29439 24.7189 7.55291 24.9377 7.75178C25.1564 7.9478 25.4505 8.04581 25.8198 8.04581ZM34.4501 9.29013C34.0353 9.29013 33.6589 9.212 33.3208 9.05575C32.9828 8.89666 32.7143 8.66797 32.5154 8.36967C32.3166 8.06854 32.2172 7.7049 32.2172 7.27876C32.2172 6.90376 32.291 6.59979 32.4387 6.36683C32.5865 6.13104 32.7839 5.94638 33.0311 5.81285C33.2782 5.67933 33.551 5.5799 33.8493 5.51456C34.1504 5.44638 34.4529 5.3924 34.7569 5.35263C35.1547 5.30149 35.4771 5.26314 35.7243 5.23757C35.9743 5.20916 36.1561 5.16229 36.2697 5.09695C36.3862 5.03161 36.4444 4.91797 36.4444 4.75604V4.72195C36.4444 4.30149 36.3294 3.97479 36.0993 3.74183C35.872 3.50888 35.5268 3.3924 35.0637 3.3924C34.5836 3.3924 34.2072 3.49751 33.9345 3.70774C33.6618 3.91797 33.47 4.1424 33.3592 4.38104L32.4047 4.04013C32.5751 3.6424 32.8024 3.33274 33.0865 3.11115C33.3734 2.88672 33.6859 2.73047 34.024 2.6424C34.3649 2.55149 34.7001 2.50604 35.0297 2.50604C35.2399 2.50604 35.4814 2.53161 35.7541 2.58274C36.0297 2.63104 36.2953 2.73189 36.551 2.8853C36.8095 3.03871 37.024 3.27024 37.1944 3.5799C37.3649 3.88956 37.4501 4.30433 37.4501 4.82422V9.13672H36.4444V8.25036H36.3933C36.3251 8.3924 36.2115 8.54439 36.0524 8.70632C35.8933 8.86825 35.6816 9.00604 35.4174 9.11967C35.1532 9.23331 34.8308 9.29013 34.4501 9.29013ZM34.6035 8.38672C35.0012 8.38672 35.3365 8.30859 35.6092 8.15234C35.8848 7.99609 36.0922 7.79439 36.2314 7.54723C36.3734 7.30007 36.4444 7.04013 36.4444 6.7674V5.84695C36.4018 5.89808 36.3081 5.94496 36.1632 5.98757C36.0211 6.02734 35.8564 6.06285 35.6689 6.0941C35.4842 6.12251 35.3038 6.14808 35.1277 6.17081C34.9544 6.1907 34.8137 6.20774 34.7058 6.22195C34.4444 6.25604 34.2001 6.31143 33.9728 6.38814C33.7484 6.462 33.5666 6.57422 33.4274 6.72479C33.291 6.87251 33.2228 7.07422 33.2228 7.3299C33.2228 7.67933 33.3521 7.94354 33.6106 8.12251C33.872 8.29865 34.2029 8.38672 34.6035 8.38672ZM41.7573 9.27308C41.2118 9.27308 40.7303 9.1353 40.3127 8.85973C39.8951 8.58132 39.5684 8.18928 39.3326 7.68359C39.0968 7.17507 38.9789 6.57422 38.9789 5.88104C38.9789 5.19354 39.0968 4.59695 39.3326 4.09126C39.5684 3.58558 39.8965 3.19496 40.3169 2.91939C40.7374 2.64382 41.2232 2.50604 41.7743 2.50604C42.2005 2.50604 42.5371 2.57706 42.7843 2.71911C43.0343 2.85831 43.2246 3.0174 43.3553 3.19638C43.4888 3.37251 43.5925 3.5174 43.6664 3.63104H43.7516V0.409446H44.7573V9.13672H43.7857V8.13104H43.6664C43.5925 8.25036 43.4874 8.40092 43.351 8.58274C43.2147 8.76172 43.0201 8.92223 42.7672 9.06428C42.5144 9.20348 42.1777 9.27308 41.7573 9.27308ZM41.8936 8.36967C42.2971 8.36967 42.638 8.26456 42.9164 8.05433C43.1948 7.84126 43.4064 7.54723 43.5513 7.17223C43.6962 6.79439 43.7686 6.35831 43.7686 5.86399C43.7686 5.37535 43.6976 4.9478 43.5556 4.58132C43.4135 4.212 43.2033 3.92507 42.9249 3.72053C42.6465 3.51314 42.3027 3.40945 41.8936 3.40945C41.4675 3.40945 41.1124 3.51882 40.8283 3.73757C40.5471 3.95348 40.3354 4.24751 40.1934 4.61967C40.0542 4.98899 39.9846 5.40376 39.9846 5.86399C39.9846 6.3299 40.0556 6.7532 40.1976 7.13388C40.3425 7.51172 40.5556 7.81286 40.8368 8.03729C41.1209 8.25888 41.4732 8.36967 41.8936 8.36967ZM49.4831 9.27308C48.8525 9.27308 48.3084 9.13388 47.851 8.85547C47.3965 8.57422 47.0456 8.18217 46.7985 7.67933C46.5542 7.17365 46.432 6.58558 46.432 5.91513C46.432 5.24467 46.5542 4.65376 46.7985 4.1424C47.0456 3.6282 47.3894 3.22763 47.8297 2.9407C48.2729 2.65092 48.79 2.50604 49.3809 2.50604C49.7218 2.50604 50.0584 2.56286 50.3908 2.67649C50.7232 2.79013 51.0257 2.97479 51.2985 3.23047C51.5712 3.48331 51.7885 3.81854 51.9505 4.23615C52.1124 4.65376 52.1934 5.16797 52.1934 5.77876V6.2049H47.1479V5.33558H51.1706C51.1706 4.96626 51.0968 4.63672 50.949 4.34695C50.8042 4.05717 50.5968 3.82848 50.3269 3.66087C50.0598 3.49325 49.7445 3.40945 49.3809 3.40945C48.9803 3.40945 48.6337 3.50888 48.3411 3.70774C48.0513 3.90376 47.8283 4.15945 47.6721 4.47479C47.5158 4.79013 47.4377 5.1282 47.4377 5.48899V6.06854C47.4377 6.56286 47.5229 6.98189 47.6934 7.32564C47.8667 7.66655 48.1067 7.92649 48.4135 8.10547C48.7203 8.28161 49.0769 8.36967 49.4831 8.36967C49.7473 8.36967 49.986 8.33274 50.199 8.25888C50.415 8.18217 50.601 8.06854 50.7573 7.91797C50.9135 7.76456 51.0343 7.57422 51.1195 7.34695L52.0911 7.61967C51.9888 7.94922 51.8169 8.23899 51.5755 8.48899C51.334 8.73615 51.0357 8.92933 50.6806 9.06854C50.3255 9.2049 49.9263 9.27308 49.4831 9.27308ZM56.3823 9.27308C55.7686 9.27308 55.2402 9.1282 54.7971 8.83842C54.3539 8.54865 54.013 8.1495 53.7743 7.64098C53.5357 7.13246 53.4164 6.55149 53.4164 5.89808C53.4164 5.23331 53.5385 4.64666 53.7828 4.13814C54.03 3.62678 54.3738 3.22763 54.8141 2.9407C55.2573 2.65092 55.7743 2.50604 56.3652 2.50604C56.8255 2.50604 57.2402 2.59126 57.6096 2.76172C57.9789 2.93217 58.2814 3.17081 58.5172 3.47763C58.753 3.78445 58.8993 4.1424 58.9561 4.55149H57.9505C57.8738 4.2532 57.7033 3.98899 57.4391 3.75888C57.1777 3.52592 56.8255 3.40945 56.3823 3.40945C55.9902 3.40945 55.6465 3.51172 55.351 3.71626C55.0584 3.91797 54.8297 4.20348 54.665 4.5728C54.503 4.93928 54.4221 5.36967 54.4221 5.86399C54.4221 6.36967 54.5016 6.81001 54.6607 7.18501C54.8226 7.56001 55.0499 7.85121 55.3425 8.05859C55.638 8.26598 55.9846 8.36967 56.3823 8.36967C56.6436 8.36967 56.8809 8.32422 57.0939 8.23331C57.307 8.1424 57.4874 8.01172 57.6351 7.84126C57.7828 7.67081 57.888 7.46626 57.9505 7.22763H58.9561C58.8993 7.61399 58.7587 7.962 58.5343 8.27166C58.3127 8.57848 58.0186 8.8228 57.6522 9.00462C57.2885 9.18359 56.8652 9.27308 56.3823 9.27308ZM63.0854 9.27308C62.4945 9.27308 61.976 9.13246 61.53 8.85121C61.0868 8.56996 60.7402 8.17649 60.4902 7.67081C60.2431 7.16513 60.1195 6.57422 60.1195 5.89808C60.1195 5.21626 60.2431 4.62109 60.4902 4.11257C60.7402 3.60405 61.0868 3.20916 61.53 2.92791C61.976 2.64666 62.4945 2.50604 63.0854 2.50604C63.6763 2.50604 64.1934 2.64666 64.6365 2.92791C65.0826 3.20916 65.4292 3.60405 65.6763 4.11257C65.9263 4.62109 66.0513 5.21626 66.0513 5.89808C66.0513 6.57422 65.9263 7.16513 65.6763 7.67081C65.4292 8.17649 65.0826 8.56996 64.6365 8.85121C64.1934 9.13246 63.6763 9.27308 63.0854 9.27308ZM63.0854 8.36967C63.5343 8.36967 63.9036 8.25462 64.1934 8.0245C64.4831 7.79439 64.6976 7.49183 64.8368 7.11683C64.976 6.74183 65.0456 6.33558 65.0456 5.89808C65.0456 5.46058 64.976 5.05291 64.8368 4.67507C64.6976 4.29723 64.4831 3.99183 64.1934 3.75888C63.9036 3.52592 63.5343 3.40945 63.0854 3.40945C62.6365 3.40945 62.2672 3.52592 61.9775 3.75888C61.6877 3.99183 61.4732 4.29723 61.334 4.67507C61.1948 5.05291 61.1252 5.46058 61.1252 5.89808C61.1252 6.33558 61.1948 6.74183 61.334 7.11683C61.4732 7.49183 61.6877 7.79439 61.9775 8.0245C62.2672 8.25462 62.6365 8.36967 63.0854 8.36967ZM70.3308 9.27308C69.7001 9.27308 69.1561 9.13388 68.6987 8.85547C68.2441 8.57422 67.8933 8.18217 67.6461 7.67933C67.4018 7.17365 67.2797 6.58558 67.2797 5.91513C67.2797 5.24467 67.4018 4.65376 67.6461 4.1424C67.8933 3.6282 68.237 3.22763 68.6774 2.9407C69.1206 2.65092 69.6376 2.50604 70.2285 2.50604C70.5694 2.50604 70.9061 2.56286 71.2385 2.67649C71.5708 2.79013 71.8734 2.97479 72.1461 3.23047C72.4189 3.48331 72.6362 3.81854 72.7981 4.23615C72.96 4.65376 73.041 5.16797 73.041 5.77876V6.2049H67.9956V5.33558H72.0183C72.0183 4.96626 71.9444 4.63672 71.7967 4.34695C71.6518 4.05717 71.4444 3.82848 71.1745 3.66087C70.9075 3.49325 70.5922 3.40945 70.2285 3.40945C69.8279 3.40945 69.4814 3.50888 69.1887 3.70774C68.899 3.90376 68.676 4.15945 68.5197 4.47479C68.3635 4.79013 68.2853 5.1282 68.2853 5.48899V6.06854C68.2853 6.56286 68.3706 6.98189 68.541 7.32564C68.7143 7.66655 68.9544 7.92649 69.2612 8.10547C69.568 8.28161 69.9245 8.36967 70.3308 8.36967C70.595 8.36967 70.8336 8.33274 71.0467 8.25888C71.2626 8.18217 71.4487 8.06854 71.6049 7.91797C71.7612 7.76456 71.8819 7.57422 71.9672 7.34695L72.9387 7.61967C72.8365 7.94922 72.6646 8.23899 72.4231 8.48899C72.1816 8.73615 71.8833 8.92933 71.5282 9.06854C71.1731 9.2049 70.774 9.27308 70.3308 9.27308ZM75.5765 5.19922V9.13672H74.5708V2.59126H75.5424V3.61399H75.6277C75.7811 3.28161 76.014 3.01456 76.3265 2.81286C76.639 2.60831 77.0424 2.50604 77.5368 2.50604C77.9799 2.50604 78.3677 2.59695 78.7001 2.77876C79.0325 2.95774 79.291 3.23047 79.4757 3.59695C79.6603 3.96058 79.7527 4.42081 79.7527 4.97763V9.13672H78.747V5.04581C78.747 4.53161 78.6135 4.13104 78.3464 3.8441C78.0794 3.55433 77.7129 3.40945 77.247 3.40945C76.926 3.40945 76.639 3.47905 76.3862 3.61825C76.1362 3.75746 75.9387 3.96058 75.7939 4.22763C75.649 4.49467 75.5765 4.81854 75.5765 5.19922ZM84.3347 9.27308C83.704 9.27308 83.16 9.13388 82.7026 8.85547C82.248 8.57422 81.8972 8.18217 81.65 7.67933C81.4057 7.17365 81.2836 6.58558 81.2836 5.91513C81.2836 5.24467 81.4057 4.65376 81.65 4.1424C81.8972 3.6282 82.2409 3.22763 82.6813 2.9407C83.1245 2.65092 83.6415 2.50604 84.2324 2.50604C84.5733 2.50604 84.91 2.56286 85.2424 2.67649C85.5748 2.79013 85.8773 2.97479 86.15 3.23047C86.4228 3.48331 86.6401 3.81854 86.802 4.23615C86.964 4.65376 87.0449 5.16797 87.0449 5.77876V6.2049H81.9995V5.33558H86.0222C86.0222 4.96626 85.9483 4.63672 85.8006 4.34695C85.6557 4.05717 85.4483 3.82848 85.1784 3.66087C84.9114 3.49325 84.5961 3.40945 84.2324 3.40945C83.8319 3.40945 83.4853 3.50888 83.1926 3.70774C82.9029 3.90376 82.6799 4.15945 82.5236 4.47479C82.3674 4.79013 82.2892 5.1282 82.2892 5.48899V6.06854C82.2892 6.56286 82.3745 6.98189 82.5449 7.32564C82.7182 7.66655 82.9583 7.92649 83.2651 8.10547C83.5719 8.28161 83.9284 8.36967 84.3347 8.36967C84.5989 8.36967 84.8375 8.33274 85.0506 8.25888C85.2665 8.18217 85.4526 8.06854 85.6088 7.91797C85.7651 7.76456 85.8858 7.57422 85.9711 7.34695L86.9426 7.61967C86.8404 7.94922 86.6685 8.23899 86.427 8.48899C86.1855 8.73615 85.8873 8.92933 85.5321 9.06854C85.177 9.2049 84.7779 9.27308 84.3347 9.27308ZM88.5748 9.13672V2.59126H89.5463V3.5799H89.6145C89.7338 3.25604 89.9498 2.99325 90.2623 2.79155C90.5748 2.58984 90.927 2.48899 91.3191 2.48899C91.3929 2.48899 91.4853 2.49041 91.5961 2.49325C91.7069 2.49609 91.7907 2.50036 91.8475 2.50604V3.52876C91.8134 3.52024 91.7353 3.50746 91.6131 3.49041C91.4938 3.47053 91.3674 3.46058 91.2338 3.46058C90.9157 3.46058 90.6316 3.52734 90.3816 3.66087C90.1344 3.79155 89.9384 3.97337 89.7935 4.20632C89.6515 4.43643 89.5804 4.69922 89.5804 4.99467V9.13672H88.5748ZM95.4824 11.7276C94.9966 11.7276 94.579 11.6651 94.2296 11.5401C93.8801 11.418 93.589 11.256 93.356 11.0543C93.1259 10.8555 92.9426 10.6424 92.8063 10.4151L93.6074 9.85263C93.6983 9.97195 93.8134 10.1083 93.9526 10.2617C94.0918 10.418 94.2821 10.5529 94.5236 10.6665C94.7679 10.783 95.0875 10.8413 95.4824 10.8413C96.0108 10.8413 96.4469 10.7134 96.7907 10.4577C97.1344 10.2021 97.3063 9.80149 97.3063 9.25604V7.92649H97.2211C97.1472 8.04581 97.0421 8.19354 96.9057 8.36967C96.7722 8.54297 96.579 8.6978 96.3262 8.83416C96.0762 8.96768 95.7381 9.03445 95.312 9.03445C94.7836 9.03445 94.3091 8.90945 93.8887 8.65945C93.4711 8.40945 93.1401 8.04581 92.8958 7.56854C92.6543 7.09126 92.5336 6.51172 92.5336 5.8299C92.5336 5.15945 92.6515 4.57564 92.8873 4.07848C93.123 3.57848 93.4512 3.19212 93.8716 2.91939C94.2921 2.64382 94.7779 2.50604 95.329 2.50604C95.7551 2.50604 96.0932 2.57706 96.3432 2.71911C96.5961 2.85831 96.7892 3.0174 96.9228 3.19638C97.0591 3.37251 97.1642 3.5174 97.2381 3.63104H97.3404V2.59126H98.312V9.32422C98.312 9.88672 98.1841 10.3441 97.9284 10.6964C97.6756 11.0515 97.3347 11.3114 96.9057 11.4762C96.4796 11.6438 96.0051 11.7276 95.4824 11.7276ZM95.4483 8.13104C95.8517 8.13104 96.1926 8.03871 96.4711 7.85405C96.7495 7.66939 96.9611 7.40376 97.106 7.05717C97.2509 6.71058 97.3233 6.29581 97.3233 5.81285C97.3233 5.34126 97.2523 4.92507 97.1103 4.56428C96.9682 4.20348 96.758 3.92081 96.4796 3.71626C96.2012 3.51172 95.8574 3.40945 95.4483 3.40945C95.0222 3.40945 94.6671 3.5174 94.383 3.73331C94.1017 3.94922 93.8901 4.23899 93.748 4.60263C93.6088 4.96626 93.5392 5.36967 93.5392 5.81285C93.5392 6.2674 93.6103 6.66939 93.7523 7.01882C93.8972 7.36541 94.1103 7.63814 94.3915 7.837C94.6756 8.03303 95.0279 8.13104 95.4483 8.13104ZM100.801 11.5913C100.63 11.5913 100.478 11.5771 100.345 11.5487C100.211 11.5231 100.119 11.4975 100.068 11.4719L100.323 10.5856C100.568 10.6481 100.784 10.6708 100.971 10.6538C101.159 10.6367 101.325 10.5529 101.47 10.4023C101.617 10.2546 101.752 10.0146 101.874 9.68217L102.062 9.17081L99.6415 2.59126H100.732L102.539 7.80717H102.607L104.414 2.59126H105.505L102.727 10.0913C102.602 10.4293 102.447 10.7092 102.262 10.9308C102.078 11.1552 101.863 11.3214 101.619 11.4293C101.377 11.5373 101.105 11.5913 100.801 11.5913ZM107.155 9.2049C106.945 9.2049 106.765 9.12962 106.614 8.97905C106.464 8.82848 106.388 8.64808 106.388 8.43786C106.388 8.22763 106.464 8.04723 106.614 7.89666C106.765 7.74609 106.945 7.67081 107.155 7.67081C107.366 7.67081 107.546 7.74609 107.697 7.89666C107.847 8.04723 107.922 8.22763 107.922 8.43786C107.922 8.57706 107.887 8.7049 107.816 8.82138C107.748 8.93786 107.655 9.03161 107.539 9.10263C107.425 9.17081 107.297 9.2049 107.155 9.2049ZM109.727 9.13672V2.59126H110.733V9.13672H109.727ZM110.238 1.50036C110.042 1.50036 109.873 1.43359 109.731 1.30007C109.592 1.16655 109.523 1.00604 109.523 0.818537C109.523 0.631037 109.592 0.470526 109.731 0.337003C109.873 0.20348 110.042 0.136719 110.238 0.136719C110.434 0.136719 110.602 0.20348 110.741 0.337003C110.883 0.470526 110.954 0.631037 110.954 0.818537C110.954 1.00604 110.883 1.16655 110.741 1.30007C110.602 1.43359 110.434 1.50036 110.238 1.50036ZM113.58 5.19922V9.13672H112.575V2.59126H113.546V3.61399H113.632C113.785 3.28161 114.018 3.01456 114.33 2.81286C114.643 2.60831 115.046 2.50604 115.541 2.50604C115.984 2.50604 116.372 2.59695 116.704 2.77876C117.036 2.95774 117.295 3.23047 117.48 3.59695C117.664 3.96058 117.757 4.42081 117.757 4.97763V9.13672H116.751V5.04581C116.751 4.53161 116.617 4.13104 116.35 3.8441C116.083 3.55433 115.717 3.40945 115.251 3.40945C114.93 3.40945 114.643 3.47905 114.39 3.61825C114.14 3.75746 113.943 3.96058 113.798 4.22763C113.653 4.49467 113.58 4.81854 113.58 5.19922Z" fill="#202020"/>
</svg>
