<svg width="133" height="12" viewBox="0 0 133 12" fill="none" xmlns="http://www.w3.org/2000/svg">
<path d="M5.86355 2.45455L3.44309 9H2.42037L-8.87662e-05 2.45455H1.09082L2.89764 7.67045H2.96582L4.77264 2.45455H5.86355ZM7.19096 9V2.45455H8.19664V9H7.19096ZM7.70233 1.36364C7.5063 1.36364 7.33727 1.29688 7.19522 1.16335C7.05602 1.02983 6.98642 0.869318 6.98642 0.681818C6.98642 0.494318 7.05602 0.333807 7.19522 0.200284C7.33727 0.0667613 7.5063 0 7.70233 0C7.89835 0 8.06596 0.0667613 8.20517 0.200284C8.34721 0.333807 8.41824 0.494318 8.41824 0.681818C8.41824 0.869318 8.34721 1.02983 8.20517 1.16335C8.06596 1.29688 7.89835 1.36364 7.70233 1.36364ZM11.0443 5.0625V9H10.0386V2.45455H11.0102V3.47727H11.0954C11.2488 3.14489 11.4818 2.87784 11.7943 2.67614C12.1068 2.47159 12.5102 2.36932 13.0045 2.36932C13.4477 2.36932 13.8355 2.46023 14.1679 2.64205C14.5003 2.82102 14.7588 3.09375 14.9434 3.46023C15.1281 3.82386 15.2204 4.28409 15.2204 4.84091V9H14.2148V4.90909C14.2148 4.39489 14.0812 3.99432 13.8142 3.70739C13.5471 3.41761 13.1807 3.27273 12.7148 3.27273C12.3937 3.27273 12.1068 3.34233 11.854 3.48153C11.604 3.62074 11.4065 3.82386 11.2616 4.09091C11.1167 4.35795 11.0443 4.68182 11.0443 5.0625ZM19.7172 9.13636C19.1263 9.13636 18.6079 8.99574 18.1618 8.71449C17.7187 8.43324 17.3721 8.03977 17.1221 7.53409C16.8749 7.02841 16.7513 6.4375 16.7513 5.76136C16.7513 5.07955 16.8749 4.48437 17.1221 3.97585C17.3721 3.46733 17.7187 3.07244 18.1618 2.79119C18.6079 2.50994 19.1263 2.36932 19.7172 2.36932C20.3081 2.36932 20.8252 2.50994 21.2684 2.79119C21.7144 3.07244 22.061 3.46733 22.3082 3.97585C22.5582 4.48437 22.6832 5.07955 22.6832 5.76136C22.6832 6.4375 22.5582 7.02841 22.3082 7.53409C22.061 8.03977 21.7144 8.43324 21.2684 8.71449C20.8252 8.99574 20.3081 9.13636 19.7172 9.13636ZM19.7172 8.23295C20.1661 8.23295 20.5354 8.1179 20.8252 7.88778C21.115 7.65767 21.3295 7.35511 21.4687 6.98011C21.6079 6.60511 21.6775 6.19886 21.6775 5.76136C21.6775 5.32386 21.6079 4.91619 21.4687 4.53835C21.3295 4.16051 21.115 3.85511 20.8252 3.62216C20.5354 3.3892 20.1661 3.27273 19.7172 3.27273C19.2684 3.27273 18.8991 3.3892 18.6093 3.62216C18.3195 3.85511 18.105 4.16051 17.9658 4.53835C17.8266 4.91619 17.757 5.32386 17.757 5.76136C17.757 6.19886 17.8266 6.60511 17.9658 6.98011C18.105 7.35511 18.3195 7.65767 18.6093 7.88778C18.8991 8.1179 19.2684 8.23295 19.7172 8.23295ZM27.0649 2.45455V3.30682H23.6729V2.45455H27.0649ZM24.6615 0.886364H25.6672V7.125C25.6672 7.40909 25.7084 7.62216 25.7907 7.7642C25.876 7.90341 25.9839 7.99716 26.1146 8.04545C26.2481 8.09091 26.3888 8.11364 26.5365 8.11364C26.6473 8.11364 26.7382 8.10795 26.8092 8.09659C26.8802 8.08239 26.9371 8.07102 26.9797 8.0625L27.1842 8.96591C27.116 8.99148 27.0209 9.01705 26.8987 9.04261C26.7765 9.07102 26.6217 9.08523 26.4342 9.08523C26.1501 9.08523 25.8717 9.02415 25.599 8.90199C25.3291 8.77983 25.1047 8.59375 24.9257 8.34375C24.7496 8.09375 24.6615 7.77841 24.6615 7.39773V0.886364ZM29.724 5.0625V9H28.7183V0.272727H29.724V3.47727H29.8092C29.9626 3.1392 30.1927 2.87074 30.4996 2.67188C30.8092 2.47017 31.2211 2.36932 31.7354 2.36932C32.1814 2.36932 32.572 2.45881 32.9072 2.63778C33.2425 2.81392 33.5024 3.08523 33.6871 3.4517C33.8746 3.81534 33.9683 4.27841 33.9683 4.84091V9H32.9626V4.90909C32.9626 4.3892 32.8277 3.98722 32.5578 3.70312C32.2907 3.41619 31.92 3.27273 31.4456 3.27273C31.116 3.27273 30.8206 3.34233 30.5592 3.48153C30.3007 3.62074 30.0961 3.82386 29.9456 4.09091C29.7979 4.35795 29.724 4.68182 29.724 5.0625ZM40.8366 11.3011C39.9672 11.3011 39.1988 11.1818 38.5312 10.9432C37.8635 10.7074 37.3025 10.3594 36.8479 9.89915C36.3934 9.43892 36.0496 8.875 35.8167 8.20739C35.5837 7.53977 35.4672 6.77557 35.4672 5.91477C35.4672 5.08239 35.5851 4.33807 35.8209 3.68182C36.0596 3.02557 36.4047 2.46875 36.8564 2.01136C37.311 1.55114 37.8621 1.20028 38.5099 0.958807C39.1604 0.717329 39.8962 0.596591 40.7172 0.596591C41.5155 0.596591 42.2144 0.727272 42.8138 0.988636C43.4161 1.24716 43.9189 1.59801 44.3224 2.04119C44.7286 2.48153 45.0326 2.97727 45.2343 3.52841C45.4388 4.07955 45.5411 4.64773 45.5411 5.23295C45.5411 5.64489 45.5212 6.0625 45.4814 6.4858C45.4417 6.90909 45.3579 7.2983 45.23 7.65341C45.1022 8.00568 44.9047 8.28977 44.6377 8.50568C44.3735 8.72159 44.0155 8.82955 43.5638 8.82955C43.365 8.82955 43.1462 8.7983 42.9076 8.7358C42.6689 8.6733 42.4573 8.5696 42.2726 8.42472C42.088 8.27983 41.9786 8.08523 41.9445 7.84091H41.8934C41.8252 8.00568 41.7201 8.16193 41.578 8.30966C41.4388 8.45739 41.2556 8.57528 41.0283 8.66335C40.8039 8.75142 40.5297 8.78977 40.2059 8.77841C39.8366 8.7642 39.5113 8.68182 39.23 8.53125C38.9488 8.37784 38.713 8.17045 38.5226 7.90909C38.3351 7.64489 38.1931 7.33949 38.0965 6.9929C38.0028 6.64347 37.9559 6.26705 37.9559 5.86364C37.9559 5.48011 38.0127 5.12926 38.1263 4.81108C38.24 4.4929 38.3976 4.21449 38.5993 3.97585C38.8039 3.73722 39.0425 3.54687 39.3153 3.40483C39.5908 3.25994 39.8877 3.17045 40.2059 3.13636C40.49 3.10795 40.7485 3.12074 40.9814 3.17472C41.2144 3.22585 41.4062 3.30398 41.5567 3.40909C41.7073 3.51136 41.8025 3.625 41.8422 3.75H41.8934V3.27273H42.7968V7.125C42.7968 7.36364 42.8635 7.57386 42.9971 7.75568C43.1306 7.9375 43.3252 8.02841 43.5809 8.02841C43.8707 8.02841 44.0922 7.92898 44.2457 7.73011C44.4019 7.53125 44.5084 7.22443 44.5653 6.80966C44.6249 6.39489 44.6547 5.86364 44.6547 5.21591C44.6547 4.83523 44.6022 4.46023 44.4971 4.09091C44.3948 3.71875 44.2385 3.37074 44.0283 3.04688C43.8209 2.72301 43.5582 2.4375 43.24 2.19034C42.9218 1.94318 42.5482 1.75 42.1192 1.6108C41.6931 1.46875 41.2087 1.39773 40.6661 1.39773C39.9985 1.39773 39.4005 1.50142 38.8721 1.70881C38.3465 1.91335 37.8991 2.21307 37.5297 2.60795C37.1633 3 36.8834 3.47727 36.6903 4.03977C36.4999 4.59943 36.4047 5.2358 36.4047 5.94886C36.4047 6.6733 36.4999 7.31676 36.6903 7.87926C36.8834 8.44176 37.1675 8.91619 37.5425 9.30256C37.9204 9.68892 38.3877 9.98153 38.9445 10.1804C39.5013 10.3821 40.1434 10.483 40.8707 10.483C41.1832 10.483 41.4914 10.4531 41.7954 10.3935C42.0993 10.3338 42.3678 10.2685 42.6008 10.1974C42.8337 10.1264 43.0013 10.0739 43.1036 10.0398L43.3422 10.8239C43.1661 10.8977 42.936 10.9716 42.6519 11.0455C42.3707 11.1193 42.0695 11.1804 41.7485 11.2287C41.4303 11.277 41.1263 11.3011 40.8366 11.3011ZM40.3422 7.90909C40.7229 7.90909 41.0312 7.83239 41.267 7.67898C41.5028 7.52557 41.6746 7.29403 41.7826 6.98438C41.8905 6.67472 41.9445 6.28409 41.9445 5.8125C41.9445 5.33523 41.8849 4.96307 41.7655 4.69602C41.6462 4.42898 41.4701 4.24148 41.2371 4.13352C41.0042 4.02557 40.7172 3.97159 40.3763 3.97159C40.0525 3.97159 39.7755 4.05682 39.5454 4.22727C39.3181 4.39489 39.1434 4.61932 39.0212 4.90057C38.9019 5.17898 38.8422 5.48295 38.8422 5.8125C38.8422 6.17614 38.8905 6.51847 38.9871 6.83949C39.0837 7.15767 39.2414 7.41619 39.4601 7.61506C39.6789 7.81108 39.9729 7.90909 40.3422 7.90909ZM48.9726 9.15341C48.5578 9.15341 48.1814 9.07528 47.8433 8.91903C47.5052 8.75994 47.2368 8.53125 47.0379 8.23295C46.839 7.93182 46.7396 7.56818 46.7396 7.14205C46.7396 6.76705 46.8135 6.46307 46.9612 6.23011C47.1089 5.99432 47.3064 5.80966 47.5535 5.67614C47.8007 5.54261 48.0734 5.44318 48.3717 5.37784C48.6729 5.30966 48.9754 5.25568 49.2794 5.21591C49.6771 5.16477 49.9996 5.12642 50.2467 5.10085C50.4967 5.07244 50.6785 5.02557 50.7922 4.96023C50.9086 4.89489 50.9669 4.78125 50.9669 4.61932V4.58523C50.9669 4.16477 50.8518 3.83807 50.6217 3.60511C50.3944 3.37216 50.0493 3.25568 49.5862 3.25568C49.1061 3.25568 48.7297 3.3608 48.4569 3.57102C48.1842 3.78125 47.9925 4.00568 47.8817 4.24432L46.9271 3.90341C47.0976 3.50568 47.3248 3.19602 47.6089 2.97443C47.8959 2.75 48.2084 2.59375 48.5464 2.50568C48.8873 2.41477 49.2226 2.36932 49.5521 2.36932C49.7623 2.36932 50.0038 2.39489 50.2765 2.44602C50.5521 2.49432 50.8177 2.59517 51.0734 2.74858C51.3319 2.90199 51.5464 3.13352 51.7169 3.44318C51.8873 3.75284 51.9726 4.16761 51.9726 4.6875V9H50.9669V8.11364H50.9157C50.8476 8.25568 50.7339 8.40767 50.5748 8.5696C50.4157 8.73153 50.2041 8.86932 49.9399 8.98295C49.6757 9.09659 49.3532 9.15341 48.9726 9.15341ZM49.126 8.25C49.5237 8.25 49.8589 8.17188 50.1317 8.01562C50.4072 7.85938 50.6146 7.65767 50.7538 7.41051C50.8959 7.16335 50.9669 6.90341 50.9669 6.63068V5.71023C50.9243 5.76136 50.8305 5.80824 50.6856 5.85085C50.5436 5.89062 50.3788 5.92614 50.1913 5.95739C50.0067 5.9858 49.8263 6.01136 49.6501 6.03409C49.4768 6.05398 49.3362 6.07102 49.2282 6.08523C48.9669 6.11932 48.7226 6.17472 48.4953 6.25142C48.2709 6.32528 48.089 6.4375 47.9498 6.58807C47.8135 6.7358 47.7453 6.9375 47.7453 7.19318C47.7453 7.54261 47.8746 7.80682 48.1331 7.9858C48.3944 8.16193 48.7254 8.25 49.126 8.25ZM56.2797 9.13636C55.7343 9.13636 55.2528 8.99858 54.8351 8.72301C54.4175 8.4446 54.0908 8.05256 53.855 7.54688C53.6192 7.03835 53.5013 6.4375 53.5013 5.74432C53.5013 5.05682 53.6192 4.46023 53.855 3.95455C54.0908 3.44886 54.4189 3.05824 54.8394 2.78267C55.2599 2.5071 55.7456 2.36932 56.2968 2.36932C56.7229 2.36932 57.0596 2.44034 57.3067 2.58239C57.5567 2.72159 57.7471 2.88068 57.8778 3.05966C58.0113 3.2358 58.115 3.38068 58.1888 3.49432H58.2741V0.272727H59.2797V9H58.3082V7.99432H58.1888C58.115 8.11364 58.0099 8.2642 57.8735 8.44602C57.7371 8.625 57.5425 8.78551 57.2897 8.92756C57.0368 9.06676 56.7002 9.13636 56.2797 9.13636ZM56.4161 8.23295C56.8195 8.23295 57.1604 8.12784 57.4388 7.91761C57.7172 7.70455 57.9289 7.41051 58.0738 7.03551C58.2187 6.65767 58.2911 6.22159 58.2911 5.72727C58.2911 5.23864 58.2201 4.81108 58.078 4.4446C57.936 4.07528 57.7258 3.78835 57.4474 3.58381C57.1689 3.37642 56.8252 3.27273 56.4161 3.27273C55.99 3.27273 55.6349 3.3821 55.3508 3.60085C55.0695 3.81676 54.8579 4.1108 54.7158 4.48295C54.5766 4.85227 54.507 5.26705 54.507 5.72727C54.507 6.19318 54.578 6.61648 54.7201 6.99716C54.865 7.375 55.078 7.67614 55.3593 7.90057C55.6434 8.12216 55.9956 8.23295 56.4161 8.23295ZM64.0056 9.13636C63.3749 9.13636 62.8309 8.99716 62.3735 8.71875C61.9189 8.4375 61.5681 8.04545 61.3209 7.54261C61.0766 7.03693 60.9545 6.44886 60.9545 5.77841C60.9545 5.10795 61.0766 4.51705 61.3209 4.00568C61.5681 3.49148 61.9118 3.09091 62.3522 2.80398C62.7954 2.5142 63.3124 2.36932 63.9033 2.36932C64.2442 2.36932 64.5809 2.42614 64.9133 2.53977C65.2457 2.65341 65.5482 2.83807 65.8209 3.09375C66.0937 3.34659 66.311 3.68182 66.4729 4.09943C66.6349 4.51705 66.7158 5.03125 66.7158 5.64205V6.06818H61.6704V5.19886H65.6931C65.6931 4.82955 65.6192 4.5 65.4715 4.21023C65.3266 3.92045 65.1192 3.69176 64.8493 3.52415C64.5823 3.35653 64.267 3.27273 63.9033 3.27273C63.5028 3.27273 63.1562 3.37216 62.8635 3.57102C62.5738 3.76705 62.3508 4.02273 62.1945 4.33807C62.0383 4.65341 61.9601 4.99148 61.9601 5.35227V5.93182C61.9601 6.42614 62.0454 6.84517 62.2158 7.18892C62.3891 7.52983 62.6292 7.78977 62.936 7.96875C63.2428 8.14489 63.5993 8.23295 64.0056 8.23295C64.2698 8.23295 64.5084 8.19602 64.7215 8.12216C64.9374 8.04545 65.1235 7.93182 65.2797 7.78125C65.436 7.62784 65.5567 7.4375 65.642 7.21023L66.6135 7.48295C66.5113 7.8125 66.3394 8.10227 66.0979 8.35227C65.8564 8.59943 65.5581 8.79261 65.203 8.93182C64.8479 9.06818 64.4488 9.13636 64.0056 9.13636ZM70.9047 9.13636C70.2911 9.13636 69.7627 8.99148 69.3195 8.7017C68.8763 8.41193 68.5354 8.01278 68.2968 7.50426C68.0581 6.99574 67.9388 6.41477 67.9388 5.76136C67.9388 5.09659 68.061 4.50994 68.3053 4.00142C68.5525 3.49006 68.8962 3.09091 69.3366 2.80398C69.7797 2.5142 70.2968 2.36932 70.8877 2.36932C71.3479 2.36932 71.7627 2.45455 72.132 2.625C72.5013 2.79545 72.8039 3.03409 73.0397 3.34091C73.2755 3.64773 73.4218 4.00568 73.4786 4.41477H72.4729C72.3962 4.11648 72.2258 3.85227 71.9616 3.62216C71.7002 3.3892 71.3479 3.27273 70.9047 3.27273C70.5127 3.27273 70.1689 3.375 69.8735 3.57955C69.5809 3.78125 69.3522 4.06676 69.1874 4.43608C69.0255 4.80256 68.9445 5.23295 68.9445 5.72727C68.9445 6.23295 69.0241 6.6733 69.1831 7.0483C69.3451 7.4233 69.5724 7.71449 69.865 7.92188C70.1604 8.12926 70.507 8.23295 70.9047 8.23295C71.1661 8.23295 71.4033 8.1875 71.6164 8.09659C71.8295 8.00568 72.0099 7.875 72.1576 7.70455C72.3053 7.53409 72.4104 7.32955 72.4729 7.09091H73.4786C73.4218 7.47727 73.2812 7.82528 73.0567 8.13494C72.8351 8.44176 72.5411 8.68608 72.1746 8.8679C71.811 9.04688 71.3877 9.13636 70.9047 9.13636ZM77.6079 9.13636C77.017 9.13636 76.4985 8.99574 76.0525 8.71449C75.6093 8.43324 75.2627 8.03977 75.0127 7.53409C74.7655 7.02841 74.642 6.4375 74.642 5.76136C74.642 5.07955 74.7655 4.48437 75.0127 3.97585C75.2627 3.46733 75.6093 3.07244 76.0525 2.79119C76.4985 2.50994 77.017 2.36932 77.6079 2.36932C78.1988 2.36932 78.7158 2.50994 79.159 2.79119C79.605 3.07244 79.9516 3.46733 80.1988 3.97585C80.4488 4.48437 80.5738 5.07955 80.5738 5.76136C80.5738 6.4375 80.4488 7.02841 80.1988 7.53409C79.9516 8.03977 79.605 8.43324 79.159 8.71449C78.7158 8.99574 78.1988 9.13636 77.6079 9.13636ZM77.6079 8.23295C78.0567 8.23295 78.426 8.1179 78.7158 7.88778C79.0056 7.65767 79.2201 7.35511 79.3593 6.98011C79.4985 6.60511 79.5681 6.19886 79.5681 5.76136C79.5681 5.32386 79.4985 4.91619 79.3593 4.53835C79.2201 4.16051 79.0056 3.85511 78.7158 3.62216C78.426 3.3892 78.0567 3.27273 77.6079 3.27273C77.159 3.27273 76.7897 3.3892 76.4999 3.62216C76.2101 3.85511 75.9956 4.16051 75.8564 4.53835C75.7172 4.91619 75.6476 5.32386 75.6476 5.76136C75.6476 6.19886 75.7172 6.60511 75.8564 6.98011C75.9956 7.35511 76.2101 7.65767 76.4999 7.88778C76.7897 8.1179 77.159 8.23295 77.6079 8.23295ZM84.8532 9.13636C84.2226 9.13636 83.6785 8.99716 83.2211 8.71875C82.7666 8.4375 82.4157 8.04545 82.1686 7.54261C81.9243 7.03693 81.8021 6.44886 81.8021 5.77841C81.8021 5.10795 81.9243 4.51705 82.1686 4.00568C82.4157 3.49148 82.7595 3.09091 83.1998 2.80398C83.643 2.5142 84.1601 2.36932 84.751 2.36932C85.0919 2.36932 85.4285 2.42614 85.7609 2.53977C86.0933 2.65341 86.3959 2.83807 86.6686 3.09375C86.9413 3.34659 87.1586 3.68182 87.3206 4.09943C87.4825 4.51705 87.5635 5.03125 87.5635 5.64205V6.06818H82.518V5.19886H86.5407C86.5407 4.82955 86.4669 4.5 86.3192 4.21023C86.1743 3.92045 85.9669 3.69176 85.697 3.52415C85.43 3.35653 85.1146 3.27273 84.751 3.27273C84.3504 3.27273 84.0038 3.37216 83.7112 3.57102C83.4214 3.76705 83.1984 4.02273 83.0422 4.33807C82.8859 4.65341 82.8078 4.99148 82.8078 5.35227V5.93182C82.8078 6.42614 82.893 6.84517 83.0635 7.18892C83.2368 7.52983 83.4768 7.78977 83.7836 7.96875C84.0905 8.14489 84.447 8.23295 84.8532 8.23295C85.1175 8.23295 85.3561 8.19602 85.5692 8.12216C85.7851 8.04545 85.9711 7.93182 86.1274 7.78125C86.2836 7.62784 86.4044 7.4375 86.4896 7.21023L87.4612 7.48295C87.3589 7.8125 87.1871 8.10227 86.9456 8.35227C86.7041 8.59943 86.4058 8.79261 86.0507 8.93182C85.6956 9.06818 85.2964 9.13636 84.8532 9.13636ZM90.099 5.0625V9H89.0933V2.45455H90.0649V3.47727H90.1501C90.3035 3.14489 90.5365 2.87784 90.849 2.67614C91.1615 2.47159 91.5649 2.36932 92.0592 2.36932C92.5024 2.36932 92.8902 2.46023 93.2226 2.64205C93.555 2.82102 93.8135 3.09375 93.9981 3.46023C94.1828 3.82386 94.2751 4.28409 94.2751 4.84091V9H93.2694V4.90909C93.2694 4.39489 93.1359 3.99432 92.8689 3.70739C92.6018 3.41761 92.2354 3.27273 91.7694 3.27273C91.4484 3.27273 91.1615 3.34233 90.9086 3.48153C90.6586 3.62074 90.4612 3.82386 90.3163 4.09091C90.1714 4.35795 90.099 4.68182 90.099 5.0625ZM98.8572 9.13636C98.2265 9.13636 97.6824 8.99716 97.2251 8.71875C96.7705 8.4375 96.4197 8.04545 96.1725 7.54261C95.9282 7.03693 95.806 6.44886 95.806 5.77841C95.806 5.10795 95.9282 4.51705 96.1725 4.00568C96.4197 3.49148 96.7634 3.09091 97.2037 2.80398C97.6469 2.5142 98.164 2.36932 98.7549 2.36932C99.0958 2.36932 99.4324 2.42614 99.7648 2.53977C100.097 2.65341 100.4 2.83807 100.672 3.09375C100.945 3.34659 101.163 3.68182 101.324 4.09943C101.486 4.51705 101.567 5.03125 101.567 5.64205V6.06818H96.5219V5.19886H100.545C100.545 4.82955 100.471 4.5 100.323 4.21023C100.178 3.92045 99.9708 3.69176 99.7009 3.52415C99.4339 3.35653 99.1185 3.27273 98.7549 3.27273C98.3543 3.27273 98.0077 3.37216 97.7151 3.57102C97.4253 3.76705 97.2023 4.02273 97.0461 4.33807C96.8898 4.65341 96.8117 4.99148 96.8117 5.35227V5.93182C96.8117 6.42614 96.8969 6.84517 97.0674 7.18892C97.2407 7.52983 97.4807 7.78977 97.7876 7.96875C98.0944 8.14489 98.4509 8.23295 98.8572 8.23295C99.1214 8.23295 99.36 8.19602 99.5731 8.12216C99.789 8.04545 99.9751 7.93182 100.131 7.78125C100.288 7.62784 100.408 7.4375 100.494 7.21023L101.465 7.48295C101.363 7.8125 101.191 8.10227 100.949 8.35227C100.708 8.59943 100.41 8.79261 100.055 8.93182C99.6995 9.06818 99.3003 9.13636 98.8572 9.13636ZM103.097 9V2.45455H104.069V3.44318H104.137C104.256 3.11932 104.472 2.85653 104.785 2.65483C105.097 2.45312 105.449 2.35227 105.842 2.35227C105.915 2.35227 106.008 2.35369 106.119 2.35653C106.229 2.35937 106.313 2.36364 106.37 2.36932V3.39205C106.336 3.38352 106.258 3.37074 106.136 3.35369C106.016 3.33381 105.89 3.32386 105.756 3.32386C105.438 3.32386 105.154 3.39062 104.904 3.52415C104.657 3.65483 104.461 3.83665 104.316 4.0696C104.174 4.29972 104.103 4.5625 104.103 4.85795V9H103.097ZM110.005 11.5909C109.519 11.5909 109.101 11.5284 108.752 11.4034C108.403 11.2812 108.111 11.1193 107.878 10.9176C107.648 10.7188 107.465 10.5057 107.329 10.2784L108.13 9.71591C108.221 9.83523 108.336 9.97159 108.475 10.125C108.614 10.2812 108.805 10.4162 109.046 10.5298C109.29 10.6463 109.61 10.7045 110.005 10.7045C110.533 10.7045 110.969 10.5767 111.313 10.321C111.657 10.0653 111.829 9.66477 111.829 9.11932V7.78977H111.744C111.67 7.90909 111.565 8.05682 111.428 8.23295C111.295 8.40625 111.101 8.56108 110.849 8.69744C110.599 8.83097 110.261 8.89773 109.834 8.89773C109.306 8.89773 108.832 8.77273 108.411 8.52273C107.994 8.27273 107.663 7.90909 107.418 7.43182C107.177 6.95455 107.056 6.375 107.056 5.69318C107.056 5.02273 107.174 4.43892 107.41 3.94176C107.646 3.44176 107.974 3.0554 108.394 2.78267C108.815 2.5071 109.3 2.36932 109.851 2.36932C110.278 2.36932 110.616 2.44034 110.866 2.58239C111.119 2.72159 111.312 2.88068 111.445 3.05966C111.582 3.2358 111.687 3.38068 111.761 3.49432H111.863V2.45455H112.834V9.1875C112.834 9.75 112.707 10.2074 112.451 10.5597C112.198 10.9148 111.857 11.1747 111.428 11.3395C111.002 11.5071 110.528 11.5909 110.005 11.5909ZM109.971 7.99432C110.374 7.99432 110.715 7.90199 110.994 7.71733C111.272 7.53267 111.484 7.26705 111.628 6.92045C111.773 6.57386 111.846 6.15909 111.846 5.67614C111.846 5.20455 111.775 4.78835 111.633 4.42756C111.491 4.06676 111.28 3.78409 111.002 3.57955C110.724 3.375 110.38 3.27273 109.971 3.27273C109.545 3.27273 109.19 3.38068 108.905 3.59659C108.624 3.8125 108.413 4.10227 108.271 4.46591C108.131 4.82955 108.062 5.23295 108.062 5.67614C108.062 6.13068 108.133 6.53267 108.275 6.8821C108.42 7.22869 108.633 7.50142 108.914 7.70028C109.198 7.89631 109.55 7.99432 109.971 7.99432ZM115.323 11.4545C115.153 11.4545 115.001 11.4403 114.867 11.4119C114.734 11.3864 114.641 11.3608 114.59 11.3352L114.846 10.4489C115.09 10.5114 115.306 10.5341 115.494 10.517C115.681 10.5 115.847 10.4162 115.992 10.2656C116.14 10.1179 116.275 9.87784 116.397 9.54545L116.584 9.03409L114.164 2.45455H115.255L117.062 7.67045H117.13L118.937 2.45455H120.028L117.249 9.95455C117.124 10.2926 116.969 10.5724 116.785 10.794C116.6 11.0185 116.386 11.1847 116.141 11.2926C115.9 11.4006 115.627 11.4545 115.323 11.4545ZM121.678 9.06818C121.468 9.06818 121.287 8.9929 121.137 8.84233C120.986 8.69176 120.911 8.51136 120.911 8.30114C120.911 8.09091 120.986 7.91051 121.137 7.75994C121.287 7.60937 121.468 7.53409 121.678 7.53409C121.888 7.53409 122.068 7.60937 122.219 7.75994C122.37 7.91051 122.445 8.09091 122.445 8.30114C122.445 8.44034 122.409 8.56818 122.338 8.68466C122.27 8.80114 122.178 8.89489 122.061 8.96591C121.948 9.03409 121.82 9.06818 121.678 9.06818ZM124.25 9V2.45455H125.255V9H124.25ZM124.761 1.36364C124.565 1.36364 124.396 1.29688 124.254 1.16335C124.115 1.02983 124.045 0.869318 124.045 0.681818C124.045 0.494318 124.115 0.333807 124.254 0.200284C124.396 0.0667613 124.565 0 124.761 0C124.957 0 125.125 0.0667613 125.264 0.200284C125.406 0.333807 125.477 0.494318 125.477 0.681818C125.477 0.869318 125.406 1.02983 125.264 1.16335C125.125 1.29688 124.957 1.36364 124.761 1.36364ZM128.103 5.0625V9H127.097V2.45455H128.069V3.47727H128.154C128.307 3.14489 128.54 2.87784 128.853 2.67614C129.165 2.47159 129.569 2.36932 130.063 2.36932C130.506 2.36932 130.894 2.46023 131.226 2.64205C131.559 2.82102 131.817 3.09375 132.002 3.46023C132.187 3.82386 132.279 4.28409 132.279 4.84091V9H131.273V4.90909C131.273 4.39489 131.14 3.99432 130.873 3.70739C130.606 3.41761 130.239 3.27273 129.773 3.27273C129.452 3.27273 129.165 3.34233 128.913 3.48153C128.663 3.62074 128.465 3.82386 128.32 4.09091C128.175 4.35795 128.103 4.68182 128.103 5.0625Z" fill="#202020"/>
</svg>
