<svg width="222" height="27" viewBox="0 0 222 27" fill="none" xmlns="http://www.w3.org/2000/svg">
<path d="M6.54492 9H3.85174V0.272727H6.66424C7.51083 0.272727 8.23526 0.447443 8.83754 0.796875C9.43981 1.14347 9.90146 1.64205 10.2225 2.29261C10.5435 2.94034 10.704 3.71591 10.704 4.61932C10.704 5.52841 10.5421 6.31108 10.2182 6.96733C9.89435 7.62074 9.42276 8.12358 8.80344 8.47585C8.18413 8.82528 7.43129 9 6.54492 9ZM4.90856 8.0625H6.47674C7.19833 8.0625 7.79634 7.9233 8.27077 7.64489C8.74521 7.36648 9.0989 6.97017 9.33185 6.45597C9.56481 5.94176 9.68129 5.32955 9.68129 4.61932C9.68129 3.91477 9.56623 3.30824 9.33612 2.79972C9.106 2.28835 8.76225 1.89631 8.30487 1.62358C7.84748 1.34801 7.27788 1.21023 6.59606 1.21023H4.90856V8.0625ZM12.3233 9V8.23295L15.204 5.07955C15.5421 4.71023 15.8205 4.3892 16.0392 4.11648C16.258 3.84091 16.4199 3.58239 16.525 3.34091C16.633 3.09659 16.687 2.84091 16.687 2.57386C16.687 2.26705 16.6131 2.00142 16.4654 1.77699C16.3205 1.55256 16.1216 1.37926 15.8688 1.2571C15.6159 1.13494 15.3319 1.07386 15.0165 1.07386C14.6813 1.07386 14.3887 1.14347 14.1387 1.28267C13.8915 1.41903 13.6998 1.6108 13.5634 1.85795C13.4299 2.10511 13.3631 2.39489 13.3631 2.72727H12.3574C12.3574 2.21591 12.4753 1.76705 12.7111 1.38068C12.9469 0.994318 13.2679 0.693181 13.6742 0.477272C14.0833 0.261363 14.5421 0.153409 15.0506 0.153409C15.562 0.153409 16.0151 0.261363 16.41 0.477272C16.8049 0.693181 17.1145 0.984375 17.339 1.35085C17.5634 1.71733 17.6756 2.125 17.6756 2.57386C17.6756 2.89489 17.6174 3.20881 17.5009 3.51562C17.3873 3.8196 17.1884 4.15909 16.9043 4.53409C16.623 4.90625 16.2324 5.3608 15.7324 5.89773L13.7722 7.99432V8.0625H17.829V9H12.3233ZM19.589 9V8.23295L22.4696 5.07955C22.8077 4.71023 23.0861 4.3892 23.3049 4.11648C23.5236 3.84091 23.6855 3.58239 23.7907 3.34091C23.8986 3.09659 23.9526 2.84091 23.9526 2.57386C23.9526 2.26705 23.8787 2.00142 23.731 1.77699C23.5861 1.55256 23.3873 1.37926 23.1344 1.2571C22.8816 1.13494 22.5975 1.07386 22.2821 1.07386C21.9469 1.07386 21.6543 1.14347 21.4043 1.28267C21.1571 1.41903 20.9654 1.6108 20.829 1.85795C20.6955 2.10511 20.6287 2.39489 20.6287 2.72727H19.623C19.623 2.21591 19.7409 1.76705 19.9767 1.38068C20.2125 0.994318 20.5336 0.693181 20.9398 0.477272C21.3489 0.261363 21.8077 0.153409 22.3162 0.153409C22.8276 0.153409 23.2807 0.261363 23.6756 0.477272C24.0705 0.693181 24.3801 0.984375 24.6046 1.35085C24.829 1.71733 24.9412 2.125 24.9412 2.57386C24.9412 2.89489 24.883 3.20881 24.7665 3.51562C24.6529 3.8196 24.454 4.15909 24.1699 4.53409C23.8887 4.90625 23.498 5.3608 22.998 5.89773L21.0378 7.99432V8.0625H25.0946V9H19.589ZM34.883 3.92045L33.9796 4.17614C33.9228 4.02557 33.839 3.87926 33.7282 3.73722C33.6202 3.59233 33.4725 3.47301 33.285 3.37926C33.0975 3.28551 32.8574 3.23864 32.5648 3.23864C32.1642 3.23864 31.8304 3.33097 31.5634 3.51562C31.2992 3.69744 31.1671 3.92898 31.1671 4.21023C31.1671 4.46023 31.258 4.65767 31.4398 4.80256C31.6216 4.94744 31.9057 5.06818 32.2921 5.16477L33.2637 5.40341C33.8489 5.54545 34.285 5.76278 34.5719 6.0554C34.8588 6.34517 35.0023 6.71875 35.0023 7.17614C35.0023 7.55114 34.8944 7.88636 34.6784 8.18182C34.4654 8.47727 34.1671 8.71023 33.7836 8.88068C33.4 9.05114 32.954 9.13636 32.4455 9.13636C31.7779 9.13636 31.2253 8.99148 30.7878 8.7017C30.3503 8.41193 30.0733 7.98864 29.9569 7.43182L30.9114 7.19318C31.0023 7.54545 31.1742 7.80966 31.427 7.9858C31.6827 8.16193 32.0165 8.25 32.4284 8.25C32.8972 8.25 33.2694 8.15057 33.5449 7.9517C33.8233 7.75 33.9625 7.50852 33.9625 7.22727C33.9625 7 33.883 6.80966 33.7239 6.65625C33.5648 6.5 33.3205 6.38352 32.9909 6.30682L31.9 6.05114C31.3006 5.90909 30.8603 5.68892 30.579 5.39062C30.3006 5.08949 30.1614 4.71307 30.1614 4.26136C30.1614 3.89205 30.2651 3.56534 30.4725 3.28125C30.6827 2.99716 30.9682 2.77415 31.329 2.61222C31.6926 2.45028 32.1046 2.36932 32.5648 2.36932C33.2125 2.36932 33.7211 2.51136 34.0904 2.79545C34.4625 3.07955 34.7267 3.45455 34.883 3.92045ZM36.5162 9V2.45455H37.5218V9H36.5162ZM37.0275 1.36364C36.8315 1.36364 36.6625 1.29688 36.5204 1.16335C36.3812 1.02983 36.3116 0.869318 36.3116 0.681818C36.3116 0.494318 36.3812 0.333807 36.5204 0.200284C36.6625 0.0667613 36.8315 0 37.0275 0C37.2235 0 37.3912 0.0667613 37.5304 0.200284C37.6724 0.333807 37.7434 0.494318 37.7434 0.681818C37.7434 0.869318 37.6724 1.02983 37.5304 1.16335C37.3912 1.29688 37.2235 1.36364 37.0275 1.36364ZM41.8354 9.13636C41.29 9.13636 40.8084 8.99858 40.3908 8.72301C39.9732 8.4446 39.6465 8.05256 39.4107 7.54688C39.1749 7.03835 39.057 6.4375 39.057 5.74432C39.057 5.05682 39.1749 4.46023 39.4107 3.95455C39.6465 3.44886 39.9746 3.05824 40.3951 2.78267C40.8155 2.5071 41.3013 2.36932 41.8525 2.36932C42.2786 2.36932 42.6152 2.44034 42.8624 2.58239C43.1124 2.72159 43.3027 2.88068 43.4334 3.05966C43.5669 3.2358 43.6706 3.38068 43.7445 3.49432H43.8297V0.272727H44.8354V9H43.8638V7.99432H43.7445C43.6706 8.11364 43.5655 8.2642 43.4292 8.44602C43.2928 8.625 43.0982 8.78551 42.8453 8.92756C42.5925 9.06676 42.2559 9.13636 41.8354 9.13636ZM41.9718 8.23295C42.3752 8.23295 42.7161 8.12784 42.9945 7.91761C43.2729 7.70455 43.4846 7.41051 43.6294 7.03551C43.7743 6.65767 43.8468 6.22159 43.8468 5.72727C43.8468 5.23864 43.7757 4.81108 43.6337 4.4446C43.4917 4.07528 43.2814 3.78835 43.003 3.58381C42.7246 3.37642 42.3809 3.27273 41.9718 3.27273C41.5456 3.27273 41.1905 3.3821 40.9064 3.60085C40.6252 3.81676 40.4135 4.1108 40.2715 4.48295C40.1323 4.85227 40.0627 5.26705 40.0627 5.72727C40.0627 6.19318 40.1337 6.61648 40.2757 6.99716C40.4206 7.375 40.6337 7.67614 40.915 7.90057C41.199 8.12216 41.5513 8.23295 41.9718 8.23295ZM49.476 9.13636C48.8624 9.13636 48.334 8.99148 47.8908 8.7017C47.4476 8.41193 47.1067 8.01278 46.8681 7.50426C46.6294 6.99574 46.5101 6.41477 46.5101 5.76136C46.5101 5.09659 46.6323 4.50994 46.8766 4.00142C47.1238 3.49006 47.4675 3.09091 47.9078 2.80398C48.351 2.5142 48.8681 2.36932 49.459 2.36932C49.9192 2.36932 50.334 2.45455 50.7033 2.625C51.0726 2.79545 51.3752 3.03409 51.611 3.34091C51.8468 3.64773 51.9931 4.00568 52.0499 4.41477H51.0442C50.9675 4.11648 50.7971 3.85227 50.5328 3.62216C50.2715 3.3892 49.9192 3.27273 49.476 3.27273C49.084 3.27273 48.7402 3.375 48.4448 3.57955C48.1522 3.78125 47.9235 4.06676 47.7587 4.43608C47.5968 4.80256 47.5158 5.23295 47.5158 5.72727C47.5158 6.23295 47.5953 6.6733 47.7544 7.0483C47.9164 7.4233 48.1436 7.71449 48.4363 7.92188C48.7317 8.12926 49.0783 8.23295 49.476 8.23295C49.7374 8.23295 49.9746 8.1875 50.1877 8.09659C50.4007 8.00568 50.5811 7.875 50.7289 7.70455C50.8766 7.53409 50.9817 7.32955 51.0442 7.09091H52.0499C51.9931 7.47727 51.8525 7.82528 51.628 8.13494C51.4064 8.44176 51.1124 8.68608 50.7459 8.8679C50.3823 9.04688 49.959 9.13636 49.476 9.13636ZM56.1792 9.13636C55.5882 9.13636 55.0698 8.99574 54.6238 8.71449C54.1806 8.43324 53.834 8.03977 53.584 7.53409C53.3368 7.02841 53.2132 6.4375 53.2132 5.76136C53.2132 5.07955 53.3368 4.48437 53.584 3.97585C53.834 3.46733 54.1806 3.07244 54.6238 2.79119C55.0698 2.50994 55.5882 2.36932 56.1792 2.36932C56.7701 2.36932 57.2871 2.50994 57.7303 2.79119C58.1763 3.07244 58.5229 3.46733 58.7701 3.97585C59.0201 4.48437 59.1451 5.07955 59.1451 5.76136C59.1451 6.4375 59.0201 7.02841 58.7701 7.53409C58.5229 8.03977 58.1763 8.43324 57.7303 8.71449C57.2871 8.99574 56.7701 9.13636 56.1792 9.13636ZM56.1792 8.23295C56.628 8.23295 56.9973 8.1179 57.2871 7.88778C57.5769 7.65767 57.7914 7.35511 57.9306 6.98011C58.0698 6.60511 58.1394 6.19886 58.1394 5.76136C58.1394 5.32386 58.0698 4.91619 57.9306 4.53835C57.7914 4.16051 57.5769 3.85511 57.2871 3.62216C56.9973 3.3892 56.628 3.27273 56.1792 3.27273C55.7303 3.27273 55.361 3.3892 55.0712 3.62216C54.7814 3.85511 54.5669 4.16051 54.4277 4.53835C54.2885 4.91619 54.2189 5.32386 54.2189 5.76136C54.2189 6.19886 54.2885 6.60511 54.4277 6.98011C54.5669 7.35511 54.7814 7.65767 55.0712 7.88778C55.361 8.1179 55.7303 8.23295 56.1792 8.23295ZM64.0552 9V2.45455H65.0609V9H64.0552ZM64.5666 1.36364C64.3706 1.36364 64.2015 1.29688 64.0595 1.16335C63.9203 1.02983 63.8507 0.869318 63.8507 0.681818C63.8507 0.494318 63.9203 0.333807 64.0595 0.200284C64.2015 0.0667613 64.3706 0 64.5666 0C64.7626 0 64.9302 0.0667613 65.0694 0.200284C65.2115 0.333807 65.2825 0.494318 65.2825 0.681818C65.2825 0.869318 65.2115 1.02983 65.0694 1.16335C64.9302 1.29688 64.7626 1.36364 64.5666 1.36364ZM67.9086 5.0625V9H66.9029V2.45455H67.8745V3.47727H67.9597C68.1131 3.14489 68.3461 2.87784 68.6586 2.67614C68.9711 2.47159 69.3745 2.36932 69.8688 2.36932C70.312 2.36932 70.6998 2.46023 71.0321 2.64205C71.3645 2.82102 71.623 3.09375 71.8077 3.46023C71.9924 3.82386 72.0847 4.28409 72.0847 4.84091V9H71.079V4.90909C71.079 4.39489 70.9455 3.99432 70.6784 3.70739C70.4114 3.41761 70.0449 3.27273 69.579 3.27273C69.258 3.27273 68.9711 3.34233 68.7182 3.48153C68.4682 3.62074 68.2708 3.82386 68.1259 4.09091C67.981 4.35795 67.9086 4.68182 67.9086 5.0625ZM76.394 9.13636C75.8485 9.13636 75.367 8.99858 74.9494 8.72301C74.5318 8.4446 74.2051 8.05256 73.9693 7.54688C73.7335 7.03835 73.6156 6.4375 73.6156 5.74432C73.6156 5.05682 73.7335 4.46023 73.9693 3.95455C74.2051 3.44886 74.5332 3.05824 74.9537 2.78267C75.3741 2.5071 75.8599 2.36932 76.411 2.36932C76.8372 2.36932 77.1738 2.44034 77.421 2.58239C77.671 2.72159 77.8613 2.88068 77.992 3.05966C78.1255 3.2358 78.2292 3.38068 78.3031 3.49432H78.3883V0.272727H79.394V9H78.4224V7.99432H78.3031C78.2292 8.11364 78.1241 8.2642 77.9877 8.44602C77.8514 8.625 77.6568 8.78551 77.4039 8.92756C77.1511 9.06676 76.8145 9.13636 76.394 9.13636ZM76.5304 8.23295C76.9338 8.23295 77.2747 8.12784 77.5531 7.91761C77.8315 7.70455 78.0431 7.41051 78.188 7.03551C78.3329 6.65767 78.4054 6.22159 78.4054 5.72727C78.4054 5.23864 78.3343 4.81108 78.1923 4.4446C78.0502 4.07528 77.84 3.78835 77.5616 3.58381C77.2832 3.37642 76.9395 3.27273 76.5304 3.27273C76.1042 3.27273 75.7491 3.3821 75.465 3.60085C75.1838 3.81676 74.9721 4.1108 74.8301 4.48295C74.6909 4.85227 74.6213 5.26705 74.6213 5.72727C74.6213 6.19318 74.6923 6.61648 74.8343 6.99716C74.9792 7.375 75.1923 7.67614 75.4735 7.90057C75.7576 8.12216 76.1099 8.23295 76.5304 8.23295ZM85.5005 6.32386V2.45455H86.5062V9H85.5005V7.89205H85.4324C85.2789 8.22443 85.0403 8.5071 84.7164 8.74006C84.3926 8.97017 83.9835 9.08523 83.4892 9.08523C83.0801 9.08523 82.7164 8.99574 82.3983 8.81676C82.0801 8.63494 81.8301 8.36222 81.6483 7.99858C81.4664 7.6321 81.3755 7.17045 81.3755 6.61364V2.45455H82.3812V6.54545C82.3812 7.02273 82.5147 7.40341 82.7818 7.6875C83.0517 7.97159 83.3954 8.11364 83.813 8.11364C84.063 8.11364 84.3173 8.04972 84.5758 7.92188C84.8372 7.79403 85.0559 7.59801 85.2321 7.33381C85.411 7.0696 85.5005 6.73295 85.5005 6.32386ZM92.9846 3.92045L92.0811 4.17614C92.0243 4.02557 91.9405 3.87926 91.8297 3.73722C91.7218 3.59233 91.574 3.47301 91.3865 3.37926C91.199 3.28551 90.959 3.23864 90.6664 3.23864C90.2658 3.23864 89.932 3.33097 89.665 3.51562C89.4007 3.69744 89.2686 3.92898 89.2686 4.21023C89.2686 4.46023 89.3596 4.65767 89.5414 4.80256C89.7232 4.94744 90.0073 5.06818 90.3936 5.16477L91.3652 5.40341C91.9505 5.54545 92.3865 5.76278 92.6735 6.0554C92.9604 6.34517 93.1039 6.71875 93.1039 7.17614C93.1039 7.55114 92.9959 7.88636 92.78 8.18182C92.5669 8.47727 92.2686 8.71023 91.8851 8.88068C91.5016 9.05114 91.0556 9.13636 90.5471 9.13636C89.8794 9.13636 89.3269 8.99148 88.8894 8.7017C88.4519 8.41193 88.1749 7.98864 88.0584 7.43182L89.013 7.19318C89.1039 7.54545 89.2757 7.80966 89.5286 7.9858C89.7843 8.16193 90.1181 8.25 90.53 8.25C90.9988 8.25 91.3709 8.15057 91.6465 7.9517C91.9249 7.75 92.0641 7.50852 92.0641 7.22727C92.0641 7 91.9846 6.80966 91.8255 6.65625C91.6664 6.5 91.4221 6.38352 91.0925 6.30682L90.0016 6.05114C89.4022 5.90909 88.9618 5.68892 88.6806 5.39062C88.4022 5.08949 88.263 4.71307 88.263 4.26136C88.263 3.89205 88.3667 3.56534 88.574 3.28125C88.7843 2.99716 89.0698 2.77415 89.4306 2.61222C89.7942 2.45028 90.2061 2.36932 90.6664 2.36932C91.3141 2.36932 91.8226 2.51136 92.1919 2.79545C92.5641 3.07955 92.8283 3.45455 92.9846 3.92045ZM97.4643 2.45455V3.30682H94.0723V2.45455H97.4643ZM95.0609 0.886364H96.0666V7.125C96.0666 7.40909 96.1078 7.62216 96.1902 7.7642C96.2754 7.90341 96.3833 7.99716 96.514 8.04545C96.6475 8.09091 96.7882 8.11364 96.9359 8.11364C97.0467 8.11364 97.1376 8.10795 97.2086 8.09659C97.2797 8.08239 97.3365 8.07102 97.3791 8.0625L97.5836 8.96591C97.5154 8.99148 97.4203 9.01705 97.2981 9.04261C97.176 9.07102 97.0211 9.08523 96.8336 9.08523C96.5495 9.08523 96.2711 9.02415 95.9984 8.90199C95.7285 8.77983 95.5041 8.59375 95.3251 8.34375C95.149 8.09375 95.0609 7.77841 95.0609 7.39773V0.886364ZM98.9771 9V2.45455H99.9487V3.44318H100.017C100.136 3.11932 100.352 2.85653 100.665 2.65483C100.977 2.45312 101.329 2.35227 101.721 2.35227C101.795 2.35227 101.888 2.35369 101.998 2.35653C102.109 2.35937 102.193 2.36364 102.25 2.36932V3.39205C102.216 3.38352 102.138 3.37074 102.015 3.35369C101.896 3.33381 101.77 3.32386 101.636 3.32386C101.318 3.32386 101.034 3.39062 100.784 3.52415C100.537 3.65483 100.341 3.83665 100.196 4.0696C100.054 4.29972 99.9828 4.5625 99.9828 4.85795V9H98.9771ZM103.442 9V2.45455H104.448V9H103.442ZM103.953 1.36364C103.757 1.36364 103.588 1.29688 103.446 1.16335C103.307 1.02983 103.237 0.869318 103.237 0.681818C103.237 0.494318 103.307 0.333807 103.446 0.200284C103.588 0.0667613 103.757 0 103.953 0C104.149 0 104.317 0.0667613 104.456 0.200284C104.598 0.333807 104.669 0.494318 104.669 0.681818C104.669 0.869318 104.598 1.02983 104.456 1.16335C104.317 1.29688 104.149 1.36364 103.953 1.36364ZM108.216 9.15341C107.801 9.15341 107.425 9.07528 107.086 8.91903C106.748 8.75994 106.48 8.53125 106.281 8.23295C106.082 7.93182 105.983 7.56818 105.983 7.14205C105.983 6.76705 106.057 6.46307 106.204 6.23011C106.352 5.99432 106.55 5.80966 106.797 5.67614C107.044 5.54261 107.317 5.44318 107.615 5.37784C107.916 5.30966 108.219 5.25568 108.523 5.21591C108.92 5.16477 109.243 5.12642 109.49 5.10085C109.74 5.07244 109.922 5.02557 110.035 4.96023C110.152 4.89489 110.21 4.78125 110.21 4.61932V4.58523C110.21 4.16477 110.095 3.83807 109.865 3.60511C109.638 3.37216 109.292 3.25568 108.829 3.25568C108.349 3.25568 107.973 3.3608 107.7 3.57102C107.427 3.78125 107.236 4.00568 107.125 4.24432L106.17 3.90341C106.341 3.50568 106.568 3.19602 106.852 2.97443C107.139 2.75 107.452 2.59375 107.79 2.50568C108.131 2.41477 108.466 2.36932 108.795 2.36932C109.006 2.36932 109.247 2.39489 109.52 2.44602C109.795 2.49432 110.061 2.59517 110.317 2.74858C110.575 2.90199 110.79 3.13352 110.96 3.44318C111.131 3.75284 111.216 4.16761 111.216 4.6875V9H110.21V8.11364H110.159C110.091 8.25568 109.977 8.40767 109.818 8.5696C109.659 8.73153 109.447 8.86932 109.183 8.98295C108.919 9.09659 108.596 9.15341 108.216 9.15341ZM108.369 8.25C108.767 8.25 109.102 8.17188 109.375 8.01562C109.65 7.85938 109.858 7.65767 109.997 7.41051C110.139 7.16335 110.21 6.90341 110.21 6.63068V5.71023C110.167 5.76136 110.074 5.80824 109.929 5.85085C109.787 5.89062 109.622 5.92614 109.434 5.95739C109.25 5.9858 109.069 6.01136 108.893 6.03409C108.72 6.05398 108.579 6.07102 108.471 6.08523C108.21 6.11932 107.966 6.17472 107.738 6.25142C107.514 6.32528 107.332 6.4375 107.193 6.58807C107.057 6.7358 106.988 6.9375 106.988 7.19318C106.988 7.54261 107.118 7.80682 107.376 7.9858C107.638 8.16193 107.969 8.25 108.369 8.25ZM114.057 0.272727V9H113.051V0.272727H114.057ZM122.018 9.13636C121.388 9.13636 120.844 8.99716 120.386 8.71875C119.932 8.4375 119.581 8.04545 119.334 7.54261C119.089 7.03693 118.967 6.44886 118.967 5.77841C118.967 5.10795 119.089 4.51705 119.334 4.00568C119.581 3.49148 119.925 3.09091 120.365 2.80398C120.808 2.5142 121.325 2.36932 121.916 2.36932C122.257 2.36932 122.594 2.42614 122.926 2.53977C123.258 2.65341 123.561 2.83807 123.834 3.09375C124.106 3.34659 124.324 3.68182 124.486 4.09943C124.648 4.51705 124.729 5.03125 124.729 5.64205V6.06818H119.683V5.19886H123.706C123.706 4.82955 123.632 4.5 123.484 4.21023C123.339 3.92045 123.132 3.69176 122.862 3.52415C122.595 3.35653 122.28 3.27273 121.916 3.27273C121.515 3.27273 121.169 3.37216 120.876 3.57102C120.586 3.76705 120.363 4.02273 120.207 4.33807C120.051 4.65341 119.973 4.99148 119.973 5.35227V5.93182C119.973 6.42614 120.058 6.84517 120.229 7.18892C120.402 7.52983 120.642 7.78977 120.949 7.96875C121.256 8.14489 121.612 8.23295 122.018 8.23295C122.282 8.23295 122.521 8.19602 122.734 8.12216C122.95 8.04545 123.136 7.93182 123.292 7.78125C123.449 7.62784 123.569 7.4375 123.655 7.21023L124.626 7.48295C124.524 7.8125 124.352 8.10227 124.111 8.35227C123.869 8.59943 123.571 8.79261 123.216 8.93182C122.861 9.06818 122.461 9.13636 122.018 9.13636ZM130.895 3.92045L129.991 4.17614C129.934 4.02557 129.851 3.87926 129.74 3.73722C129.632 3.59233 129.484 3.47301 129.297 3.37926C129.109 3.28551 128.869 3.23864 128.577 3.23864C128.176 3.23864 127.842 3.33097 127.575 3.51562C127.311 3.69744 127.179 3.92898 127.179 4.21023C127.179 4.46023 127.27 4.65767 127.452 4.80256C127.633 4.94744 127.917 5.06818 128.304 5.16477L129.275 5.40341C129.861 5.54545 130.297 5.76278 130.584 6.0554C130.871 6.34517 131.014 6.71875 131.014 7.17614C131.014 7.55114 130.906 7.88636 130.69 8.18182C130.477 8.47727 130.179 8.71023 129.795 8.88068C129.412 9.05114 128.966 9.13636 128.457 9.13636C127.79 9.13636 127.237 8.99148 126.8 8.7017C126.362 8.41193 126.085 7.98864 125.969 7.43182L126.923 7.19318C127.014 7.54545 127.186 7.80966 127.439 7.9858C127.694 8.16193 128.028 8.25 128.44 8.25C128.909 8.25 129.281 8.15057 129.557 7.9517C129.835 7.75 129.974 7.50852 129.974 7.22727C129.974 7 129.895 6.80966 129.736 6.65625C129.577 6.5 129.332 6.38352 129.003 6.30682L127.912 6.05114C127.312 5.90909 126.872 5.68892 126.591 5.39062C126.312 5.08949 126.173 4.71307 126.173 4.26136C126.173 3.89205 126.277 3.56534 126.484 3.28125C126.694 2.99716 126.98 2.77415 127.341 2.61222C127.704 2.45028 128.116 2.36932 128.577 2.36932C129.224 2.36932 129.733 2.51136 130.102 2.79545C130.474 3.07955 130.738 3.45455 130.895 3.92045ZM135.374 2.45455V3.30682H131.982V2.45455H135.374ZM132.971 0.886364H133.977V7.125C133.977 7.40909 134.018 7.62216 134.1 7.7642C134.186 7.90341 134.294 7.99716 134.424 8.04545C134.558 8.09091 134.698 8.11364 134.846 8.11364C134.957 8.11364 135.048 8.10795 135.119 8.09659C135.19 8.08239 135.247 8.07102 135.289 8.0625L135.494 8.96591C135.426 8.99148 135.33 9.01705 135.208 9.04261C135.086 9.07102 134.931 9.08523 134.744 9.08523C134.46 9.08523 134.181 9.02415 133.909 8.90199C133.639 8.77983 133.414 8.59375 133.235 8.34375C133.059 8.09375 132.971 7.77841 132.971 7.39773V0.886364ZM138.813 9.15341C138.399 9.15341 138.022 9.07528 137.684 8.91903C137.346 8.75994 137.078 8.53125 136.879 8.23295C136.68 7.93182 136.58 7.56818 136.58 7.14205C136.58 6.76705 136.654 6.46307 136.802 6.23011C136.95 5.99432 137.147 5.80966 137.394 5.67614C137.642 5.54261 137.914 5.44318 138.213 5.37784C138.514 5.30966 138.816 5.25568 139.12 5.21591C139.518 5.16477 139.84 5.12642 140.088 5.10085C140.338 5.07244 140.519 5.02557 140.633 4.96023C140.749 4.89489 140.808 4.78125 140.808 4.61932V4.58523C140.808 4.16477 140.693 3.83807 140.463 3.60511C140.235 3.37216 139.89 3.25568 139.427 3.25568C138.947 3.25568 138.57 3.3608 138.298 3.57102C138.025 3.78125 137.833 4.00568 137.722 4.24432L136.768 3.90341C136.938 3.50568 137.166 3.19602 137.45 2.97443C137.737 2.75 138.049 2.59375 138.387 2.50568C138.728 2.41477 139.063 2.36932 139.393 2.36932C139.603 2.36932 139.845 2.39489 140.117 2.44602C140.393 2.49432 140.659 2.59517 140.914 2.74858C141.173 2.90199 141.387 3.13352 141.558 3.44318C141.728 3.75284 141.813 4.16761 141.813 4.6875V9H140.808V8.11364H140.757C140.688 8.25568 140.575 8.40767 140.416 8.5696C140.257 8.73153 140.045 8.86932 139.781 8.98295C139.517 9.09659 139.194 9.15341 138.813 9.15341ZM138.967 8.25C139.365 8.25 139.7 8.17188 139.972 8.01562C140.248 7.85938 140.455 7.65767 140.595 7.41051C140.737 7.16335 140.808 6.90341 140.808 6.63068V5.71023C140.765 5.76136 140.671 5.80824 140.526 5.85085C140.384 5.89062 140.22 5.92614 140.032 5.95739C139.847 5.9858 139.667 6.01136 139.491 6.03409C139.318 6.05398 139.177 6.07102 139.069 6.08523C138.808 6.11932 138.563 6.17472 138.336 6.25142C138.112 6.32528 137.93 6.4375 137.791 6.58807C137.654 6.7358 137.586 6.9375 137.586 7.19318C137.586 7.54261 137.715 7.80682 137.974 7.9858C138.235 8.16193 138.566 8.25 138.967 8.25ZM146.496 2.45455V3.30682H143.104V2.45455H146.496ZM144.092 0.886364H145.098V7.125C145.098 7.40909 145.139 7.62216 145.221 7.7642C145.307 7.90341 145.415 7.99716 145.545 8.04545C145.679 8.09091 145.819 8.11364 145.967 8.11364C146.078 8.11364 146.169 8.10795 146.24 8.09659C146.311 8.08239 146.368 8.07102 146.41 8.0625L146.615 8.96591C146.547 8.99148 146.452 9.01705 146.329 9.04261C146.207 9.07102 146.052 9.08523 145.865 9.08523C145.581 9.08523 145.302 9.02415 145.03 8.90199C144.76 8.77983 144.535 8.59375 144.356 8.34375C144.18 8.09375 144.092 7.77841 144.092 7.39773V0.886364ZM150.682 9.13636C150.052 9.13636 149.508 8.99716 149.05 8.71875C148.596 8.4375 148.245 8.04545 147.998 7.54261C147.753 7.03693 147.631 6.44886 147.631 5.77841C147.631 5.10795 147.753 4.51705 147.998 4.00568C148.245 3.49148 148.589 3.09091 149.029 2.80398C149.472 2.5142 149.989 2.36932 150.58 2.36932C150.921 2.36932 151.258 2.42614 151.59 2.53977C151.922 2.65341 152.225 2.83807 152.498 3.09375C152.77 3.34659 152.988 3.68182 153.15 4.09943C153.312 4.51705 153.393 5.03125 153.393 5.64205V6.06818H148.347V5.19886H152.37C152.37 4.82955 152.296 4.5 152.148 4.21023C152.003 3.92045 151.796 3.69176 151.526 3.52415C151.259 3.35653 150.944 3.27273 150.58 3.27273C150.18 3.27273 149.833 3.37216 149.54 3.57102C149.251 3.76705 149.028 4.02273 148.871 4.33807C148.715 4.65341 148.637 4.99148 148.637 5.35227V5.93182C148.637 6.42614 148.722 6.84517 148.893 7.18892C149.066 7.52983 149.306 7.78977 149.613 7.96875C149.92 8.14489 150.276 8.23295 150.682 8.23295C150.947 8.23295 151.185 8.19602 151.398 8.12216C151.614 8.04545 151.8 7.93182 151.956 7.78125C152.113 7.62784 152.233 7.4375 152.319 7.21023L153.29 7.48295C153.188 7.8125 153.016 8.10227 152.775 8.35227C152.533 8.59943 152.235 8.79261 151.88 8.93182C151.525 9.06818 151.126 9.13636 150.682 9.13636ZM156.422 7.80682L156.354 8.26705C156.306 8.59091 156.232 8.9375 156.133 9.30682C156.036 9.67614 155.935 10.0241 155.83 10.3509C155.725 10.6776 155.638 10.9375 155.57 11.1307H154.803C154.84 10.9489 154.888 10.7088 154.948 10.4105C155.008 10.1122 155.067 9.77841 155.127 9.40909C155.189 9.04261 155.241 8.66761 155.28 8.28409L155.331 7.80682H156.422ZM161.32 1.21023V0.272727H167.865V1.21023H165.121V9H164.064V1.21023H161.32ZM170.366 5.0625V9H169.36V0.272727H170.366V3.47727H170.451C170.604 3.1392 170.834 2.87074 171.141 2.67188C171.451 2.47017 171.863 2.36932 172.377 2.36932C172.823 2.36932 173.214 2.45881 173.549 2.63778C173.884 2.81392 174.144 3.08523 174.329 3.4517C174.516 3.81534 174.61 4.27841 174.61 4.84091V9H173.604V4.90909C173.604 4.3892 173.469 3.98722 173.199 3.70312C172.932 3.41619 172.562 3.27273 172.087 3.27273C171.758 3.27273 171.462 3.34233 171.201 3.48153C170.942 3.62074 170.738 3.82386 170.587 4.09091C170.439 4.35795 170.366 4.68182 170.366 5.0625ZM180.575 6.32386V2.45455H181.58V9H180.575V7.89205H180.507C180.353 8.22443 180.115 8.5071 179.791 8.74006C179.467 8.97017 179.058 9.08523 178.563 9.08523C178.154 9.08523 177.791 8.99574 177.472 8.81676C177.154 8.63494 176.904 8.36222 176.722 7.99858C176.541 7.6321 176.45 7.17045 176.45 6.61364V2.45455H177.455V6.54545C177.455 7.02273 177.589 7.40341 177.856 7.6875C178.126 7.97159 178.47 8.11364 178.887 8.11364C179.137 8.11364 179.392 8.04972 179.65 7.92188C179.911 7.79403 180.13 7.59801 180.306 7.33381C180.485 7.0696 180.575 6.73295 180.575 6.32386ZM188.775 2.45455L186.354 9H185.331L182.911 2.45455H184.002L185.809 7.67045H185.877L187.684 2.45455H188.775ZM191.829 9.15341C191.414 9.15341 191.038 9.07528 190.7 8.91903C190.362 8.75994 190.093 8.53125 189.894 8.23295C189.695 7.93182 189.596 7.56818 189.596 7.14205C189.596 6.76705 189.67 6.46307 189.818 6.23011C189.965 5.99432 190.163 5.80966 190.41 5.67614C190.657 5.54261 190.93 5.44318 191.228 5.37784C191.529 5.30966 191.832 5.25568 192.136 5.21591C192.534 5.16477 192.856 5.12642 193.103 5.10085C193.353 5.07244 193.535 5.02557 193.649 4.96023C193.765 4.89489 193.823 4.78125 193.823 4.61932V4.58523C193.823 4.16477 193.708 3.83807 193.478 3.60511C193.251 3.37216 192.906 3.25568 192.443 3.25568C191.963 3.25568 191.586 3.3608 191.313 3.57102C191.041 3.78125 190.849 4.00568 190.738 4.24432L189.784 3.90341C189.954 3.50568 190.181 3.19602 190.465 2.97443C190.752 2.75 191.065 2.59375 191.403 2.50568C191.744 2.41477 192.079 2.36932 192.409 2.36932C192.619 2.36932 192.86 2.39489 193.133 2.44602C193.409 2.49432 193.674 2.59517 193.93 2.74858C194.188 2.90199 194.403 3.13352 194.573 3.44318C194.744 3.75284 194.829 4.16761 194.829 4.6875V9H193.823V8.11364H193.772C193.704 8.25568 193.59 8.40767 193.431 8.5696C193.272 8.73153 193.061 8.86932 192.796 8.98295C192.532 9.09659 192.21 9.15341 191.829 9.15341ZM191.982 8.25C192.38 8.25 192.715 8.17188 192.988 8.01562C193.264 7.85938 193.471 7.65767 193.61 7.41051C193.752 7.16335 193.823 6.90341 193.823 6.63068V5.71023C193.781 5.76136 193.687 5.80824 193.542 5.85085C193.4 5.89062 193.235 5.92614 193.048 5.95739C192.863 5.9858 192.683 6.01136 192.507 6.03409C192.333 6.05398 192.193 6.07102 192.085 6.08523C191.823 6.11932 191.579 6.17472 191.352 6.25142C191.127 6.32528 190.945 6.4375 190.806 6.58807C190.67 6.7358 190.602 6.9375 190.602 7.19318C190.602 7.54261 190.731 7.80682 190.99 7.9858C191.251 8.16193 191.582 8.25 191.982 8.25ZM197.602 6.61364L197.585 5.36932H197.79L200.653 2.45455H201.898L198.846 5.53977H198.761L197.602 6.61364ZM196.665 9V0.272727H197.67V9H196.665ZM200.824 9L198.267 5.76136L198.983 5.0625L202.102 9H200.824ZM207.317 6.32386V2.45455H208.323V9H207.317V7.89205H207.249C207.095 8.22443 206.857 8.5071 206.533 8.74006C206.209 8.97017 205.8 9.08523 205.306 9.08523C204.896 9.08523 204.533 8.99574 204.215 8.81676C203.896 8.63494 203.646 8.36222 203.465 7.99858C203.283 7.6321 203.192 7.17045 203.192 6.61364V2.45455H204.198V6.54545C204.198 7.02273 204.331 7.40341 204.598 7.6875C204.868 7.97159 205.212 8.11364 205.629 8.11364C205.879 8.11364 206.134 8.04972 206.392 7.92188C206.654 7.79403 206.872 7.59801 207.048 7.33381C207.227 7.0696 207.317 6.73295 207.317 6.32386ZM212.636 9.13636C212.091 9.13636 211.609 8.99858 211.192 8.72301C210.774 8.4446 210.447 8.05256 210.211 7.54688C209.976 7.03835 209.858 6.4375 209.858 5.74432C209.858 5.05682 209.976 4.46023 210.211 3.95455C210.447 3.44886 210.775 3.05824 211.196 2.78267C211.616 2.5071 212.102 2.36932 212.653 2.36932C213.079 2.36932 213.416 2.44034 213.663 2.58239C213.913 2.72159 214.104 2.88068 214.234 3.05966C214.368 3.2358 214.471 3.38068 214.545 3.49432H214.631V0.272727H215.636V9H214.665V7.99432H214.545C214.471 8.11364 214.366 8.2642 214.23 8.44602C214.094 8.625 213.899 8.78551 213.646 8.92756C213.393 9.06676 213.057 9.13636 212.636 9.13636ZM212.773 8.23295C213.176 8.23295 213.517 8.12784 213.795 7.91761C214.074 7.70455 214.285 7.41051 214.43 7.03551C214.575 6.65767 214.648 6.22159 214.648 5.72727C214.648 5.23864 214.577 4.81108 214.434 4.4446C214.292 4.07528 214.082 3.78835 213.804 3.58381C213.525 3.37642 213.182 3.27273 212.773 3.27273C212.346 3.27273 211.991 3.3821 211.707 3.60085C211.426 3.81676 211.214 4.1108 211.072 4.48295C210.933 4.85227 210.863 5.26705 210.863 5.72727C210.863 6.19318 210.934 6.61648 211.077 6.99716C211.221 7.375 211.434 7.67614 211.716 7.90057C212 8.12216 212.352 8.23295 212.773 8.23295ZM217.618 9V2.45455H218.623V9H217.618ZM218.129 1.36364C217.933 1.36364 217.764 1.29688 217.622 1.16335C217.483 1.02983 217.413 0.869318 217.413 0.681818C217.413 0.494318 217.483 0.333807 217.622 0.200284C217.764 0.0667613 217.933 0 218.129 0C218.325 0 218.493 0.0667613 218.632 0.200284C218.774 0.333807 218.845 0.494318 218.845 0.681818C218.845 0.869318 218.774 1.02983 218.632 1.16335C218.493 1.29688 218.325 1.36364 218.129 1.36364ZM221.965 7.80682L221.897 8.26705C221.849 8.59091 221.775 8.9375 221.676 9.30682C221.579 9.67614 221.478 10.0241 221.373 10.3509C221.268 10.6776 221.181 10.9375 221.113 11.1307H220.346C220.383 10.9489 220.431 10.7088 220.491 10.4105C220.551 10.1122 220.61 9.77841 220.67 9.40909C220.732 9.04261 220.784 8.66761 220.823 8.28409L220.874 7.80682H221.965ZM-0.000532642 16.2102V15.2727H6.54492V16.2102H3.8006V24H2.74379V16.2102H-0.000532642ZM7.35991 24V17.4545H8.3315V18.4432H8.39968C8.519 18.1193 8.73491 17.8565 9.04741 17.6548C9.35991 17.4531 9.71218 17.3523 10.1042 17.3523C10.1781 17.3523 10.2704 17.3537 10.3812 17.3565C10.492 17.3594 10.5758 17.3636 10.6326 17.3693V18.392C10.5985 18.3835 10.5204 18.3707 10.3983 18.3537C10.2789 18.3338 10.1525 18.3239 10.019 18.3239C9.70082 18.3239 9.41673 18.3906 9.16673 18.5241C8.91957 18.6548 8.72354 18.8366 8.57866 19.0696C8.43661 19.2997 8.36559 19.5625 8.36559 19.858V24H7.35991ZM11.8248 24V17.4545H12.8304V24H11.8248ZM12.3361 16.3636C12.1401 16.3636 11.9711 16.2969 11.829 16.1634C11.6898 16.0298 11.6202 15.8693 11.6202 15.6818C11.6202 15.4943 11.6898 15.3338 11.829 15.2003C11.9711 15.0668 12.1401 15 12.3361 15C12.5321 15 12.6998 15.0668 12.839 15.2003C12.981 15.3338 13.052 15.4943 13.052 15.6818C13.052 15.8693 12.981 16.0298 12.839 16.1634C12.6998 16.2969 12.5321 16.3636 12.3361 16.3636ZM17.3315 24.1364C16.7179 24.1364 16.1895 23.9915 15.7463 23.7017C15.3031 23.4119 14.9622 23.0128 14.7235 22.5043C14.4849 21.9957 14.3656 21.4148 14.3656 20.7614C14.3656 20.0966 14.4877 19.5099 14.7321 19.0014C14.9792 18.4901 15.323 18.0909 15.7633 17.804C16.2065 17.5142 16.7235 17.3693 17.3145 17.3693C17.7747 17.3693 18.1895 17.4545 18.5588 17.625C18.9281 17.7955 19.2306 18.0341 19.4664 18.3409C19.7022 18.6477 19.8485 19.0057 19.9054 19.4148H18.8997C18.823 19.1165 18.6525 18.8523 18.3883 18.6222C18.127 18.3892 17.7747 18.2727 17.3315 18.2727C16.9395 18.2727 16.5957 18.375 16.3002 18.5795C16.0076 18.7812 15.7789 19.0668 15.6142 19.4361C15.4522 19.8026 15.3713 20.233 15.3713 20.7273C15.3713 21.233 15.4508 21.6733 15.6099 22.0483C15.7718 22.4233 15.9991 22.7145 16.2917 22.9219C16.5872 23.1293 16.9338 23.233 17.3315 23.233C17.5929 23.233 17.8301 23.1875 18.0431 23.0966C18.2562 23.0057 18.4366 22.875 18.5843 22.7045C18.7321 22.5341 18.8372 22.3295 18.8997 22.0909H19.9054C19.8485 22.4773 19.7079 22.8253 19.4835 23.1349C19.2619 23.4418 18.9679 23.6861 18.6014 23.8679C18.2377 24.0469 17.8145 24.1364 17.3315 24.1364ZM22.3812 20.0625V24H21.3755V15.2727H22.3812V18.4773H22.4664C22.6199 18.1392 22.85 17.8707 23.1568 17.6719C23.4664 17.4702 23.8784 17.3693 24.3926 17.3693C24.8386 17.3693 25.2292 17.4588 25.5645 17.6378C25.8997 17.8139 26.1596 18.0852 26.3443 18.4517C26.5318 18.8153 26.6255 19.2784 26.6255 19.8409V24H25.6199V19.9091C25.6199 19.3892 25.4849 18.9872 25.215 18.7031C24.948 18.4162 24.5772 18.2727 24.1028 18.2727C23.7733 18.2727 23.4778 18.3423 23.2164 18.4815C22.9579 18.6207 22.7534 18.8239 22.6028 19.0909C22.4551 19.358 22.3812 19.6818 22.3812 20.0625ZM28.4654 24V17.4545H29.4711V24H28.4654ZM28.9767 16.3636C28.7807 16.3636 28.6117 16.2969 28.4696 16.1634C28.3304 16.0298 28.2608 15.8693 28.2608 15.6818C28.2608 15.4943 28.3304 15.3338 28.4696 15.2003C28.6117 15.0668 28.7807 15 28.9767 15C29.1728 15 29.3404 15.0668 29.4796 15.2003C29.6216 15.3338 29.6926 15.4943 29.6926 15.6818C29.6926 15.8693 29.6216 16.0298 29.4796 16.1634C29.3404 16.2969 29.1728 16.3636 28.9767 16.3636ZM31.313 24V17.4545H32.2846V18.4432H32.3528C32.4721 18.1193 32.688 17.8565 33.0005 17.6548C33.313 17.4531 33.6653 17.3523 34.0574 17.3523C34.1312 17.3523 34.2235 17.3537 34.3343 17.3565C34.4451 17.3594 34.5289 17.3636 34.5858 17.3693V18.392C34.5517 18.3835 34.4735 18.3707 34.3514 18.3537C34.2321 18.3338 34.1056 18.3239 33.9721 18.3239C33.6539 18.3239 33.3699 18.3906 33.1199 18.5241C32.8727 18.6548 32.6767 18.8366 32.5318 19.0696C32.3897 19.2997 32.3187 19.5625 32.3187 19.858V24H31.313ZM37.704 24.1534C37.2892 24.1534 36.9128 24.0753 36.5748 23.919C36.2367 23.7599 35.9682 23.5312 35.7694 23.233C35.5705 22.9318 35.4711 22.5682 35.4711 22.142C35.4711 21.767 35.5449 21.4631 35.6926 21.2301C35.8404 20.9943 36.0378 20.8097 36.285 20.6761C36.5321 20.5426 36.8049 20.4432 37.1032 20.3778C37.4043 20.3097 37.7069 20.2557 38.0108 20.2159C38.4086 20.1648 38.731 20.1264 38.9782 20.1009C39.2282 20.0724 39.41 20.0256 39.5236 19.9602C39.6401 19.8949 39.6983 19.7812 39.6983 19.6193V19.5852C39.6983 19.1648 39.5833 18.8381 39.3532 18.6051C39.1259 18.3722 38.7807 18.2557 38.3176 18.2557C37.8375 18.2557 37.4611 18.3608 37.1884 18.571C36.9157 18.7812 36.7239 19.0057 36.6131 19.2443L35.6586 18.9034C35.829 18.5057 36.0563 18.196 36.3404 17.9744C36.6273 17.75 36.9398 17.5937 37.2779 17.5057C37.6188 17.4148 37.954 17.3693 38.2836 17.3693C38.4938 17.3693 38.7353 17.3949 39.008 17.446C39.2836 17.4943 39.5492 17.5952 39.8049 17.7486C40.0634 17.902 40.2779 18.1335 40.4483 18.4432C40.6188 18.7528 40.704 19.1676 40.704 19.6875V24H39.6983V23.1136H39.6472C39.579 23.2557 39.4654 23.4077 39.3063 23.5696C39.1472 23.7315 38.9355 23.8693 38.6713 23.983C38.4071 24.0966 38.0847 24.1534 37.704 24.1534ZM37.8574 23.25C38.2551 23.25 38.5904 23.1719 38.8631 23.0156C39.1387 22.8594 39.3461 22.6577 39.4853 22.4105C39.6273 22.1634 39.6983 21.9034 39.6983 21.6307V20.7102C39.6557 20.7614 39.562 20.8082 39.4171 20.8509C39.275 20.8906 39.1103 20.9261 38.9228 20.9574C38.7381 20.9858 38.5577 21.0114 38.3816 21.0341C38.2083 21.054 38.0676 21.071 37.9597 21.0852C37.6983 21.1193 37.454 21.1747 37.2267 21.2514C37.0023 21.3253 36.8205 21.4375 36.6813 21.5881C36.5449 21.7358 36.4767 21.9375 36.4767 22.1932C36.4767 22.5426 36.606 22.8068 36.8645 22.9858C37.1259 23.1619 37.4569 23.25 37.8574 23.25ZM42.5396 26.4545V17.4545H43.5112V18.4943H43.6305C43.7044 18.3807 43.8066 18.2358 43.9373 18.0597C44.0708 17.8807 44.2612 17.7216 44.5083 17.5824C44.7583 17.4403 45.0964 17.3693 45.5225 17.3693C46.0737 17.3693 46.5595 17.5071 46.9799 17.7827C47.4004 18.0582 47.7285 18.4489 47.9643 18.9545C48.2001 19.4602 48.318 20.0568 48.318 20.7443C48.318 21.4375 48.2001 22.0384 47.9643 22.5469C47.7285 23.0526 47.4018 23.4446 46.9842 23.723C46.5666 23.9986 46.085 24.1364 45.5396 24.1364C45.1191 24.1364 44.7825 24.0668 44.5297 23.9276C44.2768 23.7855 44.0822 23.625 43.9458 23.446C43.8095 23.2642 43.7044 23.1136 43.6305 22.9943H43.5453V26.4545H42.5396ZM43.5282 20.7273C43.5282 21.2216 43.6007 21.6577 43.7456 22.0355C43.8904 22.4105 44.1021 22.7045 44.3805 22.9176C44.6589 23.1278 44.9998 23.233 45.4032 23.233C45.8237 23.233 46.1745 23.1222 46.4558 22.9006C46.7399 22.6761 46.9529 22.375 47.095 21.9972C47.2399 21.6165 47.3123 21.1932 47.3123 20.7273C47.3123 20.267 47.2413 19.8523 47.0993 19.483C46.96 19.1108 46.7484 18.8168 46.4643 18.6009C46.1831 18.3821 45.8294 18.2727 45.4032 18.2727C44.9941 18.2727 44.6504 18.3764 44.372 18.5838C44.0936 18.7884 43.8833 19.0753 43.7413 19.4446C43.5993 19.8111 43.5282 20.2386 43.5282 20.7273ZM49.8521 26.4545V17.4545H50.8237V18.4943H50.943C51.0169 18.3807 51.1191 18.2358 51.2498 18.0597C51.3833 17.8807 51.5737 17.7216 51.8208 17.5824C52.0708 17.4403 52.4089 17.3693 52.835 17.3693C53.3862 17.3693 53.872 17.5071 54.2924 17.7827C54.7129 18.0582 55.041 18.4489 55.2768 18.9545C55.5126 19.4602 55.6305 20.0568 55.6305 20.7443C55.6305 21.4375 55.5126 22.0384 55.2768 22.5469C55.041 23.0526 54.7143 23.4446 54.2967 23.723C53.8791 23.9986 53.3975 24.1364 52.8521 24.1364C52.4316 24.1364 52.095 24.0668 51.8422 23.9276C51.5893 23.7855 51.3947 23.625 51.2583 23.446C51.122 23.2642 51.0169 23.1136 50.943 22.9943H50.8578V26.4545H49.8521ZM50.8407 20.7273C50.8407 21.2216 50.9132 21.6577 51.0581 22.0355C51.2029 22.4105 51.4146 22.7045 51.693 22.9176C51.9714 23.1278 52.3123 23.233 52.7157 23.233C53.1362 23.233 53.487 23.1222 53.7683 22.9006C54.0524 22.6761 54.2654 22.375 54.4075 21.9972C54.5524 21.6165 54.6248 21.1932 54.6248 20.7273C54.6248 20.267 54.5538 19.8523 54.4118 19.483C54.2725 19.1108 54.0609 18.8168 53.7768 18.6009C53.4956 18.3821 53.1419 18.2727 52.7157 18.2727C52.3066 18.2727 51.9629 18.3764 51.6845 18.5838C51.4061 18.7884 51.1958 19.0753 51.0538 19.4446C50.9118 19.8111 50.8407 20.2386 50.8407 20.7273ZM59.0907 24.1534C58.676 24.1534 58.2995 24.0753 57.9615 23.919C57.6234 23.7599 57.3549 23.5312 57.1561 23.233C56.9572 22.9318 56.8578 22.5682 56.8578 22.142C56.8578 21.767 56.9316 21.4631 57.0794 21.2301C57.2271 20.9943 57.4245 20.8097 57.6717 20.6761C57.9189 20.5426 58.1916 20.4432 58.4899 20.3778C58.791 20.3097 59.0936 20.2557 59.3975 20.2159C59.7953 20.1648 60.1177 20.1264 60.3649 20.1009C60.6149 20.0724 60.7967 20.0256 60.9103 19.9602C61.0268 19.8949 61.085 19.7812 61.085 19.6193V19.5852C61.085 19.1648 60.97 18.8381 60.7399 18.6051C60.5126 18.3722 60.1674 18.2557 59.7044 18.2557C59.2243 18.2557 58.8478 18.3608 58.5751 18.571C58.3024 18.7812 58.1106 19.0057 57.9998 19.2443L57.0453 18.9034C57.2157 18.5057 57.443 18.196 57.7271 17.9744C58.014 17.75 58.3265 17.5937 58.6646 17.5057C59.0055 17.4148 59.3407 17.3693 59.6703 17.3693C59.8805 17.3693 60.122 17.3949 60.3947 17.446C60.6703 17.4943 60.9359 17.5952 61.1916 17.7486C61.4501 17.902 61.6646 18.1335 61.835 18.4432C62.0055 18.7528 62.0907 19.1676 62.0907 19.6875V24H61.085V23.1136H61.0339C60.9657 23.2557 60.8521 23.4077 60.693 23.5696C60.5339 23.7315 60.3223 23.8693 60.0581 23.983C59.7939 24.0966 59.4714 24.1534 59.0907 24.1534ZM59.2441 23.25C59.6419 23.25 59.9771 23.1719 60.2498 23.0156C60.5254 22.8594 60.7328 22.6577 60.872 22.4105C61.014 22.1634 61.085 21.9034 61.085 21.6307V20.7102C61.0424 20.7614 60.9487 20.8082 60.8038 20.8509C60.6618 20.8906 60.497 20.9261 60.3095 20.9574C60.1248 20.9858 59.9444 21.0114 59.7683 21.0341C59.595 21.054 59.4544 21.071 59.3464 21.0852C59.085 21.1193 58.8407 21.1747 58.6135 21.2514C58.389 21.3253 58.2072 21.4375 58.068 21.5881C57.9316 21.7358 57.8635 21.9375 57.8635 22.1932C57.8635 22.5426 57.9927 22.8068 58.2512 22.9858C58.5126 23.1619 58.8436 23.25 59.2441 23.25ZM64.932 15.2727V24H63.9263V15.2727H64.932ZM67.7797 15.2727V24H66.774V15.2727H67.7797ZM69.6216 24V17.4545H70.6273V24H69.6216ZM70.133 16.3636C69.937 16.3636 69.7679 16.2969 69.6259 16.1634C69.4867 16.0298 69.4171 15.8693 69.4171 15.6818C69.4171 15.4943 69.4867 15.3338 69.6259 15.2003C69.7679 15.0668 69.937 15 70.133 15C70.329 15 70.4966 15.0668 70.6358 15.2003C70.7779 15.3338 70.8489 15.4943 70.8489 15.6818C70.8489 15.8693 70.7779 16.0298 70.6358 16.1634C70.4966 16.2969 70.329 16.3636 70.133 16.3636ZM80.9238 19.1676V20.1051H74.9238V19.1676H80.9238ZM88.1 24.1193C87.742 24.1136 87.3841 24.0455 87.0261 23.9148C86.6681 23.7841 86.3414 23.5639 86.046 23.2543C85.7505 22.9418 85.5133 22.5199 85.3343 21.9886C85.1554 21.4545 85.0659 20.7841 85.0659 19.9773C85.0659 19.2045 85.1383 18.5199 85.2832 17.9233C85.4281 17.3239 85.6383 16.8196 85.9139 16.4105C86.1895 15.9986 86.5218 15.6861 86.911 15.473C87.3031 15.2599 87.7449 15.1534 88.2363 15.1534C88.725 15.1534 89.1596 15.2514 89.5403 15.4474C89.9238 15.6406 90.2363 15.9105 90.4778 16.2571C90.7193 16.6037 90.8755 17.0028 90.9466 17.4545H89.9068C89.8102 17.0625 89.6227 16.7372 89.3443 16.4787C89.0659 16.2202 88.6966 16.0909 88.2363 16.0909C87.5602 16.0909 87.0275 16.3849 86.6383 16.973C86.252 17.5611 86.0574 18.3864 86.0545 19.4489H86.1227C86.2818 19.2074 86.4707 19.0014 86.6895 18.831C86.911 18.6577 87.1554 18.5241 87.4224 18.4304C87.6895 18.3366 87.9721 18.2898 88.2704 18.2898C88.7704 18.2898 89.2278 18.4148 89.6426 18.6648C90.0574 18.9119 90.3897 19.2543 90.6397 19.6918C90.8897 20.1264 91.0147 20.625 91.0147 21.1875C91.0147 21.7273 90.894 22.2216 90.6525 22.6705C90.411 23.1165 90.0716 23.4716 89.6341 23.7358C89.1994 23.9972 88.688 24.125 88.1 24.1193ZM88.1 23.1818C88.4579 23.1818 88.7789 23.0923 89.063 22.9134C89.35 22.7344 89.5758 22.4943 89.7406 22.1932C89.9082 21.892 89.992 21.5568 89.992 21.1875C89.992 20.8267 89.911 20.4986 89.7491 20.2031C89.59 19.9048 89.3699 19.6676 89.0886 19.4915C88.8102 19.3153 88.492 19.2273 88.1341 19.2273C87.8642 19.2273 87.6127 19.2812 87.3798 19.3892C87.1468 19.4943 86.9423 19.6392 86.7662 19.8239C86.5929 20.0085 86.4565 20.2202 86.3571 20.4588C86.2576 20.6946 86.2079 20.9432 86.2079 21.2045C86.2079 21.5511 86.2889 21.875 86.4508 22.1761C86.6156 22.4773 86.84 22.7202 87.1241 22.9048C87.411 23.0895 87.7363 23.1818 88.1 23.1818ZM92.6905 24V23.233L95.5712 20.0795C95.9093 19.7102 96.1877 19.3892 96.4064 19.1165C96.6252 18.8409 96.7871 18.5824 96.8922 18.3409C97.0002 18.0966 97.0542 17.8409 97.0542 17.5739C97.0542 17.267 96.9803 17.0014 96.8326 16.777C96.6877 16.5526 96.4888 16.3793 96.236 16.2571C95.9831 16.1349 95.699 16.0739 95.3837 16.0739C95.0485 16.0739 94.7559 16.1435 94.5059 16.2827C94.2587 16.419 94.0669 16.6108 93.9306 16.858C93.7971 17.1051 93.7303 17.3949 93.7303 17.7273H92.7246C92.7246 17.2159 92.8425 16.767 93.0783 16.3807C93.3141 15.9943 93.6351 15.6932 94.0414 15.4773C94.4505 15.2614 94.9093 15.1534 95.4178 15.1534C95.9292 15.1534 96.3823 15.2614 96.7772 15.4773C97.1721 15.6932 97.4817 15.9844 97.7061 16.3509C97.9306 16.7173 98.0428 17.125 98.0428 17.5739C98.0428 17.8949 97.9846 18.2088 97.8681 18.5156C97.7544 18.8196 97.5556 19.1591 97.2715 19.5341C96.9902 19.9062 96.5996 20.3608 96.0996 20.8977L94.1394 22.9943V23.0625H98.1962V24H92.6905ZM102.803 24.1193C102.161 24.1193 101.614 23.9446 101.162 23.5952C100.71 23.2429 100.365 22.733 100.127 22.0653C99.888 21.3949 99.7686 20.5852 99.7686 19.6364C99.7686 18.6932 99.888 17.8878 100.127 17.2202C100.368 16.5497 100.715 16.0384 101.166 15.6861C101.621 15.331 102.166 15.1534 102.803 15.1534C103.439 15.1534 103.983 15.331 104.435 15.6861C104.889 16.0384 105.236 16.5497 105.475 17.2202C105.716 17.8878 105.837 18.6932 105.837 19.6364C105.837 20.5852 105.718 21.3949 105.479 22.0653C105.24 22.733 104.895 23.2429 104.443 23.5952C103.992 23.9446 103.445 24.1193 102.803 24.1193ZM102.803 23.1818C103.439 23.1818 103.933 22.875 104.286 22.2614C104.638 21.6477 104.814 20.7727 104.814 19.6364C104.814 18.8807 104.733 18.2372 104.571 17.706C104.412 17.1747 104.182 16.7699 103.881 16.4915C103.583 16.2131 103.223 16.0739 102.803 16.0739C102.172 16.0739 101.679 16.3849 101.324 17.0071C100.969 17.6264 100.791 18.5028 100.791 19.6364C100.791 20.392 100.871 21.0341 101.03 21.5625C101.189 22.0909 101.418 22.4929 101.716 22.7685C102.017 23.044 102.379 23.1818 102.803 23.1818ZM110.303 24.1193C109.661 24.1193 109.114 23.9446 108.662 23.5952C108.21 23.2429 107.865 22.733 107.627 22.0653C107.388 21.3949 107.269 20.5852 107.269 19.6364C107.269 18.6932 107.388 17.8878 107.627 17.2202C107.868 16.5497 108.215 16.0384 108.666 15.6861C109.121 15.331 109.666 15.1534 110.303 15.1534C110.939 15.1534 111.483 15.331 111.935 15.6861C112.389 16.0384 112.736 16.5497 112.975 17.2202C113.216 17.8878 113.337 18.6932 113.337 19.6364C113.337 20.5852 113.218 21.3949 112.979 22.0653C112.74 22.733 112.395 23.2429 111.943 23.5952C111.492 23.9446 110.945 24.1193 110.303 24.1193ZM110.303 23.1818C110.939 23.1818 111.433 22.875 111.786 22.2614C112.138 21.6477 112.314 20.7727 112.314 19.6364C112.314 18.8807 112.233 18.2372 112.071 17.706C111.912 17.1747 111.682 16.7699 111.381 16.4915C111.083 16.2131 110.723 16.0739 110.303 16.0739C109.672 16.0739 109.179 16.3849 108.824 17.0071C108.469 17.6264 108.291 18.5028 108.291 19.6364C108.291 20.392 108.371 21.0341 108.53 21.5625C108.689 22.0909 108.918 22.4929 109.216 22.7685C109.517 23.044 109.879 23.1818 110.303 23.1818ZM118.024 15.2727V24H116.968V16.3807H116.916L114.786 17.7955V16.7216L116.968 15.2727H118.024ZM123.262 24.1193C122.762 24.1193 122.311 24.0199 121.911 23.821C121.51 23.6222 121.189 23.3494 120.948 23.0028C120.706 22.6562 120.574 22.2614 120.551 21.8182H121.574C121.614 22.2131 121.793 22.5398 122.111 22.7983C122.432 23.054 122.816 23.1818 123.262 23.1818C123.619 23.1818 123.938 23.098 124.216 22.9304C124.497 22.7628 124.718 22.5327 124.877 22.2401C125.039 21.9446 125.119 21.6108 125.119 21.2386C125.119 20.858 125.036 20.5185 124.868 20.2202C124.703 19.919 124.476 19.6818 124.186 19.5085C123.896 19.3352 123.566 19.2472 123.193 19.2443C122.926 19.2415 122.652 19.2827 122.371 19.3679C122.09 19.4503 121.858 19.5568 121.676 19.6875L120.688 19.5682L121.216 15.2727H125.75V16.2102H122.102L121.796 18.7841H121.847C122.026 18.642 122.25 18.5241 122.52 18.4304C122.79 18.3366 123.071 18.2898 123.364 18.2898C123.898 18.2898 124.374 18.4176 124.791 18.6733C125.212 18.9261 125.541 19.2727 125.78 19.7131C126.021 20.1534 126.142 20.6562 126.142 21.2216C126.142 21.7784 126.017 22.2756 125.767 22.7131C125.52 23.1477 125.179 23.4915 124.744 23.7443C124.31 23.9943 123.816 24.1193 123.262 24.1193Z" fill="#202020"/>
</svg>
