<svg width="196" height="27" viewBox="0 0 196 27" fill="none" xmlns="http://www.w3.org/2000/svg">
<path d="M3.17041 9H0.477228V0.272727H3.28973C4.13632 0.272727 4.86075 0.447443 5.46302 0.796875C6.0653 1.14347 6.52694 1.64205 6.84797 2.29261C7.16899 2.94034 7.3295 3.71591 7.3295 4.61932C7.3295 5.52841 7.16757 6.31108 6.84371 6.96733C6.51984 7.62074 6.04825 8.12358 5.42893 8.47585C4.80961 8.82528 4.05677 9 3.17041 9ZM1.53405 8.0625H3.10223C3.82382 8.0625 4.42183 7.9233 4.89626 7.64489C5.37069 7.36648 5.72439 6.97017 5.95734 6.45597C6.1903 5.94176 6.30677 5.32955 6.30677 4.61932C6.30677 3.91477 6.19172 3.30824 5.9616 2.79972C5.73149 2.28835 5.38774 1.89631 4.93035 1.62358C4.47297 1.34801 3.90336 1.21023 3.22155 1.21023H1.53405V8.0625ZM11.8977 9.11932C11.3352 9.11932 10.8338 9.02273 10.3934 8.82955C9.95592 8.63636 9.60791 8.3679 9.34939 8.02415C9.09371 7.67756 8.9545 7.27557 8.93177 6.81818H10.0056C10.0284 7.09943 10.125 7.34233 10.2954 7.54688C10.4659 7.74858 10.6889 7.90483 10.9644 8.01562C11.24 8.12642 11.5454 8.18182 11.8806 8.18182C12.2556 8.18182 12.588 8.11648 12.8778 7.9858C13.1676 7.85511 13.3948 7.6733 13.5596 7.44034C13.7244 7.20739 13.8068 6.9375 13.8068 6.63068C13.8068 6.30966 13.7272 6.02699 13.5681 5.78267C13.409 5.53551 13.1761 5.34233 12.8693 5.20312C12.5625 5.06392 12.1875 4.99432 11.7443 4.99432H11.0454V4.05682H11.7443C12.0909 4.05682 12.3948 3.99432 12.6562 3.86932C12.9204 3.74432 13.1264 3.56818 13.2741 3.34091C13.4247 3.11364 13.5 2.84659 13.5 2.53977C13.5 2.24432 13.4346 1.98722 13.3039 1.76847C13.1733 1.54972 12.9886 1.37926 12.75 1.2571C12.5142 1.13494 12.2358 1.07386 11.9147 1.07386C11.6136 1.07386 11.3295 1.12926 11.0625 1.24006C10.7983 1.34801 10.5823 1.50568 10.4147 1.71307C10.2471 1.91761 10.1562 2.16477 10.142 2.45455H9.11927C9.13632 1.99716 9.2741 1.59659 9.53263 1.25284C9.79115 0.90625 10.1292 0.636363 10.5468 0.443182C10.9673 0.25 11.4289 0.153409 11.9318 0.153409C12.4715 0.153409 12.9346 0.262784 13.321 0.481534C13.7073 0.697443 14.0042 0.982954 14.2116 1.33807C14.419 1.69318 14.5227 2.0767 14.5227 2.48864C14.5227 2.98011 14.3934 3.39915 14.1349 3.74574C13.8792 4.09233 13.5312 4.33239 13.0909 4.46591V4.53409C13.642 4.625 14.0724 4.85937 14.3821 5.23722C14.6917 5.61222 14.8465 6.0767 14.8465 6.63068C14.8465 7.10511 14.7173 7.53125 14.4588 7.90909C14.2031 8.28409 13.8536 8.57955 13.4105 8.79545C12.9673 9.01136 12.463 9.11932 11.8977 9.11932ZM17.837 7.80682L17.7688 8.26705C17.7205 8.59091 17.6466 8.9375 17.5472 9.30682C17.4506 9.67614 17.3497 10.0241 17.2446 10.3509C17.1395 10.6776 17.0529 10.9375 16.9847 11.1307H16.2176C16.2546 10.9489 16.3029 10.7088 16.3625 10.4105C16.4222 10.1122 16.4818 9.77841 16.5415 9.40909C16.604 9.04261 16.6551 8.66761 16.6949 8.28409L16.746 7.80682H17.837ZM22.7343 1.21023V0.272727H29.2798V1.21023H26.5355V9H25.4786V1.21023H22.7343ZM31.7801 5.0625V9H30.7745V0.272727H31.7801V3.47727H31.8654C32.0188 3.1392 32.2489 2.87074 32.5557 2.67188C32.8654 2.47017 33.2773 2.36932 33.7915 2.36932C34.2375 2.36932 34.6282 2.45881 34.9634 2.63778C35.2986 2.81392 35.5585 3.08523 35.7432 3.4517C35.9307 3.81534 36.0245 4.27841 36.0245 4.84091V9H35.0188V4.90909C35.0188 4.3892 34.8838 3.98722 34.6139 3.70312C34.3469 3.41619 33.9762 3.27273 33.5017 3.27273C33.1722 3.27273 32.8767 3.34233 32.6154 3.48153C32.3568 3.62074 32.1523 3.82386 32.0017 4.09091C31.854 4.35795 31.7801 4.68182 31.7801 5.0625ZM40.5234 9.13636C39.9325 9.13636 39.414 8.99574 38.968 8.71449C38.5248 8.43324 38.1782 8.03977 37.9282 7.53409C37.6811 7.02841 37.5575 6.4375 37.5575 5.76136C37.5575 5.07955 37.6811 4.48437 37.9282 3.97585C38.1782 3.46733 38.5248 3.07244 38.968 2.79119C39.414 2.50994 39.9325 2.36932 40.5234 2.36932C41.1143 2.36932 41.6313 2.50994 42.0745 2.79119C42.5206 3.07244 42.8671 3.46733 43.1143 3.97585C43.3643 4.48437 43.4893 5.07955 43.4893 5.76136C43.4893 6.4375 43.3643 7.02841 43.1143 7.53409C42.8671 8.03977 42.5206 8.43324 42.0745 8.71449C41.6313 8.99574 41.1143 9.13636 40.5234 9.13636ZM40.5234 8.23295C40.9723 8.23295 41.3416 8.1179 41.6313 7.88778C41.9211 7.65767 42.1356 7.35511 42.2748 6.98011C42.414 6.60511 42.4836 6.19886 42.4836 5.76136C42.4836 5.32386 42.414 4.91619 42.2748 4.53835C42.1356 4.16051 41.9211 3.85511 41.6313 3.62216C41.3416 3.3892 40.9723 3.27273 40.5234 3.27273C40.0745 3.27273 39.7052 3.3892 39.4154 3.62216C39.1257 3.85511 38.9112 4.16051 38.772 4.53835C38.6328 4.91619 38.5632 5.32386 38.5632 5.76136C38.5632 6.19886 38.6328 6.60511 38.772 6.98011C38.9112 7.35511 39.1257 7.65767 39.4154 7.88778C39.7052 8.1179 40.0745 8.23295 40.5234 8.23295ZM44.837 9V8.23295L48.5529 3.46023V3.39205H44.9563V2.45455H49.8483V3.25568L46.2347 7.99432V8.0625H49.9676V9H44.837ZM52.5223 5.0625V9H51.5166V0.272727H52.5223V3.47727H52.6076C52.761 3.1392 52.9911 2.87074 53.2979 2.67188C53.6076 2.47017 54.0195 2.36932 54.5337 2.36932C54.9797 2.36932 55.3703 2.45881 55.7056 2.63778C56.0408 2.81392 56.3007 3.08523 56.4854 3.4517C56.6729 3.81534 56.7666 4.27841 56.7666 4.84091V9H55.761V4.90909C55.761 4.3892 55.626 3.98722 55.3561 3.70312C55.0891 3.41619 54.7184 3.27273 54.2439 3.27273C53.9144 3.27273 53.6189 3.34233 53.3576 3.48153C53.099 3.62074 52.8945 3.82386 52.7439 4.09091C52.5962 4.35795 52.5223 4.68182 52.5223 5.0625ZM58.6065 9V2.45455H59.6122V9H58.6065ZM59.1179 1.36364C58.9218 1.36364 58.7528 1.29688 58.6108 1.16335C58.4715 1.02983 58.4019 0.869318 58.4019 0.681818C58.4019 0.494318 58.4715 0.333807 58.6108 0.200284C58.7528 0.0667613 58.9218 0 59.1179 0C59.3139 0 59.4815 0.0667613 59.6207 0.200284C59.7627 0.333807 59.8338 0.494318 59.8338 0.681818C59.8338 0.869318 59.7627 1.02983 59.6207 1.16335C59.4815 1.29688 59.3139 1.36364 59.1179 1.36364ZM62.4598 0.272727V9H61.4541V0.272727H62.4598ZM67.6768 11.4545V2.45455H68.6484V3.49432H68.7677C68.8416 3.38068 68.9438 3.2358 69.0745 3.05966C69.2081 2.88068 69.3984 2.72159 69.6456 2.58239C69.8956 2.44034 70.2336 2.36932 70.6598 2.36932C71.2109 2.36932 71.6967 2.5071 72.1171 2.78267C72.5376 3.05824 72.8657 3.44886 73.1015 3.95455C73.3373 4.46023 73.4552 5.05682 73.4552 5.74432C73.4552 6.4375 73.3373 7.03835 73.1015 7.54688C72.8657 8.05256 72.539 8.4446 72.1214 8.72301C71.7038 8.99858 71.2223 9.13636 70.6768 9.13636C70.2563 9.13636 69.9197 9.06676 69.6669 8.92756C69.414 8.78551 69.2194 8.625 69.0831 8.44602C68.9467 8.2642 68.8416 8.11364 68.7677 7.99432H68.6825V11.4545H67.6768ZM68.6654 5.72727C68.6654 6.22159 68.7379 6.65767 68.8828 7.03551C69.0277 7.41051 69.2393 7.70455 69.5177 7.91761C69.7961 8.12784 70.137 8.23295 70.5404 8.23295C70.9609 8.23295 71.3117 8.12216 71.593 7.90057C71.8771 7.67614 72.0902 7.375 72.2322 6.99716C72.3771 6.61648 72.4495 6.19318 72.4495 5.72727C72.4495 5.26705 72.3785 4.85227 72.2365 4.48295C72.0973 4.1108 71.8856 3.81676 71.6015 3.60085C71.3203 3.3821 70.9666 3.27273 70.5404 3.27273C70.1313 3.27273 69.7876 3.37642 69.5092 3.58381C69.2308 3.78835 69.0206 4.07528 68.8785 4.4446C68.7365 4.81108 68.6654 5.23864 68.6654 5.72727ZM77.7336 9.13636C77.1029 9.13636 76.5589 8.99716 76.1015 8.71875C75.647 8.4375 75.2961 8.04545 75.049 7.54261C74.8046 7.03693 74.6825 6.44886 74.6825 5.77841C74.6825 5.10795 74.8046 4.51705 75.049 4.00568C75.2961 3.49148 75.6399 3.09091 76.0802 2.80398C76.5234 2.5142 77.0404 2.36932 77.6313 2.36932C77.9723 2.36932 78.3089 2.42614 78.6413 2.53977C78.9737 2.65341 79.2762 2.83807 79.549 3.09375C79.8217 3.34659 80.039 3.68182 80.201 4.09943C80.3629 4.51705 80.4438 5.03125 80.4438 5.64205V6.06818H75.3984V5.19886H79.4211C79.4211 4.82955 79.3473 4.5 79.1995 4.21023C79.0546 3.92045 78.8473 3.69176 78.5774 3.52415C78.3103 3.35653 77.995 3.27273 77.6313 3.27273C77.2308 3.27273 76.8842 3.37216 76.5916 3.57102C76.3018 3.76705 76.0788 4.02273 75.9225 4.33807C75.7663 4.65341 75.6882 4.99148 75.6882 5.35227V5.93182C75.6882 6.42614 75.7734 6.84517 75.9438 7.18892C76.1171 7.52983 76.3572 7.78977 76.664 7.96875C76.9708 8.14489 77.3274 8.23295 77.7336 8.23295C77.9978 8.23295 78.2365 8.19602 78.4495 8.12216C78.6654 8.04545 78.8515 7.93182 79.0078 7.78125C79.164 7.62784 79.2848 7.4375 79.37 7.21023L80.3416 7.48295C80.2393 7.8125 80.0674 8.10227 79.826 8.35227C79.5845 8.59943 79.2862 8.79261 78.9311 8.93182C78.576 9.06818 78.1768 9.13636 77.7336 9.13636ZM84.8203 2.45455V3.30682H81.4282V2.45455H84.8203ZM82.4169 0.886364H83.4225V7.125C83.4225 7.40909 83.4637 7.62216 83.5461 7.7642C83.6313 7.90341 83.7393 7.99716 83.87 8.04545C84.0035 8.09091 84.1441 8.11364 84.2919 8.11364C84.4027 8.11364 84.4936 8.10795 84.5646 8.09659C84.6356 8.08239 84.6924 8.07102 84.735 8.0625L84.9396 8.96591C84.8714 8.99148 84.7762 9.01705 84.6541 9.04261C84.5319 9.07102 84.3771 9.08523 84.1896 9.08523C83.9055 9.08523 83.6271 9.02415 83.3544 8.90199C83.0845 8.77983 82.86 8.59375 82.6811 8.34375C82.5049 8.09375 82.4169 7.77841 82.4169 7.39773V0.886364ZM89.1796 2.45455V3.30682H85.7876V2.45455H89.1796ZM86.7762 0.886364H87.7819V7.125C87.7819 7.40909 87.8231 7.62216 87.9055 7.7642C87.9907 7.90341 88.0987 7.99716 88.2294 8.04545C88.3629 8.09091 88.5035 8.11364 88.6512 8.11364C88.762 8.11364 88.8529 8.10795 88.924 8.09659C88.995 8.08239 89.0518 8.07102 89.0944 8.0625L89.299 8.96591C89.2308 8.99148 89.1356 9.01705 89.0135 9.04261C88.8913 9.07102 88.7365 9.08523 88.549 9.08523C88.2649 9.08523 87.9865 9.02415 87.7137 8.90199C87.4438 8.77983 87.2194 8.59375 87.0404 8.34375C86.8643 8.09375 86.7762 7.77841 86.7762 7.39773V0.886364ZM92.6186 9.15341C92.2038 9.15341 91.8274 9.07528 91.4893 8.91903C91.1512 8.75994 90.8828 8.53125 90.6839 8.23295C90.485 7.93182 90.3856 7.56818 90.3856 7.14205C90.3856 6.76705 90.4595 6.46307 90.6072 6.23011C90.7549 5.99432 90.9524 5.80966 91.1995 5.67614C91.4467 5.54261 91.7194 5.44318 92.0177 5.37784C92.3188 5.30966 92.6214 5.25568 92.9254 5.21591C93.3231 5.16477 93.6456 5.12642 93.8927 5.10085C94.1427 5.07244 94.3245 5.02557 94.4382 4.96023C94.5546 4.89489 94.6129 4.78125 94.6129 4.61932V4.58523C94.6129 4.16477 94.4978 3.83807 94.2677 3.60511C94.0404 3.37216 93.6953 3.25568 93.2322 3.25568C92.7521 3.25568 92.3757 3.3608 92.1029 3.57102C91.8302 3.78125 91.6384 4.00568 91.5277 4.24432L90.5731 3.90341C90.7436 3.50568 90.9708 3.19602 91.2549 2.97443C91.5419 2.75 91.8544 2.59375 92.1924 2.50568C92.5333 2.41477 92.8686 2.36932 93.1981 2.36932C93.4083 2.36932 93.6498 2.39489 93.9225 2.44602C94.1981 2.49432 94.4637 2.59517 94.7194 2.74858C94.9779 2.90199 95.1924 3.13352 95.3629 3.44318C95.5333 3.75284 95.6186 4.16761 95.6186 4.6875V9H94.6129V8.11364H94.5617C94.4936 8.25568 94.3799 8.40767 94.2208 8.5696C94.0617 8.73153 93.8501 8.86932 93.5859 8.98295C93.3217 9.09659 92.9992 9.15341 92.6186 9.15341ZM92.772 8.25C93.1697 8.25 93.5049 8.17188 93.7777 8.01562C94.0532 7.85938 94.2606 7.65767 94.3998 7.41051C94.5419 7.16335 94.6129 6.90341 94.6129 6.63068V5.71023C94.5703 5.76136 94.4765 5.80824 94.3316 5.85085C94.1896 5.89062 94.0248 5.92614 93.8373 5.95739C93.6527 5.9858 93.4723 6.01136 93.2961 6.03409C93.1228 6.05398 92.9822 6.07102 92.8742 6.08523C92.6129 6.11932 92.3686 6.17472 92.1413 6.25142C91.9169 6.32528 91.735 6.4375 91.5958 6.58807C91.4595 6.7358 91.3913 6.9375 91.3913 7.19318C91.3913 7.54261 91.5206 7.80682 91.7791 7.9858C92.0404 8.16193 92.3714 8.25 92.772 8.25ZM97.4541 9V2.45455H98.4598V9H97.4541ZM97.9655 1.36364C97.7695 1.36364 97.6005 1.29688 97.4584 1.16335C97.3192 1.02983 97.2496 0.869318 97.2496 0.681818C97.2496 0.494318 97.3192 0.333807 97.4584 0.200284C97.6005 0.0667613 97.7695 0 97.9655 0C98.1615 0 98.3291 0.0667613 98.4684 0.200284C98.6104 0.333807 98.6814 0.494318 98.6814 0.681818C98.6814 0.869318 98.6104 1.02983 98.4684 1.16335C98.3291 1.29688 98.1615 1.36364 97.9655 1.36364ZM101.802 7.80682L101.734 8.26705C101.685 8.59091 101.611 8.9375 101.512 9.30682C101.415 9.67614 101.315 10.0241 101.209 10.3509C101.104 10.6776 101.018 10.9375 100.95 11.1307H100.182C100.219 10.9489 100.268 10.7088 100.327 10.4105C100.387 10.1122 100.447 9.77841 100.506 9.40909C100.569 9.04261 100.62 8.66761 100.66 8.28409L100.711 7.80682H101.802ZM107.534 9H106.426L109.631 0.272727H110.722L113.926 9H112.818L110.211 1.65341H110.142L107.534 9ZM107.943 5.59091H112.409V6.52841H107.943V5.59091ZM115.149 9V2.45455H116.121V3.44318H116.189C116.309 3.11932 116.524 2.85653 116.837 2.65483C117.149 2.45312 117.502 2.35227 117.894 2.35227C117.968 2.35227 118.06 2.35369 118.171 2.35653C118.282 2.35937 118.365 2.36364 118.422 2.36932V3.39205C118.388 3.38352 118.31 3.37074 118.188 3.35369C118.068 3.33381 117.942 3.32386 117.809 3.32386C117.49 3.32386 117.206 3.39062 116.956 3.52415C116.709 3.65483 116.513 3.83665 116.368 4.0696C116.226 4.29972 116.155 4.5625 116.155 4.85795V9H115.149ZM119.614 9V2.45455H120.62V9H119.614ZM120.126 1.36364C119.93 1.36364 119.761 1.29688 119.619 1.16335C119.479 1.02983 119.41 0.869318 119.41 0.681818C119.41 0.494318 119.479 0.333807 119.619 0.200284C119.761 0.0667613 119.93 0 120.126 0C120.322 0 120.489 0.0667613 120.629 0.200284C120.771 0.333807 120.842 0.494318 120.842 0.681818C120.842 0.869318 120.771 1.02983 120.629 1.16335C120.489 1.29688 120.322 1.36364 120.126 1.36364ZM123.11 11.4545C122.939 11.4545 122.787 11.4403 122.654 11.4119C122.52 11.3864 122.428 11.3608 122.377 11.3352L122.632 10.4489C122.877 10.5114 123.093 10.5341 123.28 10.517C123.468 10.5 123.634 10.4162 123.779 10.2656C123.926 10.1179 124.061 9.87784 124.184 9.54545L124.371 9.03409L121.951 2.45455H123.042L124.848 7.67045H124.917L126.723 2.45455H127.814L125.036 9.95455C124.911 10.2926 124.756 10.5724 124.571 10.794C124.387 11.0185 124.172 11.1847 123.928 11.2926C123.686 11.4006 123.414 11.4545 123.11 11.4545ZM130.869 9.15341C130.454 9.15341 130.077 9.07528 129.739 8.91903C129.401 8.75994 129.133 8.53125 128.934 8.23295C128.735 7.93182 128.636 7.56818 128.636 7.14205C128.636 6.76705 128.709 6.46307 128.857 6.23011C129.005 5.99432 129.202 5.80966 129.45 5.67614C129.697 5.54261 129.969 5.44318 130.268 5.37784C130.569 5.30966 130.871 5.25568 131.175 5.21591C131.573 5.16477 131.896 5.12642 132.143 5.10085C132.393 5.07244 132.575 5.02557 132.688 4.96023C132.805 4.89489 132.863 4.78125 132.863 4.61932V4.58523C132.863 4.16477 132.748 3.83807 132.518 3.60511C132.29 3.37216 131.945 3.25568 131.482 3.25568C131.002 3.25568 130.626 3.3608 130.353 3.57102C130.08 3.78125 129.888 4.00568 129.778 4.24432L128.823 3.90341C128.994 3.50568 129.221 3.19602 129.505 2.97443C129.792 2.75 130.104 2.59375 130.442 2.50568C130.783 2.41477 131.119 2.36932 131.448 2.36932C131.658 2.36932 131.9 2.39489 132.173 2.44602C132.448 2.49432 132.714 2.59517 132.969 2.74858C133.228 2.90199 133.442 3.13352 133.613 3.44318C133.783 3.75284 133.869 4.16761 133.869 4.6875V9H132.863V8.11364H132.812C132.744 8.25568 132.63 8.40767 132.471 8.5696C132.312 8.73153 132.1 8.86932 131.836 8.98295C131.572 9.09659 131.249 9.15341 130.869 9.15341ZM131.022 8.25C131.42 8.25 131.755 8.17188 132.028 8.01562C132.303 7.85938 132.511 7.65767 132.65 7.41051C132.792 7.16335 132.863 6.90341 132.863 6.63068V5.71023C132.82 5.76136 132.727 5.80824 132.582 5.85085C132.44 5.89062 132.275 5.92614 132.087 5.95739C131.903 5.9858 131.722 6.01136 131.546 6.03409C131.373 6.05398 131.232 6.07102 131.124 6.08523C130.863 6.11932 130.619 6.17472 130.391 6.25142C130.167 6.32528 129.985 6.4375 129.846 6.58807C129.709 6.7358 129.641 6.9375 129.641 7.19318C129.641 7.54261 129.771 7.80682 130.029 7.9858C130.29 8.16193 130.621 8.25 131.022 8.25ZM135.704 9V2.45455H136.676V3.47727H136.761C136.897 3.12784 137.117 2.85653 137.421 2.66335C137.725 2.46733 138.091 2.36932 138.517 2.36932C138.948 2.36932 139.308 2.46733 139.595 2.66335C139.885 2.85653 140.11 3.12784 140.272 3.47727H140.341C140.508 3.1392 140.76 2.87074 141.095 2.67188C141.43 2.47017 141.832 2.36932 142.301 2.36932C142.886 2.36932 143.365 2.55256 143.737 2.91903C144.109 3.28267 144.295 3.84943 144.295 4.61932V9H143.289V4.61932C143.289 4.13636 143.157 3.79119 142.893 3.58381C142.629 3.37642 142.318 3.27273 141.96 3.27273C141.5 3.27273 141.143 3.41193 140.89 3.69034C140.637 3.96591 140.511 4.31534 140.511 4.73864V9H139.488V4.51705C139.488 4.14489 139.367 3.84517 139.126 3.6179C138.885 3.38778 138.573 3.27273 138.193 3.27273C137.931 3.27273 137.687 3.34233 137.46 3.48153C137.235 3.62074 137.054 3.81392 136.914 4.06108C136.778 4.3054 136.71 4.58807 136.71 4.90909V9H135.704ZM148.06 9.15341C147.645 9.15341 147.269 9.07528 146.931 8.91903C146.593 8.75994 146.324 8.53125 146.125 8.23295C145.926 7.93182 145.827 7.56818 145.827 7.14205C145.827 6.76705 145.901 6.46307 146.049 6.23011C146.196 5.99432 146.394 5.80966 146.641 5.67614C146.888 5.54261 147.161 5.44318 147.459 5.37784C147.76 5.30966 148.063 5.25568 148.367 5.21591C148.765 5.16477 149.087 5.12642 149.334 5.10085C149.584 5.07244 149.766 5.02557 149.88 4.96023C149.996 4.89489 150.054 4.78125 150.054 4.61932V4.58523C150.054 4.16477 149.939 3.83807 149.709 3.60511C149.482 3.37216 149.137 3.25568 148.674 3.25568C148.193 3.25568 147.817 3.3608 147.544 3.57102C147.272 3.78125 147.08 4.00568 146.969 4.24432L146.015 3.90341C146.185 3.50568 146.412 3.19602 146.696 2.97443C146.983 2.75 147.296 2.59375 147.634 2.50568C147.975 2.41477 148.31 2.36932 148.64 2.36932C148.85 2.36932 149.091 2.39489 149.364 2.44602C149.64 2.49432 149.905 2.59517 150.161 2.74858C150.419 2.90199 150.634 3.13352 150.804 3.44318C150.975 3.75284 151.06 4.16761 151.06 4.6875V9H150.054V8.11364H150.003C149.935 8.25568 149.821 8.40767 149.662 8.5696C149.503 8.73153 149.292 8.86932 149.027 8.98295C148.763 9.09659 148.441 9.15341 148.06 9.15341ZM148.213 8.25C148.611 8.25 148.946 8.17188 149.219 8.01562C149.495 7.85938 149.702 7.65767 149.841 7.41051C149.983 7.16335 150.054 6.90341 150.054 6.63068V5.71023C150.012 5.76136 149.918 5.80824 149.773 5.85085C149.631 5.89062 149.466 5.92614 149.279 5.95739C149.094 5.9858 148.914 6.01136 148.738 6.03409C148.564 6.05398 148.424 6.07102 148.316 6.08523C148.054 6.11932 147.81 6.17472 147.583 6.25142C147.358 6.32528 147.176 6.4375 147.037 6.58807C146.901 6.7358 146.833 6.9375 146.833 7.19318C146.833 7.54261 146.962 7.80682 147.22 7.9858C147.482 8.16193 147.813 8.25 148.213 8.25ZM153.901 5.0625V9H152.896V2.45455H153.867V3.47727H153.952C154.106 3.14489 154.339 2.87784 154.651 2.67614C154.964 2.47159 155.367 2.36932 155.861 2.36932C156.305 2.36932 156.692 2.46023 157.025 2.64205C157.357 2.82102 157.616 3.09375 157.8 3.46023C157.985 3.82386 158.077 4.28409 158.077 4.84091V9H157.072V4.90909C157.072 4.39489 156.938 3.99432 156.671 3.70739C156.404 3.41761 156.038 3.27273 155.572 3.27273C155.251 3.27273 154.964 3.34233 154.711 3.48153C154.461 3.62074 154.263 3.82386 154.119 4.09091C153.974 4.35795 153.901 4.68182 153.901 5.0625ZM162.557 11.5909C162.071 11.5909 161.654 11.5284 161.304 11.4034C160.955 11.2812 160.664 11.1193 160.431 10.9176C160.201 10.7188 160.017 10.5057 159.881 10.2784L160.682 9.71591C160.773 9.83523 160.888 9.97159 161.027 10.125C161.167 10.2812 161.357 10.4162 161.598 10.5298C161.843 10.6463 162.162 10.7045 162.557 10.7045C163.086 10.7045 163.522 10.5767 163.865 10.321C164.209 10.0653 164.381 9.66477 164.381 9.11932V7.78977H164.296C164.222 7.90909 164.117 8.05682 163.98 8.23295C163.847 8.40625 163.654 8.56108 163.401 8.69744C163.151 8.83097 162.813 8.89773 162.387 8.89773C161.858 8.89773 161.384 8.77273 160.963 8.52273C160.546 8.27273 160.215 7.90909 159.97 7.43182C159.729 6.95455 159.608 6.375 159.608 5.69318C159.608 5.02273 159.726 4.43892 159.962 3.94176C160.198 3.44176 160.526 3.0554 160.946 2.78267C161.367 2.5071 161.853 2.36932 162.404 2.36932C162.83 2.36932 163.168 2.44034 163.418 2.58239C163.671 2.72159 163.864 2.88068 163.997 3.05966C164.134 3.2358 164.239 3.38068 164.313 3.49432H164.415V2.45455H165.387V9.1875C165.387 9.75 165.259 10.2074 165.003 10.5597C164.75 10.9148 164.409 11.1747 163.98 11.3395C163.554 11.5071 163.08 11.5909 162.557 11.5909ZM162.523 7.99432C162.926 7.99432 163.267 7.90199 163.546 7.71733C163.824 7.53267 164.036 7.26705 164.181 6.92045C164.326 6.57386 164.398 6.15909 164.398 5.67614C164.398 5.20455 164.327 4.78835 164.185 4.42756C164.043 4.06676 163.833 3.78409 163.554 3.57955C163.276 3.375 162.932 3.27273 162.523 3.27273C162.097 3.27273 161.742 3.38068 161.458 3.59659C161.176 3.8125 160.965 4.10227 160.823 4.46591C160.684 4.82955 160.614 5.23295 160.614 5.67614C160.614 6.13068 160.685 6.53267 160.827 6.8821C160.972 7.22869 161.185 7.50142 161.466 7.70028C161.75 7.89631 162.103 7.99432 162.523 7.99432ZM169.154 9.15341C168.739 9.15341 168.363 9.07528 168.024 8.91903C167.686 8.75994 167.418 8.53125 167.219 8.23295C167.02 7.93182 166.921 7.56818 166.921 7.14205C166.921 6.76705 166.995 6.46307 167.142 6.23011C167.29 5.99432 167.488 5.80966 167.735 5.67614C167.982 5.54261 168.255 5.44318 168.553 5.37784C168.854 5.30966 169.157 5.25568 169.461 5.21591C169.858 5.16477 170.181 5.12642 170.428 5.10085C170.678 5.07244 170.86 5.02557 170.973 4.96023C171.09 4.89489 171.148 4.78125 171.148 4.61932V4.58523C171.148 4.16477 171.033 3.83807 170.803 3.60511C170.576 3.37216 170.23 3.25568 169.767 3.25568C169.287 3.25568 168.911 3.3608 168.638 3.57102C168.365 3.78125 168.174 4.00568 168.063 4.24432L167.108 3.90341C167.279 3.50568 167.506 3.19602 167.79 2.97443C168.077 2.75 168.39 2.59375 168.728 2.50568C169.068 2.41477 169.404 2.36932 169.733 2.36932C169.943 2.36932 170.185 2.39489 170.458 2.44602C170.733 2.49432 170.999 2.59517 171.255 2.74858C171.513 2.90199 171.728 3.13352 171.898 3.44318C172.068 3.75284 172.154 4.16761 172.154 4.6875V9H171.148V8.11364H171.097C171.029 8.25568 170.915 8.40767 170.756 8.5696C170.597 8.73153 170.385 8.86932 170.121 8.98295C169.857 9.09659 169.534 9.15341 169.154 9.15341ZM169.307 8.25C169.705 8.25 170.04 8.17188 170.313 8.01562C170.588 7.85938 170.796 7.65767 170.935 7.41051C171.077 7.16335 171.148 6.90341 171.148 6.63068V5.71023C171.105 5.76136 171.012 5.80824 170.867 5.85085C170.725 5.89062 170.56 5.92614 170.372 5.95739C170.188 5.9858 170.007 6.01136 169.831 6.03409C169.658 6.05398 169.517 6.07102 169.409 6.08523C169.148 6.11932 168.904 6.17472 168.676 6.25142C168.452 6.32528 168.27 6.4375 168.131 6.58807C167.995 6.7358 167.926 6.9375 167.926 7.19318C167.926 7.54261 168.056 7.80682 168.314 7.9858C168.576 8.16193 168.907 8.25 169.307 8.25ZM174.995 0.272727V9H173.989V0.272727H174.995ZM178.763 9.15341C178.348 9.15341 177.972 9.07528 177.634 8.91903C177.296 8.75994 177.027 8.53125 176.828 8.23295C176.63 7.93182 176.53 7.56818 176.53 7.14205C176.53 6.76705 176.604 6.46307 176.752 6.23011C176.899 5.99432 177.097 5.80966 177.344 5.67614C177.591 5.54261 177.864 5.44318 178.162 5.37784C178.463 5.30966 178.766 5.25568 179.07 5.21591C179.468 5.16477 179.79 5.12642 180.037 5.10085C180.287 5.07244 180.469 5.02557 180.583 4.96023C180.699 4.89489 180.757 4.78125 180.757 4.61932V4.58523C180.757 4.16477 180.642 3.83807 180.412 3.60511C180.185 3.37216 179.84 3.25568 179.377 3.25568C178.897 3.25568 178.52 3.3608 178.247 3.57102C177.975 3.78125 177.783 4.00568 177.672 4.24432L176.718 3.90341C176.888 3.50568 177.115 3.19602 177.399 2.97443C177.686 2.75 177.999 2.59375 178.337 2.50568C178.678 2.41477 179.013 2.36932 179.343 2.36932C179.553 2.36932 179.794 2.39489 180.067 2.44602C180.343 2.49432 180.608 2.59517 180.864 2.74858C181.122 2.90199 181.337 3.13352 181.507 3.44318C181.678 3.75284 181.763 4.16761 181.763 4.6875V9H180.757V8.11364H180.706C180.638 8.25568 180.524 8.40767 180.365 8.5696C180.206 8.73153 179.995 8.86932 179.73 8.98295C179.466 9.09659 179.144 9.15341 178.763 9.15341ZM178.917 8.25C179.314 8.25 179.649 8.17188 179.922 8.01562C180.198 7.85938 180.405 7.65767 180.544 7.41051C180.686 7.16335 180.757 6.90341 180.757 6.63068V5.71023C180.715 5.76136 180.621 5.80824 180.476 5.85085C180.334 5.89062 180.169 5.92614 179.982 5.95739C179.797 5.9858 179.617 6.01136 179.441 6.03409C179.267 6.05398 179.127 6.07102 179.019 6.08523C178.757 6.11932 178.513 6.17472 178.286 6.25142C178.061 6.32528 177.88 6.4375 177.74 6.58807C177.604 6.7358 177.536 6.9375 177.536 7.19318C177.536 7.54261 177.665 7.80682 177.924 7.9858C178.185 8.16193 178.516 8.25 178.917 8.25ZM183.599 9V2.45455H184.57V3.47727H184.655C184.792 3.12784 185.012 2.85653 185.316 2.66335C185.62 2.46733 185.985 2.36932 186.411 2.36932C186.843 2.36932 187.202 2.46733 187.489 2.66335C187.779 2.85653 188.005 3.12784 188.167 3.47727H188.235C188.403 3.1392 188.654 2.87074 188.989 2.67188C189.325 2.47017 189.727 2.36932 190.195 2.36932C190.78 2.36932 191.259 2.55256 191.631 2.91903C192.004 3.28267 192.19 3.84943 192.19 4.61932V9H191.184V4.61932C191.184 4.13636 191.052 3.79119 190.788 3.58381C190.523 3.37642 190.212 3.27273 189.854 3.27273C189.394 3.27273 189.038 3.41193 188.785 3.69034C188.532 3.96591 188.405 4.31534 188.405 4.73864V9H187.383V4.51705C187.383 4.14489 187.262 3.84517 187.021 3.6179C186.779 3.38778 186.468 3.27273 186.087 3.27273C185.826 3.27273 185.582 3.34233 185.354 3.48153C185.13 3.62074 184.948 3.81392 184.809 4.06108C184.673 4.3054 184.604 4.58807 184.604 4.90909V9H183.599ZM195.528 7.80682L195.46 8.26705C195.412 8.59091 195.338 8.9375 195.239 9.30682C195.142 9.67614 195.041 10.0241 194.936 10.3509C194.831 10.6776 194.744 10.9375 194.676 11.1307H193.909C193.946 10.9489 193.994 10.7088 194.054 10.4105C194.114 10.1122 194.173 9.77841 194.233 9.40909C194.295 9.04261 194.347 8.66761 194.386 8.28409L194.437 7.80682H195.528ZM-4.43608e-05 16.2102V15.2727H6.54541V16.2102H3.80109V24H2.74427V16.2102H-4.43608e-05ZM8.04008 24V17.4545H9.04577V24H8.04008ZM8.55145 16.3636C8.35542 16.3636 8.18639 16.2969 8.04434 16.1634C7.90514 16.0298 7.83554 15.8693 7.83554 15.6818C7.83554 15.4943 7.90514 15.3338 8.04434 15.2003C8.18639 15.0668 8.35542 15 8.55145 15C8.74747 15 8.91508 15.0668 9.05429 15.2003C9.19633 15.3338 9.26736 15.4943 9.26736 15.6818C9.26736 15.8693 9.19633 16.0298 9.05429 16.1634C8.91508 16.2969 8.74747 16.3636 8.55145 16.3636ZM10.8877 24V17.4545H11.8593V18.4432H11.9275C12.0468 18.1193 12.2627 17.8565 12.5752 17.6548C12.8877 17.4531 13.24 17.3523 13.6321 17.3523C13.7059 17.3523 13.7983 17.3537 13.909 17.3565C14.0198 17.3594 14.1036 17.3636 14.1605 17.3693V18.392C14.1264 18.3835 14.0483 18.3707 13.9261 18.3537C13.8068 18.3338 13.6804 18.3239 13.5468 18.3239C13.2286 18.3239 12.9446 18.3906 12.6946 18.5241C12.4474 18.6548 12.2514 18.8366 12.1065 19.0696C11.9644 19.2997 11.8934 19.5625 11.8934 19.858V24H10.8877ZM19.4776 21.3239V17.4545H20.4833V24H19.4776V22.892H19.4094C19.256 23.2244 19.0174 23.5071 18.6935 23.7401C18.3696 23.9702 17.9605 24.0852 17.4662 24.0852C17.0571 24.0852 16.6935 23.9957 16.3753 23.8168C16.0571 23.6349 15.8071 23.3622 15.6253 22.9986C15.4435 22.6321 15.3526 22.1705 15.3526 21.6136V17.4545H16.3583V21.5455C16.3583 22.0227 16.4918 22.4034 16.7588 22.6875C17.0287 22.9716 17.3725 23.1136 17.7901 23.1136C18.0401 23.1136 18.2943 23.0497 18.5529 22.9219C18.8142 22.794 19.033 22.598 19.2091 22.3338C19.3881 22.0696 19.4776 21.733 19.4776 21.3239ZM24.9843 24.1364C24.3707 24.1364 23.8423 23.9915 23.3991 23.7017C22.9559 23.4119 22.615 23.0128 22.3764 22.5043C22.1377 21.9957 22.0184 21.4148 22.0184 20.7614C22.0184 20.0966 22.1406 19.5099 22.3849 19.0014C22.6321 18.4901 22.9758 18.0909 23.4161 17.804C23.8593 17.5142 24.3764 17.3693 24.9673 17.3693C25.4275 17.3693 25.8423 17.4545 26.2116 17.625C26.5809 17.7955 26.8835 18.0341 27.1193 18.3409C27.3551 18.6477 27.5014 19.0057 27.5582 19.4148H26.5525C26.4758 19.1165 26.3054 18.8523 26.0411 18.6222C25.7798 18.3892 25.4275 18.2727 24.9843 18.2727C24.5923 18.2727 24.2485 18.375 23.9531 18.5795C23.6605 18.7812 23.4318 19.0668 23.267 19.4361C23.1051 19.8026 23.0241 20.233 23.0241 20.7273C23.0241 21.233 23.1036 21.6733 23.2627 22.0483C23.4247 22.4233 23.6519 22.7145 23.9446 22.9219C24.24 23.1293 24.5866 23.233 24.9843 23.233C25.2457 23.233 25.4829 23.1875 25.696 23.0966C25.909 23.0057 26.0894 22.875 26.2372 22.7045C26.3849 22.5341 26.49 22.3295 26.5525 22.0909H27.5582C27.5014 22.4773 27.3608 22.8253 27.1363 23.1349C26.9147 23.4418 26.6207 23.6861 26.2542 23.8679C25.8906 24.0469 25.4673 24.1364 24.9843 24.1364ZM30.034 20.0625V24H29.0284V15.2727H30.034V18.4773H30.1193C30.2727 18.1392 30.5028 17.8707 30.8096 17.6719C31.1193 17.4702 31.5312 17.3693 32.0454 17.3693C32.4914 17.3693 32.8821 17.4588 33.2173 17.6378C33.5525 17.8139 33.8125 18.0852 33.9971 18.4517C34.1846 18.8153 34.2784 19.2784 34.2784 19.8409V24H33.2727V19.9091C33.2727 19.3892 33.1377 18.9872 32.8679 18.7031C32.6008 18.4162 32.2301 18.2727 31.7556 18.2727C31.4261 18.2727 31.1306 18.3423 30.8693 18.4815C30.6108 18.6207 30.4062 18.8239 30.2556 19.0909C30.1079 19.358 30.034 19.6818 30.034 20.0625ZM36.1182 24V17.4545H37.1239V24H36.1182ZM36.6296 16.3636C36.4335 16.3636 36.2645 16.2969 36.1225 16.1634C35.9833 16.0298 35.9137 15.8693 35.9137 15.6818C35.9137 15.4943 35.9833 15.3338 36.1225 15.2003C36.2645 15.0668 36.4335 15 36.6296 15C36.8256 15 36.9932 15.0668 37.1324 15.2003C37.2745 15.3338 37.3455 15.4943 37.3455 15.6818C37.3455 15.8693 37.2745 16.0298 37.1324 16.1634C36.9932 16.2969 36.8256 16.3636 36.6296 16.3636ZM38.9659 24V17.4545H39.9375V18.4432H40.0056C40.125 18.1193 40.3409 17.8565 40.6534 17.6548C40.9659 17.4531 41.3181 17.3523 41.7102 17.3523C41.784 17.3523 41.8764 17.3537 41.9872 17.3565C42.098 17.3594 42.1818 17.3636 42.2386 17.3693V18.392C42.2045 18.3835 42.1264 18.3707 42.0042 18.3537C41.8849 18.3338 41.7585 18.3239 41.625 18.3239C41.3068 18.3239 41.0227 18.3906 40.7727 18.5241C40.5255 18.6548 40.3295 18.8366 40.1846 19.0696C40.0426 19.2997 39.9715 19.5625 39.9715 19.858V24H38.9659ZM45.3568 24.1534C44.9421 24.1534 44.5657 24.0753 44.2276 23.919C43.8895 23.7599 43.621 23.5312 43.4222 23.233C43.2233 22.9318 43.1239 22.5682 43.1239 22.142C43.1239 21.767 43.1978 21.4631 43.3455 21.2301C43.4932 20.9943 43.6907 20.8097 43.9378 20.6761C44.185 20.5426 44.4577 20.4432 44.756 20.3778C45.0571 20.3097 45.3597 20.2557 45.6637 20.2159C46.0614 20.1648 46.3838 20.1264 46.631 20.1009C46.881 20.0724 47.0628 20.0256 47.1764 19.9602C47.2929 19.8949 47.3512 19.7812 47.3512 19.6193V19.5852C47.3512 19.1648 47.2361 18.8381 47.006 18.6051C46.7787 18.3722 46.4335 18.2557 45.9705 18.2557C45.4904 18.2557 45.1139 18.3608 44.8412 18.571C44.5685 18.7812 44.3767 19.0057 44.2659 19.2443L43.3114 18.9034C43.4818 18.5057 43.7091 18.196 43.9932 17.9744C44.2801 17.75 44.5926 17.5937 44.9307 17.5057C45.2716 17.4148 45.6068 17.3693 45.9364 17.3693C46.1466 17.3693 46.3881 17.3949 46.6608 17.446C46.9364 17.4943 47.202 17.5952 47.4577 17.7486C47.7162 17.902 47.9307 18.1335 48.1012 18.4432C48.2716 18.7528 48.3568 19.1676 48.3568 19.6875V24H47.3512V23.1136H47.3C47.2318 23.2557 47.1182 23.4077 46.9591 23.5696C46.8 23.7315 46.5884 23.8693 46.3242 23.983C46.06 24.0966 45.7375 24.1534 45.3568 24.1534ZM45.5103 23.25C45.908 23.25 46.2432 23.1719 46.5159 23.0156C46.7915 22.8594 46.9989 22.6577 47.1381 22.4105C47.2801 22.1634 47.3512 21.9034 47.3512 21.6307V20.7102C47.3085 20.7614 47.2148 20.8082 47.0699 20.8509C46.9279 20.8906 46.7631 20.9261 46.5756 20.9574C46.3909 20.9858 46.2105 21.0114 46.0344 21.0341C45.8611 21.054 45.7205 21.071 45.6125 21.0852C45.3512 21.1193 45.1068 21.1747 44.8796 21.2514C44.6551 21.3253 44.4733 21.4375 44.3341 21.5881C44.1978 21.7358 44.1296 21.9375 44.1296 22.1932C44.1296 22.5426 44.2588 22.8068 44.5174 22.9858C44.7787 23.1619 45.1097 23.25 45.5103 23.25ZM50.1924 26.4545V17.4545H51.164V18.4943H51.2833C51.3572 18.3807 51.4595 18.2358 51.5902 18.0597C51.7237 17.8807 51.914 17.7216 52.1612 17.5824C52.4112 17.4403 52.7492 17.3693 53.1754 17.3693C53.7265 17.3693 54.2123 17.5071 54.6328 17.7827C55.0532 18.0582 55.3813 18.4489 55.6171 18.9545C55.8529 19.4602 55.9708 20.0568 55.9708 20.7443C55.9708 21.4375 55.8529 22.0384 55.6171 22.5469C55.3813 23.0526 55.0546 23.4446 54.637 23.723C54.2194 23.9986 53.7379 24.1364 53.1924 24.1364C52.772 24.1364 52.4353 24.0668 52.1825 23.9276C51.9296 23.7855 51.735 23.625 51.5987 23.446C51.4623 23.2642 51.3572 23.1136 51.2833 22.9943H51.1981V26.4545H50.1924ZM51.1811 20.7273C51.1811 21.2216 51.2535 21.6577 51.3984 22.0355C51.5433 22.4105 51.7549 22.7045 52.0333 22.9176C52.3117 23.1278 52.6527 23.233 53.0561 23.233C53.4765 23.233 53.8274 23.1222 54.1086 22.9006C54.3927 22.6761 54.6058 22.375 54.7478 21.9972C54.8927 21.6165 54.9652 21.1932 54.9652 20.7273C54.9652 20.267 54.8941 19.8523 54.7521 19.483C54.6129 19.1108 54.4012 18.8168 54.1171 18.6009C53.8359 18.3821 53.4822 18.2727 53.0561 18.2727C52.647 18.2727 52.3032 18.3764 52.0248 18.5838C51.7464 18.7884 51.5362 19.0753 51.3941 19.4446C51.2521 19.8111 51.1811 20.2386 51.1811 20.7273ZM59.4311 24.1534C59.0163 24.1534 58.6399 24.0753 58.3018 23.919C57.9637 23.7599 57.6953 23.5312 57.4964 23.233C57.2975 22.9318 57.1981 22.5682 57.1981 22.142C57.1981 21.767 57.272 21.4631 57.4197 21.2301C57.5674 20.9943 57.7649 20.8097 58.012 20.6761C58.2592 20.5426 58.5319 20.4432 58.8302 20.3778C59.1313 20.3097 59.4339 20.2557 59.7379 20.2159C60.1356 20.1648 60.4581 20.1264 60.7052 20.1009C60.9552 20.0724 61.137 20.0256 61.2507 19.9602C61.3671 19.8949 61.4254 19.7812 61.4254 19.6193V19.5852C61.4254 19.1648 61.3103 18.8381 61.0802 18.6051C60.8529 18.3722 60.5078 18.2557 60.0447 18.2557C59.5646 18.2557 59.1882 18.3608 58.9154 18.571C58.6427 18.7812 58.4509 19.0057 58.3402 19.2443L57.3856 18.9034C57.5561 18.5057 57.7833 18.196 58.0674 17.9744C58.3544 17.75 58.6669 17.5937 59.0049 17.5057C59.3458 17.4148 59.6811 17.3693 60.0106 17.3693C60.2208 17.3693 60.4623 17.3949 60.735 17.446C61.0106 17.4943 61.2762 17.5952 61.5319 17.7486C61.7904 17.902 62.0049 18.1335 62.1754 18.4432C62.3458 18.7528 62.4311 19.1676 62.4311 19.6875V24H61.4254V23.1136H61.3742C61.3061 23.2557 61.1924 23.4077 61.0333 23.5696C60.8742 23.7315 60.6626 23.8693 60.3984 23.983C60.1342 24.0966 59.8117 24.1534 59.4311 24.1534ZM59.5845 23.25C59.9822 23.25 60.3174 23.1719 60.5902 23.0156C60.8657 22.8594 61.0731 22.6577 61.2123 22.4105C61.3544 22.1634 61.4254 21.9034 61.4254 21.6307V20.7102C61.3828 20.7614 61.289 20.8082 61.1441 20.8509C61.0021 20.8906 60.8373 20.9261 60.6498 20.9574C60.4652 20.9858 60.2848 21.0114 60.1086 21.0341C59.9353 21.054 59.7947 21.071 59.6867 21.0852C59.4254 21.1193 59.1811 21.1747 58.9538 21.2514C58.7294 21.3253 58.5475 21.4375 58.4083 21.5881C58.272 21.7358 58.2038 21.9375 58.2038 22.1932C58.2038 22.5426 58.3331 22.8068 58.5916 22.9858C58.8529 23.1619 59.1839 23.25 59.5845 23.25ZM65.2723 15.2727V24H64.2666V15.2727H65.2723ZM68.12 15.2727V24H67.1143V15.2727H68.12ZM69.962 24V17.4545H70.9676V24H69.962ZM70.4733 16.3636C70.2773 16.3636 70.1083 16.2969 69.9662 16.1634C69.827 16.0298 69.7574 15.8693 69.7574 15.6818C69.7574 15.4943 69.827 15.3338 69.9662 15.2003C70.1083 15.0668 70.2773 15 70.4733 15C70.6693 15 70.837 15.0668 70.9762 15.2003C71.1182 15.3338 71.1892 15.4943 71.1892 15.6818C71.1892 15.8693 71.1182 16.0298 70.9762 16.1634C70.837 16.2969 70.6693 16.3636 70.4733 16.3636ZM79.9346 19.1676V20.1051H76.1164V19.1676H79.9346ZM87.9598 24.1193C87.6019 24.1136 87.2439 24.0455 86.886 23.9148C86.528 23.7841 86.2013 23.5639 85.9059 23.2543C85.6104 22.9418 85.3732 22.5199 85.1942 21.9886C85.0152 21.4545 84.9257 20.7841 84.9257 19.9773C84.9257 19.2045 84.9982 18.5199 85.1431 17.9233C85.288 17.3239 85.4982 16.8196 85.7737 16.4105C86.0493 15.9986 86.3817 15.6861 86.7709 15.473C87.163 15.2599 87.6047 15.1534 88.0962 15.1534C88.5848 15.1534 89.0195 15.2514 89.4002 15.4474C89.7837 15.6406 90.0962 15.9105 90.3377 16.2571C90.5791 16.6037 90.7354 17.0028 90.8064 17.4545H89.7666C89.6701 17.0625 89.4826 16.7372 89.2041 16.4787C88.9257 16.2202 88.5564 16.0909 88.0962 16.0909C87.4201 16.0909 86.8874 16.3849 86.4982 16.973C86.1118 17.5611 85.9172 18.3864 85.9144 19.4489H85.9826C86.1416 19.2074 86.3306 19.0014 86.5493 18.831C86.7709 18.6577 87.0152 18.5241 87.2823 18.4304C87.5493 18.3366 87.832 18.2898 88.1303 18.2898C88.6303 18.2898 89.0877 18.4148 89.5024 18.6648C89.9172 18.9119 90.2496 19.2543 90.4996 19.6918C90.7496 20.1264 90.8746 20.625 90.8746 21.1875C90.8746 21.7273 90.7539 22.2216 90.5124 22.6705C90.2709 23.1165 89.9314 23.4716 89.4939 23.7358C89.0593 23.9972 88.5479 24.125 87.9598 24.1193ZM87.9598 23.1818C88.3178 23.1818 88.6388 23.0923 88.9229 22.9134C89.2098 22.7344 89.4357 22.4943 89.6005 22.1932C89.7681 21.892 89.8519 21.5568 89.8519 21.1875C89.8519 20.8267 89.7709 20.4986 89.609 20.2031C89.4499 19.9048 89.2297 19.6676 88.9485 19.4915C88.6701 19.3153 88.3519 19.2273 87.9939 19.2273C87.724 19.2273 87.4726 19.2812 87.2397 19.3892C87.0067 19.4943 86.8022 19.6392 86.626 19.8239C86.4527 20.0085 86.3164 20.2202 86.2169 20.4588C86.1175 20.6946 86.0678 20.9432 86.0678 21.2045C86.0678 21.5511 86.1487 21.875 86.3107 22.1761C86.4755 22.4773 86.6999 22.7202 86.984 22.9048C87.2709 23.0895 87.5962 23.1818 87.9598 23.1818ZM92.5504 24V23.233L95.4311 20.0795C95.7691 19.7102 96.0475 19.3892 96.2663 19.1165C96.485 18.8409 96.647 18.5824 96.7521 18.3409C96.86 18.0966 96.914 17.8409 96.914 17.5739C96.914 17.267 96.8402 17.0014 96.6924 16.777C96.5475 16.5526 96.3487 16.3793 96.0958 16.2571C95.843 16.1349 95.5589 16.0739 95.2436 16.0739C94.9083 16.0739 94.6157 16.1435 94.3657 16.2827C94.1186 16.419 93.9268 16.6108 93.7904 16.858C93.6569 17.1051 93.5902 17.3949 93.5902 17.7273H92.5845C92.5845 17.2159 92.7024 16.767 92.9382 16.3807C93.174 15.9943 93.495 15.6932 93.9012 15.4773C94.3103 15.2614 94.7691 15.1534 95.2777 15.1534C95.789 15.1534 96.2421 15.2614 96.637 15.4773C97.0319 15.6932 97.3416 15.9844 97.566 16.3509C97.7904 16.7173 97.9027 17.125 97.9027 17.5739C97.9027 17.8949 97.8444 18.2088 97.7279 18.5156C97.6143 18.8196 97.4154 19.1591 97.1313 19.5341C96.8501 19.9062 96.4595 20.3608 95.9595 20.8977L93.9992 22.9943V23.0625H98.0561V24H92.5504ZM102.663 24.1193C102.021 24.1193 101.474 23.9446 101.022 23.5952C100.57 23.2429 100.225 22.733 99.9865 22.0653C99.7478 21.3949 99.6285 20.5852 99.6285 19.6364C99.6285 18.6932 99.7478 17.8878 99.9865 17.2202C100.228 16.5497 100.575 16.0384 101.026 15.6861C101.481 15.331 102.026 15.1534 102.663 15.1534C103.299 15.1534 103.843 15.331 104.295 15.6861C104.749 16.0384 105.096 16.5497 105.334 17.2202C105.576 17.8878 105.697 18.6932 105.697 19.6364C105.697 20.5852 105.577 21.3949 105.339 22.0653C105.1 22.733 104.755 23.2429 104.303 23.5952C103.852 23.9446 103.305 24.1193 102.663 24.1193ZM102.663 23.1818C103.299 23.1818 103.793 22.875 104.146 22.2614C104.498 21.6477 104.674 20.7727 104.674 19.6364C104.674 18.8807 104.593 18.2372 104.431 17.706C104.272 17.1747 104.042 16.7699 103.741 16.4915C103.442 16.2131 103.083 16.0739 102.663 16.0739C102.032 16.0739 101.539 16.3849 101.184 17.0071C100.829 17.6264 100.651 18.5028 100.651 19.6364C100.651 20.392 100.731 21.0341 100.89 21.5625C101.049 22.0909 101.278 22.4929 101.576 22.7685C101.877 23.044 102.239 23.1818 102.663 23.1818ZM113.538 24.1193C112.896 24.1193 112.349 23.9446 111.897 23.5952C111.445 23.2429 111.1 22.733 110.861 22.0653C110.623 21.3949 110.504 20.5852 110.504 19.6364C110.504 18.6932 110.623 17.8878 110.861 17.2202C111.103 16.5497 111.45 16.0384 111.901 15.6861C112.356 15.331 112.901 15.1534 113.538 15.1534C114.174 15.1534 114.718 15.331 115.17 15.6861C115.624 16.0384 115.971 16.5497 116.209 17.2202C116.451 17.8878 116.572 18.6932 116.572 19.6364C116.572 20.5852 116.452 21.3949 116.214 22.0653C115.975 22.733 115.63 23.2429 115.178 23.5952C114.727 23.9446 114.18 24.1193 113.538 24.1193ZM113.538 23.1818C114.174 23.1818 114.668 22.875 115.021 22.2614C115.373 21.6477 115.549 20.7727 115.549 19.6364C115.549 18.8807 115.468 18.2372 115.306 17.706C115.147 17.1747 114.917 16.7699 114.616 16.4915C114.317 16.2131 113.958 16.0739 113.538 16.0739C112.907 16.0739 112.414 16.3849 112.059 17.0071C111.704 17.6264 111.526 18.5028 111.526 19.6364C111.526 20.392 111.606 21.0341 111.765 21.5625C111.924 22.0909 112.153 22.4929 112.451 22.7685C112.752 23.044 113.114 23.1818 113.538 23.1818ZM121.259 15.2727V24H120.202V16.3807H120.151L118.021 17.7955V16.7216L120.202 15.2727H121.259ZM126.616 24.1193C125.974 24.1193 125.427 23.9446 124.975 23.5952C124.523 23.2429 124.178 22.733 123.94 22.0653C123.701 21.3949 123.582 20.5852 123.582 19.6364C123.582 18.6932 123.701 17.8878 123.94 17.2202C124.181 16.5497 124.528 16.0384 124.979 15.6861C125.434 15.331 125.979 15.1534 126.616 15.1534C127.252 15.1534 127.796 15.331 128.248 15.6861C128.702 16.0384 129.049 16.5497 129.288 17.2202C129.529 17.8878 129.65 18.6932 129.65 19.6364C129.65 20.5852 129.53 21.3949 129.292 22.0653C129.053 22.733 128.708 23.2429 128.256 23.5952C127.805 23.9446 127.258 24.1193 126.616 24.1193ZM126.616 23.1818C127.252 23.1818 127.746 22.875 128.099 22.2614C128.451 21.6477 128.627 20.7727 128.627 19.6364C128.627 18.8807 128.546 18.2372 128.384 17.706C128.225 17.1747 127.995 16.7699 127.694 16.4915C127.396 16.2131 127.036 16.0739 126.616 16.0739C125.985 16.0739 125.492 16.3849 125.137 17.0071C124.782 17.6264 124.604 18.5028 124.604 19.6364C124.604 20.392 124.684 21.0341 124.843 21.5625C125.002 22.0909 125.231 22.4929 125.529 22.7685C125.83 23.044 126.192 23.1818 126.616 23.1818ZM131.714 24.0682C131.504 24.0682 131.324 23.9929 131.173 23.8423C131.023 23.6918 130.947 23.5114 130.947 23.3011C130.947 23.0909 131.023 22.9105 131.173 22.7599C131.324 22.6094 131.504 22.5341 131.714 22.5341C131.925 22.5341 132.105 22.6094 132.256 22.7599C132.406 22.9105 132.481 23.0909 132.481 23.3011C132.481 23.4403 132.446 23.5682 132.375 23.6847C132.307 23.8011 132.214 23.8949 132.098 23.9659C131.984 24.0341 131.856 24.0682 131.714 24.0682Z" fill="#202020"/>
</svg>
