<svg width="219" height="27" viewBox="0 0 219 27" fill="none" xmlns="http://www.w3.org/2000/svg">
<path d="M3.16992 9H0.47674V0.272727H3.28924C4.13583 0.272727 4.86026 0.447443 5.46254 0.796875C6.06481 1.14347 6.52646 1.64205 6.84748 2.29261C7.1685 2.94034 7.32901 3.71591 7.32901 4.61932C7.32901 5.52841 7.16708 6.31108 6.84322 6.96733C6.51935 7.62074 6.04776 8.12358 5.42844 8.47585C4.80913 8.82528 4.05629 9 3.16992 9ZM1.53356 8.0625H3.10174C3.82333 8.0625 4.42134 7.9233 4.89577 7.64489C5.37021 7.36648 5.7239 6.97017 5.95685 6.45597C6.18981 5.94176 6.30629 5.32955 6.30629 4.61932C6.30629 3.91477 6.19123 3.30824 5.96112 2.79972C5.731 2.28835 5.38725 1.89631 4.92987 1.62358C4.47248 1.34801 3.90288 1.21023 3.22106 1.21023H1.53356V8.0625ZM8.94833 9V8.23295L11.829 5.07955C12.1671 4.71023 12.4455 4.3892 12.6642 4.11648C12.883 3.84091 13.0449 3.58239 13.15 3.34091C13.258 3.09659 13.312 2.84091 13.312 2.57386C13.312 2.26705 13.2381 2.00142 13.0904 1.77699C12.9455 1.55256 12.7466 1.37926 12.4938 1.2571C12.2409 1.13494 11.9569 1.07386 11.6415 1.07386C11.3063 1.07386 11.0137 1.14347 10.7637 1.28267C10.5165 1.41903 10.3248 1.6108 10.1884 1.85795C10.0549 2.10511 9.9881 2.39489 9.9881 2.72727H8.98242C8.98242 2.21591 9.10032 1.76705 9.33612 1.38068C9.57191 0.994318 9.89293 0.693181 10.2992 0.477272C10.7083 0.261363 11.1671 0.153409 11.6756 0.153409C12.187 0.153409 12.6401 0.261363 13.035 0.477272C13.4299 0.693181 13.7395 0.984375 13.964 1.35085C14.1884 1.71733 14.3006 2.125 14.3006 2.57386C14.3006 2.89489 14.2424 3.20881 14.1259 3.51562C14.0123 3.8196 13.8134 4.15909 13.5293 4.53409C13.248 4.90625 12.8574 5.3608 12.3574 5.89773L10.3972 7.99432V8.0625H14.454V9H8.94833ZM16.214 9V8.23295L19.0946 5.07955C19.4327 4.71023 19.7111 4.3892 19.9299 4.11648C20.1486 3.84091 20.3105 3.58239 20.4157 3.34091C20.5236 3.09659 20.5776 2.84091 20.5776 2.57386C20.5776 2.26705 20.5037 2.00142 20.356 1.77699C20.2111 1.55256 20.0123 1.37926 19.7594 1.2571C19.5066 1.13494 19.2225 1.07386 18.9071 1.07386C18.5719 1.07386 18.2793 1.14347 18.0293 1.28267C17.7821 1.41903 17.5904 1.6108 17.454 1.85795C17.3205 2.10511 17.2537 2.39489 17.2537 2.72727H16.248C16.248 2.21591 16.3659 1.76705 16.6017 1.38068C16.8375 0.994318 17.1586 0.693181 17.5648 0.477272C17.9739 0.261363 18.4327 0.153409 18.9412 0.153409C19.4526 0.153409 19.9057 0.261363 20.3006 0.477272C20.6955 0.693181 21.0051 0.984375 21.2296 1.35085C21.454 1.71733 21.5662 2.125 21.5662 2.57386C21.5662 2.89489 21.508 3.20881 21.3915 3.51562C21.2779 3.8196 21.079 4.15909 20.7949 4.53409C20.5137 4.90625 20.123 5.3608 19.623 5.89773L17.6628 7.99432V8.0625H21.7196V9H16.214ZM31.508 3.92045L30.6046 4.17614C30.5478 4.02557 30.464 3.87926 30.3532 3.73722C30.2452 3.59233 30.0975 3.47301 29.91 3.37926C29.7225 3.28551 29.4824 3.23864 29.1898 3.23864C28.7892 3.23864 28.4554 3.33097 28.1884 3.51562C27.9242 3.69744 27.7921 3.92898 27.7921 4.21023C27.7921 4.46023 27.883 4.65767 28.0648 4.80256C28.2466 4.94744 28.5307 5.06818 28.9171 5.16477L29.8887 5.40341C30.4739 5.54545 30.91 5.76278 31.1969 6.0554C31.4838 6.34517 31.6273 6.71875 31.6273 7.17614C31.6273 7.55114 31.5194 7.88636 31.3034 8.18182C31.0904 8.47727 30.7921 8.71023 30.4086 8.88068C30.025 9.05114 29.579 9.13636 29.0705 9.13636C28.4029 9.13636 27.8503 8.99148 27.4128 8.7017C26.9753 8.41193 26.6983 7.98864 26.5819 7.43182L27.5364 7.19318C27.6273 7.54545 27.7992 7.80966 28.052 7.9858C28.3077 8.16193 28.6415 8.25 29.0534 8.25C29.5222 8.25 29.8944 8.15057 30.1699 7.9517C30.4483 7.75 30.5875 7.50852 30.5875 7.22727C30.5875 7 30.508 6.80966 30.3489 6.65625C30.1898 6.5 29.9455 6.38352 29.6159 6.30682L28.525 6.05114C27.9256 5.90909 27.4853 5.68892 27.204 5.39062C26.9256 5.08949 26.7864 4.71307 26.7864 4.26136C26.7864 3.89205 26.8901 3.56534 27.0975 3.28125C27.3077 2.99716 27.5932 2.77415 27.954 2.61222C28.3176 2.45028 28.7296 2.36932 29.1898 2.36932C29.8375 2.36932 30.3461 2.51136 30.7154 2.79545C31.0875 3.07955 31.3517 3.45455 31.508 3.92045ZM33.1412 9V2.45455H34.1468V9H33.1412ZM33.6525 1.36364C33.4565 1.36364 33.2875 1.29688 33.1454 1.16335C33.0062 1.02983 32.9366 0.869318 32.9366 0.681818C32.9366 0.494318 33.0062 0.333807 33.1454 0.200284C33.2875 0.0667613 33.4565 0 33.6525 0C33.8485 0 34.0162 0.0667613 34.1554 0.200284C34.2974 0.333807 34.3684 0.494318 34.3684 0.681818C34.3684 0.869318 34.2974 1.02983 34.1554 1.16335C34.0162 1.29688 33.8485 1.36364 33.6525 1.36364ZM38.4604 9.13636C37.915 9.13636 37.4334 8.99858 37.0158 8.72301C36.5982 8.4446 36.2715 8.05256 36.0357 7.54688C35.7999 7.03835 35.682 6.4375 35.682 5.74432C35.682 5.05682 35.7999 4.46023 36.0357 3.95455C36.2715 3.44886 36.5996 3.05824 37.0201 2.78267C37.4405 2.5071 37.9263 2.36932 38.4775 2.36932C38.9036 2.36932 39.2402 2.44034 39.4874 2.58239C39.7374 2.72159 39.9277 2.88068 40.0584 3.05966C40.1919 3.2358 40.2956 3.38068 40.3695 3.49432H40.4547V0.272727H41.4604V9H40.4888V7.99432H40.3695C40.2956 8.11364 40.1905 8.2642 40.0542 8.44602C39.9178 8.625 39.7232 8.78551 39.4703 8.92756C39.2175 9.06676 38.8809 9.13636 38.4604 9.13636ZM38.5968 8.23295C39.0002 8.23295 39.3411 8.12784 39.6195 7.91761C39.8979 7.70455 40.1096 7.41051 40.2544 7.03551C40.3993 6.65767 40.4718 6.22159 40.4718 5.72727C40.4718 5.23864 40.4007 4.81108 40.2587 4.4446C40.1167 4.07528 39.9064 3.78835 39.628 3.58381C39.3496 3.37642 39.0059 3.27273 38.5968 3.27273C38.1706 3.27273 37.8155 3.3821 37.5314 3.60085C37.2502 3.81676 37.0385 4.1108 36.8965 4.48295C36.7573 4.85227 36.6877 5.26705 36.6877 5.72727C36.6877 6.19318 36.7587 6.61648 36.9007 6.99716C37.0456 7.375 37.2587 7.67614 37.54 7.90057C37.824 8.12216 38.1763 8.23295 38.5968 8.23295ZM46.101 9.13636C45.4874 9.13636 44.959 8.99148 44.5158 8.7017C44.0726 8.41193 43.7317 8.01278 43.4931 7.50426C43.2544 6.99574 43.1351 6.41477 43.1351 5.76136C43.1351 5.09659 43.2573 4.50994 43.5016 4.00142C43.7488 3.49006 44.0925 3.09091 44.5328 2.80398C44.976 2.5142 45.4931 2.36932 46.084 2.36932C46.5442 2.36932 46.959 2.45455 47.3283 2.625C47.6976 2.79545 48.0002 3.03409 48.236 3.34091C48.4718 3.64773 48.6181 4.00568 48.6749 4.41477H47.6692C47.5925 4.11648 47.4221 3.85227 47.1578 3.62216C46.8965 3.3892 46.5442 3.27273 46.101 3.27273C45.709 3.27273 45.3652 3.375 45.0698 3.57955C44.7772 3.78125 44.5485 4.06676 44.3837 4.43608C44.2218 4.80256 44.1408 5.23295 44.1408 5.72727C44.1408 6.23295 44.2203 6.6733 44.3794 7.0483C44.5414 7.4233 44.7686 7.71449 45.0613 7.92188C45.3567 8.12926 45.7033 8.23295 46.101 8.23295C46.3624 8.23295 46.5996 8.1875 46.8127 8.09659C47.0257 8.00568 47.2061 7.875 47.3539 7.70455C47.5016 7.53409 47.6067 7.32955 47.6692 7.09091H48.6749C48.6181 7.47727 48.4775 7.82528 48.253 8.13494C48.0314 8.44176 47.7374 8.68608 47.3709 8.8679C47.0073 9.04688 46.584 9.13636 46.101 9.13636ZM52.8042 9.13636C52.2132 9.13636 51.6948 8.99574 51.2488 8.71449C50.8056 8.43324 50.459 8.03977 50.209 7.53409C49.9618 7.02841 49.8382 6.4375 49.8382 5.76136C49.8382 5.07955 49.9618 4.48437 50.209 3.97585C50.459 3.46733 50.8056 3.07244 51.2488 2.79119C51.6948 2.50994 52.2132 2.36932 52.8042 2.36932C53.3951 2.36932 53.9121 2.50994 54.3553 2.79119C54.8013 3.07244 55.1479 3.46733 55.3951 3.97585C55.6451 4.48437 55.7701 5.07955 55.7701 5.76136C55.7701 6.4375 55.6451 7.02841 55.3951 7.53409C55.1479 8.03977 54.8013 8.43324 54.3553 8.71449C53.9121 8.99574 53.3951 9.13636 52.8042 9.13636ZM52.8042 8.23295C53.253 8.23295 53.6223 8.1179 53.9121 7.88778C54.2019 7.65767 54.4164 7.35511 54.5556 6.98011C54.6948 6.60511 54.7644 6.19886 54.7644 5.76136C54.7644 5.32386 54.6948 4.91619 54.5556 4.53835C54.4164 4.16051 54.2019 3.85511 53.9121 3.62216C53.6223 3.3892 53.253 3.27273 52.8042 3.27273C52.3553 3.27273 51.986 3.3892 51.6962 3.62216C51.4064 3.85511 51.1919 4.16051 51.0527 4.53835C50.9135 4.91619 50.8439 5.32386 50.8439 5.76136C50.8439 6.19886 50.9135 6.60511 51.0527 6.98011C51.1919 7.35511 51.4064 7.65767 51.6962 7.88778C51.986 8.1179 52.3553 8.23295 52.8042 8.23295ZM60.6802 9V2.45455H61.6859V9H60.6802ZM61.1916 1.36364C60.9956 1.36364 60.8265 1.29688 60.6845 1.16335C60.5453 1.02983 60.4757 0.869318 60.4757 0.681818C60.4757 0.494318 60.5453 0.333807 60.6845 0.200284C60.8265 0.0667613 60.9956 0 61.1916 0C61.3876 0 61.5552 0.0667613 61.6944 0.200284C61.8365 0.333807 61.9075 0.494318 61.9075 0.681818C61.9075 0.869318 61.8365 1.02983 61.6944 1.16335C61.5552 1.29688 61.3876 1.36364 61.1916 1.36364ZM64.5336 5.0625V9H63.5279V2.45455H64.4995V3.47727H64.5847C64.7381 3.14489 64.9711 2.87784 65.2836 2.67614C65.5961 2.47159 65.9995 2.36932 66.4938 2.36932C66.937 2.36932 67.3248 2.46023 67.6571 2.64205C67.9895 2.82102 68.248 3.09375 68.4327 3.46023C68.6174 3.82386 68.7097 4.28409 68.7097 4.84091V9H67.704V4.90909C67.704 4.39489 67.5705 3.99432 67.3034 3.70739C67.0364 3.41761 66.6699 3.27273 66.204 3.27273C65.883 3.27273 65.5961 3.34233 65.3432 3.48153C65.0932 3.62074 64.8958 3.82386 64.7509 4.09091C64.606 4.35795 64.5336 4.68182 64.5336 5.0625ZM73.019 9.13636C72.4735 9.13636 71.992 8.99858 71.5744 8.72301C71.1568 8.4446 70.8301 8.05256 70.5943 7.54688C70.3585 7.03835 70.2406 6.4375 70.2406 5.74432C70.2406 5.05682 70.3585 4.46023 70.5943 3.95455C70.8301 3.44886 71.1582 3.05824 71.5787 2.78267C71.9991 2.5071 72.4849 2.36932 73.036 2.36932C73.4622 2.36932 73.7988 2.44034 74.046 2.58239C74.296 2.72159 74.4863 2.88068 74.617 3.05966C74.7505 3.2358 74.8542 3.38068 74.9281 3.49432H75.0133V0.272727H76.019V9H75.0474V7.99432H74.9281C74.8542 8.11364 74.7491 8.2642 74.6127 8.44602C74.4764 8.625 74.2818 8.78551 74.0289 8.92756C73.7761 9.06676 73.4395 9.13636 73.019 9.13636ZM73.1554 8.23295C73.5588 8.23295 73.8997 8.12784 74.1781 7.91761C74.4565 7.70455 74.6681 7.41051 74.813 7.03551C74.9579 6.65767 75.0304 6.22159 75.0304 5.72727C75.0304 5.23864 74.9593 4.81108 74.8173 4.4446C74.6752 4.07528 74.465 3.78835 74.1866 3.58381C73.9082 3.37642 73.5645 3.27273 73.1554 3.27273C72.7292 3.27273 72.3741 3.3821 72.09 3.60085C71.8088 3.81676 71.5971 4.1108 71.4551 4.48295C71.3159 4.85227 71.2463 5.26705 71.2463 5.72727C71.2463 6.19318 71.3173 6.61648 71.4593 6.99716C71.6042 7.375 71.8173 7.67614 72.0985 7.90057C72.3826 8.12216 72.7349 8.23295 73.1554 8.23295ZM82.1255 6.32386V2.45455H83.1312V9H82.1255V7.89205H82.0574C81.9039 8.22443 81.6653 8.5071 81.3414 8.74006C81.0176 8.97017 80.6085 9.08523 80.1142 9.08523C79.7051 9.08523 79.3414 8.99574 79.0233 8.81676C78.7051 8.63494 78.4551 8.36222 78.2733 7.99858C78.0914 7.6321 78.0005 7.17045 78.0005 6.61364V2.45455H79.0062V6.54545C79.0062 7.02273 79.1397 7.40341 79.4068 7.6875C79.6767 7.97159 80.0204 8.11364 80.438 8.11364C80.688 8.11364 80.9423 8.04972 81.2008 7.92188C81.4622 7.79403 81.6809 7.59801 81.8571 7.33381C82.036 7.0696 82.1255 6.73295 82.1255 6.32386ZM89.6096 3.92045L88.7061 4.17614C88.6493 4.02557 88.5655 3.87926 88.4547 3.73722C88.3468 3.59233 88.199 3.47301 88.0115 3.37926C87.824 3.28551 87.584 3.23864 87.2914 3.23864C86.8908 3.23864 86.557 3.33097 86.29 3.51562C86.0257 3.69744 85.8936 3.92898 85.8936 4.21023C85.8936 4.46023 85.9846 4.65767 86.1664 4.80256C86.3482 4.94744 86.6323 5.06818 87.0186 5.16477L87.9902 5.40341C88.5755 5.54545 89.0115 5.76278 89.2985 6.0554C89.5854 6.34517 89.7289 6.71875 89.7289 7.17614C89.7289 7.55114 89.6209 7.88636 89.405 8.18182C89.1919 8.47727 88.8936 8.71023 88.5101 8.88068C88.1266 9.05114 87.6806 9.13636 87.1721 9.13636C86.5044 9.13636 85.9519 8.99148 85.5144 8.7017C85.0769 8.41193 84.7999 7.98864 84.6834 7.43182L85.638 7.19318C85.7289 7.54545 85.9007 7.80966 86.1536 7.9858C86.4093 8.16193 86.7431 8.25 87.155 8.25C87.6238 8.25 87.9959 8.15057 88.2715 7.9517C88.5499 7.75 88.6891 7.50852 88.6891 7.22727C88.6891 7 88.6096 6.80966 88.4505 6.65625C88.2914 6.5 88.0471 6.38352 87.7175 6.30682L86.6266 6.05114C86.0272 5.90909 85.5868 5.68892 85.3056 5.39062C85.0272 5.08949 84.888 4.71307 84.888 4.26136C84.888 3.89205 84.9917 3.56534 85.199 3.28125C85.4093 2.99716 85.6948 2.77415 86.0556 2.61222C86.4192 2.45028 86.8311 2.36932 87.2914 2.36932C87.9391 2.36932 88.4476 2.51136 88.8169 2.79545C89.1891 3.07955 89.4533 3.45455 89.6096 3.92045ZM94.0893 2.45455V3.30682H90.6973V2.45455H94.0893ZM91.6859 0.886364H92.6916V7.125C92.6916 7.40909 92.7328 7.62216 92.8152 7.7642C92.9004 7.90341 93.0083 7.99716 93.139 8.04545C93.2725 8.09091 93.4132 8.11364 93.5609 8.11364C93.6717 8.11364 93.7626 8.10795 93.8336 8.09659C93.9047 8.08239 93.9615 8.07102 94.0041 8.0625L94.2086 8.96591C94.1404 8.99148 94.0453 9.01705 93.9231 9.04261C93.801 9.07102 93.6461 9.08523 93.4586 9.08523C93.1745 9.08523 92.8961 9.02415 92.6234 8.90199C92.3535 8.77983 92.1291 8.59375 91.9501 8.34375C91.774 8.09375 91.6859 7.77841 91.6859 7.39773V0.886364ZM95.6021 9V2.45455H96.5737V3.44318H96.6419C96.7612 3.11932 96.9771 2.85653 97.2896 2.65483C97.6021 2.45312 97.9544 2.35227 98.3464 2.35227C98.4203 2.35227 98.5126 2.35369 98.6234 2.35653C98.7342 2.35937 98.818 2.36364 98.8748 2.36932V3.39205C98.8407 3.38352 98.7626 3.37074 98.6404 3.35369C98.5211 3.33381 98.3947 3.32386 98.2612 3.32386C97.943 3.32386 97.6589 3.39062 97.4089 3.52415C97.1618 3.65483 96.9657 3.83665 96.8208 4.0696C96.6788 4.29972 96.6078 4.5625 96.6078 4.85795V9H95.6021ZM100.067 9V2.45455H101.073V9H100.067ZM100.578 1.36364C100.382 1.36364 100.213 1.29688 100.071 1.16335C99.932 1.02983 99.8624 0.869318 99.8624 0.681818C99.8624 0.494318 99.932 0.333807 100.071 0.200284C100.213 0.0667613 100.382 0 100.578 0C100.774 0 100.942 0.0667613 101.081 0.200284C101.223 0.333807 101.294 0.494318 101.294 0.681818C101.294 0.869318 101.223 1.02983 101.081 1.16335C100.942 1.29688 100.774 1.36364 100.578 1.36364ZM104.841 9.15341C104.426 9.15341 104.05 9.07528 103.711 8.91903C103.373 8.75994 103.105 8.53125 102.906 8.23295C102.707 7.93182 102.608 7.56818 102.608 7.14205C102.608 6.76705 102.682 6.46307 102.829 6.23011C102.977 5.99432 103.175 5.80966 103.422 5.67614C103.669 5.54261 103.942 5.44318 104.24 5.37784C104.541 5.30966 104.844 5.25568 105.148 5.21591C105.545 5.16477 105.868 5.12642 106.115 5.10085C106.365 5.07244 106.547 5.02557 106.66 4.96023C106.777 4.89489 106.835 4.78125 106.835 4.61932V4.58523C106.835 4.16477 106.72 3.83807 106.49 3.60511C106.263 3.37216 105.917 3.25568 105.454 3.25568C104.974 3.25568 104.598 3.3608 104.325 3.57102C104.052 3.78125 103.861 4.00568 103.75 4.24432L102.795 3.90341C102.966 3.50568 103.193 3.19602 103.477 2.97443C103.764 2.75 104.077 2.59375 104.415 2.50568C104.756 2.41477 105.091 2.36932 105.42 2.36932C105.631 2.36932 105.872 2.39489 106.145 2.44602C106.42 2.49432 106.686 2.59517 106.942 2.74858C107.2 2.90199 107.415 3.13352 107.585 3.44318C107.756 3.75284 107.841 4.16761 107.841 4.6875V9H106.835V8.11364H106.784C106.716 8.25568 106.602 8.40767 106.443 8.5696C106.284 8.73153 106.072 8.86932 105.808 8.98295C105.544 9.09659 105.221 9.15341 104.841 9.15341ZM104.994 8.25C105.392 8.25 105.727 8.17188 106 8.01562C106.275 7.85938 106.483 7.65767 106.622 7.41051C106.764 7.16335 106.835 6.90341 106.835 6.63068V5.71023C106.792 5.76136 106.699 5.80824 106.554 5.85085C106.412 5.89062 106.247 5.92614 106.059 5.95739C105.875 5.9858 105.694 6.01136 105.518 6.03409C105.345 6.05398 105.204 6.07102 105.096 6.08523C104.835 6.11932 104.591 6.17472 104.363 6.25142C104.139 6.32528 103.957 6.4375 103.818 6.58807C103.682 6.7358 103.613 6.9375 103.613 7.19318C103.613 7.54261 103.743 7.80682 104.001 7.9858C104.263 8.16193 104.594 8.25 104.994 8.25ZM110.682 0.272727V9H109.676V0.272727H110.682ZM118.643 9.13636C118.013 9.13636 117.469 8.99716 117.011 8.71875C116.557 8.4375 116.206 8.04545 115.959 7.54261C115.714 7.03693 115.592 6.44886 115.592 5.77841C115.592 5.10795 115.714 4.51705 115.959 4.00568C116.206 3.49148 116.55 3.09091 116.99 2.80398C117.433 2.5142 117.95 2.36932 118.541 2.36932C118.882 2.36932 119.219 2.42614 119.551 2.53977C119.883 2.65341 120.186 2.83807 120.459 3.09375C120.731 3.34659 120.949 3.68182 121.111 4.09943C121.273 4.51705 121.354 5.03125 121.354 5.64205V6.06818H116.308V5.19886H120.331C120.331 4.82955 120.257 4.5 120.109 4.21023C119.964 3.92045 119.757 3.69176 119.487 3.52415C119.22 3.35653 118.905 3.27273 118.541 3.27273C118.14 3.27273 117.794 3.37216 117.501 3.57102C117.211 3.76705 116.988 4.02273 116.832 4.33807C116.676 4.65341 116.598 4.99148 116.598 5.35227V5.93182C116.598 6.42614 116.683 6.84517 116.854 7.18892C117.027 7.52983 117.267 7.78977 117.574 7.96875C117.881 8.14489 118.237 8.23295 118.643 8.23295C118.907 8.23295 119.146 8.19602 119.359 8.12216C119.575 8.04545 119.761 7.93182 119.917 7.78125C120.074 7.62784 120.194 7.4375 120.28 7.21023L121.251 7.48295C121.149 7.8125 120.977 8.10227 120.736 8.35227C120.494 8.59943 120.196 8.79261 119.841 8.93182C119.486 9.06818 119.086 9.13636 118.643 9.13636ZM127.52 3.92045L126.616 4.17614C126.559 4.02557 126.476 3.87926 126.365 3.73722C126.257 3.59233 126.109 3.47301 125.922 3.37926C125.734 3.28551 125.494 3.23864 125.202 3.23864C124.801 3.23864 124.467 3.33097 124.2 3.51562C123.936 3.69744 123.804 3.92898 123.804 4.21023C123.804 4.46023 123.895 4.65767 124.077 4.80256C124.258 4.94744 124.542 5.06818 124.929 5.16477L125.9 5.40341C126.486 5.54545 126.922 5.76278 127.209 6.0554C127.496 6.34517 127.639 6.71875 127.639 7.17614C127.639 7.55114 127.531 7.88636 127.315 8.18182C127.102 8.47727 126.804 8.71023 126.42 8.88068C126.037 9.05114 125.591 9.13636 125.082 9.13636C124.415 9.13636 123.862 8.99148 123.425 8.7017C122.987 8.41193 122.71 7.98864 122.594 7.43182L123.548 7.19318C123.639 7.54545 123.811 7.80966 124.064 7.9858C124.319 8.16193 124.653 8.25 125.065 8.25C125.534 8.25 125.906 8.15057 126.182 7.9517C126.46 7.75 126.599 7.50852 126.599 7.22727C126.599 7 126.52 6.80966 126.361 6.65625C126.202 6.5 125.957 6.38352 125.628 6.30682L124.537 6.05114C123.937 5.90909 123.497 5.68892 123.216 5.39062C122.937 5.08949 122.798 4.71307 122.798 4.26136C122.798 3.89205 122.902 3.56534 123.109 3.28125C123.319 2.99716 123.605 2.77415 123.966 2.61222C124.329 2.45028 124.741 2.36932 125.202 2.36932C125.849 2.36932 126.358 2.51136 126.727 2.79545C127.099 3.07955 127.363 3.45455 127.52 3.92045ZM131.999 2.45455V3.30682H128.607V2.45455H131.999ZM129.596 0.886364H130.602V7.125C130.602 7.40909 130.643 7.62216 130.725 7.7642C130.811 7.90341 130.919 7.99716 131.049 8.04545C131.183 8.09091 131.323 8.11364 131.471 8.11364C131.582 8.11364 131.673 8.10795 131.744 8.09659C131.815 8.08239 131.872 8.07102 131.914 8.0625L132.119 8.96591C132.051 8.99148 131.955 9.01705 131.833 9.04261C131.711 9.07102 131.556 9.08523 131.369 9.08523C131.085 9.08523 130.806 9.02415 130.534 8.90199C130.264 8.77983 130.039 8.59375 129.86 8.34375C129.684 8.09375 129.596 7.77841 129.596 7.39773V0.886364ZM135.438 9.15341C135.024 9.15341 134.647 9.07528 134.309 8.91903C133.971 8.75994 133.703 8.53125 133.504 8.23295C133.305 7.93182 133.205 7.56818 133.205 7.14205C133.205 6.76705 133.279 6.46307 133.427 6.23011C133.575 5.99432 133.772 5.80966 134.019 5.67614C134.267 5.54261 134.539 5.44318 134.838 5.37784C135.139 5.30966 135.441 5.25568 135.745 5.21591C136.143 5.16477 136.465 5.12642 136.713 5.10085C136.963 5.07244 137.144 5.02557 137.258 4.96023C137.374 4.89489 137.433 4.78125 137.433 4.61932V4.58523C137.433 4.16477 137.318 3.83807 137.088 3.60511C136.86 3.37216 136.515 3.25568 136.052 3.25568C135.572 3.25568 135.195 3.3608 134.923 3.57102C134.65 3.78125 134.458 4.00568 134.347 4.24432L133.393 3.90341C133.563 3.50568 133.791 3.19602 134.075 2.97443C134.362 2.75 134.674 2.59375 135.012 2.50568C135.353 2.41477 135.688 2.36932 136.018 2.36932C136.228 2.36932 136.47 2.39489 136.742 2.44602C137.018 2.49432 137.284 2.59517 137.539 2.74858C137.798 2.90199 138.012 3.13352 138.183 3.44318C138.353 3.75284 138.438 4.16761 138.438 4.6875V9H137.433V8.11364H137.382C137.313 8.25568 137.2 8.40767 137.041 8.5696C136.882 8.73153 136.67 8.86932 136.406 8.98295C136.142 9.09659 135.819 9.15341 135.438 9.15341ZM135.592 8.25C135.99 8.25 136.325 8.17188 136.597 8.01562C136.873 7.85938 137.08 7.65767 137.22 7.41051C137.362 7.16335 137.433 6.90341 137.433 6.63068V5.71023C137.39 5.76136 137.296 5.80824 137.151 5.85085C137.009 5.89062 136.845 5.92614 136.657 5.95739C136.472 5.9858 136.292 6.01136 136.116 6.03409C135.943 6.05398 135.802 6.07102 135.694 6.08523C135.433 6.11932 135.188 6.17472 134.961 6.25142C134.737 6.32528 134.555 6.4375 134.416 6.58807C134.279 6.7358 134.211 6.9375 134.211 7.19318C134.211 7.54261 134.34 7.80682 134.599 7.9858C134.86 8.16193 135.191 8.25 135.592 8.25ZM143.121 2.45455V3.30682H139.729V2.45455H143.121ZM140.717 0.886364H141.723V7.125C141.723 7.40909 141.764 7.62216 141.846 7.7642C141.932 7.90341 142.04 7.99716 142.17 8.04545C142.304 8.09091 142.444 8.11364 142.592 8.11364C142.703 8.11364 142.794 8.10795 142.865 8.09659C142.936 8.08239 142.993 8.07102 143.035 8.0625L143.24 8.96591C143.172 8.99148 143.077 9.01705 142.954 9.04261C142.832 9.07102 142.677 9.08523 142.49 9.08523C142.206 9.08523 141.927 9.02415 141.655 8.90199C141.385 8.77983 141.16 8.59375 140.981 8.34375C140.805 8.09375 140.717 7.77841 140.717 7.39773V0.886364ZM147.307 9.13636C146.677 9.13636 146.133 8.99716 145.675 8.71875C145.221 8.4375 144.87 8.04545 144.623 7.54261C144.378 7.03693 144.256 6.44886 144.256 5.77841C144.256 5.10795 144.378 4.51705 144.623 4.00568C144.87 3.49148 145.214 3.09091 145.654 2.80398C146.097 2.5142 146.614 2.36932 147.205 2.36932C147.546 2.36932 147.883 2.42614 148.215 2.53977C148.547 2.65341 148.85 2.83807 149.123 3.09375C149.395 3.34659 149.613 3.68182 149.775 4.09943C149.937 4.51705 150.018 5.03125 150.018 5.64205V6.06818H144.972V5.19886H148.995C148.995 4.82955 148.921 4.5 148.773 4.21023C148.628 3.92045 148.421 3.69176 148.151 3.52415C147.884 3.35653 147.569 3.27273 147.205 3.27273C146.805 3.27273 146.458 3.37216 146.165 3.57102C145.876 3.76705 145.653 4.02273 145.496 4.33807C145.34 4.65341 145.262 4.99148 145.262 5.35227V5.93182C145.262 6.42614 145.347 6.84517 145.518 7.18892C145.691 7.52983 145.931 7.78977 146.238 7.96875C146.545 8.14489 146.901 8.23295 147.307 8.23295C147.572 8.23295 147.81 8.19602 148.023 8.12216C148.239 8.04545 148.425 7.93182 148.581 7.78125C148.738 7.62784 148.858 7.4375 148.944 7.21023L149.915 7.48295C149.813 7.8125 149.641 8.10227 149.4 8.35227C149.158 8.59943 148.86 8.79261 148.505 8.93182C148.15 9.06818 147.751 9.13636 147.307 9.13636ZM153.047 7.80682L152.979 8.26705C152.931 8.59091 152.857 8.9375 152.758 9.30682C152.661 9.67614 152.56 10.0241 152.455 10.3509C152.35 10.6776 152.263 10.9375 152.195 11.1307H151.428C151.465 10.9489 151.513 10.7088 151.573 10.4105C151.633 10.1122 151.692 9.77841 151.752 9.40909C151.814 9.04261 151.866 8.66761 151.905 8.28409L151.956 7.80682H153.047ZM157.945 1.21023V0.272727H164.49V1.21023H161.746V9H160.689V1.21023H157.945ZM166.991 5.0625V9H165.985V0.272727H166.991V3.47727H167.076C167.229 3.1392 167.459 2.87074 167.766 2.67188C168.076 2.47017 168.488 2.36932 169.002 2.36932C169.448 2.36932 169.839 2.45881 170.174 2.63778C170.509 2.81392 170.769 3.08523 170.954 3.4517C171.141 3.81534 171.235 4.27841 171.235 4.84091V9H170.229V4.90909C170.229 4.3892 170.094 3.98722 169.824 3.70312C169.557 3.41619 169.187 3.27273 168.712 3.27273C168.383 3.27273 168.087 3.34233 167.826 3.48153C167.567 3.62074 167.363 3.82386 167.212 4.09091C167.064 4.35795 166.991 4.68182 166.991 5.0625ZM177.2 6.32386V2.45455H178.205V9H177.2V7.89205H177.132C176.978 8.22443 176.74 8.5071 176.416 8.74006C176.092 8.97017 175.683 9.08523 175.188 9.08523C174.779 9.08523 174.416 8.99574 174.097 8.81676C173.779 8.63494 173.529 8.36222 173.347 7.99858C173.166 7.6321 173.075 7.17045 173.075 6.61364V2.45455H174.08V6.54545C174.08 7.02273 174.214 7.40341 174.481 7.6875C174.751 7.97159 175.095 8.11364 175.512 8.11364C175.762 8.11364 176.017 8.04972 176.275 7.92188C176.536 7.79403 176.755 7.59801 176.931 7.33381C177.11 7.0696 177.2 6.73295 177.2 6.32386ZM185.4 2.45455L182.979 9H181.956L179.536 2.45455H180.627L182.434 7.67045H182.502L184.309 2.45455H185.4ZM188.454 9.15341C188.039 9.15341 187.663 9.07528 187.325 8.91903C186.987 8.75994 186.718 8.53125 186.519 8.23295C186.32 7.93182 186.221 7.56818 186.221 7.14205C186.221 6.76705 186.295 6.46307 186.443 6.23011C186.59 5.99432 186.788 5.80966 187.035 5.67614C187.282 5.54261 187.555 5.44318 187.853 5.37784C188.154 5.30966 188.457 5.25568 188.761 5.21591C189.159 5.16477 189.481 5.12642 189.728 5.10085C189.978 5.07244 190.16 5.02557 190.274 4.96023C190.39 4.89489 190.448 4.78125 190.448 4.61932V4.58523C190.448 4.16477 190.333 3.83807 190.103 3.60511C189.876 3.37216 189.531 3.25568 189.068 3.25568C188.588 3.25568 188.211 3.3608 187.938 3.57102C187.666 3.78125 187.474 4.00568 187.363 4.24432L186.409 3.90341C186.579 3.50568 186.806 3.19602 187.09 2.97443C187.377 2.75 187.69 2.59375 188.028 2.50568C188.369 2.41477 188.704 2.36932 189.034 2.36932C189.244 2.36932 189.485 2.39489 189.758 2.44602C190.034 2.49432 190.299 2.59517 190.555 2.74858C190.813 2.90199 191.028 3.13352 191.198 3.44318C191.369 3.75284 191.454 4.16761 191.454 4.6875V9H190.448V8.11364H190.397C190.329 8.25568 190.215 8.40767 190.056 8.5696C189.897 8.73153 189.686 8.86932 189.421 8.98295C189.157 9.09659 188.835 9.15341 188.454 9.15341ZM188.607 8.25C189.005 8.25 189.34 8.17188 189.613 8.01562C189.889 7.85938 190.096 7.65767 190.235 7.41051C190.377 7.16335 190.448 6.90341 190.448 6.63068V5.71023C190.406 5.76136 190.312 5.80824 190.167 5.85085C190.025 5.89062 189.86 5.92614 189.673 5.95739C189.488 5.9858 189.308 6.01136 189.132 6.03409C188.958 6.05398 188.818 6.07102 188.71 6.08523C188.448 6.11932 188.204 6.17472 187.977 6.25142C187.752 6.32528 187.57 6.4375 187.431 6.58807C187.295 6.7358 187.227 6.9375 187.227 7.19318C187.227 7.54261 187.356 7.80682 187.615 7.9858C187.876 8.16193 188.207 8.25 188.607 8.25ZM194.227 6.61364L194.21 5.36932H194.415L197.278 2.45455H198.523L195.471 5.53977H195.386L194.227 6.61364ZM193.29 9V0.272727H194.295V9H193.29ZM197.449 9L194.892 5.76136L195.608 5.0625L198.727 9H197.449ZM203.942 6.32386V2.45455H204.948V9H203.942V7.89205H203.874C203.72 8.22443 203.482 8.5071 203.158 8.74006C202.834 8.97017 202.425 9.08523 201.931 9.08523C201.521 9.08523 201.158 8.99574 200.84 8.81676C200.521 8.63494 200.271 8.36222 200.09 7.99858C199.908 7.6321 199.817 7.17045 199.817 6.61364V2.45455H200.823V6.54545C200.823 7.02273 200.956 7.40341 201.223 7.6875C201.493 7.97159 201.837 8.11364 202.254 8.11364C202.504 8.11364 202.759 8.04972 203.017 7.92188C203.279 7.79403 203.497 7.59801 203.673 7.33381C203.852 7.0696 203.942 6.73295 203.942 6.32386ZM209.261 9.13636C208.716 9.13636 208.234 8.99858 207.817 8.72301C207.399 8.4446 207.072 8.05256 206.836 7.54688C206.601 7.03835 206.483 6.4375 206.483 5.74432C206.483 5.05682 206.601 4.46023 206.836 3.95455C207.072 3.44886 207.4 3.05824 207.821 2.78267C208.241 2.5071 208.727 2.36932 209.278 2.36932C209.704 2.36932 210.041 2.44034 210.288 2.58239C210.538 2.72159 210.729 2.88068 210.859 3.05966C210.993 3.2358 211.096 3.38068 211.17 3.49432H211.256V0.272727H212.261V9H211.29V7.99432H211.17C211.096 8.11364 210.991 8.2642 210.855 8.44602C210.719 8.625 210.524 8.78551 210.271 8.92756C210.018 9.06676 209.682 9.13636 209.261 9.13636ZM209.398 8.23295C209.801 8.23295 210.142 8.12784 210.42 7.91761C210.699 7.70455 210.91 7.41051 211.055 7.03551C211.2 6.65767 211.273 6.22159 211.273 5.72727C211.273 5.23864 211.202 4.81108 211.059 4.4446C210.917 4.07528 210.707 3.78835 210.429 3.58381C210.15 3.37642 209.807 3.27273 209.398 3.27273C208.971 3.27273 208.616 3.3821 208.332 3.60085C208.051 3.81676 207.839 4.1108 207.697 4.48295C207.558 4.85227 207.488 5.26705 207.488 5.72727C207.488 6.19318 207.559 6.61648 207.702 6.99716C207.846 7.375 208.059 7.67614 208.341 7.90057C208.625 8.12216 208.977 8.23295 209.398 8.23295ZM214.243 9V2.45455H215.248V9H214.243ZM214.754 1.36364C214.558 1.36364 214.389 1.29688 214.247 1.16335C214.108 1.02983 214.038 0.869318 214.038 0.681818C214.038 0.494318 214.108 0.333807 214.247 0.200284C214.389 0.0667613 214.558 0 214.754 0C214.95 0 215.118 0.0667613 215.257 0.200284C215.399 0.333807 215.47 0.494318 215.47 0.681818C215.47 0.869318 215.399 1.02983 215.257 1.16335C215.118 1.29688 214.95 1.36364 214.754 1.36364ZM218.59 7.80682L218.522 8.26705C218.474 8.59091 218.4 8.9375 218.301 9.30682C218.204 9.67614 218.103 10.0241 217.998 10.3509C217.893 10.6776 217.806 10.9375 217.738 11.1307H216.971C217.008 10.9489 217.056 10.7088 217.116 10.4105C217.176 10.1122 217.235 9.77841 217.295 9.40909C217.357 9.04261 217.409 8.66761 217.448 8.28409L217.499 7.80682H218.59ZM-0.000532642 16.2102V15.2727H6.54492V16.2102H3.8006V24H2.74379V16.2102H-0.000532642ZM7.35991 24V17.4545H8.3315V18.4432H8.39968C8.519 18.1193 8.73491 17.8565 9.04741 17.6548C9.35991 17.4531 9.71218 17.3523 10.1042 17.3523C10.1781 17.3523 10.2704 17.3537 10.3812 17.3565C10.492 17.3594 10.5758 17.3636 10.6326 17.3693V18.392C10.5985 18.3835 10.5204 18.3707 10.3983 18.3537C10.2789 18.3338 10.1525 18.3239 10.019 18.3239C9.70082 18.3239 9.41673 18.3906 9.16673 18.5241C8.91957 18.6548 8.72354 18.8366 8.57866 19.0696C8.43661 19.2997 8.36559 19.5625 8.36559 19.858V24H7.35991ZM11.8248 24V17.4545H12.8304V24H11.8248ZM12.3361 16.3636C12.1401 16.3636 11.9711 16.2969 11.829 16.1634C11.6898 16.0298 11.6202 15.8693 11.6202 15.6818C11.6202 15.4943 11.6898 15.3338 11.829 15.2003C11.9711 15.0668 12.1401 15 12.3361 15C12.5321 15 12.6998 15.0668 12.839 15.2003C12.981 15.3338 13.052 15.4943 13.052 15.6818C13.052 15.8693 12.981 16.0298 12.839 16.1634C12.6998 16.2969 12.5321 16.3636 12.3361 16.3636ZM17.3315 24.1364C16.7179 24.1364 16.1895 23.9915 15.7463 23.7017C15.3031 23.4119 14.9622 23.0128 14.7235 22.5043C14.4849 21.9957 14.3656 21.4148 14.3656 20.7614C14.3656 20.0966 14.4877 19.5099 14.7321 19.0014C14.9792 18.4901 15.323 18.0909 15.7633 17.804C16.2065 17.5142 16.7235 17.3693 17.3145 17.3693C17.7747 17.3693 18.1895 17.4545 18.5588 17.625C18.9281 17.7955 19.2306 18.0341 19.4664 18.3409C19.7022 18.6477 19.8485 19.0057 19.9054 19.4148H18.8997C18.823 19.1165 18.6525 18.8523 18.3883 18.6222C18.127 18.3892 17.7747 18.2727 17.3315 18.2727C16.9395 18.2727 16.5957 18.375 16.3002 18.5795C16.0076 18.7812 15.7789 19.0668 15.6142 19.4361C15.4522 19.8026 15.3713 20.233 15.3713 20.7273C15.3713 21.233 15.4508 21.6733 15.6099 22.0483C15.7718 22.4233 15.9991 22.7145 16.2917 22.9219C16.5872 23.1293 16.9338 23.233 17.3315 23.233C17.5929 23.233 17.8301 23.1875 18.0431 23.0966C18.2562 23.0057 18.4366 22.875 18.5843 22.7045C18.7321 22.5341 18.8372 22.3295 18.8997 22.0909H19.9054C19.8485 22.4773 19.7079 22.8253 19.4835 23.1349C19.2619 23.4418 18.9679 23.6861 18.6014 23.8679C18.2377 24.0469 17.8145 24.1364 17.3315 24.1364ZM22.3812 20.0625V24H21.3755V15.2727H22.3812V18.4773H22.4664C22.6199 18.1392 22.85 17.8707 23.1568 17.6719C23.4664 17.4702 23.8784 17.3693 24.3926 17.3693C24.8386 17.3693 25.2292 17.4588 25.5645 17.6378C25.8997 17.8139 26.1596 18.0852 26.3443 18.4517C26.5318 18.8153 26.6255 19.2784 26.6255 19.8409V24H25.6199V19.9091C25.6199 19.3892 25.4849 18.9872 25.215 18.7031C24.948 18.4162 24.5772 18.2727 24.1028 18.2727C23.7733 18.2727 23.4778 18.3423 23.2164 18.4815C22.9579 18.6207 22.7534 18.8239 22.6028 19.0909C22.4551 19.358 22.3812 19.6818 22.3812 20.0625ZM28.4654 24V17.4545H29.4711V24H28.4654ZM28.9767 16.3636C28.7807 16.3636 28.6117 16.2969 28.4696 16.1634C28.3304 16.0298 28.2608 15.8693 28.2608 15.6818C28.2608 15.4943 28.3304 15.3338 28.4696 15.2003C28.6117 15.0668 28.7807 15 28.9767 15C29.1728 15 29.3404 15.0668 29.4796 15.2003C29.6216 15.3338 29.6926 15.4943 29.6926 15.6818C29.6926 15.8693 29.6216 16.0298 29.4796 16.1634C29.3404 16.2969 29.1728 16.3636 28.9767 16.3636ZM31.313 24V17.4545H32.2846V18.4432H32.3528C32.4721 18.1193 32.688 17.8565 33.0005 17.6548C33.313 17.4531 33.6653 17.3523 34.0574 17.3523C34.1312 17.3523 34.2235 17.3537 34.3343 17.3565C34.4451 17.3594 34.5289 17.3636 34.5858 17.3693V18.392C34.5517 18.3835 34.4735 18.3707 34.3514 18.3537C34.2321 18.3338 34.1056 18.3239 33.9721 18.3239C33.6539 18.3239 33.3699 18.3906 33.1199 18.5241C32.8727 18.6548 32.6767 18.8366 32.5318 19.0696C32.3897 19.2997 32.3187 19.5625 32.3187 19.858V24H31.313ZM37.704 24.1534C37.2892 24.1534 36.9128 24.0753 36.5748 23.919C36.2367 23.7599 35.9682 23.5312 35.7694 23.233C35.5705 22.9318 35.4711 22.5682 35.4711 22.142C35.4711 21.767 35.5449 21.4631 35.6926 21.2301C35.8404 20.9943 36.0378 20.8097 36.285 20.6761C36.5321 20.5426 36.8049 20.4432 37.1032 20.3778C37.4043 20.3097 37.7069 20.2557 38.0108 20.2159C38.4086 20.1648 38.731 20.1264 38.9782 20.1009C39.2282 20.0724 39.41 20.0256 39.5236 19.9602C39.6401 19.8949 39.6983 19.7812 39.6983 19.6193V19.5852C39.6983 19.1648 39.5833 18.8381 39.3532 18.6051C39.1259 18.3722 38.7807 18.2557 38.3176 18.2557C37.8375 18.2557 37.4611 18.3608 37.1884 18.571C36.9157 18.7812 36.7239 19.0057 36.6131 19.2443L35.6586 18.9034C35.829 18.5057 36.0563 18.196 36.3404 17.9744C36.6273 17.75 36.9398 17.5937 37.2779 17.5057C37.6188 17.4148 37.954 17.3693 38.2836 17.3693C38.4938 17.3693 38.7353 17.3949 39.008 17.446C39.2836 17.4943 39.5492 17.5952 39.8049 17.7486C40.0634 17.902 40.2779 18.1335 40.4483 18.4432C40.6188 18.7528 40.704 19.1676 40.704 19.6875V24H39.6983V23.1136H39.6472C39.579 23.2557 39.4654 23.4077 39.3063 23.5696C39.1472 23.7315 38.9355 23.8693 38.6713 23.983C38.4071 24.0966 38.0847 24.1534 37.704 24.1534ZM37.8574 23.25C38.2551 23.25 38.5904 23.1719 38.8631 23.0156C39.1387 22.8594 39.3461 22.6577 39.4853 22.4105C39.6273 22.1634 39.6983 21.9034 39.6983 21.6307V20.7102C39.6557 20.7614 39.562 20.8082 39.4171 20.8509C39.275 20.8906 39.1103 20.9261 38.9228 20.9574C38.7381 20.9858 38.5577 21.0114 38.3816 21.0341C38.2083 21.054 38.0676 21.071 37.9597 21.0852C37.6983 21.1193 37.454 21.1747 37.2267 21.2514C37.0023 21.3253 36.8205 21.4375 36.6813 21.5881C36.5449 21.7358 36.4767 21.9375 36.4767 22.1932C36.4767 22.5426 36.606 22.8068 36.8645 22.9858C37.1259 23.1619 37.4569 23.25 37.8574 23.25ZM42.5396 26.4545V17.4545H43.5112V18.4943H43.6305C43.7044 18.3807 43.8066 18.2358 43.9373 18.0597C44.0708 17.8807 44.2612 17.7216 44.5083 17.5824C44.7583 17.4403 45.0964 17.3693 45.5225 17.3693C46.0737 17.3693 46.5595 17.5071 46.9799 17.7827C47.4004 18.0582 47.7285 18.4489 47.9643 18.9545C48.2001 19.4602 48.318 20.0568 48.318 20.7443C48.318 21.4375 48.2001 22.0384 47.9643 22.5469C47.7285 23.0526 47.4018 23.4446 46.9842 23.723C46.5666 23.9986 46.085 24.1364 45.5396 24.1364C45.1191 24.1364 44.7825 24.0668 44.5297 23.9276C44.2768 23.7855 44.0822 23.625 43.9458 23.446C43.8095 23.2642 43.7044 23.1136 43.6305 22.9943H43.5453V26.4545H42.5396ZM43.5282 20.7273C43.5282 21.2216 43.6007 21.6577 43.7456 22.0355C43.8904 22.4105 44.1021 22.7045 44.3805 22.9176C44.6589 23.1278 44.9998 23.233 45.4032 23.233C45.8237 23.233 46.1745 23.1222 46.4558 22.9006C46.7399 22.6761 46.9529 22.375 47.095 21.9972C47.2399 21.6165 47.3123 21.1932 47.3123 20.7273C47.3123 20.267 47.2413 19.8523 47.0993 19.483C46.96 19.1108 46.7484 18.8168 46.4643 18.6009C46.1831 18.3821 45.8294 18.2727 45.4032 18.2727C44.9941 18.2727 44.6504 18.3764 44.372 18.5838C44.0936 18.7884 43.8833 19.0753 43.7413 19.4446C43.5993 19.8111 43.5282 20.2386 43.5282 20.7273ZM49.8521 26.4545V17.4545H50.8237V18.4943H50.943C51.0169 18.3807 51.1191 18.2358 51.2498 18.0597C51.3833 17.8807 51.5737 17.7216 51.8208 17.5824C52.0708 17.4403 52.4089 17.3693 52.835 17.3693C53.3862 17.3693 53.872 17.5071 54.2924 17.7827C54.7129 18.0582 55.041 18.4489 55.2768 18.9545C55.5126 19.4602 55.6305 20.0568 55.6305 20.7443C55.6305 21.4375 55.5126 22.0384 55.2768 22.5469C55.041 23.0526 54.7143 23.4446 54.2967 23.723C53.8791 23.9986 53.3975 24.1364 52.8521 24.1364C52.4316 24.1364 52.095 24.0668 51.8422 23.9276C51.5893 23.7855 51.3947 23.625 51.2583 23.446C51.122 23.2642 51.0169 23.1136 50.943 22.9943H50.8578V26.4545H49.8521ZM50.8407 20.7273C50.8407 21.2216 50.9132 21.6577 51.0581 22.0355C51.2029 22.4105 51.4146 22.7045 51.693 22.9176C51.9714 23.1278 52.3123 23.233 52.7157 23.233C53.1362 23.233 53.487 23.1222 53.7683 22.9006C54.0524 22.6761 54.2654 22.375 54.4075 21.9972C54.5524 21.6165 54.6248 21.1932 54.6248 20.7273C54.6248 20.267 54.5538 19.8523 54.4118 19.483C54.2725 19.1108 54.0609 18.8168 53.7768 18.6009C53.4956 18.3821 53.1419 18.2727 52.7157 18.2727C52.3066 18.2727 51.9629 18.3764 51.6845 18.5838C51.4061 18.7884 51.1958 19.0753 51.0538 19.4446C50.9118 19.8111 50.8407 20.2386 50.8407 20.7273ZM59.0907 24.1534C58.676 24.1534 58.2995 24.0753 57.9615 23.919C57.6234 23.7599 57.3549 23.5312 57.1561 23.233C56.9572 22.9318 56.8578 22.5682 56.8578 22.142C56.8578 21.767 56.9316 21.4631 57.0794 21.2301C57.2271 20.9943 57.4245 20.8097 57.6717 20.6761C57.9189 20.5426 58.1916 20.4432 58.4899 20.3778C58.791 20.3097 59.0936 20.2557 59.3975 20.2159C59.7953 20.1648 60.1177 20.1264 60.3649 20.1009C60.6149 20.0724 60.7967 20.0256 60.9103 19.9602C61.0268 19.8949 61.085 19.7812 61.085 19.6193V19.5852C61.085 19.1648 60.97 18.8381 60.7399 18.6051C60.5126 18.3722 60.1674 18.2557 59.7044 18.2557C59.2243 18.2557 58.8478 18.3608 58.5751 18.571C58.3024 18.7812 58.1106 19.0057 57.9998 19.2443L57.0453 18.9034C57.2157 18.5057 57.443 18.196 57.7271 17.9744C58.014 17.75 58.3265 17.5937 58.6646 17.5057C59.0055 17.4148 59.3407 17.3693 59.6703 17.3693C59.8805 17.3693 60.122 17.3949 60.3947 17.446C60.6703 17.4943 60.9359 17.5952 61.1916 17.7486C61.4501 17.902 61.6646 18.1335 61.835 18.4432C62.0055 18.7528 62.0907 19.1676 62.0907 19.6875V24H61.085V23.1136H61.0339C60.9657 23.2557 60.8521 23.4077 60.693 23.5696C60.5339 23.7315 60.3223 23.8693 60.0581 23.983C59.7939 24.0966 59.4714 24.1534 59.0907 24.1534ZM59.2441 23.25C59.6419 23.25 59.9771 23.1719 60.2498 23.0156C60.5254 22.8594 60.7328 22.6577 60.872 22.4105C61.014 22.1634 61.085 21.9034 61.085 21.6307V20.7102C61.0424 20.7614 60.9487 20.8082 60.8038 20.8509C60.6618 20.8906 60.497 20.9261 60.3095 20.9574C60.1248 20.9858 59.9444 21.0114 59.7683 21.0341C59.595 21.054 59.4544 21.071 59.3464 21.0852C59.085 21.1193 58.8407 21.1747 58.6135 21.2514C58.389 21.3253 58.2072 21.4375 58.068 21.5881C57.9316 21.7358 57.8635 21.9375 57.8635 22.1932C57.8635 22.5426 57.9927 22.8068 58.2512 22.9858C58.5126 23.1619 58.8436 23.25 59.2441 23.25ZM64.932 15.2727V24H63.9263V15.2727H64.932ZM67.7797 15.2727V24H66.774V15.2727H67.7797ZM69.6216 24V17.4545H70.6273V24H69.6216ZM70.133 16.3636C69.937 16.3636 69.7679 16.2969 69.6259 16.1634C69.4867 16.0298 69.4171 15.8693 69.4171 15.6818C69.4171 15.4943 69.4867 15.3338 69.6259 15.2003C69.7679 15.0668 69.937 15 70.133 15C70.329 15 70.4966 15.0668 70.6358 15.2003C70.7779 15.3338 70.8489 15.4943 70.8489 15.6818C70.8489 15.8693 70.7779 16.0298 70.6358 16.1634C70.4966 16.2969 70.329 16.3636 70.133 16.3636ZM80.9238 19.1676V20.1051H74.9238V19.1676H80.9238ZM88.1 24.1193C87.742 24.1136 87.3841 24.0455 87.0261 23.9148C86.6681 23.7841 86.3414 23.5639 86.046 23.2543C85.7505 22.9418 85.5133 22.5199 85.3343 21.9886C85.1554 21.4545 85.0659 20.7841 85.0659 19.9773C85.0659 19.2045 85.1383 18.5199 85.2832 17.9233C85.4281 17.3239 85.6383 16.8196 85.9139 16.4105C86.1895 15.9986 86.5218 15.6861 86.911 15.473C87.3031 15.2599 87.7449 15.1534 88.2363 15.1534C88.725 15.1534 89.1596 15.2514 89.5403 15.4474C89.9238 15.6406 90.2363 15.9105 90.4778 16.2571C90.7193 16.6037 90.8755 17.0028 90.9466 17.4545H89.9068C89.8102 17.0625 89.6227 16.7372 89.3443 16.4787C89.0659 16.2202 88.6966 16.0909 88.2363 16.0909C87.5602 16.0909 87.0275 16.3849 86.6383 16.973C86.252 17.5611 86.0574 18.3864 86.0545 19.4489H86.1227C86.2818 19.2074 86.4707 19.0014 86.6895 18.831C86.911 18.6577 87.1554 18.5241 87.4224 18.4304C87.6895 18.3366 87.9721 18.2898 88.2704 18.2898C88.7704 18.2898 89.2278 18.4148 89.6426 18.6648C90.0574 18.9119 90.3897 19.2543 90.6397 19.6918C90.8897 20.1264 91.0147 20.625 91.0147 21.1875C91.0147 21.7273 90.894 22.2216 90.6525 22.6705C90.411 23.1165 90.0716 23.4716 89.6341 23.7358C89.1994 23.9972 88.688 24.125 88.1 24.1193ZM88.1 23.1818C88.4579 23.1818 88.7789 23.0923 89.063 22.9134C89.35 22.7344 89.5758 22.4943 89.7406 22.1932C89.9082 21.892 89.992 21.5568 89.992 21.1875C89.992 20.8267 89.911 20.4986 89.7491 20.2031C89.59 19.9048 89.3699 19.6676 89.0886 19.4915C88.8102 19.3153 88.492 19.2273 88.1341 19.2273C87.8642 19.2273 87.6127 19.2812 87.3798 19.3892C87.1468 19.4943 86.9423 19.6392 86.7662 19.8239C86.5929 20.0085 86.4565 20.2202 86.3571 20.4588C86.2576 20.6946 86.2079 20.9432 86.2079 21.2045C86.2079 21.5511 86.2889 21.875 86.4508 22.1761C86.6156 22.4773 86.84 22.7202 87.1241 22.9048C87.411 23.0895 87.7363 23.1818 88.1 23.1818ZM92.6905 24V23.233L95.5712 20.0795C95.9093 19.7102 96.1877 19.3892 96.4064 19.1165C96.6252 18.8409 96.7871 18.5824 96.8922 18.3409C97.0002 18.0966 97.0542 17.8409 97.0542 17.5739C97.0542 17.267 96.9803 17.0014 96.8326 16.777C96.6877 16.5526 96.4888 16.3793 96.236 16.2571C95.9831 16.1349 95.699 16.0739 95.3837 16.0739C95.0485 16.0739 94.7559 16.1435 94.5059 16.2827C94.2587 16.419 94.0669 16.6108 93.9306 16.858C93.7971 17.1051 93.7303 17.3949 93.7303 17.7273H92.7246C92.7246 17.2159 92.8425 16.767 93.0783 16.3807C93.3141 15.9943 93.6351 15.6932 94.0414 15.4773C94.4505 15.2614 94.9093 15.1534 95.4178 15.1534C95.9292 15.1534 96.3823 15.2614 96.7772 15.4773C97.1721 15.6932 97.4817 15.9844 97.7061 16.3509C97.9306 16.7173 98.0428 17.125 98.0428 17.5739C98.0428 17.8949 97.9846 18.2088 97.8681 18.5156C97.7544 18.8196 97.5556 19.1591 97.2715 19.5341C96.9902 19.9062 96.5996 20.3608 96.0996 20.8977L94.1394 22.9943V23.0625H98.1962V24H92.6905ZM102.803 24.1193C102.161 24.1193 101.614 23.9446 101.162 23.5952C100.71 23.2429 100.365 22.733 100.127 22.0653C99.888 21.3949 99.7686 20.5852 99.7686 19.6364C99.7686 18.6932 99.888 17.8878 100.127 17.2202C100.368 16.5497 100.715 16.0384 101.166 15.6861C101.621 15.331 102.166 15.1534 102.803 15.1534C103.439 15.1534 103.983 15.331 104.435 15.6861C104.889 16.0384 105.236 16.5497 105.475 17.2202C105.716 17.8878 105.837 18.6932 105.837 19.6364C105.837 20.5852 105.718 21.3949 105.479 22.0653C105.24 22.733 104.895 23.2429 104.443 23.5952C103.992 23.9446 103.445 24.1193 102.803 24.1193ZM102.803 23.1818C103.439 23.1818 103.933 22.875 104.286 22.2614C104.638 21.6477 104.814 20.7727 104.814 19.6364C104.814 18.8807 104.733 18.2372 104.571 17.706C104.412 17.1747 104.182 16.7699 103.881 16.4915C103.583 16.2131 103.223 16.0739 102.803 16.0739C102.172 16.0739 101.679 16.3849 101.324 17.0071C100.969 17.6264 100.791 18.5028 100.791 19.6364C100.791 20.392 100.871 21.0341 101.03 21.5625C101.189 22.0909 101.418 22.4929 101.716 22.7685C102.017 23.044 102.379 23.1818 102.803 23.1818ZM110.303 24.1193C109.661 24.1193 109.114 23.9446 108.662 23.5952C108.21 23.2429 107.865 22.733 107.627 22.0653C107.388 21.3949 107.269 20.5852 107.269 19.6364C107.269 18.6932 107.388 17.8878 107.627 17.2202C107.868 16.5497 108.215 16.0384 108.666 15.6861C109.121 15.331 109.666 15.1534 110.303 15.1534C110.939 15.1534 111.483 15.331 111.935 15.6861C112.389 16.0384 112.736 16.5497 112.975 17.2202C113.216 17.8878 113.337 18.6932 113.337 19.6364C113.337 20.5852 113.218 21.3949 112.979 22.0653C112.74 22.733 112.395 23.2429 111.943 23.5952C111.492 23.9446 110.945 24.1193 110.303 24.1193ZM110.303 23.1818C110.939 23.1818 111.433 22.875 111.786 22.2614C112.138 21.6477 112.314 20.7727 112.314 19.6364C112.314 18.8807 112.233 18.2372 112.071 17.706C111.912 17.1747 111.682 16.7699 111.381 16.4915C111.083 16.2131 110.723 16.0739 110.303 16.0739C109.672 16.0739 109.179 16.3849 108.824 17.0071C108.469 17.6264 108.291 18.5028 108.291 19.6364C108.291 20.392 108.371 21.0341 108.53 21.5625C108.689 22.0909 108.918 22.4929 109.216 22.7685C109.517 23.044 109.879 23.1818 110.303 23.1818ZM118.024 15.2727V24H116.968V16.3807H116.916L114.786 17.7955V16.7216L116.968 15.2727H118.024ZM123.262 24.1193C122.762 24.1193 122.311 24.0199 121.911 23.821C121.51 23.6222 121.189 23.3494 120.948 23.0028C120.706 22.6562 120.574 22.2614 120.551 21.8182H121.574C121.614 22.2131 121.793 22.5398 122.111 22.7983C122.432 23.054 122.816 23.1818 123.262 23.1818C123.619 23.1818 123.938 23.098 124.216 22.9304C124.497 22.7628 124.718 22.5327 124.877 22.2401C125.039 21.9446 125.119 21.6108 125.119 21.2386C125.119 20.858 125.036 20.5185 124.868 20.2202C124.703 19.919 124.476 19.6818 124.186 19.5085C123.896 19.3352 123.566 19.2472 123.193 19.2443C122.926 19.2415 122.652 19.2827 122.371 19.3679C122.09 19.4503 121.858 19.5568 121.676 19.6875L120.688 19.5682L121.216 15.2727H125.75V16.2102H122.102L121.796 18.7841H121.847C122.026 18.642 122.25 18.5241 122.52 18.4304C122.79 18.3366 123.071 18.2898 123.364 18.2898C123.898 18.2898 124.374 18.4176 124.791 18.6733C125.212 18.9261 125.541 19.2727 125.78 19.7131C126.021 20.1534 126.142 20.6562 126.142 21.2216C126.142 21.7784 126.017 22.2756 125.767 22.7131C125.52 23.1477 125.179 23.4915 124.744 23.7443C124.31 23.9943 123.816 24.1193 123.262 24.1193Z" fill="#202020"/>
</svg>
