<svg width="208" height="298" viewBox="0 0 208 298" fill="none" xmlns="http://www.w3.org/2000/svg">
<rect x="2.37004" y="13.8569" width="203.155" height="149.626" rx="22.0671" fill="url(#paint0_linear_2039_602)" stroke="#A3B988" stroke-width="3.22934"/>
<path d="M0.755371 165.098L207.14 165.098V288.889H0.755371L0.755371 165.098Z" fill="#F6F3F3"/>
<path d="M0.755371 286.736H207.14V286.736C207.14 292.681 202.321 297.501 196.375 297.501H11.5198C5.57476 297.501 0.755371 292.681 0.755371 286.736V286.736Z" fill="url(#paint1_linear_2039_602)"/>
<path d="M0.755371 286.736H101.299C107.245 286.736 112.064 291.556 112.064 297.501V297.501H11.5198C5.57478 297.501 0.755371 292.681 0.755371 286.736V286.736Z" fill="#BB6020"/>
<rect x="22.9912" width="161.273" height="22.6054" rx="11.3027" fill="#899F61"/>
<path d="M36.7384 15.8027L36.7384 6.76059L38.8311 6.76059L38.8311 15.8027L36.7384 15.8027ZM40.9769 15.8027L40.9769 6.76059L42.7079 6.76059L46.5572 13.1418L45.6401 13.1418L49.4249 6.76059L51.1429 6.76059L51.1687 15.8027L49.2053 15.8027L49.1924 9.77033L49.5541 9.77033L46.5314 14.8468L45.5884 14.8468L42.5012 9.77033L42.9404 9.77033L42.9404 15.8027L40.9769 15.8027ZM53.314 15.8027L53.314 6.76059L55.4066 6.76059L55.4066 14.0976L59.9406 14.0976L59.9406 15.8027L53.314 15.8027ZM64.7681 15.8027L64.7681 6.76059L66.499 6.76059L70.3484 13.1418L69.4312 13.1418L73.216 6.76059L74.934 6.76059L74.9599 15.8027L72.9964 15.8027L72.9835 9.77033L73.3452 9.77033L70.3225 14.8468L69.3796 14.8468L66.2923 9.77033L66.7315 9.77033L66.7315 15.8027L64.7681 15.8027ZM81.497 15.9577C80.7823 15.9577 80.1192 15.8415 79.5078 15.609C78.905 15.3765 78.3797 15.0492 77.9319 14.6273C77.4927 14.2053 77.1482 13.7101 76.8985 13.1418C76.6573 12.5734 76.5368 11.9534 76.5368 11.2817C76.5368 10.61 76.6573 9.98993 76.8985 9.42156C77.1482 8.8532 77.497 8.35804 77.9448 7.93607C78.3926 7.5141 78.9179 7.18686 79.5207 6.95435C80.1235 6.72184 80.778 6.60558 81.4841 6.60558C82.1989 6.60558 82.8534 6.72184 83.4476 6.95435C84.0504 7.18686 84.5714 7.5141 85.0106 7.93607C85.4584 8.35804 85.8071 8.8532 86.0569 9.42156C86.3066 9.98132 86.4315 10.6013 86.4315 11.2817C86.4315 11.9534 86.3066 12.5777 86.0569 13.1547C85.8071 13.723 85.4584 14.2182 85.0106 14.6402C84.5714 15.0535 84.0504 15.3765 83.4476 15.609C82.8534 15.8415 82.2032 15.9577 81.497 15.9577ZM81.4841 14.1751C81.8889 14.1751 82.2592 14.1063 82.595 13.9685C82.9395 13.8307 83.2409 13.6326 83.4992 13.3743C83.7576 13.1159 83.9556 12.8102 84.0934 12.4571C84.2398 12.1041 84.313 11.7122 84.313 11.2817C84.313 10.8511 84.2398 10.4593 84.0934 10.1062C83.9556 9.75311 83.7576 9.4474 83.4992 9.18905C83.2495 8.9307 82.9524 8.73264 82.6079 8.59485C82.2635 8.45707 81.8889 8.38818 81.4841 8.38818C81.0794 8.38818 80.7048 8.45707 80.3603 8.59485C80.0245 8.73264 79.7274 8.9307 79.469 9.18905C79.2107 9.4474 79.0083 9.75311 78.8619 10.1062C78.7241 10.4593 78.6552 10.8511 78.6552 11.2817C78.6552 11.7036 78.7241 12.0955 78.8619 12.4571C79.0083 12.8102 79.2064 13.1159 79.4561 13.3743C79.7145 13.6326 80.0159 13.8307 80.3603 13.9685C80.7048 14.1063 81.0794 14.1751 81.4841 14.1751ZM92.3831 15.9577C91.677 15.9577 91.0182 15.8415 90.4068 15.609C89.804 15.3765 89.2787 15.0492 88.8309 14.6273C88.3917 14.2053 88.0472 13.7101 87.7975 13.1418C87.5564 12.5734 87.4358 11.9534 87.4358 11.2817C87.4358 10.61 87.5564 9.98993 87.7975 9.42156C88.0472 8.8532 88.396 8.35804 88.8438 7.93607C89.2916 7.5141 89.8169 7.18686 90.4197 6.95435C91.0225 6.72184 91.677 6.60558 92.3831 6.60558C93.0979 6.60558 93.7524 6.72184 94.3466 6.95435C94.9494 7.18686 95.4704 7.5141 95.9096 7.93607C96.3574 8.34942 96.7061 8.84028 96.9559 9.40865C97.2056 9.97701 97.3305 10.6013 97.3305 11.2817C97.3305 11.9534 97.2056 12.5777 96.9559 13.1547C96.7061 13.723 96.3574 14.2182 95.9096 14.6402C95.4704 15.0535 94.9494 15.3765 94.3466 15.609C93.7524 15.8415 93.0979 15.9577 92.3831 15.9577ZM95.3412 17.8824C94.9881 17.8824 94.6523 17.8437 94.3337 17.7662C94.0236 17.6887 93.7136 17.5638 93.4036 17.3916C93.1022 17.2193 92.7836 16.9868 92.4477 16.694C92.1205 16.4012 91.7631 16.0396 91.3756 15.609L93.5715 15.0535C93.804 15.3722 94.0193 15.6262 94.2174 15.8156C94.4155 16.0051 94.6049 16.1386 94.7858 16.2161C94.9752 16.2936 95.1733 16.3323 95.38 16.3323C95.9311 16.3323 96.422 16.1084 96.8525 15.6606L97.7826 16.7715C97.1712 17.5121 96.3574 17.8824 95.3412 17.8824ZM92.3831 14.1751C92.7879 14.1751 93.1582 14.1063 93.494 13.9685C93.8385 13.8307 94.1399 13.6326 94.3982 13.3743C94.6566 13.1159 94.8547 12.8102 94.9924 12.4571C95.1388 12.0955 95.212 11.7036 95.212 11.2817C95.212 10.8511 95.1388 10.4593 94.9924 10.1062C94.8547 9.75311 94.6566 9.4474 94.3982 9.18905C94.1399 8.9307 93.8385 8.73264 93.494 8.59485C93.1582 8.45707 92.7879 8.38818 92.3831 8.38818C91.9784 8.38818 91.6038 8.45707 91.2593 8.59485C90.9149 8.73264 90.6135 8.9307 90.3551 9.18905C90.1054 9.4474 89.9073 9.75311 89.7609 10.1062C89.6231 10.4593 89.5542 10.8511 89.5542 11.2817C89.5542 11.7036 89.6231 12.0955 89.7609 12.4571C89.9073 12.8102 90.1054 13.1159 90.3551 13.3743C90.6135 13.6326 90.9149 13.8307 91.2593 13.9685C91.6038 14.1063 91.9784 14.1751 92.3831 14.1751ZM102.161 12.9738L102.161 11.3592L105.817 11.3592L105.817 12.9738L102.161 12.9738ZM113.708 15.9577C113.08 15.9577 112.455 15.8759 111.835 15.7123C111.224 15.5401 110.699 15.299 110.259 14.9889L111.086 13.3872C111.431 13.6369 111.827 13.835 112.275 13.9814C112.731 14.1278 113.192 14.201 113.657 14.201C114.182 14.201 114.595 14.0976 114.897 13.891C115.198 13.6843 115.349 13.3958 115.349 13.0255C115.349 12.793 115.289 12.5863 115.168 12.4055C115.047 12.2246 114.832 12.0868 114.522 11.9921C114.221 11.8974 113.794 11.85 113.243 11.85L110.931 11.85L111.396 6.76059L116.912 6.76059L116.912 8.43984L112.145 8.43984L113.23 7.48396L112.907 11.1137L111.822 10.1579L113.734 10.1579C114.63 10.1579 115.349 10.2827 115.891 10.5325C116.443 10.7736 116.843 11.1051 117.093 11.5271C117.342 11.9491 117.467 12.427 117.467 12.9609C117.467 13.4948 117.334 13.99 117.067 14.4464C116.8 14.8942 116.387 15.2602 115.827 15.5444C115.276 15.82 114.57 15.9577 113.708 15.9577ZM122.192 15.9577C121.451 15.9577 120.788 15.7769 120.202 15.4152C119.617 15.0449 119.156 14.511 118.82 13.8135C118.484 13.1159 118.316 12.272 118.316 11.2817C118.316 10.2913 118.484 9.4474 118.82 8.74986C119.156 8.05232 119.617 7.52271 120.202 7.16103C120.788 6.79073 121.451 6.60558 122.192 6.60558C122.941 6.60558 123.604 6.79073 124.181 7.16103C124.766 7.52271 125.227 8.05232 125.563 8.74986C125.899 9.4474 126.067 10.2913 126.067 11.2817C126.067 12.272 125.899 13.1159 125.563 13.8135C125.227 14.511 124.766 15.0449 124.181 15.4152C123.604 15.7769 122.941 15.9577 122.192 15.9577ZM122.192 14.1881C122.545 14.1881 122.85 14.089 123.109 13.891C123.376 13.6929 123.582 13.3786 123.729 12.948C123.884 12.5174 123.961 11.962 123.961 11.2817C123.961 10.6013 123.884 10.0459 123.729 9.61532C123.582 9.18475 123.376 8.87042 123.109 8.67236C122.85 8.47429 122.545 8.37526 122.192 8.37526C121.847 8.37526 121.541 8.47429 121.274 8.67236C121.016 8.87042 120.809 9.18475 120.654 9.61532C120.508 10.0459 120.435 10.6013 120.435 11.2817C120.435 11.962 120.508 12.5174 120.654 12.948C120.809 13.3786 121.016 13.6929 121.274 13.891C121.541 14.089 121.847 14.1881 122.192 14.1881ZM130.959 15.9577C130.218 15.9577 129.555 15.7769 128.969 15.4152C128.384 15.0449 127.923 14.511 127.587 13.8135C127.251 13.1159 127.083 12.272 127.083 11.2817C127.083 10.2913 127.251 9.4474 127.587 8.74986C127.923 8.05232 128.384 7.52271 128.969 7.16103C129.555 6.79073 130.218 6.60558 130.959 6.60558C131.708 6.60558 132.371 6.79073 132.948 7.16103C133.534 7.52271 133.994 8.05232 134.33 8.74986C134.666 9.4474 134.834 10.2913 134.834 11.2817C134.834 12.272 134.666 13.1159 134.33 13.8135C133.994 14.511 133.534 15.0449 132.948 15.4152C132.371 15.7769 131.708 15.9577 130.959 15.9577ZM130.959 14.1881C131.312 14.1881 131.617 14.089 131.876 13.891C132.143 13.6929 132.349 13.3786 132.496 12.948C132.651 12.5174 132.728 11.962 132.728 11.2817C132.728 10.6013 132.651 10.0459 132.496 9.61532C132.349 9.18475 132.143 8.87042 131.876 8.67236C131.617 8.47429 131.312 8.37526 130.959 8.37526C130.614 8.37526 130.308 8.47429 130.042 8.67236C129.783 8.87042 129.577 9.18475 129.422 9.61532C129.275 10.0459 129.202 10.6013 129.202 11.2817C129.202 11.962 129.275 12.5174 129.422 12.948C129.577 13.3786 129.783 13.6929 130.042 13.891C130.308 14.089 130.614 14.1881 130.959 14.1881ZM139.726 15.9577C138.985 15.9577 138.322 15.7769 137.737 15.4152C137.151 15.0449 136.69 14.511 136.354 13.8135C136.019 13.1159 135.851 12.272 135.851 11.2817C135.851 10.2913 136.019 9.4474 136.354 8.74986C136.69 8.05232 137.151 7.52271 137.737 7.16103C138.322 6.79073 138.985 6.60558 139.726 6.60558C140.475 6.60558 141.138 6.79073 141.715 7.16103C142.301 7.52271 142.761 8.05232 143.097 8.74986C143.433 9.4474 143.601 10.2913 143.601 11.2817C143.601 12.272 143.433 13.1159 143.097 13.8135C142.761 14.511 142.301 15.0449 141.715 15.4152C141.138 15.7769 140.475 15.9577 139.726 15.9577ZM139.726 14.1881C140.079 14.1881 140.385 14.089 140.643 13.891C140.91 13.6929 141.117 13.3786 141.263 12.948C141.418 12.5174 141.495 11.962 141.495 11.2817C141.495 10.6013 141.418 10.0459 141.263 9.61532C141.117 9.18474 140.91 8.87042 140.643 8.67236C140.385 8.47429 140.079 8.37526 139.726 8.37526C139.381 8.37526 139.076 8.47429 138.809 8.67236C138.55 8.87042 138.344 9.18474 138.189 9.61532C138.042 10.0459 137.969 10.6013 137.969 11.2817C137.969 11.962 138.042 12.5174 138.189 12.948C138.344 13.3786 138.55 13.6929 138.809 13.891C139.076 14.089 139.381 14.1881 139.726 14.1881ZM148.844 15.8027L148.844 6.76059L152.758 6.76059C153.568 6.76059 154.265 6.89407 154.851 7.16103C155.437 7.41937 155.889 7.79398 156.207 8.28484C156.526 8.7757 156.685 9.36128 156.685 10.0416C156.685 10.7133 156.526 11.2946 156.207 11.7854C155.889 12.2763 155.437 12.6552 154.851 12.9222C154.265 13.1805 153.568 13.3097 152.758 13.3097L150.007 13.3097L150.937 12.3667L150.937 15.8027L148.844 15.8027ZM150.937 12.5992L150.007 11.6046L152.642 11.6046C153.288 11.6046 153.77 11.4668 154.089 11.1912C154.407 10.9157 154.567 10.5325 154.567 10.0416C154.567 9.54213 154.407 9.1546 154.089 8.87903C153.77 8.60346 153.288 8.46568 152.642 8.46568L150.007 8.46568L150.937 7.47104L150.937 12.5992ZM161.383 15.9061C160.634 15.9061 159.966 15.7554 159.381 15.454C158.795 15.1439 158.334 14.7177 157.999 14.1751C157.671 13.6326 157.508 13.0169 157.508 12.328C157.508 11.6304 157.671 11.0147 157.999 10.4808C158.334 9.93826 158.795 9.51629 159.381 9.21489C159.966 8.90487 160.634 8.74986 161.383 8.74986C162.115 8.74986 162.752 8.90487 163.295 9.21488C163.837 9.51629 164.238 9.95117 164.496 10.5195L162.933 11.3592C162.752 11.0319 162.524 10.7908 162.248 10.6358C161.981 10.4808 161.689 10.4033 161.37 10.4033C161.026 10.4033 160.716 10.4808 160.44 10.6358C160.164 10.7908 159.945 11.0104 159.781 11.2946C159.626 11.5788 159.549 11.9232 159.549 12.328C159.549 12.7327 159.626 13.0772 159.781 13.3614C159.945 13.6455 160.164 13.8651 160.44 14.0201C160.716 14.1751 161.026 14.2527 161.37 14.2527C161.689 14.2527 161.981 14.1795 162.248 14.0331C162.524 13.878 162.752 13.6326 162.933 13.2968L164.496 14.1493C164.238 14.7091 163.837 15.1439 163.295 15.454C162.752 15.7554 162.115 15.9061 161.383 15.9061ZM167.994 15.9061C167.4 15.9061 166.827 15.8372 166.276 15.6994C165.734 15.553 165.303 15.3722 164.985 15.1569L165.656 13.7101C165.975 13.9082 166.349 14.0718 166.78 14.201C167.219 14.3215 167.65 14.3818 168.072 14.3818C168.537 14.3818 168.864 14.3258 169.054 14.2139C169.252 14.1019 169.351 13.9469 169.351 13.7489C169.351 13.5853 169.273 13.4647 169.118 13.3872C168.972 13.3011 168.774 13.2365 168.524 13.1934C168.274 13.1504 167.999 13.1073 167.697 13.0643C167.404 13.0212 167.107 12.9652 166.806 12.8963C166.505 12.8188 166.229 12.7069 165.979 12.5605C165.729 12.4141 165.527 12.216 165.372 11.9663C165.226 11.7165 165.152 11.3936 165.152 10.9975C165.152 10.5583 165.277 10.1708 165.527 9.83492C165.785 9.49907 166.156 9.23641 166.638 9.04696C167.12 8.84889 167.697 8.74986 168.369 8.74986C168.843 8.74986 169.325 8.80153 169.816 8.90487C170.307 9.00821 170.716 9.15891 171.043 9.35698L170.371 10.7908C170.035 10.5927 169.695 10.4593 169.351 10.3904C169.015 10.3129 168.688 10.2741 168.369 10.2741C167.921 10.2741 167.594 10.3344 167.387 10.455C167.181 10.5755 167.077 10.7305 167.077 10.92C167.077 11.0922 167.15 11.2214 167.297 11.3075C167.452 11.3936 167.654 11.4625 167.904 11.5142C168.154 11.5658 168.425 11.6132 168.718 11.6563C169.019 11.6907 169.32 11.7467 169.622 11.8242C169.923 11.9017 170.195 12.0136 170.436 12.16C170.685 12.2978 170.888 12.4916 171.043 12.7413C171.198 12.9824 171.275 13.3011 171.275 13.6972C171.275 14.1278 171.146 14.511 170.888 14.8468C170.629 15.1741 170.255 15.4324 169.764 15.6219C169.282 15.8113 168.692 15.9061 167.994 15.9061Z" fill="white"/>
<rect y="137.062" width="207.187" height="40.3749" fill="#39422F"/>
<rect y="137.062" width="207.187" height="40.3749" stroke="white"/>
<path d="M36.9501 166.756C35.4272 166.756 34.0636 166.384 32.8595 165.641C31.6553 164.879 30.7079 163.781 30.0173 162.347C29.3267 160.913 28.9814 159.177 28.9814 157.141C28.9814 155.104 29.3267 153.369 30.0173 151.934C30.7079 150.5 31.6553 149.411 32.8595 148.667C34.0636 147.906 35.4272 147.525 36.9501 147.525C38.4907 147.525 39.8542 147.906 41.0407 148.667C42.2449 149.411 43.1923 150.5 43.8829 151.934C44.5735 153.369 44.9188 155.104 44.9188 157.141C44.9188 159.177 44.5735 160.913 43.8829 162.347C43.1923 163.781 42.2449 164.879 41.0407 165.641C39.8542 166.384 38.4907 166.756 36.9501 166.756ZM36.9501 163.117C37.6761 163.117 38.3048 162.914 38.836 162.506C39.385 162.099 39.81 161.453 40.111 160.567C40.4298 159.682 40.5891 158.54 40.5891 157.141C40.5891 155.742 40.4298 154.6 40.111 153.714C39.81 152.829 39.385 152.182 38.836 151.775C38.3048 151.368 37.6761 151.164 36.9501 151.164C36.2418 151.164 35.6131 151.368 35.0642 151.775C34.5329 152.182 34.1079 152.829 33.7892 153.714C33.4881 154.6 33.3376 155.742 33.3376 157.141C33.3376 158.54 33.4881 159.682 33.7892 160.567C34.1079 161.453 34.5329 162.099 35.0642 162.506C35.6131 162.914 36.2418 163.117 36.9501 163.117ZM53.3314 166.756C52.0387 166.756 50.7549 166.588 49.4799 166.252C48.2226 165.897 47.1424 165.402 46.2393 164.764L47.9393 161.47C48.6476 161.984 49.4622 162.391 50.383 162.692C51.3215 162.993 52.2689 163.144 53.2252 163.144C54.3054 163.144 55.1554 162.931 55.7752 162.506C56.395 162.081 56.7049 161.488 56.7049 160.727C56.7049 160.248 56.5809 159.823 56.333 159.452C56.0851 159.08 55.6424 158.796 55.0049 158.602C54.3851 158.407 53.5085 158.309 52.3752 158.309L47.6205 158.309L48.5768 147.844L59.9189 147.844L59.9189 151.297L50.1174 151.297L52.3486 149.331L51.6846 156.795L49.4533 154.83L53.3846 154.83C55.2262 154.83 56.7049 155.086 57.8205 155.6C58.9538 156.096 59.7772 156.778 60.2908 157.645C60.8043 158.513 61.0611 159.496 61.0611 160.594C61.0611 161.692 60.7866 162.71 60.2377 163.648C59.6887 164.569 58.8387 165.322 57.6877 165.906C56.5543 166.473 55.1023 166.756 53.3314 166.756ZM63.1523 160.62L63.1523 157.3L70.6694 157.3L70.6694 160.62L63.1523 160.62ZM75.3513 166.437L75.3513 149.438L77.2106 151.297L71.6325 151.297L71.6325 147.844L79.6544 147.844L79.6544 166.437L75.3513 166.437ZM90.8531 166.756C89.3302 166.756 87.9667 166.384 86.7625 165.641C85.5584 164.879 84.611 163.781 83.9203 162.347C83.2297 160.913 82.8844 159.177 82.8844 157.141C82.8844 155.104 83.2297 153.369 83.9203 151.934C84.611 150.5 85.5584 149.411 86.7625 148.667C87.9667 147.906 89.3302 147.525 90.8531 147.525C92.3938 147.525 93.7573 147.906 94.9438 148.667C96.1479 149.411 97.0953 150.5 97.7859 151.934C98.4766 153.369 98.8219 155.104 98.8219 157.141C98.8219 159.177 98.4766 160.913 97.7859 162.347C97.0953 163.781 96.1479 164.879 94.9438 165.641C93.7573 166.384 92.3938 166.756 90.8531 166.756ZM90.8531 163.117C91.5792 163.117 92.2078 162.914 92.7391 162.506C93.288 162.099 93.713 161.453 94.0141 160.567C94.3328 159.682 94.4922 158.54 94.4922 157.141C94.4922 155.742 94.3328 154.6 94.0141 153.714C93.713 152.829 93.288 152.182 92.7391 151.775C92.2078 151.368 91.5792 151.164 90.8531 151.164C90.1448 151.164 89.5162 151.368 88.9672 151.775C88.436 152.182 88.011 152.829 87.6922 153.714C87.3912 154.6 87.2406 155.742 87.2406 157.141C87.2406 158.54 87.3912 159.682 87.6922 160.567C88.011 161.453 88.436 162.099 88.9672 162.506C89.5162 162.914 90.1448 163.117 90.8531 163.117ZM108.881 166.756C107.358 166.756 105.995 166.384 104.791 165.641C103.587 164.879 102.639 163.781 101.949 162.347C101.258 160.913 100.913 159.177 100.913 157.141C100.913 155.104 101.258 153.369 101.949 151.934C102.639 150.5 103.587 149.411 104.791 148.667C105.995 147.906 107.358 147.525 108.881 147.525C110.422 147.525 111.786 147.906 112.972 148.667C114.176 149.411 115.124 150.5 115.814 151.934C116.505 153.369 116.85 155.104 116.85 157.141C116.85 159.177 116.505 160.913 115.814 162.347C115.124 163.781 114.176 164.879 112.972 165.641C111.786 166.384 110.422 166.756 108.881 166.756ZM108.881 163.117C109.607 163.117 110.236 162.914 110.767 162.506C111.316 162.099 111.741 161.453 112.042 160.567C112.361 159.682 112.52 158.54 112.52 157.141C112.52 155.742 112.361 154.6 112.042 153.714C111.741 152.829 111.316 152.182 110.767 151.775C110.236 151.368 109.607 151.164 108.881 151.164C108.173 151.164 107.544 151.368 106.995 151.775C106.464 152.182 106.039 152.829 105.72 153.714C105.419 154.6 105.269 155.742 105.269 157.141C105.269 158.54 105.419 159.682 105.72 160.567C106.039 161.453 106.464 162.099 106.995 162.506C107.544 162.914 108.173 163.117 108.881 163.117ZM126.91 166.756C125.387 166.756 124.023 166.384 122.819 165.641C121.615 164.879 120.667 163.781 119.977 162.347C119.286 160.913 118.941 159.177 118.941 157.141C118.941 155.104 119.286 153.369 119.977 151.934C120.667 150.5 121.615 149.411 122.819 148.667C124.023 147.906 125.387 147.525 126.91 147.525C128.45 147.525 129.814 147.906 131 148.667C132.204 149.411 133.152 150.5 133.842 151.934C134.533 153.369 134.878 155.104 134.878 157.141C134.878 159.177 134.533 160.913 133.842 162.347C133.152 163.781 132.204 164.879 131 165.641C129.814 166.384 128.45 166.756 126.91 166.756ZM126.91 163.117C127.636 163.117 128.264 162.914 128.795 162.506C129.344 162.099 129.769 161.453 130.07 160.567C130.389 159.682 130.549 158.54 130.549 157.141C130.549 155.742 130.389 154.6 130.07 153.714C129.769 152.829 129.344 152.182 128.795 151.775C128.264 151.368 127.636 151.164 126.91 151.164C126.201 151.164 125.573 151.368 125.024 151.775C124.492 152.182 124.067 152.829 123.749 153.714C123.448 154.6 123.297 155.742 123.297 157.141C123.297 158.54 123.448 159.682 123.749 160.567C124.067 161.453 124.492 162.099 125.024 162.506C125.573 162.914 126.201 163.117 126.91 163.117ZM163.67 151.934C164.803 151.934 165.804 152.165 166.671 152.625C167.557 153.068 168.247 153.758 168.743 154.697C169.257 155.618 169.513 156.804 169.513 158.256L169.513 166.437L165.37 166.437L165.37 158.894C165.37 157.743 165.131 156.893 164.652 156.344C164.174 155.795 163.501 155.52 162.634 155.52C162.032 155.52 161.492 155.662 161.013 155.945C160.535 156.211 160.163 156.618 159.898 157.167C159.632 157.716 159.499 158.416 159.499 159.266L159.499 166.437L155.356 166.437L155.356 158.894C155.356 157.743 155.117 156.893 154.638 156.344C154.178 155.795 153.514 155.52 152.646 155.52C152.044 155.52 151.504 155.662 151.026 155.945C150.548 156.211 150.176 156.618 149.91 157.167C149.645 157.716 149.512 158.416 149.512 159.266L149.512 166.437L145.368 166.437L145.368 152.147L149.326 152.147L149.326 156.052L148.582 154.909C149.078 153.935 149.778 153.201 150.681 152.705C151.601 152.191 152.646 151.934 153.815 151.934C155.125 151.934 156.268 152.271 157.242 152.944C158.233 153.599 158.888 154.608 159.207 155.972L157.746 155.573C158.224 154.458 158.986 153.572 160.031 152.917C161.093 152.262 162.306 151.934 163.67 151.934ZM173.228 166.437L173.228 146.728L177.371 146.728L177.371 166.437L173.228 166.437Z" fill="#F6F4F3"/>
<path d="M28.2608 200V190.897H29.0541L33.2157 197.997H32.7995L36.9221 190.897H37.7154V200H36.7921V192.34H37.0131L33.2157 198.843H32.7605L28.9371 192.34H29.1841V200H28.2608ZM44.7651 200V198.491L44.7261 198.244V195.721C44.7261 195.14 44.5614 194.694 44.2319 194.382C43.9111 194.07 43.4299 193.914 42.7884 193.914C42.3462 193.914 41.9257 193.987 41.5269 194.135C41.1281 194.282 40.7899 194.477 40.5125 194.72L40.0963 194.031C40.4431 193.736 40.8593 193.511 41.3448 193.354C41.8303 193.19 42.3419 193.107 42.8794 193.107C43.7637 193.107 44.4443 193.328 44.9212 193.771C45.4067 194.204 45.6494 194.867 45.6494 195.76V200H44.7651ZM42.4112 200.065C41.8997 200.065 41.4532 199.983 41.0717 199.818C40.6989 199.645 40.4128 199.41 40.2134 199.116C40.014 198.812 39.9143 198.465 39.9143 198.075C39.9143 197.72 39.9966 197.399 40.1614 197.113C40.3348 196.818 40.6122 196.584 40.9937 196.411C41.3838 196.229 41.904 196.138 42.5543 196.138H44.9082V196.827H42.5803C41.9214 196.827 41.4619 196.944 41.2018 197.178C40.9503 197.412 40.8246 197.702 40.8246 198.049C40.8246 198.439 40.9763 198.752 41.2798 198.986C41.5832 199.22 42.0081 199.337 42.5543 199.337C43.0745 199.337 43.521 199.22 43.8938 198.986C44.2753 198.743 44.5527 198.396 44.7261 197.945L44.9342 198.582C44.7608 199.033 44.4573 199.393 44.0238 199.662C43.599 199.931 43.0615 200.065 42.4112 200.065ZM47.117 200L50.0041 196.255L49.9911 196.71L47.247 193.172H48.2874L50.5373 196.099L50.1471 196.086L52.397 193.172H53.4114L50.6413 196.749L50.6543 196.255L53.5674 200H52.514L50.1341 196.879L50.4983 196.931L48.1574 200H47.117ZM55.1044 200V193.172H56.0277V200H55.1044ZM55.5725 191.664C55.3818 191.664 55.2214 191.599 55.0914 191.469C54.9613 191.339 54.8963 191.183 54.8963 191.001C54.8963 190.818 54.9613 190.667 55.0914 190.545C55.2214 190.415 55.3818 190.35 55.5725 190.35C55.7633 190.35 55.9237 190.411 56.0537 190.532C56.1838 190.654 56.2488 190.805 56.2488 190.988C56.2488 191.178 56.1838 191.339 56.0537 191.469C55.9323 191.599 55.772 191.664 55.5725 191.664ZM67.1282 193.107C67.683 193.107 68.1642 193.216 68.5717 193.432C68.9879 193.641 69.3087 193.961 69.5341 194.395C69.7682 194.828 69.8852 195.375 69.8852 196.033V200H68.9619V196.125C68.9619 195.405 68.7885 194.863 68.4417 194.499C68.1035 194.126 67.6224 193.94 66.9981 193.94C66.5299 193.94 66.1224 194.039 65.7757 194.239C65.4375 194.43 65.1731 194.711 64.9823 195.084C64.8003 195.448 64.7092 195.89 64.7092 196.411V200H63.7859V196.125C63.7859 195.405 63.6125 194.863 63.2657 194.499C62.9189 194.126 62.4334 193.94 61.8091 193.94C61.3496 193.94 60.9465 194.039 60.5997 194.239C60.2529 194.43 59.9841 194.711 59.7934 195.084C59.6113 195.448 59.5203 195.89 59.5203 196.411V200H58.5969V193.172H59.4812V195.019L59.3382 194.694C59.5463 194.2 59.8801 193.814 60.3396 193.537C60.8078 193.25 61.3583 193.107 61.9912 193.107C62.6588 193.107 63.2267 193.276 63.6949 193.615C64.163 193.944 64.4665 194.443 64.6052 195.11L64.2411 194.967C64.4405 194.412 64.7916 193.966 65.2945 193.628C65.806 193.281 66.4172 193.107 67.1282 193.107ZM75.2114 200.065C74.6305 200.065 74.1233 199.957 73.6898 199.74C73.2563 199.523 72.9182 199.198 72.6754 198.765C72.4413 198.331 72.3243 197.789 72.3243 197.139V193.172H73.2476V197.035C73.2476 197.763 73.4253 198.314 73.7808 198.686C74.145 199.051 74.6521 199.233 75.3024 199.233C75.7792 199.233 76.1911 199.137 76.5379 198.947C76.8933 198.747 77.1621 198.461 77.3442 198.088C77.5349 197.715 77.6303 197.269 77.6303 196.749V193.172H78.5536V200H77.6693V198.127L77.8124 198.465C77.5956 198.968 77.2575 199.363 76.798 199.649C76.3471 199.926 75.8183 200.065 75.2114 200.065ZM89.6582 193.107C90.2131 193.107 90.6943 193.216 91.1018 193.432C91.518 193.641 91.8387 193.961 92.0642 194.395C92.2983 194.828 92.4153 195.375 92.4153 196.033V200H91.4919V196.125C91.4919 195.405 91.3185 194.863 90.9718 194.499C90.6336 194.126 90.1524 193.94 89.5282 193.94C89.06 193.94 88.6525 194.039 88.3057 194.239C87.9676 194.43 87.7032 194.711 87.5124 195.084C87.3304 195.448 87.2393 195.89 87.2393 196.411V200H86.316V196.125C86.316 195.405 86.1426 194.863 85.7958 194.499C85.449 194.126 84.9635 193.94 84.3392 193.94C83.8797 193.94 83.4766 194.039 83.1298 194.239C82.783 194.43 82.5142 194.711 82.3234 195.084C82.1414 195.448 82.0503 195.89 82.0503 196.411V200H81.127V193.172H82.0113V195.019L81.8683 194.694C82.0764 194.2 82.4101 193.814 82.8697 193.537C83.3378 193.25 83.8884 193.107 84.5213 193.107C85.1889 193.107 85.7568 193.276 86.2249 193.615C86.6931 193.944 86.9966 194.443 87.1353 195.11L86.7711 194.967C86.9706 194.412 87.3217 193.966 87.8245 193.628C88.3361 193.281 88.9473 193.107 89.6582 193.107ZM102.472 200.078C101.787 200.078 101.154 199.965 100.573 199.74C99.992 199.506 99.4891 199.181 99.0643 198.765C98.6395 198.348 98.3057 197.859 98.0629 197.295C97.8288 196.731 97.7118 196.116 97.7118 195.448C97.7118 194.781 97.8288 194.165 98.0629 193.602C98.3057 193.038 98.6395 192.548 99.0643 192.132C99.4978 191.716 100.005 191.395 100.586 191.17C101.167 190.936 101.8 190.818 102.485 190.818C103.144 190.818 103.763 190.931 104.344 191.157C104.925 191.373 105.415 191.703 105.814 192.145L105.203 192.756C104.83 192.375 104.418 192.102 103.967 191.937C103.516 191.764 103.031 191.677 102.511 191.677C101.964 191.677 101.457 191.772 100.989 191.963C100.521 192.145 100.113 192.409 99.7666 192.756C99.4198 193.094 99.1467 193.493 98.9473 193.953C98.7565 194.404 98.6611 194.902 98.6611 195.448C98.6611 195.994 98.7565 196.497 98.9473 196.957C99.1467 197.408 99.4198 197.806 99.7666 198.153C100.113 198.491 100.521 198.756 100.989 198.947C101.457 199.129 101.964 199.22 102.511 199.22C103.031 199.22 103.516 199.133 103.967 198.96C104.418 198.786 104.83 198.509 105.203 198.127L105.814 198.739C105.415 199.181 104.925 199.514 104.344 199.74C103.763 199.965 103.139 200.078 102.472 200.078ZM111.847 200V198.491L111.808 198.244V195.721C111.808 195.14 111.644 194.694 111.314 194.382C110.993 194.07 110.512 193.914 109.871 193.914C109.428 193.914 109.008 193.987 108.609 194.135C108.21 194.282 107.872 194.477 107.595 194.72L107.179 194.031C107.525 193.736 107.942 193.511 108.427 193.354C108.913 193.19 109.424 193.107 109.962 193.107C110.846 193.107 111.527 193.328 112.003 193.771C112.489 194.204 112.732 194.867 112.732 195.76V200H111.847ZM109.493 200.065C108.982 200.065 108.535 199.983 108.154 199.818C107.781 199.645 107.495 199.41 107.296 199.116C107.096 198.812 106.997 198.465 106.997 198.075C106.997 197.72 107.079 197.399 107.244 197.113C107.417 196.818 107.694 196.584 108.076 196.411C108.466 196.229 108.986 196.138 109.637 196.138H111.99V196.827H109.663C109.004 196.827 108.544 196.944 108.284 197.178C108.033 197.412 107.907 197.702 107.907 198.049C107.907 198.439 108.059 198.752 108.362 198.986C108.665 199.22 109.09 199.337 109.637 199.337C110.157 199.337 110.603 199.22 110.976 198.986C111.358 198.743 111.635 198.396 111.808 197.945L112.016 198.582C111.843 199.033 111.54 199.393 111.106 199.662C110.681 199.931 110.144 200.065 109.493 200.065ZM118.764 200.065C118.174 200.065 117.641 199.931 117.164 199.662C116.688 199.384 116.306 198.99 116.02 198.478C115.742 197.958 115.604 197.325 115.604 196.58C115.604 195.834 115.742 195.206 116.02 194.694C116.297 194.174 116.675 193.779 117.151 193.511C117.628 193.242 118.166 193.107 118.764 193.107C119.414 193.107 119.995 193.255 120.507 193.55C121.027 193.836 121.434 194.243 121.729 194.772C122.024 195.292 122.171 195.895 122.171 196.58C122.171 197.273 122.024 197.88 121.729 198.4C121.434 198.921 121.027 199.328 120.507 199.623C119.995 199.918 119.414 200.065 118.764 200.065ZM115.24 202.523V193.172H116.124V195.227L116.033 196.593L116.163 197.971V202.523H115.24ZM118.699 199.246C119.184 199.246 119.618 199.137 119.999 198.921C120.381 198.695 120.684 198.383 120.91 197.984C121.135 197.577 121.248 197.109 121.248 196.58C121.248 196.051 121.135 195.587 120.91 195.188C120.684 194.789 120.381 194.477 119.999 194.252C119.618 194.026 119.184 193.914 118.699 193.914C118.213 193.914 117.776 194.026 117.385 194.252C117.004 194.477 116.701 194.789 116.475 195.188C116.258 195.587 116.15 196.051 116.15 196.58C116.15 197.109 116.258 197.577 116.475 197.984C116.701 198.383 117.004 198.695 117.385 198.921C117.776 199.137 118.213 199.246 118.699 199.246ZM128.294 200V198.491L128.255 198.244V195.721C128.255 195.14 128.09 194.694 127.761 194.382C127.44 194.07 126.959 193.914 126.317 193.914C125.875 193.914 125.455 193.987 125.056 194.135C124.657 194.282 124.319 194.477 124.041 194.72L123.625 194.031C123.972 193.736 124.388 193.511 124.874 193.354C125.359 193.19 125.871 193.107 126.408 193.107C127.293 193.107 127.973 193.328 128.45 193.771C128.936 194.204 129.178 194.867 129.178 195.76V200H128.294ZM125.94 200.065C125.429 200.065 124.982 199.983 124.601 199.818C124.228 199.645 123.942 199.41 123.742 199.116C123.543 198.812 123.443 198.465 123.443 198.075C123.443 197.72 123.526 197.399 123.69 197.113C123.864 196.818 124.141 196.584 124.523 196.411C124.913 196.229 125.433 196.138 126.083 196.138H128.437V196.827H126.109C125.45 196.827 124.991 196.944 124.731 197.178C124.479 197.412 124.354 197.702 124.354 198.049C124.354 198.439 124.505 198.752 124.809 198.986C125.112 199.22 125.537 199.337 126.083 199.337C126.603 199.337 127.05 199.22 127.423 198.986C127.804 198.743 128.082 198.396 128.255 197.945L128.463 198.582C128.29 199.033 127.986 199.393 127.553 199.662C127.128 199.931 126.59 200.065 125.94 200.065ZM134.521 200.065C133.845 200.065 133.238 199.918 132.701 199.623C132.172 199.319 131.756 198.908 131.452 198.387C131.149 197.859 130.997 197.256 130.997 196.58C130.997 195.895 131.149 195.292 131.452 194.772C131.756 194.252 132.172 193.844 132.701 193.55C133.238 193.255 133.845 193.107 134.521 193.107C135.102 193.107 135.627 193.22 136.095 193.445C136.563 193.671 136.932 194.009 137.2 194.46L136.511 194.928C136.277 194.581 135.987 194.326 135.64 194.161C135.293 193.996 134.916 193.914 134.508 193.914C134.023 193.914 133.585 194.026 133.195 194.252C132.805 194.469 132.497 194.776 132.272 195.175C132.046 195.574 131.933 196.042 131.933 196.58C131.933 197.117 132.046 197.585 132.272 197.984C132.497 198.383 132.805 198.695 133.195 198.921C133.585 199.137 134.023 199.246 134.508 199.246C134.916 199.246 135.293 199.163 135.64 198.999C135.987 198.834 136.277 198.582 136.511 198.244L137.2 198.713C136.932 199.155 136.563 199.493 136.095 199.727C135.627 199.952 135.102 200.065 134.521 200.065ZM138.913 200V193.172H139.836V200H138.913ZM139.381 191.664C139.19 191.664 139.03 191.599 138.9 191.469C138.77 191.339 138.705 191.183 138.705 191.001C138.705 190.818 138.77 190.667 138.9 190.545C139.03 190.415 139.19 190.35 139.381 190.35C139.572 190.35 139.732 190.411 139.862 190.532C139.992 190.654 140.057 190.805 140.057 190.988C140.057 191.178 139.992 191.339 139.862 191.469C139.741 191.599 139.58 191.664 139.381 191.664ZM144.564 200.065C143.923 200.065 143.428 199.892 143.082 199.545C142.735 199.198 142.561 198.708 142.561 198.075V191.664H143.485V198.023C143.485 198.422 143.584 198.73 143.784 198.947C143.992 199.163 144.287 199.272 144.668 199.272C145.076 199.272 145.414 199.155 145.683 198.921L146.008 199.584C145.826 199.749 145.604 199.87 145.344 199.948C145.093 200.026 144.833 200.065 144.564 200.065ZM141.339 193.94V193.172H145.565V193.94H141.339ZM147.614 202.588C147.293 202.588 146.985 202.536 146.69 202.432C146.404 202.328 146.157 202.172 145.949 201.964L146.378 201.274C146.551 201.439 146.738 201.565 146.937 201.652C147.145 201.747 147.375 201.795 147.627 201.795C147.93 201.795 148.19 201.708 148.407 201.535C148.632 201.37 148.845 201.075 149.044 200.65L149.486 199.649L149.59 199.506L152.399 193.172H153.31L149.889 200.819C149.699 201.261 149.486 201.613 149.252 201.873C149.027 202.133 148.78 202.315 148.511 202.419C148.242 202.532 147.943 202.588 147.614 202.588ZM149.434 200.195L146.287 193.172H147.249L150.032 199.441L149.434 200.195ZM158.209 200V190.897H159.171V200H158.209ZM162.133 200V190.897H162.926L167.088 197.997H166.672L170.794 190.897H171.588V200H170.664V192.34H170.886L167.088 198.843H166.633L162.809 192.34H163.057V200H162.133ZM174.554 200V190.897H175.516V199.168H180.614V200H174.554ZM22.3082 219.078C21.6233 219.078 20.9903 218.965 20.4095 218.74C19.8286 218.506 19.3257 218.181 18.9009 217.765C18.4761 217.348 18.1423 216.859 17.8995 216.295C17.6654 215.731 17.5484 215.116 17.5484 214.448C17.5484 213.781 17.6654 213.165 17.8995 212.602C18.1423 212.038 18.4761 211.548 18.9009 211.132C19.3344 210.716 19.8416 210.395 20.4225 210.17C21.0034 209.936 21.6363 209.818 22.3212 209.818C22.9801 209.818 23.6 209.931 24.1809 210.157C24.7618 210.373 25.2516 210.703 25.6505 211.145L25.0392 211.756C24.6664 211.375 24.2546 211.102 23.8038 210.937C23.3529 210.764 22.8674 210.677 22.3472 210.677C21.801 210.677 21.2938 210.772 20.8256 210.963C20.3574 211.145 19.95 211.409 19.6032 211.756C19.2564 212.094 18.9832 212.493 18.7838 212.953C18.5931 213.404 18.4977 213.902 18.4977 214.448C18.4977 214.994 18.5931 215.497 18.7838 215.957C18.9832 216.408 19.2564 216.806 19.6032 217.153C19.95 217.491 20.3574 217.756 20.8256 217.947C21.2938 218.129 21.801 218.22 22.3472 218.22C22.8674 218.22 23.3529 218.133 23.8038 217.96C24.2546 217.786 24.6664 217.509 25.0392 217.127L25.6505 217.739C25.2516 218.181 24.7618 218.514 24.1809 218.74C23.6 218.965 22.9758 219.078 22.3082 219.078ZM29.9852 219.065C29.3263 219.065 28.7324 218.918 28.2035 218.623C27.6833 218.319 27.2715 217.908 26.968 217.387C26.6646 216.859 26.5129 216.256 26.5129 215.58C26.5129 214.895 26.6646 214.292 26.968 213.772C27.2715 213.252 27.6833 212.844 28.2035 212.55C28.7237 212.255 29.3176 212.107 29.9852 212.107C30.6614 212.107 31.2597 212.255 31.7799 212.55C32.3087 212.844 32.7206 213.252 33.0153 213.772C33.3188 214.292 33.4705 214.895 33.4705 215.58C33.4705 216.256 33.3188 216.859 33.0153 217.387C32.7206 217.908 32.3087 218.319 31.7799 218.623C31.251 218.918 30.6528 219.065 29.9852 219.065ZM29.9852 218.246C30.4794 218.246 30.9172 218.137 31.2987 217.921C31.6802 217.695 31.9793 217.383 32.196 216.984C32.4214 216.577 32.5342 216.109 32.5342 215.58C32.5342 215.042 32.4214 214.574 32.196 214.175C31.9793 213.776 31.6802 213.469 31.2987 213.252C30.9172 213.026 30.4837 212.914 29.9982 212.914C29.5127 212.914 29.0792 213.026 28.6977 213.252C28.3162 213.469 28.0128 213.776 27.7873 214.175C27.5619 214.574 27.4492 215.042 27.4492 215.58C27.4492 216.109 27.5619 216.577 27.7873 216.984C28.0128 217.383 28.3162 217.695 28.6977 217.921C29.0792 218.137 29.5083 218.246 29.9852 218.246ZM38.8409 212.107C39.3958 212.107 39.8813 212.216 40.2975 212.432C40.7223 212.641 41.0518 212.961 41.2859 213.395C41.5286 213.828 41.65 214.375 41.65 215.033V219H40.7267V215.125C40.7267 214.405 40.5446 213.863 40.1805 213.499C39.825 213.126 39.3221 212.94 38.6719 212.94C38.1864 212.94 37.7615 213.039 37.3974 213.239C37.0419 213.43 36.7645 213.711 36.5651 214.084C36.3743 214.448 36.279 214.89 36.279 215.411V219H35.3556V212.172H36.24V214.045L36.0969 213.694C36.3137 213.2 36.6604 212.814 37.1373 212.537C37.6141 212.25 38.182 212.107 38.8409 212.107ZM46.303 219.065C45.6614 219.065 45.1672 218.892 44.8204 218.545C44.4736 218.198 44.3002 217.708 44.3002 217.075V210.664H45.2235V217.023C45.2235 217.422 45.3232 217.73 45.5227 217.947C45.7307 218.163 46.0255 218.272 46.407 218.272C46.8145 218.272 47.1526 218.155 47.4214 217.921L47.7465 218.584C47.5644 218.749 47.3433 218.87 47.0832 218.948C46.8318 219.026 46.5717 219.065 46.303 219.065ZM43.0777 212.94V212.172H47.3043V212.94H43.0777ZM53.706 219V217.491L53.667 217.244V214.721C53.667 214.14 53.5023 213.694 53.1728 213.382C52.852 213.07 52.3709 212.914 51.7293 212.914C51.2871 212.914 50.8666 212.987 50.4678 213.135C50.069 213.282 49.7308 213.477 49.4534 213.72L49.0372 213.031C49.384 212.736 49.8002 212.511 50.2857 212.354C50.7712 212.19 51.2828 212.107 51.8203 212.107C52.7046 212.107 53.3852 212.328 53.8621 212.771C54.3476 213.204 54.5904 213.867 54.5904 214.76V219H53.706ZM51.3521 219.065C50.8406 219.065 50.3941 218.983 50.0126 218.818C49.6398 218.645 49.3537 218.41 49.1543 218.116C48.9549 217.812 48.8552 217.465 48.8552 217.075C48.8552 216.72 48.9375 216.399 49.1023 216.113C49.2757 215.818 49.5531 215.584 49.9346 215.411C50.3247 215.229 50.8449 215.138 51.4952 215.138H53.8491V215.827H51.5212C50.8623 215.827 50.4028 215.944 50.1427 216.178C49.8912 216.412 49.7655 216.702 49.7655 217.049C49.7655 217.439 49.9172 217.752 50.2207 217.986C50.5241 218.22 50.949 218.337 51.4952 218.337C52.0154 218.337 52.4619 218.22 52.8347 217.986C53.2162 217.743 53.4936 217.396 53.667 216.945L53.8751 217.582C53.7017 218.033 53.3982 218.393 52.9647 218.662C52.5399 218.931 52.0024 219.065 51.3521 219.065ZM57.0983 219V212.172H58.0216V219H57.0983ZM57.5665 210.664C57.3757 210.664 57.2153 210.599 57.0853 210.469C56.9552 210.339 56.8902 210.183 56.8902 210.001C56.8902 209.818 56.9552 209.667 57.0853 209.545C57.2153 209.415 57.3757 209.35 57.5665 209.35C57.7572 209.35 57.9176 209.411 58.0477 209.532C58.1777 209.654 58.2427 209.805 58.2427 209.988C58.2427 210.178 58.1777 210.339 58.0477 210.469C57.9263 210.599 57.7659 210.664 57.5665 210.664ZM64.0762 212.107C64.631 212.107 65.1166 212.216 65.5327 212.432C65.9576 212.641 66.287 212.961 66.5211 213.395C66.7639 213.828 66.8852 214.375 66.8852 215.033V219H65.9619V215.125C65.9619 214.405 65.7798 213.863 65.4157 213.499C65.0602 213.126 64.5574 212.94 63.9071 212.94C63.4216 212.94 62.9968 213.039 62.6326 213.239C62.2771 213.43 61.9997 213.711 61.8003 214.084C61.6096 214.448 61.5142 214.89 61.5142 215.411V219H60.5908V212.172H61.4752V214.045L61.3321 213.694C61.5489 213.2 61.8957 212.814 62.3725 212.537C62.8494 212.25 63.4172 212.107 64.0762 212.107ZM72.2795 219.065C71.5685 219.065 70.9443 218.918 70.4067 218.623C69.8692 218.319 69.4487 217.908 69.1453 217.387C68.8418 216.859 68.6901 216.256 68.6901 215.58C68.6901 214.903 68.8331 214.305 69.1193 213.785C69.414 213.265 69.8128 212.857 70.3157 212.563C70.8272 212.259 71.3995 212.107 72.0324 212.107C72.6739 212.107 73.2418 212.255 73.736 212.55C74.2389 212.836 74.6334 213.243 74.9195 213.772C75.2056 214.292 75.3486 214.895 75.3486 215.58C75.3486 215.623 75.3443 215.671 75.3356 215.723C75.3356 215.766 75.3356 215.814 75.3356 215.866H69.3924V215.177H74.8414L74.4773 215.45C74.4773 214.955 74.3689 214.518 74.1522 214.136C73.9441 213.746 73.658 213.443 73.2938 213.226C72.9297 213.009 72.5092 212.901 72.0324 212.901C71.5642 212.901 71.1437 213.009 70.7709 213.226C70.3981 213.443 70.1076 213.746 69.8995 214.136C69.6915 214.526 69.5874 214.973 69.5874 215.476V215.619C69.5874 216.139 69.7001 216.598 69.9256 216.997C70.1596 217.387 70.4804 217.695 70.8879 217.921C71.3041 218.137 71.7766 218.246 72.3055 218.246C72.7216 218.246 73.1074 218.172 73.4629 218.025C73.827 217.877 74.1392 217.652 74.3993 217.348L74.9195 217.947C74.616 218.311 74.2345 218.588 73.775 218.779C73.3242 218.97 72.8257 219.065 72.2795 219.065ZM77.228 219V212.172H78.1124V214.032L78.0213 213.707C78.2121 213.187 78.5329 212.792 78.9837 212.524C79.4346 212.246 79.9938 212.107 80.6614 212.107V213.005C80.6267 213.005 80.592 213.005 80.5573 213.005C80.5226 212.996 80.488 212.992 80.4533 212.992C79.7337 212.992 79.1701 213.213 78.7626 213.655C78.3551 214.088 78.1514 214.708 78.1514 215.515V219H77.228ZM88.5695 219.065C87.9192 219.065 87.334 218.918 86.8138 218.623C86.3023 218.328 85.8991 217.921 85.6044 217.4C85.3096 216.872 85.1622 216.265 85.1622 215.58C85.1622 214.886 85.3096 214.279 85.6044 213.759C85.8991 213.239 86.3023 212.836 86.8138 212.55C87.334 212.255 87.9192 212.107 88.5695 212.107C89.1677 212.107 89.7009 212.242 90.1691 212.511C90.646 212.779 91.0231 213.174 91.3005 213.694C91.5866 214.206 91.7297 214.834 91.7297 215.58C91.7297 216.317 91.591 216.945 91.3135 217.465C91.0361 217.986 90.659 218.384 90.1821 218.662C89.7139 218.931 89.1764 219.065 88.5695 219.065ZM88.6345 218.246C89.12 218.246 89.5535 218.137 89.935 217.921C90.3252 217.695 90.6286 217.383 90.8454 216.984C91.0708 216.577 91.1835 216.109 91.1835 215.58C91.1835 215.042 91.0708 214.574 90.8454 214.175C90.6286 213.776 90.3252 213.469 89.935 213.252C89.5535 213.026 89.12 212.914 88.6345 212.914C88.1577 212.914 87.7285 213.026 87.347 213.252C86.9655 213.469 86.6621 213.776 86.4367 214.175C86.2113 214.574 86.0986 215.042 86.0986 215.58C86.0986 216.109 86.2113 216.577 86.4367 216.984C86.6621 217.383 86.9655 217.695 87.347 217.921C87.7285 218.137 88.1577 218.246 88.6345 218.246ZM91.2095 219V216.945L91.3005 215.567L91.1705 214.188V209.35H92.0938V219H91.2095ZM97.5655 219.065C96.8545 219.065 96.2303 218.918 95.6928 218.623C95.1552 218.319 94.7347 217.908 94.4313 217.387C94.1278 216.859 93.9761 216.256 93.9761 215.58C93.9761 214.903 94.1192 214.305 94.4053 213.785C94.7 213.265 95.0989 212.857 95.6017 212.563C96.1133 212.259 96.6855 212.107 97.3184 212.107C97.96 212.107 98.5278 212.255 99.022 212.55C99.5249 212.836 99.9194 213.243 100.205 213.772C100.492 214.292 100.635 214.895 100.635 215.58C100.635 215.623 100.63 215.671 100.622 215.723C100.622 215.766 100.622 215.814 100.622 215.866H94.6784V215.177H100.127L99.7633 215.45C99.7633 214.955 99.6549 214.518 99.4382 214.136C99.2301 213.746 98.944 213.443 98.5799 213.226C98.2157 213.009 97.7952 212.901 97.3184 212.901C96.8502 212.901 96.4297 213.009 96.0569 213.226C95.6841 213.443 95.3936 213.746 95.1856 214.136C94.9775 214.526 94.8734 214.973 94.8734 215.476V215.619C94.8734 216.139 94.9862 216.598 95.2116 216.997C95.4457 217.387 95.7665 217.695 96.1739 217.921C96.5901 218.137 97.0626 218.246 97.5915 218.246C98.0076 218.246 98.3935 218.172 98.7489 218.025C99.1131 217.877 99.4252 217.652 99.6853 217.348L100.205 217.947C99.902 218.311 99.5206 218.588 99.061 218.779C98.6102 218.97 98.1117 219.065 97.5655 219.065ZM104.348 219.065C103.784 219.065 103.251 218.987 102.748 218.831C102.245 218.666 101.851 218.462 101.565 218.22L101.981 217.491C102.258 217.7 102.614 217.882 103.047 218.038C103.481 218.185 103.936 218.259 104.413 218.259C105.063 218.259 105.531 218.159 105.817 217.96C106.103 217.752 106.246 217.478 106.246 217.14C106.246 216.889 106.164 216.694 105.999 216.555C105.843 216.408 105.635 216.299 105.375 216.23C105.115 216.152 104.825 216.087 104.504 216.035C104.183 215.983 103.862 215.922 103.541 215.853C103.229 215.783 102.943 215.684 102.683 215.554C102.423 215.415 102.211 215.229 102.046 214.994C101.89 214.76 101.812 214.448 101.812 214.058C101.812 213.685 101.916 213.352 102.124 213.057C102.332 212.762 102.635 212.532 103.034 212.367C103.442 212.194 103.936 212.107 104.517 212.107C104.959 212.107 105.401 212.168 105.843 212.289C106.286 212.402 106.65 212.554 106.936 212.745L106.533 213.486C106.229 213.278 105.904 213.13 105.557 213.044C105.21 212.948 104.864 212.901 104.517 212.901C103.901 212.901 103.446 213.009 103.151 213.226C102.865 213.434 102.722 213.703 102.722 214.032C102.722 214.292 102.8 214.496 102.956 214.643C103.121 214.791 103.333 214.908 103.593 214.994C103.862 215.073 104.153 215.138 104.465 215.19C104.786 215.242 105.102 215.307 105.414 215.385C105.735 215.454 106.025 215.554 106.286 215.684C106.554 215.805 106.767 215.983 106.923 216.217C107.087 216.442 107.17 216.741 107.17 217.114C107.17 217.513 107.057 217.86 106.832 218.155C106.615 218.441 106.294 218.666 105.869 218.831C105.453 218.987 104.946 219.065 104.348 219.065ZM108.864 219V212.172H109.788V219H108.864ZM109.332 210.664C109.142 210.664 108.981 210.599 108.851 210.469C108.721 210.339 108.656 210.183 108.656 210.001C108.656 209.818 108.721 209.667 108.851 209.545C108.981 209.415 109.142 209.35 109.332 209.35C109.523 209.35 109.683 209.411 109.814 209.532C109.944 209.654 110.009 209.805 110.009 209.988C110.009 210.178 109.944 210.339 109.814 210.469C109.692 210.599 109.532 210.664 109.332 210.664ZM115.27 221.588C114.646 221.588 114.047 221.497 113.475 221.315C112.903 221.133 112.439 220.873 112.084 220.535L112.552 219.832C112.873 220.118 113.267 220.344 113.735 220.509C114.212 220.682 114.715 220.769 115.244 220.769C116.111 220.769 116.748 220.565 117.156 220.157C117.563 219.759 117.767 219.134 117.767 218.285V216.581L117.897 215.411L117.806 214.24V212.172H118.69V218.168C118.69 219.347 118.4 220.209 117.819 220.756C117.247 221.311 116.397 221.588 115.27 221.588ZM115.101 218.74C114.45 218.74 113.865 218.601 113.345 218.324C112.825 218.038 112.413 217.643 112.11 217.14C111.815 216.637 111.667 216.061 111.667 215.411C111.667 214.76 111.815 214.188 112.11 213.694C112.413 213.191 112.825 212.801 113.345 212.524C113.865 212.246 114.45 212.107 115.101 212.107C115.708 212.107 116.254 212.233 116.739 212.485C117.225 212.736 117.611 213.109 117.897 213.603C118.183 214.097 118.326 214.7 118.326 215.411C118.326 216.122 118.183 216.724 117.897 217.218C117.611 217.713 117.225 218.09 116.739 218.35C116.254 218.61 115.708 218.74 115.101 218.74ZM115.192 217.921C115.695 217.921 116.141 217.817 116.531 217.608C116.921 217.392 117.229 217.097 117.455 216.724C117.68 216.343 117.793 215.905 117.793 215.411C117.793 214.916 117.68 214.483 117.455 214.11C117.229 213.737 116.921 213.447 116.531 213.239C116.141 213.022 115.695 212.914 115.192 212.914C114.698 212.914 114.251 213.022 113.852 213.239C113.462 213.447 113.154 213.737 112.929 214.11C112.712 214.483 112.604 214.916 112.604 215.411C112.604 215.905 112.712 216.343 112.929 216.724C113.154 217.097 113.462 217.392 113.852 217.608C114.251 217.817 114.698 217.921 115.192 217.921ZM124.745 212.107C125.3 212.107 125.785 212.216 126.201 212.432C126.626 212.641 126.956 212.961 127.19 213.395C127.433 213.828 127.554 214.375 127.554 215.033V219H126.631V215.125C126.631 214.405 126.448 213.863 126.084 213.499C125.729 213.126 125.226 212.94 124.576 212.94C124.09 212.94 123.665 213.039 123.301 213.239C122.946 213.43 122.668 213.711 122.469 214.084C122.278 214.448 122.183 214.89 122.183 215.411V219H121.26V212.172H122.144V214.045L122.001 213.694C122.218 213.2 122.564 212.814 123.041 212.537C123.518 212.25 124.086 212.107 124.745 212.107ZM132.948 219.065C132.237 219.065 131.613 218.918 131.075 218.623C130.538 218.319 130.117 217.908 129.814 217.387C129.51 216.859 129.359 216.256 129.359 215.58C129.359 214.903 129.502 214.305 129.788 213.785C130.083 213.265 130.482 212.857 130.984 212.563C131.496 212.259 132.068 212.107 132.701 212.107C133.343 212.107 133.91 212.255 134.405 212.55C134.908 212.836 135.302 213.243 135.588 213.772C135.874 214.292 136.017 214.895 136.017 215.58C136.017 215.623 136.013 215.671 136.004 215.723C136.004 215.766 136.004 215.814 136.004 215.866H130.061V215.177H135.51L135.146 215.45C135.146 214.955 135.038 214.518 134.821 214.136C134.613 213.746 134.327 213.443 133.963 213.226C133.598 213.009 133.178 212.901 132.701 212.901C132.233 212.901 131.812 213.009 131.44 213.226C131.067 213.443 130.776 213.746 130.568 214.136C130.36 214.526 130.256 214.973 130.256 215.476V215.619C130.256 216.139 130.369 216.598 130.594 216.997C130.828 217.387 131.149 217.695 131.557 217.921C131.973 218.137 132.445 218.246 132.974 218.246C133.39 218.246 133.776 218.172 134.132 218.025C134.496 217.877 134.808 217.652 135.068 217.348L135.588 217.947C135.285 218.311 134.903 218.588 134.444 218.779C133.993 218.97 133.494 219.065 132.948 219.065ZM140.615 219.065C139.965 219.065 139.379 218.918 138.859 218.623C138.348 218.328 137.944 217.921 137.65 217.4C137.355 216.872 137.207 216.265 137.207 215.58C137.207 214.886 137.355 214.279 137.65 213.759C137.944 213.239 138.348 212.836 138.859 212.55C139.379 212.255 139.965 212.107 140.615 212.107C141.213 212.107 141.746 212.242 142.214 212.511C142.691 212.779 143.068 213.174 143.346 213.694C143.632 214.206 143.775 214.834 143.775 215.58C143.775 216.317 143.636 216.945 143.359 217.465C143.081 217.986 142.704 218.384 142.227 218.662C141.759 218.931 141.222 219.065 140.615 219.065ZM140.68 218.246C141.165 218.246 141.599 218.137 141.98 217.921C142.37 217.695 142.674 217.383 142.891 216.984C143.116 216.577 143.229 216.109 143.229 215.58C143.229 215.042 143.116 214.574 142.891 214.175C142.674 213.776 142.37 213.469 141.98 213.252C141.599 213.026 141.165 212.914 140.68 212.914C140.203 212.914 139.774 213.026 139.392 213.252C139.011 213.469 138.707 213.776 138.482 214.175C138.257 214.574 138.144 215.042 138.144 215.58C138.144 216.109 138.257 216.577 138.482 216.984C138.707 217.383 139.011 217.695 139.392 217.921C139.774 218.137 140.203 218.246 140.68 218.246ZM143.255 219V216.945L143.346 215.567L143.216 214.188V209.35H144.139V219H143.255ZM150.27 219V211.314C150.27 210.707 150.448 210.217 150.804 209.845C151.159 209.472 151.671 209.285 152.338 209.285C152.598 209.285 152.85 209.32 153.092 209.389C153.335 209.459 153.539 209.567 153.704 209.714L153.392 210.404C153.261 210.291 153.11 210.209 152.936 210.157C152.763 210.096 152.577 210.066 152.377 210.066C151.987 210.066 151.688 210.174 151.48 210.391C151.272 210.607 151.168 210.928 151.168 211.353V212.393L151.194 212.823V219H150.27ZM149.048 212.94V212.172H153.274V212.94H149.048ZM157.19 219.065C156.531 219.065 155.937 218.918 155.408 218.623C154.888 218.319 154.476 217.908 154.173 217.387C153.869 216.859 153.718 216.256 153.718 215.58C153.718 214.895 153.869 214.292 154.173 213.772C154.476 213.252 154.888 212.844 155.408 212.55C155.929 212.255 156.522 212.107 157.19 212.107C157.866 212.107 158.464 212.255 158.985 212.55C159.514 212.844 159.925 213.252 160.22 213.772C160.524 214.292 160.675 214.895 160.675 215.58C160.675 216.256 160.524 216.859 160.22 217.387C159.925 217.908 159.514 218.319 158.985 218.623C158.456 218.918 157.858 219.065 157.19 219.065ZM157.19 218.246C157.684 218.246 158.122 218.137 158.504 217.921C158.885 217.695 159.184 217.383 159.401 216.984C159.626 216.577 159.739 216.109 159.739 215.58C159.739 215.042 159.626 214.574 159.401 214.175C159.184 213.776 158.885 213.469 158.504 213.252C158.122 213.026 157.689 212.914 157.203 212.914C156.717 212.914 156.284 213.026 155.903 213.252C155.521 213.469 155.218 213.776 154.992 214.175C154.767 214.574 154.654 215.042 154.654 215.58C154.654 216.109 154.767 216.577 154.992 216.984C155.218 217.383 155.521 217.695 155.903 217.921C156.284 218.137 156.713 218.246 157.19 218.246ZM162.56 219V212.172H163.445V214.032L163.354 213.707C163.544 213.187 163.865 212.792 164.316 212.524C164.767 212.246 165.326 212.107 165.994 212.107V213.005C165.959 213.005 165.924 213.005 165.89 213.005C165.855 212.996 165.82 212.992 165.786 212.992C165.066 212.992 164.503 213.213 164.095 213.655C163.688 214.088 163.484 214.708 163.484 215.515V219H162.56ZM171.351 219V211.496C171.351 210.82 171.546 210.282 171.936 209.884C172.335 209.476 172.898 209.272 173.627 209.272C173.895 209.272 174.151 209.307 174.394 209.376C174.645 209.437 174.858 209.537 175.031 209.675L174.654 210.625C174.524 210.521 174.377 210.443 174.212 210.391C174.047 210.33 173.874 210.3 173.692 210.3C173.328 210.3 173.05 210.404 172.859 210.612C172.669 210.811 172.573 211.11 172.573 211.509V212.432L172.599 213.005V219H171.351ZM170.18 213.135V212.107H174.576V213.135H170.18ZM178.654 219.078C178.064 219.078 177.544 218.97 177.093 218.753C176.651 218.536 176.304 218.207 176.053 217.765C175.81 217.314 175.688 216.75 175.688 216.074V212.107H176.937V215.931C176.937 216.607 177.097 217.114 177.418 217.452C177.748 217.791 178.207 217.96 178.797 217.96C179.23 217.96 179.607 217.873 179.928 217.7C180.249 217.517 180.496 217.257 180.669 216.919C180.843 216.572 180.929 216.156 180.929 215.671V212.107H182.178V219H180.994V217.14L181.19 217.634C180.964 218.094 180.626 218.449 180.175 218.701C179.724 218.952 179.217 219.078 178.654 219.078ZM184.555 219V209.35H185.803V219H184.555ZM188.187 219V209.35H189.435V219H188.187ZM33.6756 231.042C34.2305 231.042 34.7204 231.151 35.1452 231.367C35.57 231.584 35.8995 231.914 36.1336 232.356C36.3763 232.798 36.4977 233.357 36.4977 234.033V238H35.2492V234.177C35.2492 233.509 35.0932 233.006 34.7811 232.668C34.4689 232.33 34.0311 232.161 33.4676 232.161C33.0514 232.161 32.6873 232.247 32.3751 232.421C32.063 232.594 31.8203 232.85 31.6469 233.188C31.4821 233.526 31.3998 233.947 31.3998 234.45V238H30.1513V234.177C30.1513 233.509 29.9952 233.006 29.6831 232.668C29.3797 232.33 28.9418 232.161 28.3696 232.161C27.9621 232.161 27.6023 232.247 27.2902 232.421C26.9781 232.594 26.7353 232.85 26.5619 233.188C26.3885 233.526 26.3018 233.947 26.3018 234.45V238H25.0533V231.107H26.2498V232.941L26.0547 232.473C26.2715 232.022 26.6053 231.671 27.0561 231.419C27.507 231.168 28.0315 231.042 28.6297 231.042C29.2886 231.042 29.8565 231.207 30.3334 231.537C30.8102 231.857 31.1223 232.347 31.2697 233.006L30.7625 232.798C30.9706 232.269 31.3347 231.844 31.8549 231.524C32.3751 231.203 32.982 231.042 33.6756 231.042ZM41.8641 238.078C41.1271 238.078 40.4769 237.926 39.9133 237.623C39.3585 237.319 38.925 236.903 38.6129 236.374C38.3094 235.846 38.1577 235.239 38.1577 234.554C38.1577 233.869 38.3051 233.262 38.5998 232.733C38.9033 232.204 39.3151 231.792 39.8353 231.498C40.3642 231.194 40.9581 231.042 41.617 231.042C42.2846 231.042 42.8741 231.19 43.3857 231.485C43.8972 231.779 44.296 232.195 44.5821 232.733C44.8769 233.262 45.0243 233.882 45.0243 234.593C45.0243 234.645 45.02 234.705 45.0113 234.775C45.0113 234.844 45.007 234.909 44.9983 234.97H39.1331V234.073H44.348L43.8408 234.385C43.8495 233.942 43.7585 233.548 43.5677 233.201C43.377 232.854 43.1126 232.586 42.7744 232.395C42.445 232.195 42.0592 232.096 41.617 232.096C41.1835 232.096 40.7977 232.195 40.4596 232.395C40.1214 232.586 39.857 232.859 39.6663 233.214C39.4755 233.561 39.3801 233.96 39.3801 234.411V234.619C39.3801 235.078 39.4842 235.49 39.6923 235.854C39.909 236.21 40.2081 236.487 40.5896 236.686C40.9711 236.886 41.4089 236.986 41.9031 236.986C42.3106 236.986 42.6791 236.916 43.0085 236.778C43.3467 236.639 43.6414 236.431 43.8929 236.153L44.5821 236.96C44.27 237.324 43.8799 237.601 43.4117 237.792C42.9522 237.983 42.4363 238.078 41.8641 238.078ZM50.8461 238V236.543L50.781 236.27V233.786C50.781 233.258 50.625 232.85 50.3129 232.564C50.0094 232.269 49.5499 232.122 48.9343 232.122C48.5268 232.122 48.128 232.191 47.7379 232.33C47.3477 232.46 47.0183 232.638 46.7495 232.863L46.2293 231.927C46.5848 231.641 47.0096 231.424 47.5038 231.276C48.0066 231.12 48.5312 231.042 49.0774 231.042C50.0224 231.042 50.7507 231.272 51.2622 231.732C51.7737 232.191 52.0295 232.893 52.0295 233.838V238H50.8461ZM48.5832 238.078C48.0717 238.078 47.6208 237.991 47.2307 237.818C46.8492 237.645 46.5544 237.406 46.3463 237.103C46.1383 236.791 46.0342 236.439 46.0342 236.049C46.0342 235.676 46.1209 235.338 46.2943 235.035C46.4764 234.731 46.7668 234.489 47.1656 234.307C47.5731 234.125 48.1193 234.033 48.8043 234.033H50.9891V234.931H48.8563C48.2321 234.931 47.8116 235.035 47.5948 235.243C47.3781 235.451 47.2697 235.702 47.2697 235.997C47.2697 236.335 47.4041 236.608 47.6728 236.817C47.9416 237.016 48.3144 237.116 48.7913 237.116C49.2594 237.116 49.6669 237.012 50.0137 236.804C50.3692 236.595 50.625 236.292 50.781 235.893L51.0281 236.752C50.8634 237.159 50.5729 237.484 50.1568 237.727C49.7406 237.961 49.2161 238.078 48.5832 238.078ZM54.3399 238V228.35H55.5884V238H54.3399ZM59.9489 238.078C59.3767 238.078 58.8305 238 58.3103 237.844C57.7988 237.688 57.3956 237.497 57.1008 237.272L57.621 236.283C57.9158 236.483 58.2799 236.652 58.7134 236.791C59.1469 236.929 59.5891 236.999 60.04 236.999C60.6208 236.999 61.037 236.916 61.2884 236.752C61.5485 236.587 61.6786 236.357 61.6786 236.062C61.6786 235.846 61.6005 235.676 61.4445 235.555C61.2884 235.434 61.0803 235.343 60.8203 235.282C60.5688 235.221 60.287 235.169 59.9749 235.126C59.6628 235.074 59.3507 235.013 59.0386 234.944C58.7265 234.866 58.4403 234.762 58.1802 234.632C57.9201 234.493 57.7121 234.307 57.556 234.073C57.3999 233.83 57.3219 233.509 57.3219 233.11C57.3219 232.694 57.439 232.33 57.673 232.018C57.9071 231.706 58.2366 231.467 58.6614 231.302C59.0949 231.129 59.6065 231.042 60.196 231.042C60.6469 231.042 61.102 231.099 61.5615 231.211C62.0297 231.315 62.4112 231.467 62.706 231.667L62.1728 232.655C61.8606 232.447 61.5355 232.304 61.1974 232.226C60.8593 232.148 60.5211 232.109 60.183 232.109C59.6368 232.109 59.2293 232.2 58.9605 232.382C58.6918 232.555 58.5574 232.781 58.5574 233.058C58.5574 233.292 58.6354 233.474 58.7915 233.604C58.9562 233.726 59.1643 233.821 59.4157 233.89C59.6758 233.96 59.9619 234.02 60.274 234.073C60.5862 234.116 60.8983 234.177 61.2104 234.255C61.5225 234.324 61.8043 234.424 62.0557 234.554C62.3158 234.684 62.5239 234.866 62.68 235.1C62.8447 235.334 62.9271 235.646 62.9271 236.036C62.9271 236.452 62.8057 236.812 62.5629 237.116C62.3202 237.419 61.9777 237.658 61.5355 237.831C61.0934 237.996 60.5645 238.078 59.9489 238.078ZM63.9932 239.925L64.6434 237.298L64.8125 238.052C64.561 238.052 64.3486 237.974 64.1752 237.818C64.0105 237.662 63.9281 237.449 63.9281 237.181C63.9281 236.921 64.0105 236.708 64.1752 236.543C64.3486 236.379 64.5567 236.296 64.7995 236.296C65.0509 236.296 65.2546 236.383 65.4107 236.556C65.5668 236.721 65.6448 236.929 65.6448 237.181C65.6448 237.267 65.6361 237.354 65.6188 237.441C65.6101 237.519 65.5884 237.614 65.5538 237.727C65.5277 237.831 65.4844 237.961 65.4237 238.117L64.8125 239.925H63.9932ZM74.5807 238.078C73.9912 238.078 73.458 237.948 72.9811 237.688C72.5129 237.419 72.1401 237.025 71.8627 236.504C71.5939 235.984 71.4595 235.334 71.4595 234.554C71.4595 233.773 71.5983 233.123 71.8757 232.603C72.1618 232.083 72.5389 231.693 73.0071 231.432C73.484 231.172 74.0085 231.042 74.5807 231.042C75.257 231.042 75.8552 231.19 76.3754 231.485C76.8956 231.779 77.3074 232.191 77.6109 232.72C77.9143 233.24 78.0661 233.851 78.0661 234.554C78.0661 235.256 77.9143 235.872 77.6109 236.4C77.3074 236.929 76.8956 237.341 76.3754 237.636C75.8552 237.931 75.257 238.078 74.5807 238.078ZM70.9263 238V228.35H72.1748V232.941L72.0448 234.541L72.1228 236.14V238H70.9263ZM74.4767 236.986C74.9189 236.986 75.3133 236.886 75.6601 236.686C76.0156 236.487 76.293 236.205 76.4925 235.841C76.7005 235.468 76.8046 235.039 76.8046 234.554C76.8046 234.059 76.7005 233.635 76.4925 233.279C76.293 232.915 76.0156 232.633 75.6601 232.434C75.3133 232.234 74.9189 232.135 74.4767 232.135C74.0432 232.135 73.6487 232.234 73.2932 232.434C72.9464 232.633 72.669 232.915 72.4609 233.279C72.2615 233.635 72.1618 234.059 72.1618 234.554C72.1618 235.039 72.2615 235.468 72.4609 235.841C72.669 236.205 72.9464 236.487 73.2932 236.686C73.6487 236.886 74.0432 236.986 74.4767 236.986ZM82.6911 238.078C82.1016 238.078 81.5814 237.97 81.1306 237.753C80.6884 237.536 80.3416 237.207 80.0902 236.765C79.8474 236.314 79.726 235.75 79.726 235.074V231.107H80.9745V234.931C80.9745 235.607 81.1349 236.114 81.4557 236.452C81.7851 236.791 82.2446 236.96 82.8342 236.96C83.2677 236.96 83.6448 236.873 83.9656 236.7C84.2864 236.517 84.5335 236.257 84.7069 235.919C84.8803 235.572 84.967 235.156 84.967 234.671V231.107H86.2155V238H85.032V236.14L85.2271 236.634C85.0017 237.094 84.6636 237.449 84.2127 237.701C83.7619 237.952 83.2547 238.078 82.6911 238.078ZM88.5923 238V228.35H89.8407V238H88.5923ZM93.2389 236.335L93.2649 234.736L97.2314 231.107H98.74L95.6968 234.099L95.0206 234.671L93.2389 236.335ZM92.2245 238V228.35H93.473V238H92.2245ZM97.4915 238L94.7865 234.645L95.5928 233.643L99.0261 238H97.4915ZM105.708 238.078C105.135 238.078 104.589 238 104.069 237.844C103.557 237.688 103.154 237.497 102.86 237.272L103.38 236.283C103.674 236.483 104.039 236.652 104.472 236.791C104.906 236.929 105.348 236.999 105.799 236.999C106.38 236.999 106.796 236.916 107.047 236.752C107.307 236.587 107.437 236.357 107.437 236.062C107.437 235.846 107.359 235.676 107.203 235.555C107.047 235.434 106.839 235.343 106.579 235.282C106.328 235.221 106.046 235.169 105.734 235.126C105.421 235.074 105.109 235.013 104.797 234.944C104.485 234.866 104.199 234.762 103.939 234.632C103.679 234.493 103.471 234.307 103.315 234.073C103.159 233.83 103.081 233.509 103.081 233.11C103.081 232.694 103.198 232.33 103.432 232.018C103.666 231.706 103.995 231.467 104.42 231.302C104.854 231.129 105.365 231.042 105.955 231.042C106.406 231.042 106.861 231.099 107.32 231.211C107.788 231.315 108.17 231.467 108.465 231.667L107.931 232.655C107.619 232.447 107.294 232.304 106.956 232.226C106.618 232.148 106.28 232.109 105.942 232.109C105.395 232.109 104.988 232.2 104.719 232.382C104.45 232.555 104.316 232.781 104.316 233.058C104.316 233.292 104.394 233.474 104.55 233.604C104.715 233.726 104.923 233.821 105.174 233.89C105.434 233.96 105.721 234.02 106.033 234.073C106.345 234.116 106.657 234.177 106.969 234.255C107.281 234.324 107.563 234.424 107.814 234.554C108.075 234.684 108.283 234.866 108.439 235.1C108.603 235.334 108.686 235.646 108.686 236.036C108.686 236.452 108.564 236.812 108.322 237.116C108.079 237.419 107.736 237.658 107.294 237.831C106.852 237.996 106.323 238.078 105.708 238.078ZM112.613 238.078C111.919 238.078 111.382 237.892 111 237.519C110.619 237.146 110.428 236.613 110.428 235.919V229.599H111.677V235.867C111.677 236.24 111.768 236.526 111.95 236.726C112.14 236.925 112.409 237.025 112.756 237.025C113.146 237.025 113.471 236.916 113.731 236.7L114.122 237.597C113.931 237.762 113.701 237.883 113.432 237.961C113.172 238.039 112.899 238.078 112.613 238.078ZM109.258 232.135V231.107H113.653V232.135H109.258ZM118.354 238.078C117.661 238.078 117.045 237.926 116.508 237.623C115.97 237.319 115.545 236.903 115.233 236.374C114.921 235.837 114.765 235.23 114.765 234.554C114.765 233.869 114.921 233.262 115.233 232.733C115.545 232.204 115.97 231.792 116.508 231.498C117.045 231.194 117.661 231.042 118.354 231.042C119.039 231.042 119.651 231.194 120.188 231.498C120.734 231.792 121.159 232.204 121.463 232.733C121.775 233.253 121.931 233.86 121.931 234.554C121.931 235.239 121.775 235.846 121.463 236.374C121.159 236.903 120.734 237.319 120.188 237.623C119.651 237.926 119.039 238.078 118.354 238.078ZM118.354 236.986C118.797 236.986 119.191 236.886 119.538 236.686C119.893 236.487 120.171 236.205 120.37 235.841C120.57 235.468 120.669 235.039 120.669 234.554C120.669 234.059 120.57 233.635 120.37 233.279C120.171 232.915 119.893 232.633 119.538 232.434C119.191 232.234 118.797 232.135 118.354 232.135C117.912 232.135 117.518 232.234 117.171 232.434C116.824 232.633 116.547 232.915 116.339 233.279C116.131 233.635 116.027 234.059 116.027 234.554C116.027 235.039 116.131 235.468 116.339 235.841C116.547 236.205 116.824 236.487 117.171 236.686C117.518 236.886 117.912 236.986 118.354 236.986ZM123.657 238V231.107H124.854V232.98L124.737 232.512C124.928 232.035 125.248 231.671 125.699 231.419C126.15 231.168 126.705 231.042 127.364 231.042V232.252C127.312 232.243 127.26 232.239 127.208 232.239C127.164 232.239 127.121 232.239 127.078 232.239C126.41 232.239 125.881 232.438 125.491 232.837C125.101 233.236 124.906 233.812 124.906 234.567V238H123.657ZM132.673 238V236.543L132.608 236.27V233.786C132.608 233.258 132.452 232.85 132.14 232.564C131.837 232.269 131.377 232.122 130.761 232.122C130.354 232.122 129.955 232.191 129.565 232.33C129.175 232.46 128.845 232.638 128.577 232.863L128.056 231.927C128.412 231.641 128.837 231.424 129.331 231.276C129.834 231.12 130.358 231.042 130.905 231.042C131.85 231.042 132.578 231.272 133.089 231.732C133.601 232.191 133.857 232.893 133.857 233.838V238H132.673ZM130.41 238.078C129.899 238.078 129.448 237.991 129.058 237.818C128.676 237.645 128.382 237.406 128.173 237.103C127.965 236.791 127.861 236.439 127.861 236.049C127.861 235.676 127.948 235.338 128.121 235.035C128.304 234.731 128.594 234.489 128.993 234.307C129.4 234.125 129.946 234.033 130.631 234.033H132.816V234.931H130.683C130.059 234.931 129.639 235.035 129.422 235.243C129.205 235.451 129.097 235.702 129.097 235.997C129.097 236.335 129.231 236.608 129.5 236.817C129.769 237.016 130.142 237.116 130.618 237.116C131.087 237.116 131.494 237.012 131.841 236.804C132.196 236.595 132.452 236.292 132.608 235.893L132.855 236.752C132.691 237.159 132.4 237.484 131.984 237.727C131.568 237.961 131.043 238.078 130.41 238.078ZM139.184 240.601C138.551 240.601 137.936 240.51 137.338 240.328C136.748 240.154 136.267 239.903 135.894 239.574L136.492 238.611C136.813 238.889 137.207 239.105 137.676 239.261C138.144 239.426 138.634 239.509 139.145 239.509C139.96 239.509 140.558 239.318 140.94 238.936C141.321 238.555 141.512 237.974 141.512 237.194V235.737L141.642 234.372L141.577 232.993V231.107H142.761V237.064C142.761 238.277 142.457 239.17 141.85 239.743C141.243 240.315 140.355 240.601 139.184 240.601ZM139.028 237.714C138.361 237.714 137.762 237.575 137.233 237.298C136.713 237.012 136.297 236.617 135.985 236.114C135.682 235.611 135.53 235.031 135.53 234.372C135.53 233.704 135.682 233.123 135.985 232.629C136.297 232.126 136.713 231.736 137.233 231.459C137.762 231.181 138.361 231.042 139.028 231.042C139.618 231.042 140.155 231.164 140.641 231.406C141.126 231.641 141.512 232.005 141.798 232.499C142.093 232.993 142.24 233.617 142.24 234.372C142.24 235.117 142.093 235.737 141.798 236.231C141.512 236.726 141.126 237.098 140.641 237.35C140.155 237.593 139.618 237.714 139.028 237.714ZM139.171 236.621C139.631 236.621 140.038 236.526 140.394 236.335C140.749 236.145 141.027 235.88 141.226 235.542C141.434 235.204 141.538 234.814 141.538 234.372C141.538 233.929 141.434 233.539 141.226 233.201C141.027 232.863 140.749 232.603 140.394 232.421C140.038 232.23 139.631 232.135 139.171 232.135C138.712 232.135 138.3 232.23 137.936 232.421C137.58 232.603 137.298 232.863 137.09 233.201C136.891 233.539 136.791 233.929 136.791 234.372C136.791 234.814 136.891 235.204 137.09 235.542C137.298 235.88 137.58 236.145 137.936 236.335C138.3 236.526 138.712 236.621 139.171 236.621ZM148.215 238.078C147.478 238.078 146.828 237.926 146.264 237.623C145.71 237.319 145.276 236.903 144.964 236.374C144.661 235.846 144.509 235.239 144.509 234.554C144.509 233.869 144.656 233.262 144.951 232.733C145.254 232.204 145.666 231.792 146.186 231.498C146.715 231.194 147.309 231.042 147.968 231.042C148.636 231.042 149.225 231.19 149.737 231.485C150.248 231.779 150.647 232.195 150.933 232.733C151.228 233.262 151.375 233.882 151.375 234.593C151.375 234.645 151.371 234.705 151.362 234.775C151.362 234.844 151.358 234.909 151.349 234.97H145.484V234.073H150.699L150.192 234.385C150.201 233.942 150.11 233.548 149.919 233.201C149.728 232.854 149.464 232.586 149.126 232.395C148.796 232.195 148.41 232.096 147.968 232.096C147.535 232.096 147.149 232.195 146.811 232.395C146.473 232.586 146.208 232.859 146.017 233.214C145.827 233.561 145.731 233.96 145.731 234.411V234.619C145.731 235.078 145.835 235.49 146.043 235.854C146.26 236.21 146.559 236.487 146.941 236.686C147.322 236.886 147.76 236.986 148.254 236.986C148.662 236.986 149.03 236.916 149.36 236.778C149.698 236.639 149.993 236.431 150.244 236.153L150.933 236.96C150.621 237.324 150.231 237.601 149.763 237.792C149.303 237.983 148.787 238.078 148.215 238.078ZM152.615 239.925L153.265 237.298L153.434 238.052C153.183 238.052 152.97 237.974 152.797 237.818C152.632 237.662 152.55 237.449 152.55 237.181C152.55 236.921 152.632 236.708 152.797 236.543C152.97 236.379 153.178 236.296 153.421 236.296C153.673 236.296 153.876 236.383 154.032 236.556C154.188 236.721 154.267 236.929 154.267 237.181C154.267 237.267 154.258 237.354 154.241 237.441C154.232 237.519 154.21 237.614 154.175 237.727C154.149 237.831 154.106 237.961 154.045 238.117L153.434 239.925H152.615ZM163.931 238V236.491L163.892 236.244V233.721C163.892 233.14 163.727 232.694 163.398 232.382C163.077 232.07 162.596 231.914 161.954 231.914C161.512 231.914 161.091 231.987 160.692 232.135C160.294 232.282 159.956 232.477 159.678 232.72L159.262 232.031C159.609 231.736 160.025 231.511 160.51 231.354C160.996 231.19 161.507 231.107 162.045 231.107C162.929 231.107 163.61 231.328 164.087 231.771C164.572 232.204 164.815 232.867 164.815 233.76V238H163.931ZM161.577 238.065C161.065 238.065 160.619 237.983 160.237 237.818C159.864 237.645 159.578 237.41 159.379 237.116C159.18 236.812 159.08 236.465 159.08 236.075C159.08 235.72 159.162 235.399 159.327 235.113C159.5 234.818 159.778 234.584 160.159 234.411C160.549 234.229 161.07 234.138 161.72 234.138H164.074V234.827H161.746C161.087 234.827 160.627 234.944 160.367 235.178C160.116 235.412 159.99 235.702 159.99 236.049C159.99 236.439 160.142 236.752 160.445 236.986C160.749 237.22 161.174 237.337 161.72 237.337C162.24 237.337 162.687 237.22 163.059 236.986C163.441 236.743 163.718 236.396 163.892 235.945L164.1 236.582C163.926 237.033 163.623 237.393 163.189 237.662C162.765 237.931 162.227 238.065 161.577 238.065ZM170.808 231.107C171.363 231.107 171.849 231.216 172.265 231.432C172.69 231.641 173.019 231.961 173.253 232.395C173.496 232.828 173.617 233.375 173.617 234.033V238H172.694V234.125C172.694 233.405 172.512 232.863 172.148 232.499C171.792 232.126 171.289 231.94 170.639 231.94C170.154 231.94 169.729 232.039 169.365 232.239C169.009 232.43 168.732 232.711 168.532 233.084C168.342 233.448 168.246 233.89 168.246 234.411V238H167.323V231.172H168.207V233.045L168.064 232.694C168.281 232.2 168.628 231.814 169.105 231.537C169.582 231.25 170.149 231.107 170.808 231.107ZM178.83 238.065C178.179 238.065 177.594 237.918 177.074 237.623C176.562 237.328 176.159 236.921 175.864 236.4C175.57 235.872 175.422 235.265 175.422 234.58C175.422 233.886 175.57 233.279 175.864 232.759C176.159 232.239 176.562 231.836 177.074 231.55C177.594 231.255 178.179 231.107 178.83 231.107C179.428 231.107 179.961 231.242 180.429 231.511C180.906 231.779 181.283 232.174 181.561 232.694C181.847 233.206 181.99 233.834 181.99 234.58C181.99 235.317 181.851 235.945 181.574 236.465C181.296 236.986 180.919 237.384 180.442 237.662C179.974 237.931 179.436 238.065 178.83 238.065ZM178.895 237.246C179.38 237.246 179.814 237.137 180.195 236.921C180.585 236.695 180.889 236.383 181.105 235.984C181.331 235.577 181.444 235.109 181.444 234.58C181.444 234.042 181.331 233.574 181.105 233.175C180.889 232.776 180.585 232.469 180.195 232.252C179.814 232.026 179.38 231.914 178.895 231.914C178.418 231.914 177.989 232.026 177.607 232.252C177.226 232.469 176.922 232.776 176.697 233.175C176.471 233.574 176.359 234.042 176.359 234.58C176.359 235.109 176.471 235.577 176.697 235.984C176.922 236.383 177.226 236.695 177.607 236.921C177.989 237.137 178.418 237.246 178.895 237.246ZM181.47 238V235.945L181.561 234.567L181.431 233.188V228.35H182.354V238H181.47ZM16.802 251.042C17.3655 251.042 17.8597 251.151 18.2845 251.367C18.718 251.584 19.0561 251.914 19.2989 252.356C19.5417 252.798 19.663 253.357 19.663 254.033V258H18.4146V254.177C18.4146 253.509 18.2498 253.006 17.9204 252.668C17.5996 252.33 17.1444 252.161 16.5549 252.161C16.1127 252.161 15.7269 252.247 15.3974 252.421C15.068 252.594 14.8122 252.85 14.6301 253.188C14.4567 253.526 14.37 253.947 14.37 254.45V258H13.1215V248.35H14.37V252.967L14.1229 252.473C14.3483 252.022 14.6951 251.671 15.1633 251.419C15.6315 251.168 16.1777 251.042 16.802 251.042ZM25.0427 258.078C24.3058 258.078 23.6555 257.926 23.092 257.623C22.5371 257.319 22.1036 256.903 21.7915 256.374C21.488 255.846 21.3363 255.239 21.3363 254.554C21.3363 253.869 21.4837 253.262 21.7785 252.733C22.0819 252.204 22.4938 251.792 23.014 251.498C23.5428 251.194 24.1367 251.042 24.7956 251.042C25.4632 251.042 26.0528 251.19 26.5643 251.485C27.0758 251.779 27.4747 252.195 27.7608 252.733C28.0555 253.262 28.2029 253.882 28.2029 254.593C28.2029 254.645 28.1986 254.705 28.1899 254.775C28.1899 254.844 28.1856 254.909 28.1769 254.97H22.3117V254.073H27.5267L27.0195 254.385C27.0282 253.942 26.9371 253.548 26.7464 253.201C26.5556 252.854 26.2912 252.586 25.9531 252.395C25.6236 252.195 25.2378 252.096 24.7956 252.096C24.3621 252.096 23.9763 252.195 23.6382 252.395C23.3001 252.586 23.0356 252.859 22.8449 253.214C22.6542 253.561 22.5588 253.96 22.5588 254.411V254.619C22.5588 255.078 22.6628 255.49 22.8709 255.854C23.0877 256.21 23.3868 256.487 23.7682 256.686C24.1497 256.886 24.5876 256.986 25.0817 256.986C25.4892 256.986 25.8577 256.916 26.1872 256.778C26.5253 256.639 26.8201 256.431 27.0715 256.153L27.7608 256.96C27.4486 257.324 27.0585 257.601 26.5903 257.792C26.1308 257.983 25.6149 258.078 25.0427 258.078ZM34.0247 258V256.543L33.9597 256.27V253.786C33.9597 253.258 33.8036 252.85 33.4915 252.564C33.188 252.269 32.7285 252.122 32.113 252.122C31.7055 252.122 31.3067 252.191 30.9165 252.33C30.5264 252.46 30.1969 252.638 29.9281 252.863L29.4079 251.927C29.7634 251.641 30.1882 251.424 30.6824 251.276C31.1853 251.12 31.7098 251.042 32.256 251.042C33.201 251.042 33.9293 251.272 34.4409 251.732C34.9524 252.191 35.2081 252.893 35.2081 253.838V258H34.0247ZM31.7618 258.078C31.2503 258.078 30.7995 257.991 30.4093 257.818C30.0278 257.645 29.7331 257.406 29.525 257.103C29.3169 256.791 29.2129 256.439 29.2129 256.049C29.2129 255.676 29.2996 255.338 29.473 255.035C29.655 254.731 29.9455 254.489 30.3443 254.307C30.7518 254.125 31.298 254.033 31.9829 254.033H34.1677V254.931H32.0349C31.4107 254.931 30.9902 255.035 30.7735 255.243C30.5567 255.451 30.4483 255.702 30.4483 255.997C30.4483 256.335 30.5827 256.608 30.8515 256.817C31.1203 257.016 31.4931 257.116 31.9699 257.116C32.4381 257.116 32.8456 257.012 33.1924 256.804C33.5478 256.595 33.8036 256.292 33.9597 255.893L34.2068 256.752C34.042 257.159 33.7516 257.484 33.3354 257.727C32.9193 257.961 32.3947 258.078 31.7618 258.078ZM39.1992 258L36.1821 251.107H37.4826L40.1616 257.35H39.5374L42.2684 251.107H43.4909L40.4737 258H39.1992ZM44.8536 260.601C44.5241 260.601 44.2033 260.545 43.8912 260.432C43.5791 260.328 43.3103 260.172 43.0849 259.964L43.6181 259.027C43.7915 259.192 43.9822 259.318 44.1903 259.405C44.3984 259.491 44.6195 259.535 44.8536 259.535C45.157 259.535 45.4084 259.457 45.6078 259.3C45.8073 259.144 45.9937 258.867 46.1671 258.468L46.5962 257.519L46.7263 257.363L49.4313 251.107H50.6538L47.3115 258.689C47.1121 259.175 46.8867 259.556 46.6352 259.834C46.3925 260.111 46.1237 260.306 45.8289 260.419C45.5342 260.54 45.209 260.601 44.8536 260.601ZM46.4922 258.221L43.345 251.107H44.6455L47.3245 257.246L46.4922 258.221ZM51.2117 254.97V253.89H54.71V254.97H51.2117ZM59.6074 258.078C58.9398 258.078 58.3416 257.931 57.8127 257.636C57.2925 257.341 56.8807 256.929 56.5772 256.4C56.2738 255.872 56.1221 255.256 56.1221 254.554C56.1221 253.851 56.2738 253.24 56.5772 252.72C56.8807 252.191 57.2925 251.779 57.8127 251.485C58.3416 251.19 58.9398 251.042 59.6074 251.042C60.1883 251.042 60.7128 251.172 61.181 251.432C61.6492 251.693 62.022 252.083 62.2994 252.603C62.5855 253.123 62.7286 253.773 62.7286 254.554C62.7286 255.334 62.5899 255.984 62.3124 256.504C62.0437 257.025 61.6752 257.419 61.207 257.688C60.7388 257.948 60.2056 258.078 59.6074 258.078ZM59.7114 256.986C60.1449 256.986 60.5351 256.886 60.8819 256.686C61.2373 256.487 61.5148 256.205 61.7142 255.841C61.9223 255.468 62.0263 255.039 62.0263 254.554C62.0263 254.059 61.9223 253.635 61.7142 253.279C61.5148 252.915 61.2373 252.633 60.8819 252.434C60.5351 252.234 60.1449 252.135 59.7114 252.135C59.2693 252.135 58.8748 252.234 58.528 252.434C58.1812 252.633 57.9037 252.915 57.6957 253.279C57.4876 253.635 57.3835 254.059 57.3835 254.554C57.3835 255.039 57.4876 255.468 57.6957 255.841C57.9037 256.205 58.1812 256.487 58.528 256.686C58.8748 256.886 59.2693 256.986 59.7114 256.986ZM62.0653 258V256.14L62.1434 254.541L62.0133 252.941V248.35H63.2618V258H62.0653ZM68.5241 258.078C67.9346 258.078 67.4144 257.97 66.9635 257.753C66.5214 257.536 66.1746 257.207 65.9231 256.765C65.6804 256.314 65.559 255.75 65.559 255.074V251.107H66.8075V254.931C66.8075 255.607 66.9679 256.114 67.2887 256.452C67.6181 256.791 68.0776 256.96 68.6672 256.96C69.1007 256.96 69.4778 256.873 69.7986 256.7C70.1194 256.517 70.3665 256.257 70.5399 255.919C70.7133 255.572 70.8 255.156 70.8 254.671V251.107H72.0485V258H70.865V256.14L71.0601 256.634C70.8347 257.094 70.4965 257.449 70.0457 257.701C69.5949 257.952 69.0877 258.078 68.5241 258.078ZM76.7921 258.078C76.0985 258.078 75.561 257.892 75.1795 257.519C74.798 257.146 74.6073 256.613 74.6073 255.919V249.599H75.8558V255.867C75.8558 256.24 75.9468 256.526 76.1289 256.726C76.3196 256.925 76.5884 257.025 76.9352 257.025C77.3253 257.025 77.6505 256.916 77.9106 256.7L78.3007 257.597C78.11 257.762 77.8802 257.883 77.6114 257.961C77.3513 258.039 77.0782 258.078 76.7921 258.078ZM73.4368 252.135V251.107H77.8325V252.135H73.4368ZM79.9822 260.601C79.6527 260.601 79.332 260.545 79.0198 260.432C78.7077 260.328 78.439 260.172 78.2135 259.964L78.7467 259.027C78.9201 259.192 79.1109 259.318 79.319 259.405C79.527 259.491 79.7481 259.535 79.9822 259.535C80.2857 259.535 80.5371 259.457 80.7365 259.3C80.9359 259.144 81.1223 258.867 81.2957 258.468L81.7249 257.519L81.8549 257.363L84.56 251.107H85.7824L82.4401 258.689C82.2407 259.175 82.0153 259.556 81.7639 259.834C81.5211 260.111 81.2524 260.306 80.9576 260.419C80.6628 260.54 80.3377 260.601 79.9822 260.601ZM81.6208 258.221L78.4736 251.107H79.7741L82.4532 257.246L81.6208 258.221ZM90.6222 258V250.496C90.6222 249.82 90.8173 249.282 91.2074 248.884C91.6062 248.476 92.1698 248.272 92.8981 248.272C93.1668 248.272 93.4226 248.307 93.6654 248.376C93.9168 248.437 94.1292 248.537 94.3026 248.675L93.9255 249.625C93.7954 249.521 93.648 249.443 93.4833 249.391C93.3186 249.33 93.1452 249.3 92.9631 249.3C92.599 249.3 92.3215 249.404 92.1308 249.612C91.94 249.811 91.8447 250.11 91.8447 250.509V251.432L91.8707 252.005V258H90.6222ZM89.4518 252.135V251.107H93.8474V252.135H89.4518ZM97.8754 258.078C97.1818 258.078 96.5662 257.926 96.0287 257.623C95.4912 257.319 95.0663 256.903 94.7542 256.374C94.4421 255.837 94.286 255.23 94.286 254.554C94.286 253.869 94.4421 253.262 94.7542 252.733C95.0663 252.204 95.4912 251.792 96.0287 251.498C96.5662 251.194 97.1818 251.042 97.8754 251.042C98.5603 251.042 99.1716 251.194 99.7091 251.498C100.255 251.792 100.68 252.204 100.984 252.733C101.296 253.253 101.452 253.86 101.452 254.554C101.452 255.239 101.296 255.846 100.984 256.374C100.68 256.903 100.255 257.319 99.7091 257.623C99.1716 257.926 98.5603 258.078 97.8754 258.078ZM97.8754 256.986C98.3176 256.986 98.7121 256.886 99.0589 256.686C99.4143 256.487 99.6918 256.205 99.8912 255.841C100.091 255.468 100.19 255.039 100.19 254.554C100.19 254.059 100.091 253.635 99.8912 253.279C99.6918 252.915 99.4143 252.633 99.0589 252.434C98.7121 252.234 98.3176 252.135 97.8754 252.135C97.4332 252.135 97.0388 252.234 96.692 252.434C96.3452 252.633 96.0677 252.915 95.8596 253.279C95.6516 253.635 95.5475 254.059 95.5475 254.554C95.5475 255.039 95.6516 255.468 95.8596 255.841C96.0677 256.205 96.3452 256.487 96.692 256.686C97.0388 256.886 97.4332 256.986 97.8754 256.986ZM106.131 258.078C105.437 258.078 104.821 257.926 104.284 257.623C103.746 257.319 103.321 256.903 103.009 256.374C102.697 255.837 102.541 255.23 102.541 254.554C102.541 253.869 102.697 253.262 103.009 252.733C103.321 252.204 103.746 251.792 104.284 251.498C104.821 251.194 105.437 251.042 106.131 251.042C106.815 251.042 107.427 251.194 107.964 251.498C108.51 251.792 108.935 252.204 109.239 252.733C109.551 253.253 109.707 253.86 109.707 254.554C109.707 255.239 109.551 255.846 109.239 256.374C108.935 256.903 108.51 257.319 107.964 257.623C107.427 257.926 106.815 258.078 106.131 258.078ZM106.131 256.986C106.573 256.986 106.967 256.886 107.314 256.686C107.669 256.487 107.947 256.205 108.146 255.841C108.346 255.468 108.445 255.039 108.445 254.554C108.445 254.059 108.346 253.635 108.146 253.279C107.947 252.915 107.669 252.633 107.314 252.434C106.967 252.234 106.573 252.135 106.131 252.135C105.688 252.135 105.294 252.234 104.947 252.434C104.6 252.633 104.323 252.915 104.115 253.279C103.907 253.635 103.803 254.059 103.803 254.554C103.803 255.039 103.907 255.468 104.115 255.841C104.323 256.205 104.6 256.487 104.947 256.686C105.294 256.886 105.688 256.986 106.131 256.986ZM114.282 258.078C113.614 258.078 113.016 257.931 112.487 257.636C111.967 257.341 111.555 256.929 111.251 256.4C110.948 255.872 110.796 255.256 110.796 254.554C110.796 253.851 110.948 253.24 111.251 252.72C111.555 252.191 111.967 251.779 112.487 251.485C113.016 251.19 113.614 251.042 114.282 251.042C114.862 251.042 115.387 251.172 115.855 251.432C116.323 251.693 116.696 252.083 116.974 252.603C117.26 253.123 117.403 253.773 117.403 254.554C117.403 255.334 117.264 255.984 116.987 256.504C116.718 257.025 116.349 257.419 115.881 257.688C115.413 257.948 114.88 258.078 114.282 258.078ZM114.386 256.986C114.819 256.986 115.209 256.886 115.556 256.686C115.912 256.487 116.189 256.205 116.388 255.841C116.596 255.468 116.701 255.039 116.701 254.554C116.701 254.059 116.596 253.635 116.388 253.279C116.189 252.915 115.912 252.633 115.556 252.434C115.209 252.234 114.819 252.135 114.386 252.135C113.943 252.135 113.549 252.234 113.202 252.434C112.855 252.633 112.578 252.915 112.37 253.279C112.162 253.635 112.058 254.059 112.058 254.554C112.058 255.039 112.162 255.468 112.37 255.841C112.578 256.205 112.855 256.487 113.202 256.686C113.549 256.886 113.943 256.986 114.386 256.986ZM116.74 258V256.14L116.818 254.541L116.688 252.941V248.35H117.936V258H116.74ZM127.445 258.078C126.873 258.078 126.348 257.948 125.872 257.688C125.403 257.419 125.026 257.025 124.74 256.504C124.463 255.984 124.324 255.334 124.324 254.554C124.324 253.773 124.458 253.123 124.727 252.603C125.005 252.083 125.377 251.693 125.846 251.432C126.322 251.172 126.856 251.042 127.445 251.042C128.121 251.042 128.72 251.19 129.24 251.485C129.76 251.779 130.172 252.191 130.475 252.72C130.779 253.24 130.93 253.851 130.93 254.554C130.93 255.256 130.779 255.872 130.475 256.4C130.172 256.929 129.76 257.341 129.24 257.636C128.72 257.931 128.121 258.078 127.445 258.078ZM123.791 260.523V251.107H124.987V252.967L124.909 254.567L125.039 256.166V260.523H123.791ZM127.341 256.986C127.783 256.986 128.178 256.886 128.525 256.686C128.88 256.487 129.157 256.205 129.357 255.841C129.565 255.468 129.669 255.039 129.669 254.554C129.669 254.059 129.565 253.635 129.357 253.279C129.157 252.915 128.88 252.633 128.525 252.434C128.178 252.234 127.783 252.135 127.341 252.135C126.908 252.135 126.513 252.234 126.158 252.434C125.811 252.633 125.533 252.915 125.325 253.279C125.126 253.635 125.026 254.059 125.026 254.554C125.026 255.039 125.126 255.468 125.325 255.841C125.533 256.205 125.811 256.487 126.158 256.686C126.513 256.886 126.908 256.986 127.341 256.986ZM136.871 258V256.543L136.806 256.27V253.786C136.806 253.258 136.65 252.85 136.337 252.564C136.034 252.269 135.574 252.122 134.959 252.122C134.551 252.122 134.153 252.191 133.762 252.33C133.372 252.46 133.043 252.638 132.774 252.863L132.254 251.927C132.609 251.641 133.034 251.424 133.528 251.276C134.031 251.12 134.556 251.042 135.102 251.042C136.047 251.042 136.775 251.272 137.287 251.732C137.798 252.191 138.054 252.893 138.054 253.838V258H136.871ZM134.608 258.078C134.096 258.078 133.645 257.991 133.255 257.818C132.874 257.645 132.579 257.406 132.371 257.103C132.163 256.791 132.059 256.439 132.059 256.049C132.059 255.676 132.145 255.338 132.319 255.035C132.501 254.731 132.791 254.489 133.19 254.307C133.598 254.125 134.144 254.033 134.829 254.033H137.014V254.931H134.881C134.257 254.931 133.836 255.035 133.619 255.243C133.403 255.451 133.294 255.702 133.294 255.997C133.294 256.335 133.429 256.608 133.697 256.817C133.966 257.016 134.339 257.116 134.816 257.116C135.284 257.116 135.691 257.012 136.038 256.804C136.394 256.595 136.65 256.292 136.806 255.893L137.053 256.752C136.888 257.159 136.597 257.484 136.181 257.727C135.765 257.961 135.241 258.078 134.608 258.078ZM143.369 258.078C142.666 258.078 142.038 257.926 141.483 257.623C140.937 257.319 140.508 256.903 140.195 256.374C139.883 255.846 139.727 255.239 139.727 254.554C139.727 253.869 139.883 253.262 140.195 252.733C140.508 252.204 140.937 251.792 141.483 251.498C142.038 251.194 142.666 251.042 143.369 251.042C143.993 251.042 144.548 251.168 145.033 251.419C145.527 251.662 145.909 252.026 146.178 252.512L145.228 253.123C145.003 252.785 144.725 252.538 144.396 252.382C144.075 252.217 143.728 252.135 143.356 252.135C142.905 252.135 142.502 252.234 142.146 252.434C141.791 252.633 141.509 252.915 141.301 253.279C141.093 253.635 140.989 254.059 140.989 254.554C140.989 255.048 141.093 255.477 141.301 255.841C141.509 256.205 141.791 256.487 142.146 256.686C142.502 256.886 142.905 256.986 143.356 256.986C143.728 256.986 144.075 256.908 144.396 256.752C144.725 256.587 145.003 256.335 145.228 255.997L146.178 256.595C145.909 257.072 145.527 257.441 145.033 257.701C144.548 257.952 143.993 258.078 143.369 258.078ZM148.72 256.335L148.746 254.736L152.712 251.107H154.221L151.177 254.099L150.501 254.671L148.72 256.335ZM147.705 258V248.35H148.954V258H147.705ZM152.972 258L150.267 254.645L151.073 253.643L154.507 258H152.972ZM159.871 258V256.543L159.806 256.27V253.786C159.806 253.258 159.65 252.85 159.337 252.564C159.034 252.269 158.574 252.122 157.959 252.122C157.551 252.122 157.153 252.191 156.762 252.33C156.372 252.46 156.043 252.638 155.774 252.863L155.254 251.927C155.609 251.641 156.034 251.424 156.528 251.276C157.031 251.12 157.556 251.042 158.102 251.042C159.047 251.042 159.775 251.272 160.287 251.732C160.798 252.191 161.054 252.893 161.054 253.838V258H159.871ZM157.608 258.078C157.096 258.078 156.645 257.991 156.255 257.818C155.874 257.645 155.579 257.406 155.371 257.103C155.163 256.791 155.059 256.439 155.059 256.049C155.059 255.676 155.145 255.338 155.319 255.035C155.501 254.731 155.791 254.489 156.19 254.307C156.598 254.125 157.144 254.033 157.829 254.033H160.014V254.931H157.881C157.257 254.931 156.836 255.035 156.619 255.243C156.403 255.451 156.294 255.702 156.294 255.997C156.294 256.335 156.429 256.608 156.697 256.817C156.966 257.016 157.339 257.116 157.816 257.116C158.284 257.116 158.691 257.012 159.038 256.804C159.394 256.595 159.65 256.292 159.806 255.893L160.053 256.752C159.888 257.159 159.597 257.484 159.181 257.727C158.765 257.961 158.241 258.078 157.608 258.078ZM166.382 260.601C165.749 260.601 165.133 260.51 164.535 260.328C163.945 260.154 163.464 259.903 163.091 259.574L163.69 258.611C164.01 258.889 164.405 259.105 164.873 259.261C165.341 259.426 165.831 259.509 166.343 259.509C167.158 259.509 167.756 259.318 168.137 258.936C168.519 258.555 168.709 257.974 168.709 257.194V255.737L168.84 254.372L168.775 252.993V251.107H169.958V257.064C169.958 258.277 169.655 259.17 169.048 259.743C168.441 260.315 167.552 260.601 166.382 260.601ZM166.226 257.714C165.558 257.714 164.96 257.575 164.431 257.298C163.911 257.012 163.495 256.617 163.182 256.114C162.879 255.611 162.727 255.031 162.727 254.372C162.727 253.704 162.879 253.123 163.182 252.629C163.495 252.126 163.911 251.736 164.431 251.459C164.96 251.181 165.558 251.042 166.226 251.042C166.815 251.042 167.353 251.164 167.838 251.406C168.324 251.641 168.709 252.005 168.996 252.499C169.29 252.993 169.438 253.617 169.438 254.372C169.438 255.117 169.29 255.737 168.996 256.231C168.709 256.726 168.324 257.098 167.838 257.35C167.353 257.593 166.815 257.714 166.226 257.714ZM166.369 256.621C166.828 256.621 167.236 256.526 167.591 256.335C167.947 256.145 168.224 255.88 168.423 255.542C168.631 255.204 168.736 254.814 168.736 254.372C168.736 253.929 168.631 253.539 168.423 253.201C168.224 252.863 167.947 252.603 167.591 252.421C167.236 252.23 166.828 252.135 166.369 252.135C165.909 252.135 165.497 252.23 165.133 252.421C164.778 252.603 164.496 252.863 164.288 253.201C164.088 253.539 163.989 253.929 163.989 254.372C163.989 254.814 164.088 255.204 164.288 255.542C164.496 255.88 164.778 256.145 165.133 256.335C165.497 256.526 165.909 256.621 166.369 256.621ZM172.343 258V251.107H173.592V258H172.343ZM172.968 249.781C172.725 249.781 172.521 249.703 172.356 249.547C172.2 249.391 172.122 249.2 172.122 248.975C172.122 248.74 172.2 248.545 172.356 248.389C172.521 248.233 172.725 248.155 172.968 248.155C173.21 248.155 173.41 248.233 173.566 248.389C173.731 248.537 173.813 248.723 173.813 248.949C173.813 249.183 173.735 249.382 173.579 249.547C173.423 249.703 173.219 249.781 172.968 249.781ZM179.656 251.042C180.22 251.042 180.714 251.151 181.139 251.367C181.572 251.584 181.91 251.914 182.153 252.356C182.396 252.798 182.517 253.357 182.517 254.033V258H181.269V254.177C181.269 253.509 181.104 253.006 180.775 252.668C180.454 252.33 179.999 252.161 179.409 252.161C178.967 252.161 178.581 252.247 178.252 252.421C177.922 252.594 177.666 252.85 177.484 253.188C177.311 253.526 177.224 253.947 177.224 254.45V258H175.976V251.107H177.172V252.967L176.977 252.473C177.203 252.022 177.549 251.671 178.017 251.419C178.486 251.168 179.032 251.042 179.656 251.042ZM187.845 260.601C187.212 260.601 186.596 260.51 185.998 260.328C185.409 260.154 184.927 259.903 184.555 259.574L185.153 258.611C185.474 258.889 185.868 259.105 186.336 259.261C186.804 259.426 187.294 259.509 187.806 259.509C188.621 259.509 189.219 259.318 189.601 258.936C189.982 258.555 190.173 257.974 190.173 257.194V255.737L190.303 254.372L190.238 252.993V251.107H191.421V257.064C191.421 258.277 191.118 259.17 190.511 259.743C189.904 260.315 189.015 260.601 187.845 260.601ZM187.689 257.714C187.021 257.714 186.423 257.575 185.894 257.298C185.374 257.012 184.958 256.617 184.646 256.114C184.342 255.611 184.19 255.031 184.19 254.372C184.19 253.704 184.342 253.123 184.646 252.629C184.958 252.126 185.374 251.736 185.894 251.459C186.423 251.181 187.021 251.042 187.689 251.042C188.278 251.042 188.816 251.164 189.301 251.406C189.787 251.641 190.173 252.005 190.459 252.499C190.754 252.993 190.901 253.617 190.901 254.372C190.901 255.117 190.754 255.737 190.459 256.231C190.173 256.726 189.787 257.098 189.301 257.35C188.816 257.593 188.278 257.714 187.689 257.714ZM187.832 256.621C188.291 256.621 188.699 256.526 189.054 256.335C189.41 256.145 189.687 255.88 189.887 255.542C190.095 255.204 190.199 254.814 190.199 254.372C190.199 253.929 190.095 253.539 189.887 253.201C189.687 252.863 189.41 252.603 189.054 252.421C188.699 252.23 188.291 252.135 187.832 252.135C187.372 252.135 186.961 252.23 186.596 252.421C186.241 252.603 185.959 252.863 185.751 253.201C185.552 253.539 185.452 253.929 185.452 254.372C185.452 254.814 185.552 255.204 185.751 255.542C185.959 255.88 186.241 256.145 186.596 256.335C186.961 256.526 187.372 256.621 187.832 256.621ZM194.106 258.078C193.863 258.078 193.655 257.996 193.482 257.831C193.308 257.658 193.222 257.441 193.222 257.181C193.222 256.921 193.308 256.708 193.482 256.543C193.655 256.379 193.863 256.296 194.106 256.296C194.34 256.296 194.539 256.379 194.704 256.543C194.877 256.708 194.964 256.921 194.964 257.181C194.964 257.441 194.877 257.658 194.704 257.831C194.539 257.996 194.34 258.078 194.106 258.078Z" fill="black"/>
<defs>
<linearGradient id="paint0_linear_2039_602" x1="103.948" y1="165.097" x2="103.948" y2="12.2422" gradientUnits="userSpaceOnUse">
<stop offset="0.906845" stop-color="#FFF4EA"/>
</linearGradient>
<linearGradient id="paint1_linear_2039_602" x1="103.948" y1="286.736" x2="103.948" y2="297.501" gradientUnits="userSpaceOnUse">
<stop offset="0.365385" stop-color="#D09E3A"/>
<stop offset="1" stop-color="white"/>
</linearGradient>
</defs>
</svg>
