<svg width="321" height="18" viewBox="0 0 321 18" fill="none" xmlns="http://www.w3.org/2000/svg">
<path d="M-0.000187397 17.0879V0.287889H3.88781V17.0879H-0.000187397ZM7.87481 17.0879V0.287889H11.0908L18.2428 12.1439H16.5388L23.5708 0.287889H26.7628L26.8108 17.0879H23.1628L23.1388 5.87989H23.8108L18.1948 15.3119H16.4428L10.7068 5.87989H11.5228V17.0879H7.87481ZM30.7967 17.0879V0.287889H34.6847V13.9199H43.1087V17.0879H30.7967ZM52.0779 17.0879V0.287889H60.2859C62.3979 0.287889 63.9819 0.68789 65.0379 1.48789C66.1099 2.28789 66.6459 3.34389 66.6459 4.65589C66.6459 5.53589 66.4299 6.30389 65.9979 6.95989C65.5659 7.59989 64.9739 8.09589 64.2219 8.44789C63.4699 8.79989 62.6059 8.97589 61.6299 8.97589L62.0859 7.99189C63.1419 7.99189 64.0779 8.16789 64.8939 8.51989C65.7099 8.85589 66.3419 9.35989 66.7899 10.0319C67.2539 10.7039 67.4859 11.5279 67.4859 12.5039C67.4859 13.9439 66.9179 15.0719 65.7819 15.8879C64.6459 16.6879 62.9739 17.0879 60.7659 17.0879H52.0779ZM55.9419 14.1599H60.4779C61.4859 14.1599 62.2459 13.9999 62.7579 13.6799C63.2859 13.3439 63.5499 12.8159 63.5499 12.0959C63.5499 11.3919 63.2859 10.8719 62.7579 10.5359C62.2459 10.1839 61.4859 10.0079 60.4779 10.0079H55.6539V7.17589H59.8059C60.7499 7.17589 61.4699 7.01589 61.9659 6.69589C62.4779 6.35989 62.7339 5.85589 62.7339 5.18389C62.7339 4.52789 62.4779 4.03989 61.9659 3.71989C61.4699 3.38389 60.7499 3.21589 59.8059 3.21589H55.9419V14.1599ZM70.4295 17.0879V0.287889H74.3175V17.0879H70.4295ZM78.3045 17.0879V0.287889H85.5765C87.0805 0.287889 88.3765 0.53589 89.4645 1.03189C90.5525 1.51189 91.3925 2.20789 91.9845 3.11989C92.5765 4.03189 92.8725 5.11989 92.8725 6.38389C92.8725 7.63189 92.5765 8.71189 91.9845 9.62389C91.3925 10.5199 90.5525 11.2079 89.4645 11.6879C88.3765 12.1679 87.0805 12.4079 85.5765 12.4079H80.4645L82.1925 10.7039V17.0879H78.3045ZM88.9845 17.0879L84.7845 10.9919H88.9365L93.1845 17.0879H88.9845ZM82.1925 11.1359L80.4645 9.31189H85.3605C86.5605 9.31189 87.4565 9.05589 88.0485 8.54389C88.6405 8.01589 88.9365 7.29589 88.9365 6.38389C88.9365 5.45589 88.6405 4.73589 88.0485 4.22389C87.4565 3.71189 86.5605 3.45589 85.3605 3.45589H80.4645L82.1925 1.60789V11.1359ZM95.9529 17.0879V0.287889H99.8409V17.0879H95.9529ZM108.004 17.0879V10.2239L108.892 12.5759L101.5 0.287889H105.628L111.292 9.71989H108.916L114.604 0.287889H118.42L111.028 12.5759L111.892 10.2239V17.0879H108.004ZM116.807 17.0879L124.295 0.287889H128.135L135.647 17.0879H131.567L125.423 2.25589H126.959L120.791 17.0879H116.807ZM120.551 13.4879L121.583 10.5359H130.223L131.279 13.4879H120.551ZM137.39 17.0879V0.287889H140.606L150.518 12.3839H148.958V0.287889H152.798V17.0879H149.606L139.67 4.99189H141.23V17.0879H137.39ZM156.773 17.0879V0.287889H160.661V17.0879H156.773ZM171.445 17.0879V0.287889H178.717C180.221 0.287889 181.517 0.53589 182.605 1.03189C183.693 1.51189 184.533 2.20789 185.125 3.11989C185.717 4.03189 186.013 5.11989 186.013 6.38389C186.013 7.63189 185.717 8.71189 185.125 9.62389C184.533 10.5199 183.693 11.2079 182.605 11.6879C181.517 12.1679 180.221 12.4079 178.717 12.4079H173.605L175.333 10.7039V17.0879H171.445ZM182.125 17.0879L177.925 10.9919H182.077L186.325 17.0879H182.125ZM175.333 11.1359L173.605 9.31189H178.501C179.701 9.31189 180.597 9.05589 181.189 8.54389C181.781 8.01589 182.077 7.29589 182.077 6.38389C182.077 5.45589 181.781 4.73589 181.189 4.22389C180.597 3.71189 179.701 3.45589 178.501 3.45589H173.605L175.333 1.60789V11.1359ZM192.67 7.05589H200.758V10.0799H192.67V7.05589ZM192.958 13.9679H202.102V17.0879H189.094V0.287889H201.79V3.40789H192.958V13.9679ZM213.235 17.3759C211.939 17.3759 210.731 17.1679 209.611 16.7519C208.507 16.3199 207.547 15.7119 206.731 14.9279C205.915 14.1439 205.275 13.2239 204.811 12.1679C204.363 11.1119 204.139 9.95189 204.139 8.68789C204.139 7.42389 204.363 6.26389 204.811 5.20789C205.275 4.15189 205.915 3.23189 206.731 2.44789C207.563 1.66389 208.531 1.06389 209.635 0.647889C210.739 0.21589 211.947 -0.000109673 213.259 -0.000109673C214.715 -0.000109673 216.027 0.25589 217.195 0.76789C218.379 1.26389 219.371 1.99989 220.171 2.97589L217.675 5.27989C217.099 4.62389 216.459 4.13589 215.755 3.81589C215.051 3.47989 214.283 3.31189 213.451 3.31189C212.667 3.31189 211.947 3.43989 211.291 3.69589C210.635 3.95189 210.067 4.31989 209.587 4.79989C209.107 5.27989 208.731 5.84789 208.459 6.50389C208.203 7.15989 208.075 7.88789 208.075 8.68789C208.075 9.48789 208.203 10.2159 208.459 10.8719C208.731 11.5279 209.107 12.0959 209.587 12.5759C210.067 13.0559 210.635 13.4239 211.291 13.6799C211.947 13.9359 212.667 14.0639 213.451 14.0639C214.283 14.0639 215.051 13.9039 215.755 13.5839C216.459 13.2479 217.099 12.7439 217.675 12.0719L220.171 14.3759C219.371 15.3519 218.379 16.0959 217.195 16.6079C216.027 17.1199 214.707 17.3759 213.235 17.3759ZM226.113 17.0879V3.45589H220.737V0.287889H235.377V3.45589H230.001V17.0879H226.113ZM234.417 17.0879L241.905 0.287889H245.745L253.257 17.0879H249.177L243.033 2.25589H244.569L238.401 17.0879H234.417ZM238.161 13.4879L239.193 10.5359H247.833L248.889 13.4879H238.161ZM255 17.0879V0.287889H258.216L268.128 12.3839H266.568V0.287889H270.408V17.0879H267.216L257.28 4.99189H258.84V17.0879H255ZM282.495 17.3759C281.167 17.3759 279.943 17.1679 278.823 16.7519C277.719 16.3199 276.751 15.7119 275.919 14.9279C275.103 14.1439 274.463 13.2239 273.999 12.1679C273.551 11.1119 273.327 9.95189 273.327 8.68789C273.327 7.42389 273.551 6.26389 273.999 5.20789C274.463 4.15189 275.111 3.23189 275.943 2.44789C276.775 1.66389 277.751 1.06389 278.871 0.647889C279.991 0.21589 281.223 -0.000109673 282.567 -0.000109673C284.055 -0.000109673 285.391 0.24789 286.575 0.743889C287.775 1.23989 288.783 1.95989 289.599 2.90389L287.103 5.20789C286.495 4.56789 285.831 4.09589 285.111 3.79189C284.391 3.47189 283.607 3.31189 282.759 3.31189C281.943 3.31189 281.199 3.43989 280.527 3.69589C279.855 3.95189 279.271 4.31989 278.775 4.79989C278.295 5.27989 277.919 5.84789 277.647 6.50389C277.391 7.15989 277.263 7.88789 277.263 8.68789C277.263 9.47189 277.391 10.1919 277.647 10.8479C277.919 11.5039 278.295 12.0799 278.775 12.5759C279.271 13.0559 279.847 13.4239 280.503 13.6799C281.175 13.9359 281.911 14.0639 282.711 14.0639C283.479 14.0639 284.223 13.9439 284.943 13.7039C285.679 13.4479 286.391 13.0239 287.079 12.4319L289.287 15.2399C288.375 15.9279 287.311 16.4559 286.095 16.8239C284.895 17.1919 283.695 17.3759 282.495 17.3759ZM285.735 14.7359V8.42389H289.287V15.2399L285.735 14.7359ZM292.898 17.0879V0.287889H296.786V13.9199H305.21V17.0879H292.898ZM310.959 7.05589H319.047V10.0799H310.959V7.05589ZM311.247 13.9679H320.391V17.0879H307.383V0.287889H320.079V3.40789H311.247V13.9679Z" fill="black"/>
</svg>
