<svg width="122" height="24" viewBox="0 0 122 24" fill="none" xmlns="http://www.w3.org/2000/svg">
<path d="M8.54423 23.1682C6.98689 23.1682 5.44023 22.9655 3.90423 22.5602C2.36823 22.1335 1.06689 21.5362 0.000226561 20.7682L2.01623 16.8002C2.86956 17.4188 3.86156 17.9095 4.99223 18.2722C6.12289 18.6348 7.26423 18.8162 8.41623 18.8162C9.71756 18.8162 10.7416 18.5602 11.4882 18.0482C12.2349 17.5362 12.6082 16.8322 12.6082 15.9362C12.6082 15.0828 12.2776 14.4108 11.6162 13.9202C10.9549 13.4295 9.88823 13.1842 8.41623 13.1842H6.04823V9.76018L12.2882 2.68818L12.8642 4.54418H1.12023V0.384178H16.8002V3.74418L10.5922 10.8162L7.96823 9.31218H9.47223C12.2242 9.31218 14.3042 9.93085 15.7122 11.1682C17.1202 12.4055 17.8242 13.9948 17.8242 15.9362C17.8242 17.1948 17.4936 18.3788 16.8322 19.4882C16.1709 20.5762 15.1576 21.4615 13.7922 22.1442C12.4269 22.8268 10.6776 23.1682 8.54423 23.1682ZM29.8177 23.1682C27.9831 23.1682 26.3404 22.7202 24.8897 21.8242C23.4391 20.9068 22.2977 19.5842 21.4657 17.8562C20.6337 16.1282 20.2177 14.0375 20.2177 11.5842C20.2177 9.13085 20.6337 7.04018 21.4657 5.31218C22.2977 3.58418 23.4391 2.27218 24.8897 1.37618C26.3404 0.458846 27.9831 0.000179291 29.8177 0.000179291C31.6737 0.000179291 33.3164 0.458846 34.7457 1.37618C36.1964 2.27218 37.3377 3.58418 38.1697 5.31218C39.0017 7.04018 39.4177 9.13085 39.4177 11.5842C39.4177 14.0375 39.0017 16.1282 38.1697 17.8562C37.3377 19.5842 36.1964 20.9068 34.7457 21.8242C33.3164 22.7202 31.6737 23.1682 29.8177 23.1682ZM29.8177 18.7842C30.6924 18.7842 31.4497 18.5388 32.0897 18.0482C32.7511 17.5575 33.2631 16.7788 33.6257 15.7122C34.0097 14.6455 34.2017 13.2695 34.2017 11.5842C34.2017 9.89885 34.0097 8.52285 33.6257 7.45618C33.2631 6.38951 32.7511 5.61084 32.0897 5.12018C31.4497 4.62951 30.6924 4.38418 29.8177 4.38418C28.9644 4.38418 28.2071 4.62951 27.5457 5.12018C26.9057 5.61084 26.3937 6.38951 26.0097 7.45618C25.6471 8.52285 25.4657 9.89885 25.4657 11.5842C25.4657 13.2695 25.6471 14.6455 26.0097 15.7122C26.3937 16.7788 26.9057 17.5575 27.5457 18.0482C28.2071 18.5388 28.9644 18.7842 29.8177 18.7842ZM51.5365 23.1682C49.7018 23.1682 48.0591 22.7202 46.6085 21.8242C45.1578 20.9068 44.0165 19.5842 43.1845 17.8562C42.3525 16.1282 41.9365 14.0375 41.9365 11.5842C41.9365 9.13085 42.3525 7.04018 43.1845 5.31218C44.0165 3.58418 45.1578 2.27218 46.6085 1.37618C48.0591 0.458846 49.7018 0.000179291 51.5365 0.000179291C53.3925 0.000179291 55.0351 0.458846 56.4645 1.37618C57.9151 2.27218 59.0565 3.58418 59.8885 5.31218C60.7205 7.04018 61.1365 9.13085 61.1365 11.5842C61.1365 14.0375 60.7205 16.1282 59.8885 17.8562C59.0565 19.5842 57.9151 20.9068 56.4645 21.8242C55.0351 22.7202 53.3925 23.1682 51.5365 23.1682ZM51.5365 18.7842C52.4111 18.7842 53.1685 18.5388 53.8085 18.0482C54.4698 17.5575 54.9818 16.7788 55.3445 15.7122C55.7285 14.6455 55.9205 13.2695 55.9205 11.5842C55.9205 9.89885 55.7285 8.52285 55.3445 7.45618C54.9818 6.38951 54.4698 5.61084 53.8085 5.12018C53.1685 4.62951 52.4111 4.38418 51.5365 4.38418C50.6831 4.38418 49.9258 4.62951 49.2645 5.12018C48.6245 5.61084 48.1125 6.38951 47.7285 7.45618C47.3658 8.52285 47.1845 9.89885 47.1845 11.5842C47.1845 13.2695 47.3658 14.6455 47.7285 15.7122C48.1125 16.7788 48.6245 17.5575 49.2645 18.0482C49.9258 18.5388 50.6831 18.7842 51.5365 18.7842ZM74.1257 22.7842V0.384178H78.4137L87.9497 16.1922H85.6777L95.0537 0.384178H99.3097L99.3737 22.7842H94.5097L94.4777 7.84018H95.3737L87.8857 20.4162H85.5497L77.9017 7.84018H78.9897V22.7842H74.1257ZM104.688 22.7842V0.384178H109.872V18.5602H121.104V22.7842H104.688Z" fill="black"/>
</svg>
