<svg width="75" height="33" viewBox="0 0 75 33" fill="none" xmlns="http://www.w3.org/2000/svg">
<path d="M0 7C0 4.79086 1.79086 3 4 3H14C21.1797 3 27 8.8203 27 16V26C27 28.2091 25.2091 30 23 30H4C1.79086 30 0 28.2091 0 26V7Z" fill="white"/>
<path d="M17.0633 22.8094C17.2157 21.2034 18.815 8.91797 18.815 8.91797C14.6648 9.69714 12.3113 9.65407 8.07617 8.99827C8.07617 8.99827 9.52336 20.9625 9.82794 22.8094C10.1325 24.6562 16.9109 24.4153 17.0633 22.8094Z" stroke="black" stroke-width="0.153412"/>
<path d="M19.0059 7.76635C19.057 7.81749 19.236 7.88908 19.236 8.07318C19.3894 8.14988 19.5 8.30329 19.5 8.45671C19.5 8.57944 19.0398 8.76353 18.8096 8.84024C17.2244 9.30047 12.8573 9.96014 8.07082 8.91694C7.764 8.79421 7.58502 8.55898 7.53388 8.45671C7.50831 8.38 7.47252 8.21125 7.53388 8.14988C7.59525 8.08852 7.66171 8.02204 7.68727 7.99647L7.84068 7.61294C7.81511 7.58737 8.25454 7.5 8.5 7.5" stroke="black" stroke-width="0.153412"/>
<path d="M14.4014 7.07715C14.9085 7.07715 16.0753 7.09943 17.1143 7.20703C17.6343 7.2609 18.1183 7.33586 18.4707 7.43848C18.6475 7.48995 18.7863 7.54683 18.8789 7.6084C18.9725 7.6707 19.0037 7.72649 19.0039 7.77344C19.0039 7.85506 18.9394 7.94791 18.7695 8.04492C18.6038 8.1395 18.3604 8.22533 18.0566 8.30078C17.4505 8.45133 16.6238 8.55744 15.748 8.62793C13.9959 8.76893 12.0638 8.76417 11.3418 8.6875C10.8389 8.63408 9.97969 8.50332 9.2373 8.32812C8.86561 8.2404 8.52619 8.14194 8.27637 8.03809C8.15119 7.98605 8.05146 7.93465 7.98242 7.88379C7.91638 7.83513 7.89026 7.7952 7.88281 7.76758C7.88478 7.75366 7.89274 7.73427 7.91992 7.70898C7.95215 7.67906 8.00369 7.64654 8.07715 7.61426C8.22382 7.54985 8.43933 7.49141 8.70703 7.43945C9.2414 7.33576 9.96731 7.26097 10.7275 7.20703C12.2471 7.09922 13.894 7.07715 14.4014 7.07715Z" stroke="black" stroke-width="0.153412"/>
<path d="M21.0884 27.1939C21.1372 27.145 21.1372 27.0659 21.0884 27.0171L20.2929 26.2216C20.2441 26.1728 20.1649 26.1728 20.1161 26.2216C20.0673 26.2704 20.0673 26.3495 20.1161 26.3984L20.8232 27.1055L20.1161 27.8126C20.0673 27.8614 20.0673 27.9405 20.1161 27.9894C20.1649 28.0382 20.2441 28.0382 20.2929 27.9894L21.0884 27.1939ZM5.91161 27.0171C5.8628 27.0659 5.8628 27.145 5.91161 27.1939L6.70711 27.9894C6.75592 28.0382 6.83507 28.0382 6.88388 27.9894C6.9327 27.9405 6.9327 27.8614 6.88388 27.8126L6.17678 27.1055L6.88388 26.3984C6.9327 26.3495 6.9327 26.2704 6.88388 26.2216C6.83507 26.1728 6.75592 26.1728 6.70711 26.2216L5.91161 27.0171ZM21 27.1055V26.9805L6 26.9805V27.1055V27.2305L21 27.2305V27.1055Z" fill="black"/>
<path d="M33.924 12.2773V3.81734H37.62C38.508 3.81734 39.196 4.01334 39.684 4.40534C40.172 4.78934 40.416 5.32534 40.416 6.01334C40.416 6.52534 40.268 6.95734 39.972 7.30934C39.676 7.66134 39.272 7.89734 38.76 8.01734V7.83734C39.152 7.89334 39.488 8.01334 39.768 8.19734C40.048 8.38134 40.26 8.61734 40.404 8.90534C40.556 9.19334 40.632 9.52934 40.632 9.91334C40.632 10.4093 40.516 10.8373 40.284 11.1973C40.06 11.5493 39.732 11.8173 39.3 12.0013C38.868 12.1853 38.352 12.2773 37.752 12.2773H33.924ZM35.4 11.1133H37.56C37.776 11.1133 37.968 11.0973 38.136 11.0653C38.312 11.0333 38.46 10.9853 38.58 10.9213C38.708 10.8493 38.812 10.7613 38.892 10.6573C38.98 10.5533 39.044 10.4333 39.084 10.2973C39.124 10.1613 39.144 10.0093 39.144 9.84134C39.144 9.66534 39.124 9.50934 39.084 9.37334C39.044 9.23734 38.98 9.12134 38.892 9.02534C38.812 8.92134 38.708 8.83734 38.58 8.77334C38.46 8.70134 38.312 8.64934 38.136 8.61734C37.968 8.58534 37.776 8.56934 37.56 8.56934H35.4V11.1133ZM35.4 7.40534H37.356C37.884 7.40534 38.276 7.30534 38.532 7.10534C38.796 6.89734 38.928 6.59334 38.928 6.19334C38.928 5.79334 38.796 5.49334 38.532 5.29334C38.276 5.08534 37.884 4.98134 37.356 4.98134H35.4V7.40534ZM44.7177 12.3973C44.1097 12.3973 43.5817 12.2733 43.1337 12.0253C42.6857 11.7773 42.3377 11.4253 42.0897 10.9693C41.8417 10.5053 41.7177 9.96134 41.7177 9.33734C41.7177 8.71334 41.8417 8.17334 42.0897 7.71734C42.3377 7.26134 42.6857 6.90934 43.1337 6.66134C43.5817 6.41334 44.1097 6.28934 44.7177 6.28934C45.3257 6.28934 45.8537 6.41334 46.3017 6.66134C46.7497 6.90934 47.0977 7.26134 47.3457 7.71734C47.5937 8.17334 47.7177 8.71334 47.7177 9.33734C47.7177 9.96134 47.5937 10.5053 47.3457 10.9693C47.0977 11.4253 46.7497 11.7773 46.3017 12.0253C45.8537 12.2733 45.3257 12.3973 44.7177 12.3973ZM44.7177 11.2573C45.1657 11.2573 45.5257 11.0973 45.7977 10.7773C46.0697 10.4493 46.2057 9.96934 46.2057 9.33734C46.2057 8.69734 46.0697 8.22134 45.7977 7.90934C45.5257 7.58934 45.1657 7.42934 44.7177 7.42934C44.2697 7.42934 43.9097 7.58934 43.6377 7.90934C43.3657 8.22134 43.2297 8.69734 43.2297 9.33734C43.2297 9.96934 43.3657 10.4493 43.6377 10.7773C43.9097 11.0973 44.2697 11.2573 44.7177 11.2573ZM51.5852 12.3973C50.8012 12.3973 50.2172 12.2013 49.8332 11.8093C49.4492 11.4173 49.2572 10.8453 49.2572 10.0933V7.53734H48.1292V6.40934H49.2572V4.65734H50.7572V6.40934H52.5332V7.53734H50.7572V10.0093C50.7572 10.3933 50.8412 10.6813 51.0092 10.8733C51.1772 11.0653 51.4492 11.1613 51.8252 11.1613C51.9372 11.1613 52.0532 11.1493 52.1732 11.1253C52.2932 11.0933 52.4172 11.0613 52.5452 11.0293L52.7732 12.1333C52.6292 12.2133 52.4452 12.2773 52.2212 12.3253C52.0052 12.3733 51.7932 12.3973 51.5852 12.3973ZM55.8508 12.3973C55.0668 12.3973 54.4828 12.2013 54.0988 11.8093C53.7148 11.4173 53.5228 10.8453 53.5228 10.0933V7.53734H52.3948V6.40934H53.5228V4.65734H55.0228V6.40934H56.7988V7.53734H55.0228V10.0093C55.0228 10.3933 55.1068 10.6813 55.2748 10.8733C55.4428 11.0653 55.7148 11.1613 56.0908 11.1613C56.2028 11.1613 56.3188 11.1493 56.4388 11.1253C56.5588 11.0933 56.6828 11.0613 56.8108 11.0293L57.0388 12.1333C56.8948 12.2133 56.7108 12.2773 56.4868 12.3253C56.2708 12.3733 56.0588 12.3973 55.8508 12.3973ZM60.3857 12.3973C59.7777 12.3973 59.2497 12.2733 58.8017 12.0253C58.3537 11.7773 58.0057 11.4253 57.7577 10.9693C57.5097 10.5053 57.3857 9.96134 57.3857 9.33734C57.3857 8.71334 57.5097 8.17334 57.7577 7.71734C58.0057 7.26134 58.3537 6.90934 58.8017 6.66134C59.2497 6.41334 59.7777 6.28934 60.3857 6.28934C60.9937 6.28934 61.5217 6.41334 61.9697 6.66134C62.4177 6.90934 62.7657 7.26134 63.0137 7.71734C63.2617 8.17334 63.3857 8.71334 63.3857 9.33734C63.3857 9.96134 63.2617 10.5053 63.0137 10.9693C62.7657 11.4253 62.4177 11.7773 61.9697 12.0253C61.5217 12.2733 60.9937 12.3973 60.3857 12.3973ZM60.3857 11.2573C60.8337 11.2573 61.1937 11.0973 61.4657 10.7773C61.7377 10.4493 61.8737 9.96934 61.8737 9.33734C61.8737 8.69734 61.7377 8.22134 61.4657 7.90934C61.1937 7.58934 60.8337 7.42934 60.3857 7.42934C59.9377 7.42934 59.5777 7.58934 59.3057 7.90934C59.0337 8.22134 58.8977 8.69734 58.8977 9.33734C58.8977 9.96934 59.0337 10.4493 59.3057 10.7773C59.5777 11.0973 59.9377 11.2573 60.3857 11.2573ZM64.6478 12.2773V6.40934H66.1118V7.58534H65.9798C66.0838 7.31334 66.2278 7.08134 66.4118 6.88934C66.5958 6.69734 66.8158 6.54934 67.0718 6.44534C67.3278 6.34134 67.6118 6.28934 67.9238 6.28934C68.3958 6.28934 68.7838 6.40134 69.0878 6.62534C69.3918 6.84934 69.6038 7.19334 69.7238 7.65734H69.5558C69.7158 7.23334 69.9798 6.90134 70.3478 6.66134C70.7158 6.41334 71.1398 6.28934 71.6198 6.28934C72.0678 6.28934 72.4358 6.37734 72.7238 6.55334C73.0198 6.72934 73.2398 6.99734 73.3838 7.35734C73.5278 7.70934 73.5998 8.15734 73.5998 8.70134V12.2773H72.0998V8.76134C72.0998 8.31334 72.0238 7.98534 71.8718 7.77734C71.7278 7.56934 71.4798 7.46534 71.1278 7.46534C70.8718 7.46534 70.6478 7.52934 70.4557 7.65734C70.2638 7.77734 70.1158 7.95334 70.0117 8.18534C69.9158 8.41734 69.8678 8.69734 69.8678 9.02534V12.2773H68.3678V8.76134C68.3678 8.31334 68.2918 7.98534 68.1398 7.77734C67.9958 7.56934 67.7518 7.46534 67.4078 7.46534C67.1438 7.46534 66.9158 7.52934 66.7238 7.65734C66.5398 7.77734 66.3958 7.95334 66.2918 8.18534C66.1958 8.41734 66.1478 8.69734 66.1478 9.02534V12.2773H64.6478Z" fill="#CF4747"/>
<path d="M36.12 28.8117C35.8133 28.8117 35.5167 28.7783 35.23 28.7117C34.9433 28.645 34.6767 28.5483 34.43 28.4217C34.1833 28.295 33.9633 28.1417 33.77 27.9617L34.1 27.2817C34.4133 27.5483 34.7333 27.745 35.06 27.8717C35.3867 27.9983 35.7367 28.0617 36.11 28.0617C36.6033 28.0617 36.9867 27.9283 37.26 27.6617C37.54 27.395 37.68 27.035 37.68 26.5817C37.68 26.1217 37.5467 25.7483 37.28 25.4617C37.02 25.175 36.66 25.0317 36.2 25.0317C35.8733 25.0317 35.5833 25.0983 35.33 25.2317C35.0767 25.3583 34.8467 25.5683 34.64 25.8617H33.99V21.6717H38.14V22.4117H34.8V25.1317H34.66C34.8333 24.8783 35.0633 24.6783 35.35 24.5317C35.6433 24.3783 35.9733 24.3017 36.34 24.3017C36.7867 24.3017 37.1733 24.395 37.5 24.5817C37.8267 24.7683 38.0767 25.0283 38.25 25.3617C38.43 25.695 38.52 26.085 38.52 26.5317C38.52 26.9917 38.42 27.3917 38.22 27.7317C38.0267 28.0717 37.75 28.3383 37.39 28.5317C37.0367 28.7183 36.6133 28.8117 36.12 28.8117ZM39.8561 28.7217V28.0817L42.2961 25.4817C42.5294 25.2283 42.7161 24.9983 42.8561 24.7917C42.9961 24.5783 43.0961 24.3717 43.1561 24.1717C43.2161 23.9717 43.2461 23.7683 43.2461 23.5617C43.2461 23.1683 43.1228 22.865 42.8761 22.6517C42.6361 22.4383 42.2861 22.3317 41.8261 22.3317C41.4861 22.3317 41.1561 22.3983 40.8361 22.5317C40.5161 22.6583 40.2161 22.8617 39.9361 23.1417L39.6061 22.4717C39.8861 22.1983 40.2261 21.9817 40.6261 21.8217C41.0328 21.6617 41.4561 21.5817 41.8961 21.5817C42.3628 21.5817 42.7594 21.6583 43.0861 21.8117C43.4194 21.965 43.6728 22.185 43.8461 22.4717C44.0194 22.7583 44.1061 23.1017 44.1061 23.5017C44.1061 23.715 44.0794 23.9217 44.0261 24.1217C43.9794 24.3217 43.9061 24.5217 43.8061 24.7217C43.7061 24.9217 43.5761 25.1283 43.4161 25.3417C43.2628 25.5483 43.0794 25.7617 42.8661 25.9817L40.8261 28.1217V27.9817H44.3961V28.7217H39.8561ZM48.508 28.7217V23.8217H49.318V24.9017H49.258C49.3446 24.6683 49.4646 24.465 49.618 24.2917C49.778 24.1117 49.968 23.975 50.188 23.8817C50.408 23.7817 50.6513 23.7317 50.918 23.7317C51.338 23.7317 51.6813 23.835 51.948 24.0417C52.2146 24.2483 52.388 24.5383 52.468 24.9117H52.388C52.5146 24.565 52.728 24.2817 53.028 24.0617C53.328 23.8417 53.6913 23.7317 54.118 23.7317C54.4913 23.7317 54.8013 23.805 55.048 23.9517C55.2946 24.0917 55.4813 24.305 55.608 24.5917C55.7346 24.8783 55.798 25.2417 55.798 25.6817V28.7217H54.958V25.7317C54.958 25.2983 54.878 24.975 54.718 24.7617C54.5646 24.5483 54.298 24.4417 53.918 24.4417C53.6446 24.4417 53.4046 24.5083 53.198 24.6417C52.998 24.7683 52.8446 24.945 52.738 25.1717C52.6313 25.3983 52.578 25.665 52.578 25.9717V28.7217H51.728V25.7317C51.728 25.2983 51.6446 24.975 51.478 24.7617C51.318 24.5483 51.058 24.4417 50.698 24.4417C50.4246 24.4417 50.1846 24.5083 49.978 24.6417C49.778 24.775 49.6246 24.9583 49.518 25.1917C49.4113 25.4183 49.358 25.6717 49.358 25.9517V28.7217H48.508ZM57.4533 28.7217V23.8217H58.2633V24.9017H58.2033C58.2899 24.6683 58.4099 24.465 58.5633 24.2917C58.7233 24.1117 58.9133 23.975 59.1333 23.8817C59.3533 23.7817 59.5966 23.7317 59.8633 23.7317C60.2833 23.7317 60.6266 23.835 60.8933 24.0417C61.1599 24.2483 61.3333 24.5383 61.4133 24.9117H61.3333C61.4599 24.565 61.6733 24.2817 61.9733 24.0617C62.2733 23.8417 62.6366 23.7317 63.0633 23.7317C63.4366 23.7317 63.7466 23.805 63.9933 23.9517C64.2399 24.0917 64.4266 24.305 64.5533 24.5917C64.6799 24.8783 64.7433 25.2417 64.7433 25.6817V28.7217H63.9033V25.7317C63.9033 25.2983 63.8233 24.975 63.6633 24.7617C63.5099 24.5483 63.2433 24.4417 62.8633 24.4417C62.5899 24.4417 62.3499 24.5083 62.1433 24.6417C61.9433 24.7683 61.7899 24.945 61.6833 25.1717C61.5766 25.3983 61.5233 25.665 61.5233 25.9717V28.7217H60.6733V25.7317C60.6733 25.2983 60.5899 24.975 60.4233 24.7617C60.2633 24.5483 60.0033 24.4417 59.6433 24.4417C59.3699 24.4417 59.1299 24.5083 58.9233 24.6417C58.7233 24.775 58.5699 24.9583 58.4633 25.1917C58.3566 25.4183 58.3033 25.6717 58.3033 25.9517V28.7217H57.4533Z" fill="black"/>
</svg>
