<svg width="161" height="29" viewBox="0 0 161 29" fill="none" xmlns="http://www.w3.org/2000/svg">
<rect x="0.5" y="0.5" width="160" height="28" rx="14" stroke="white"/>
<path d="M9.55641 19V9.99641H11.6401V19H9.55641ZM13.7768 19V9.99641H15.5004L19.3333 16.3504H18.4201L22.1888 9.99641H23.8995L23.9252 19H21.9701L21.9572 12.9933H22.3174L19.3076 18.0482H18.3687L15.2946 12.9933H15.7319V19H13.7768ZM26.0613 19V9.99641H28.145V17.3022H32.6597V19H26.0613ZM37.4665 19V9.99641H39.1901L43.023 16.3504H42.1098L45.8785 9.99641H47.5892L47.6149 19H45.6598L45.6469 12.9933H46.0071L42.9973 18.0482H42.0584L38.9843 12.9933H39.4216V19H37.4665ZM54.1242 19.1543C53.4125 19.1543 52.7522 19.0386 52.1434 18.8071C51.5432 18.5755 51.0201 18.2497 50.5742 17.8295C50.1369 17.4094 49.7939 16.9163 49.5452 16.3504C49.3051 15.7844 49.1851 15.167 49.1851 14.4982C49.1851 13.8294 49.3051 13.212 49.5452 12.646C49.7939 12.0801 50.1412 11.587 50.5871 11.1669C51.033 10.7467 51.556 10.4209 52.1563 10.1893C52.7565 9.95782 53.4082 9.84206 54.1113 9.84206C54.823 9.84206 55.4747 9.95782 56.0664 10.1893C56.6666 10.4209 57.1854 10.7467 57.6227 11.1669C58.0686 11.587 58.4159 12.0801 58.6646 12.646C58.9132 13.2034 59.0376 13.8208 59.0376 14.4982C59.0376 15.167 58.9132 15.7887 58.6646 16.3632C58.4159 16.9292 58.0686 17.4222 57.6227 17.8424C57.1854 18.254 56.6666 18.5755 56.0664 18.8071C55.4747 19.0386 54.8273 19.1543 54.1242 19.1543ZM54.1113 17.3794C54.5143 17.3794 54.8831 17.3108 55.2175 17.1736C55.5605 17.0364 55.8606 16.8391 56.1178 16.5819C56.3751 16.3246 56.5723 16.0202 56.7095 15.6687C56.8553 15.3171 56.9282 14.9269 56.9282 14.4982C56.9282 14.0695 56.8553 13.6793 56.7095 13.3277C56.5723 12.9762 56.3751 12.6718 56.1178 12.4145C55.8692 12.1573 55.5733 11.96 55.2303 11.8228C54.8874 11.6857 54.5143 11.6171 54.1113 11.6171C53.7083 11.6171 53.3353 11.6857 52.9923 11.8228C52.6579 11.96 52.3621 12.1573 52.1048 12.4145C51.8476 12.6718 51.6461 12.9762 51.5003 13.3277C51.3631 13.6793 51.2945 14.0695 51.2945 14.4982C51.2945 14.9184 51.3631 15.3085 51.5003 15.6687C51.6461 16.0202 51.8433 16.3246 52.092 16.5819C52.3492 16.8391 52.6493 17.0364 52.9923 17.1736C53.3353 17.3108 53.7083 17.3794 54.1113 17.3794ZM64.9639 19.1543C64.2607 19.1543 63.6048 19.0386 62.9959 18.8071C62.3957 18.5755 61.8726 18.2497 61.4268 17.8295C60.9894 17.4094 60.6464 16.9163 60.3978 16.3504C60.1577 15.7844 60.0376 15.167 60.0376 14.4982C60.0376 13.8294 60.1577 13.212 60.3978 12.646C60.6464 12.0801 60.9937 11.587 61.4396 11.1669C61.8855 10.7467 62.4086 10.4209 63.0088 10.1893C63.609 9.95782 64.2607 9.84206 64.9639 9.84206C65.6756 9.84206 66.3273 9.95782 66.9189 10.1893C67.5192 10.4209 68.038 10.7467 68.4753 11.1669C68.9212 11.5785 69.2685 12.0672 69.5171 12.6332C69.7658 13.1991 69.8901 13.8208 69.8901 14.4982C69.8901 15.167 69.7658 15.7887 69.5171 16.3632C69.2685 16.9292 68.9212 17.4222 68.4753 17.8424C68.038 18.254 67.5192 18.5755 66.9189 18.8071C66.3273 19.0386 65.6756 19.1543 64.9639 19.1543ZM67.9093 21.0708C67.5578 21.0708 67.2233 21.0322 66.9061 20.9551C66.5974 20.8779 66.2887 20.7536 65.98 20.5821C65.6799 20.4106 65.3626 20.179 65.0282 19.8875C64.7023 19.596 64.3465 19.2358 63.9606 18.8071L66.1472 18.254C66.3787 18.5713 66.5931 18.8242 66.7903 19.0129C66.9875 19.2015 67.1762 19.3344 67.3563 19.4116C67.5449 19.4888 67.7421 19.5274 67.9479 19.5274C68.4967 19.5274 68.9855 19.3044 69.4142 18.8585L70.3403 19.9647C69.7315 20.7021 68.9212 21.0708 67.9093 21.0708ZM64.9639 17.3794C65.3669 17.3794 65.7356 17.3108 66.07 17.1736C66.413 17.0364 66.7131 16.8391 66.9704 16.5819C67.2276 16.3246 67.4249 16.0202 67.5621 15.6687C67.7078 15.3085 67.7807 14.9184 67.7807 14.4982C67.7807 14.0695 67.7078 13.6793 67.5621 13.3277C67.4249 12.9762 67.2276 12.6718 66.9704 12.4145C66.7131 12.1573 66.413 11.96 66.07 11.8228C65.7356 11.6857 65.3669 11.6171 64.9639 11.6171C64.5609 11.6171 64.1879 11.6857 63.8449 11.8228C63.5019 11.96 63.2017 12.1573 62.9445 12.4145C62.6958 12.6718 62.4986 12.9762 62.3528 13.3277C62.2156 13.6793 62.147 14.0695 62.147 14.4982C62.147 14.9184 62.2156 15.3085 62.3528 15.6687C62.4986 16.0202 62.6958 16.3246 62.9445 16.5819C63.2017 16.8391 63.5019 17.0364 63.8449 17.1736C64.1879 17.3108 64.5609 17.3794 64.9639 17.3794ZM74.7 16.1832V14.5754H78.34V16.1832H74.7ZM83.0598 19V17.6495L86.5326 14.3696C86.807 14.1209 87.0085 13.898 87.1371 13.7007C87.2658 13.5035 87.3515 13.3234 87.3944 13.1605C87.4458 12.9976 87.4716 12.8475 87.4716 12.7103C87.4716 12.3502 87.3472 12.0758 87.0985 11.8872C86.8585 11.6899 86.5026 11.5913 86.031 11.5913C85.6537 11.5913 85.3021 11.6642 84.9763 11.81C84.659 11.9558 84.3889 12.183 84.1659 12.4917L82.6482 11.5142C82.9912 10.9997 83.4714 10.5924 84.0888 10.2922C84.7062 9.99212 85.4179 9.84206 86.2239 9.84206C86.8928 9.84206 87.4758 9.95353 87.9732 10.1765C88.4791 10.3908 88.8693 10.6953 89.1437 11.0897C89.4266 11.4841 89.5681 11.9558 89.5681 12.5046C89.5681 12.7961 89.5295 13.0876 89.4523 13.3792C89.3837 13.6622 89.238 13.9623 89.015 14.2795C88.8007 14.5968 88.4834 14.9527 88.0632 15.3471L85.1821 18.0611L84.7833 17.3022H89.8639V19H83.0598ZM90.4952 17.1092V15.7073L94.7397 9.99641H96.9263L92.7718 15.7073L91.7557 15.4114H98.8428V17.1092H90.4952ZM95.3443 19V17.1092L95.4086 15.4114V13.7265H97.3765V19H95.3443ZM103.325 19.1543C102.587 19.1543 101.927 18.9743 101.344 18.6141C100.761 18.2454 100.302 17.7138 99.9677 17.0192C99.6332 16.3246 99.466 15.4843 99.466 14.4982C99.466 13.5121 99.6332 12.6718 99.9677 11.9772C100.302 11.2826 100.761 10.7553 101.344 10.3951C101.927 10.0264 102.587 9.84206 103.325 9.84206C104.071 9.84206 104.731 10.0264 105.306 10.3951C105.889 10.7553 106.347 11.2826 106.682 11.9772C107.016 12.6718 107.183 13.5121 107.183 14.4982C107.183 15.4843 107.016 16.3246 106.682 17.0192C106.347 17.7138 105.889 18.2454 105.306 18.6141C104.731 18.9743 104.071 19.1543 103.325 19.1543ZM103.325 17.3922C103.676 17.3922 103.981 17.2936 104.238 17.0964C104.504 16.8992 104.71 16.5862 104.855 16.1574C105.01 15.7287 105.087 15.1756 105.087 14.4982C105.087 13.8208 105.01 13.2677 104.855 12.839C104.71 12.4102 104.504 12.0972 104.238 11.9C103.981 11.7028 103.676 11.6042 103.325 11.6042C102.982 11.6042 102.677 11.7028 102.411 11.9C102.154 12.0972 101.948 12.4102 101.794 12.839C101.648 13.2677 101.575 13.8208 101.575 14.4982C101.575 15.1756 101.648 15.7287 101.794 16.1574C101.948 16.5862 102.154 16.8992 102.411 17.0964C102.677 17.2936 102.982 17.3922 103.325 17.3922ZM112.054 19.1543C111.317 19.1543 110.657 18.9743 110.074 18.6141C109.491 18.2454 109.032 17.7138 108.697 17.0192C108.363 16.3246 108.196 15.4843 108.196 14.4982C108.196 13.5121 108.363 12.6718 108.697 11.9772C109.032 11.2826 109.491 10.7553 110.074 10.3951C110.657 10.0264 111.317 9.84206 112.054 9.84206C112.8 9.84206 113.461 10.0264 114.035 10.3951C114.618 10.7553 115.077 11.2826 115.412 11.9772C115.746 12.6718 115.913 13.5121 115.913 14.4982C115.913 15.4843 115.746 16.3246 115.412 17.0192C115.077 17.7138 114.618 18.2454 114.035 18.6141C113.461 18.9743 112.8 19.1543 112.054 19.1543ZM112.054 17.3922C112.406 17.3922 112.71 17.2936 112.968 17.0964C113.234 16.8992 113.439 16.5862 113.585 16.1574C113.739 15.7287 113.817 15.1756 113.817 14.4982C113.817 13.8208 113.739 13.2677 113.585 12.839C113.439 12.4102 113.234 12.0972 112.968 11.9C112.71 11.7028 112.406 11.6042 112.054 11.6042C111.711 11.6042 111.407 11.7028 111.141 11.9C110.884 12.0972 110.678 12.4102 110.524 12.839C110.378 13.2677 110.305 13.8208 110.305 14.4982C110.305 15.1756 110.378 15.7287 110.524 16.1574C110.678 16.5862 110.884 16.8992 111.141 17.0964C111.407 17.2936 111.711 17.3922 112.054 17.3922ZM120.784 19.1543C120.047 19.1543 119.387 18.9743 118.803 18.6141C118.22 18.2454 117.762 17.7138 117.427 17.0192C117.093 16.3246 116.926 15.4843 116.926 14.4982C116.926 13.5121 117.093 12.6718 117.427 11.9772C117.762 11.2826 118.22 10.7553 118.803 10.3951C119.387 10.0264 120.047 9.84206 120.784 9.84206C121.53 9.84206 122.191 10.0264 122.765 10.3951C123.348 10.7553 123.807 11.2826 124.141 11.9772C124.476 12.6718 124.643 13.5121 124.643 14.4982C124.643 15.4843 124.476 16.3246 124.141 17.0192C123.807 17.7138 123.348 18.2454 122.765 18.6141C122.191 18.9743 121.53 19.1543 120.784 19.1543ZM120.784 17.3922C121.136 17.3922 121.44 17.2936 121.697 17.0964C121.963 16.8992 122.169 16.5862 122.315 16.1574C122.469 15.7287 122.546 15.1756 122.546 14.4982C122.546 13.8208 122.469 13.2677 122.315 12.839C122.169 12.4102 121.963 12.0972 121.697 11.9C121.44 11.7028 121.136 11.6042 120.784 11.6042C120.441 11.6042 120.137 11.7028 119.871 11.9C119.614 12.0972 119.408 12.4102 119.254 12.839C119.108 13.2677 119.035 13.8208 119.035 14.4982C119.035 15.1756 119.108 15.7287 119.254 16.1574C119.408 16.5862 119.614 16.8992 119.871 17.0964C120.137 17.2936 120.441 17.3922 120.784 17.3922ZM129.864 19V9.99641H133.761C134.567 9.99641 135.262 10.1293 135.845 10.3951C136.428 10.6524 136.878 11.0254 137.195 11.5142C137.513 12.0029 137.671 12.586 137.671 13.2634C137.671 13.9323 137.513 14.5111 137.195 14.9998C136.878 15.4886 136.428 15.8659 135.845 16.1317C135.262 16.389 134.567 16.5176 133.761 16.5176H131.022L131.948 15.5786V19H129.864ZM131.948 15.8102L131.022 14.8198H133.645C134.289 14.8198 134.769 14.6826 135.086 14.4082C135.403 14.1338 135.562 13.7522 135.562 13.2634C135.562 12.7661 135.403 12.3802 135.086 12.1058C134.769 11.8314 134.289 11.6942 133.645 11.6942H131.022L131.948 10.7038V15.8102ZM142.349 19.1029C141.603 19.1029 140.939 18.9528 140.355 18.6527C139.772 18.344 139.314 17.9196 138.979 17.3794C138.653 16.8391 138.49 16.226 138.49 15.54C138.49 14.8455 138.653 14.2324 138.979 13.7007C139.314 13.1605 139.772 12.7404 140.355 12.4402C140.939 12.1315 141.603 11.9772 142.349 11.9772C143.078 11.9772 143.712 12.1315 144.253 12.4402C144.793 12.7404 145.192 13.1734 145.449 13.7393L143.893 14.5754C143.712 14.2495 143.485 14.0094 143.211 13.8551C142.945 13.7007 142.653 13.6236 142.336 13.6236C141.993 13.6236 141.685 13.7007 141.41 13.8551C141.136 14.0094 140.917 14.2281 140.754 14.5111C140.6 14.794 140.523 15.137 140.523 15.54C140.523 15.9431 140.6 16.2861 140.754 16.569C140.917 16.852 141.136 17.0707 141.41 17.225C141.685 17.3794 141.993 17.4565 142.336 17.4565C142.653 17.4565 142.945 17.3836 143.211 17.2379C143.485 17.0835 143.712 16.8391 143.893 16.5047L145.449 17.3536C145.192 17.911 144.793 18.344 144.253 18.6527C143.712 18.9528 143.078 19.1029 142.349 19.1029ZM148.932 19.1029C148.341 19.1029 147.77 19.0343 147.222 18.8971C146.681 18.7513 146.253 18.5713 145.935 18.3569L146.604 16.9163C146.921 17.1135 147.294 17.2765 147.723 17.4051C148.16 17.5251 148.589 17.5851 149.009 17.5851C149.472 17.5851 149.798 17.5294 149.987 17.4179C150.184 17.3065 150.283 17.1521 150.283 16.9549C150.283 16.792 150.206 16.6719 150.051 16.5948C149.905 16.509 149.708 16.4447 149.46 16.4018C149.211 16.3589 148.937 16.3161 148.636 16.2732C148.345 16.2303 148.049 16.1746 147.749 16.106C147.449 16.0288 147.174 15.9173 146.926 15.7716C146.677 15.6258 146.476 15.4286 146.321 15.1799C146.175 14.9312 146.103 14.6097 146.103 14.2152C146.103 13.7779 146.227 13.392 146.476 13.0576C146.733 12.7232 147.101 12.4617 147.582 12.273C148.062 12.0758 148.636 11.9772 149.305 11.9772C149.777 11.9772 150.257 12.0286 150.746 12.1315C151.235 12.2344 151.642 12.3845 151.968 12.5817L151.299 14.0094C150.964 13.8122 150.626 13.6793 150.283 13.6107C149.948 13.5335 149.623 13.4949 149.305 13.4949C148.859 13.4949 148.533 13.555 148.328 13.675C148.122 13.7951 148.019 13.9494 148.019 14.1381C148.019 14.3096 148.092 14.4382 148.238 14.5239C148.392 14.6097 148.594 14.6783 148.842 14.7297C149.091 14.7812 149.361 14.8283 149.653 14.8712C149.953 14.9055 150.253 14.9612 150.553 15.0384C150.853 15.1156 151.123 15.2271 151.363 15.3728C151.612 15.51 151.813 15.703 151.968 15.9516C152.122 16.1917 152.199 16.509 152.199 16.9034C152.199 17.3322 152.071 17.7138 151.813 18.0482C151.556 18.374 151.183 18.6313 150.694 18.8199C150.214 19.0086 149.627 19.1029 148.932 19.1029Z" fill="white"/>
</svg>
