<svg width="121" height="10" viewBox="0 0 121 10" fill="none" xmlns="http://www.w3.org/2000/svg">
<path d="M7.03633e-05 8.9043V0.504296H3.45607C4.20007 0.504296 4.83607 0.624296 5.36407 0.864297C5.90007 1.1043 6.31207 1.4483 6.60007 1.8963C6.88807 2.3443 7.03207 2.8763 7.03207 3.4923C7.03207 4.1083 6.88807 4.6403 6.60007 5.0883C6.31207 5.5363 5.90007 5.8803 5.36407 6.1203C4.83607 6.3603 4.20007 6.4803 3.45607 6.4803H0.86407L1.56007 5.7483V8.9043H7.03633e-05ZM1.56007 5.9163L0.86407 5.1603H3.38407C4.07207 5.1603 4.58807 5.0163 4.93207 4.7283C5.28407 4.4323 5.46007 4.0203 5.46007 3.4923C5.46007 2.9563 5.28407 2.5443 4.93207 2.2563C4.58807 1.9683 4.07207 1.8243 3.38407 1.8243H0.86407L1.56007 1.0563V5.9163ZM8.38732 8.9043V2.4963H9.81532V4.2603L9.64732 3.7443C9.83932 3.3123 10.1393 2.9843 10.5473 2.7603C10.9633 2.5363 11.4793 2.4243 12.0953 2.4243V3.8523C12.0313 3.8363 11.9713 3.8283 11.9153 3.8283C11.8593 3.8203 11.8033 3.8163 11.7473 3.8163C11.1793 3.8163 10.7273 3.9843 10.3913 4.3203C10.0553 4.6483 9.88732 5.1403 9.88732 5.7963V8.9043H8.38732ZM16.1892 8.9883C15.5332 8.9883 14.9492 8.8483 14.4372 8.5683C13.9252 8.2803 13.5212 7.8883 13.2252 7.3923C12.9292 6.8963 12.7812 6.3323 12.7812 5.7003C12.7812 5.0603 12.9292 4.4963 13.2252 4.0083C13.5212 3.5123 13.9252 3.1243 14.4372 2.8443C14.9492 2.5643 15.5332 2.4243 16.1892 2.4243C16.8532 2.4243 17.4412 2.5643 17.9532 2.8443C18.4732 3.1243 18.8772 3.5083 19.1652 3.9963C19.4612 4.4843 19.6092 5.0523 19.6092 5.7003C19.6092 6.3323 19.4612 6.8963 19.1652 7.3923C18.8772 7.8883 18.4732 8.2803 17.9532 8.5683C17.4412 8.8483 16.8532 8.9883 16.1892 8.9883ZM16.1892 7.7043C16.5572 7.7043 16.8852 7.6243 17.1732 7.4643C17.4612 7.3043 17.6852 7.0723 17.8452 6.7683C18.0132 6.4643 18.0972 6.1083 18.0972 5.7003C18.0972 5.2843 18.0132 4.9283 17.8452 4.6323C17.6852 4.3283 17.4612 4.0963 17.1732 3.9363C16.8852 3.7763 16.5612 3.6963 16.2012 3.6963C15.8332 3.6963 15.5052 3.7763 15.2172 3.9363C14.9372 4.0963 14.7132 4.3283 14.5452 4.6323C14.3772 4.9283 14.2932 5.2843 14.2932 5.7003C14.2932 6.1083 14.3772 6.4643 14.5452 6.7683C14.7132 7.0723 14.9372 7.3043 15.2172 7.4643C15.5052 7.6243 15.8292 7.7043 16.1892 7.7043ZM23.7556 8.9883C23.1396 8.9883 22.5836 8.8523 22.0876 8.5803C21.5996 8.3003 21.2156 7.9163 20.9356 7.4283C20.6556 6.9403 20.5156 6.3643 20.5156 5.7003C20.5156 5.0363 20.6556 4.4603 20.9356 3.9723C21.2156 3.4843 21.5996 3.1043 22.0876 2.8323C22.5836 2.5603 23.1396 2.4243 23.7556 2.4243C24.2916 2.4243 24.7716 2.5443 25.1956 2.7843C25.6196 3.0163 25.9556 3.3723 26.2036 3.8523C26.4516 4.3323 26.5756 4.9483 26.5756 5.7003C26.5756 6.4443 26.4556 7.0603 26.2156 7.5483C25.9756 8.0283 25.6436 8.3883 25.2196 8.6283C24.7956 8.8683 24.3076 8.9883 23.7556 8.9883ZM23.9356 7.7043C24.2956 7.7043 24.6156 7.6243 24.8956 7.4643C25.1836 7.3043 25.4116 7.0723 25.5796 6.7683C25.7556 6.4643 25.8436 6.1083 25.8436 5.7003C25.8436 5.2843 25.7556 4.9283 25.5796 4.6323C25.4116 4.3283 25.1836 4.0963 24.8956 3.9363C24.6156 3.7763 24.2956 3.6963 23.9356 3.6963C23.5756 3.6963 23.2516 3.7763 22.9636 3.9363C22.6836 4.0963 22.4556 4.3283 22.2796 4.6323C22.1116 4.9283 22.0276 5.2843 22.0276 5.7003C22.0276 6.1083 22.1116 6.4643 22.2796 6.7683C22.4556 7.0723 22.6836 7.3043 22.9636 7.4643C23.2516 7.6243 23.5756 7.7043 23.9356 7.7043ZM25.8796 8.9043V7.3923L25.9396 5.6883L25.8196 3.9843V0.000296354H27.3076V8.9043H25.8796ZM31.9939 8.9883C31.4499 8.9883 30.9699 8.8883 30.5539 8.6883C30.1379 8.4803 29.8139 8.1683 29.5819 7.7523C29.3499 7.3283 29.2339 6.7963 29.2339 6.1563V2.4963H30.7339V5.9523C30.7339 6.5283 30.8619 6.9603 31.1179 7.2483C31.3819 7.5283 31.7539 7.6683 32.2339 7.6683C32.5859 7.6683 32.8899 7.5963 33.1459 7.4523C33.4099 7.3083 33.6139 7.0923 33.7579 6.8043C33.9099 6.5163 33.9859 6.1603 33.9859 5.7363V2.4963H35.4859V8.9043H34.0579V7.1763L34.3099 7.7043C34.0939 8.1203 33.7779 8.4403 33.3619 8.6643C32.9459 8.8803 32.4899 8.9883 31.9939 8.9883ZM40.3898 8.9883C39.7178 8.9883 39.1178 8.8483 38.5898 8.5683C38.0698 8.2803 37.6618 7.8883 37.3658 7.3923C37.0698 6.8963 36.9218 6.3323 36.9218 5.7003C36.9218 5.0603 37.0698 4.4963 37.3658 4.0083C37.6618 3.5123 38.0698 3.1243 38.5898 2.8443C39.1178 2.5643 39.7178 2.4243 40.3898 2.4243C41.0138 2.4243 41.5618 2.5523 42.0338 2.8083C42.5138 3.0563 42.8778 3.4243 43.1258 3.9123L41.9738 4.5843C41.7818 4.2803 41.5458 4.0563 41.2658 3.9123C40.9938 3.7683 40.6978 3.6963 40.3778 3.6963C40.0098 3.6963 39.6778 3.7763 39.3818 3.9363C39.0858 4.0963 38.8538 4.3283 38.6858 4.6323C38.5178 4.9283 38.4338 5.2843 38.4338 5.7003C38.4338 6.1163 38.5178 6.4763 38.6858 6.7803C38.8538 7.0763 39.0858 7.3043 39.3818 7.4643C39.6778 7.6243 40.0098 7.7043 40.3778 7.7043C40.6978 7.7043 40.9938 7.6323 41.2658 7.4883C41.5458 7.3443 41.7818 7.1203 41.9738 6.8163L43.1258 7.4883C42.8778 7.9683 42.5138 8.3403 42.0338 8.6043C41.5618 8.8603 41.0138 8.9883 40.3898 8.9883ZM46.9165 8.9883C46.2125 8.9883 45.6685 8.8083 45.2845 8.4483C44.9005 8.0803 44.7085 7.5403 44.7085 6.8283V1.0803H46.2085V6.7923C46.2085 7.0963 46.2845 7.3323 46.4365 7.5003C46.5965 7.6683 46.8165 7.7523 47.0965 7.7523C47.4325 7.7523 47.7125 7.6643 47.9365 7.4883L48.3565 8.5563C48.1805 8.7003 47.9645 8.8083 47.7085 8.8803C47.4525 8.9523 47.1885 8.9883 46.9165 8.9883ZM43.6525 3.7443V2.5443H47.9245V3.7443H43.6525ZM56.9389 9.0243C56.2989 9.0243 55.7029 8.9203 55.1509 8.7123C54.6069 8.4963 54.1309 8.1963 53.7229 7.8123C53.3229 7.4203 53.0109 6.9603 52.7869 6.4323C52.5629 5.9043 52.4509 5.3283 52.4509 4.7043C52.4509 4.0803 52.5629 3.5043 52.7869 2.9763C53.0109 2.4483 53.3269 1.9923 53.7349 1.6083C54.1429 1.2163 54.6189 0.916297 55.1629 0.708297C55.7069 0.492296 56.3029 0.384296 56.9509 0.384296C57.6389 0.384296 58.2669 0.504297 58.8349 0.744297C59.4029 0.976297 59.8829 1.3243 60.2749 1.7883L59.2669 2.7363C58.9629 2.4083 58.6229 2.1643 58.2469 2.0043C57.8709 1.8363 57.4629 1.7523 57.0229 1.7523C56.5829 1.7523 56.1789 1.8243 55.8109 1.9683C55.4509 2.1123 55.1349 2.3163 54.8629 2.5803C54.5989 2.8443 54.3909 3.1563 54.2389 3.5163C54.0949 3.8763 54.0229 4.2723 54.0229 4.7043C54.0229 5.1363 54.0949 5.5323 54.2389 5.8923C54.3909 6.2523 54.5989 6.5643 54.8629 6.8283C55.1349 7.0923 55.4509 7.2963 55.8109 7.4403C56.1789 7.5843 56.5829 7.6563 57.0229 7.6563C57.4629 7.6563 57.8709 7.5763 58.2469 7.4163C58.6229 7.2483 58.9629 6.9963 59.2669 6.6603L60.2749 7.6203C59.8829 8.0763 59.4029 8.4243 58.8349 8.6643C58.2669 8.9043 57.6349 9.0243 56.9389 9.0243ZM64.2712 8.9883C63.6152 8.9883 63.0312 8.8483 62.5192 8.5683C62.0072 8.2803 61.6032 7.8883 61.3072 7.3923C61.0112 6.8963 60.8632 6.3323 60.8632 5.7003C60.8632 5.0603 61.0112 4.4963 61.3072 4.0083C61.6032 3.5123 62.0072 3.1243 62.5192 2.8443C63.0312 2.5643 63.6152 2.4243 64.2712 2.4243C64.9352 2.4243 65.5232 2.5643 66.0352 2.8443C66.5552 3.1243 66.9592 3.5083 67.2472 3.9963C67.5432 4.4843 67.6912 5.0523 67.6912 5.7003C67.6912 6.3323 67.5432 6.8963 67.2472 7.3923C66.9592 7.8883 66.5552 8.2803 66.0352 8.5683C65.5232 8.8483 64.9352 8.9883 64.2712 8.9883ZM64.2712 7.7043C64.6392 7.7043 64.9672 7.6243 65.2552 7.4643C65.5432 7.3043 65.7672 7.0723 65.9272 6.7683C66.0952 6.4643 66.1792 6.1083 66.1792 5.7003C66.1792 5.2843 66.0952 4.9283 65.9272 4.6323C65.7672 4.3283 65.5432 4.0963 65.2552 3.9363C64.9672 3.7763 64.6432 3.6963 64.2832 3.6963C63.9152 3.6963 63.5872 3.7763 63.2992 3.9363C63.0192 4.0963 62.7952 4.3283 62.6272 4.6323C62.4592 4.9283 62.3752 5.2843 62.3752 5.7003C62.3752 6.1083 62.4592 6.4643 62.6272 6.7683C62.7952 7.0723 63.0192 7.3043 63.2992 7.4643C63.5872 7.6243 63.9112 7.7043 64.2712 7.7043ZM71.8376 8.9883C71.2216 8.9883 70.6656 8.8523 70.1696 8.5803C69.6816 8.3003 69.2976 7.9163 69.0176 7.4283C68.7376 6.9403 68.5976 6.3643 68.5976 5.7003C68.5976 5.0363 68.7376 4.4603 69.0176 3.9723C69.2976 3.4843 69.6816 3.1043 70.1696 2.8323C70.6656 2.5603 71.2216 2.4243 71.8376 2.4243C72.3736 2.4243 72.8536 2.5443 73.2776 2.7843C73.7016 3.0163 74.0376 3.3723 74.2856 3.8523C74.5336 4.3323 74.6576 4.9483 74.6576 5.7003C74.6576 6.4443 74.5376 7.0603 74.2976 7.5483C74.0576 8.0283 73.7256 8.3883 73.3016 8.6283C72.8776 8.8683 72.3896 8.9883 71.8376 8.9883ZM72.0176 7.7043C72.3776 7.7043 72.6976 7.6243 72.9776 7.4643C73.2656 7.3043 73.4936 7.0723 73.6616 6.7683C73.8376 6.4643 73.9256 6.1083 73.9256 5.7003C73.9256 5.2843 73.8376 4.9283 73.6616 4.6323C73.4936 4.3283 73.2656 4.0963 72.9776 3.9363C72.6976 3.7763 72.3776 3.6963 72.0176 3.6963C71.6576 3.6963 71.3336 3.7763 71.0456 3.9363C70.7656 4.0963 70.5376 4.3283 70.3616 4.6323C70.1936 4.9283 70.1096 5.2843 70.1096 5.7003C70.1096 6.1083 70.1936 6.4643 70.3616 6.7683C70.5376 7.0723 70.7656 7.3043 71.0456 7.4643C71.3336 7.6243 71.6576 7.7043 72.0176 7.7043ZM73.9616 8.9043V7.3923L74.0216 5.6883L73.9016 3.9843V0.000296354H75.3896V8.9043H73.9616ZM80.3759 8.9883C79.6639 8.9883 79.0399 8.8483 78.5039 8.5683C77.9759 8.2803 77.5639 7.8883 77.2679 7.3923C76.9799 6.8963 76.8359 6.3323 76.8359 5.7003C76.8359 5.0603 76.9759 4.4963 77.2559 4.0083C77.5439 3.5123 77.9359 3.1243 78.4319 2.8443C78.9359 2.5643 79.5079 2.4243 80.1479 2.4243C80.7719 2.4243 81.3279 2.5603 81.8159 2.8323C82.3039 3.1043 82.6879 3.4883 82.9679 3.9843C83.2479 4.4803 83.3879 5.0643 83.3879 5.7363C83.3879 5.8003 83.3839 5.8723 83.3759 5.9523C83.3759 6.0323 83.3719 6.1083 83.3639 6.1803H78.0239V5.1843H82.5719L81.9839 5.4963C81.9919 5.1283 81.9159 4.8043 81.7559 4.5243C81.5959 4.2443 81.3759 4.0243 81.0959 3.8643C80.8239 3.7043 80.5079 3.6243 80.1479 3.6243C79.7799 3.6243 79.4559 3.7043 79.1759 3.8643C78.9039 4.0243 78.6879 4.2483 78.5279 4.5363C78.3759 4.8163 78.2999 5.1483 78.2999 5.5323V5.7723C78.2999 6.1563 78.3879 6.4963 78.5639 6.7923C78.7399 7.0883 78.9879 7.3163 79.3079 7.4763C79.6279 7.6363 79.9959 7.7163 80.4119 7.7163C80.7719 7.7163 81.0959 7.6603 81.3839 7.5483C81.6719 7.4363 81.9279 7.2603 82.1519 7.0203L82.9559 7.9443C82.6679 8.2803 82.3039 8.5403 81.8639 8.7243C81.4319 8.9003 80.9359 8.9883 80.3759 8.9883ZM87.8211 6.1923V4.9443H91.1211V6.1923H87.8211ZM96.9667 8.9043V1.1043L97.6507 1.8123H95.1907V0.504296H98.5267V8.9043H96.9667ZM100.085 8.9043V7.8603L103.421 4.6923C103.701 4.4283 103.909 4.1963 104.045 3.9963C104.181 3.7963 104.269 3.6123 104.309 3.4443C104.357 3.2683 104.381 3.1043 104.381 2.9523C104.381 2.5683 104.249 2.2723 103.985 2.0643C103.721 1.8483 103.333 1.7403 102.821 1.7403C102.413 1.7403 102.041 1.8123 101.705 1.9563C101.377 2.1003 101.093 2.3203 100.853 2.6163L99.761 1.7763C100.089 1.3363 100.529 0.996296 101.081 0.756297C101.641 0.508296 102.265 0.384296 102.953 0.384296C103.561 0.384296 104.089 0.484296 104.537 0.684296C104.993 0.876297 105.341 1.1523 105.581 1.5123C105.829 1.8723 105.953 2.3003 105.953 2.7963C105.953 3.0683 105.917 3.3403 105.845 3.6123C105.773 3.8763 105.637 4.1563 105.437 4.4523C105.237 4.7483 104.945 5.0803 104.561 5.4483L101.693 8.1723L101.369 7.5843H106.277V8.9043H100.085ZM109.961 9.0243C109.369 9.0243 108.789 8.9403 108.221 8.7723C107.661 8.5963 107.189 8.3563 106.805 8.0523L107.465 6.8403C107.769 7.0883 108.137 7.2883 108.569 7.4403C109.009 7.5923 109.465 7.6683 109.937 7.6683C110.489 7.6683 110.921 7.5523 111.233 7.3203C111.553 7.0883 111.713 6.7763 111.713 6.3843C111.713 6.1203 111.645 5.8883 111.509 5.6883C111.381 5.4883 111.149 5.3363 110.813 5.2323C110.485 5.1283 110.033 5.0763 109.457 5.0763H107.429L107.861 0.504296H112.793V1.8123H108.437L109.253 1.0683L108.929 4.4883L108.113 3.7563H109.805C110.637 3.7563 111.305 3.8683 111.809 4.0923C112.321 4.3083 112.693 4.6123 112.925 5.0043C113.165 5.3883 113.285 5.8283 113.285 6.3243C113.285 6.8123 113.165 7.2603 112.925 7.6683C112.685 8.0763 112.317 8.4043 111.821 8.6523C111.333 8.9003 110.713 9.0243 109.961 9.0243ZM116.911 9.0243C116.319 9.0243 115.739 8.9403 115.171 8.7723C114.611 8.5963 114.139 8.3563 113.755 8.0523L114.415 6.8403C114.719 7.0883 115.087 7.2883 115.519 7.4403C115.959 7.5923 116.415 7.6683 116.887 7.6683C117.439 7.6683 117.871 7.5523 118.183 7.3203C118.503 7.0883 118.663 6.7763 118.663 6.3843C118.663 6.1203 118.595 5.8883 118.459 5.6883C118.331 5.4883 118.099 5.3363 117.763 5.2323C117.435 5.1283 116.983 5.0763 116.407 5.0763H114.379L114.811 0.504296H119.743V1.8123H115.387L116.203 1.0683L115.879 4.4883L115.063 3.7563H116.755C117.587 3.7563 118.255 3.8683 118.759 4.0923C119.271 4.3083 119.643 4.6123 119.875 5.0043C120.115 5.3883 120.235 5.8283 120.235 6.3243C120.235 6.8123 120.115 7.2603 119.875 7.6683C119.635 8.0763 119.267 8.4043 118.771 8.6523C118.283 8.9003 117.663 9.0243 116.911 9.0243Z" fill="black"/>
</svg>
