<svg width="208" height="298" viewBox="0 0 208 298" fill="none" xmlns="http://www.w3.org/2000/svg">
<rect x="2.03117" y="13.8549" width="203.544" height="149.626" rx="22.0671" fill="url(#paint0_linear_2039_599)" stroke="#A3B988" stroke-width="3.22934"/>
<path d="M0.416504 165.096L207.19 165.096V288.887H0.416504L0.416504 165.096Z" fill="#F6F3F3"/>
<path d="M0.416504 286.734H207.19V286.734C207.19 292.679 202.371 297.499 196.426 297.499H11.1809C5.2359 297.499 0.416504 292.679 0.416504 286.734V286.734Z" fill="url(#paint1_linear_2039_599)"/>
<path d="M0.416504 286.734H101.17C107.115 286.734 111.935 291.554 111.935 297.499V297.499H11.181C5.23593 297.499 0.416504 292.679 0.416504 286.734V286.734Z" fill="#B92928"/>
<rect x="22.6929" width="161.577" height="22.6054" rx="11.3027" fill="#899F61"/>
<path d="M36.5924 15.8027L36.5924 6.76059L38.6851 6.76059L38.6851 15.8027L36.5924 15.8027ZM40.831 15.8027L40.831 6.76059L42.5619 6.76059L46.4112 13.1418L45.4941 13.1418L49.2789 6.76059L50.9969 6.76059L51.0227 15.8027L49.0593 15.8027L49.0464 9.77033L49.4081 9.77033L46.3854 14.8468L45.4424 14.8468L42.3552 9.77033L42.7944 9.77033L42.7944 15.8027L40.831 15.8027ZM53.168 15.8027L53.168 6.76059L55.2606 6.76059L55.2606 14.0976L59.7946 14.0976L59.7946 15.8027L53.168 15.8027ZM64.6221 15.8027L64.6221 6.76059L66.353 6.76059L70.2024 13.1418L69.2852 13.1418L73.07 6.76059L74.788 6.76059L74.8139 15.8027L72.8504 15.8027L72.8375 9.77033L73.1992 9.77033L70.1765 14.8468L69.2336 14.8468L66.1463 9.77033L66.5855 9.77033L66.5855 15.8027L64.6221 15.8027ZM81.3511 15.9577C80.6363 15.9577 79.9732 15.8415 79.3618 15.609C78.759 15.3765 78.2337 15.0492 77.7859 14.6273C77.3467 14.2053 77.0022 13.7101 76.7525 13.1418C76.5114 12.5734 76.3908 11.9534 76.3908 11.2817C76.3908 10.61 76.5114 9.98993 76.7525 9.42156C77.0022 8.8532 77.351 8.35804 77.7988 7.93607C78.2466 7.5141 78.7719 7.18686 79.3747 6.95435C79.9775 6.72184 80.632 6.60558 81.3381 6.60558C82.0529 6.60558 82.7074 6.72184 83.3016 6.95435C83.9044 7.18686 84.4254 7.5141 84.8646 7.93607C85.3124 8.35804 85.6611 8.8532 85.9109 9.42156C86.1606 9.98132 86.2855 10.6013 86.2855 11.2817C86.2855 11.9534 86.1606 12.5777 85.9109 13.1547C85.6611 13.723 85.3124 14.2182 84.8646 14.6402C84.4254 15.0535 83.9044 15.3765 83.3016 15.609C82.7074 15.8415 82.0572 15.9577 81.3511 15.9577ZM81.3381 14.1751C81.7429 14.1751 82.1132 14.1063 82.449 13.9685C82.7935 13.8307 83.0949 13.6326 83.3532 13.3743C83.6116 13.1159 83.8097 12.8102 83.9474 12.4571C84.0938 12.1041 84.167 11.7122 84.167 11.2817C84.167 10.8511 84.0938 10.4593 83.9474 10.1062C83.8097 9.75311 83.6116 9.4474 83.3532 9.18905C83.1035 8.9307 82.8064 8.73264 82.4619 8.59485C82.1175 8.45707 81.7429 8.38818 81.3381 8.38818C80.9334 8.38818 80.5588 8.45707 80.2143 8.59485C79.8785 8.73264 79.5814 8.9307 79.323 9.18905C79.0647 9.4474 78.8623 9.75311 78.7159 10.1062C78.5781 10.4593 78.5092 10.8511 78.5092 11.2817C78.5092 11.7036 78.5781 12.0955 78.7159 12.4571C78.8623 12.8102 79.0604 13.1159 79.3101 13.3743C79.5685 13.6326 79.8699 13.8307 80.2143 13.9685C80.5588 14.1063 80.9334 14.1751 81.3381 14.1751ZM92.2371 15.9577C91.531 15.9577 90.8722 15.8415 90.2608 15.609C89.658 15.3765 89.1327 15.0492 88.6849 14.6273C88.2457 14.2053 87.9012 13.7101 87.6515 13.1418C87.4104 12.5734 87.2898 11.9534 87.2898 11.2817C87.2898 10.61 87.4104 9.98993 87.6515 9.42156C87.9012 8.8532 88.25 8.35804 88.6978 7.93607C89.1456 7.5141 89.6709 7.18686 90.2737 6.95435C90.8765 6.72184 91.531 6.60558 92.2371 6.60558C92.9519 6.60558 93.6064 6.72184 94.2006 6.95435C94.8034 7.18686 95.3244 7.5141 95.7636 7.93607C96.2114 8.34942 96.5601 8.84028 96.8099 9.40865C97.0596 9.97701 97.1845 10.6013 97.1845 11.2817C97.1845 11.9534 97.0596 12.5777 96.8099 13.1547C96.5601 13.723 96.2114 14.2182 95.7636 14.6402C95.3244 15.0535 94.8034 15.3765 94.2006 15.609C93.6064 15.8415 92.9519 15.9577 92.2371 15.9577ZM95.1952 17.8824C94.8421 17.8824 94.5063 17.8437 94.1877 17.7662C93.8776 17.6887 93.5676 17.5638 93.2576 17.3916C92.9562 17.2193 92.6376 16.9868 92.3017 16.694C91.9745 16.4012 91.6171 16.0396 91.2296 15.609L93.4255 15.0535C93.6581 15.3722 93.8733 15.6262 94.0714 15.8156C94.2695 16.0051 94.4589 16.1386 94.6398 16.2161C94.8292 16.2936 95.0273 16.3323 95.234 16.3323C95.7851 16.3323 96.276 16.1084 96.7065 15.6606L97.6366 16.7715C97.0252 17.5121 96.2114 17.8824 95.1952 17.8824ZM92.2371 14.1751C92.6419 14.1751 93.0122 14.1063 93.348 13.9685C93.6925 13.8307 93.9939 13.6326 94.2522 13.3743C94.5106 13.1159 94.7087 12.8102 94.8464 12.4571C94.9928 12.0955 95.066 11.7036 95.066 11.2817C95.066 10.8511 94.9928 10.4593 94.8464 10.1062C94.7087 9.75311 94.5106 9.4474 94.2522 9.18905C93.9939 8.9307 93.6925 8.73264 93.348 8.59485C93.0122 8.45707 92.6419 8.38818 92.2371 8.38818C91.8324 8.38818 91.4578 8.45707 91.1133 8.59485C90.7689 8.73264 90.4675 8.9307 90.2091 9.18905C89.9594 9.4474 89.7613 9.75311 89.6149 10.1062C89.4771 10.4593 89.4082 10.8511 89.4082 11.2817C89.4082 11.7036 89.4771 12.0955 89.6149 12.4571C89.7613 12.8102 89.9594 13.1159 90.2091 13.3743C90.4675 13.6326 90.7689 13.8307 91.1133 13.9685C91.4578 14.1063 91.8324 14.1751 92.2371 14.1751ZM102.015 12.9738L102.015 11.3592L105.671 11.3592L105.671 12.9738L102.015 12.9738ZM113.562 15.9577C112.934 15.9577 112.309 15.8759 111.689 15.7123C111.078 15.5401 110.553 15.299 110.113 14.9889L110.94 13.3872C111.285 13.6369 111.681 13.835 112.129 13.9814C112.585 14.1278 113.046 14.201 113.511 14.201C114.036 14.201 114.449 14.0976 114.751 13.891C115.052 13.6843 115.203 13.3958 115.203 13.0255C115.203 12.793 115.143 12.5863 115.022 12.4055C114.901 12.2246 114.686 12.0868 114.376 11.9921C114.075 11.8974 113.648 11.85 113.097 11.85L110.785 11.85L111.25 6.76059L116.766 6.76059L116.766 8.43984L111.999 8.43984L113.084 7.48396L112.761 11.1137L111.676 10.1579L113.588 10.1579C114.484 10.1579 115.203 10.2827 115.745 10.5325C116.297 10.7736 116.697 11.1051 116.947 11.5271C117.196 11.9491 117.321 12.427 117.321 12.9609C117.321 13.4948 117.188 13.99 116.921 14.4464C116.654 14.8942 116.241 15.2602 115.681 15.5444C115.13 15.82 114.424 15.9577 113.562 15.9577ZM122.046 15.9577C121.305 15.9577 120.642 15.7769 120.056 15.4152C119.471 15.0449 119.01 14.511 118.674 13.8135C118.338 13.1159 118.17 12.272 118.17 11.2817C118.17 10.2913 118.338 9.4474 118.674 8.74986C119.01 8.05232 119.471 7.52271 120.056 7.16103C120.642 6.79073 121.305 6.60558 122.046 6.60558C122.795 6.60558 123.458 6.79073 124.035 7.16103C124.62 7.52271 125.081 8.05232 125.417 8.74986C125.753 9.4474 125.921 10.2913 125.921 11.2817C125.921 12.272 125.753 13.1159 125.417 13.8135C125.081 14.511 124.62 15.0449 124.035 15.4152C123.458 15.7769 122.795 15.9577 122.046 15.9577ZM122.046 14.1881C122.399 14.1881 122.704 14.089 122.963 13.891C123.23 13.6929 123.436 13.3786 123.583 12.948C123.738 12.5174 123.815 11.962 123.815 11.2817C123.815 10.6013 123.738 10.0459 123.583 9.61532C123.436 9.18475 123.23 8.87042 122.963 8.67236C122.704 8.47429 122.399 8.37526 122.046 8.37526C121.701 8.37526 121.395 8.47429 121.128 8.67236C120.87 8.87042 120.663 9.18475 120.508 9.61532C120.362 10.0459 120.289 10.6013 120.289 11.2817C120.289 11.962 120.362 12.5174 120.508 12.948C120.663 13.3786 120.87 13.6929 121.128 13.891C121.395 14.089 121.701 14.1881 122.046 14.1881ZM130.813 15.9577C130.072 15.9577 129.409 15.7769 128.823 15.4152C128.238 15.0449 127.777 14.511 127.441 13.8135C127.105 13.1159 126.937 12.272 126.937 11.2817C126.937 10.2913 127.105 9.4474 127.441 8.74986C127.777 8.05232 128.238 7.52271 128.823 7.16103C129.409 6.79073 130.072 6.60558 130.813 6.60558C131.562 6.60558 132.225 6.79073 132.802 7.16103C133.388 7.52271 133.848 8.05232 134.184 8.74986C134.52 9.4474 134.688 10.2913 134.688 11.2817C134.688 12.272 134.52 13.1159 134.184 13.8135C133.848 14.511 133.388 15.0449 132.802 15.4152C132.225 15.7769 131.562 15.9577 130.813 15.9577ZM130.813 14.1881C131.166 14.1881 131.471 14.089 131.73 13.891C131.997 13.6929 132.203 13.3786 132.35 12.948C132.505 12.5174 132.582 11.962 132.582 11.2817C132.582 10.6013 132.505 10.0459 132.35 9.61532C132.203 9.18475 131.997 8.87042 131.73 8.67236C131.471 8.47429 131.166 8.37526 130.813 8.37526C130.468 8.37526 130.163 8.47429 129.896 8.67236C129.637 8.87042 129.431 9.18475 129.276 9.61532C129.129 10.0459 129.056 10.6013 129.056 11.2817C129.056 11.962 129.129 12.5174 129.276 12.948C129.431 13.3786 129.637 13.6929 129.896 13.891C130.163 14.089 130.468 14.1881 130.813 14.1881ZM139.58 15.9577C138.839 15.9577 138.176 15.7769 137.591 15.4152C137.005 15.0449 136.544 14.511 136.208 13.8135C135.873 13.1159 135.705 12.272 135.705 11.2817C135.705 10.2913 135.873 9.4474 136.208 8.74986C136.544 8.05232 137.005 7.52271 137.591 7.16103C138.176 6.79073 138.839 6.60558 139.58 6.60558C140.329 6.60558 140.992 6.79073 141.569 7.16103C142.155 7.52271 142.615 8.05232 142.951 8.74986C143.287 9.4474 143.455 10.2913 143.455 11.2817C143.455 12.272 143.287 13.1159 142.951 13.8135C142.615 14.511 142.155 15.0449 141.569 15.4152C140.992 15.7769 140.329 15.9577 139.58 15.9577ZM139.58 14.1881C139.933 14.1881 140.239 14.089 140.497 13.891C140.764 13.6929 140.971 13.3786 141.117 12.948C141.272 12.5174 141.349 11.962 141.349 11.2817C141.349 10.6013 141.272 10.0459 141.117 9.61532C140.971 9.18474 140.764 8.87042 140.497 8.67236C140.239 8.47429 139.933 8.37526 139.58 8.37526C139.235 8.37526 138.93 8.47429 138.663 8.67236C138.404 8.87042 138.198 9.18474 138.043 9.61532C137.896 10.0459 137.823 10.6013 137.823 11.2817C137.823 11.962 137.896 12.5174 138.043 12.948C138.198 13.3786 138.404 13.6929 138.663 13.891C138.93 14.089 139.235 14.1881 139.58 14.1881ZM148.698 15.8027L148.698 6.76059L152.612 6.76059C153.422 6.76059 154.119 6.89407 154.705 7.16103C155.291 7.41937 155.743 7.79398 156.061 8.28484C156.38 8.7757 156.539 9.36128 156.539 10.0416C156.539 10.7133 156.38 11.2946 156.061 11.7854C155.743 12.2763 155.291 12.6552 154.705 12.9222C154.119 13.1805 153.422 13.3097 152.612 13.3097L149.861 13.3097L150.791 12.3667L150.791 15.8027L148.698 15.8027ZM150.791 12.5992L149.861 11.6046L152.496 11.6046C153.142 11.6046 153.624 11.4668 153.943 11.1912C154.261 10.9157 154.421 10.5325 154.421 10.0416C154.421 9.54213 154.261 9.1546 153.943 8.87903C153.624 8.60346 153.142 8.46568 152.496 8.46568L149.861 8.46568L150.791 7.47104L150.791 12.5992ZM161.237 15.9061C160.488 15.9061 159.82 15.7554 159.235 15.454C158.649 15.1439 158.188 14.7177 157.853 14.1751C157.525 13.6326 157.362 13.0169 157.362 12.328C157.362 11.6304 157.525 11.0147 157.853 10.4808C158.188 9.93826 158.649 9.51629 159.235 9.21489C159.82 8.90487 160.488 8.74986 161.237 8.74986C161.969 8.74986 162.606 8.90487 163.149 9.21488C163.691 9.51629 164.092 9.95117 164.35 10.5195L162.787 11.3592C162.606 11.0319 162.378 10.7908 162.102 10.6358C161.835 10.4808 161.543 10.4033 161.224 10.4033C160.88 10.4033 160.57 10.4808 160.294 10.6358C160.018 10.7908 159.799 11.0104 159.635 11.2946C159.48 11.5788 159.403 11.9232 159.403 12.328C159.403 12.7327 159.48 13.0772 159.635 13.3614C159.799 13.6455 160.018 13.8651 160.294 14.0201C160.57 14.1751 160.88 14.2527 161.224 14.2527C161.543 14.2527 161.835 14.1795 162.102 14.0331C162.378 13.878 162.606 13.6326 162.787 13.2968L164.35 14.1493C164.092 14.7091 163.691 15.1439 163.149 15.454C162.606 15.7554 161.969 15.9061 161.237 15.9061ZM167.848 15.9061C167.254 15.9061 166.681 15.8372 166.13 15.6994C165.588 15.553 165.157 15.3722 164.839 15.1569L165.51 13.7101C165.829 13.9082 166.204 14.0718 166.634 14.201C167.073 14.3215 167.504 14.3818 167.926 14.3818C168.391 14.3818 168.718 14.3258 168.908 14.2139C169.106 14.1019 169.205 13.9469 169.205 13.7489C169.205 13.5853 169.127 13.4647 168.972 13.3872C168.826 13.3011 168.628 13.2365 168.378 13.1934C168.128 13.1504 167.853 13.1073 167.551 13.0643C167.258 13.0212 166.961 12.9652 166.66 12.8963C166.359 12.8188 166.083 12.7069 165.833 12.5605C165.583 12.4141 165.381 12.216 165.226 11.9663C165.08 11.7165 165.006 11.3936 165.006 10.9975C165.006 10.5583 165.131 10.1708 165.381 9.83492C165.639 9.49907 166.01 9.23641 166.492 9.04696C166.974 8.84889 167.551 8.74986 168.223 8.74986C168.697 8.74986 169.179 8.80153 169.67 8.90487C170.161 9.00821 170.57 9.15891 170.897 9.35698L170.225 10.7908C169.889 10.5927 169.549 10.4593 169.205 10.3904C168.869 10.3129 168.542 10.2741 168.223 10.2741C167.775 10.2741 167.448 10.3344 167.241 10.455C167.035 10.5755 166.931 10.7305 166.931 10.92C166.931 11.0922 167.004 11.2214 167.151 11.3075C167.306 11.3936 167.508 11.4625 167.758 11.5142C168.008 11.5658 168.279 11.6132 168.572 11.6563C168.873 11.6907 169.174 11.7467 169.476 11.8242C169.777 11.9017 170.049 12.0136 170.29 12.16C170.539 12.2978 170.742 12.4916 170.897 12.7413C171.052 12.9824 171.129 13.3011 171.129 13.6972C171.129 14.1278 171 14.511 170.742 14.8468C170.483 15.1741 170.109 15.4324 169.618 15.6219C169.136 15.8113 168.546 15.9061 167.848 15.9061Z" fill="white"/>
<rect y="137.062" width="206.513" height="40.3749" fill="#39422F"/>
<rect y="137.062" width="206.513" height="40.3749" stroke="white"/>
<path d="M42.1548 166.756C40.6319 166.756 39.2683 166.384 38.0642 165.641C36.86 164.879 35.9126 163.781 35.222 162.347C34.5314 160.913 34.1861 159.177 34.1861 157.141C34.1861 155.104 34.5314 153.369 35.222 151.934C35.9126 150.5 36.86 149.411 38.0642 148.667C39.2683 147.906 40.6319 147.525 42.1548 147.525C43.6954 147.525 45.0589 147.906 46.2454 148.667C47.4496 149.411 48.3969 150.5 49.0876 151.934C49.7782 153.369 50.1235 155.104 50.1235 157.141C50.1235 159.177 49.7782 160.913 49.0876 162.347C48.3969 163.781 47.4496 164.879 46.2454 165.641C45.0589 166.384 43.6954 166.756 42.1548 166.756ZM42.1548 163.117C42.8808 163.117 43.5095 162.914 44.0407 162.506C44.5897 162.099 45.0147 161.453 45.3157 160.567C45.6345 159.682 45.7938 158.54 45.7938 157.141C45.7938 155.742 45.6345 154.6 45.3157 153.714C45.0147 152.829 44.5897 152.182 44.0407 151.775C43.5095 151.368 42.8808 151.164 42.1548 151.164C41.4464 151.164 40.8178 151.368 40.2688 151.775C39.7376 152.182 39.3126 152.829 38.9939 153.714C38.6928 154.6 38.5423 155.742 38.5423 157.141C38.5423 158.54 38.6928 159.682 38.9939 160.567C39.3126 161.453 39.7376 162.099 40.2688 162.506C40.8178 162.914 41.4464 163.117 42.1548 163.117ZM57.9845 166.756C56.6918 166.756 55.408 166.588 54.133 166.252C52.858 165.897 51.7778 165.402 50.8924 164.764L52.5658 161.47C53.2741 161.984 54.0976 162.391 55.0361 162.692C55.9746 162.993 56.922 163.144 57.8783 163.144C58.9585 163.144 59.8085 162.931 60.4283 162.506C61.0481 162.081 61.358 161.497 61.358 160.753C61.358 160.045 61.0835 159.487 60.5345 159.08C59.9856 158.672 59.1002 158.469 57.8783 158.469L55.9127 158.469L55.9127 155.627L61.0923 149.756L61.5705 151.297L51.822 151.297L51.822 147.844L64.8376 147.844L64.8376 150.633L59.6845 156.503L57.5064 155.255L58.7548 155.255C61.0392 155.255 62.7658 155.768 63.9345 156.795C65.1033 157.822 65.6876 159.142 65.6876 160.753C65.6876 161.798 65.4132 162.781 64.8642 163.702C64.3152 164.605 63.4741 165.34 62.3408 165.906C61.2074 166.473 59.7554 166.756 57.9845 166.756ZM68.0197 160.62L68.0197 157.3L75.5369 157.3L75.5369 160.62L68.0197 160.62ZM84.2425 166.756C82.9498 166.756 81.666 166.588 80.391 166.252C79.1337 165.897 78.0535 165.402 77.1504 164.764L78.8504 161.47C79.5587 161.984 80.3733 162.391 81.2941 162.692C82.2326 162.993 83.18 163.144 84.1363 163.144C85.2165 163.144 86.0665 162.931 86.6863 162.506C87.3061 162.081 87.616 161.488 87.616 160.727C87.616 160.248 87.492 159.823 87.2441 159.452C86.9962 159.08 86.5535 158.796 85.916 158.602C85.2962 158.407 84.4196 158.309 83.2863 158.309L78.5316 158.309L79.4879 147.844L90.83 147.844L90.83 151.297L81.0285 151.297L83.2597 149.331L82.5957 156.795L80.3644 154.83L84.2957 154.83C86.1373 154.83 87.616 155.086 88.7316 155.6C89.8649 156.096 90.6883 156.778 91.2019 157.645C91.7154 158.513 91.9722 159.496 91.9722 160.594C91.9722 161.692 91.6977 162.71 91.1488 163.648C90.5998 164.569 89.7498 165.322 88.5988 165.906C87.4654 166.473 86.0134 166.756 84.2425 166.756ZM101.687 166.756C100.164 166.756 98.8003 166.384 97.5962 165.641C96.392 164.879 95.4446 163.781 94.754 162.347C94.0634 160.913 93.7181 159.177 93.7181 157.141C93.7181 155.104 94.0634 153.369 94.754 151.934C95.4446 150.5 96.392 149.411 97.5962 148.667C98.8003 147.906 100.164 147.525 101.687 147.525C103.227 147.525 104.591 147.906 105.777 148.667C106.982 149.411 107.929 150.5 108.62 151.934C109.31 153.369 109.656 155.104 109.656 157.141C109.656 159.177 109.31 160.913 108.62 162.347C107.929 163.781 106.982 164.879 105.777 165.641C104.591 166.384 103.227 166.756 101.687 166.756ZM101.687 163.117C102.413 163.117 103.041 162.914 103.573 162.506C104.122 162.099 104.547 161.453 104.848 160.567C105.166 159.682 105.326 158.54 105.326 157.141C105.326 155.742 105.166 154.6 104.848 153.714C104.547 152.829 104.122 152.182 103.573 151.775C103.041 151.368 102.413 151.164 101.687 151.164C100.978 151.164 100.35 151.368 99.8008 151.775C99.2696 152.182 98.8446 152.829 98.5259 153.714C98.2248 154.6 98.0743 155.742 98.0743 157.141C98.0743 158.54 98.2248 159.682 98.5259 160.567C98.8446 161.453 99.2696 162.099 99.8008 162.506C100.35 162.914 100.978 163.117 101.687 163.117ZM119.715 166.756C118.192 166.756 116.829 166.384 115.624 165.641C114.42 164.879 113.473 163.781 112.782 162.347C112.092 160.913 111.746 159.177 111.746 157.141C111.746 155.104 112.092 153.369 112.782 151.934C113.473 150.5 114.42 149.411 115.624 148.667C116.829 147.906 118.192 147.525 119.715 147.525C121.256 147.525 122.619 147.906 123.806 148.667C125.01 149.411 125.957 150.5 126.648 151.934C127.338 153.369 127.684 155.104 127.684 157.141C127.684 159.177 127.338 160.913 126.648 162.347C125.957 163.781 125.01 164.879 123.806 165.641C122.619 166.384 121.256 166.756 119.715 166.756ZM119.715 163.117C120.441 163.117 121.07 162.914 121.601 162.506C122.15 162.099 122.575 161.453 122.876 160.567C123.195 159.682 123.354 158.54 123.354 157.141C123.354 155.742 123.195 154.6 122.876 153.714C122.575 152.829 122.15 152.182 121.601 151.775C121.07 151.368 120.441 151.164 119.715 151.164C119.007 151.164 118.378 151.368 117.829 151.775C117.298 152.182 116.873 152.829 116.554 153.714C116.253 154.6 116.102 155.742 116.102 157.141C116.102 158.54 116.253 159.682 116.554 160.567C116.873 161.453 117.298 162.099 117.829 162.506C118.378 162.914 119.007 163.117 119.715 163.117ZM156.475 151.934C157.608 151.934 158.609 152.165 159.477 152.625C160.362 153.068 161.053 153.758 161.549 154.697C162.062 155.618 162.319 156.804 162.319 158.256L162.319 166.437L158.175 166.437L158.175 158.894C158.175 157.743 157.936 156.893 157.458 156.344C156.98 155.795 156.307 155.52 155.439 155.52C154.837 155.52 154.297 155.662 153.819 155.945C153.341 156.211 152.969 156.618 152.703 157.167C152.438 157.716 152.305 158.416 152.305 159.266L152.305 166.437L148.161 166.437L148.161 158.894C148.161 157.743 147.922 156.893 147.444 156.344C146.983 155.795 146.319 155.52 145.452 155.52C144.85 155.52 144.31 155.662 143.831 155.945C143.353 156.211 142.981 156.618 142.716 157.167C142.45 157.716 142.317 158.416 142.317 159.266L142.317 166.437L138.174 166.437L138.174 152.147L142.131 152.147L142.131 156.052L141.388 154.909C141.883 153.935 142.583 153.201 143.486 152.705C144.407 152.191 145.452 151.934 146.62 151.934C147.931 151.934 149.073 152.271 150.047 152.944C151.039 153.599 151.694 154.608 152.013 155.972L150.552 155.573C151.03 154.458 151.791 153.572 152.836 152.917C153.899 152.262 155.112 151.934 156.475 151.934ZM166.033 166.437L166.033 146.728L170.177 146.728L170.177 166.437L166.033 166.437Z" fill="#F6F4F3"/>
<path d="M31.6097 198V188.897H35.5372C36.5516 188.897 37.3362 189.1 37.8911 189.508C38.4546 189.915 38.7364 190.492 38.7364 191.237C38.7364 191.732 38.6194 192.148 38.3853 192.486C38.1599 192.824 37.8478 193.08 37.4489 193.253C37.0588 193.427 36.6296 193.513 36.1614 193.513L36.3825 193.201C36.9634 193.201 37.4619 193.292 37.8781 193.474C38.3029 193.648 38.6324 193.912 38.8665 194.268C39.1006 194.614 39.2176 195.048 39.2176 195.568C39.2176 196.34 38.9315 196.938 38.3593 197.363C37.7957 197.788 36.9417 198 35.7973 198H31.6097ZM32.5721 197.207H35.7843C36.5819 197.207 37.1932 197.072 37.618 196.804C38.0428 196.526 38.2552 196.088 38.2552 195.49C38.2552 194.9 38.0428 194.471 37.618 194.203C37.1932 193.925 36.5819 193.786 35.7843 193.786H32.468V192.993H35.4722C36.2005 192.993 36.764 192.854 37.1628 192.577C37.5703 192.299 37.7741 191.888 37.7741 191.341C37.7741 190.787 37.5703 190.375 37.1628 190.106C36.764 189.829 36.2005 189.69 35.4722 189.69H32.5721V197.207ZM45.4978 198V196.491L45.4588 196.244V193.721C45.4588 193.14 45.294 192.694 44.9646 192.382C44.6438 192.07 44.1626 191.914 43.521 191.914C43.0789 191.914 42.6584 191.987 42.2595 192.135C41.8607 192.282 41.5226 192.477 41.2452 192.72L40.829 192.031C41.1758 191.736 41.592 191.511 42.0775 191.354C42.563 191.19 43.0745 191.107 43.6121 191.107C44.4964 191.107 45.177 191.328 45.6538 191.771C46.1394 192.204 46.3821 192.867 46.3821 193.76V198H45.4978ZM43.1439 198.065C42.6324 198.065 42.1859 197.983 41.8044 197.818C41.4316 197.645 41.1455 197.41 40.946 197.116C40.7466 196.812 40.6469 196.465 40.6469 196.075C40.6469 195.72 40.7293 195.399 40.894 195.113C41.0674 194.818 41.3449 194.584 41.7263 194.411C42.1165 194.229 42.6367 194.138 43.2869 194.138H45.6408V194.827H43.313C42.654 194.827 42.1945 194.944 41.9344 195.178C41.683 195.412 41.5573 195.702 41.5573 196.049C41.5573 196.439 41.709 196.752 42.0125 196.986C42.3159 197.22 42.7407 197.337 43.2869 197.337C43.8071 197.337 44.2536 197.22 44.6265 196.986C45.0079 196.743 45.2854 196.396 45.4588 195.945L45.6668 196.582C45.4935 197.033 45.19 197.393 44.7565 197.662C44.3317 197.931 43.7941 198.065 43.1439 198.065ZM48.89 198V188.35H49.8134V198H48.89ZM56.6612 198V196.491L56.6222 196.244V193.721C56.6222 193.14 56.4575 192.694 56.128 192.382C55.8072 192.07 55.326 191.914 54.6845 191.914C54.2423 191.914 53.8218 191.987 53.423 192.135C53.0242 192.282 52.686 192.477 52.4086 192.72L51.9924 192.031C52.3392 191.736 52.7554 191.511 53.2409 191.354C53.7264 191.19 54.238 191.107 54.7755 191.107C55.6598 191.107 56.3404 191.328 56.8173 191.771C57.3028 192.204 57.5456 192.867 57.5456 193.76V198H56.6612ZM54.3073 198.065C53.7958 198.065 53.3493 197.983 52.9678 197.818C52.595 197.645 52.3089 197.41 52.1095 197.116C51.9101 196.812 51.8104 196.465 51.8104 196.075C51.8104 195.72 51.8927 195.399 52.0575 195.113C52.2309 194.818 52.5083 194.584 52.8898 194.411C53.2799 194.229 53.8001 194.138 54.4504 194.138H56.8043V194.827H54.4764C53.8175 194.827 53.358 194.944 53.0979 195.178C52.8464 195.412 52.7207 195.702 52.7207 196.049C52.7207 196.439 52.8724 196.752 53.1759 196.986C53.4793 197.22 53.9042 197.337 54.4504 197.337C54.9706 197.337 55.4171 197.22 55.7899 196.986C56.1714 196.743 56.4488 196.396 56.6222 195.945L56.8303 196.582C56.6569 197.033 56.3534 197.393 55.9199 197.662C55.4951 197.931 54.9576 198.065 54.3073 198.065ZM63.5388 191.107C64.0937 191.107 64.5792 191.216 64.9954 191.432C65.4202 191.641 65.7497 191.961 65.9838 192.395C66.2265 192.828 66.3479 193.375 66.3479 194.033V198H65.4245V194.125C65.4245 193.405 65.2425 192.863 64.8783 192.499C64.5229 192.126 64.02 191.94 63.3698 191.94C62.8842 191.94 62.4594 192.039 62.0953 192.239C61.7398 192.43 61.4624 192.711 61.263 193.084C61.0722 193.448 60.9768 193.89 60.9768 194.411V198H60.0535V191.172H60.9378V193.045L60.7948 192.694C61.0115 192.2 61.3583 191.814 61.8352 191.537C62.312 191.25 62.8799 191.107 63.5388 191.107ZM71.6771 198.065C71.0008 198.065 70.3939 197.918 69.8564 197.623C69.3275 197.319 68.9114 196.908 68.6079 196.387C68.3045 195.859 68.1527 195.256 68.1527 194.58C68.1527 193.895 68.3045 193.292 68.6079 192.772C68.9114 192.252 69.3275 191.844 69.8564 191.55C70.3939 191.255 71.0008 191.107 71.6771 191.107C72.258 191.107 72.7825 191.22 73.2507 191.445C73.7189 191.671 74.0873 192.009 74.3561 192.46L73.6668 192.928C73.4328 192.581 73.1423 192.326 72.7955 192.161C72.4487 191.996 72.0716 191.914 71.6641 191.914C71.1786 191.914 70.7407 192.026 70.3506 192.252C69.9604 192.469 69.6526 192.776 69.4272 193.175C69.2018 193.574 69.0891 194.042 69.0891 194.58C69.0891 195.117 69.2018 195.585 69.4272 195.984C69.6526 196.383 69.9604 196.695 70.3506 196.921C70.7407 197.137 71.1786 197.246 71.6641 197.246C72.0716 197.246 72.4487 197.163 72.7955 196.999C73.1423 196.834 73.4328 196.582 73.6668 196.244L74.3561 196.713C74.0873 197.155 73.7189 197.493 73.2507 197.727C72.7825 197.952 72.258 198.065 71.6771 198.065ZM78.9558 198.065C78.2449 198.065 77.6206 197.918 77.0831 197.623C76.5455 197.319 76.1251 196.908 75.8216 196.387C75.5182 195.859 75.3664 195.256 75.3664 194.58C75.3664 193.903 75.5095 193.305 75.7956 192.785C76.0904 192.265 76.4892 191.857 76.992 191.563C77.5036 191.259 78.0758 191.107 78.7087 191.107C79.3503 191.107 79.9182 191.255 80.4124 191.55C80.9152 191.836 81.3097 192.243 81.5958 192.772C81.8819 193.292 82.025 193.895 82.025 194.58C82.025 194.623 82.0206 194.671 82.012 194.723C82.012 194.766 82.012 194.814 82.012 194.866H76.0687V194.177H81.5178L81.1536 194.45C81.1536 193.955 81.0453 193.518 80.8285 193.136C80.6204 192.746 80.3343 192.443 79.9702 192.226C79.606 192.009 79.1856 191.901 78.7087 191.901C78.2405 191.901 77.82 192.009 77.4472 192.226C77.0744 192.443 76.784 192.746 76.5759 193.136C76.3678 193.526 76.2638 193.973 76.2638 194.476V194.619C76.2638 195.139 76.3765 195.598 76.6019 195.997C76.836 196.387 77.1568 196.695 77.5643 196.921C77.9804 197.137 78.4529 197.246 78.9818 197.246C79.398 197.246 79.7838 197.172 80.1393 197.025C80.5034 196.877 80.8155 196.652 81.0756 196.348L81.5958 196.947C81.2924 197.311 80.9109 197.588 80.4514 197.779C80.0005 197.97 79.502 198.065 78.9558 198.065ZM86.6224 198.065C85.9722 198.065 85.387 197.918 84.8668 197.623C84.3552 197.328 83.9521 196.921 83.6573 196.4C83.3625 195.872 83.2151 195.265 83.2151 194.58C83.2151 193.886 83.3625 193.279 83.6573 192.759C83.9521 192.239 84.3552 191.836 84.8668 191.55C85.387 191.255 85.9722 191.107 86.6224 191.107C87.2207 191.107 87.7539 191.242 88.222 191.511C88.6989 191.779 89.076 192.174 89.3535 192.694C89.6396 193.206 89.7826 193.834 89.7826 194.58C89.7826 195.317 89.6439 195.945 89.3665 196.465C89.089 196.986 88.7119 197.384 88.235 197.662C87.7669 197.931 87.2293 198.065 86.6224 198.065ZM86.6875 197.246C87.173 197.246 87.6065 197.137 87.9879 196.921C88.3781 196.695 88.6815 196.383 88.8983 195.984C89.1237 195.577 89.2364 195.109 89.2364 194.58C89.2364 194.042 89.1237 193.574 88.8983 193.175C88.6815 192.776 88.3781 192.469 87.9879 192.252C87.6065 192.026 87.173 191.914 86.6875 191.914C86.2106 191.914 85.7814 192.026 85.4 192.252C85.0185 192.469 84.715 192.776 84.4896 193.175C84.2642 193.574 84.1515 194.042 84.1515 194.58C84.1515 195.109 84.2642 195.577 84.4896 195.984C84.715 196.383 85.0185 196.695 85.4 196.921C85.7814 197.137 86.2106 197.246 86.6875 197.246ZM89.2624 198V195.945L89.3535 194.567L89.2234 193.188V188.35H90.1468V198H89.2624ZM100.271 198.078C99.5856 198.078 98.9527 197.965 98.3718 197.74C97.7909 197.506 97.2881 197.181 96.8632 196.765C96.4384 196.348 96.1046 195.859 95.8618 195.295C95.6278 194.731 95.5107 194.116 95.5107 193.448C95.5107 192.781 95.6278 192.165 95.8618 191.602C96.1046 191.038 96.4384 190.548 96.8632 190.132C97.2967 189.716 97.8039 189.395 98.3848 189.17C98.9657 188.936 99.5986 188.818 100.284 188.818C100.942 188.818 101.562 188.931 102.143 189.157C102.724 189.373 103.214 189.703 103.613 190.145L103.002 190.756C102.629 190.375 102.217 190.102 101.766 189.937C101.315 189.764 100.83 189.677 100.31 189.677C99.7633 189.677 99.2561 189.772 98.788 189.963C98.3198 190.145 97.9123 190.409 97.5655 190.756C97.2187 191.094 96.9456 191.493 96.7462 191.953C96.5554 192.404 96.4601 192.902 96.4601 193.448C96.4601 193.994 96.5554 194.497 96.7462 194.957C96.9456 195.408 97.2187 195.806 97.5655 196.153C97.9123 196.491 98.3198 196.756 98.788 196.947C99.2561 197.129 99.7633 197.22 100.31 197.22C100.83 197.22 101.315 197.133 101.766 196.96C102.217 196.786 102.629 196.509 103.002 196.127L103.613 196.739C103.214 197.181 102.724 197.514 102.143 197.74C101.562 197.965 100.938 198.078 100.271 198.078ZM109.646 198V196.491L109.607 196.244V193.721C109.607 193.14 109.443 192.694 109.113 192.382C108.792 192.07 108.311 191.914 107.67 191.914C107.227 191.914 106.807 191.987 106.408 192.135C106.009 192.282 105.671 192.477 105.394 192.72L104.978 192.031C105.324 191.736 105.74 191.511 106.226 191.354C106.712 191.19 107.223 191.107 107.761 191.107C108.645 191.107 109.326 191.328 109.802 191.771C110.288 192.204 110.531 192.867 110.531 193.76V198H109.646ZM107.292 198.065C106.781 198.065 106.334 197.983 105.953 197.818C105.58 197.645 105.294 197.41 105.095 197.116C104.895 196.812 104.795 196.465 104.795 196.075C104.795 195.72 104.878 195.399 105.043 195.113C105.216 194.818 105.493 194.584 105.875 194.411C106.265 194.229 106.785 194.138 107.435 194.138H109.789V194.827H107.461C106.803 194.827 106.343 194.944 106.083 195.178C105.832 195.412 105.706 195.702 105.706 196.049C105.706 196.439 105.858 196.752 106.161 196.986C106.464 197.22 106.889 197.337 107.435 197.337C107.956 197.337 108.402 197.22 108.775 196.986C109.156 196.743 109.434 196.396 109.607 195.945L109.815 196.582C109.642 197.033 109.339 197.393 108.905 197.662C108.48 197.931 107.943 198.065 107.292 198.065ZM116.563 198.065C115.973 198.065 115.44 197.931 114.963 197.662C114.486 197.384 114.105 196.99 113.819 196.478C113.541 195.958 113.403 195.325 113.403 194.58C113.403 193.834 113.541 193.206 113.819 192.694C114.096 192.174 114.473 191.779 114.95 191.511C115.427 191.242 115.965 191.107 116.563 191.107C117.213 191.107 117.794 191.255 118.306 191.55C118.826 191.836 119.233 192.243 119.528 192.772C119.823 193.292 119.97 193.895 119.97 194.58C119.97 195.273 119.823 195.88 119.528 196.4C119.233 196.921 118.826 197.328 118.306 197.623C117.794 197.918 117.213 198.065 116.563 198.065ZM113.039 200.523V191.172H113.923V193.227L113.832 194.593L113.962 195.971V200.523H113.039ZM116.498 197.246C116.983 197.246 117.417 197.137 117.798 196.921C118.18 196.695 118.483 196.383 118.709 195.984C118.934 195.577 119.047 195.109 119.047 194.58C119.047 194.051 118.934 193.587 118.709 193.188C118.483 192.789 118.18 192.477 117.798 192.252C117.417 192.026 116.983 191.914 116.498 191.914C116.012 191.914 115.575 192.026 115.184 192.252C114.803 192.477 114.499 192.789 114.274 193.188C114.057 193.587 113.949 194.051 113.949 194.58C113.949 195.109 114.057 195.577 114.274 195.984C114.499 196.383 114.803 196.695 115.184 196.921C115.575 197.137 116.012 197.246 116.498 197.246ZM126.093 198V196.491L126.054 196.244V193.721C126.054 193.14 125.889 192.694 125.56 192.382C125.239 192.07 124.758 191.914 124.116 191.914C123.674 191.914 123.254 191.987 122.855 192.135C122.456 192.282 122.118 192.477 121.84 192.72L121.424 192.031C121.771 191.736 122.187 191.511 122.673 191.354C123.158 191.19 123.67 191.107 124.207 191.107C125.092 191.107 125.772 191.328 126.249 191.771C126.735 192.204 126.977 192.867 126.977 193.76V198H126.093ZM123.739 198.065C123.228 198.065 122.781 197.983 122.4 197.818C122.027 197.645 121.741 197.41 121.541 197.116C121.342 196.812 121.242 196.465 121.242 196.075C121.242 195.72 121.325 195.399 121.489 195.113C121.663 194.818 121.94 194.584 122.322 194.411C122.712 194.229 123.232 194.138 123.882 194.138H126.236V194.827H123.908C123.249 194.827 122.79 194.944 122.53 195.178C122.278 195.412 122.152 195.702 122.152 196.049C122.152 196.439 122.304 196.752 122.608 196.986C122.911 197.22 123.336 197.337 123.882 197.337C124.402 197.337 124.849 197.22 125.222 196.986C125.603 196.743 125.881 196.396 126.054 195.945L126.262 196.582C126.089 197.033 125.785 197.393 125.352 197.662C124.927 197.931 124.389 198.065 123.739 198.065ZM132.32 198.065C131.644 198.065 131.037 197.918 130.5 197.623C129.971 197.319 129.555 196.908 129.251 196.387C128.948 195.859 128.796 195.256 128.796 194.58C128.796 193.895 128.948 193.292 129.251 192.772C129.555 192.252 129.971 191.844 130.5 191.55C131.037 191.255 131.644 191.107 132.32 191.107C132.901 191.107 133.426 191.22 133.894 191.445C134.362 191.671 134.731 192.009 134.999 192.46L134.31 192.928C134.076 192.581 133.786 192.326 133.439 192.161C133.092 191.996 132.715 191.914 132.307 191.914C131.822 191.914 131.384 192.026 130.994 192.252C130.604 192.469 130.296 192.776 130.07 193.175C129.845 193.574 129.732 194.042 129.732 194.58C129.732 195.117 129.845 195.585 130.07 195.984C130.296 196.383 130.604 196.695 130.994 196.921C131.384 197.137 131.822 197.246 132.307 197.246C132.715 197.246 133.092 197.163 133.439 196.999C133.786 196.834 134.076 196.582 134.31 196.244L134.999 196.713C134.731 197.155 134.362 197.493 133.894 197.727C133.426 197.952 132.901 198.065 132.32 198.065ZM136.712 198V191.172H137.635V198H136.712ZM137.18 189.664C136.989 189.664 136.829 189.599 136.699 189.469C136.569 189.339 136.504 189.183 136.504 189.001C136.504 188.818 136.569 188.667 136.699 188.545C136.829 188.415 136.989 188.35 137.18 188.35C137.371 188.35 137.531 188.411 137.661 188.532C137.791 188.654 137.856 188.805 137.856 188.988C137.856 189.178 137.791 189.339 137.661 189.469C137.54 189.599 137.379 189.664 137.18 189.664ZM142.363 198.065C141.721 198.065 141.227 197.892 140.88 197.545C140.534 197.198 140.36 196.708 140.36 196.075V189.664H141.284V196.023C141.284 196.422 141.383 196.73 141.583 196.947C141.791 197.163 142.086 197.272 142.467 197.272C142.875 197.272 143.213 197.155 143.481 196.921L143.807 197.584C143.625 197.749 143.403 197.87 143.143 197.948C142.892 198.026 142.632 198.065 142.363 198.065ZM139.138 191.94V191.172H143.364V191.94H139.138ZM145.412 200.588C145.092 200.588 144.784 200.536 144.489 200.432C144.203 200.328 143.956 200.172 143.748 199.964L144.177 199.274C144.35 199.439 144.537 199.565 144.736 199.652C144.944 199.747 145.174 199.795 145.425 199.795C145.729 199.795 145.989 199.708 146.206 199.535C146.431 199.37 146.644 199.075 146.843 198.65L147.285 197.649L147.389 197.506L150.198 191.172H151.109L147.688 198.819C147.498 199.261 147.285 199.613 147.051 199.873C146.826 200.133 146.579 200.315 146.31 200.419C146.041 200.532 145.742 200.588 145.412 200.588ZM147.233 198.195L144.086 191.172H145.048L147.831 197.441L147.233 198.195ZM156.008 198V188.897H156.97V198H156.008ZM159.932 198V188.897H160.725L164.887 195.997H164.471L168.593 188.897H169.387V198H168.463V190.34H168.684L164.887 196.843H164.432L160.608 190.34H160.855V198H159.932ZM172.353 198V188.897H173.315V197.168H178.413V198H172.353ZM45.2407 217.078C44.5558 217.078 43.9229 216.965 43.342 216.74C42.7611 216.506 42.2583 216.181 41.8334 215.765C41.4086 215.348 41.0748 214.859 40.832 214.295C40.598 213.731 40.4809 213.116 40.4809 212.448C40.4809 211.781 40.598 211.165 40.832 210.602C41.0748 210.038 41.4086 209.548 41.8334 209.132C42.2669 208.716 42.7741 208.395 43.355 208.17C43.9359 207.936 44.5688 207.818 45.2537 207.818C45.9127 207.818 46.5326 207.931 47.1134 208.157C47.6943 208.373 48.1842 208.703 48.583 209.145L47.9718 209.756C47.599 209.375 47.1871 209.102 46.7363 208.937C46.2855 208.764 45.7999 208.677 45.2797 208.677C44.7335 208.677 44.2263 208.772 43.7582 208.963C43.29 209.145 42.8825 209.409 42.5357 209.756C42.1889 210.094 41.9158 210.493 41.7164 210.953C41.5256 211.404 41.4303 211.902 41.4303 212.448C41.4303 212.994 41.5256 213.497 41.7164 213.957C41.9158 214.408 42.1889 214.806 42.5357 215.153C42.8825 215.491 43.29 215.756 43.7582 215.947C44.2263 216.129 44.7335 216.22 45.2797 216.22C45.7999 216.22 46.2855 216.133 46.7363 215.96C47.1871 215.786 47.599 215.509 47.9718 215.127L48.583 215.739C48.1842 216.181 47.6943 216.514 47.1134 216.74C46.5326 216.965 45.9083 217.078 45.2407 217.078ZM52.9177 217.065C52.2588 217.065 51.6649 216.918 51.136 216.623C50.6158 216.319 50.204 215.908 49.9006 215.387C49.5971 214.859 49.4454 214.256 49.4454 213.58C49.4454 212.895 49.5971 212.292 49.9006 211.772C50.204 211.252 50.6158 210.844 51.136 210.55C51.6562 210.255 52.2501 210.107 52.9177 210.107C53.594 210.107 54.1922 210.255 54.7124 210.55C55.2413 210.844 55.6531 211.252 55.9479 211.772C56.2513 212.292 56.4031 212.895 56.4031 213.58C56.4031 214.256 56.2513 214.859 55.9479 215.387C55.6531 215.908 55.2413 216.319 54.7124 216.623C54.1835 216.918 53.5853 217.065 52.9177 217.065ZM52.9177 216.246C53.4119 216.246 53.8497 216.137 54.2312 215.921C54.6127 215.695 54.9118 215.383 55.1286 214.984C55.354 214.577 55.4667 214.109 55.4667 213.58C55.4667 213.042 55.354 212.574 55.1286 212.175C54.9118 211.776 54.6127 211.469 54.2312 211.252C53.8497 211.026 53.4162 210.914 52.9307 210.914C52.4452 210.914 52.0117 211.026 51.6302 211.252C51.2488 211.469 50.9453 211.776 50.7199 212.175C50.4945 212.574 50.3818 213.042 50.3818 213.58C50.3818 214.109 50.4945 214.577 50.7199 214.984C50.9453 215.383 51.2488 215.695 51.6302 215.921C52.0117 216.137 52.4409 216.246 52.9177 216.246ZM61.7735 210.107C62.3284 210.107 62.8139 210.216 63.2301 210.432C63.6549 210.641 63.9843 210.961 64.2184 211.395C64.4612 211.828 64.5826 212.375 64.5826 213.033V217H63.6592V213.125C63.6592 212.405 63.4771 211.863 63.113 211.499C62.7575 211.126 62.2547 210.94 61.6044 210.94C61.1189 210.94 60.6941 211.039 60.3299 211.239C59.9745 211.43 59.697 211.711 59.4976 212.084C59.3069 212.448 59.2115 212.89 59.2115 213.411V217H58.2882V210.172H59.1725V212.045L59.0294 211.694C59.2462 211.2 59.593 210.814 60.0698 210.537C60.5467 210.25 61.1146 210.107 61.7735 210.107ZM69.2355 217.065C68.5939 217.065 68.0997 216.892 67.7529 216.545C67.4061 216.198 67.2327 215.708 67.2327 215.075V208.664H68.1561V215.023C68.1561 215.422 68.2558 215.73 68.4552 215.947C68.6633 216.163 68.9581 216.272 69.3395 216.272C69.747 216.272 70.0852 216.155 70.3539 215.921L70.6791 216.584C70.497 216.749 70.2759 216.87 70.0158 216.948C69.7644 217.026 69.5043 217.065 69.2355 217.065ZM66.0103 210.94V210.172H70.2369V210.94H66.0103ZM76.6386 217V215.491L76.5996 215.244V212.721C76.5996 212.14 76.4348 211.694 76.1054 211.382C75.7846 211.07 75.3034 210.914 74.6618 210.914C74.2197 210.914 73.7992 210.987 73.4003 211.135C73.0015 211.282 72.6634 211.477 72.386 211.72L71.9698 211.031C72.3166 210.736 72.7328 210.511 73.2183 210.354C73.7038 210.19 74.2153 210.107 74.7529 210.107C75.6372 210.107 76.3178 210.328 76.7946 210.771C77.2802 211.204 77.5229 211.867 77.5229 212.76V217H76.6386ZM74.2847 217.065C73.7732 217.065 73.3266 216.983 72.9452 216.818C72.5724 216.645 72.2862 216.41 72.0868 216.116C71.8874 215.812 71.7877 215.465 71.7877 215.075C71.7877 214.72 71.8701 214.399 72.0348 214.113C72.2082 213.818 72.4857 213.584 72.8671 213.411C73.2573 213.229 73.7775 213.138 74.4277 213.138H76.7816V213.827H74.4537C73.7948 213.827 73.3353 213.944 73.0752 214.178C72.8238 214.412 72.6981 214.702 72.6981 215.049C72.6981 215.439 72.8498 215.752 73.1532 215.986C73.4567 216.22 73.8815 216.337 74.4277 216.337C74.9479 216.337 75.3944 216.22 75.7672 215.986C76.1487 215.743 76.4262 215.396 76.5996 214.945L76.8076 215.582C76.6342 216.033 76.3308 216.393 75.8973 216.662C75.4725 216.931 74.9349 217.065 74.2847 217.065ZM80.0308 217V210.172H80.9542V217H80.0308ZM80.499 208.664C80.3083 208.664 80.1479 208.599 80.0178 208.469C79.8878 208.339 79.8228 208.183 79.8228 208.001C79.8228 207.818 79.8878 207.667 80.0178 207.545C80.1479 207.415 80.3083 207.35 80.499 207.35C80.6898 207.35 80.8502 207.411 80.9802 207.532C81.1103 207.654 81.1753 207.805 81.1753 207.988C81.1753 208.178 81.1103 208.339 80.9802 208.469C80.8588 208.599 80.6984 208.664 80.499 208.664ZM87.0087 210.107C87.5636 210.107 88.0491 210.216 88.4653 210.432C88.8901 210.641 89.2196 210.961 89.4536 211.395C89.6964 211.828 89.8178 212.375 89.8178 213.033V217H88.8944V213.125C88.8944 212.405 88.7124 211.863 88.3482 211.499C87.9928 211.126 87.4899 210.94 86.8397 210.94C86.3541 210.94 85.9293 211.039 85.5652 211.239C85.2097 211.43 84.9323 211.711 84.7328 212.084C84.5421 212.448 84.4467 212.89 84.4467 213.411V217H83.5234V210.172H84.4077V212.045L84.2647 211.694C84.4814 211.2 84.8282 210.814 85.3051 210.537C85.7819 210.25 86.3498 210.107 87.0087 210.107ZM95.212 217.065C94.5011 217.065 93.8768 216.918 93.3393 216.623C92.8018 216.319 92.3813 215.908 92.0778 215.387C91.7744 214.859 91.6226 214.256 91.6226 213.58C91.6226 212.903 91.7657 212.305 92.0518 211.785C92.3466 211.265 92.7454 210.857 93.2483 210.563C93.7598 210.259 94.332 210.107 94.9649 210.107C95.6065 210.107 96.1744 210.255 96.6686 210.55C97.1714 210.836 97.5659 211.243 97.852 211.772C98.1381 212.292 98.2812 212.895 98.2812 213.58C98.2812 213.623 98.2768 213.671 98.2682 213.723C98.2682 213.766 98.2682 213.814 98.2682 213.866H92.3249V213.177H97.774L97.4098 213.45C97.4098 212.955 97.3015 212.518 97.0847 212.136C96.8766 211.746 96.5905 211.443 96.2264 211.226C95.8623 211.009 95.4418 210.901 94.9649 210.901C94.4967 210.901 94.0762 211.009 93.7034 211.226C93.3306 211.443 93.0402 211.746 92.8321 212.136C92.624 212.526 92.52 212.973 92.52 213.476V213.619C92.52 214.139 92.6327 214.598 92.8581 214.997C93.0922 215.387 93.413 215.695 93.8205 215.921C94.2366 216.137 94.7091 216.246 95.238 216.246C95.6542 216.246 96.04 216.172 96.3955 216.025C96.7596 215.877 97.0717 215.652 97.3318 215.348L97.852 215.947C97.5486 216.311 97.1671 216.588 96.7076 216.779C96.2567 216.97 95.7582 217.065 95.212 217.065ZM100.161 217V210.172H101.045V212.032L100.954 211.707C101.145 211.187 101.465 210.792 101.916 210.524C102.367 210.246 102.926 210.107 103.594 210.107V211.005C103.559 211.005 103.525 211.005 103.49 211.005C103.455 210.996 103.421 210.992 103.386 210.992C102.666 210.992 102.103 211.213 101.695 211.655C101.288 212.088 101.084 212.708 101.084 213.515V217H100.161ZM110.618 217.065C110.054 217.065 109.521 216.987 109.018 216.831C108.515 216.666 108.121 216.462 107.835 216.22L108.251 215.491C108.528 215.7 108.884 215.882 109.317 216.038C109.751 216.185 110.206 216.259 110.683 216.259C111.333 216.259 111.801 216.159 112.087 215.96C112.373 215.752 112.516 215.478 112.516 215.14C112.516 214.889 112.434 214.694 112.269 214.555C112.113 214.408 111.905 214.299 111.645 214.23C111.385 214.152 111.095 214.087 110.774 214.035C110.453 213.983 110.132 213.922 109.811 213.853C109.499 213.783 109.213 213.684 108.953 213.554C108.693 213.415 108.481 213.229 108.316 212.994C108.16 212.76 108.082 212.448 108.082 212.058C108.082 211.685 108.186 211.352 108.394 211.057C108.602 210.762 108.905 210.532 109.304 210.367C109.712 210.194 110.206 210.107 110.787 210.107C111.229 210.107 111.671 210.168 112.113 210.289C112.555 210.402 112.92 210.554 113.206 210.745L112.803 211.486C112.499 211.278 112.174 211.13 111.827 211.044C111.48 210.948 111.134 210.901 110.787 210.901C110.171 210.901 109.716 211.009 109.421 211.226C109.135 211.434 108.992 211.703 108.992 212.032C108.992 212.292 109.07 212.496 109.226 212.643C109.391 212.791 109.603 212.908 109.863 212.994C110.132 213.073 110.423 213.138 110.735 213.19C111.056 213.242 111.372 213.307 111.684 213.385C112.005 213.454 112.295 213.554 112.555 213.684C112.824 213.805 113.037 213.983 113.193 214.217C113.357 214.442 113.44 214.741 113.44 215.114C113.44 215.513 113.327 215.86 113.102 216.155C112.885 216.441 112.564 216.666 112.139 216.831C111.723 216.987 111.216 217.065 110.618 217.065ZM117.956 217.065C117.375 217.065 116.868 216.957 116.435 216.74C116.001 216.523 115.663 216.198 115.42 215.765C115.186 215.331 115.069 214.789 115.069 214.139V210.172H115.992V214.035C115.992 214.763 116.17 215.314 116.526 215.686C116.89 216.051 117.397 216.233 118.047 216.233C118.524 216.233 118.936 216.137 119.283 215.947C119.638 215.747 119.907 215.461 120.089 215.088C120.28 214.715 120.375 214.269 120.375 213.749V210.172H121.298V217H120.414V215.127L120.557 215.465C120.34 215.968 120.002 216.363 119.543 216.649C119.092 216.926 118.563 217.065 117.956 217.065ZM123.872 217V210.172H124.795V217L123.872 217ZM124.34 208.664C124.149 208.664 123.989 208.599 123.859 208.469C123.729 208.339 123.664 208.183 123.664 208.001C123.664 207.818 123.729 207.667 123.859 207.545C123.989 207.415 124.149 207.35 124.34 207.35C124.531 207.35 124.691 207.411 124.821 207.532C124.951 207.654 125.016 207.805 125.016 207.988C125.016 208.178 124.951 208.339 124.821 208.469C124.7 208.599 124.539 208.664 124.34 208.664ZM129.523 217.065C128.882 217.065 128.387 216.892 128.041 216.545C127.694 216.198 127.52 215.708 127.52 215.075V208.664H128.444V215.023C128.444 215.422 128.543 215.73 128.743 215.947C128.951 216.163 129.246 216.272 129.627 216.272C130.035 216.272 130.373 216.155 130.642 215.921L130.967 216.584C130.785 216.749 130.564 216.87 130.303 216.948C130.052 217.026 129.792 217.065 129.523 217.065ZM126.298 210.94V210.172H130.525V210.94H126.298ZM135.306 217.065C134.595 217.065 133.971 216.918 133.434 216.623C132.896 216.319 132.476 215.908 132.172 215.387C131.869 214.859 131.717 214.256 131.717 213.58C131.717 212.903 131.86 212.305 132.146 211.785C132.441 211.265 132.84 210.857 133.343 210.563C133.854 210.259 134.426 210.107 135.059 210.107C135.701 210.107 136.269 210.255 136.763 210.55C137.266 210.836 137.66 211.243 137.946 211.772C138.233 212.292 138.376 212.895 138.376 213.58C138.376 213.623 138.371 213.671 138.363 213.723C138.363 213.766 138.363 213.814 138.363 213.866H132.419V213.177H137.868L137.504 213.45C137.504 212.955 137.396 212.518 137.179 212.136C136.971 211.746 136.685 211.443 136.321 211.226C135.957 211.009 135.536 210.901 135.059 210.901C134.591 210.901 134.171 211.009 133.798 211.226C133.425 211.443 133.135 211.746 132.927 212.136C132.718 212.526 132.614 212.973 132.614 213.476V213.619C132.614 214.139 132.727 214.598 132.953 214.997C133.187 215.387 133.507 215.695 133.915 215.921C134.331 216.137 134.804 216.246 135.332 216.246C135.749 216.246 136.134 216.172 136.49 216.025C136.854 215.877 137.166 215.652 137.426 215.348L137.946 215.947C137.643 216.311 137.261 216.588 136.802 216.779C136.351 216.97 135.853 217.065 135.306 217.065ZM142.973 217.065C142.323 217.065 141.738 216.918 141.217 216.623C140.706 216.328 140.303 215.921 140.008 215.4C139.713 214.872 139.566 214.265 139.566 213.58C139.566 212.886 139.713 212.279 140.008 211.759C140.303 211.239 140.706 210.836 141.217 210.55C141.738 210.255 142.323 210.107 142.973 210.107C143.571 210.107 144.104 210.242 144.573 210.511C145.05 210.779 145.427 211.174 145.704 211.694C145.99 212.206 146.133 212.834 146.133 213.58C146.133 214.317 145.995 214.945 145.717 215.465C145.44 215.986 145.063 216.384 144.586 216.662C144.117 216.931 143.58 217.065 142.973 217.065ZM143.038 216.246C143.524 216.246 143.957 216.137 144.339 215.921C144.729 215.695 145.032 215.383 145.249 214.984C145.474 214.577 145.587 214.109 145.587 213.58C145.587 213.042 145.474 212.574 145.249 212.175C145.032 211.776 144.729 211.469 144.339 211.252C143.957 211.026 143.524 210.914 143.038 210.914C142.561 210.914 142.132 211.026 141.751 211.252C141.369 211.469 141.066 211.776 140.84 212.175C140.615 212.574 140.502 213.042 140.502 213.58C140.502 214.109 140.615 214.577 140.84 214.984C141.066 215.383 141.369 215.695 141.751 215.921C142.132 216.137 142.561 216.246 143.038 216.246ZM145.613 217V214.945L145.704 213.567L145.574 212.188V207.35H146.497V217H145.613ZM152.629 217V209.314C152.629 208.707 152.806 208.217 153.162 207.845C153.517 207.472 154.029 207.285 154.696 207.285C154.956 207.285 155.208 207.32 155.451 207.389C155.693 207.459 155.897 207.567 156.062 207.714L155.75 208.404C155.62 208.291 155.468 208.209 155.295 208.157C155.121 208.096 154.935 208.066 154.735 208.066C154.345 208.066 154.046 208.174 153.838 208.391C153.63 208.607 153.526 208.928 153.526 209.353V210.393L153.552 210.823V217H152.629ZM151.406 210.94V210.172H155.633V210.94H151.406ZM159.548 217.065C158.889 217.065 158.295 216.918 157.767 216.623C157.246 216.319 156.835 215.908 156.531 215.387C156.228 214.859 156.076 214.256 156.076 213.58C156.076 212.895 156.228 212.292 156.531 211.772C156.835 211.252 157.246 210.844 157.767 210.55C158.287 210.255 158.881 210.107 159.548 210.107C160.225 210.107 160.823 210.255 161.343 210.55C161.872 210.844 162.284 211.252 162.578 211.772C162.882 212.292 163.034 212.895 163.034 213.58C163.034 214.256 162.882 214.859 162.578 215.387C162.284 215.908 161.872 216.319 161.343 216.623C160.814 216.918 160.216 217.065 159.548 217.065ZM159.548 216.246C160.042 216.246 160.48 216.137 160.862 215.921C161.243 215.695 161.542 215.383 161.759 214.984C161.985 214.577 162.097 214.109 162.097 213.58C162.097 213.042 161.985 212.574 161.759 212.175C161.542 211.776 161.243 211.469 160.862 211.252C160.48 211.026 160.047 210.914 159.561 210.914C159.076 210.914 158.642 211.026 158.261 211.252C157.879 211.469 157.576 211.776 157.35 212.175C157.125 212.574 157.012 213.042 157.012 213.58C157.012 214.109 157.125 214.577 157.35 214.984C157.576 215.383 157.879 215.695 158.261 215.921C158.642 216.137 159.071 216.246 159.548 216.246ZM164.919 217V210.172H165.803V212.032L165.712 211.707C165.903 211.187 166.224 210.792 166.674 210.524C167.125 210.246 167.684 210.107 168.352 210.107V211.005C168.317 211.005 168.283 211.005 168.248 211.005C168.213 210.996 168.179 210.992 168.144 210.992C167.424 210.992 166.861 211.213 166.453 211.655C166.046 212.088 165.842 212.708 165.842 213.515V217H164.919ZM39.2451 236.078C38.5775 236.078 37.9793 235.931 37.4504 235.636C36.9302 235.341 36.5184 234.929 36.2149 234.4C35.9115 233.872 35.7598 233.256 35.7598 232.554C35.7598 231.851 35.9115 231.24 36.2149 230.72C36.5184 230.191 36.9302 229.779 37.4504 229.485C37.9793 229.19 38.5775 229.042 39.2451 229.042C39.826 229.042 40.3505 229.172 40.8187 229.432C41.2869 229.693 41.6597 230.083 41.9371 230.603C42.2232 231.123 42.3663 231.773 42.3663 232.554C42.3663 233.334 42.2276 233.984 41.9501 234.504C41.6814 235.025 41.3129 235.419 40.8447 235.688C40.3765 235.948 39.8433 236.078 39.2451 236.078ZM39.3491 234.986C39.7826 234.986 40.1728 234.886 40.5196 234.686C40.875 234.487 41.1525 234.205 41.3519 233.841C41.56 233.468 41.664 233.039 41.664 232.554C41.664 232.059 41.56 231.635 41.3519 231.279C41.1525 230.915 40.875 230.633 40.5196 230.434C40.1728 230.234 39.7826 230.135 39.3491 230.135C38.907 230.135 38.5125 230.234 38.1657 230.434C37.8189 230.633 37.5414 230.915 37.3334 231.279C37.1253 231.635 37.0212 232.059 37.0212 232.554C37.0212 233.039 37.1253 233.468 37.3334 233.841C37.5414 234.205 37.8189 234.487 38.1657 234.686C38.5125 234.886 38.907 234.986 39.3491 234.986ZM41.703 236V234.14L41.7811 232.541L41.651 230.941V226.35H42.8995V236H41.703ZM48.3309 236.078C47.5939 236.078 46.9437 235.926 46.3801 235.623C45.8253 235.319 45.3918 234.903 45.0796 234.374C44.7762 233.846 44.6245 233.239 44.6245 232.554C44.6245 231.869 44.7719 231.262 45.0666 230.733C45.3701 230.204 45.7819 229.792 46.3021 229.498C46.831 229.194 47.4249 229.042 48.0838 229.042C48.7514 229.042 49.3409 229.19 49.8525 229.485C50.364 229.779 50.7628 230.195 51.0489 230.733C51.3437 231.262 51.4911 231.882 51.4911 232.593C51.4911 232.645 51.4868 232.705 51.4781 232.775C51.4781 232.844 51.4738 232.909 51.4651 232.97H45.5998V232.073H50.8148L50.3076 232.385C50.3163 231.942 50.2253 231.548 50.0345 231.201C49.8438 230.854 49.5794 230.586 49.2412 230.395C48.9118 230.195 48.526 230.096 48.0838 230.096C47.6503 230.096 47.2645 230.195 46.9264 230.395C46.5882 230.586 46.3238 230.859 46.1331 231.214C45.9423 231.561 45.8469 231.96 45.8469 232.411V232.619C45.8469 233.078 45.951 233.49 46.1591 233.854C46.3758 234.21 46.6749 234.487 47.0564 234.686C47.4379 234.886 47.8757 234.986 48.3699 234.986C48.7774 234.986 49.1459 234.916 49.4753 234.778C49.8135 234.639 50.1082 234.431 50.3597 234.153L51.0489 234.96C50.7368 235.324 50.3467 235.601 49.8785 235.792C49.419 235.983 48.9031 236.078 48.3309 236.078ZM55.2015 236.078C54.6293 236.078 54.083 236 53.5628 235.844C53.0513 235.688 52.6482 235.497 52.3534 235.272L52.8736 234.283C53.1684 234.483 53.5325 234.652 53.966 234.791C54.3995 234.929 54.8417 234.999 55.2925 234.999C55.8734 234.999 56.2896 234.916 56.541 234.752C56.8011 234.587 56.9311 234.357 56.9311 234.062C56.9311 233.846 56.8531 233.676 56.697 233.555C56.541 233.434 56.3329 233.343 56.0728 233.282C55.8214 233.221 55.5396 233.169 55.2275 233.126C54.9154 233.074 54.6032 233.013 54.2911 232.944C53.979 232.866 53.6929 232.762 53.4328 232.632C53.1727 232.493 52.9646 232.307 52.8086 232.073C52.6525 231.83 52.5745 231.509 52.5745 231.11C52.5745 230.694 52.6915 230.33 52.9256 230.018C53.1597 229.706 53.4892 229.467 53.914 229.302C54.3475 229.129 54.859 229.042 55.4486 229.042C55.8994 229.042 56.3546 229.099 56.8141 229.211C57.2823 229.315 57.6637 229.467 57.9585 229.667L57.4253 230.655C57.1132 230.447 56.7881 230.304 56.45 230.226C56.1118 230.148 55.7737 230.109 55.4356 230.109C54.8894 230.109 54.4819 230.2 54.2131 230.382C53.9443 230.555 53.8099 230.781 53.8099 231.058C53.8099 231.292 53.888 231.474 54.044 231.604C54.2088 231.726 54.4168 231.821 54.6683 231.89C54.9284 231.96 55.2145 232.02 55.5266 232.073C55.8387 232.116 56.1508 232.177 56.463 232.255C56.7751 232.324 57.0568 232.424 57.3083 232.554C57.5684 232.684 57.7765 232.866 57.9325 233.1C58.0972 233.334 58.1796 233.646 58.1796 234.036C58.1796 234.452 58.0582 234.812 57.8155 235.116C57.5727 235.419 57.2302 235.658 56.7881 235.831C56.3459 235.996 55.817 236.078 55.2015 236.078ZM61.7167 236.078C61.1444 236.078 60.5982 236 60.078 235.844C59.5665 235.688 59.1633 235.497 58.8686 235.272L59.3888 234.283C59.6835 234.483 60.0477 234.652 60.4812 234.791C60.9147 234.929 61.3569 234.999 61.8077 234.999C62.3886 234.999 62.8047 234.916 63.0562 234.752C63.3163 234.587 63.4463 234.357 63.4463 234.062C63.4463 233.846 63.3683 233.676 63.2122 233.555C63.0562 233.434 62.8481 233.343 62.588 233.282C62.3366 233.221 62.0548 233.169 61.7427 233.126C61.4305 233.074 61.1184 233.013 60.8063 232.944C60.4942 232.866 60.2081 232.762 59.948 232.632C59.6879 232.493 59.4798 232.307 59.3237 232.073C59.1677 231.83 59.0897 231.509 59.0897 231.11C59.0897 230.694 59.2067 230.33 59.4408 230.018C59.6749 229.706 60.0043 229.467 60.4292 229.302C60.8627 229.129 61.3742 229.042 61.9638 229.042C62.4146 229.042 62.8698 229.099 63.3293 229.211C63.7975 229.315 64.1789 229.467 64.4737 229.667L63.9405 230.655C63.6284 230.447 63.3033 230.304 62.9651 230.226C62.627 230.148 62.2889 230.109 61.9507 230.109C61.4045 230.109 60.997 230.2 60.7283 230.382C60.4595 230.555 60.3251 230.781 60.3251 231.058C60.3251 231.292 60.4032 231.474 60.5592 231.604C60.7239 231.726 60.932 231.821 61.1835 231.89C61.4436 231.96 61.7297 232.02 62.0418 232.073C62.3539 232.116 62.666 232.177 62.9781 232.255C63.2903 232.324 63.572 232.424 63.8235 232.554C64.0836 232.684 64.2916 232.866 64.4477 233.1C64.6124 233.334 64.6948 233.646 64.6948 234.036C64.6948 234.452 64.5734 234.812 64.3307 235.116C64.0879 235.419 63.7454 235.658 63.3033 235.831C62.8611 235.996 62.3322 236.078 61.7167 236.078ZM69.3243 236.078C68.5873 236.078 67.9371 235.926 67.3735 235.623C66.8186 235.319 66.3851 234.903 66.073 234.374C65.7696 233.846 65.6178 233.239 65.6178 232.554C65.6178 231.869 65.7652 231.262 66.06 230.733C66.3635 230.204 66.7753 229.792 67.2955 229.498C67.8244 229.194 68.4182 229.042 69.0772 229.042C69.7448 229.042 70.3343 229.19 70.8458 229.485C71.3574 229.779 71.7562 230.195 72.0423 230.733C72.3371 231.262 72.4845 231.882 72.4845 232.593C72.4845 232.645 72.4801 232.705 72.4715 232.775C72.4715 232.844 72.4671 232.909 72.4585 232.97H66.5932V232.073H71.8082L71.301 232.385C71.3097 231.942 71.2186 231.548 71.0279 231.201C70.8372 230.854 70.5727 230.586 70.2346 230.395C69.9051 230.195 69.5193 230.096 69.0772 230.096C68.6437 230.096 68.2578 230.195 67.9197 230.395C67.5816 230.586 67.3172 230.859 67.1264 231.214C66.9357 231.561 66.8403 231.96 66.8403 232.411V232.619C66.8403 233.078 66.9443 233.49 67.1524 233.854C67.3692 234.21 67.6683 234.487 68.0498 234.686C68.4312 234.886 68.8691 234.986 69.3633 234.986C69.7708 234.986 70.1392 234.916 70.4687 234.778C70.8068 234.639 71.1016 234.431 71.353 234.153L72.0423 234.96C71.7302 235.324 71.34 235.601 70.8718 235.792C70.4123 235.983 69.8965 236.078 69.3243 236.078ZM74.2181 236V229.107H75.4145V230.98L75.2975 230.512C75.4882 230.035 75.809 229.671 76.2599 229.419C76.7107 229.168 77.2656 229.042 77.9245 229.042V230.252C77.8725 230.243 77.8205 230.239 77.7684 230.239C77.7251 230.239 77.6817 230.239 77.6384 230.239C76.9708 230.239 76.4419 230.438 76.0518 230.837C75.6616 231.236 75.4666 231.812 75.4666 232.567V236H74.2181ZM82.1096 236.078C81.416 236.078 80.8784 235.892 80.4969 235.519C80.1155 235.146 79.9247 234.613 79.9247 233.919V227.599H81.1732V233.867C81.1732 234.24 81.2642 234.526 81.4463 234.726C81.637 234.925 81.9058 235.025 82.2526 235.025C82.6428 235.025 82.9679 234.916 83.228 234.7L83.6181 235.597C83.4274 235.762 83.1976 235.883 82.9289 235.961C82.6688 236.039 82.3957 236.078 82.1096 236.078ZM78.7543 230.135V229.107H83.15V230.135H78.7543ZM87.1043 236.078C86.5321 236.078 85.9859 236 85.4657 235.844C84.9541 235.688 84.551 235.497 84.2562 235.272L84.7764 234.283C85.0712 234.483 85.4353 234.652 85.8688 234.791C86.3023 234.929 86.7445 234.999 87.1953 234.999C87.7762 234.999 88.1924 234.916 88.4438 234.752C88.7039 234.587 88.8339 234.357 88.8339 234.062C88.8339 233.846 88.7559 233.676 88.5999 233.555C88.4438 233.434 88.2357 233.343 87.9756 233.282C87.7242 233.221 87.4424 233.169 87.1303 233.126C86.8182 233.074 86.5061 233.013 86.1939 232.944C85.8818 232.866 85.5957 232.762 85.3356 232.632C85.0755 232.493 84.8674 232.307 84.7114 232.073C84.5553 231.83 84.4773 231.509 84.4773 231.11C84.4773 230.694 84.5943 230.33 84.8284 230.018C85.0625 229.706 85.392 229.467 85.8168 229.302C86.2503 229.129 86.7618 229.042 87.3514 229.042C87.8022 229.042 88.2574 229.099 88.7169 229.211C89.1851 229.315 89.5666 229.467 89.8613 229.667L89.3281 230.655C89.016 230.447 88.6909 230.304 88.3528 230.226C88.0146 230.148 87.6765 230.109 87.3384 230.109C86.7922 230.109 86.3847 230.2 86.1159 230.382C85.8471 230.555 85.7128 230.781 85.7128 231.058C85.7128 231.292 85.7908 231.474 85.9468 231.604C86.1116 231.726 86.3197 231.821 86.5711 231.89C86.8312 231.96 87.1173 232.02 87.4294 232.073C87.7415 232.116 88.0536 232.177 88.3658 232.255C88.6779 232.324 88.9597 232.424 89.2111 232.554C89.4712 232.684 89.6793 232.866 89.8353 233.1C90.0001 233.334 90.0824 233.646 90.0824 234.036C90.0824 234.452 89.961 234.812 89.7183 235.116C89.4755 235.419 89.1331 235.658 88.6909 235.831C88.2487 235.996 87.7199 236.078 87.1043 236.078ZM91.1485 237.925L91.7988 235.298L91.9678 236.052C91.7164 236.052 91.504 235.974 91.3306 235.818C91.1659 235.662 91.0835 235.449 91.0835 235.181C91.0835 234.921 91.1659 234.708 91.3306 234.543C91.504 234.379 91.7121 234.296 91.9548 234.296C92.2063 234.296 92.41 234.383 92.5661 234.556C92.7221 234.721 92.8002 234.929 92.8002 235.181C92.8002 235.267 92.7915 235.354 92.7741 235.441C92.7655 235.519 92.7438 235.614 92.7091 235.727C92.6831 235.831 92.6398 235.961 92.5791 236.117L91.9678 237.925H91.1485ZM101.086 236.078C100.384 236.078 99.755 235.926 99.2001 235.623C98.6539 235.319 98.2247 234.903 97.9126 234.374C97.6005 233.846 97.4444 233.239 97.4444 232.554C97.4444 231.869 97.6005 231.262 97.9126 230.733C98.2247 230.204 98.6539 229.792 99.2001 229.498C99.755 229.194 100.384 229.042 101.086 229.042C101.71 229.042 102.265 229.168 102.75 229.419C103.245 229.662 103.626 230.026 103.895 230.512L102.946 231.123C102.72 230.785 102.443 230.538 102.113 230.382C101.792 230.217 101.446 230.135 101.073 230.135C100.622 230.135 100.219 230.234 99.8634 230.434C99.5079 230.633 99.2261 230.915 99.018 231.279C98.81 231.635 98.7059 232.059 98.7059 232.554C98.7059 233.048 98.81 233.477 99.018 233.841C99.2261 234.205 99.5079 234.487 99.8634 234.686C100.219 234.886 100.622 234.986 101.073 234.986C101.446 234.986 101.792 234.908 102.113 234.752C102.443 234.587 102.72 234.335 102.946 233.997L103.895 234.595C103.626 235.072 103.245 235.441 102.75 235.701C102.265 235.952 101.71 236.078 101.086 236.078ZM108.411 236.078C107.822 236.078 107.302 235.97 106.851 235.753C106.409 235.536 106.062 235.207 105.81 234.765C105.568 234.314 105.446 233.75 105.446 233.074V229.107H106.695V232.931C106.695 233.607 106.855 234.114 107.176 234.452C107.505 234.791 107.965 234.96 108.554 234.96C108.988 234.96 109.365 234.873 109.686 234.7C110.007 234.517 110.254 234.257 110.427 233.919C110.601 233.572 110.687 233.156 110.687 232.671V229.107H111.936V236H110.752V234.14L110.947 234.634C110.722 235.094 110.384 235.449 109.933 235.701C109.482 235.952 108.975 236.078 108.411 236.078ZM114.312 236V229.107H115.509V230.98L115.392 230.512C115.583 230.035 115.903 229.671 116.354 229.419C116.805 229.168 117.36 229.042 118.019 229.042V230.252C117.967 230.243 117.915 230.239 117.863 230.239C117.82 230.239 117.776 230.239 117.733 230.239C117.065 230.239 116.536 230.438 116.146 230.837C115.756 231.236 115.561 231.812 115.561 232.567V236H114.312ZM119.558 236V229.107H120.754V230.98L120.637 230.512C120.828 230.035 121.149 229.671 121.599 229.419C122.05 229.168 122.605 229.042 123.264 229.042V230.252C123.212 230.243 123.16 230.239 123.108 230.239C123.065 230.239 123.021 230.239 122.978 230.239C122.31 230.239 121.782 230.438 121.391 230.837C121.001 231.236 120.806 231.812 120.806 232.567V236H119.558ZM124.803 236V229.107H126.051V236H124.803ZM125.427 227.781C125.184 227.781 124.981 227.703 124.816 227.547C124.66 227.391 124.582 227.2 124.582 226.975C124.582 226.74 124.66 226.545 124.816 226.389C124.981 226.233 125.184 226.155 125.427 226.155C125.67 226.155 125.869 226.233 126.025 226.389C126.19 226.537 126.272 226.723 126.272 226.949C126.272 227.183 126.194 227.382 126.038 227.547C125.882 227.703 125.678 227.781 125.427 227.781ZM131.504 236.078C130.767 236.078 130.117 235.926 129.553 235.623C128.999 235.319 128.565 234.903 128.253 234.374C127.95 233.846 127.798 233.239 127.798 232.554C127.798 231.869 127.945 231.262 128.24 230.733C128.543 230.204 128.955 229.792 129.475 229.498C130.004 229.194 130.598 229.042 131.257 229.042C131.925 229.042 132.514 229.19 133.026 229.485C133.537 229.779 133.936 230.195 134.222 230.733C134.517 231.262 134.664 231.882 134.664 232.593C134.664 232.645 134.66 232.705 134.651 232.775C134.651 232.844 134.647 232.909 134.638 232.97H128.773V232.073H133.988L133.481 232.385C133.49 231.942 133.399 231.548 133.208 231.201C133.017 230.854 132.753 230.586 132.415 230.395C132.085 230.195 131.699 230.096 131.257 230.096C130.824 230.096 130.438 230.195 130.1 230.395C129.762 230.586 129.497 230.859 129.306 231.214C129.116 231.561 129.02 231.96 129.02 232.411V232.619C129.02 233.078 129.124 233.49 129.332 233.854C129.549 234.21 129.848 234.487 130.23 234.686C130.611 234.886 131.049 234.986 131.543 234.986C131.951 234.986 132.319 234.916 132.649 234.778C132.987 234.639 133.282 234.431 133.533 234.153L134.222 234.96C133.91 235.324 133.52 235.601 133.052 235.792C132.592 235.983 132.076 236.078 131.504 236.078ZM138.375 236.078C137.803 236.078 137.256 236 136.736 235.844C136.225 235.688 135.822 235.497 135.527 235.272L136.047 234.283C136.342 234.483 136.706 234.652 137.139 234.791C137.573 234.929 138.015 234.999 138.466 234.999C139.047 234.999 139.463 234.916 139.714 234.752C139.974 234.587 140.104 234.357 140.104 234.062C140.104 233.846 140.026 233.676 139.87 233.555C139.714 233.434 139.506 233.343 139.246 233.282C138.995 233.221 138.713 233.169 138.401 233.126C138.089 233.074 137.777 233.013 137.464 232.944C137.152 232.866 136.866 232.762 136.606 232.632C136.346 232.493 136.138 232.307 135.982 232.073C135.826 231.83 135.748 231.509 135.748 231.11C135.748 230.694 135.865 230.33 136.099 230.018C136.333 229.706 136.663 229.467 137.087 229.302C137.521 229.129 138.032 229.042 138.622 229.042C139.073 229.042 139.528 229.099 139.987 229.211C140.456 229.315 140.837 229.467 141.132 229.667L140.599 230.655C140.287 230.447 139.961 230.304 139.623 230.226C139.285 230.148 138.947 230.109 138.609 230.109C138.063 230.109 137.655 230.2 137.386 230.382C137.118 230.555 136.983 230.781 136.983 231.058C136.983 231.292 137.061 231.474 137.217 231.604C137.382 231.726 137.59 231.821 137.842 231.89C138.102 231.96 138.388 232.02 138.7 232.073C139.012 232.116 139.324 232.177 139.636 232.255C139.948 232.324 140.23 232.424 140.482 232.554C140.742 232.684 140.95 232.866 141.106 233.1C141.271 233.334 141.353 233.646 141.353 234.036C141.353 234.452 141.232 234.812 140.989 235.116C140.746 235.419 140.404 235.658 139.961 235.831C139.519 235.996 138.99 236.078 138.375 236.078ZM142.419 237.925L143.069 235.298L143.238 236.052C142.987 236.052 142.775 235.974 142.601 235.818C142.436 235.662 142.354 235.449 142.354 235.181C142.354 234.921 142.436 234.708 142.601 234.543C142.775 234.379 142.983 234.296 143.225 234.296C143.477 234.296 143.681 234.383 143.837 234.556C143.993 234.721 144.071 234.929 144.071 235.181C144.071 235.267 144.062 235.354 144.045 235.441C144.036 235.519 144.014 235.614 143.98 235.727C143.954 235.831 143.91 235.961 143.85 236.117L143.238 237.925H142.419ZM153.735 236V234.491L153.696 234.244V231.721C153.696 231.14 153.531 230.694 153.202 230.382C152.881 230.07 152.4 229.914 151.758 229.914C151.316 229.914 150.896 229.987 150.497 230.135C150.098 230.282 149.76 230.477 149.482 230.72L149.066 230.031C149.413 229.736 149.829 229.511 150.315 229.354C150.8 229.19 151.312 229.107 151.849 229.107C152.734 229.107 153.414 229.328 153.891 229.771C154.376 230.204 154.619 230.867 154.619 231.76V236H153.735ZM151.381 236.065C150.869 236.065 150.423 235.983 150.042 235.818C149.669 235.645 149.383 235.41 149.183 235.116C148.984 234.812 148.884 234.465 148.884 234.075C148.884 233.72 148.966 233.399 149.131 233.113C149.305 232.818 149.582 232.584 149.963 232.411C150.354 232.229 150.874 232.138 151.524 232.138H153.878V232.827H151.55C150.891 232.827 150.432 232.944 150.172 233.178C149.92 233.412 149.794 233.702 149.794 234.049C149.794 234.439 149.946 234.752 150.25 234.986C150.553 235.22 150.978 235.337 151.524 235.337C152.044 235.337 152.491 235.22 152.864 234.986C153.245 234.743 153.523 234.396 153.696 233.945L153.904 234.582C153.731 235.033 153.427 235.393 152.994 235.662C152.569 235.931 152.031 236.065 151.381 236.065ZM160.613 229.107C161.167 229.107 161.653 229.216 162.069 229.432C162.494 229.641 162.823 229.961 163.057 230.395C163.3 230.828 163.422 231.375 163.422 232.033V236H162.498V232.125C162.498 231.405 162.316 230.863 161.952 230.499C161.597 230.126 161.094 229.94 160.443 229.94C159.958 229.94 159.533 230.039 159.169 230.239C158.813 230.43 158.536 230.711 158.337 231.084C158.146 231.448 158.051 231.89 158.051 232.411V236H157.127V229.172H158.012V231.045L157.868 230.694C158.085 230.2 158.432 229.814 158.909 229.537C159.386 229.25 159.954 229.107 160.613 229.107ZM168.634 236.065C167.983 236.065 167.398 235.918 166.878 235.623C166.367 235.328 165.963 234.921 165.669 234.4C165.374 233.872 165.226 233.265 165.226 232.58C165.226 231.886 165.374 231.279 165.669 230.759C165.963 230.239 166.367 229.836 166.878 229.55C167.398 229.255 167.983 229.107 168.634 229.107C169.232 229.107 169.765 229.242 170.233 229.511C170.71 229.779 171.087 230.174 171.365 230.694C171.651 231.206 171.794 231.834 171.794 232.58C171.794 233.317 171.655 233.945 171.378 234.465C171.1 234.986 170.723 235.384 170.246 235.662C169.778 235.931 169.241 236.065 168.634 236.065ZM168.699 235.246C169.184 235.246 169.618 235.137 169.999 234.921C170.389 234.695 170.693 234.383 170.91 233.984C171.135 233.577 171.248 233.109 171.248 232.58C171.248 232.042 171.135 231.574 170.91 231.175C170.693 230.776 170.389 230.469 169.999 230.252C169.618 230.026 169.184 229.914 168.699 229.914C168.222 229.914 167.793 230.026 167.411 230.252C167.03 230.469 166.726 230.776 166.501 231.175C166.275 231.574 166.163 232.042 166.163 232.58C166.163 233.109 166.275 233.577 166.501 233.984C166.726 234.383 167.03 234.695 167.411 234.921C167.793 235.137 168.222 235.246 168.699 235.246ZM171.274 236V233.945L171.365 232.567L171.235 231.188V226.35H172.158V236H171.274ZM17.7278 256V249.107H18.9242V250.98L18.8072 250.512C18.9979 250.035 19.3187 249.671 19.7695 249.419C20.2204 249.168 20.7753 249.042 21.4342 249.042V250.252C21.3822 250.243 21.3301 250.239 21.2781 250.239C21.2348 250.239 21.1914 250.239 21.1481 250.239C20.4805 250.239 19.9516 250.438 19.5615 250.837C19.1713 251.236 18.9762 251.812 18.9762 252.567V256H17.7278ZM25.9786 256.078C25.2417 256.078 24.5914 255.926 24.0279 255.623C23.473 255.319 23.0395 254.903 22.7274 254.374C22.4239 253.846 22.2722 253.239 22.2722 252.554C22.2722 251.869 22.4196 251.262 22.7144 250.733C23.0178 250.204 23.4296 249.792 23.9498 249.498C24.4787 249.194 25.0726 249.042 25.7315 249.042C26.3991 249.042 26.9887 249.19 27.5002 249.485C28.0117 249.779 28.4105 250.195 28.6966 250.733C28.9914 251.262 29.1388 251.882 29.1388 252.593C29.1388 252.645 29.1345 252.705 29.1258 252.775C29.1258 252.844 29.1215 252.909 29.1128 252.97H23.2476V252.073H28.4625L27.9554 252.385C27.964 251.942 27.873 251.548 27.6823 251.201C27.4915 250.854 27.2271 250.586 26.8889 250.395C26.5595 250.195 26.1737 250.096 25.7315 250.096C25.298 250.096 24.9122 250.195 24.5741 250.395C24.2359 250.586 23.9715 250.859 23.7808 251.214C23.59 251.561 23.4947 251.96 23.4947 252.411V252.619C23.4947 253.078 23.5987 253.49 23.8068 253.854C24.0235 254.21 24.3226 254.487 24.7041 254.686C25.0856 254.886 25.5234 254.986 26.0176 254.986C26.4251 254.986 26.7936 254.916 27.123 254.778C27.4612 254.639 27.7559 254.431 28.0074 254.153L28.6966 254.96C28.3845 255.324 27.9944 255.601 27.5262 255.792C27.0667 255.983 26.5508 256.078 25.9786 256.078ZM33.8896 258.601C33.2567 258.601 32.6411 258.51 32.0429 258.328C31.4533 258.154 30.9721 257.903 30.5993 257.574L31.1976 256.611C31.5183 256.889 31.9128 257.105 32.381 257.261C32.8492 257.426 33.339 257.509 33.8506 257.509C34.6655 257.509 35.2638 257.318 35.6453 256.936C36.0267 256.555 36.2175 255.974 36.2175 255.194V253.737L36.3475 252.372L36.2825 250.993V249.107H37.4659V255.064C37.4659 256.277 37.1625 257.17 36.5556 257.743C35.9487 258.315 35.06 258.601 33.8896 258.601ZM33.7335 255.714C33.0659 255.714 32.4677 255.575 31.9388 255.298C31.4186 255.012 31.0025 254.617 30.6904 254.114C30.3869 253.611 30.2352 253.031 30.2352 252.372C30.2352 251.704 30.3869 251.123 30.6904 250.629C31.0025 250.126 31.4186 249.736 31.9388 249.459C32.4677 249.181 33.0659 249.042 33.7335 249.042C34.3231 249.042 34.8606 249.164 35.3461 249.406C35.8317 249.641 36.2175 250.005 36.5036 250.499C36.7984 250.993 36.9457 251.617 36.9457 252.372C36.9457 253.117 36.7984 253.737 36.5036 254.231C36.2175 254.726 35.8317 255.098 35.3461 255.35C34.8606 255.593 34.3231 255.714 33.7335 255.714ZM33.8766 254.621C34.3361 254.621 34.7436 254.526 35.099 254.335C35.4545 254.145 35.732 253.88 35.9314 253.542C36.1394 253.204 36.2435 252.814 36.2435 252.372C36.2435 251.929 36.1394 251.539 35.9314 251.201C35.732 250.863 35.4545 250.603 35.099 250.421C34.7436 250.23 34.3361 250.135 33.8766 250.135C33.4171 250.135 33.0052 250.23 32.6411 250.421C32.2856 250.603 32.0039 250.863 31.7958 251.201C31.5964 251.539 31.4967 251.929 31.4967 252.372C31.4967 252.814 31.5964 253.204 31.7958 253.542C32.0039 253.88 32.2856 254.145 32.6411 254.335C33.0052 254.526 33.4171 254.621 33.8766 254.621ZM42.7516 256.078C42.162 256.078 41.6418 255.97 41.191 255.753C40.7488 255.536 40.402 255.207 40.1506 254.765C39.9078 254.314 39.7864 253.75 39.7864 253.074V249.107H41.0349V252.931C41.0349 253.607 41.1953 254.114 41.5161 254.452C41.8455 254.791 42.305 254.96 42.8946 254.96C43.3281 254.96 43.7052 254.873 44.026 254.7C44.3468 254.517 44.5939 254.257 44.7673 253.919C44.9407 253.572 45.0274 253.156 45.0274 252.671V249.107H46.2759V256H45.0924V254.14L45.2875 254.634C45.0621 255.094 44.724 255.449 44.2731 255.701C43.8223 255.952 43.3151 256.078 42.7516 256.078ZM48.6527 256V246.35H49.9011V256H48.6527ZM56.5635 256V254.543L56.4985 254.27V251.786C56.4985 251.258 56.3424 250.85 56.0303 250.564C55.7269 250.269 55.2674 250.122 54.6518 250.122C54.2443 250.122 53.8455 250.191 53.4553 250.33C53.0652 250.46 52.7357 250.638 52.467 250.863L51.9468 249.927C52.3022 249.641 52.7271 249.424 53.2213 249.276C53.7241 249.12 54.2486 249.042 54.7949 249.042C55.7399 249.042 56.4682 249.272 56.9797 249.732C57.4912 250.191 57.747 250.893 57.747 251.838V256H56.5635ZM54.3007 256.078C53.7891 256.078 53.3383 255.991 52.9482 255.818C52.5667 255.645 52.2719 255.406 52.0638 255.103C51.8557 254.791 51.7517 254.439 51.7517 254.049C51.7517 253.676 51.8384 253.338 52.0118 253.035C52.1939 252.731 52.4843 252.489 52.8831 252.307C53.2906 252.125 53.8368 252.033 54.5218 252.033H56.7066V252.931H54.5738C53.9495 252.931 53.529 253.035 53.3123 253.243C53.0955 253.451 52.9872 253.702 52.9872 253.997C52.9872 254.335 53.1216 254.608 53.3903 254.817C53.6591 255.016 54.0319 255.116 54.5087 255.116C54.9769 255.116 55.3844 255.012 55.7312 254.804C56.0867 254.595 56.3424 254.292 56.4985 253.893L56.7456 254.752C56.5809 255.159 56.2904 255.484 55.8743 255.727C55.4581 255.961 54.9336 256.078 54.3007 256.078ZM60.0574 256V249.107H61.2539V250.98L61.1368 250.512C61.3276 250.035 61.6483 249.671 62.0992 249.419C62.55 249.168 63.1049 249.042 63.7638 249.042V250.252C63.7118 250.243 63.6598 250.239 63.6078 250.239C63.5644 250.239 63.5211 250.239 63.4777 250.239C62.8101 250.239 62.2812 250.438 61.8911 250.837C61.501 251.236 61.3059 251.812 61.3059 252.567V256H60.0574ZM71.2509 256.078C70.5573 256.078 70.0198 255.892 69.6383 255.519C69.2568 255.146 69.0661 254.613 69.0661 253.919V247.599H70.3146V253.867C70.3146 254.24 70.4056 254.526 70.5877 254.726C70.7784 254.925 71.0472 255.025 71.394 255.025C71.7841 255.025 72.1092 254.916 72.3693 254.7L72.7595 255.597C72.5688 255.762 72.339 255.883 72.0702 255.961C71.8101 256.039 71.537 256.078 71.2509 256.078ZM67.8956 250.135V249.107H72.2913V250.135H67.8956ZM78.5475 256V254.543L78.4825 254.27V251.786C78.4825 251.258 78.3264 250.85 78.0143 250.564C77.7109 250.269 77.2514 250.122 76.6358 250.122C76.2283 250.122 75.8295 250.191 75.4393 250.33C75.0492 250.46 74.7197 250.638 74.4509 250.863L73.9307 249.927C74.2862 249.641 74.711 249.424 75.2052 249.276C75.7081 249.12 76.2326 249.042 76.7788 249.042C77.7239 249.042 78.4521 249.272 78.9637 249.732C79.4752 250.191 79.731 250.893 79.731 251.838V256H78.5475ZM76.2846 256.078C75.7731 256.078 75.3223 255.991 74.9321 255.818C74.5507 255.645 74.2559 255.406 74.0478 255.103C73.8397 254.791 73.7357 254.439 73.7357 254.049C73.7357 253.676 73.8224 253.338 73.9958 253.035C74.1778 252.731 74.4683 252.489 74.8671 252.307C75.2746 252.125 75.8208 252.033 76.5057 252.033H78.6906V252.931H76.5578C75.9335 252.931 75.513 253.035 75.2963 253.243C75.0795 253.451 74.9711 253.702 74.9711 253.997C74.9711 254.335 75.1055 254.608 75.3743 254.817C75.6431 255.016 76.0159 255.116 76.4927 255.116C76.9609 255.116 77.3684 255.012 77.7152 254.804C78.0707 254.595 78.3264 254.292 78.4825 253.893L78.7296 254.752C78.5649 255.159 78.2744 255.484 77.8582 255.727C77.4421 255.961 76.9176 256.078 76.2846 256.078ZM83.0558 254.335L83.0818 252.736L87.0483 249.107H88.5569L85.5137 252.099L84.8374 252.671L83.0558 254.335ZM82.0414 256V246.35H83.2899V256H82.0414ZM87.3084 256L84.6034 252.645L85.4097 251.643L88.843 256H87.3084ZM92.8322 256.078C92.0953 256.078 91.445 255.926 90.8815 255.623C90.3266 255.319 89.8931 254.903 89.581 254.374C89.2776 253.846 89.1258 253.239 89.1258 252.554C89.1258 251.869 89.2732 251.262 89.568 250.733C89.8714 250.204 90.2833 249.792 90.8035 249.498C91.3323 249.194 91.9262 249.042 92.5851 249.042C93.2527 249.042 93.8423 249.19 94.3538 249.485C94.8654 249.779 95.2642 250.195 95.5503 250.733C95.8451 251.262 95.9925 251.882 95.9925 252.593C95.9925 252.645 95.9881 252.705 95.9794 252.775C95.9794 252.844 95.9751 252.909 95.9664 252.97H90.1012V252.073H95.3162L94.809 252.385C94.8177 251.942 94.7266 251.548 94.5359 251.201C94.3452 250.854 94.0807 250.586 93.7426 250.395C93.4131 250.195 93.0273 250.096 92.5851 250.096C92.1517 250.096 91.7658 250.195 91.4277 250.395C91.0896 250.586 90.8251 250.859 90.6344 251.214C90.4437 251.561 90.3483 251.96 90.3483 252.411V252.619C90.3483 253.078 90.4523 253.49 90.6604 253.854C90.8772 254.21 91.1763 254.487 91.5578 254.686C91.9392 254.886 92.3771 254.986 92.8713 254.986C93.2787 254.986 93.6472 254.916 93.9767 254.778C94.3148 254.639 94.6096 254.431 94.861 254.153L95.5503 254.96C95.2382 255.324 94.848 255.601 94.3798 255.792C93.9203 255.983 93.4045 256.078 92.8322 256.078ZM101.814 256V254.543L101.749 254.27V251.786C101.749 251.258 101.593 250.85 101.281 250.564C100.978 250.269 100.518 250.122 99.9025 250.122C99.495 250.122 99.0962 250.191 98.706 250.33C98.3159 250.46 97.9864 250.638 97.7176 250.863L97.1974 249.927C97.5529 249.641 97.9777 249.424 98.4719 249.276C98.9748 249.12 99.4993 249.042 100.046 249.042C100.991 249.042 101.719 249.272 102.23 249.732C102.742 250.191 102.998 250.893 102.998 251.838V256H101.814ZM99.5513 256.078C99.0398 256.078 98.589 255.991 98.1988 255.818C97.8173 255.645 97.5226 255.406 97.3145 255.103C97.1064 254.791 97.0024 254.439 97.0024 254.049C97.0024 253.676 97.0891 253.338 97.2625 253.035C97.4445 252.731 97.735 252.489 98.1338 252.307C98.5413 252.125 99.0875 252.033 99.7724 252.033H101.957V252.931H99.8244C99.2002 252.931 98.7797 253.035 98.563 253.243C98.3462 253.451 98.2378 253.702 98.2378 253.997C98.2378 254.335 98.3722 254.608 98.641 254.817C98.9098 255.016 99.2826 255.116 99.7594 255.116C100.228 255.116 100.635 255.012 100.982 254.804C101.337 254.595 101.593 254.292 101.749 253.893L101.996 254.752C101.832 255.159 101.541 255.484 101.125 255.727C100.709 255.961 100.184 256.078 99.5513 256.078ZM106.638 256L104.076 249.107H105.259L107.535 255.35H106.976L109.343 249.107H110.396L112.711 255.35H112.165L114.493 249.107H115.611L113.036 256H111.84L109.668 250.304H110.032L107.834 256H106.638ZM120.941 256V254.543L120.876 254.27V251.786C120.876 251.258 120.72 250.85 120.407 250.564C120.104 250.269 119.644 250.122 119.029 250.122C118.621 250.122 118.223 250.191 117.832 250.33C117.442 250.46 117.113 250.638 116.844 250.863L116.324 249.927C116.679 249.641 117.104 249.424 117.598 249.276C118.101 249.12 118.626 249.042 119.172 249.042C120.117 249.042 120.845 249.272 121.357 249.732C121.868 250.191 122.124 250.893 122.124 251.838V256H120.941ZM118.678 256.078C118.166 256.078 117.715 255.991 117.325 255.818C116.944 255.645 116.649 255.406 116.441 255.103C116.233 254.791 116.129 254.439 116.129 254.049C116.129 253.676 116.216 253.338 116.389 253.035C116.571 252.731 116.861 252.489 117.26 252.307C117.668 252.125 118.214 252.033 118.899 252.033H121.084V252.931H118.951C118.327 252.931 117.906 253.035 117.689 253.243C117.473 253.451 117.364 253.702 117.364 253.997C117.364 254.335 117.499 254.608 117.767 254.817C118.036 255.016 118.409 255.116 118.886 255.116C119.354 255.116 119.762 255.012 120.108 254.804C120.464 254.595 120.72 254.292 120.876 253.893L121.123 254.752C120.958 255.159 120.668 255.484 120.251 255.727C119.835 255.961 119.311 256.078 118.678 256.078ZM124.607 258.601C124.277 258.601 123.956 258.545 123.644 258.432C123.332 258.328 123.063 258.172 122.838 257.964L123.371 257.027C123.545 257.192 123.735 257.318 123.943 257.405C124.151 257.491 124.373 257.535 124.607 257.535C124.91 257.535 125.162 257.457 125.361 257.3C125.56 257.144 125.747 256.867 125.92 256.468L126.349 255.519L126.479 255.363L129.184 249.107H130.407L127.065 256.689C126.865 257.175 126.64 257.556 126.388 257.834C126.146 258.111 125.877 258.306 125.582 258.419C125.287 258.54 124.962 258.601 124.607 258.601ZM126.245 256.221L123.098 249.107H124.399L127.078 255.246L126.245 256.221ZM138.719 256.078C138.147 256.078 137.622 255.948 137.145 255.688C136.677 255.419 136.3 255.025 136.014 254.504C135.736 253.984 135.598 253.334 135.598 252.554C135.598 251.773 135.732 251.123 136.001 250.603C136.278 250.083 136.651 249.693 137.119 249.432C137.596 249.172 138.129 249.042 138.719 249.042C139.395 249.042 139.993 249.19 140.514 249.485C141.034 249.779 141.446 250.191 141.749 250.72C142.053 251.24 142.204 251.851 142.204 252.554C142.204 253.256 142.053 253.872 141.749 254.4C141.446 254.929 141.034 255.341 140.514 255.636C139.993 255.931 139.395 256.078 138.719 256.078ZM135.065 258.523V249.107H136.261V250.967L136.183 252.567L136.313 254.166V258.523H135.065ZM138.615 254.986C139.057 254.986 139.452 254.886 139.798 254.686C140.154 254.487 140.431 254.205 140.631 253.841C140.839 253.468 140.943 253.039 140.943 252.554C140.943 252.059 140.839 251.635 140.631 251.279C140.431 250.915 140.154 250.633 139.798 250.434C139.452 250.234 139.057 250.135 138.615 250.135C138.181 250.135 137.787 250.234 137.431 250.434C137.085 250.633 136.807 250.915 136.599 251.279C136.4 251.635 136.3 252.059 136.3 252.554C136.3 253.039 136.4 253.468 136.599 253.841C136.807 254.205 137.085 254.487 137.431 254.686C137.787 254.886 138.181 254.986 138.615 254.986ZM146.881 256.078C146.188 256.078 145.572 255.926 145.035 255.623C144.497 255.319 144.072 254.903 143.76 254.374C143.448 253.837 143.292 253.23 143.292 252.554C143.292 251.869 143.448 251.262 143.76 250.733C144.072 250.204 144.497 249.792 145.035 249.498C145.572 249.194 146.188 249.042 146.881 249.042C147.566 249.042 148.178 249.194 148.715 249.498C149.261 249.792 149.686 250.204 149.99 250.733C150.302 251.253 150.458 251.86 150.458 252.554C150.458 253.239 150.302 253.846 149.99 254.374C149.686 254.903 149.261 255.319 148.715 255.623C148.178 255.926 147.566 256.078 146.881 256.078ZM146.881 254.986C147.324 254.986 147.718 254.886 148.065 254.686C148.42 254.487 148.698 254.205 148.897 253.841C149.097 253.468 149.196 253.039 149.196 252.554C149.196 252.059 149.097 251.635 148.897 251.279C148.698 250.915 148.42 250.633 148.065 250.434C147.718 250.234 147.324 250.135 146.881 250.135C146.439 250.135 146.045 250.234 145.698 250.434C145.351 250.633 145.074 250.915 144.866 251.279C144.658 251.635 144.554 252.059 144.554 252.554C144.554 253.039 144.658 253.468 144.866 253.841C145.074 254.205 145.351 254.487 145.698 254.686C146.045 254.886 146.439 254.986 146.881 254.986ZM152.184 256V249.107H153.381V250.98L153.264 250.512C153.455 250.035 153.775 249.671 154.226 249.419C154.677 249.168 155.232 249.042 155.891 249.042V250.252C155.839 250.243 155.787 250.239 155.735 250.239C155.691 250.239 155.648 250.239 155.605 250.239C154.937 250.239 154.408 250.438 154.018 250.837C153.628 251.236 153.433 251.812 153.433 252.567V256H152.184ZM160.076 256.078C159.382 256.078 158.845 255.892 158.463 255.519C158.082 255.146 157.891 254.613 157.891 253.919V247.599H159.139V253.867C159.139 254.24 159.231 254.526 159.413 254.726C159.603 254.925 159.872 255.025 160.219 255.025C160.609 255.025 160.934 254.916 161.194 254.7L161.584 255.597C161.394 255.762 161.164 255.883 160.895 255.961C160.635 256.039 160.362 256.078 160.076 256.078ZM156.721 250.135V249.107H161.116V250.135H156.721ZM163.094 256V249.107H164.342V256H163.094ZM163.718 247.781C163.475 247.781 163.272 247.703 163.107 247.547C162.951 247.391 162.873 247.2 162.873 246.975C162.873 246.74 162.951 246.545 163.107 246.389C163.272 246.233 163.475 246.155 163.718 246.155C163.961 246.155 164.16 246.233 164.316 246.389C164.481 246.537 164.563 246.723 164.563 246.949C164.563 247.183 164.485 247.382 164.329 247.547C164.173 247.703 163.969 247.781 163.718 247.781ZM169.678 256.078C168.985 256.078 168.369 255.926 167.831 255.623C167.294 255.319 166.869 254.903 166.557 254.374C166.245 253.837 166.089 253.23 166.089 252.554C166.089 251.869 166.245 251.262 166.557 250.733C166.869 250.204 167.294 249.792 167.831 249.498C168.369 249.194 168.985 249.042 169.678 249.042C170.363 249.042 170.974 249.194 171.512 249.498C172.058 249.792 172.483 250.204 172.786 250.733C173.098 251.253 173.255 251.86 173.255 252.554C173.255 253.239 173.098 253.846 172.786 254.374C172.483 254.903 172.058 255.319 171.512 255.623C170.974 255.926 170.363 256.078 169.678 256.078ZM169.678 254.986C170.12 254.986 170.515 254.886 170.862 254.686C171.217 254.487 171.495 254.205 171.694 253.841C171.893 253.468 171.993 253.039 171.993 252.554C171.993 252.059 171.893 251.635 171.694 251.279C171.495 250.915 171.217 250.633 170.862 250.434C170.515 250.234 170.12 250.135 169.678 250.135C169.236 250.135 168.842 250.234 168.495 250.434C168.148 250.633 167.87 250.915 167.662 251.279C167.454 251.635 167.35 252.059 167.35 252.554C167.35 253.039 167.454 253.468 167.662 253.841C167.87 254.205 168.148 254.487 168.495 254.686C168.842 254.886 169.236 254.986 169.678 254.986ZM178.662 249.042C179.225 249.042 179.719 249.151 180.144 249.367C180.578 249.584 180.916 249.914 181.159 250.356C181.401 250.798 181.523 251.357 181.523 252.033V256H180.274V252.177C180.274 251.509 180.109 251.006 179.78 250.668C179.459 250.33 179.004 250.161 178.414 250.161C177.972 250.161 177.586 250.247 177.257 250.421C176.928 250.594 176.672 250.85 176.49 251.188C176.316 251.526 176.23 251.947 176.23 252.45V256H174.981V249.107H176.178V250.967L175.983 250.473C176.208 250.022 176.555 249.671 177.023 249.419C177.491 249.168 178.037 249.042 178.662 249.042ZM185.81 256.078C185.238 256.078 184.691 256 184.171 255.844C183.66 255.688 183.257 255.497 182.962 255.272L183.482 254.283C183.777 254.483 184.141 254.652 184.574 254.791C185.008 254.929 185.45 254.999 185.901 254.999C186.482 254.999 186.898 254.916 187.149 254.752C187.41 254.587 187.54 254.357 187.54 254.062C187.54 253.846 187.462 253.676 187.305 253.555C187.149 253.434 186.941 253.343 186.681 253.282C186.43 253.221 186.148 253.169 185.836 253.126C185.524 253.074 185.212 253.013 184.9 252.944C184.587 252.866 184.301 252.762 184.041 252.632C183.781 252.493 183.573 252.307 183.417 252.073C183.261 251.83 183.183 251.509 183.183 251.11C183.183 250.694 183.3 250.33 183.534 250.018C183.768 249.706 184.098 249.467 184.522 249.302C184.956 249.129 185.467 249.042 186.057 249.042C186.508 249.042 186.963 249.099 187.423 249.211C187.891 249.315 188.272 249.467 188.567 249.667L188.034 250.655C187.722 250.447 187.397 250.304 187.058 250.226C186.72 250.148 186.382 250.109 186.044 250.109C185.498 250.109 185.09 250.2 184.822 250.382C184.553 250.555 184.418 250.781 184.418 251.058C184.418 251.292 184.496 251.474 184.652 251.604C184.817 251.726 185.025 251.821 185.277 251.89C185.537 251.96 185.823 252.02 186.135 252.073C186.447 252.116 186.759 252.177 187.071 252.255C187.384 252.324 187.665 252.424 187.917 252.554C188.177 252.684 188.385 252.866 188.541 253.1C188.706 253.334 188.788 253.646 188.788 254.036C188.788 254.452 188.667 254.812 188.424 255.116C188.181 255.419 187.839 255.658 187.397 255.831C186.954 255.996 186.425 256.078 185.81 256.078ZM190.647 256.078C190.405 256.078 190.197 255.996 190.023 255.831C189.85 255.658 189.763 255.441 189.763 255.181C189.763 254.921 189.85 254.708 190.023 254.543C190.197 254.379 190.405 254.296 190.647 254.296C190.882 254.296 191.081 254.379 191.246 254.543C191.419 254.708 191.506 254.921 191.506 255.181C191.506 255.441 191.419 255.658 191.246 255.831C191.081 255.996 190.882 256.078 190.647 256.078Z" fill="black"/>
<defs>
<linearGradient id="paint0_linear_2039_599" x1="103.803" y1="165.095" x2="103.803" y2="12.2402" gradientUnits="userSpaceOnUse">
<stop offset="0.906845" stop-color="#FFF4EA"/>
</linearGradient>
<linearGradient id="paint1_linear_2039_599" x1="103.803" y1="286.734" x2="103.803" y2="297.499" gradientUnits="userSpaceOnUse">
<stop offset="0.365385" stop-color="#D67E7F"/>
<stop offset="1" stop-color="white"/>
</linearGradient>
</defs>
</svg>
