<svg width="300" height="26" viewBox="0 0 300 26" fill="none" xmlns="http://www.w3.org/2000/svg">
<path d="M2.69727 13.6364V15.1525C3.16049 15.7203 3.74436 16.1779 4.40646 16.4919C5.06857 16.8059 5.7923 16.9685 6.5251 16.968C8.23497 16.968 9.74238 16.0996 10.6297 14.78V12.6549C10.326 14.6491 8.60391 16.1771 6.5251 16.1771C4.80336 16.1771 3.32641 15.1292 2.69727 13.6364ZM9.89818 9.60334V8.9224C9.89685 8.77221 9.92147 8.62291 9.97094 8.48109C9.04919 7.58251 7.81237 7.08035 6.5251 7.08204C5.37313 7.08033 4.25704 7.48263 3.37109 8.21892L3.37307 8.24304L3.37346 8.25372V9.3214C3.76296 8.86661 4.24638 8.50162 4.79045 8.25157C5.33452 8.00151 5.92632 7.87233 6.5251 7.87291C7.91467 7.87291 9.14448 8.55544 9.89818 9.60334Z" fill="#442210"/>
<path d="M9.68835 12.0247C9.68835 12.8637 9.35506 13.6684 8.76179 14.2616C8.16852 14.8549 7.36387 15.1882 6.52486 15.1882C5.68584 15.1882 4.8812 14.8549 4.28793 14.2616C3.69465 13.6684 3.36136 12.8637 3.36136 12.0247C3.36136 11.1857 3.69465 10.3811 4.28793 9.78778C4.8812 9.19451 5.68584 8.86122 6.52486 8.86122C7.36387 8.86122 8.16852 9.19451 8.76179 9.78778C9.35506 10.3811 9.68835 11.1857 9.68835 12.0247ZM6.52486 14.7928C6.88836 14.7928 7.24831 14.7212 7.58415 14.5821C7.91998 14.443 8.22513 14.2391 8.48217 13.982C8.73921 13.725 8.9431 13.4198 9.08221 13.084C9.22132 12.7482 9.29292 12.3882 9.29292 12.0247C9.29292 11.6612 9.22132 11.3013 9.08221 10.9654C8.9431 10.6296 8.73921 10.3244 8.48217 10.0674C8.22513 9.81036 7.91998 9.60647 7.58415 9.46736C7.24831 9.32825 6.88836 9.25666 6.52486 9.25666C5.79072 9.25666 5.08665 9.54829 4.56754 10.0674C4.04843 10.5865 3.7568 11.2906 3.7568 12.0247C3.7568 12.7589 4.04843 13.4629 4.56754 13.982C5.08665 14.5011 5.79072 14.7928 6.52486 14.7928ZM11.8593 8.63977C11.8593 8.28388 11.5706 7.99521 11.2147 7.99521C10.7007 7.99521 10.2894 8.41042 10.2934 8.92053V11.1152C10.2934 11.6107 10.5805 12.0544 11.0249 12.2553V15.6627C11.0249 15.8684 11.191 16.0344 11.3966 16.0344H11.4876C11.6932 16.0344 11.8593 15.8684 11.8593 15.6627V8.63977ZM2.69702 7.99521C2.62571 7.99521 2.55731 8.02354 2.50688 8.07397C2.45646 8.1244 2.42813 8.19279 2.42813 8.26411V9.32783C2.42813 9.40692 2.36486 9.46624 2.28972 9.46624C2.21064 9.46624 2.15132 9.40297 2.15132 9.32783V8.27597C2.15132 8.12966 2.03664 7.99916 1.89033 7.99521C1.73611 7.99126 1.60957 8.11384 1.60957 8.26411V9.32783C1.60957 9.40692 1.5463 9.46624 1.47117 9.46624C1.39208 9.46624 1.33276 9.40297 1.33276 9.32783V8.27597C1.33276 8.12966 1.21809 7.99916 1.07178 7.99521C0.917556 7.99126 0.791016 8.11384 0.791016 8.26411V10.0752C0.791016 10.4319 0.963822 10.7502 1.22956 10.9487C1.46721 11.0828 1.46721 11.6965 1.46721 11.6965V15.6588C1.46721 15.8644 1.6333 16.0305 1.83892 16.0305H1.92988C2.1355 16.0305 2.30159 15.8644 2.30159 15.6588V11.6965C2.30159 11.6965 2.30159 11.1069 2.53924 10.9487C2.67521 10.8472 2.78564 10.7154 2.86177 10.5638C2.93789 10.4122 2.97762 10.2449 2.97778 10.0752V8.26411C2.97378 8.19205 2.94256 8.1242 2.89044 8.07428C2.83832 8.02436 2.76919 7.9961 2.69702 7.99521Z" fill="#442210"/>
<path d="M19.9783 12.2372H23.6985V13.6766H19.9783V12.2372ZM20.1111 16.5H18.3174V8.74943H24.1747V10.1888H20.1111V16.5ZM27.9503 16.5886C27.3155 16.5886 26.7508 16.4557 26.2562 16.19C25.7691 15.9242 25.3815 15.5626 25.0936 15.1049C24.8131 14.6399 24.6729 14.1121 24.6729 13.5216C24.6729 12.9237 24.8131 12.3959 25.0936 11.9382C25.3815 11.4732 25.7691 11.1115 26.2562 10.8532C26.7508 10.5874 27.3155 10.4546 27.9503 10.4546C28.5777 10.4546 29.1387 10.5874 29.6333 10.8532C30.1278 11.1115 30.5154 11.4695 30.7959 11.9272C31.0763 12.3848 31.2166 12.9163 31.2166 13.5216C31.2166 14.1121 31.0763 14.6399 30.7959 15.1049C30.5154 15.5626 30.1278 15.9242 29.6333 16.19C29.1387 16.4557 28.5777 16.5886 27.9503 16.5886ZM27.9503 15.1713C28.2382 15.1713 28.4965 15.1049 28.7253 14.972C28.9542 14.8392 29.135 14.6509 29.2679 14.4073C29.4007 14.1564 29.4672 13.8611 29.4672 13.5216C29.4672 13.1746 29.4007 12.8794 29.2679 12.6358C29.135 12.3922 28.9542 12.204 28.7253 12.0711C28.4965 11.9382 28.2382 11.8718 27.9503 11.8718C27.6624 11.8718 27.4041 11.9382 27.1752 12.0711C26.9464 12.204 26.7619 12.3922 26.6216 12.6358C26.4887 12.8794 26.4223 13.1746 26.4223 13.5216C26.4223 13.8611 26.4887 14.1564 26.6216 14.4073C26.7619 14.6509 26.9464 14.8392 27.1752 14.972C27.4041 15.1049 27.6624 15.1713 27.9503 15.1713ZM35.2056 16.5886C34.5708 16.5886 34.0061 16.4557 33.5116 16.19C33.0244 15.9242 32.6369 15.5626 32.349 15.1049C32.0685 14.6399 31.9282 14.1121 31.9282 13.5216C31.9282 12.9237 32.0685 12.3959 32.349 11.9382C32.6369 11.4732 33.0244 11.1115 33.5116 10.8532C34.0061 10.5874 34.5708 10.4546 35.2056 10.4546C35.8331 10.4546 36.3941 10.5874 36.8886 10.8532C37.3832 11.1115 37.7707 11.4695 38.0512 11.9272C38.3317 12.3848 38.4719 12.9163 38.4719 13.5216C38.4719 14.1121 38.3317 14.6399 38.0512 15.1049C37.7707 15.5626 37.3832 15.9242 36.8886 16.19C36.3941 16.4557 35.8331 16.5886 35.2056 16.5886ZM35.2056 15.1713C35.4935 15.1713 35.7519 15.1049 35.9807 14.972C36.2095 14.8392 36.3904 14.6509 36.5232 14.4073C36.6561 14.1564 36.7225 13.8611 36.7225 13.5216C36.7225 13.1746 36.6561 12.8794 36.5232 12.6358C36.3904 12.3922 36.2095 12.204 35.9807 12.0711C35.7519 11.9382 35.4935 11.8718 35.2056 11.8718C34.9178 11.8718 34.6594 11.9382 34.4306 12.0711C34.2017 12.204 34.0172 12.3922 33.877 12.6358C33.7441 12.8794 33.6777 13.1746 33.6777 13.5216C33.6777 13.8611 33.7441 14.1564 33.877 14.4073C34.0172 14.6509 34.2017 14.8392 34.4306 14.972C34.6594 15.1049 34.9178 15.1713 35.2056 15.1713ZM42.1842 16.5886C41.6232 16.5886 41.1175 16.4631 40.6673 16.2121C40.217 15.9538 39.859 15.5958 39.5933 15.1381C39.3349 14.6805 39.2057 14.1416 39.2057 13.5216C39.2057 12.8941 39.3349 12.3516 39.5933 11.8939C39.859 11.4363 40.217 11.082 40.6673 10.831C41.1175 10.58 41.6232 10.4546 42.1842 10.4546C42.6861 10.4546 43.1253 10.5653 43.5018 10.7867C43.8782 11.0082 44.1698 11.344 44.3765 11.7943C44.5832 12.2446 44.6865 12.8203 44.6865 13.5216C44.6865 14.2154 44.5869 14.7912 44.3876 15.2488C44.1883 15.6991 43.9004 16.035 43.5239 16.2564C43.1548 16.4779 42.7083 16.5886 42.1842 16.5886ZM42.4831 15.1713C42.7636 15.1713 43.0183 15.1049 43.2471 14.972C43.4759 14.8392 43.6568 14.6509 43.7896 14.4073C43.9299 14.1564 44 13.8611 44 13.5216C44 13.1746 43.9299 12.8794 43.7896 12.6358C43.6568 12.3922 43.4759 12.204 43.2471 12.0711C43.0183 11.9382 42.7636 11.8718 42.4831 11.8718C42.1952 11.8718 41.9369 11.9382 41.7081 12.0711C41.4792 12.204 41.2947 12.3922 41.1545 12.6358C41.0216 12.8794 40.9552 13.1746 40.9552 13.5216C40.9552 13.8611 41.0216 14.1564 41.1545 14.4073C41.2947 14.6509 41.4792 14.8392 41.7081 14.972C41.9369 15.1049 42.1952 15.1713 42.4831 15.1713ZM44.0443 16.5V15.2821L44.0775 13.5105L43.9668 11.75V8.28439H45.6941V16.5H44.0443ZM53.0968 16.6329C52.4768 16.6329 51.8826 16.5517 51.3142 16.3893C50.7458 16.2195 50.2882 16.0017 49.9412 15.736L50.5502 14.3852C50.8824 14.6214 51.2736 14.817 51.7239 14.972C52.1815 15.1197 52.6429 15.1935 53.1079 15.1935C53.4622 15.1935 53.7464 15.1603 53.9605 15.0938C54.1819 15.02 54.3443 14.9204 54.4476 14.7949C54.551 14.6694 54.6026 14.5254 54.6026 14.3631C54.6026 14.1564 54.5215 13.994 54.3591 13.8759C54.1967 13.7504 53.9826 13.6507 53.7169 13.5769C53.4511 13.4957 53.1559 13.4219 52.8311 13.3555C52.5137 13.2817 52.1926 13.1931 51.8678 13.0897C51.5504 12.9864 51.2588 12.8535 50.9931 12.6911C50.7274 12.5288 50.5096 12.3147 50.3398 12.049C50.1774 11.7832 50.0962 11.4437 50.0962 11.0303C50.0962 10.5874 50.2143 10.1851 50.4506 9.82344C50.6941 9.45436 51.0558 9.16279 51.5356 8.94873C52.0228 8.72728 52.6318 8.61656 53.3626 8.61656C53.8497 8.61656 54.3295 8.67561 54.8019 8.79372C55.2744 8.90444 55.6914 9.07421 56.0531 9.30304L55.4995 10.6649C55.1378 10.4582 54.7761 10.3069 54.4144 10.211C54.0527 10.1076 53.6984 10.056 53.3515 10.056C53.0046 10.056 52.7204 10.0966 52.4989 10.1777C52.2775 10.2589 52.1188 10.366 52.0228 10.4988C51.9269 10.6243 51.8789 10.772 51.8789 10.9417C51.8789 11.141 51.9601 11.3034 52.1225 11.4289C52.2849 11.547 52.4989 11.643 52.7647 11.7168C53.0304 11.7906 53.322 11.8644 53.6394 11.9382C53.9641 12.0121 54.2852 12.0969 54.6026 12.1929C54.9274 12.2889 55.2227 12.418 55.4884 12.5804C55.7542 12.7428 55.9682 12.9569 56.1306 13.2226C56.3004 13.4883 56.3853 13.8242 56.3853 14.2302C56.3853 14.6657 56.2635 15.0643 56.0199 15.426C55.7763 15.7877 55.4109 16.0793 54.9237 16.3007C54.4439 16.5221 53.835 16.6329 53.0968 16.6329ZM61.143 16.5V15.3374L61.0322 15.0828V13.0012C61.0322 12.6321 60.9178 12.3442 60.689 12.1375C60.4676 11.9309 60.1243 11.8275 59.6593 11.8275C59.3419 11.8275 59.0282 11.8792 58.7181 11.9825C58.4155 12.0785 58.1572 12.2114 57.9431 12.3811L57.323 11.1743C57.6478 10.9454 58.0391 10.7683 58.4967 10.6428C58.9544 10.5173 59.4194 10.4546 59.8918 10.4546C60.7997 10.4546 61.5047 10.6686 62.0066 11.0967C62.5085 11.5249 62.7595 12.1929 62.7595 13.1008V16.5H61.143ZM59.3271 16.5886C58.8621 16.5886 58.4635 16.5111 58.1313 16.3561C57.7992 16.1937 57.5445 15.9759 57.3673 15.7028C57.1902 15.4297 57.1016 15.1234 57.1016 14.7838C57.1016 14.4295 57.1865 14.1195 57.3563 13.8537C57.5334 13.588 57.8102 13.3813 58.1867 13.2337C58.5631 13.0787 59.054 13.0012 59.6593 13.0012H61.2426V14.0087H59.8475C59.4415 14.0087 59.161 14.0752 59.006 14.208C58.8584 14.3409 58.7846 14.507 58.7846 14.7063C58.7846 14.9277 58.8695 15.1049 59.0392 15.2378C59.2164 15.3632 59.4563 15.426 59.7589 15.426C60.0468 15.426 60.3052 15.3596 60.534 15.2267C60.7628 15.0864 60.9289 14.8835 61.0322 14.6177L61.298 15.4149C61.1725 15.7988 60.9437 16.0903 60.6115 16.2896C60.2793 16.4889 59.8512 16.5886 59.3271 16.5886ZM64.5332 16.5V10.4103C64.5332 9.73855 64.7325 9.20339 65.1311 8.80479C65.5297 8.39881 66.098 8.19582 66.8362 8.19582C67.0871 8.19582 67.327 8.22165 67.5559 8.27332C67.7921 8.32499 67.9914 8.40619 68.1538 8.51691L67.6998 9.76808C67.6039 9.70164 67.4968 9.64997 67.3787 9.61306C67.2606 9.57616 67.1351 9.5577 67.0023 9.5577C66.7513 9.5577 66.5557 9.63152 66.4154 9.77915C66.2826 9.9194 66.2161 10.1335 66.2161 10.4213V10.975L66.2604 11.7168V16.5H64.5332ZM63.6142 12.0047V10.676H67.7441V12.0047H63.6142ZM71.4852 16.5886C70.8061 16.5886 70.2082 16.4557 69.6915 16.19C69.1822 15.9242 68.7873 15.5626 68.5068 15.1049C68.2263 14.6399 68.086 14.1121 68.086 13.5216C68.086 12.9237 68.2226 12.3959 68.4957 11.9382C68.7762 11.4732 69.1564 11.1115 69.6362 10.8532C70.116 10.5874 70.6585 10.4546 71.2638 10.4546C71.8469 10.4546 72.371 10.58 72.836 10.831C73.3085 11.0746 73.6812 11.4289 73.9543 11.8939C74.2275 12.3516 74.364 12.9015 74.364 13.5437C74.364 13.6101 74.3603 13.6876 74.3529 13.7762C74.3456 13.8574 74.3382 13.9349 74.3308 14.0087H69.4922V13.0012H73.4229L72.7585 13.3001C72.7585 12.9901 72.6958 12.7207 72.5703 12.4918C72.4448 12.263 72.2714 12.0859 72.0499 11.9604C71.8285 11.8275 71.5701 11.7611 71.2749 11.7611C70.9796 11.7611 70.7176 11.8275 70.4887 11.9604C70.2673 12.0859 70.0938 12.2667 69.9683 12.5029C69.8428 12.7317 69.7801 13.0049 69.7801 13.3223V13.588C69.7801 13.9128 69.8502 14.2007 69.9905 14.4516C70.1381 14.6952 70.3411 14.8835 70.5994 15.0163C70.8652 15.1418 71.1752 15.2045 71.5295 15.2045C71.8469 15.2045 72.1237 15.1566 72.3599 15.0606C72.6035 14.9646 72.825 14.8207 73.0243 14.6288L73.9433 15.6253C73.6701 15.9353 73.3269 16.1752 72.9135 16.345C72.5002 16.5074 72.0241 16.5886 71.4852 16.5886Z" fill="#442210"/>
<path d="M86.3984 0L86.3984 26" stroke="#442210"/>
<g clip-path="url(#clip0_1896_2247)">
<path d="M102.671 15.6362L100.562 13.5272L101.306 12.7838L102.671 14.1441L106.146 10.6695L106.889 11.4182M103.726 7.2002L98.9805 9.30919V12.4727C98.9805 15.3989 101.005 18.1354 103.726 18.7997C106.446 18.1354 108.471 15.3989 108.471 12.4727V9.30919L103.726 7.2002Z" fill="#442210"/>
</g>
<path d="M115.716 16.5V8.74943H119.071C119.765 8.74943 120.363 8.86384 120.864 9.09267C121.366 9.31411 121.754 9.63521 122.027 10.056C122.3 10.4767 122.437 10.9786 122.437 11.5618C122.437 12.1375 122.3 12.6358 122.027 13.0565C121.754 13.4773 121.366 13.8021 120.864 14.0309C120.363 14.2523 119.765 14.3631 119.071 14.3631H116.712L117.51 13.5548V16.5H115.716ZM117.51 13.7541L116.712 12.9015H118.971C119.525 12.9015 119.938 12.7834 120.211 12.5472C120.484 12.311 120.621 11.9825 120.621 11.5618C120.621 11.1337 120.484 10.8015 120.211 10.5653C119.938 10.3291 119.525 10.211 118.971 10.211H116.712L117.51 9.3584V13.7541ZM123.596 16.5V10.5431H125.245V12.2261L125.013 11.7389C125.19 11.3182 125.474 11.0008 125.865 10.7867C126.257 10.5653 126.733 10.4546 127.294 10.4546V12.049C127.22 12.0416 127.153 12.0379 127.094 12.0379C127.035 12.0305 126.973 12.0268 126.906 12.0268C126.434 12.0268 126.05 12.1634 125.755 12.4365C125.467 12.7022 125.323 13.1193 125.323 13.6877V16.5H123.596ZM131.223 16.5886C130.544 16.5886 129.946 16.4557 129.429 16.19C128.92 15.9242 128.525 15.5626 128.244 15.1049C127.964 14.6399 127.824 14.1121 127.824 13.5216C127.824 12.9237 127.96 12.3959 128.233 11.9382C128.514 11.4732 128.894 11.1115 129.374 10.8532C129.854 10.5874 130.396 10.4546 131.001 10.4546C131.585 10.4546 132.109 10.58 132.574 10.831C133.046 11.0746 133.419 11.4289 133.692 11.8939C133.965 12.3516 134.102 12.9015 134.102 13.5437C134.102 13.6101 134.098 13.6876 134.091 13.7762C134.083 13.8574 134.076 13.9349 134.068 14.0087H129.23V13.0012H133.161L132.496 13.3001C132.496 12.9901 132.433 12.7207 132.308 12.4918C132.182 12.263 132.009 12.0859 131.788 11.9604C131.566 11.8275 131.308 11.7611 131.013 11.7611C130.717 11.7611 130.455 11.8275 130.226 11.9604C130.005 12.0859 129.831 12.2667 129.706 12.5029C129.581 12.7317 129.518 13.0049 129.518 13.3223V13.588C129.518 13.9128 129.588 14.2007 129.728 14.4516C129.876 14.6952 130.079 14.8835 130.337 15.0163C130.603 15.1418 130.913 15.2045 131.267 15.2045C131.585 15.2045 131.861 15.1566 132.098 15.0606C132.341 14.9646 132.563 14.8207 132.762 14.6288L133.681 15.6253C133.408 15.9353 133.065 16.1752 132.651 16.345C132.238 16.5074 131.762 16.5886 131.223 16.5886ZM142.88 10.4546C143.353 10.4546 143.77 10.5505 144.132 10.7424C144.501 10.927 144.789 11.2148 144.995 11.6061C145.209 11.9899 145.316 12.4845 145.316 13.0897V16.5H143.589V13.3555C143.589 12.8757 143.489 12.5214 143.29 12.2925C143.091 12.0637 142.81 11.9493 142.449 11.9493C142.198 11.9493 141.972 12.0084 141.773 12.1265C141.574 12.2372 141.419 12.407 141.308 12.6358C141.197 12.8646 141.142 13.1562 141.142 13.5105V16.5H139.415V13.3555C139.415 12.8757 139.315 12.5214 139.116 12.2925C138.924 12.0637 138.647 11.9493 138.285 11.9493C138.034 11.9493 137.809 12.0084 137.61 12.1265C137.411 12.2372 137.256 12.407 137.145 12.6358C137.034 12.8646 136.979 13.1562 136.979 13.5105V16.5H135.252V10.5431H136.901V12.1708L136.591 11.6946C136.798 11.2887 137.09 10.9823 137.466 10.7756C137.85 10.5616 138.285 10.4546 138.773 10.4546C139.319 10.4546 139.795 10.5948 140.201 10.8753C140.614 11.1484 140.887 11.5692 141.02 12.1375L140.411 11.9715C140.611 11.5064 140.928 11.1373 141.364 10.8642C141.806 10.5911 142.312 10.4546 142.88 10.4546ZM146.865 16.5V10.5431H148.592V16.5H146.865ZM147.728 9.71271C147.411 9.71271 147.152 9.62045 146.953 9.43591C146.754 9.25137 146.654 9.02254 146.654 8.74943C146.654 8.47631 146.754 8.24749 146.953 8.06295C147.152 7.87841 147.411 7.78614 147.728 7.78614C148.046 7.78614 148.304 7.87472 148.503 8.05188C148.703 8.22165 148.802 8.4431 148.802 8.71621C148.802 9.00409 148.703 9.24399 148.503 9.43591C148.311 9.62045 148.053 9.71271 147.728 9.71271ZM152.708 16.5886C152.214 16.5886 151.771 16.4926 151.38 16.3007C150.996 16.1088 150.697 15.8172 150.483 15.426C150.269 15.0274 150.162 14.5218 150.162 13.9091V10.5431H151.889V13.6544C151.889 14.149 151.992 14.5144 152.199 14.7506C152.413 14.9794 152.712 15.0938 153.096 15.0938C153.361 15.0938 153.598 15.0385 153.804 14.9277C154.011 14.8096 154.173 14.6325 154.292 14.3963C154.41 14.1527 154.469 13.85 154.469 13.4883V10.5431H156.196V16.5H154.557V14.8613L154.856 15.3374C154.657 15.7508 154.362 16.0645 153.97 16.2786C153.587 16.4852 153.166 16.5886 152.708 16.5886ZM165.425 10.4546C165.897 10.4546 166.314 10.5505 166.676 10.7424C167.045 10.927 167.333 11.2148 167.54 11.6061C167.754 11.9899 167.861 12.4845 167.861 13.0897V16.5H166.134V13.3555C166.134 12.8757 166.034 12.5214 165.835 12.2925C165.635 12.0637 165.355 11.9493 164.993 11.9493C164.742 11.9493 164.517 12.0084 164.318 12.1265C164.118 12.2372 163.963 12.407 163.853 12.6358C163.742 12.8646 163.687 13.1562 163.687 13.5105V16.5H161.959V13.3555C161.959 12.8757 161.86 12.5214 161.66 12.2925C161.468 12.0637 161.192 11.9493 160.83 11.9493C160.579 11.9493 160.354 12.0084 160.155 12.1265C159.955 12.2372 159.8 12.407 159.69 12.6358C159.579 12.8646 159.523 13.1562 159.523 13.5105V16.5H157.796V10.5431H159.446V12.1708L159.136 11.6946C159.343 11.2887 159.634 10.9823 160.011 10.7756C160.394 10.5616 160.83 10.4546 161.317 10.4546C161.863 10.4546 162.34 10.5948 162.745 10.8753C163.159 11.1484 163.432 11.5692 163.565 12.1375L162.956 11.9715C163.155 11.5064 163.473 11.1373 163.908 10.8642C164.351 10.5911 164.857 10.4546 165.425 10.4546ZM176.42 16.6329C175.815 16.6329 175.25 16.5332 174.726 16.3339C174.209 16.1346 173.759 15.8541 173.375 15.4924C172.999 15.1307 172.703 14.7063 172.489 14.2191C172.283 13.7319 172.179 13.2005 172.179 12.6247C172.179 12.049 172.283 11.5175 172.489 11.0303C172.703 10.5431 173.002 10.1187 173.386 9.757C173.77 9.39531 174.22 9.11481 174.737 8.91551C175.254 8.71621 175.815 8.61656 176.42 8.61656C177.033 8.61656 177.594 8.71621 178.103 8.91551C178.62 9.11481 179.066 9.39531 179.443 9.757C179.827 10.1113 180.126 10.5321 180.34 11.0192C180.554 11.5064 180.661 12.0416 180.661 12.6247C180.661 13.2005 180.554 13.7356 180.34 14.2302C180.126 14.7174 179.827 15.1418 179.443 15.5035C179.066 15.8578 178.62 16.1346 178.103 16.3339C177.594 16.5332 177.033 16.6329 176.42 16.6329ZM178.956 18.2826C178.653 18.2826 178.365 18.2494 178.092 18.183C177.826 18.1165 177.56 18.0095 177.295 17.8619C177.036 17.7143 176.763 17.515 176.475 17.264C176.195 17.013 175.889 16.703 175.556 16.3339L177.439 15.8578C177.638 16.1309 177.823 16.3487 177.992 16.5111C178.162 16.6735 178.324 16.7879 178.479 16.8543C178.642 16.9207 178.812 16.954 178.989 16.954C179.461 16.954 179.882 16.762 180.251 16.3782L181.048 17.3304C180.524 17.9652 179.827 18.2826 178.956 18.2826ZM176.42 15.1049C176.767 15.1049 177.084 15.0458 177.372 14.9277C177.668 14.8096 177.926 14.6399 178.147 14.4184C178.369 14.197 178.539 13.9349 178.657 13.6323C178.782 13.3223 178.845 12.9864 178.845 12.6247C178.845 12.2556 178.782 11.9198 178.657 11.6171C178.539 11.3145 178.369 11.0525 178.147 10.831C177.926 10.6096 177.668 10.4398 177.372 10.3217C177.084 10.2036 176.767 10.1445 176.42 10.1445C176.073 10.1445 175.752 10.2036 175.457 10.3217C175.162 10.4398 174.903 10.6096 174.682 10.831C174.468 11.0525 174.298 11.3145 174.172 11.6171C174.054 11.9198 173.995 12.2556 173.995 12.6247C173.995 12.9864 174.054 13.3223 174.172 13.6323C174.298 13.9349 174.468 14.197 174.682 14.4184C174.903 14.6399 175.162 14.8096 175.457 14.9277C175.752 15.0458 176.073 15.1049 176.42 15.1049ZM184.4 16.5886C183.906 16.5886 183.463 16.4926 183.072 16.3007C182.688 16.1088 182.389 15.8172 182.175 15.426C181.961 15.0274 181.854 14.5218 181.854 13.9091V10.5431H183.581V13.6544C183.581 14.149 183.684 14.5144 183.891 14.7506C184.105 14.9794 184.404 15.0938 184.788 15.0938C185.054 15.0938 185.29 15.0385 185.497 14.9277C185.703 14.8096 185.866 14.6325 185.984 14.3963C186.102 14.1527 186.161 13.85 186.161 13.4883V10.5431H187.888V16.5H186.249V14.8613L186.548 15.3374C186.349 15.7508 186.054 16.0645 185.663 16.2786C185.279 16.4852 184.858 16.5886 184.4 16.5886ZM193.142 16.5V15.3374L193.031 15.0828V13.0012C193.031 12.6321 192.917 12.3442 192.688 12.1375C192.467 11.9309 192.124 11.8275 191.658 11.8275C191.341 11.8275 191.027 11.8792 190.717 11.9825C190.415 12.0785 190.156 12.2114 189.942 12.3811L189.322 11.1743C189.647 10.9454 190.038 10.7683 190.496 10.6428C190.954 10.5173 191.419 10.4546 191.891 10.4546C192.799 10.4546 193.504 10.6686 194.006 11.0967C194.508 11.5249 194.759 12.1929 194.759 13.1008V16.5H193.142ZM191.326 16.5886C190.861 16.5886 190.463 16.5111 190.131 16.3561C189.798 16.1937 189.544 15.9759 189.367 15.7028C189.189 15.4297 189.101 15.1234 189.101 14.7838C189.101 14.4295 189.186 14.1195 189.355 13.8537C189.533 13.588 189.809 13.3813 190.186 13.2337C190.562 13.0787 191.053 13.0012 191.658 13.0012H193.242V14.0087H191.847C191.441 14.0087 191.16 14.0752 191.005 14.208C190.858 14.3409 190.784 14.507 190.784 14.7063C190.784 14.9277 190.869 15.1049 191.038 15.2378C191.216 15.3632 191.455 15.426 191.758 15.426C192.046 15.426 192.304 15.3596 192.533 15.2267C192.762 15.0864 192.928 14.8835 193.031 14.6177L193.297 15.4149C193.172 15.7988 192.943 16.0903 192.611 16.2896C192.279 16.4889 191.85 16.5886 191.326 16.5886ZM196.322 16.5V8.28439H198.049V16.5H196.322ZM199.652 16.5V10.5431H201.38V16.5H199.652ZM200.516 9.71271C200.199 9.71271 199.94 9.62045 199.741 9.43591C199.542 9.25137 199.442 9.02254 199.442 8.74943C199.442 8.47631 199.542 8.24749 199.741 8.06295C199.94 7.87841 200.199 7.78614 200.516 7.78614C200.833 7.78614 201.092 7.87472 201.291 8.05188C201.49 8.22165 201.59 8.4431 201.59 8.71621C201.59 9.00409 201.49 9.24399 201.291 9.43591C201.099 9.62045 200.841 9.71271 200.516 9.71271ZM205.419 16.5886C204.717 16.5886 204.171 16.4114 203.78 16.0571C203.389 15.6954 203.193 15.1603 203.193 14.4516V9.22554H204.92V14.4295C204.92 14.6805 204.987 14.8761 205.12 15.0163C205.252 15.1492 205.433 15.2156 205.662 15.2156C205.935 15.2156 206.168 15.1418 206.36 14.9942L206.825 16.2121C206.648 16.3376 206.433 16.4336 206.183 16.5C205.939 16.5591 205.684 16.5886 205.419 16.5886ZM202.274 12.0047V10.676H206.404V12.0047H202.274ZM208.439 18.7366C208.129 18.7366 207.823 18.6886 207.52 18.5927C207.217 18.4967 206.97 18.3638 206.778 18.1941L207.409 16.965C207.542 17.0831 207.694 17.1754 207.863 17.2418C208.04 17.3083 208.214 17.3415 208.384 17.3415C208.627 17.3415 208.819 17.2824 208.959 17.1643C209.107 17.0536 209.24 16.8654 209.358 16.5997L209.668 15.8689L209.801 15.6807L211.938 10.5431H213.599L210.908 16.8654C210.716 17.3452 210.495 17.7216 210.244 17.9948C210 18.2679 209.727 18.4598 209.425 18.5705C209.129 18.6812 208.801 18.7366 208.439 18.7366ZM209.458 16.7325L206.8 10.5431H208.583L210.642 15.5256L209.458 16.7325Z" fill="#442210"/>
<path d="M224.799 0L224.799 26" stroke="#442210"/>
<path d="M242.126 7.72754C239.226 7.72754 236.854 10.1002 236.854 13C236.854 15.8999 239.226 18.2725 242.126 18.2725C245.026 18.2725 247.399 15.8999 247.399 13C247.399 10.1002 245.026 7.72754 242.126 7.72754ZM241.072 15.6363L238.435 13L239.179 12.2566L241.072 14.1442L245.073 10.1423L245.817 10.891L241.072 15.6363Z" fill="#442210"/>
<path d="M254.116 16.5V8.74943H257.637C258.479 8.74943 259.221 8.91182 259.863 9.23661C260.505 9.55401 261.007 10.0006 261.369 10.5763C261.73 11.1521 261.911 11.8349 261.911 12.6247C261.911 13.4072 261.73 14.0899 261.369 14.6731C261.007 15.2488 260.505 15.6991 259.863 16.0239C259.221 16.3413 258.479 16.5 257.637 16.5H254.116ZM255.91 15.0274H257.549C258.065 15.0274 258.512 14.9314 258.888 14.7395C259.272 14.5402 259.567 14.2597 259.774 13.898C259.988 13.5363 260.095 13.1119 260.095 12.6247C260.095 12.1302 259.988 11.7057 259.774 11.3514C259.567 10.9897 259.272 10.7129 258.888 10.521C258.512 10.3217 258.065 10.222 257.549 10.222H255.91V15.0274ZM265.655 16.5886C265.161 16.5886 264.718 16.4926 264.327 16.3007C263.943 16.1088 263.644 15.8172 263.43 15.426C263.216 15.0274 263.109 14.5218 263.109 13.9091V10.5431H264.836V13.6544C264.836 14.149 264.939 14.5144 265.146 14.7506C265.36 14.9794 265.659 15.0938 266.043 15.0938C266.309 15.0938 266.545 15.0385 266.752 14.9277C266.958 14.8096 267.121 14.6325 267.239 14.3963C267.357 14.1527 267.416 13.85 267.416 13.4883V10.5431H269.143V16.5H267.505V14.8613L267.803 15.3374C267.604 15.7508 267.309 16.0645 266.918 16.2786C266.534 16.4852 266.113 16.5886 265.655 16.5886ZM270.743 16.5V10.5431H272.393V12.2261L272.161 11.7389C272.338 11.3182 272.622 11.0008 273.013 10.7867C273.404 10.5653 273.881 10.4546 274.442 10.4546V12.049C274.368 12.0416 274.301 12.0379 274.242 12.0379C274.183 12.0305 274.12 12.0268 274.054 12.0268C273.582 12.0268 273.198 12.1634 272.902 12.4365C272.615 12.7022 272.471 13.1193 272.471 13.6877V16.5H270.743ZM278.733 16.5V15.3374L278.622 15.0828V13.0012C278.622 12.6321 278.508 12.3442 278.279 12.1375C278.058 11.9309 277.715 11.8275 277.249 11.8275C276.932 11.8275 276.618 11.8792 276.308 11.9825C276.006 12.0785 275.747 12.2114 275.533 12.3811L274.913 11.1743C275.238 10.9454 275.629 10.7683 276.087 10.6428C276.545 10.5173 277.01 10.4546 277.482 10.4546C278.39 10.4546 279.095 10.6686 279.597 11.0967C280.099 11.5249 280.35 12.1929 280.35 13.1008V16.5H278.733ZM276.917 16.5886C276.452 16.5886 276.054 16.5111 275.721 16.3561C275.389 16.1937 275.135 15.9759 274.958 15.7028C274.78 15.4297 274.692 15.1234 274.692 14.7838C274.692 14.4295 274.777 14.1195 274.946 13.8537C275.124 13.588 275.4 13.3813 275.777 13.2337C276.153 13.0787 276.644 13.0012 277.249 13.0012H278.833V14.0087H277.438C277.032 14.0087 276.751 14.0752 276.596 14.208C276.449 14.3409 276.375 14.507 276.375 14.7063C276.375 14.9277 276.46 15.1049 276.629 15.2378C276.807 15.3632 277.046 15.426 277.349 15.426C277.637 15.426 277.895 15.3596 278.124 15.2267C278.353 15.0864 278.519 14.8835 278.622 14.6177L278.888 15.4149C278.763 15.7988 278.534 16.0903 278.202 16.2896C277.87 16.4889 277.441 16.5886 276.917 16.5886ZM285.434 16.5886C284.91 16.5886 284.46 16.4779 284.083 16.2564C283.707 16.035 283.419 15.6991 283.219 15.2488C283.02 14.7912 282.921 14.2154 282.921 13.5216C282.921 12.8203 283.024 12.2446 283.231 11.7943C283.445 11.344 283.74 11.0082 284.116 10.7867C284.493 10.5653 284.932 10.4546 285.434 10.4546C285.995 10.4546 286.497 10.58 286.94 10.831C287.39 11.082 287.744 11.4363 288.003 11.8939C288.268 12.3516 288.401 12.8941 288.401 13.5216C288.401 14.1416 288.268 14.6805 288.003 15.1381C287.744 15.5958 287.39 15.9538 286.94 16.2121C286.497 16.4631 285.995 16.5886 285.434 16.5886ZM281.913 16.5V8.28439H283.64V11.75L283.53 13.5105L283.563 15.2821V16.5H281.913ZM285.135 15.1713C285.423 15.1713 285.678 15.1049 285.899 14.972C286.128 14.8392 286.309 14.6509 286.442 14.4073C286.582 14.1564 286.652 13.8611 286.652 13.5216C286.652 13.1746 286.582 12.8794 286.442 12.6358C286.309 12.3922 286.128 12.204 285.899 12.0711C285.678 11.9382 285.423 11.8718 285.135 11.8718C284.847 11.8718 284.589 11.9382 284.36 12.0711C284.131 12.204 283.95 12.3922 283.817 12.6358C283.685 12.8794 283.618 13.1746 283.618 13.5216C283.618 13.8611 283.685 14.1564 283.817 14.4073C283.95 14.6509 284.131 14.8392 284.36 14.972C284.589 15.1049 284.847 15.1713 285.135 15.1713ZM289.558 16.5V8.28439H291.285V16.5H289.558ZM295.844 16.5886C295.165 16.5886 294.567 16.4557 294.05 16.19C293.541 15.9242 293.146 15.5626 292.866 15.1049C292.585 14.6399 292.445 14.1121 292.445 13.5216C292.445 12.9237 292.582 12.3959 292.855 11.9382C293.135 11.4732 293.515 11.1115 293.995 10.8532C294.475 10.5874 295.017 10.4546 295.623 10.4546C296.206 10.4546 296.73 10.58 297.195 10.831C297.667 11.0746 298.04 11.4289 298.313 11.8939C298.586 12.3516 298.723 12.9015 298.723 13.5437C298.723 13.6101 298.719 13.6876 298.712 13.7762C298.705 13.8574 298.697 13.9349 298.69 14.0087H293.851V13.0012H297.782L297.117 13.3001C297.117 12.9901 297.055 12.7207 296.929 12.4918C296.804 12.263 296.63 12.0859 296.409 11.9604C296.187 11.8275 295.929 11.7611 295.634 11.7611C295.339 11.7611 295.076 11.8275 294.848 11.9604C294.626 12.0859 294.453 12.2667 294.327 12.5029C294.202 12.7317 294.139 13.0049 294.139 13.3223V13.588C294.139 13.9128 294.209 14.2007 294.349 14.4516C294.497 14.6952 294.7 14.8835 294.958 15.0163C295.224 15.1418 295.534 15.2045 295.888 15.2045C296.206 15.2045 296.483 15.1566 296.719 15.0606C296.962 14.9646 297.184 14.8207 297.383 14.6288L298.302 15.6253C298.029 15.9353 297.686 16.1752 297.272 16.345C296.859 16.5074 296.383 16.5886 295.844 16.5886Z" fill="#442210"/>
<defs>
<clipPath id="clip0_1896_2247">
<rect width="12.654" height="12.654" fill="white" transform="translate(97.3984 6.67285)"/>
</clipPath>
</defs>
</svg>
