<svg width="275" height="36" viewBox="0 0 275 36" fill="none" xmlns="http://www.w3.org/2000/svg">
<path d="M19.8198 0H256.419L275 19.5L256.419 36H19.8198L0 19.5L19.8198 0Z" fill="#EEC43A"/>
<path d="M18.8782 23V13.2H19.9142V23H18.8782ZM23.1028 23V13.2H23.9568L28.4368 20.844H27.9888L32.4268 13.2H33.2808V23H32.2868V14.754H32.5248L28.4368 21.754H27.9468L23.8308 14.754H24.0968V23H23.1028ZM36.4739 23V13.2H37.5099V22.104H42.9979V23H36.4739ZM54.8322 23.07C54.1229 23.07 53.4835 22.9113 52.9142 22.594C52.3542 22.2673 51.9109 21.824 51.5842 21.264C51.2575 20.6947 51.0942 20.046 51.0942 19.318C51.0942 18.5807 51.2575 17.932 51.5842 17.372C51.9109 16.812 52.3542 16.3733 52.9142 16.056C53.4742 15.7387 54.1135 15.58 54.8322 15.58C55.5602 15.58 56.2042 15.7387 56.7642 16.056C57.3335 16.3733 57.7769 16.812 58.0942 17.372C58.4209 17.932 58.5842 18.5807 58.5842 19.318C58.5842 20.046 58.4209 20.6947 58.0942 21.264C57.7769 21.824 57.3335 22.2673 56.7642 22.594C56.1949 22.9113 55.5509 23.07 54.8322 23.07ZM54.8322 22.188C55.3642 22.188 55.8355 22.0713 56.2462 21.838C56.6569 21.5953 56.9789 21.2593 57.2122 20.83C57.4549 20.3913 57.5762 19.8873 57.5762 19.318C57.5762 18.7393 57.4549 18.2353 57.2122 17.806C56.9789 17.3767 56.6569 17.0453 56.2462 16.812C55.8355 16.5693 55.3689 16.448 54.8462 16.448C54.3235 16.448 53.8569 16.5693 53.4462 16.812C53.0355 17.0453 52.7089 17.3767 52.4662 17.806C52.2235 18.2353 52.1022 18.7393 52.1022 19.318C52.1022 19.8873 52.2235 20.3913 52.4662 20.83C52.7089 21.2593 53.0355 21.5953 53.4462 21.838C53.8569 22.0713 54.3189 22.188 54.8322 22.188ZM64.3655 15.58C64.9629 15.58 65.4855 15.6967 65.9335 15.93C66.3909 16.154 66.7455 16.4993 66.9975 16.966C67.2589 17.4327 67.3895 18.0207 67.3895 18.73V23H66.3955V18.828C66.3955 18.0533 66.1995 17.47 65.8075 17.078C65.4249 16.6767 64.8835 16.476 64.1835 16.476C63.6609 16.476 63.2035 16.5833 62.8115 16.798C62.4289 17.0033 62.1302 17.3067 61.9155 17.708C61.7102 18.1 61.6075 18.576 61.6075 19.136V23H60.6135V15.65H61.5655V17.666L61.4115 17.288C61.6449 16.756 62.0182 16.3407 62.5315 16.042C63.0449 15.734 63.6562 15.58 64.3655 15.58ZM73.9485 23V13.2H74.9845V22.104H80.4725V23H73.9485ZM81.9827 23V15.65H82.9767V23H81.9827ZM82.4867 14.026C82.2813 14.026 82.1087 13.956 81.9687 13.816C81.8287 13.676 81.7587 13.508 81.7587 13.312C81.7587 13.116 81.8287 12.9527 81.9687 12.822C82.1087 12.682 82.2813 12.612 82.4867 12.612C82.692 12.612 82.8647 12.6773 83.0047 12.808C83.1447 12.9387 83.2147 13.102 83.2147 13.298C83.2147 13.5033 83.1447 13.676 83.0047 13.816C82.874 13.956 82.7013 14.026 82.4867 14.026ZM88.6684 23.07C87.9684 23.07 87.3384 22.9113 86.7784 22.594C86.2278 22.2767 85.7938 21.838 85.4764 21.278C85.1591 20.7087 85.0004 20.0553 85.0004 19.318C85.0004 18.5713 85.1591 17.918 85.4764 17.358C85.7938 16.798 86.2278 16.364 86.7784 16.056C87.3384 15.7387 87.9684 15.58 88.6684 15.58C89.3124 15.58 89.8864 15.7247 90.3904 16.014C90.9038 16.3033 91.3098 16.728 91.6084 17.288C91.9164 17.8387 92.0704 18.5153 92.0704 19.318C92.0704 20.1113 91.9211 20.788 91.6224 21.348C91.3238 21.908 90.9178 22.3373 90.4044 22.636C89.9004 22.9253 89.3218 23.07 88.6684 23.07ZM88.7384 22.188C89.2611 22.188 89.7278 22.0713 90.1384 21.838C90.5584 21.5953 90.8851 21.2593 91.1184 20.83C91.3611 20.3913 91.4824 19.8873 91.4824 19.318C91.4824 18.7393 91.3611 18.2353 91.1184 17.806C90.8851 17.3767 90.5584 17.0453 90.1384 16.812C89.7278 16.5693 89.2611 16.448 88.7384 16.448C88.2251 16.448 87.7631 16.5693 87.3524 16.812C86.9418 17.0453 86.6151 17.3767 86.3724 17.806C86.1298 18.2353 86.0084 18.7393 86.0084 19.318C86.0084 19.8873 86.1298 20.3913 86.3724 20.83C86.6151 21.2593 86.9418 21.5953 87.3524 21.838C87.7631 22.0713 88.2251 22.188 88.7384 22.188ZM91.5104 23V20.788L91.6084 19.304L91.4684 17.82V12.612H92.4624V23H91.5104ZM101.485 23.084C100.85 23.084 100.285 22.9813 99.7908 22.776C99.2961 22.5613 98.9041 22.2673 98.6148 21.894C98.3348 21.5207 98.1948 21.0867 98.1948 20.592C98.1948 20.172 98.2881 19.7893 98.4748 19.444C98.6615 19.0893 98.9601 18.744 99.3708 18.408C99.7908 18.0627 100.346 17.7033 101.037 17.33C101.625 17.0033 102.082 16.7233 102.409 16.49C102.745 16.2473 102.983 16.0187 103.123 15.804C103.263 15.58 103.333 15.342 103.333 15.09C103.333 14.726 103.207 14.432 102.955 14.208C102.712 13.984 102.362 13.872 101.905 13.872C101.41 13.872 101.027 13.998 100.757 14.25C100.486 14.4927 100.351 14.81 100.351 15.202C100.351 15.398 100.379 15.5847 100.435 15.762C100.5 15.9393 100.617 16.1353 100.785 16.35C100.962 16.5647 101.205 16.8353 101.513 17.162L106.693 22.496L106.119 23.154L100.715 17.596C100.388 17.2507 100.127 16.952 99.9308 16.7C99.7441 16.4387 99.6135 16.1913 99.5388 15.958C99.4641 15.7247 99.4268 15.4773 99.4268 15.216C99.4268 14.796 99.5248 14.432 99.7208 14.124C99.9261 13.8067 100.215 13.564 100.589 13.396C100.962 13.2187 101.401 13.13 101.905 13.13C102.362 13.13 102.759 13.2093 103.095 13.368C103.44 13.5173 103.706 13.7367 103.893 14.026C104.089 14.3153 104.187 14.6653 104.187 15.076C104.187 15.4307 104.098 15.762 103.921 16.07C103.753 16.378 103.473 16.6813 103.081 16.98C102.689 17.2693 102.157 17.596 101.485 17.96C100.897 18.2867 100.43 18.5853 100.085 18.856C99.7488 19.1267 99.5108 19.3927 99.3708 19.654C99.2308 19.906 99.1608 20.186 99.1608 20.494C99.1608 20.8487 99.2588 21.1613 99.4548 21.432C99.6601 21.6933 99.9401 21.8987 100.295 22.048C100.659 22.188 101.074 22.258 101.541 22.258C102.194 22.258 102.777 22.1227 103.291 21.852C103.804 21.5813 104.233 21.1707 104.579 20.62C104.933 20.0693 105.19 19.3787 105.349 18.548L106.147 18.8C105.969 19.7333 105.666 20.5173 105.237 21.152C104.807 21.7867 104.275 22.2673 103.641 22.594C103.006 22.9207 102.287 23.084 101.485 23.084ZM114.038 23V14.096H110.594V13.2H118.518V14.096H115.074V23H114.038ZM122.81 23.07C122.184 23.07 121.638 22.9533 121.172 22.72C120.705 22.4867 120.341 22.1367 120.08 21.67C119.828 21.2033 119.702 20.62 119.702 19.92V15.65H120.696V19.808C120.696 20.592 120.887 21.1847 121.27 21.586C121.662 21.978 122.208 22.174 122.908 22.174C123.421 22.174 123.864 22.0713 124.238 21.866C124.62 21.6513 124.91 21.3433 125.106 20.942C125.311 20.5407 125.414 20.06 125.414 19.5V15.65H126.408V23H125.456V20.984L125.61 21.348C125.376 21.8893 125.012 22.314 124.518 22.622C124.032 22.9207 123.463 23.07 122.81 23.07ZM132.972 23.07C132.328 23.07 131.749 22.9253 131.236 22.636C130.723 22.3373 130.317 21.908 130.018 21.348C129.719 20.788 129.57 20.1113 129.57 19.318C129.57 18.5153 129.719 17.8387 130.018 17.288C130.326 16.728 130.737 16.3033 131.25 16.014C131.763 15.7247 132.337 15.58 132.972 15.58C133.672 15.58 134.297 15.7387 134.848 16.056C135.408 16.364 135.847 16.798 136.164 17.358C136.481 17.918 136.64 18.5713 136.64 19.318C136.64 20.0553 136.481 20.7087 136.164 21.278C135.847 21.838 135.408 22.2767 134.848 22.594C134.297 22.9113 133.672 23.07 132.972 23.07ZM129.178 23V12.612H130.172V17.82L130.032 19.304L130.13 20.788V23H129.178ZM132.902 22.188C133.425 22.188 133.891 22.0713 134.302 21.838C134.713 21.5953 135.039 21.2593 135.282 20.83C135.525 20.3913 135.646 19.8873 135.646 19.318C135.646 18.7393 135.525 18.2353 135.282 17.806C135.039 17.3767 134.713 17.0453 134.302 16.812C133.891 16.5693 133.425 16.448 132.902 16.448C132.379 16.448 131.908 16.5693 131.488 16.812C131.077 17.0453 130.751 17.3767 130.508 17.806C130.275 18.2353 130.158 18.7393 130.158 19.318C130.158 19.8873 130.275 20.3913 130.508 20.83C130.751 21.2593 131.077 21.5953 131.488 21.838C131.908 22.0713 132.379 22.188 132.902 22.188ZM144.024 25.716C143.511 24.8667 143.11 23.8867 142.82 22.776C142.54 21.656 142.4 20.452 142.4 19.164C142.4 17.876 142.54 16.672 142.82 15.552C143.11 14.4227 143.511 13.4427 144.024 12.612H144.976C144.426 13.5733 144.02 14.5953 143.758 15.678C143.506 16.7513 143.38 17.9133 143.38 19.164C143.38 20.4147 143.506 21.5813 143.758 22.664C144.02 23.7373 144.426 24.7547 144.976 25.716H144.024ZM149.374 23.084C148.674 23.084 148.006 22.972 147.372 22.748C146.737 22.5147 146.233 22.2067 145.86 21.824L146.35 21.026C146.658 21.3527 147.078 21.6233 147.61 21.838C148.151 22.0527 148.734 22.16 149.36 22.16C150.19 22.16 150.82 21.978 151.25 21.614C151.688 21.2407 151.908 20.7553 151.908 20.158C151.908 19.738 151.805 19.3787 151.6 19.08C151.404 18.772 151.068 18.534 150.592 18.366C150.116 18.198 149.462 18.114 148.632 18.114H146.546L147.05 13.2H152.412V14.096H147.456L147.974 13.606L147.54 17.722L147.022 17.218H148.856C149.845 17.218 150.638 17.3393 151.236 17.582C151.833 17.8247 152.262 18.1653 152.524 18.604C152.794 19.0333 152.93 19.5373 152.93 20.116C152.93 20.6667 152.799 21.1707 152.538 21.628C152.276 22.076 151.884 22.4307 151.362 22.692C150.839 22.9533 150.176 23.084 149.374 23.084ZM160.506 23.07C159.899 23.07 159.325 22.986 158.784 22.818C158.242 22.6407 157.818 22.4213 157.51 22.16L157.958 21.376C158.256 21.6 158.639 21.796 159.106 21.964C159.572 22.1227 160.062 22.202 160.576 22.202C161.276 22.202 161.78 22.0947 162.088 21.88C162.396 21.656 162.55 21.362 162.55 20.998C162.55 20.7273 162.461 20.5173 162.284 20.368C162.116 20.2093 161.892 20.0927 161.612 20.018C161.332 19.934 161.019 19.864 160.674 19.808C160.328 19.752 159.983 19.6867 159.638 19.612C159.302 19.5373 158.994 19.43 158.714 19.29C158.434 19.1407 158.205 18.94 158.028 18.688C157.86 18.436 157.776 18.1 157.776 17.68C157.776 17.2787 157.888 16.9193 158.112 16.602C158.336 16.2847 158.662 16.0373 159.092 15.86C159.53 15.6733 160.062 15.58 160.688 15.58C161.164 15.58 161.64 15.6453 162.116 15.776C162.592 15.8973 162.984 16.0607 163.292 16.266L162.858 17.064C162.531 16.84 162.181 16.6813 161.808 16.588C161.434 16.4853 161.061 16.434 160.688 16.434C160.025 16.434 159.535 16.5507 159.218 16.784C158.91 17.008 158.756 17.2973 158.756 17.652C158.756 17.932 158.84 18.1513 159.008 18.31C159.185 18.4687 159.414 18.5947 159.694 18.688C159.983 18.772 160.296 18.842 160.632 18.898C160.977 18.954 161.318 19.024 161.654 19.108C161.999 19.1827 162.312 19.29 162.592 19.43C162.881 19.5607 163.11 19.752 163.278 20.004C163.455 20.2467 163.544 20.5687 163.544 20.97C163.544 21.3993 163.422 21.7727 163.18 22.09C162.946 22.398 162.601 22.6407 162.144 22.818C161.696 22.986 161.15 23.07 160.506 23.07ZM165.367 23V15.65H166.361V23H165.367ZM165.871 14.026C165.666 14.026 165.493 13.956 165.353 13.816C165.213 13.676 165.143 13.508 165.143 13.312C165.143 13.116 165.213 12.9527 165.353 12.822C165.493 12.682 165.666 12.612 165.871 12.612C166.077 12.612 166.249 12.6773 166.389 12.808C166.529 12.9387 166.599 13.102 166.599 13.298C166.599 13.5033 166.529 13.676 166.389 13.816C166.259 13.956 166.086 14.026 165.871 14.026ZM172.053 23.07C171.353 23.07 170.723 22.9113 170.163 22.594C169.613 22.2767 169.179 21.838 168.861 21.278C168.544 20.7087 168.385 20.0553 168.385 19.318C168.385 18.5713 168.544 17.918 168.861 17.358C169.179 16.798 169.613 16.364 170.163 16.056C170.723 15.7387 171.353 15.58 172.053 15.58C172.697 15.58 173.271 15.7247 173.775 16.014C174.289 16.3033 174.695 16.728 174.993 17.288C175.301 17.8387 175.455 18.5153 175.455 19.318C175.455 20.1113 175.306 20.788 175.007 21.348C174.709 21.908 174.303 22.3373 173.789 22.636C173.285 22.9253 172.707 23.07 172.053 23.07ZM172.123 22.188C172.646 22.188 173.113 22.0713 173.523 21.838C173.943 21.5953 174.27 21.2593 174.503 20.83C174.746 20.3913 174.867 19.8873 174.867 19.318C174.867 18.7393 174.746 18.2353 174.503 17.806C174.27 17.3767 173.943 17.0453 173.523 16.812C173.113 16.5693 172.646 16.448 172.123 16.448C171.61 16.448 171.148 16.5693 170.737 16.812C170.327 17.0453 170 17.3767 169.757 17.806C169.515 18.2353 169.393 18.7393 169.393 19.318C169.393 19.8873 169.515 20.3913 169.757 20.83C170 21.2593 170.327 21.5953 170.737 21.838C171.148 22.0713 171.61 22.188 172.123 22.188ZM174.895 23V20.788L174.993 19.304L174.853 17.82V12.612H175.847V23H174.895ZM181.737 23.07C180.972 23.07 180.3 22.9113 179.721 22.594C179.143 22.2673 178.69 21.824 178.363 21.264C178.037 20.6947 177.873 20.046 177.873 19.318C177.873 18.59 178.027 17.946 178.335 17.386C178.653 16.826 179.082 16.3873 179.623 16.07C180.174 15.7433 180.79 15.58 181.471 15.58C182.162 15.58 182.773 15.7387 183.305 16.056C183.847 16.364 184.271 16.8027 184.579 17.372C184.887 17.932 185.041 18.5807 185.041 19.318C185.041 19.3647 185.037 19.416 185.027 19.472C185.027 19.5187 185.027 19.57 185.027 19.626H178.629V18.884H184.495L184.103 19.178C184.103 18.646 183.987 18.1747 183.753 17.764C183.529 17.344 183.221 17.0173 182.829 16.784C182.437 16.5507 181.985 16.434 181.471 16.434C180.967 16.434 180.515 16.5507 180.113 16.784C179.712 17.0173 179.399 17.344 179.175 17.764C178.951 18.184 178.839 18.6647 178.839 19.206V19.36C178.839 19.92 178.961 20.4147 179.203 20.844C179.455 21.264 179.801 21.5953 180.239 21.838C180.687 22.0713 181.196 22.188 181.765 22.188C182.213 22.188 182.629 22.1087 183.011 21.95C183.403 21.7913 183.739 21.5487 184.019 21.222L184.579 21.866C184.253 22.258 183.842 22.5567 183.347 22.762C182.862 22.9673 182.325 23.07 181.737 23.07ZM187.191 25.716H186.239C186.799 24.7547 187.205 23.7373 187.457 22.664C187.718 21.5813 187.849 20.4147 187.849 19.164C187.849 17.9133 187.718 16.7513 187.457 15.678C187.205 14.5953 186.799 13.5733 186.239 12.612H187.191C187.723 13.4427 188.129 14.4227 188.409 15.552C188.689 16.672 188.829 17.876 188.829 19.164C188.829 20.452 188.689 21.656 188.409 22.776C188.129 23.8867 187.723 24.8667 187.191 25.716ZM193.978 23L198.458 13.2H199.48L203.96 23H202.868L198.752 13.802H199.172L195.056 23H193.978ZM195.742 20.382L196.05 19.542H201.748L202.056 20.382H195.742ZM206.892 23L203.63 15.65H204.666L207.662 22.468H207.172L210.21 15.65H211.19L207.914 23H206.892ZM216.977 23V21.376L216.935 21.11V18.394C216.935 17.7687 216.758 17.288 216.403 16.952C216.058 16.616 215.54 16.448 214.849 16.448C214.373 16.448 213.921 16.5273 213.491 16.686C213.062 16.8447 212.698 17.0547 212.399 17.316L211.951 16.574C212.325 16.2567 212.773 16.014 213.295 15.846C213.818 15.6687 214.369 15.58 214.947 15.58C215.899 15.58 216.632 15.818 217.145 16.294C217.668 16.7607 217.929 17.4747 217.929 18.436V23H216.977ZM214.443 23.07C213.893 23.07 213.412 22.9813 213.001 22.804C212.6 22.6173 212.292 22.3653 212.077 22.048C211.863 21.7213 211.755 21.348 211.755 20.928C211.755 20.5453 211.844 20.2 212.021 19.892C212.208 19.5747 212.507 19.3227 212.917 19.136C213.337 18.94 213.897 18.842 214.597 18.842H217.131V19.584H214.625C213.916 19.584 213.421 19.71 213.141 19.962C212.871 20.214 212.735 20.5267 212.735 20.9C212.735 21.32 212.899 21.656 213.225 21.908C213.552 22.16 214.009 22.286 214.597 22.286C215.157 22.286 215.638 22.16 216.039 21.908C216.45 21.6467 216.749 21.2733 216.935 20.788L217.159 21.474C216.973 21.9593 216.646 22.3467 216.179 22.636C215.722 22.9253 215.143 23.07 214.443 23.07ZM220.629 23V15.65H221.623V23H220.629ZM221.133 14.026C220.928 14.026 220.755 13.956 220.615 13.816C220.475 13.676 220.405 13.508 220.405 13.312C220.405 13.116 220.475 12.9527 220.615 12.822C220.755 12.682 220.928 12.612 221.133 12.612C221.338 12.612 221.511 12.6773 221.651 12.808C221.791 12.9387 221.861 13.102 221.861 13.298C221.861 13.5033 221.791 13.676 221.651 13.816C221.52 13.956 221.348 14.026 221.133 14.026ZM224.389 23V12.612H225.383V23H224.389ZM232.755 23V21.376L232.713 21.11V18.394C232.713 17.7687 232.535 17.288 232.181 16.952C231.835 16.616 231.317 16.448 230.627 16.448C230.151 16.448 229.698 16.5273 229.269 16.686C228.839 16.8447 228.475 17.0547 228.177 17.316L227.729 16.574C228.102 16.2567 228.55 16.014 229.073 15.846C229.595 15.6687 230.146 15.58 230.725 15.58C231.677 15.58 232.409 15.818 232.923 16.294C233.445 16.7607 233.707 17.4747 233.707 18.436V23H232.755ZM230.221 23.07C229.67 23.07 229.189 22.9813 228.779 22.804C228.377 22.6173 228.069 22.3653 227.855 22.048C227.64 21.7213 227.533 21.348 227.533 20.928C227.533 20.5453 227.621 20.2 227.799 19.892C227.985 19.5747 228.284 19.3227 228.695 19.136C229.115 18.94 229.675 18.842 230.375 18.842H232.909V19.584H230.403C229.693 19.584 229.199 19.71 228.919 19.962C228.648 20.214 228.513 20.5267 228.513 20.9C228.513 21.32 228.676 21.656 229.003 21.908C229.329 22.16 229.787 22.286 230.375 22.286C230.935 22.286 231.415 22.16 231.817 21.908C232.227 21.6467 232.526 21.2733 232.713 20.788L232.937 21.474C232.75 21.9593 232.423 22.3467 231.957 22.636C231.499 22.9253 230.921 23.07 230.221 23.07ZM240.201 23.07C239.557 23.07 238.978 22.9253 238.465 22.636C237.951 22.3373 237.545 21.908 237.247 21.348C236.948 20.788 236.799 20.1113 236.799 19.318C236.799 18.5153 236.948 17.8387 237.247 17.288C237.555 16.728 237.965 16.3033 238.479 16.014C238.992 15.7247 239.566 15.58 240.201 15.58C240.901 15.58 241.526 15.7387 242.077 16.056C242.637 16.364 243.075 16.798 243.393 17.358C243.71 17.918 243.869 18.5713 243.869 19.318C243.869 20.0553 243.71 20.7087 243.393 21.278C243.075 21.838 242.637 22.2767 242.077 22.594C241.526 22.9113 240.901 23.07 240.201 23.07ZM236.407 23V12.612H237.401V17.82L237.261 19.304L237.359 20.788V23H236.407ZM240.131 22.188C240.653 22.188 241.12 22.0713 241.531 21.838C241.941 21.5953 242.268 21.2593 242.511 20.83C242.753 20.3913 242.875 19.8873 242.875 19.318C242.875 18.7393 242.753 18.2353 242.511 17.806C242.268 17.3767 241.941 17.0453 241.531 16.812C241.12 16.5693 240.653 16.448 240.131 16.448C239.608 16.448 239.137 16.5693 238.717 16.812C238.306 17.0453 237.979 17.3767 237.737 17.806C237.503 18.2353 237.387 18.7393 237.387 19.318C237.387 19.8873 237.503 20.3913 237.737 20.83C237.979 21.2593 238.306 21.5953 238.717 21.838C239.137 22.0713 239.608 22.188 240.131 22.188ZM245.895 23V12.612H246.889V23H245.895ZM252.777 23.07C252.011 23.07 251.339 22.9113 250.761 22.594C250.182 22.2673 249.729 21.824 249.403 21.264C249.076 20.6947 248.913 20.046 248.913 19.318C248.913 18.59 249.067 17.946 249.375 17.386C249.692 16.826 250.121 16.3873 250.663 16.07C251.213 15.7433 251.829 15.58 252.511 15.58C253.201 15.58 253.813 15.7387 254.345 16.056C254.886 16.364 255.311 16.8027 255.619 17.372C255.927 17.932 256.081 18.5807 256.081 19.318C256.081 19.3647 256.076 19.416 256.067 19.472C256.067 19.5187 256.067 19.57 256.067 19.626H249.669V18.884H255.535L255.143 19.178C255.143 18.646 255.026 18.1747 254.793 17.764C254.569 17.344 254.261 17.0173 253.869 16.784C253.477 16.5507 253.024 16.434 252.511 16.434C252.007 16.434 251.554 16.5507 251.153 16.784C250.751 17.0173 250.439 17.344 250.215 17.764C249.991 18.184 249.879 18.6647 249.879 19.206V19.36C249.879 19.92 250 20.4147 250.243 20.844C250.495 21.264 250.84 21.5953 251.279 21.838C251.727 22.0713 252.235 22.188 252.805 22.188C253.253 22.188 253.668 22.1087 254.051 21.95C254.443 21.7913 254.779 21.5487 255.059 21.222L255.619 21.866C255.292 22.258 254.881 22.5567 254.387 22.762C253.901 22.9673 253.365 23.07 252.777 23.07Z" fill="black"/>
</svg>
