<svg width="517" height="34" viewBox="0 0 517 34" fill="none" xmlns="http://www.w3.org/2000/svg">
<path d="M-31 0H495C507.15 0 517 9.84974 517 22V34H-31V0Z" fill="#619577"/>
<path d="M108.608 20.0713V11.5795H105.269V9.99625H113.818V11.5795H110.479V20.0713H108.608ZM119.378 20.0713V18.5169L119.277 18.1858V15.4656C119.277 14.9378 119.119 14.53 118.802 14.2422C118.485 13.9447 118.005 13.796 117.363 13.796C116.931 13.796 116.504 13.8631 116.082 13.9975C115.669 14.1318 115.319 14.3189 115.031 14.5588L114.326 13.249C114.738 12.9324 115.228 12.6973 115.794 12.5438C116.369 12.3807 116.964 12.2991 117.578 12.2991C118.692 12.2991 119.55 12.5678 120.155 13.1051C120.769 13.6329 121.076 14.4533 121.076 15.5663V20.0713H119.378ZM116.96 20.172C116.384 20.172 115.88 20.0761 115.448 19.8842C115.017 19.6827 114.681 19.4092 114.441 19.0638C114.211 18.7088 114.095 18.3106 114.095 17.8692C114.095 17.4374 114.196 17.0488 114.398 16.7033C114.609 16.3579 114.949 16.0845 115.42 15.883C115.89 15.6815 116.513 15.5807 117.291 15.5807H119.522V16.7753H117.42C116.806 16.7753 116.393 16.8761 116.182 17.0776C115.971 17.2695 115.866 17.5094 115.866 17.7972C115.866 18.1234 115.995 18.3825 116.254 18.5744C116.513 18.7663 116.873 18.8623 117.334 18.8623C117.775 18.8623 118.169 18.7615 118.514 18.56C118.869 18.3585 119.123 18.0611 119.277 17.6677L119.579 18.7471C119.406 19.1981 119.095 19.5483 118.644 19.7978C118.202 20.0473 117.641 20.172 116.96 20.172ZM133.086 12.2991C133.7 12.2991 134.242 12.4191 134.712 12.6589C135.192 12.8988 135.566 13.2682 135.835 13.7672C136.103 14.2566 136.238 14.8898 136.238 15.6671V20.0713H134.439V15.8973C134.439 15.2161 134.29 14.7075 133.992 14.3717C133.695 14.0359 133.268 13.8679 132.712 13.8679C132.318 13.8679 131.968 13.9543 131.661 14.127C131.363 14.2997 131.128 14.554 130.956 14.8898C130.792 15.2257 130.711 15.6527 130.711 16.1708V20.0713H128.912V15.8973C128.912 15.2161 128.763 14.7075 128.466 14.3717C128.168 14.0359 127.741 13.8679 127.185 13.8679C126.791 13.8679 126.441 13.9543 126.134 14.127C125.837 14.2997 125.601 14.554 125.429 14.8898C125.266 15.2257 125.184 15.6527 125.184 16.1708V20.0713H123.385V12.3855H125.098V14.4293L124.795 13.8248C125.054 13.3258 125.429 12.9468 125.918 12.6877C126.417 12.4287 126.983 12.2991 127.616 12.2991C128.336 12.2991 128.96 12.4766 129.488 12.8317C130.025 13.1867 130.38 13.724 130.553 14.4437L129.847 14.199C130.097 13.6233 130.509 13.1627 131.085 12.8173C131.661 12.4718 132.328 12.2991 133.086 12.2991ZM142.797 20.172C142.173 20.172 141.603 20.0281 141.084 19.7403C140.576 19.4524 140.168 19.0206 139.861 18.4449C139.564 17.8596 139.415 17.1207 139.415 16.2284C139.415 15.3264 139.559 14.5876 139.847 14.0119C140.144 13.4362 140.547 13.0092 141.056 12.7309C141.564 12.443 142.145 12.2991 142.797 12.2991C143.555 12.2991 144.222 12.4622 144.798 12.7885C145.383 13.1147 145.844 13.5705 146.179 14.1558C146.525 14.7411 146.698 15.432 146.698 16.2284C146.698 17.0248 146.525 17.7204 146.179 18.3154C145.844 18.9007 145.383 19.3564 144.798 19.6827C144.222 20.0089 143.555 20.172 142.797 20.172ZM138.537 22.8635V12.3855H140.25V14.199L140.192 16.2428L140.336 18.2866V22.8635H138.537ZM142.596 18.632C143.027 18.632 143.411 18.536 143.747 18.3441C144.092 18.1522 144.366 17.874 144.567 17.5094C144.769 17.1447 144.87 16.7177 144.87 16.2284C144.87 15.7294 144.769 15.3024 144.567 14.9474C144.366 14.5828 144.092 14.3045 143.747 14.1126C143.411 13.9207 143.027 13.8248 142.596 13.8248C142.164 13.8248 141.775 13.9207 141.43 14.1126C141.084 14.3045 140.811 14.5828 140.609 14.9474C140.408 15.3024 140.307 15.7294 140.307 16.2284C140.307 16.7177 140.408 17.1447 140.609 17.5094C140.811 17.874 141.084 18.1522 141.43 18.3441C141.775 18.536 142.164 18.632 142.596 18.632ZM152.016 20.172C151.162 20.172 150.414 20.0041 149.771 19.6683C149.138 19.3229 148.644 18.8527 148.289 18.2578C147.943 17.6629 147.771 16.9864 147.771 16.2284C147.771 15.4608 147.938 14.7843 148.274 14.199C148.62 13.6041 149.09 13.1387 149.685 12.8029C150.289 12.467 150.975 12.2991 151.743 12.2991C152.491 12.2991 153.158 12.4622 153.744 12.7885C154.329 13.1147 154.789 13.5753 155.125 14.1702C155.461 14.7651 155.629 15.4656 155.629 16.2716C155.629 16.3483 155.624 16.4347 155.615 16.5306C155.615 16.6266 155.61 16.7177 155.6 16.8041H149.195V15.6095H154.65L153.945 15.9837C153.955 15.5423 153.864 15.1537 153.672 14.8179C153.48 14.482 153.216 14.2182 152.88 14.0263C152.554 13.8344 152.175 13.7384 151.743 13.7384C151.302 13.7384 150.913 13.8344 150.577 14.0263C150.251 14.2182 149.992 14.4868 149.8 14.8323C149.618 15.1681 149.526 15.5663 149.526 16.0269V16.3147C149.526 16.7753 149.632 17.1831 149.843 17.5381C150.054 17.8932 150.352 18.1666 150.735 18.3585C151.119 18.5504 151.561 18.6464 152.06 18.6464C152.491 18.6464 152.88 18.5792 153.225 18.4449C153.571 18.3106 153.878 18.0995 154.147 17.8116L155.111 18.9199C154.766 19.3229 154.329 19.6347 153.801 19.8554C153.283 20.0665 152.688 20.172 152.016 20.172ZM157.357 20.0713V12.3855H159.07V14.5012L158.868 13.8823C159.099 13.3642 159.459 12.9708 159.948 12.7021C160.447 12.4335 161.066 12.2991 161.805 12.2991V14.0119C161.728 13.9927 161.656 13.9831 161.589 13.9831C161.522 13.9735 161.454 13.9687 161.387 13.9687C160.706 13.9687 160.164 14.1702 159.761 14.5732C159.358 14.9666 159.156 15.5567 159.156 16.3435V20.0713H157.357ZM167.552 20.0713V9.99625H169.423V18.4881H174.69V20.0713H167.552ZM179.379 20.172C178.592 20.172 177.892 20.0041 177.278 19.6683C176.663 19.3229 176.179 18.8527 175.824 18.2578C175.469 17.6629 175.291 16.9864 175.291 16.2284C175.291 15.4608 175.469 14.7843 175.824 14.199C176.179 13.6041 176.663 13.1387 177.278 12.8029C177.892 12.467 178.592 12.2991 179.379 12.2991C180.175 12.2991 180.881 12.467 181.495 12.8029C182.118 13.1387 182.603 13.5993 182.948 14.1846C183.303 14.7699 183.481 15.4512 183.481 16.2284C183.481 16.9864 183.303 17.6629 182.948 18.2578C182.603 18.8527 182.118 19.3229 181.495 19.6683C180.881 20.0041 180.175 20.172 179.379 20.172ZM179.379 18.632C179.82 18.632 180.214 18.536 180.559 18.3441C180.905 18.1522 181.173 17.874 181.365 17.5094C181.567 17.1447 181.667 16.7177 181.667 16.2284C181.667 15.7294 181.567 15.3024 181.365 14.9474C181.173 14.5828 180.905 14.3045 180.559 14.1126C180.214 13.9207 179.825 13.8248 179.393 13.8248C178.952 13.8248 178.559 13.9207 178.213 14.1126C177.877 14.3045 177.609 14.5828 177.407 14.9474C177.206 15.3024 177.105 15.7294 177.105 16.2284C177.105 16.7177 177.206 17.1447 177.407 17.5094C177.609 17.874 177.877 18.1522 178.213 18.3441C178.559 18.536 178.947 18.632 179.379 18.632ZM188.728 20.172C187.922 20.172 187.202 20.0041 186.569 19.6683C185.945 19.3229 185.456 18.8527 185.101 18.2578C184.746 17.6629 184.568 16.9864 184.568 16.2284C184.568 15.4608 184.746 14.7843 185.101 14.199C185.456 13.6041 185.945 13.1387 186.569 12.8029C187.202 12.467 187.922 12.2991 188.728 12.2991C189.476 12.2991 190.133 12.4526 190.699 12.7597C191.275 13.0571 191.712 13.4985 192.009 14.0838L190.627 14.8898C190.397 14.5252 190.114 14.2566 189.778 14.0838C189.452 13.9111 189.097 13.8248 188.713 13.8248C188.272 13.8248 187.874 13.9207 187.519 14.1126C187.164 14.3045 186.885 14.5828 186.684 14.9474C186.482 15.3024 186.382 15.7294 186.382 16.2284C186.382 16.7273 186.482 17.1591 186.684 17.5237C186.885 17.8788 187.164 18.1522 187.519 18.3441C187.874 18.536 188.272 18.632 188.713 18.632C189.097 18.632 189.452 18.5456 189.778 18.3729C190.114 18.2002 190.397 17.9315 190.627 17.5669L192.009 18.3729C191.712 18.9486 191.275 19.3948 190.699 19.7115C190.133 20.0185 189.476 20.172 188.728 20.172ZM194.962 18.3585L195.005 16.0988L199.021 12.3855H201.18L197.769 15.811L196.819 16.6026L194.962 18.3585ZM193.494 20.0713V9.39175H195.293V20.0713H193.494ZM199.294 20.0713L196.488 16.6026L197.625 15.1633L201.482 20.0713H199.294ZM202.644 20.0713V12.3855H204.443V20.0713H202.644ZM203.551 11.1189C203.215 11.1189 202.937 11.0134 202.716 10.8023C202.505 10.5912 202.4 10.3369 202.4 10.0394C202.4 9.73238 202.505 9.47811 202.716 9.27661C202.937 9.06551 203.215 8.95996 203.551 8.95996C203.887 8.95996 204.16 9.06071 204.371 9.26221C204.592 9.45412 204.702 9.6988 204.702 9.99625C204.702 10.3129 204.597 10.5816 204.386 10.8023C204.175 11.0134 203.896 11.1189 203.551 11.1189ZM211.166 12.2991C211.78 12.2991 212.327 12.4191 212.807 12.6589C213.296 12.8988 213.68 13.2682 213.958 13.7672C214.236 14.2566 214.375 14.8898 214.375 15.6671V20.0713H212.576V15.8973C212.576 15.2161 212.413 14.7075 212.087 14.3717C211.77 14.0359 211.324 13.8679 210.748 13.8679C210.326 13.8679 209.952 13.9543 209.626 14.127C209.3 14.2997 209.045 14.5588 208.863 14.9042C208.69 15.2401 208.604 15.6671 208.604 16.1852V20.0713H206.805V12.3855H208.518V14.4581L208.215 13.8248C208.484 13.3354 208.873 12.9612 209.381 12.7021C209.899 12.4335 210.494 12.2991 211.166 12.2991ZM220.155 22.9643C219.445 22.9643 218.749 22.8683 218.068 22.6764C217.396 22.4941 216.844 22.2254 216.413 21.8704L217.219 20.5175C217.555 20.7957 217.977 21.0164 218.485 21.1795C219.003 21.3523 219.526 21.4386 220.054 21.4386C220.898 21.4386 221.517 21.2419 221.911 20.8485C222.304 20.4647 222.501 19.8842 222.501 19.107V17.7396L222.645 15.9981L222.587 14.2566V12.3855H224.3V18.9055C224.3 20.2968 223.945 21.3187 223.235 21.9712C222.525 22.6332 221.498 22.9643 220.155 22.9643ZM219.925 19.7259C219.195 19.7259 218.533 19.5723 217.938 19.2653C217.353 18.9486 216.888 18.5121 216.542 17.9555C216.206 17.399 216.038 16.7465 216.038 15.9981C216.038 15.2593 216.206 14.6116 216.542 14.0551C216.888 13.4985 217.353 13.0667 217.938 12.7597C218.533 12.4526 219.195 12.2991 219.925 12.2991C220.577 12.2991 221.162 12.4287 221.68 12.6877C222.199 12.9468 222.611 13.3498 222.918 13.8967C223.235 14.4437 223.393 15.1441 223.393 15.9981C223.393 16.8521 223.235 17.5573 222.918 18.1139C222.611 18.6608 222.199 19.0686 221.68 19.3373C221.162 19.5963 220.577 19.7259 219.925 19.7259ZM220.198 18.2002C220.649 18.2002 221.052 18.1091 221.407 17.9267C221.762 17.7348 222.036 17.4758 222.227 17.1495C222.429 16.8137 222.53 16.4299 222.53 15.9981C222.53 15.5663 222.429 15.1873 222.227 14.8611C222.036 14.5252 221.762 14.2709 221.407 14.0982C221.052 13.9159 220.649 13.8248 220.198 13.8248C219.747 13.8248 219.339 13.9159 218.975 14.0982C218.62 14.2709 218.341 14.5252 218.14 14.8611C217.948 15.1873 217.852 15.5663 217.852 15.9981C217.852 16.4299 217.948 16.8137 218.14 17.1495C218.341 17.4758 218.62 17.7348 218.975 17.9267C219.339 18.1091 219.747 18.2002 220.198 18.2002ZM233.191 20.0713L229.851 9.99625H231.794L234.774 19.107H233.809L236.904 9.99625H238.631L241.639 19.107H240.704L243.755 9.99625H245.54L242.201 20.0713H240.214L237.465 11.8529H237.983L235.191 20.0713H233.191ZM246.962 20.0713V12.3855H248.761V20.0713H246.962ZM247.868 11.1189C247.532 11.1189 247.254 11.0134 247.034 10.8023C246.822 10.5912 246.717 10.3369 246.717 10.0394C246.717 9.73238 246.822 9.47811 247.034 9.27661C247.254 9.06551 247.532 8.95996 247.868 8.95996C248.204 8.95996 248.478 9.06071 248.689 9.26221C248.909 9.45412 249.02 9.6988 249.02 9.99625C249.02 10.3129 248.914 10.5816 248.703 10.8023C248.492 11.0134 248.214 11.1189 247.868 11.1189ZM254.015 20.172C253.171 20.172 252.518 19.9561 252.058 19.5244C251.597 19.083 251.367 18.4353 251.367 17.5813V10.6871H253.166V17.5381C253.166 17.9028 253.257 18.1858 253.439 18.3873C253.631 18.5888 253.895 18.6896 254.231 18.6896C254.634 18.6896 254.97 18.584 255.238 18.3729L255.742 19.6539C255.531 19.8266 255.272 19.9561 254.965 20.0425C254.658 20.1289 254.341 20.172 254.015 20.172ZM250.1 13.8823V12.443H255.224V13.8823H250.1ZM261.583 12.2991C262.197 12.2991 262.744 12.4191 263.224 12.6589C263.713 12.8988 264.097 13.2682 264.375 13.7672C264.654 14.2566 264.793 14.8898 264.793 15.6671V20.0713H262.994V15.8973C262.994 15.2161 262.831 14.7075 262.504 14.3717C262.188 14.0359 261.741 13.8679 261.166 13.8679C260.744 13.8679 260.369 13.9543 260.043 14.127C259.717 14.2997 259.463 14.5588 259.28 14.9042C259.108 15.2401 259.021 15.6671 259.021 16.1852V20.0713H257.222V9.39175H259.021V14.4581L258.633 13.8248C258.901 13.3354 259.29 12.9612 259.798 12.7021C260.317 12.4335 260.911 12.2991 261.583 12.2991ZM271.226 20.0713V9.99625H273.097V20.0713H271.226ZM275.822 20.0713V9.99625H277.362L281.766 17.351H280.96L285.292 9.99625H286.832L286.847 20.0713H285.076L285.062 12.7741H285.436L281.752 18.9199H280.917L277.175 12.7741H277.606V20.0713H275.822ZM289.568 20.0713V9.99625H291.439V18.4881H296.707V20.0713H289.568ZM305.285 20.2152C304.498 20.2152 303.745 20.1049 303.025 19.8842C302.306 19.6539 301.735 19.3612 301.313 19.0062L301.96 17.5525C302.363 17.8692 302.862 18.133 303.457 18.3441C304.052 18.5552 304.661 18.6608 305.285 18.6608C305.813 18.6608 306.24 18.6032 306.566 18.4881C306.892 18.3729 307.132 18.2194 307.286 18.0275C307.439 17.826 307.516 17.6005 307.516 17.351C307.516 17.044 307.406 16.7993 307.185 16.617C306.964 16.4251 306.676 16.2764 306.321 16.1708C305.976 16.0557 305.587 15.9501 305.156 15.8542C304.733 15.7582 304.306 15.6479 303.875 15.5231C303.452 15.3888 303.064 15.2209 302.709 15.0194C302.363 14.8083 302.08 14.53 301.86 14.1846C301.639 13.8392 301.529 13.3978 301.529 12.8604C301.529 12.3135 301.672 11.8146 301.96 11.3636C302.258 10.903 302.704 10.5384 303.299 10.2697C303.903 9.99145 304.666 9.85232 305.587 9.85232C306.192 9.85232 306.792 9.92908 307.386 10.0826C307.981 10.2361 308.5 10.4568 308.941 10.7447L308.351 12.1984C307.9 11.9297 307.434 11.733 306.955 11.6083C306.475 11.4739 306.014 11.4068 305.573 11.4068C305.055 11.4068 304.633 11.4691 304.306 11.5939C303.99 11.7186 303.755 11.8817 303.601 12.0832C303.457 12.2847 303.385 12.515 303.385 12.7741C303.385 13.0811 303.491 13.3306 303.702 13.5225C303.923 13.7048 304.206 13.8488 304.551 13.9543C304.906 14.0598 305.299 14.1654 305.731 14.2709C306.163 14.3669 306.59 14.4772 307.012 14.602C307.444 14.7267 307.833 14.8898 308.178 15.0913C308.533 15.2928 308.816 15.5663 309.027 15.9117C309.248 16.2572 309.358 16.6938 309.358 17.2215C309.358 17.7588 309.21 18.2578 308.912 18.7184C308.624 19.1693 308.178 19.534 307.574 19.8122C306.969 20.0809 306.206 20.2152 305.285 20.2152ZM312.599 20.0713L309.778 12.3855H311.476L313.894 19.1645H313.088L315.621 12.3855H317.132L319.594 19.1645H318.802L321.292 12.3855H322.89L320.054 20.0713H318.327L316.082 14.0694H316.614L314.326 20.0713H312.599ZM327.528 20.172C326.674 20.172 325.926 20.0041 325.283 19.6683C324.65 19.3229 324.156 18.8527 323.801 18.2578C323.455 17.6629 323.283 16.9864 323.283 16.2284C323.283 15.4608 323.45 14.7843 323.786 14.199C324.132 13.6041 324.602 13.1387 325.197 12.8029C325.801 12.467 326.487 12.2991 327.255 12.2991C328.003 12.2991 328.67 12.4622 329.256 12.7885C329.841 13.1147 330.301 13.5753 330.637 14.1702C330.973 14.7651 331.141 15.4656 331.141 16.2716C331.141 16.3483 331.136 16.4347 331.127 16.5306C331.127 16.6266 331.122 16.7177 331.112 16.8041H324.707V15.6095H330.162L329.457 15.9837C329.467 15.5423 329.376 15.1537 329.184 14.8179C328.992 14.482 328.728 14.2182 328.392 14.0263C328.066 13.8344 327.687 13.7384 327.255 13.7384C326.814 13.7384 326.425 13.8344 326.089 14.0263C325.763 14.2182 325.504 14.4868 325.312 14.8323C325.13 15.1681 325.038 15.5663 325.038 16.0269V16.3147C325.038 16.7753 325.144 17.1831 325.355 17.5381C325.566 17.8932 325.864 18.1666 326.247 18.3585C326.631 18.5504 327.073 18.6464 327.572 18.6464C328.003 18.6464 328.392 18.5792 328.737 18.4449C329.083 18.3106 329.39 18.0995 329.659 17.8116L330.623 18.9199C330.277 19.3229 329.841 19.6347 329.313 19.8554C328.795 20.0665 328.2 20.172 327.528 20.172ZM336.482 20.172C335.628 20.172 334.879 20.0041 334.237 19.6683C333.603 19.3229 333.109 18.8527 332.754 18.2578C332.409 17.6629 332.236 16.9864 332.236 16.2284C332.236 15.4608 332.404 14.7843 332.74 14.199C333.085 13.6041 333.555 13.1387 334.15 12.8029C334.755 12.467 335.441 12.2991 336.208 12.2991C336.957 12.2991 337.624 12.4622 338.209 12.7885C338.794 13.1147 339.255 13.5753 339.591 14.1702C339.927 14.7651 340.094 15.4656 340.094 16.2716C340.094 16.3483 340.09 16.4347 340.08 16.5306C340.08 16.6266 340.075 16.7177 340.066 16.8041H333.661V15.6095H339.116L338.41 15.9837C338.42 15.5423 338.329 15.1537 338.137 14.8179C337.945 14.482 337.681 14.2182 337.345 14.0263C337.019 13.8344 336.64 13.7384 336.208 13.7384C335.767 13.7384 335.378 13.8344 335.043 14.0263C334.716 14.2182 334.457 14.4868 334.265 14.8323C334.083 15.1681 333.992 15.5663 333.992 16.0269V16.3147C333.992 16.7753 334.097 17.1831 334.309 17.5381C334.52 17.8932 334.817 18.1666 335.201 18.3585C335.585 18.5504 336.026 18.6464 336.525 18.6464C336.957 18.6464 337.345 18.5792 337.691 18.4449C338.036 18.3106 338.343 18.0995 338.612 17.8116L339.576 18.9199C339.231 19.3229 338.794 19.6347 338.267 19.8554C337.748 20.0665 337.154 20.172 336.482 20.172ZM344.716 20.172C343.871 20.172 343.219 19.9561 342.758 19.5244C342.298 19.083 342.067 18.4353 342.067 17.5813V10.6871H343.866V17.5381C343.866 17.9028 343.958 18.1858 344.14 18.3873C344.332 18.5888 344.596 18.6896 344.931 18.6896C345.334 18.6896 345.67 18.584 345.939 18.3729L346.443 19.6539C346.232 19.8266 345.973 19.9561 345.666 20.0425C345.358 20.1289 345.042 20.172 344.716 20.172ZM340.801 13.8823V12.443H345.925V13.8823H340.801ZM352.073 20.0713V9.99625H356.794C358.003 9.99625 358.924 10.2361 359.557 10.7159C360.191 11.1861 360.507 11.8194 360.507 12.6158C360.507 13.1531 360.383 13.6137 360.133 13.9975C359.884 14.3717 359.548 14.6644 359.126 14.8754C358.713 15.0769 358.262 15.1777 357.773 15.1777L358.032 14.6596C358.598 14.6596 359.107 14.7651 359.557 14.9762C360.008 15.1777 360.363 15.4752 360.623 15.8686C360.891 16.262 361.026 16.7513 361.026 17.3366C361.026 18.2002 360.695 18.8719 360.032 19.3516C359.37 19.8314 358.387 20.0713 357.082 20.0713H352.073ZM353.944 18.6032H356.967C357.667 18.6032 358.205 18.4881 358.579 18.2578C358.953 18.0275 359.14 17.6581 359.14 17.1495C359.14 16.6506 358.953 16.286 358.579 16.0557C358.205 15.8158 357.667 15.6958 356.967 15.6958H353.8V14.2422H356.593C357.245 14.2422 357.744 14.127 358.089 13.8967C358.444 13.6664 358.622 13.321 358.622 12.8604C358.622 12.3903 358.444 12.04 358.089 11.8098C357.744 11.5795 357.245 11.4643 356.593 11.4643H353.944V18.6032ZM366.304 20.172C365.517 20.172 364.817 20.0041 364.203 19.6683C363.589 19.3229 363.104 18.8527 362.749 18.2578C362.394 17.6629 362.216 16.9864 362.216 16.2284C362.216 15.4608 362.394 14.7843 362.749 14.199C363.104 13.6041 363.589 13.1387 364.203 12.8029C364.817 12.467 365.517 12.2991 366.304 12.2991C367.1 12.2991 367.806 12.467 368.42 12.8029C369.044 13.1387 369.528 13.5993 369.874 14.1846C370.229 14.7699 370.406 15.4512 370.406 16.2284C370.406 16.9864 370.229 17.6629 369.874 18.2578C369.528 18.8527 369.044 19.3229 368.42 19.6683C367.806 20.0041 367.1 20.172 366.304 20.172ZM366.304 18.632C366.745 18.632 367.139 18.536 367.484 18.3441C367.83 18.1522 368.098 17.874 368.29 17.5094C368.492 17.1447 368.593 16.7177 368.593 16.2284C368.593 15.7294 368.492 15.3024 368.29 14.9474C368.098 14.5828 367.83 14.3045 367.484 14.1126C367.139 13.9207 366.75 13.8248 366.318 13.8248C365.877 13.8248 365.484 13.9207 365.138 14.1126C364.802 14.3045 364.534 14.5828 364.332 14.9474C364.131 15.3024 364.03 15.7294 364.03 16.2284C364.03 16.7177 364.131 17.1447 364.332 17.5094C364.534 17.874 364.802 18.1522 365.138 18.3441C365.484 18.536 365.872 18.632 366.304 18.632ZM370.823 20.0713L374.205 15.6671L374.176 16.6314L370.952 12.3855H372.953L375.213 15.408H374.45L376.724 12.3855H378.667L375.414 16.6314L375.429 15.6671L378.796 20.0713H376.767L374.392 16.8617L375.141 16.9624L372.809 20.0713H370.823ZM383.713 16.8185V15.3216H387.671V16.8185H383.713ZM393.524 20.2152C392.613 20.2152 391.83 20.0233 391.178 19.6395C390.526 19.2461 390.027 18.68 389.681 17.9411C389.336 17.2023 389.163 16.2908 389.163 15.2065C389.163 14.0551 389.369 13.0811 389.782 12.2847C390.204 11.4883 390.785 10.8838 391.523 10.4712C392.272 10.0586 393.131 9.85232 394.1 9.85232C394.608 9.85232 395.093 9.9051 395.553 10.0106C396.024 10.1162 396.422 10.2793 396.748 10.5L396.057 11.9105C395.779 11.7282 395.477 11.6035 395.15 11.5363C394.834 11.4595 394.498 11.4211 394.143 11.4211C393.193 11.4211 392.44 11.7138 391.883 12.2991C391.327 12.8844 391.048 13.748 391.048 14.8898C391.048 15.0722 391.053 15.288 391.063 15.5375C391.072 15.7774 391.106 16.0221 391.164 16.2716L390.588 15.6383C390.761 15.2449 390.996 14.9186 391.293 14.6596C391.6 14.3909 391.96 14.1894 392.373 14.0551C392.795 13.9207 393.251 13.8536 393.74 13.8536C394.402 13.8536 394.992 13.9831 395.51 14.2422C396.028 14.4916 396.441 14.8515 396.748 15.3216C397.055 15.7822 397.209 16.3243 397.209 16.948C397.209 17.6101 397.046 18.1858 396.719 18.6752C396.393 19.1645 395.952 19.5435 395.395 19.8122C394.839 20.0809 394.215 20.2152 393.524 20.2152ZM393.423 18.7471C393.807 18.7471 394.148 18.68 394.445 18.5456C394.743 18.4017 394.973 18.2002 395.136 17.9411C395.309 17.6821 395.395 17.3798 395.395 17.0344C395.395 16.5066 395.213 16.0893 394.848 15.7822C394.484 15.4752 393.994 15.3216 393.38 15.3216C392.977 15.3216 392.622 15.3984 392.315 15.5519C392.018 15.6958 391.778 15.8973 391.595 16.1564C391.423 16.4155 391.336 16.7129 391.336 17.0488C391.336 17.3558 391.418 17.6389 391.581 17.898C391.744 18.157 391.979 18.3633 392.286 18.5169C392.603 18.6704 392.982 18.7471 393.423 18.7471ZM402.884 20.0713V9.99625H407.029C407.922 9.99625 408.684 10.1402 409.318 10.428C409.961 10.7159 410.455 11.1285 410.8 11.6658C411.146 12.2032 411.318 12.8413 411.318 13.5801C411.318 14.3189 411.146 14.957 410.8 15.4943C410.455 16.0317 409.961 16.4443 409.318 16.7321C408.684 17.02 407.922 17.1639 407.029 17.1639H403.92L404.755 16.286V20.0713H402.884ZM404.755 16.4875L403.92 15.5807H406.943C407.768 15.5807 408.387 15.408 408.8 15.0626C409.222 14.7075 409.433 14.2134 409.433 13.5801C409.433 12.9372 409.222 12.443 408.8 12.0976C408.387 11.7522 407.768 11.5795 406.943 11.5795H403.92L404.755 10.6583V16.4875ZM412.944 20.0713V12.3855H414.657V14.5012L414.455 13.8823C414.685 13.3642 415.045 12.9708 415.535 12.7021C416.034 12.4335 416.652 12.2991 417.391 12.2991V14.0119C417.314 13.9927 417.243 13.9831 417.175 13.9831C417.108 13.9735 417.041 13.9687 416.974 13.9687C416.293 13.9687 415.75 14.1702 415.347 14.5732C414.944 14.9666 414.743 15.5567 414.743 16.3435V20.0713H412.944ZM422.301 20.172C421.515 20.172 420.814 20.0041 420.2 19.6683C419.586 19.3229 419.101 18.8527 418.746 18.2578C418.391 17.6629 418.214 16.9864 418.214 16.2284C418.214 15.4608 418.391 14.7843 418.746 14.199C419.101 13.6041 419.586 13.1387 420.2 12.8029C420.814 12.467 421.515 12.2991 422.301 12.2991C423.098 12.2991 423.803 12.467 424.417 12.8029C425.041 13.1387 425.525 13.5993 425.871 14.1846C426.226 14.7699 426.403 15.4512 426.403 16.2284C426.403 16.9864 426.226 17.6629 425.871 18.2578C425.525 18.8527 425.041 19.3229 424.417 19.6683C423.803 20.0041 423.098 20.172 422.301 20.172ZM422.301 18.632C422.743 18.632 423.136 18.536 423.482 18.3441C423.827 18.1522 424.096 17.874 424.288 17.5094C424.489 17.1447 424.59 16.7177 424.59 16.2284C424.59 15.7294 424.489 15.3024 424.288 14.9474C424.096 14.5828 423.827 14.3045 423.482 14.1126C423.136 13.9207 422.748 13.8248 422.316 13.8248C421.874 13.8248 421.481 13.9207 421.136 14.1126C420.8 14.3045 420.531 14.5828 420.33 14.9474C420.128 15.3024 420.027 15.7294 420.027 16.2284C420.027 16.7177 420.128 17.1447 420.33 17.5094C420.531 17.874 420.8 18.1522 421.136 18.3441C421.481 18.536 421.87 18.632 422.301 18.632ZM431.377 20.172C430.638 20.172 429.971 20.0089 429.376 19.6827C428.791 19.3468 428.33 18.8863 427.994 18.301C427.659 17.7156 427.491 17.0248 427.491 16.2284C427.491 15.432 427.659 14.7411 427.994 14.1558C428.33 13.5705 428.791 13.1147 429.376 12.7885C429.971 12.4622 430.638 12.2991 431.377 12.2991C432.02 12.2991 432.595 12.443 433.104 12.7309C433.612 13.0092 434.015 13.4362 434.313 14.0119C434.61 14.5876 434.759 15.3264 434.759 16.2284C434.759 17.1207 434.615 17.8596 434.327 18.4449C434.039 19.0206 433.641 19.4524 433.133 19.7403C432.624 20.0281 432.039 20.172 431.377 20.172ZM431.593 18.632C432.024 18.632 432.408 18.536 432.744 18.3441C433.089 18.1522 433.363 17.874 433.564 17.5094C433.775 17.1447 433.881 16.7177 433.881 16.2284C433.881 15.7294 433.775 15.3024 433.564 14.9474C433.363 14.5828 433.089 14.3045 432.744 14.1126C432.408 13.9207 432.024 13.8248 431.593 13.8248C431.161 13.8248 430.772 13.9207 430.427 14.1126C430.091 14.3045 429.817 14.5828 429.606 14.9474C429.405 15.3024 429.304 15.7294 429.304 16.2284C429.304 16.7177 429.405 17.1447 429.606 17.5094C429.817 17.874 430.091 18.1522 430.427 18.3441C430.772 18.536 431.161 18.632 431.593 18.632ZM433.924 20.0713V18.2578L433.996 16.214L433.852 14.1702V9.39175H435.637V20.0713H433.924ZM441.258 20.172C440.605 20.172 440.03 20.0521 439.531 19.8122C439.032 19.5627 438.643 19.1885 438.365 18.6896C438.086 18.181 437.947 17.5429 437.947 16.7753V12.3855H439.746V16.5306C439.746 17.2215 439.9 17.7396 440.207 18.0851C440.524 18.4209 440.97 18.5888 441.546 18.5888C441.968 18.5888 442.332 18.5025 442.639 18.3297C442.956 18.157 443.201 17.898 443.373 17.5525C443.556 17.2071 443.647 16.7801 443.647 16.2716V12.3855H445.446V20.0713H443.733V17.9987L444.036 18.632C443.776 19.131 443.397 19.5148 442.899 19.7834C442.4 20.0425 441.853 20.172 441.258 20.172ZM451.328 20.172C450.522 20.172 449.802 20.0041 449.169 19.6683C448.545 19.3229 448.056 18.8527 447.701 18.2578C447.346 17.6629 447.168 16.9864 447.168 16.2284C447.168 15.4608 447.346 14.7843 447.701 14.199C448.056 13.6041 448.545 13.1387 449.169 12.8029C449.802 12.467 450.522 12.2991 451.328 12.2991C452.076 12.2991 452.734 12.4526 453.3 12.7597C453.875 13.0571 454.312 13.4985 454.61 14.0838L453.228 14.8898C452.998 14.5252 452.714 14.2566 452.379 14.0838C452.052 13.9111 451.697 13.8248 451.314 13.8248C450.872 13.8248 450.474 13.9207 450.119 14.1126C449.764 14.3045 449.486 14.5828 449.284 14.9474C449.083 15.3024 448.982 15.7294 448.982 16.2284C448.982 16.7273 449.083 17.1591 449.284 17.5237C449.486 17.8788 449.764 18.1522 450.119 18.3441C450.474 18.536 450.872 18.632 451.314 18.632C451.697 18.632 452.052 18.5456 452.379 18.3729C452.714 18.2002 452.998 17.9315 453.228 17.5669L454.61 18.3729C454.312 18.9486 453.875 19.3948 453.3 19.7115C452.734 20.0185 452.076 20.172 451.328 20.172ZM459.156 20.172C458.312 20.172 457.659 19.9561 457.199 19.5244C456.738 19.083 456.508 18.4353 456.508 17.5813V10.6871H458.307V17.5381C458.307 17.9028 458.398 18.1858 458.58 18.3873C458.772 18.5888 459.036 18.6896 459.372 18.6896C459.775 18.6896 460.111 18.584 460.379 18.3729L460.883 19.6539C460.672 19.8266 460.413 19.9561 460.106 20.0425C459.799 20.1289 459.482 20.172 459.156 20.172ZM455.241 13.8823V12.443H460.365V13.8823H455.241ZM464.738 20.172C464.095 20.172 463.476 20.0905 462.881 19.9274C462.296 19.7546 461.831 19.5483 461.485 19.3085L462.176 17.9411C462.522 18.1618 462.934 18.3441 463.414 18.4881C463.894 18.632 464.373 18.704 464.853 18.704C465.419 18.704 465.827 18.6272 466.077 18.4737C466.336 18.3202 466.465 18.1139 466.465 17.8548C466.465 17.6437 466.379 17.4854 466.206 17.3798C466.033 17.2647 465.808 17.1783 465.53 17.1207C465.251 17.0632 464.94 17.0104 464.594 16.9624C464.258 16.9144 463.918 16.8521 463.572 16.7753C463.236 16.689 462.929 16.569 462.651 16.4155C462.373 16.2524 462.147 16.0365 461.975 15.7678C461.802 15.4991 461.716 15.1441 461.716 14.7027C461.716 14.2134 461.855 13.7912 462.133 13.4362C462.411 13.0715 462.8 12.7933 463.299 12.6014C463.807 12.3999 464.407 12.2991 465.098 12.2991C465.616 12.2991 466.139 12.3567 466.667 12.4718C467.194 12.587 467.631 12.7501 467.976 12.9612L467.286 14.3285C466.921 14.1078 466.552 13.9591 466.177 13.8823C465.813 13.796 465.448 13.7528 465.084 13.7528C464.537 13.7528 464.129 13.8344 463.86 13.9975C463.601 14.1606 463.472 14.3669 463.472 14.6164C463.472 14.8467 463.558 15.0194 463.731 15.1345C463.903 15.2497 464.129 15.3408 464.407 15.408C464.685 15.4752 464.992 15.5327 465.328 15.5807C465.674 15.6191 466.014 15.6815 466.35 15.7678C466.686 15.8542 466.993 15.9741 467.271 16.1276C467.559 16.2716 467.789 16.4779 467.962 16.7465C468.135 17.0152 468.221 17.3654 468.221 17.7972C468.221 18.277 468.077 18.6944 467.789 19.0494C467.511 19.4044 467.113 19.6827 466.595 19.8842C466.077 20.0761 465.458 20.172 464.738 20.172Z" fill="white"/>
</svg>
