<svg width="208" height="298" viewBox="0 0 208 298" fill="none" xmlns="http://www.w3.org/2000/svg">
<rect x="2.35979" y="13.8549" width="203.155" height="149.626" rx="22.0671" fill="url(#paint0_linear_2039_600)" stroke="#A3B988" stroke-width="3.22934"/>
<path d="M0.745117 165.096L207.13 165.096V288.887H0.745117L0.745117 165.096Z" fill="#F6F3F3"/>
<path d="M0.745117 286.734H207.13V286.734C207.13 292.679 202.31 297.499 196.365 297.499H11.5096C5.56451 297.499 0.745117 292.679 0.745117 286.734V286.734Z" fill="url(#paint1_linear_2039_600)"/>
<path d="M0.745117 286.734H101.289C107.234 286.734 112.054 291.554 112.054 297.499V297.499H11.5096C5.56453 297.499 0.745117 292.679 0.745117 286.734V286.734Z" fill="#39422F"/>
<rect x="22.9805" width="161.273" height="22.6054" rx="11.3027" fill="#899F61"/>
<path d="M36.7277 15.8027L36.7277 6.76059L38.8203 6.76059L38.8203 15.8027L36.7277 15.8027ZM40.9662 15.8027L40.9662 6.76059L42.6971 6.76059L46.5465 13.1418L45.6294 13.1418L49.4142 6.76059L51.1322 6.76059L51.158 15.8027L49.1946 15.8027L49.1816 9.77033L49.5433 9.77033L46.5207 14.8468L45.5777 14.8468L42.4905 9.77033L42.9296 9.77033L42.9296 15.8027L40.9662 15.8027ZM53.3033 15.8027L53.3033 6.76059L55.3959 6.76059L55.3959 14.0976L59.9299 14.0976L59.9299 15.8027L53.3033 15.8027ZM64.7573 15.8027L64.7573 6.76059L66.4883 6.76059L70.3376 13.1418L69.4205 13.1418L73.2053 6.76059L74.9233 6.76059L74.9491 15.8027L72.9857 15.8027L72.9728 9.77033L73.3344 9.77033L70.3118 14.8468L69.3688 14.8468L66.2816 9.77033L66.7208 9.77033L66.7208 15.8027L64.7573 15.8027ZM81.4863 15.9577C80.7715 15.9577 80.1085 15.8415 79.497 15.609C78.8942 15.3765 78.3689 15.0492 77.9211 14.6273C77.4819 14.2053 77.1375 13.7101 76.8877 13.1418C76.6466 12.5734 76.526 11.9534 76.526 11.2817C76.526 10.61 76.6466 9.98993 76.8877 9.42156C77.1375 8.8532 77.4862 8.35804 77.934 7.93607C78.3818 7.5141 78.9071 7.18686 79.51 6.95435C80.1128 6.72184 80.7672 6.60558 81.4734 6.60558C82.1881 6.60558 82.8426 6.72184 83.4368 6.95435C84.0396 7.18686 84.5606 7.5141 84.9998 7.93607C85.4476 8.35804 85.7964 8.8532 86.0461 9.42156C86.2959 9.98132 86.4207 10.6013 86.4207 11.2817C86.4207 11.9534 86.2959 12.5777 86.0461 13.1547C85.7964 13.723 85.4476 14.2182 84.9998 14.6402C84.5606 15.0535 84.0396 15.3765 83.4368 15.609C82.8426 15.8415 82.1925 15.9577 81.4863 15.9577ZM81.4734 14.1751C81.8781 14.1751 82.2484 14.1063 82.5843 13.9685C82.9287 13.8307 83.2301 13.6326 83.4885 13.3743C83.7468 13.1159 83.9449 12.8102 84.0827 12.4571C84.2291 12.1041 84.3023 11.7122 84.3023 11.2817C84.3023 10.8511 84.2291 10.4593 84.0827 10.1062C83.9449 9.75311 83.7468 9.4474 83.4885 9.18905C83.2388 8.9307 82.9417 8.73264 82.5972 8.59485C82.2527 8.45707 81.8781 8.38818 81.4734 8.38818C81.0686 8.38818 80.694 8.45707 80.3496 8.59485C80.0137 8.73264 79.7166 8.9307 79.4583 9.18905C79.1999 9.4474 78.9976 9.75311 78.8512 10.1062C78.7134 10.4593 78.6445 10.8511 78.6445 11.2817C78.6445 11.7036 78.7134 12.0955 78.8512 12.4571C78.9976 12.8102 79.1956 13.1159 79.4454 13.3743C79.7037 13.6326 80.0051 13.8307 80.3496 13.9685C80.694 14.1063 81.0686 14.1751 81.4734 14.1751ZM92.3724 15.9577C91.6662 15.9577 91.0075 15.8415 90.396 15.609C89.7932 15.3765 89.2679 15.0492 88.8201 14.6273C88.3809 14.2053 88.0365 13.7101 87.7867 13.1418C87.5456 12.5734 87.4251 11.9534 87.4251 11.2817C87.4251 10.61 87.5456 9.98993 87.7867 9.42156C88.0365 8.8532 88.3852 8.35804 88.833 7.93607C89.2808 7.5141 89.8062 7.18686 90.409 6.95435C91.0118 6.72184 91.6662 6.60558 92.3724 6.60558C93.0872 6.60558 93.7416 6.72184 94.3358 6.95435C94.9386 7.18686 95.4596 7.5141 95.8988 7.93607C96.3466 8.34942 96.6954 8.84028 96.9451 9.40865C97.1949 9.97701 97.3197 10.6013 97.3197 11.2817C97.3197 11.9534 97.1949 12.5777 96.9451 13.1547C96.6954 13.723 96.3466 14.2182 95.8988 14.6402C95.4596 15.0535 94.9386 15.3765 94.3358 15.609C93.7416 15.8415 93.0872 15.9577 92.3724 15.9577ZM95.3305 17.8824C94.9774 17.8824 94.6415 17.8437 94.3229 17.7662C94.0129 17.6887 93.7029 17.5638 93.3929 17.3916C93.0915 17.2193 92.7728 16.9868 92.437 16.694C92.1097 16.4012 91.7524 16.0396 91.3648 15.609L93.5608 15.0535C93.7933 15.3722 94.0086 15.6262 94.2067 15.8156C94.4047 16.0051 94.5942 16.1386 94.775 16.2161C94.9645 16.2936 95.1625 16.3323 95.3692 16.3323C95.9204 16.3323 96.4112 16.1084 96.8418 15.6606L97.7718 16.7715C97.1604 17.5121 96.3466 17.8824 95.3305 17.8824ZM92.3724 14.1751C92.7771 14.1751 93.1474 14.1063 93.4833 13.9685C93.8278 13.8307 94.1292 13.6326 94.3875 13.3743C94.6458 13.1159 94.8439 12.8102 94.9817 12.4571C95.1281 12.0955 95.2013 11.7036 95.2013 11.2817C95.2013 10.8511 95.1281 10.4593 94.9817 10.1062C94.8439 9.75311 94.6458 9.4474 94.3875 9.18905C94.1292 8.9307 93.8278 8.73264 93.4833 8.59485C93.1474 8.45707 92.7771 8.38818 92.3724 8.38818C91.9677 8.38818 91.5931 8.45707 91.2486 8.59485C90.9041 8.73264 90.6027 8.9307 90.3444 9.18905C90.0946 9.4474 89.8966 9.75311 89.7502 10.1062C89.6124 10.4593 89.5435 10.8511 89.5435 11.2817C89.5435 11.7036 89.6124 12.0955 89.7502 12.4571C89.8966 12.8102 90.0946 13.1159 90.3444 13.3743C90.6027 13.6326 90.9041 13.8307 91.2486 13.9685C91.5931 14.1063 91.9677 14.1751 92.3724 14.1751ZM102.15 12.9738L102.15 11.3592L105.806 11.3592L105.806 12.9738L102.15 12.9738ZM113.698 15.9577C113.069 15.9577 112.445 15.8759 111.825 15.7123C111.213 15.5401 110.688 15.299 110.249 14.9889L111.075 13.3872C111.42 13.6369 111.816 13.835 112.264 13.9814C112.72 14.1278 113.181 14.201 113.646 14.201C114.171 14.201 114.585 14.0976 114.886 13.891C115.187 13.6843 115.338 13.3958 115.338 13.0255C115.338 12.793 115.278 12.5863 115.157 12.4055C115.037 12.2246 114.821 12.0868 114.511 11.9921C114.21 11.8974 113.784 11.85 113.233 11.85L110.92 11.85L111.385 6.76059L116.901 6.76059L116.901 8.43984L112.135 8.43984L113.22 7.48396L112.897 11.1137L111.812 10.1579L113.723 10.1579C114.619 10.1579 115.338 10.2827 115.881 10.5325C116.432 10.7736 116.832 11.1051 117.082 11.5271C117.332 11.9491 117.457 12.427 117.457 12.9609C117.457 13.4948 117.323 13.99 117.056 14.4464C116.789 14.8942 116.376 15.2602 115.816 15.5444C115.265 15.82 114.559 15.9577 113.698 15.9577ZM122.181 15.9577C121.44 15.9577 120.777 15.7769 120.192 15.4152C119.606 15.0449 119.145 14.511 118.809 13.8135C118.474 13.1159 118.306 12.272 118.306 11.2817C118.306 10.2913 118.474 9.4474 118.809 8.74986C119.145 8.05232 119.606 7.52271 120.192 7.16103C120.777 6.79073 121.44 6.60558 122.181 6.60558C122.93 6.60558 123.593 6.79073 124.17 7.16103C124.756 7.52271 125.216 8.05232 125.552 8.74986C125.888 9.4474 126.056 10.2913 126.056 11.2817C126.056 12.272 125.888 13.1159 125.552 13.8135C125.216 14.511 124.756 15.0449 124.17 15.4152C123.593 15.7769 122.93 15.9577 122.181 15.9577ZM122.181 14.1881C122.534 14.1881 122.84 14.089 123.098 13.891C123.365 13.6929 123.572 13.3786 123.718 12.948C123.873 12.5174 123.95 11.962 123.95 11.2817C123.95 10.6013 123.873 10.0459 123.718 9.61532C123.572 9.18475 123.365 8.87042 123.098 8.67236C122.84 8.47429 122.534 8.37526 122.181 8.37526C121.836 8.37526 121.531 8.47429 121.264 8.67236C121.005 8.87042 120.799 9.18475 120.644 9.61532C120.497 10.0459 120.424 10.6013 120.424 11.2817C120.424 11.962 120.497 12.5174 120.644 12.948C120.799 13.3786 121.005 13.6929 121.264 13.891C121.531 14.089 121.836 14.1881 122.181 14.1881ZM130.948 15.9577C130.207 15.9577 129.544 15.7769 128.959 15.4152C128.373 15.0449 127.912 14.511 127.577 13.8135C127.241 13.1159 127.073 12.272 127.073 11.2817C127.073 10.2913 127.241 9.4474 127.577 8.74986C127.912 8.05232 128.373 7.52271 128.959 7.16103C129.544 6.79073 130.207 6.60558 130.948 6.60558C131.697 6.60558 132.36 6.79073 132.937 7.16103C133.523 7.52271 133.984 8.05232 134.319 8.74986C134.655 9.4474 134.823 10.2913 134.823 11.2817C134.823 12.272 134.655 13.1159 134.319 13.8135C133.984 14.511 133.523 15.0449 132.937 15.4152C132.36 15.7769 131.697 15.9577 130.948 15.9577ZM130.948 14.1881C131.301 14.1881 131.607 14.089 131.865 13.891C132.132 13.6929 132.339 13.3786 132.485 12.948C132.64 12.5174 132.718 11.962 132.718 11.2817C132.718 10.6013 132.64 10.0459 132.485 9.61532C132.339 9.18475 132.132 8.87042 131.865 8.67236C131.607 8.47429 131.301 8.37526 130.948 8.37526C130.603 8.37526 130.298 8.47429 130.031 8.67236C129.772 8.87042 129.566 9.18475 129.411 9.61532C129.264 10.0459 129.191 10.6013 129.191 11.2817C129.191 11.962 129.264 12.5174 129.411 12.948C129.566 13.3786 129.772 13.6929 130.031 13.891C130.298 14.089 130.603 14.1881 130.948 14.1881ZM139.715 15.9577C138.974 15.9577 138.311 15.7769 137.726 15.4152C137.14 15.0449 136.679 14.511 136.344 13.8135C136.008 13.1159 135.84 12.272 135.84 11.2817C135.84 10.2913 136.008 9.4474 136.344 8.74986C136.679 8.05232 137.14 7.52271 137.726 7.16103C138.311 6.79073 138.974 6.60558 139.715 6.60558C140.464 6.60558 141.127 6.79073 141.704 7.16103C142.29 7.52271 142.751 8.05232 143.086 8.74986C143.422 9.4474 143.59 10.2913 143.59 11.2817C143.59 12.272 143.422 13.1159 143.086 13.8135C142.751 14.511 142.29 15.0449 141.704 15.4152C141.127 15.7769 140.464 15.9577 139.715 15.9577ZM139.715 14.1881C140.068 14.1881 140.374 14.089 140.632 13.891C140.899 13.6929 141.106 13.3786 141.252 12.948C141.407 12.5174 141.485 11.962 141.485 11.2817C141.485 10.6013 141.407 10.0459 141.252 9.61532C141.106 9.18474 140.899 8.87042 140.632 8.67236C140.374 8.47429 140.068 8.37526 139.715 8.37526C139.371 8.37526 139.065 8.47429 138.798 8.67236C138.54 8.87042 138.333 9.18474 138.178 9.61532C138.032 10.0459 137.958 10.6013 137.958 11.2817C137.958 11.962 138.032 12.5174 138.178 12.948C138.333 13.3786 138.54 13.6929 138.798 13.891C139.065 14.089 139.371 14.1881 139.715 14.1881ZM148.834 15.8027L148.834 6.76059L152.748 6.76059C153.557 6.76059 154.255 6.89407 154.84 7.16103C155.426 7.41937 155.878 7.79398 156.196 8.28484C156.515 8.7757 156.674 9.36128 156.674 10.0416C156.674 10.7133 156.515 11.2946 156.196 11.7854C155.878 12.2763 155.426 12.6552 154.84 12.9222C154.255 13.1805 153.557 13.3097 152.748 13.3097L149.996 13.3097L150.926 12.3667L150.926 15.8027L148.834 15.8027ZM150.926 12.5992L149.996 11.6046L152.631 11.6046C153.277 11.6046 153.759 11.4668 154.078 11.1912C154.397 10.9157 154.556 10.5325 154.556 10.0416C154.556 9.54213 154.397 9.1546 154.078 8.87903C153.759 8.60346 153.277 8.46568 152.631 8.46568L149.996 8.46568L150.926 7.47104L150.926 12.5992ZM161.372 15.9061C160.623 15.9061 159.956 15.7554 159.37 15.454C158.784 15.1439 158.324 14.7177 157.988 14.1751C157.661 13.6326 157.497 13.0169 157.497 12.328C157.497 11.6304 157.661 11.0147 157.988 10.4808C158.324 9.93826 158.784 9.51629 159.37 9.21489C159.956 8.90487 160.623 8.74986 161.372 8.74986C162.104 8.74986 162.741 8.90487 163.284 9.21488C163.827 9.51629 164.227 9.95117 164.485 10.5195L162.922 11.3592C162.741 11.0319 162.513 10.7908 162.238 10.6358C161.971 10.4808 161.678 10.4033 161.359 10.4033C161.015 10.4033 160.705 10.4808 160.429 10.6358C160.154 10.7908 159.934 11.0104 159.77 11.2946C159.615 11.5788 159.538 11.9232 159.538 12.328C159.538 12.7327 159.615 13.0772 159.77 13.3614C159.934 13.6455 160.154 13.8651 160.429 14.0201C160.705 14.1751 161.015 14.2527 161.359 14.2527C161.678 14.2527 161.971 14.1795 162.238 14.0331C162.513 13.878 162.741 13.6326 162.922 13.2968L164.485 14.1493C164.227 14.7091 163.827 15.1439 163.284 15.454C162.741 15.7554 162.104 15.9061 161.372 15.9061ZM167.984 15.9061C167.389 15.9061 166.817 15.8372 166.266 15.6994C165.723 15.553 165.292 15.3722 164.974 15.1569L165.646 13.7101C165.964 13.9082 166.339 14.0718 166.769 14.201C167.209 14.3215 167.639 14.3818 168.061 14.3818C168.526 14.3818 168.853 14.3258 169.043 14.2139C169.241 14.1019 169.34 13.9469 169.34 13.7489C169.34 13.5853 169.262 13.4647 169.107 13.3872C168.961 13.3011 168.763 13.2365 168.513 13.1934C168.263 13.1504 167.988 13.1073 167.686 13.0643C167.394 13.0212 167.097 12.9652 166.795 12.8963C166.494 12.8188 166.218 12.7069 165.968 12.5605C165.719 12.4141 165.516 12.216 165.361 11.9663C165.215 11.7165 165.142 11.3936 165.142 10.9975C165.142 10.5583 165.267 10.1708 165.516 9.83492C165.775 9.49907 166.145 9.23641 166.627 9.04696C167.109 8.84889 167.686 8.74986 168.358 8.74986C168.832 8.74986 169.314 8.80153 169.805 8.90487C170.296 9.00821 170.705 9.15891 171.032 9.35698L170.36 10.7908C170.025 10.5927 169.684 10.4593 169.34 10.3904C169.004 10.3129 168.677 10.2741 168.358 10.2741C167.91 10.2741 167.583 10.3344 167.376 10.455C167.17 10.5755 167.066 10.7305 167.066 10.92C167.066 11.0922 167.14 11.2214 167.286 11.3075C167.441 11.3936 167.643 11.4625 167.893 11.5142C168.143 11.5658 168.414 11.6132 168.707 11.6563C169.008 11.6907 169.31 11.7467 169.611 11.8242C169.913 11.9017 170.184 12.0136 170.425 12.16C170.675 12.2978 170.877 12.4916 171.032 12.7413C171.187 12.9824 171.265 13.3011 171.265 13.6972C171.265 14.1278 171.135 14.511 170.877 14.8468C170.619 15.1741 170.244 15.4324 169.753 15.6219C169.271 15.8113 168.681 15.9061 167.984 15.9061Z" fill="white"/>
<rect y="137.062" width="207.187" height="40.3749" fill="#39422F"/>
<rect y="137.062" width="207.187" height="40.3749" stroke="white"/>
<path d="M42.197 166.756C40.6741 166.756 39.3105 166.384 38.1064 165.641C36.9022 164.879 35.9548 163.781 35.2642 162.347C34.5736 160.913 34.2283 159.177 34.2283 157.141C34.2283 155.104 34.5736 153.369 35.2642 151.934C35.9548 150.5 36.9022 149.411 38.1064 148.667C39.3105 147.906 40.6741 147.525 42.197 147.525C43.7376 147.525 45.1012 147.906 46.2876 148.667C47.4918 149.411 48.4392 150.5 49.1298 151.934C49.8204 153.369 50.1657 155.104 50.1657 157.141C50.1657 159.177 49.8204 160.913 49.1298 162.347C48.4392 163.781 47.4918 164.879 46.2876 165.641C45.1012 166.384 43.7376 166.756 42.197 166.756ZM42.197 163.117C42.923 163.117 43.5517 162.914 44.0829 162.506C44.6319 162.099 45.0569 161.453 45.3579 160.567C45.6767 159.682 45.836 158.54 45.836 157.141C45.836 155.742 45.6767 154.6 45.3579 153.714C45.0569 152.829 44.6319 152.182 44.0829 151.775C43.5517 151.368 42.923 151.164 42.197 151.164C41.4887 151.164 40.86 151.368 40.3111 151.775C39.7798 152.182 39.3548 152.829 39.0361 153.714C38.735 154.6 38.5845 155.742 38.5845 157.141C38.5845 158.54 38.735 159.682 39.0361 160.567C39.3548 161.453 39.7798 162.099 40.3111 162.506C40.86 162.914 41.4887 163.117 42.197 163.117ZM58.5783 166.756C57.2856 166.756 56.0018 166.588 54.7268 166.252C53.4695 165.897 52.3893 165.402 51.4862 164.764L53.1862 161.47C53.8945 161.984 54.7091 162.391 55.6299 162.692C56.5684 162.993 57.5158 163.144 58.4721 163.144C59.5523 163.144 60.4023 162.931 61.0221 162.506C61.6419 162.081 61.9518 161.488 61.9518 160.727C61.9518 160.248 61.8278 159.823 61.5799 159.452C61.332 159.08 60.8893 158.796 60.2518 158.602C59.632 158.407 58.7554 158.309 57.6221 158.309L52.8674 158.309L53.8237 147.844L65.1658 147.844L65.1658 151.297L55.3643 151.297L57.5955 149.331L56.9315 156.795L54.7002 154.83L58.6315 154.83C60.4731 154.83 61.9518 155.086 63.0674 155.6C64.2007 156.096 65.0241 156.778 65.5377 157.645C66.0512 158.513 66.308 159.496 66.308 160.594C66.308 161.692 66.0335 162.71 65.4846 163.648C64.9356 164.569 64.0856 165.322 62.9346 165.906C61.8012 166.473 60.3492 166.756 58.5783 166.756ZM68.3992 160.62L68.3992 157.3L75.9163 157.3L75.9163 160.62L68.3992 160.62ZM86.692 166.756C84.992 166.756 83.5133 166.402 82.256 165.694C81.0165 164.985 80.0602 163.949 79.3873 162.586C78.7144 161.222 78.3779 159.54 78.3779 157.539C78.3779 155.396 78.7764 153.581 79.5732 152.094C80.3878 150.606 81.5034 149.473 82.9201 148.694C84.3545 147.915 86.0013 147.525 87.8607 147.525C88.8524 147.525 89.7998 147.631 90.7029 147.844C91.606 148.056 92.3852 148.375 93.0404 148.8L91.4466 151.961C90.9331 151.607 90.3841 151.368 89.7998 151.244C89.2154 151.102 88.6045 151.031 87.967 151.031C86.3555 151.031 85.0805 151.518 84.142 152.492C83.2034 153.466 82.7342 154.909 82.7342 156.822C82.7342 157.141 82.7342 157.495 82.7342 157.884C82.7519 158.274 82.805 158.664 82.8935 159.053L81.6982 157.938C82.0347 157.247 82.4685 156.671 82.9998 156.211C83.531 155.733 84.1597 155.379 84.8857 155.148C85.6295 154.901 86.444 154.777 87.3295 154.777C88.5336 154.777 89.6138 155.016 90.5701 155.494C91.5263 155.972 92.2878 156.645 92.8544 157.513C93.4388 158.38 93.731 159.398 93.731 160.567C93.731 161.824 93.4123 162.922 92.7748 163.861C92.155 164.782 91.3138 165.499 90.2513 166.012C89.2065 166.508 88.0201 166.756 86.692 166.756ZM86.4529 163.542C87.055 163.542 87.5862 163.436 88.0466 163.223C88.5248 162.993 88.8966 162.666 89.1623 162.241C89.4279 161.816 89.5607 161.329 89.5607 160.78C89.5607 159.93 89.2685 159.257 88.6841 158.761C88.1175 158.247 87.356 157.991 86.3998 157.991C85.7623 157.991 85.2045 158.115 84.7263 158.363C84.2482 158.593 83.8675 158.92 83.5842 159.345C83.3185 159.753 83.1857 160.231 83.1857 160.78C83.1857 161.311 83.3185 161.789 83.5842 162.214C83.8498 162.621 84.2217 162.949 84.6998 163.197C85.1779 163.427 85.7623 163.542 86.4529 163.542ZM103.259 166.756C101.737 166.756 100.373 166.384 99.1688 165.641C97.9647 164.879 97.0173 163.781 96.3266 162.347C95.636 160.913 95.2907 159.177 95.2907 157.141C95.2907 155.104 95.636 153.369 96.3266 151.934C97.0173 150.5 97.9647 149.411 99.1688 148.667C100.373 147.906 101.737 147.525 103.259 147.525C104.8 147.525 106.164 147.906 107.35 148.667C108.554 149.411 109.502 150.5 110.192 151.934C110.883 153.369 111.228 155.104 111.228 157.141C111.228 159.177 110.883 160.913 110.192 162.347C109.502 163.781 108.554 164.879 107.35 165.641C106.164 166.384 104.8 166.756 103.259 166.756ZM103.259 163.117C103.985 163.117 104.614 162.914 105.145 162.506C105.694 162.099 106.119 161.453 106.42 160.567C106.739 159.682 106.898 158.54 106.898 157.141C106.898 155.742 106.739 154.6 106.42 153.714C106.119 152.829 105.694 152.182 105.145 151.775C104.614 151.368 103.985 151.164 103.259 151.164C102.551 151.164 101.922 151.368 101.374 151.775C100.842 152.182 100.417 152.829 100.099 153.714C99.7975 154.6 99.647 155.742 99.647 157.141C99.647 158.54 99.7975 159.682 100.099 160.567C100.417 161.453 100.842 162.099 101.374 162.506C101.922 162.914 102.551 163.117 103.259 163.117ZM121.288 166.756C119.765 166.756 118.401 166.384 117.197 165.641C115.993 164.879 115.045 163.781 114.355 162.347C113.664 160.913 113.319 159.177 113.319 157.141C113.319 155.104 113.664 153.369 114.355 151.934C115.045 150.5 115.993 149.411 117.197 148.667C118.401 147.906 119.765 147.525 121.288 147.525C122.828 147.525 124.192 147.906 125.378 148.667C126.582 149.411 127.53 150.5 128.22 151.934C128.911 153.369 129.256 155.104 129.256 157.141C129.256 159.177 128.911 160.913 128.22 162.347C127.53 163.781 126.582 164.879 125.378 165.641C124.192 166.384 122.828 166.756 121.288 166.756ZM121.288 163.117C122.014 163.117 122.642 162.914 123.174 162.506C123.723 162.099 124.148 161.453 124.449 160.567C124.767 159.682 124.927 158.54 124.927 157.141C124.927 155.742 124.767 154.6 124.449 153.714C124.148 152.829 123.723 152.182 123.174 151.775C122.642 151.368 122.014 151.164 121.288 151.164C120.579 151.164 119.951 151.368 119.402 151.775C118.87 152.182 118.445 152.829 118.127 153.714C117.826 154.6 117.675 155.742 117.675 157.141C117.675 158.54 117.826 159.682 118.127 160.567C118.445 161.453 118.87 162.099 119.402 162.506C119.951 162.914 120.579 163.117 121.288 163.117ZM158.048 151.934C159.181 151.934 160.182 152.165 161.049 152.625C161.935 153.068 162.625 153.758 163.121 154.697C163.635 155.618 163.891 156.804 163.891 158.256L163.891 166.437L159.748 166.437L159.748 158.894C159.748 157.743 159.509 156.893 159.031 156.344C158.552 155.795 157.88 155.52 157.012 155.52C156.41 155.52 155.87 155.662 155.392 155.945C154.913 156.211 154.542 156.618 154.276 157.167C154.01 157.716 153.877 158.416 153.877 159.266L153.877 166.437L149.734 166.437L149.734 158.894C149.734 157.743 149.495 156.893 149.017 156.344C148.556 155.795 147.892 155.52 147.024 155.52C146.422 155.52 145.882 155.662 145.404 155.945C144.926 156.211 144.554 156.618 144.288 157.167C144.023 157.716 143.89 158.416 143.89 159.266L143.89 166.437L139.746 166.437L139.746 152.147L143.704 152.147L143.704 156.052L142.96 154.909C143.456 153.935 144.156 153.201 145.059 152.705C145.98 152.191 147.024 151.934 148.193 151.934C149.504 151.934 150.646 152.271 151.62 152.944C152.611 153.599 153.267 154.608 153.585 155.972L152.124 155.573C152.602 154.458 153.364 153.572 154.409 152.917C155.471 152.262 156.684 151.934 158.048 151.934ZM167.606 166.437L167.606 146.728L171.749 146.728L171.749 166.437L167.606 166.437Z" fill="#F6F4F3"/>
<path d="M30.8348 199.078C30.1585 199.078 29.5083 198.97 28.8841 198.753C28.2685 198.527 27.7916 198.241 27.4535 197.895L27.8307 197.153C28.1514 197.465 28.5806 197.73 29.1181 197.947C29.6644 198.155 30.2366 198.259 30.8348 198.259C31.407 198.259 31.8709 198.189 32.2263 198.051C32.5905 197.903 32.8549 197.708 33.0196 197.465C33.193 197.223 33.2797 196.954 33.2797 196.659C33.2797 196.304 33.1757 196.018 32.9676 195.801C32.7682 195.584 32.5038 195.415 32.1743 195.294C31.8449 195.164 31.4807 195.051 31.0819 194.955C30.6831 194.86 30.2843 194.76 29.8854 194.656C29.4866 194.544 29.1181 194.396 28.78 194.214C28.4506 194.032 28.1818 193.794 27.9737 193.499C27.7743 193.195 27.6746 192.801 27.6746 192.315C27.6746 191.865 27.7916 191.453 28.0257 191.08C28.2685 190.698 28.637 190.395 29.1312 190.17C29.6253 189.936 30.2582 189.818 31.0299 189.818C31.5414 189.818 32.0486 189.892 32.5515 190.04C33.0543 190.178 33.4878 190.373 33.852 190.625L33.5268 191.392C33.1367 191.132 32.7205 190.941 32.2784 190.82C31.8449 190.698 31.4244 190.638 31.0169 190.638C30.4707 190.638 30.0198 190.712 29.6644 190.859C29.3089 191.006 29.0445 191.206 28.8711 191.457C28.7063 191.7 28.624 191.977 28.624 192.289C28.624 192.645 28.7237 192.931 28.9231 193.148C29.1312 193.365 29.3999 193.534 29.7294 193.655C30.0675 193.776 30.436 193.885 30.8348 193.98C31.2336 194.075 31.6281 194.179 32.0183 194.292C32.4171 194.405 32.7812 194.552 33.1107 194.734C33.4488 194.908 33.7176 195.142 33.917 195.437C34.1251 195.731 34.2291 196.117 34.2291 196.594C34.2291 197.036 34.1077 197.448 33.865 197.83C33.6222 198.202 33.2494 198.506 32.7465 198.74C32.2523 198.965 31.6151 199.078 30.8348 199.078ZM39.6552 199.065C39.0657 199.065 38.5325 198.931 38.0556 198.662C37.5788 198.384 37.1973 197.99 36.9112 197.478C36.6337 196.958 36.495 196.325 36.495 195.58C36.495 194.834 36.6337 194.206 36.9112 193.694C37.1886 193.174 37.5658 192.779 38.0426 192.511C38.5194 192.242 39.057 192.107 39.6552 192.107C40.3055 192.107 40.8864 192.255 41.3979 192.55C41.9181 192.836 42.3256 193.243 42.6203 193.772C42.9151 194.292 43.0625 194.895 43.0625 195.58C43.0625 196.273 42.9151 196.88 42.6203 197.4C42.3256 197.921 41.9181 198.328 41.3979 198.623C40.8864 198.918 40.3055 199.065 39.6552 199.065ZM36.1309 201.523V192.172H37.0152V194.227L36.9242 195.593L37.0542 196.971V201.523H36.1309ZM39.5902 198.246C40.0757 198.246 40.5092 198.137 40.8907 197.921C41.2722 197.695 41.5756 197.383 41.801 196.984C42.0265 196.577 42.1392 196.109 42.1392 195.58C42.1392 195.051 42.0265 194.587 41.801 194.188C41.5756 193.789 41.2722 193.477 40.8907 193.252C40.5092 193.026 40.0757 192.914 39.5902 192.914C39.1047 192.914 38.6668 193.026 38.2767 193.252C37.8952 193.477 37.5918 193.789 37.3663 194.188C37.1496 194.587 37.0412 195.051 37.0412 195.58C37.0412 196.109 37.1496 196.577 37.3663 196.984C37.5918 197.383 37.8952 197.695 38.2767 197.921C38.6668 198.137 39.1047 198.246 39.5902 198.246ZM49.1853 199V197.491L49.1463 197.244V194.721C49.1463 194.14 48.9816 193.694 48.6521 193.382C48.3313 193.07 47.8501 192.914 47.2086 192.914C46.7664 192.914 46.3459 192.987 45.9471 193.135C45.5483 193.282 45.2101 193.477 44.9327 193.72L44.5165 193.031C44.8633 192.736 45.2795 192.511 45.765 192.354C46.2505 192.19 46.7621 192.107 47.2996 192.107C48.1839 192.107 48.8645 192.328 49.3414 192.771C49.8269 193.204 50.0697 193.867 50.0697 194.76V199H49.1853ZM46.8314 199.065C46.3199 199.065 45.8734 198.983 45.4919 198.818C45.1191 198.645 44.833 198.41 44.6336 198.116C44.4342 197.812 44.3345 197.465 44.3345 197.075C44.3345 196.72 44.4168 196.399 44.5816 196.113C44.755 195.818 45.0324 195.584 45.4139 195.411C45.804 195.229 46.3242 195.138 46.9745 195.138H49.3284V195.827H47.0005C46.3416 195.827 45.8821 195.944 45.622 196.178C45.3705 196.412 45.2448 196.702 45.2448 197.049C45.2448 197.439 45.3965 197.752 45.7 197.986C46.0034 198.22 46.4283 198.337 46.9745 198.337C47.4947 198.337 47.9412 198.22 48.314 197.986C48.6955 197.743 48.9729 197.396 49.1463 196.945L49.3544 197.582C49.181 198.033 48.8775 198.393 48.444 198.662C48.0192 198.931 47.4817 199.065 46.8314 199.065ZM55.4127 199.065C54.7364 199.065 54.1295 198.918 53.592 198.623C53.0631 198.319 52.6469 197.908 52.3435 197.387C52.04 196.859 51.8883 196.256 51.8883 195.58C51.8883 194.895 52.04 194.292 52.3435 193.772C52.6469 193.252 53.0631 192.844 53.592 192.55C54.1295 192.255 54.7364 192.107 55.4127 192.107C55.9935 192.107 56.5181 192.22 56.9863 192.445C57.4544 192.671 57.8229 193.009 58.0917 193.46L57.4024 193.928C57.1683 193.581 56.8779 193.326 56.5311 193.161C56.1843 192.996 55.8071 192.914 55.3997 192.914C54.9141 192.914 54.4763 193.026 54.0862 193.252C53.696 193.469 53.3882 193.776 53.1628 194.175C52.9374 194.574 52.8247 195.042 52.8247 195.58C52.8247 196.117 52.9374 196.585 53.1628 196.984C53.3882 197.383 53.696 197.695 54.0862 197.921C54.4763 198.137 54.9141 198.246 55.3997 198.246C55.8071 198.246 56.1843 198.163 56.5311 197.999C56.8779 197.834 57.1683 197.582 57.4024 197.244L58.0917 197.713C57.8229 198.155 57.4544 198.493 56.9863 198.727C56.5181 198.952 55.9935 199.065 55.4127 199.065ZM59.804 199V192.172H60.7273V199H59.804ZM60.2721 190.664C60.0814 190.664 59.921 190.599 59.791 190.469C59.6609 190.339 59.5959 190.183 59.5959 190.001C59.5959 189.818 59.6609 189.667 59.791 189.545C59.921 189.415 60.0814 189.35 60.2721 189.35C60.4629 189.35 60.6233 189.411 60.7533 189.532C60.8834 189.654 60.9484 189.805 60.9484 189.988C60.9484 190.178 60.8834 190.339 60.7533 190.469C60.632 190.599 60.4716 190.664 60.2721 190.664ZM66.0796 199.065C65.4207 199.065 64.8268 198.918 64.2979 198.623C63.7777 198.319 63.3659 197.908 63.0624 197.387C62.759 196.859 62.6073 196.256 62.6073 195.58C62.6073 194.895 62.759 194.292 63.0624 193.772C63.3659 193.252 63.7777 192.844 64.2979 192.55C64.8181 192.255 65.412 192.107 66.0796 192.107C66.7558 192.107 67.3541 192.255 67.8743 192.55C68.4031 192.844 68.815 193.252 69.1097 193.772C69.4132 194.292 69.5649 194.895 69.5649 195.58C69.5649 196.256 69.4132 196.859 69.1097 197.387C68.815 197.908 68.4031 198.319 67.8743 198.623C67.3454 198.918 66.7472 199.065 66.0796 199.065ZM66.0796 198.246C66.5738 198.246 67.0116 198.137 67.3931 197.921C67.7746 197.695 68.0737 197.383 68.2904 196.984C68.5158 196.577 68.6285 196.109 68.6285 195.58C68.6285 195.042 68.5158 194.574 68.2904 194.175C68.0737 193.776 67.7746 193.469 67.3931 193.252C67.0116 193.026 66.5781 192.914 66.0926 192.914C65.6071 192.914 65.1736 193.026 64.7921 193.252C64.4106 193.469 64.1072 193.776 63.8817 194.175C63.6563 194.574 63.5436 195.042 63.5436 195.58C63.5436 196.109 63.6563 196.577 63.8817 196.984C64.1072 197.383 64.4106 197.695 64.7921 197.921C65.1736 198.137 65.6027 198.246 66.0796 198.246ZM74.2721 199.065C73.6912 199.065 73.184 198.957 72.7505 198.74C72.317 198.523 71.9789 198.198 71.7361 197.765C71.502 197.331 71.385 196.789 71.385 196.139V192.172H72.3083V196.035C72.3083 196.763 72.4861 197.314 72.8415 197.686C73.2057 198.051 73.7129 198.233 74.3631 198.233C74.84 198.233 75.2518 198.137 75.5986 197.947C75.9541 197.747 76.2228 197.461 76.4049 197.088C76.5956 196.715 76.691 196.269 76.691 195.749V192.172H77.6144V199H76.73V197.127L76.8731 197.465C76.6563 197.968 76.3182 198.363 75.8587 198.649C75.4079 198.926 74.879 199.065 74.2721 199.065ZM82.0214 199.065C81.4579 199.065 80.9247 198.987 80.4218 198.831C79.919 198.666 79.5245 198.462 79.2384 198.22L79.6545 197.491C79.932 197.7 80.2874 197.882 80.7209 198.038C81.1544 198.185 81.6096 198.259 82.0865 198.259C82.7367 198.259 83.2049 198.159 83.491 197.96C83.7771 197.752 83.9202 197.478 83.9202 197.14C83.9202 196.889 83.8378 196.694 83.6731 196.555C83.517 196.408 83.3089 196.299 83.0488 196.23C82.7887 196.152 82.4983 196.087 82.1775 196.035C81.8567 195.983 81.5359 195.922 81.2151 195.853C80.903 195.783 80.6169 195.684 80.3568 195.554C80.0967 195.415 79.8843 195.229 79.7196 194.994C79.5635 194.76 79.4855 194.448 79.4855 194.058C79.4855 193.685 79.5895 193.352 79.7976 193.057C80.0057 192.762 80.3091 192.532 80.7079 192.367C81.1154 192.194 81.6096 192.107 82.1905 192.107C82.6327 192.107 83.0748 192.168 83.517 192.289C83.9592 192.402 84.3233 192.554 84.6094 192.745L84.2063 193.486C83.9028 193.278 83.5777 193.13 83.2309 193.044C82.8841 192.948 82.5373 192.901 82.1905 192.901C81.5749 192.901 81.1198 193.009 80.825 193.226C80.5389 193.434 80.3958 193.703 80.3958 194.032C80.3958 194.292 80.4738 194.496 80.6299 194.643C80.7946 194.791 81.007 194.908 81.2671 194.994C81.5359 195.073 81.8264 195.138 82.1385 195.19C82.4593 195.242 82.7757 195.307 83.0878 195.385C83.4086 195.454 83.6991 195.554 83.9592 195.684C84.2279 195.805 84.4404 195.983 84.5964 196.217C84.7611 196.442 84.8435 196.741 84.8435 197.114C84.8435 197.513 84.7308 197.86 84.5054 198.155C84.2886 198.441 83.9678 198.666 83.543 198.831C83.1269 198.987 82.6197 199.065 82.0214 199.065ZM90.1365 199V189.897H91.0989V199H90.1365ZM94.0609 199V189.897H94.8542L99.0158 196.997H98.5996L102.722 189.897H103.515V199H102.592V191.34H102.813L99.0158 197.843H98.5606L94.7371 191.34H94.9842V199H94.0609ZM106.482 199V189.897H107.444V198.168H112.542V199H106.482ZM121.497 199.078C120.812 199.078 120.179 198.965 119.598 198.74C119.017 198.506 118.515 198.181 118.09 197.765C117.665 197.348 117.331 196.859 117.088 196.295C116.854 195.731 116.737 195.116 116.737 194.448C116.737 193.781 116.854 193.165 117.088 192.602C117.331 192.038 117.665 191.548 118.09 191.132C118.523 190.716 119.03 190.395 119.611 190.17C120.192 189.936 120.825 189.818 121.51 189.818C122.169 189.818 122.789 189.931 123.37 190.157C123.951 190.373 124.44 190.703 124.839 191.145L124.228 191.756C123.855 191.375 123.443 191.102 122.993 190.937C122.542 190.764 122.056 190.677 121.536 190.677C120.99 190.677 120.483 190.772 120.014 190.963C119.546 191.145 119.139 191.409 118.792 191.756C118.445 192.094 118.172 192.493 117.973 192.953C117.782 193.404 117.687 193.902 117.687 194.448C117.687 194.994 117.782 195.497 117.973 195.957C118.172 196.408 118.445 196.806 118.792 197.153C119.139 197.491 119.546 197.756 120.014 197.947C120.483 198.129 120.99 198.22 121.536 198.22C122.056 198.22 122.542 198.133 122.993 197.96C123.443 197.786 123.855 197.509 124.228 197.127L124.839 197.739C124.44 198.181 123.951 198.514 123.37 198.74C122.789 198.965 122.165 199.078 121.497 199.078ZM129.174 199.065C128.515 199.065 127.921 198.918 127.392 198.623C126.872 198.319 126.46 197.908 126.157 197.387C125.853 196.859 125.702 196.256 125.702 195.58C125.702 194.895 125.853 194.292 126.157 193.772C126.46 193.252 126.872 192.844 127.392 192.55C127.912 192.255 128.506 192.107 129.174 192.107C129.85 192.107 130.448 192.255 130.969 192.55C131.498 192.844 131.909 193.252 132.204 193.772C132.508 194.292 132.659 194.895 132.659 195.58C132.659 196.256 132.508 196.859 132.204 197.387C131.909 197.908 131.498 198.319 130.969 198.623C130.44 198.918 129.842 199.065 129.174 199.065ZM129.174 198.246C129.668 198.246 130.106 198.137 130.487 197.921C130.869 197.695 131.168 197.383 131.385 196.984C131.61 196.577 131.723 196.109 131.723 195.58C131.723 195.042 131.61 194.574 131.385 194.175C131.168 193.776 130.869 193.469 130.487 193.252C130.106 193.026 129.673 192.914 129.187 192.914C128.701 192.914 128.268 193.026 127.886 193.252C127.505 193.469 127.202 193.776 126.976 194.175C126.751 194.574 126.638 195.042 126.638 195.58C126.638 196.109 126.751 196.577 126.976 196.984C127.202 197.383 127.505 197.695 127.886 197.921C128.268 198.137 128.697 198.246 129.174 198.246ZM138.03 192.107C138.585 192.107 139.07 192.216 139.486 192.432C139.911 192.641 140.241 192.961 140.475 193.395C140.717 193.828 140.839 194.375 140.839 195.033V199H139.915V195.125C139.915 194.405 139.733 193.863 139.369 193.499C139.014 193.126 138.511 192.94 137.861 192.94C137.375 192.94 136.95 193.039 136.586 193.239C136.231 193.43 135.953 193.711 135.754 194.084C135.563 194.448 135.468 194.89 135.468 195.411V199H134.544V192.172H135.429V194.045L135.286 193.694C135.502 193.2 135.849 192.814 136.326 192.537C136.803 192.25 137.371 192.107 138.03 192.107ZM145.492 199.065C144.85 199.065 144.356 198.892 144.009 198.545C143.662 198.198 143.489 197.708 143.489 197.075V190.664H144.412V197.023C144.412 197.422 144.512 197.73 144.711 197.947C144.92 198.163 145.214 198.272 145.596 198.272C146.003 198.272 146.341 198.155 146.61 197.921L146.935 198.584C146.753 198.749 146.532 198.87 146.272 198.948C146.021 199.026 145.761 199.065 145.492 199.065ZM142.267 192.94V192.172H146.493V192.94H142.267ZM152.895 199V197.491L152.856 197.244V194.721C152.856 194.14 152.691 193.694 152.362 193.382C152.041 193.07 151.56 192.914 150.918 192.914C150.476 192.914 150.055 192.987 149.657 193.135C149.258 193.282 148.92 193.477 148.642 193.72L148.226 193.031C148.573 192.736 148.989 192.511 149.475 192.354C149.96 192.19 150.472 192.107 151.009 192.107C151.893 192.107 152.574 192.328 153.051 192.771C153.536 193.204 153.779 193.867 153.779 194.76V199H152.895ZM150.541 199.065C150.029 199.065 149.583 198.983 149.201 198.818C148.829 198.645 148.543 198.41 148.343 198.116C148.144 197.812 148.044 197.465 148.044 197.075C148.044 196.72 148.126 196.399 148.291 196.113C148.464 195.818 148.742 195.584 149.123 195.411C149.514 195.229 150.034 195.138 150.684 195.138H153.038V195.827H150.71C150.051 195.827 149.592 195.944 149.331 196.178C149.08 196.412 148.954 196.702 148.954 197.049C148.954 197.439 149.106 197.752 149.409 197.986C149.713 198.22 150.138 198.337 150.684 198.337C151.204 198.337 151.651 198.22 152.023 197.986C152.405 197.743 152.682 197.396 152.856 196.945L153.064 197.582C152.89 198.033 152.587 198.393 152.154 198.662C151.729 198.931 151.191 199.065 150.541 199.065ZM156.287 199V192.172H157.21V199H156.287ZM156.755 190.664C156.565 190.664 156.404 190.599 156.274 190.469C156.144 190.339 156.079 190.183 156.079 190.001C156.079 189.818 156.144 189.667 156.274 189.545C156.404 189.415 156.565 189.35 156.755 189.35C156.946 189.35 157.106 189.411 157.236 189.532C157.367 189.654 157.432 189.805 157.432 189.988C157.432 190.178 157.367 190.339 157.236 190.469C157.115 190.599 156.955 190.664 156.755 190.664ZM163.265 192.107C163.82 192.107 164.305 192.216 164.722 192.432C165.146 192.641 165.476 192.961 165.71 193.395C165.953 193.828 166.074 194.375 166.074 195.033V199H165.151V195.125C165.151 194.405 164.969 193.863 164.604 193.499C164.249 193.126 163.746 192.94 163.096 192.94C162.61 192.94 162.186 193.039 161.821 193.239C161.466 193.43 161.189 193.711 160.989 194.084C160.798 194.448 160.703 194.89 160.703 195.411V199H159.78V192.172H160.664V194.045L160.521 193.694C160.738 193.2 161.084 192.814 161.561 192.537C162.038 192.25 162.606 192.107 163.265 192.107ZM171.468 199.065C170.757 199.065 170.133 198.918 169.596 198.623C169.058 198.319 168.638 197.908 168.334 197.387C168.031 196.859 167.879 196.256 167.879 195.58C167.879 194.903 168.022 194.305 168.308 193.785C168.603 193.265 169.002 192.857 169.505 192.563C170.016 192.259 170.588 192.107 171.221 192.107C171.863 192.107 172.431 192.255 172.925 192.55C173.428 192.836 173.822 193.243 174.108 193.772C174.394 194.292 174.537 194.895 174.537 195.58C174.537 195.623 174.533 195.671 174.524 195.723C174.524 195.766 174.524 195.814 174.524 195.866H168.581V195.177H174.03L173.666 195.45C173.666 194.955 173.558 194.518 173.341 194.136C173.133 193.746 172.847 193.443 172.483 193.226C172.119 193.009 171.698 192.901 171.221 192.901C170.753 192.901 170.333 193.009 169.96 193.226C169.587 193.443 169.296 193.746 169.088 194.136C168.88 194.526 168.776 194.973 168.776 195.476V195.619C168.776 196.139 168.889 196.598 169.114 196.997C169.348 197.387 169.669 197.695 170.077 197.921C170.493 198.137 170.965 198.246 171.494 198.246C171.91 198.246 172.296 198.172 172.652 198.025C173.016 197.877 173.328 197.652 173.588 197.348L174.108 197.947C173.805 198.311 173.423 198.588 172.964 198.779C172.513 198.97 172.014 199.065 171.468 199.065ZM176.417 199V192.172H177.301V194.032L177.21 193.707C177.401 193.187 177.722 192.792 178.173 192.524C178.623 192.246 179.183 192.107 179.85 192.107V193.005C179.815 193.005 179.781 193.005 179.746 193.005C179.711 192.996 179.677 192.992 179.642 192.992C178.922 192.992 178.359 193.213 177.951 193.655C177.544 194.088 177.34 194.708 177.34 195.515V199H176.417ZM43.6686 218.065C43.0184 218.065 42.4332 217.918 41.913 217.623C41.4014 217.328 40.9983 216.921 40.7035 216.4C40.4087 215.872 40.2613 215.265 40.2613 214.58C40.2613 213.886 40.4087 213.279 40.7035 212.759C40.9983 212.239 41.4014 211.836 41.913 211.55C42.4332 211.255 43.0184 211.107 43.6686 211.107C44.2669 211.107 44.8001 211.242 45.2682 211.511C45.7451 211.779 46.1222 212.174 46.3997 212.694C46.6858 213.206 46.8288 213.834 46.8288 214.58C46.8288 215.317 46.6901 215.945 46.4127 216.465C46.1352 216.986 45.7581 217.384 45.2812 217.662C44.8131 217.931 44.2755 218.065 43.6686 218.065ZM43.7336 217.246C44.2192 217.246 44.6527 217.137 45.0341 216.921C45.4243 216.695 45.7277 216.383 45.9445 215.984C46.1699 215.577 46.2826 215.109 46.2826 214.58C46.2826 214.042 46.1699 213.574 45.9445 213.175C45.7277 212.776 45.4243 212.469 45.0341 212.252C44.6527 212.026 44.2192 211.914 43.7336 211.914C43.2568 211.914 42.8276 212.026 42.4462 212.252C42.0647 212.469 41.7612 212.776 41.5358 213.175C41.3104 213.574 41.1977 214.042 41.1977 214.58C41.1977 215.109 41.3104 215.577 41.5358 215.984C41.7612 216.383 42.0647 216.695 42.4462 216.921C42.8276 217.137 43.2568 217.246 43.7336 217.246ZM46.3086 218V215.945L46.3997 214.567L46.2696 213.188V208.35H47.193V218H46.3086ZM52.6646 218.065C51.9537 218.065 51.3294 217.918 50.7919 217.623C50.2544 217.319 49.8339 216.908 49.5304 216.387C49.227 215.859 49.0752 215.256 49.0752 214.58C49.0752 213.903 49.2183 213.305 49.5044 212.785C49.7992 212.265 50.198 211.857 50.7009 211.563C51.2124 211.259 51.7846 211.107 52.4175 211.107C53.0591 211.107 53.627 211.255 54.1212 211.55C54.624 211.836 55.0185 212.243 55.3046 212.772C55.5907 213.292 55.7338 213.895 55.7338 214.58C55.7338 214.623 55.7294 214.671 55.7208 214.723C55.7208 214.766 55.7208 214.814 55.7208 214.866H49.7775V214.177H55.2266L54.8624 214.45C54.8624 213.955 54.7541 213.518 54.5373 213.136C54.3292 212.746 54.0431 212.443 53.679 212.226C53.3149 212.009 52.8944 211.901 52.4175 211.901C51.9493 211.901 51.5288 212.009 51.156 212.226C50.7832 212.443 50.4928 212.746 50.2847 213.136C50.0766 213.526 49.9726 213.973 49.9726 214.476V214.619C49.9726 215.139 50.0853 215.598 50.3107 215.997C50.5448 216.387 50.8656 216.695 51.2731 216.921C51.6892 217.137 52.1617 217.246 52.6906 217.246C53.1068 217.246 53.4926 217.172 53.8481 217.025C54.2122 216.877 54.5243 216.652 54.7844 216.348L55.3046 216.947C55.0012 217.311 54.6197 217.588 54.1602 217.779C53.7093 217.97 53.2108 218.065 52.6646 218.065ZM59.4469 218.065C58.8833 218.065 58.3501 217.987 57.8473 217.831C57.3444 217.666 56.9499 217.462 56.6638 217.22L57.08 216.491C57.3574 216.7 57.7129 216.882 58.1464 217.038C58.5799 217.185 59.0351 217.259 59.5119 217.259C60.1622 217.259 60.6304 217.159 60.9165 216.96C61.2026 216.752 61.3456 216.478 61.3456 216.14C61.3456 215.889 61.2633 215.694 61.0985 215.555C60.9425 215.408 60.7344 215.299 60.4743 215.23C60.2142 215.152 59.9237 215.087 59.603 215.035C59.2822 214.983 58.9614 214.922 58.6406 214.853C58.3285 214.783 58.0424 214.684 57.7823 214.554C57.5222 214.415 57.3097 214.229 57.145 213.994C56.989 213.76 56.9109 213.448 56.9109 213.058C56.9109 212.685 57.015 212.352 57.223 212.057C57.4311 211.762 57.7346 211.532 58.1334 211.367C58.5409 211.194 59.0351 211.107 59.616 211.107C60.0581 211.107 60.5003 211.168 60.9425 211.289C61.3846 211.402 61.7488 211.554 62.0349 211.745L61.6317 212.486C61.3283 212.278 61.0032 212.13 60.6564 212.044C60.3096 211.948 59.9628 211.901 59.616 211.901C59.0004 211.901 58.5452 212.009 58.2504 212.226C57.9643 212.434 57.8213 212.703 57.8213 213.032C57.8213 213.292 57.8993 213.496 58.0554 213.643C58.2201 213.791 58.4325 213.908 58.6926 213.994C58.9614 214.073 59.2518 214.138 59.5639 214.19C59.8847 214.242 60.2012 214.307 60.5133 214.385C60.8341 214.454 61.1245 214.554 61.3846 214.684C61.6534 214.805 61.8658 214.983 62.0219 215.217C62.1866 215.442 62.269 215.741 62.269 216.114C62.269 216.513 62.1563 216.86 61.9308 217.155C61.7141 217.441 61.3933 217.666 60.9685 217.831C60.5523 217.987 60.0451 218.065 59.4469 218.065ZM63.9633 218V211.172H64.8866V218H63.9633ZM64.4315 209.664C64.2407 209.664 64.0803 209.599 63.9503 209.469C63.8202 209.339 63.7552 209.183 63.7552 209.001C63.7552 208.818 63.8202 208.667 63.9503 208.545C64.0803 208.415 64.2407 208.35 64.4315 208.35C64.6222 208.35 64.7826 208.411 64.9126 208.532C65.0427 208.654 65.1077 208.805 65.1077 208.988C65.1077 209.178 65.0427 209.339 64.9126 209.469C64.7913 209.599 64.6309 209.664 64.4315 209.664ZM70.3689 220.588C69.7447 220.588 69.1465 220.497 68.5742 220.315C68.002 220.133 67.5382 219.873 67.1827 219.535L67.6509 218.832C67.9717 219.118 68.3662 219.344 68.8343 219.509C69.3112 219.682 69.8141 219.769 70.3429 219.769C71.2099 219.769 71.8472 219.565 72.2547 219.157C72.6621 218.759 72.8659 218.134 72.8659 217.285V215.581L72.9959 214.411L72.9049 213.24V211.172H73.7892V217.168C73.7892 218.347 73.4988 219.209 72.9179 219.756C72.3457 220.311 71.496 220.588 70.3689 220.588ZM70.1999 217.74C69.5496 217.74 68.9644 217.601 68.4442 217.324C67.924 217.038 67.5122 216.643 67.2087 216.14C66.9139 215.637 66.7666 215.061 66.7666 214.411C66.7666 213.76 66.9139 213.188 67.2087 212.694C67.5122 212.191 67.924 211.801 68.4442 211.524C68.9644 211.246 69.5496 211.107 70.1999 211.107C70.8068 211.107 71.353 211.233 71.8385 211.485C72.324 211.736 72.7098 212.109 72.9959 212.603C73.282 213.097 73.4251 213.7 73.4251 214.411C73.4251 215.122 73.282 215.724 72.9959 216.218C72.7098 216.713 72.324 217.09 71.8385 217.35C71.353 217.61 70.8068 217.74 70.1999 217.74ZM70.2909 216.921C70.7938 216.921 71.2403 216.817 71.6304 216.608C72.0206 216.392 72.3283 216.097 72.5538 215.724C72.7792 215.343 72.8919 214.905 72.8919 214.411C72.8919 213.916 72.7792 213.483 72.5538 213.11C72.3283 212.737 72.0206 212.447 71.6304 212.239C71.2403 212.022 70.7938 211.914 70.2909 211.914C69.7967 211.914 69.3502 212.022 68.9514 212.239C68.5612 212.447 68.2535 212.737 68.028 213.11C67.8113 213.483 67.7029 213.916 67.7029 214.411C67.7029 214.905 67.8113 215.343 68.028 215.724C68.2535 216.097 68.5612 216.392 68.9514 216.608C69.3502 216.817 69.7967 216.921 70.2909 216.921ZM79.844 211.107C80.3988 211.107 80.8844 211.216 81.3005 211.432C81.7254 211.641 82.0548 211.961 82.2889 212.395C82.5317 212.828 82.653 213.375 82.653 214.033V218H81.7297V214.125C81.7297 213.405 81.5476 212.863 81.1835 212.499C80.828 212.126 80.3252 211.94 79.6749 211.94C79.1894 211.94 78.7646 212.039 78.4004 212.239C78.0449 212.43 77.7675 212.711 77.5681 213.084C77.3774 213.448 77.282 213.89 77.282 214.411V218H76.3586V211.172H77.243V213.045L77.0999 212.694C77.3167 212.2 77.6635 211.814 78.1403 211.537C78.6172 211.25 79.185 211.107 79.844 211.107ZM88.0473 218.065C87.3363 218.065 86.7121 217.918 86.1745 217.623C85.637 217.319 85.2165 216.908 84.9131 216.387C84.6096 215.859 84.4579 215.256 84.4579 214.58C84.4579 213.903 84.6009 213.305 84.887 212.785C85.1818 212.265 85.5806 211.857 86.0835 211.563C86.595 211.259 87.1672 211.107 87.8002 211.107C88.4417 211.107 89.0096 211.255 89.5038 211.55C90.0067 211.836 90.4012 212.243 90.6873 212.772C90.9734 213.292 91.1164 213.895 91.1164 214.58C91.1164 214.623 91.1121 214.671 91.1034 214.723C91.1034 214.766 91.1034 214.814 91.1034 214.866H85.1601V214.177H90.6092L90.2451 214.45C90.2451 213.955 90.1367 213.518 89.92 213.136C89.7119 212.746 89.4258 212.443 89.0616 212.226C88.6975 212.009 88.277 211.901 87.8002 211.901C87.332 211.901 86.9115 212.009 86.5387 212.226C86.1659 212.443 85.8754 212.746 85.6673 213.136C85.4593 213.526 85.3552 213.973 85.3552 214.476V214.619C85.3552 215.139 85.4679 215.598 85.6934 215.997C85.9274 216.387 86.2482 216.695 86.6557 216.921C87.0719 217.137 87.5444 217.246 88.0733 217.246C88.4894 217.246 88.8752 217.172 89.2307 217.025C89.5948 216.877 89.907 216.652 90.1671 216.348L90.6873 216.947C90.3838 217.311 90.0023 217.588 89.5428 217.779C89.092 217.97 88.5935 218.065 88.0473 218.065ZM95.7139 218.065C95.0636 218.065 94.4784 217.918 93.9582 217.623C93.4467 217.328 93.0435 216.921 92.7487 216.4C92.454 215.872 92.3066 215.265 92.3066 214.58C92.3066 213.886 92.454 213.279 92.7487 212.759C93.0435 212.239 93.4467 211.836 93.9582 211.55C94.4784 211.255 95.0636 211.107 95.7139 211.107C96.3121 211.107 96.8453 211.242 97.3135 211.511C97.7903 211.779 98.1675 212.174 98.4449 212.694C98.731 213.206 98.8741 213.834 98.8741 214.58C98.8741 215.317 98.7354 215.945 98.4579 216.465C98.1805 216.986 97.8033 217.384 97.3265 217.662C96.8583 217.931 96.3208 218.065 95.7139 218.065ZM95.7789 217.246C96.2644 217.246 96.6979 217.137 97.0794 216.921C97.4696 216.695 97.773 216.383 97.9897 215.984C98.2152 215.577 98.3279 215.109 98.3279 214.58C98.3279 214.042 98.2152 213.574 97.9897 213.175C97.773 212.776 97.4696 212.469 97.0794 212.252C96.6979 212.026 96.2644 211.914 95.7789 211.914C95.3021 211.914 94.8729 212.026 94.4914 212.252C94.1099 212.469 93.8065 212.776 93.5811 213.175C93.3556 213.574 93.2429 214.042 93.2429 214.58C93.2429 215.109 93.3556 215.577 93.5811 215.984C93.8065 216.383 94.1099 216.695 94.4914 216.921C94.8729 217.137 95.3021 217.246 95.7789 217.246ZM98.3539 218V215.945L98.4449 214.567L98.3149 213.188V208.35H99.2382V218H98.3539ZM105.369 218V210.314C105.369 209.707 105.547 209.217 105.903 208.845C106.258 208.472 106.77 208.285 107.437 208.285C107.697 208.285 107.949 208.32 108.192 208.389C108.434 208.459 108.638 208.567 108.803 208.714L108.491 209.404C108.361 209.291 108.209 209.209 108.035 209.157C107.862 209.096 107.676 209.066 107.476 209.066C107.086 209.066 106.787 209.174 106.579 209.391C106.371 209.607 106.267 209.928 106.267 210.353V211.393L106.293 211.823V218H105.369ZM104.147 211.94V211.172H108.374V211.94H104.147ZM112.289 218.065C111.63 218.065 111.036 217.918 110.507 217.623C109.987 217.319 109.575 216.908 109.272 216.387C108.969 215.859 108.817 215.256 108.817 214.58C108.817 213.895 108.969 213.292 109.272 212.772C109.575 212.252 109.987 211.844 110.507 211.55C111.028 211.255 111.622 211.107 112.289 211.107C112.965 211.107 113.564 211.255 114.084 211.55C114.613 211.844 115.024 212.252 115.319 212.772C115.623 213.292 115.774 213.895 115.774 214.58C115.774 215.256 115.623 215.859 115.319 216.387C115.024 216.908 114.613 217.319 114.084 217.623C113.555 217.918 112.957 218.065 112.289 218.065ZM112.289 217.246C112.783 217.246 113.221 217.137 113.603 216.921C113.984 216.695 114.283 216.383 114.5 215.984C114.725 215.577 114.838 215.109 114.838 214.58C114.838 214.042 114.725 213.574 114.5 213.175C114.283 212.776 113.984 212.469 113.603 212.252C113.221 212.026 112.788 211.914 112.302 211.914C111.817 211.914 111.383 212.026 111.002 212.252C110.62 212.469 110.317 212.776 110.091 213.175C109.866 213.574 109.753 214.042 109.753 214.58C109.753 215.109 109.866 215.577 110.091 215.984C110.317 216.383 110.62 216.695 111.002 216.921C111.383 217.137 111.812 217.246 112.289 217.246ZM117.66 218V211.172H118.544V213.032L118.453 212.707C118.644 212.187 118.964 211.792 119.415 211.524C119.866 211.246 120.425 211.107 121.093 211.107V212.005C121.058 212.005 121.024 212.005 120.989 212.005C120.954 211.996 120.919 211.992 120.885 211.992C120.165 211.992 119.602 212.213 119.194 212.655C118.787 213.088 118.583 213.708 118.583 214.515V218H117.66ZM129.948 211.042C130.512 211.042 131.006 211.151 131.431 211.367C131.864 211.584 132.202 211.914 132.445 212.356C132.688 212.798 132.809 213.357 132.809 214.033V218H131.561V214.177C131.561 213.509 131.396 213.006 131.067 212.668C130.746 212.33 130.291 212.161 129.701 212.161C129.259 212.161 128.873 212.247 128.544 212.421C128.214 212.594 127.958 212.85 127.776 213.188C127.603 213.526 127.516 213.947 127.516 214.45V218H126.268V208.35H127.516V212.967L127.269 212.473C127.495 212.022 127.841 211.671 128.31 211.419C128.778 211.168 129.324 211.042 129.948 211.042ZM138.189 218.078C137.452 218.078 136.802 217.926 136.238 217.623C135.683 217.319 135.25 216.903 134.938 216.374C134.634 215.846 134.483 215.239 134.483 214.554C134.483 213.869 134.63 213.262 134.925 212.733C135.228 212.204 135.64 211.792 136.16 211.498C136.689 211.194 137.283 211.042 137.942 211.042C138.61 211.042 139.199 211.19 139.711 211.485C140.222 211.779 140.621 212.195 140.907 212.733C141.202 213.262 141.349 213.882 141.349 214.593C141.349 214.645 141.345 214.705 141.336 214.775C141.336 214.844 141.332 214.909 141.323 214.97H135.458V214.073H140.673L140.166 214.385C140.174 213.942 140.083 213.548 139.893 213.201C139.702 212.854 139.437 212.586 139.099 212.395C138.77 212.195 138.384 212.096 137.942 212.096C137.508 212.096 137.123 212.195 136.784 212.395C136.446 212.586 136.182 212.859 135.991 213.214C135.8 213.561 135.705 213.96 135.705 214.411V214.619C135.705 215.078 135.809 215.49 136.017 215.854C136.234 216.21 136.533 216.487 136.915 216.686C137.296 216.886 137.734 216.986 138.228 216.986C138.636 216.986 139.004 216.916 139.333 216.778C139.672 216.639 139.966 216.431 140.218 216.153L140.907 216.96C140.595 217.324 140.205 217.601 139.737 217.792C139.277 217.983 138.761 218.078 138.189 218.078ZM147.171 218V216.543L147.106 216.27V213.786C147.106 213.258 146.95 212.85 146.638 212.564C146.334 212.269 145.875 212.122 145.259 212.122C144.852 212.122 144.453 212.191 144.063 212.33C143.673 212.46 143.343 212.638 143.074 212.863L142.554 211.927C142.91 211.641 143.335 211.424 143.829 211.276C144.332 211.12 144.856 211.042 145.402 211.042C146.347 211.042 147.076 211.272 147.587 211.732C148.099 212.191 148.354 212.893 148.354 213.838V218H147.171ZM144.908 218.078C144.397 218.078 143.946 217.991 143.556 217.818C143.174 217.645 142.879 217.406 142.671 217.103C142.463 216.791 142.359 216.439 142.359 216.049C142.359 215.676 142.446 215.338 142.619 215.035C142.801 214.731 143.092 214.489 143.491 214.307C143.898 214.125 144.444 214.033 145.129 214.033H147.314V214.931H145.181C144.557 214.931 144.136 215.035 143.92 215.243C143.703 215.451 143.595 215.702 143.595 215.997C143.595 216.335 143.729 216.608 143.998 216.817C144.267 217.016 144.639 217.116 145.116 217.116C145.584 217.116 145.992 217.012 146.339 216.804C146.694 216.595 146.95 216.292 147.106 215.893L147.353 216.752C147.188 217.159 146.898 217.484 146.482 217.727C146.066 217.961 145.541 218.078 144.908 218.078ZM150.665 218V211.107H151.861V212.98L151.744 212.512C151.935 212.035 152.256 211.671 152.707 211.419C153.157 211.168 153.712 211.042 154.371 211.042V212.252C154.319 212.243 154.267 212.239 154.215 212.239C154.172 212.239 154.128 212.239 154.085 212.239C153.418 212.239 152.889 212.438 152.499 212.837C152.108 213.236 151.913 213.812 151.913 214.567V218H150.665ZM158.556 218.078C157.863 218.078 157.325 217.892 156.944 217.519C156.562 217.146 156.371 216.613 156.371 215.919V209.599H157.62V215.867C157.62 216.24 157.711 216.526 157.893 216.726C158.084 216.925 158.353 217.025 158.699 217.025C159.09 217.025 159.415 216.916 159.675 216.7L160.065 217.597C159.874 217.762 159.644 217.883 159.376 217.961C159.116 218.039 158.842 218.078 158.556 218.078ZM155.201 212.135V211.107H159.597V212.135H155.201ZM161.746 220.601C161.417 220.601 161.096 220.545 160.784 220.432C160.472 220.328 160.203 220.172 159.978 219.964L160.511 219.027C160.684 219.192 160.875 219.318 161.083 219.405C161.291 219.491 161.512 219.535 161.746 219.535C162.05 219.535 162.301 219.457 162.501 219.3C162.7 219.144 162.886 218.867 163.06 218.468L163.489 217.519L163.619 217.363L166.324 211.107H167.547L164.204 218.689C164.005 219.175 163.78 219.556 163.528 219.834C163.285 220.111 163.017 220.306 162.722 220.419C162.427 220.54 162.102 220.601 161.746 220.601ZM163.385 218.221L160.238 211.107H161.538L164.217 217.246L163.385 218.221ZM29.7548 237.078C29.1826 237.078 28.6364 237 28.1162 236.844C27.6047 236.688 27.2015 236.497 26.9067 236.272L27.4269 235.283C27.7217 235.483 28.0859 235.652 28.5194 235.791C28.9529 235.929 29.395 235.999 29.8459 235.999C30.4268 235.999 30.8429 235.916 31.0943 235.752C31.3544 235.587 31.4845 235.357 31.4845 235.062C31.4845 234.846 31.4065 234.676 31.2504 234.555C31.0943 234.434 30.8863 234.343 30.6262 234.282C30.3747 234.221 30.093 234.169 29.7808 234.126C29.4687 234.074 29.1566 234.013 28.8445 233.944C28.5324 233.866 28.2463 233.762 27.9862 233.632C27.7261 233.493 27.518 233.307 27.3619 233.073C27.2059 232.83 27.1278 232.509 27.1278 232.11C27.1278 231.694 27.2449 231.33 27.479 231.018C27.7131 230.706 28.0425 230.467 28.4673 230.302C28.9008 230.129 29.4124 230.042 30.0019 230.042C30.4528 230.042 30.9079 230.099 31.3674 230.211C31.8356 230.315 32.2171 230.467 32.5119 230.667L31.9787 231.655C31.6666 231.447 31.3414 231.304 31.0033 231.226C30.6652 231.148 30.3271 231.109 29.9889 231.109C29.4427 231.109 29.0352 231.2 28.7665 231.382C28.4977 231.555 28.3633 231.781 28.3633 232.058C28.3633 232.292 28.4413 232.474 28.5974 232.604C28.7621 232.726 28.9702 232.821 29.2216 232.89C29.4817 232.96 29.7678 233.02 30.08 233.073C30.3921 233.116 30.7042 233.177 31.0163 233.255C31.3284 233.324 31.6102 233.424 31.8616 233.554C32.1217 233.684 32.3298 233.866 32.4859 234.1C32.6506 234.334 32.733 234.646 32.733 235.036C32.733 235.452 32.6116 235.812 32.3688 236.116C32.1261 236.419 31.7836 236.658 31.3414 236.831C30.8993 236.996 30.3704 237.078 29.7548 237.078ZM37.3624 237.078C36.6255 237.078 35.9752 236.926 35.4117 236.623C34.8568 236.319 34.4233 235.903 34.1112 235.374C33.8077 234.846 33.656 234.239 33.656 233.554C33.656 232.869 33.8034 232.262 34.0982 231.733C34.4016 231.204 34.8135 230.792 35.3337 230.498C35.8625 230.194 36.4564 230.042 37.1153 230.042C37.7829 230.042 38.3725 230.19 38.884 230.485C39.3955 230.779 39.7944 231.195 40.0805 231.733C40.3753 232.262 40.5226 232.882 40.5226 233.593C40.5226 233.645 40.5183 233.705 40.5096 233.775C40.5096 233.844 40.5053 233.909 40.4966 233.97H34.6314V233.073H39.8464L39.3392 233.385C39.3479 232.942 39.2568 232.548 39.0661 232.201C38.8753 231.854 38.6109 231.586 38.2728 231.395C37.9433 231.195 37.5575 231.096 37.1153 231.096C36.6818 231.096 36.296 231.195 35.9579 231.395C35.6198 231.586 35.3553 231.859 35.1646 232.214C34.9739 232.561 34.8785 232.96 34.8785 233.411V233.619C34.8785 234.078 34.9825 234.49 35.1906 234.854C35.4074 235.21 35.7065 235.487 36.0879 235.686C36.4694 235.886 36.9073 235.986 37.4014 235.986C37.8089 235.986 38.1774 235.916 38.5069 235.778C38.845 235.639 39.1398 235.431 39.3912 235.153L40.0805 235.96C39.7684 236.324 39.3782 236.601 38.91 236.792C38.4505 236.983 37.9347 237.078 37.3624 237.078ZM42.2563 237V230.107H43.4527V231.98L43.3357 231.512C43.5264 231.035 43.8472 230.671 44.298 230.419C44.7489 230.168 45.3038 230.042 45.9627 230.042V231.252C45.9107 231.243 45.8586 231.239 45.8066 231.239C45.7633 231.239 45.7199 231.239 45.6766 231.239C45.009 231.239 44.4801 231.438 44.09 231.837C43.6998 232.236 43.5047 232.812 43.5047 233.567V237H42.2563ZM49.5885 237L46.5714 230.107H47.8719L50.5509 236.35H49.9267L52.6577 230.107H53.8802L50.863 237H49.5885ZM55.0453 237V230.107H56.2938V237H55.0453ZM55.6696 228.781C55.4268 228.781 55.2231 228.703 55.0583 228.547C54.9023 228.391 54.8242 228.2 54.8242 227.975C54.8242 227.74 54.9023 227.545 55.0583 227.389C55.2231 227.233 55.4268 227.155 55.6696 227.155C55.9123 227.155 56.1117 227.233 56.2678 227.389C56.4325 227.537 56.5149 227.723 56.5149 227.949C56.5149 228.183 56.4369 228.382 56.2808 228.547C56.1247 228.703 55.921 228.781 55.6696 228.781ZM62.358 230.042C62.9215 230.042 63.4157 230.151 63.8405 230.367C64.274 230.584 64.6122 230.914 64.8549 231.356C65.0977 231.798 65.2191 232.357 65.2191 233.033V237H63.9706V233.177C63.9706 232.509 63.8059 232.006 63.4764 231.668C63.1556 231.33 62.7004 231.161 62.1109 231.161C61.6687 231.161 61.2829 231.247 60.9534 231.421C60.624 231.594 60.3682 231.85 60.1861 232.188C60.0127 232.526 59.926 232.947 59.926 233.45V237H58.6776V230.107H59.874V231.967L59.679 231.473C59.9044 231.022 60.2512 230.671 60.7193 230.419C61.1875 230.168 61.7337 230.042 62.358 230.042ZM70.5467 239.601C69.9138 239.601 69.2983 239.51 68.7 239.328C68.1105 239.154 67.6293 238.903 67.2565 238.574L67.8547 237.611C68.1755 237.889 68.57 238.105 69.0382 238.261C69.5063 238.426 69.9962 238.509 70.5077 238.509C71.3227 238.509 71.9209 238.318 72.3024 237.936C72.6839 237.555 72.8746 236.974 72.8746 236.194V234.737L73.0047 233.372L72.9396 231.993V230.107H74.1231V236.064C74.1231 237.277 73.8197 238.17 73.2128 238.743C72.6059 239.315 71.7172 239.601 70.5467 239.601ZM70.3907 236.714C69.7231 236.714 69.1249 236.575 68.596 236.298C68.0758 236.012 67.6596 235.617 67.3475 235.114C67.0441 234.611 66.8923 234.031 66.8923 233.372C66.8923 232.704 67.0441 232.123 67.3475 231.629C67.6596 231.126 68.0758 230.736 68.596 230.459C69.1249 230.181 69.7231 230.042 70.3907 230.042C70.9802 230.042 71.5178 230.164 72.0033 230.406C72.4888 230.641 72.8746 231.005 73.1607 231.499C73.4555 231.993 73.6029 232.617 73.6029 233.372C73.6029 234.117 73.4555 234.737 73.1607 235.231C72.8746 235.726 72.4888 236.098 72.0033 236.35C71.5178 236.593 70.9802 236.714 70.3907 236.714ZM70.5337 235.621C70.9932 235.621 71.4007 235.526 71.7562 235.335C72.1117 235.145 72.3891 234.88 72.5885 234.542C72.7966 234.204 72.9006 233.814 72.9006 233.372C72.9006 232.929 72.7966 232.539 72.5885 232.201C72.3891 231.863 72.1117 231.603 71.7562 231.421C71.4007 231.23 70.9932 231.135 70.5337 231.135C70.0742 231.135 69.6624 231.23 69.2983 231.421C68.9428 231.603 68.661 231.863 68.4529 232.201C68.2535 232.539 68.1538 232.929 68.1538 233.372C68.1538 233.814 68.2535 234.204 68.4529 234.542C68.661 234.88 68.9428 235.145 69.2983 235.335C69.6624 235.526 70.0742 235.621 70.5337 235.621ZM78.4854 237.078C77.9131 237.078 77.3669 237 76.8467 236.844C76.3352 236.688 75.932 236.497 75.6373 236.272L76.1575 235.283C76.4522 235.483 76.8164 235.652 77.2499 235.791C77.6834 235.929 78.1255 235.999 78.5764 235.999C79.1573 235.999 79.5734 235.916 79.8249 235.752C80.085 235.587 80.215 235.357 80.215 235.062C80.215 234.846 80.137 234.676 79.9809 234.555C79.8249 234.434 79.6168 234.343 79.3567 234.282C79.1053 234.221 78.8235 234.169 78.5114 234.126C78.1992 234.074 77.8871 234.013 77.575 233.944C77.2629 233.866 76.9768 233.762 76.7167 233.632C76.4566 233.493 76.2485 233.307 76.0924 233.073C75.9364 232.83 75.8583 232.509 75.8583 232.11C75.8583 231.694 75.9754 231.33 76.2095 231.018C76.4436 230.706 76.773 230.467 77.1979 230.302C77.6314 230.129 78.1429 230.042 78.7324 230.042C79.1833 230.042 79.6385 230.099 80.098 230.211C80.5661 230.315 80.9476 230.467 81.2424 230.667L80.7092 231.655C80.3971 231.447 80.072 231.304 79.7338 231.226C79.3957 231.148 79.0576 231.109 78.7194 231.109C78.1732 231.109 77.7657 231.2 77.497 231.382C77.2282 231.555 77.0938 231.781 77.0938 232.058C77.0938 232.292 77.1719 232.474 77.3279 232.604C77.4926 232.726 77.7007 232.821 77.9521 232.89C78.2122 232.96 78.4984 233.02 78.8105 233.073C79.1226 233.116 79.4347 233.177 79.7468 233.255C80.059 233.324 80.3407 233.424 80.5922 233.554C80.8523 233.684 81.0603 233.866 81.2164 234.1C81.3811 234.334 81.4635 234.646 81.4635 235.036C81.4635 235.452 81.3421 235.812 81.0994 236.116C80.8566 236.419 80.5141 236.658 80.072 236.831C79.6298 236.996 79.1009 237.078 78.4854 237.078ZM82.5296 238.925L83.1798 236.298L83.3489 237.052C83.0975 237.052 82.8851 236.974 82.7117 236.818C82.5469 236.662 82.4646 236.449 82.4646 236.181C82.4646 235.921 82.5469 235.708 82.7117 235.543C82.8851 235.379 83.0931 235.296 83.3359 235.296C83.5873 235.296 83.7911 235.383 83.9471 235.556C84.1032 235.721 84.1812 235.929 84.1812 236.181C84.1812 236.267 84.1726 236.354 84.1552 236.441C84.1465 236.519 84.1249 236.614 84.0902 236.727C84.0642 236.831 84.0208 236.961 83.9601 237.117L83.3489 238.925H82.5296ZM92.4669 237.078C91.7646 237.078 91.1361 236.926 90.5812 236.623C90.035 236.319 89.6058 235.903 89.2937 235.374C88.9816 234.846 88.8255 234.239 88.8255 233.554C88.8255 232.869 88.9816 232.262 89.2937 231.733C89.6058 231.204 90.035 230.792 90.5812 230.498C91.1361 230.194 91.7646 230.042 92.4669 230.042C93.0911 230.042 93.646 230.168 94.1315 230.419C94.6257 230.662 95.0072 231.026 95.276 231.512L94.3266 232.123C94.1012 231.785 93.8238 231.538 93.4943 231.382C93.1735 231.217 92.8267 231.135 92.4539 231.135C92.0031 231.135 91.5999 231.234 91.2444 231.434C90.889 231.633 90.6072 231.915 90.3991 232.279C90.191 232.635 90.087 233.059 90.087 233.554C90.087 234.048 90.191 234.477 90.3991 234.841C90.6072 235.205 90.889 235.487 91.2444 235.686C91.5999 235.886 92.0031 235.986 92.4539 235.986C92.8267 235.986 93.1735 235.908 93.4943 235.752C93.8238 235.587 94.1012 235.335 94.3266 234.997L95.276 235.595C95.0072 236.072 94.6257 236.441 94.1315 236.701C93.646 236.952 93.0911 237.078 92.4669 237.078ZM99.7429 237.078C99.0493 237.078 98.4337 236.926 97.8962 236.623C97.3586 236.319 96.9338 235.903 96.6217 235.374C96.3096 234.837 96.1535 234.23 96.1535 233.554C96.1535 232.869 96.3096 232.262 96.6217 231.733C96.9338 231.204 97.3586 230.792 97.8962 230.498C98.4337 230.194 99.0493 230.042 99.7429 230.042C100.428 230.042 101.039 230.194 101.577 230.498C102.123 230.792 102.548 231.204 102.851 231.733C103.163 232.253 103.319 232.86 103.319 233.554C103.319 234.239 103.163 234.846 102.851 235.374C102.548 235.903 102.123 236.319 101.577 236.623C101.039 236.926 100.428 237.078 99.7429 237.078ZM99.7429 235.986C100.185 235.986 100.58 235.886 100.926 235.686C101.282 235.487 101.559 235.205 101.759 234.841C101.958 234.468 102.058 234.039 102.058 233.554C102.058 233.059 101.958 232.635 101.759 232.279C101.559 231.915 101.282 231.633 100.926 231.434C100.58 231.234 100.185 231.135 99.7429 231.135C99.3007 231.135 98.9062 231.234 98.5594 231.434C98.2126 231.633 97.9352 231.915 97.7271 232.279C97.519 232.635 97.415 233.059 97.415 233.554C97.415 234.039 97.519 234.468 97.7271 234.841C97.9352 235.205 98.2126 235.487 98.5594 235.686C98.9062 235.886 99.3007 235.986 99.7429 235.986ZM113.668 230.042C114.223 230.042 114.713 230.151 115.138 230.367C115.563 230.584 115.892 230.914 116.126 231.356C116.369 231.798 116.49 232.357 116.49 233.033V237H115.242V233.177C115.242 232.509 115.086 232.006 114.774 231.668C114.461 231.33 114.024 231.161 113.46 231.161C113.044 231.161 112.68 231.247 112.368 231.421C112.056 231.594 111.813 231.85 111.639 232.188C111.475 232.526 111.392 232.947 111.392 233.45V237H110.144V233.177C110.144 232.509 109.988 232.006 109.676 231.668C109.372 231.33 108.934 231.161 108.362 231.161C107.955 231.161 107.595 231.247 107.283 231.421C106.971 231.594 106.728 231.85 106.554 232.188C106.381 232.526 106.294 232.947 106.294 233.45V237H105.046V230.107H106.242V231.941L106.047 231.473C106.264 231.022 106.598 230.671 107.049 230.419C107.499 230.168 108.024 230.042 108.622 230.042C109.281 230.042 109.849 230.207 110.326 230.537C110.803 230.857 111.115 231.347 111.262 232.006L110.755 231.798C110.963 231.269 111.327 230.844 111.847 230.524C112.368 230.203 112.975 230.042 113.668 230.042ZM122.442 237.078C121.852 237.078 121.319 236.948 120.842 236.688C120.374 236.419 120.001 236.025 119.724 235.504C119.455 234.984 119.321 234.334 119.321 233.554C119.321 232.773 119.459 232.123 119.737 231.603C120.023 231.083 120.4 230.693 120.868 230.432C121.345 230.172 121.87 230.042 122.442 230.042C123.118 230.042 123.716 230.19 124.237 230.485C124.757 230.779 125.169 231.191 125.472 231.72C125.775 232.24 125.927 232.851 125.927 233.554C125.927 234.256 125.775 234.872 125.472 235.4C125.169 235.929 124.757 236.341 124.237 236.636C123.716 236.931 123.118 237.078 122.442 237.078ZM118.787 237V227.35H120.036V231.941L119.906 233.541L119.984 235.14V237H118.787ZM122.338 235.986C122.78 235.986 123.174 235.886 123.521 235.686C123.877 235.487 124.154 235.205 124.354 234.841C124.562 234.468 124.666 234.039 124.666 233.554C124.666 233.059 124.562 232.635 124.354 232.279C124.154 231.915 123.877 231.633 123.521 231.434C123.174 231.234 122.78 231.135 122.338 231.135C121.904 231.135 121.51 231.234 121.154 231.434C120.808 231.633 120.53 231.915 120.322 232.279C120.123 232.635 120.023 233.059 120.023 233.554C120.023 234.039 120.123 234.468 120.322 234.841C120.53 235.205 120.808 235.487 121.154 235.686C121.51 235.886 121.904 235.986 122.338 235.986ZM130.604 237.078C129.911 237.078 129.295 236.926 128.758 236.623C128.22 236.319 127.795 235.903 127.483 235.374C127.171 234.837 127.015 234.23 127.015 233.554C127.015 232.869 127.171 232.262 127.483 231.733C127.795 231.204 128.22 230.792 128.758 230.498C129.295 230.194 129.911 230.042 130.604 230.042C131.289 230.042 131.9 230.194 132.438 230.498C132.984 230.792 133.409 231.204 133.712 231.733C134.025 232.253 134.181 232.86 134.181 233.554C134.181 234.239 134.025 234.846 133.712 235.374C133.409 235.903 132.984 236.319 132.438 236.623C131.9 236.926 131.289 237.078 130.604 237.078ZM130.604 235.986C131.046 235.986 131.441 235.886 131.788 235.686C132.143 235.487 132.421 235.205 132.62 234.841C132.819 234.468 132.919 234.039 132.919 233.554C132.919 233.059 132.819 232.635 132.62 232.279C132.421 231.915 132.143 231.633 131.788 231.434C131.441 231.234 131.046 231.135 130.604 231.135C130.162 231.135 129.768 231.234 129.421 231.434C129.074 231.633 128.797 231.915 128.589 232.279C128.38 232.635 128.276 233.059 128.276 233.554C128.276 234.039 128.38 234.468 128.589 234.841C128.797 235.205 129.074 235.487 129.421 235.686C129.768 235.886 130.162 235.986 130.604 235.986ZM148.022 230.042C148.577 230.042 149.067 230.151 149.492 230.367C149.916 230.584 150.246 230.914 150.48 231.356C150.723 231.798 150.844 232.357 150.844 233.033V237H149.596V233.177C149.596 232.509 149.44 232.006 149.128 231.668C148.815 231.33 148.378 231.161 147.814 231.161C147.398 231.161 147.034 231.247 146.722 231.421C146.409 231.594 146.167 231.85 145.993 232.188C145.829 232.526 145.746 232.947 145.746 233.45V237H144.498V233.177C144.498 232.509 144.342 232.006 144.03 231.668C143.726 231.33 143.288 231.161 142.716 231.161C142.309 231.161 141.949 231.247 141.637 231.421C141.325 231.594 141.082 231.85 140.908 232.188C140.735 232.526 140.648 232.947 140.648 233.45V237H139.4V230.107H140.596V231.941L140.401 231.473C140.618 231.022 140.952 230.671 141.403 230.419C141.853 230.168 142.378 230.042 142.976 230.042C143.635 230.042 144.203 230.207 144.68 230.537C145.157 230.857 145.469 231.347 145.616 232.006L145.109 231.798C145.317 231.269 145.681 230.844 146.201 230.524C146.722 230.203 147.328 230.042 148.022 230.042ZM156.211 237.078C155.474 237.078 154.823 236.926 154.26 236.623C153.705 236.319 153.271 235.903 152.959 235.374C152.656 234.846 152.504 234.239 152.504 233.554C152.504 232.869 152.652 232.262 152.946 231.733C153.25 231.204 153.662 230.792 154.182 230.498C154.711 230.194 155.305 230.042 155.963 230.042C156.631 230.042 157.221 230.19 157.732 230.485C158.244 230.779 158.642 231.195 158.929 231.733C159.223 232.262 159.371 232.882 159.371 233.593C159.371 233.645 159.366 233.705 159.358 233.775C159.358 233.844 159.353 233.909 159.345 233.97H153.479V233.073H158.694L158.187 233.385C158.196 232.942 158.105 232.548 157.914 232.201C157.723 231.854 157.459 231.586 157.121 231.395C156.791 231.195 156.406 231.096 155.963 231.096C155.53 231.096 155.144 231.195 154.806 231.395C154.468 231.586 154.203 231.859 154.013 232.214C153.822 232.561 153.727 232.96 153.727 233.411V233.619C153.727 234.078 153.831 234.49 154.039 234.854C154.255 235.21 154.555 235.487 154.936 235.686C155.318 235.886 155.755 235.986 156.25 235.986C156.657 235.986 157.026 235.916 157.355 235.778C157.693 235.639 157.988 235.431 158.239 235.153L158.929 235.96C158.616 236.324 158.226 236.601 157.758 236.792C157.299 236.983 156.783 237.078 156.211 237.078ZM165.192 237V235.543L165.127 235.27V232.786C165.127 232.258 164.971 231.85 164.659 231.564C164.356 231.269 163.896 231.122 163.281 231.122C162.873 231.122 162.474 231.191 162.084 231.33C161.694 231.46 161.365 231.638 161.096 231.863L160.576 230.927C160.931 230.641 161.356 230.424 161.85 230.276C162.353 230.12 162.878 230.042 163.424 230.042C164.369 230.042 165.097 230.272 165.609 230.732C166.12 231.191 166.376 231.893 166.376 232.838V237H165.192ZM162.93 237.078C162.418 237.078 161.967 236.991 161.577 236.818C161.196 236.645 160.901 236.406 160.693 236.103C160.485 235.791 160.381 235.439 160.381 235.049C160.381 234.676 160.467 234.338 160.641 234.035C160.823 233.731 161.113 233.489 161.512 233.307C161.92 233.125 162.466 233.033 163.151 233.033H165.336V233.931H163.203C162.578 233.931 162.158 234.035 161.941 234.243C161.725 234.451 161.616 234.702 161.616 234.997C161.616 235.335 161.751 235.608 162.019 235.817C162.288 236.016 162.661 236.116 163.138 236.116C163.606 236.116 164.013 236.012 164.36 235.804C164.716 235.595 164.971 235.292 165.127 234.893L165.375 235.752C165.21 236.159 164.919 236.484 164.503 236.727C164.087 236.961 163.563 237.078 162.93 237.078ZM168.686 237V227.35H169.935V237H168.686ZM174.295 237.078C173.723 237.078 173.177 237 172.657 236.844C172.145 236.688 171.742 236.497 171.447 236.272L171.967 235.283C172.262 235.483 172.626 235.652 173.06 235.791C173.493 235.929 173.936 235.999 174.386 235.999C174.967 235.999 175.383 235.916 175.635 235.752C175.895 235.587 176.025 235.357 176.025 235.062C176.025 234.846 175.947 234.676 175.791 234.555C175.635 234.434 175.427 234.343 175.167 234.282C174.915 234.221 174.633 234.169 174.321 234.126C174.009 234.074 173.697 234.013 173.385 233.944C173.073 233.866 172.787 233.762 172.527 233.632C172.267 233.493 172.059 233.307 171.902 233.073C171.746 232.83 171.668 232.509 171.668 232.11C171.668 231.694 171.785 231.33 172.02 231.018C172.254 230.706 172.583 230.467 173.008 230.302C173.441 230.129 173.953 230.042 174.542 230.042C174.993 230.042 175.448 230.099 175.908 230.211C176.376 230.315 176.758 230.467 177.052 230.667L176.519 231.655C176.207 231.447 175.882 231.304 175.544 231.226C175.206 231.148 174.868 231.109 174.529 231.109C173.983 231.109 173.576 231.2 173.307 231.382C173.038 231.555 172.904 231.781 172.904 232.058C172.904 232.292 172.982 232.474 173.138 232.604C173.303 232.726 173.511 232.821 173.762 232.89C174.022 232.96 174.308 233.02 174.62 233.073C174.933 233.116 175.245 233.177 175.557 233.255C175.869 233.324 176.151 233.424 176.402 233.554C176.662 233.684 176.87 233.866 177.026 234.1C177.191 234.334 177.274 234.646 177.274 235.036C177.274 235.452 177.152 235.812 176.909 236.116C176.667 236.419 176.324 236.658 175.882 236.831C175.44 236.996 174.911 237.078 174.295 237.078ZM178.34 238.925L178.99 236.298L179.159 237.052C178.907 237.052 178.695 236.974 178.522 236.818C178.357 236.662 178.275 236.449 178.275 236.181C178.275 235.921 178.357 235.708 178.522 235.543C178.695 235.379 178.903 235.296 179.146 235.296C179.397 235.296 179.601 235.383 179.757 235.556C179.913 235.721 179.991 235.929 179.991 236.181C179.991 236.267 179.983 236.354 179.965 236.441C179.957 236.519 179.935 236.614 179.9 236.727C179.874 236.831 179.831 236.961 179.77 237.117L179.159 238.925H178.34ZM37.2853 257V255.491L37.2462 255.244V252.721C37.2462 252.14 37.0815 251.694 36.7521 251.382C36.4313 251.07 35.9501 250.914 35.3085 250.914C34.8663 250.914 34.4458 250.987 34.047 251.135C33.6482 251.282 33.3101 251.477 33.0326 251.72L32.6165 251.031C32.9633 250.736 33.3794 250.511 33.865 250.354C34.3505 250.19 34.862 250.107 35.3995 250.107C36.2839 250.107 36.9645 250.328 37.4413 250.771C37.9268 251.204 38.1696 251.867 38.1696 252.76V257H37.2853ZM34.9314 257.065C34.4198 257.065 33.9733 256.983 33.5919 256.818C33.219 256.645 32.9329 256.41 32.7335 256.116C32.5341 255.812 32.4344 255.465 32.4344 255.075C32.4344 254.72 32.5168 254.399 32.6815 254.113C32.8549 253.818 33.1323 253.584 33.5138 253.411C33.904 253.229 34.4242 253.138 35.0744 253.138H37.4283V253.827H35.1004C34.4415 253.827 33.982 253.944 33.7219 254.178C33.4705 254.412 33.3448 254.702 33.3448 255.049C33.3448 255.439 33.4965 255.752 33.7999 255.986C34.1034 256.22 34.5282 256.337 35.0744 256.337C35.5946 256.337 36.0411 256.22 36.4139 255.986C36.7954 255.743 37.0728 255.396 37.2462 254.945L37.4543 255.582C37.2809 256.033 36.9775 256.393 36.544 256.662C36.1192 256.931 35.5816 257.065 34.9314 257.065ZM44.1629 250.107C44.7177 250.107 45.2033 250.216 45.6194 250.432C46.0442 250.641 46.3737 250.961 46.6078 251.395C46.8506 251.828 46.9719 252.375 46.9719 253.033V257H46.0486V253.125C46.0486 252.405 45.8665 251.863 45.5024 251.499C45.1469 251.126 44.644 250.94 43.9938 250.94C43.5083 250.94 43.0834 251.039 42.7193 251.239C42.3638 251.43 42.0864 251.711 41.887 252.084C41.6962 252.448 41.6009 252.89 41.6009 253.411V257H40.6775V250.172H41.5619V252.045L41.4188 251.694C41.6356 251.2 41.9824 250.814 42.4592 250.537C42.9361 250.25 43.5039 250.107 44.1629 250.107ZM52.1841 257.065C51.5338 257.065 50.9486 256.918 50.4284 256.623C49.9169 256.328 49.5137 255.921 49.2189 255.4C48.9242 254.872 48.7768 254.265 48.7768 253.58C48.7768 252.886 48.9242 252.279 49.2189 251.759C49.5137 251.239 49.9169 250.836 50.4284 250.55C50.9486 250.255 51.5338 250.107 52.1841 250.107C52.7823 250.107 53.3155 250.242 53.7837 250.511C54.2605 250.779 54.6377 251.174 54.9151 251.694C55.2012 252.206 55.3443 252.834 55.3443 253.58C55.3443 254.317 55.2056 254.945 54.9281 255.465C54.6507 255.986 54.2735 256.384 53.7967 256.662C53.3285 256.931 52.791 257.065 52.1841 257.065ZM52.2491 256.246C52.7346 256.246 53.1681 256.137 53.5496 255.921C53.9397 255.695 54.2432 255.383 54.4599 254.984C54.6854 254.577 54.7981 254.109 54.7981 253.58C54.7981 253.042 54.6854 252.574 54.4599 252.175C54.2432 251.776 53.9397 251.469 53.5496 251.252C53.1681 251.026 52.7346 250.914 52.2491 250.914C51.7723 250.914 51.3431 251.026 50.9616 251.252C50.5801 251.469 50.2767 251.776 50.0513 252.175C49.8258 252.574 49.7131 253.042 49.7131 253.58C49.7131 254.109 49.8258 254.577 50.0513 254.984C50.2767 255.383 50.5801 255.695 50.9616 255.921C51.3431 256.137 51.7723 256.246 52.2491 256.246ZM54.8241 257V254.945L54.9151 253.567L54.7851 252.188V247.35H55.7084V257H54.8241ZM61.8505 257V249.496C61.8505 248.82 62.0456 248.282 62.4357 247.884C62.8346 247.476 63.3981 247.272 64.1264 247.272C64.3952 247.272 64.6509 247.307 64.8937 247.376C65.1451 247.437 65.3575 247.537 65.5309 247.675L65.1538 248.625C65.0237 248.521 64.8763 248.443 64.7116 248.391C64.5469 248.33 64.3735 248.3 64.1914 248.3C63.8273 248.3 63.5498 248.404 63.3591 248.612C63.1684 248.811 63.073 249.11 63.073 249.509V250.432L63.099 251.005V257H61.8505ZM60.6801 251.135V250.107H65.0758V251.135H60.6801ZM69.1037 257.078C68.4101 257.078 67.7946 256.926 67.257 256.623C66.7195 256.319 66.2947 255.903 65.9825 255.374C65.6704 254.837 65.5144 254.23 65.5144 253.554C65.5144 252.869 65.6704 252.262 65.9825 251.733C66.2947 251.204 66.7195 250.792 67.257 250.498C67.7946 250.194 68.4101 250.042 69.1037 250.042C69.7887 250.042 70.3999 250.194 70.9374 250.498C71.4836 250.792 71.9085 251.204 72.2119 251.733C72.524 252.253 72.6801 252.86 72.6801 253.554C72.6801 254.239 72.524 254.846 72.2119 255.374C71.9085 255.903 71.4836 256.319 70.9374 256.623C70.3999 256.926 69.7887 257.078 69.1037 257.078ZM69.1037 255.986C69.5459 255.986 69.9404 255.886 70.2872 255.686C70.6427 255.487 70.9201 255.205 71.1195 254.841C71.3189 254.468 71.4186 254.039 71.4186 253.554C71.4186 253.059 71.3189 252.635 71.1195 252.279C70.9201 251.915 70.6427 251.633 70.2872 251.434C69.9404 251.234 69.5459 251.135 69.1037 251.135C68.6616 251.135 68.2671 251.234 67.9203 251.434C67.5735 251.633 67.296 251.915 67.088 252.279C66.8799 252.635 66.7758 253.059 66.7758 253.554C66.7758 254.039 66.8799 254.468 67.088 254.841C67.296 255.205 67.5735 255.487 67.9203 255.686C68.2671 255.886 68.6616 255.986 69.1037 255.986ZM77.3588 257.078C76.6652 257.078 76.0497 256.926 75.5121 256.623C74.9746 256.319 74.5498 255.903 74.2377 255.374C73.9255 254.837 73.7695 254.23 73.7695 253.554C73.7695 252.869 73.9255 252.262 74.2377 251.733C74.5498 251.204 74.9746 250.792 75.5121 250.498C76.0497 250.194 76.6652 250.042 77.3588 250.042C78.0438 250.042 78.655 250.194 79.1925 250.498C79.7388 250.792 80.1636 251.204 80.467 251.733C80.7792 252.253 80.9352 252.86 80.9352 253.554C80.9352 254.239 80.7792 254.846 80.467 255.374C80.1636 255.903 79.7388 256.319 79.1925 256.623C78.655 256.926 78.0438 257.078 77.3588 257.078ZM77.3588 255.986C77.801 255.986 78.1955 255.886 78.5423 255.686C78.8978 255.487 79.1752 255.205 79.3746 254.841C79.574 254.468 79.6737 254.039 79.6737 253.554C79.6737 253.059 79.574 252.635 79.3746 252.279C79.1752 251.915 78.8978 251.633 78.5423 251.434C78.1955 251.234 77.801 251.135 77.3588 251.135C76.9167 251.135 76.5222 251.234 76.1754 251.434C75.8286 251.633 75.5512 251.915 75.3431 252.279C75.135 252.635 75.031 253.059 75.031 253.554C75.031 254.039 75.135 254.468 75.3431 254.841C75.5512 255.205 75.8286 255.487 76.1754 255.686C76.5222 255.886 76.9167 255.986 77.3588 255.986ZM85.5099 257.078C84.8423 257.078 84.2441 256.931 83.7152 256.636C83.195 256.341 82.7832 255.929 82.4798 255.4C82.1763 254.872 82.0246 254.256 82.0246 253.554C82.0246 252.851 82.1763 252.24 82.4798 251.72C82.7832 251.191 83.195 250.779 83.7152 250.485C84.2441 250.19 84.8423 250.042 85.5099 250.042C86.0908 250.042 86.6153 250.172 87.0835 250.432C87.5517 250.693 87.9245 251.083 88.2019 251.603C88.488 252.123 88.6311 252.773 88.6311 253.554C88.6311 254.334 88.4924 254.984 88.2149 255.504C87.9462 256.025 87.5777 256.419 87.1095 256.688C86.6413 256.948 86.1081 257.078 85.5099 257.078ZM85.6139 255.986C86.0474 255.986 86.4376 255.886 86.7844 255.686C87.1399 255.487 87.4173 255.205 87.6167 254.841C87.8248 254.468 87.9288 254.039 87.9288 253.554C87.9288 253.059 87.8248 252.635 87.6167 252.279C87.4173 251.915 87.1399 251.633 86.7844 251.434C86.4376 251.234 86.0474 251.135 85.6139 251.135C85.1718 251.135 84.7773 251.234 84.4305 251.434C84.0837 251.633 83.8063 251.915 83.5982 252.279C83.3901 252.635 83.2861 253.059 83.2861 253.554C83.2861 254.039 83.3901 254.468 83.5982 254.841C83.8063 255.205 84.0837 255.487 84.4305 255.686C84.7773 255.886 85.1718 255.986 85.6139 255.986ZM87.9678 257V255.14L88.0459 253.541L87.9158 251.941V247.35H89.1643V257H87.9678ZM97.8672 257.078C97.1996 257.078 96.6013 256.931 96.0725 256.636C95.5523 256.341 95.1405 255.929 94.837 255.4C94.5336 254.872 94.3818 254.256 94.3818 253.554C94.3818 252.851 94.5336 252.24 94.837 251.72C95.1405 251.191 95.5523 250.779 96.0725 250.485C96.6013 250.19 97.1996 250.042 97.8672 250.042C98.4481 250.042 98.9726 250.172 99.4408 250.432C99.9089 250.693 100.282 251.083 100.559 251.603C100.845 252.123 100.988 252.773 100.988 253.554C100.988 254.334 100.85 254.984 100.572 255.504C100.303 256.025 99.935 256.419 99.4668 256.688C98.9986 256.948 98.4654 257.078 97.8672 257.078ZM97.9712 255.986C98.4047 255.986 98.7949 255.886 99.1417 255.686C99.4971 255.487 99.7746 255.205 99.974 254.841C100.182 254.468 100.286 254.039 100.286 253.554C100.286 253.059 100.182 252.635 99.974 252.279C99.7746 251.915 99.4971 251.633 99.1417 251.434C98.7949 251.234 98.4047 251.135 97.9712 251.135C97.529 251.135 97.1346 251.234 96.7878 251.434C96.441 251.633 96.1635 251.915 95.9554 252.279C95.7474 252.635 95.6433 253.059 95.6433 253.554C95.6433 254.039 95.7474 254.468 95.9554 254.841C96.1635 255.205 96.441 255.487 96.7878 255.686C97.1346 255.886 97.529 255.986 97.9712 255.986ZM100.325 257V255.14L100.403 253.541L100.273 251.941V247.35H101.522V257H100.325ZM106.953 257.078C106.216 257.078 105.566 256.926 105.002 256.623C104.447 256.319 104.014 255.903 103.702 255.374C103.398 254.846 103.247 254.239 103.247 253.554C103.247 252.869 103.394 252.262 103.689 251.733C103.992 251.204 104.404 250.792 104.924 250.498C105.453 250.194 106.047 250.042 106.706 250.042C107.373 250.042 107.963 250.19 108.475 250.485C108.986 250.779 109.385 251.195 109.671 251.733C109.966 252.262 110.113 252.882 110.113 253.593C110.113 253.645 110.109 253.705 110.1 253.775C110.1 253.844 110.096 253.909 110.087 253.97H104.222V253.073H109.437L108.93 253.385C108.938 252.942 108.847 252.548 108.657 252.201C108.466 251.854 108.201 251.586 107.863 251.395C107.534 251.195 107.148 251.096 106.706 251.096C106.272 251.096 105.887 251.195 105.548 251.395C105.21 251.586 104.946 251.859 104.755 252.214C104.564 252.561 104.469 252.96 104.469 253.411V253.619C104.469 254.078 104.573 254.49 104.781 254.854C104.998 255.21 105.297 255.487 105.678 255.686C106.06 255.886 106.498 255.986 106.992 255.986C107.399 255.986 107.768 255.916 108.097 255.778C108.436 255.639 108.73 255.431 108.982 255.153L109.671 255.96C109.359 256.324 108.969 256.601 108.501 256.792C108.041 256.983 107.525 257.078 106.953 257.078ZM111.847 257V247.35H113.095V257H111.847ZM115.479 257V250.107H116.728V257H115.479ZM116.103 248.781C115.861 248.781 115.657 248.703 115.492 248.547C115.336 248.391 115.258 248.2 115.258 247.975C115.258 247.74 115.336 247.545 115.492 247.389C115.657 247.233 115.861 247.155 116.103 247.155C116.346 247.155 116.545 247.233 116.702 247.389C116.866 247.537 116.949 247.723 116.949 247.949C116.949 248.183 116.871 248.382 116.715 248.547C116.558 248.703 116.355 248.781 116.103 248.781ZM120.919 257L117.902 250.107H119.202L121.881 256.35H121.257L123.988 250.107H125.211L122.193 257H120.919ZM129.254 257.078C128.517 257.078 127.867 256.926 127.304 256.623C126.749 256.319 126.315 255.903 126.003 255.374C125.7 254.846 125.548 254.239 125.548 253.554C125.548 252.869 125.695 252.262 125.99 251.733C126.294 251.204 126.705 250.792 127.226 250.498C127.755 250.194 128.348 250.042 129.007 250.042C129.675 250.042 130.264 250.19 130.776 250.485C131.288 250.779 131.686 251.195 131.972 251.733C132.267 252.262 132.415 252.882 132.415 253.593C132.415 253.645 132.41 253.705 132.402 253.775C132.402 253.844 132.397 253.909 132.389 253.97H126.523V253.073H131.738L131.231 253.385C131.24 252.942 131.149 252.548 130.958 252.201C130.767 251.854 130.503 251.586 130.165 251.395C129.835 251.195 129.45 251.096 129.007 251.096C128.574 251.096 128.188 251.195 127.85 251.395C127.512 251.586 127.247 251.859 127.057 252.214C126.866 252.561 126.77 252.96 126.77 253.411V253.619C126.77 254.078 126.875 254.49 127.083 254.854C127.299 255.21 127.598 255.487 127.98 255.686C128.361 255.886 128.799 255.986 129.293 255.986C129.701 255.986 130.069 255.916 130.399 255.778C130.737 255.639 131.032 255.431 131.283 255.153L131.972 255.96C131.66 256.324 131.27 256.601 130.802 256.792C130.343 256.983 129.827 257.078 129.254 257.078ZM134.148 257V250.107H135.345V251.98L135.228 251.512C135.418 251.035 135.739 250.671 136.19 250.419C136.641 250.168 137.196 250.042 137.855 250.042V251.252C137.803 251.243 137.751 251.239 137.699 251.239C137.655 251.239 137.612 251.239 137.569 251.239C136.901 251.239 136.372 251.438 135.982 251.837C135.592 252.236 135.397 252.812 135.397 253.567V257H134.148ZM139.972 259.601C139.643 259.601 139.322 259.545 139.01 259.432C138.697 259.328 138.429 259.172 138.203 258.964L138.736 258.027C138.91 258.192 139.101 258.318 139.309 258.405C139.517 258.491 139.738 258.535 139.972 258.535C140.275 258.535 140.527 258.457 140.726 258.3C140.926 258.144 141.112 257.867 141.285 257.468L141.715 256.519L141.845 256.363L144.55 250.107H145.772L142.43 257.689C142.23 258.175 142.005 258.556 141.754 258.834C141.511 259.111 141.242 259.306 140.947 259.419C140.653 259.54 140.327 259.601 139.972 259.601ZM141.611 257.221L138.463 250.107H139.764L142.443 256.246L141.611 257.221ZM153.33 257.078C152.74 257.078 152.22 256.97 151.769 256.753C151.327 256.536 150.98 256.207 150.729 255.765C150.486 255.314 150.365 254.75 150.365 254.074V250.107H151.613V253.931C151.613 254.607 151.774 255.114 152.095 255.452C152.424 255.791 152.883 255.96 153.473 255.96C153.907 255.96 154.284 255.873 154.604 255.7C154.925 255.517 155.172 255.257 155.346 254.919C155.519 254.572 155.606 254.156 155.606 253.671V250.107H156.854V257H155.671V255.14L155.866 255.634C155.641 256.094 155.302 256.449 154.852 256.701C154.401 256.952 153.894 257.078 153.33 257.078ZM161.208 257.078C160.636 257.078 160.089 257 159.569 256.844C159.058 256.688 158.655 256.497 158.36 256.272L158.88 255.283C159.175 255.483 159.539 255.652 159.972 255.791C160.406 255.929 160.848 255.999 161.299 255.999C161.88 255.999 162.296 255.916 162.547 255.752C162.807 255.587 162.938 255.357 162.938 255.062C162.938 254.846 162.859 254.676 162.703 254.555C162.547 254.434 162.339 254.343 162.079 254.282C161.828 254.221 161.546 254.169 161.234 254.126C160.922 254.074 160.61 254.013 160.297 253.944C159.985 253.866 159.699 253.762 159.439 253.632C159.179 253.493 158.971 253.307 158.815 253.073C158.659 252.83 158.581 252.509 158.581 252.11C158.581 251.694 158.698 251.33 158.932 251.018C159.166 250.706 159.496 250.467 159.92 250.302C160.354 250.129 160.865 250.042 161.455 250.042C161.906 250.042 162.361 250.099 162.82 250.211C163.289 250.315 163.67 250.467 163.965 250.667L163.432 251.655C163.12 251.447 162.794 251.304 162.456 251.226C162.118 251.148 161.78 251.109 161.442 251.109C160.896 251.109 160.488 251.2 160.219 251.382C159.951 251.555 159.816 251.781 159.816 252.058C159.816 252.292 159.894 252.474 160.05 252.604C160.215 252.726 160.423 252.821 160.675 252.89C160.935 252.96 161.221 253.02 161.533 253.073C161.845 253.116 162.157 253.177 162.469 253.255C162.781 253.324 163.063 253.424 163.315 253.554C163.575 253.684 163.783 253.866 163.939 254.1C164.104 254.334 164.186 254.646 164.186 255.036C164.186 255.452 164.065 255.812 163.822 256.116C163.579 256.419 163.237 256.658 162.794 256.831C162.352 256.996 161.823 257.078 161.208 257.078ZM168.815 257.078C168.079 257.078 167.428 256.926 166.865 256.623C166.31 256.319 165.876 255.903 165.564 255.374C165.261 254.846 165.109 254.239 165.109 253.554C165.109 252.869 165.256 252.262 165.551 251.733C165.855 251.204 166.266 250.792 166.787 250.498C167.316 250.194 167.909 250.042 168.568 250.042C169.236 250.042 169.826 250.19 170.337 250.485C170.849 250.779 171.247 251.195 171.533 251.733C171.828 252.262 171.976 252.882 171.976 253.593C171.976 253.645 171.971 253.705 171.963 253.775C171.963 253.844 171.958 253.909 171.95 253.97H166.084V253.073H171.299L170.792 253.385C170.801 252.942 170.71 252.548 170.519 252.201C170.328 251.854 170.064 251.586 169.726 251.395C169.396 251.195 169.011 251.096 168.568 251.096C168.135 251.096 167.749 251.195 167.411 251.395C167.073 251.586 166.808 251.859 166.618 252.214C166.427 252.561 166.332 252.96 166.332 253.411V253.619C166.332 254.078 166.436 254.49 166.644 254.854C166.86 255.21 167.159 255.487 167.541 255.686C167.922 255.886 168.36 255.986 168.854 255.986C169.262 255.986 169.63 255.916 169.96 255.778C170.298 255.639 170.593 255.431 170.844 255.153L171.533 255.96C171.221 256.324 170.831 256.601 170.363 256.792C169.904 256.983 169.388 257.078 168.815 257.078ZM174.008 257.078C173.766 257.078 173.558 256.996 173.384 256.831C173.211 256.658 173.124 256.441 173.124 256.181C173.124 255.921 173.211 255.708 173.384 255.543C173.558 255.379 173.766 255.296 174.008 255.296C174.242 255.296 174.442 255.379 174.607 255.543C174.78 255.708 174.867 255.921 174.867 256.181C174.867 256.441 174.78 256.658 174.607 256.831C174.442 256.996 174.242 257.078 174.008 257.078Z" fill="black"/>
<defs>
<linearGradient id="paint0_linear_2039_600" x1="103.937" y1="165.095" x2="103.937" y2="12.2402" gradientUnits="userSpaceOnUse">
<stop offset="0.906845" stop-color="#FFF4EA"/>
</linearGradient>
<linearGradient id="paint1_linear_2039_600" x1="103.937" y1="286.734" x2="103.937" y2="297.499" gradientUnits="userSpaceOnUse">
<stop offset="0.365385" stop-color="#899F61"/>
<stop offset="1" stop-color="white"/>
</linearGradient>
</defs>
</svg>
