<svg width="129" height="27" viewBox="0 0 129 27" fill="none" xmlns="http://www.w3.org/2000/svg">
<path d="M5.07619 25.8919L5.04329 2.8519L7.56688 5.3666L0.00690149 5.38249L0.000219004 0.702495L10.8722 0.679647L10.9082 25.8796L5.07619 25.8919ZM26.0864 26.2797C24.0224 26.2841 22.1737 25.7839 20.5403 24.7794C18.9068 23.7508 17.6207 22.2655 16.6819 20.3235C15.7431 18.3814 15.2718 16.0304 15.2678 13.2704C15.2639 10.5104 15.7285 8.15746 16.6618 6.21149C17.595 4.26553 18.8769 2.78683 20.5074 1.7754C22.1379 0.739974 23.9852 0.220091 26.0492 0.215753C28.1372 0.211365 29.9859 0.723481 31.5954 1.7521C33.2288 2.75667 34.5149 4.22997 35.4537 6.172C36.3925 8.11403 36.8638 10.465 36.8678 13.225C36.8717 15.985 36.4071 18.338 35.4739 20.284C34.5406 22.23 33.2588 23.7206 31.6282 24.7561C30.0217 25.7675 28.1744 26.2753 26.0864 26.2797ZM26.0794 21.3477C27.0634 21.3457 27.915 21.0679 28.6342 20.5144C29.3774 19.9608 29.9521 19.0836 30.3584 17.8827C30.7887 16.6818 31.0025 15.1334 30.9998 13.2374C30.9971 11.3414 30.7789 9.79383 30.3452 8.59474C29.9355 7.3956 29.3582 6.52081 28.6134 5.97037C27.8926 5.41989 27.0402 5.14568 26.0562 5.14775C25.0962 5.14976 24.2446 5.42755 23.5014 5.98112C22.7822 6.53463 22.2075 7.41184 21.7772 8.61275C21.3709 9.8136 21.1691 11.362 21.1718 13.258C21.1745 15.154 21.3807 16.7016 21.7904 17.9007C22.2242 19.0998 22.8014 19.9746 23.5222 20.5251C24.267 21.0755 25.1194 21.3497 26.0794 21.3477ZM50.52 26.2284C48.456 26.2327 46.6072 25.7326 44.9738 24.728C43.3403 23.6995 42.0542 22.2142 41.1154 20.2721C40.1767 18.3301 39.7053 15.9791 39.7014 13.2191C39.6974 10.4591 40.1621 8.10611 41.0953 6.16015C42.0285 4.21418 43.3104 2.73548 44.941 1.72405C46.5715 0.688627 48.4187 0.168744 50.4827 0.164406C52.5707 0.160018 54.4195 0.672134 56.0289 1.70075C57.6624 2.70532 58.9485 4.17862 59.8873 6.12065C60.826 8.06268 61.2974 10.4137 61.3013 13.1737C61.3053 15.9337 60.8406 18.2867 59.9074 20.2326C58.9742 22.1786 57.6923 23.6693 56.0618 24.7047C54.4552 25.7161 52.608 26.224 50.52 26.2284ZM50.5129 21.2964C51.4969 21.2943 52.3485 21.0165 53.0677 20.463C53.8109 19.9095 54.3857 19.0322 54.792 17.8314C55.2223 16.6305 55.436 15.082 55.4333 13.186C55.4306 11.29 55.2124 9.74248 54.7787 8.54339C54.369 7.34425 53.7917 6.46946 53.047 5.91903C52.3262 5.36854 51.4738 5.09433 50.4898 5.0964C49.5298 5.09842 48.6782 5.37621 47.935 5.92977C47.2158 6.48328 46.641 7.36049 46.2107 8.5614C45.8044 9.76226 45.6027 11.3107 45.6054 13.2067C45.6081 15.1027 45.8143 16.6502 46.224 17.8494C46.6577 19.0485 47.2349 19.9233 47.9557 20.4738C48.7005 21.0242 49.5529 21.2984 50.5129 21.2964ZM75.9322 25.743L75.8962 0.542999L80.7202 0.532862L91.4736 18.2943L88.9176 18.2997L99.4402 0.493522L104.228 0.48346L104.336 25.6833L98.8641 25.6948L98.8041 8.88288L99.8121 8.88076L91.4083 23.0464L88.7804 23.052L80.1562 8.92206L81.3802 8.91949L81.4042 25.7315L75.9322 25.743ZM110.315 25.6707L110.279 0.470744L116.111 0.458488L116.14 20.9065L128.776 20.8799L128.783 25.6319L110.315 25.6707Z" fill="black"/>
</svg>
