<svg width="119" height="28" viewBox="0 0 119 28" fill="none" xmlns="http://www.w3.org/2000/svg">
<path d="M5.07813 26.9511L5.04524 3.91113L7.56883 6.42584L0.0088461 6.44172L0.00216361 1.76173L10.8741 1.73888L10.9101 26.9389L5.07813 26.9511ZM26.0884 27.339C24.0244 27.3433 22.1757 26.8432 20.5422 25.8386C18.9087 24.81 17.6226 23.3247 16.6838 21.3827C15.7451 19.4407 15.2737 17.0897 15.2698 14.3297C15.2658 11.5697 15.7305 9.21669 16.6637 7.27073C17.5969 5.32476 18.8788 3.84606 20.5094 2.83464C22.1399 1.79921 23.9871 1.27932 26.0511 1.27499C28.1391 1.2706 29.9879 1.78271 31.5973 2.81133C33.2308 3.8159 34.5169 5.2892 35.4557 7.23124C36.3944 9.17327 36.8658 11.5243 36.8697 14.2843C36.8737 17.0443 36.409 19.3973 35.4758 21.3432C34.5426 23.2892 33.2607 24.7799 31.6302 25.8153C30.0236 26.8267 28.1764 27.3346 26.0884 27.339ZM26.0813 22.407C27.0653 22.4049 27.9169 22.1271 28.6361 21.5736C29.3793 21.02 29.9541 20.1428 30.3604 18.942C30.7907 17.7411 31.0044 16.1926 31.0017 14.2966C30.999 12.4006 30.7808 10.8531 30.3471 9.65397C29.9374 8.45483 29.3601 7.58004 28.6154 7.02961C27.8946 6.47912 27.0422 6.20491 26.0582 6.20698C25.0982 6.209 24.2466 6.48679 23.5034 7.04035C22.7842 7.59386 22.2094 8.47107 21.7791 9.67198C21.3728 10.8728 21.1711 12.4213 21.1738 14.3173C21.1765 16.2133 21.3827 17.7608 21.7924 18.96C22.2261 20.1591 22.8034 21.0339 23.5241 21.5843C24.2689 22.1348 25.1213 22.409 26.0813 22.407ZM50.5219 27.2876C48.4579 27.2919 46.6092 26.7918 44.9758 25.7873C43.3423 24.7587 42.0562 23.2734 41.1174 21.3314C40.1786 19.3893 39.7073 17.0383 39.7033 14.2783C39.6994 11.5183 40.164 9.16534 41.0972 7.21938C42.0305 5.27341 43.3123 3.79472 44.9429 2.78329C46.5734 1.74786 48.4207 1.22798 50.4847 1.22364C52.5727 1.21925 54.4214 1.73137 56.0309 2.75999C57.6643 3.76456 58.9504 5.23786 59.8892 7.17989C60.828 9.12192 61.2993 11.4729 61.3033 14.2329C61.3072 16.9929 60.8426 19.3459 59.9093 21.2919C58.9761 23.2378 57.6943 24.7285 56.0637 25.764C54.4572 26.7753 52.6099 27.2832 50.5219 27.2876ZM50.5149 22.3556C51.4989 22.3535 52.3505 22.0758 53.0697 21.5222C53.8129 20.9687 54.3876 20.0915 54.7939 18.8906C55.2242 17.6897 55.438 16.1413 55.4353 14.2453C55.4326 12.3493 55.2144 10.8017 54.7807 9.60263C54.3709 8.40349 53.7937 7.5287 53.0489 6.97826C52.3281 6.42777 51.4757 6.15357 50.4917 6.15563C49.5317 6.15765 48.6801 6.43544 47.9369 6.989C47.2177 7.54252 46.643 8.41973 46.2127 9.62063C45.8064 10.8215 45.6046 12.3699 45.6073 14.2659C45.61 16.1619 45.8162 17.7095 46.2259 18.9086C46.6596 20.1077 47.2369 20.9825 47.9577 21.533C48.7025 22.0834 49.5549 22.3576 50.5149 22.3556ZM100.314 7.09494C101.85 7.09171 103.206 7.40086 104.383 8.02238C105.584 8.61986 106.522 9.55389 107.195 10.8245C107.893 12.071 108.243 13.6783 108.246 15.6463L108.262 26.7343L102.646 26.7461L102.631 16.5221C102.629 14.9621 102.304 13.8108 101.655 13.0681C101.005 12.3255 100.093 11.9554 98.917 11.9579C98.101 11.9596 97.3692 12.1531 96.7218 12.5385C96.0743 12.8999 95.5711 13.4529 95.2121 14.1977C94.8532 14.9424 94.6746 15.8908 94.6762 17.0428L94.6901 26.7628L89.0741 26.7746L89.0595 16.5506C89.0573 14.9906 88.7316 13.8393 88.0826 13.0967C87.4575 12.354 86.557 11.9839 85.381 11.9863C84.565 11.988 83.8333 12.1816 83.1858 12.5669C82.5383 12.9283 82.0351 13.4814 81.6762 14.2261C81.3172 14.9709 81.1386 15.9192 81.1402 17.0712L81.1541 26.7912L75.5381 26.803L75.5105 7.43506L80.8745 7.42379L80.882 12.7158L79.8718 11.1699C80.5419 9.84849 81.4885 8.8505 82.7115 8.17593C83.9585 7.47731 85.374 7.12633 86.958 7.123C88.734 7.11927 90.2827 7.57202 91.604 8.48124C92.9492 9.36642 93.8392 10.7325 94.2738 12.5796L92.2931 12.0438C92.9389 10.5304 93.9692 9.32827 95.3839 8.4373C96.8227 7.54627 98.466 7.09882 100.314 7.09494ZM113.296 26.7237L113.258 0.0117188L118.874 -8.31874e-05L118.912 26.7119L113.296 26.7237Z" fill="black"/>
</svg>
