<svg width="399" height="52" viewBox="0 0 399 52" fill="none" xmlns="http://www.w3.org/2000/svg">
<path d="M9.74269 18.128C8.88935 18.128 8.10002 17.9893 7.37469 17.712C6.66002 17.424 6.03602 17.024 5.50269 16.512C4.98002 15.9893 4.56935 15.3813 4.27069 14.688C3.97202 13.9947 3.82269 13.232 3.82269 12.4C3.82269 11.568 3.97202 10.8053 4.27069 10.112C4.56935 9.41867 4.98535 8.816 5.51869 8.304C6.05202 7.78133 6.67602 7.38133 7.39069 7.104C8.11602 6.816 8.90535 6.672 9.75869 6.672C10.6227 6.672 11.4174 6.82133 12.1427 7.12C12.8787 7.408 13.5027 7.84 14.0147 8.416L12.9747 9.424C12.548 8.976 12.068 8.64533 11.5347 8.432C11.0014 8.208 10.4307 8.096 9.82269 8.096C9.19335 8.096 8.60669 8.20267 8.06269 8.416C7.52935 8.62933 7.06535 8.928 6.67069 9.312C6.27602 9.696 5.96669 10.1547 5.74269 10.688C5.52935 11.2107 5.42269 11.7813 5.42269 12.4C5.42269 13.0187 5.52935 13.5947 5.74269 14.128C5.96669 14.6507 6.27602 15.104 6.67069 15.488C7.06535 15.872 7.52935 16.1707 8.06269 16.384C8.60669 16.5973 9.19335 16.704 9.82269 16.704C10.4307 16.704 11.0014 16.5973 11.5347 16.384C12.068 16.16 12.548 15.8187 12.9747 15.36L14.0147 16.368C13.5027 16.944 12.8787 17.3813 12.1427 17.68C11.4174 17.9787 10.6174 18.128 9.74269 18.128ZM19.3458 18.096C18.4925 18.096 17.7351 17.9093 17.0738 17.536C16.4125 17.1627 15.8898 16.6507 15.5058 16C15.1218 15.3387 14.9298 14.592 14.9298 13.76C14.9298 12.9173 15.1218 12.1707 15.5058 11.52C15.8898 10.8693 16.4125 10.3627 17.0738 10C17.7351 9.62667 18.4925 9.44 19.3458 9.44C20.1885 9.44 20.9405 9.62667 21.6018 10C22.2738 10.3627 22.7965 10.8693 23.1698 11.52C23.5538 12.16 23.7458 12.9067 23.7458 13.76C23.7458 14.6027 23.5538 15.3493 23.1698 16C22.7965 16.6507 22.2738 17.1627 21.6018 17.536C20.9405 17.9093 20.1885 18.096 19.3458 18.096ZM19.3458 16.752C19.8898 16.752 20.3751 16.6293 20.8018 16.384C21.2391 16.1387 21.5805 15.792 21.8258 15.344C22.0711 14.8853 22.1938 14.3573 22.1938 13.76C22.1938 13.152 22.0711 12.6293 21.8258 12.192C21.5805 11.744 21.2391 11.3973 20.8018 11.152C20.3751 10.9067 19.8898 10.784 19.3458 10.784C18.8018 10.784 18.3165 10.9067 17.8898 11.152C17.4631 11.3973 17.1218 11.744 16.8658 12.192C16.6098 12.6293 16.4818 13.152 16.4818 13.76C16.4818 14.3573 16.6098 14.8853 16.8658 15.344C17.1218 15.792 17.4631 16.1387 17.8898 16.384C18.3165 16.6293 18.8018 16.752 19.3458 16.752ZM36.4781 9.44C37.1607 9.44 37.7634 9.57333 38.2861 9.84C38.8087 10.1067 39.2141 10.512 39.5021 11.056C39.8007 11.6 39.9501 12.288 39.9501 13.12V18H38.4141V13.296C38.4141 12.4747 38.2221 11.856 37.8381 11.44C37.4541 11.024 36.9154 10.816 36.2221 10.816C35.7101 10.816 35.2621 10.9227 34.8781 11.136C34.4941 11.3493 34.1954 11.664 33.9821 12.08C33.7794 12.496 33.6781 13.0133 33.6781 13.632V18H32.1421V13.296C32.1421 12.4747 31.9501 11.856 31.5661 11.44C31.1927 11.024 30.6541 10.816 29.9501 10.816C29.4487 10.816 29.0061 10.9227 28.6221 11.136C28.2381 11.3493 27.9394 11.664 27.7261 12.08C27.5127 12.496 27.4061 13.0133 27.4061 13.632V18H25.8701V9.52H27.3421V11.776L27.1021 11.2C27.3687 10.6453 27.7794 10.2133 28.3341 9.904C28.8887 9.59467 29.5341 9.44 30.2701 9.44C31.0807 9.44 31.7794 9.64267 32.3661 10.048C32.9527 10.4427 33.3367 11.0453 33.5181 11.856L32.8941 11.6C33.1501 10.9493 33.5981 10.4267 34.2381 10.032C34.8781 9.63733 35.6247 9.44 36.4781 9.44ZM47.2723 18.096C46.5683 18.096 45.923 17.936 45.3363 17.616C44.7603 17.2853 44.2963 16.8 43.9443 16.16C43.603 15.52 43.4323 14.72 43.4323 13.76C43.4323 12.8 43.5976 12 43.9283 11.36C44.2696 10.72 44.7283 10.24 45.3043 9.92C45.891 9.6 46.547 9.44 47.2723 9.44C48.1043 9.44 48.8403 9.62133 49.4803 9.984C50.1203 10.3467 50.627 10.8533 51.0003 11.504C51.3736 12.144 51.5603 12.896 51.5603 13.76C51.5603 14.624 51.3736 15.3813 51.0003 16.032C50.627 16.6827 50.1203 17.1893 49.4803 17.552C48.8403 17.9147 48.1043 18.096 47.2723 18.096ZM42.7763 21.104V9.52H44.2483V11.808L44.1523 13.776L44.3123 15.744V21.104H42.7763ZM47.1443 16.752C47.6883 16.752 48.1736 16.6293 48.6003 16.384C49.0376 16.1387 49.379 15.792 49.6243 15.344C49.8803 14.8853 50.0083 14.3573 50.0083 13.76C50.0083 13.152 49.8803 12.6293 49.6243 12.192C49.379 11.744 49.0376 11.3973 48.6003 11.152C48.1736 10.9067 47.6883 10.784 47.1443 10.784C46.611 10.784 46.1256 10.9067 45.6883 11.152C45.2616 11.3973 44.9203 11.744 44.6643 12.192C44.419 12.6293 44.2963 13.152 44.2963 13.76C44.2963 14.3573 44.419 14.8853 44.6643 15.344C44.9203 15.792 45.2616 16.1387 45.6883 16.384C46.1256 16.6293 46.611 16.752 47.1443 16.752ZM58.8684 18V16.208L58.7884 15.872V12.816C58.7884 12.1653 58.5964 11.664 58.2124 11.312C57.8391 10.9493 57.2738 10.768 56.5164 10.768C56.0151 10.768 55.5244 10.8533 55.0444 11.024C54.5644 11.184 54.1591 11.4027 53.8284 11.68L53.1884 10.528C53.6258 10.176 54.1484 9.90933 54.7564 9.728C55.3751 9.536 56.0204 9.44 56.6924 9.44C57.8551 9.44 58.7511 9.72267 59.3804 10.288C60.0098 10.8533 60.3244 11.7173 60.3244 12.88V18H58.8684ZM56.0844 18.096C55.4551 18.096 54.9004 17.9893 54.4204 17.776C53.9511 17.5627 53.5884 17.2693 53.3324 16.896C53.0764 16.512 52.9484 16.08 52.9484 15.6C52.9484 15.1413 53.0551 14.7253 53.2684 14.352C53.4924 13.9787 53.8498 13.68 54.3404 13.456C54.8418 13.232 55.5138 13.12 56.3564 13.12H59.0444V14.224H56.4204C55.6524 14.224 55.1351 14.352 54.8684 14.608C54.6018 14.864 54.4684 15.1733 54.4684 15.536C54.4684 15.952 54.6338 16.288 54.9644 16.544C55.2951 16.7893 55.7538 16.912 56.3404 16.912C56.9164 16.912 57.4178 16.784 57.8444 16.528C58.2818 16.272 58.5964 15.8987 58.7884 15.408L59.0924 16.464C58.8898 16.9653 58.5324 17.3653 58.0204 17.664C57.5084 17.952 56.8631 18.096 56.0844 18.096ZM66.8629 18.096C65.9989 18.096 65.2256 17.9093 64.5429 17.536C63.8709 17.1627 63.3429 16.6507 62.9589 16C62.5749 15.3493 62.3829 14.6027 62.3829 13.76C62.3829 12.9173 62.5749 12.1707 62.9589 11.52C63.3429 10.8693 63.8709 10.3627 64.5429 10C65.2256 9.62667 65.9989 9.44 66.8629 9.44C67.6309 9.44 68.3136 9.59467 68.9109 9.904C69.5189 10.2027 69.9883 10.6507 70.3189 11.248L69.1509 12C68.8736 11.584 68.5323 11.28 68.1269 11.088C67.7323 10.8853 67.3056 10.784 66.8469 10.784C66.2923 10.784 65.7963 10.9067 65.3589 11.152C64.9216 11.3973 64.5749 11.744 64.3189 12.192C64.0629 12.6293 63.9349 13.152 63.9349 13.76C63.9349 14.368 64.0629 14.896 64.3189 15.344C64.5749 15.792 64.9216 16.1387 65.3589 16.384C65.7963 16.6293 66.2923 16.752 66.8469 16.752C67.3056 16.752 67.7323 16.656 68.1269 16.464C68.5323 16.2613 68.8736 15.952 69.1509 15.536L70.3189 16.272C69.9883 16.8587 69.5189 17.312 68.9109 17.632C68.3136 17.9413 67.6309 18.096 66.8629 18.096ZM75.3289 18.096C74.4756 18.096 73.8143 17.8667 73.3449 17.408C72.8756 16.9493 72.6409 16.2933 72.6409 15.44V7.664H74.1769V15.376C74.1769 15.8347 74.2889 16.1867 74.5129 16.432C74.7476 16.6773 75.0783 16.8 75.5049 16.8C75.9849 16.8 76.3849 16.6667 76.7049 16.4L77.1849 17.504C76.9503 17.7067 76.6676 17.856 76.3369 17.952C76.0169 18.048 75.6809 18.096 75.3289 18.096ZM71.2009 10.784V9.52H76.6089V10.784H71.2009ZM78.5902 20.368L79.3902 17.136L79.5982 18.064C79.2889 18.064 79.0275 17.968 78.8142 17.776C78.6115 17.584 78.5102 17.3227 78.5102 16.992C78.5102 16.672 78.6115 16.4107 78.8142 16.208C79.0275 16.0053 79.2835 15.904 79.5822 15.904C79.8915 15.904 80.1422 16.0107 80.3342 16.224C80.5262 16.4267 80.6222 16.6827 80.6222 16.992C80.6222 17.0987 80.6115 17.2053 80.5902 17.312C80.5795 17.408 80.5529 17.5253 80.5102 17.664C80.4782 17.792 80.4249 17.952 80.3502 18.144L79.5982 20.368H78.5902ZM90.6241 18.096C89.8027 18.096 89.0667 17.9147 88.4161 17.552C87.7761 17.1893 87.2694 16.6827 86.8961 16.032C86.5227 15.3813 86.3361 14.624 86.3361 13.76C86.3361 12.896 86.5227 12.144 86.8961 11.504C87.2694 10.8533 87.7761 10.3467 88.4161 9.984C89.0667 9.62133 89.8027 9.44 90.6241 9.44C91.3387 9.44 91.9841 9.6 92.5601 9.92C93.1361 10.24 93.5947 10.72 93.9361 11.36C94.2881 12 94.4641 12.8 94.4641 13.76C94.4641 14.72 94.2934 15.52 93.9521 16.16C93.6214 16.8 93.1681 17.2853 92.5921 17.616C92.0161 17.936 91.3601 18.096 90.6241 18.096ZM90.7521 16.752C91.2854 16.752 91.7654 16.6293 92.1921 16.384C92.6294 16.1387 92.9707 15.792 93.2161 15.344C93.4721 14.8853 93.6001 14.3573 93.6001 13.76C93.6001 13.152 93.4721 12.6293 93.2161 12.192C92.9707 11.744 92.6294 11.3973 92.1921 11.152C91.7654 10.9067 91.2854 10.784 90.7521 10.784C90.2081 10.784 89.7227 10.9067 89.2961 11.152C88.8694 11.3973 88.5281 11.744 88.2721 12.192C88.0161 12.6293 87.8881 13.152 87.8881 13.76C87.8881 14.3573 88.0161 14.8853 88.2721 15.344C88.5281 15.792 88.8694 16.1387 89.2961 16.384C89.7227 16.6293 90.2081 16.752 90.7521 16.752ZM93.6481 18V15.712L93.7441 13.744L93.5841 11.776V6.128H95.1201V18H93.6481ZM101.594 18.096C100.869 18.096 100.229 17.9627 99.6743 17.696C99.1303 17.4293 98.7036 17.024 98.3943 16.48C98.0956 15.9253 97.9463 15.232 97.9463 14.4V9.52H99.4823V14.224C99.4823 15.056 99.6796 15.68 100.074 16.096C100.48 16.512 101.045 16.72 101.77 16.72C102.304 16.72 102.768 16.6133 103.162 16.4C103.557 16.176 103.861 15.856 104.074 15.44C104.288 15.0133 104.394 14.5013 104.394 13.904V9.52H105.93V18H104.474V15.712L104.714 16.32C104.437 16.8853 104.021 17.3227 103.466 17.632C102.912 17.9413 102.288 18.096 101.594 18.096ZM108.854 18V9.52H110.326V11.824L110.182 11.248C110.417 10.6613 110.812 10.2133 111.366 9.904C111.921 9.59467 112.604 9.44 113.414 9.44V10.928C113.35 10.9173 113.286 10.912 113.222 10.912C113.169 10.912 113.116 10.912 113.062 10.912C112.241 10.912 111.59 11.1573 111.11 11.648C110.63 12.1387 110.39 12.848 110.39 13.776V18H108.854ZM119.947 18V16.208L119.867 15.872V12.816C119.867 12.1653 119.675 11.664 119.291 11.312C118.917 10.9493 118.352 10.768 117.595 10.768C117.093 10.768 116.603 10.8533 116.123 11.024C115.643 11.184 115.237 11.4027 114.907 11.68L114.267 10.528C114.704 10.176 115.227 9.90933 115.835 9.728C116.453 9.536 117.099 9.44 117.771 9.44C118.933 9.44 119.829 9.72267 120.459 10.288C121.088 10.8533 121.403 11.7173 121.403 12.88V18H119.947ZM117.163 18.096C116.533 18.096 115.979 17.9893 115.499 17.776C115.029 17.5627 114.667 17.2693 114.411 16.896C114.155 16.512 114.027 16.08 114.027 15.6C114.027 15.1413 114.133 14.7253 114.347 14.352C114.571 13.9787 114.928 13.68 115.419 13.456C115.92 13.232 116.592 13.12 117.435 13.12H120.123V14.224H117.499C116.731 14.224 116.213 14.352 115.947 14.608C115.68 14.864 115.547 15.1733 115.547 15.536C115.547 15.952 115.712 16.288 116.043 16.544C116.373 16.7893 116.832 16.912 117.419 16.912C117.995 16.912 118.496 16.784 118.923 16.528C119.36 16.272 119.675 15.8987 119.867 15.408L120.171 16.464C119.968 16.9653 119.611 17.3653 119.099 17.664C118.587 17.952 117.941 18.096 117.163 18.096ZM128.741 18.096C128.016 18.096 127.36 17.936 126.773 17.616C126.197 17.2853 125.738 16.8 125.397 16.16C125.066 15.52 124.901 14.72 124.901 13.76C124.901 12.8 125.072 12 125.413 11.36C125.765 10.72 126.229 10.24 126.805 9.92C127.392 9.6 128.037 9.44 128.741 9.44C129.573 9.44 130.309 9.62133 130.949 9.984C131.589 10.3467 132.096 10.8533 132.469 11.504C132.842 12.144 133.029 12.896 133.029 13.76C133.029 14.624 132.842 15.3813 132.469 16.032C132.096 16.6827 131.589 17.1893 130.949 17.552C130.309 17.9147 129.573 18.096 128.741 18.096ZM124.245 18V6.128H125.781V11.776L125.621 13.744L125.717 15.712V18H124.245ZM128.613 16.752C129.157 16.752 129.642 16.6293 130.069 16.384C130.506 16.1387 130.848 15.792 131.093 15.344C131.349 14.8853 131.477 14.3573 131.477 13.76C131.477 13.152 131.349 12.6293 131.093 12.192C130.848 11.744 130.506 11.3973 130.069 11.152C129.642 10.9067 129.157 10.784 128.613 10.784C128.08 10.784 127.594 10.9067 127.157 11.152C126.73 11.3973 126.389 11.744 126.133 12.192C125.888 12.6293 125.765 13.152 125.765 13.76C125.765 14.3573 125.888 14.8853 126.133 15.344C126.389 15.792 126.73 16.1387 127.157 16.384C127.594 16.6293 128.08 16.752 128.613 16.752ZM135.151 18V6.128H136.687V18H135.151ZM143.396 18.096C142.489 18.096 141.689 17.9093 140.996 17.536C140.313 17.1627 139.78 16.6507 139.396 16C139.023 15.3493 138.836 14.6027 138.836 13.76C138.836 12.9173 139.017 12.1707 139.38 11.52C139.753 10.8693 140.26 10.3627 140.9 10C141.551 9.62667 142.281 9.44 143.092 9.44C143.913 9.44 144.639 9.62133 145.268 9.984C145.897 10.3467 146.388 10.8587 146.74 11.52C147.103 12.1707 147.284 12.9333 147.284 13.808C147.284 13.872 147.279 13.9467 147.268 14.032C147.268 14.1173 147.263 14.1973 147.252 14.272H140.036V13.168H146.452L145.828 13.552C145.839 13.008 145.727 12.5227 145.492 12.096C145.257 11.6693 144.932 11.3387 144.516 11.104C144.111 10.8587 143.636 10.736 143.092 10.736C142.559 10.736 142.084 10.8587 141.668 11.104C141.252 11.3387 140.927 11.6747 140.692 12.112C140.457 12.5387 140.34 13.0293 140.34 13.584V13.84C140.34 14.4053 140.468 14.912 140.724 15.36C140.991 15.7973 141.359 16.1387 141.828 16.384C142.297 16.6293 142.836 16.752 143.444 16.752C143.945 16.752 144.399 16.6667 144.804 16.496C145.22 16.3253 145.583 16.0693 145.892 15.728L146.74 16.72C146.356 17.168 145.876 17.5093 145.3 17.744C144.735 17.9787 144.1 18.096 143.396 18.096ZM153.972 18V6.8H155.156V18H153.972ZM158.801 18V6.8H159.777L164.897 15.536H164.385L169.457 6.8H170.433V18H169.297V8.576H169.569L164.897 16.576H164.337L159.633 8.576H159.937V18H158.801ZM174.082 18V6.8H175.266V16.976H181.538V18H174.082ZM187.691 18V6.8H191.883C192.833 6.8 193.649 6.95467 194.331 7.264C195.014 7.56267 195.537 8 195.899 8.576C196.273 9.14133 196.459 9.82933 196.459 10.64C196.459 11.4293 196.273 12.112 195.899 12.688C195.537 13.2533 195.014 13.6907 194.331 14C193.649 14.2987 192.833 14.448 191.883 14.448H188.347L188.875 13.904V18H187.691ZM195.339 18L192.459 13.936H193.739L196.635 18H195.339ZM188.875 14L188.347 13.44H191.851C192.971 13.44 193.819 13.1947 194.395 12.704C194.982 12.2133 195.275 11.5253 195.275 10.64C195.275 9.744 194.982 9.05067 194.395 8.56C193.819 8.06933 192.971 7.824 191.851 7.824H188.347L188.875 7.264V14ZM202.438 18.08C201.627 18.08 200.896 17.8987 200.246 17.536C199.606 17.1627 199.099 16.656 198.726 16.016C198.352 15.3653 198.166 14.624 198.166 13.792C198.166 12.9493 198.352 12.208 198.726 11.568C199.099 10.928 199.606 10.4267 200.246 10.064C200.886 9.70133 201.616 9.52 202.438 9.52C203.27 9.52 204.006 9.70133 204.646 10.064C205.296 10.4267 205.803 10.928 206.166 11.568C206.539 12.208 206.726 12.9493 206.726 13.792C206.726 14.624 206.539 15.3653 206.166 16.016C205.803 16.656 205.296 17.1627 204.646 17.536C203.995 17.8987 203.259 18.08 202.438 18.08ZM202.438 17.072C203.046 17.072 203.584 16.9387 204.054 16.672C204.523 16.3947 204.891 16.0107 205.158 15.52C205.435 15.0187 205.574 14.4427 205.574 13.792C205.574 13.1307 205.435 12.5547 205.158 12.064C204.891 11.5733 204.523 11.1947 204.054 10.928C203.584 10.6507 203.051 10.512 202.454 10.512C201.856 10.512 201.323 10.6507 200.854 10.928C200.384 11.1947 200.011 11.5733 199.734 12.064C199.456 12.5547 199.318 13.1307 199.318 13.792C199.318 14.4427 199.456 15.0187 199.734 15.52C200.011 16.0107 200.384 16.3947 200.854 16.672C201.323 16.9387 201.851 17.072 202.438 17.072ZM212.517 18.08C211.802 18.08 211.178 17.9467 210.645 17.68C210.112 17.4133 209.696 17.0133 209.397 16.48C209.109 15.9467 208.965 15.28 208.965 14.48V9.6H210.101V14.352C210.101 15.248 210.32 15.9253 210.757 16.384C211.205 16.832 211.829 17.056 212.629 17.056C213.216 17.056 213.722 16.9387 214.149 16.704C214.586 16.4587 214.917 16.1067 215.141 15.648C215.376 15.1893 215.493 14.64 215.493 14V9.6H216.629V18H215.541V15.696L215.717 16.112C215.45 16.7307 215.034 17.216 214.469 17.568C213.914 17.9093 213.264 18.08 212.517 18.08ZM224.083 9.52C224.766 9.52 225.363 9.65333 225.875 9.92C226.398 10.176 226.803 10.5707 227.091 11.104C227.39 11.6373 227.539 12.3093 227.539 13.12V18H226.403V13.232C226.403 12.3467 226.179 11.68 225.731 11.232C225.294 10.7733 224.675 10.544 223.875 10.544C223.278 10.544 222.755 10.6667 222.307 10.912C221.87 11.1467 221.528 11.4933 221.283 11.952C221.048 12.4 220.931 12.944 220.931 13.584V18H219.795V9.6H220.883V11.904L220.707 11.472C220.974 10.864 221.4 10.3893 221.987 10.048C222.574 9.696 223.272 9.52 224.083 9.52ZM233.951 18.08C233.151 18.08 232.431 17.8987 231.791 17.536C231.162 17.1733 230.666 16.672 230.303 16.032C229.941 15.3813 229.759 14.6347 229.759 13.792C229.759 12.9387 229.941 12.192 230.303 11.552C230.666 10.912 231.162 10.416 231.791 10.064C232.431 9.70133 233.151 9.52 233.951 9.52C234.687 9.52 235.343 9.68533 235.919 10.016C236.506 10.3467 236.97 10.832 237.311 11.472C237.663 12.1013 237.839 12.8747 237.839 13.792C237.839 14.6987 237.669 15.472 237.327 16.112C236.986 16.752 236.522 17.2427 235.935 17.584C235.359 17.9147 234.698 18.08 233.951 18.08ZM234.031 17.072C234.629 17.072 235.162 16.9387 235.631 16.672C236.111 16.3947 236.485 16.0107 236.751 15.52C237.029 15.0187 237.167 14.4427 237.167 13.792C237.167 13.1307 237.029 12.5547 236.751 12.064C236.485 11.5733 236.111 11.1947 235.631 10.928C235.162 10.6507 234.629 10.512 234.031 10.512C233.445 10.512 232.917 10.6507 232.447 10.928C231.978 11.1947 231.605 11.5733 231.327 12.064C231.05 12.5547 230.911 13.1307 230.911 13.792C230.911 14.4427 231.05 15.0187 231.327 15.52C231.605 16.0107 231.978 16.3947 232.447 16.672C232.917 16.9387 233.445 17.072 234.031 17.072ZM237.199 18V15.472L237.311 13.776L237.151 12.08V6.128H238.287V18H237.199ZM249.127 18.08C248.295 18.08 247.548 17.8987 246.887 17.536C246.236 17.1627 245.724 16.656 245.351 16.016C244.977 15.3653 244.791 14.624 244.791 13.792C244.791 12.9493 244.977 12.208 245.351 11.568C245.724 10.928 246.236 10.4267 246.887 10.064C247.548 9.70133 248.295 9.52 249.127 9.52C249.841 9.52 250.487 9.65867 251.063 9.936C251.639 10.2133 252.092 10.6293 252.423 11.184L251.575 11.76C251.287 11.3333 250.929 11.0187 250.503 10.816C250.076 10.6133 249.612 10.512 249.111 10.512C248.513 10.512 247.975 10.6507 247.495 10.928C247.015 11.1947 246.636 11.5733 246.359 12.064C246.081 12.5547 245.943 13.1307 245.943 13.792C245.943 14.4533 246.081 15.0293 246.359 15.52C246.636 16.0107 247.015 16.3947 247.495 16.672C247.975 16.9387 248.513 17.072 249.111 17.072C249.612 17.072 250.076 16.9707 250.503 16.768C250.929 16.5653 251.287 16.256 251.575 15.84L252.423 16.416C252.092 16.96 251.639 17.376 251.063 17.664C250.487 17.9413 249.841 18.08 249.127 18.08ZM258.126 18.08C257.412 18.08 256.788 17.9467 256.254 17.68C255.721 17.4133 255.305 17.0133 255.006 16.48C254.718 15.9467 254.574 15.28 254.574 14.48V9.6H255.71V14.352C255.71 15.248 255.929 15.9253 256.366 16.384C256.814 16.832 257.438 17.056 258.238 17.056C258.825 17.056 259.332 16.9387 259.758 16.704C260.196 16.4587 260.526 16.1067 260.75 15.648C260.985 15.1893 261.102 14.64 261.102 14V9.6H262.238V18H261.15V15.696L261.326 16.112C261.06 16.7307 260.644 17.216 260.078 17.568C259.524 17.9093 258.873 18.08 258.126 18.08ZM269.74 18.08C269.015 18.08 268.359 17.9147 267.772 17.584C267.186 17.2427 266.716 16.7573 266.364 16.128C266.023 15.488 265.852 14.7093 265.852 13.792C265.852 12.8747 266.023 12.1013 266.364 11.472C266.706 10.832 267.17 10.3467 267.756 10.016C268.343 9.68533 269.004 9.52 269.74 9.52C270.54 9.52 271.255 9.70133 271.884 10.064C272.524 10.416 273.026 10.9173 273.388 11.568C273.751 12.208 273.932 12.9493 273.932 13.792C273.932 14.6453 273.751 15.392 273.388 16.032C273.026 16.672 272.524 17.1733 271.884 17.536C271.255 17.8987 270.54 18.08 269.74 18.08ZM265.404 21.104V9.6H266.492V12.128L266.38 13.808L266.54 15.504V21.104H265.404ZM269.66 17.072C270.258 17.072 270.791 16.9387 271.26 16.672C271.73 16.3947 272.103 16.0107 272.38 15.52C272.658 15.0187 272.796 14.4427 272.796 13.792C272.796 13.1413 272.658 12.5707 272.38 12.08C272.103 11.5893 271.73 11.2053 271.26 10.928C270.791 10.6507 270.258 10.512 269.66 10.512C269.063 10.512 268.524 10.6507 268.044 10.928C267.575 11.2053 267.202 11.5893 266.924 12.08C266.658 12.5707 266.524 13.1413 266.524 13.792C266.524 14.4427 266.658 15.0187 266.924 15.52C267.202 16.0107 267.575 16.3947 268.044 16.672C268.524 16.9387 269.063 17.072 269.66 17.072ZM280.436 18V9.6H281.572V18H280.436ZM281.012 7.744C280.777 7.744 280.58 7.664 280.42 7.504C280.26 7.344 280.18 7.152 280.18 6.928C280.18 6.704 280.26 6.51733 280.42 6.368C280.58 6.208 280.777 6.128 281.012 6.128C281.246 6.128 281.444 6.20267 281.604 6.352C281.764 6.50133 281.844 6.688 281.844 6.912C281.844 7.14667 281.764 7.344 281.604 7.504C281.454 7.664 281.257 7.744 281.012 7.744ZM288.076 18.08C287.276 18.08 286.556 17.8987 285.916 17.536C285.287 17.1733 284.791 16.672 284.428 16.032C284.066 15.3813 283.884 14.6347 283.884 13.792C283.884 12.9387 284.066 12.192 284.428 11.552C284.791 10.912 285.287 10.416 285.916 10.064C286.556 9.70133 287.276 9.52 288.076 9.52C288.812 9.52 289.468 9.68533 290.044 10.016C290.631 10.3467 291.095 10.832 291.436 11.472C291.788 12.1013 291.964 12.8747 291.964 13.792C291.964 14.6987 291.794 15.472 291.452 16.112C291.111 16.752 290.647 17.2427 290.06 17.584C289.484 17.9147 288.823 18.08 288.076 18.08ZM288.156 17.072C288.754 17.072 289.287 16.9387 289.756 16.672C290.236 16.3947 290.61 16.0107 290.876 15.52C291.154 15.0187 291.292 14.4427 291.292 13.792C291.292 13.1307 291.154 12.5547 290.876 12.064C290.61 11.5733 290.236 11.1947 289.756 10.928C289.287 10.6507 288.754 10.512 288.156 10.512C287.57 10.512 287.042 10.6507 286.572 10.928C286.103 11.1947 285.73 11.5733 285.452 12.064C285.175 12.5547 285.036 13.1307 285.036 13.792C285.036 14.4427 285.175 15.0187 285.452 15.52C285.73 16.0107 286.103 16.3947 286.572 16.672C287.042 16.9387 287.57 17.072 288.156 17.072ZM291.324 18V15.472L291.436 13.776L291.276 12.08V6.128H292.412V18H291.324ZM299.144 18.08C298.27 18.08 297.502 17.8987 296.84 17.536C296.179 17.1627 295.662 16.656 295.288 16.016C294.915 15.3653 294.728 14.624 294.728 13.792C294.728 12.96 294.904 12.224 295.256 11.584C295.619 10.944 296.11 10.4427 296.728 10.08C297.358 9.70667 298.062 9.52 298.84 9.52C299.63 9.52 300.328 9.70133 300.936 10.064C301.555 10.416 302.04 10.9173 302.392 11.568C302.744 12.208 302.92 12.9493 302.92 13.792C302.92 13.8453 302.915 13.904 302.904 13.968C302.904 14.0213 302.904 14.08 302.904 14.144H295.592V13.296H302.296L301.848 13.632C301.848 13.024 301.715 12.4853 301.448 12.016C301.192 11.536 300.84 11.1627 300.392 10.896C299.944 10.6293 299.427 10.496 298.84 10.496C298.264 10.496 297.747 10.6293 297.288 10.896C296.83 11.1627 296.472 11.536 296.216 12.016C295.96 12.496 295.832 13.0453 295.832 13.664V13.84C295.832 14.48 295.971 15.0453 296.248 15.536C296.536 16.016 296.931 16.3947 297.432 16.672C297.944 16.9387 298.526 17.072 299.176 17.072C299.688 17.072 300.163 16.9813 300.6 16.8C301.048 16.6187 301.432 16.3413 301.752 15.968L302.392 16.704C302.019 17.152 301.55 17.4933 300.984 17.728C300.43 17.9627 299.816 18.08 299.144 18.08ZM310.262 18V16.144L310.214 15.84V12.736C310.214 12.0213 310.011 11.472 309.606 11.088C309.211 10.704 308.619 10.512 307.83 10.512C307.286 10.512 306.769 10.6027 306.278 10.784C305.787 10.9653 305.371 11.2053 305.03 11.504L304.518 10.656C304.945 10.2933 305.457 10.016 306.054 9.824C306.651 9.62133 307.281 9.52 307.942 9.52C309.03 9.52 309.867 9.792 310.454 10.336C311.051 10.8693 311.35 11.6853 311.35 12.784V18H310.262ZM307.366 18.08C306.737 18.08 306.187 17.9787 305.718 17.776C305.259 17.5627 304.907 17.2747 304.662 16.912C304.417 16.5387 304.294 16.112 304.294 15.632C304.294 15.1947 304.395 14.8 304.598 14.448C304.811 14.0853 305.153 13.7973 305.622 13.584C306.102 13.36 306.742 13.248 307.542 13.248H310.438V14.096H307.574C306.763 14.096 306.198 14.24 305.878 14.528C305.569 14.816 305.414 15.1733 305.414 15.6C305.414 16.08 305.601 16.464 305.974 16.752C306.347 17.04 306.87 17.184 307.542 17.184C308.182 17.184 308.731 17.04 309.19 16.752C309.659 16.4533 310.001 16.0267 310.214 15.472L310.47 16.256C310.257 16.8107 309.883 17.2533 309.35 17.584C308.827 17.9147 308.166 18.08 307.366 18.08ZM314.436 18V6.128H315.572V18H314.436ZM323.112 18V8.544C323.112 7.79733 323.331 7.19467 323.768 6.736C324.205 6.27733 324.835 6.048 325.656 6.048C325.976 6.048 326.285 6.09067 326.584 6.176C326.883 6.26133 327.133 6.39467 327.336 6.576L326.952 7.424C326.792 7.28533 326.605 7.184 326.392 7.12C326.179 7.04533 325.949 7.008 325.704 7.008C325.224 7.008 324.856 7.14133 324.6 7.408C324.344 7.67467 324.216 8.06933 324.216 8.592V9.872L324.248 10.4V18H323.112ZM321.608 10.544V9.6H326.808V10.544H321.608ZM331.625 18.08C330.815 18.08 330.084 17.8987 329.433 17.536C328.793 17.1627 328.287 16.656 327.913 16.016C327.54 15.3653 327.353 14.624 327.353 13.792C327.353 12.9493 327.54 12.208 327.913 11.568C328.287 10.928 328.793 10.4267 329.433 10.064C330.073 9.70133 330.804 9.52 331.625 9.52C332.457 9.52 333.193 9.70133 333.833 10.064C334.484 10.4267 334.991 10.928 335.353 11.568C335.727 12.208 335.913 12.9493 335.913 13.792C335.913 14.624 335.727 15.3653 335.353 16.016C334.991 16.656 334.484 17.1627 333.833 17.536C333.183 17.8987 332.447 18.08 331.625 18.08ZM331.625 17.072C332.233 17.072 332.772 16.9387 333.241 16.672C333.711 16.3947 334.079 16.0107 334.345 15.52C334.623 15.0187 334.761 14.4427 334.761 13.792C334.761 13.1307 334.623 12.5547 334.345 12.064C334.079 11.5733 333.711 11.1947 333.241 10.928C332.772 10.6507 332.239 10.512 331.641 10.512C331.044 10.512 330.511 10.6507 330.041 10.928C329.572 11.1947 329.199 11.5733 328.921 12.064C328.644 12.5547 328.505 13.1307 328.505 13.792C328.505 14.4427 328.644 15.0187 328.921 15.52C329.199 16.0107 329.572 16.3947 330.041 16.672C330.511 16.9387 331.039 17.072 331.625 17.072ZM338.232 18V9.6H339.32V11.888L339.208 11.488C339.443 10.848 339.838 10.3627 340.392 10.032C340.947 9.69067 341.635 9.52 342.456 9.52V10.624C342.414 10.624 342.371 10.624 342.328 10.624C342.286 10.6133 342.243 10.608 342.2 10.608C341.315 10.608 340.622 10.88 340.12 11.424C339.619 11.9573 339.368 12.72 339.368 13.712V18H338.232ZM351.146 18.096C350.442 18.096 349.77 18 349.13 17.808C348.5 17.616 348.004 17.3813 347.642 17.104L348.282 15.888C348.644 16.1333 349.092 16.3413 349.626 16.512C350.159 16.6827 350.703 16.768 351.258 16.768C351.972 16.768 352.484 16.6667 352.794 16.464C353.114 16.2613 353.274 15.9787 353.274 15.616C353.274 15.3493 353.178 15.1413 352.986 14.992C352.794 14.8427 352.538 14.7307 352.218 14.656C351.908 14.5813 351.562 14.5173 351.178 14.464C350.794 14.4 350.41 14.3253 350.026 14.24C349.642 14.144 349.29 14.016 348.97 13.856C348.65 13.6853 348.394 13.456 348.202 13.168C348.01 12.8693 347.914 12.4747 347.914 11.984C347.914 11.472 348.058 11.024 348.346 10.64C348.634 10.256 349.039 9.96267 349.562 9.76C350.095 9.54667 350.724 9.44 351.45 9.44C352.004 9.44 352.564 9.50933 353.13 9.648C353.706 9.776 354.175 9.96267 354.538 10.208L353.882 11.424C353.498 11.168 353.098 10.992 352.682 10.896C352.266 10.8 351.85 10.752 351.434 10.752C350.762 10.752 350.26 10.864 349.93 11.088C349.599 11.3013 349.434 11.5787 349.434 11.92C349.434 12.208 349.53 12.432 349.722 12.592C349.924 12.7413 350.18 12.8587 350.49 12.944C350.81 13.0293 351.162 13.104 351.546 13.168C351.93 13.2213 352.314 13.296 352.698 13.392C353.082 13.4773 353.428 13.6 353.738 13.76C354.058 13.92 354.314 14.144 354.506 14.432C354.708 14.72 354.81 15.104 354.81 15.584C354.81 16.096 354.66 16.5387 354.362 16.912C354.063 17.2853 353.642 17.5787 353.098 17.792C352.554 17.9947 351.903 18.096 351.146 18.096ZM356.729 18V9.52H358.265V18H356.729ZM357.497 7.888C357.199 7.888 356.948 7.792 356.745 7.6C356.553 7.408 356.457 7.17333 356.457 6.896C356.457 6.608 356.553 6.368 356.745 6.176C356.948 5.984 357.199 5.888 357.497 5.888C357.796 5.888 358.041 5.984 358.233 6.176C358.436 6.35733 358.537 6.58667 358.537 6.864C358.537 7.152 358.441 7.39733 358.249 7.6C358.057 7.792 357.807 7.888 357.497 7.888ZM365.726 9.44C366.42 9.44 367.028 9.57333 367.55 9.84C368.084 10.1067 368.5 10.512 368.798 11.056C369.097 11.6 369.246 12.288 369.246 13.12V18H367.71V13.296C367.71 12.4747 367.508 11.856 367.102 11.44C366.708 11.024 366.148 10.816 365.422 10.816C364.878 10.816 364.404 10.9227 363.998 11.136C363.593 11.3493 363.278 11.664 363.054 12.08C362.841 12.496 362.734 13.0133 362.734 13.632V18H361.198V9.52H362.67V11.808L362.43 11.2C362.708 10.6453 363.134 10.2133 363.71 9.904C364.286 9.59467 364.958 9.44 365.726 9.44ZM375.801 21.2C375.022 21.2 374.265 21.088 373.529 20.864C372.803 20.6507 372.211 20.3413 371.753 19.936L372.489 18.752C372.883 19.0933 373.369 19.36 373.945 19.552C374.521 19.7547 375.123 19.856 375.753 19.856C376.755 19.856 377.491 19.6213 377.961 19.152C378.43 18.6827 378.665 17.968 378.665 17.008V15.216L378.825 13.536L378.745 11.84V9.52H380.201V16.848C380.201 18.3413 379.827 19.44 379.081 20.144C378.334 20.848 377.241 21.2 375.801 21.2ZM375.609 17.648C374.787 17.648 374.051 17.4773 373.401 17.136C372.761 16.784 372.249 16.2987 371.865 15.68C371.491 15.0613 371.305 14.3467 371.305 13.536C371.305 12.7147 371.491 12 371.865 11.392C372.249 10.7733 372.761 10.2933 373.401 9.952C374.051 9.61067 374.787 9.44 375.609 9.44C376.334 9.44 376.995 9.58933 377.593 9.888C378.19 10.176 378.665 10.624 379.017 11.232C379.379 11.84 379.561 12.608 379.561 13.536C379.561 14.4533 379.379 15.216 379.017 15.824C378.665 16.432 378.19 16.8907 377.593 17.2C376.995 17.4987 376.334 17.648 375.609 17.648ZM375.785 16.304C376.35 16.304 376.851 16.1867 377.289 15.952C377.726 15.7173 378.067 15.392 378.313 14.976C378.569 14.56 378.697 14.08 378.697 13.536C378.697 12.992 378.569 12.512 378.313 12.096C378.067 11.68 377.726 11.36 377.289 11.136C376.851 10.9013 376.35 10.784 375.785 10.784C375.219 10.784 374.713 10.9013 374.265 11.136C373.827 11.36 373.481 11.68 373.225 12.096C372.979 12.512 372.857 12.992 372.857 13.536C372.857 14.08 372.979 14.56 373.225 14.976C373.481 15.392 373.827 15.7173 374.265 15.952C374.713 16.1867 375.219 16.304 375.785 16.304ZM383.136 18V6.128H384.672V18H383.136ZM391.38 18.096C390.474 18.096 389.674 17.9093 388.98 17.536C388.298 17.1627 387.764 16.6507 387.38 16C387.007 15.3493 386.82 14.6027 386.82 13.76C386.82 12.9173 387.002 12.1707 387.364 11.52C387.738 10.8693 388.244 10.3627 388.884 10C389.535 9.62667 390.266 9.44 391.076 9.44C391.898 9.44 392.623 9.62133 393.252 9.984C393.882 10.3467 394.372 10.8587 394.724 11.52C395.087 12.1707 395.268 12.9333 395.268 13.808C395.268 13.872 395.263 13.9467 395.252 14.032C395.252 14.1173 395.247 14.1973 395.236 14.272H388.02V13.168H394.436L393.812 13.552C393.823 13.008 393.711 12.5227 393.476 12.096C393.242 11.6693 392.916 11.3387 392.5 11.104C392.095 10.8587 391.62 10.736 391.076 10.736C390.543 10.736 390.068 10.8587 389.652 11.104C389.236 11.3387 388.911 11.6747 388.676 12.112C388.442 12.5387 388.324 13.0293 388.324 13.584V13.84C388.324 14.4053 388.452 14.912 388.708 15.36C388.975 15.7973 389.343 16.1387 389.812 16.384C390.282 16.6293 390.82 16.752 391.428 16.752C391.93 16.752 392.383 16.6667 392.788 16.496C393.204 16.3253 393.567 16.0693 393.876 15.728L394.724 16.72C394.34 17.168 393.86 17.5093 393.284 17.744C392.719 17.9787 392.084 18.096 391.38 18.096ZM32.5364 44.096C31.8324 44.096 31.1604 44 30.5204 43.808C29.8911 43.616 29.3951 43.3813 29.0324 43.104L29.6724 41.888C30.0351 42.1333 30.4831 42.3413 31.0164 42.512C31.5498 42.6827 32.0938 42.768 32.6484 42.768C33.3631 42.768 33.8751 42.6667 34.1844 42.464C34.5044 42.2613 34.6644 41.9787 34.6644 41.616C34.6644 41.3493 34.5684 41.1413 34.3764 40.992C34.1844 40.8427 33.9284 40.7307 33.6084 40.656C33.2991 40.5813 32.9524 40.5173 32.5684 40.464C32.1844 40.4 31.8004 40.3253 31.4164 40.24C31.0324 40.144 30.6804 40.016 30.3604 39.856C30.0404 39.6853 29.7844 39.456 29.5924 39.168C29.4004 38.8693 29.3044 38.4747 29.3044 37.984C29.3044 37.472 29.4484 37.024 29.7364 36.64C30.0244 36.256 30.4298 35.9627 30.9524 35.76C31.4858 35.5467 32.1151 35.44 32.8404 35.44C33.3951 35.44 33.9551 35.5093 34.5204 35.648C35.0964 35.776 35.5658 35.9627 35.9284 36.208L35.2724 37.424C34.8884 37.168 34.4884 36.992 34.0724 36.896C33.6564 36.8 33.2404 36.752 32.8244 36.752C32.1524 36.752 31.6511 36.864 31.3204 37.088C30.9898 37.3013 30.8244 37.5787 30.8244 37.92C30.8244 38.208 30.9204 38.432 31.1124 38.592C31.3151 38.7413 31.5711 38.8587 31.8804 38.944C32.2004 39.0293 32.5524 39.104 32.9364 39.168C33.3204 39.2213 33.7044 39.296 34.0884 39.392C34.4724 39.4773 34.8191 39.6 35.1284 39.76C35.4484 39.92 35.7044 40.144 35.8964 40.432C36.0991 40.72 36.2004 41.104 36.2004 41.584C36.2004 42.096 36.0511 42.5387 35.7524 42.912C35.4538 43.2853 35.0324 43.5787 34.4884 43.792C33.9444 43.9947 33.2938 44.096 32.5364 44.096ZM41.8961 44.096C40.9894 44.096 40.1894 43.9093 39.4961 43.536C38.8134 43.1627 38.2801 42.6507 37.8961 42C37.5227 41.3493 37.3361 40.6027 37.3361 39.76C37.3361 38.9173 37.5174 38.1707 37.8801 37.52C38.2534 36.8693 38.7601 36.3627 39.4001 36C40.0507 35.6267 40.7814 35.44 41.5921 35.44C42.4134 35.44 43.1387 35.6213 43.7681 35.984C44.3974 36.3467 44.8881 36.8587 45.2401 37.52C45.6027 38.1707 45.7841 38.9333 45.7841 39.808C45.7841 39.872 45.7787 39.9467 45.7681 40.032C45.7681 40.1173 45.7627 40.1973 45.7521 40.272H38.5361V39.168H44.9521L44.3281 39.552C44.3387 39.008 44.2267 38.5227 43.9921 38.096C43.7574 37.6693 43.4321 37.3387 43.0161 37.104C42.6107 36.8587 42.1361 36.736 41.5921 36.736C41.0587 36.736 40.5841 36.8587 40.1681 37.104C39.7521 37.3387 39.4267 37.6747 39.1921 38.112C38.9574 38.5387 38.8401 39.0293 38.8401 39.584V39.84C38.8401 40.4053 38.9681 40.912 39.2241 41.36C39.4907 41.7973 39.8587 42.1387 40.3281 42.384C40.7974 42.6293 41.3361 42.752 41.9441 42.752C42.4454 42.752 42.8987 42.6667 43.3041 42.496C43.7201 42.3253 44.0827 42.0693 44.3921 41.728L45.2401 42.72C44.8561 43.168 44.3761 43.5093 43.8001 43.744C43.2347 43.9787 42.6001 44.096 41.8961 44.096ZM47.9169 44V35.52H49.3889V37.824L49.2449 37.248C49.4796 36.6613 49.8743 36.2133 50.4289 35.904C50.9836 35.5947 51.6663 35.44 52.4769 35.44V36.928C52.4129 36.9173 52.3489 36.912 52.2849 36.912C52.2316 36.912 52.1783 36.912 52.1249 36.912C51.3036 36.912 50.6529 37.1573 50.1729 37.648C49.6929 38.1387 49.4529 38.848 49.4529 39.776V44H47.9169ZM56.9378 44L53.2258 35.52H54.8258L58.1218 43.2H57.3538L60.7138 35.52H62.2178L58.5058 44H56.9378ZM63.6513 44V35.52H65.1873V44H63.6513ZM64.4193 33.888C64.1206 33.888 63.87 33.792 63.6673 33.6C63.4753 33.408 63.3793 33.1733 63.3793 32.896C63.3793 32.608 63.4753 32.368 63.6673 32.176C63.87 31.984 64.1206 31.888 64.4193 31.888C64.718 31.888 64.9633 31.984 65.1553 32.176C65.358 32.3573 65.4593 32.5867 65.4593 32.864C65.4593 33.152 65.3633 33.3973 65.1713 33.6C64.9793 33.792 64.7286 33.888 64.4193 33.888ZM72.6481 35.44C73.3414 35.44 73.9494 35.5733 74.4721 35.84C75.0054 36.1067 75.4214 36.512 75.7201 37.056C76.0187 37.6 76.1681 38.288 76.1681 39.12V44H74.6321V39.296C74.6321 38.4747 74.4294 37.856 74.0241 37.44C73.6294 37.024 73.0694 36.816 72.3441 36.816C71.8001 36.816 71.3254 36.9227 70.9201 37.136C70.5147 37.3493 70.2001 37.664 69.9761 38.08C69.7627 38.496 69.6561 39.0133 69.6561 39.632V44H68.1201V35.52H69.5921V37.808L69.3521 37.2C69.6294 36.6453 70.0561 36.2133 70.6321 35.904C71.2081 35.5947 71.8801 35.44 72.6481 35.44ZM82.7227 47.2C81.944 47.2 81.1867 47.088 80.4507 46.864C79.7254 46.6507 79.1334 46.3413 78.6747 45.936L79.4107 44.752C79.8054 45.0933 80.2907 45.36 80.8667 45.552C81.4427 45.7547 82.0454 45.856 82.6747 45.856C83.6774 45.856 84.4134 45.6213 84.8827 45.152C85.352 44.6827 85.5867 43.968 85.5867 43.008V41.216L85.7467 39.536L85.6667 37.84V35.52H87.1227V42.848C87.1227 44.3413 86.7494 45.44 86.0027 46.144C85.256 46.848 84.1627 47.2 82.7227 47.2ZM82.5307 43.648C81.7094 43.648 80.9734 43.4773 80.3227 43.136C79.6827 42.784 79.1707 42.2987 78.7867 41.68C78.4134 41.0613 78.2267 40.3467 78.2267 39.536C78.2267 38.7147 78.4134 38 78.7867 37.392C79.1707 36.7733 79.6827 36.2933 80.3227 35.952C80.9734 35.6107 81.7094 35.44 82.5307 35.44C83.256 35.44 83.9174 35.5893 84.5147 35.888C85.112 36.176 85.5867 36.624 85.9387 37.232C86.3014 37.84 86.4827 38.608 86.4827 39.536C86.4827 40.4533 86.3014 41.216 85.9387 41.824C85.5867 42.432 85.112 42.8907 84.5147 43.2C83.9174 43.4987 83.256 43.648 82.5307 43.648ZM82.7067 42.304C83.272 42.304 83.7734 42.1867 84.2107 41.952C84.648 41.7173 84.9894 41.392 85.2347 40.976C85.4907 40.56 85.6187 40.08 85.6187 39.536C85.6187 38.992 85.4907 38.512 85.2347 38.096C84.9894 37.68 84.648 37.36 84.2107 37.136C83.7734 36.9013 83.272 36.784 82.7067 36.784C82.1414 36.784 81.6347 36.9013 81.1867 37.136C80.7494 37.36 80.4027 37.68 80.1467 38.096C79.9014 38.512 79.7787 38.992 79.7787 39.536C79.7787 40.08 79.9014 40.56 80.1467 40.976C80.4027 41.392 80.7494 41.7173 81.1867 41.952C81.6347 42.1867 82.1414 42.304 82.7067 42.304ZM92.4896 44.096C91.7856 44.096 91.1136 44 90.4736 43.808C89.8442 43.616 89.3482 43.3813 88.9856 43.104L89.6256 41.888C89.9882 42.1333 90.4362 42.3413 90.9696 42.512C91.5029 42.6827 92.0469 42.768 92.6016 42.768C93.3162 42.768 93.8282 42.6667 94.1376 42.464C94.4576 42.2613 94.6176 41.9787 94.6176 41.616C94.6176 41.3493 94.5216 41.1413 94.3296 40.992C94.1376 40.8427 93.8816 40.7307 93.5616 40.656C93.2522 40.5813 92.9056 40.5173 92.5216 40.464C92.1376 40.4 91.7536 40.3253 91.3696 40.24C90.9856 40.144 90.6336 40.016 90.3136 39.856C89.9936 39.6853 89.7376 39.456 89.5456 39.168C89.3536 38.8693 89.2576 38.4747 89.2576 37.984C89.2576 37.472 89.4016 37.024 89.6896 36.64C89.9776 36.256 90.3829 35.9627 90.9056 35.76C91.4389 35.5467 92.0682 35.44 92.7936 35.44C93.3482 35.44 93.9082 35.5093 94.4736 35.648C95.0496 35.776 95.5189 35.9627 95.8816 36.208L95.2256 37.424C94.8416 37.168 94.4416 36.992 94.0256 36.896C93.6096 36.8 93.1936 36.752 92.7776 36.752C92.1056 36.752 91.6042 36.864 91.2736 37.088C90.9429 37.3013 90.7776 37.5787 90.7776 37.92C90.7776 38.208 90.8736 38.432 91.0656 38.592C91.2682 38.7413 91.5242 38.8587 91.8336 38.944C92.1536 39.0293 92.5056 39.104 92.8896 39.168C93.2736 39.2213 93.6576 39.296 94.0416 39.392C94.4256 39.4773 94.7722 39.6 95.0816 39.76C95.4016 39.92 95.6576 40.144 95.8496 40.432C96.0522 40.72 96.1536 41.104 96.1536 41.584C96.1536 42.096 96.0042 42.5387 95.7056 42.912C95.4069 43.2853 94.9856 43.5787 94.4416 43.792C93.8976 43.9947 93.2469 44.096 92.4896 44.096ZM104.101 44L100.933 35.6H102.021L104.901 43.392H104.405L107.365 35.6H108.341L111.269 43.392H110.773L113.701 35.6H114.741L111.557 44H110.485L107.669 36.672H108.005L105.173 44H104.101ZM116.451 44V35.6H117.587V44H116.451ZM117.027 33.744C116.793 33.744 116.595 33.664 116.435 33.504C116.275 33.344 116.195 33.152 116.195 32.928C116.195 32.704 116.275 32.5173 116.435 32.368C116.595 32.208 116.793 32.128 117.027 32.128C117.262 32.128 117.459 32.2027 117.619 32.352C117.779 32.5013 117.859 32.688 117.859 32.912C117.859 33.1467 117.779 33.344 117.619 33.504C117.47 33.664 117.273 33.744 117.027 33.744ZM123.404 44.08C122.615 44.08 122.007 43.8667 121.58 43.44C121.153 43.0133 120.94 42.4107 120.94 41.632V33.744H122.076V41.568C122.076 42.0587 122.199 42.4373 122.444 42.704C122.7 42.9707 123.063 43.104 123.532 43.104C124.033 43.104 124.449 42.96 124.78 42.672L125.18 43.488C124.956 43.6907 124.684 43.84 124.364 43.936C124.055 44.032 123.735 44.08 123.404 44.08ZM119.436 36.544V35.6H124.636V36.544H119.436ZM131.536 35.52C132.219 35.52 132.816 35.6533 133.328 35.92C133.851 36.176 134.256 36.5707 134.544 37.104C134.843 37.6373 134.992 38.3093 134.992 39.12V44H133.856V39.232C133.856 38.3467 133.632 37.68 133.184 37.232C132.747 36.7733 132.128 36.544 131.328 36.544C130.731 36.544 130.208 36.6667 129.76 36.912C129.323 37.1467 128.981 37.4933 128.736 37.952C128.501 38.4 128.384 38.944 128.384 39.584V44H127.248V32.128H128.384V37.904L128.16 37.472C128.427 36.864 128.853 36.3893 129.44 36.048C130.027 35.696 130.725 35.52 131.536 35.52ZM144.552 44.096C143.848 44.096 143.176 44 142.536 43.808C141.907 43.616 141.411 43.3813 141.048 43.104L141.688 41.888C142.051 42.1333 142.499 42.3413 143.032 42.512C143.565 42.6827 144.109 42.768 144.664 42.768C145.379 42.768 145.891 42.6667 146.2 42.464C146.52 42.2613 146.68 41.9787 146.68 41.616C146.68 41.3493 146.584 41.1413 146.392 40.992C146.2 40.8427 145.944 40.7307 145.624 40.656C145.315 40.5813 144.968 40.5173 144.584 40.464C144.2 40.4 143.816 40.3253 143.432 40.24C143.048 40.144 142.696 40.016 142.376 39.856C142.056 39.6853 141.8 39.456 141.608 39.168C141.416 38.8693 141.32 38.4747 141.32 37.984C141.32 37.472 141.464 37.024 141.752 36.64C142.04 36.256 142.445 35.9627 142.968 35.76C143.501 35.5467 144.131 35.44 144.856 35.44C145.411 35.44 145.971 35.5093 146.536 35.648C147.112 35.776 147.581 35.9627 147.944 36.208L147.288 37.424C146.904 37.168 146.504 36.992 146.088 36.896C145.672 36.8 145.256 36.752 144.84 36.752C144.168 36.752 143.667 36.864 143.336 37.088C143.005 37.3013 142.84 37.5787 142.84 37.92C142.84 38.208 142.936 38.432 143.128 38.592C143.331 38.7413 143.587 38.8587 143.896 38.944C144.216 39.0293 144.568 39.104 144.952 39.168C145.336 39.2213 145.72 39.296 146.104 39.392C146.488 39.4773 146.835 39.6 147.144 39.76C147.464 39.92 147.72 40.144 147.912 40.432C148.115 40.72 148.216 41.104 148.216 41.584C148.216 42.096 148.067 42.5387 147.768 42.912C147.469 43.2853 147.048 43.5787 146.504 43.792C145.96 43.9947 145.309 44.096 144.552 44.096ZM153.912 44.096C153.005 44.096 152.205 43.9093 151.512 43.536C150.829 43.1627 150.296 42.6507 149.912 42C149.538 41.3493 149.352 40.6027 149.352 39.76C149.352 38.9173 149.533 38.1707 149.896 37.52C150.269 36.8693 150.776 36.3627 151.416 36C152.066 35.6267 152.797 35.44 153.608 35.44C154.429 35.44 155.154 35.6213 155.784 35.984C156.413 36.3467 156.904 36.8587 157.256 37.52C157.618 38.1707 157.8 38.9333 157.8 39.808C157.8 39.872 157.794 39.9467 157.784 40.032C157.784 40.1173 157.778 40.1973 157.768 40.272H150.552V39.168H156.968L156.344 39.552C156.354 39.008 156.242 38.5227 156.008 38.096C155.773 37.6693 155.448 37.3387 155.032 37.104C154.626 36.8587 154.152 36.736 153.608 36.736C153.074 36.736 152.6 36.8587 152.184 37.104C151.768 37.3387 151.442 37.6747 151.208 38.112C150.973 38.5387 150.856 39.0293 150.856 39.584V39.84C150.856 40.4053 150.984 40.912 151.24 41.36C151.506 41.7973 151.874 42.1387 152.344 42.384C152.813 42.6293 153.352 42.752 153.96 42.752C154.461 42.752 154.914 42.6667 155.32 42.496C155.736 42.3253 156.098 42.0693 156.408 41.728L157.256 42.72C156.872 43.168 156.392 43.5093 155.816 43.744C155.25 43.9787 154.616 44.096 153.912 44.096ZM163.629 44.096C162.765 44.096 161.991 43.9093 161.309 43.536C160.637 43.1627 160.109 42.6507 159.725 42C159.341 41.3493 159.149 40.6027 159.149 39.76C159.149 38.9173 159.341 38.1707 159.725 37.52C160.109 36.8693 160.637 36.3627 161.309 36C161.991 35.6267 162.765 35.44 163.629 35.44C164.397 35.44 165.079 35.5947 165.677 35.904C166.285 36.2027 166.754 36.6507 167.085 37.248L165.917 38C165.639 37.584 165.298 37.28 164.893 37.088C164.498 36.8853 164.071 36.784 163.613 36.784C163.058 36.784 162.562 36.9067 162.125 37.152C161.687 37.3973 161.341 37.744 161.085 38.192C160.829 38.6293 160.701 39.152 160.701 39.76C160.701 40.368 160.829 40.896 161.085 41.344C161.341 41.792 161.687 42.1387 162.125 42.384C162.562 42.6293 163.058 42.752 163.613 42.752C164.071 42.752 164.498 42.656 164.893 42.464C165.298 42.2613 165.639 41.952 165.917 41.536L167.085 42.272C166.754 42.8587 166.285 43.312 165.677 43.632C165.079 43.9413 164.397 44.096 163.629 44.096ZM172.641 44.096C171.916 44.096 171.276 43.9627 170.721 43.696C170.177 43.4293 169.751 43.024 169.441 42.48C169.143 41.9253 168.993 41.232 168.993 40.4V35.52H170.529V40.224C170.529 41.056 170.727 41.68 171.121 42.096C171.527 42.512 172.092 42.72 172.817 42.72C173.351 42.72 173.815 42.6133 174.209 42.4C174.604 42.176 174.908 41.856 175.121 41.44C175.335 41.0133 175.441 40.5013 175.441 39.904V35.52H176.977V44H175.521V41.712L175.761 42.32C175.484 42.8853 175.068 43.3227 174.513 43.632C173.959 43.9413 173.335 44.096 172.641 44.096ZM179.901 44V35.52H181.373V37.824L181.229 37.248C181.464 36.6613 181.859 36.2133 182.413 35.904C182.968 35.5947 183.651 35.44 184.461 35.44V36.928C184.397 36.9173 184.333 36.912 184.269 36.912C184.216 36.912 184.163 36.912 184.109 36.912C183.288 36.912 182.637 37.1573 182.157 37.648C181.677 38.1387 181.437 38.848 181.437 39.776V44H179.901ZM190.052 44.096C189.146 44.096 188.346 43.9093 187.652 43.536C186.97 43.1627 186.436 42.6507 186.052 42C185.679 41.3493 185.492 40.6027 185.492 39.76C185.492 38.9173 185.674 38.1707 186.036 37.52C186.41 36.8693 186.916 36.3627 187.556 36C188.207 35.6267 188.938 35.44 189.748 35.44C190.57 35.44 191.295 35.6213 191.924 35.984C192.554 36.3467 193.044 36.8587 193.396 37.52C193.759 38.1707 193.94 38.9333 193.94 39.808C193.94 39.872 193.935 39.9467 193.924 40.032C193.924 40.1173 193.919 40.1973 193.908 40.272H186.692V39.168H193.108L192.484 39.552C192.495 39.008 192.383 38.5227 192.148 38.096C191.914 37.6693 191.588 37.3387 191.172 37.104C190.767 36.8587 190.292 36.736 189.748 36.736C189.215 36.736 188.74 36.8587 188.324 37.104C187.908 37.3387 187.583 37.6747 187.348 38.112C187.114 38.5387 186.996 39.0293 186.996 39.584V39.84C186.996 40.4053 187.124 40.912 187.38 41.36C187.647 41.7973 188.015 42.1387 188.484 42.384C188.954 42.6293 189.492 42.752 190.1 42.752C190.602 42.752 191.055 42.6667 191.46 42.496C191.876 42.3253 192.239 42.0693 192.548 41.728L193.396 42.72C193.012 43.168 192.532 43.5093 191.956 43.744C191.391 43.9787 190.756 44.096 190.052 44.096ZM195.465 46.368L196.265 43.136L196.473 44.064C196.164 44.064 195.903 43.968 195.689 43.776C195.487 43.584 195.385 43.3227 195.385 42.992C195.385 42.672 195.487 42.4107 195.689 42.208C195.903 42.0053 196.159 41.904 196.457 41.904C196.767 41.904 197.017 42.0107 197.209 42.224C197.401 42.4267 197.497 42.6827 197.497 42.992C197.497 43.0987 197.487 43.2053 197.465 43.312C197.455 43.408 197.428 43.5253 197.385 43.664C197.353 43.792 197.3 43.952 197.225 44.144L196.473 46.368H195.465ZM203.995 44V32.128H205.531V44H203.995ZM212.24 44.096C211.333 44.096 210.533 43.9093 209.84 43.536C209.157 43.1627 208.624 42.6507 208.24 42C207.866 41.3493 207.68 40.6027 207.68 39.76C207.68 38.9173 207.861 38.1707 208.224 37.52C208.597 36.8693 209.104 36.3627 209.744 36C210.394 35.6267 211.125 35.44 211.936 35.44C212.757 35.44 213.482 35.6213 214.112 35.984C214.741 36.3467 215.232 36.8587 215.584 37.52C215.946 38.1707 216.128 38.9333 216.128 39.808C216.128 39.872 216.122 39.9467 216.112 40.032C216.112 40.1173 216.106 40.1973 216.096 40.272H208.88V39.168H215.296L214.672 39.552C214.682 39.008 214.57 38.5227 214.336 38.096C214.101 37.6693 213.776 37.3387 213.36 37.104C212.954 36.8587 212.48 36.736 211.936 36.736C211.402 36.736 210.928 36.8587 210.512 37.104C210.096 37.3387 209.77 37.6747 209.536 38.112C209.301 38.5387 209.184 39.0293 209.184 39.584V39.84C209.184 40.4053 209.312 40.912 209.568 41.36C209.834 41.7973 210.202 42.1387 210.672 42.384C211.141 42.6293 211.68 42.752 212.288 42.752C212.789 42.752 213.242 42.6667 213.648 42.496C214.064 42.3253 214.426 42.0693 214.736 41.728L215.584 42.72C215.2 43.168 214.72 43.5093 214.144 43.744C213.578 43.9787 212.944 44.096 212.24 44.096ZM223.29 44V42.208L223.21 41.872V38.816C223.21 38.1653 223.018 37.664 222.634 37.312C222.261 36.9493 221.696 36.768 220.938 36.768C220.437 36.768 219.946 36.8533 219.466 37.024C218.986 37.184 218.581 37.4027 218.25 37.68L217.61 36.528C218.048 36.176 218.57 35.9093 219.178 35.728C219.797 35.536 220.442 35.44 221.114 35.44C222.277 35.44 223.173 35.7227 223.802 36.288C224.432 36.8533 224.746 37.7173 224.746 38.88V44H223.29ZM220.506 44.096C219.877 44.096 219.322 43.9893 218.842 43.776C218.373 43.5627 218.01 43.2693 217.754 42.896C217.498 42.512 217.37 42.08 217.37 41.6C217.37 41.1413 217.477 40.7253 217.69 40.352C217.914 39.9787 218.272 39.68 218.762 39.456C219.264 39.232 219.936 39.12 220.778 39.12H223.466V40.224H220.842C220.074 40.224 219.557 40.352 219.29 40.608C219.024 40.864 218.89 41.1733 218.89 41.536C218.89 41.952 219.056 42.288 219.386 42.544C219.717 42.7893 220.176 42.912 220.762 42.912C221.338 42.912 221.84 42.784 222.266 42.528C222.704 42.272 223.018 41.8987 223.21 41.408L223.514 42.464C223.312 42.9653 222.954 43.3653 222.442 43.664C221.93 43.952 221.285 44.096 220.506 44.096ZM228.837 41.952L228.869 39.984L233.749 35.52H235.605L231.861 39.2L231.029 39.904L228.837 41.952ZM227.589 44V32.128H229.125V44H227.589ZM234.069 44L230.741 39.872L231.733 38.64L235.957 44H234.069ZM236.545 40.272V38.944H240.849V40.272H236.545ZM247.71 44.096C247.006 44.096 246.36 43.936 245.774 43.616C245.198 43.2853 244.734 42.8 244.382 42.16C244.04 41.52 243.87 40.72 243.87 39.76C243.87 38.8 244.035 38 244.366 37.36C244.707 36.72 245.166 36.24 245.742 35.92C246.328 35.6 246.984 35.44 247.71 35.44C248.542 35.44 249.278 35.6213 249.918 35.984C250.558 36.3467 251.064 36.8533 251.438 37.504C251.811 38.144 251.998 38.896 251.998 39.76C251.998 40.624 251.811 41.3813 251.438 42.032C251.064 42.6827 250.558 43.1893 249.918 43.552C249.278 43.9147 248.542 44.096 247.71 44.096ZM243.214 47.104V35.52H244.686V37.808L244.59 39.776L244.75 41.744V47.104H243.214ZM247.582 42.752C248.126 42.752 248.611 42.6293 249.038 42.384C249.475 42.1387 249.816 41.792 250.062 41.344C250.318 40.8853 250.446 40.3573 250.446 39.76C250.446 39.152 250.318 38.6293 250.062 38.192C249.816 37.744 249.475 37.3973 249.038 37.152C248.611 36.9067 248.126 36.784 247.582 36.784C247.048 36.784 246.563 36.9067 246.126 37.152C245.699 37.3973 245.358 37.744 245.102 38.192C244.856 38.6293 244.734 39.152 244.734 39.76C244.734 40.3573 244.856 40.8853 245.102 41.344C245.358 41.792 245.699 42.1387 246.126 42.384C246.563 42.6293 247.048 42.752 247.582 42.752ZM254.12 44V35.52H255.592V37.824L255.448 37.248C255.683 36.6613 256.077 36.2133 256.632 35.904C257.187 35.5947 257.869 35.44 258.68 35.44V36.928C258.616 36.9173 258.552 36.912 258.488 36.912C258.435 36.912 258.381 36.912 258.328 36.912C257.507 36.912 256.856 37.1573 256.376 37.648C255.896 38.1387 255.656 38.848 255.656 39.776V44H254.12ZM264.127 44.096C263.274 44.096 262.516 43.9093 261.855 43.536C261.194 43.1627 260.671 42.6507 260.287 42C259.903 41.3387 259.711 40.592 259.711 39.76C259.711 38.9173 259.903 38.1707 260.287 37.52C260.671 36.8693 261.194 36.3627 261.855 36C262.516 35.6267 263.274 35.44 264.127 35.44C264.97 35.44 265.722 35.6267 266.383 36C267.055 36.3627 267.578 36.8693 267.951 37.52C268.335 38.16 268.527 38.9067 268.527 39.76C268.527 40.6027 268.335 41.3493 267.951 42C267.578 42.6507 267.055 43.1627 266.383 43.536C265.722 43.9093 264.97 44.096 264.127 44.096ZM264.127 42.752C264.671 42.752 265.156 42.6293 265.583 42.384C266.02 42.1387 266.362 41.792 266.607 41.344C266.852 40.8853 266.975 40.3573 266.975 39.76C266.975 39.152 266.852 38.6293 266.607 38.192C266.362 37.744 266.02 37.3973 265.583 37.152C265.156 36.9067 264.671 36.784 264.127 36.784C263.583 36.784 263.098 36.9067 262.671 37.152C262.244 37.3973 261.903 37.744 261.647 38.192C261.391 38.6293 261.263 39.152 261.263 39.76C261.263 40.3573 261.391 40.8853 261.647 41.344C261.903 41.792 262.244 42.1387 262.671 42.384C263.098 42.6293 263.583 42.752 264.127 42.752ZM274.283 44.096C273.43 44.096 272.673 43.9093 272.011 43.536C271.35 43.1627 270.827 42.6507 270.443 42C270.059 41.3387 269.867 40.592 269.867 39.76C269.867 38.9173 270.059 38.1707 270.443 37.52C270.827 36.8693 271.35 36.3627 272.011 36C272.673 35.6267 273.43 35.44 274.283 35.44C275.126 35.44 275.878 35.6267 276.539 36C277.211 36.3627 277.734 36.8693 278.107 37.52C278.491 38.16 278.683 38.9067 278.683 39.76C278.683 40.6027 278.491 41.3493 278.107 42C277.734 42.6507 277.211 43.1627 276.539 43.536C275.878 43.9093 275.126 44.096 274.283 44.096ZM274.283 42.752C274.827 42.752 275.313 42.6293 275.739 42.384C276.177 42.1387 276.518 41.792 276.763 41.344C277.009 40.8853 277.131 40.3573 277.131 39.76C277.131 39.152 277.009 38.6293 276.763 38.192C276.518 37.744 276.177 37.3973 275.739 37.152C275.313 36.9067 274.827 36.784 274.283 36.784C273.739 36.784 273.254 36.9067 272.827 37.152C272.401 37.3973 272.059 37.744 271.803 38.192C271.547 38.6293 271.419 39.152 271.419 39.76C271.419 40.3573 271.547 40.8853 271.803 41.344C272.059 41.792 272.401 42.1387 272.827 42.384C273.254 42.6293 273.739 42.752 274.283 42.752ZM281.032 44V34.768C281.032 33.936 281.272 33.2747 281.752 32.784C282.242 32.2827 282.936 32.032 283.832 32.032C284.162 32.032 284.477 32.0747 284.776 32.16C285.085 32.2347 285.346 32.3573 285.56 32.528L285.096 33.696C284.936 33.568 284.754 33.472 284.552 33.408C284.349 33.3333 284.136 33.296 283.912 33.296C283.464 33.296 283.122 33.424 282.888 33.68C282.653 33.9253 282.536 34.2933 282.536 34.784V35.92L282.568 36.624V44H281.032ZM279.592 36.784V35.52H285V36.784H279.592ZM290.969 44V34.768C290.969 33.936 291.209 33.2747 291.689 32.784C292.18 32.2827 292.873 32.032 293.769 32.032C294.1 32.032 294.414 32.0747 294.713 32.16C295.022 32.2347 295.284 32.3573 295.497 32.528L295.033 33.696C294.873 33.568 294.692 33.472 294.489 33.408C294.286 33.3333 294.073 33.296 293.849 33.296C293.401 33.296 293.06 33.424 292.825 33.68C292.59 33.9253 292.473 34.2933 292.473 34.784V35.92L292.505 36.624V44H290.969ZM289.529 36.784V35.52H294.937V36.784H289.529ZM296.386 44V35.52H297.858V37.824L297.714 37.248C297.948 36.6613 298.343 36.2133 298.898 35.904C299.452 35.5947 300.135 35.44 300.946 35.44V36.928C300.882 36.9173 300.818 36.912 300.754 36.912C300.7 36.912 300.647 36.912 300.594 36.912C299.772 36.912 299.122 37.1573 298.642 37.648C298.162 38.1387 297.922 38.848 297.922 39.776V44H296.386ZM306.537 44.096C305.63 44.096 304.83 43.9093 304.137 43.536C303.454 43.1627 302.921 42.6507 302.537 42C302.163 41.3493 301.977 40.6027 301.977 39.76C301.977 38.9173 302.158 38.1707 302.521 37.52C302.894 36.8693 303.401 36.3627 304.041 36C304.691 35.6267 305.422 35.44 306.233 35.44C307.054 35.44 307.779 35.6213 308.409 35.984C309.038 36.3467 309.529 36.8587 309.881 37.52C310.243 38.1707 310.425 38.9333 310.425 39.808C310.425 39.872 310.419 39.9467 310.409 40.032C310.409 40.1173 310.403 40.1973 310.393 40.272H303.177V39.168H309.593L308.969 39.552C308.979 39.008 308.867 38.5227 308.633 38.096C308.398 37.6693 308.073 37.3387 307.657 37.104C307.251 36.8587 306.777 36.736 306.233 36.736C305.699 36.736 305.225 36.8587 304.809 37.104C304.393 37.3387 304.067 37.6747 303.833 38.112C303.598 38.5387 303.481 39.0293 303.481 39.584V39.84C303.481 40.4053 303.609 40.912 303.865 41.36C304.131 41.7973 304.499 42.1387 304.969 42.384C305.438 42.6293 305.977 42.752 306.585 42.752C307.086 42.752 307.539 42.6667 307.945 42.496C308.361 42.3253 308.723 42.0693 309.033 41.728L309.881 42.72C309.497 43.168 309.017 43.5093 308.441 43.744C307.875 43.9787 307.241 44.096 306.537 44.096ZM314.99 44.096C314.286 44.096 313.614 44 312.974 43.808C312.344 43.616 311.848 43.3813 311.486 43.104L312.126 41.888C312.488 42.1333 312.936 42.3413 313.47 42.512C314.003 42.6827 314.547 42.768 315.102 42.768C315.816 42.768 316.328 42.6667 316.638 42.464C316.958 42.2613 317.118 41.9787 317.118 41.616C317.118 41.3493 317.022 41.1413 316.83 40.992C316.638 40.8427 316.382 40.7307 316.062 40.656C315.752 40.5813 315.406 40.5173 315.022 40.464C314.638 40.4 314.254 40.3253 313.87 40.24C313.486 40.144 313.134 40.016 312.814 39.856C312.494 39.6853 312.238 39.456 312.046 39.168C311.854 38.8693 311.758 38.4747 311.758 37.984C311.758 37.472 311.902 37.024 312.19 36.64C312.478 36.256 312.883 35.9627 313.406 35.76C313.939 35.5467 314.568 35.44 315.294 35.44C315.848 35.44 316.408 35.5093 316.974 35.648C317.55 35.776 318.019 35.9627 318.382 36.208L317.726 37.424C317.342 37.168 316.942 36.992 316.526 36.896C316.11 36.8 315.694 36.752 315.278 36.752C314.606 36.752 314.104 36.864 313.774 37.088C313.443 37.3013 313.278 37.5787 313.278 37.92C313.278 38.208 313.374 38.432 313.566 38.592C313.768 38.7413 314.024 38.8587 314.334 38.944C314.654 39.0293 315.006 39.104 315.39 39.168C315.774 39.2213 316.158 39.296 316.542 39.392C316.926 39.4773 317.272 39.6 317.582 39.76C317.902 39.92 318.158 40.144 318.35 40.432C318.552 40.72 318.654 41.104 318.654 41.584C318.654 42.096 318.504 42.5387 318.206 42.912C317.907 43.2853 317.486 43.5787 316.942 43.792C316.398 43.9947 315.747 44.096 314.99 44.096ZM325.101 35.44C325.795 35.44 326.403 35.5733 326.925 35.84C327.459 36.1067 327.875 36.512 328.173 37.056C328.472 37.6 328.621 38.288 328.621 39.12V44H327.085V39.296C327.085 38.4747 326.883 37.856 326.477 37.44C326.083 37.024 325.523 36.816 324.797 36.816C324.253 36.816 323.779 36.9227 323.373 37.136C322.968 37.3493 322.653 37.664 322.429 38.08C322.216 38.496 322.109 39.0133 322.109 39.632V44H320.573V32.128H322.109V37.808L321.805 37.2C322.083 36.6453 322.509 36.2133 323.085 35.904C323.661 35.5947 324.333 35.44 325.101 35.44ZM335.992 35.44C336.685 35.44 337.293 35.5733 337.816 35.84C338.349 36.1067 338.765 36.512 339.064 37.056C339.362 37.6 339.512 38.288 339.512 39.12V44H337.976V39.296C337.976 38.4747 337.773 37.856 337.368 37.44C336.973 37.024 336.413 36.816 335.688 36.816C335.144 36.816 334.669 36.9227 334.264 37.136C333.858 37.3493 333.544 37.664 333.32 38.08C333.106 38.496 333 39.0133 333 39.632V44H331.464V35.52H332.936V37.808L332.696 37.2C332.973 36.6453 333.4 36.2133 333.976 35.904C334.552 35.5947 335.224 35.44 335.992 35.44ZM346.13 44.096C345.224 44.096 344.424 43.9093 343.73 43.536C343.048 43.1627 342.514 42.6507 342.13 42C341.757 41.3493 341.57 40.6027 341.57 39.76C341.57 38.9173 341.752 38.1707 342.114 37.52C342.488 36.8693 342.994 36.3627 343.634 36C344.285 35.6267 345.016 35.44 345.826 35.44C346.648 35.44 347.373 35.6213 348.002 35.984C348.632 36.3467 349.122 36.8587 349.474 37.52C349.837 38.1707 350.018 38.9333 350.018 39.808C350.018 39.872 350.013 39.9467 350.002 40.032C350.002 40.1173 349.997 40.1973 349.986 40.272H342.77V39.168H349.186L348.562 39.552C348.573 39.008 348.461 38.5227 348.226 38.096C347.992 37.6693 347.666 37.3387 347.25 37.104C346.845 36.8587 346.37 36.736 345.826 36.736C345.293 36.736 344.818 36.8587 344.402 37.104C343.986 37.3387 343.661 37.6747 343.426 38.112C343.192 38.5387 343.074 39.0293 343.074 39.584V39.84C343.074 40.4053 343.202 40.912 343.458 41.36C343.725 41.7973 344.093 42.1387 344.562 42.384C345.032 42.6293 345.57 42.752 346.178 42.752C346.68 42.752 347.133 42.6667 347.538 42.496C347.954 42.3253 348.317 42.0693 348.626 41.728L349.474 42.72C349.09 43.168 348.61 43.5093 348.034 43.744C347.469 43.9787 346.834 44.096 346.13 44.096ZM354.583 44.096C353.879 44.096 353.207 44 352.567 43.808C351.938 43.616 351.442 43.3813 351.079 43.104L351.719 41.888C352.082 42.1333 352.53 42.3413 353.063 42.512C353.597 42.6827 354.141 42.768 354.695 42.768C355.41 42.768 355.922 42.6667 356.231 42.464C356.551 42.2613 356.711 41.9787 356.711 41.616C356.711 41.3493 356.615 41.1413 356.423 40.992C356.231 40.8427 355.975 40.7307 355.655 40.656C355.346 40.5813 354.999 40.5173 354.615 40.464C354.231 40.4 353.847 40.3253 353.463 40.24C353.079 40.144 352.727 40.016 352.407 39.856C352.087 39.6853 351.831 39.456 351.639 39.168C351.447 38.8693 351.351 38.4747 351.351 37.984C351.351 37.472 351.495 37.024 351.783 36.64C352.071 36.256 352.477 35.9627 352.999 35.76C353.533 35.5467 354.162 35.44 354.887 35.44C355.442 35.44 356.002 35.5093 356.567 35.648C357.143 35.776 357.613 35.9627 357.975 36.208L357.319 37.424C356.935 37.168 356.535 36.992 356.119 36.896C355.703 36.8 355.287 36.752 354.871 36.752C354.199 36.752 353.698 36.864 353.367 37.088C353.037 37.3013 352.871 37.5787 352.871 37.92C352.871 38.208 352.967 38.432 353.159 38.592C353.362 38.7413 353.618 38.8587 353.927 38.944C354.247 39.0293 354.599 39.104 354.983 39.168C355.367 39.2213 355.751 39.296 356.135 39.392C356.519 39.4773 356.866 39.6 357.175 39.76C357.495 39.92 357.751 40.144 357.943 40.432C358.146 40.72 358.247 41.104 358.247 41.584C358.247 42.096 358.098 42.5387 357.799 42.912C357.501 43.2853 357.079 43.5787 356.535 43.792C355.991 43.9947 355.341 44.096 354.583 44.096ZM362.599 44.096C361.895 44.096 361.223 44 360.583 43.808C359.954 43.616 359.458 43.3813 359.095 43.104L359.735 41.888C360.098 42.1333 360.546 42.3413 361.079 42.512C361.612 42.6827 362.156 42.768 362.711 42.768C363.426 42.768 363.938 42.6667 364.247 42.464C364.567 42.2613 364.727 41.9787 364.727 41.616C364.727 41.3493 364.631 41.1413 364.439 40.992C364.247 40.8427 363.991 40.7307 363.671 40.656C363.362 40.5813 363.015 40.5173 362.631 40.464C362.247 40.4 361.863 40.3253 361.479 40.24C361.095 40.144 360.743 40.016 360.423 39.856C360.103 39.6853 359.847 39.456 359.655 39.168C359.463 38.8693 359.367 38.4747 359.367 37.984C359.367 37.472 359.511 37.024 359.799 36.64C360.087 36.256 360.492 35.9627 361.015 35.76C361.548 35.5467 362.178 35.44 362.903 35.44C363.458 35.44 364.018 35.5093 364.583 35.648C365.159 35.776 365.628 35.9627 365.991 36.208L365.335 37.424C364.951 37.168 364.551 36.992 364.135 36.896C363.719 36.8 363.303 36.752 362.887 36.752C362.215 36.752 361.714 36.864 361.383 37.088C361.052 37.3013 360.887 37.5787 360.887 37.92C360.887 38.208 360.983 38.432 361.175 38.592C361.378 38.7413 361.634 38.8587 361.943 38.944C362.263 39.0293 362.615 39.104 362.999 39.168C363.383 39.2213 363.767 39.296 364.151 39.392C364.535 39.4773 364.882 39.6 365.191 39.76C365.511 39.92 365.767 40.144 365.959 40.432C366.162 40.72 366.263 41.104 366.263 41.584C366.263 42.096 366.114 42.5387 365.815 42.912C365.516 43.2853 365.095 43.5787 364.551 43.792C364.007 43.9947 363.356 44.096 362.599 44.096ZM368.551 44.096C368.252 44.096 367.996 43.9947 367.783 43.792C367.569 43.5787 367.463 43.312 367.463 42.992C367.463 42.672 367.569 42.4107 367.783 42.208C367.996 42.0053 368.252 41.904 368.551 41.904C368.839 41.904 369.084 42.0053 369.287 42.208C369.5 42.4107 369.607 42.672 369.607 42.992C369.607 43.312 369.5 43.5787 369.287 43.792C369.084 43.9947 368.839 44.096 368.551 44.096Z" fill="black"/>
</svg>
