<svg width="352" height="68" viewBox="0 0 352 68" fill="none" xmlns="http://www.w3.org/2000/svg">
<path d="M6.68084 13.5429C5.71778 13.5429 4.82696 13.3864 4.00836 13.0734C3.2018 12.7484 2.49757 12.2969 1.89566 11.7191C1.30578 11.1292 0.842313 10.4431 0.505244 9.66058C0.168174 8.87809 -0.000360771 8.01736 -0.000360771 7.07838C-0.000360771 6.1394 0.168174 5.27867 0.505244 4.49619C0.842313 3.7137 1.3118 3.03355 1.91371 2.45571C2.51562 1.86584 3.21986 1.41441 4.02642 1.10141C4.84502 0.776384 5.73584 0.613869 6.6989 0.613869C7.67399 0.613869 8.57084 0.782403 9.38944 1.11947C10.2201 1.4445 10.9243 1.93205 11.5021 2.58211L10.3284 3.71972C9.84689 3.21412 9.30517 2.84094 8.70326 2.60017C8.10135 2.34737 7.4573 2.22097 6.77113 2.22097C6.06087 2.22097 5.39877 2.34135 4.78482 2.58211C4.18291 2.82288 3.65925 3.15995 3.21384 3.59332C2.76843 4.0267 2.41932 4.54434 2.16652 5.14625C1.92575 5.73612 1.80537 6.38017 1.80537 7.07838C1.80537 7.7766 1.92575 8.42666 2.16652 9.02857C2.41932 9.61844 2.76843 10.1301 3.21384 10.5634C3.65925 10.9968 4.18291 11.3339 4.78482 11.5747C5.39877 11.8154 6.06087 11.9358 6.77113 11.9358C7.4573 11.9358 8.10135 11.8154 8.70326 11.5747C9.30517 11.3218 9.84689 10.9366 10.3284 10.419L11.5021 11.5566C10.9243 12.2067 10.2201 12.7002 9.38944 13.0373C8.57084 13.3744 7.66797 13.5429 6.68084 13.5429ZM17.5187 13.5068C16.5557 13.5068 15.701 13.2961 14.9546 12.8748C14.2082 12.4534 13.6184 11.8756 13.185 11.1413C12.7516 10.3949 12.5349 9.55223 12.5349 8.61325C12.5349 7.66223 12.7516 6.81956 13.185 6.08523C13.6184 5.3509 14.2082 4.77909 14.9546 4.36979C15.701 3.94845 16.5557 3.73778 17.5187 3.73778C18.4698 3.73778 19.3185 3.94845 20.0648 4.36979C20.8232 4.77909 21.4131 5.3509 21.8344 6.08523C22.2678 6.80752 22.4845 7.6502 22.4845 8.61325C22.4845 9.56427 22.2678 10.4069 21.8344 11.1413C21.4131 11.8756 20.8232 12.4534 20.0648 12.8748C19.3185 13.2961 18.4698 13.5068 17.5187 13.5068ZM17.5187 11.99C18.1327 11.99 18.6804 11.8515 19.162 11.5747C19.6555 11.2978 20.0408 10.9065 20.3176 10.4009C20.5945 9.88328 20.7329 9.28739 20.7329 8.61325C20.7329 7.92708 20.5945 7.3372 20.3176 6.84364C20.0408 6.33803 19.6555 5.94679 19.162 5.66991C18.6804 5.39303 18.1327 5.25459 17.5187 5.25459C16.9048 5.25459 16.3571 5.39303 15.8755 5.66991C15.394 5.94679 15.0088 6.33803 14.7199 6.84364C14.4309 7.3372 14.2865 7.92708 14.2865 8.61325C14.2865 9.28739 14.4309 9.88328 14.7199 10.4009C15.0088 10.9065 15.394 11.2978 15.8755 11.5747C16.3571 11.8515 16.9048 11.99 17.5187 11.99ZM36.8539 3.73778C37.6243 3.73778 38.3045 3.88826 38.8944 4.18921C39.4842 4.49017 39.9417 4.94762 40.2667 5.56157C40.6038 6.17552 40.7723 6.95198 40.7723 7.89096V13.3984H39.0388V8.08959C39.0388 7.16265 38.8221 6.46443 38.3888 5.99494C37.9554 5.52545 37.3475 5.29071 36.565 5.29071C35.9871 5.29071 35.4815 5.41109 35.0482 5.65186C34.6148 5.89262 34.2777 6.24775 34.0369 6.71724C33.8082 7.18673 33.6939 7.77058 33.6939 8.46879V13.3984H31.9604V8.08959C31.9604 7.16265 31.7437 6.46443 31.3103 5.99494C30.889 5.52545 30.281 5.29071 29.4865 5.29071C28.9207 5.29071 28.4211 5.41109 27.9878 5.65186C27.5544 5.89262 27.2173 6.24775 26.9765 6.71724C26.7358 7.18673 26.6154 7.77058 26.6154 8.46879V13.3984H24.8819V3.82807H26.5432V6.37415L26.2723 5.72408C26.5733 5.0981 27.0367 4.61055 27.6627 4.26144C28.2887 3.91234 29.017 3.73778 29.8477 3.73778C30.7626 3.73778 31.5511 3.96651 32.2132 4.42396C32.8753 4.86937 33.3086 5.54953 33.5133 6.46443L32.809 6.17552C33.098 5.44119 33.6036 4.85131 34.3259 4.4059C35.0482 3.96049 35.8908 3.73778 36.8539 3.73778ZM49.0361 13.5068C48.2416 13.5068 47.5132 13.3262 46.8511 12.9651C46.2011 12.5919 45.6774 12.0441 45.2802 11.3218C44.8949 10.5996 44.7023 9.69669 44.7023 8.61325C44.7023 7.52981 44.8889 6.62695 45.2621 5.90466C45.6473 5.18237 46.165 4.64065 46.815 4.2795C47.4771 3.91835 48.2175 3.73778 49.0361 3.73778C49.9751 3.73778 50.8057 3.94243 51.528 4.35173C52.2503 4.76103 52.8221 5.33284 53.2434 6.06717C53.6648 6.78947 53.8754 7.63816 53.8754 8.61325C53.8754 9.58835 53.6648 10.4431 53.2434 11.1774C52.8221 11.9117 52.2503 12.4835 51.528 12.8928C50.8057 13.3021 49.9751 13.5068 49.0361 13.5068ZM43.962 16.9016V3.82807H45.6232V6.41026L45.5149 8.63131L45.6955 10.8524V16.9016H43.962ZM48.8916 11.99C49.5056 11.99 50.0533 11.8515 50.5348 11.5747C51.0284 11.2978 51.4136 10.9065 51.6905 10.4009C51.9794 9.88328 52.1239 9.28739 52.1239 8.61325C52.1239 7.92708 51.9794 7.3372 51.6905 6.84364C51.4136 6.33803 51.0284 5.94679 50.5348 5.66991C50.0533 5.39303 49.5056 5.25459 48.8916 5.25459C48.2897 5.25459 47.742 5.39303 47.2484 5.66991C46.7669 5.94679 46.3816 6.33803 46.0927 6.84364C45.8159 7.3372 45.6774 7.92708 45.6774 8.61325C45.6774 9.28739 45.8159 9.88328 46.0927 10.4009C46.3816 10.9065 46.7669 11.2978 47.2484 11.5747C47.742 11.8515 48.2897 11.99 48.8916 11.99ZM62.1232 13.3984V11.376L62.033 10.9968V7.54787C62.033 6.81354 61.8163 6.24775 61.3829 5.85049C60.9616 5.44119 60.3235 5.23654 59.4688 5.23654C58.903 5.23654 58.3493 5.33284 57.8075 5.52545C57.2658 5.70603 56.8084 5.95281 56.4352 6.2658L55.7129 4.96568C56.2065 4.56842 56.7963 4.26746 57.4825 4.06281C58.1807 3.84613 58.909 3.73778 59.6675 3.73778C60.9796 3.73778 61.9908 4.05679 62.7011 4.69482C63.4113 5.33284 63.7665 6.30794 63.7665 7.6201V13.3984H62.1232ZM58.9813 13.5068C58.271 13.5068 57.645 13.3864 57.1033 13.1456C56.5736 12.9049 56.1643 12.5738 55.8754 12.1525C55.5865 11.7191 55.442 11.2316 55.442 10.6898C55.442 10.1722 55.5624 9.70271 55.8032 9.28137C56.056 8.86004 56.4593 8.52297 57.013 8.27016C57.5788 8.01736 58.3372 7.89096 59.2882 7.89096H62.3219V9.13691H59.3605C58.4937 9.13691 57.9099 9.28137 57.6089 9.57029C57.308 9.85921 57.1575 10.2083 57.1575 10.6176C57.1575 11.0871 57.3441 11.4663 57.7173 11.7552C58.0904 12.0321 58.6081 12.1705 59.2702 12.1705C59.9203 12.1705 60.486 12.0261 60.9676 11.7372C61.4611 11.4482 61.8163 11.0269 62.033 10.4732L62.376 11.6649C62.1473 12.2307 61.744 12.6822 61.1662 13.0192C60.5884 13.3443 59.8601 13.5068 58.9813 13.5068ZM71.1457 13.5068C70.1706 13.5068 69.2978 13.2961 68.5274 12.8748C67.769 12.4534 67.1731 11.8756 66.7397 11.1413C66.3063 10.4069 66.0896 9.56427 66.0896 8.61325C66.0896 7.66223 66.3063 6.81956 66.7397 6.08523C67.1731 5.3509 67.769 4.77909 68.5274 4.36979C69.2978 3.94845 70.1706 3.73778 71.1457 3.73778C72.0124 3.73778 72.7829 3.91234 73.457 4.26144C74.1432 4.59851 74.6729 5.10412 75.0461 5.77826L73.7279 6.62695C73.4149 6.15746 73.0297 5.81437 72.5722 5.59768C72.1268 5.36896 71.6453 5.25459 71.1276 5.25459C70.5016 5.25459 69.9419 5.39303 69.4483 5.66991C68.9547 5.94679 68.5635 6.33803 68.2746 6.84364C67.9857 7.3372 67.8412 7.92708 67.8412 8.61325C67.8412 9.29943 67.9857 9.89532 68.2746 10.4009C68.5635 10.9065 68.9547 11.2978 69.4483 11.5747C69.9419 11.8515 70.5016 11.99 71.1276 11.99C71.6453 11.99 72.1268 11.8816 72.5722 11.6649C73.0297 11.4362 73.4149 11.0871 73.7279 10.6176L75.0461 11.4482C74.6729 12.1104 74.1432 12.622 73.457 12.9831C72.7829 13.3322 72.0124 13.5068 71.1457 13.5068ZM80.7003 13.5068C79.7372 13.5068 78.9908 13.248 78.4612 12.7303C77.9315 12.2127 77.6666 11.4723 77.6666 10.5093V1.73342H79.4001V10.437C79.4001 10.9547 79.5265 11.3519 79.7793 11.6288C80.0442 11.9057 80.4174 12.0441 80.8989 12.0441C81.4406 12.0441 81.892 11.8937 82.2532 11.5927L82.7949 12.8387C82.5301 13.0674 82.2111 13.2359 81.8379 13.3443C81.4767 13.4526 81.0975 13.5068 80.7003 13.5068ZM76.0415 5.25459V3.82807H82.1448V5.25459H76.0415ZM84.3808 16.0709L85.2837 12.4233L85.5185 13.4707C85.1693 13.4707 84.8744 13.3623 84.6336 13.1456C84.4049 12.9289 84.2906 12.634 84.2906 12.2608C84.2906 11.8997 84.4049 11.6047 84.6336 11.376C84.8744 11.1473 85.1633 11.0329 85.5004 11.0329C85.8495 11.0329 86.1324 11.1533 86.3491 11.3941C86.5658 11.6228 86.6741 11.9117 86.6741 12.2608C86.6741 12.3812 86.6621 12.5016 86.638 12.622C86.626 12.7303 86.5959 12.8627 86.5477 13.0192C86.5116 13.1637 86.4514 13.3443 86.3671 13.561L85.5185 16.0709H84.3808ZM97.9621 13.5068C97.0351 13.5068 96.2045 13.3021 95.4701 12.8928C94.7479 12.4835 94.176 11.9117 93.7547 11.1774C93.3334 10.4431 93.1227 9.58835 93.1227 8.61325C93.1227 7.63816 93.3334 6.78947 93.7547 6.06717C94.176 5.33284 94.7479 4.76103 95.4701 4.35173C96.2045 3.94243 97.0351 3.73778 97.9621 3.73778C98.7686 3.73778 99.4969 3.91835 100.147 4.2795C100.797 4.64065 101.315 5.18237 101.7 5.90466C102.097 6.62695 102.296 7.52981 102.296 8.61325C102.296 9.69669 102.103 10.5996 101.718 11.3218C101.345 12.0441 100.833 12.5919 100.183 12.9651C99.533 13.3262 98.7927 13.5068 97.9621 13.5068ZM98.1065 11.99C98.7084 11.99 99.2501 11.8515 99.7317 11.5747C100.225 11.2978 100.61 10.9065 100.887 10.4009C101.176 9.88328 101.321 9.28739 101.321 8.61325C101.321 7.92708 101.176 7.3372 100.887 6.84364C100.61 6.33803 100.225 5.94679 99.7317 5.66991C99.2501 5.39303 98.7084 5.25459 98.1065 5.25459C97.4926 5.25459 96.9448 5.39303 96.4633 5.66991C95.9818 5.94679 95.5965 6.33803 95.3076 6.84364C95.0187 7.3372 94.8743 7.92708 94.8743 8.61325C94.8743 9.28739 95.0187 9.88328 95.3076 10.4009C95.5965 10.9065 95.9818 11.2978 96.4633 11.5747C96.9448 11.8515 97.4926 11.99 98.1065 11.99ZM101.375 13.3984V10.8162L101.483 8.5952L101.303 6.37415V-8.03047e-05H103.036V13.3984H101.375ZM110.343 13.5068C109.524 13.5068 108.802 13.3563 108.176 13.0553C107.562 12.7544 107.081 12.2969 106.731 11.683C106.394 11.057 106.226 10.2745 106.226 9.33554V3.82807H107.959V9.13691C107.959 10.0759 108.182 10.7801 108.627 11.2496C109.085 11.7191 109.723 11.9539 110.541 11.9539C111.143 11.9539 111.667 11.8335 112.112 11.5927C112.558 11.3399 112.901 10.9788 113.142 10.5093C113.383 10.0277 113.503 9.44991 113.503 8.77577V3.82807H115.236V13.3984H113.593V10.8162L113.864 11.5024C113.551 12.1404 113.082 12.634 112.456 12.9831C111.83 13.3322 111.125 13.5068 110.343 13.5068ZM118.537 13.3984V3.82807H120.198V6.42832L120.035 5.77826C120.3 5.11616 120.746 4.61055 121.372 4.26144C121.997 3.91234 122.768 3.73778 123.683 3.73778V5.41711C123.611 5.40507 123.538 5.39905 123.466 5.39905C123.406 5.39905 123.346 5.39905 123.286 5.39905C122.359 5.39905 121.624 5.67593 121.083 6.22969C120.541 6.78345 120.27 7.58399 120.27 8.63131V13.3984H118.537ZM131.055 13.3984V11.376L130.965 10.9968V7.54787C130.965 6.81354 130.748 6.24775 130.315 5.85049C129.893 5.44119 129.255 5.23654 128.4 5.23654C127.835 5.23654 127.281 5.33284 126.739 5.52545C126.197 5.70603 125.74 5.95281 125.367 6.2658L124.645 4.96568C125.138 4.56842 125.728 4.26746 126.414 4.06281C127.112 3.84613 127.841 3.73778 128.599 3.73778C129.911 3.73778 130.922 4.05679 131.633 4.69482C132.343 5.33284 132.698 6.30794 132.698 7.6201V13.3984H131.055ZM127.913 13.5068C127.203 13.5068 126.577 13.3864 126.035 13.1456C125.505 12.9049 125.096 12.5738 124.807 12.1525C124.518 11.7191 124.374 11.2316 124.374 10.6898C124.374 10.1722 124.494 9.70271 124.735 9.28137C124.988 8.86004 125.391 8.52297 125.945 8.27016C126.51 8.01736 127.269 7.89096 128.22 7.89096H131.254V9.13691H128.292C127.425 9.13691 126.842 9.28137 126.541 9.57029C126.24 9.85921 126.089 10.2083 126.089 10.6176C126.089 11.0871 126.276 11.4663 126.649 11.7552C127.022 12.0321 127.54 12.1705 128.202 12.1705C128.852 12.1705 129.418 12.0261 129.899 11.7372C130.393 11.4482 130.748 11.0269 130.965 10.4732L131.308 11.6649C131.079 12.2307 130.676 12.6822 130.098 13.0192C129.52 13.3443 128.792 13.5068 127.913 13.5068ZM140.98 13.5068C140.162 13.5068 139.421 13.3262 138.759 12.9651C138.109 12.5919 137.591 12.0441 137.206 11.3218C136.833 10.5996 136.646 9.69669 136.646 8.61325C136.646 7.52981 136.839 6.62695 137.224 5.90466C137.622 5.18237 138.145 4.64065 138.795 4.2795C139.457 3.91835 140.186 3.73778 140.98 3.73778C141.919 3.73778 142.75 3.94243 143.472 4.35173C144.194 4.76103 144.766 5.33284 145.188 6.06717C145.609 6.78947 145.82 7.63816 145.82 8.61325C145.82 9.58835 145.609 10.4431 145.188 11.1774C144.766 11.9117 144.194 12.4835 143.472 12.8928C142.75 13.3021 141.919 13.5068 140.98 13.5068ZM135.906 13.3984V-8.03047e-05H137.64V6.37415L137.459 8.5952L137.567 10.8162V13.3984H135.906ZM140.836 11.99C141.45 11.99 141.997 11.8515 142.479 11.5747C142.973 11.2978 143.358 10.9065 143.635 10.4009C143.924 9.88328 144.068 9.28739 144.068 8.61325C144.068 7.92708 143.924 7.3372 143.635 6.84364C143.358 6.33803 142.973 5.94679 142.479 5.66991C141.997 5.39303 141.45 5.25459 140.836 5.25459C140.234 5.25459 139.686 5.39303 139.193 5.66991C138.711 5.94679 138.326 6.33803 138.037 6.84364C137.76 7.3372 137.622 7.92708 137.622 8.61325C137.622 9.28739 137.76 9.88328 138.037 10.4009C138.326 10.9065 138.711 11.2978 139.193 11.5747C139.686 11.8515 140.234 11.99 140.836 11.99ZM148.215 13.3984V-8.03047e-05H149.948V13.3984H148.215ZM157.52 13.5068C156.496 13.5068 155.593 13.2961 154.811 12.8748C154.041 12.4534 153.439 11.8756 153.005 11.1413C152.584 10.4069 152.373 9.56427 152.373 8.61325C152.373 7.66223 152.578 6.81956 152.987 6.08523C153.408 5.3509 153.98 4.77909 154.703 4.36979C155.437 3.94845 156.262 3.73778 157.176 3.73778C158.103 3.73778 158.922 3.94243 159.632 4.35173C160.343 4.76103 160.896 5.33886 161.294 6.08523C161.703 6.81956 161.907 7.68029 161.907 8.66742C161.907 8.73965 161.901 8.82392 161.889 8.92023C161.889 9.01653 161.883 9.10682 161.871 9.19109H153.728V7.94513H160.968L160.264 8.37851C160.276 7.76456 160.15 7.21682 159.885 6.73529C159.62 6.25377 159.253 5.88058 158.784 5.61574C158.326 5.33886 157.79 5.20042 157.176 5.20042C156.575 5.20042 156.039 5.33886 155.569 5.61574C155.1 5.88058 154.733 6.25978 154.468 6.75335C154.203 7.23488 154.071 7.78864 154.071 8.41462V8.70354C154.071 9.34156 154.215 9.91338 154.504 10.419C154.805 10.9125 155.22 11.2978 155.75 11.5747C156.28 11.8515 156.888 11.99 157.574 11.99C158.14 11.99 158.651 11.8937 159.109 11.7011C159.578 11.5084 159.987 11.2195 160.336 10.8343L161.294 11.9539C160.86 12.4595 160.318 12.8447 159.668 13.1095C159.03 13.3744 158.314 13.5068 157.52 13.5068ZM169.456 13.3984V0.758326H170.792V13.3984H169.456ZM174.905 13.3984V0.758326H176.006L181.785 10.6176H181.207L186.931 0.758326H188.032V13.3984H186.75V2.76269H187.057L181.785 11.7913H181.153L175.844 2.76269H176.187V13.3984H174.905ZM192.151 13.3984V0.758326H193.487V12.2428H200.566V13.3984H192.151ZM207.51 13.3984V0.758326H212.241C213.313 0.758326 214.234 0.93288 215.004 1.28199C215.774 1.61906 216.364 2.11262 216.774 2.76269C217.195 3.40071 217.406 4.17718 217.406 5.09208C217.406 5.98291 217.195 6.75335 216.774 7.40341C216.364 8.04144 215.774 8.535 215.004 8.88411C214.234 9.22118 213.313 9.38972 212.241 9.38972H208.251L208.846 8.77577V13.3984H207.51ZM216.142 13.3984L212.891 8.81188H214.336L217.604 13.3984H216.142ZM208.846 8.88411L208.251 8.25211H212.205C213.469 8.25211 214.426 7.97523 215.076 7.42147C215.738 6.86771 216.069 6.09125 216.069 5.09208C216.069 4.08087 215.738 3.29839 215.076 2.74463C214.426 2.19087 213.469 1.91399 212.205 1.91399H208.251L208.846 1.28199V8.88411ZM224.153 13.4887C223.238 13.4887 222.413 13.2841 221.679 12.8748C220.957 12.4534 220.385 11.8816 219.964 11.1593C219.542 10.425 219.332 9.58835 219.332 8.64937C219.332 7.69835 219.542 6.86169 219.964 6.1394C220.385 5.41711 220.957 4.85131 221.679 4.44202C222.401 4.03272 223.226 3.82807 224.153 3.82807C225.092 3.82807 225.922 4.03272 226.645 4.44202C227.379 4.85131 227.951 5.41711 228.36 6.1394C228.781 6.86169 228.992 7.69835 228.992 8.64937C228.992 9.58835 228.781 10.425 228.36 11.1593C227.951 11.8816 227.379 12.4534 226.645 12.8748C225.91 13.2841 225.08 13.4887 224.153 13.4887ZM224.153 12.3511C224.839 12.3511 225.447 12.2006 225.977 11.8997C226.506 11.5867 226.922 11.1533 227.223 10.5996C227.536 10.0338 227.692 9.3837 227.692 8.64937C227.692 7.903 227.536 7.25294 227.223 6.69918C226.922 6.14542 226.506 5.71807 225.977 5.41711C225.447 5.10412 224.845 4.94762 224.171 4.94762C223.497 4.94762 222.895 5.10412 222.365 5.41711C221.835 5.71807 221.414 6.14542 221.101 6.69918C220.788 7.25294 220.632 7.903 220.632 8.64937C220.632 9.3837 220.788 10.0338 221.101 10.5996C221.414 11.1533 221.835 11.5867 222.365 11.8997C222.895 12.2006 223.491 12.3511 224.153 12.3511ZM235.528 13.4887C234.722 13.4887 234.017 13.3382 233.415 13.0373C232.813 12.7363 232.344 12.2849 232.007 11.683C231.682 11.0811 231.519 10.3287 231.519 9.42583V3.91835H232.801V9.28137C232.801 10.2926 233.048 11.057 233.542 11.5747C234.047 12.0803 234.752 12.3331 235.654 12.3331C236.317 12.3331 236.888 12.2006 237.37 11.9358C237.863 11.6589 238.237 11.2617 238.489 10.744C238.754 10.2264 238.887 9.6064 238.887 8.88411V3.91835H240.169V13.3984H238.941V10.7982L239.14 11.2677C238.839 11.9659 238.369 12.5136 237.731 12.9109C237.105 13.2961 236.371 13.4887 235.528 13.4887ZM248.581 3.82807C249.352 3.82807 250.026 3.97855 250.604 4.2795C251.194 4.56842 251.651 5.01383 251.976 5.61574C252.313 6.21765 252.482 6.97606 252.482 7.89096V13.3984H251.2V8.01736C251.2 7.01819 250.947 6.2658 250.441 5.7602C249.948 5.24256 249.249 4.98374 248.346 4.98374C247.672 4.98374 247.082 5.12217 246.577 5.39905C246.083 5.66389 245.698 6.05513 245.421 6.57278C245.156 7.07838 245.024 7.69233 245.024 8.41462V13.3984H243.742V3.91835H244.97V6.51861L244.771 6.03106C245.072 5.34488 245.554 4.80918 246.216 4.42396C246.878 4.0267 247.666 3.82807 248.581 3.82807ZM259.719 13.4887C258.816 13.4887 258.003 13.2841 257.281 12.8748C256.571 12.4655 256.011 11.8997 255.602 11.1774C255.192 10.4431 254.988 9.60039 254.988 8.64937C254.988 7.68631 255.192 6.84364 255.602 6.12134C256.011 5.39905 256.571 4.83928 257.281 4.44202C258.003 4.03272 258.816 3.82807 259.719 3.82807C260.549 3.82807 261.29 4.01466 261.94 4.38784C262.602 4.76103 263.125 5.30877 263.511 6.03106C263.908 6.74131 264.107 7.61408 264.107 8.64937C264.107 9.67261 263.914 10.5454 263.529 11.2677C263.143 11.99 262.62 12.5437 261.958 12.9289C261.308 13.3021 260.561 13.4887 259.719 13.4887ZM259.809 12.3511C260.483 12.3511 261.085 12.2006 261.615 11.8997C262.156 11.5867 262.578 11.1533 262.879 10.5996C263.192 10.0338 263.348 9.3837 263.348 8.64937C263.348 7.903 263.192 7.25294 262.879 6.69918C262.578 6.14542 262.156 5.71807 261.615 5.41711C261.085 5.10412 260.483 4.94762 259.809 4.94762C259.147 4.94762 258.551 5.10412 258.021 5.41711C257.492 5.71807 257.07 6.14542 256.757 6.69918C256.444 7.25294 256.288 7.903 256.288 8.64937C256.288 9.3837 256.444 10.0338 256.757 10.5996C257.07 11.1533 257.492 11.5867 258.021 11.8997C258.551 12.2006 259.147 12.3511 259.809 12.3511ZM263.384 13.3984V10.5454L263.511 8.63131L263.33 6.71724V-8.03047e-05H264.612V13.3984H263.384ZM276.845 13.4887C275.906 13.4887 275.063 13.2841 274.317 12.8748C273.583 12.4534 273.005 11.8816 272.584 11.1593C272.162 10.425 271.952 9.58835 271.952 8.64937C271.952 7.69835 272.162 6.86169 272.584 6.1394C273.005 5.41711 273.583 4.85131 274.317 4.44202C275.063 4.03272 275.906 3.82807 276.845 3.82807C277.652 3.82807 278.38 3.98456 279.03 4.29756C279.68 4.61055 280.192 5.08004 280.565 5.70603L279.608 6.35609C279.283 5.87456 278.88 5.51944 278.398 5.29071C277.917 5.06198 277.393 4.94762 276.827 4.94762C276.153 4.94762 275.545 5.10412 275.003 5.41711C274.462 5.71807 274.034 6.14542 273.721 6.69918C273.408 7.25294 273.252 7.903 273.252 8.64937C273.252 9.39574 273.408 10.0458 273.721 10.5996C274.034 11.1533 274.462 11.5867 275.003 11.8997C275.545 12.2006 276.153 12.3511 276.827 12.3511C277.393 12.3511 277.917 12.2368 278.398 12.008C278.88 11.7793 279.283 11.4302 279.608 10.9607L280.565 11.6108C280.192 12.2247 279.68 12.6942 279.03 13.0192C278.38 13.3322 277.652 13.4887 276.845 13.4887ZM287.002 13.4887C286.195 13.4887 285.491 13.3382 284.889 13.0373C284.287 12.7363 283.818 12.2849 283.481 11.683C283.156 11.0811 282.993 10.3287 282.993 9.42583V3.91835H284.275V9.28137C284.275 10.2926 284.522 11.057 285.016 11.5747C285.521 12.0803 286.225 12.3331 287.128 12.3331C287.79 12.3331 288.362 12.2006 288.844 11.9358C289.337 11.6589 289.711 11.2617 289.963 10.744C290.228 10.2264 290.361 9.6064 290.361 8.88411V3.91835H291.643V13.3984H290.415V10.7982L290.613 11.2677C290.312 11.9659 289.843 12.5136 289.205 12.9109C288.579 13.2961 287.845 13.4887 287.002 13.4887ZM300.109 13.4887C299.291 13.4887 298.55 13.3021 297.888 12.9289C297.226 12.5437 296.696 11.996 296.299 11.2857C295.914 10.5634 295.721 9.68465 295.721 8.64937C295.721 7.61408 295.914 6.74131 296.299 6.03106C296.684 5.30877 297.208 4.76103 297.87 4.38784C298.532 4.01466 299.279 3.82807 300.109 3.82807C301.012 3.82807 301.819 4.03272 302.529 4.44202C303.251 4.83928 303.817 5.40507 304.226 6.1394C304.636 6.86169 304.84 7.69835 304.84 8.64937C304.84 9.61242 304.636 10.4551 304.226 11.1774C303.817 11.8997 303.251 12.4655 302.529 12.8748C301.819 13.2841 301.012 13.4887 300.109 13.4887ZM295.216 16.9016V3.91835H296.444V6.77141L296.317 8.66742L296.498 10.5815V16.9016H295.216ZM300.019 12.3511C300.693 12.3511 301.295 12.2006 301.825 11.8997C302.354 11.5867 302.776 11.1533 303.089 10.5996C303.402 10.0338 303.558 9.3837 303.558 8.64937C303.558 7.91504 303.402 7.27099 303.089 6.71724C302.776 6.16348 302.354 5.7301 301.825 5.41711C301.295 5.10412 300.693 4.94762 300.019 4.94762C299.345 4.94762 298.737 5.10412 298.195 5.41711C297.666 5.7301 297.244 6.16348 296.931 6.71724C296.63 7.27099 296.48 7.91504 296.48 8.64937C296.48 9.3837 296.63 10.0338 296.931 10.5996C297.244 11.1533 297.666 11.5867 298.195 11.8997C298.737 12.2006 299.345 12.3511 300.019 12.3511ZM312.18 13.3984V3.91835H313.462V13.3984H312.18ZM312.83 1.82371C312.565 1.82371 312.342 1.73342 312.162 1.55285C311.981 1.37228 311.891 1.15559 311.891 0.902785C311.891 0.649982 311.981 0.439314 312.162 0.270779C312.342 0.0902061 312.565 -8.03047e-05 312.83 -8.03047e-05C313.095 -8.03047e-05 313.317 0.0841871 313.498 0.252722C313.679 0.421257 313.769 0.631925 313.769 0.884728C313.769 1.14957 313.679 1.37228 313.498 1.55285C313.329 1.73342 313.107 1.82371 312.83 1.82371ZM320.803 13.4887C319.9 13.4887 319.088 13.2841 318.365 12.8748C317.655 12.4655 317.095 11.8997 316.686 11.1774C316.277 10.4431 316.072 9.60039 316.072 8.64937C316.072 7.68631 316.277 6.84364 316.686 6.12134C317.095 5.39905 317.655 4.83928 318.365 4.44202C319.088 4.03272 319.9 3.82807 320.803 3.82807C321.634 3.82807 322.374 4.01466 323.024 4.38784C323.686 4.76103 324.21 5.30877 324.595 6.03106C324.992 6.74131 325.191 7.61408 325.191 8.64937C325.191 9.67261 324.998 10.5454 324.613 11.2677C324.228 11.99 323.704 12.5437 323.042 12.9289C322.392 13.3021 321.646 13.4887 320.803 13.4887ZM320.893 12.3511C321.568 12.3511 322.169 12.2006 322.699 11.8997C323.241 11.5867 323.662 11.1533 323.963 10.5996C324.276 10.0338 324.433 9.3837 324.433 8.64937C324.433 7.903 324.276 7.25294 323.963 6.69918C323.662 6.14542 323.241 5.71807 322.699 5.41711C322.169 5.10412 321.568 4.94762 320.893 4.94762C320.231 4.94762 319.635 5.10412 319.106 5.41711C318.576 5.71807 318.155 6.14542 317.842 6.69918C317.529 7.25294 317.372 7.903 317.372 8.64937C317.372 9.3837 317.529 10.0338 317.842 10.5996C318.155 11.1533 318.576 11.5867 319.106 11.8997C319.635 12.2006 320.231 12.3511 320.893 12.3511ZM324.469 13.3984V10.5454L324.595 8.63131L324.415 6.71724V-8.03047e-05H325.697V13.3984H324.469ZM333.294 13.4887C332.307 13.4887 331.44 13.2841 330.694 12.8748C329.947 12.4534 329.363 11.8816 328.942 11.1593C328.521 10.425 328.31 9.58835 328.31 8.64937C328.31 7.71039 328.509 6.87975 328.906 6.15746C329.315 5.43517 329.869 4.86937 330.567 4.46007C331.278 4.03874 332.072 3.82807 332.951 3.82807C333.842 3.82807 334.63 4.03272 335.316 4.44202C336.015 4.83928 336.562 5.40507 336.96 6.1394C337.357 6.86169 337.555 7.69835 337.555 8.64937C337.555 8.70956 337.549 8.77577 337.537 8.848C337.537 8.90819 337.537 8.9744 337.537 9.04663H329.285V8.08959H336.851L336.346 8.46879C336.346 7.78262 336.195 7.17469 335.894 6.64501C335.605 6.10329 335.208 5.68195 334.702 5.381C334.197 5.08004 333.613 4.92956 332.951 4.92956C332.301 4.92956 331.717 5.08004 331.199 5.381C330.682 5.68195 330.278 6.10329 329.989 6.64501C329.701 7.18673 329.556 7.80669 329.556 8.50491V8.70354C329.556 9.42583 329.713 10.0639 330.026 10.6176C330.351 11.1593 330.796 11.5867 331.362 11.8997C331.94 12.2006 332.596 12.3511 333.33 12.3511C333.908 12.3511 334.444 12.2488 334.937 12.0441C335.443 11.8395 335.876 11.5265 336.237 11.1052L336.96 11.9358C336.538 12.4414 336.009 12.8266 335.371 13.0915C334.745 13.3563 334.052 13.4887 333.294 13.4887ZM345.841 13.3984V11.3038L345.787 10.9607V7.45759C345.787 6.65103 345.558 6.03106 345.101 5.59768C344.656 5.16431 343.987 4.94762 343.097 4.94762C342.483 4.94762 341.899 5.04995 341.345 5.25459C340.791 5.45924 340.322 5.7301 339.937 6.06717L339.359 5.11014C339.84 4.70084 340.418 4.38784 341.092 4.17116C341.766 3.94243 342.477 3.82807 343.223 3.82807C344.451 3.82807 345.396 4.13504 346.058 4.74899C346.732 5.3509 347.069 6.27182 347.069 7.51176V13.3984H345.841ZM342.573 13.4887C341.863 13.4887 341.243 13.3744 340.713 13.1456C340.195 12.9049 339.798 12.5798 339.521 12.1705C339.244 11.7492 339.106 11.2677 339.106 10.726C339.106 10.2324 339.22 9.78698 339.449 9.38972C339.69 8.98042 340.075 8.65539 340.605 8.41462C341.146 8.16182 341.869 8.03542 342.772 8.03542H346.04V8.99246H342.808C341.893 8.99246 341.255 9.15497 340.894 9.48C340.545 9.80503 340.37 10.2083 340.37 10.6898C340.37 11.2316 340.581 11.6649 341.002 11.99C341.423 12.315 342.013 12.4775 342.772 12.4775C343.494 12.4775 344.114 12.315 344.632 11.99C345.161 11.6529 345.546 11.1714 345.787 10.5454L346.076 11.4302C345.835 12.0562 345.414 12.5558 344.812 12.9289C344.222 13.3021 343.476 13.4887 342.573 13.4887ZM350.552 13.3984V-8.03047e-05H351.834V13.3984H350.552ZM13.5957 39.3984V28.7266C13.5957 27.8839 13.8425 27.2037 14.3361 26.6861C14.8296 26.1685 15.5399 25.9096 16.4668 25.9096C16.828 25.9096 17.1771 25.9578 17.5141 26.0541C17.8512 26.1504 18.1341 26.3009 18.3628 26.5055L17.9295 27.4626C17.7489 27.3061 17.5382 27.1917 17.2975 27.1195C17.0567 27.0352 16.7979 26.9931 16.521 26.9931C15.9793 26.9931 15.564 27.1435 15.275 27.4445C14.9861 27.7455 14.8417 28.1909 14.8417 28.7807V30.2253L14.8778 30.8212V39.3984H13.5957ZM11.8983 30.9837V29.9184H17.767V30.9837H11.8983ZM23.2036 39.4887C22.2887 39.4887 21.4641 39.2841 20.7298 38.8748C20.0075 38.4534 19.4357 37.8816 19.0143 37.1593C18.593 36.425 18.3823 35.5883 18.3823 34.6494C18.3823 33.6983 18.593 32.8617 19.0143 32.1394C19.4357 31.4171 20.0075 30.8513 20.7298 30.442C21.4521 30.0327 22.2767 29.8281 23.2036 29.8281C24.1426 29.8281 24.9732 30.0327 25.6955 30.442C26.4298 30.8513 27.0017 31.4171 27.411 32.1394C27.8323 32.8617 28.043 33.6983 28.043 34.6494C28.043 35.5883 27.8323 36.425 27.411 37.1593C27.0017 37.8816 26.4298 38.4534 25.6955 38.8748C24.9612 39.2841 24.1306 39.4887 23.2036 39.4887ZM23.2036 38.3511C23.8898 38.3511 24.4977 38.2006 25.0274 37.8997C25.5571 37.5867 25.9724 37.1533 26.2734 36.5996C26.5863 36.0338 26.7428 35.3837 26.7428 34.6494C26.7428 33.903 26.5863 33.2529 26.2734 32.6992C25.9724 32.1454 25.5571 31.7181 25.0274 31.4171C24.4977 31.1041 23.8958 30.9476 23.2217 30.9476C22.5475 30.9476 21.9456 31.1041 21.4159 31.4171C20.8863 31.7181 20.4649 32.1454 20.1519 32.6992C19.8389 33.2529 19.6824 33.903 19.6824 34.6494C19.6824 35.3837 19.8389 36.0338 20.1519 36.5996C20.4649 37.1533 20.8863 37.5867 21.4159 37.8997C21.9456 38.2006 22.5415 38.3511 23.2036 38.3511ZM30.6604 39.3984V29.9184H31.8883V32.5005L31.7619 32.0491C32.0268 31.3268 32.4722 30.7791 33.0982 30.4059C33.7242 30.0207 34.5006 29.8281 35.4276 29.8281V31.074C35.3794 31.074 35.3312 31.074 35.2831 31.074C35.2349 31.062 35.1868 31.056 35.1386 31.056C34.1395 31.056 33.357 31.3629 32.7912 31.9769C32.2254 32.5788 31.9425 33.4395 31.9425 34.5591V39.3984H30.6604ZM45.2342 39.5068C44.4397 39.5068 43.6813 39.3984 42.959 39.1817C42.2487 38.9651 41.689 38.7002 41.2797 38.3872L42.002 37.0149C42.4113 37.2918 42.9169 37.5265 43.5188 37.7191C44.1207 37.9117 44.7346 38.008 45.3606 38.008C46.1672 38.008 46.745 37.8937 47.0941 37.6649C47.4553 37.4362 47.6358 37.1172 47.6358 36.7079C47.6358 36.4069 47.5275 36.1722 47.3108 36.0037C47.0941 35.8351 46.8052 35.7087 46.4441 35.6245C46.095 35.5402 45.7037 35.468 45.2703 35.4078C44.837 35.3355 44.4036 35.2513 43.9702 35.155C43.5368 35.0466 43.1396 34.9022 42.7784 34.7216C42.4173 34.529 42.1284 34.2702 41.9117 33.9451C41.695 33.6081 41.5866 33.1626 41.5866 32.6089C41.5866 32.0311 41.7492 31.5255 42.0742 31.0921C42.3992 30.6587 42.8567 30.3277 43.4465 30.0989C44.0485 29.8582 44.7587 29.7378 45.5773 29.7378C46.2033 29.7378 46.8353 29.816 47.4733 29.9725C48.1234 30.117 48.6531 30.3277 49.0624 30.6045L48.322 31.9769C47.8886 31.688 47.4372 31.4893 46.9677 31.381C46.4982 31.2727 46.0287 31.2185 45.5593 31.2185C44.8008 31.2185 44.2351 31.3449 43.8619 31.5977C43.4887 31.8384 43.3021 32.1514 43.3021 32.5367C43.3021 32.8617 43.4104 33.1145 43.6271 33.2951C43.8558 33.4636 44.1448 33.596 44.4939 33.6923C44.855 33.7886 45.2523 33.8729 45.6857 33.9451C46.119 34.0053 46.5524 34.0896 46.9858 34.1979C47.4192 34.2942 47.8104 34.4327 48.1595 34.6133C48.5207 34.7938 48.8096 35.0466 49.0263 35.3717C49.255 35.6967 49.3693 36.1301 49.3693 36.6718C49.3693 37.2496 49.2008 37.7492 48.8637 38.1705C48.5267 38.5919 48.0512 38.9229 47.4372 39.1637C46.8233 39.3924 46.0889 39.5068 45.2342 39.5068ZM51.5358 39.3984V29.8281H53.2693V39.3984H51.5358ZM52.4025 27.9862C52.0655 27.9862 51.7826 27.8779 51.5539 27.6612C51.3372 27.4445 51.2288 27.1797 51.2288 26.8667C51.2288 26.5416 51.3372 26.2708 51.5539 26.0541C51.7826 25.8374 52.0655 25.7291 52.4025 25.7291C52.7396 25.7291 53.0165 25.8374 53.2332 26.0541C53.4619 26.2587 53.5763 26.5176 53.5763 26.8306C53.5763 27.1556 53.4679 27.4325 53.2512 27.6612C53.0346 27.8779 52.7517 27.9862 52.4025 27.9862ZM61.6894 29.7378C62.4718 29.7378 63.158 29.8883 63.7479 30.1892C64.3498 30.4902 64.8193 30.9476 65.1564 31.5616C65.4934 32.1755 65.662 32.952 65.662 33.891V39.3984H63.9285V34.0896C63.9285 33.1626 63.6997 32.4644 63.2423 31.9949C62.7969 31.5255 62.1649 31.2907 61.3463 31.2907C60.7323 31.2907 60.1966 31.4111 59.7392 31.6519C59.2817 31.8926 58.9266 32.2477 58.6738 32.7172C58.433 33.1867 58.3126 33.7706 58.3126 34.4688V39.3984H56.5791V29.8281H58.2404V32.4103L57.9696 31.7241C58.2825 31.0981 58.7641 30.6106 59.4141 30.2614C60.0642 29.9123 60.8226 29.7378 61.6894 29.7378ZM73.0594 43.0099C72.1806 43.0099 71.3259 42.8835 70.4953 42.6307C69.6767 42.3899 69.0085 42.0408 68.4909 41.5834L69.3215 40.2471C69.7669 40.6324 70.3147 40.9333 70.9647 41.15C71.6148 41.3787 72.295 41.4931 73.0052 41.4931C74.1368 41.4931 74.9674 41.2282 75.4971 40.6986C76.0268 40.1689 76.2916 39.3623 76.2916 38.2789V36.2565L76.4722 34.3605L76.3819 32.4464V29.8281H78.0251V38.0983C78.0251 39.7837 77.6038 41.0236 76.7611 41.8181C75.9185 42.6126 74.6845 43.0099 73.0594 43.0099ZM72.8427 39.0012C71.9158 39.0012 71.0851 38.8086 70.3508 38.4233C69.6285 38.0261 69.0507 37.4783 68.6173 36.7801C68.196 36.0819 67.9853 35.2754 67.9853 34.3605C67.9853 33.4335 68.196 32.6269 68.6173 31.9408C69.0507 31.2426 69.6285 30.7008 70.3508 30.3156C71.0851 29.9304 71.9158 29.7378 72.8427 29.7378C73.6613 29.7378 74.4077 29.9063 75.0818 30.2434C75.7559 30.5684 76.2916 31.074 76.6889 31.7602C77.0982 32.4464 77.3029 33.3131 77.3029 34.3605C77.3029 35.3957 77.0982 36.2565 76.6889 36.9426C76.2916 37.6288 75.7559 38.1465 75.0818 38.4956C74.4077 38.8326 73.6613 39.0012 72.8427 39.0012ZM73.0413 37.4844C73.6794 37.4844 74.2452 37.3519 74.7387 37.0871C75.2323 36.8223 75.6175 36.4551 75.8944 35.9856C76.1833 35.5161 76.3278 34.9744 76.3278 34.3605C76.3278 33.7465 76.1833 33.2048 75.8944 32.7353C75.6175 32.2658 75.2323 31.9047 74.7387 31.6519C74.2452 31.387 73.6794 31.2546 73.0413 31.2546C72.4033 31.2546 71.8315 31.387 71.3259 31.6519C70.8323 31.9047 70.4411 32.2658 70.1522 32.7353C69.8753 33.2048 69.7368 33.7465 69.7368 34.3605C69.7368 34.9744 69.8753 35.5161 70.1522 35.9856C70.4411 36.4551 70.8323 36.8223 71.3259 37.0871C71.8315 37.3519 72.4033 37.4844 73.0413 37.4844ZM81.3374 39.3984V25.9999H83.0709V39.3984H81.3374ZM90.6423 39.5068C89.619 39.5068 88.7162 39.2961 87.9337 38.8748C87.1632 38.4534 86.5613 37.8756 86.1279 37.1413C85.7066 36.4069 85.4959 35.5643 85.4959 34.6133C85.4959 33.6622 85.7006 32.8196 86.1099 32.0852C86.5312 31.3509 87.103 30.7791 87.8253 30.3698C88.5597 29.9484 89.3843 29.7378 90.2992 29.7378C91.2261 29.7378 92.0447 29.9424 92.755 30.3517C93.4652 30.761 94.019 31.3389 94.4162 32.0852C94.8255 32.8196 95.0302 33.6803 95.0302 34.6674C95.0302 34.7397 95.0242 34.8239 95.0121 34.9202C95.0121 35.0165 95.0061 35.1068 94.9941 35.1911H86.8502V33.9451H94.0912L93.387 34.3785C93.399 33.7646 93.2726 33.2168 93.0078 32.7353C92.7429 32.2538 92.3758 31.8806 91.9063 31.6157C91.4488 31.3389 90.9131 31.2004 90.2992 31.2004C89.6973 31.2004 89.1616 31.3389 88.6921 31.6157C88.2226 31.8806 87.8554 32.2598 87.5906 32.7534C87.3257 33.2349 87.1933 33.7886 87.1933 34.4146V34.7035C87.1933 35.3416 87.3378 35.9134 87.6267 36.419C87.9277 36.9125 88.343 37.2978 88.8727 37.5747C89.4023 37.8515 90.0103 37.99 90.6964 37.99C91.2622 37.99 91.7739 37.8937 92.2313 37.7011C92.7008 37.5084 93.1101 37.2195 93.4592 36.8343L94.4162 37.9539C93.9829 38.4595 93.4412 38.8447 92.7911 39.1095C92.1531 39.3744 91.4368 39.5068 90.6423 39.5068ZM105.031 39.5068C104.237 39.5068 103.478 39.3984 102.756 39.1817C102.046 38.9651 101.486 38.7002 101.077 38.3872L101.799 37.0149C102.208 37.2918 102.714 37.5265 103.316 37.7191C103.918 37.9117 104.532 38.008 105.158 38.008C105.964 38.008 106.542 37.8937 106.891 37.6649C107.252 37.4362 107.433 37.1172 107.433 36.7079C107.433 36.4069 107.325 36.1722 107.108 36.0037C106.891 35.8351 106.602 35.7087 106.241 35.6245C105.892 35.5402 105.501 35.468 105.068 35.4078C104.634 35.3355 104.201 35.2513 103.767 35.155C103.334 35.0466 102.937 34.9022 102.576 34.7216C102.214 34.529 101.926 34.2702 101.709 33.9451C101.492 33.6081 101.384 33.1626 101.384 32.6089C101.384 32.0311 101.546 31.5255 101.871 31.0921C102.196 30.6587 102.654 30.3277 103.244 30.0989C103.846 29.8582 104.556 29.7378 105.374 29.7378C106 29.7378 106.632 29.816 107.271 29.9725C107.921 30.117 108.45 30.3277 108.86 30.6045L108.119 31.9769C107.686 31.688 107.234 31.4893 106.765 31.381C106.295 31.2727 105.826 31.2185 105.356 31.2185C104.598 31.2185 104.032 31.3449 103.659 31.5977C103.286 31.8384 103.099 32.1514 103.099 32.5367C103.099 32.8617 103.208 33.1145 103.424 33.2951C103.653 33.4636 103.942 33.596 104.291 33.6923C104.652 33.7886 105.049 33.8729 105.483 33.9451C105.916 34.0053 106.35 34.0896 106.783 34.1979C107.216 34.2942 107.608 34.4327 107.957 34.6133C108.318 34.7938 108.607 35.0466 108.823 35.3717C109.052 35.6967 109.167 36.1301 109.167 36.6718C109.167 37.2496 108.998 37.7492 108.661 38.1705C108.324 38.5919 107.848 38.9229 107.234 39.1637C106.62 39.3924 105.886 39.5068 105.031 39.5068ZM115.594 39.5068C114.571 39.5068 113.668 39.2961 112.886 38.8748C112.115 38.4534 111.514 37.8756 111.08 37.1413C110.659 36.4069 110.448 35.5643 110.448 34.6133C110.448 33.6622 110.653 32.8196 111.062 32.0852C111.483 31.3509 112.055 30.7791 112.778 30.3698C113.512 29.9484 114.337 29.7378 115.251 29.7378C116.178 29.7378 116.997 29.9424 117.707 30.3517C118.417 30.761 118.971 31.3389 119.368 32.0852C119.778 32.8196 119.982 33.6803 119.982 34.6674C119.982 34.7397 119.976 34.8239 119.964 34.9202C119.964 35.0165 119.958 35.1068 119.946 35.1911H111.802V33.9451H119.043L118.339 34.3785C118.351 33.7646 118.225 33.2168 117.96 32.7353C117.695 32.2538 117.328 31.8806 116.859 31.6157C116.401 31.3389 115.865 31.2004 115.251 31.2004C114.649 31.2004 114.114 31.3389 113.644 31.6157C113.175 31.8806 112.808 32.2598 112.543 32.7534C112.278 33.2349 112.146 33.7886 112.146 34.4146V34.7035C112.146 35.3416 112.29 35.9134 112.579 36.419C112.88 36.9125 113.295 37.2978 113.825 37.5747C114.355 37.8515 114.962 37.99 115.649 37.99C116.214 37.99 116.726 37.8937 117.184 37.7011C117.653 37.5084 118.062 37.2195 118.411 36.8343L119.368 37.9539C118.935 38.4595 118.393 38.8447 117.743 39.1095C117.105 39.3744 116.389 39.5068 115.594 39.5068ZM122.39 39.3984V29.8281H124.051V32.4283L123.888 31.7783C124.153 31.1162 124.599 30.6106 125.225 30.2614C125.851 29.9123 126.621 29.7378 127.536 29.7378V31.4171C127.464 31.4051 127.391 31.3991 127.319 31.3991C127.259 31.3991 127.199 31.3991 127.139 31.3991C126.212 31.3991 125.477 31.6759 124.936 32.2297C124.394 32.7834 124.123 33.584 124.123 34.6313V39.3984H122.39ZM132.57 39.3984L128.381 29.8281H130.187L133.907 38.4956H133.04L136.832 29.8281H138.529L134.34 39.3984H132.57ZM140.147 39.3984V29.8281H141.881V39.3984H140.147ZM141.014 27.9862C140.677 27.9862 140.394 27.8779 140.165 27.6612C139.948 27.4445 139.84 27.1797 139.84 26.8667C139.84 26.5416 139.948 26.2708 140.165 26.0541C140.394 25.8374 140.677 25.7291 141.014 25.7291C141.351 25.7291 141.628 25.8374 141.844 26.0541C142.073 26.2587 142.188 26.5176 142.188 26.8306C142.188 27.1556 142.079 27.4325 141.863 27.6612C141.646 27.8779 141.363 27.9862 141.014 27.9862ZM150.301 29.7378C151.083 29.7378 151.769 29.8883 152.359 30.1892C152.961 30.4902 153.431 30.9476 153.768 31.5616C154.105 32.1755 154.273 32.952 154.273 33.891V39.3984H152.54V34.0896C152.54 33.1626 152.311 32.4644 151.854 31.9949C151.408 31.5255 150.776 31.2907 149.958 31.2907C149.344 31.2907 148.808 31.4111 148.35 31.6519C147.893 31.8926 147.538 32.2477 147.285 32.7172C147.044 33.1867 146.924 33.7706 146.924 34.4688V39.3984H145.19V29.8281H146.852V32.4103L146.581 31.7241C146.894 31.0981 147.375 30.6106 148.025 30.2614C148.675 29.9123 149.434 29.7378 150.301 29.7378ZM161.671 43.0099C160.792 43.0099 159.937 42.8835 159.107 42.6307C158.288 42.3899 157.62 42.0408 157.102 41.5834L157.933 40.2471C158.378 40.6324 158.926 40.9333 159.576 41.15C160.226 41.3787 160.906 41.4931 161.616 41.4931C162.748 41.4931 163.579 41.2282 164.108 40.6986C164.638 40.1689 164.903 39.3623 164.903 38.2789V36.2565L165.083 34.3605L164.993 32.4464V29.8281H166.636V38.0983C166.636 39.7837 166.215 41.0236 165.372 41.8181C164.53 42.6126 163.296 43.0099 161.671 43.0099ZM161.454 39.0012C160.527 39.0012 159.696 38.8086 158.962 38.4233C158.24 38.0261 157.662 37.4783 157.229 36.7801C156.807 36.0819 156.597 35.2754 156.597 34.3605C156.597 33.4335 156.807 32.6269 157.229 31.9408C157.662 31.2426 158.24 30.7008 158.962 30.3156C159.696 29.9304 160.527 29.7378 161.454 29.7378C162.273 29.7378 163.019 29.9063 163.693 30.2434C164.367 30.5684 164.903 31.074 165.3 31.7602C165.709 32.4464 165.914 33.3131 165.914 34.3605C165.914 35.3957 165.709 36.2565 165.3 36.9426C164.903 37.6288 164.367 38.1465 163.693 38.4956C163.019 38.8326 162.273 39.0012 161.454 39.0012ZM161.653 37.4844C162.291 37.4844 162.856 37.3519 163.35 37.0871C163.844 36.8223 164.229 36.4551 164.506 35.9856C164.795 35.5161 164.939 34.9744 164.939 34.3605C164.939 33.7465 164.795 33.2048 164.506 32.7353C164.229 32.2658 163.844 31.9047 163.35 31.6519C162.856 31.387 162.291 31.2546 161.653 31.2546C161.015 31.2546 160.443 31.387 159.937 31.6519C159.444 31.9047 159.052 32.2658 158.763 32.7353C158.487 33.2048 158.348 33.7465 158.348 34.3605C158.348 34.9744 158.487 35.5161 158.763 35.9856C159.052 36.4551 159.444 36.8223 159.937 37.0871C160.443 37.3519 161.015 37.4844 161.653 37.4844ZM172.693 39.5068C171.899 39.5068 171.14 39.3984 170.418 39.1817C169.708 38.9651 169.148 38.7002 168.739 38.3872L169.461 37.0149C169.87 37.2918 170.376 37.5265 170.978 37.7191C171.58 37.9117 172.194 38.008 172.82 38.008C173.626 38.008 174.204 37.8937 174.553 37.6649C174.914 37.4362 175.095 37.1172 175.095 36.7079C175.095 36.4069 174.987 36.1722 174.77 36.0037C174.553 35.8351 174.264 35.7087 173.903 35.6245C173.554 35.5402 173.163 35.468 172.729 35.4078C172.296 35.3355 171.863 35.2513 171.429 35.155C170.996 35.0466 170.599 34.9022 170.238 34.7216C169.876 34.529 169.588 34.2702 169.371 33.9451C169.154 33.6081 169.046 33.1626 169.046 32.6089C169.046 32.0311 169.208 31.5255 169.533 31.0921C169.858 30.6587 170.316 30.3277 170.906 30.0989C171.508 29.8582 172.218 29.7378 173.036 29.7378C173.662 29.7378 174.294 29.816 174.932 29.9725C175.583 30.117 176.112 30.3277 176.522 30.6045L175.781 31.9769C175.348 31.688 174.896 31.4893 174.427 31.381C173.957 31.2727 173.488 31.2185 173.018 31.2185C172.26 31.2185 171.694 31.3449 171.321 31.5977C170.948 31.8384 170.761 32.1514 170.761 32.5367C170.761 32.8617 170.87 33.1145 171.086 33.2951C171.315 33.4636 171.604 33.596 171.953 33.6923C172.314 33.7886 172.711 33.8729 173.145 33.9451C173.578 34.0053 174.012 34.0896 174.445 34.1979C174.878 34.2942 175.27 34.4327 175.619 34.6133C175.98 34.7938 176.269 35.0466 176.485 35.3717C176.714 35.6967 176.828 36.1301 176.828 36.6718C176.828 37.2496 176.66 37.7492 176.323 38.1705C175.986 38.5919 175.51 38.9229 174.896 39.1637C174.282 39.3924 173.548 39.5068 172.693 39.5068ZM185.797 39.3984L182.222 29.9184H183.45L186.7 38.7123H186.141L189.481 29.9184H190.583L193.887 38.7123H193.327L196.632 29.9184H197.806L194.212 39.3984H193.002L189.824 31.1282H190.203L187.007 39.3984H185.797ZM199.736 39.3984V29.9184H201.018V39.3984H199.736ZM200.386 27.8237C200.121 27.8237 199.899 27.7334 199.718 27.5528C199.537 27.3723 199.447 27.1556 199.447 26.9028C199.447 26.65 199.537 26.4393 199.718 26.2708C199.899 26.0902 200.121 25.9999 200.386 25.9999C200.651 25.9999 200.874 26.0842 201.054 26.2527C201.235 26.4213 201.325 26.6319 201.325 26.8847C201.325 27.1496 201.235 27.3723 201.054 27.5528C200.886 27.7334 200.663 27.8237 200.386 27.8237ZM207.583 39.4887C206.692 39.4887 206.006 39.248 205.524 38.7664C205.043 38.2849 204.802 37.6047 204.802 36.726V27.8237H206.084V36.6537C206.084 37.2075 206.223 37.6348 206.499 37.9358C206.788 38.2368 207.198 38.3872 207.727 38.3872C208.293 38.3872 208.763 38.2247 209.136 37.8997L209.587 38.8206C209.334 39.0493 209.027 39.2179 208.666 39.3262C208.317 39.4346 207.956 39.4887 207.583 39.4887ZM203.105 30.9837V29.9184H208.973V30.9837H203.105ZM216.761 29.8281C217.531 29.8281 218.205 29.9785 218.783 30.2795C219.373 30.5684 219.83 31.0138 220.155 31.6157C220.492 32.2177 220.661 32.9761 220.661 33.891V39.3984H219.379V34.0174C219.379 33.0182 219.126 32.2658 218.62 31.7602C218.127 31.2426 217.429 30.9837 216.526 30.9837C215.852 30.9837 215.262 31.1222 214.756 31.3991C214.263 31.6639 213.877 32.0551 213.601 32.5728C213.336 33.0784 213.203 33.6923 213.203 34.4146V39.3984H211.921V25.9999H213.203V32.5186L212.95 32.0311C213.251 31.3449 213.733 30.8092 214.395 30.424C215.057 30.0267 215.846 29.8281 216.761 29.8281ZM231.45 39.5068C230.656 39.5068 229.897 39.3984 229.175 39.1817C228.465 38.9651 227.905 38.7002 227.496 38.3872L228.218 37.0149C228.627 37.2918 229.133 37.5265 229.735 37.7191C230.337 37.9117 230.951 38.008 231.577 38.008C232.383 38.008 232.961 37.8937 233.31 37.6649C233.671 37.4362 233.852 37.1172 233.852 36.7079C233.852 36.4069 233.743 36.1722 233.527 36.0037C233.31 35.8351 233.021 35.7087 232.66 35.6245C232.311 35.5402 231.92 35.468 231.486 35.4078C231.053 35.3355 230.619 35.2513 230.186 35.155C229.753 35.0466 229.355 34.9022 228.994 34.7216C228.633 34.529 228.344 34.2702 228.128 33.9451C227.911 33.6081 227.803 33.1626 227.803 32.6089C227.803 32.0311 227.965 31.5255 228.29 31.0921C228.615 30.6587 229.073 30.3277 229.662 30.0989C230.264 29.8582 230.975 29.7378 231.793 29.7378C232.419 29.7378 233.051 29.816 233.689 29.9725C234.339 30.117 234.869 30.3277 235.278 30.6045L234.538 31.9769C234.105 31.688 233.653 31.4893 233.184 31.381C232.714 31.2727 232.245 31.2185 231.775 31.2185C231.017 31.2185 230.451 31.3449 230.078 31.5977C229.705 31.8384 229.518 32.1514 229.518 32.5367C229.518 32.8617 229.626 33.1145 229.843 33.2951C230.072 33.4636 230.361 33.596 230.71 33.6923C231.071 33.7886 231.468 33.8729 231.902 33.9451C232.335 34.0053 232.768 34.0896 233.202 34.1979C233.635 34.2942 234.026 34.4327 234.375 34.6133C234.737 34.7938 235.025 35.0466 235.242 35.3717C235.471 35.6967 235.585 36.1301 235.585 36.6718C235.585 37.2496 235.417 37.7492 235.08 38.1705C234.743 38.5919 234.267 38.9229 233.653 39.1637C233.039 39.3924 232.305 39.5068 231.45 39.5068ZM242.013 39.5068C240.99 39.5068 240.087 39.2961 239.305 38.8748C238.534 38.4534 237.932 37.8756 237.499 37.1413C237.078 36.4069 236.867 35.5643 236.867 34.6133C236.867 33.6622 237.072 32.8196 237.481 32.0852C237.902 31.3509 238.474 30.7791 239.196 30.3698C239.931 29.9484 240.755 29.7378 241.67 29.7378C242.597 29.7378 243.416 29.9424 244.126 30.3517C244.836 30.761 245.39 31.3389 245.787 32.0852C246.197 32.8196 246.401 33.6803 246.401 34.6674C246.401 34.7397 246.395 34.8239 246.383 34.9202C246.383 35.0165 246.377 35.1068 246.365 35.1911H238.221V33.9451H245.462L244.758 34.3785C244.77 33.7646 244.644 33.2168 244.379 32.7353C244.114 32.2538 243.747 31.8806 243.277 31.6157C242.82 31.3389 242.284 31.2004 241.67 31.2004C241.068 31.2004 240.533 31.3389 240.063 31.6157C239.594 31.8806 239.226 32.2598 238.962 32.7534C238.697 33.2349 238.564 33.7886 238.564 34.4146V34.7035C238.564 35.3416 238.709 35.9134 238.998 36.419C239.299 36.9125 239.714 37.2978 240.244 37.5747C240.773 37.8515 241.381 37.99 242.067 37.99C242.633 37.99 243.145 37.8937 243.602 37.7011C244.072 37.5084 244.481 37.2195 244.83 36.8343L245.787 37.9539C245.354 38.4595 244.812 38.8447 244.162 39.1095C243.524 39.3744 242.808 39.5068 242.013 39.5068ZM252.98 39.5068C252.004 39.5068 251.132 39.2961 250.361 38.8748C249.603 38.4534 249.007 37.8756 248.574 37.1413C248.14 36.4069 247.923 35.5643 247.923 34.6133C247.923 33.6622 248.14 32.8196 248.574 32.0852C249.007 31.3509 249.603 30.7791 250.361 30.3698C251.132 29.9484 252.004 29.7378 252.98 29.7378C253.846 29.7378 254.617 29.9123 255.291 30.2614C255.977 30.5985 256.507 31.1041 256.88 31.7783L255.562 32.6269C255.249 32.1575 254.863 31.8144 254.406 31.5977C253.961 31.369 253.479 31.2546 252.961 31.2546C252.335 31.2546 251.776 31.393 251.282 31.6699C250.789 31.9468 250.397 32.338 250.108 32.8436C249.819 33.3372 249.675 33.9271 249.675 34.6133C249.675 35.2994 249.819 35.8953 250.108 36.4009C250.397 36.9065 250.789 37.2978 251.282 37.5747C251.776 37.8515 252.335 37.99 252.961 37.99C253.479 37.99 253.961 37.8816 254.406 37.6649C254.863 37.4362 255.249 37.0871 255.562 36.6176L256.88 37.4482C256.507 38.1104 255.977 38.622 255.291 38.9831C254.617 39.3322 253.846 39.5068 252.98 39.5068ZM263.151 39.5068C262.332 39.5068 261.61 39.3563 260.984 39.0553C260.37 38.7544 259.889 38.2969 259.54 37.683C259.202 37.057 259.034 36.2745 259.034 35.3355V29.8281H260.767V35.1369C260.767 36.0759 260.99 36.7801 261.436 37.2496C261.893 37.7191 262.531 37.9539 263.35 37.9539C263.952 37.9539 264.475 37.8335 264.921 37.5927C265.366 37.3399 265.709 36.9788 265.95 36.5093C266.191 36.0277 266.311 35.4499 266.311 34.7758V29.8281H268.045V39.3984H266.401V36.8162L266.672 37.5024C266.359 38.1404 265.89 38.634 265.264 38.9831C264.638 39.3322 263.933 39.5068 263.151 39.5068ZM271.345 39.3984V29.8281H273.006V32.4283L272.843 31.7783C273.108 31.1162 273.554 30.6106 274.18 30.2614C274.806 29.9123 275.576 29.7378 276.491 29.7378V31.4171C276.419 31.4051 276.347 31.3991 276.274 31.3991C276.214 31.3991 276.154 31.3991 276.094 31.3991C275.167 31.3991 274.432 31.6759 273.891 32.2297C273.349 32.7834 273.078 33.584 273.078 34.6313V39.3984H271.345ZM282.801 39.5068C281.778 39.5068 280.875 39.2961 280.092 38.8748C279.322 38.4534 278.72 37.8756 278.287 37.1413C277.865 36.4069 277.655 35.5643 277.655 34.6133C277.655 33.6622 277.859 32.8196 278.268 32.0852C278.69 31.3509 279.262 30.7791 279.984 30.3698C280.718 29.9484 281.543 29.7378 282.458 29.7378C283.385 29.7378 284.203 29.9424 284.914 30.3517C285.624 30.761 286.178 31.3389 286.575 32.0852C286.984 32.8196 287.189 33.6803 287.189 34.6674C287.189 34.7397 287.183 34.8239 287.171 34.9202C287.171 35.0165 287.165 35.1068 287.153 35.1911H279.009V33.9451H286.25L285.546 34.3785C285.558 33.7646 285.431 33.2168 285.166 32.7353C284.902 32.2538 284.534 31.8806 284.065 31.6157C283.607 31.3389 283.072 31.2004 282.458 31.2004C281.856 31.2004 281.32 31.3389 280.851 31.6157C280.381 31.8806 280.014 32.2598 279.749 32.7534C279.484 33.2349 279.352 33.7886 279.352 34.4146V34.7035C279.352 35.3416 279.496 35.9134 279.785 36.419C280.086 36.9125 280.502 37.2978 281.031 37.5747C281.561 37.8515 282.169 37.99 282.855 37.99C283.421 37.99 283.932 37.8937 284.39 37.7011C284.859 37.5084 285.269 37.2195 285.618 36.8343L286.575 37.9539C286.141 38.4595 285.6 38.8447 284.95 39.1095C284.312 39.3744 283.595 39.5068 282.801 39.5068ZM288.91 42.0709L289.813 38.4233L290.047 39.4707C289.698 39.4707 289.403 39.3623 289.163 39.1456C288.934 38.9289 288.819 38.634 288.819 38.2608C288.819 37.8997 288.934 37.6047 289.163 37.376C289.403 37.1473 289.692 37.0329 290.029 37.0329C290.378 37.0329 290.661 37.1533 290.878 37.3941C291.095 37.6228 291.203 37.9117 291.203 38.2608C291.203 38.3812 291.191 38.5016 291.167 38.622C291.155 38.7303 291.125 38.8627 291.077 39.0192C291.04 39.1637 290.98 39.3443 290.896 39.561L290.047 42.0709H288.91ZM298.536 39.3984V25.9999H300.27V39.3984H298.536ZM307.841 39.5068C306.818 39.5068 305.915 39.2961 305.133 38.8748C304.362 38.4534 303.76 37.8756 303.327 37.1413C302.906 36.4069 302.695 35.5643 302.695 34.6133C302.695 33.6622 302.9 32.8196 303.309 32.0852C303.73 31.3509 304.302 30.7791 305.024 30.3698C305.759 29.9484 306.583 29.7378 307.498 29.7378C308.425 29.7378 309.244 29.9424 309.954 30.3517C310.664 30.761 311.218 31.3389 311.615 32.0852C312.025 32.8196 312.229 33.6803 312.229 34.6674C312.229 34.7397 312.223 34.8239 312.211 34.9202C312.211 35.0165 312.205 35.1068 312.193 35.1911H304.049V33.9451H311.29L310.586 34.3785C310.598 33.7646 310.472 33.2168 310.207 32.7353C309.942 32.2538 309.575 31.8806 309.105 31.6157C308.648 31.3389 308.112 31.2004 307.498 31.2004C306.896 31.2004 306.361 31.3389 305.891 31.6157C305.422 31.8806 305.054 32.2598 304.79 32.7534C304.525 33.2349 304.392 33.7886 304.392 34.4146V34.7035C304.392 35.3416 304.537 35.9134 304.826 36.419C305.127 36.9125 305.542 37.2978 306.072 37.5747C306.601 37.8515 307.209 37.99 307.895 37.99C308.461 37.99 308.973 37.8937 309.43 37.7011C309.9 37.5084 310.309 37.2195 310.658 36.8343L311.615 37.9539C311.182 38.4595 310.64 38.8447 309.99 39.1095C309.352 39.3744 308.636 39.5068 307.841 39.5068ZM320.313 39.3984V37.376L320.222 36.9968V33.5479C320.222 32.8135 320.006 32.2477 319.572 31.8505C319.151 31.4412 318.513 31.2365 317.658 31.2365C317.092 31.2365 316.539 31.3328 315.997 31.5255C315.455 31.706 314.998 31.9528 314.625 32.2658L313.902 30.9657C314.396 30.5684 314.986 30.2675 315.672 30.0628C316.37 29.8461 317.098 29.7378 317.857 29.7378C319.169 29.7378 320.18 30.0568 320.89 30.6948C321.601 31.3328 321.956 32.3079 321.956 33.6201V39.3984H320.313ZM317.171 39.5068C316.46 39.5068 315.834 39.3864 315.293 39.1456C314.763 38.9049 314.354 38.5738 314.065 38.1525C313.776 37.7191 313.631 37.2316 313.631 36.6898C313.631 36.1722 313.752 35.7027 313.993 35.2814C314.245 34.86 314.649 34.523 315.202 34.2702C315.768 34.0174 316.527 33.891 317.478 33.891H320.511V35.1369H317.55C316.683 35.1369 316.099 35.2814 315.798 35.5703C315.497 35.8592 315.347 36.2083 315.347 36.6176C315.347 37.0871 315.533 37.4663 315.907 37.7552C316.28 38.0321 316.797 38.1705 317.46 38.1705C318.11 38.1705 318.675 38.0261 319.157 37.7372C319.651 37.4482 320.006 37.0269 320.222 36.4732L320.565 37.6649C320.337 38.2307 319.933 38.6822 319.356 39.0192C318.778 39.3443 318.049 39.5068 317.171 39.5068ZM326.572 37.0871L326.608 34.8661L332.116 29.8281H334.211L329.985 33.9812L329.046 34.7758L326.572 37.0871ZM325.164 39.3984V25.9999H326.897V39.3984H325.164ZM332.477 39.3984L328.721 34.7397L329.841 33.3492L334.608 39.3984H332.477ZM335.271 35.1911V33.6923H340.129V35.1911H335.271ZM110.526 64.5068C109.732 64.5068 109.003 64.3262 108.341 63.9651C107.691 63.5919 107.167 63.0441 106.77 62.3218C106.385 61.5996 106.192 60.6967 106.192 59.6133C106.192 58.5298 106.379 57.6269 106.752 56.9047C107.137 56.1824 107.655 55.6406 108.305 55.2795C108.967 54.9184 109.708 54.7378 110.526 54.7378C111.465 54.7378 112.296 54.9424 113.018 55.3517C113.74 55.761 114.312 56.3328 114.733 57.0672C115.155 57.7895 115.365 58.6382 115.365 59.6133C115.365 60.5883 115.155 61.4431 114.733 62.1774C114.312 62.9117 113.74 63.4835 113.018 63.8928C112.296 64.3021 111.465 64.5068 110.526 64.5068ZM105.452 67.9016V54.8281H107.113V57.4103L107.005 59.6313L107.186 61.8524V67.9016H105.452ZM110.382 62.99C110.996 62.99 111.543 62.8515 112.025 62.5747C112.518 62.2978 112.904 61.9065 113.181 61.4009C113.469 60.8833 113.614 60.2874 113.614 59.6133C113.614 58.9271 113.469 58.3372 113.181 57.8436C112.904 57.338 112.518 56.9468 112.025 56.6699C111.543 56.393 110.996 56.2546 110.382 56.2546C109.78 56.2546 109.232 56.393 108.738 56.6699C108.257 56.9468 107.872 57.338 107.583 57.8436C107.306 58.3372 107.167 58.9271 107.167 59.6133C107.167 60.2874 107.306 60.8833 107.583 61.4009C107.872 61.9065 108.257 62.2978 108.738 62.5747C109.232 62.8515 109.78 62.99 110.382 62.99ZM117.761 64.3984V54.8281H119.422V57.4283L119.259 56.7783C119.524 56.1162 119.97 55.6106 120.596 55.2614C121.222 54.9123 121.992 54.7378 122.907 54.7378V56.4171C122.835 56.4051 122.762 56.3991 122.69 56.3991C122.63 56.3991 122.57 56.3991 122.51 56.3991C121.583 56.3991 120.848 56.6759 120.307 57.2297C119.765 57.7834 119.494 58.584 119.494 59.6313V64.3984H117.761ZM129.054 64.5068C128.091 64.5068 127.237 64.2961 126.49 63.8748C125.744 63.4534 125.154 62.8756 124.721 62.1413C124.287 61.3949 124.071 60.5522 124.071 59.6133C124.071 58.6622 124.287 57.8196 124.721 57.0852C125.154 56.3509 125.744 55.7791 126.49 55.3698C127.237 54.9484 128.091 54.7378 129.054 54.7378C130.005 54.7378 130.854 54.9484 131.6 55.3698C132.359 55.7791 132.949 56.3509 133.37 57.0852C133.803 57.8075 134.02 58.6502 134.02 59.6133C134.02 60.5643 133.803 61.4069 133.37 62.1413C132.949 62.8756 132.359 63.4534 131.6 63.8748C130.854 64.2961 130.005 64.5068 129.054 64.5068ZM129.054 62.99C129.668 62.99 130.216 62.8515 130.698 62.5747C131.191 62.2978 131.576 61.9065 131.853 61.4009C132.13 60.8833 132.269 60.2874 132.269 59.6133C132.269 58.9271 132.13 58.3372 131.853 57.8436C131.576 57.338 131.191 56.9468 130.698 56.6699C130.216 56.393 129.668 56.2546 129.054 56.2546C128.44 56.2546 127.893 56.393 127.411 56.6699C126.93 56.9468 126.544 57.338 126.255 57.8436C125.967 58.3372 125.822 58.9271 125.822 59.6133C125.822 60.2874 125.967 60.8833 126.255 61.4009C126.544 61.9065 126.93 62.2978 127.411 62.5747C127.893 62.8515 128.44 62.99 129.054 62.99ZM140.516 64.5068C139.553 64.5068 138.699 64.2961 137.952 63.8748C137.206 63.4534 136.616 62.8756 136.183 62.1413C135.749 61.3949 135.533 60.5522 135.533 59.6133C135.533 58.6622 135.749 57.8196 136.183 57.0852C136.616 56.3509 137.206 55.7791 137.952 55.3698C138.699 54.9484 139.553 54.7378 140.516 54.7378C141.467 54.7378 142.316 54.9484 143.063 55.3698C143.821 55.7791 144.411 56.3509 144.832 57.0852C145.266 57.8075 145.482 58.6502 145.482 59.6133C145.482 60.5643 145.266 61.4069 144.832 62.1413C144.411 62.8756 143.821 63.4534 143.063 63.8748C142.316 64.2961 141.467 64.5068 140.516 64.5068ZM140.516 62.99C141.13 62.99 141.678 62.8515 142.16 62.5747C142.653 62.2978 143.038 61.9065 143.315 61.4009C143.592 60.8833 143.731 60.2874 143.731 59.6133C143.731 58.9271 143.592 58.3372 143.315 57.8436C143.038 57.338 142.653 56.9468 142.16 56.6699C141.678 56.393 141.13 56.2546 140.516 56.2546C139.903 56.2546 139.355 56.393 138.873 56.6699C138.392 56.9468 138.007 57.338 137.718 57.8436C137.429 58.3372 137.284 58.9271 137.284 59.6133C137.284 60.2874 137.429 60.8833 137.718 61.4009C138.007 61.9065 138.392 62.2978 138.873 62.5747C139.355 62.8515 139.903 62.99 140.516 62.99ZM148.132 64.3984V53.9794C148.132 53.0404 148.403 52.294 148.945 51.7403C149.499 51.1745 150.281 50.8916 151.292 50.8916C151.666 50.8916 152.021 50.9397 152.358 51.036C152.707 51.1203 153.002 51.2587 153.243 51.4514L152.719 52.7695C152.538 52.6251 152.334 52.5167 152.105 52.4445C151.876 52.3602 151.636 52.3181 151.383 52.3181C150.877 52.3181 150.492 52.4626 150.227 52.7515C149.962 53.0284 149.83 53.4437 149.83 53.9974V55.2795L149.866 56.074V64.3984H148.132ZM146.507 56.2546V54.8281H152.611V56.2546H146.507ZM159.348 64.3984V53.9794C159.348 53.0404 159.619 52.294 160.16 51.7403C160.714 51.1745 161.497 50.8916 162.508 50.8916C162.881 50.8916 163.236 50.9397 163.573 51.036C163.922 51.1203 164.217 51.2587 164.458 51.4514L163.934 52.7695C163.754 52.6251 163.549 52.5167 163.32 52.4445C163.092 52.3602 162.851 52.3181 162.598 52.3181C162.092 52.3181 161.707 52.4626 161.442 52.7515C161.177 53.0284 161.045 53.4437 161.045 53.9974V55.2795L161.081 56.074V64.3984H159.348ZM157.723 56.2546V54.8281H163.826V56.2546H157.723ZM165.461 64.3984V54.8281H167.122V57.4283L166.96 56.7783C167.224 56.1162 167.67 55.6106 168.296 55.2614C168.922 54.9123 169.692 54.7378 170.607 54.7378V56.4171C170.535 56.4051 170.463 56.3991 170.39 56.3991C170.33 56.3991 170.27 56.3991 170.21 56.3991C169.283 56.3991 168.549 56.6759 168.007 57.2297C167.465 57.7834 167.194 58.584 167.194 59.6313V64.3984H165.461ZM176.917 64.5068C175.894 64.5068 174.991 64.2961 174.208 63.8748C173.438 63.4534 172.836 62.8756 172.403 62.1413C171.981 61.4069 171.771 60.5643 171.771 59.6133C171.771 58.6622 171.975 57.8196 172.385 57.0852C172.806 56.3509 173.378 55.7791 174.1 55.3698C174.834 54.9484 175.659 54.7378 176.574 54.7378C177.501 54.7378 178.319 54.9424 179.03 55.3517C179.74 55.761 180.294 56.3389 180.691 57.0852C181.1 57.8196 181.305 58.6803 181.305 59.6674C181.305 59.7397 181.299 59.8239 181.287 59.9202C181.287 60.0165 181.281 60.1068 181.269 60.1911H173.125V58.9451H180.366L179.662 59.3785C179.674 58.7646 179.547 58.2168 179.283 57.7353C179.018 57.2538 178.651 56.8806 178.181 56.6157C177.724 56.3389 177.188 56.2004 176.574 56.2004C175.972 56.2004 175.436 56.3389 174.967 56.6157C174.497 56.8806 174.13 57.2598 173.865 57.7534C173.601 58.2349 173.468 58.7886 173.468 59.4146V59.7035C173.468 60.3416 173.613 60.9134 173.901 61.419C174.202 61.9125 174.618 62.2978 175.147 62.5747C175.677 62.8515 176.285 62.99 176.971 62.99C177.537 62.99 178.049 62.8937 178.506 62.7011C178.976 62.5084 179.385 62.2195 179.734 61.8343L180.691 62.9539C180.258 63.4595 179.716 63.8447 179.066 64.1095C178.428 64.3744 177.712 64.5068 176.917 64.5068ZM186.457 64.5068C185.662 64.5068 184.904 64.3984 184.182 64.1817C183.471 63.9651 182.912 63.7002 182.502 63.3872L183.225 62.0149C183.634 62.2918 184.139 62.5265 184.741 62.7191C185.343 62.9117 185.957 63.008 186.583 63.008C187.39 63.008 187.968 62.8937 188.317 62.6649C188.678 62.4362 188.858 62.1172 188.858 61.7079C188.858 61.4069 188.75 61.1722 188.533 61.0037C188.317 60.8351 188.028 60.7087 187.667 60.6245C187.318 60.5402 186.926 60.468 186.493 60.4078C186.06 60.3355 185.626 60.2513 185.193 60.155C184.759 60.0466 184.362 59.9022 184.001 59.7216C183.64 59.529 183.351 59.2702 183.134 58.9451C182.918 58.6081 182.809 58.1626 182.809 57.6089C182.809 57.0311 182.972 56.5255 183.297 56.0921C183.622 55.6587 184.079 55.3277 184.669 55.0989C185.271 54.8582 185.981 54.7378 186.8 54.7378C187.426 54.7378 188.058 54.816 188.696 54.9725C189.346 55.117 189.876 55.3277 190.285 55.6045L189.545 56.9769C189.111 56.688 188.66 56.4893 188.19 56.381C187.721 56.2727 187.251 56.2185 186.782 56.2185C186.023 56.2185 185.458 56.3449 185.084 56.5977C184.711 56.8384 184.525 57.1514 184.525 57.5367C184.525 57.8617 184.633 58.1145 184.85 58.2951C185.078 58.4636 185.367 58.596 185.716 58.6923C186.078 58.7886 186.475 58.8729 186.908 58.9451C187.342 59.0053 187.775 59.0896 188.208 59.1979C188.642 59.2942 189.033 59.4327 189.382 59.6133C189.743 59.7938 190.032 60.0466 190.249 60.3717C190.478 60.6967 190.592 61.1301 190.592 61.6718C190.592 62.2496 190.423 62.7492 190.086 63.1705C189.749 63.5919 189.274 63.9229 188.66 64.1637C188.046 64.3924 187.311 64.5068 186.457 64.5068ZM197.869 54.7378C198.651 54.7378 199.337 54.8883 199.927 55.1892C200.529 55.4902 200.999 55.9476 201.336 56.5616C201.673 57.1755 201.841 57.952 201.841 58.891V64.3984H200.108V59.0896C200.108 58.1626 199.879 57.4644 199.422 56.9949C198.976 56.5255 198.344 56.2907 197.525 56.2907C196.912 56.2907 196.376 56.4111 195.918 56.6519C195.461 56.8926 195.106 57.2477 194.853 57.7172C194.612 58.1867 194.492 58.7706 194.492 59.4688V64.3984H192.758V50.9999H194.492V57.4103L194.149 56.7241C194.462 56.0981 194.943 55.6106 195.593 55.2614C196.243 54.9123 197.002 54.7378 197.869 54.7378ZM210.16 54.7378C210.942 54.7378 211.628 54.8883 212.218 55.1892C212.82 55.4902 213.289 55.9476 213.627 56.5616C213.964 57.1755 214.132 57.952 214.132 58.891V64.3984H212.399V59.0896C212.399 58.1626 212.17 57.4644 211.712 56.9949C211.267 56.5255 210.635 56.2907 209.816 56.2907C209.202 56.2907 208.667 56.4111 208.209 56.6519C207.752 56.8926 207.397 57.2477 207.144 57.7172C206.903 58.1867 206.783 58.7706 206.783 59.4688V64.3984H205.049V54.8281H206.711V57.4103L206.44 56.7241C206.753 56.0981 207.234 55.6106 207.884 55.2614C208.534 54.9123 209.293 54.7378 210.16 54.7378ZM221.602 64.5068C220.579 64.5068 219.676 64.2961 218.893 63.8748C218.123 63.4534 217.521 62.8756 217.087 62.1413C216.666 61.4069 216.455 60.5643 216.455 59.6133C216.455 58.6622 216.66 57.8196 217.069 57.0852C217.491 56.3509 218.063 55.7791 218.785 55.3698C219.519 54.9484 220.344 54.7378 221.259 54.7378C222.186 54.7378 223.004 54.9424 223.714 55.3517C224.425 55.761 224.979 56.3389 225.376 57.0852C225.785 57.8196 225.99 58.6803 225.99 59.6674C225.99 59.7397 225.984 59.8239 225.972 59.9202C225.972 60.0165 225.966 60.1068 225.954 60.1911H217.81V58.9451H225.051L224.346 59.3785C224.359 58.7646 224.232 58.2168 223.967 57.7353C223.702 57.2538 223.335 56.8806 222.866 56.6157C222.408 56.3389 221.873 56.2004 221.259 56.2004C220.657 56.2004 220.121 56.3389 219.652 56.6157C219.182 56.8806 218.815 57.2598 218.55 57.7534C218.285 58.2349 218.153 58.7886 218.153 59.4146V59.7035C218.153 60.3416 218.297 60.9134 218.586 61.419C218.887 61.9125 219.302 62.2978 219.832 62.5747C220.362 62.8515 220.97 62.99 221.656 62.99C222.222 62.99 222.733 62.8937 223.191 62.7011C223.66 62.5084 224.07 62.2195 224.419 61.8343L225.376 62.9539C224.942 63.4595 224.401 63.8447 223.751 64.1095C223.113 64.3744 222.396 64.5068 221.602 64.5068ZM231.142 64.5068C230.347 64.5068 229.589 64.3984 228.866 64.1817C228.156 63.9651 227.596 63.7002 227.187 63.3872L227.909 62.0149C228.319 62.2918 228.824 62.5265 229.426 62.7191C230.028 62.9117 230.642 63.008 231.268 63.008C232.075 63.008 232.652 62.8937 233.001 62.6649C233.363 62.4362 233.543 62.1172 233.543 61.7079C233.543 61.4069 233.435 61.1722 233.218 61.0037C233.001 60.8351 232.713 60.7087 232.351 60.6245C232.002 60.5402 231.611 60.468 231.178 60.4078C230.744 60.3355 230.311 60.2513 229.878 60.155C229.444 60.0466 229.047 59.9022 228.686 59.7216C228.325 59.529 228.036 59.2702 227.819 58.9451C227.602 58.6081 227.494 58.1626 227.494 57.6089C227.494 57.0311 227.656 56.5255 227.982 56.0921C228.307 55.6587 228.764 55.3277 229.354 55.0989C229.956 54.8582 230.666 54.7378 231.485 54.7378C232.111 54.7378 232.743 54.816 233.381 54.9725C234.031 55.117 234.56 55.3277 234.97 55.6045L234.229 56.9769C233.796 56.688 233.345 56.4893 232.875 56.381C232.406 56.2727 231.936 56.2185 231.467 56.2185C230.708 56.2185 230.142 56.3449 229.769 56.5977C229.396 56.8384 229.209 57.1514 229.209 57.5367C229.209 57.8617 229.318 58.1145 229.534 58.2951C229.763 58.4636 230.052 58.596 230.401 58.6923C230.762 58.7886 231.16 58.8729 231.593 58.9451C232.026 59.0053 232.46 59.0896 232.893 59.1979C233.326 59.2942 233.718 59.4327 234.067 59.6133C234.428 59.7938 234.717 60.0466 234.934 60.3717C235.162 60.6967 235.277 61.1301 235.277 61.6718C235.277 62.2496 235.108 62.7492 234.771 63.1705C234.434 63.5919 233.958 63.9229 233.345 64.1637C232.731 64.3924 231.996 64.5068 231.142 64.5068ZM240.188 64.5068C239.393 64.5068 238.635 64.3984 237.913 64.1817C237.202 63.9651 236.643 63.7002 236.233 63.3872L236.956 62.0149C237.365 62.2918 237.87 62.5265 238.472 62.7191C239.074 62.9117 239.688 63.008 240.314 63.008C241.121 63.008 241.699 62.8937 242.048 62.6649C242.409 62.4362 242.589 62.1172 242.589 61.7079C242.589 61.4069 242.481 61.1722 242.264 61.0037C242.048 60.8351 241.759 60.7087 241.398 60.6245C241.049 60.5402 240.657 60.468 240.224 60.4078C239.791 60.3355 239.357 60.2513 238.924 60.155C238.49 60.0466 238.093 59.9022 237.732 59.7216C237.371 59.529 237.082 59.2702 236.865 58.9451C236.649 58.6081 236.54 58.1626 236.54 57.6089C236.54 57.0311 236.703 56.5255 237.028 56.0921C237.353 55.6587 237.81 55.3277 238.4 55.0989C239.002 54.8582 239.712 54.7378 240.531 54.7378C241.157 54.7378 241.789 54.816 242.427 54.9725C243.077 55.117 243.607 55.3277 244.016 55.6045L243.276 56.9769C242.842 56.688 242.391 56.4893 241.921 56.381C241.452 56.2727 240.982 56.2185 240.513 56.2185C239.754 56.2185 239.189 56.3449 238.815 56.5977C238.442 56.8384 238.256 57.1514 238.256 57.5367C238.256 57.8617 238.364 58.1145 238.581 58.2951C238.809 58.4636 239.098 58.596 239.447 58.6923C239.809 58.7886 240.206 58.8729 240.639 58.9451C241.073 59.0053 241.506 59.0896 241.939 59.1979C242.373 59.2942 242.764 59.4327 243.113 59.6133C243.474 59.7938 243.763 60.0466 243.98 60.3717C244.209 60.6967 244.323 61.1301 244.323 61.6718C244.323 62.2496 244.154 62.7492 243.817 63.1705C243.48 63.5919 243.005 63.9229 242.391 64.1637C241.777 64.3924 241.043 64.5068 240.188 64.5068ZM246.905 64.5068C246.568 64.5068 246.279 64.3924 246.038 64.1637C245.797 63.9229 245.677 63.622 245.677 63.2608C245.677 62.8997 245.797 62.6047 246.038 62.376C246.279 62.1473 246.568 62.0329 246.905 62.0329C247.23 62.0329 247.507 62.1473 247.735 62.376C247.976 62.6047 248.097 62.8997 248.097 63.2608C248.097 63.622 247.976 63.9229 247.735 64.1637C247.507 64.3924 247.23 64.5068 246.905 64.5068Z" fill="black"/>
</svg>
