<svg width="165" height="13" viewBox="0 0 165 13" fill="none" xmlns="http://www.w3.org/2000/svg">
<path d="M1.69022 12.9654C1.14537 12.125 0.725197 11.1554 0.429689 10.0564C0.143416 8.94829 0.000278843 7.75702 0.000278843 6.48264C0.000278843 5.20826 0.143416 4.017 0.429689 2.90884C0.725197 1.79145 1.14537 0.821813 1.69022 -6.89776e-05H3.3386C2.77529 1.01574 2.35973 2.05464 2.09192 3.11662C1.83335 4.16937 1.70407 5.29137 1.70407 6.48264C1.70407 7.67391 1.83335 8.80054 2.09192 9.86252C2.35973 10.9153 2.77529 11.9495 3.3386 12.9654H1.69022ZM4.94099 10.2781V0.581713H6.74174V10.2781H4.94099ZM9.36441 10.2781V0.581713H10.8466L15.0853 7.66006H14.3096L18.479 0.581713H19.9612L19.975 10.2781H18.2712L18.2574 3.25514H18.6175L15.0714 9.16992H14.268L10.6665 3.25514H11.0821V10.2781H9.36441ZM22.5941 10.2781V0.581713H24.3949V8.75436H29.4647V10.2781H22.5941ZM34.7146 10.2781V0.581713H36.1967L40.4354 7.66006H39.6597L43.8291 0.581713H45.3113L45.3251 10.2781H43.6214L43.6075 3.25514H43.9677L40.4216 9.16992H39.6181L36.0166 3.25514H36.4322V10.2781H34.7146ZM52.4877 10.4166C51.7304 10.4166 51.0332 10.2919 50.396 10.0426C49.7589 9.79326 49.2048 9.44696 48.7338 9.0037C48.2628 8.5512 47.8981 8.02483 47.6395 7.42457C47.3809 6.81509 47.2517 6.1502 47.2517 5.42989C47.2517 4.70959 47.3809 4.04932 47.6395 3.44907C47.8981 2.83958 48.2628 2.31321 48.7338 1.86994C49.2048 1.41745 49.7589 1.06653 50.396 0.817196C51.0332 0.567861 51.7258 0.443193 52.4738 0.443193C53.2311 0.443193 53.9237 0.567861 54.5516 0.817196C55.1888 1.06653 55.7429 1.41745 56.2139 1.86994C56.6848 2.31321 57.0496 2.83958 57.3082 3.44907C57.5667 4.04932 57.696 4.70959 57.696 5.42989C57.696 6.1502 57.5667 6.81509 57.3082 7.42457C57.0496 8.03406 56.6848 8.56043 56.2139 9.0037C55.7429 9.44696 55.1888 9.79326 54.5516 10.0426C53.9237 10.2919 53.2357 10.4166 52.4877 10.4166ZM52.4738 8.83747C52.9633 8.83747 53.4158 8.75436 53.8313 8.58814C54.2469 8.42192 54.607 8.18643 54.9118 7.88169C55.2165 7.56771 55.452 7.20756 55.6182 6.80124C55.7937 6.38568 55.8814 5.92856 55.8814 5.42989C55.8814 4.93122 55.7937 4.47873 55.6182 4.0724C55.452 3.65685 55.2165 3.29669 54.9118 2.99195C54.607 2.67797 54.2469 2.43787 53.8313 2.27165C53.4158 2.10543 52.9633 2.02232 52.4738 2.02232C51.9844 2.02232 51.5319 2.10543 51.1163 2.27165C50.71 2.43787 50.3499 2.67797 50.0359 2.99195C49.7312 3.29669 49.4911 3.65685 49.3156 4.0724C49.1494 4.47873 49.0663 4.93122 49.0663 5.42989C49.0663 5.91933 49.1494 6.37183 49.3156 6.78739C49.4911 7.20294 49.7312 7.56771 50.0359 7.88169C50.3406 8.18643 50.7008 8.42192 51.1163 8.58814C51.5319 8.75436 51.9844 8.83747 52.4738 8.83747ZM64.1482 10.4166C63.391 10.4166 62.6938 10.2919 62.0566 10.0426C61.4194 9.79326 60.8653 9.44696 60.3943 9.0037C59.9234 8.5512 59.5586 8.02483 59.3 7.42457C59.0415 6.81509 58.9122 6.1502 58.9122 5.42989C58.9122 4.70959 59.0415 4.04932 59.3 3.44907C59.5586 2.83958 59.9234 2.31321 60.3943 1.86994C60.8653 1.41745 61.4194 1.06653 62.0566 0.817196C62.6938 0.567861 63.3864 0.443193 64.1344 0.443193C64.8916 0.443193 65.5842 0.567861 66.2122 0.817196C66.8493 1.06653 67.4034 1.41283 67.8744 1.85609C68.3454 2.29935 68.7101 2.82573 68.9687 3.43521C69.2273 4.0447 69.3565 4.70959 69.3565 5.42989C69.3565 6.1502 69.2273 6.81509 68.9687 7.42457C68.7101 8.03406 68.3454 8.56043 67.8744 9.0037C67.4034 9.44696 66.8493 9.79326 66.2122 10.0426C65.5842 10.2919 64.8962 10.4166 64.1482 10.4166ZM67.3065 12.3974C66.9648 12.3974 66.6323 12.3559 66.3091 12.2728C65.9951 12.1989 65.6812 12.0696 65.3672 11.8849C65.0624 11.7094 64.7438 11.474 64.4114 11.1785C64.079 10.8922 63.7142 10.5366 63.3171 10.1119L65.2287 9.61318C65.4872 9.95486 65.7319 10.2273 65.9628 10.4304C66.2029 10.6428 66.4338 10.7952 66.6554 10.8876C66.877 10.9799 67.1079 11.0261 67.348 11.0261C67.9852 11.0261 68.5393 10.7675 69.0102 10.2504L69.8414 11.2477C69.1949 12.0142 68.35 12.3974 67.3065 12.3974ZM64.1344 8.83747C64.6238 8.83747 65.0763 8.75436 65.4918 8.58814C65.9074 8.42192 66.2676 8.18643 66.5723 7.88169C66.877 7.56771 67.1125 7.20294 67.2788 6.78739C67.4542 6.37183 67.5419 5.91933 67.5419 5.42989C67.5419 4.93122 67.4542 4.47873 67.2788 4.0724C67.1125 3.65685 66.877 3.29669 66.5723 2.99195C66.2676 2.67797 65.9074 2.43787 65.4918 2.27165C65.0763 2.10543 64.6238 2.02232 64.1344 2.02232C63.6449 2.02232 63.1924 2.10543 62.7769 2.27165C62.3613 2.43787 62.0012 2.67797 61.6964 2.99195C61.3917 3.29669 61.1516 3.65685 60.9761 4.0724C60.8099 4.47873 60.7268 4.93122 60.7268 5.42989C60.7268 5.91933 60.8099 6.37183 60.9761 6.78739C61.1516 7.20294 61.3917 7.56771 61.6964 7.88169C62.0012 8.18643 62.3613 8.42192 62.7769 8.58814C63.1924 8.75436 63.6449 8.83747 64.1344 8.83747ZM74.5533 7.14754V5.70693H78.3626V7.14754H74.5533ZM83.4342 10.2781V9.07296L87.2851 5.41604C87.6083 5.1113 87.8484 4.8435 88.0054 4.61263C88.1624 4.38176 88.2639 4.16937 88.3101 3.97544C88.3655 3.77228 88.3932 3.58297 88.3932 3.40751C88.3932 2.96425 88.2409 2.62257 87.9361 2.38247C87.6314 2.13313 87.1835 2.00846 86.5925 2.00846C86.1215 2.00846 85.6921 2.09158 85.3042 2.2578C84.9256 2.42402 84.5978 2.67797 84.3208 3.01966L83.0602 2.05002C83.4389 1.54211 83.9468 1.14964 84.5839 0.872604C85.2304 0.58633 85.9507 0.443193 86.7449 0.443193C87.4467 0.443193 88.0562 0.558626 88.5733 0.789492C89.0997 1.01112 89.5014 1.32972 89.7784 1.74528C90.0647 2.16083 90.2078 2.65489 90.2078 3.22744C90.2078 3.54141 90.1663 3.85539 90.0832 4.16937C90.0001 4.47411 89.8431 4.79732 89.6122 5.139C89.3813 5.48068 89.0443 5.86392 88.601 6.28872L85.2904 9.43311L84.9164 8.75436H90.5818V10.2781H83.4342ZM91.2797 8.07562V6.82894L96.0587 0.581713H97.9841L93.2744 6.82894L92.374 6.5519H100.062V8.07562H91.2797ZM96.5989 10.2781V8.07562L96.6543 6.5519V4.59878H98.3442V10.2781H96.5989ZM104.864 10.4166C104.098 10.4166 103.405 10.2227 102.787 9.83481C102.177 9.44696 101.697 8.88365 101.346 8.14488C100.995 7.39687 100.82 6.49188 100.82 5.42989C100.82 4.36791 100.995 3.46754 101.346 2.72876C101.697 1.98076 102.177 1.41283 102.787 1.02498C103.405 0.637121 104.098 0.443193 104.864 0.443193C105.64 0.443193 106.333 0.637121 106.942 1.02498C107.552 1.41283 108.032 1.98076 108.383 2.72876C108.743 3.46754 108.923 4.36791 108.923 5.42989C108.923 6.49188 108.743 7.39687 108.383 8.14488C108.032 8.88365 107.552 9.44696 106.942 9.83481C106.333 10.2227 105.64 10.4166 104.864 10.4166ZM104.864 8.85133C105.317 8.85133 105.709 8.73128 106.042 8.49117C106.374 8.24184 106.633 7.86322 106.818 7.35532C107.012 6.84741 107.109 6.2056 107.109 5.42989C107.109 4.64495 107.012 4.00314 106.818 3.50447C106.633 2.99657 106.374 2.62257 106.042 2.38247C105.709 2.13313 105.317 2.00846 104.864 2.00846C104.43 2.00846 104.043 2.13313 103.701 2.38247C103.368 2.62257 103.105 2.99657 102.911 3.50447C102.727 4.00314 102.634 4.64495 102.634 5.42989C102.634 6.2056 102.727 6.84741 102.911 7.35532C103.105 7.86322 103.368 8.24184 103.701 8.49117C104.043 8.73128 104.43 8.85133 104.864 8.85133ZM114.185 10.4166C113.418 10.4166 112.726 10.2227 112.107 9.83481C111.498 9.44696 111.017 8.88365 110.666 8.14488C110.315 7.39687 110.14 6.49188 110.14 5.42989C110.14 4.36791 110.315 3.46754 110.666 2.72876C111.017 1.98076 111.498 1.41283 112.107 1.02498C112.726 0.637121 113.418 0.443193 114.185 0.443193C114.961 0.443193 115.653 0.637121 116.263 1.02498C116.872 1.41283 117.352 1.98076 117.703 2.72876C118.063 3.46754 118.243 4.36791 118.243 5.42989C118.243 6.49188 118.063 7.39687 117.703 8.14488C117.352 8.88365 116.872 9.44696 116.263 9.83481C115.653 10.2227 114.961 10.4166 114.185 10.4166ZM114.185 8.85133C114.637 8.85133 115.03 8.73128 115.362 8.49117C115.695 8.24184 115.953 7.86322 116.138 7.35532C116.332 6.84741 116.429 6.2056 116.429 5.42989C116.429 4.64495 116.332 4.00314 116.138 3.50447C115.953 2.99657 115.695 2.62257 115.362 2.38247C115.03 2.13313 114.637 2.00846 114.185 2.00846C113.751 2.00846 113.363 2.13313 113.021 2.38247C112.689 2.62257 112.426 2.99657 112.232 3.50447C112.047 4.00314 111.955 4.64495 111.955 5.42989C111.955 6.2056 112.047 6.84741 112.232 7.35532C112.426 7.86322 112.689 8.24184 113.021 8.49117C113.363 8.73128 113.751 8.85133 114.185 8.85133ZM123.505 10.4166C122.739 10.4166 122.046 10.2227 121.427 9.83481C120.818 9.44696 120.338 8.88365 119.987 8.14488C119.636 7.39687 119.46 6.49188 119.46 5.42989C119.46 4.36791 119.636 3.46754 119.987 2.72876C120.338 1.98076 120.818 1.41283 121.427 1.02498C122.046 0.637121 122.739 0.443193 123.505 0.443193C124.281 0.443193 124.973 0.637121 125.583 1.02498C126.192 1.41283 126.673 1.98076 127.023 2.72876C127.384 3.46754 127.564 4.36791 127.564 5.42989C127.564 6.49188 127.384 7.39687 127.023 8.14488C126.673 8.88365 126.192 9.44696 125.583 9.83481C124.973 10.2227 124.281 10.4166 123.505 10.4166ZM123.505 8.85133C123.958 8.85133 124.35 8.73128 124.683 8.49117C125.015 8.24184 125.274 7.86322 125.458 7.35532C125.652 6.84741 125.749 6.2056 125.749 5.42989C125.749 4.64495 125.652 4.00314 125.458 3.50447C125.274 2.99657 125.015 2.62257 124.683 2.38247C124.35 2.13313 123.958 2.00846 123.505 2.00846C123.071 2.00846 122.683 2.13313 122.342 2.38247C122.009 2.62257 121.746 2.99657 121.552 3.50447C121.367 4.00314 121.275 4.64495 121.275 5.42989C121.275 6.2056 121.367 6.84741 121.552 7.35532C121.746 7.86322 122.009 8.24184 122.342 8.49117C122.683 8.73128 123.071 8.85133 123.505 8.85133ZM133.301 10.2781V0.581713H137.291C138.15 0.581713 138.884 0.720232 139.493 0.997272C140.112 1.27431 140.588 1.6714 140.92 2.18854C141.252 2.70568 141.419 3.31978 141.419 4.03085C141.419 4.74191 141.252 5.35602 140.92 5.87316C140.588 6.3903 140.112 6.78739 139.493 7.06442C138.884 7.34146 138.15 7.47998 137.291 7.47998H134.299L135.102 6.63501V10.2781H133.301ZM135.102 6.82894L134.299 5.95627H137.208C138.002 5.95627 138.598 5.79005 138.995 5.4576C139.401 5.11592 139.604 4.64033 139.604 4.03085C139.604 3.41213 139.401 2.93654 138.995 2.6041C138.598 2.27165 138.002 2.10543 137.208 2.10543H134.299L135.102 1.2189V6.82894ZM147.84 10.4166C147.101 10.4166 146.414 10.2965 145.776 10.0564C145.148 9.80711 144.599 9.46081 144.128 9.01755C143.666 8.56505 143.306 8.03406 143.047 7.42457C142.789 6.81509 142.66 6.1502 142.66 5.42989C142.66 4.70959 142.789 4.0447 143.047 3.43521C143.306 2.82573 143.671 2.29935 144.142 1.85609C144.613 1.4036 145.162 1.0573 145.79 0.817196C146.418 0.567861 147.106 0.443193 147.854 0.443193C148.648 0.443193 149.373 0.581713 150.029 0.858752C150.685 1.12656 151.239 1.52826 151.691 2.06387L150.528 3.15818C150.177 2.77956 149.784 2.4979 149.35 2.31321C148.916 2.11928 148.445 2.02232 147.937 2.02232C147.429 2.02232 146.963 2.10543 146.538 2.27165C146.123 2.43787 145.758 2.67336 145.444 2.9781C145.139 3.28284 144.899 3.64299 144.724 4.05855C144.557 4.47411 144.474 4.93122 144.474 5.42989C144.474 5.92856 144.557 6.38568 144.724 6.80124C144.899 7.2168 145.139 7.57695 145.444 7.88169C145.758 8.18643 146.123 8.42192 146.538 8.58814C146.963 8.75436 147.429 8.83747 147.937 8.83747C148.445 8.83747 148.916 8.74513 149.35 8.56043C149.784 8.36651 150.177 8.07562 150.528 7.68776L151.691 8.79592C151.239 9.32229 150.685 9.724 150.029 10.001C149.373 10.2781 148.644 10.4166 147.84 10.4166ZM156.409 10.4166C155.652 10.4166 154.927 10.3104 154.234 10.098C153.542 9.87637 152.992 9.59471 152.586 9.25303L153.209 7.85399C153.597 8.15873 154.077 8.41268 154.65 8.61584C155.222 8.819 155.809 8.92059 156.409 8.92059C156.917 8.92059 157.328 8.86518 157.642 8.75436C157.956 8.64355 158.187 8.49579 158.334 8.3111C158.482 8.11717 158.556 7.90016 158.556 7.66006C158.556 7.36455 158.45 7.12907 158.237 6.95361C158.025 6.76892 157.748 6.62578 157.406 6.5242C157.074 6.41338 156.7 6.3118 156.284 6.21946C155.878 6.12711 155.467 6.02091 155.051 5.90086C154.645 5.77158 154.271 5.60997 153.929 5.41604C153.597 5.21288 153.325 4.94508 153.112 4.61263C152.9 4.28018 152.794 3.85539 152.794 3.33825C152.794 2.81188 152.932 2.33168 153.209 1.89765C153.495 1.45439 153.925 1.10347 154.497 0.8449C155.079 0.577095 155.813 0.443193 156.7 0.443193C157.282 0.443193 157.859 0.517071 158.431 0.664825C159.004 0.812579 159.502 1.02498 159.927 1.30201L159.359 2.70106C158.925 2.44249 158.477 2.25318 158.016 2.13313C157.554 2.00385 157.111 1.9392 156.686 1.9392C156.187 1.9392 155.781 1.99923 155.467 2.11928C155.162 2.23933 154.936 2.39632 154.788 2.59025C154.65 2.78417 154.58 3.0058 154.58 3.25514C154.58 3.55065 154.682 3.79075 154.885 3.97544C155.098 4.1509 155.37 4.28942 155.702 4.391C156.044 4.49258 156.423 4.59416 156.838 4.69574C157.254 4.78809 157.665 4.89429 158.071 5.01434C158.487 5.13439 158.861 5.29138 159.193 5.4853C159.535 5.67923 159.807 5.94242 160.01 6.27486C160.223 6.60731 160.329 7.02749 160.329 7.53539C160.329 8.05253 160.186 8.53273 159.9 8.97599C159.623 9.41002 159.193 9.76094 158.611 10.0287C158.03 10.2873 157.295 10.4166 156.409 10.4166ZM162.766 12.9654H161.117C161.69 11.9495 162.105 10.9153 162.364 9.86252C162.632 8.80054 162.766 7.67391 162.766 6.48264C162.766 5.29137 162.632 4.16937 162.364 3.11662C162.105 2.05464 161.69 1.01574 161.117 -6.89776e-05H162.766C163.32 0.821813 163.74 1.79145 164.026 2.90884C164.312 4.017 164.456 5.20826 164.456 6.48264C164.456 7.75702 164.312 8.94829 164.026 10.0564C163.74 11.1554 163.32 12.125 162.766 12.9654Z" fill="black"/>
</svg>
