<svg width="234" height="17" viewBox="0 0 234 17" fill="none" xmlns="http://www.w3.org/2000/svg">
<path d="M-0.00119827 15.9917L-0.00119827 0.905086H6.20587C7.54211 0.905086 8.68438 1.12061 9.63268 1.55166C10.5954 1.9827 11.3353 2.60053 11.8526 3.40515C12.3698 4.20977 12.6285 5.16526 12.6285 6.27161C12.6285 7.37796 12.3698 8.33345 11.8526 9.13807C11.3353 9.94269 10.5954 10.5605 9.63268 10.9916C8.68438 11.4226 7.54211 11.6381 6.20587 11.6381H1.55057L2.8006 10.3234V15.9917H-0.00119827ZM2.8006 10.6252L1.55057 9.26738H6.07655C7.31222 9.26738 8.23897 9.00875 8.8568 8.4915C9.489 7.95987 9.8051 7.21991 9.8051 6.27161C9.8051 5.30894 9.489 4.56898 8.8568 4.05172C8.23897 3.53447 7.31222 3.27584 6.07655 3.27584H1.55057L2.8006 1.89649V10.6252ZM15.0625 15.9917V4.48277H17.6272V7.65096L17.3255 6.72421C17.6703 5.94833 18.2092 5.35923 18.9419 4.95692C19.6891 4.55461 20.6158 4.35345 21.7222 4.35345V6.91818C21.6072 6.88944 21.4995 6.87507 21.3989 6.87507C21.2983 6.86071 21.1977 6.85352 21.0972 6.85352C20.077 6.85352 19.2652 7.15525 18.6617 7.75872C18.0583 8.34782 17.7566 9.23146 17.7566 10.4097V15.9917H15.0625ZM29.0749 16.1426C27.8967 16.1426 26.8478 15.8911 25.9282 15.3882C25.0087 14.871 24.2831 14.1669 23.7515 13.2761C23.2198 12.3853 22.954 11.3723 22.954 10.2372C22.954 9.08778 23.2198 8.07482 23.7515 7.19836C24.2831 6.30753 25.0087 5.61067 25.9282 5.10779C26.8478 4.6049 27.8967 4.35345 29.0749 4.35345C30.2674 4.35345 31.3235 4.6049 32.2431 5.10779C33.177 5.61067 33.9026 6.30035 34.4199 7.17681C34.9515 8.05327 35.2173 9.07341 35.2173 10.2372C35.2173 11.3723 34.9515 12.3853 34.4199 13.2761C33.9026 14.1669 33.177 14.871 32.2431 15.3882C31.3235 15.8911 30.2674 16.1426 29.0749 16.1426ZM29.0749 13.8365C29.7358 13.8365 30.3249 13.6928 30.8422 13.4054C31.3594 13.1181 31.7617 12.7014 32.0491 12.1554C32.3508 11.6094 32.5017 10.97 32.5017 10.2372C32.5017 9.49009 32.3508 8.8507 32.0491 8.31908C31.7617 7.77309 31.3594 7.35641 30.8422 7.06904C30.3249 6.78168 29.743 6.638 29.0964 6.638C28.4355 6.638 27.8464 6.78168 27.3291 7.06904C26.8263 7.35641 26.4239 7.77309 26.1222 8.31908C25.8205 8.8507 25.6696 9.49009 25.6696 10.2372C25.6696 10.97 25.8205 11.6094 26.1222 12.1554C26.4239 12.7014 26.8263 13.1181 27.3291 13.4054C27.8464 13.6928 28.4283 13.8365 29.0749 13.8365ZM42.6643 16.1426C41.5579 16.1426 40.5593 15.8983 39.6685 15.4098C38.7921 14.9069 38.1024 14.2172 37.5995 13.3408C37.0966 12.4643 36.8452 11.4298 36.8452 10.2372C36.8452 9.04467 37.0966 8.01016 37.5995 7.1337C38.1024 6.25724 38.7921 5.57475 39.6685 5.08623C40.5593 4.59771 41.5579 4.35345 42.6643 4.35345C43.627 4.35345 44.489 4.56898 45.2506 5.00002C46.0121 5.4167 46.6155 6.05609 47.061 6.91818C47.5064 7.78027 47.7291 8.88662 47.7291 10.2372C47.7291 11.5735 47.5136 12.6798 47.0825 13.5563C46.6515 14.4184 46.0552 15.065 45.2937 15.496C44.5321 15.927 43.6557 16.1426 42.6643 16.1426ZM42.9876 13.8365C43.6341 13.8365 44.2089 13.6928 44.7118 13.4054C45.229 13.1181 45.6385 12.7014 45.9402 12.1554C46.2563 11.6094 46.4144 10.97 46.4144 10.2372C46.4144 9.49009 46.2563 8.8507 45.9402 8.31908C45.6385 7.77309 45.229 7.35641 44.7118 7.06904C44.2089 6.78168 43.6341 6.638 42.9876 6.638C42.341 6.638 41.7591 6.78168 41.2418 7.06904C40.7389 7.35641 40.3294 7.77309 40.0133 8.31908C39.7116 8.8507 39.5608 9.49009 39.5608 10.2372C39.5608 10.97 39.7116 11.6094 40.0133 12.1554C40.3294 12.7014 40.7389 13.1181 41.2418 13.4054C41.7591 13.6928 42.341 13.8365 42.9876 13.8365ZM46.479 15.9917V13.2761L46.5868 10.2157L46.3713 7.15525V-0.000110776H49.0438V15.9917H46.479ZM57.4604 16.1426C56.4834 16.1426 55.6213 15.963 54.8742 15.6038C54.127 15.2302 53.5451 14.6698 53.1284 13.9227C52.7118 13.1612 52.5034 12.2057 52.5034 11.0562V4.48277H55.1975V10.6898C55.1975 11.7243 55.4273 12.5002 55.8871 13.0175C56.3613 13.5204 57.0294 13.7718 57.8915 13.7718C58.5237 13.7718 59.0697 13.6425 59.5295 13.3839C60.0036 13.1252 60.37 12.7373 60.6286 12.22C60.9016 11.7028 61.0381 11.0634 61.0381 10.3019V4.48277H63.7322V15.9917H61.1674V12.8882L61.62 13.8365C61.2321 14.5836 60.6646 15.1583 59.9174 15.5607C59.1703 15.9486 58.3513 16.1426 57.4604 16.1426ZM72.5398 16.1426C71.3329 16.1426 70.2553 15.8911 69.307 15.3882C68.373 14.871 67.6403 14.1669 67.1086 13.2761C66.577 12.3853 66.3112 11.3723 66.3112 10.2372C66.3112 9.08778 66.577 8.07482 67.1086 7.19836C67.6403 6.30753 68.373 5.61067 69.307 5.10779C70.2553 4.6049 71.3329 4.35345 72.5398 4.35345C73.6605 4.35345 74.6448 4.58335 75.4925 5.04313C76.3546 5.48854 77.0083 6.14948 77.4537 7.02594L75.3847 8.23287C75.0399 7.68688 74.616 7.28457 74.1131 7.02594C73.6246 6.76731 73.093 6.638 72.5183 6.638C71.8573 6.638 71.261 6.78168 70.7294 7.06904C70.1978 7.35641 69.7811 7.77309 69.4794 8.31908C69.1777 8.8507 69.0268 9.49009 69.0268 10.2372C69.0268 10.9844 69.1777 11.6309 69.4794 12.1769C69.7811 12.7086 70.1978 13.1181 70.7294 13.4054C71.261 13.6928 71.8573 13.8365 72.5183 13.8365C73.093 13.8365 73.6246 13.7072 74.1131 13.4485C74.616 13.1899 75.0399 12.7876 75.3847 12.2416L77.4537 13.4485C77.0083 14.3106 76.3546 14.9787 75.4925 15.4529C74.6448 15.9127 73.6605 16.1426 72.5398 16.1426ZM84.2619 16.1426C82.9975 16.1426 82.0205 15.8193 81.3308 15.1727C80.6411 14.5118 80.2963 13.5419 80.2963 12.2632V1.9396H82.9903V12.1985C82.9903 12.7445 83.1268 13.1683 83.3998 13.4701C83.6872 13.7718 84.0823 13.9227 84.5852 13.9227C85.1887 13.9227 85.6915 13.7646 86.0939 13.4485L86.8482 15.3667C86.5321 15.6253 86.1441 15.8193 85.6844 15.9486C85.2246 16.0779 84.7504 16.1426 84.2619 16.1426ZM78.3997 6.72421V4.56898H86.0723V6.72421H78.3997ZM102.262 16.2072C101.113 16.2072 100.042 16.0204 99.051 15.6469C98.074 15.2589 97.2191 14.7201 96.4863 14.0304C95.7679 13.3264 95.2075 12.5002 94.8052 11.5519C94.4029 10.6036 94.2017 9.56911 94.2017 8.44839C94.2017 7.32767 94.4029 6.29316 94.8052 5.34486C95.2075 4.39656 95.7751 3.57757 96.5078 2.8879C97.2406 2.18386 98.0955 1.64505 99.0726 1.27148C100.05 0.883534 101.12 0.689563 102.284 0.689563C103.52 0.689563 104.647 0.905086 105.668 1.33613C106.688 1.75281 107.55 2.37783 108.254 3.21118L106.443 4.91382C105.897 4.32472 105.287 3.88649 104.611 3.59912C103.936 3.29739 103.203 3.14653 102.413 3.14653C101.623 3.14653 100.897 3.27584 100.236 3.53447C99.5898 3.7931 99.0223 4.15948 98.5337 4.63364C98.0596 5.10779 97.686 5.66815 97.413 6.31471C97.1544 6.96128 97.0251 7.67251 97.0251 8.44839C97.0251 9.22428 97.1544 9.9355 97.413 10.5821C97.686 11.2286 98.0596 11.789 98.5337 12.2632C99.0223 12.7373 99.5898 13.1037 100.236 13.3623C100.897 13.6209 101.623 13.7503 102.413 13.7503C103.203 13.7503 103.936 13.6066 104.611 13.3192C105.287 13.0175 105.897 12.5649 106.443 11.9614L108.254 13.6856C107.55 14.5046 106.688 15.1296 105.668 15.5607C104.647 15.9917 103.512 16.2072 102.262 16.2072ZM115.431 16.1426C114.253 16.1426 113.204 15.8911 112.285 15.3882C111.365 14.871 110.64 14.1669 110.108 13.2761C109.576 12.3853 109.311 11.3723 109.311 10.2372C109.311 9.08778 109.576 8.07482 110.108 7.19836C110.64 6.30753 111.365 5.61067 112.285 5.10779C113.204 4.6049 114.253 4.35345 115.431 4.35345C116.624 4.35345 117.68 4.6049 118.6 5.10779C119.534 5.61067 120.259 6.30035 120.776 7.17681C121.308 8.05327 121.574 9.07341 121.574 10.2372C121.574 11.3723 121.308 12.3853 120.776 13.2761C120.259 14.1669 119.534 14.871 118.6 15.3882C117.68 15.8911 116.624 16.1426 115.431 16.1426ZM115.431 13.8365C116.092 13.8365 116.681 13.6928 117.199 13.4054C117.716 13.1181 118.118 12.7014 118.406 12.1554C118.707 11.6094 118.858 10.97 118.858 10.2372C118.858 9.49009 118.707 8.8507 118.406 8.31908C118.118 7.77309 117.716 7.35641 117.199 7.06904C116.681 6.78168 116.1 6.638 115.453 6.638C114.792 6.638 114.203 6.78168 113.686 7.06904C113.183 7.35641 112.78 7.77309 112.479 8.31908C112.177 8.8507 112.026 9.49009 112.026 10.2372C112.026 10.97 112.177 11.6094 112.479 12.1554C112.78 12.7014 113.183 13.1181 113.686 13.4054C114.203 13.6928 114.785 13.8365 115.431 13.8365ZM129.021 16.1426C127.914 16.1426 126.916 15.8983 126.025 15.4098C125.149 14.9069 124.459 14.2172 123.956 13.3408C123.453 12.4643 123.202 11.4298 123.202 10.2372C123.202 9.04467 123.453 8.01016 123.956 7.1337C124.459 6.25724 125.149 5.57475 126.025 5.08623C126.916 4.59771 127.914 4.35345 129.021 4.35345C129.983 4.35345 130.846 4.56898 131.607 5.00002C132.369 5.4167 132.972 6.05609 133.417 6.91818C133.863 7.78027 134.086 8.88662 134.086 10.2372C134.086 11.5735 133.87 12.6798 133.439 13.5563C133.008 14.4184 132.412 15.065 131.65 15.496C130.889 15.927 130.012 16.1426 129.021 16.1426ZM129.344 13.8365C129.991 13.8365 130.565 13.6928 131.068 13.4054C131.586 13.1181 131.995 12.7014 132.297 12.1554C132.613 11.6094 132.771 10.97 132.771 10.2372C132.771 9.49009 132.613 8.8507 132.297 8.31908C131.995 7.77309 131.586 7.35641 131.068 7.06904C130.565 6.78168 129.991 6.638 129.344 6.638C128.698 6.638 128.116 6.78168 127.598 7.06904C127.095 7.35641 126.686 7.77309 126.37 8.31908C126.068 8.8507 125.917 9.49009 125.917 10.2372C125.917 10.97 126.068 11.6094 126.37 12.1554C126.686 12.7014 127.095 13.1181 127.598 13.4054C128.116 13.6928 128.698 13.8365 129.344 13.8365ZM132.836 15.9917V13.2761L132.943 10.2157L132.728 7.15525V-0.000110776H135.4V15.9917H132.836ZM144.356 16.1426C143.077 16.1426 141.956 15.8911 140.994 15.3882C140.045 14.871 139.305 14.1669 138.774 13.2761C138.256 12.3853 137.998 11.3723 137.998 10.2372C137.998 9.08778 138.249 8.07482 138.752 7.19836C139.269 6.30753 139.973 5.61067 140.864 5.10779C141.77 4.6049 142.797 4.35345 143.946 4.35345C145.067 4.35345 146.066 4.59771 146.942 5.08623C147.819 5.57475 148.508 6.26443 149.011 7.15525C149.514 8.04608 149.765 9.09496 149.765 10.3019C149.765 10.4168 149.758 10.5462 149.744 10.6898C149.744 10.8335 149.737 10.97 149.722 11.0993H140.132V9.31049H148.3L147.244 9.87084C147.258 9.20991 147.122 8.628 146.834 8.12511C146.547 7.62222 146.152 7.2271 145.649 6.93973C145.16 6.65237 144.593 6.50869 143.946 6.50869C143.285 6.50869 142.703 6.65237 142.201 6.93973C141.712 7.2271 141.324 7.62941 141.037 8.14666C140.764 8.64955 140.627 9.24583 140.627 9.9355V10.3665C140.627 11.0562 140.785 11.6669 141.101 12.1985C141.417 12.7301 141.863 13.1396 142.438 13.427C143.012 13.7143 143.673 13.858 144.42 13.858C145.067 13.858 145.649 13.7574 146.166 13.5563C146.683 13.3551 147.143 13.039 147.546 12.608L148.99 14.2675C148.472 14.871 147.819 15.3379 147.028 15.6684C146.252 15.9845 145.362 16.1426 144.356 16.1426ZM163.684 11.1209V8.87944H169.611V11.1209H163.684ZM183.752 16.2072C182.502 16.2072 181.417 16.0204 180.498 15.6469C179.578 15.2733 178.867 14.7488 178.364 14.0735C177.861 13.3839 177.61 12.5793 177.61 11.6597C177.61 10.7401 177.854 9.96424 178.342 9.33204C178.831 8.69984 179.535 8.2185 180.455 7.88803C181.374 7.55756 182.473 7.39233 183.752 7.39233C185.031 7.39233 186.13 7.55756 187.05 7.88803C187.983 8.2185 188.695 8.70702 189.183 9.35359C189.686 9.98579 189.938 10.7545 189.938 11.6597C189.938 12.5793 189.679 13.3839 189.162 14.0735C188.659 14.7488 187.94 15.2733 187.006 15.6469C186.087 16.0204 185.002 16.2072 183.752 16.2072ZM183.752 14.0089C184.787 14.0089 185.606 13.7934 186.209 13.3623C186.812 12.9313 187.114 12.335 187.114 11.5735C187.114 10.8263 186.812 10.2372 186.209 9.80619C185.606 9.37514 184.787 9.15962 183.752 9.15962C182.718 9.15962 181.906 9.37514 181.317 9.80619C180.728 10.2372 180.433 10.8263 180.433 11.5735C180.433 12.335 180.728 12.9313 181.317 13.3623C181.906 13.7934 182.718 14.0089 183.752 14.0089ZM183.752 8.85789C182.588 8.85789 181.59 8.70702 180.756 8.40529C179.923 8.08919 179.276 7.63659 178.817 7.04749C178.371 6.44403 178.148 5.72562 178.148 4.89226C178.148 4.03017 178.378 3.29021 178.838 2.67238C179.312 2.04017 179.973 1.55165 180.821 1.20682C181.669 0.861981 182.646 0.689563 183.752 0.689563C184.873 0.689563 185.857 0.861981 186.705 1.20682C187.552 1.55165 188.213 2.04017 188.688 2.67238C189.162 3.29021 189.399 4.03017 189.399 4.89226C189.399 5.72562 189.169 6.44403 188.709 7.04749C188.264 7.63659 187.617 8.08919 186.769 8.40529C185.922 8.70702 184.916 8.85789 183.752 8.85789ZM183.752 7.1337C184.643 7.1337 185.347 6.94692 185.864 6.57334C186.381 6.1854 186.64 5.66815 186.64 5.02158C186.64 4.34627 186.374 3.82183 185.843 3.44826C185.311 3.07468 184.614 2.8879 183.752 2.8879C182.89 2.8879 182.2 3.07468 181.683 3.44826C181.166 3.82183 180.907 4.34627 180.907 5.02158C180.907 5.66815 181.159 6.1854 181.661 6.57334C182.179 6.94692 182.876 7.1337 183.752 7.1337ZM197.812 16.2072C196.562 16.2072 195.477 16.0204 194.557 15.6469C193.638 15.2733 192.926 14.7488 192.423 14.0735C191.921 13.3839 191.669 12.5793 191.669 11.6597C191.669 10.7401 191.913 9.96424 192.402 9.33204C192.89 8.69984 193.594 8.2185 194.514 7.88803C195.434 7.55756 196.533 7.39233 197.812 7.39233C199.09 7.39233 200.19 7.55756 201.109 7.88803C202.043 8.2185 202.754 8.70702 203.243 9.35359C203.746 9.98579 203.997 10.7545 203.997 11.6597C203.997 12.5793 203.738 13.3839 203.221 14.0735C202.718 14.7488 202 15.2733 201.066 15.6469C200.146 16.0204 199.062 16.2072 197.812 16.2072ZM197.812 14.0089C198.846 14.0089 199.665 13.7934 200.269 13.3623C200.872 12.9313 201.174 12.335 201.174 11.5735C201.174 10.8263 200.872 10.2372 200.269 9.80619C199.665 9.37514 198.846 9.15962 197.812 9.15962C196.777 9.15962 195.965 9.37514 195.376 9.80619C194.787 10.2372 194.493 10.8263 194.493 11.5735C194.493 12.335 194.787 12.9313 195.376 13.3623C195.965 13.7934 196.777 14.0089 197.812 14.0089ZM197.812 8.85789C196.648 8.85789 195.649 8.70702 194.816 8.40529C193.982 8.08919 193.336 7.63659 192.876 7.04749C192.431 6.44403 192.208 5.72562 192.208 4.89226C192.208 4.03017 192.438 3.29021 192.898 2.67238C193.372 2.04017 194.033 1.55165 194.88 1.20682C195.728 0.861981 196.705 0.689563 197.812 0.689563C198.932 0.689563 199.917 0.861981 200.764 1.20682C201.612 1.55165 202.273 2.04017 202.747 2.67238C203.221 3.29021 203.458 4.03017 203.458 4.89226C203.458 5.72562 203.228 6.44403 202.769 7.04749C202.323 7.63659 201.677 8.08919 200.829 8.40529C199.981 8.70702 198.975 8.85789 197.812 8.85789ZM197.812 7.1337C198.702 7.1337 199.406 6.94692 199.924 6.57334C200.441 6.1854 200.7 5.66815 200.7 5.02158C200.7 4.34627 200.434 3.82183 199.902 3.44826C199.371 3.07468 198.674 2.8879 197.812 2.8879C196.949 2.8879 196.26 3.07468 195.743 3.44826C195.225 3.82183 194.967 4.34627 194.967 5.02158C194.967 5.66815 195.218 6.1854 195.721 6.57334C196.238 6.94692 196.935 7.1337 197.812 7.1337ZM212.108 16.2072C210.916 16.2072 209.838 15.9055 208.875 15.302C207.927 14.6986 207.18 13.8221 206.634 12.6726C206.088 11.5088 205.815 10.1007 205.815 8.44839C205.815 6.79605 206.088 5.39515 206.634 4.24569C207.18 3.08187 207.927 2.19822 208.875 1.59476C209.838 0.991295 210.916 0.689563 212.108 0.689563C213.315 0.689563 214.393 0.991295 215.341 1.59476C216.289 2.19822 217.036 3.08187 217.582 4.24569C218.143 5.39515 218.423 6.79605 218.423 8.44839C218.423 10.1007 218.143 11.5088 217.582 12.6726C217.036 13.8221 216.289 14.6986 215.341 15.302C214.393 15.9055 213.315 16.2072 212.108 16.2072ZM212.108 13.7718C212.812 13.7718 213.423 13.585 213.94 13.2115C214.457 12.8235 214.86 12.2344 215.147 11.4442C215.449 10.6539 215.6 9.65532 215.6 8.44839C215.6 7.2271 215.449 6.22851 215.147 5.45262C214.86 4.66237 214.457 4.08046 213.94 3.70689C213.423 3.31894 212.812 3.12497 212.108 3.12497C211.433 3.12497 210.829 3.31894 210.298 3.70689C209.781 4.08046 209.371 4.66237 209.069 5.45262C208.782 6.22851 208.638 7.2271 208.638 8.44839C208.638 9.65532 208.782 10.6539 209.069 11.4442C209.371 12.2344 209.781 12.8235 210.298 13.2115C210.829 13.585 211.433 13.7718 212.108 13.7718ZM220.101 12.5649V10.6252L227.536 0.905086H230.532L223.204 10.6252L221.803 10.1941H233.765V12.5649H220.101ZM228.377 15.9917V12.5649L228.463 10.1941V7.15525H231.093V15.9917H228.377Z" fill="#272727"/>
</svg>
