<svg width="155" height="50" viewBox="0 0 155 50" fill="none" xmlns="http://www.w3.org/2000/svg">
<g filter="url(#filter0_d_1772_606)">
<rect x="24.1387" y="4.71701" width="33" height="31" rx="6" transform="rotate(46.3303 24.1387 4.71701)" fill="white"/>
</g>
<path d="M17.4195 22.9641V34.1357C17.4195 34.3251 17.4804 34.4808 17.6022 34.6026C17.724 34.7244 17.88 34.7853 18.0701 34.7853H31.557C31.7464 34.7853 31.9021 34.7244 32.0239 34.6026C32.1457 34.4808 32.2066 34.3251 32.2066 34.1357V22.9641H27.9817V30.1337L24.8131 28.5494L21.6444 30.1337V22.9641H17.4195ZM18.0701 35.8415C17.5969 35.8415 17.1942 35.6753 16.8618 35.343C16.5295 35.0106 16.3633 34.6082 16.3633 34.1357V22.624C16.3633 22.4184 16.396 22.2247 16.4615 22.043C16.527 21.8614 16.6256 21.6941 16.7573 21.5413L18.4028 19.5662C18.5556 19.3599 18.7468 19.2043 18.9764 19.0994C19.2059 18.9944 19.452 18.942 19.7147 18.942H29.8713C30.1332 18.942 30.3825 18.9944 30.6191 19.0994C30.8557 19.2043 31.0504 19.3595 31.2032 19.5651L32.8689 21.5825C33.0005 21.7353 33.0991 21.9061 33.1646 22.0948C33.2301 22.2828 33.2628 22.48 33.2628 22.6863V34.1357C33.2628 34.6075 33.0967 35.0099 32.7643 35.343C32.4319 35.6753 32.0295 35.8415 31.557 35.8415H18.0701ZM17.8209 21.9078H31.7841L30.3793 20.22C30.311 20.1524 30.2329 20.0985 30.1449 20.0584C30.0568 20.0183 29.9653 19.9982 29.8702 19.9982H19.7347C19.6404 19.9982 19.5488 20.0186 19.4601 20.0595C19.3714 20.1003 19.2939 20.1545 19.2278 20.2221L17.8209 21.9078ZM22.6996 22.9641V28.4068L24.812 27.3506L26.9244 28.4068V22.9651L22.6996 22.9641Z" fill="black"/>
<path d="M55.9651 22.6676V13.1521H60.0952C60.797 13.1521 61.3909 13.2691 61.8768 13.503C62.3627 13.737 62.7316 14.0744 62.9836 14.5153C63.2355 14.9562 63.3615 15.4916 63.3615 16.1215C63.3615 16.7424 63.2355 17.2777 62.9836 17.7276C62.7316 18.1686 62.3627 18.5105 61.8768 18.7534C61.3909 18.9874 60.797 19.1044 60.0952 19.1044H57.6927V22.6676H55.9651ZM57.6927 17.7411H59.8252C60.4371 17.7411 60.9005 17.6062 61.2155 17.3362C61.5304 17.0573 61.6879 16.6524 61.6879 16.1215C61.6879 15.5906 61.5304 15.1902 61.2155 14.9202C60.9005 14.6503 60.4371 14.5153 59.8252 14.5153H57.6927V17.7411ZM67.3287 22.8026C66.6359 22.8026 66.033 22.6631 65.5201 22.3842C65.0072 22.0962 64.6113 21.6913 64.3323 21.1694C64.0534 20.6475 63.9139 20.0357 63.9139 19.3338C63.9139 18.632 64.0534 18.0291 64.3323 17.5252C64.6113 17.0123 65.0072 16.6209 65.5201 16.3509C66.033 16.072 66.6359 15.9325 67.3287 15.9325C67.7516 15.9325 68.17 16 68.5839 16.135C68.9979 16.27 69.3398 16.4589 69.6097 16.7019L69.1103 17.8761C68.8764 17.6692 68.6109 17.5117 68.314 17.4037C68.0261 17.2957 67.7471 17.2418 67.4772 17.2418C66.8923 17.2418 66.4379 17.4262 66.114 17.7951C65.799 18.1551 65.6416 18.6724 65.6416 19.3473C65.6416 20.0132 65.799 20.5396 66.114 20.9265C66.4379 21.3044 66.8923 21.4934 67.4772 21.4934C67.7381 21.4934 68.0171 21.4394 68.314 21.3314C68.6109 21.2234 68.8764 21.0614 69.1103 20.8455L69.6097 22.0332C69.3398 22.2672 68.9934 22.4561 68.5704 22.6001C68.1565 22.7351 67.7426 22.8026 67.3287 22.8026ZM73.0607 22.8026C72.6917 22.8026 72.3318 22.7711 71.9809 22.7081C71.639 22.6451 71.324 22.5596 71.0361 22.4516C70.7482 22.3347 70.4962 22.1907 70.2803 22.0197L70.7122 20.913C70.9371 21.0569 71.1801 21.1829 71.441 21.2909C71.702 21.3989 71.9719 21.4799 72.2508 21.5338C72.5298 21.5878 72.8042 21.6148 73.0742 21.6148C73.5061 21.6148 73.8255 21.5428 74.0325 21.3989C74.2484 21.2459 74.3564 21.0479 74.3564 20.805C74.3564 20.598 74.2844 20.4406 74.1404 20.3326C74.0055 20.2156 73.7985 20.1301 73.5196 20.0762L72.1699 19.8197C71.612 19.7117 71.1846 19.5093 70.8876 19.2123C70.5997 18.9064 70.4557 18.515 70.4557 18.0381C70.4557 17.6062 70.5727 17.2328 70.8066 16.9178C71.0496 16.6029 71.3825 16.3599 71.8054 16.189C72.2283 16.018 72.7142 15.9325 73.2631 15.9325C73.5781 15.9325 73.884 15.964 74.1809 16.027C74.4779 16.081 74.7568 16.1665 75.0178 16.2835C75.2877 16.3914 75.5216 16.5354 75.7196 16.7154L75.2607 17.8221C75.0897 17.6782 74.8918 17.5567 74.6668 17.4577C74.4419 17.3497 74.2079 17.2687 73.965 17.2148C73.731 17.1518 73.5016 17.1203 73.2766 17.1203C72.8357 17.1203 72.5073 17.1968 72.2913 17.3497C72.0844 17.5027 71.9809 17.7052 71.9809 17.9571C71.9809 18.1461 72.0439 18.3035 72.1699 18.4295C72.2958 18.5555 72.4893 18.641 72.7502 18.6859L74.0999 18.9424C74.6848 19.0504 75.1257 19.2483 75.4227 19.5363C75.7286 19.8242 75.8816 20.2111 75.8816 20.697C75.8816 21.1379 75.7646 21.5158 75.5306 21.8308C75.2967 22.1457 74.9683 22.3887 74.5454 22.5596C74.1224 22.7216 73.6275 22.8026 73.0607 22.8026ZM81.035 22.6676V13.1521H85.1651C85.8669 13.1521 86.4608 13.2691 86.9467 13.503C87.4326 13.737 87.8015 14.0744 88.0535 14.5153C88.3054 14.9562 88.4314 15.4916 88.4314 16.1215C88.4314 16.7424 88.3054 17.2777 88.0535 17.7276C87.8015 18.1686 87.4326 18.5105 86.9467 18.7534C86.4608 18.9874 85.8669 19.1044 85.1651 19.1044H82.7626V22.6676H81.035ZM82.7626 17.7411H84.8951C85.507 17.7411 85.9704 17.6062 86.2853 17.3362C86.6003 17.0573 86.7577 16.6524 86.7577 16.1215C86.7577 15.5906 86.6003 15.1902 86.2853 14.9202C85.9704 14.6503 85.507 14.5153 84.8951 14.5153H82.7626V17.7411ZM92.6011 22.8026C91.8542 22.8026 91.2108 22.6631 90.671 22.3842C90.1311 22.1052 89.7127 21.7093 89.4157 21.1964C89.1278 20.6835 88.9838 20.0762 88.9838 19.3743C88.9838 18.6904 89.1233 18.0921 89.4022 17.5792C89.6902 17.0663 90.0816 16.6659 90.5765 16.3779C91.0804 16.081 91.6518 15.9325 92.2906 15.9325C92.9205 15.9325 93.4604 16.0675 93.9103 16.3374C94.3602 16.6074 94.7066 16.9898 94.9496 17.4847C95.2015 17.9796 95.3275 18.569 95.3275 19.2528V19.7522H90.347V18.7804H94.1397L93.9238 18.9829C93.9238 18.371 93.7888 17.9031 93.5189 17.5792C93.2489 17.2462 92.862 17.0798 92.3581 17.0798C91.9802 17.0798 91.6563 17.1698 91.3863 17.3497C91.1254 17.5207 90.9229 17.7681 90.7789 18.0921C90.644 18.407 90.5765 18.7849 90.5765 19.2258V19.3203C90.5765 19.8152 90.653 20.2246 90.8059 20.5486C90.9589 20.8725 91.1884 21.1154 91.4943 21.2774C91.8002 21.4394 92.1781 21.5203 92.628 21.5203C92.997 21.5203 93.3659 21.4664 93.7348 21.3584C94.1037 21.2414 94.4412 21.0614 94.7471 20.8185L95.2195 21.9523C94.9046 22.2132 94.5087 22.4202 94.0318 22.5731C93.5549 22.7261 93.078 22.8026 92.6011 22.8026ZM96.6636 22.6676V16.0675H98.3102V17.6602H98.1753C98.3012 17.1203 98.5487 16.7109 98.9176 16.4319C99.2865 16.144 99.7769 15.9775 100.389 15.9325L100.902 15.892L101.01 17.3227L100.038 17.4172C99.489 17.4712 99.0751 17.6422 98.7961 17.9301C98.5172 18.209 98.3777 18.605 98.3777 19.1179V22.6676H96.6636ZM105.749 22.6676V13.1521H109.906C110.905 13.1521 111.679 13.3726 112.228 13.8135C112.776 14.2454 113.051 14.8483 113.051 15.6221C113.051 16.198 112.884 16.6839 112.552 17.0798C112.219 17.4757 111.764 17.7411 111.188 17.8761V17.6737C111.629 17.7366 112.007 17.8716 112.322 18.0786C112.637 18.2855 112.875 18.551 113.037 18.8749C113.208 19.1988 113.294 19.5768 113.294 20.0087C113.294 20.5665 113.163 21.0479 112.902 21.4529C112.65 21.8488 112.282 22.1502 111.796 22.3572C111.31 22.5641 110.729 22.6676 110.055 22.6676H105.749ZM107.409 21.3584H109.839C110.082 21.3584 110.297 21.3404 110.486 21.3044C110.684 21.2684 110.851 21.2144 110.986 21.1424C111.13 21.0614 111.247 20.9625 111.337 20.8455C111.436 20.7285 111.508 20.5935 111.553 20.4406C111.598 20.2876 111.62 20.1166 111.62 19.9277C111.62 19.7297 111.598 19.5543 111.553 19.4013C111.508 19.2483 111.436 19.1179 111.337 19.0099C111.247 18.8929 111.13 18.7984 110.986 18.7264C110.851 18.6455 110.684 18.587 110.486 18.551C110.297 18.515 110.082 18.497 109.839 18.497H107.409V21.3584ZM107.409 17.1878H109.609C110.203 17.1878 110.644 17.0753 110.932 16.8503C111.229 16.6164 111.377 16.2745 111.377 15.8246C111.377 15.3746 111.229 15.0372 110.932 14.8123C110.644 14.5783 110.203 14.4613 109.609 14.4613H107.409V17.1878ZM117.889 22.8026C117.205 22.8026 116.612 22.6631 116.108 22.3842C115.604 22.1052 115.212 21.7093 114.933 21.1964C114.655 20.6745 114.515 20.0627 114.515 19.3608C114.515 18.659 114.655 18.0516 114.933 17.5387C115.212 17.0258 115.604 16.6299 116.108 16.3509C116.612 16.072 117.205 15.9325 117.889 15.9325C118.573 15.9325 119.167 16.072 119.671 16.3509C120.175 16.6299 120.566 17.0258 120.845 17.5387C121.124 18.0516 121.264 18.659 121.264 19.3608C121.264 20.0627 121.124 20.6745 120.845 21.1964C120.566 21.7093 120.175 22.1052 119.671 22.3842C119.167 22.6631 118.573 22.8026 117.889 22.8026ZM117.889 21.5203C118.393 21.5203 118.798 21.3404 119.104 20.9805C119.41 20.6115 119.563 20.0717 119.563 19.3608C119.563 18.641 119.41 18.1056 119.104 17.7546C118.798 17.3947 118.393 17.2148 117.889 17.2148C117.385 17.2148 116.981 17.3947 116.675 17.7546C116.369 18.1056 116.216 18.641 116.216 19.3608C116.216 20.0717 116.369 20.6115 116.675 20.9805C116.981 21.3404 117.385 21.5203 117.889 21.5203ZM121.567 22.6676L124.658 18.8614V19.6577L121.742 16.0675H123.713L125.603 18.4835H125.009L126.898 16.0675H128.869L125.954 19.6442V18.8884L129.044 22.6676H127.06L125.009 20.0762H125.576L123.538 22.6676H121.567Z" fill="black"/>
<path d="M55.3757 39.9723V39.3874L59.5486 34.1686H60.4484L56.3092 39.3874L55.8706 39.2525H62.203V39.9723H55.3757ZM59.8185 42.0419V39.9723L59.841 39.2525V37.4304H60.6283V42.0419H59.8185ZM66.0849 42.1094C65.4775 42.1094 64.9377 41.9519 64.4653 41.637C63.9929 41.3145 63.6217 40.8571 63.3517 40.2648C63.0818 39.6649 62.9468 38.945 62.9468 38.1052C62.9468 37.2654 63.0818 36.5493 63.3517 35.9569C63.6217 35.357 63.9929 34.8996 64.4653 34.5847C64.9377 34.2623 65.4775 34.1011 66.0849 34.1011C66.6923 34.1011 67.2322 34.2623 67.7046 34.5847C68.177 34.8996 68.5481 35.357 68.8181 35.9569C69.0955 36.5493 69.2342 37.2654 69.2342 38.1052C69.2342 38.945 69.0955 39.6649 68.8181 40.2648C68.5481 40.8571 68.177 41.3145 67.7046 41.637C67.2322 41.9519 66.6923 42.1094 66.0849 42.1094ZM66.0849 41.367C66.5498 41.367 66.9547 41.2433 67.2997 40.9959C67.6446 40.7409 67.9145 40.3735 68.1095 39.8936C68.3044 39.4062 68.4019 38.8101 68.4019 38.1052C68.4019 37.4004 68.3044 36.808 68.1095 36.3281C67.9145 35.8407 67.6446 35.4733 67.2997 35.2258C66.9547 34.9709 66.5498 34.8434 66.0849 34.8434C65.635 34.8434 65.2338 34.9709 64.8814 35.2258C64.529 35.4733 64.2553 35.8407 64.0603 36.3281C63.8654 36.808 63.7679 37.4004 63.7679 38.1052C63.7679 38.8101 63.8654 39.4062 64.0603 39.8936C64.2553 40.3735 64.529 40.7409 64.8814 40.9959C65.2338 41.2433 65.635 41.367 66.0849 41.367ZM73.5321 42.1094C72.9247 42.1094 72.3848 41.9519 71.9124 41.637C71.44 41.3145 71.0688 40.8571 70.7989 40.2648C70.529 39.6649 70.394 38.945 70.394 38.1052C70.394 37.2654 70.529 36.5493 70.7989 35.9569C71.0688 35.357 71.44 34.8996 71.9124 34.5847C72.3848 34.2623 72.9247 34.1011 73.5321 34.1011C74.1394 34.1011 74.6793 34.2623 75.1517 34.5847C75.6241 34.8996 75.9953 35.357 76.2652 35.9569C76.5427 36.5493 76.6814 37.2654 76.6814 38.1052C76.6814 38.945 76.5427 39.6649 76.2652 40.2648C75.9953 40.8571 75.6241 41.3145 75.1517 41.637C74.6793 41.9519 74.1394 42.1094 73.5321 42.1094ZM73.5321 41.367C73.997 41.367 74.4019 41.2433 74.7468 40.9959C75.0917 40.7409 75.3617 40.3735 75.5566 39.8936C75.7516 39.4062 75.8491 38.8101 75.8491 38.1052C75.8491 37.4004 75.7516 36.808 75.5566 36.3281C75.3617 35.8407 75.0917 35.4733 74.7468 35.2258C74.4019 34.9709 73.997 34.8434 73.5321 34.8434C73.0822 34.8434 72.681 34.9709 72.3286 35.2258C71.9761 35.4733 71.7025 35.8407 71.5075 36.3281C71.3125 36.808 71.2151 37.4004 71.2151 38.1052C71.2151 38.8101 71.3125 39.4062 71.5075 39.8936C71.7025 40.3735 71.9761 40.7409 72.3286 40.9959C72.681 41.2433 73.0822 41.367 73.5321 41.367ZM81.4822 42.0419V34.1686H82.1683L87.6009 41.0071H87.241V34.1686H88.0621V42.0419H87.376L81.9546 35.2033H82.3145V42.0419H81.4822ZM92.8702 42.0981C92.3003 42.0981 91.7866 41.9707 91.3292 41.7157C90.8793 41.4533 90.5232 41.0971 90.2607 40.6472C89.9983 40.1898 89.867 39.6686 89.867 39.0838C89.867 38.4914 89.9983 37.9702 90.2607 37.5203C90.5232 37.0704 90.8793 36.718 91.3292 36.4631C91.7791 36.2081 92.2928 36.0806 92.8702 36.0806C93.455 36.0806 93.9724 36.2081 94.4223 36.4631C94.8797 36.718 95.2359 37.0704 95.4909 37.5203C95.7533 37.9702 95.8845 38.4914 95.8845 39.0838C95.8845 39.6686 95.7533 40.1898 95.4909 40.6472C95.2359 41.0971 94.8797 41.4533 94.4223 41.7157C93.9649 41.9707 93.4475 42.0981 92.8702 42.0981ZM92.8702 41.3895C93.2976 41.3895 93.6762 41.2958 94.0062 41.1083C94.3361 40.9134 94.5948 40.6434 94.7823 40.2985C94.9772 39.9461 95.0747 39.5412 95.0747 39.0838C95.0747 38.6189 94.9772 38.2139 94.7823 37.869C94.5948 37.5241 94.3361 37.2579 94.0062 37.0704C93.6762 36.8755 93.3013 36.778 92.8814 36.778C92.4615 36.778 92.0866 36.8755 91.7566 37.0704C91.4267 37.2579 91.1643 37.5241 90.9693 37.869C90.7744 38.2139 90.6769 38.6189 90.6769 39.0838C90.6769 39.5412 90.7744 39.9461 90.9693 40.2985C91.1643 40.6434 91.4267 40.9134 91.7566 41.1083C92.0866 41.2958 92.4577 41.3895 92.8702 41.3895ZM99.1008 42.0981C98.6134 42.0981 98.1523 42.0306 97.7174 41.8957C97.2824 41.7532 96.9413 41.577 96.6938 41.367L97.0537 40.7372C97.2937 40.9171 97.6011 41.0746 97.976 41.2096C98.351 41.337 98.7446 41.4008 99.157 41.4008C99.7194 41.4008 100.124 41.3145 100.372 41.1421C100.619 40.9621 100.743 40.7259 100.743 40.4335C100.743 40.216 100.672 40.0473 100.529 39.9273C100.394 39.7999 100.214 39.7061 99.9894 39.6461C99.7644 39.5787 99.5132 39.5224 99.2358 39.4774C98.9583 39.4324 98.6809 39.3799 98.4035 39.32C98.1335 39.26 97.8861 39.1737 97.6611 39.0613C97.4362 38.9413 97.2525 38.7801 97.11 38.5776C96.975 38.3752 96.9075 38.1052 96.9075 37.7678C96.9075 37.4454 96.9975 37.1567 97.1775 36.9017C97.3574 36.6468 97.6199 36.4481 97.9648 36.3056C98.3172 36.1556 98.7446 36.0806 99.247 36.0806C99.6294 36.0806 100.012 36.1331 100.394 36.2381C100.777 36.3356 101.092 36.4668 101.339 36.6318L100.99 37.2729C100.728 37.0929 100.447 36.9655 100.147 36.8905C99.8469 36.808 99.547 36.7668 99.247 36.7668C98.7146 36.7668 98.321 36.8605 98.066 37.0479C97.8186 37.2279 97.6949 37.4604 97.6949 37.7453C97.6949 37.9702 97.7623 38.1465 97.8973 38.2739C98.0398 38.4014 98.2235 38.5026 98.4484 38.5776C98.6809 38.6451 98.9321 38.7013 99.202 38.7463C99.4795 38.7913 99.7532 38.8476 100.023 38.915C100.301 38.975 100.552 39.0613 100.777 39.1737C101.009 39.2787 101.193 39.4324 101.328 39.6349C101.47 39.8299 101.542 40.0885 101.542 40.411C101.542 40.7559 101.444 41.0558 101.249 41.3108C101.062 41.5582 100.784 41.7532 100.417 41.8957C100.057 42.0306 99.6182 42.0981 99.1008 42.0981ZM101.612 43.1666L105.324 32.5714H106.055L102.343 43.1666H101.612ZM108.458 42.0981C107.873 42.0981 107.348 41.9707 106.883 41.7157C106.425 41.4533 106.066 41.0971 105.803 40.6472C105.541 40.1898 105.409 39.6686 105.409 39.0838C105.409 38.4914 105.541 37.9702 105.803 37.5203C106.066 37.0704 106.425 36.718 106.883 36.4631C107.348 36.2081 107.873 36.0806 108.458 36.0806C108.96 36.0806 109.414 36.1781 109.818 36.3731C110.223 36.568 110.542 36.8605 110.775 37.2504L110.178 37.6553C109.976 37.3554 109.725 37.1342 109.425 36.9917C109.125 36.8492 108.799 36.778 108.446 36.778C108.026 36.778 107.648 36.8755 107.31 37.0704C106.973 37.2579 106.707 37.5241 106.512 37.869C106.317 38.2139 106.219 38.6189 106.219 39.0838C106.219 39.5487 106.317 39.9536 106.512 40.2985C106.707 40.6434 106.973 40.9134 107.31 41.1083C107.648 41.2958 108.026 41.3895 108.446 41.3895C108.799 41.3895 109.125 41.3183 109.425 41.1758C109.725 41.0333 109.976 40.8159 110.178 40.5235L110.775 40.9284C110.542 41.3108 110.223 41.6032 109.818 41.8057C109.414 42.0006 108.96 42.0981 108.458 42.0981ZM114.276 42.0981C113.721 42.0981 113.294 41.9482 112.994 41.6482C112.694 41.3483 112.544 40.9246 112.544 40.3772V34.8322H113.343V40.3322C113.343 40.6772 113.429 40.9434 113.601 41.1308C113.781 41.3183 114.036 41.412 114.366 41.412C114.719 41.412 115.011 41.3108 115.244 41.1083L115.525 41.682C115.367 41.8244 115.176 41.9294 114.951 41.9969C114.734 42.0644 114.509 42.0981 114.276 42.0981ZM111.487 36.8005V36.1369H115.142V36.8005H111.487ZM119.993 36.0806C120.473 36.0806 120.893 36.1744 121.253 36.3618C121.62 36.5418 121.905 36.8192 122.107 37.1942C122.317 37.5691 122.422 38.0415 122.422 38.6114V42.0419H121.624V38.6901C121.624 38.0677 121.466 37.5991 121.151 37.2841C120.844 36.9617 120.409 36.8005 119.847 36.8005C119.427 36.8005 119.059 36.8867 118.744 37.0592C118.437 37.2242 118.197 37.4679 118.025 37.7903C117.86 38.1052 117.777 38.4876 117.777 38.9375V42.0419H116.979V36.1369H117.743V37.7565L117.62 37.4529C117.807 37.0254 118.107 36.6918 118.519 36.4518C118.932 36.2044 119.423 36.0806 119.993 36.0806Z" fill="black"/>
<defs>
<filter id="filter0_d_1772_606" x="-0.000781059" y="-2.86102e-06" width="48.6422" height="48.7095" filterUnits="userSpaceOnUse" color-interpolation-filters="sRGB">
<feFlood flood-opacity="0" result="BackgroundImageFix"/>
<feColorMatrix in="SourceAlpha" type="matrix" values="0 0 0 0 0 0 0 0 0 0 0 0 0 0 0 0 0 0 127 0" result="hardAlpha"/>
<feOffset dy="-3"/>
<feGaussianBlur stdDeviation="2.1"/>
<feComposite in2="hardAlpha" operator="out"/>
<feColorMatrix type="matrix" values="0 0 0 0 0 0 0 0 0 0 0 0 0 0 0 0 0 0 0.25 0"/>
<feBlend mode="normal" in2="BackgroundImageFix" result="effect1_dropShadow_1772_606"/>
<feBlend mode="normal" in="SourceGraphic" in2="effect1_dropShadow_1772_606" result="shape"/>
</filter>
</defs>
</svg>
