<svg width="326" height="76" viewBox="0 0 326 76" fill="none" xmlns="http://www.w3.org/2000/svg">
<path d="M19.9714 46.8849C17.9646 46.8879 16.0408 46.628 14.2002 46.1051C12.3595 45.5584 10.8768 44.8558 9.75223 43.9974L11.7144 39.6224C12.791 40.3853 14.0585 41.0166 15.5169 41.5161C16.9991 41.9917 18.4927 42.2284 19.9978 42.2262C21.1446 42.2244 22.0642 42.1156 22.7566 41.8995C23.4728 41.6595 23.9978 41.3362 24.3314 40.9296C24.6651 40.5229 24.8314 40.0568 24.8303 39.5312C24.829 38.8623 24.5651 38.3371 24.0388 37.9556C23.5123 37.5503 22.8189 37.2288 21.9583 36.9911C21.0977 36.7296 20.1416 36.4921 19.09 36.2787C18.0622 36.0413 17.0223 35.7562 15.9705 35.4233C14.9425 35.0903 13.9979 34.6617 13.1368 34.1374C12.2757 33.6131 11.5695 32.9213 11.0183 32.062C10.491 31.2027 10.2259 30.1041 10.2233 28.7663C10.2204 27.3328 10.6 26.0302 11.3621 24.8584C12.1481 23.6627 13.3169 22.7173 14.8684 22.0221C16.4437 21.303 18.414 20.9418 20.7792 20.9382C22.356 20.9359 23.9093 21.1247 25.4391 21.5047C26.9688 21.8607 28.3197 22.4082 29.4919 23.1471L27.7089 27.5576C26.537 26.8904 25.3653 26.4024 24.194 26.0936C23.0227 25.7608 21.8756 25.5953 20.7528 25.597C19.6299 25.5987 18.7104 25.7314 17.9942 25.9953C17.278 26.2592 16.765 26.6063 16.4553 27.0368C16.1455 27.4434 15.9912 27.9215 15.9923 28.471C15.9936 29.116 16.2575 29.6412 16.7839 30.0466C17.3102 30.4281 18.0037 30.7376 18.8643 30.9752C19.7248 31.2129 20.669 31.4504 21.6968 31.6877C22.7484 31.9251 23.7882 32.1983 24.8162 32.5073C25.868 32.8164 26.8245 33.233 27.6856 33.7573C28.5467 34.2816 29.241 34.9735 29.7683 35.8327C30.3195 36.692 30.5964 37.7786 30.5991 39.0926C30.6019 40.5022 30.2103 41.7928 29.4243 42.9647C28.6383 44.1365 27.4576 45.0819 25.8822 45.801C24.3307 46.5201 22.3605 46.8814 19.9714 46.8849ZM36.0142 46.431L35.9637 21.3456L48.2197 21.3274C51.3733 21.3227 53.7397 21.9164 55.3189 23.1086C56.922 24.3008 57.7255 25.8764 57.7294 27.8354C57.7321 29.1494 57.4119 30.2967 56.7688 31.2771C56.1257 32.2337 55.2432 32.9757 54.1214 33.5029C52.9996 34.0302 51.71 34.2949 50.2527 34.2971L50.9306 32.8268C52.5074 32.8245 53.9055 33.0852 55.125 33.6089C56.3445 34.1088 57.2897 34.86 57.9606 35.8624C58.6555 36.8648 59.0044 38.0947 59.0073 39.552C59.0116 41.7022 58.1669 43.3877 56.4731 44.6087C54.7793 45.8058 52.2839 46.4067 48.987 46.4117L36.0142 46.431ZM41.7751 42.0504L48.5481 42.0403C50.0532 42.038 51.1876 41.7974 51.9511 41.3185C52.7385 40.8156 53.1311 40.0266 53.1289 38.9515C53.1268 37.9003 52.7311 37.1245 51.9416 36.6239C51.1761 36.0995 50.0407 35.8384 48.5356 35.8406L41.3325 35.8513L41.324 31.6227L47.5237 31.6134C48.9332 31.6113 50.0079 31.3708 50.7475 30.8919C51.511 30.3891 51.8917 29.6359 51.8897 28.6325C51.8877 27.653 51.504 26.9249 50.7386 26.4482C49.9969 25.9476 48.9213 25.6984 47.5118 25.7005L41.7421 25.7091L41.7751 42.0504ZM63.7231 38.5415L63.714 34.062L73.8557 34.0469L73.8647 38.5264L63.7231 38.5415ZM81.6304 46.363L81.5842 23.4279L84.0978 25.9327L76.5722 25.9439L76.5628 21.2852L87.3853 21.269L87.4359 46.3544L81.6304 46.363ZM104.445 46.7591C102.151 46.7625 100.155 46.2876 98.4571 45.3345C96.7828 44.3814 95.4899 42.9857 94.5784 41.1475C93.6668 39.3092 93.2083 37.0403 93.2029 34.3406C93.197 31.4498 93.7296 29.0002 94.8007 26.9918C95.8956 24.9833 97.3977 23.4521 99.3068 22.398C101.24 21.344 103.461 20.8151 105.969 20.8113C107.307 20.8093 108.586 20.9508 109.805 21.2356C111.024 21.5205 112.076 21.949 112.961 22.5211L110.819 26.7888C110.125 26.312 109.384 25.9906 108.595 25.8245C107.807 25.6345 106.982 25.5402 106.122 25.5415C103.948 25.5447 102.229 26.2043 100.966 27.5202C99.702 28.836 99.0729 30.7841 99.0781 33.3643C99.0789 33.7943 99.0799 34.2721 99.0809 34.7977C99.1059 35.3233 99.1786 35.8488 99.2991 36.3742L97.6835 34.8715C98.1355 33.9391 98.7193 33.1618 99.4348 32.5395C100.15 31.8934 100.997 31.4143 101.976 31.1023C102.979 30.7663 104.078 30.5975 105.272 30.5957C106.897 30.5933 108.355 30.9136 109.646 31.5567C110.938 32.1999 111.967 33.1062 112.734 34.2757C113.524 35.4452 113.921 36.8183 113.924 38.3951C113.928 40.0913 113.501 41.5732 112.643 42.8407C111.81 44.0843 110.677 45.0535 109.245 45.7485C107.836 46.4195 106.236 46.7564 104.445 46.7591ZM104.113 42.4234C104.926 42.4222 105.642 42.2778 106.263 41.9901C106.907 41.6786 107.408 41.2359 107.765 40.662C108.122 40.088 108.3 39.4308 108.299 38.6902C108.296 37.5434 107.9 36.6361 107.111 35.9684C106.345 35.2767 105.317 34.9318 104.027 34.9337C103.167 34.935 102.414 35.1034 101.77 35.4388C101.126 35.7503 100.613 36.1931 100.232 36.767C99.8744 37.317 99.6965 37.9624 99.698 38.703C99.6995 39.4197 99.8799 40.0645 100.239 40.6373C100.599 41.1863 101.102 41.6275 101.747 41.961C102.393 42.2706 103.182 42.4248 104.113 42.4234ZM118.103 38.4605L118.094 33.981L128.236 33.9659L128.245 38.4454L118.103 38.4605ZM136.01 46.282L135.964 23.3469L138.478 25.8517L130.952 25.8629L130.943 21.2042L141.765 21.188L141.816 46.2734L136.01 46.282ZM158.359 46.6788C156.304 46.6818 154.464 46.1829 152.837 45.1819C151.21 44.157 149.929 42.6777 148.994 40.7439C148.058 38.8101 147.587 36.4695 147.582 33.7221C147.576 30.9746 148.037 28.6326 148.965 26.6961C149.893 24.7596 151.168 23.2884 152.791 22.2825C154.413 21.2528 156.252 20.7364 158.307 20.7334C160.385 20.7303 162.226 21.2412 163.828 22.2661C165.455 23.2671 166.736 24.7345 167.672 26.6682C168.607 28.602 169.078 30.9426 169.084 33.69C169.089 36.4375 168.628 38.7795 167.7 40.716C166.772 42.6526 165.497 44.1357 163.875 45.1654C162.276 46.1712 160.437 46.6757 158.359 46.6788ZM158.349 41.7692C159.328 41.7677 160.176 41.4917 160.892 40.9412C161.631 40.3906 162.203 39.5177 162.607 38.3226C163.034 37.1274 163.246 35.5861 163.242 33.6987C163.238 31.8114 163.02 30.2707 162.588 29.0768C162.179 27.8829 161.604 27.0117 160.862 26.4634C160.145 25.9149 159.296 25.6415 158.316 25.6429C157.361 25.6443 156.513 25.9203 155.774 26.4709C155.058 27.0215 154.487 27.8944 154.059 29.0895C153.655 30.2847 153.455 31.8259 153.459 33.7133C153.463 35.6007 153.669 37.1413 154.078 38.3353C154.51 39.5292 155.085 40.4003 155.803 40.9488C156.545 41.4971 157.393 41.7706 158.349 41.7692ZM184.115 46.6404C182.06 46.6435 180.22 46.1445 178.593 45.1435C176.966 44.1186 175.685 42.6393 174.749 40.7055C173.814 38.7718 173.343 36.4311 173.338 33.6837C173.332 30.9363 173.793 28.5943 174.721 26.6577C175.649 24.7212 176.924 23.25 178.547 22.2442C180.169 21.2144 182.008 20.6981 184.062 20.695C186.141 20.6919 187.982 21.2028 189.584 22.2277C191.211 23.2287 192.492 24.6961 193.428 26.6299C194.363 28.5636 194.834 30.9042 194.839 33.6517C194.845 36.3991 194.384 38.7411 193.456 40.6777C192.528 42.6142 191.253 44.0973 189.63 45.1271C188.032 46.1328 186.193 46.6373 184.115 46.6404ZM184.105 41.7308C185.084 41.7294 185.932 41.4534 186.648 40.9028C187.387 40.3522 187.959 39.4794 188.362 38.2842C188.79 37.089 189.002 35.5478 188.998 33.6604C188.994 31.773 188.776 30.2324 188.344 29.0385C187.935 27.8445 187.36 26.9734 186.618 26.425C185.901 25.8766 185.052 25.6031 184.072 25.6045C183.117 25.606 182.269 25.882 181.53 26.4326C180.814 26.9831 180.242 27.856 179.815 29.0512C179.411 30.2463 179.211 31.7876 179.215 33.675C179.219 35.5623 179.425 37.103 179.833 38.2969C180.266 39.4908 180.841 40.362 181.559 40.9104C182.301 41.4588 183.149 41.7323 184.105 41.7308ZM209.871 46.602C207.816 46.6051 205.975 46.1061 204.349 45.1051C202.722 44.0802 201.441 42.6009 200.505 40.6672C199.57 38.7334 199.099 36.3928 199.094 33.6453C199.088 30.8979 199.549 28.5559 200.477 26.6194C201.405 24.6828 202.68 23.2116 204.303 22.2058C205.925 21.1761 207.764 20.6597 209.818 20.6566C211.897 20.6535 213.737 21.1644 215.34 22.1894C216.967 23.1904 218.248 24.6577 219.184 26.5915C220.119 28.5253 220.59 30.8659 220.595 33.6133C220.601 36.3608 220.14 38.7027 219.212 40.6393C218.284 42.5758 217.009 44.059 215.386 45.0887C213.788 46.0945 211.949 46.5989 209.871 46.602ZM209.861 41.6925C210.84 41.691 211.688 41.415 212.403 40.8644C213.143 40.3139 213.715 39.441 214.118 38.2458C214.546 37.0507 214.758 35.5094 214.754 33.622C214.75 31.7346 214.532 30.194 214.1 29.0001C213.691 27.8062 213.116 26.935 212.374 26.3866C211.656 25.8382 210.808 25.5647 209.828 25.5662C208.873 25.5676 208.025 25.8436 207.286 26.3942C206.57 26.9448 205.998 27.8176 205.571 29.0128C205.167 30.208 204.967 31.7492 204.971 33.6366C204.975 35.524 205.181 37.0646 205.589 38.2585C206.022 39.4524 206.597 40.3236 207.315 40.872C208.056 41.4204 208.905 41.6939 209.861 41.6925ZM246.721 53.356C244.905 53.3587 243.149 53.1344 241.452 52.683C239.778 52.2554 238.379 51.6005 237.255 50.7182L239.469 46.7013C240.282 47.369 241.311 47.8931 242.554 48.2735C243.821 48.6777 245.063 48.879 246.282 48.8771C248.265 48.8742 249.697 48.4301 250.579 47.5448C251.486 46.6595 251.937 45.3448 251.933 43.6008L251.927 40.6981L252.276 35.8596L252.195 30.986L252.186 26.829L257.49 26.8211L257.522 42.8757C257.53 46.4594 256.603 49.1007 254.743 50.7997C252.883 52.4987 250.209 53.3508 246.721 53.356ZM245.844 45.1867C244.053 45.1893 242.427 44.8095 240.968 44.0472C239.533 43.2609 238.372 42.1756 237.486 40.7912C236.623 39.383 236.189 37.7471 236.186 35.8836C236.182 33.9962 236.609 32.3591 237.466 30.9721C238.347 29.5613 239.503 28.4725 240.935 27.7059C242.391 26.9392 244.015 26.5545 245.807 26.5518C247.431 26.5494 248.866 26.8818 250.109 27.5488C251.353 28.192 252.322 29.206 253.018 30.5906C253.714 31.9513 254.064 33.7068 254.068 35.857C254.072 37.9833 253.729 39.7397 253.039 41.1264C252.349 42.4892 251.384 43.506 250.143 44.1768C248.902 44.8476 247.469 45.1842 245.844 45.1867ZM246.946 40.598C247.926 40.5965 248.797 40.4041 249.561 40.0207C250.325 39.6134 250.921 39.0511 251.349 38.3337C251.778 37.6164 251.991 36.7918 251.989 35.8601C251.987 34.9044 251.771 34.0805 251.339 33.3883C250.908 32.6722 250.31 32.1236 249.544 31.7425C248.779 31.3375 247.906 31.1358 246.927 31.1372C245.947 31.1387 245.076 31.343 244.312 31.7503C243.548 32.1337 242.94 32.6841 242.488 33.4015C242.059 34.095 241.846 34.9195 241.848 35.8752C241.85 36.8069 242.066 37.6308 242.498 38.3469C242.953 39.063 243.564 39.6235 244.329 40.0285C245.094 40.4096 245.967 40.5994 246.946 40.598Z" fill="#490606"/>
<path d="M44.5964 67.6159C44.1436 66.896 43.7935 66.0651 43.5461 65.1231C43.2988 64.1733 43.174 63.152 43.1718 62.0592C43.1696 60.9665 43.2902 59.9448 43.5338 58.9942C43.7773 58.0357 44.1241 57.2037 44.574 56.4983L45.6549 56.4967C45.1815 57.3368 44.8348 58.2163 44.615 59.1351C44.3951 60.0461 44.2862 61.0202 44.2883 62.0575C44.2904 63.0949 44.4032 64.0726 44.6268 64.9909C44.8503 65.9011 45.2005 66.7756 45.6773 67.6143L44.5964 67.6159ZM47.2989 65.3076L47.2821 56.9932L48.4699 56.9914L48.4866 65.3058L47.2989 65.3076ZM50.9759 65.3021L50.9591 56.9877L51.9331 56.9862L55.6754 63.264L55.1527 63.2648L58.8222 56.976L59.7962 56.9745L59.8248 65.2889L58.6845 65.2906L58.6595 58.7698L58.9327 58.7693L55.6655 64.2855L55.1192 64.2863L51.8061 58.78L52.103 58.7795L52.1161 65.3004L50.9759 65.3021ZM62.32 65.2852L62.3033 56.9708L63.4911 56.969L63.5057 64.2501L68.0074 64.2434L68.0095 65.2767L62.32 65.2852ZM72.5623 65.2699L72.5455 56.9555L73.5195 56.9541L77.2618 63.2318L76.7391 63.2326L80.4086 56.9438L81.3826 56.9424L81.4112 65.2568L80.2709 65.2585L80.2459 58.7376L80.5191 58.7372L77.2519 64.2533L76.7056 64.2542L73.3925 58.7478L73.6894 58.7474L73.7025 65.2682L72.5623 65.2699ZM87.66 65.3425C87.0265 65.3434 86.4364 65.2374 85.8896 65.0244C85.3507 64.8114 84.8829 64.5152 84.4862 64.1357C84.0895 63.7483 83.7798 63.2974 83.557 62.783C83.3343 62.2686 83.2223 61.7066 83.221 61.0968C83.2198 60.4871 83.3295 59.9247 83.5502 59.4097C83.7709 58.8947 84.0788 58.4468 84.474 58.0661C84.8691 57.6776 85.3357 57.376 85.8737 57.1614C86.4118 56.9467 87.0015 56.839 87.6429 56.838C88.2763 56.8371 88.8586 56.9431 89.3895 57.1561C89.9284 57.3612 90.3962 57.6574 90.7929 58.0449C91.1975 58.4243 91.5072 58.8713 91.7221 59.3857C91.9448 59.9 92.0568 60.466 92.0581 61.0837C92.0593 61.7013 91.9496 62.2677 91.7289 62.7827C91.5162 63.2977 91.2082 63.7495 90.8052 64.1381C90.41 64.5188 89.9434 64.8164 89.4054 65.031C88.8753 65.2377 88.2935 65.3415 87.66 65.3425ZM87.6579 64.2854C88.1171 64.2847 88.5406 64.2049 88.9283 64.0459C89.3239 63.8869 89.664 63.6647 89.9485 63.3792C90.2408 63.0858 90.4658 62.745 90.6234 62.3567C90.7889 61.9685 90.8712 61.5447 90.8703 61.0854C90.8694 60.6262 90.7854 60.2027 90.6183 59.8149C90.4592 59.4271 90.2328 59.0909 89.9392 58.8063C89.6536 58.5137 89.3126 58.2886 88.9164 58.1308C88.5281 57.973 88.1043 57.8944 87.645 57.8951C87.1778 57.8958 86.7464 57.9757 86.3508 58.1346C85.9631 58.2936 85.6231 58.5197 85.3307 58.8132C85.0383 59.0987 84.8093 59.4355 84.6438 59.8238C84.4862 60.212 84.4079 60.6358 84.4088 61.0951C84.4097 61.5543 84.4898 61.9779 84.6489 62.3656C84.816 62.7534 85.0463 63.0935 85.3399 63.3861C85.6335 63.6707 85.9744 63.8919 86.3627 64.0497C86.759 64.2075 87.1907 64.286 87.6579 64.2854ZM97.6354 65.3276C97.002 65.3286 96.4118 65.2225 95.865 65.0095C95.3261 64.7966 94.8583 64.5003 94.4617 64.1208C94.0649 63.7334 93.7552 63.2825 93.5325 62.7681C93.3097 62.2538 93.1977 61.6917 93.1965 61.082C93.1953 60.4723 93.305 59.9099 93.5257 59.3949C93.7463 58.8798 94.0543 58.432 94.4494 58.0513C94.8446 57.6627 95.3112 57.3611 95.8492 57.1465C96.3872 56.9319 96.9769 56.8241 97.6183 56.8232C98.2518 56.8222 98.834 56.9282 99.365 57.1413C99.9039 57.3463 100.372 57.6426 100.768 58.03C101.173 58.4095 101.483 58.8564 101.698 59.3708C101.92 59.8852 102.032 60.4512 102.034 61.0688C102.035 61.6865 101.925 62.2528 101.704 62.7678C101.492 63.2829 101.184 63.7347 100.781 64.1233C100.385 64.5039 99.9189 64.8016 99.3809 65.0162C98.8507 65.2229 98.2689 65.3267 97.6354 65.3276ZM100.359 66.9627C100.082 66.9631 99.8163 66.9279 99.5627 66.857C99.3092 66.794 99.0556 66.6875 98.8019 66.5374C98.5482 66.3953 98.2865 66.2056 98.0168 65.9684C97.7471 65.7392 97.4536 65.4546 97.1362 65.1146L98.4064 64.7801C98.6445 65.0727 98.8707 65.3099 99.0849 65.4917C99.307 65.6815 99.525 65.8157 99.739 65.8946C99.9529 65.9814 100.163 66.0246 100.369 66.0243C100.963 66.0234 101.469 65.7851 101.888 65.3094L102.447 65.9856C101.91 66.6357 101.214 66.9614 100.359 66.9627ZM97.6333 64.2705C98.0926 64.2698 98.5161 64.19 98.9038 64.031C99.2994 63.8721 99.6394 63.6459 99.9239 63.3525C100.216 63.0591 100.441 62.7182 100.599 62.33C100.764 61.9417 100.847 61.5219 100.846 61.0706C100.845 60.6113 100.761 60.1878 100.594 59.8C100.435 59.4123 100.208 59.0761 99.9147 58.7914C99.629 58.4989 99.2881 58.2737 98.8918 58.1159C98.5035 57.9581 98.0797 57.8796 97.6204 57.8803C97.1533 57.881 96.7219 57.9608 96.3263 58.1198C95.9386 58.2787 95.5985 58.5049 95.3061 58.7983C95.0137 59.0838 94.7848 59.4207 94.6193 59.8089C94.4617 60.1972 94.3833 60.6209 94.3843 61.0802C94.3852 61.5316 94.4652 61.9511 94.6243 62.3389C94.7914 62.7267 95.0217 63.0668 95.3153 63.3594C95.6089 63.6519 95.9498 63.8771 96.3382 64.0349C96.7344 64.1926 97.1661 64.2712 97.6333 64.2705ZM106.471 62.4519L106.469 61.4661L109.665 61.4613L109.667 62.4471L106.471 62.4519ZM116.791 65.2991C116.205 65.2999 115.635 65.2097 115.081 65.0284C114.534 64.8471 114.086 64.6023 113.737 64.294L114.281 63.3549C114.559 63.6158 114.92 63.829 115.363 63.9946C115.807 64.1603 116.279 64.2427 116.777 64.242C117.411 64.241 117.898 64.1057 118.238 63.836C118.578 63.5662 118.747 63.2057 118.746 62.7543C118.746 62.4455 118.67 62.1764 118.519 61.947C118.368 61.7176 118.106 61.5437 117.734 61.4255C117.369 61.2994 116.866 61.2368 116.225 61.2377L114.336 61.2405L114.767 56.8926L119.459 56.8856L119.461 57.919L115.209 57.9253L115.825 57.3424L115.488 60.7756L114.869 60.2064L116.472 60.204C117.304 60.2028 117.973 60.3087 118.48 60.5217C118.988 60.7347 119.356 61.0311 119.587 61.4109C119.817 61.7827 119.933 62.2141 119.934 62.705C119.935 63.1802 119.821 63.6158 119.592 64.0121C119.363 64.4005 119.015 64.7138 118.549 64.952C118.09 65.1823 117.504 65.298 116.791 65.2991ZM124.325 65.2879C123.675 65.2888 123.093 65.1234 122.578 64.7916C122.07 64.4598 121.665 63.9773 121.363 63.3443C121.069 62.7113 120.921 61.9434 120.919 61.0407C120.917 60.138 121.062 59.3697 121.354 58.7358C121.653 58.1018 122.056 57.6182 122.562 57.2849C123.076 56.9515 123.658 56.7844 124.307 56.7834C124.949 56.7824 125.527 56.9479 126.043 57.2797C126.558 57.6115 126.963 58.0939 127.257 58.727C127.551 59.36 127.699 60.1279 127.701 61.0306C127.703 61.9333 127.558 62.7016 127.266 63.3355C126.975 63.9694 126.572 64.4531 126.058 64.7864C125.544 65.1197 124.966 65.2869 124.325 65.2879ZM124.322 64.2307C124.758 64.2301 125.138 64.1107 125.462 63.8727C125.794 63.6347 126.051 63.2779 126.232 62.8026C126.421 62.3272 126.515 61.7371 126.513 61.0324C126.512 60.3276 126.416 59.7378 126.225 59.263C126.042 58.7882 125.784 58.4322 125.451 58.1951C125.125 57.9581 124.745 57.8399 124.31 57.8405C123.874 57.8412 123.49 57.9605 123.158 58.1986C122.826 58.4366 122.565 58.7933 122.376 59.2687C122.195 59.7441 122.105 60.3342 122.107 61.0389C122.108 61.7437 122.2 62.3335 122.383 62.8083C122.574 63.2831 122.837 63.6391 123.17 63.8761C123.503 64.1132 123.887 64.2314 124.322 64.2307ZM132.247 65.2761C131.598 65.277 131.015 65.1116 130.5 64.7798C129.992 64.448 129.588 63.9655 129.285 63.3325C128.991 62.6995 128.843 61.9316 128.841 61.0289C128.839 60.1262 128.984 59.3579 129.276 58.724C129.576 58.09 129.979 57.6064 130.485 57.2731C130.999 56.9397 131.58 56.7726 132.23 56.7716C132.871 56.7706 133.45 56.9361 133.965 57.2679C134.48 57.5997 134.885 58.0821 135.179 58.7152C135.474 59.3482 135.622 60.1161 135.624 61.0188C135.625 61.9215 135.48 62.6898 135.189 63.3237C134.897 63.9576 134.494 64.4413 133.98 64.7746C133.466 65.1079 132.888 65.2751 132.247 65.2761ZM132.245 64.2189C132.68 64.2183 133.06 64.0989 133.384 63.8609C133.716 63.6229 133.973 63.2661 134.154 62.7908C134.343 62.3154 134.437 61.7253 134.436 61.0206C134.434 60.3158 134.338 59.726 134.147 59.2512C133.964 58.7764 133.706 58.4204 133.373 58.1833C133.048 57.9463 132.667 57.8281 132.232 57.8287C131.796 57.8294 131.413 57.9487 131.08 58.1868C130.748 58.4248 130.488 58.7815 130.299 59.2569C130.118 59.7323 130.028 60.3224 130.029 61.0271C130.031 61.7319 130.123 62.3217 130.306 62.7965C130.497 63.2713 130.759 63.6273 131.092 63.8643C131.425 64.1014 131.809 64.2196 132.245 64.2189ZM140.169 65.2643C139.52 65.2652 138.938 65.0998 138.422 64.768C137.915 64.4362 137.51 63.9537 137.208 63.3207C136.914 62.6877 136.765 61.9198 136.764 61.0171C136.762 60.1144 136.907 59.3461 137.199 58.7121C137.498 58.0782 137.901 57.5946 138.407 57.2613C138.921 56.9279 139.503 56.7608 140.152 56.7598C140.794 56.7588 141.372 56.9243 141.887 57.2561C142.403 57.5879 142.807 58.0703 143.102 58.7034C143.396 59.3364 143.544 60.1043 143.546 61.007C143.548 61.9097 143.403 62.678 143.111 63.3119C142.819 63.9458 142.416 64.4295 141.902 64.7628C141.388 65.0961 140.811 65.2633 140.169 65.2643ZM140.167 64.2071C140.603 64.2065 140.983 64.0871 141.307 63.8491C141.639 63.6111 141.895 63.2543 142.077 62.779C142.266 62.3036 142.36 61.7135 142.358 61.0087C142.357 60.304 142.26 59.7142 142.069 59.2394C141.886 58.7646 141.628 58.4086 141.295 58.1715C140.97 57.9345 140.59 57.8163 140.154 57.8169C139.719 57.8176 139.335 57.9369 139.003 58.175C138.671 58.413 138.41 58.7697 138.221 59.2451C138.04 59.7205 137.95 60.3106 137.951 61.0153C137.953 61.7201 138.045 62.3099 138.228 62.7847C138.419 63.2595 138.681 63.6155 139.014 63.8525C139.347 64.0896 139.732 64.2078 140.167 64.2071ZM148.561 65.1567L148.545 56.8423L151.787 56.8375C152.516 56.8364 153.137 56.9503 153.653 57.1792C154.168 57.408 154.564 57.74 154.842 58.1751C155.12 58.6102 155.26 59.1287 155.261 59.7305C155.262 60.3323 155.125 60.8512 154.849 61.2871C154.572 61.7151 154.177 62.0483 153.663 62.2866C153.149 62.517 152.527 62.6327 151.799 62.6338L149.209 62.6377L149.743 62.0786L149.749 65.155L148.561 65.1567ZM149.743 62.1974L149.207 61.6043L151.761 61.6005C152.521 61.5994 153.095 61.4362 153.482 61.111C153.878 60.7857 154.075 60.3261 154.073 59.7323C154.072 59.1384 153.873 58.6794 153.477 58.3553C153.088 58.0312 152.514 57.8698 151.754 57.8709L149.2 57.8747L149.733 57.28L149.743 62.1974ZM159.572 65.2116C158.93 65.2125 158.356 65.0748 157.848 64.7984C157.349 64.522 156.956 64.1425 156.67 63.6599C156.384 63.1773 156.241 62.6232 156.239 61.9977C156.238 61.3721 156.38 60.8176 156.664 60.3342C156.948 59.8507 157.339 59.474 157.837 59.204C158.343 58.9261 158.917 58.7867 159.559 58.7857C160.129 58.7849 160.636 58.899 161.08 59.1279C161.532 59.349 161.881 59.681 162.127 60.1241L161.261 60.6836C161.055 60.3751 160.801 60.1498 160.499 60.0077C160.206 59.8577 159.889 59.783 159.549 59.7835C159.137 59.7841 158.769 59.8757 158.445 60.0583C158.12 60.2409 157.864 60.4987 157.674 60.8315C157.485 61.1565 157.391 61.5446 157.391 61.996C157.392 62.4473 157.488 62.8391 157.679 63.1714C157.87 63.5037 158.128 63.7607 158.453 63.9423C158.778 64.124 159.146 64.2145 159.558 64.2139C159.898 64.2134 160.215 64.1416 160.508 63.9987C160.808 63.8478 161.061 63.6178 161.266 63.3086L162.134 63.8537C161.89 64.2896 161.542 64.6266 161.091 64.8649C160.648 65.0952 160.142 65.2107 159.572 65.2116ZM165.419 65.2029C164.896 65.2037 164.397 65.1331 163.922 64.9913C163.454 64.8495 163.086 64.6758 162.816 64.4703L163.289 63.5669C163.559 63.7486 163.892 63.9026 164.288 64.0287C164.684 64.1548 165.088 64.2175 165.5 64.2169C166.031 64.2161 166.411 64.1403 166.64 63.9895C166.877 63.8387 166.995 63.6287 166.995 63.3595C166.995 63.1615 166.923 63.0072 166.78 62.8966C166.637 62.7859 166.447 62.7031 166.21 62.648C165.98 62.5929 165.722 62.5458 165.437 62.5066C165.152 62.4595 164.867 62.4045 164.582 62.3416C164.296 62.2707 164.035 62.1761 163.797 62.0577C163.559 61.9313 163.369 61.7614 163.226 61.5478C163.083 61.3263 163.011 61.0334 163.01 60.6692C163.01 60.2891 163.116 59.9563 163.329 59.671C163.542 59.3856 163.843 59.1674 164.231 59.0163C164.626 58.8574 165.093 58.7775 165.632 58.7767C166.043 58.7761 166.459 58.8269 166.879 58.9292C167.307 59.0236 167.656 59.1617 167.925 59.3434L167.44 60.2468C167.155 60.0572 166.857 59.927 166.548 59.8562C166.239 59.7854 165.931 59.7502 165.622 59.7507C165.123 59.7514 164.751 59.8351 164.506 60.0018C164.261 60.1605 164.138 60.3666 164.139 60.62C164.139 60.8338 164.211 61 164.354 61.1185C164.504 61.2292 164.694 61.316 164.924 61.379C165.162 61.442 165.423 61.497 165.708 61.5441C165.994 61.5833 166.279 61.6383 166.564 61.7091C166.849 61.772 167.107 61.8627 167.337 61.9812C167.574 62.0996 167.765 62.2656 167.908 62.4792C168.059 62.6927 168.134 62.9777 168.135 63.334C168.136 63.7141 168.026 64.0429 167.805 64.3204C167.583 64.5979 167.271 64.8161 166.868 64.975C166.464 65.1261 165.981 65.202 165.419 65.2029ZM169.949 67.4292L168.868 67.4308C169.349 66.5907 169.7 65.7152 169.919 64.8042C170.139 63.8853 170.248 62.9072 170.246 61.8699C170.244 60.8326 170.131 59.8588 169.908 58.9485C169.684 58.0303 169.33 57.1518 168.845 56.3132L169.926 56.3116C170.395 57.0156 170.749 57.8466 170.988 58.8043C171.236 59.7542 171.36 60.7755 171.363 61.8683C171.365 62.961 171.244 63.9827 171.001 64.9333C170.765 65.8759 170.414 66.7079 169.949 67.4292Z" fill="black"/>
<path d="M181.152 62.0518H216.703" stroke="url(#paint0_linear_2175_4)" stroke-width="0.863039"/>
<path d="M35.5498 62.0576H-0.000447512" stroke="url(#paint1_linear_2175_4)" stroke-width="0.863039"/>
<defs>
<linearGradient id="paint0_linear_2175_4" x1="211.37" y1="62.5517" x2="181.745" y2="62.5517" gradientUnits="userSpaceOnUse">
<stop stop-color="#666666" stop-opacity="0"/>
<stop offset="1"/>
</linearGradient>
<linearGradient id="paint1_linear_2175_4" x1="5.33209" y1="62.5576" x2="34.9573" y2="62.5576" gradientUnits="userSpaceOnUse">
<stop stop-color="#666666" stop-opacity="0"/>
<stop offset="1"/>
</linearGradient>
</defs>
</svg>
