<svg width="155" height="50" viewBox="0 0 155 50" fill="none" xmlns="http://www.w3.org/2000/svg">
<g filter="url(#filter0_d_1772_503)">
<rect x="24.1387" y="4.71701" width="33" height="31" rx="6" transform="rotate(46.3303 24.1387 4.71701)" fill="white"/>
</g>
<path d="M17.4195 22.9641V34.1357C17.4195 34.3251 17.4804 34.4808 17.6022 34.6026C17.724 34.7244 17.88 34.7853 18.0701 34.7853H31.557C31.7464 34.7853 31.9021 34.7244 32.0239 34.6026C32.1457 34.4808 32.2066 34.3251 32.2066 34.1357V22.9641H27.9817V30.1337L24.8131 28.5494L21.6444 30.1337V22.9641H17.4195ZM18.0701 35.8415C17.5969 35.8415 17.1942 35.6753 16.8618 35.343C16.5295 35.0106 16.3633 34.6082 16.3633 34.1357V22.624C16.3633 22.4184 16.396 22.2247 16.4615 22.043C16.527 21.8614 16.6256 21.6941 16.7573 21.5413L18.4028 19.5662C18.5556 19.3599 18.7468 19.2043 18.9764 19.0994C19.2059 18.9944 19.452 18.942 19.7147 18.942H29.8713C30.1332 18.942 30.3825 18.9944 30.6191 19.0994C30.8557 19.2043 31.0504 19.3595 31.2032 19.5651L32.8689 21.5825C33.0005 21.7353 33.0991 21.9061 33.1646 22.0948C33.2301 22.2828 33.2628 22.48 33.2628 22.6863V34.1357C33.2628 34.6075 33.0967 35.0099 32.7643 35.343C32.4319 35.6753 32.0295 35.8415 31.557 35.8415H18.0701ZM17.8209 21.9078H31.7841L30.3793 20.22C30.311 20.1524 30.2329 20.0985 30.1449 20.0584C30.0568 20.0183 29.9653 19.9982 29.8702 19.9982H19.7347C19.6404 19.9982 19.5488 20.0186 19.4601 20.0595C19.3714 20.1003 19.2939 20.1545 19.2278 20.2221L17.8209 21.9078ZM22.6996 22.9641V28.4068L24.812 27.3506L26.9244 28.4068V22.9651L22.6996 22.9641Z" fill="black"/>
<path d="M55.9631 22.6676V13.1521H60.0932C60.7951 13.1521 61.389 13.2691 61.8749 13.503C62.3608 13.737 62.7297 14.0744 62.9816 14.5153C63.2336 14.9562 63.3595 15.4916 63.3595 16.1215C63.3595 16.7424 63.2336 17.2777 62.9816 17.7276C62.7297 18.1686 62.3608 18.5105 61.8749 18.7534C61.389 18.9874 60.7951 19.1044 60.0932 19.1044H57.6907V22.6676H55.9631ZM57.6907 17.7411H59.8233C60.4352 17.7411 60.8986 17.6062 61.2135 17.3362C61.5284 17.0573 61.6859 16.6524 61.6859 16.1215C61.6859 15.5906 61.5284 15.1902 61.2135 14.9202C60.8986 14.6503 60.4352 14.5153 59.8233 14.5153H57.6907V17.7411ZM67.3268 22.8026C66.6339 22.8026 66.031 22.6631 65.5181 22.3842C65.0052 22.0962 64.6093 21.6913 64.3304 21.1694C64.0514 20.6475 63.912 20.0357 63.912 19.3338C63.912 18.632 64.0514 18.0291 64.3304 17.5252C64.6093 17.0123 65.0052 16.6209 65.5181 16.3509C66.031 16.072 66.6339 15.9325 67.3268 15.9325C67.7497 15.9325 68.1681 16 68.582 16.135C68.9959 16.27 69.3378 16.4589 69.6078 16.7019L69.1084 17.8761C68.8744 17.6692 68.609 17.5117 68.312 17.4037C68.0241 17.2957 67.7452 17.2418 67.4752 17.2418C66.8903 17.2418 66.4359 17.4262 66.112 17.7951C65.7971 18.1551 65.6396 18.6724 65.6396 19.3473C65.6396 20.0132 65.7971 20.5396 66.112 20.9265C66.4359 21.3044 66.8903 21.4934 67.4752 21.4934C67.7362 21.4934 68.0151 21.4394 68.312 21.3314C68.609 21.2234 68.8744 21.0614 69.1084 20.8455L69.6078 22.0332C69.3378 22.2672 68.9914 22.4561 68.5685 22.6001C68.1546 22.7351 67.7407 22.8026 67.3268 22.8026ZM73.0587 22.8026C72.6898 22.8026 72.3299 22.7711 71.9789 22.7081C71.637 22.6451 71.3221 22.5596 71.0341 22.4516C70.7462 22.3347 70.4943 22.1907 70.2783 22.0197L70.7102 20.913C70.9352 21.0569 71.1781 21.1829 71.4391 21.2909C71.7 21.3989 71.9699 21.4799 72.2489 21.5338C72.5278 21.5878 72.8023 21.6148 73.0722 21.6148C73.5041 21.6148 73.8236 21.5428 74.0305 21.3989C74.2465 21.2459 74.3544 21.0479 74.3544 20.805C74.3544 20.598 74.2825 20.4406 74.1385 20.3326C74.0035 20.2156 73.7966 20.1301 73.5176 20.0762L72.1679 19.8197C71.61 19.7117 71.1826 19.5093 70.8857 19.2123C70.5977 18.9064 70.4538 18.515 70.4538 18.0381C70.4538 17.6062 70.5707 17.2328 70.8047 16.9178C71.0476 16.6029 71.3806 16.3599 71.8035 16.189C72.2264 16.018 72.7123 15.9325 73.2612 15.9325C73.5761 15.9325 73.882 15.964 74.179 16.027C74.4759 16.081 74.7549 16.1665 75.0158 16.2835C75.2857 16.3914 75.5197 16.5354 75.7177 16.7154L75.2588 17.8221C75.0878 17.6782 74.8898 17.5567 74.6649 17.4577C74.4399 17.3497 74.206 17.2687 73.963 17.2148C73.7291 17.1518 73.4996 17.1203 73.2747 17.1203C72.8338 17.1203 72.5053 17.1968 72.2894 17.3497C72.0824 17.5027 71.9789 17.7052 71.9789 17.9571C71.9789 18.1461 72.0419 18.3035 72.1679 18.4295C72.2939 18.5555 72.4873 18.641 72.7483 18.6859L74.098 18.9424C74.6829 19.0504 75.1238 19.2483 75.4207 19.5363C75.7267 19.8242 75.8796 20.2111 75.8796 20.697C75.8796 21.1379 75.7626 21.5158 75.5287 21.8308C75.2947 22.1457 74.9663 22.3887 74.5434 22.5596C74.1205 22.7216 73.6256 22.8026 73.0587 22.8026ZM81.033 22.6676V13.1521H85.1631C85.865 13.1521 86.4588 13.2691 86.9447 13.503C87.4306 13.737 87.7996 14.0744 88.0515 14.5153C88.3035 14.9562 88.4294 15.4916 88.4294 16.1215C88.4294 16.7424 88.3035 17.2777 88.0515 17.7276C87.7996 18.1686 87.4306 18.5105 86.9447 18.7534C86.4588 18.9874 85.865 19.1044 85.1631 19.1044H82.7606V22.6676H81.033ZM82.7606 17.7411H84.8932C85.5051 17.7411 85.9685 17.6062 86.2834 17.3362C86.5983 17.0573 86.7558 16.6524 86.7558 16.1215C86.7558 15.5906 86.5983 15.1902 86.2834 14.9202C85.9685 14.6503 85.5051 14.5153 84.8932 14.5153H82.7606V17.7411ZM92.5991 22.8026C91.8523 22.8026 91.2089 22.6631 90.669 22.3842C90.1291 22.1052 89.7107 21.7093 89.4138 21.1964C89.1258 20.6835 88.9819 20.0762 88.9819 19.3743C88.9819 18.6904 89.1213 18.0921 89.4003 17.5792C89.6882 17.0663 90.0796 16.6659 90.5745 16.3779C91.0784 16.081 91.6498 15.9325 92.2887 15.9325C92.9185 15.9325 93.4584 16.0675 93.9083 16.3374C94.3582 16.6074 94.7047 16.9898 94.9476 17.4847C95.1996 17.9796 95.3255 18.569 95.3255 19.2528V19.7522H90.3451V18.7804H94.1378L93.9218 18.9829C93.9218 18.371 93.7868 17.9031 93.5169 17.5792C93.247 17.2462 92.86 17.0798 92.3562 17.0798C91.9782 17.0798 91.6543 17.1698 91.3844 17.3497C91.1234 17.5207 90.921 17.7681 90.777 18.0921C90.642 18.407 90.5745 18.7849 90.5745 19.2258V19.3203C90.5745 19.8152 90.651 20.2246 90.804 20.5486C90.9569 20.8725 91.1864 21.1154 91.4923 21.2774C91.7983 21.4394 92.1762 21.5203 92.6261 21.5203C92.995 21.5203 93.3639 21.4664 93.7329 21.3584C94.1018 21.2414 94.4392 21.0614 94.7451 20.8185L95.2175 21.9523C94.9026 22.2132 94.5067 22.4202 94.0298 22.5731C93.5529 22.7261 93.076 22.8026 92.5991 22.8026ZM96.6616 22.6676V16.0675H98.3083V17.6602H98.1733C98.2993 17.1203 98.5467 16.7109 98.9157 16.4319C99.2846 16.144 99.775 15.9775 100.387 15.9325L100.9 15.892L101.008 17.3227L100.036 17.4172C99.487 17.4712 99.0731 17.6422 98.7942 17.9301C98.5152 18.209 98.3758 18.605 98.3758 19.1179V22.6676H96.6616ZM105.747 22.6676V13.1521H109.904C110.903 13.1521 111.677 13.3726 112.226 13.8135C112.775 14.2454 113.049 14.8483 113.049 15.6221C113.049 16.198 112.882 16.6839 112.55 17.0798C112.217 17.4757 111.762 17.7411 111.186 17.8761V17.6737C111.627 17.7366 112.005 17.8716 112.32 18.0786C112.635 18.2855 112.873 18.551 113.035 18.8749C113.206 19.1988 113.292 19.5768 113.292 20.0087C113.292 20.5665 113.161 21.0479 112.9 21.4529C112.649 21.8488 112.28 22.1502 111.794 22.3572C111.308 22.5641 110.727 22.6676 110.053 22.6676H105.747ZM107.407 21.3584H109.837C110.08 21.3584 110.296 21.3404 110.485 21.3044C110.682 21.2684 110.849 21.2144 110.984 21.1424C111.128 21.0614 111.245 20.9625 111.335 20.8455C111.434 20.7285 111.506 20.5935 111.551 20.4406C111.596 20.2876 111.618 20.1166 111.618 19.9277C111.618 19.7297 111.596 19.5543 111.551 19.4013C111.506 19.2483 111.434 19.1179 111.335 19.0099C111.245 18.8929 111.128 18.7984 110.984 18.7264C110.849 18.6455 110.682 18.587 110.485 18.551C110.296 18.515 110.08 18.497 109.837 18.497H107.407V21.3584ZM107.407 17.1878H109.607C110.201 17.1878 110.642 17.0753 110.93 16.8503C111.227 16.6164 111.375 16.2745 111.375 15.8246C111.375 15.3746 111.227 15.0372 110.93 14.8123C110.642 14.5783 110.201 14.4613 109.607 14.4613H107.407V17.1878ZM117.887 22.8026C117.204 22.8026 116.61 22.6631 116.106 22.3842C115.602 22.1052 115.21 21.7093 114.931 21.1964C114.653 20.6745 114.513 20.0627 114.513 19.3608C114.513 18.659 114.653 18.0516 114.931 17.5387C115.21 17.0258 115.602 16.6299 116.106 16.3509C116.61 16.072 117.204 15.9325 117.887 15.9325C118.571 15.9325 119.165 16.072 119.669 16.3509C120.173 16.6299 120.564 17.0258 120.843 17.5387C121.122 18.0516 121.262 18.659 121.262 19.3608C121.262 20.0627 121.122 20.6745 120.843 21.1964C120.564 21.7093 120.173 22.1052 119.669 22.3842C119.165 22.6631 118.571 22.8026 117.887 22.8026ZM117.887 21.5203C118.391 21.5203 118.796 21.3404 119.102 20.9805C119.408 20.6115 119.561 20.0717 119.561 19.3608C119.561 18.641 119.408 18.1056 119.102 17.7546C118.796 17.3947 118.391 17.2148 117.887 17.2148C117.383 17.2148 116.979 17.3947 116.673 17.7546C116.367 18.1056 116.214 18.641 116.214 19.3608C116.214 20.0717 116.367 20.6115 116.673 20.9805C116.979 21.3404 117.383 21.5203 117.887 21.5203ZM121.565 22.6676L124.656 18.8614V19.6577L121.74 16.0675H123.711L125.601 18.4835H125.007L126.896 16.0675H128.867L125.952 19.6442V18.8884L129.042 22.6676H127.058L125.007 20.0762H125.574L123.536 22.6676H121.565Z" fill="black"/>
<path d="M57.9944 42.1094C57.432 42.1094 56.8959 42.0194 56.386 41.8394C55.8761 41.652 55.4712 41.4045 55.1713 41.0971L55.5649 40.456C55.8124 40.7184 56.1498 40.9359 56.5772 41.1083C57.0121 41.2808 57.4808 41.367 57.9832 41.367C58.6505 41.367 59.1567 41.2208 59.5016 40.9284C59.854 40.6284 60.0302 40.2385 60.0302 39.7586C60.0302 39.4212 59.9478 39.1325 59.7828 38.8926C59.6253 38.6451 59.3554 38.4539 58.973 38.3189C58.5906 38.184 58.0657 38.1165 57.3983 38.1165H55.7224L56.1273 34.1686H60.4352V34.8884H56.4535L56.8697 34.4947L56.521 37.8015L56.1048 37.3966H57.5783C58.3731 37.3966 59.0105 37.4941 59.4904 37.6891C59.9703 37.884 60.3152 38.1577 60.5251 38.5101C60.7426 38.8551 60.8513 39.26 60.8513 39.7249C60.8513 40.1673 60.7463 40.5722 60.5364 40.9396C60.3264 41.2995 60.0115 41.5845 59.5916 41.7944C59.1717 42.0044 58.6393 42.1094 57.9944 42.1094ZM65.0175 42.1094C64.4101 42.1094 63.8703 41.9519 63.3979 41.637C62.9255 41.3145 62.5543 40.8571 62.2843 40.2648C62.0144 39.6649 61.8794 38.945 61.8794 38.1052C61.8794 37.2654 62.0144 36.5493 62.2843 35.9569C62.5543 35.357 62.9255 34.8996 63.3979 34.5847C63.8703 34.2623 64.4101 34.1011 65.0175 34.1011C65.6249 34.1011 66.1648 34.2623 66.6372 34.5847C67.1096 34.8996 67.4807 35.357 67.7507 35.9569C68.0281 36.5493 68.1668 37.2654 68.1668 38.1052C68.1668 38.945 68.0281 39.6649 67.7507 40.2648C67.4807 40.8571 67.1096 41.3145 66.6372 41.637C66.1648 41.9519 65.6249 42.1094 65.0175 42.1094ZM65.0175 41.367C65.4824 41.367 65.8873 41.2433 66.2323 40.9959C66.5772 40.7409 66.8471 40.3735 67.0421 39.8936C67.237 39.4062 67.3345 38.8101 67.3345 38.1052C67.3345 37.4004 67.237 36.808 67.0421 36.3281C66.8471 35.8407 66.5772 35.4733 66.2323 35.2258C65.8873 34.9709 65.4824 34.8434 65.0175 34.8434C64.5676 34.8434 64.1664 34.9709 63.814 35.2258C63.4616 35.4733 63.1879 35.8407 62.9929 36.3281C62.798 36.808 62.7005 37.4004 62.7005 38.1052C62.7005 38.8101 62.798 39.4062 62.9929 39.8936C63.1879 40.3735 63.4616 40.7409 63.814 40.9959C64.1664 41.2433 64.5676 41.367 65.0175 41.367ZM72.4647 42.1094C71.8573 42.1094 71.3174 41.9519 70.845 41.637C70.3726 41.3145 70.0014 40.8571 69.7315 40.2648C69.4616 39.6649 69.3266 38.945 69.3266 38.1052C69.3266 37.2654 69.4616 36.5493 69.7315 35.9569C70.0014 35.357 70.3726 34.8996 70.845 34.5847C71.3174 34.2623 71.8573 34.1011 72.4647 34.1011C73.072 34.1011 73.6119 34.2623 74.0843 34.5847C74.5567 34.8996 74.9279 35.357 75.1978 35.9569C75.4753 36.5493 75.614 37.2654 75.614 38.1052C75.614 38.945 75.4753 39.6649 75.1978 40.2648C74.9279 40.8571 74.5567 41.3145 74.0843 41.637C73.6119 41.9519 73.072 42.1094 72.4647 42.1094ZM72.4647 41.367C72.9296 41.367 73.3345 41.2433 73.6794 40.9959C74.0243 40.7409 74.2943 40.3735 74.4892 39.8936C74.6842 39.4062 74.7817 38.8101 74.7817 38.1052C74.7817 37.4004 74.6842 36.808 74.4892 36.3281C74.2943 35.8407 74.0243 35.4733 73.6794 35.2258C73.3345 34.9709 72.9296 34.8434 72.4647 34.8434C72.0148 34.8434 71.6136 34.9709 71.2612 35.2258C70.9087 35.4733 70.6351 35.8407 70.4401 36.3281C70.2451 36.808 70.1477 37.4004 70.1477 38.1052C70.1477 38.8101 70.2451 39.4062 70.4401 39.8936C70.6351 40.3735 70.9087 40.7409 71.2612 40.9959C71.6136 41.2433 72.0148 41.367 72.4647 41.367ZM80.4148 42.0419V34.1686H81.1009L86.5335 41.0071H86.1736V34.1686H86.9947V42.0419H86.3086L80.8872 35.2033H81.2471V42.0419H80.4148ZM91.8028 42.0981C91.2329 42.0981 90.7192 41.9707 90.2618 41.7157C89.8119 41.4533 89.4558 41.0971 89.1933 40.6472C88.9309 40.1898 88.7996 39.6686 88.7996 39.0838C88.7996 38.4914 88.9309 37.9702 89.1933 37.5203C89.4558 37.0704 89.8119 36.718 90.2618 36.4631C90.7117 36.2081 91.2254 36.0806 91.8028 36.0806C92.3876 36.0806 92.905 36.2081 93.3549 36.4631C93.8123 36.718 94.1685 37.0704 94.4235 37.5203C94.6859 37.9702 94.8171 38.4914 94.8171 39.0838C94.8171 39.6686 94.6859 40.1898 94.4235 40.6472C94.1685 41.0971 93.8123 41.4533 93.3549 41.7157C92.8975 41.9707 92.3801 42.0981 91.8028 42.0981ZM91.8028 41.3895C92.2302 41.3895 92.6088 41.2958 92.9388 41.1083C93.2687 40.9134 93.5274 40.6434 93.7149 40.2985C93.9098 39.9461 94.0073 39.5412 94.0073 39.0838C94.0073 38.6189 93.9098 38.2139 93.7149 37.869C93.5274 37.5241 93.2687 37.2579 92.9388 37.0704C92.6088 36.8755 92.2339 36.778 91.814 36.778C91.3941 36.778 91.0192 36.8755 90.6892 37.0704C90.3593 37.2579 90.0969 37.5241 89.9019 37.869C89.7069 38.2139 89.6095 38.6189 89.6095 39.0838C89.6095 39.5412 89.7069 39.9461 89.9019 40.2985C90.0969 40.6434 90.3593 40.9134 90.6892 41.1083C91.0192 41.2958 91.3903 41.3895 91.8028 41.3895ZM98.0334 42.0981C97.546 42.0981 97.0849 42.0306 96.65 41.8957C96.215 41.7532 95.8739 41.577 95.6264 41.367L95.9863 40.7372C96.2263 40.9171 96.5337 41.0746 96.9086 41.2096C97.2836 41.337 97.6772 41.4008 98.0896 41.4008C98.652 41.4008 99.0569 41.3145 99.3044 41.1421C99.5518 40.9621 99.6756 40.7259 99.6756 40.4335C99.6756 40.216 99.6043 40.0473 99.4619 39.9273C99.3269 39.7999 99.1469 39.7061 98.922 39.6461C98.697 39.5787 98.4458 39.5224 98.1684 39.4774C97.8909 39.4324 97.6135 39.3799 97.3361 39.32C97.0661 39.26 96.8187 39.1737 96.5937 39.0613C96.3688 38.9413 96.1851 38.7801 96.0426 38.5776C95.9076 38.3752 95.8401 38.1052 95.8401 37.7678C95.8401 37.4454 95.9301 37.1567 96.1101 36.9017C96.29 36.6468 96.5525 36.4481 96.8974 36.3056C97.2498 36.1556 97.6772 36.0806 98.1796 36.0806C98.562 36.0806 98.9445 36.1331 99.3269 36.2381C99.7093 36.3356 100.024 36.4668 100.272 36.6318L99.923 37.2729C99.6606 37.0929 99.3794 36.9655 99.0794 36.8905C98.7795 36.808 98.4796 36.7668 98.1796 36.7668C97.6472 36.7668 97.2536 36.8605 96.9986 37.0479C96.7512 37.2279 96.6275 37.4604 96.6275 37.7453C96.6275 37.9702 96.6949 38.1465 96.8299 38.2739C96.9724 38.4014 97.1561 38.5026 97.381 38.5776C97.6135 38.6451 97.8647 38.7013 98.1346 38.7463C98.4121 38.7913 98.6858 38.8476 98.9557 38.915C99.2332 38.975 99.4844 39.0613 99.7093 39.1737C99.9418 39.2787 100.125 39.4324 100.26 39.6349C100.403 39.8299 100.474 40.0885 100.474 40.411C100.474 40.7559 100.377 41.0558 100.182 41.3108C99.9942 41.5582 99.7168 41.7532 99.3494 41.8957C98.9895 42.0306 98.5508 42.0981 98.0334 42.0981ZM100.545 43.1666L104.257 32.5714H104.988L101.276 43.1666H100.545ZM107.39 42.0981C106.805 42.0981 106.28 41.9707 105.815 41.7157C105.358 41.4533 104.998 41.0971 104.736 40.6472C104.473 40.1898 104.342 39.6686 104.342 39.0838C104.342 38.4914 104.473 37.9702 104.736 37.5203C104.998 37.0704 105.358 36.718 105.815 36.4631C106.28 36.2081 106.805 36.0806 107.39 36.0806C107.893 36.0806 108.346 36.1781 108.751 36.3731C109.156 36.568 109.475 36.8605 109.707 37.2504L109.111 37.6553C108.909 37.3554 108.657 37.1342 108.357 36.9917C108.057 36.8492 107.731 36.778 107.379 36.778C106.959 36.778 106.58 36.8755 106.243 37.0704C105.905 37.2579 105.639 37.5241 105.444 37.869C105.249 38.2139 105.152 38.6189 105.152 39.0838C105.152 39.5487 105.249 39.9536 105.444 40.2985C105.639 40.6434 105.905 40.9134 106.243 41.1083C106.58 41.2958 106.959 41.3895 107.379 41.3895C107.731 41.3895 108.057 41.3183 108.357 41.1758C108.657 41.0333 108.909 40.8159 109.111 40.5235L109.707 40.9284C109.475 41.3108 109.156 41.6032 108.751 41.8057C108.346 42.0006 107.893 42.0981 107.39 42.0981ZM113.209 42.0981C112.654 42.0981 112.227 41.9482 111.927 41.6482C111.627 41.3483 111.477 40.9246 111.477 40.3772V34.8322H112.275V40.3322C112.275 40.6772 112.362 40.9434 112.534 41.1308C112.714 41.3183 112.969 41.412 113.299 41.412C113.651 41.412 113.944 41.3108 114.176 41.1083L114.457 41.682C114.3 41.8244 114.109 41.9294 113.884 41.9969C113.666 42.0644 113.441 42.0981 113.209 42.0981ZM110.42 36.8005V36.1369H114.075V36.8005H110.42ZM118.926 36.0806C119.405 36.0806 119.825 36.1744 120.185 36.3618C120.553 36.5418 120.838 36.8192 121.04 37.1942C121.25 37.5691 121.355 38.0415 121.355 38.6114V42.0419H120.556V38.6901C120.556 38.0677 120.399 37.5991 120.084 37.2841C119.777 36.9617 119.342 36.8005 118.779 36.8005C118.359 36.8005 117.992 36.8867 117.677 37.0592C117.37 37.2242 117.13 37.4679 116.957 37.7903C116.792 38.1052 116.71 38.4876 116.71 38.9375V42.0419H115.911V36.1369H116.676V37.7565L116.552 37.4529C116.74 37.0254 117.04 36.6918 117.452 36.4518C117.864 36.2044 118.356 36.0806 118.926 36.0806Z" fill="black"/>
<defs>
<filter id="filter0_d_1772_503" x="-0.000781059" y="-2.86102e-06" width="48.6422" height="48.7095" filterUnits="userSpaceOnUse" color-interpolation-filters="sRGB">
<feFlood flood-opacity="0" result="BackgroundImageFix"/>
<feColorMatrix in="SourceAlpha" type="matrix" values="0 0 0 0 0 0 0 0 0 0 0 0 0 0 0 0 0 0 127 0" result="hardAlpha"/>
<feOffset dy="-3"/>
<feGaussianBlur stdDeviation="2.1"/>
<feComposite in2="hardAlpha" operator="out"/>
<feColorMatrix type="matrix" values="0 0 0 0 0 0 0 0 0 0 0 0 0 0 0 0 0 0 0.25 0"/>
<feBlend mode="normal" in2="BackgroundImageFix" result="effect1_dropShadow_1772_503"/>
<feBlend mode="normal" in="SourceGraphic" in2="effect1_dropShadow_1772_503" result="shape"/>
</filter>
</defs>
</svg>
