<svg width="326" height="76" viewBox="0 0 326 76" fill="none" xmlns="http://www.w3.org/2000/svg">
<path d="M14.2917 46.8503C12.2849 46.853 10.3611 46.5928 8.52035 46.0697C6.67953 45.5227 5.19674 44.8199 4.07195 43.9614L6.03322 39.5867C7.11 40.3498 8.37763 40.9812 9.83608 41.4809C11.3184 41.9567 12.8121 42.1936 14.3172 42.1916C15.464 42.19 16.3835 42.0813 17.0759 41.8653C17.7921 41.6255 18.317 41.3022 18.6505 40.8956C18.9841 40.489 19.1503 40.0229 19.1491 39.4974C19.1476 38.8284 18.8837 38.3032 18.3572 37.9216C17.8307 37.5162 17.1372 37.1946 16.2766 36.9569C15.4159 36.6952 14.4597 36.4576 13.4081 36.244C12.3802 36.0065 11.3403 35.7212 10.2884 35.3881C9.26035 35.055 8.3157 34.6263 7.45446 34.1018C6.59323 33.5774 5.88691 32.8855 5.3355 32.0262C4.80799 31.1668 4.54275 30.0682 4.53977 28.7303C4.53658 27.2969 4.91593 25.9943 5.67784 24.8226C6.46357 23.627 7.63213 22.6818 9.18349 21.9868C10.7587 21.268 12.7289 20.907 15.0941 20.9038C16.6709 20.9017 18.2242 21.0907 19.7541 21.4709C21.2839 21.8272 22.6349 22.3749 23.8072 23.1139L22.0252 27.5242C20.8531 26.8568 19.6813 26.3686 18.51 26.0596C17.3386 25.7267 16.1915 25.561 15.0686 25.5625C13.9457 25.5641 13.0262 25.6967 12.3101 25.9605C11.594 26.2242 11.0811 26.5713 10.7714 27.0018C10.4618 27.4083 10.3075 27.8864 10.3088 28.4359C10.3102 29.0809 10.5742 29.6062 11.1007 30.0116C11.6271 30.3931 12.3206 30.7028 13.1812 30.9405C14.0418 31.1783 14.9861 31.4159 16.0139 31.6534C17.0656 31.8909 18.1055 32.1643 19.1335 32.4735C20.1854 32.7826 21.1419 33.1994 22.0032 33.7239C22.8644 34.2483 23.5588 34.9402 24.0863 35.7996C24.6377 36.6589 24.9149 37.7455 24.9178 39.0595C24.9209 40.4691 24.5296 41.7597 23.7438 42.9314C22.958 44.1032 21.7775 45.0484 20.2023 45.7673C18.651 46.4861 16.6808 46.8471 14.2917 46.8503ZM30.3345 46.3987L30.2787 21.3133L42.5347 21.2968C45.6882 21.2926 48.0548 21.8867 49.6342 23.0791C51.2376 24.2714 52.0414 25.8472 52.0458 27.8062C52.0487 29.1202 51.7287 30.2674 51.0859 31.2478C50.4429 32.2043 49.5606 32.9461 48.4389 33.4732C47.3172 34.0003 46.0277 34.2648 44.5704 34.2668L45.248 32.7966C46.8248 32.7945 48.223 33.0554 49.4426 33.5794C50.6621 34.0794 51.6075 34.8307 52.2787 35.8332C52.9737 36.8357 53.3229 38.0656 53.3261 39.5229C53.3309 41.6731 52.4865 43.3586 50.793 44.5793C49.0994 45.7761 46.6041 46.3767 43.3072 46.3812L30.3345 46.3987ZM36.0944 42.0189L42.8674 42.0097C44.3726 42.0077 45.5068 41.7673 46.2703 41.2884C47.0576 40.7857 47.45 39.9967 47.4476 38.9216C47.4453 37.8705 47.0494 37.0945 46.2598 36.5939C45.4942 36.0693 44.3588 35.8081 42.8536 35.8101L35.6506 35.8198L35.6412 31.5911L41.8408 31.5828C43.2504 31.5809 44.3249 31.3405 45.0645 30.8617C45.8279 30.359 46.2085 29.6059 46.2062 28.6025C46.204 27.623 45.8202 26.8948 45.0546 26.418C44.3129 25.9173 43.2372 25.6679 41.8277 25.6698L36.058 25.6776L36.0944 42.0189ZM58.0417 38.5132L58.0317 34.0336L68.1734 34.02L68.1833 38.4995L58.0417 38.5132ZM75.9507 46.3372L75.8996 23.402L78.4137 25.9072L70.8881 25.9173L70.8778 21.2586L81.7003 21.244L81.7561 46.3293L75.9507 46.3372ZM98.765 46.7364C96.4715 46.7395 94.4755 46.2644 92.7772 45.3111C91.1027 44.3577 89.8095 42.9618 88.8975 41.1234C87.9856 39.2851 87.5266 37.0161 87.5206 34.3164C87.5142 31.4256 88.0463 28.9761 89.1169 26.9678C90.2114 24.9595 91.7131 23.4285 93.622 22.3747C95.5548 21.3209 97.7755 20.7923 100.284 20.7889C101.622 20.7871 102.9 20.9287 104.119 21.2138C105.339 21.4988 106.391 21.9274 107.276 22.4996L105.135 26.767C104.441 26.2902 103.7 25.9686 102.911 25.8025C102.122 25.6124 101.298 25.5179 100.438 25.5191C98.2639 25.522 96.5452 26.1813 95.2819 27.497C94.0186 28.8127 93.3898 30.7607 93.3956 33.3409C93.3965 33.7709 93.3976 34.2488 93.3988 34.7743C93.4238 35.2999 93.4967 35.8254 93.6173 36.3508L92.0013 34.8479C92.4532 33.9156 93.0368 33.1383 93.7521 32.5162C94.4674 31.8702 95.3145 31.3912 96.2933 31.0793C97.296 30.7435 98.3946 30.5748 99.5891 30.5732C101.214 30.571 102.672 30.8915 103.963 31.5348C105.255 32.1781 106.284 33.0846 107.051 34.2542C107.842 35.4238 108.24 36.797 108.243 38.3738C108.247 40.07 107.82 41.5518 106.963 42.8192C106.129 44.0627 104.997 45.0318 103.565 45.7265C102.157 46.3974 100.557 46.734 98.765 46.7364ZM98.4328 42.4007C99.2451 42.3996 99.9615 42.2553 100.582 41.9678C101.226 41.6563 101.727 41.2136 102.084 40.6398C102.441 40.0659 102.619 39.4087 102.617 38.6681C102.615 37.5213 102.219 36.614 101.429 35.9461C100.663 35.2543 99.6346 34.9093 98.3445 34.911C97.4844 34.9122 96.7322 35.0804 96.0879 35.4158C95.4436 35.7272 94.9309 36.1699 94.5499 36.7438C94.1928 37.2938 94.015 37.9391 94.0167 38.6797C94.0183 39.3964 94.1989 40.0412 94.5585 40.6141C94.9181 41.1631 95.4208 41.6044 96.0666 41.938C96.7123 42.2477 97.5011 42.4019 98.4328 42.4007ZM112.422 38.4398L112.412 33.9603L122.553 33.9466L122.563 38.4262L112.422 38.4398ZM135.76 46.6865C134.016 46.6889 132.284 46.4643 130.563 46.0127C128.865 45.5371 127.406 44.8702 126.186 44.0117L128.47 39.565C129.427 40.2565 130.527 40.8045 131.77 41.209C133.037 41.6134 134.316 41.8148 135.606 41.813C137.063 41.8111 138.21 41.5228 139.044 40.9483C139.879 40.3738 140.296 39.5729 140.293 38.5456C140.292 37.9005 140.123 37.3274 139.788 36.8261C139.452 36.3249 138.854 35.9434 137.994 35.6818C137.157 35.4201 135.974 35.2903 134.445 35.2924L128.03 35.301L129.289 21.1798L144.591 21.1592L144.601 25.8179L131.378 25.8357L134.382 23.1798L133.509 33.251L130.492 30.6032L135.796 30.596C138.281 30.5927 140.276 30.9364 141.783 31.6272C143.314 32.2941 144.427 33.2124 145.122 34.3821C145.817 35.5518 146.167 36.8773 146.17 38.3585C146.173 39.8397 145.806 41.2139 145.068 42.4811C144.331 43.7245 143.186 44.7414 141.635 45.5319C140.108 46.2984 138.149 46.6833 135.76 46.6865ZM160.728 46.6529C158.674 46.6556 156.833 46.1564 155.206 45.1552C153.579 44.1301 152.298 42.6506 151.362 40.7167C150.426 38.7828 149.955 36.4421 149.949 33.6947C149.943 30.9472 150.403 28.6053 151.331 26.6689C152.258 24.7325 153.533 23.2615 155.155 22.2559C156.778 21.2264 158.616 20.7103 160.671 20.7075C162.749 20.7047 164.59 21.2159 166.193 22.241C167.82 23.2422 169.101 24.7098 170.037 26.6437C170.973 28.5776 171.444 30.9182 171.45 33.6657C171.456 36.4131 170.996 38.755 170.068 40.6915C169.141 42.6279 167.866 44.1108 166.244 45.1403C164.645 46.1459 162.807 46.6501 160.728 46.6529ZM160.717 41.7433C161.697 41.742 162.544 41.4661 163.26 40.9157C163.999 40.3652 164.571 39.4924 164.974 38.2973C165.402 37.1022 165.613 35.5609 165.609 33.6736C165.605 31.7862 165.386 30.2455 164.954 29.0516C164.545 27.8576 163.97 26.9863 163.228 26.4378C162.51 25.8893 161.661 25.6157 160.682 25.617C159.726 25.6183 158.878 25.8942 158.139 26.4447C157.424 26.9952 156.852 27.8679 156.425 29.0631C156.021 30.2581 155.822 31.7994 155.826 33.6868C155.83 35.5741 156.036 37.1148 156.445 38.3088C156.878 39.5028 157.453 40.374 158.171 40.9225C158.913 41.471 159.762 41.7446 160.717 41.7433ZM186.484 46.6181C184.43 46.6209 182.589 46.1217 180.962 45.1205C179.335 44.0954 178.054 42.6158 177.118 40.6819C176.182 38.7481 175.711 36.4074 175.705 33.6599C175.698 30.9125 176.159 28.5706 177.086 26.6342C178.014 24.6978 179.289 23.2268 180.911 22.2212C182.533 21.1917 184.372 20.6755 186.427 20.6728C188.505 20.67 190.346 21.1811 191.949 22.2063C193.576 23.2075 194.857 24.675 195.793 26.6089C196.729 28.5428 197.2 30.8835 197.206 33.6309C197.212 36.3784 196.752 38.7203 195.824 40.6567C194.897 42.5931 193.622 44.0761 192 45.1056C190.401 46.1112 188.563 46.6153 186.484 46.6181ZM186.473 41.7086C187.453 41.7073 188.3 41.4314 189.016 40.8809C189.755 40.3304 190.327 39.4577 190.73 38.2626C191.158 37.0674 191.369 35.5262 191.365 33.6388C191.361 31.7515 191.142 30.2108 190.71 29.0168C190.301 27.8228 189.725 26.9516 188.984 26.4031C188.266 25.8546 187.417 25.581 186.437 25.5823C185.482 25.5836 184.634 25.8595 183.895 26.41C183.179 26.9604 182.608 27.8332 182.181 29.0283C181.777 30.2234 181.577 31.7646 181.582 33.652C181.586 35.5394 181.792 37.0801 182.201 38.2741C182.634 39.468 183.209 40.3393 183.927 40.8878C184.669 41.4363 185.518 41.7099 186.473 41.7086ZM223.336 53.3773C221.52 53.3798 219.764 53.1552 218.067 52.7036C216.393 52.2758 214.994 51.6207 213.869 50.7382L216.082 46.7216C216.896 47.3894 217.924 47.9136 219.168 48.2942C220.435 48.6986 221.678 48.9 222.896 48.8984C224.879 48.8957 226.311 48.4518 227.193 47.5667C228.099 46.6815 228.55 45.3669 228.546 43.6228L228.54 40.7201L228.888 35.8818L228.805 31.0081L228.796 26.8511L234.099 26.844L234.135 42.8986C234.143 46.4822 233.217 49.1234 231.358 50.8221C229.498 52.5209 226.824 53.3726 223.336 53.3773ZM222.458 45.2079C220.666 45.2103 219.04 44.8302 217.581 44.0677C216.146 43.2812 214.985 42.1957 214.098 40.8113C213.235 39.4029 212.801 37.7669 212.797 35.9034C212.793 34.0161 213.219 32.379 214.076 30.9922C214.957 29.5814 216.113 28.4928 217.545 27.7264C219.001 26.9599 220.624 26.5755 222.416 26.573C224.041 26.5709 225.475 26.9034 226.719 27.5707C227.963 28.214 228.932 29.2281 229.628 30.6128C230.324 31.9737 230.675 33.7292 230.679 35.8793C230.684 38.0056 230.342 39.7621 229.652 41.1487C228.962 42.5114 227.997 43.528 226.756 44.1986C225.515 44.8693 224.082 45.2057 222.458 45.2079ZM223.558 40.6193C224.538 40.618 225.41 40.4257 226.173 40.0424C226.937 39.6352 227.533 39.073 227.961 38.3557C228.39 37.6384 228.603 36.8139 228.601 35.8821C228.599 34.9265 228.382 34.1026 227.95 33.4103C227.519 32.6942 226.92 32.1455 226.155 31.7643C225.389 31.3592 224.517 31.1573 223.537 31.1586C222.558 31.1599 221.686 31.3641 220.923 31.7713C220.159 32.1546 219.551 32.7049 219.099 33.4222C218.67 34.1157 218.457 34.9402 218.459 35.8958C218.461 36.8276 218.678 37.6515 219.11 38.3676C219.565 39.0838 220.176 39.6444 220.941 40.0495C221.706 40.4307 222.579 40.6206 223.558 40.6193Z" fill="#490606"/>
<path d="M48.42 67.9698C47.9671 67.2498 47.6168 66.4188 47.3692 65.4768C47.1216 64.527 46.9966 63.5056 46.9942 62.4129C46.9918 61.3201 47.1122 60.2985 47.3556 59.3479C47.5989 58.3895 47.9455 57.5576 48.3953 56.8522L49.4762 56.8507C49.0029 57.6907 48.6565 58.5702 48.4368 59.489C48.2171 60.3999 48.1084 61.3741 48.1107 62.4114C48.113 63.4487 48.2261 64.4265 48.4498 65.3447C48.6736 66.2551 49.0239 67.1296 49.5009 67.9683L48.42 67.9698ZM51.122 65.6618L51.1035 57.3474L52.2913 57.3458L52.3098 65.6602L51.122 65.6618ZM54.799 65.6569L54.7805 57.3425L55.7545 57.3411L59.4981 63.6194L58.9754 63.6201L62.6436 57.3319L63.6175 57.3305L63.6479 65.6449L62.5077 65.6465L62.4813 59.1256L62.7545 59.1252L59.4885 64.6409L58.9421 64.6417L55.6278 59.1349L55.9248 59.1345L55.9393 65.6553L54.799 65.6569ZM66.1432 65.6416L66.1247 57.3272L67.3124 57.3256L67.3286 64.6066L71.8303 64.6005L71.8326 65.6339L66.1432 65.6416ZM76.3854 65.6278L76.3669 57.3133L77.3409 57.312L81.0845 63.5903L80.5619 63.591L84.23 57.3027L85.2039 57.3014L85.2343 65.6158L84.0941 65.6174L84.0677 59.0965L84.3409 59.0961L81.0749 64.6118L80.5285 64.6126L77.2142 59.1057L77.5112 59.1053L77.5257 65.6262L76.3854 65.6278ZM91.4832 65.7024C90.8497 65.7033 90.2595 65.5972 89.7127 65.3841C89.1737 65.171 88.7059 64.8747 88.3091 64.4952C87.9123 64.1077 87.6025 63.6568 87.3796 63.1424C87.1568 62.628 87.0447 62.0659 87.0433 61.4562C87.0419 60.8464 87.1515 60.2841 87.3721 59.7691C87.5927 59.2541 87.9005 58.8063 88.2956 58.4256C88.6907 58.0371 89.1572 57.7356 89.6952 57.5211C90.2331 57.3065 90.8228 57.1988 91.4642 57.198C92.0977 57.1971 92.68 57.3032 93.211 57.5163C93.7499 57.7215 94.2177 58.0178 94.6145 58.4053C95.0192 58.7848 95.329 59.2318 95.544 59.7462C95.7668 60.2606 95.879 60.8266 95.8803 61.4442C95.8817 62.0619 95.7721 62.6282 95.5515 63.1432C95.3389 63.6582 95.0311 64.11 94.6281 64.4985C94.233 64.8791 93.7665 65.1767 93.2285 65.3912C92.6984 65.5978 92.1166 65.7016 91.4832 65.7024ZM91.4808 64.6453C91.9401 64.6447 92.3635 64.5649 92.7512 64.406C93.1468 64.2471 93.4868 64.025 93.7712 63.7395C94.0635 63.4461 94.2885 63.1053 94.446 62.7171C94.6114 62.3289 94.6936 61.9051 94.6926 61.4459C94.6915 60.9866 94.6075 60.5631 94.4403 60.1753C94.2811 59.7875 94.0546 59.4512 93.761 59.1666C93.4753 58.874 93.1343 58.6488 92.738 58.4909C92.3497 58.3331 91.9259 58.2545 91.4666 58.2551C90.9994 58.2557 90.568 58.3355 90.1724 58.4944C89.7848 58.6533 89.4448 58.8794 89.1525 59.1728C88.8601 59.4583 88.6312 59.7951 88.4658 60.1833C88.3083 60.5715 88.2301 60.9953 88.2311 61.4546C88.2321 61.9138 88.3122 62.3374 88.4715 62.7252C88.6386 63.1129 88.869 63.4531 89.1626 63.7457C89.4563 64.0304 89.7972 64.2516 90.1856 64.4095C90.5819 64.5673 91.0136 64.6459 91.4808 64.6453ZM101.459 65.689C100.825 65.6898 100.235 65.5837 99.6881 65.3707C99.1492 65.1576 98.6813 64.8613 98.2846 64.4817C97.8878 64.0942 97.5779 63.6433 97.3551 63.1289C97.1322 62.6145 97.0201 62.0524 97.0187 61.4427C97.0174 60.833 97.127 60.2706 97.3476 59.7556C97.5681 59.2406 97.876 58.7928 98.2711 58.4122C98.6661 58.0237 99.1326 57.7221 99.6706 57.5076C100.209 57.2931 100.798 57.1854 101.44 57.1845C102.073 57.1837 102.655 57.2898 103.186 57.5029C103.725 57.708 104.193 58.0043 104.59 58.3918C104.995 58.7713 105.304 59.2183 105.519 59.7327C105.742 60.2471 105.854 60.8132 105.856 61.4308C105.857 62.0484 105.748 62.6148 105.527 63.1298C105.314 63.6448 105.007 64.0965 104.604 64.4851C104.208 64.8657 103.742 65.1633 103.204 65.3778C102.674 65.5844 102.092 65.6881 101.459 65.689ZM104.182 67.3244C103.905 67.3248 103.64 67.2895 103.386 67.2186C103.133 67.1556 102.879 67.049 102.625 66.8989C102.372 66.7567 102.11 66.567 101.84 66.3299C101.57 66.1006 101.277 65.8159 100.959 65.4758L102.229 65.1415C102.468 65.4342 102.694 65.6715 102.908 65.8533C103.13 66.043 103.348 66.1774 103.562 66.2563C103.776 66.3431 103.986 66.3863 104.192 66.3861C104.786 66.3853 105.292 66.147 105.711 65.6714L106.271 66.3476C105.734 66.9977 105.037 67.3233 104.182 67.3244ZM101.456 64.6318C101.916 64.6312 102.339 64.5515 102.727 64.3926C103.122 64.2337 103.462 64.0075 103.747 63.7142C104.039 63.4208 104.264 63.08 104.421 62.6918C104.587 62.3035 104.669 61.8838 104.668 61.4324C104.667 60.9731 104.583 60.5496 104.416 60.1618C104.257 59.774 104.03 59.4378 103.736 59.1531C103.451 58.8605 103.11 58.6353 102.713 58.4775C102.325 58.3196 101.901 58.241 101.442 58.2416C100.975 58.2423 100.543 58.322 100.148 58.4809C99.7602 58.6398 99.4202 58.866 99.1279 59.1593C98.8356 59.4448 98.6067 59.7816 98.4413 60.1699C98.2837 60.5581 98.2055 60.9818 98.2065 61.4411C98.2075 61.8925 98.2876 62.312 98.4469 62.6998C98.614 63.0876 98.8444 63.4278 99.1381 63.7204C99.4317 64.013 99.7727 64.2382 100.161 64.396C100.557 64.5539 100.989 64.6325 101.456 64.6318ZM110.294 62.8145L110.292 61.8287L113.487 61.8244L113.489 62.8102L110.294 62.8145ZM120.615 65.6631C120.029 65.6639 119.458 65.5736 118.904 65.3923C118.357 65.2109 117.909 64.966 117.56 64.6576L118.104 63.7186C118.382 63.9795 118.743 64.1928 119.186 64.3585C119.63 64.5242 120.102 64.6067 120.6 64.606C121.234 64.6052 121.721 64.4699 122.06 64.2002C122.4 63.9305 122.57 63.57 122.569 63.1187C122.568 62.8098 122.492 62.5407 122.341 62.3113C122.19 62.0818 121.929 61.908 121.556 61.7897C121.192 61.6635 120.689 61.6008 120.047 61.6017L118.159 61.6043L118.589 57.2564L123.28 57.2501L123.283 58.2834L119.03 58.2892L119.647 57.7063L119.31 61.1395L118.691 60.5702L120.294 60.568C121.126 60.5669 121.795 60.6729 122.303 60.886C122.81 61.0991 123.179 61.3956 123.409 61.7753C123.64 62.1472 123.755 62.5786 123.756 63.0695C123.758 63.5447 123.644 63.9803 123.415 64.3766C123.186 64.7649 122.838 65.0781 122.372 65.3163C121.913 65.5466 121.327 65.6622 120.615 65.6631ZM128.148 65.653C127.498 65.6539 126.916 65.4883 126.401 65.1565C125.893 64.8246 125.488 64.3421 125.186 63.709C124.891 63.0759 124.743 62.308 124.741 61.4053C124.739 60.5026 124.884 59.7343 125.176 59.1005C125.475 58.4666 125.878 57.983 126.384 57.6497C126.898 57.3165 127.479 57.1494 128.129 57.1485C128.77 57.1477 129.349 57.3132 129.864 57.6451C130.379 57.9769 130.784 58.4594 131.079 59.0925C131.373 59.7256 131.521 60.4935 131.523 61.3962C131.525 62.2989 131.381 63.0672 131.089 63.7011C130.797 64.3349 130.395 64.8185 129.881 65.1518C129.367 65.485 128.789 65.6521 128.148 65.653ZM128.145 64.5959C128.581 64.5953 128.961 64.476 129.285 64.238C129.617 64 129.873 63.6433 130.055 63.168C130.243 62.6926 130.337 62.1025 130.336 61.3978C130.334 60.693 130.238 60.1032 130.047 59.6284C129.863 59.1535 129.605 58.7975 129.272 58.5604C128.947 58.3233 128.567 58.2051 128.131 58.2056C127.696 58.2062 127.312 58.3255 126.98 58.5635C126.648 58.8015 126.387 59.1582 126.198 59.6336C126.017 60.1089 125.927 60.699 125.929 61.4037C125.931 62.1085 126.023 62.6983 126.206 63.1731C126.397 63.648 126.659 64.004 126.992 64.2411C127.326 64.4782 127.71 64.5964 128.145 64.5959ZM136.07 65.6423C135.421 65.6432 134.838 65.4777 134.323 65.1458C133.815 64.8139 133.41 64.3314 133.108 63.6983C132.814 63.0653 132.666 62.2974 132.664 61.3946C132.662 60.4919 132.806 59.7237 133.098 59.0898C133.397 58.4559 133.8 57.9723 134.306 57.6391C134.82 57.3058 135.402 57.1387 136.051 57.1378C136.693 57.137 137.271 57.3025 137.786 57.6344C138.302 57.9663 138.707 58.4487 139.001 59.0818C139.296 59.7149 139.444 60.4828 139.446 61.3855C139.448 62.2882 139.303 63.0565 139.011 63.6904C138.72 64.3242 138.317 64.8078 137.803 65.1411C137.289 65.4744 136.711 65.6414 136.07 65.6423ZM136.068 64.5852C136.503 64.5846 136.883 64.4653 137.207 64.2273C137.539 63.9893 137.796 63.6326 137.977 63.1573C138.166 62.6819 138.26 62.0918 138.258 61.3871C138.256 60.6824 138.16 60.0926 137.969 59.6177C137.786 59.1428 137.528 58.7869 137.195 58.5498C136.869 58.3126 136.489 58.1944 136.054 58.195C135.618 58.1955 135.234 58.3148 134.902 58.5528C134.57 58.7908 134.31 59.1475 134.121 59.6229C133.94 60.0983 133.85 60.6883 133.851 61.393C133.853 62.0978 133.945 62.6876 134.128 63.1625C134.32 63.6373 134.582 63.9933 134.915 64.2304C135.248 64.4675 135.632 64.5858 136.068 64.5852ZM143.992 65.6316C143.343 65.6325 142.761 65.467 142.245 65.1351C141.738 64.8032 141.333 64.3207 141.031 63.6877C140.736 63.0546 140.588 62.2867 140.586 61.384C140.584 60.4813 140.729 59.713 141.02 59.0791C141.32 58.4452 141.723 57.9616 142.229 57.6284C142.743 57.2951 143.324 57.128 143.974 57.1272C144.615 57.1263 145.193 57.2918 145.709 57.6237C146.224 57.9556 146.629 58.4381 146.924 59.0711C147.218 59.7042 147.366 60.4721 147.368 61.3748C147.37 62.2775 147.225 63.0458 146.934 63.6797C146.642 64.3136 146.239 64.7971 145.725 65.1304C145.212 65.4637 144.634 65.6307 143.992 65.6316ZM143.99 64.5745C144.426 64.5739 144.805 64.4546 145.13 64.2166C145.462 63.9786 145.718 63.6219 145.899 63.1466C146.088 62.6712 146.182 62.0812 146.18 61.3764C146.179 60.6717 146.082 60.0819 145.891 59.607C145.708 59.1322 145.45 58.7762 145.117 58.5391C144.792 58.302 144.411 58.1837 143.976 58.1843C143.54 58.1849 143.157 58.3042 142.825 58.5422C142.492 58.7802 142.232 59.1368 142.043 59.6122C141.862 60.0876 141.772 60.6776 141.774 61.3824C141.775 62.0871 141.868 62.6769 142.051 63.1518C142.242 63.6266 142.504 63.9826 142.837 64.2197C143.17 64.4568 143.555 64.5751 143.99 64.5745ZM152.384 65.5253L152.366 57.2109L155.609 57.2065C156.337 57.2055 156.959 57.3195 157.474 57.5484C157.989 57.7774 158.386 58.1094 158.664 58.5446C158.942 58.9797 159.082 59.4982 159.083 60.1C159.085 60.7018 158.947 61.2206 158.671 61.6565C158.395 62.0845 158 62.4176 157.485 62.6559C156.971 62.8862 156.35 63.0018 155.621 63.0028L153.032 63.0063L153.565 62.4473L153.572 65.5237L152.384 65.5253ZM153.566 62.5661L153.03 61.973L155.583 61.9695C156.344 61.9685 156.917 61.8054 157.305 61.4802C157.7 61.155 157.897 60.6955 157.896 60.1016C157.894 59.5077 157.695 59.0487 157.299 58.7246C156.91 58.4004 156.335 58.2389 155.575 58.2399L153.021 58.2433L153.555 57.6487L153.566 62.5661ZM163.395 65.5817C162.753 65.5826 162.179 65.4448 161.672 65.1683C161.172 64.8918 160.779 64.5123 160.493 64.0296C160.207 63.547 160.063 62.9929 160.062 62.3673C160.06 61.7418 160.202 61.1873 160.486 60.7039C160.77 60.2204 161.161 59.8438 161.659 59.5739C162.165 59.2961 162.739 59.1567 163.38 59.1558C163.951 59.1551 164.458 59.2692 164.902 59.4982C165.353 59.7194 165.703 60.0515 165.949 60.4946L165.083 61.054C164.877 60.7454 164.623 60.5201 164.322 60.378C164.028 60.2279 163.711 60.1531 163.371 60.1536C162.959 60.1541 162.591 60.2457 162.267 60.4283C161.943 60.6108 161.686 60.8685 161.496 61.2014C161.307 61.5263 161.213 61.9144 161.214 62.3658C161.215 62.8171 161.311 63.2089 161.502 63.5413C161.692 63.8736 161.95 64.1306 162.275 64.3123C162.601 64.494 162.969 64.5845 163.381 64.584C163.721 64.5835 164.038 64.5118 164.33 64.3689C164.631 64.218 164.884 63.9881 165.089 63.679L165.957 64.2242C165.713 64.66 165.365 64.997 164.914 65.2352C164.471 65.4654 163.965 65.5809 163.395 65.5817ZM169.242 65.5738C168.719 65.5745 168.22 65.5039 167.745 65.362C167.277 65.2201 166.909 65.0464 166.639 64.8409L167.112 63.9375C167.382 64.1193 167.715 64.2733 168.111 64.3994C168.507 64.5256 168.911 64.5884 169.323 64.5878C169.854 64.5871 170.233 64.5114 170.463 64.3606C170.7 64.2099 170.818 63.9999 170.818 63.7306C170.817 63.5327 170.746 63.3784 170.603 63.2677C170.46 63.157 170.27 63.0741 170.032 63.019C169.802 62.9639 169.545 62.9167 169.26 62.8775C168.975 62.8304 168.689 62.7754 168.404 62.7124C168.119 62.6415 167.857 62.5468 167.62 62.4284C167.382 62.302 167.191 62.132 167.048 61.9184C166.905 61.6969 166.833 61.404 166.833 61.0398C166.832 60.6597 166.938 60.3269 167.151 60.0416C167.364 59.7562 167.665 59.5381 168.052 59.3871C168.448 59.2282 168.915 59.1484 169.453 59.1477C169.865 59.1471 170.281 59.198 170.701 59.3004C171.129 59.3948 171.477 59.5329 171.747 59.7147L171.262 60.6181C170.977 60.4284 170.679 60.2981 170.37 60.2273C170.061 60.1564 169.753 60.1212 169.444 60.1216C168.945 60.1223 168.573 60.206 168.328 60.3726C168.083 60.5313 167.96 60.7373 167.961 60.9907C167.961 61.2045 168.033 61.3707 168.176 61.4893C168.327 61.6 168.517 61.6868 168.747 61.7498C168.984 61.8129 169.246 61.8679 169.531 61.9151C169.816 61.9543 170.101 62.0093 170.386 62.0802C170.672 62.1432 170.929 62.2339 171.159 62.3523C171.397 62.4708 171.587 62.6368 171.73 62.8504C171.881 63.064 171.957 63.349 171.958 63.7053C171.959 64.0854 171.849 64.4142 171.628 64.6916C171.406 64.9691 171.094 65.1873 170.691 65.3462C170.287 65.4972 169.804 65.573 169.242 65.5738ZM173.772 67.8007L172.691 67.8022C173.172 66.9622 173.523 66.0867 173.743 65.1758C173.962 64.2569 174.071 63.2788 174.069 62.2415C174.066 61.2042 173.953 60.2304 173.73 59.3201C173.506 58.4018 173.151 57.5233 172.667 56.6846L173.747 56.6832C174.216 57.3873 174.57 58.2182 174.81 59.1761C175.058 60.1259 175.183 61.1473 175.185 62.24C175.188 63.3328 175.067 64.3544 174.824 65.305C174.588 66.2476 174.238 67.0795 173.772 67.8007Z" fill="black"/>
<path d="M179.864 62.25H218.647" stroke="url(#paint0_linear_2175_5)" stroke-width="0.863039"/>
<path d="M38.7822 62.2285H-0.000305653" stroke="url(#paint1_linear_2175_5)" stroke-width="0.863039"/>
<defs>
<linearGradient id="paint0_linear_2175_5" x1="212.829" y1="62.75" x2="180.511" y2="62.75" gradientUnits="userSpaceOnUse">
<stop stop-color="#666666" stop-opacity="0"/>
<stop offset="1"/>
</linearGradient>
<linearGradient id="paint1_linear_2175_5" x1="5.81707" y1="62.7285" x2="38.1359" y2="62.7285" gradientUnits="userSpaceOnUse">
<stop stop-color="#666666" stop-opacity="0"/>
<stop offset="1"/>
</linearGradient>
</defs>
</svg>
