<svg width="208" height="298" viewBox="0 0 208 298" fill="none" xmlns="http://www.w3.org/2000/svg">
<rect x="2.04094" y="13.851" width="203.534" height="149.554" rx="22.0671" fill="#FFF4EA" stroke="#A3B988" stroke-width="3.22934"/>
<path d="M0.42627 165.02L207.19 165.02V288.753H0.42627L0.42627 165.02Z" fill="#F6F3F3"/>
<path d="M41.5314 199.992C40.8465 199.992 40.2136 199.879 39.6327 199.654C39.0518 199.42 38.5489 199.095 38.1241 198.679C37.6993 198.262 37.3655 197.773 37.1227 197.209C36.8886 196.645 36.7716 196.03 36.7716 195.362C36.7716 194.695 36.8886 194.079 37.1227 193.516C37.3655 192.952 37.6993 192.462 38.1241 192.046C38.5576 191.63 39.0648 191.309 39.6457 191.084C40.2266 190.85 40.8595 190.733 41.5444 190.733C42.2033 190.733 42.8232 190.845 43.4041 191.071C43.985 191.287 44.4749 191.617 44.8737 192.059L44.2624 192.67C43.8896 192.289 43.4778 192.016 43.027 191.851C42.5761 191.678 42.0906 191.591 41.5704 191.591C41.0242 191.591 40.517 191.686 40.0488 191.877C39.5807 192.059 39.1732 192.323 38.8264 192.67C38.4796 193.008 38.2065 193.407 38.0071 193.867C37.8163 194.318 37.7209 194.816 37.7209 195.362C37.7209 195.909 37.8163 196.411 38.0071 196.871C38.2065 197.322 38.4796 197.721 38.8264 198.067C39.1732 198.405 39.5807 198.67 40.0488 198.861C40.517 199.043 41.0242 199.134 41.5704 199.134C42.0906 199.134 42.5761 199.047 43.027 198.874C43.4778 198.7 43.8896 198.423 44.2624 198.041L44.8737 198.653C44.4749 199.095 43.985 199.429 43.4041 199.654C42.8232 199.879 42.199 199.992 41.5314 199.992ZM49.2084 199.979C48.5495 199.979 47.9556 199.832 47.4267 199.537C46.9065 199.233 46.4947 198.822 46.1912 198.301C45.8878 197.773 45.7361 197.17 45.7361 196.494C45.7361 195.809 45.8878 195.206 46.1912 194.686C46.4947 194.166 46.9065 193.758 47.4267 193.464C47.9469 193.169 48.5408 193.021 49.2084 193.021C49.8846 193.021 50.4829 193.169 51.0031 193.464C51.5319 193.758 51.9438 194.166 52.2385 194.686C52.542 195.206 52.6937 195.809 52.6937 196.494C52.6937 197.17 52.542 197.773 52.2385 198.301C51.9438 198.822 51.5319 199.233 51.0031 199.537C50.4742 199.832 49.876 199.979 49.2084 199.979ZM49.2084 199.16C49.7026 199.16 50.1404 199.051 50.5219 198.835C50.9034 198.609 51.2025 198.297 51.4192 197.898C51.6447 197.491 51.7574 197.023 51.7574 196.494C51.7574 195.956 51.6447 195.488 51.4192 195.089C51.2025 194.69 50.9034 194.383 50.5219 194.166C50.1404 193.94 49.7069 193.828 49.2214 193.828C48.7359 193.828 48.3024 193.94 47.9209 194.166C47.5394 194.383 47.236 194.69 47.0106 195.089C46.7851 195.488 46.6724 195.956 46.6724 196.494C46.6724 197.023 46.7851 197.491 47.0106 197.898C47.236 198.297 47.5394 198.609 47.9209 198.835C48.3024 199.051 48.7315 199.16 49.2084 199.16ZM63.1101 193.021C63.665 193.021 64.1462 193.13 64.5536 193.347C64.9698 193.555 65.2906 193.875 65.516 194.309C65.7501 194.742 65.8671 195.289 65.8671 195.948V199.914H64.9438V196.039C64.9438 195.319 64.7704 194.777 64.4236 194.413C64.0855 194.04 63.6043 193.854 62.98 193.854C62.5119 193.854 62.1044 193.953 61.7576 194.153C61.4194 194.344 61.155 194.625 60.9643 194.998C60.7822 195.362 60.6912 195.804 60.6912 196.325V199.914H59.7678V196.039C59.7678 195.319 59.5944 194.777 59.2476 194.413C58.9008 194.04 58.4153 193.854 57.7911 193.854C57.3315 193.854 56.9284 193.953 56.5816 194.153C56.2348 194.344 55.966 194.625 55.7753 194.998C55.5932 195.362 55.5022 195.804 55.5022 196.325V199.914H54.5788V193.086H55.4632V194.933L55.3201 194.608C55.5282 194.114 55.862 193.728 56.3215 193.451C56.7897 193.164 57.3402 193.021 57.9731 193.021C58.6407 193.021 59.2086 193.19 59.6768 193.529C60.145 193.858 60.4484 194.357 60.5871 195.024L60.223 194.881C60.4224 194.326 60.7735 193.88 61.2764 193.542C61.7879 193.195 62.3992 193.021 63.1101 193.021ZM71.8956 199.979C71.306 199.979 70.7728 199.845 70.2959 199.576C69.8191 199.298 69.4376 198.904 69.1515 198.392C68.8741 197.872 68.7353 197.239 68.7353 196.494C68.7353 195.748 68.8741 195.12 69.1515 194.608C69.4289 194.088 69.8061 193.693 70.2829 193.425C70.7598 193.156 71.2973 193.021 71.8956 193.021C72.5458 193.021 73.1267 193.169 73.6382 193.464C74.1584 193.75 74.5659 194.157 74.8607 194.686C75.1555 195.206 75.3029 195.809 75.3029 196.494C75.3029 197.187 75.1555 197.794 74.8607 198.314C74.5659 198.835 74.1584 199.242 73.6382 199.537C73.1267 199.832 72.5458 199.979 71.8956 199.979ZM68.3712 202.437V193.086H69.2555V195.141L69.1645 196.507L69.2946 197.885V202.437H68.3712ZM71.8305 199.16C72.316 199.16 72.7495 199.051 73.131 198.835C73.5125 198.609 73.816 198.297 74.0414 197.898C74.2668 197.491 74.3795 197.023 74.3795 196.494C74.3795 195.965 74.2668 195.501 74.0414 195.102C73.816 194.703 73.5125 194.391 73.131 194.166C72.7495 193.94 72.316 193.828 71.8305 193.828C71.345 193.828 70.9072 193.94 70.517 194.166C70.1355 194.391 69.8321 194.703 69.6067 195.102C69.3899 195.501 69.2816 195.965 69.2816 196.494C69.2816 197.023 69.3899 197.491 69.6067 197.898C69.8321 198.297 70.1355 198.609 70.517 198.835C70.9072 199.051 71.345 199.16 71.8305 199.16ZM81.4257 199.914V198.405L81.3866 198.158V195.635C81.3866 195.055 81.2219 194.608 80.8924 194.296C80.5717 193.984 80.0905 193.828 79.4489 193.828C79.0067 193.828 78.5862 193.901 78.1874 194.049C77.7886 194.196 77.4505 194.391 77.173 194.634L76.7569 193.945C77.1037 193.65 77.5198 193.425 78.0053 193.269C78.4909 193.104 79.0024 193.021 79.5399 193.021C80.4243 193.021 81.1049 193.243 81.5817 193.685C82.0672 194.118 82.31 194.781 82.31 195.674V199.914H81.4257ZM79.0718 199.979C78.5602 199.979 78.1137 199.897 77.7322 199.732C77.3594 199.559 77.0733 199.325 76.8739 199.03C76.6745 198.726 76.5748 198.379 76.5748 197.989C76.5748 197.634 76.6572 197.313 76.8219 197.027C76.9953 196.732 77.2727 196.498 77.6542 196.325C78.0444 196.143 78.5646 196.052 79.2148 196.052H81.5687V196.741H79.2408C78.5819 196.741 78.1224 196.858 77.8623 197.092C77.6109 197.326 77.4851 197.617 77.4851 197.963C77.4851 198.353 77.6369 198.666 77.9403 198.9C78.2438 199.134 78.6686 199.251 79.2148 199.251C79.735 199.251 80.1815 199.134 80.5543 198.9C80.9358 198.657 81.2132 198.31 81.3866 197.859L81.5947 198.497C81.4213 198.947 81.1179 199.307 80.6844 199.576C80.2595 199.845 79.722 199.979 79.0718 199.979ZM87.653 199.979C86.9767 199.979 86.3698 199.832 85.8323 199.537C85.3034 199.233 84.8873 198.822 84.5838 198.301C84.2804 197.773 84.1287 197.17 84.1287 196.494C84.1287 195.809 84.2804 195.206 84.5838 194.686C84.8873 194.166 85.3034 193.758 85.8323 193.464C86.3698 193.169 86.9767 193.021 87.653 193.021C88.2339 193.021 88.7584 193.134 89.2266 193.36C89.6948 193.585 90.0633 193.923 90.332 194.374L89.6428 194.842C89.4087 194.495 89.1182 194.24 88.7714 194.075C88.4246 193.91 88.0475 193.828 87.64 193.828C87.1545 193.828 86.7166 193.94 86.3265 194.166C85.9363 194.383 85.6286 194.69 85.4031 195.089C85.1777 195.488 85.065 195.956 85.065 196.494C85.065 197.031 85.1777 197.499 85.4031 197.898C85.6286 198.297 85.9363 198.609 86.3265 198.835C86.7166 199.051 87.1545 199.16 87.64 199.16C88.0475 199.16 88.4246 199.077 88.7714 198.913C89.1182 198.748 89.4087 198.497 89.6428 198.158L90.332 198.627C90.0633 199.069 89.6948 199.407 89.2266 199.641C88.7584 199.866 88.2339 199.979 87.653 199.979ZM94.3809 199.979C93.7394 199.979 93.2452 199.806 92.8984 199.459C92.5516 199.112 92.3782 198.622 92.3782 197.989V191.578H93.3015V197.937C93.3015 198.336 93.4012 198.644 93.6006 198.861C93.8087 199.077 94.1035 199.186 94.485 199.186C94.8925 199.186 95.2306 199.069 95.4994 198.835L95.8245 199.498C95.6424 199.663 95.4213 199.784 95.1612 199.862C94.9098 199.94 94.6497 199.979 94.3809 199.979ZM91.1557 193.854V193.086H95.3823V193.854H91.1557ZM101.104 199.914V190.811H102.066V199.914H101.104ZM105.028 199.914V190.811H105.822L109.983 197.911H109.567L113.69 190.811H114.483V199.914H113.56V192.254H113.781L109.983 198.757H109.528L105.705 192.254H105.952V199.914H105.028ZM117.449 199.914V190.811H118.412V199.082H123.51V199.914H117.449ZM128.511 199.914V190.811H131.918C132.69 190.811 133.353 190.936 133.908 191.188C134.463 191.43 134.888 191.786 135.183 192.254C135.486 192.714 135.638 193.273 135.638 193.932C135.638 194.573 135.486 195.128 135.183 195.596C134.888 196.056 134.463 196.411 133.908 196.663C133.353 196.906 132.69 197.027 131.918 197.027H129.044L129.473 196.585V199.914H128.511ZM134.727 199.914L132.387 196.611H133.427L135.781 199.914H134.727ZM129.473 196.663L129.044 196.208H131.892C132.803 196.208 133.492 196.008 133.96 195.609C134.437 195.211 134.675 194.651 134.675 193.932C134.675 193.204 134.437 192.64 133.96 192.241C133.492 191.842 132.803 191.643 131.892 191.643H129.044L129.473 191.188V196.663ZM140.497 199.979C139.838 199.979 139.244 199.832 138.715 199.537C138.195 199.233 137.783 198.822 137.48 198.301C137.177 197.773 137.025 197.17 137.025 196.494C137.025 195.809 137.177 195.206 137.48 194.686C137.783 194.166 138.195 193.758 138.715 193.464C139.236 193.169 139.83 193.021 140.497 193.021C141.173 193.021 141.772 193.169 142.292 193.464C142.821 193.758 143.233 194.166 143.527 194.686C143.831 195.206 143.982 195.809 143.982 196.494C143.982 197.17 143.831 197.773 143.527 198.301C143.233 198.822 142.821 199.233 142.292 199.537C141.763 199.832 141.165 199.979 140.497 199.979ZM140.497 199.16C140.991 199.16 141.429 199.051 141.811 198.835C142.192 198.609 142.491 198.297 142.708 197.898C142.933 197.491 143.046 197.023 143.046 196.494C143.046 195.956 142.933 195.488 142.708 195.089C142.491 194.69 142.192 194.383 141.811 194.166C141.429 193.94 140.996 193.828 140.51 193.828C140.025 193.828 139.591 193.94 139.21 194.166C138.828 194.383 138.525 194.69 138.299 195.089C138.074 195.488 137.961 195.956 137.961 196.494C137.961 197.023 138.074 197.491 138.299 197.898C138.525 198.297 138.828 198.609 139.21 198.835C139.591 199.051 140.02 199.16 140.497 199.16ZM148.69 199.979C148.109 199.979 147.602 199.871 147.168 199.654C146.735 199.437 146.396 199.112 146.154 198.679C145.92 198.245 145.803 197.703 145.803 197.053V193.086H146.726V196.949C146.726 197.677 146.904 198.228 147.259 198.601C147.623 198.965 148.13 199.147 148.781 199.147C149.258 199.147 149.669 199.051 150.016 198.861C150.372 198.661 150.64 198.375 150.822 198.002C151.013 197.63 151.109 197.183 151.109 196.663V193.086H152.032V199.914H151.148V198.041L151.291 198.379C151.074 198.882 150.736 199.277 150.276 199.563C149.825 199.84 149.297 199.979 148.69 199.979ZM158.091 193.021C158.646 193.021 159.131 193.13 159.547 193.347C159.972 193.555 160.301 193.875 160.536 194.309C160.778 194.742 160.9 195.289 160.9 195.948V199.914H159.976V196.039C159.976 195.319 159.794 194.777 159.43 194.413C159.075 194.04 158.572 193.854 157.922 193.854C157.436 193.854 157.011 193.953 156.647 194.153C156.292 194.344 156.014 194.625 155.815 194.998C155.624 195.362 155.529 195.804 155.529 196.325V199.914H154.605V193.086H155.49V194.959L155.347 194.608C155.563 194.114 155.91 193.728 156.387 193.451C156.864 193.164 157.432 193.021 158.091 193.021ZM166.112 199.979C165.462 199.979 164.876 199.832 164.356 199.537C163.845 199.242 163.441 198.835 163.147 198.314C162.852 197.786 162.705 197.179 162.705 196.494C162.705 195.8 162.852 195.193 163.147 194.673C163.441 194.153 163.845 193.75 164.356 193.464C164.876 193.169 165.462 193.021 166.112 193.021C166.71 193.021 167.243 193.156 167.711 193.425C168.188 193.693 168.565 194.088 168.843 194.608C169.129 195.12 169.272 195.748 169.272 196.494C169.272 197.231 169.133 197.859 168.856 198.379C168.578 198.9 168.201 199.298 167.724 199.576C167.256 199.845 166.719 199.979 166.112 199.979ZM166.177 199.16C166.662 199.16 167.096 199.051 167.477 198.835C167.868 198.609 168.171 198.297 168.388 197.898C168.613 197.491 168.726 197.023 168.726 196.494C168.726 195.956 168.613 195.488 168.388 195.089C168.171 194.69 167.868 194.383 167.477 194.166C167.096 193.94 166.662 193.828 166.177 193.828C165.7 193.828 165.271 193.94 164.889 194.166C164.508 194.383 164.204 194.69 163.979 195.089C163.754 195.488 163.641 195.956 163.641 196.494C163.641 197.023 163.754 197.491 163.979 197.898C164.204 198.297 164.508 198.609 164.889 198.835C165.271 199.051 165.7 199.16 166.177 199.16ZM168.752 199.914V197.859L168.843 196.481L168.713 195.102V190.264H169.636V199.914H168.752ZM17.1661 221.992C16.4812 221.992 15.8483 221.879 15.2674 221.654C14.6865 221.42 14.1837 221.095 13.7588 220.679C13.334 220.262 13.0002 219.773 12.7575 219.209C12.5234 218.645 12.4063 218.03 12.4063 217.362C12.4063 216.695 12.5234 216.079 12.7575 215.516C13.0002 214.952 13.334 214.462 13.7588 214.046C14.1923 213.63 14.6995 213.309 15.2804 213.084C15.8613 212.85 16.4942 212.733 17.1791 212.733C17.8381 212.733 18.458 212.845 19.0389 213.071C19.6197 213.287 20.1096 213.617 20.5084 214.059L19.8972 214.67C19.5244 214.289 19.1125 214.016 18.6617 213.851C18.2109 213.678 17.7254 213.591 17.2052 213.591C16.6589 213.591 16.1518 213.686 15.6836 213.877C15.2154 214.059 14.8079 214.323 14.4611 214.67C14.1143 215.008 13.8412 215.407 13.6418 215.867C13.4511 216.318 13.3557 216.816 13.3557 217.362C13.3557 217.909 13.4511 218.411 13.6418 218.871C13.8412 219.322 14.1143 219.721 14.4611 220.067C14.8079 220.405 15.2154 220.67 15.6836 220.861C16.1518 221.043 16.6589 221.134 17.2052 221.134C17.7254 221.134 18.2109 221.047 18.6617 220.874C19.1125 220.7 19.5244 220.423 19.8972 220.041L20.5084 220.653C20.1096 221.095 19.6197 221.429 19.0389 221.654C18.458 221.879 17.8337 221.992 17.1661 221.992ZM24.8431 221.979C24.1842 221.979 23.5903 221.832 23.0615 221.537C22.5413 221.233 22.1294 220.822 21.826 220.301C21.5225 219.773 21.3708 219.17 21.3708 218.494C21.3708 217.809 21.5225 217.206 21.826 216.686C22.1294 216.166 22.5413 215.758 23.0615 215.464C23.5817 215.169 24.1755 215.021 24.8431 215.021C25.5194 215.021 26.1176 215.169 26.6378 215.464C27.1667 215.758 27.5785 216.166 27.8733 216.686C28.1767 217.206 28.3285 217.809 28.3285 218.494C28.3285 219.17 28.1767 219.773 27.8733 220.301C27.5785 220.822 27.1667 221.233 26.6378 221.537C26.109 221.832 25.5107 221.979 24.8431 221.979ZM24.8431 221.16C25.3373 221.16 25.7752 221.051 26.1566 220.835C26.5381 220.609 26.8372 220.297 27.054 219.898C27.2794 219.491 27.3921 219.023 27.3921 218.494C27.3921 217.956 27.2794 217.488 27.054 217.089C26.8372 216.69 26.5381 216.383 26.1566 216.166C25.7752 215.94 25.3417 215.828 24.8561 215.828C24.3706 215.828 23.9371 215.94 23.5556 216.166C23.1742 216.383 22.8707 216.69 22.6453 217.089C22.4199 217.488 22.3072 217.956 22.3072 218.494C22.3072 219.023 22.4199 219.491 22.6453 219.898C22.8707 220.297 23.1742 220.609 23.5556 220.835C23.9371 221.051 24.3663 221.16 24.8431 221.16ZM33.6989 215.021C34.2538 215.021 34.7393 215.13 35.1555 215.347C35.5803 215.555 35.9097 215.875 36.1438 216.309C36.3866 216.742 36.508 217.289 36.508 217.948V221.914H35.5846V218.039C35.5846 217.319 35.4026 216.777 35.0384 216.413C34.6829 216.04 34.1801 215.854 33.5298 215.854C33.0443 215.854 32.6195 215.953 32.2554 216.153C31.8999 216.344 31.6224 216.625 31.423 216.998C31.2323 217.362 31.1369 217.804 31.1369 218.325V221.914H30.2136V215.086H31.0979V216.959L30.9549 216.608C31.1716 216.114 31.5184 215.728 31.9953 215.451C32.4721 215.164 33.04 215.021 33.6989 215.021ZM41.1609 221.979C40.5193 221.979 40.0251 221.806 39.6783 221.459C39.3315 221.112 39.1581 220.622 39.1581 219.989V213.578H40.0815V219.937C40.0815 220.336 40.1812 220.644 40.3806 220.861C40.5887 221.077 40.8835 221.186 41.2649 221.186C41.6724 221.186 42.0106 221.069 42.2793 220.835L42.6045 221.498C42.4224 221.663 42.2013 221.784 41.9412 221.862C41.6898 221.94 41.4297 221.979 41.1609 221.979ZM37.9357 215.854V215.086H42.1623V215.854H37.9357ZM48.564 221.914V220.405L48.525 220.158V217.635C48.525 217.055 48.3602 216.608 48.0308 216.296C47.71 215.984 47.2288 215.828 46.5872 215.828C46.1451 215.828 45.7246 215.901 45.3257 216.049C44.9269 216.196 44.5888 216.391 44.3114 216.634L43.8952 215.945C44.242 215.65 44.6582 215.425 45.1437 215.269C45.6292 215.104 46.1407 215.021 46.6783 215.021C47.5626 215.021 48.2432 215.243 48.72 215.685C49.2056 216.118 49.4483 216.781 49.4483 217.674V221.914H48.564ZM46.2101 221.979C45.6986 221.979 45.2521 221.897 44.8706 221.732C44.4978 221.559 44.2117 221.325 44.0122 221.03C43.8128 220.726 43.7131 220.379 43.7131 219.989C43.7131 219.634 43.7955 219.313 43.9602 219.027C44.1336 218.732 44.4111 218.498 44.7925 218.325C45.1827 218.143 45.7029 218.052 46.3531 218.052H48.707V218.741H46.3792C45.7202 218.741 45.2607 218.858 45.0006 219.092C44.7492 219.326 44.6235 219.617 44.6235 219.963C44.6235 220.353 44.7752 220.666 45.0787 220.9C45.3821 221.134 45.8069 221.251 46.3531 221.251C46.8733 221.251 47.3198 221.134 47.6927 220.9C48.0741 220.657 48.3516 220.31 48.525 219.859L48.733 220.497C48.5597 220.947 48.2562 221.307 47.8227 221.576C47.3979 221.845 46.8603 221.979 46.2101 221.979ZM51.9563 221.914V215.086H52.8796V221.914H51.9563ZM52.4244 213.578C52.2337 213.578 52.0733 213.513 51.9432 213.383C51.8132 213.253 51.7482 213.097 51.7482 212.915C51.7482 212.733 51.8132 212.581 51.9432 212.459C52.0733 212.329 52.2337 212.264 52.4244 212.264C52.6152 212.264 52.7756 212.325 52.9056 212.446C53.0357 212.568 53.1007 212.72 53.1007 212.902C53.1007 213.092 53.0357 213.253 52.9056 213.383C52.7842 213.513 52.6238 213.578 52.4244 213.578ZM58.9341 215.021C59.489 215.021 59.9745 215.13 60.3907 215.347C60.8155 215.555 61.145 215.875 61.3791 216.309C61.6218 216.742 61.7432 217.289 61.7432 217.948V221.914H60.8198V218.039C60.8198 217.319 60.6378 216.777 60.2736 216.413C59.9182 216.04 59.4153 215.854 58.7651 215.854C58.2795 215.854 57.8547 215.953 57.4906 216.153C57.1351 216.344 56.8577 216.625 56.6583 216.998C56.4675 217.362 56.3721 217.804 56.3721 218.325V221.914H55.4488V215.086H56.3331V216.959L56.1901 216.608C56.4068 216.114 56.7536 215.728 57.2305 215.451C57.7073 215.164 58.2752 215.021 58.9341 215.021ZM67.1374 221.979C66.4265 221.979 65.8022 221.832 65.2647 221.537C64.7272 221.233 64.3067 220.822 64.0032 220.301C63.6998 219.773 63.548 219.17 63.548 218.494C63.548 217.817 63.6911 217.219 63.9772 216.699C64.272 216.179 64.6708 215.771 65.1737 215.477C65.6852 215.173 66.2574 215.021 66.8903 215.021C67.5319 215.021 68.0998 215.169 68.594 215.464C69.0968 215.75 69.4913 216.157 69.7774 216.686C70.0635 217.206 70.2066 217.809 70.2066 218.494C70.2066 218.537 70.2022 218.585 70.1936 218.637C70.1936 218.68 70.1936 218.728 70.1936 218.78H64.2503V218.091H69.6994L69.3353 218.364C69.3353 217.87 69.2269 217.432 69.0101 217.05C68.802 216.66 68.5159 216.357 68.1518 216.14C67.7877 215.923 67.3672 215.815 66.8903 215.815C66.4221 215.815 66.0016 215.923 65.6288 216.14C65.256 216.357 64.9656 216.66 64.7575 217.05C64.5494 217.44 64.4454 217.887 64.4454 218.39V218.533C64.4454 219.053 64.5581 219.512 64.7835 219.911C65.0176 220.301 65.3384 220.609 65.7459 220.835C66.162 221.051 66.6346 221.16 67.1634 221.16C67.5796 221.16 67.9654 221.086 68.3209 220.939C68.685 220.791 68.9971 220.566 69.2572 220.262L69.7774 220.861C69.474 221.225 69.0925 221.502 68.633 221.693C68.1821 221.884 67.6836 221.979 67.1374 221.979ZM72.086 221.914V215.086H72.9703V216.946L72.8793 216.621C73.07 216.101 73.3908 215.706 73.8417 215.438C74.2925 215.16 74.8517 215.021 75.5193 215.021V215.919C75.4846 215.919 75.45 215.919 75.4153 215.919C75.3806 215.91 75.3459 215.906 75.3112 215.906C74.5916 215.906 74.0281 216.127 73.6206 216.569C73.2131 217.003 73.0094 217.622 73.0094 218.429V221.914H72.086ZM84.2338 221.979C83.6442 221.979 83.111 221.845 82.6341 221.576C82.1573 221.298 81.7758 220.904 81.4897 220.392C81.2123 219.872 81.0736 219.239 81.0736 218.494C81.0736 217.748 81.2123 217.12 81.4897 216.608C81.7671 216.088 82.1443 215.693 82.6211 215.425C83.098 215.156 83.6355 215.021 84.2338 215.021C84.884 215.021 85.4649 215.169 85.9764 215.464C86.4966 215.75 86.9041 216.157 87.1989 216.686C87.4937 217.206 87.6411 217.809 87.6411 218.494C87.6411 219.187 87.4937 219.794 87.1989 220.314C86.9041 220.835 86.4966 221.242 85.9764 221.537C85.4649 221.832 84.884 221.979 84.2338 221.979ZM80.7094 224.437V215.086H81.5938V217.141L81.5027 218.507L81.6328 219.885V224.437H80.7094ZM84.1687 221.16C84.6543 221.16 85.0878 221.051 85.4692 220.835C85.8507 220.609 86.1542 220.297 86.3796 219.898C86.605 219.491 86.7177 219.023 86.7177 218.494C86.7177 217.965 86.605 217.501 86.3796 217.102C86.1542 216.703 85.8507 216.391 85.4692 216.166C85.0878 215.94 84.6543 215.828 84.1687 215.828C83.6832 215.828 83.2454 215.94 82.8552 216.166C82.4738 216.391 82.1703 216.703 81.9449 217.102C81.7281 217.501 81.6198 217.965 81.6198 218.494C81.6198 219.023 81.7281 219.491 81.9449 219.898C82.1703 220.297 82.4738 220.609 82.8552 220.835C83.2454 221.051 83.6832 221.16 84.1687 221.16ZM92.4234 221.979C91.7125 221.979 91.0883 221.832 90.5507 221.537C90.0132 221.233 89.5927 220.822 89.2892 220.301C88.9858 219.773 88.8341 219.17 88.8341 218.494C88.8341 217.817 88.9771 217.219 89.2632 216.699C89.558 216.179 89.9568 215.771 90.4597 215.477C90.9712 215.173 91.5434 215.021 92.1763 215.021C92.8179 215.021 93.3858 215.169 93.88 215.464C94.3828 215.75 94.7773 216.157 95.0634 216.686C95.3495 217.206 95.4926 217.809 95.4926 218.494C95.4926 218.537 95.4883 218.585 95.4796 218.637C95.4796 218.68 95.4796 218.728 95.4796 218.78H89.5363V218.091H94.9854L94.6213 218.364C94.6213 217.87 94.5129 217.432 94.2961 217.05C94.0881 216.66 93.802 216.357 93.4378 216.14C93.0737 215.923 92.6532 215.815 92.1763 215.815C91.7082 215.815 91.2877 215.923 90.9149 216.14C90.542 216.357 90.2516 216.66 90.0435 217.05C89.8354 217.44 89.7314 217.887 89.7314 218.39V218.533C89.7314 219.053 89.8441 219.512 90.0695 219.911C90.3036 220.301 90.6244 220.609 91.0319 220.835C91.4481 221.051 91.9206 221.16 92.4494 221.16C92.8656 221.16 93.2514 221.086 93.6069 220.939C93.971 220.791 94.2831 220.566 94.5432 220.262L95.0634 220.861C94.76 221.225 94.3785 221.502 93.919 221.693C93.4682 221.884 92.9696 221.979 92.4234 221.979ZM97.372 221.914V215.086H98.2564V216.946L98.1653 216.621C98.3561 216.101 98.6769 215.706 99.1277 215.438C99.5785 215.16 100.138 215.021 100.805 215.021V215.919C100.771 215.919 100.736 215.919 100.701 215.919C100.667 215.91 100.632 215.906 100.597 215.906C99.8776 215.906 99.3141 216.127 98.9066 216.569C98.4991 217.003 98.2954 217.622 98.2954 218.429V221.914H97.372ZM102.748 221.914V214.228C102.748 213.621 102.926 213.131 103.281 212.759C103.637 212.386 104.148 212.199 104.816 212.199C105.076 212.199 105.327 212.234 105.57 212.303C105.813 212.373 106.016 212.481 106.181 212.629L105.869 213.318C105.739 213.205 105.587 213.123 105.414 213.071C105.24 213.01 105.054 212.98 104.855 212.98C104.465 212.98 104.165 213.088 103.957 213.305C103.749 213.522 103.645 213.842 103.645 214.267V215.308L103.671 215.737V221.914H102.748ZM101.525 215.854V215.086H105.752V215.854H101.525ZM109.785 221.979C109.074 221.979 108.449 221.832 107.912 221.537C107.374 221.233 106.954 220.822 106.65 220.301C106.347 219.773 106.195 219.17 106.195 218.494C106.195 217.817 106.338 217.219 106.624 216.699C106.919 216.179 107.318 215.771 107.821 215.477C108.332 215.173 108.905 215.021 109.537 215.021C110.179 215.021 110.747 215.169 111.241 215.464C111.744 215.75 112.138 216.157 112.425 216.686C112.711 217.206 112.854 217.809 112.854 218.494C112.854 218.537 112.849 218.585 112.841 218.637C112.841 218.68 112.841 218.728 112.841 218.78H106.897V218.091H112.347L111.982 218.364C111.982 217.87 111.874 217.432 111.657 217.05C111.449 216.66 111.163 216.357 110.799 216.14C110.435 215.923 110.014 215.815 109.537 215.815C109.069 215.815 108.649 215.923 108.276 216.14C107.903 216.357 107.613 216.66 107.405 217.05C107.197 217.44 107.093 217.887 107.093 218.39V218.533C107.093 219.053 107.205 219.512 107.431 219.911C107.665 220.301 107.986 220.609 108.393 220.835C108.809 221.051 109.282 221.16 109.811 221.16C110.227 221.16 110.613 221.086 110.968 220.939C111.332 220.791 111.644 220.566 111.904 220.262L112.425 220.861C112.121 221.225 111.74 221.502 111.28 221.693C110.829 221.884 110.331 221.979 109.785 221.979ZM117.568 221.979C116.892 221.979 116.285 221.832 115.748 221.537C115.219 221.233 114.803 220.822 114.499 220.301C114.196 219.773 114.044 219.17 114.044 218.494C114.044 217.809 114.196 217.206 114.499 216.686C114.803 216.166 115.219 215.758 115.748 215.464C116.285 215.169 116.892 215.021 117.568 215.021C118.149 215.021 118.674 215.134 119.142 215.36C119.61 215.585 119.978 215.923 120.247 216.374L119.558 216.842C119.324 216.495 119.033 216.24 118.687 216.075C118.34 215.91 117.963 215.828 117.555 215.828C117.07 215.828 116.632 215.94 116.242 216.166C115.852 216.383 115.544 216.69 115.318 217.089C115.093 217.488 114.98 217.956 114.98 218.494C114.98 219.031 115.093 219.499 115.318 219.898C115.544 220.297 115.852 220.609 116.242 220.835C116.632 221.051 117.07 221.16 117.555 221.16C117.963 221.16 118.34 221.077 118.687 220.913C119.033 220.748 119.324 220.497 119.558 220.158L120.247 220.627C119.978 221.069 119.61 221.407 119.142 221.641C118.674 221.866 118.149 221.979 117.568 221.979ZM124.296 221.979C123.655 221.979 123.16 221.806 122.814 221.459C122.467 221.112 122.293 220.622 122.293 219.989V213.578H123.217V219.937C123.217 220.336 123.316 220.644 123.516 220.861C123.724 221.077 124.019 221.186 124.4 221.186C124.808 221.186 125.146 221.069 125.415 220.835L125.74 221.498C125.558 221.663 125.337 221.784 125.076 221.862C124.825 221.94 124.565 221.979 124.296 221.979ZM121.071 215.854V215.086H125.298V215.854H121.071ZM130.98 221.914V214.228C130.98 213.621 131.158 213.131 131.514 212.759C131.869 212.386 132.381 212.199 133.048 212.199C133.308 212.199 133.56 212.234 133.802 212.303C134.045 212.373 134.249 212.481 134.414 212.629L134.102 213.318C133.971 213.205 133.82 213.123 133.646 213.071C133.473 213.01 133.287 212.98 133.087 212.98C132.697 212.98 132.398 213.088 132.19 213.305C131.982 213.522 131.878 213.842 131.878 214.267V215.308L131.904 215.737V221.914H130.98ZM129.758 215.854V215.086H133.984V215.854H129.758ZM137.9 221.979C137.241 221.979 136.647 221.832 136.118 221.537C135.598 221.233 135.186 220.822 134.883 220.301C134.579 219.773 134.428 219.17 134.428 218.494C134.428 217.809 134.579 217.206 134.883 216.686C135.186 216.166 135.598 215.758 136.118 215.464C136.638 215.169 137.232 215.021 137.9 215.021C138.576 215.021 139.174 215.169 139.695 215.464C140.224 215.758 140.635 216.166 140.93 216.686C141.234 217.206 141.385 217.809 141.385 218.494C141.385 219.17 141.234 219.773 140.93 220.301C140.635 220.822 140.224 221.233 139.695 221.537C139.166 221.832 138.568 221.979 137.9 221.979ZM137.9 221.16C138.394 221.16 138.832 221.051 139.213 220.835C139.595 220.609 139.894 220.297 140.111 219.898C140.336 219.491 140.449 219.023 140.449 218.494C140.449 217.956 140.336 217.488 140.111 217.089C139.894 216.69 139.595 216.383 139.213 216.166C138.832 215.94 138.398 215.828 137.913 215.828C137.427 215.828 136.994 215.94 136.612 216.166C136.231 216.383 135.928 216.69 135.702 217.089C135.477 217.488 135.364 217.956 135.364 218.494C135.364 219.023 135.477 219.491 135.702 219.898C135.928 220.297 136.231 220.609 136.612 220.835C136.994 221.051 137.423 221.16 137.9 221.16ZM143.27 221.914V215.086H144.155V216.946L144.064 216.621C144.254 216.101 144.575 215.706 145.026 215.438C145.477 215.16 146.036 215.021 146.704 215.021V215.919C146.669 215.919 146.634 215.919 146.6 215.919C146.565 215.91 146.53 215.906 146.496 215.906C145.776 215.906 145.212 216.127 144.805 216.569C144.397 217.003 144.194 217.622 144.194 218.429V221.914H143.27ZM153.767 221.992C153.194 221.992 152.648 221.914 152.128 221.758C151.616 221.602 151.213 221.411 150.918 221.186L151.439 220.197C151.733 220.397 152.098 220.566 152.531 220.705C152.965 220.843 153.407 220.913 153.858 220.913C154.438 220.913 154.855 220.83 155.106 220.666C155.366 220.501 155.496 220.271 155.496 219.976C155.496 219.76 155.418 219.591 155.262 219.469C155.106 219.348 154.898 219.257 154.638 219.196C154.386 219.135 154.105 219.083 153.793 219.04C153.48 218.988 153.168 218.927 152.856 218.858C152.544 218.78 152.258 218.676 151.998 218.546C151.738 218.407 151.53 218.221 151.374 217.987C151.218 217.744 151.14 217.423 151.14 217.024C151.14 216.608 151.257 216.244 151.491 215.932C151.725 215.62 152.054 215.381 152.479 215.217C152.913 215.043 153.424 214.956 154.014 214.956C154.464 214.956 154.92 215.013 155.379 215.125C155.847 215.23 156.229 215.381 156.524 215.581L155.99 216.569C155.678 216.361 155.353 216.218 155.015 216.14C154.677 216.062 154.339 216.023 154.001 216.023C153.454 216.023 153.047 216.114 152.778 216.296C152.509 216.469 152.375 216.695 152.375 216.972C152.375 217.206 152.453 217.388 152.609 217.518C152.774 217.64 152.982 217.735 153.233 217.804C153.493 217.874 153.78 217.935 154.092 217.987C154.404 218.03 154.716 218.091 155.028 218.169C155.34 218.238 155.622 218.338 155.873 218.468C156.133 218.598 156.342 218.78 156.498 219.014C156.662 219.248 156.745 219.56 156.745 219.95C156.745 220.366 156.623 220.726 156.381 221.03C156.138 221.333 155.795 221.572 155.353 221.745C154.911 221.91 154.382 221.992 153.767 221.992ZM158.305 221.914V215.021H159.553V221.914H158.305ZM158.929 213.695C158.686 213.695 158.483 213.617 158.318 213.461C158.162 213.305 158.084 213.114 158.084 212.889C158.084 212.655 158.162 212.459 158.318 212.303C158.483 212.147 158.686 212.069 158.929 212.069C159.172 212.069 159.371 212.147 159.527 212.303C159.692 212.451 159.775 212.637 159.775 212.863C159.775 213.097 159.697 213.296 159.54 213.461C159.384 213.617 159.181 213.695 158.929 213.695ZM165.618 214.956C166.181 214.956 166.675 215.065 167.1 215.282C167.534 215.498 167.872 215.828 168.115 216.27C168.357 216.712 168.479 217.271 168.479 217.948V221.914H167.23V218.091C167.23 217.423 167.065 216.92 166.736 216.582C166.415 216.244 165.96 216.075 165.371 216.075C164.928 216.075 164.543 216.162 164.213 216.335C163.884 216.508 163.628 216.764 163.446 217.102C163.272 217.44 163.186 217.861 163.186 218.364V221.914H161.937V215.021H163.134V216.881L162.939 216.387C163.164 215.936 163.511 215.585 163.979 215.334C164.447 215.082 164.993 214.956 165.618 214.956ZM173.806 224.515C173.173 224.515 172.558 224.424 171.96 224.242C171.37 224.069 170.889 223.817 170.516 223.488L171.114 222.525C171.435 222.803 171.83 223.019 172.298 223.176C172.766 223.34 173.256 223.423 173.767 223.423C174.582 223.423 175.181 223.232 175.562 222.85C175.944 222.469 176.134 221.888 176.134 221.108V219.651L176.264 218.286L176.199 216.907V215.021H177.383V220.978C177.383 222.192 177.079 223.085 176.472 223.657C175.865 224.229 174.977 224.515 173.806 224.515ZM173.65 221.628C172.983 221.628 172.385 221.489 171.856 221.212C171.335 220.926 170.919 220.531 170.607 220.028C170.304 219.525 170.152 218.945 170.152 218.286C170.152 217.618 170.304 217.037 170.607 216.543C170.919 216.04 171.335 215.65 171.856 215.373C172.385 215.095 172.983 214.956 173.65 214.956C174.24 214.956 174.777 215.078 175.263 215.321C175.748 215.555 176.134 215.919 176.42 216.413C176.715 216.907 176.863 217.531 176.863 218.286C176.863 219.031 176.715 219.651 176.42 220.145C176.134 220.64 175.748 221.012 175.263 221.264C174.777 221.507 174.24 221.628 173.65 221.628ZM173.793 220.536C174.253 220.536 174.66 220.44 175.016 220.249C175.371 220.059 175.649 219.794 175.848 219.456C176.056 219.118 176.16 218.728 176.16 218.286C176.16 217.844 176.056 217.453 175.848 217.115C175.649 216.777 175.371 216.517 175.016 216.335C174.66 216.144 174.253 216.049 173.793 216.049C173.334 216.049 172.922 216.144 172.558 216.335C172.202 216.517 171.921 216.777 171.713 217.115C171.513 217.453 171.413 217.844 171.413 218.286C171.413 218.728 171.513 219.118 171.713 219.456C171.921 219.794 172.202 220.059 172.558 220.249C172.922 220.44 173.334 220.536 173.793 220.536ZM179.768 221.914V212.264H181.017V221.914H179.768ZM186.47 221.992C185.733 221.992 185.082 221.84 184.519 221.537C183.964 221.233 183.531 220.817 183.218 220.288C182.915 219.76 182.763 219.153 182.763 218.468C182.763 217.783 182.911 217.176 183.205 216.647C183.509 216.118 183.921 215.706 184.441 215.412C184.97 215.108 185.564 214.956 186.223 214.956C186.89 214.956 187.48 215.104 187.991 215.399C188.503 215.693 188.902 216.11 189.188 216.647C189.482 217.176 189.63 217.796 189.63 218.507C189.63 218.559 189.626 218.619 189.617 218.689C189.617 218.758 189.613 218.823 189.604 218.884H183.739V217.987H188.954L188.446 218.299C188.455 217.857 188.364 217.462 188.173 217.115C187.983 216.768 187.718 216.5 187.38 216.309C187.051 216.11 186.665 216.01 186.223 216.01C185.789 216.01 185.403 216.11 185.065 216.309C184.727 216.5 184.463 216.773 184.272 217.128C184.081 217.475 183.986 217.874 183.986 218.325V218.533C183.986 218.992 184.09 219.404 184.298 219.768C184.515 220.124 184.814 220.401 185.195 220.601C185.577 220.8 186.014 220.9 186.509 220.9C186.916 220.9 187.285 220.83 187.614 220.692C187.952 220.553 188.247 220.345 188.498 220.067L189.188 220.874C188.876 221.238 188.485 221.515 188.017 221.706C187.558 221.897 187.042 221.992 186.47 221.992ZM191.048 218.884V217.804H194.547V218.884H191.048ZM13.2456 243.992C12.6734 243.992 12.1272 243.914 11.607 243.758C11.0954 243.602 10.6923 243.411 10.3975 243.186L10.9177 242.197C11.2125 242.397 11.5766 242.566 12.0101 242.705C12.4436 242.843 12.8858 242.913 13.3366 242.913C13.9175 242.913 14.3337 242.83 14.5851 242.666C14.8452 242.501 14.9753 242.271 14.9753 241.976C14.9753 241.76 14.8972 241.591 14.7412 241.469C14.5851 241.348 14.377 241.257 14.1169 241.196C13.8655 241.135 13.5837 241.083 13.2716 241.04C12.9595 240.988 12.6474 240.927 12.3352 240.858C12.0231 240.78 11.737 240.676 11.4769 240.546C11.2168 240.407 11.0087 240.221 10.8527 239.987C10.6966 239.744 10.6186 239.423 10.6186 239.024C10.6186 238.608 10.7356 238.244 10.9697 237.932C11.2038 237.62 11.5333 237.381 11.9581 237.217C12.3916 237.043 12.9031 236.956 13.4927 236.956C13.9435 236.956 14.3987 237.013 14.8582 237.125C15.3264 237.23 15.7079 237.381 16.0026 237.581L15.4694 238.569C15.1573 238.361 14.8322 238.218 14.4941 238.14C14.1559 238.062 13.8178 238.023 13.4797 238.023C12.9335 238.023 12.526 238.114 12.2572 238.296C11.9884 238.469 11.8541 238.695 11.8541 238.972C11.8541 239.206 11.9321 239.388 12.0882 239.518C12.2529 239.64 12.461 239.735 12.7124 239.804C12.9725 239.874 13.2586 239.935 13.5707 239.987C13.8828 240.03 14.195 240.091 14.5071 240.169C14.8192 240.238 15.101 240.338 15.3524 240.468C15.6125 240.598 15.8206 240.78 15.9766 241.014C16.1414 241.248 16.2237 241.56 16.2237 241.95C16.2237 242.366 16.1024 242.726 15.8596 243.03C15.6168 243.333 15.2744 243.572 14.8322 243.745C14.39 243.91 13.8612 243.992 13.2456 243.992ZM20.8532 243.992C20.1162 243.992 19.466 243.84 18.9024 243.537C18.3476 243.233 17.9141 242.817 17.602 242.288C17.2985 241.76 17.1468 241.153 17.1468 240.468C17.1468 239.783 17.2942 239.176 17.5889 238.647C17.8924 238.118 18.3042 237.706 18.8244 237.412C19.3533 237.108 19.9472 236.956 20.6061 236.956C21.2737 236.956 21.8632 237.104 22.3748 237.399C22.8863 237.693 23.2851 238.11 23.5712 238.647C23.866 239.176 24.0134 239.796 24.0134 240.507C24.0134 240.559 24.0091 240.619 24.0004 240.689C24.0004 240.758 23.9961 240.823 23.9874 240.884H18.1222V239.987H23.3371L22.8299 240.299C22.8386 239.857 22.7476 239.462 22.5568 239.115C22.3661 238.768 22.1017 238.5 21.7635 238.309C21.4341 238.11 21.0483 238.01 20.6061 238.01C20.1726 238.01 19.7868 238.11 19.4487 238.309C19.1105 238.5 18.8461 238.773 18.6554 239.128C18.4646 239.475 18.3692 239.874 18.3692 240.325V240.533C18.3692 240.992 18.4733 241.404 18.6814 241.768C18.8981 242.124 19.1972 242.401 19.5787 242.601C19.9602 242.8 20.398 242.9 20.8922 242.9C21.2997 242.9 21.6682 242.83 21.9976 242.692C22.3358 242.553 22.6305 242.345 22.882 242.067L23.5712 242.874C23.2591 243.238 22.869 243.515 22.4008 243.706C21.9413 243.897 21.4254 243.992 20.8532 243.992ZM25.747 243.914V237.021H26.9435V238.894L26.8264 238.426C27.0172 237.949 27.338 237.585 27.7888 237.334C28.2396 237.082 28.7945 236.956 29.4534 236.956V238.166C29.4014 238.157 29.3494 238.153 29.2974 238.153C29.254 238.153 29.2107 238.153 29.1673 238.153C28.4997 238.153 27.9709 238.352 27.5807 238.751C27.1906 239.15 26.9955 239.726 26.9955 240.481V243.914H25.747ZM33.0793 243.914L30.0621 237.021H31.3626L34.0417 243.264H33.4174L36.1485 237.021H37.3709L34.3538 243.914H33.0793ZM41.4148 243.992C40.6778 243.992 40.0276 243.84 39.464 243.537C38.9091 243.233 38.4756 242.817 38.1635 242.288C37.8601 241.76 37.7083 241.153 37.7083 240.468C37.7083 239.783 37.8557 239.176 38.1505 238.647C38.454 238.118 38.8658 237.706 39.386 237.412C39.9148 237.108 40.5087 236.956 41.1677 236.956C41.8352 236.956 42.4248 237.104 42.9363 237.399C43.4479 237.693 43.8467 238.11 44.1328 238.647C44.4276 239.176 44.575 239.796 44.575 240.507C44.575 240.559 44.5706 240.619 44.562 240.689C44.562 240.758 44.5576 240.823 44.549 240.884H38.6837V239.987H43.8987L43.3915 240.299C43.4002 239.857 43.3091 239.462 43.1184 239.115C42.9277 238.768 42.6632 238.5 42.3251 238.309C41.9956 238.11 41.6098 238.01 41.1677 238.01C40.7342 238.01 40.3483 238.11 40.0102 238.309C39.6721 238.5 39.4077 238.773 39.2169 239.128C39.0262 239.475 38.9308 239.874 38.9308 240.325V240.533C38.9308 240.992 39.0348 241.404 39.2429 241.768C39.4597 242.124 39.7588 242.401 40.1403 242.601C40.5217 242.8 40.9596 242.9 41.4538 242.9C41.8613 242.9 42.2297 242.83 42.5592 242.692C42.8973 242.553 43.1921 242.345 43.4435 242.067L44.1328 242.874C43.8207 243.238 43.4305 243.515 42.9623 243.706C42.5028 243.897 41.987 243.992 41.4148 243.992ZM52.6492 243.992C51.9816 243.992 51.3834 243.845 50.8545 243.55C50.3343 243.255 49.9225 242.843 49.6191 242.314C49.3156 241.786 49.1639 241.17 49.1639 240.468C49.1639 239.765 49.3156 239.154 49.6191 238.634C49.9225 238.105 50.3343 237.693 50.8545 237.399C51.3834 237.104 51.9816 236.956 52.6492 236.956C53.2301 236.956 53.7546 237.086 54.2228 237.347C54.691 237.607 55.0638 237.997 55.3412 238.517C55.6274 239.037 55.7704 239.687 55.7704 240.468C55.7704 241.248 55.6317 241.898 55.3542 242.418C55.0855 242.939 54.717 243.333 54.2488 243.602C53.7806 243.862 53.2474 243.992 52.6492 243.992ZM52.7533 242.9C53.1868 242.9 53.5769 242.8 53.9237 242.601C54.2792 242.401 54.5566 242.119 54.756 241.755C54.9641 241.382 55.0681 240.953 55.0681 240.468C55.0681 239.974 54.9641 239.549 54.756 239.193C54.5566 238.829 54.2792 238.547 53.9237 238.348C53.5769 238.149 53.1868 238.049 52.7533 238.049C52.3111 238.049 51.9166 238.149 51.5698 238.348C51.223 238.547 50.9456 238.829 50.7375 239.193C50.5294 239.549 50.4254 239.974 50.4254 240.468C50.4254 240.953 50.5294 241.382 50.7375 241.755C50.9456 242.119 51.223 242.401 51.5698 242.601C51.9166 242.8 52.3111 242.9 52.7533 242.9ZM55.1072 243.914V242.054L55.1852 240.455L55.0551 238.855V234.264H56.3036V243.914H55.1072ZM61.735 243.992C60.9981 243.992 60.3478 243.84 59.7843 243.537C59.2294 243.233 58.7959 242.817 58.4838 242.288C58.1803 241.76 58.0286 241.153 58.0286 240.468C58.0286 239.783 58.176 239.176 58.4708 238.647C58.7742 238.118 59.186 237.706 59.7062 237.412C60.2351 237.108 60.829 236.956 61.4879 236.956C62.1555 236.956 62.7451 237.104 63.2566 237.399C63.7681 237.693 64.1669 238.11 64.453 238.647C64.7478 239.176 64.8952 239.796 64.8952 240.507C64.8952 240.559 64.8909 240.619 64.8822 240.689C64.8822 240.758 64.8779 240.823 64.8692 240.884H59.004V239.987H64.219L63.7118 240.299C63.7204 239.857 63.6294 239.462 63.4387 239.115C63.2479 238.768 62.9835 238.5 62.6454 238.309C62.3159 238.11 61.9301 238.01 61.4879 238.01C61.0544 238.01 60.6686 238.11 60.3305 238.309C59.9923 238.5 59.7279 238.773 59.5372 239.128C59.3464 239.475 59.2511 239.874 59.2511 240.325V240.533C59.2511 240.992 59.3551 241.404 59.5632 241.768C59.7799 242.124 60.079 242.401 60.4605 242.601C60.842 242.8 61.2798 242.9 61.774 242.9C62.1815 242.9 62.55 242.83 62.8794 242.692C63.2176 242.553 63.5124 242.345 63.7638 242.067L64.453 242.874C64.1409 243.238 63.7508 243.515 63.2826 243.706C62.8231 243.897 62.3072 243.992 61.735 243.992ZM68.6056 243.992C68.0334 243.992 67.4872 243.914 66.967 243.758C66.4554 243.602 66.0523 243.411 65.7575 243.186L66.2777 242.197C66.5725 242.397 66.9366 242.566 67.3701 242.705C67.8036 242.843 68.2458 242.913 68.6966 242.913C69.2775 242.913 69.6937 242.83 69.9451 242.666C70.2052 242.501 70.3353 242.271 70.3353 241.976C70.3353 241.76 70.2572 241.591 70.1012 241.469C69.9451 241.348 69.737 241.257 69.4769 241.196C69.2255 241.135 68.9437 241.083 68.6316 241.04C68.3195 240.988 68.0074 240.927 67.6952 240.858C67.3831 240.78 67.097 240.676 66.8369 240.546C66.5768 240.407 66.3687 240.221 66.2127 239.987C66.0566 239.744 65.9786 239.423 65.9786 239.024C65.9786 238.608 66.0956 238.244 66.3297 237.932C66.5638 237.62 66.8933 237.381 67.3181 237.217C67.7516 237.043 68.2631 236.956 68.8527 236.956C69.3035 236.956 69.7587 237.013 70.2182 237.125C70.6864 237.23 71.0679 237.381 71.3626 237.581L70.8294 238.569C70.5173 238.361 70.1922 238.218 69.8541 238.14C69.5159 238.062 69.1778 238.023 68.8397 238.023C68.2935 238.023 67.886 238.114 67.6172 238.296C67.3484 238.469 67.2141 238.695 67.2141 238.972C67.2141 239.206 67.2921 239.388 67.4482 239.518C67.6129 239.64 67.821 239.735 68.0724 239.804C68.3325 239.874 68.6186 239.935 68.9307 239.987C69.2428 240.03 69.555 240.091 69.8671 240.169C70.1792 240.238 70.461 240.338 70.7124 240.468C70.9725 240.598 71.1806 240.78 71.3366 241.014C71.5014 241.248 71.5837 241.56 71.5837 241.95C71.5837 242.366 71.4624 242.726 71.2196 243.03C70.9768 243.333 70.6344 243.572 70.1922 243.745C69.75 243.91 69.2212 243.992 68.6056 243.992ZM75.1208 243.992C74.5486 243.992 74.0024 243.914 73.4822 243.758C72.9706 243.602 72.5675 243.411 72.2727 243.186L72.7929 242.197C73.0877 242.397 73.4518 242.566 73.8853 242.705C74.3188 242.843 74.761 242.913 75.2118 242.913C75.7927 242.913 76.2089 242.83 76.4603 242.666C76.7204 242.501 76.8504 242.271 76.8504 241.976C76.8504 241.76 76.7724 241.591 76.6163 241.469C76.4603 241.348 76.2522 241.257 75.9921 241.196C75.7407 241.135 75.4589 241.083 75.1468 241.04C74.8347 240.988 74.5225 240.927 74.2104 240.858C73.8983 240.78 73.6122 240.676 73.3521 240.546C73.092 240.407 72.8839 240.221 72.7279 239.987C72.5718 239.744 72.4938 239.423 72.4938 239.024C72.4938 238.608 72.6108 238.244 72.8449 237.932C73.079 237.62 73.4085 237.381 73.8333 237.217C74.2668 237.043 74.7783 236.956 75.3679 236.956C75.8187 236.956 76.2739 237.013 76.7334 237.125C77.2016 237.23 77.5831 237.381 77.8778 237.581L77.3446 238.569C77.0325 238.361 76.7074 238.218 76.3693 238.14C76.0311 238.062 75.693 238.023 75.3549 238.023C74.8087 238.023 74.4012 238.114 74.1324 238.296C73.8636 238.469 73.7292 238.695 73.7292 238.972C73.7292 239.206 73.8073 239.388 73.9633 239.518C74.1281 239.64 74.3361 239.735 74.5876 239.804C74.8477 239.874 75.1338 239.935 75.4459 239.987C75.758 240.03 76.0701 240.091 76.3823 240.169C76.6944 240.238 76.9762 240.338 77.2276 240.468C77.4877 240.598 77.6958 240.78 77.8518 241.014C78.0166 241.248 78.0989 241.56 78.0989 241.95C78.0989 242.366 77.9775 242.726 77.7348 243.03C77.492 243.333 77.1496 243.572 76.7074 243.745C76.2652 243.91 75.7363 243.992 75.1208 243.992ZM82.7284 243.992C81.9914 243.992 81.3412 243.84 80.7776 243.537C80.2228 243.233 79.7893 242.817 79.4771 242.288C79.1737 241.76 79.022 241.153 79.022 240.468C79.022 239.783 79.1694 239.176 79.4641 238.647C79.7676 238.118 80.1794 237.706 80.6996 237.412C81.2285 237.108 81.8224 236.956 82.4813 236.956C83.1489 236.956 83.7384 237.104 84.25 237.399C84.7615 237.693 85.1603 238.11 85.4464 238.647C85.7412 239.176 85.8886 239.796 85.8886 240.507C85.8886 240.559 85.8842 240.619 85.8756 240.689C85.8756 240.758 85.8712 240.823 85.8626 240.884H79.9973V239.987H85.2123L84.7051 240.299C84.7138 239.857 84.6228 239.462 84.432 239.115C84.2413 238.768 83.9769 238.5 83.6387 238.309C83.3093 238.11 82.9235 238.01 82.4813 238.01C82.0478 238.01 81.662 238.11 81.3238 238.309C80.9857 238.5 80.7213 238.773 80.5305 239.128C80.3398 239.475 80.2444 239.874 80.2444 240.325V240.533C80.2444 240.992 80.3485 241.404 80.5565 241.768C80.7733 242.124 81.0724 242.401 81.4539 242.601C81.8354 242.8 82.2732 242.9 82.7674 242.9C83.1749 242.9 83.5434 242.83 83.8728 242.692C84.2109 242.553 84.5057 242.345 84.7572 242.067L85.4464 242.874C85.1343 243.238 84.7441 243.515 84.276 243.706C83.8165 243.897 83.3006 243.992 82.7284 243.992ZM87.6222 243.914V237.021H88.8187V238.894L88.7016 238.426C88.8924 237.949 89.2132 237.585 89.664 237.334C90.1148 237.082 90.6697 236.956 91.3286 236.956V238.166C91.2766 238.157 91.2246 238.153 91.1726 238.153C91.1292 238.153 91.0859 238.153 91.0425 238.153C90.3749 238.153 89.8461 238.352 89.4559 238.751C89.0658 239.15 88.8707 239.726 88.8707 240.481V243.914H87.6222ZM95.5137 243.992C94.8201 243.992 94.2825 243.806 93.9011 243.433C93.5196 243.06 93.3288 242.527 93.3288 241.833V235.513H94.5773V241.781C94.5773 242.154 94.6684 242.44 94.8504 242.64C95.0412 242.839 95.3099 242.939 95.6567 242.939C96.0469 242.939 96.372 242.83 96.6321 242.614L97.0223 243.511C96.8315 243.676 96.6018 243.797 96.333 243.875C96.0729 243.953 95.7998 243.992 95.5137 243.992ZM92.1584 238.049V237.021H96.5541V238.049H92.1584ZM100.508 243.992C99.9362 243.992 99.39 243.914 98.8698 243.758C98.3582 243.602 97.9551 243.411 97.6603 243.186L98.1805 242.197C98.4753 242.397 98.8394 242.566 99.2729 242.705C99.7064 242.843 100.149 242.913 100.599 242.913C101.18 242.913 101.596 242.83 101.848 242.666C102.108 242.501 102.238 242.271 102.238 241.976C102.238 241.76 102.16 241.591 102.004 241.469C101.848 241.348 101.64 241.257 101.38 241.196C101.128 241.135 100.847 241.083 100.534 241.04C100.222 240.988 99.9102 240.927 99.598 240.858C99.2859 240.78 98.9998 240.676 98.7397 240.546C98.4796 240.407 98.2715 240.221 98.1155 239.987C97.9594 239.744 97.8814 239.423 97.8814 239.024C97.8814 238.608 97.9984 238.244 98.2325 237.932C98.4666 237.62 98.7961 237.381 99.2209 237.217C99.6544 237.043 100.166 236.956 100.755 236.956C101.206 236.956 101.662 237.013 102.121 237.125C102.589 237.23 102.971 237.381 103.265 237.581L102.732 238.569C102.42 238.361 102.095 238.218 101.757 238.14C101.419 238.062 101.081 238.023 100.742 238.023C100.196 238.023 99.7888 238.114 99.52 238.296C99.2513 238.469 99.1169 238.695 99.1169 238.972C99.1169 239.206 99.1949 239.388 99.351 239.518C99.5157 239.64 99.7238 239.735 99.9752 239.804C100.235 239.874 100.521 239.935 100.834 239.987C101.146 240.03 101.458 240.091 101.77 240.169C102.082 240.238 102.364 240.338 102.615 240.468C102.875 240.598 103.083 240.78 103.239 241.014C103.404 241.248 103.487 241.56 103.487 241.95C103.487 242.366 103.365 242.726 103.122 243.03C102.88 243.333 102.537 243.572 102.095 243.745C101.653 243.91 101.124 243.992 100.508 243.992ZM104.553 245.839L105.203 243.212L105.372 243.966C105.121 243.966 104.908 243.888 104.735 243.732C104.57 243.576 104.488 243.364 104.488 243.095C104.488 242.835 104.57 242.622 104.735 242.458C104.908 242.293 105.116 242.21 105.359 242.21C105.61 242.21 105.814 242.297 105.97 242.471C106.126 242.635 106.204 242.843 106.204 243.095C106.204 243.181 106.196 243.268 106.178 243.355C106.17 243.433 106.148 243.528 106.113 243.641C106.087 243.745 106.044 243.875 105.983 244.031L105.372 245.839H104.553ZM113.463 243.992C112.89 243.992 112.344 243.914 111.824 243.758C111.312 243.602 110.909 243.411 110.614 243.186L111.135 242.197C111.429 242.397 111.794 242.566 112.227 242.705C112.661 242.843 113.103 242.913 113.554 242.913C114.134 242.913 114.551 242.83 114.802 242.666C115.062 242.501 115.192 242.271 115.192 241.976C115.192 241.76 115.114 241.591 114.958 241.469C114.802 241.348 114.594 241.257 114.334 241.196C114.082 241.135 113.801 241.083 113.489 241.04C113.176 240.988 112.864 240.927 112.552 240.858C112.24 240.78 111.954 240.676 111.694 240.546C111.434 240.407 111.226 240.221 111.07 239.987C110.914 239.744 110.836 239.423 110.836 239.024C110.836 238.608 110.953 238.244 111.187 237.932C111.421 237.62 111.75 237.381 112.175 237.217C112.609 237.043 113.12 236.956 113.71 236.956C114.161 236.956 114.616 237.013 115.075 237.125C115.543 237.23 115.925 237.381 116.22 237.581L115.686 238.569C115.374 238.361 115.049 238.218 114.711 238.14C114.373 238.062 114.035 238.023 113.697 238.023C113.15 238.023 112.743 238.114 112.474 238.296C112.205 238.469 112.071 238.695 112.071 238.972C112.071 239.206 112.149 239.388 112.305 239.518C112.47 239.64 112.678 239.735 112.929 239.804C113.189 239.874 113.476 239.935 113.788 239.987C114.1 240.03 114.412 240.091 114.724 240.169C115.036 240.238 115.318 240.338 115.569 240.468C115.829 240.598 116.038 240.78 116.194 241.014C116.358 241.248 116.441 241.56 116.441 241.95C116.441 242.366 116.319 242.726 116.077 243.03C115.834 243.333 115.491 243.572 115.049 243.745C114.607 243.91 114.078 243.992 113.463 243.992ZM122.28 243.914V242.458L122.215 242.184V239.7C122.215 239.172 122.059 238.764 121.746 238.478C121.443 238.183 120.983 238.036 120.368 238.036C119.96 238.036 119.562 238.105 119.171 238.244C118.781 238.374 118.452 238.552 118.183 238.777L117.663 237.841C118.018 237.555 118.443 237.338 118.937 237.19C119.44 237.034 119.965 236.956 120.511 236.956C121.456 236.956 122.184 237.186 122.696 237.646C123.207 238.105 123.463 238.807 123.463 239.752V243.914H122.28ZM120.017 243.992C119.505 243.992 119.054 243.905 118.664 243.732C118.283 243.559 117.988 243.32 117.78 243.017C117.572 242.705 117.468 242.353 117.468 241.963C117.468 241.591 117.554 241.252 117.728 240.949C117.91 240.645 118.2 240.403 118.599 240.221C119.007 240.039 119.553 239.948 120.238 239.948H122.423V240.845H120.29C119.666 240.845 119.245 240.949 119.028 241.157C118.812 241.365 118.703 241.617 118.703 241.911C118.703 242.249 118.838 242.523 119.106 242.731C119.375 242.93 119.748 243.03 120.225 243.03C120.693 243.03 121.101 242.926 121.447 242.718C121.803 242.51 122.059 242.206 122.215 241.807L122.462 242.666C122.297 243.073 122.007 243.398 121.59 243.641C121.174 243.875 120.65 243.992 120.017 243.992ZM134.396 236.956C134.951 236.956 135.441 237.065 135.865 237.282C136.29 237.498 136.62 237.828 136.854 238.27C137.096 238.712 137.218 239.271 137.218 239.948V243.914H135.969V240.091C135.969 239.423 135.813 238.92 135.501 238.582C135.189 238.244 134.751 238.075 134.188 238.075C133.772 238.075 133.407 238.162 133.095 238.335C132.783 238.508 132.54 238.764 132.367 239.102C132.202 239.44 132.12 239.861 132.12 240.364V243.914H130.871V240.091C130.871 239.423 130.715 238.92 130.403 238.582C130.1 238.244 129.662 238.075 129.09 238.075C128.682 238.075 128.322 238.162 128.01 238.335C127.698 238.508 127.455 238.764 127.282 239.102C127.109 239.44 127.022 239.861 127.022 240.364V243.914H125.773V237.021H126.97V238.855L126.775 238.387C126.992 237.936 127.325 237.585 127.776 237.334C128.227 237.082 128.752 236.956 129.35 236.956C130.009 236.956 130.577 237.121 131.054 237.451C131.53 237.771 131.842 238.261 131.99 238.92L131.483 238.712C131.691 238.183 132.055 237.758 132.575 237.438C133.095 237.117 133.702 236.956 134.396 236.956ZM143.169 243.992C142.597 243.992 142.073 243.862 141.596 243.602C141.128 243.333 140.751 242.939 140.464 242.418C140.187 241.898 140.048 241.248 140.048 240.468C140.048 239.687 140.183 239.037 140.451 238.517C140.729 237.997 141.102 237.607 141.57 237.347C142.047 237.086 142.58 236.956 143.169 236.956C143.846 236.956 144.444 237.104 144.964 237.399C145.484 237.693 145.896 238.105 146.2 238.634C146.503 239.154 146.655 239.765 146.655 240.468C146.655 241.17 146.503 241.786 146.2 242.314C145.896 242.843 145.484 243.255 144.964 243.55C144.444 243.845 143.846 243.992 143.169 243.992ZM139.515 246.437V237.021H140.712V238.881L140.633 240.481L140.764 242.08V246.437H139.515ZM143.065 242.9C143.508 242.9 143.902 242.8 144.249 242.601C144.604 242.401 144.882 242.119 145.081 241.755C145.289 241.382 145.393 240.953 145.393 240.468C145.393 239.974 145.289 239.549 145.081 239.193C144.882 238.829 144.604 238.547 144.249 238.348C143.902 238.149 143.508 238.049 143.065 238.049C142.632 238.049 142.237 238.149 141.882 238.348C141.535 238.547 141.258 238.829 141.05 239.193C140.85 239.549 140.751 239.974 140.751 240.468C140.751 240.953 140.85 241.382 141.05 241.755C141.258 242.119 141.535 242.401 141.882 242.601C142.237 242.8 142.632 242.9 143.065 242.9ZM148.38 243.914V234.264H149.628V243.914H148.38ZM155.081 243.992C154.344 243.992 153.694 243.84 153.13 243.537C152.576 243.233 152.142 242.817 151.83 242.288C151.527 241.76 151.375 241.153 151.375 240.468C151.375 239.783 151.522 239.176 151.817 238.647C152.12 238.118 152.532 237.706 153.052 237.412C153.581 237.108 154.175 236.956 154.834 236.956C155.502 236.956 156.091 237.104 156.603 237.399C157.114 237.693 157.513 238.11 157.799 238.647C158.094 239.176 158.241 239.796 158.241 240.507C158.241 240.559 158.237 240.619 158.228 240.689C158.228 240.758 158.224 240.823 158.215 240.884H152.35V239.987H157.565L157.058 240.299C157.067 239.857 156.976 239.462 156.785 239.115C156.594 238.768 156.33 238.5 155.992 238.309C155.662 238.11 155.276 238.01 154.834 238.01C154.401 238.01 154.015 238.11 153.677 238.309C153.339 238.5 153.074 238.773 152.883 239.128C152.693 239.475 152.597 239.874 152.597 240.325V240.533C152.597 240.992 152.701 241.404 152.909 241.768C153.126 242.124 153.425 242.401 153.807 242.601C154.188 242.8 154.626 242.9 155.12 242.9C155.528 242.9 155.896 242.83 156.226 242.692C156.564 242.553 156.859 242.345 157.11 242.067L157.799 242.874C157.487 243.238 157.097 243.515 156.629 243.706C156.169 243.897 155.653 243.992 155.081 243.992ZM161.952 243.992C161.38 243.992 160.833 243.914 160.313 243.758C159.802 243.602 159.398 243.411 159.104 243.186L159.624 242.197C159.919 242.397 160.283 242.566 160.716 242.705C161.15 242.843 161.592 242.913 162.043 242.913C162.624 242.913 163.04 242.83 163.291 242.666C163.551 242.501 163.681 242.271 163.681 241.976C163.681 241.76 163.603 241.591 163.447 241.469C163.291 241.348 163.083 241.257 162.823 241.196C162.572 241.135 162.29 241.083 161.978 241.04C161.666 240.988 161.354 240.927 161.041 240.858C160.729 240.78 160.443 240.676 160.183 240.546C159.923 240.407 159.715 240.221 159.559 239.987C159.403 239.744 159.325 239.423 159.325 239.024C159.325 238.608 159.442 238.244 159.676 237.932C159.91 237.62 160.239 237.381 160.664 237.217C161.098 237.043 161.609 236.956 162.199 236.956C162.65 236.956 163.105 237.013 163.564 237.125C164.033 237.23 164.414 237.381 164.709 237.581L164.176 238.569C163.864 238.361 163.538 238.218 163.2 238.14C162.862 238.062 162.524 238.023 162.186 238.023C161.64 238.023 161.232 238.114 160.963 238.296C160.695 238.469 160.56 238.695 160.56 238.972C160.56 239.206 160.638 239.388 160.794 239.518C160.959 239.64 161.167 239.735 161.419 239.804C161.679 239.874 161.965 239.935 162.277 239.987C162.589 240.03 162.901 240.091 163.213 240.169C163.525 240.238 163.807 240.338 164.059 240.468C164.319 240.598 164.527 240.78 164.683 241.014C164.848 241.248 164.93 241.56 164.93 241.95C164.93 242.366 164.809 242.726 164.566 243.03C164.323 243.333 163.981 243.572 163.538 243.745C163.096 243.91 162.567 243.992 161.952 243.992ZM165.996 245.839L166.646 243.212L166.815 243.966C166.564 243.966 166.351 243.888 166.178 243.732C166.013 243.576 165.931 243.364 165.931 243.095C165.931 242.835 166.013 242.622 166.178 242.458C166.351 242.293 166.56 242.21 166.802 242.21C167.054 242.21 167.258 242.297 167.414 242.471C167.57 242.635 167.648 242.843 167.648 243.095C167.648 243.181 167.639 243.268 167.622 243.355C167.613 243.433 167.591 243.528 167.557 243.641C167.531 243.745 167.487 243.875 167.427 244.031L166.815 245.839H165.996ZM177.223 243.914V242.405L177.184 242.158V239.635C177.184 239.055 177.019 238.608 176.69 238.296C176.369 237.984 175.888 237.828 175.246 237.828C174.804 237.828 174.384 237.901 173.985 238.049C173.586 238.196 173.248 238.391 172.97 238.634L172.554 237.945C172.901 237.65 173.317 237.425 173.803 237.269C174.288 237.104 174.8 237.021 175.337 237.021C176.222 237.021 176.902 237.243 177.379 237.685C177.865 238.118 178.107 238.781 178.107 239.674V243.914H177.223ZM174.869 243.979C174.358 243.979 173.911 243.897 173.53 243.732C173.157 243.559 172.871 243.325 172.671 243.03C172.472 242.726 172.372 242.379 172.372 241.989C172.372 241.634 172.454 241.313 172.619 241.027C172.793 240.732 173.07 240.498 173.452 240.325C173.842 240.143 174.362 240.052 175.012 240.052H177.366V240.741H175.038C174.379 240.741 173.92 240.858 173.66 241.092C173.408 241.326 173.282 241.617 173.282 241.963C173.282 242.353 173.434 242.666 173.738 242.9C174.041 243.134 174.466 243.251 175.012 243.251C175.532 243.251 175.979 243.134 176.352 242.9C176.733 242.657 177.011 242.31 177.184 241.859L177.392 242.497C177.219 242.947 176.915 243.307 176.482 243.576C176.057 243.845 175.519 243.979 174.869 243.979ZM184.101 237.021C184.655 237.021 185.141 237.13 185.557 237.347C185.982 237.555 186.311 237.875 186.545 238.309C186.788 238.742 186.91 239.289 186.91 239.948V243.914H185.986V240.039C185.986 239.319 185.804 238.777 185.44 238.413C185.085 238.04 184.582 237.854 183.931 237.854C183.446 237.854 183.021 237.953 182.657 238.153C182.302 238.344 182.024 238.625 181.825 238.998C181.634 239.362 181.539 239.804 181.539 240.325V243.914H180.615V237.086H181.5V238.959L181.357 238.608C181.573 238.114 181.92 237.728 182.397 237.451C182.874 237.164 183.442 237.021 184.101 237.021ZM192.122 243.979C191.472 243.979 190.886 243.832 190.366 243.537C189.855 243.242 189.451 242.835 189.157 242.314C188.862 241.786 188.714 241.179 188.714 240.494C188.714 239.8 188.862 239.193 189.157 238.673C189.451 238.153 189.855 237.75 190.366 237.464C190.886 237.169 191.472 237.021 192.122 237.021C192.72 237.021 193.253 237.156 193.721 237.425C194.198 237.693 194.575 238.088 194.853 238.608C195.139 239.12 195.282 239.748 195.282 240.494C195.282 241.231 195.143 241.859 194.866 242.379C194.588 242.9 194.211 243.298 193.734 243.576C193.266 243.845 192.729 243.979 192.122 243.979ZM192.187 243.16C192.672 243.16 193.106 243.051 193.487 242.835C193.877 242.609 194.181 242.297 194.398 241.898C194.623 241.491 194.736 241.023 194.736 240.494C194.736 239.956 194.623 239.488 194.398 239.089C194.181 238.69 193.877 238.383 193.487 238.166C193.106 237.94 192.672 237.828 192.187 237.828C191.71 237.828 191.281 237.94 190.899 238.166C190.518 238.383 190.214 238.69 189.989 239.089C189.764 239.488 189.651 239.956 189.651 240.494C189.651 241.023 189.764 241.491 189.989 241.898C190.214 242.297 190.518 242.609 190.899 242.835C191.281 243.051 191.71 243.16 192.187 243.16ZM194.762 243.914V241.859L194.853 240.481L194.723 239.102V234.264H195.646V243.914H194.762ZM25.0694 265.992C24.4972 265.992 23.951 265.914 23.4308 265.758C22.9193 265.602 22.5161 265.411 22.2214 265.186L22.7416 264.197C23.0363 264.397 23.4005 264.566 23.834 264.705C24.2675 264.843 24.7096 264.913 25.1605 264.913C25.7414 264.913 26.1575 264.83 26.409 264.666C26.6691 264.501 26.7991 264.271 26.7991 263.976C26.7991 263.76 26.7211 263.591 26.565 263.469C26.409 263.348 26.2009 263.257 25.9408 263.196C25.6894 263.135 25.4076 263.083 25.0955 263.04C24.7833 262.988 24.4712 262.927 24.1591 262.858C23.847 262.78 23.5609 262.676 23.3008 262.546C23.0407 262.407 22.8326 262.221 22.6765 261.987C22.5205 261.744 22.4424 261.423 22.4424 261.024C22.4424 260.608 22.5595 260.244 22.7936 259.932C23.0277 259.62 23.3571 259.381 23.782 259.217C24.2155 259.043 24.727 258.956 25.3165 258.956C25.7674 258.956 26.2226 259.013 26.6821 259.125C27.1502 259.23 27.5317 259.381 27.8265 259.581L27.2933 260.569C26.9812 260.361 26.6561 260.218 26.3179 260.14C25.9798 260.062 25.6417 260.023 25.3035 260.023C24.7573 260.023 24.3498 260.114 24.0811 260.296C23.8123 260.469 23.6779 260.695 23.6779 260.972C23.6779 261.206 23.7559 261.388 23.912 261.518C24.0767 261.64 24.2848 261.735 24.5362 261.804C24.7963 261.874 25.0825 261.935 25.3946 261.987C25.7067 262.03 26.0188 262.091 26.3309 262.169C26.643 262.238 26.9248 262.338 27.1763 262.468C27.4364 262.598 27.6444 262.78 27.8005 263.014C27.9652 263.248 28.0476 263.56 28.0476 263.95C28.0476 264.366 27.9262 264.726 27.6834 265.03C27.4407 265.333 27.0982 265.572 26.6561 265.745C26.2139 265.91 25.685 265.992 25.0694 265.992ZM38.2302 258.956C38.785 258.956 39.2749 259.065 39.6997 259.282C40.1246 259.498 40.454 259.828 40.6881 260.27C40.9309 260.712 41.0522 261.271 41.0522 261.948V265.914H39.8038V262.091C39.8038 261.423 39.6477 260.92 39.3356 260.582C39.0235 260.244 38.5856 260.075 38.0221 260.075C37.6059 260.075 37.2418 260.162 36.9297 260.335C36.6176 260.508 36.3748 260.764 36.2014 261.102C36.0367 261.44 35.9543 261.861 35.9543 262.364V265.914H34.7058V262.091C34.7058 261.423 34.5498 260.92 34.2376 260.582C33.9342 260.244 33.4964 260.075 32.9241 260.075C32.5167 260.075 32.1568 260.162 31.8447 260.335C31.5326 260.508 31.2899 260.764 31.1165 261.102C30.9431 261.44 30.8564 261.861 30.8564 262.364V265.914H29.6079V259.021H30.8043V260.855L30.6093 260.387C30.826 259.936 31.1598 259.585 31.6106 259.334C32.0615 259.082 32.586 258.956 33.1842 258.956C33.8432 258.956 34.411 259.121 34.8879 259.451C35.3647 259.771 35.6769 260.261 35.8242 260.92L35.3171 260.712C35.5251 260.183 35.8893 259.758 36.4095 259.438C36.9297 259.117 37.5366 258.956 38.2302 258.956ZM47.6281 265.914V264.458L47.5631 264.184V261.7C47.5631 261.172 47.407 260.764 47.0949 260.478C46.7914 260.183 46.3319 260.036 45.7164 260.036C45.3089 260.036 44.91 260.105 44.5199 260.244C44.1297 260.374 43.8003 260.552 43.5315 260.777L43.0113 259.841C43.3668 259.555 43.7916 259.338 44.2858 259.19C44.7887 259.034 45.3132 258.956 45.8594 258.956C46.8044 258.956 47.5327 259.186 48.0442 259.646C48.5558 260.105 48.8115 260.807 48.8115 261.752V265.914H47.6281ZM45.3652 265.992C44.8537 265.992 44.4029 265.905 44.0127 265.732C43.6312 265.559 43.3364 265.32 43.1284 265.017C42.9203 264.705 42.8162 264.353 42.8162 263.963C42.8162 263.591 42.9029 263.252 43.0763 262.949C43.2584 262.645 43.5489 262.403 43.9477 262.221C44.3552 262.039 44.9014 261.948 45.5863 261.948H47.7711V262.845H45.6383C45.0141 262.845 44.5936 262.949 44.3768 263.157C44.1601 263.365 44.0517 263.617 44.0517 263.911C44.0517 264.249 44.1861 264.523 44.4549 264.731C44.7236 264.93 45.0964 265.03 45.5733 265.03C46.0415 265.03 46.449 264.926 46.7958 264.718C47.1512 264.51 47.407 264.206 47.5631 263.807L47.8102 264.666C47.6454 265.073 47.355 265.398 46.9388 265.641C46.5227 265.875 45.9981 265.992 45.3652 265.992ZM51.1219 265.914V256.264H52.3704V265.914H51.1219ZM54.7542 265.914V256.264H56.0027V265.914H54.7542ZM64.2459 265.992C63.5523 265.992 63.0148 265.806 62.6333 265.433C62.2518 265.06 62.0611 264.527 62.0611 263.833V257.513H63.3095V263.781C63.3095 264.154 63.4006 264.44 63.5826 264.64C63.7734 264.839 64.0421 264.939 64.3889 264.939C64.7791 264.939 65.1042 264.83 65.3643 264.614L65.7545 265.511C65.5637 265.676 65.334 265.797 65.0652 265.875C64.8051 265.953 64.532 265.992 64.2459 265.992ZM60.8906 260.049V259.021H65.2863V260.049H60.8906ZM71.5425 265.914V264.458L71.4775 264.184V261.7C71.4775 261.172 71.3214 260.764 71.0093 260.478C70.7058 260.183 70.2463 260.036 69.6308 260.036C69.2233 260.036 68.8244 260.105 68.4343 260.244C68.0441 260.374 67.7147 260.552 67.4459 260.777L66.9257 259.841C67.2812 259.555 67.706 259.338 68.2002 259.19C68.7031 259.034 69.2276 258.956 69.7738 258.956C70.7188 258.956 71.4471 259.186 71.9586 259.646C72.4702 260.105 72.7259 260.807 72.7259 261.752V265.914H71.5425ZM69.2796 265.992C68.7681 265.992 68.3173 265.905 67.9271 265.732C67.5456 265.559 67.2508 265.32 67.0428 265.017C66.8347 264.705 66.7306 264.353 66.7306 263.963C66.7306 263.591 66.8173 263.252 66.9907 262.949C67.1728 262.645 67.4633 262.403 67.8621 262.221C68.2696 262.039 68.8158 261.948 69.5007 261.948H71.6855V262.845H69.5527C68.9285 262.845 68.508 262.949 68.2912 263.157C68.0745 263.365 67.9661 263.617 67.9661 263.911C67.9661 264.249 68.1005 264.523 68.3693 264.731C68.638 264.93 69.0109 265.03 69.4877 265.03C69.9559 265.03 70.3634 264.926 70.7102 264.718C71.0656 264.51 71.3214 264.206 71.4775 263.807L71.7246 264.666C71.5598 265.073 71.2694 265.398 70.8532 265.641C70.4371 265.875 69.9125 265.992 69.2796 265.992ZM76.0507 264.249L76.0767 262.65L80.0433 259.021H81.5518L78.5087 262.013L77.8324 262.585L76.0507 264.249ZM75.0363 265.914V256.264H76.2848V265.914H75.0363ZM80.3034 265.914L77.5983 262.559L78.4046 261.557L81.8379 265.914H80.3034ZM85.8272 265.992C85.0903 265.992 84.44 265.84 83.8765 265.537C83.3216 265.233 82.8881 264.817 82.576 264.288C82.2725 263.76 82.1208 263.153 82.1208 262.468C82.1208 261.783 82.2682 261.176 82.563 260.647C82.8664 260.118 83.2783 259.706 83.7984 259.412C84.3273 259.108 84.9212 258.956 85.5801 258.956C86.2477 258.956 86.8373 259.104 87.3488 259.399C87.8603 259.693 88.2592 260.11 88.5453 260.647C88.84 261.176 88.9874 261.796 88.9874 262.507C88.9874 262.559 88.9831 262.619 88.9744 262.689C88.9744 262.758 88.9701 262.823 88.9614 262.884H83.0962V261.987H88.3112L87.804 262.299C87.8126 261.857 87.7216 261.462 87.5309 261.115C87.3401 260.768 87.0757 260.5 86.7376 260.309C86.4081 260.11 86.0223 260.01 85.5801 260.01C85.1466 260.01 84.7608 260.11 84.4227 260.309C84.0846 260.5 83.8201 260.773 83.6294 261.128C83.4386 261.475 83.3433 261.874 83.3433 262.325V262.533C83.3433 262.992 83.4473 263.404 83.6554 263.768C83.8721 264.124 84.1713 264.401 84.5527 264.601C84.9342 264.8 85.3721 264.9 85.8662 264.9C86.2737 264.9 86.6422 264.83 86.9717 264.692C87.3098 264.553 87.6046 264.345 87.856 264.067L88.5453 264.874C88.2331 265.238 87.843 265.515 87.3748 265.706C86.9153 265.897 86.3994 265.992 85.8272 265.992ZM94.8092 265.914V264.458L94.7442 264.184V261.7C94.7442 261.172 94.5881 260.764 94.276 260.478C93.9725 260.183 93.513 260.036 92.8974 260.036C92.49 260.036 92.0911 260.105 91.701 260.244C91.3108 260.374 90.9814 260.552 90.7126 260.777L90.1924 259.841C90.5479 259.555 90.9727 259.338 91.4669 259.19C91.9698 259.034 92.4943 258.956 93.0405 258.956C93.9855 258.956 94.7138 259.186 95.2253 259.646C95.7369 260.105 95.9926 260.807 95.9926 261.752V265.914H94.8092ZM92.5463 265.992C92.0348 265.992 91.5839 265.905 91.1938 265.732C90.8123 265.559 90.5175 265.32 90.3095 265.017C90.1014 264.705 89.9973 264.353 89.9973 263.963C89.9973 263.591 90.084 263.252 90.2574 262.949C90.4395 262.645 90.73 262.403 91.1288 262.221C91.5363 262.039 92.0825 261.948 92.7674 261.948H94.9522V262.845H92.8194C92.1952 262.845 91.7747 262.949 91.5579 263.157C91.3412 263.365 91.2328 263.617 91.2328 263.911C91.2328 264.249 91.3672 264.523 91.636 264.731C91.9047 264.93 92.2775 265.03 92.7544 265.03C93.2226 265.03 93.6301 264.926 93.9769 264.718C94.3323 264.51 94.5881 264.206 94.7442 263.807L94.9912 264.666C94.8265 265.073 94.5361 265.398 94.1199 265.641C93.7038 265.875 93.1792 265.992 92.5463 265.992ZM99.6326 265.914L97.0706 259.021H98.2541L100.53 265.264H99.9707L102.338 259.021H103.391L105.706 265.264H105.16L107.488 259.021H108.606L106.031 265.914H104.835L102.663 260.218H103.027L100.829 265.914H99.6326ZM113.936 265.914V264.458L113.871 264.184V261.7C113.871 261.172 113.715 260.764 113.402 260.478C113.099 260.183 112.639 260.036 112.024 260.036C111.616 260.036 111.218 260.105 110.827 260.244C110.437 260.374 110.108 260.552 109.839 260.777L109.319 259.841C109.674 259.555 110.099 259.338 110.593 259.19C111.096 259.034 111.621 258.956 112.167 258.956C113.112 258.956 113.84 259.186 114.352 259.646C114.863 260.105 115.119 260.807 115.119 261.752V265.914H113.936ZM111.673 265.992C111.161 265.992 110.71 265.905 110.32 265.732C109.939 265.559 109.644 265.32 109.436 265.017C109.228 264.705 109.124 264.353 109.124 263.963C109.124 263.591 109.21 263.252 109.384 262.949C109.566 262.645 109.856 262.403 110.255 262.221C110.663 262.039 111.209 261.948 111.894 261.948H114.079V262.845H111.946C111.322 262.845 110.901 262.949 110.684 263.157C110.468 263.365 110.359 263.617 110.359 263.911C110.359 264.249 110.494 264.523 110.762 264.731C111.031 264.93 111.404 265.03 111.881 265.03C112.349 265.03 112.757 264.926 113.103 264.718C113.459 264.51 113.715 264.206 113.871 263.807L114.118 264.666C113.953 265.073 113.663 265.398 113.246 265.641C112.83 265.875 112.306 265.992 111.673 265.992ZM117.602 268.515C117.272 268.515 116.951 268.459 116.639 268.346C116.327 268.242 116.058 268.086 115.833 267.878L116.366 266.941C116.54 267.106 116.73 267.232 116.938 267.319C117.146 267.405 117.368 267.449 117.602 267.449C117.905 267.449 118.156 267.371 118.356 267.215C118.555 267.058 118.742 266.781 118.915 266.382L119.344 265.433L119.474 265.277L122.179 259.021H123.402L120.06 266.603C119.86 267.089 119.635 267.47 119.383 267.748C119.141 268.025 118.872 268.22 118.577 268.333C118.282 268.454 117.957 268.515 117.602 268.515ZM119.24 266.135L116.093 259.021H117.394L120.073 265.16L119.24 266.135ZM131.714 265.992C131.142 265.992 130.617 265.862 130.14 265.602C129.672 265.333 129.295 264.939 129.009 264.418C128.731 263.898 128.593 263.248 128.593 262.468C128.593 261.687 128.727 261.037 128.996 260.517C129.273 259.997 129.646 259.607 130.114 259.347C130.591 259.086 131.124 258.956 131.714 258.956C132.39 258.956 132.988 259.104 133.509 259.399C134.029 259.693 134.441 260.105 134.744 260.634C135.048 261.154 135.199 261.765 135.199 262.468C135.199 263.17 135.048 263.786 134.744 264.314C134.441 264.843 134.029 265.255 133.509 265.55C132.988 265.845 132.39 265.992 131.714 265.992ZM128.06 268.437V259.021H129.256V260.881L129.178 262.481L129.308 264.08V268.437H128.06ZM131.61 264.9C132.052 264.9 132.447 264.8 132.793 264.601C133.149 264.401 133.426 264.119 133.626 263.755C133.834 263.382 133.938 262.953 133.938 262.468C133.938 261.974 133.834 261.549 133.626 261.193C133.426 260.829 133.149 260.547 132.793 260.348C132.447 260.149 132.052 260.049 131.61 260.049C131.176 260.049 130.782 260.149 130.426 260.348C130.08 260.547 129.802 260.829 129.594 261.193C129.395 261.549 129.295 261.974 129.295 262.468C129.295 262.953 129.395 263.382 129.594 263.755C129.802 264.119 130.08 264.401 130.426 264.601C130.782 264.8 131.176 264.9 131.61 264.9ZM139.876 265.992C139.183 265.992 138.567 265.84 138.03 265.537C137.492 265.233 137.067 264.817 136.755 264.288C136.443 263.751 136.287 263.144 136.287 262.468C136.287 261.783 136.443 261.176 136.755 260.647C137.067 260.118 137.492 259.706 138.03 259.412C138.567 259.108 139.183 258.956 139.876 258.956C140.561 258.956 141.173 259.108 141.71 259.412C142.256 259.706 142.681 260.118 142.985 260.647C143.297 261.167 143.453 261.774 143.453 262.468C143.453 263.153 143.297 263.76 142.985 264.288C142.681 264.817 142.256 265.233 141.71 265.537C141.173 265.84 140.561 265.992 139.876 265.992ZM139.876 264.9C140.319 264.9 140.713 264.8 141.06 264.601C141.415 264.401 141.693 264.119 141.892 263.755C142.092 263.382 142.191 262.953 142.191 262.468C142.191 261.974 142.092 261.549 141.892 261.193C141.693 260.829 141.415 260.547 141.06 260.348C140.713 260.149 140.319 260.049 139.876 260.049C139.434 260.049 139.04 260.149 138.693 260.348C138.346 260.547 138.069 260.829 137.861 261.193C137.653 261.549 137.548 261.974 137.548 262.468C137.548 262.953 137.653 263.382 137.861 263.755C138.069 264.119 138.346 264.401 138.693 264.601C139.04 264.8 139.434 264.9 139.876 264.9ZM145.179 265.914V259.021H146.376V260.894L146.259 260.426C146.449 259.949 146.77 259.585 147.221 259.334C147.672 259.082 148.227 258.956 148.886 258.956V260.166C148.834 260.157 148.782 260.153 148.73 260.153C148.686 260.153 148.643 260.153 148.6 260.153C147.932 260.153 147.403 260.352 147.013 260.751C146.623 261.15 146.428 261.726 146.428 262.481V265.914H145.179ZM153.071 265.992C152.377 265.992 151.84 265.806 151.458 265.433C151.077 265.06 150.886 264.527 150.886 263.833V257.513H152.134V263.781C152.134 264.154 152.225 264.44 152.408 264.64C152.598 264.839 152.867 264.939 153.214 264.939C153.604 264.939 153.929 264.83 154.189 264.614L154.579 265.511C154.389 265.676 154.159 265.797 153.89 265.875C153.63 265.953 153.357 265.992 153.071 265.992ZM149.716 260.049V259.021H154.111V260.049H149.716ZM156.089 265.914V259.021H157.337V265.914H156.089ZM156.713 257.695C156.47 257.695 156.267 257.617 156.102 257.461C155.946 257.305 155.868 257.114 155.868 256.889C155.868 256.655 155.946 256.459 156.102 256.303C156.267 256.147 156.47 256.069 156.713 256.069C156.956 256.069 157.155 256.147 157.311 256.303C157.476 256.451 157.558 256.637 157.558 256.863C157.558 257.097 157.48 257.296 157.324 257.461C157.168 257.617 156.964 257.695 156.713 257.695ZM162.673 265.992C161.98 265.992 161.364 265.84 160.826 265.537C160.289 265.233 159.864 264.817 159.552 264.288C159.24 263.751 159.084 263.144 159.084 262.468C159.084 261.783 159.24 261.176 159.552 260.647C159.864 260.118 160.289 259.706 160.826 259.412C161.364 259.108 161.98 258.956 162.673 258.956C163.358 258.956 163.969 259.108 164.507 259.412C165.053 259.706 165.478 260.118 165.781 260.647C166.093 261.167 166.25 261.774 166.25 262.468C166.25 263.153 166.093 263.76 165.781 264.288C165.478 264.817 165.053 265.233 164.507 265.537C163.969 265.84 163.358 265.992 162.673 265.992ZM162.673 264.9C163.115 264.9 163.51 264.8 163.857 264.601C164.212 264.401 164.49 264.119 164.689 263.755C164.888 263.382 164.988 262.953 164.988 262.468C164.988 261.974 164.888 261.549 164.689 261.193C164.49 260.829 164.212 260.547 163.857 260.348C163.51 260.149 163.115 260.049 162.673 260.049C162.231 260.049 161.836 260.149 161.49 260.348C161.143 260.547 160.865 260.829 160.657 261.193C160.449 261.549 160.345 261.974 160.345 262.468C160.345 262.953 160.449 263.382 160.657 263.755C160.865 264.119 161.143 264.401 161.49 264.601C161.836 264.8 162.231 264.9 162.673 264.9ZM171.657 258.956C172.22 258.956 172.714 259.065 173.139 259.282C173.573 259.498 173.911 259.828 174.153 260.27C174.396 260.712 174.518 261.271 174.518 261.948V265.914H173.269V262.091C173.269 261.423 173.104 260.92 172.775 260.582C172.454 260.244 171.999 260.075 171.409 260.075C170.967 260.075 170.581 260.162 170.252 260.335C169.923 260.508 169.667 260.764 169.485 261.102C169.311 261.44 169.225 261.861 169.225 262.364V265.914H167.976V259.021H169.173V260.881L168.978 260.387C169.203 259.936 169.55 259.585 170.018 259.334C170.486 259.082 171.032 258.956 171.657 258.956ZM178.805 265.992C178.233 265.992 177.686 265.914 177.166 265.758C176.655 265.602 176.252 265.411 175.957 265.186L176.477 264.197C176.772 264.397 177.136 264.566 177.569 264.705C178.003 264.843 178.445 264.913 178.896 264.913C179.477 264.913 179.893 264.83 180.144 264.666C180.405 264.501 180.535 264.271 180.535 263.976C180.535 263.76 180.457 263.591 180.3 263.469C180.144 263.348 179.936 263.257 179.676 263.196C179.425 263.135 179.143 263.083 178.831 263.04C178.519 262.988 178.207 262.927 177.895 262.858C177.582 262.78 177.296 262.676 177.036 262.546C176.776 262.407 176.568 262.221 176.412 261.987C176.256 261.744 176.178 261.423 176.178 261.024C176.178 260.608 176.295 260.244 176.529 259.932C176.763 259.62 177.093 259.381 177.517 259.217C177.951 259.043 178.462 258.956 179.052 258.956C179.503 258.956 179.958 259.013 180.418 259.125C180.886 259.23 181.267 259.381 181.562 259.581L181.029 260.569C180.717 260.361 180.391 260.218 180.053 260.14C179.715 260.062 179.377 260.023 179.039 260.023C178.493 260.023 178.085 260.114 177.817 260.296C177.548 260.469 177.413 260.695 177.413 260.972C177.413 261.206 177.491 261.388 177.647 261.518C177.812 261.64 178.02 261.735 178.272 261.804C178.532 261.874 178.818 261.935 179.13 261.987C179.442 262.03 179.754 262.091 180.066 262.169C180.378 262.238 180.66 262.338 180.912 262.468C181.172 262.598 181.38 262.78 181.536 263.014C181.701 263.248 181.783 263.56 181.783 263.95C181.783 264.366 181.662 264.726 181.419 265.03C181.176 265.333 180.834 265.572 180.391 265.745C179.949 265.91 179.42 265.992 178.805 265.992ZM183.642 265.992C183.4 265.992 183.192 265.91 183.018 265.745C182.845 265.572 182.758 265.355 182.758 265.095C182.758 264.835 182.845 264.622 183.018 264.458C183.192 264.293 183.4 264.21 183.642 264.21C183.877 264.21 184.076 264.293 184.241 264.458C184.414 264.622 184.501 264.835 184.501 265.095C184.501 265.355 184.414 265.572 184.241 265.745C184.076 265.91 183.877 265.992 183.642 265.992Z" fill="black"/>
<path d="M0.42627 286.602H207.19V286.602C207.19 292.544 202.373 297.361 196.431 297.361H11.1857C5.24342 297.361 0.42627 292.544 0.42627 286.602V286.602Z" fill="url(#paint0_linear_2039_596)"/>
<path d="M0 286.74H100.754C106.696 286.74 111.513 291.557 111.513 297.5V297.5H10.7594C4.81716 297.5 0 292.682 0 286.74V286.74Z" fill="#DC7A74"/>
<rect x="22.7026" width="161.569" height="22.5948" rx="11.2974" fill="#899F61"/>
<path d="M36.5981 15.7969L36.5981 6.75473L38.6907 6.75473L38.6907 15.7969L36.5981 15.7969ZM40.8366 15.7969L40.8366 6.75473L42.5675 6.75473L46.4169 13.1359L45.4997 13.1359L49.2845 6.75473L51.0025 6.75473L51.0284 15.7969L49.0649 15.7969L49.052 9.76447L49.4137 9.76447L46.391 14.841L45.4481 14.841L42.3608 9.76447L42.8 9.76447L42.8 15.7969L40.8366 15.7969ZM53.1736 15.7969L53.1736 6.75473L55.2663 6.75473L55.2663 14.0918L59.8002 14.0918L59.8002 15.7969L53.1736 15.7969ZM64.6277 15.7969L64.6277 6.75473L66.3586 6.75473L70.208 13.1359L69.2909 13.1359L73.0756 6.75473L74.7936 6.75473L74.8195 15.7969L72.856 15.7969L72.8431 9.76447L73.2048 9.76447L70.1822 14.841L69.2392 14.841L66.1519 9.76447L66.5911 9.76447L66.5911 15.7969L64.6277 15.7969ZM81.3567 15.9519C80.6419 15.9519 79.9788 15.8356 79.3674 15.6031C78.7646 15.3706 78.2393 15.0434 77.7915 14.6214C77.3523 14.1994 77.0078 13.7043 76.7581 13.1359C76.517 12.5675 76.3964 11.9475 76.3964 11.2758C76.3964 10.6041 76.517 9.98407 76.7581 9.4157C77.0078 8.84734 77.3566 8.35218 77.8044 7.93021C78.2522 7.50824 78.7775 7.181 79.3803 6.94849C79.9831 6.71598 80.6376 6.59972 81.3437 6.59972C82.0585 6.59972 82.713 6.71598 83.3072 6.94849C83.91 7.181 84.431 7.50824 84.8702 7.93021C85.318 8.35218 85.6668 8.84734 85.9165 9.4157C86.1662 9.97546 86.2911 10.5955 86.2911 11.2758C86.2911 11.9475 86.1662 12.5718 85.9165 13.1488C85.6668 13.7172 85.318 14.2123 84.8702 14.6343C84.431 15.0477 83.91 15.3706 83.3072 15.6031C82.713 15.8356 82.0628 15.9519 81.3567 15.9519ZM81.3437 14.1693C81.7485 14.1693 82.1188 14.1004 82.4546 13.9626C82.7991 13.8248 83.1005 13.6268 83.3589 13.3684C83.6172 13.1101 83.8153 12.8044 83.9531 12.4513C84.0994 12.0982 84.1726 11.7064 84.1726 11.2758C84.1726 10.8452 84.0994 10.4534 83.9531 10.1003C83.8153 9.74725 83.6172 9.44154 83.3589 9.18319C83.1091 8.92485 82.812 8.72678 82.4676 8.58899C82.1231 8.45121 81.7485 8.38232 81.3437 8.38232C80.939 8.38232 80.5644 8.45121 80.2199 8.58899C79.8841 8.72678 79.587 8.92485 79.3286 9.18319C79.0703 9.44154 78.8679 9.74725 78.7215 10.1003C78.5837 10.4534 78.5149 10.8452 78.5149 11.2758C78.5149 11.6978 78.5837 12.0896 78.7215 12.4513C78.8679 12.8044 79.066 13.1101 79.3157 13.3684C79.5741 13.6268 79.8755 13.8248 80.2199 13.9626C80.5644 14.1004 80.939 14.1693 81.3437 14.1693ZM92.2428 15.9519C91.5366 15.9519 90.8778 15.8356 90.2664 15.6031C89.6636 15.3706 89.1383 15.0434 88.6905 14.6214C88.2513 14.1994 87.9068 13.7043 87.6571 13.1359C87.416 12.5675 87.2954 11.9475 87.2954 11.2758C87.2954 10.6041 87.416 9.98407 87.6571 9.4157C87.9068 8.84734 88.2556 8.35218 88.7034 7.93021C89.1512 7.50824 89.6765 7.181 90.2793 6.94849C90.8821 6.71598 91.5366 6.59972 92.2428 6.59972C92.9575 6.59972 93.612 6.71598 94.2062 6.94849C94.809 7.181 95.33 7.50824 95.7692 7.93021C96.217 8.34356 96.5658 8.83442 96.8155 9.40279C97.0652 9.97115 97.1901 10.5955 97.1901 11.2758C97.1901 11.9475 97.0652 12.5718 96.8155 13.1488C96.5658 13.7172 96.217 14.2123 95.7692 14.6343C95.33 15.0477 94.809 15.3706 94.2062 15.6031C93.612 15.8356 92.9575 15.9519 92.2428 15.9519ZM95.2008 17.8766C94.8478 17.8766 94.5119 17.8378 94.1933 17.7603C93.8833 17.6828 93.5732 17.5579 93.2632 17.3857C92.9618 17.2135 92.6432 16.981 92.3073 16.6882C91.9801 16.3954 91.6227 16.0337 91.2352 15.6031L93.4312 15.0477C93.6637 15.3663 93.879 15.6203 94.077 15.8098C94.2751 15.9992 94.4645 16.1327 94.6454 16.2102C94.8348 16.2877 95.0329 16.3265 95.2396 16.3265C95.7907 16.3265 96.2816 16.1026 96.7122 15.6548L97.6422 16.7657C97.0308 17.5063 96.217 17.8766 95.2008 17.8766ZM92.2428 14.1693C92.6475 14.1693 93.0178 14.1004 93.3536 13.9626C93.6981 13.8248 93.9995 13.6268 94.2579 13.3684C94.5162 13.1101 94.7143 12.8044 94.8521 12.4513C94.9985 12.0896 95.0717 11.6978 95.0717 11.2758C95.0717 10.8452 94.9985 10.4534 94.8521 10.1003C94.7143 9.74725 94.5162 9.44154 94.2579 9.18319C93.9995 8.92485 93.6981 8.72678 93.3536 8.58899C93.0178 8.45121 92.6475 8.38232 92.2428 8.38232C91.838 8.38232 91.4634 8.45121 91.1189 8.58899C90.7745 8.72678 90.4731 8.92485 90.2147 9.18319C89.965 9.44154 89.7669 9.74725 89.6205 10.1003C89.4828 10.4534 89.4139 10.8452 89.4139 11.2758C89.4139 11.6978 89.4828 12.0896 89.6205 12.4513C89.7669 12.8044 89.965 13.1101 90.2147 13.3684C90.4731 13.6268 90.7745 13.8248 91.1189 13.9626C91.4634 14.1004 91.838 14.1693 92.2428 14.1693ZM102.021 12.968L102.021 11.3533L105.676 11.3533L105.676 12.968L102.021 12.968ZM113.568 15.9519C112.939 15.9519 112.315 15.8701 111.695 15.7065C111.084 15.5342 110.558 15.2931 110.119 14.9831L110.946 13.3813C111.29 13.6311 111.686 13.8291 112.134 13.9755C112.591 14.1219 113.051 14.1951 113.516 14.1951C114.042 14.1951 114.455 14.0918 114.756 13.8851C115.058 13.6784 115.208 13.3899 115.208 13.0196C115.208 12.7871 115.148 12.5805 115.028 12.3996C114.907 12.2188 114.692 12.081 114.382 11.9863C114.08 11.8915 113.654 11.8442 113.103 11.8442L110.791 11.8442L111.256 6.75473L116.771 6.75473L116.771 8.43399L112.005 8.43399L113.09 7.4781L112.767 11.1079L111.682 10.152L113.594 10.152C114.489 10.152 115.208 10.2769 115.751 10.5266C116.302 10.7677 116.703 11.0993 116.952 11.5212C117.202 11.9432 117.327 12.4211 117.327 12.9551C117.327 13.489 117.193 13.9841 116.926 14.4406C116.66 14.8884 116.246 15.2543 115.686 15.5385C115.135 15.8141 114.429 15.9519 113.568 15.9519ZM122.051 15.9519C121.311 15.9519 120.647 15.771 120.062 15.4094C119.476 15.0391 119.016 14.5051 118.68 13.8076C118.344 13.1101 118.176 12.2661 118.176 11.2758C118.176 10.2855 118.344 9.44154 118.68 8.744C119.016 8.04647 119.476 7.51685 120.062 7.15517C120.647 6.78487 121.311 6.59972 122.051 6.59972C122.8 6.59972 123.463 6.78487 124.04 7.15517C124.626 7.51685 125.087 8.04647 125.423 8.744C125.758 9.44154 125.926 10.2855 125.926 11.2758C125.926 12.2661 125.758 13.1101 125.423 13.8076C125.087 14.5051 124.626 15.0391 124.04 15.4094C123.463 15.771 122.8 15.9519 122.051 15.9519ZM122.051 14.1822C122.404 14.1822 122.71 14.0832 122.968 13.8851C123.235 13.687 123.442 13.3727 123.588 12.9421C123.743 12.5116 123.821 11.9561 123.821 11.2758C123.821 10.5955 123.743 10.04 123.588 9.60946C123.442 9.17889 123.235 8.86456 122.968 8.6665C122.71 8.46843 122.404 8.3694 122.051 8.3694C121.707 8.3694 121.401 8.46843 121.134 8.6665C120.876 8.86456 120.669 9.17889 120.514 9.60946C120.368 10.04 120.294 10.5955 120.294 11.2758C120.294 11.9561 120.368 12.5116 120.514 12.9421C120.669 13.3727 120.876 13.687 121.134 13.8851C121.401 14.0832 121.707 14.1822 122.051 14.1822ZM130.818 15.9519C130.078 15.9519 129.415 15.771 128.829 15.4094C128.243 15.0391 127.783 14.5051 127.447 13.8076C127.111 13.1101 126.943 12.2661 126.943 11.2758C126.943 10.2855 127.111 9.44154 127.447 8.744C127.783 8.04647 128.243 7.51685 128.829 7.15517C129.415 6.78487 130.078 6.59972 130.818 6.59972C131.567 6.59972 132.231 6.78487 132.808 7.15517C133.393 7.51685 133.854 8.04647 134.19 8.744C134.526 9.44154 134.693 10.2855 134.693 11.2758C134.693 12.2661 134.526 13.1101 134.19 13.8076C133.854 14.5051 133.393 15.0391 132.808 15.4094C132.231 15.771 131.567 15.9519 130.818 15.9519ZM130.818 14.1822C131.171 14.1822 131.477 14.0832 131.735 13.8851C132.002 13.687 132.209 13.3727 132.355 12.9421C132.51 12.5116 132.588 11.9561 132.588 11.2758C132.588 10.5955 132.51 10.04 132.355 9.60946C132.209 9.17889 132.002 8.86456 131.735 8.6665C131.477 8.46843 131.171 8.3694 130.818 8.3694C130.474 8.3694 130.168 8.46843 129.901 8.6665C129.643 8.86456 129.436 9.17889 129.281 9.60946C129.135 10.04 129.062 10.5955 129.062 11.2758C129.062 11.9561 129.135 12.5116 129.281 12.9421C129.436 13.3727 129.643 13.687 129.901 13.8851C130.168 14.0832 130.474 14.1822 130.818 14.1822ZM139.585 15.9519C138.845 15.9519 138.182 15.771 137.596 15.4094C137.011 15.0391 136.55 14.5051 136.214 13.8076C135.878 13.1101 135.71 12.2661 135.71 11.2758C135.71 10.2855 135.878 9.44154 136.214 8.744C136.55 8.04647 137.011 7.51685 137.596 7.15517C138.182 6.78487 138.845 6.59972 139.585 6.59972C140.335 6.59972 140.998 6.78487 141.575 7.15517C142.16 7.51685 142.621 8.04647 142.957 8.744C143.293 9.44154 143.461 10.2855 143.461 11.2758C143.461 12.2661 143.293 13.1101 142.957 13.8076C142.621 14.5051 142.16 15.0391 141.575 15.4094C140.998 15.771 140.335 15.9519 139.585 15.9519ZM139.585 14.1822C139.939 14.1822 140.244 14.0832 140.503 13.8851C140.77 13.687 140.976 13.3727 141.123 12.9421C141.278 12.5116 141.355 11.9561 141.355 11.2758C141.355 10.5955 141.278 10.04 141.123 9.60946C140.976 9.17889 140.77 8.86456 140.503 8.6665C140.244 8.46843 139.939 8.3694 139.585 8.3694C139.241 8.3694 138.935 8.46843 138.668 8.6665C138.41 8.86456 138.203 9.17889 138.048 9.60946C137.902 10.04 137.829 10.5955 137.829 11.2758C137.829 11.9561 137.902 12.5116 138.048 12.9421C138.203 13.3727 138.41 13.687 138.668 13.8851C138.935 14.0832 139.241 14.1822 139.585 14.1822ZM148.704 15.7969L148.704 6.75473L152.618 6.75473C153.427 6.75473 154.125 6.88821 154.711 7.15517C155.296 7.41351 155.748 7.78812 156.067 8.27898C156.385 8.76984 156.545 9.35542 156.545 10.0357C156.545 10.7074 156.385 11.2887 156.067 11.7796C155.748 12.2704 155.296 12.6493 154.711 12.9163C154.125 13.1747 153.427 13.3038 152.618 13.3038L149.867 13.3038L150.797 12.3609L150.797 15.7969L148.704 15.7969ZM150.797 12.5934L149.867 11.5987L152.502 11.5987C153.148 11.5987 153.63 11.4609 153.948 11.1854C154.267 10.9098 154.426 10.5266 154.426 10.0357C154.426 9.53627 154.267 9.14875 153.948 8.87318C153.63 8.59761 153.148 8.45982 152.502 8.45982L149.867 8.45982L150.797 7.46518L150.797 12.5934ZM161.243 15.9002C160.493 15.9002 159.826 15.7495 159.24 15.4481C158.655 15.1381 158.194 14.7118 157.858 14.1693C157.531 13.6268 157.367 13.011 157.367 12.3221C157.367 11.6246 157.531 11.0088 157.858 10.4749C158.194 9.9324 158.655 9.51043 159.24 9.20903C159.826 8.89901 160.493 8.744 161.243 8.744C161.975 8.744 162.612 8.89901 163.154 9.20903C163.697 9.51043 164.097 9.94531 164.356 10.5137L162.793 11.3533C162.612 11.0261 162.384 10.7849 162.108 10.6299C161.841 10.4749 161.548 10.3974 161.23 10.3974C160.885 10.3974 160.575 10.4749 160.3 10.6299C160.024 10.7849 159.804 11.0045 159.641 11.2887C159.486 11.5729 159.408 11.9174 159.408 12.3221C159.408 12.7268 159.486 13.0713 159.641 13.3555C159.804 13.6397 160.024 13.8593 160.3 14.0143C160.575 14.1693 160.885 14.2468 161.23 14.2468C161.548 14.2468 161.841 14.1736 162.108 14.0272C162.384 13.8722 162.612 13.6268 162.793 13.2909L164.356 14.1435C164.097 14.7032 163.697 15.1381 163.154 15.4481C162.612 15.7495 161.975 15.9002 161.243 15.9002ZM167.854 15.9002C167.26 15.9002 166.687 15.8313 166.136 15.6935C165.593 15.5471 165.163 15.3663 164.844 15.151L165.516 13.7043C165.835 13.9023 166.209 14.0659 166.64 14.1951C167.079 14.3157 167.509 14.376 167.931 14.376C168.396 14.376 168.724 14.32 168.913 14.208C169.111 14.0961 169.21 13.9411 169.21 13.743C169.21 13.5794 169.133 13.4588 168.978 13.3813C168.831 13.2952 168.633 13.2306 168.384 13.1876C168.134 13.1445 167.858 13.1015 167.557 13.0584C167.264 13.0153 166.967 12.9594 166.666 12.8905C166.364 12.813 166.089 12.701 165.839 12.5546C165.589 12.4082 165.387 12.2102 165.232 11.9604C165.085 11.7107 165.012 11.3878 165.012 10.9916C165.012 10.5524 165.137 10.1649 165.387 9.82906C165.645 9.49321 166.015 9.23055 166.498 9.0411C166.98 8.84303 167.557 8.744 168.229 8.744C168.702 8.744 169.184 8.79567 169.675 8.89901C170.166 9.00235 170.575 9.15305 170.902 9.35112L170.231 10.7849C169.895 10.5869 169.555 10.4534 169.21 10.3845C168.874 10.307 168.547 10.2682 168.229 10.2682C167.781 10.2682 167.453 10.3285 167.247 10.4491C167.04 10.5697 166.937 10.7247 166.937 10.9141C166.937 11.0863 167.01 11.2155 167.156 11.3016C167.311 11.3878 167.514 11.4566 167.764 11.5083C168.013 11.56 168.285 11.6073 168.577 11.6504C168.879 11.6849 169.18 11.7408 169.482 11.8183C169.783 11.8958 170.054 12.0078 170.295 12.1542C170.545 12.292 170.747 12.4857 170.902 12.7355C171.057 12.9766 171.135 13.2952 171.135 13.6913C171.135 14.1219 171.006 14.5051 170.747 14.841C170.489 15.1682 170.114 15.4266 169.624 15.616C169.141 15.8055 168.551 15.9002 167.854 15.9002Z" fill="white"/>
<rect y="136.998" width="206.503" height="40.356" fill="#39422F"/>
<rect y="136.998" width="206.503" height="40.356" stroke="white"/>
<path d="M48.4217 166.69C46.8988 166.69 45.5353 166.318 44.3311 165.574C43.1269 164.813 42.1795 163.715 41.4889 162.28C40.7983 160.846 40.453 159.111 40.453 157.074C40.453 155.038 40.7983 153.302 41.4889 151.868C42.1795 150.434 43.1269 149.345 44.3311 148.601C45.5353 147.839 46.8988 147.459 48.4217 147.459C49.9623 147.459 51.3259 147.839 52.5123 148.601C53.7165 149.345 54.6639 150.434 55.3545 151.868C56.0451 153.302 56.3904 155.038 56.3904 157.074C56.3904 159.111 56.0451 160.846 55.3545 162.28C54.6639 163.715 53.7165 164.813 52.5123 165.574C51.3259 166.318 49.9623 166.69 48.4217 166.69ZM48.4217 163.051C49.1477 163.051 49.7764 162.847 50.3076 162.44C50.8566 162.033 51.2816 161.386 51.5826 160.501C51.9014 159.615 52.0608 158.473 52.0608 157.074C52.0608 155.675 51.9014 154.533 51.5826 153.648C51.2816 152.762 50.8566 152.116 50.3076 151.709C49.7764 151.301 49.1477 151.098 48.4217 151.098C47.7134 151.098 47.0847 151.301 46.5358 151.709C46.0045 152.116 45.5795 152.762 45.2608 153.648C44.9597 154.533 44.8092 155.675 44.8092 157.074C44.8092 158.473 44.9597 159.615 45.2608 160.501C45.5795 161.386 46.0045 162.033 46.5358 162.44C47.0847 162.847 47.7134 163.051 48.4217 163.051ZM64.2515 166.69C62.9588 166.69 61.6749 166.522 60.3999 166.185C59.1249 165.831 58.0447 165.335 57.1593 164.698L58.8327 161.404C59.5411 161.917 60.3645 162.325 61.303 162.626C62.2416 162.927 63.189 163.077 64.1452 163.077C65.2254 163.077 66.0754 162.865 66.6952 162.44C67.315 162.015 67.6249 161.43 67.6249 160.687C67.6249 159.978 67.3504 159.421 66.8015 159.013C66.2525 158.606 65.3671 158.402 64.1452 158.402L62.1796 158.402L62.1796 155.56L67.3593 149.69L67.8374 151.231L58.089 151.231L58.089 147.777L71.1046 147.777L71.1046 150.566L65.9515 156.437L63.7733 155.188L65.0218 155.188C67.3061 155.188 69.0327 155.702 70.2014 156.729C71.3702 157.756 71.9546 159.075 71.9546 160.687C71.9546 161.732 71.6801 162.714 71.1311 163.635C70.5822 164.538 69.741 165.273 68.6077 165.84C67.4744 166.407 66.0223 166.69 64.2515 166.69ZM74.2867 160.554L74.2867 157.234L81.8038 157.234L81.8038 160.554L74.2867 160.554ZM83.6132 166.371L83.6132 163.582L90.785 156.809C91.3517 156.295 91.7679 155.835 92.0335 155.427C92.2991 155.02 92.4762 154.648 92.5647 154.312C92.671 153.975 92.7241 153.665 92.7241 153.382C92.7241 152.638 92.4673 152.072 91.9538 151.682C91.458 151.275 90.7231 151.071 89.7491 151.071C88.9699 151.071 88.2439 151.222 87.571 151.523C86.9158 151.824 86.358 152.293 85.8976 152.931L82.7632 150.912C83.4715 149.849 84.4632 149.008 85.7382 148.388C87.0132 147.769 88.483 147.459 90.1475 147.459C91.5288 147.459 92.733 147.689 93.76 148.149C94.8048 148.592 95.6105 149.221 96.1772 150.035C96.7616 150.85 97.0538 151.824 97.0538 152.957C97.0538 153.559 96.9741 154.161 96.8147 154.763C96.673 155.348 96.372 155.967 95.9116 156.623C95.4689 157.278 94.8137 158.013 93.946 158.827L87.996 164.432L87.1726 162.865L97.6647 162.865L97.6647 166.371L83.6132 166.371ZM105.762 166.69C104.469 166.69 103.186 166.522 101.911 166.185C100.653 165.831 99.5731 165.335 98.6699 164.698L100.37 161.404C101.078 161.917 101.893 162.325 102.814 162.626C103.752 162.927 104.7 163.077 105.656 163.077C106.736 163.077 107.586 162.865 108.206 162.44C108.826 162.015 109.136 161.422 109.136 160.66C109.136 160.182 109.012 159.757 108.764 159.385C108.516 159.013 108.073 158.73 107.436 158.535C106.816 158.34 105.939 158.243 104.806 158.243L100.051 158.243L101.007 147.777L112.35 147.777L112.35 151.231L102.548 151.231L104.779 149.265L104.115 156.729L101.884 154.763L105.815 154.763C107.657 154.763 109.136 155.02 110.251 155.534C111.384 156.029 112.208 156.711 112.721 157.579C113.235 158.447 113.492 159.429 113.492 160.527C113.492 161.625 113.217 162.643 112.668 163.582C112.119 164.503 111.269 165.255 110.118 165.84C108.985 166.407 107.533 166.69 105.762 166.69ZM123.206 166.69C121.683 166.69 120.32 166.318 119.116 165.574C117.912 164.813 116.964 163.715 116.274 162.28C115.583 160.846 115.238 159.111 115.238 157.074C115.238 155.038 115.583 153.302 116.274 151.868C116.964 150.434 117.912 149.345 119.116 148.601C120.32 147.839 121.683 147.459 123.206 147.459C124.747 147.459 126.111 147.839 127.297 148.601C128.501 149.345 129.449 150.434 130.139 151.868C130.83 153.302 131.175 155.038 131.175 157.074C131.175 159.111 130.83 160.846 130.139 162.28C129.449 163.715 128.501 164.813 127.297 165.574C126.111 166.318 124.747 166.69 123.206 166.69ZM123.206 163.051C123.932 163.051 124.561 162.847 125.092 162.44C125.641 162.033 126.066 161.386 126.367 160.501C126.686 159.615 126.845 158.473 126.845 157.074C126.845 155.675 126.686 154.533 126.367 153.648C126.066 152.762 125.641 152.116 125.092 151.709C124.561 151.301 123.932 151.098 123.206 151.098C122.498 151.098 121.869 151.301 121.32 151.709C120.789 152.116 120.364 152.762 120.045 153.648C119.744 154.533 119.594 155.675 119.594 157.074C119.594 158.473 119.744 159.615 120.045 160.501C120.364 161.386 120.789 162.033 121.32 162.44C121.869 162.847 122.498 163.051 123.206 163.051ZM159.966 151.868C161.1 151.868 162.1 152.098 162.968 152.559C163.853 153.001 164.544 153.692 165.04 154.63C165.553 155.551 165.81 156.738 165.81 158.19L165.81 166.371L161.666 166.371L161.666 158.827C161.666 157.676 161.427 156.826 160.949 156.277C160.471 155.728 159.798 155.454 158.931 155.454C158.328 155.454 157.788 155.596 157.31 155.879C156.832 156.145 156.46 156.552 156.195 157.101C155.929 157.65 155.796 158.349 155.796 159.199L155.796 166.371L151.652 166.371L151.652 158.827C151.652 157.676 151.413 156.826 150.935 156.277C150.475 155.728 149.811 155.454 148.943 155.454C148.341 155.454 147.801 155.596 147.323 155.879C146.845 156.145 146.473 156.552 146.207 157.101C145.942 157.65 145.809 158.349 145.809 159.199L145.809 166.371L141.665 166.371L141.665 152.081L145.623 152.081L145.623 155.985L144.879 154.843C145.375 153.869 146.074 153.134 146.977 152.638C147.898 152.125 148.943 151.868 150.112 151.868C151.422 151.868 152.564 152.204 153.538 152.877C154.53 153.533 155.185 154.542 155.504 155.905L154.043 155.507C154.521 154.391 155.283 153.506 156.327 152.851C157.39 152.196 158.603 151.868 159.966 151.868ZM169.524 166.371L169.524 146.662L173.668 146.662L173.668 166.371L169.524 166.371Z" fill="#F6F4F3"/>
<defs>
<linearGradient id="paint0_linear_2039_596" x1="103.808" y1="286.602" x2="103.808" y2="297.361" gradientUnits="userSpaceOnUse">
<stop offset="0.365385" stop-color="#DAB9A0"/>
<stop offset="1" stop-color="white"/>
</linearGradient>
</defs>
</svg>
