<svg width="326" height="76" viewBox="0 0 326 76" fill="none" xmlns="http://www.w3.org/2000/svg">
<path d="M20.2238 46.7494C18.217 46.7524 16.2932 46.4924 14.4525 45.9695C12.6118 45.4227 11.1291 44.7201 10.0045 43.8617L11.9666 39.4868C13.0432 40.2497 14.3107 40.8809 15.7691 41.3805C17.2513 41.8561 18.745 42.0929 20.2501 42.0907C21.3968 42.089 22.3164 41.9801 23.0088 41.7641C23.7251 41.5241 24.25 41.2008 24.5836 40.7942C24.9173 40.3876 25.0836 39.9214 25.0825 39.3958C25.0811 38.7269 24.8172 38.2017 24.2909 37.8202C23.7644 37.4148 23.0709 37.0933 22.2104 36.8557C21.3498 36.5941 20.3937 36.3566 19.342 36.1432C18.3142 35.9058 17.2744 35.6206 16.2225 35.2877C15.1945 34.9547 14.25 34.5261 13.3888 34.0017C12.5277 33.4774 11.8215 32.7856 11.2702 31.9263C10.7429 31.067 10.4778 29.9684 10.4751 28.6306C10.4722 27.1971 10.8517 25.8945 11.6139 24.7227C12.3998 23.527 13.5685 22.5816 15.12 21.8865C16.6953 21.1675 18.6656 20.8062 21.0308 20.8028C22.6076 20.8004 24.1609 20.9893 25.6907 21.3693C27.2204 21.7254 28.5714 22.2729 29.7435 23.0118L27.9607 27.4223C26.7887 26.7551 25.6171 26.267 24.4458 25.9582C23.2745 25.6254 22.1274 25.4599 21.0045 25.4615C19.8816 25.4632 18.9621 25.5959 18.2459 25.8598C17.5297 26.1236 17.0168 26.4708 16.7071 26.9013C16.3973 27.3079 16.243 27.7859 16.2441 28.3354C16.2455 28.9804 16.5093 29.5057 17.0358 29.911C17.5621 30.2925 18.2556 30.6021 19.1162 30.8397C19.9767 31.0774 20.9209 31.3149 21.9487 31.5523C23.0004 31.7897 24.0402 32.0629 25.0681 32.3719C26.12 32.681 27.0764 33.0977 27.9376 33.622C28.7987 34.1463 29.493 34.8382 30.0203 35.6975C30.5716 36.5567 30.8486 37.6433 30.8512 38.9573C30.8541 40.3669 30.4626 41.6576 29.6766 42.8294C28.8906 44.0012 27.7099 44.9466 26.1346 45.6657C24.5831 46.3847 22.6129 46.7459 20.2238 46.7494ZM36.2666 46.2958L36.2153 21.2105L48.4713 21.1925C51.6249 21.1879 53.9913 21.7817 55.5705 22.9739C57.1737 24.1661 57.9772 25.7417 57.9812 27.7008C57.9839 29.0148 57.6637 30.162 57.0207 31.1425C56.3776 32.099 55.4952 32.8409 54.3734 33.3682C53.2516 33.8954 51.962 34.1601 50.5047 34.1623L51.1825 32.692C52.7593 32.6897 54.1575 32.9504 55.377 33.4742C56.5965 33.9741 57.5417 34.7253 58.2127 35.7278C58.9076 36.7302 59.2565 37.96 59.2595 39.4174C59.2639 41.5675 58.4192 43.2531 56.7254 44.474C55.0316 45.671 52.5363 46.272 49.2393 46.2768L36.2666 46.2958ZM42.0273 41.9154L48.8003 41.9054C50.3055 41.9032 51.4398 41.6626 52.2033 41.1837C52.9907 40.6808 53.3833 39.8919 53.3811 38.8168C53.3789 37.7656 52.9831 36.9897 52.1937 36.4892C51.4281 35.9647 50.2928 35.7035 48.7877 35.7058L41.5846 35.7163L41.5759 31.4877L47.7756 31.4786C49.1852 31.4765 50.2598 31.236 50.9994 30.7571C51.7629 30.2543 52.1436 29.5011 52.1415 28.4977C52.1395 27.5182 51.7558 26.7901 50.9903 26.3134C50.2487 25.8128 49.1731 25.5635 47.7635 25.5656L41.9939 25.5741L42.0273 41.9154ZM63.9752 38.407L63.966 33.9275L74.1077 33.9126L74.1168 38.3921L63.9752 38.407ZM81.8828 46.2289L81.8359 23.2937L84.3495 25.7986L76.8239 25.8096L76.8144 21.1509L87.6369 21.135L87.6882 46.2204L81.8828 46.2289ZM104.697 46.6254C102.404 46.6288 100.408 46.1539 98.7094 45.2008C97.0351 44.2476 95.7422 42.8519 94.8306 41.0136C93.919 39.1754 93.4604 36.9064 93.4549 34.2067C93.449 31.316 93.9815 28.8664 95.0525 26.858C96.1473 24.8495 97.6493 23.3183 99.5585 22.2643C101.491 21.2103 103.712 20.6814 106.221 20.6777C107.559 20.6758 108.837 20.8172 110.056 21.1021C111.275 21.387 112.327 21.8155 113.212 22.3876L111.071 26.6553C110.377 26.1785 109.636 25.857 108.847 25.691C108.058 25.501 107.234 25.4066 106.374 25.4079C104.2 25.4111 102.481 26.0706 101.217 27.3865C99.9539 28.7023 99.3248 30.6503 99.33 33.2305C99.3309 33.6606 99.3319 34.1384 99.333 34.664C99.3579 35.1896 99.4307 35.715 99.5512 36.2405L97.9355 34.7377C98.3875 33.8053 98.9712 33.028 99.6867 32.4058C100.402 31.7597 101.249 31.2806 102.228 30.9686C103.231 30.6327 104.33 30.4638 105.524 30.4621C107.149 30.4597 108.607 30.7801 109.898 31.4232C111.189 32.0664 112.219 32.9727 112.986 34.1422C113.776 35.3117 114.173 36.6849 114.177 38.2617C114.18 39.9579 113.753 41.4398 112.896 42.7073C112.062 43.9508 110.929 44.92 109.497 45.615C108.089 46.286 106.489 46.6228 104.697 46.6254ZM104.366 42.2897C105.178 42.2885 105.894 42.1441 106.515 41.8565C107.159 41.545 107.66 41.1023 108.017 40.5284C108.375 39.9545 108.552 39.2972 108.551 38.5566C108.549 37.4099 108.152 36.5026 107.363 35.8348C106.597 35.1431 105.569 34.7982 104.279 34.8001C103.419 34.8013 102.666 34.9697 102.022 35.3051C101.378 35.6166 100.865 36.0594 100.484 36.6333C100.127 37.1833 99.9486 37.8286 99.9502 38.5692C99.9516 39.286 100.132 39.9308 100.492 40.5036C100.851 41.0526 101.354 41.4938 101.999 41.8273C102.645 42.137 103.434 42.2911 104.366 42.2897ZM118.355 38.3272L118.346 33.8477L128.488 33.8328L128.497 38.3123L118.355 38.3272ZM132.352 46.1548L132.345 42.392L142.002 33.2396C142.765 32.5456 143.325 31.9237 143.682 31.3736C144.04 30.8236 144.277 30.3216 144.396 29.8675C144.538 29.4133 144.609 28.9951 144.608 28.6129C144.606 27.6095 144.258 26.8455 143.565 26.3209C142.894 25.7724 141.902 25.4991 140.588 25.501C139.537 25.5026 138.558 25.7071 137.651 26.1146C136.768 26.522 136.017 27.1562 135.397 28.0172L131.163 25.2998C132.116 23.865 133.451 22.7282 135.17 21.8895C136.888 21.0508 138.87 20.6298 141.116 20.6265C142.98 20.6238 144.605 20.932 145.992 21.5511C147.402 22.1463 148.491 22.9928 149.258 24.0907C150.049 25.1885 150.445 26.5019 150.449 28.0309C150.45 28.8432 150.344 29.6557 150.131 30.4683C149.942 31.2569 149.537 32.0937 148.918 32.9786C148.322 33.8634 147.44 34.8562 146.272 35.9569L138.26 43.5301L137.145 41.4174L151.3 41.3966L151.31 46.127L132.352 46.1548ZM163.669 46.5389C161.925 46.5415 160.192 46.317 158.471 45.8656C156.774 45.3903 155.315 44.7235 154.095 43.8652L156.379 39.4182C157.336 40.1096 158.436 40.6575 159.68 41.0618C160.947 41.4661 162.225 41.6673 163.515 41.6654C164.973 41.6632 166.119 41.3749 166.954 40.8003C167.789 40.2257 168.205 39.4247 168.203 38.3974C168.202 37.7524 168.033 37.1792 167.698 36.678C167.362 36.1768 166.764 35.7954 165.904 35.5339C165.067 35.2723 163.884 35.1426 162.355 35.1449L155.941 35.1543L157.202 21.0329L172.504 21.0105L172.513 25.6692L159.29 25.6886L162.295 23.0323L161.419 33.1036L158.404 30.4561L163.707 30.4483C166.192 30.4447 168.188 30.7882 169.694 31.4788C171.225 32.1455 172.337 33.0637 173.033 34.2333C173.728 35.4029 174.077 36.7284 174.08 38.2096C174.083 39.6908 173.715 41.0651 172.977 42.3324C172.239 43.5758 171.095 44.5928 169.543 45.3835C168.016 46.1503 166.058 46.5354 163.669 46.5389ZM188.637 46.5023C186.582 46.5053 184.741 46.0063 183.115 45.0052C181.488 43.9803 180.207 42.501 179.271 40.5672C178.336 38.6334 177.865 36.2928 177.859 33.5453C177.854 30.7979 178.315 28.4559 179.243 26.5194C180.17 24.5829 181.445 23.1117 183.068 22.1059C184.69 21.0762 186.529 20.5599 188.584 20.5569C190.662 20.5538 192.503 21.0648 194.106 22.0897C195.732 23.0907 197.013 24.5581 197.949 26.4919C198.885 28.4257 199.355 30.7663 199.361 33.5138C199.367 36.2612 198.906 38.6032 197.978 40.5397C197.05 42.4762 195.775 43.9593 194.152 44.989C192.554 45.9948 190.715 46.4992 188.637 46.5023ZM188.627 41.5927C189.606 41.5913 190.454 41.3153 191.169 40.7647C191.909 40.2142 192.48 39.3413 192.884 38.1462C193.312 36.951 193.524 35.4097 193.52 33.5223C193.516 31.635 193.298 30.0943 192.865 28.9004C192.457 27.7065 191.881 26.8353 191.14 26.2869C190.422 25.7385 189.573 25.465 188.594 25.4664C187.638 25.4678 186.79 25.7438 186.051 26.2944C185.335 26.8449 184.764 27.7178 184.336 28.9129C183.932 30.1081 183.733 31.6493 183.736 33.5367C183.74 35.4241 183.946 36.9647 184.355 38.1587C184.788 39.3526 185.363 40.2238 186.081 40.7722C186.822 41.3206 187.671 41.5941 188.627 41.5927ZM217.331 46.4601C215.348 46.4631 213.52 46.1552 211.846 45.5364C210.196 44.8938 208.749 43.9881 207.505 42.8193C206.284 41.6504 205.325 40.2781 204.629 38.7023C203.957 37.1265 203.619 35.3949 203.615 33.5075C203.611 31.6202 203.942 29.8876 204.608 28.3098C205.298 26.732 206.262 25.3569 207.502 24.1844C208.742 23.0119 210.198 22.1139 211.869 21.4903C213.54 20.8428 215.379 20.5175 217.386 20.5146C219.607 20.5113 221.603 20.8787 223.372 21.6167C225.166 22.3547 226.673 23.4276 227.894 24.8354L224.175 28.2811C223.265 27.3268 222.272 26.6235 221.196 26.1711C220.12 25.6949 218.949 25.4577 217.682 25.4596C216.464 25.4613 215.353 25.6541 214.351 26.0378C213.348 26.4216 212.477 26.9723 211.738 27.6901C211.023 28.4079 210.463 29.2569 210.059 30.237C209.679 31.2171 209.49 32.3044 209.492 33.4989C209.495 34.6696 209.688 35.7444 210.072 36.7233C210.48 37.7022 211.044 38.5615 211.762 39.3011C212.504 40.0167 213.365 40.5649 214.345 40.9457C215.35 41.3265 216.449 41.516 217.644 41.5143C218.79 41.5126 219.901 41.3318 220.975 40.9718C222.073 40.588 223.135 39.9533 224.161 39.0678L227.466 43.2558C226.107 44.2851 224.519 45.0759 222.705 45.628C220.914 46.1801 219.123 46.4575 217.331 46.4601ZM222.161 42.5111L222.142 33.0861L227.445 33.0784L227.466 43.2558L222.161 42.5111Z" fill="#490606"/>
<path d="M45.8032 68.2361C45.3503 67.5161 45.0002 66.6852 44.7528 65.7433C44.5054 64.7934 44.3806 63.7721 44.3784 62.6794C44.3761 61.5866 44.4968 60.5649 44.7403 59.6144C44.9838 58.6559 45.3305 57.8239 45.7804 57.1185L46.8613 57.1169C46.3879 57.957 46.0413 58.8364 45.8215 59.7553C45.6016 60.6663 45.4927 61.6404 45.4949 62.6777C45.497 63.715 45.6098 64.6928 45.8334 65.611C46.057 66.5213 46.4072 67.3958 46.884 68.2345L45.8032 68.2361ZM48.5056 65.9278L48.4886 57.6134L49.6763 57.6116L49.6933 65.9261L48.5056 65.9278ZM52.1826 65.9224L52.1656 57.608L53.1395 57.6066L56.882 63.8844L56.3594 63.8852L60.0286 57.5965L61.0026 57.595L61.0315 65.9094L59.8912 65.9111L59.866 59.3902L60.1392 59.3898L56.8722 64.9059L56.3258 64.9067L53.0125 59.4003L53.3095 59.3999L53.3228 65.9207L52.1826 65.9224ZM63.5267 65.9058L63.5097 57.5913L64.6975 57.5896L64.7124 64.8707L69.2141 64.864L69.2162 65.8974L63.5267 65.9058ZM73.769 65.8907L73.752 57.5763L74.7259 57.5749L78.4684 63.8527L77.9458 63.8535L81.615 57.5648L82.589 57.5633L82.6179 65.8777L81.4776 65.8794L81.4524 59.3586L81.7256 59.3582L78.4586 64.8742L77.9122 64.875L74.5989 59.3686L74.8959 59.3682L74.9092 65.8891L73.769 65.8907ZM88.8667 65.9636C88.2332 65.9645 87.6431 65.8585 87.0963 65.6455C86.5574 65.4325 86.0896 65.1362 85.6929 64.7567C85.2961 64.3693 84.9864 63.9184 84.7636 63.404C84.5409 62.8896 84.4288 62.3276 84.4276 61.7179C84.4264 61.1081 84.5361 60.5458 84.7567 60.0307C84.9774 59.5157 85.2853 59.0679 85.6804 58.6872C86.0756 58.2986 86.5422 57.997 87.0802 57.7824C87.6182 57.5678 88.2079 57.4601 88.8493 57.4591C89.4828 57.4582 90.065 57.5643 90.596 57.7773C91.1349 57.9824 91.6027 58.2786 91.9994 58.666C92.404 59.0455 92.7137 59.4925 92.9286 60.0069C93.1514 60.5212 93.2634 61.0873 93.2646 61.7049C93.2659 62.3225 93.1562 62.8889 92.9355 63.4039C92.7228 63.9189 92.4149 64.3707 92.0118 64.7593C91.6167 65.14 91.1501 65.4376 90.6121 65.6522C90.082 65.8589 89.5002 65.9627 88.8667 65.9636ZM88.8645 64.9065C89.3238 64.9058 89.7473 64.826 90.135 64.6671C90.5306 64.5081 90.8706 64.2859 91.1551 64.0004C91.4475 63.707 91.6725 63.3662 91.83 62.9779C91.9955 62.5897 92.0778 62.1659 92.0769 61.7066C92.0759 61.2474 91.9919 60.8239 91.8248 60.4361C91.6657 60.0483 91.4393 59.7121 91.1457 59.4275C90.8601 59.1349 90.5191 58.9097 90.1229 58.7519C89.7345 58.5941 89.3107 58.5156 88.8515 58.5163C88.3843 58.5169 87.9529 58.5968 87.5573 58.7557C87.1696 58.9146 86.8296 59.1408 86.5372 59.4342C86.2448 59.7197 86.0158 60.0566 85.8503 60.4449C85.6928 60.8331 85.6144 61.2569 85.6154 61.7161C85.6163 62.1754 85.6964 62.5989 85.8555 62.9867C86.0226 63.3745 86.2529 63.7146 86.5465 64.0072C86.8401 64.2918 87.181 64.513 87.5694 64.6708C87.9656 64.8286 88.3973 64.9072 88.8645 64.9065ZM98.8421 65.949C98.2087 65.9499 97.6185 65.8438 97.0717 65.6309C96.5328 65.4178 96.065 65.1216 95.6683 64.7421C95.2716 64.3547 94.9618 63.9038 94.7391 63.3894C94.5163 62.875 94.4043 62.313 94.4031 61.7032C94.4018 61.0935 94.5115 60.5311 94.7322 60.0161C94.9528 59.5011 95.2608 59.0532 95.6559 58.6726C96.051 58.284 96.5176 57.9824 97.0556 57.7678C97.5936 57.5532 98.1834 57.4454 98.8248 57.4445C99.4582 57.4436 100.04 57.5496 100.571 57.7626C101.11 57.9677 101.578 58.264 101.975 58.6514C102.379 59.0309 102.689 59.4778 102.904 59.9922C103.127 60.5066 103.239 61.0726 103.24 61.6903C103.241 62.3079 103.132 62.8742 102.911 63.3893C102.698 63.9043 102.39 64.3561 101.987 64.7447C101.592 65.1254 101.126 65.423 100.588 65.6376C100.057 65.8442 99.4756 65.948 98.8421 65.949ZM101.565 67.5841C101.288 67.5845 101.023 67.5493 100.769 67.4784C100.516 67.4154 100.262 67.3089 100.009 67.1588C99.755 67.0166 99.4933 66.827 99.2235 66.5898C98.9538 66.3606 98.6603 66.0759 98.3428 65.7359L99.6131 65.4014C99.8512 65.6941 100.077 65.9313 100.292 66.1131C100.514 66.3028 100.732 66.4371 100.946 66.516C101.16 66.6028 101.37 66.646 101.575 66.6457C102.169 66.6449 102.676 66.4066 103.094 65.9308L103.654 66.607C103.117 67.2572 102.421 67.5828 101.565 67.5841ZM98.84 64.8918C99.2993 64.8912 99.7227 64.8114 100.11 64.6524C100.506 64.4935 100.846 64.2673 101.131 63.9739C101.423 63.6805 101.648 63.3396 101.805 62.9514C101.971 62.5632 102.053 62.1434 102.052 61.692C102.051 61.2327 101.967 60.8092 101.8 60.4214C101.641 60.0337 101.415 59.6975 101.121 59.4128C100.836 59.1203 100.495 58.8951 100.098 58.7373C99.71 58.5795 99.2862 58.5009 98.8269 58.5016C98.3597 58.5023 97.9283 58.5821 97.5327 58.7411C97.145 58.9 96.805 59.1262 96.5126 59.4196C96.2202 59.7051 95.9913 60.042 95.8258 60.4302C95.6682 60.8185 95.5899 61.2422 95.5908 61.7015C95.5917 62.1528 95.6718 62.5724 95.831 62.9602C95.998 63.3479 96.2284 63.6881 96.522 63.9806C96.8155 64.2732 97.1565 64.4984 97.5448 64.6562C97.9411 64.814 98.3728 64.8925 98.84 64.8918ZM107.678 63.0734L107.676 62.0876L110.871 62.0829L110.873 63.0688L107.678 63.0734ZM117.998 65.9208C117.412 65.9217 116.842 65.8315 116.287 65.6502C115.74 65.4688 115.293 65.224 114.944 64.9157L115.488 63.9766C115.766 64.2375 116.126 64.4507 116.57 64.6164C117.014 64.782 117.485 64.8645 117.984 64.8637C118.618 64.8628 119.104 64.7275 119.444 64.4578C119.784 64.188 119.954 63.8275 119.953 63.3761C119.952 63.0673 119.876 62.7982 119.725 62.5688C119.575 62.3394 119.313 62.1655 118.94 62.0473C118.576 61.9211 118.073 61.8585 117.432 61.8595L115.543 61.8622L115.974 57.5144L120.665 57.5075L120.667 58.5408L116.415 58.5471L117.032 57.9642L116.694 61.3973L116.075 60.8281L117.679 60.8257C118.51 60.8245 119.18 60.9304 119.687 61.1435C120.194 61.3566 120.563 61.653 120.793 62.0327C121.024 62.4045 121.139 62.8359 121.14 63.3269C121.141 63.802 121.028 64.2377 120.799 64.6339C120.57 65.0223 120.222 65.3356 119.755 65.5738C119.297 65.8041 118.711 65.9198 117.998 65.9208ZM125.531 65.9098C124.882 65.9107 124.3 65.7453 123.784 65.4135C123.277 65.0816 122.872 64.5992 122.57 63.9662C122.275 63.3331 122.127 62.5652 122.126 61.6625C122.124 60.7598 122.269 59.9915 122.56 59.3576C122.86 58.7237 123.263 58.2401 123.769 57.9068C124.283 57.5734 124.865 57.4063 125.514 57.4053C126.155 57.4044 126.734 57.5698 127.249 57.9016C127.764 58.2335 128.169 58.7159 128.464 59.349C128.758 59.982 128.906 60.7499 128.908 61.6526C128.91 62.5553 128.765 63.3236 128.473 63.9575C128.181 64.5914 127.778 65.075 127.264 65.4084C126.75 65.7417 126.173 65.9088 125.531 65.9098ZM125.529 64.8527C125.965 64.852 126.344 64.7327 126.669 64.4947C127.001 64.2566 127.257 63.8999 127.438 63.4245C127.628 62.9491 127.721 62.3591 127.72 61.6543C127.718 60.9496 127.622 60.3598 127.431 59.885C127.248 59.4101 126.99 59.0542 126.657 58.8171C126.332 58.58 125.952 58.4618 125.516 58.4624C125.08 58.4631 124.697 58.5824 124.365 58.8205C124.033 59.0585 123.772 59.4152 123.583 59.8906C123.402 60.366 123.312 60.9561 123.313 61.6608C123.315 62.3655 123.407 62.9553 123.59 63.4302C123.781 63.905 124.043 64.261 124.376 64.498C124.709 64.7351 125.094 64.8533 125.529 64.8527ZM133.454 65.8982C132.804 65.8991 132.222 65.7337 131.707 65.4019C131.199 65.07 130.794 64.5876 130.492 63.9545C130.198 63.3215 130.05 62.5536 130.048 61.6509C130.046 60.7482 130.191 59.9799 130.483 59.346C130.782 58.7121 131.185 58.2284 131.691 57.8951C132.205 57.5618 132.787 57.3947 133.436 57.3937C134.078 57.3928 134.656 57.5582 135.171 57.89C135.687 58.2218 136.092 58.7043 136.386 59.3373C136.68 59.9704 136.828 60.7383 136.83 61.641C136.832 62.5437 136.687 63.312 136.395 63.9459C136.104 64.5798 135.701 65.0634 135.187 65.3967C134.673 65.7301 134.095 65.8972 133.454 65.8982ZM133.451 64.841C133.887 64.8404 134.267 64.7211 134.591 64.483C134.923 64.245 135.18 63.8883 135.361 63.4129C135.55 62.9375 135.644 62.3475 135.642 61.6427C135.641 60.938 135.545 60.3482 135.354 59.8733C135.171 59.3985 134.912 59.0425 134.579 58.8055C134.254 58.5684 133.874 58.4502 133.438 58.4508C133.003 58.4515 132.619 58.5708 132.287 58.8088C131.955 59.0469 131.694 59.4036 131.505 59.879C131.324 60.3544 131.234 60.9444 131.236 61.6492C131.237 62.3539 131.329 62.9437 131.512 63.4186C131.703 63.8934 131.966 64.2493 132.299 64.4864C132.632 64.7235 133.016 64.8417 133.451 64.841ZM141.376 65.8865C140.727 65.8875 140.144 65.722 139.629 65.3902C139.121 65.0584 138.717 64.576 138.414 63.9429C138.12 63.3099 137.972 62.542 137.97 61.6393C137.968 60.7366 138.113 59.9683 138.405 59.3344C138.705 58.7004 139.107 58.2168 139.614 57.8835C140.128 57.5502 140.709 57.383 141.359 57.3821C142 57.3811 142.578 57.5466 143.094 57.8784C143.609 58.2102 144.014 58.6927 144.308 59.3257C144.603 59.9587 144.751 60.7266 144.752 61.6293C144.754 62.532 144.609 63.3004 144.318 63.9343C144.026 64.5682 143.623 65.0518 143.109 65.3851C142.595 65.7185 142.017 65.8856 141.376 65.8865ZM141.374 64.8294C141.809 64.8288 142.189 64.7094 142.513 64.4714C142.845 64.2334 143.102 63.8767 143.283 63.4013C143.472 62.9259 143.566 62.3358 143.565 61.6311C143.563 60.9263 143.467 60.3365 143.276 59.8617C143.093 59.3869 142.835 59.0309 142.502 58.7939C142.177 58.5568 141.796 58.4386 141.361 58.4392C140.925 58.4398 140.541 58.5592 140.209 58.7972C139.877 59.0353 139.617 59.392 139.428 59.8674C139.246 60.3427 139.157 60.9328 139.158 61.6375C139.159 62.3423 139.252 62.9321 139.435 63.4069C139.626 63.8818 139.888 64.2377 140.221 64.4748C140.554 64.7118 140.938 64.8301 141.374 64.8294ZM149.768 65.7792L149.751 57.4648L152.994 57.46C153.722 57.459 154.344 57.5729 154.859 57.8017C155.374 58.0306 155.771 58.3626 156.049 58.7977C156.327 59.2328 156.467 59.7513 156.468 60.3531C156.469 60.9549 156.332 61.4738 156.055 61.9097C155.779 62.3377 155.384 62.6709 154.87 62.9092C154.355 63.1396 153.734 63.2553 153.005 63.2564L150.416 63.2602L150.949 62.7011L150.956 65.7774L149.768 65.7792ZM150.95 62.8199L150.414 62.2268L152.968 62.223C153.728 62.2219 154.302 62.0588 154.689 61.7335C155.084 61.4083 155.281 60.9487 155.28 60.3548C155.279 59.761 155.08 59.302 154.683 58.9779C154.295 58.6538 153.72 58.4923 152.96 58.4934L150.406 58.4972L150.94 57.9025L150.95 62.8199ZM160.778 65.8343C160.137 65.8352 159.563 65.6975 159.055 65.4211C158.556 65.1447 158.163 64.7652 157.877 64.2826C157.591 63.8 157.447 63.2459 157.446 62.6203C157.445 61.9948 157.586 61.4403 157.87 60.9568C158.154 60.4734 158.545 60.0967 159.044 59.8267C159.55 59.5488 160.124 59.4094 160.765 59.4084C161.335 59.4076 161.842 59.5217 162.286 59.7507C162.738 59.9717 163.087 60.3038 163.333 60.7469L162.468 61.3064C162.261 60.9979 162.007 60.7726 161.706 60.6305C161.413 60.4805 161.096 60.4057 160.755 60.4062C160.344 60.4068 159.976 60.4984 159.651 60.681C159.327 60.8636 159.07 61.1213 158.881 61.4542C158.691 61.7791 158.597 62.1673 158.598 62.6186C158.599 63.07 158.695 63.4618 158.886 63.7941C159.076 64.1264 159.334 64.3834 159.659 64.565C159.984 64.7467 160.353 64.8372 160.764 64.8366C161.105 64.8361 161.421 64.7644 161.714 64.6214C162.015 64.4705 162.268 64.2405 162.473 63.9314L163.341 64.4765C163.097 64.9124 162.749 65.2494 162.298 65.4876C161.855 65.7179 161.348 65.8335 160.778 65.8343ZM166.626 65.8257C166.103 65.8265 165.604 65.756 165.129 65.6141C164.661 65.4723 164.292 65.2986 164.023 65.0931L164.496 64.1897C164.766 64.3714 165.099 64.5254 165.495 64.6515C165.891 64.7776 166.295 64.8403 166.707 64.8397C167.237 64.839 167.617 64.7632 167.847 64.6124C168.084 64.4616 168.202 64.2516 168.202 63.9824C168.201 63.7844 168.13 63.6301 167.987 63.5194C167.844 63.4088 167.654 63.3259 167.416 63.2708C167.186 63.2157 166.929 63.1686 166.644 63.1294C166.359 63.0823 166.073 63.0273 165.788 62.9644C165.503 62.8936 165.242 62.7989 165.004 62.6805C164.766 62.5541 164.576 62.3842 164.433 62.1706C164.29 61.9491 164.218 61.6562 164.217 61.2919C164.216 60.9119 164.322 60.5791 164.536 60.2937C164.749 60.0084 165.049 59.7902 165.437 59.6391C165.833 59.4802 166.3 59.4003 166.838 59.3995C167.25 59.3989 167.666 59.4498 168.086 59.5521C168.513 59.6465 168.862 59.7846 169.132 59.9663L168.647 60.8697C168.361 60.6801 168.064 60.5499 167.755 60.4791C167.446 60.4083 167.137 60.3731 166.828 60.3735C166.329 60.3743 165.957 60.4579 165.712 60.6246C165.467 60.7833 165.345 60.9894 165.345 61.2428C165.346 61.4566 165.417 61.6228 165.56 61.7413C165.711 61.852 165.901 61.9388 166.131 62.0018C166.368 62.0648 166.63 62.1198 166.915 62.1669C167.2 62.2061 167.485 62.2611 167.771 62.332C168.056 62.3949 168.313 62.4856 168.543 62.604C168.781 62.7225 168.971 62.8885 169.114 63.1021C169.265 63.3156 169.341 63.6006 169.342 63.9569C169.343 64.337 169.232 64.6658 169.011 64.9433C168.79 65.2207 168.478 65.439 168.074 65.5979C167.671 65.749 167.188 65.8249 166.626 65.8257ZM171.155 68.0521L170.074 68.0537C170.556 67.2136 170.906 66.3381 171.126 65.4271C171.346 64.5083 171.455 63.5302 171.453 62.4929C171.451 61.4555 171.338 60.4817 171.114 59.5714C170.891 58.6532 170.536 57.7748 170.052 56.9361L171.133 56.9345C171.601 57.6386 171.955 58.4695 172.195 59.4273C172.442 60.3772 172.567 61.3985 172.569 62.4912C172.571 63.584 172.451 64.6056 172.207 65.5562C171.972 66.4989 171.621 67.3308 171.155 68.0521Z" fill="black"/>
<path d="M186.342 61.8711H222.91" stroke="url(#paint0_linear_2175_3)" stroke-width="0.863039"/>
<path d="M36.5684 61.876H-0.000134468" stroke="url(#paint1_linear_2175_3)" stroke-width="0.863039"/>
<path d="M242.482 46.4279C241.663 45.1904 241.027 43.762 240.574 42.1428C240.135 40.5099 239.914 38.7542 239.91 36.8756C239.906 34.9971 240.121 33.2407 240.553 31.6066C240.999 29.9588 241.629 28.5285 242.443 27.3158L245.485 27.3113C244.631 28.8508 244.008 30.4036 243.616 31.9696C243.225 33.522 243.031 35.1558 243.034 36.871C243.038 38.5862 243.239 40.2263 243.637 41.7911C244.034 43.3424 244.664 44.8865 245.525 46.4235L242.482 46.4279ZM252.203 42.6974C251.209 42.6989 250.222 42.571 249.241 42.3138C248.274 42.043 247.443 41.663 246.748 41.174L248.049 38.6401C248.595 39.0341 249.221 39.3463 249.93 39.5766C250.652 39.807 251.38 39.9216 252.115 39.9206C252.946 39.9193 253.599 39.755 254.074 39.4276C254.55 39.1002 254.788 38.6439 254.786 38.0585C254.786 37.691 254.69 37.3644 254.498 37.0788C254.307 36.7932 253.967 36.5759 253.476 36.4269C252.999 36.2779 252.325 36.204 251.454 36.2053L247.799 36.2106L248.518 28.1645L257.237 28.1517L257.242 30.8062L249.708 30.8172L251.42 29.3037L250.921 35.0422L249.203 33.5337L252.225 33.5292C253.64 33.5272 254.777 33.7229 255.636 34.1164C256.508 34.4963 257.142 35.0194 257.538 35.6859C257.934 36.3523 258.133 37.1075 258.135 37.9515C258.137 38.7955 257.927 39.5785 257.507 40.3006C257.086 41.0091 256.434 41.5886 255.55 42.0391C254.68 42.476 253.564 42.6954 252.203 42.6974ZM272.498 42.6676C271.354 42.6693 270.258 42.5212 269.209 42.2232C268.16 41.9117 267.316 41.5114 266.675 41.0222L267.793 38.5295C268.406 38.9642 269.128 39.3239 269.959 39.6085C270.804 39.8795 271.655 40.0144 272.513 40.0131C273.166 40.0122 273.69 39.9502 274.085 39.8271C274.493 39.6903 274.792 39.5061 274.982 39.2744C275.172 39.0427 275.267 38.7771 275.266 38.4777C275.265 38.0965 275.115 37.7973 274.815 37.5799C274.515 37.3489 274.12 37.1657 273.63 37.0303C273.139 36.8813 272.594 36.746 271.995 36.6243C271.41 36.4891 270.817 36.3266 270.218 36.1369C269.632 35.9472 269.094 35.7029 268.603 35.4042C268.112 35.1054 267.71 34.7112 267.396 34.2216C267.096 33.732 266.945 33.1061 266.943 32.3438C266.941 31.527 267.158 30.7848 267.592 30.1171C268.04 29.4358 268.706 28.8972 269.59 28.5011C270.487 28.0914 271.61 27.8856 272.957 27.8836C273.856 27.8823 274.741 27.9899 275.613 28.2064C276.484 28.4093 277.254 28.7213 277.922 29.1423L276.906 31.6553C276.238 31.2751 275.571 30.9971 274.903 30.8211C274.236 30.6315 273.582 30.5371 272.942 30.5381C272.303 30.539 271.779 30.6147 271.371 30.765C270.963 30.9153 270.67 31.1131 270.494 31.3584C270.317 31.5901 270.229 31.8625 270.23 32.1756C270.231 32.5431 270.381 32.8424 270.681 33.0734C270.981 33.2907 271.376 33.4671 271.867 33.6025C272.357 33.7379 272.895 33.8733 273.48 34.0085C274.08 34.1438 274.672 34.2994 275.258 34.4756C275.857 34.6516 276.402 34.8891 276.893 35.1878C277.384 35.4866 277.779 35.8808 278.08 36.3704C278.394 36.86 278.551 37.4791 278.553 38.2278C278.555 39.031 278.332 39.7664 277.884 40.4341C277.436 41.1017 276.763 41.6404 275.866 42.0501C274.982 42.4598 273.859 42.6656 272.498 42.6676ZM281.414 42.4095L281.392 31.4241L284.577 31.4194L284.599 42.4048L281.414 42.4095ZM282.981 29.8904C282.396 29.8912 281.919 29.7218 281.551 29.382C281.182 29.0422 280.998 28.6205 280.997 28.1168C280.996 27.6131 281.179 27.1909 281.546 26.85C281.912 26.5092 282.388 26.3383 282.974 26.3375C283.559 26.3366 284.036 26.4993 284.404 26.8254C284.772 27.138 284.957 27.5461 284.958 28.0497C284.959 28.5806 284.776 29.0233 284.409 29.3778C284.056 29.7186 283.58 29.8895 282.981 29.8904ZM293.09 42.5557C292.055 42.5573 291.122 42.3272 290.291 41.8656C289.459 41.3904 288.798 40.7311 288.306 39.8879C287.828 39.0446 287.588 38.0512 287.585 36.9077C287.583 35.7507 287.819 34.7498 288.294 33.9051C288.782 33.0604 289.441 32.406 290.27 31.942C291.1 31.4779 292.032 31.2452 293.066 31.2436C293.992 31.2423 294.802 31.4453 295.498 31.8526C296.193 32.26 296.732 32.8786 297.114 33.7084C297.497 34.5382 297.69 35.5997 297.693 36.8929C297.695 38.1725 297.514 39.2346 297.148 40.0791C296.782 40.91 296.252 41.5301 295.559 41.9395C294.879 42.3489 294.056 42.5543 293.09 42.5557ZM293.635 39.9413C294.153 39.9405 294.622 39.8173 295.044 39.5717C295.465 39.326 295.798 38.9784 296.042 38.5289C296.3 38.0656 296.428 37.521 296.427 36.8948C296.425 36.255 296.295 35.7107 296.035 35.2618C295.789 34.813 295.455 34.4663 295.033 34.2219C294.61 33.9775 294.14 33.8557 293.623 33.8565C293.092 33.8572 292.616 33.9804 292.194 34.2261C291.773 34.4717 291.433 34.8194 291.176 35.269C290.932 35.7185 290.81 36.2632 290.811 36.903C290.813 37.5292 290.936 38.0735 291.182 38.536C291.442 38.9848 291.783 39.3314 292.205 39.5759C292.628 39.8203 293.105 39.9421 293.635 39.9413ZM296.52 42.3874L296.515 40.1413L296.57 36.8741L296.359 33.6278L296.346 27.2367L299.531 27.232L299.562 42.3829L296.52 42.3874ZM308.779 42.5327C307.527 42.5346 306.424 42.2911 305.47 41.8025C304.529 41.3138 303.8 40.6479 303.281 39.8046C302.762 38.9478 302.501 37.9749 302.499 36.8859C302.497 35.7832 302.747 34.8096 303.248 33.9648C303.764 33.1065 304.464 32.4384 305.348 31.9607C306.231 31.4693 307.231 31.2228 308.348 31.2212C309.423 31.2196 310.39 31.4496 311.249 31.9112C312.121 32.3591 312.809 33.0115 313.315 33.8684C313.82 34.7116 314.074 35.7254 314.077 36.9097C314.077 37.0322 314.07 37.1752 314.057 37.3385C314.044 37.4883 314.03 37.6312 314.017 37.7674L305.094 37.7805L305.09 35.9224L312.339 35.9117L311.115 36.4648C311.114 35.8931 310.997 35.3964 310.765 34.9748C310.532 34.5531 310.212 34.2269 309.803 33.9961C309.394 33.7516 308.917 33.6298 308.373 33.6306C307.828 33.6314 307.345 33.7546 306.924 34.0003C306.516 34.2323 306.197 34.5663 305.966 35.0022C305.736 35.4246 305.621 35.9284 305.622 36.5137L305.623 37.0038C305.625 37.6027 305.755 38.1334 306.015 38.5959C306.288 39.0447 306.663 39.3913 307.14 39.6356C307.63 39.8663 308.202 39.9812 308.856 39.9802C309.441 39.9794 309.951 39.8901 310.386 39.7125C310.835 39.5349 311.243 39.2689 311.61 38.9144L313.309 40.7496C312.806 41.3221 312.174 41.7654 311.412 42.0796C310.651 42.3802 309.773 42.5313 308.779 42.5327ZM318.81 46.3159L315.767 46.3204C316.649 44.7809 317.279 43.2349 317.657 41.6825C318.048 40.1165 318.242 38.4759 318.239 36.7607C318.235 35.0455 318.035 33.4122 317.637 31.861C317.252 30.2961 316.616 28.7452 315.728 27.2082L318.771 27.2038C319.617 28.4141 320.26 29.8425 320.699 31.4889C321.138 33.1218 321.359 34.8775 321.363 36.7561C321.367 38.6346 321.153 40.391 320.72 42.0251C320.288 43.6457 319.651 45.0759 318.81 46.3159Z" fill="#490606"/>
<defs>
<linearGradient id="paint0_linear_2175_3" x1="217.425" y1="62.3711" x2="186.951" y2="62.3711" gradientUnits="userSpaceOnUse">
<stop stop-color="#666666" stop-opacity="0"/>
<stop offset="1"/>
</linearGradient>
<linearGradient id="paint1_linear_2175_3" x1="5.48514" y1="62.3759" x2="35.9589" y2="62.376" gradientUnits="userSpaceOnUse">
<stop stop-color="#666666" stop-opacity="0"/>
<stop offset="1"/>
</linearGradient>
</defs>
</svg>
