<svg width="331" height="76" viewBox="0 0 331 76" fill="none" xmlns="http://www.w3.org/2000/svg">
<path d="M20.2238 46.7572C18.217 46.7602 16.2932 46.5002 14.4525 45.9773C12.6118 45.4305 11.1291 44.7279 10.0045 43.8695L11.9666 39.4946C13.0432 40.2575 14.3107 40.8888 15.7691 41.3883C17.2513 41.864 18.745 42.1007 20.2501 42.0985C21.3968 42.0968 22.3164 41.9879 23.0088 41.7719C23.7251 41.5319 24.25 41.2086 24.5836 40.802C24.9173 40.3954 25.0836 39.9293 25.0825 39.4037C25.0811 38.7347 24.8172 38.2095 24.2909 37.828C23.7644 37.4226 23.0709 37.1011 22.2104 36.8635C21.3498 36.602 20.3937 36.3645 19.342 36.151C18.3142 35.9136 17.2744 35.6284 16.2225 35.2955C15.1945 34.9625 14.25 34.5339 13.3888 34.0095C12.5277 33.4852 11.8215 32.7934 11.2702 31.9341C10.7429 31.0748 10.4778 29.9763 10.4751 28.6384C10.4722 27.2049 10.8517 25.9023 11.6139 24.7305C12.3998 23.5348 13.5685 22.5894 15.12 21.8943C16.6953 21.1753 18.6656 20.814 21.0308 20.8106C22.6076 20.8083 24.1609 20.9971 25.6907 21.3771C27.2204 21.7332 28.5714 22.2807 29.7435 23.0196L27.9607 27.4301C26.7887 26.7629 25.6171 26.2748 24.4458 25.966C23.2745 25.6332 22.1274 25.4677 21.0045 25.4693C19.8816 25.471 18.9621 25.6037 18.2459 25.8676C17.5297 26.1314 17.0168 26.4786 16.7071 26.9091C16.3973 27.3157 16.243 27.7937 16.2441 28.3432C16.2455 28.9883 16.5093 29.5135 17.0358 29.9188C17.5621 30.3003 18.2556 30.6099 19.1162 30.8475C19.9767 31.0852 20.9209 31.3227 21.9487 31.5601C23.0004 31.7975 24.0402 32.0707 25.0681 32.3798C26.12 32.6888 27.0764 33.1055 27.9376 33.6298C28.7987 34.1542 29.493 34.846 30.0203 35.7053C30.5716 36.5645 30.8486 37.6512 30.8512 38.9652C30.8541 40.3747 30.4626 41.6654 29.6766 42.8372C28.8906 44.009 27.7099 44.9544 26.1346 45.6735C24.5831 46.3925 22.6129 46.7537 20.2238 46.7572ZM36.2666 46.3036L36.2153 21.2183L48.4713 21.2003C51.6249 21.1957 53.9913 21.7895 55.5705 22.9817C57.1737 24.1739 57.9772 25.7495 57.9812 27.7086C57.9839 29.0226 57.6637 30.1698 57.0207 31.1503C56.3776 32.1068 55.4952 32.8488 54.3734 33.376C53.2516 33.9033 51.962 34.1679 50.5047 34.1701L51.1825 32.6998C52.7593 32.6975 54.1575 32.9582 55.377 33.482C56.5965 33.982 57.5417 34.7331 58.2127 35.7356C58.9076 36.738 59.2565 37.9678 59.2595 39.4252C59.2639 41.5753 58.4192 43.2609 56.7254 44.4818C55.0316 45.6788 52.5363 46.2798 49.2393 46.2846L36.2666 46.3036ZM42.0273 41.9232L48.8003 41.9132C50.3055 41.911 51.4398 41.6704 52.2033 41.1915C52.9907 40.6886 53.3833 39.8997 53.3811 38.8246C53.3789 37.7734 52.9831 36.9975 52.1937 36.497C51.4281 35.9725 50.2928 35.7114 48.7877 35.7136L41.5846 35.7241L41.5759 31.4955L47.7756 31.4864C49.1852 31.4843 50.2598 31.2438 50.9994 30.7649C51.7629 30.2621 52.1436 29.509 52.1415 28.5055C52.1395 27.526 51.7558 26.7979 50.9903 26.3212C50.2487 25.8206 49.1731 25.5713 47.7635 25.5734L41.9939 25.5819L42.0273 41.9232ZM63.9752 38.4148L63.966 33.9353L74.1077 33.9204L74.1168 38.3999L63.9752 38.4148ZM81.8828 46.2367L81.8359 23.3015L84.3495 25.8064L76.8239 25.8174L76.8144 21.1587L87.6369 21.1428L87.6882 46.2282L81.8828 46.2367ZM104.697 46.6333C102.404 46.6366 100.408 46.1617 98.7094 45.2086C97.0351 44.2554 95.7422 42.8597 94.8306 41.0214C93.919 39.1832 93.4604 36.9142 93.4549 34.2146C93.449 31.3238 93.9815 28.8742 95.0525 26.8658C96.1473 24.8573 97.6493 23.3261 99.5585 22.2721C101.491 21.2181 103.712 20.6892 106.221 20.6855C107.559 20.6836 108.837 20.825 110.056 21.1099C111.275 21.3948 112.327 21.8233 113.212 22.3954L111.071 26.6631C110.377 26.1863 109.636 25.8648 108.847 25.6988C108.058 25.5088 107.234 25.4144 106.374 25.4157C104.2 25.4189 102.481 26.0784 101.217 27.3943C99.9539 28.7101 99.3248 30.6582 99.33 33.2384C99.3309 33.6684 99.3319 34.1462 99.333 34.6718C99.3579 35.1974 99.4307 35.7229 99.5512 36.2483L97.9355 34.7455C98.3875 33.8131 98.9712 33.0358 99.6867 32.4136C100.402 31.7675 101.249 31.2884 102.228 30.9764C103.231 30.6405 104.33 30.4716 105.524 30.4699C107.149 30.4675 108.607 30.7879 109.898 31.431C111.189 32.0742 112.219 32.9805 112.986 34.1501C113.776 35.3196 114.173 36.6927 114.177 38.2695C114.18 39.9657 113.753 41.4476 112.896 42.7151C112.062 43.9586 110.929 44.9279 109.497 45.6228C108.089 46.2938 106.489 46.6306 104.697 46.6333ZM104.366 42.2975C105.178 42.2964 105.894 42.152 106.515 41.8644C107.159 41.5528 107.66 41.1101 108.017 40.5362C108.375 39.9623 108.552 39.305 108.551 38.5644C108.549 37.4177 108.152 36.5104 107.363 35.8426C106.597 35.1509 105.569 34.806 104.279 34.8079C103.419 34.8092 102.666 34.9775 102.022 35.3129C101.378 35.6244 100.865 36.0672 100.484 36.6411C100.127 37.1911 99.9486 37.8364 99.9502 38.5771C99.9516 39.2938 100.132 39.9386 100.492 40.5114C100.851 41.0604 101.354 41.5016 101.999 41.8351C102.645 42.1448 103.434 42.2989 104.366 42.2975ZM118.355 38.335L118.346 33.8555L128.488 33.8406L128.497 38.3201L118.355 38.335ZM132.387 46.1626L132.38 42.3998L142.037 33.2474C142.8 32.5534 143.36 31.9314 143.717 31.3814C144.075 30.8314 144.312 30.3293 144.431 29.8752C144.573 29.4211 144.644 29.0029 144.643 28.6206C144.641 27.6172 144.293 26.8532 143.6 26.3287C142.929 25.7801 141.937 25.5069 140.623 25.5088C139.572 25.5103 138.593 25.7148 137.686 26.1223C136.803 26.5298 136.052 27.164 135.432 28.0249L131.198 25.3076C132.151 23.8728 133.486 22.736 135.205 21.8973C136.923 21.0586 138.905 20.6376 141.151 20.6343C143.014 20.6315 144.64 20.9397 146.027 21.5589C147.437 22.1541 148.526 23.0006 149.293 24.0984C150.084 25.1963 150.48 26.5097 150.484 28.0387C150.485 28.851 150.379 29.6634 150.166 30.476C149.977 31.2647 149.572 32.1015 148.953 32.9863C148.357 33.8712 147.475 34.864 146.307 35.9646L138.295 43.5379L137.18 41.4252L151.335 41.4044L151.345 46.1348L132.387 46.1626ZM163.704 46.5467C161.96 46.5492 160.227 46.3248 158.506 45.8734C156.809 45.3981 155.35 44.7313 154.13 43.873L156.414 39.4259C157.371 40.1174 158.471 40.6652 159.715 41.0696C160.982 41.4738 162.26 41.675 163.55 41.6731C165.008 41.671 166.154 41.3826 166.989 40.808C167.824 40.2334 168.24 39.4325 168.238 38.4052C168.237 37.7601 168.068 37.187 167.733 36.6858C167.397 36.1845 166.799 35.8032 165.939 35.5416C165.102 35.2801 163.919 35.1504 162.39 35.1526L155.976 35.1621L157.237 21.0407L172.539 21.0182L172.548 25.677L159.325 25.6964L162.33 23.0401L161.454 33.1113L158.439 30.4639L163.742 30.4561C166.227 30.4525 168.223 30.7959 169.729 31.4866C171.26 32.1533 172.372 33.0714 173.068 34.2411C173.763 35.4107 174.112 36.7361 174.115 38.2174C174.118 39.6986 173.75 41.0729 173.012 42.3401C172.274 43.5836 171.13 44.6006 169.578 45.3913C168.051 46.158 166.093 46.5432 163.704 46.5467ZM188.672 46.51C186.617 46.513 184.776 46.014 183.15 45.013C181.523 43.9881 180.242 42.5087 179.306 40.5749C178.371 38.6411 177.9 36.3005 177.894 33.5531C177.889 30.8057 178.35 28.4637 179.278 26.5271C180.205 24.5906 181.48 23.1195 183.103 22.1137C184.725 21.084 186.564 20.5676 188.619 20.5646C190.697 20.5616 192.538 21.0725 194.141 22.0975C195.767 23.0985 197.048 24.5659 197.984 26.4997C198.92 28.4335 199.39 30.7741 199.396 33.5215C199.402 36.269 198.941 38.611 198.013 40.5475C197.085 42.484 195.81 43.9671 194.187 44.9968C192.589 46.0026 190.75 46.507 188.672 46.51ZM188.662 41.6005C189.641 41.599 190.489 41.323 191.204 40.7725C191.944 40.2219 192.515 39.3491 192.919 38.1539C193.347 36.9588 193.559 35.4175 193.555 33.5301C193.551 31.6427 193.333 30.1021 192.9 28.9082C192.492 27.7142 191.916 26.8431 191.175 26.2947C190.457 25.7462 189.608 25.4727 188.629 25.4742C187.673 25.4756 186.825 25.7516 186.086 26.3021C185.37 26.8527 184.799 27.7255 184.371 28.9207C183.967 30.1158 183.768 31.6571 183.771 33.5445C183.775 35.4318 183.981 36.9725 184.39 38.1664C184.823 39.3603 185.398 40.2315 186.116 40.78C186.857 41.3284 187.706 41.6019 188.662 41.6005ZM225.522 53.2648C223.706 53.2675 221.95 53.0431 220.253 52.5917C218.58 52.1641 217.181 51.5091 216.056 50.6268L218.27 46.6099C219.083 47.2777 220.112 47.8018 221.355 48.1822C222.622 48.5865 223.865 48.7877 225.083 48.7859C227.066 48.783 228.498 48.3389 229.381 47.4537C230.287 46.5684 230.738 45.2537 230.734 43.5097L230.728 40.607L231.077 35.7686L230.995 30.8949L230.987 26.7379L236.29 26.7302L236.323 42.7848C236.331 46.3684 235.404 49.0097 233.544 50.7087C231.684 52.4077 229.01 53.2597 225.522 53.2648ZM224.645 45.0954C222.854 45.0981 221.228 44.7182 219.769 43.9558C218.334 43.1695 217.173 42.0842 216.287 40.6998C215.424 39.2915 214.99 37.6557 214.986 35.7922C214.983 33.9048 215.409 32.2677 216.266 30.8807C217.148 29.4699 218.304 28.3811 219.736 27.6145C221.192 26.8479 222.815 26.4633 224.607 26.4606C226.232 26.4582 227.666 26.7906 228.91 27.4577C230.153 28.101 231.123 29.1149 231.819 30.4995C232.514 31.8603 232.864 33.6158 232.869 35.7659C232.873 37.8922 232.53 39.6487 231.84 41.0354C231.15 42.3982 230.185 43.415 228.944 44.0857C227.703 44.7565 226.27 45.0931 224.645 45.0954ZM225.747 40.5068C226.726 40.5053 227.598 40.3129 228.362 39.9296C229.125 39.5223 229.722 38.96 230.15 38.2426C230.579 37.5253 230.792 36.7007 230.79 35.769C230.788 34.8134 230.571 33.9894 230.14 33.2972C229.709 32.5811 229.11 32.0325 228.345 31.6514C227.58 31.2464 226.707 31.0446 225.728 31.046C224.748 31.0475 223.876 31.2518 223.113 31.6591C222.349 32.0425 221.741 32.5928 221.288 33.3102C220.86 34.0037 220.647 34.8282 220.648 35.7839C220.65 36.7156 220.867 37.5395 221.299 38.2556C221.754 38.9717 222.364 39.5322 223.13 39.9372C223.895 40.3184 224.767 40.5082 225.747 40.5068Z" fill="#490606"/>
<path d="M45.8032 68.2439C45.3503 67.5239 45.0002 66.693 44.7528 65.7511C44.5054 64.8012 44.3806 63.7799 44.3784 62.6872C44.3761 61.5944 44.4968 60.5727 44.7403 59.6222C44.9838 58.6637 45.3305 57.8317 45.7804 57.1263L46.8613 57.1247C46.3879 57.9648 46.0413 58.8442 45.8215 59.7631C45.6016 60.6741 45.4927 61.6482 45.4949 62.6855C45.497 63.7228 45.6098 64.7006 45.8334 65.6188C46.057 66.5291 46.4072 67.4036 46.884 68.2423L45.8032 68.2439ZM48.5056 65.9356L48.4886 57.6212L49.6763 57.6195L49.6933 65.9339L48.5056 65.9356ZM52.1826 65.9302L52.1656 57.6158L53.1395 57.6144L56.882 63.8922L56.3594 63.893L60.0286 57.6043L61.0026 57.6028L61.0315 65.9172L59.8912 65.9189L59.866 59.3981L60.1392 59.3976L56.8722 64.9137L56.3258 64.9145L53.0125 59.4081L53.3095 59.4077L53.3228 65.9285L52.1826 65.9302ZM63.5267 65.9136L63.5097 57.5992L64.6975 57.5974L64.7124 64.8785L69.2141 64.8719L69.2162 65.9052L63.5267 65.9136ZM73.769 65.8985L73.752 57.5841L74.7259 57.5827L78.4684 63.8605L77.9458 63.8613L81.615 57.5726L82.589 57.5712L82.6179 65.8856L81.4776 65.8872L81.4524 59.3664L81.7256 59.366L78.4586 64.882L77.9122 64.8828L74.5989 59.3764L74.8959 59.376L74.9092 65.8969L73.769 65.8985ZM88.8667 65.9714C88.2332 65.9723 87.6431 65.8663 87.0963 65.6533C86.5574 65.4403 86.0896 65.144 85.6929 64.7645C85.2961 64.3771 84.9864 63.9262 84.7636 63.4118C84.5409 62.8975 84.4288 62.3354 84.4276 61.7257C84.4264 61.116 84.5361 60.5536 84.7567 60.0386C84.9774 59.5235 85.2853 59.0757 85.6804 58.695C86.0756 58.3064 86.5422 58.0048 87.0802 57.7902C87.6182 57.5757 88.2079 57.4679 88.8493 57.467C89.4828 57.466 90.065 57.5721 90.596 57.7851C91.1349 57.9902 91.6027 58.2864 91.9994 58.6739C92.404 59.0534 92.7137 59.5003 92.9286 60.0147C93.1514 60.5291 93.2634 61.0951 93.2646 61.7127C93.2659 62.3304 93.1562 62.8967 92.9355 63.4117C92.7228 63.9267 92.4149 64.3785 92.0118 64.7671C91.6167 65.1478 91.1501 65.4454 90.6121 65.66C90.082 65.8667 89.5002 65.9705 88.8667 65.9714ZM88.8645 64.9143C89.3238 64.9136 89.7473 64.8338 90.135 64.6749C90.5306 64.5159 90.8706 64.2937 91.1551 64.0082C91.4475 63.7148 91.6725 63.374 91.83 62.9857C91.9955 62.5975 92.0778 62.1737 92.0769 61.7145C92.0759 61.2552 91.9919 60.8317 91.8248 60.4439C91.6657 60.0561 91.4393 59.7199 91.1457 59.4353C90.8601 59.1427 90.5191 58.9175 90.1229 58.7598C89.7345 58.602 89.3107 58.5234 88.8515 58.5241C88.3843 58.5248 87.9529 58.6046 87.5573 58.7635C87.1696 58.9225 86.8296 59.1486 86.5372 59.4421C86.2448 59.7275 86.0158 60.0644 85.8503 60.4527C85.6928 60.8409 85.6144 61.2647 85.6154 61.7239C85.6163 62.1832 85.6964 62.6067 85.8555 62.9945C86.0226 63.3823 86.2529 63.7224 86.5465 64.015C86.8401 64.2996 87.181 64.5208 87.5694 64.6786C87.9656 64.8364 88.3973 64.915 88.8645 64.9143ZM98.8421 65.9568C98.2087 65.9577 97.6185 65.8517 97.0717 65.6387C96.5328 65.4257 96.065 65.1294 95.6683 64.7499C95.2716 64.3625 94.9618 63.9116 94.7391 63.3972C94.5163 62.8828 94.4043 62.3208 94.4031 61.711C94.4018 61.1013 94.5115 60.5389 94.7322 60.0239C94.9528 59.5089 95.2608 59.061 95.6559 58.6804C96.051 58.2918 96.5176 57.9902 97.0556 57.7756C97.5936 57.561 98.1834 57.4533 98.8248 57.4523C99.4582 57.4514 100.04 57.5574 100.571 57.7704C101.11 57.9755 101.578 58.2718 101.975 58.6592C102.379 59.0387 102.689 59.4857 102.904 60C103.127 60.5144 103.239 61.0804 103.24 61.6981C103.241 62.3157 103.132 62.882 102.911 63.3971C102.698 63.9121 102.39 64.3639 101.987 64.7525C101.592 65.1332 101.126 65.4308 100.588 65.6454C100.057 65.852 99.4756 65.9558 98.8421 65.9568ZM101.565 67.5919C101.288 67.5923 101.023 67.5571 100.769 67.4862C100.516 67.4232 100.262 67.3167 100.009 67.1666C99.755 67.0244 99.4933 66.8348 99.2235 66.5976C98.9538 66.3684 98.6603 66.0837 98.3428 65.7437L99.6131 65.4093C99.8512 65.7019 100.077 65.9391 100.292 66.1209C100.514 66.3106 100.732 66.4449 100.946 66.5238C101.16 66.6106 101.37 66.6538 101.575 66.6535C102.169 66.6527 102.676 66.4144 103.094 65.9386L103.654 66.6149C103.117 67.265 102.421 67.5906 101.565 67.5919ZM98.84 64.8996C99.2993 64.899 99.7227 64.8192 100.11 64.6602C100.506 64.5013 100.846 64.2751 101.131 63.9817C101.423 63.6883 101.648 63.3475 101.805 62.9592C101.971 62.571 102.053 62.1512 102.052 61.6998C102.051 61.2405 101.967 60.817 101.8 60.4293C101.641 60.0415 101.415 59.7053 101.121 59.4206C100.836 59.1281 100.495 58.9029 100.098 58.7451C99.71 58.5873 99.2862 58.5088 98.8269 58.5094C98.3597 58.5101 97.9283 58.5899 97.5327 58.7489C97.145 58.9078 96.805 59.134 96.5126 59.4274C96.2202 59.7129 95.9913 60.0498 95.8258 60.438C95.6682 60.8263 95.5899 61.25 95.5908 61.7093C95.5917 62.1607 95.6718 62.5802 95.831 62.968C95.998 63.3557 96.2284 63.6959 96.522 63.9885C96.8155 64.281 97.1565 64.5062 97.5448 64.664C97.9411 64.8218 98.3728 64.9003 98.84 64.8996ZM107.678 63.0813L107.676 62.0954L110.871 62.0907L110.873 63.0766L107.678 63.0813ZM117.998 65.9287C117.412 65.9295 116.842 65.8393 116.287 65.658C115.74 65.4767 115.293 65.2318 114.944 64.9235L115.488 63.9844C115.766 64.2453 116.126 64.4586 116.57 64.6242C117.014 64.7898 117.485 64.8723 117.984 64.8716C118.618 64.8706 119.104 64.7353 119.444 64.4656C119.784 64.1958 119.954 63.8353 119.953 63.3839C119.952 63.0751 119.876 62.806 119.725 62.5766C119.575 62.3472 119.313 62.1733 118.94 62.0551C118.576 61.929 118.073 61.8663 117.432 61.8673L115.543 61.8701L115.974 57.5222L120.665 57.5153L120.667 58.5486L116.415 58.5549L117.032 57.972L116.694 61.4051L116.075 60.8359L117.679 60.8336C118.51 60.8323 119.18 60.9383 119.687 61.1513C120.194 61.3644 120.563 61.6608 120.793 62.0405C121.024 62.4124 121.139 62.8437 121.14 63.3347C121.141 63.8098 121.028 64.2455 120.799 64.6417C120.57 65.0301 120.222 65.3434 119.755 65.5816C119.297 65.8119 118.711 65.9276 117.998 65.9287ZM125.531 65.9176C124.882 65.9185 124.3 65.7531 123.784 65.4213C123.277 65.0895 122.872 64.607 122.57 63.974C122.275 63.3409 122.127 62.5731 122.126 61.6704C122.124 60.7676 122.269 59.9993 122.56 59.3654C122.86 58.7315 123.263 58.2479 123.769 57.9146C124.283 57.5812 124.865 57.4141 125.514 57.4131C126.155 57.4122 126.734 57.5776 127.249 57.9095C127.764 58.2413 128.169 58.7237 128.464 59.3568C128.758 59.9898 128.906 60.7577 128.908 61.6604C128.91 62.5631 128.765 63.3314 128.473 63.9653C128.181 64.5992 127.778 65.0829 127.264 65.4162C126.75 65.7495 126.173 65.9167 125.531 65.9176ZM125.529 64.8605C125.965 64.8598 126.344 64.7405 126.669 64.5025C127.001 64.2644 127.257 63.9077 127.438 63.4323C127.628 62.957 127.721 62.3669 127.72 61.6621C127.718 60.9574 127.622 60.3676 127.431 59.8928C127.248 59.4179 126.99 59.062 126.657 58.8249C126.332 58.5878 125.952 58.4696 125.516 58.4703C125.08 58.4709 124.697 58.5902 124.365 58.8283C124.033 59.0663 123.772 59.423 123.583 59.8984C123.402 60.3738 123.312 60.9639 123.313 61.6686C123.315 62.3734 123.407 62.9632 123.59 63.438C123.781 63.9128 124.043 64.2688 124.376 64.5058C124.709 64.7429 125.094 64.8611 125.529 64.8605ZM133.454 65.906C132.804 65.9069 132.222 65.7415 131.707 65.4097C131.199 65.0778 130.794 64.5954 130.492 63.9624C130.198 63.3293 130.05 62.5614 130.048 61.6587C130.046 60.756 130.191 59.9877 130.483 59.3538C130.782 58.7199 131.185 58.2363 131.691 57.9029C132.205 57.5696 132.787 57.4025 133.436 57.4015C134.078 57.4006 134.656 57.566 135.171 57.8978C135.687 58.2297 136.092 58.7121 136.386 59.3451C136.68 59.9782 136.828 60.7461 136.83 61.6488C136.832 62.5515 136.687 63.3198 136.395 63.9537C136.104 64.5876 135.701 65.0712 135.187 65.4046C134.673 65.7379 134.095 65.905 133.454 65.906ZM133.451 64.8489C133.887 64.8482 134.267 64.7289 134.591 64.4908C134.923 64.2528 135.18 63.8961 135.361 63.4207C135.55 62.9453 135.644 62.3553 135.642 61.6505C135.641 60.9458 135.545 60.356 135.354 59.8812C135.171 59.4063 134.912 59.0504 134.579 58.8133C134.254 58.5762 133.874 58.458 133.438 58.4586C133.003 58.4593 132.619 58.5786 132.287 58.8167C131.955 59.0547 131.694 59.4114 131.505 59.8868C131.324 60.3622 131.234 60.9522 131.236 61.657C131.237 62.3617 131.329 62.9515 131.512 63.4264C131.703 63.9012 131.966 64.2571 132.299 64.4942C132.632 64.7313 133.016 64.8495 133.451 64.8489ZM141.376 65.8943C140.727 65.8953 140.144 65.7299 139.629 65.398C139.121 65.0662 138.717 64.5838 138.414 63.9507C138.12 63.3177 137.972 62.5498 137.97 61.6471C137.968 60.7444 138.113 59.9761 138.405 59.3422C138.705 58.7083 139.107 58.2246 139.614 57.8913C140.128 57.558 140.709 57.3908 141.359 57.3899C142 57.3889 142.578 57.5544 143.094 57.8862C143.609 58.218 144.014 58.7005 144.308 59.3335C144.603 59.9666 144.751 60.7344 144.752 61.6371C144.754 62.5399 144.609 63.3082 144.318 63.9421C144.026 64.576 143.623 65.0596 143.109 65.3929C142.595 65.7263 142.017 65.8934 141.376 65.8943ZM141.374 64.8372C141.809 64.8366 142.189 64.7173 142.513 64.4792C142.845 64.2412 143.102 63.8845 143.283 63.4091C143.472 62.9337 143.566 62.3436 143.565 61.6389C143.563 60.9341 143.467 60.3444 143.276 59.8695C143.093 59.3947 142.835 59.0387 142.502 58.8017C142.177 58.5646 141.796 58.4464 141.361 58.447C140.925 58.4476 140.541 58.567 140.209 58.805C139.877 59.0431 139.617 59.3998 139.428 59.8752C139.246 60.3506 139.157 60.9406 139.158 61.6454C139.159 62.3501 139.252 62.9399 139.435 63.4147C139.626 63.8896 139.888 64.2455 140.221 64.4826C140.554 64.7197 140.938 64.8379 141.374 64.8372ZM149.768 65.787L149.751 57.4726L152.994 57.4678C153.722 57.4668 154.344 57.5807 154.859 57.8096C155.374 58.0384 155.771 58.3704 156.049 58.8055C156.327 59.2406 156.467 59.7591 156.468 60.3609C156.469 60.9627 156.332 61.4816 156.055 61.9175C155.779 62.3455 155.384 62.6787 154.87 62.917C154.355 63.1474 153.734 63.2631 153.005 63.2642L150.416 63.268L150.949 62.7089L150.956 65.7853L149.768 65.787ZM150.95 62.8277L150.414 62.2346L152.968 62.2309C153.728 62.2297 154.302 62.0666 154.689 61.7413C155.084 61.4161 155.281 60.9565 155.28 60.3627C155.279 59.7688 155.08 59.3098 154.683 58.9857C154.295 58.6616 153.72 58.5001 152.96 58.5012L150.406 58.505L150.94 57.9103L150.95 62.8277ZM160.778 65.8421C160.137 65.8431 159.563 65.7053 159.055 65.4289C158.556 65.1525 158.163 64.773 157.877 64.2904C157.591 63.8078 157.447 63.2537 157.446 62.6281C157.445 62.0026 157.586 61.4481 157.87 60.9646C158.154 60.4812 158.545 60.1045 159.044 59.8345C159.55 59.5566 160.124 59.4172 160.765 59.4163C161.335 59.4154 161.842 59.5295 162.286 59.7585C162.738 59.9795 163.087 60.3116 163.333 60.7547L162.468 61.3142C162.261 61.0057 162.007 60.7804 161.706 60.6383C161.413 60.4883 161.096 60.4135 160.755 60.414C160.344 60.4146 159.976 60.5062 159.651 60.6888C159.327 60.8714 159.07 61.1291 158.881 61.462C158.691 61.7869 158.597 62.1751 158.598 62.6264C158.599 63.0778 158.695 63.4696 158.886 63.8019C159.076 64.1342 159.334 64.3912 159.659 64.5728C159.984 64.7545 160.353 64.845 160.764 64.8444C161.105 64.8439 161.421 64.7722 161.714 64.6292C162.015 64.4783 162.268 64.2483 162.473 63.9392L163.341 64.4843C163.097 64.9202 162.749 65.2572 162.298 65.4954C161.855 65.7257 161.348 65.8413 160.778 65.8421ZM166.626 65.8335C166.103 65.8343 165.604 65.7638 165.129 65.6219C164.661 65.4801 164.292 65.3064 164.023 65.1009L164.496 64.1975C164.766 64.3793 165.099 64.5332 165.495 64.6593C165.891 64.7854 166.295 64.8482 166.707 64.8476C167.237 64.8468 167.617 64.771 167.847 64.6202C168.084 64.4694 168.202 64.2594 168.202 63.9902C168.201 63.7922 168.13 63.6379 167.987 63.5272C167.844 63.4166 167.654 63.3337 167.416 63.2787C167.186 63.2236 166.929 63.1764 166.644 63.1373C166.359 63.0902 166.073 63.0351 165.788 62.9722C165.503 62.9014 165.242 62.8067 165.004 62.6883C164.766 62.562 164.576 62.392 164.433 62.1784C164.29 61.9569 164.218 61.664 164.217 61.2998C164.216 60.9197 164.322 60.5869 164.536 60.3016C164.749 60.0162 165.049 59.798 165.437 59.647C165.833 59.488 166.3 59.4081 166.838 59.4073C167.25 59.4067 167.666 59.4576 168.086 59.5599C168.513 59.6543 168.862 59.7924 169.132 59.9741L168.647 60.8775C168.361 60.6879 168.064 60.5577 167.755 60.4869C167.446 60.4161 167.137 60.3809 166.828 60.3813C166.329 60.3821 165.957 60.4658 165.712 60.6324C165.467 60.7911 165.345 60.9972 165.345 61.2506C165.346 61.4644 165.417 61.6306 165.56 61.7491C165.711 61.8598 165.901 61.9466 166.131 62.0096C166.368 62.0726 166.63 62.1277 166.915 62.1748C167.2 62.2139 167.485 62.2689 167.771 62.3398C168.056 62.4027 168.313 62.4934 168.543 62.6118C168.781 62.7303 168.971 62.8963 169.114 63.1099C169.265 63.3234 169.341 63.6084 169.342 63.9647C169.343 64.3448 169.232 64.6736 169.011 64.9511C168.79 65.2285 168.478 65.4468 168.074 65.6057C167.671 65.7568 167.188 65.8327 166.626 65.8335ZM171.155 68.0599L170.074 68.0615C170.556 67.2214 170.906 66.3459 171.126 65.435C171.346 64.5161 171.455 63.538 171.453 62.5007C171.451 61.4634 171.338 60.4895 171.114 59.5792C170.891 58.661 170.536 57.7826 170.052 56.9439L171.133 56.9423C171.601 57.6464 171.955 58.4773 172.195 59.4351C172.442 60.385 172.567 61.4063 172.569 62.499C172.571 63.5918 172.451 64.6135 172.207 65.564C171.972 66.5067 171.621 67.3386 171.155 68.0599Z" fill="black"/>
<path d="M186.342 61.8789H222.91" stroke="url(#paint0_linear_2175_3)" stroke-width="0.863039"/>
<path d="M36.5684 61.8838H-0.000134468" stroke="url(#paint1_linear_2175_3)" stroke-width="0.863039"/>
<path d="M247.482 46.4358C246.663 45.1982 246.027 43.7698 245.574 42.1506C245.135 40.5177 244.914 38.762 244.91 36.8834C244.906 35.0049 245.121 33.2485 245.553 31.6144C245.999 29.9666 246.629 28.5363 247.443 27.3236L250.485 27.3191C249.631 28.8586 249.008 30.4114 248.616 31.9774C248.225 33.5298 248.031 35.1637 248.034 36.8788C248.038 38.594 248.239 40.2341 248.637 41.7989C249.034 43.3502 249.664 44.8943 250.525 46.4313L247.482 46.4358ZM257.203 42.7052C256.209 42.7067 255.222 42.5788 254.241 42.3216C253.274 42.0508 252.443 41.6708 251.748 41.1818L253.049 38.6479C253.595 39.0419 254.221 39.3541 254.93 39.5845C255.652 39.8148 256.38 39.9295 257.115 39.9284C257.946 39.9272 258.599 39.7628 259.074 39.4354C259.55 39.108 259.788 38.6517 259.786 38.0663C259.786 37.6988 259.69 37.3722 259.498 37.0866C259.307 36.801 258.967 36.5837 258.476 36.4347C257.999 36.2857 257.325 36.2118 256.454 36.2131L252.799 36.2184L253.518 28.1723L262.237 28.1595L262.242 30.814L254.708 30.825L256.42 29.3115L255.921 35.05L254.203 33.5415L257.225 33.5371C258.64 33.535 259.777 33.7307 260.636 34.1242C261.508 34.5041 262.142 35.0272 262.538 35.6937C262.934 36.3601 263.133 37.1153 263.135 37.9593C263.137 38.8033 262.927 39.5863 262.507 40.3084C262.086 41.0169 261.434 41.5964 260.55 42.0469C259.68 42.4838 258.564 42.7032 257.203 42.7052ZM277.498 42.6754C276.354 42.6771 275.258 42.529 274.209 42.2311C273.16 41.9195 272.316 41.5192 271.675 41.0301L272.793 38.5373C273.406 38.972 274.128 39.3317 274.959 39.6163C275.804 39.8873 276.655 40.0222 277.513 40.021C278.166 40.02 278.69 39.958 279.085 39.8349C279.493 39.6981 279.792 39.5139 279.982 39.2822C280.172 39.0505 280.267 38.785 280.266 38.4855C280.265 38.1043 280.115 37.8051 279.815 37.5877C279.515 37.3567 279.12 37.1735 278.63 37.0381C278.139 36.8891 277.594 36.7538 276.995 36.6322C276.41 36.4969 275.817 36.3344 275.218 36.1447C274.632 35.955 274.094 35.7107 273.603 35.412C273.112 35.1132 272.71 34.7191 272.396 34.2295C272.096 33.7398 271.945 33.1139 271.943 32.3516C271.941 31.5348 272.158 30.7926 272.592 30.1249C273.04 29.4437 273.706 28.905 274.59 28.5089C275.487 28.0992 276.61 27.8934 277.957 27.8914C278.856 27.8901 279.741 27.9977 280.613 28.2142C281.484 28.4171 282.254 28.7291 282.922 29.1501L281.906 31.6631C281.238 31.2829 280.571 31.0049 279.903 30.8289C279.236 30.6393 278.582 30.545 277.942 30.5459C277.303 30.5468 276.779 30.6225 276.371 30.7728C275.963 30.9231 275.67 31.121 275.494 31.3662C275.317 31.5979 275.229 31.8703 275.23 32.1834C275.231 32.5509 275.381 32.8502 275.681 33.0812C275.981 33.2985 276.376 33.4749 276.867 33.6103C277.357 33.7457 277.895 33.8811 278.48 34.0163C279.08 34.1516 279.672 34.3073 280.258 34.4834C280.857 34.6595 281.402 34.8969 281.893 35.1956C282.384 35.4944 282.779 35.8886 283.08 36.3782C283.394 36.8678 283.551 37.4869 283.553 38.2356C283.555 39.0388 283.332 39.7742 282.884 40.4419C282.436 41.1095 281.763 41.6482 280.866 42.0579C279.982 42.4676 278.859 42.6734 277.498 42.6754ZM286.414 42.4173L286.392 31.4319L289.577 31.4273L289.599 42.4127L286.414 42.4173ZM287.981 29.8982C287.396 29.899 286.919 29.7296 286.551 29.3898C286.182 29.05 285.998 28.6283 285.997 28.1246C285.996 27.621 286.179 27.1987 286.546 26.8578C286.912 26.517 287.388 26.3461 287.974 26.3453C288.559 26.3444 289.036 26.5071 289.404 26.8332C289.772 27.1458 289.957 27.5539 289.958 28.0576C289.959 28.5885 289.776 29.0311 289.409 29.3856C289.056 29.7264 288.58 29.8973 287.981 29.8982ZM298.09 42.5636C297.055 42.5651 296.122 42.335 295.291 41.8734C294.459 41.3982 293.798 40.7389 293.306 39.8957C292.828 39.0524 292.588 38.059 292.585 36.9156C292.583 35.7585 292.819 34.7576 293.294 33.9129C293.782 33.0682 294.441 32.4138 295.27 31.9498C296.1 31.4857 297.032 31.253 298.066 31.2514C298.992 31.2501 299.802 31.4531 300.498 31.8604C301.193 32.2678 301.732 32.8864 302.114 33.7162C302.497 34.546 302.69 35.6075 302.693 36.9007C302.695 38.1803 302.514 39.2424 302.148 40.0869C301.782 40.9178 301.252 41.538 300.559 41.9474C299.879 42.3567 299.056 42.5621 298.09 42.5636ZM298.635 39.9491C299.153 39.9484 299.622 39.8252 300.044 39.5795C300.465 39.3339 300.798 38.9862 301.042 38.5367C301.3 38.0735 301.428 37.5288 301.427 36.9026C301.425 36.2628 301.295 35.7185 301.035 35.2696C300.789 34.8208 300.455 34.4741 300.033 34.2297C299.61 33.9853 299.14 33.8635 298.623 33.8643C298.092 33.865 297.616 33.9883 297.194 34.2339C296.773 34.4795 296.433 34.8272 296.176 35.2768C295.932 35.7263 295.81 36.271 295.811 36.9108C295.813 37.537 295.936 38.0813 296.182 38.5438C296.442 38.9926 296.783 39.3393 297.205 39.5837C297.628 39.8281 298.105 39.9499 298.635 39.9491ZM301.52 42.3952L301.515 40.1491L301.57 36.882L301.359 33.6356L301.346 27.2445L304.531 27.2398L304.562 42.3907L301.52 42.3952ZM313.779 42.5405C312.527 42.5424 311.424 42.299 310.47 41.8103C309.529 41.3216 308.8 40.6557 308.281 39.8124C307.762 38.9556 307.501 37.9827 307.499 36.8937C307.497 35.791 307.747 34.8174 308.248 33.9727C308.764 33.1143 309.464 32.4462 310.348 31.9685C311.231 31.4772 312.231 31.2307 313.348 31.229C314.423 31.2274 315.39 31.4574 316.249 31.919C317.121 32.3669 317.809 33.0193 318.315 33.8762C318.82 34.7194 319.074 35.7332 319.077 36.9175C319.077 37.04 319.07 37.183 319.057 37.3463C319.044 37.4961 319.03 37.6391 319.017 37.7752L310.094 37.7883L310.09 35.9302L317.339 35.9195L316.115 36.4726C316.114 35.9009 315.997 35.4042 315.765 34.9826C315.532 34.5609 315.212 34.2347 314.803 34.0039C314.394 33.7594 313.917 33.6376 313.373 33.6384C312.828 33.6392 312.345 33.7624 311.924 34.0081C311.516 34.2401 311.197 34.5741 310.966 35.01C310.736 35.4324 310.621 35.9362 310.622 36.5215L310.623 37.0116C310.625 37.6106 310.755 38.1413 311.015 38.6037C311.288 39.0525 311.663 39.3991 312.14 39.6434C312.63 39.8741 313.202 39.989 313.856 39.988C314.441 39.9872 314.951 39.8979 315.386 39.7203C315.835 39.5427 316.243 39.2767 316.61 38.9222L318.309 40.7574C317.806 41.3299 317.174 41.7732 316.412 42.0874C315.651 42.388 314.773 42.5391 313.779 42.5405ZM323.81 46.3237L320.767 46.3282C321.649 44.7887 322.279 43.2427 322.657 41.6903C323.048 40.1243 323.242 38.4837 323.239 36.7685C323.235 35.0533 323.035 33.4201 322.637 31.8688C322.252 30.3039 321.616 28.753 320.728 27.2161L323.771 27.2116C324.617 28.4219 325.26 29.8503 325.699 31.4968C326.138 33.1296 326.359 34.8853 326.363 36.7639C326.367 38.6424 326.153 40.3988 325.72 42.0329C325.288 43.6535 324.651 45.0838 323.81 46.3237Z" fill="#490606"/>
<defs>
<linearGradient id="paint0_linear_2175_3" x1="217.425" y1="62.3789" x2="186.951" y2="62.3789" gradientUnits="userSpaceOnUse">
<stop stop-color="#666666" stop-opacity="0"/>
<stop offset="1"/>
</linearGradient>
<linearGradient id="paint1_linear_2175_3" x1="5.48514" y1="62.3838" x2="35.9589" y2="62.3838" gradientUnits="userSpaceOnUse">
<stop stop-color="#666666" stop-opacity="0"/>
<stop offset="1"/>
</linearGradient>
</defs>
</svg>
