<svg width="165" height="50" viewBox="0 0 165 50" fill="none" xmlns="http://www.w3.org/2000/svg">
<g filter="url(#filter0_d_2040_984)">
<rect x="24.1406" y="4.7168" width="33" height="31" rx="6" transform="rotate(46.3303 24.1406 4.7168)" fill="white"/>
</g>
<path d="M20.1982 21.1045H28.2373C28.4651 21.1045 28.6809 21.2079 28.8232 21.3857L30.3037 23.2363C30.4101 23.3693 30.4677 23.5348 30.4678 23.7051V33.3545C30.4678 33.7687 30.132 34.1045 29.7178 34.1045H18.7178C18.3036 34.1045 17.9678 33.7687 17.9678 33.3545V23.7051C17.9678 23.5348 18.0255 23.3693 18.1318 23.2363L19.6123 21.3857C19.7546 21.2079 19.9705 21.1045 20.1982 21.1045Z" stroke="black" stroke-width="0.5"/>
<path d="M18.2178 23.3545H30.2178" stroke="black" stroke-width="0.5"/>
<path d="M26.4678 23.6045V29.834L24.374 28.1592L24.2178 28.0342L24.0615 28.1592L21.9678 29.834V23.6045H26.4678Z" stroke="black" stroke-width="0.5"/>
<path d="M55.966 22.667V13.1515H60.0962C60.798 13.1515 61.3919 13.2685 61.8778 13.5024C62.3637 13.7364 62.7326 14.0738 62.9846 14.5147C63.2365 14.9556 63.3625 15.491 63.3625 16.1209C63.3625 16.7417 63.2365 17.2771 62.9846 17.727C62.7326 18.1679 62.3637 18.5099 61.8778 18.7528C61.3919 18.9868 60.798 19.1037 60.0962 19.1037H57.6937V22.667H55.966ZM57.6937 17.7405H59.8262C60.4381 17.7405 60.9015 17.6056 61.2164 17.3356C61.5314 17.0567 61.6888 16.6518 61.6888 16.1209C61.6888 15.59 61.5314 15.1896 61.2164 14.9196C60.9015 14.6497 60.4381 14.5147 59.8262 14.5147H57.6937V17.7405ZM67.3297 22.802C66.6368 22.802 66.034 22.6625 65.5211 22.3836C65.0082 22.0956 64.6123 21.6907 64.3333 21.1688C64.0544 20.6469 63.9149 20.035 63.9149 19.3332C63.9149 18.6313 64.0544 18.0285 64.3333 17.5246C64.6123 17.0117 65.0082 16.6203 65.5211 16.3503C66.034 16.0714 66.6368 15.9319 67.3297 15.9319C67.7526 15.9319 68.171 15.9994 68.5849 16.1344C68.9988 16.2693 69.3408 16.4583 69.6107 16.7013L69.1113 17.8755C68.8774 17.6685 68.6119 17.5111 68.315 17.4031C68.027 17.2951 67.7481 17.2411 67.4782 17.2411C66.8933 17.2411 66.4389 17.4256 66.1149 17.7945C65.8 18.1544 65.6425 18.6718 65.6425 19.3467C65.6425 20.0126 65.8 20.5389 66.1149 20.9259C66.4389 21.3038 66.8933 21.4927 67.4782 21.4927C67.7391 21.4927 68.018 21.4388 68.315 21.3308C68.6119 21.2228 68.8774 21.0608 69.1113 20.8449L69.6107 22.0326C69.3408 22.2666 68.9943 22.4555 68.5714 22.5995C68.1575 22.7345 67.7436 22.802 67.3297 22.802ZM73.0616 22.802C72.6927 22.802 72.3328 22.7705 71.9819 22.7075C71.6399 22.6445 71.325 22.559 71.0371 22.451C70.7491 22.3341 70.4972 22.1901 70.2812 22.0191L70.7131 20.9124C70.9381 21.0563 71.181 21.1823 71.442 21.2903C71.7029 21.3983 71.9729 21.4792 72.2518 21.5332C72.5308 21.5872 72.8052 21.6142 73.0751 21.6142C73.5071 21.6142 73.8265 21.5422 74.0334 21.3983C74.2494 21.2453 74.3574 21.0473 74.3574 20.8044C74.3574 20.5974 74.2854 20.44 74.1414 20.332C74.0064 20.215 73.7995 20.1295 73.5205 20.0755L72.1708 19.8191C71.613 19.7111 71.1855 19.5087 70.8886 19.2117C70.6007 18.9058 70.4567 18.5144 70.4567 18.0375C70.4567 17.6056 70.5737 17.2321 70.8076 16.9172C71.0506 16.6023 71.3835 16.3593 71.8064 16.1884C72.2293 16.0174 72.7152 15.9319 73.2641 15.9319C73.579 15.9319 73.885 15.9634 74.1819 16.0264C74.4788 16.0804 74.7578 16.1659 75.0187 16.2828C75.2887 16.3908 75.5226 16.5348 75.7206 16.7148L75.2617 17.8215C75.0907 17.6775 74.8928 17.5561 74.6678 17.4571C74.4429 17.3491 74.2089 17.2681 73.966 17.2141C73.732 17.1512 73.5026 17.1197 73.2776 17.1197C72.8367 17.1197 72.5083 17.1961 72.2923 17.3491C72.0854 17.5021 71.9819 17.7045 71.9819 17.9565C71.9819 18.1454 72.0449 18.3029 72.1708 18.4289C72.2968 18.5549 72.4903 18.6403 72.7512 18.6853L74.1009 18.9418C74.6858 19.0498 75.1267 19.2477 75.4236 19.5357C75.7296 19.8236 75.8825 20.2105 75.8825 20.6964C75.8825 21.1373 75.7656 21.5152 75.5316 21.8302C75.2977 22.1451 74.9692 22.3881 74.5463 22.559C74.1234 22.721 73.6285 22.802 73.0616 22.802ZM81.0359 22.667V13.1515H85.1661C85.8679 13.1515 86.4618 13.2685 86.9477 13.5024C87.4336 13.7364 87.8025 14.0738 88.0544 14.5147C88.3064 14.9556 88.4324 15.491 88.4324 16.1209C88.4324 16.7417 88.3064 17.2771 88.0544 17.727C87.8025 18.1679 87.4336 18.5099 86.9477 18.7528C86.4618 18.9868 85.8679 19.1037 85.1661 19.1037H82.7636V22.667H81.0359ZM82.7636 17.7405H84.8961C85.508 17.7405 85.9714 17.6056 86.2863 17.3356C86.6012 17.0567 86.7587 16.6518 86.7587 16.1209C86.7587 15.59 86.6012 15.1896 86.2863 14.9196C85.9714 14.6497 85.508 14.5147 84.8961 14.5147H82.7636V17.7405ZM92.602 22.802C91.8552 22.802 91.2118 22.6625 90.6719 22.3836C90.1321 22.1046 89.7136 21.7087 89.4167 21.1958C89.1288 20.6829 88.9848 20.0755 88.9848 19.3737C88.9848 18.6898 89.1243 18.0915 89.4032 17.5786C89.6911 17.0657 90.0826 16.6653 90.5775 16.3773C91.0814 16.0804 91.6527 15.9319 92.2916 15.9319C92.9215 15.9319 93.4613 16.0669 93.9113 16.3368C94.3612 16.6068 94.7076 16.9892 94.9505 17.4841C95.2025 17.979 95.3285 18.5684 95.3285 19.2522V19.7516H90.348V18.7798H94.1407L93.9248 18.9823C93.9248 18.3704 93.7898 17.9025 93.5198 17.5786C93.2499 17.2456 92.863 17.0792 92.3591 17.0792C91.9812 17.0792 91.6572 17.1692 91.3873 17.3491C91.1263 17.5201 90.9239 17.7675 90.7799 18.0915C90.6449 18.4064 90.5775 18.7843 90.5775 19.2252V19.3197C90.5775 19.8146 90.6539 20.224 90.8069 20.5479C90.9599 20.8719 91.1893 21.1148 91.4953 21.2768C91.8012 21.4388 92.1791 21.5197 92.629 21.5197C92.9979 21.5197 93.3669 21.4657 93.7358 21.3578C94.1047 21.2408 94.4421 21.0608 94.7481 20.8179L95.2205 21.9516C94.9055 22.2126 94.5096 22.4195 94.0327 22.5725C93.5558 22.7255 93.0789 22.802 92.602 22.802ZM96.6646 22.667V16.0669H98.3112V17.6596H98.1762C98.3022 17.1197 98.5497 16.7103 98.9186 16.4313C99.2875 16.1434 99.7779 15.9769 100.39 15.9319L100.903 15.8914L101.011 17.3221L100.039 17.4166C99.49 17.4706 99.0761 17.6416 98.7971 17.9295C98.5182 18.2084 98.3787 18.6044 98.3787 19.1172V22.667H96.6646ZM105.75 22.667V13.1515H109.907C110.906 13.1515 111.68 13.372 112.229 13.8129C112.777 14.2448 113.052 14.8476 113.052 15.6215C113.052 16.1974 112.885 16.6833 112.552 17.0792C112.22 17.4751 111.765 17.7405 111.189 17.8755V17.673C111.63 17.736 112.008 17.871 112.323 18.078C112.638 18.2849 112.876 18.5504 113.038 18.8743C113.209 19.1982 113.295 19.5761 113.295 20.0081C113.295 20.5659 113.164 21.0473 112.903 21.4522C112.651 21.8482 112.283 22.1496 111.797 22.3566C111.311 22.5635 110.73 22.667 110.056 22.667H105.75ZM107.41 21.3578H109.84C110.083 21.3578 110.298 21.3398 110.487 21.3038C110.685 21.2678 110.852 21.2138 110.987 21.1418C111.131 21.0608 111.248 20.9619 111.338 20.8449C111.437 20.7279 111.509 20.5929 111.554 20.44C111.599 20.287 111.621 20.116 111.621 19.9271C111.621 19.7291 111.599 19.5537 111.554 19.4007C111.509 19.2477 111.437 19.1172 111.338 19.0093C111.248 18.8923 111.131 18.7978 110.987 18.7258C110.852 18.6448 110.685 18.5864 110.487 18.5504C110.298 18.5144 110.083 18.4964 109.84 18.4964H107.41V21.3578ZM107.41 17.1872H109.61C110.204 17.1872 110.645 17.0747 110.933 16.8497C111.23 16.6158 111.378 16.2738 111.378 15.8239C111.378 15.374 111.23 15.0366 110.933 14.8117C110.645 14.5777 110.204 14.4607 109.61 14.4607H107.41V17.1872ZM117.89 22.802C117.206 22.802 116.613 22.6625 116.109 22.3836C115.605 22.1046 115.213 21.7087 114.934 21.1958C114.655 20.6739 114.516 20.062 114.516 19.3602C114.516 18.6583 114.655 18.051 114.934 17.5381C115.213 17.0252 115.605 16.6293 116.109 16.3503C116.613 16.0714 117.206 15.9319 117.89 15.9319C118.574 15.9319 119.168 16.0714 119.672 16.3503C120.176 16.6293 120.567 17.0252 120.846 17.5381C121.125 18.051 121.265 18.6583 121.265 19.3602C121.265 20.062 121.125 20.6739 120.846 21.1958C120.567 21.7087 120.176 22.1046 119.672 22.3836C119.168 22.6625 118.574 22.802 117.89 22.802ZM117.89 21.5197C118.394 21.5197 118.799 21.3398 119.105 20.9798C119.411 20.6109 119.564 20.071 119.564 19.3602C119.564 18.6403 119.411 18.105 119.105 17.754C118.799 17.3941 118.394 17.2141 117.89 17.2141C117.386 17.2141 116.981 17.3941 116.676 17.754C116.37 18.105 116.217 18.6403 116.217 19.3602C116.217 20.071 116.37 20.6109 116.676 20.9798C116.981 21.3398 117.386 21.5197 117.89 21.5197ZM121.568 22.667L124.659 18.8608V19.6571L121.743 16.0669H123.714L125.604 18.4829H125.01L126.899 16.0669H128.87L125.955 19.6436V18.8878L129.045 22.667H127.061L125.01 20.0755H125.577L123.539 22.667H121.568Z" fill="black"/>
<path d="M55.3654 42.041V41.4674L58.6385 38.2618C58.9384 37.9694 59.1634 37.7144 59.3133 37.497C59.4633 37.272 59.5645 37.0621 59.617 36.8671C59.6695 36.6722 59.6957 36.4884 59.6957 36.316C59.6957 35.8586 59.5383 35.4986 59.2233 35.2362C58.9159 34.9738 58.4585 34.8425 57.8511 34.8425C57.3862 34.8425 56.9738 34.9138 56.6139 35.0562C56.2615 35.1987 55.9578 35.4199 55.7028 35.7199L55.1292 35.225C55.4366 34.865 55.8303 34.5876 56.3102 34.3926C56.7901 34.1977 57.3263 34.1002 57.9186 34.1002C58.451 34.1002 58.9122 34.1864 59.3021 34.3589C59.692 34.5239 59.9919 34.7676 60.2019 35.09C60.4193 35.4124 60.5281 35.7911 60.5281 36.226C60.5281 36.4809 60.4906 36.7321 60.4156 36.9796C60.3481 37.227 60.2206 37.4895 60.0332 37.7669C59.8532 38.0369 59.587 38.3443 59.2346 38.6892L56.2315 41.6361L56.0065 41.3212H60.888V42.041H55.3654ZM64.39 42.1085C63.8277 42.1085 63.2915 42.0185 62.7816 41.8386C62.2717 41.6511 61.8668 41.4037 61.5669 41.0962L61.9606 40.4551C62.208 40.7175 62.5454 40.935 62.9728 41.1075C63.4078 41.2799 63.8764 41.3662 64.3788 41.3662C65.0462 41.3662 65.5523 41.2199 65.8972 40.9275C66.2497 40.6276 66.4259 40.2376 66.4259 39.7577C66.4259 39.4203 66.3434 39.1316 66.1784 38.8917C66.021 38.6442 65.751 38.453 65.3686 38.3181C64.9862 38.1831 64.4613 38.1156 63.7939 38.1156H62.118L62.5229 34.1677H66.8308V34.8875H62.8491L63.2653 34.4939L62.9166 37.8007L62.5004 37.3957H63.9739C64.7687 37.3957 65.4061 37.4932 65.886 37.6882C66.3659 37.8831 66.7108 38.1568 66.9208 38.5093C67.1382 38.8542 67.2469 39.2591 67.2469 39.724C67.2469 40.1664 67.142 40.5713 66.932 40.9387C66.7221 41.2987 66.4071 41.5836 65.9872 41.7936C65.5673 42.0035 65.0349 42.1085 64.39 42.1085ZM71.4131 42.1085C70.8058 42.1085 70.2659 41.951 69.7935 41.6361C69.3211 41.3137 68.9499 40.8563 68.68 40.2639C68.41 39.664 68.275 38.9442 68.275 38.1043C68.275 37.2645 68.41 36.5484 68.68 35.9561C68.9499 35.3562 69.3211 34.8988 69.7935 34.5838C70.2659 34.2614 70.8058 34.1002 71.4131 34.1002C72.0205 34.1002 72.5604 34.2614 73.0328 34.5838C73.5052 34.8988 73.8764 35.3562 74.1463 35.9561C74.4237 36.5484 74.5625 37.2645 74.5625 38.1043C74.5625 38.9442 74.4237 39.664 74.1463 40.2639C73.8764 40.8563 73.5052 41.3137 73.0328 41.6361C72.5604 41.951 72.0205 42.1085 71.4131 42.1085ZM71.4131 41.3662C71.878 41.3662 72.2829 41.2424 72.6279 40.995C72.9728 40.74 73.2427 40.3726 73.4377 39.8927C73.6327 39.4053 73.7301 38.8092 73.7301 38.1043C73.7301 37.3995 73.6327 36.8071 73.4377 36.3272C73.2427 35.8398 72.9728 35.4724 72.6279 35.225C72.2829 34.97 71.878 34.8425 71.4131 34.8425C70.9632 34.8425 70.5621 34.97 70.2096 35.225C69.8572 35.4724 69.5835 35.8398 69.3886 36.3272C69.1936 36.8071 69.0961 37.3995 69.0961 38.1043C69.0961 38.8092 69.1936 39.4053 69.3886 39.8927C69.5835 40.3726 69.8572 40.74 70.2096 40.995C70.5621 41.2424 70.9632 41.3662 71.4131 41.3662ZM79.3633 42.041V34.1677H80.0494L85.482 41.0062H85.1221V34.1677H85.9431V42.041H85.257L79.8357 35.2025H80.1956V42.041H79.3633ZM90.7512 42.0973C90.1813 42.0973 89.6677 41.9698 89.2103 41.7148C88.7604 41.4524 88.4042 41.0962 88.1418 40.6463C87.8793 40.1889 87.7481 39.6678 87.7481 39.0829C87.7481 38.4905 87.8793 37.9694 88.1418 37.5195C88.4042 37.0696 88.7604 36.7171 89.2103 36.4622C89.6602 36.2072 90.1738 36.0798 90.7512 36.0798C91.3361 36.0798 91.8535 36.2072 92.3034 36.4622C92.7608 36.7171 93.117 37.0696 93.3719 37.5195C93.6344 37.9694 93.7656 38.4905 93.7656 39.0829C93.7656 39.6678 93.6344 40.1889 93.3719 40.6463C93.117 41.0962 92.7608 41.4524 92.3034 41.7148C91.846 41.9698 91.3286 42.0973 90.7512 42.0973ZM90.7512 41.3887C91.1786 41.3887 91.5573 41.2949 91.8872 41.1075C92.2172 40.9125 92.4759 40.6426 92.6633 40.2976C92.8583 39.9452 92.9558 39.5403 92.9558 39.0829C92.9558 38.618 92.8583 38.2131 92.6633 37.8681C92.4759 37.5232 92.2172 37.257 91.8872 37.0696C91.5573 36.8746 91.1824 36.7771 90.7625 36.7771C90.3426 36.7771 89.9676 36.8746 89.6377 37.0696C89.3078 37.257 89.0453 37.5232 88.8504 37.8681C88.6554 38.2131 88.5579 38.618 88.5579 39.0829C88.5579 39.5403 88.6554 39.9452 88.8504 40.2976C89.0453 40.6426 89.3078 40.9125 89.6377 41.1075C89.9676 41.2949 90.3388 41.3887 90.7512 41.3887ZM96.9819 42.0973C96.4945 42.0973 96.0333 42.0298 95.5984 41.8948C95.1635 41.7523 94.8223 41.5761 94.5749 41.3662L94.9348 40.7363C95.1748 40.9163 95.4822 41.0737 95.8571 41.2087C96.232 41.3362 96.6257 41.3999 97.0381 41.3999C97.6005 41.3999 98.0054 41.3137 98.2529 41.1412C98.5003 40.9612 98.624 40.725 98.624 40.4326C98.624 40.2152 98.5528 40.0464 98.4103 39.9265C98.2754 39.799 98.0954 39.7053 97.8704 39.6453C97.6455 39.5778 97.3943 39.5215 97.1168 39.4766C96.8394 39.4316 96.562 39.3791 96.2845 39.3191C96.0146 39.2591 95.7671 39.1729 95.5422 39.0604C95.3172 38.9404 95.1335 38.7792 94.991 38.5767C94.8561 38.3743 94.7886 38.1043 94.7886 37.7669C94.7886 37.4445 94.8786 37.1558 95.0585 36.9009C95.2385 36.6459 95.5009 36.4472 95.8459 36.3047C96.1983 36.1548 96.6257 36.0798 97.1281 36.0798C97.5105 36.0798 97.8929 36.1323 98.2754 36.2372C98.6578 36.3347 98.9727 36.4659 99.2202 36.6309L98.8715 37.272C98.609 37.0921 98.3278 36.9646 98.0279 36.8896C97.728 36.8071 97.428 36.7659 97.1281 36.7659C96.5957 36.7659 96.202 36.8596 95.9471 37.0471C95.6996 37.227 95.5759 37.4595 95.5759 37.7444C95.5759 37.9694 95.6434 38.1456 95.7784 38.2731C95.9209 38.4005 96.1046 38.5018 96.3295 38.5767C96.562 38.6442 96.8132 38.7005 97.0831 38.7455C97.3605 38.7905 97.6342 38.8467 97.9042 38.9142C98.1816 38.9742 98.4328 39.0604 98.6578 39.1729C98.8902 39.2778 99.0739 39.4316 99.2089 39.634C99.3514 39.829 99.4226 40.0877 99.4226 40.4101C99.4226 40.755 99.3251 41.055 99.1302 41.3099C98.9427 41.5574 98.6653 41.7523 98.2978 41.8948C97.9379 42.0298 97.4993 42.0973 96.9819 42.0973ZM99.4933 43.1658L103.205 32.5705H103.936L100.224 43.1658H99.4933ZM106.339 42.0973C105.754 42.0973 105.229 41.9698 104.764 41.7148C104.307 41.4524 103.947 41.0962 103.684 40.6463C103.422 40.1889 103.29 39.6678 103.29 39.0829C103.29 38.4905 103.422 37.9694 103.684 37.5195C103.947 37.0696 104.307 36.7171 104.764 36.4622C105.229 36.2072 105.754 36.0798 106.339 36.0798C106.841 36.0798 107.295 36.1773 107.7 36.3722C108.104 36.5672 108.423 36.8596 108.656 37.2495L108.059 37.6544C107.857 37.3545 107.606 37.1333 107.306 36.9908C107.006 36.8484 106.68 36.7771 106.327 36.7771C105.907 36.7771 105.529 36.8746 105.191 37.0696C104.854 37.257 104.588 37.5232 104.393 37.8681C104.198 38.2131 104.1 38.618 104.1 39.0829C104.1 39.5478 104.198 39.9527 104.393 40.2976C104.588 40.6426 104.854 40.9125 105.191 41.1075C105.529 41.2949 105.907 41.3887 106.327 41.3887C106.68 41.3887 107.006 41.3174 107.306 41.1749C107.606 41.0325 107.857 40.815 108.059 40.5226L108.656 40.9275C108.423 41.3099 108.104 41.6024 107.7 41.8048C107.295 41.9998 106.841 42.0973 106.339 42.0973ZM112.157 42.0973C111.602 42.0973 111.175 41.9473 110.875 41.6473C110.575 41.3474 110.425 40.9238 110.425 40.3764V34.8313H111.224V40.3314C111.224 40.6763 111.31 40.9425 111.483 41.13C111.662 41.3174 111.917 41.4111 112.247 41.4111C112.6 41.4111 112.892 41.3099 113.125 41.1075L113.406 41.6811C113.248 41.8236 113.057 41.9285 112.832 41.996C112.615 42.0635 112.39 42.0973 112.157 42.0973ZM109.368 36.7996V36.136H113.023V36.7996H109.368ZM117.874 36.0798C118.354 36.0798 118.774 36.1735 119.134 36.361C119.501 36.5409 119.786 36.8184 119.989 37.1933C120.198 37.5682 120.303 38.0406 120.303 38.6105V42.041H119.505V38.6892C119.505 38.0669 119.347 37.5982 119.032 37.2833C118.725 36.9608 118.29 36.7996 117.728 36.7996C117.308 36.7996 116.94 36.8859 116.625 37.0583C116.318 37.2233 116.078 37.467 115.906 37.7894C115.741 38.1043 115.658 38.4868 115.658 38.9367V42.041H114.86V36.136H115.624V37.7557L115.501 37.452C115.688 37.0246 115.988 36.6909 116.401 36.4509C116.813 36.2035 117.304 36.0798 117.874 36.0798Z" fill="black"/>
<defs>
<filter id="filter0_d_2040_984" x="0.000195503" y="0.000195503" width="48.6441" height="48.7096" filterUnits="userSpaceOnUse" color-interpolation-filters="sRGB">
<feFlood flood-opacity="0" result="BackgroundImageFix"/>
<feColorMatrix in="SourceAlpha" type="matrix" values="0 0 0 0 0 0 0 0 0 0 0 0 0 0 0 0 0 0 127 0" result="hardAlpha"/>
<feOffset dy="-3"/>
<feGaussianBlur stdDeviation="2.1"/>
<feComposite in2="hardAlpha" operator="out"/>
<feColorMatrix type="matrix" values="0 0 0 0 0 0 0 0 0 0 0 0 0 0 0 0 0 0 0.25 0"/>
<feBlend mode="normal" in2="BackgroundImageFix" result="effect1_dropShadow_2040_984"/>
<feBlend mode="normal" in="SourceGraphic" in2="effect1_dropShadow_2040_984" result="shape"/>
</filter>
</defs>
</svg>
