<svg width="325" height="76" viewBox="0 0 325 76" fill="none" xmlns="http://www.w3.org/2000/svg">
<path d="M20.014 46.8585C18.0072 46.8613 16.0834 46.6012 14.2427 46.0782C12.4019 45.5313 10.9192 44.8286 9.79447 43.9701L11.7561 39.5953C12.8329 40.3583 14.1004 40.9897 15.5588 41.4893C17.0411 41.965 18.5348 42.2018 20.0399 42.1997C21.1866 42.1981 22.1062 42.0893 22.7986 41.8733C23.5148 41.6334 24.0397 41.3101 24.3733 40.9035C24.7069 40.4969 24.8732 40.0308 24.872 39.5052C24.8706 38.8363 24.6067 38.311 24.0803 37.9295C23.5538 37.5241 22.8603 37.2026 21.9997 36.9649C21.1391 36.7033 20.1829 36.4657 19.1313 36.2522C18.1035 36.0147 17.0636 35.7295 16.0117 35.3965C14.9837 35.0635 14.0391 34.6348 13.1779 34.1104C12.3167 33.586 11.6105 32.8942 11.0591 32.0349C10.5317 31.1755 10.2666 30.0769 10.2637 28.739C10.2606 27.3056 10.6401 26.003 11.4021 24.8313C12.188 23.6356 13.3566 22.6903 14.908 21.9953C16.4833 21.2763 18.4535 20.9152 20.8187 20.9119C22.3955 20.9097 23.9488 21.0986 25.4787 21.4787C27.0084 21.8349 28.3594 22.3825 29.5317 23.1215L27.7493 27.5318C26.5772 26.8645 25.4055 26.3764 24.2342 26.0675C23.0628 25.7347 21.9157 25.569 20.7928 25.5706C19.67 25.5722 18.7504 25.7049 18.0343 25.9687C17.3181 26.2325 16.8052 26.5797 16.4955 27.0101C16.1858 27.4167 16.0316 27.8947 16.0327 28.4442C16.0341 29.0893 16.298 29.6145 16.8245 30.0199C17.3509 30.4014 18.0444 30.711 18.905 30.9487C19.7655 31.1864 20.7097 31.424 21.7376 31.6615C22.7893 31.8989 23.8291 32.1722 24.8571 32.4813C25.9089 32.7904 26.8655 33.2072 27.7266 33.7315C28.5878 34.2559 29.2821 34.9478 29.8096 35.8071C30.3609 36.6664 30.638 37.7531 30.6408 39.0671C30.6438 40.4766 30.2523 41.7673 29.4664 42.939C28.6805 44.1108 27.4999 45.0561 25.9247 45.7751C24.3733 46.494 22.4031 46.8551 20.014 46.8585ZM36.0568 46.4059L36.0033 21.3205L48.2593 21.3033C51.4129 21.2989 53.7793 21.8928 55.3587 23.0851C56.9619 24.2774 57.7656 25.8531 57.7698 27.8121C57.7726 29.1261 57.4525 30.2733 56.8095 31.2538C56.1665 32.2103 55.2841 32.9521 54.1624 33.4793C53.0406 34.0065 51.7511 34.2711 50.2938 34.2732L50.9715 32.8029C52.5483 32.8007 53.9465 33.0615 55.166 33.5854C56.3855 34.0854 57.3308 34.8366 58.0019 35.8391C58.6969 36.8416 59.0459 38.0714 59.049 39.5288C59.0536 41.679 58.2091 43.3644 56.5154 44.5853C54.8217 45.7822 52.3264 46.383 49.0295 46.3876L36.0568 46.4059ZM41.8171 42.0257L48.5901 42.0162C50.0953 42.0141 51.2296 41.7736 51.993 41.2947C52.7804 40.7919 53.1729 40.0029 53.1706 38.9278C53.1684 37.8766 52.7725 37.1007 51.983 36.6001C51.2174 36.0756 50.082 35.8144 48.5769 35.8165L41.3738 35.8267L41.3648 31.598L47.5645 31.5893C48.974 31.5873 50.0486 31.3469 50.7882 30.868C51.5516 30.3652 51.9323 29.6121 51.9302 28.6087C51.9281 27.6292 51.5443 26.9011 50.7787 26.4243C50.0371 25.9237 48.9614 25.6743 47.5519 25.6763L41.7822 25.6844L41.8171 42.0257ZM63.7647 38.5187L63.7551 34.0392L73.8968 34.0249L73.9063 38.5045L63.7647 38.5187ZM84.0157 46.3384L83.9723 25.9834L75.945 25.9947L75.9349 21.2643L97.795 21.2336L97.8051 25.964L89.7778 25.9753L89.8212 46.3302L84.0157 46.3384ZM107.713 31.3255L119.79 31.3085L119.8 35.8238L107.723 35.8408L107.713 31.3255ZM108.165 41.6457L121.819 41.6265L121.829 46.2852L102.406 46.3125L102.352 21.2272L121.309 21.2005L121.319 25.8592L108.132 25.8778L108.165 41.6457ZM126.054 38.4311L126.044 33.9515L136.186 33.9373L136.196 38.4168L126.054 38.4311ZM149.392 46.6764C147.648 46.6789 145.915 46.4543 144.194 46.0028C142.497 45.5274 141.038 44.8605 139.818 44.0022L142.102 39.5552C143.059 40.2467 144.159 40.7947 145.402 41.1991C146.669 41.6034 147.948 41.8047 149.238 41.8029C150.695 41.8008 151.841 41.5125 152.676 40.938C153.511 40.3634 153.928 39.5625 153.926 38.5352C153.924 37.8901 153.756 37.317 153.42 36.8158C153.085 36.3145 152.487 35.9331 151.626 35.6715C150.789 35.4099 149.606 35.2802 148.077 35.2823L141.663 35.2913L142.923 21.1701L158.225 21.1485L158.235 25.8072L145.011 25.8259L148.016 23.1697L147.141 33.241L144.125 30.5933L149.429 30.5859C151.914 30.5824 153.909 30.926 155.416 31.6167C156.946 32.2835 158.059 33.2017 158.755 34.3714C159.45 35.5411 159.799 36.8665 159.802 38.3477C159.805 39.829 159.438 41.2032 158.7 42.4705C157.962 43.7138 156.818 44.7308 155.266 45.5214C153.739 46.288 151.781 46.6731 149.392 46.6764ZM174.36 46.6413C172.305 46.6442 170.464 46.145 168.838 45.1439C167.211 44.1189 165.93 42.6395 164.994 40.7056C164.058 38.7718 163.587 36.4311 163.581 33.6837C163.575 30.9363 164.036 28.5943 164.964 26.6578C165.891 24.7214 167.167 23.2503 168.789 22.2446C170.411 21.215 172.25 20.6988 174.304 20.6959C176.383 20.693 178.224 21.204 179.827 22.2291C181.453 23.2302 182.735 24.6977 183.67 26.6315C184.606 28.5654 185.077 30.906 185.083 33.6534C185.089 36.4009 184.628 38.7428 183.7 40.6793C182.773 42.6158 181.498 44.0988 179.875 45.1284C178.277 46.1341 176.438 46.6384 174.36 46.6413ZM174.349 41.7317C175.329 41.7303 176.176 41.4544 176.892 40.9039C177.631 40.3534 178.203 39.4806 178.606 38.2854C179.034 37.0903 179.246 35.549 179.242 33.6617C179.238 31.7743 179.019 30.2336 178.587 29.0397C178.178 27.8457 177.603 26.9745 176.861 26.4261C176.143 25.8776 175.294 25.6041 174.315 25.6054C173.359 25.6068 172.512 25.8827 171.772 26.4332C171.057 26.9837 170.485 27.8566 170.058 29.0517C169.654 30.2468 169.454 31.7881 169.458 33.6754C169.462 35.5628 169.669 37.1035 170.077 38.2974C170.51 39.4914 171.085 40.3626 171.803 40.9111C172.545 41.4595 173.394 41.7331 174.349 41.7317ZM200.116 46.605C198.061 46.6079 196.22 46.1088 194.594 45.1077C192.967 44.0827 191.686 42.6032 190.75 40.6694C189.814 38.7355 189.343 36.3949 189.337 33.6475C189.331 30.9 189.792 28.5581 190.72 26.6216C191.647 24.6851 192.922 23.2141 194.545 22.2084C196.167 21.1788 198.006 20.6625 200.06 20.6596C202.139 20.6567 203.98 21.1678 205.582 22.1928C207.209 23.194 208.49 24.6614 209.426 26.5953C210.362 28.5291 210.833 30.8698 210.839 33.6172C210.845 36.3646 210.384 38.7066 209.456 40.6431C208.529 42.5795 207.254 44.0626 205.631 45.0921C204.033 46.0978 202.194 46.6021 200.116 46.605ZM200.105 41.6955C201.085 41.6941 201.932 41.4182 202.648 40.8677C203.387 40.3171 203.959 39.4443 204.362 38.2492C204.79 37.0541 205.002 35.5128 204.998 33.6254C204.994 31.7381 204.775 30.1974 204.343 29.0035C203.934 27.8095 203.359 26.9383 202.617 26.3898C201.899 25.8414 201.05 25.5678 200.071 25.5692C199.115 25.5705 198.268 25.8465 197.528 26.397C196.813 26.9475 196.241 27.8203 195.814 29.0155C195.41 30.2106 195.21 31.7518 195.214 33.6392C195.218 35.5266 195.425 37.0672 195.833 38.2612C196.266 39.4551 196.841 40.3263 197.559 40.8748C198.301 41.4233 199.15 41.6968 200.105 41.6955ZM228.81 46.5646C226.827 46.5674 224.999 46.2594 223.325 45.6406C221.675 44.9979 220.228 44.0921 218.983 42.9232C217.762 41.7542 216.804 40.3819 216.107 38.8061C215.435 37.2302 215.097 35.4986 215.093 33.6112C215.089 31.7238 215.42 29.9913 216.085 28.4136C216.775 26.8358 217.739 25.4607 218.979 24.2883C220.219 23.1159 221.675 22.218 223.346 21.5944C225.017 20.947 226.855 20.6219 228.862 20.6191C231.084 20.616 233.08 20.9835 234.849 21.7216C236.643 22.4597 238.15 23.5327 239.372 24.9405L235.652 28.386C234.742 27.4317 233.749 26.7283 232.673 26.2759C231.597 25.7996 230.426 25.5623 229.16 25.5641C227.941 25.5658 226.831 25.7585 225.828 26.1422C224.825 26.5258 223.955 27.0765 223.215 27.7943C222.5 28.512 221.941 29.361 221.537 30.341C221.156 31.3211 220.968 32.4084 220.97 33.6029C220.973 34.7736 221.166 35.8484 221.55 36.8274C221.959 37.8063 222.522 38.6656 223.24 39.4052C223.982 40.1209 224.844 40.6692 225.824 41.0501C226.828 41.4309 227.928 41.6205 229.122 41.6188C230.269 41.6172 231.379 41.4364 232.454 41.0766C233.552 40.6928 234.614 40.0582 235.639 39.1728L238.945 43.361C237.585 44.3902 235.998 45.1808 234.184 45.7329C232.393 46.2849 230.602 46.5621 228.81 46.5646ZM233.64 42.6159L233.619 33.1909L238.923 33.1835L238.945 43.361L233.64 42.6159Z" fill="#490606"/>
<path d="M44.9972 68.2899C44.5444 67.57 44.1942 66.739 43.9467 65.7971C43.6992 64.8472 43.5743 63.8259 43.5719 62.7331C43.5696 61.6404 43.6902 60.6187 43.9336 59.6682C44.177 58.7097 44.5237 57.8777 44.9735 57.1724L46.0544 57.1708C45.5811 58.0109 45.2346 58.8903 45.0148 59.8092C44.795 60.7201 44.6862 61.6942 44.6884 62.7316C44.6907 63.7689 44.8036 64.7467 45.0273 65.6649C45.2509 66.5752 45.6012 67.4497 46.0781 68.2884L44.9972 68.2899ZM47.6994 65.9818L47.6817 57.6674L48.8695 57.6657L48.8872 65.9802L47.6994 65.9818ZM51.3764 65.9767L51.3587 57.6622L52.3327 57.6609L56.0757 63.9389L55.5531 63.9397L59.2218 57.6512L60.1957 57.6498L60.2253 65.9642L59.0851 65.9658L59.0593 59.445L59.3325 59.4446L56.066 64.9604L55.5196 64.9612L52.2058 59.4546L52.5028 59.4542L52.5167 65.9751L51.3764 65.9767ZM62.7206 65.9607L62.7029 57.6463L63.8906 57.6446L63.9062 64.9257L68.4078 64.9193L68.41 65.9527L62.7206 65.9607ZM72.9628 65.9463L72.9451 57.6319L73.9191 57.6305L77.6621 63.9086L77.1395 63.9093L80.8082 57.6208L81.7821 57.6194L81.8118 65.9338L80.6715 65.9354L80.6457 59.4146L80.9189 59.4142L77.6524 64.9301L77.106 64.9308L73.7922 59.4242L74.0892 59.4238L74.1031 65.9447L72.9628 65.9463ZM88.0606 66.0201C87.4271 66.0209 86.8369 65.9149 86.2901 65.7018C85.7512 65.4888 85.2834 65.1925 84.8866 64.813C84.4899 64.4255 84.1801 63.9746 83.9573 63.4602C83.7345 62.9458 83.6224 62.3838 83.6211 61.7741C83.6198 61.1643 83.7295 60.602 83.9501 60.087C84.1707 59.5719 84.4786 59.1241 84.8737 58.7435C85.2688 58.3549 85.7353 58.0533 86.2733 57.8388C86.8113 57.6242 87.401 57.5165 88.0424 57.5156C88.6759 57.5147 89.2582 57.6208 89.7892 57.8338C90.328 58.039 90.7959 58.3353 91.1926 58.7227C91.5973 59.1022 91.9071 59.5492 92.122 60.0636C92.3448 60.578 92.4568 61.144 92.4581 61.7616C92.4595 62.3793 92.3498 62.9456 92.1292 63.4606C91.9165 63.9756 91.6086 64.4274 91.2056 64.816C90.8105 65.1966 90.3439 65.4942 89.8059 65.7088C89.2758 65.9154 88.6941 66.0192 88.0606 66.0201ZM88.0583 64.9629C88.5176 64.9623 88.9411 64.8825 89.3287 64.7236C89.7243 64.5647 90.0643 64.3425 90.3488 64.057C90.6412 63.7636 90.8661 63.4228 91.0237 63.0346C91.1891 62.6463 91.2714 62.2226 91.2704 61.7633C91.2694 61.304 91.1853 60.8805 91.0182 60.4927C90.859 60.1049 90.6326 59.7687 90.339 59.4841C90.0534 59.1915 89.7124 58.9663 89.3161 58.8085C88.9278 58.6507 88.504 58.5721 88.0447 58.5727C87.5775 58.5734 87.1461 58.6532 86.7505 58.8121C86.3629 58.971 86.0228 59.1972 85.7305 59.4906C85.4381 59.776 85.2092 60.1129 85.0437 60.5011C84.8862 60.8894 84.8079 61.3131 84.8089 61.7724C84.8099 62.2317 84.89 62.6552 85.0491 63.043C85.2163 63.4307 85.4466 63.7709 85.7402 64.0635C86.0338 64.3481 86.3748 64.5694 86.7631 64.7272C87.1594 64.885 87.5911 64.9636 88.0583 64.9629ZM98.036 66.006C97.4025 66.0069 96.8124 65.9008 96.2656 65.6878C95.7266 65.4748 95.2588 65.1785 94.8621 64.799C94.4653 64.4115 94.1555 63.9606 93.9327 63.4462C93.7099 62.9318 93.5979 62.3697 93.5966 61.76C93.5953 61.1503 93.7049 60.5879 93.9255 60.0729C94.1462 59.5579 94.454 59.1101 94.8491 58.7294C95.2442 58.3409 95.7108 58.0393 96.2488 57.8248C96.7868 57.6102 97.3765 57.5025 98.0179 57.5016C98.6514 57.5007 99.2336 57.6068 99.7646 57.8198C100.303 58.0249 100.771 58.3212 101.168 58.7087C101.573 59.0882 101.883 59.5351 102.097 60.0495C102.32 60.5639 102.432 61.1299 102.434 61.7476C102.435 62.3652 102.325 62.9316 102.105 63.4466C101.892 63.9616 101.584 64.4134 101.181 64.8019C100.786 65.1826 100.319 65.4802 99.7814 65.6947C99.2513 65.9014 98.6695 66.0051 98.036 66.006ZM100.76 67.6413C100.482 67.6417 100.217 67.6064 99.9635 67.5355C99.71 67.4725 99.4563 67.366 99.2026 67.2159C98.9489 67.0737 98.6872 66.8841 98.4175 66.6469C98.1478 66.4176 97.8542 66.133 97.5367 65.7929L98.8069 65.4586C99.0451 65.7512 99.2713 65.9884 99.4855 66.1703C99.7076 66.36 99.9256 66.4943 100.14 66.5732C100.354 66.66 100.564 66.7032 100.769 66.703C101.363 66.7021 101.87 66.4639 102.288 65.9882L102.848 66.6644C102.311 67.3145 101.615 67.6401 100.76 67.6413ZM98.0338 64.9489C98.493 64.9483 98.9165 64.8685 99.3042 64.7096C99.6998 64.5506 100.04 64.3245 100.324 64.0311C100.617 63.7377 100.842 63.3969 100.999 63.0086C101.165 62.6204 101.247 62.2006 101.246 61.7493C101.245 61.29 101.161 60.8665 100.994 60.4787C100.834 60.0909 100.608 59.7547 100.314 59.47C100.029 59.1775 99.6878 58.9523 99.2916 58.7944C98.9032 58.6366 98.4794 58.558 98.0201 58.5587C97.553 58.5593 97.1216 58.6391 96.726 58.7981C96.3383 58.957 95.9983 59.1831 95.7059 59.4765C95.4136 59.762 95.1846 60.0989 95.0192 60.4871C94.8616 60.8753 94.7834 61.2991 94.7843 61.7584C94.7853 62.2097 94.8654 62.6293 95.0246 63.0171C95.1917 63.4048 95.422 63.745 95.7157 64.0376C96.0093 64.3301 96.3502 64.5553 96.7386 64.7132C97.1349 64.871 97.5666 64.9496 98.0338 64.9489ZM106.872 63.131L106.87 62.1452L110.065 62.1407L110.067 63.1265L106.872 63.131ZM117.192 65.9791C116.606 65.9799 116.036 65.8896 115.481 65.7083C114.934 65.5269 114.486 65.2821 114.137 64.9737L114.682 64.0346C114.959 64.2956 115.32 64.5088 115.764 64.6745C116.208 64.8402 116.679 64.9227 117.178 64.922C117.811 64.9211 118.298 64.7858 118.638 64.5161C118.978 64.2464 119.147 63.8858 119.146 63.4345C119.146 63.1256 119.07 62.8565 118.919 62.6271C118.768 62.3977 118.506 62.2238 118.134 62.1056C117.769 61.9794 117.267 61.9168 116.625 61.9177L114.737 61.9203L115.167 57.5725L119.858 57.5658L119.861 58.5992L115.608 58.6052L116.225 58.0223L115.888 61.4555L115.269 60.8862L116.872 60.8839C117.704 60.8828 118.373 60.9887 118.88 61.2018C119.388 61.4149 119.756 61.7113 119.987 62.0911C120.217 62.4629 120.333 62.8943 120.334 63.3853C120.335 63.8604 120.221 64.2961 119.992 64.6923C119.764 65.0806 119.416 65.3939 118.949 65.6321C118.49 65.8624 117.905 65.9781 117.192 65.9791ZM124.725 65.9685C124.076 65.9694 123.493 65.8039 122.978 65.472C122.471 65.1402 122.066 64.6577 121.763 64.0247C121.469 63.3916 121.321 62.6237 121.319 61.721C121.317 60.8183 121.462 60.05 121.754 59.4161C122.053 58.7822 122.456 58.2986 122.962 57.9653C123.476 57.632 124.058 57.4649 124.707 57.464C125.348 57.4631 125.927 57.6286 126.442 57.9604C126.958 58.2923 127.362 58.7747 127.657 59.4078C127.951 60.0409 128.099 60.8088 128.101 61.7115C128.103 62.6142 127.958 63.3825 127.667 64.0164C127.375 64.6503 126.972 65.1339 126.458 65.4672C125.944 65.8005 125.367 65.9676 124.725 65.9685ZM124.723 64.9113C125.158 64.9107 125.538 64.7914 125.862 64.5534C126.194 64.3154 126.451 63.9587 126.632 63.4833C126.821 63.0079 126.915 62.4179 126.913 61.7131C126.912 61.0084 126.816 60.4186 126.625 59.9438C126.441 59.4689 126.183 59.1129 125.85 58.8758C125.525 58.6388 125.145 58.5205 124.709 58.5211C124.274 58.5217 123.89 58.6411 123.558 58.8791C123.226 59.1171 122.965 59.4738 122.776 59.9492C122.595 60.4245 122.505 61.0146 122.507 61.7193C122.508 62.4241 122.601 63.0139 122.784 63.4887C122.975 63.9636 123.237 64.3195 123.57 64.5566C123.903 64.7937 124.287 64.912 124.723 64.9113ZM132.647 65.9573C131.998 65.9582 131.416 65.7928 130.9 65.4609C130.393 65.129 129.988 64.6466 129.686 64.0135C129.391 63.3805 129.243 62.6126 129.241 61.7099C129.239 60.8072 129.384 60.0389 129.676 59.405C129.976 58.7711 130.378 58.2875 130.884 57.9542C131.398 57.6209 131.98 57.4538 132.629 57.4529C133.271 57.452 133.849 57.6174 134.365 57.9493C134.88 58.2811 135.285 58.7636 135.579 59.3967C135.874 60.0297 136.022 60.7976 136.024 61.7003C136.026 62.603 135.881 63.3713 135.589 64.0052C135.297 64.6391 134.895 65.1227 134.381 65.456C133.867 65.7893 133.289 65.9564 132.647 65.9573ZM132.645 64.9002C133.081 64.8996 133.461 64.7803 133.785 64.5423C134.117 64.3042 134.373 63.9475 134.555 63.4722C134.744 62.9968 134.837 62.4067 134.836 61.702C134.834 60.9972 134.738 60.4075 134.547 59.9326C134.364 59.4578 134.106 59.1018 133.773 58.8647C133.447 58.6276 133.067 58.5094 132.632 58.51C132.196 58.5106 131.812 58.6299 131.48 58.8679C131.148 59.1059 130.888 59.4626 130.699 59.938C130.517 60.4134 130.428 61.0034 130.429 61.7082C130.431 62.4129 130.523 63.0027 130.706 63.4776C130.897 63.9524 131.159 64.3084 131.492 64.5455C131.825 64.7826 132.21 64.9008 132.645 64.9002ZM140.57 65.9462C139.921 65.9471 139.338 65.7816 138.823 65.4498C138.315 65.1179 137.91 64.6354 137.608 64.0024C137.314 63.3693 137.166 62.6014 137.164 61.6987C137.162 60.796 137.307 60.0277 137.598 59.3938C137.898 58.7599 138.301 58.2763 138.807 57.943C139.321 57.6097 139.902 57.4426 140.552 57.4417C141.193 57.4408 141.772 57.6063 142.287 57.9381C142.802 58.27 143.207 58.7524 143.502 59.3855C143.796 60.0186 143.944 60.7865 143.946 61.6892C143.948 62.5919 143.803 63.3602 143.511 63.9941C143.22 64.628 142.817 65.1116 142.303 65.4449C141.789 65.7782 141.211 65.9453 140.57 65.9462ZM140.568 64.889C141.003 64.8884 141.383 64.7691 141.707 64.5311C142.039 64.2931 142.296 63.9364 142.477 63.461C142.666 62.9856 142.76 62.3956 142.758 61.6908C142.757 60.9861 142.66 60.3963 142.469 59.9215C142.286 59.4466 142.028 59.0906 141.695 58.8536C141.37 58.6165 140.989 58.4982 140.554 58.4988C140.118 58.4994 139.735 58.6188 139.403 58.8568C139.071 59.0948 138.81 59.4515 138.621 59.9269C138.44 60.4022 138.35 60.9923 138.352 61.697C138.353 62.4018 138.445 62.9916 138.628 63.4664C138.82 63.9413 139.082 64.2972 139.415 64.5343C139.748 64.7714 140.132 64.8897 140.568 64.889ZM148.962 65.8393L148.944 57.5249L152.187 57.5204C152.915 57.5193 153.537 57.6333 154.052 57.8622C154.567 58.0911 154.964 58.4231 155.242 58.8582C155.52 59.2934 155.66 59.8118 155.661 60.4136C155.662 61.0154 155.525 61.5343 155.249 61.9702C154.973 62.3982 154.577 62.7313 154.063 62.9696C153.549 63.2 152.928 63.3157 152.199 63.3167L149.61 63.3203L150.143 62.7613L150.15 65.8377L148.962 65.8393ZM150.143 62.8801L149.608 62.287L152.161 62.2834C152.921 62.2823 153.495 62.1192 153.882 61.794C154.278 61.4687 154.475 61.0092 154.473 60.4153C154.472 59.8214 154.273 59.3624 153.877 59.0383C153.488 58.7142 152.913 58.5527 152.153 58.5538L149.6 58.5574L150.133 57.9627L150.143 62.8801ZM159.972 65.8951C159.331 65.896 158.756 65.7582 158.249 65.4818C157.75 65.2054 157.357 64.8258 157.071 64.3432C156.785 63.8606 156.641 63.3065 156.64 62.6809C156.638 62.0554 156.78 61.5009 157.064 61.0174C157.348 60.534 157.739 60.1573 158.237 59.8874C158.743 59.6095 159.317 59.4702 159.958 59.4692C160.529 59.4684 161.036 59.5826 161.48 59.8116C161.931 60.0326 162.281 60.3647 162.527 60.8078L161.661 61.3673C161.455 61.0588 161.201 60.8334 160.899 60.6913C160.606 60.5413 160.289 60.4665 159.949 60.467C159.537 60.4676 159.169 60.5592 158.845 60.7417C158.52 60.9243 158.264 61.182 158.074 61.5149C157.885 61.8398 157.791 62.2279 157.792 62.6793C157.793 63.1306 157.889 63.5225 158.079 63.8548C158.27 64.1871 158.528 64.4441 158.853 64.6258C159.178 64.8074 159.546 64.898 159.958 64.8974C160.299 64.8969 160.615 64.8252 160.908 64.6823C161.209 64.5314 161.461 64.3014 161.667 63.9923L162.535 64.5374C162.29 64.9733 161.943 65.3103 161.492 65.5485C161.049 65.7788 160.542 65.8943 159.972 65.8951ZM165.819 65.8869C165.297 65.8876 164.798 65.817 164.322 65.6752C163.855 65.5333 163.486 65.3596 163.217 65.1541L163.69 64.2507C163.959 64.4325 164.292 64.5864 164.689 64.7126C165.085 64.8387 165.489 64.9015 165.901 64.9009C166.431 64.9002 166.811 64.8244 167.04 64.6736C167.278 64.5228 167.396 64.3128 167.395 64.0436C167.395 63.8456 167.323 63.6913 167.18 63.5807C167.038 63.47 166.847 63.3871 166.61 63.332C166.38 63.2769 166.123 63.2298 165.837 63.1906C165.552 63.1435 165.267 63.0885 164.982 63.0255C164.697 62.9546 164.435 62.86 164.197 62.7415C163.96 62.6152 163.769 62.4452 163.626 62.2316C163.483 62.0101 163.411 61.7172 163.41 61.353C163.41 60.9729 163.516 60.6401 163.729 60.3548C163.942 60.0694 164.243 59.8512 164.63 59.7002C165.026 59.5413 165.493 59.4615 166.031 59.4607C166.443 59.4601 166.859 59.511 167.279 59.6134C167.707 59.7078 168.055 59.8459 168.325 60.0276L167.84 60.931C167.555 60.7414 167.257 60.6111 166.948 60.5403C166.639 60.4695 166.33 60.4343 166.022 60.4347C165.523 60.4354 165.151 60.5191 164.906 60.6857C164.661 60.8444 164.538 61.0505 164.539 61.3039C164.539 61.5177 164.611 61.6838 164.754 61.8024C164.904 61.9131 165.095 61.9999 165.324 62.0629C165.562 62.1259 165.823 62.181 166.109 62.2281C166.394 62.2673 166.679 62.3223 166.964 62.3932C167.249 62.4561 167.507 62.5468 167.737 62.6653C167.975 62.7837 168.165 62.9498 168.308 63.1634C168.459 63.3769 168.535 63.6619 168.535 64.0182C168.536 64.3983 168.426 64.7271 168.205 65.0046C167.984 65.282 167.672 65.5002 167.268 65.6592C166.865 65.8102 166.382 65.8861 165.819 65.8869ZM170.349 68.1135L169.268 68.115C169.75 67.275 170.1 66.3995 170.32 65.4886C170.54 64.5697 170.649 63.5916 170.646 62.5543C170.644 61.517 170.531 60.5432 170.308 59.6329C170.084 58.7146 169.73 57.8362 169.245 56.9975L170.326 56.996C170.794 57.7 171.149 58.531 171.388 59.4888C171.636 60.4387 171.761 61.46 171.763 62.5527C171.765 63.6455 171.645 64.6671 171.401 65.6177C171.166 66.5603 170.815 67.3923 170.349 68.1135Z" fill="black"/>
<path d="M176.466 61.6377H213.201" stroke="url(#paint0_linear_2040_949)" stroke-width="0.863039"/>
<path d="M35.7334 62.3809H-1.00184" stroke="url(#paint1_linear_2040_949)" stroke-width="0.863039"/>
<defs>
<linearGradient id="paint0_linear_2040_949" x1="207.691" y1="62.1377" x2="177.078" y2="62.1377" gradientUnits="userSpaceOnUse">
<stop stop-color="#666666" stop-opacity="0"/>
<stop offset="1"/>
</linearGradient>
<linearGradient id="paint1_linear_2040_949" x1="4.50845" y1="62.8808" x2="35.1211" y2="62.8808" gradientUnits="userSpaceOnUse">
<stop stop-color="#666666" stop-opacity="0"/>
<stop offset="1"/>
</linearGradient>
</defs>
</svg>
