<svg width="146" height="28" viewBox="0 0 146 28" fill="none" xmlns="http://www.w3.org/2000/svg">
<path d="M5.13114 27.1914V3.73779L7.69638 6.30303H0.000664582V1.53901H11.0678V27.1914H5.13114ZM26.518 27.6312C24.4169 27.6312 22.5357 27.1181 20.8744 26.092C19.2131 25.0415 17.9061 23.5268 16.9533 21.5479C16.0005 19.569 15.5241 17.1748 15.5241 14.3652C15.5241 11.5557 16.0005 9.16144 16.9533 7.18254C17.9061 5.20364 19.2131 3.70114 20.8744 2.67504C22.5357 1.62452 24.4169 1.09926 26.518 1.09926C28.6435 1.09926 30.5246 1.62452 32.1615 2.67504C33.8228 3.70114 35.1298 5.20364 36.0826 7.18254C37.0355 9.16144 37.5119 11.5557 37.5119 14.3652C37.5119 17.1748 37.0355 19.569 36.0826 21.5479C35.1298 23.5268 33.8228 25.0415 32.1615 26.092C30.5246 27.1181 28.6435 27.6312 26.518 27.6312ZM26.518 22.6106C27.5196 22.6106 28.3869 22.3297 29.1199 21.7678C29.8772 21.2058 30.4636 20.3141 30.8789 19.0926C31.3186 17.871 31.5385 16.2952 31.5385 14.3652C31.5385 12.4352 31.3186 10.8594 30.8789 9.63784C30.4636 8.41629 29.8772 7.52457 29.1199 6.96266C28.3869 6.40075 27.5196 6.11979 26.518 6.11979C25.5407 6.11979 24.6734 6.40075 23.9161 6.96266C23.1832 7.52457 22.5968 8.41629 22.1571 9.63784C21.7417 10.8594 21.5341 12.4352 21.5341 14.3652C21.5341 16.2952 21.7417 17.871 22.1571 19.0926C22.5968 20.3141 23.1832 21.2058 23.9161 21.7678C24.6734 22.3297 25.5407 22.6106 26.518 22.6106ZM51.3902 27.6312C49.2891 27.6312 47.408 27.1181 45.7467 26.092C44.0854 25.0415 42.7783 23.5268 41.8255 21.5479C40.8727 19.569 40.3963 17.1748 40.3963 14.3652C40.3963 11.5557 40.8727 9.16144 41.8255 7.18254C42.7783 5.20364 44.0854 3.70114 45.7467 2.67504C47.408 1.62452 49.2891 1.09926 51.3902 1.09926C53.5157 1.09926 55.3969 1.62452 57.0337 2.67504C58.695 3.70114 60.0021 5.20364 60.9549 7.18254C61.9077 9.16144 62.3841 11.5557 62.3841 14.3652C62.3841 17.1748 61.9077 19.569 60.9549 21.5479C60.0021 23.5268 58.695 25.0415 57.0337 26.092C55.3969 27.1181 53.5157 27.6312 51.3902 27.6312ZM51.3902 22.6106C52.3919 22.6106 53.2592 22.3297 53.9921 21.7678C54.7494 21.2058 55.3358 20.3141 55.7511 19.0926C56.1909 17.871 56.4107 16.2952 56.4107 14.3652C56.4107 12.4352 56.1909 10.8594 55.7511 9.63784C55.3358 8.41629 54.7494 7.52457 53.9921 6.96266C53.2592 6.40075 52.3919 6.11979 51.3902 6.11979C50.413 6.11979 49.5457 6.40075 48.7883 6.96266C48.0554 7.52457 47.469 8.41629 47.0293 9.63784C46.614 10.8594 46.4063 12.4352 46.4063 14.3652C46.4063 16.2952 46.614 17.871 47.0293 19.0926C47.469 20.3141 48.0554 21.2058 48.7883 21.7678C49.5457 22.3297 50.413 22.6106 51.3902 22.6106ZM76.2624 27.6312C74.1614 27.6312 72.2802 27.1181 70.6189 26.092C68.9576 25.0415 67.6506 23.5268 66.6977 21.5479C65.7449 19.569 65.2685 17.1748 65.2685 14.3652C65.2685 11.5557 65.7449 9.16144 66.6977 7.18254C67.6506 5.20364 68.9576 3.70114 70.6189 2.67504C72.2802 1.62452 74.1614 1.09926 76.2624 1.09926C78.3879 1.09926 80.2691 1.62452 81.906 2.67504C83.5673 3.70114 84.8743 5.20364 85.8271 7.18254C86.7799 9.16144 87.2563 11.5557 87.2563 14.3652C87.2563 17.1748 86.7799 19.569 85.8271 21.5479C84.8743 23.5268 83.5673 25.0415 81.906 26.092C80.2691 27.1181 78.3879 27.6312 76.2624 27.6312ZM76.2624 22.6106C77.2641 22.6106 78.1314 22.3297 78.8643 21.7678C79.6217 21.2058 80.208 20.3141 80.6233 19.0926C81.0631 17.871 81.283 16.2952 81.283 14.3652C81.283 12.4352 81.0631 10.8594 80.6233 9.63784C80.208 8.41629 79.6217 7.52457 78.8643 6.96266C78.1314 6.40075 77.2641 6.11979 76.2624 6.11979C75.2852 6.11979 74.4179 6.40075 73.6605 6.96266C72.9276 7.52457 72.3413 8.41629 71.9015 9.63784C71.4862 10.8594 71.2785 12.4352 71.2785 14.3652C71.2785 16.2952 71.4862 17.871 71.9015 19.0926C72.3413 20.3141 72.9276 21.2058 73.6605 21.7678C74.4179 22.3297 75.2852 22.6106 76.2624 22.6106ZM126.978 7.18254C128.541 7.18254 129.922 7.50014 131.119 8.13534C132.34 8.74611 133.293 9.69891 133.977 10.9938C134.686 12.2642 135.04 13.901 135.04 15.9044V27.1914H129.323V16.7839C129.323 15.1959 128.993 14.0232 128.334 13.2658C127.674 12.5085 126.746 12.1298 125.549 12.1298C124.718 12.1298 123.973 12.3252 123.313 12.7161C122.653 13.0826 122.14 13.6445 121.774 14.4019C121.407 15.1592 121.224 16.1242 121.224 17.2969V27.1914H115.507V16.7839C115.507 15.1959 115.178 14.0232 114.518 13.2658C113.883 12.5085 112.967 12.1298 111.77 12.1298C110.939 12.1298 110.194 12.3252 109.534 12.7161C108.874 13.0826 108.361 13.6445 107.995 14.4019C107.628 15.1592 107.445 16.1242 107.445 17.2969V27.1914H101.728V7.47571H107.189V12.8627L106.163 11.2869C106.847 9.94322 107.812 8.92934 109.058 8.24528C110.328 7.53679 111.77 7.18254 113.382 7.18254C115.19 7.18254 116.766 7.64672 118.109 8.5751C119.477 9.47904 120.381 10.8716 120.821 12.7528L118.806 12.2031C119.465 10.6639 120.516 9.44239 121.957 8.53845C123.423 7.63451 125.097 7.18254 126.978 7.18254ZM140.164 27.1914V-0.000133899H145.881V27.1914H140.164Z" fill="#074517"/>
</svg>
