<svg width="165" height="50" viewBox="0 0 165 50" fill="none" xmlns="http://www.w3.org/2000/svg">
<g filter="url(#filter0_d_2040_610)">
<rect x="24.1406" y="4.7168" width="33" height="31" rx="6" transform="rotate(46.3303 24.1406 4.7168)" fill="white"/>
</g>
<path d="M20.1982 21.1045H28.2373C28.4651 21.1045 28.6809 21.2079 28.8232 21.3857L30.3037 23.2363C30.4101 23.3693 30.4677 23.5348 30.4678 23.7051V33.3545C30.4678 33.7687 30.132 34.1045 29.7178 34.1045H18.7178C18.3036 34.1045 17.9678 33.7687 17.9678 33.3545V23.7051C17.9678 23.5348 18.0255 23.3693 18.1318 23.2363L19.6123 21.3857C19.7546 21.2079 19.9705 21.1045 20.1982 21.1045Z" stroke="black" stroke-width="0.5"/>
<path d="M18.2178 23.3545H30.2178" stroke="black" stroke-width="0.5"/>
<path d="M26.4678 23.6045V29.834L24.374 28.1592L24.2178 28.0342L24.0615 28.1592L21.9678 29.834V23.6045H26.4678Z" stroke="black" stroke-width="0.5"/>
<path d="M55.966 22.667V13.1515H60.0962C60.798 13.1515 61.3919 13.2685 61.8778 13.5024C62.3637 13.7364 62.7326 14.0738 62.9846 14.5147C63.2365 14.9556 63.3625 15.491 63.3625 16.1209C63.3625 16.7417 63.2365 17.2771 62.9846 17.727C62.7326 18.1679 62.3637 18.5099 61.8778 18.7528C61.3919 18.9868 60.798 19.1037 60.0962 19.1037H57.6937V22.667H55.966ZM57.6937 17.7405H59.8262C60.4381 17.7405 60.9015 17.6056 61.2164 17.3356C61.5314 17.0567 61.6888 16.6518 61.6888 16.1209C61.6888 15.59 61.5314 15.1896 61.2164 14.9196C60.9015 14.6497 60.4381 14.5147 59.8262 14.5147H57.6937V17.7405ZM67.3297 22.802C66.6368 22.802 66.034 22.6625 65.5211 22.3836C65.0082 22.0956 64.6123 21.6907 64.3333 21.1688C64.0544 20.6469 63.9149 20.035 63.9149 19.3332C63.9149 18.6313 64.0544 18.0285 64.3333 17.5246C64.6123 17.0117 65.0082 16.6203 65.5211 16.3503C66.034 16.0714 66.6368 15.9319 67.3297 15.9319C67.7526 15.9319 68.171 15.9994 68.5849 16.1344C68.9988 16.2693 69.3408 16.4583 69.6107 16.7013L69.1113 17.8755C68.8774 17.6685 68.6119 17.5111 68.315 17.4031C68.027 17.2951 67.7481 17.2411 67.4782 17.2411C66.8933 17.2411 66.4389 17.4256 66.1149 17.7945C65.8 18.1544 65.6425 18.6718 65.6425 19.3467C65.6425 20.0126 65.8 20.5389 66.1149 20.9259C66.4389 21.3038 66.8933 21.4927 67.4782 21.4927C67.7391 21.4927 68.018 21.4388 68.315 21.3308C68.6119 21.2228 68.8774 21.0608 69.1113 20.8449L69.6107 22.0326C69.3408 22.2666 68.9943 22.4555 68.5714 22.5995C68.1575 22.7345 67.7436 22.802 67.3297 22.802ZM73.0616 22.802C72.6927 22.802 72.3328 22.7705 71.9819 22.7075C71.6399 22.6445 71.325 22.559 71.0371 22.451C70.7491 22.3341 70.4972 22.1901 70.2812 22.0191L70.7131 20.9124C70.9381 21.0563 71.181 21.1823 71.442 21.2903C71.7029 21.3983 71.9729 21.4792 72.2518 21.5332C72.5308 21.5872 72.8052 21.6142 73.0751 21.6142C73.5071 21.6142 73.8265 21.5422 74.0334 21.3983C74.2494 21.2453 74.3574 21.0473 74.3574 20.8044C74.3574 20.5974 74.2854 20.44 74.1414 20.332C74.0064 20.215 73.7995 20.1295 73.5205 20.0755L72.1708 19.8191C71.613 19.7111 71.1855 19.5087 70.8886 19.2117C70.6007 18.9058 70.4567 18.5144 70.4567 18.0375C70.4567 17.6056 70.5737 17.2321 70.8076 16.9172C71.0506 16.6023 71.3835 16.3593 71.8064 16.1884C72.2293 16.0174 72.7152 15.9319 73.2641 15.9319C73.579 15.9319 73.885 15.9634 74.1819 16.0264C74.4788 16.0804 74.7578 16.1659 75.0187 16.2828C75.2887 16.3908 75.5226 16.5348 75.7206 16.7148L75.2617 17.8215C75.0907 17.6775 74.8928 17.5561 74.6678 17.4571C74.4429 17.3491 74.2089 17.2681 73.966 17.2141C73.732 17.1512 73.5026 17.1197 73.2776 17.1197C72.8367 17.1197 72.5083 17.1961 72.2923 17.3491C72.0854 17.5021 71.9819 17.7045 71.9819 17.9565C71.9819 18.1454 72.0449 18.3029 72.1708 18.4289C72.2968 18.5549 72.4903 18.6403 72.7512 18.6853L74.1009 18.9418C74.6858 19.0498 75.1267 19.2477 75.4236 19.5357C75.7296 19.8236 75.8825 20.2105 75.8825 20.6964C75.8825 21.1373 75.7656 21.5152 75.5316 21.8302C75.2977 22.1451 74.9692 22.3881 74.5463 22.559C74.1234 22.721 73.6285 22.802 73.0616 22.802ZM81.0359 22.667V13.1515H85.1661C85.8679 13.1515 86.4618 13.2685 86.9477 13.5024C87.4336 13.7364 87.8025 14.0738 88.0544 14.5147C88.3064 14.9556 88.4324 15.491 88.4324 16.1209C88.4324 16.7417 88.3064 17.2771 88.0544 17.727C87.8025 18.1679 87.4336 18.5099 86.9477 18.7528C86.4618 18.9868 85.8679 19.1037 85.1661 19.1037H82.7636V22.667H81.0359ZM82.7636 17.7405H84.8961C85.508 17.7405 85.9714 17.6056 86.2863 17.3356C86.6012 17.0567 86.7587 16.6518 86.7587 16.1209C86.7587 15.59 86.6012 15.1896 86.2863 14.9196C85.9714 14.6497 85.508 14.5147 84.8961 14.5147H82.7636V17.7405ZM92.602 22.802C91.8552 22.802 91.2118 22.6625 90.6719 22.3836C90.1321 22.1046 89.7136 21.7087 89.4167 21.1958C89.1288 20.6829 88.9848 20.0755 88.9848 19.3737C88.9848 18.6898 89.1243 18.0915 89.4032 17.5786C89.6911 17.0657 90.0826 16.6653 90.5775 16.3773C91.0814 16.0804 91.6527 15.9319 92.2916 15.9319C92.9215 15.9319 93.4613 16.0669 93.9113 16.3368C94.3612 16.6068 94.7076 16.9892 94.9505 17.4841C95.2025 17.979 95.3285 18.5684 95.3285 19.2522V19.7516H90.348V18.7798H94.1407L93.9248 18.9823C93.9248 18.3704 93.7898 17.9025 93.5198 17.5786C93.2499 17.2456 92.863 17.0792 92.3591 17.0792C91.9812 17.0792 91.6572 17.1692 91.3873 17.3491C91.1263 17.5201 90.9239 17.7675 90.7799 18.0915C90.6449 18.4064 90.5775 18.7843 90.5775 19.2252V19.3197C90.5775 19.8146 90.6539 20.224 90.8069 20.5479C90.9599 20.8719 91.1893 21.1148 91.4953 21.2768C91.8012 21.4388 92.1791 21.5197 92.629 21.5197C92.9979 21.5197 93.3669 21.4657 93.7358 21.3578C94.1047 21.2408 94.4421 21.0608 94.7481 20.8179L95.2205 21.9516C94.9055 22.2126 94.5096 22.4195 94.0327 22.5725C93.5558 22.7255 93.0789 22.802 92.602 22.802ZM96.6646 22.667V16.0669H98.3112V17.6596H98.1762C98.3022 17.1197 98.5497 16.7103 98.9186 16.4313C99.2875 16.1434 99.7779 15.9769 100.39 15.9319L100.903 15.8914L101.011 17.3221L100.039 17.4166C99.49 17.4706 99.0761 17.6416 98.7971 17.9295C98.5182 18.2084 98.3787 18.6044 98.3787 19.1172V22.667H96.6646ZM105.75 22.667V13.1515H109.907C110.906 13.1515 111.68 13.372 112.229 13.8129C112.777 14.2448 113.052 14.8476 113.052 15.6215C113.052 16.1974 112.885 16.6833 112.552 17.0792C112.22 17.4751 111.765 17.7405 111.189 17.8755V17.673C111.63 17.736 112.008 17.871 112.323 18.078C112.638 18.2849 112.876 18.5504 113.038 18.8743C113.209 19.1982 113.295 19.5761 113.295 20.0081C113.295 20.5659 113.164 21.0473 112.903 21.4522C112.651 21.8482 112.283 22.1496 111.797 22.3566C111.311 22.5635 110.73 22.667 110.056 22.667H105.75ZM107.41 21.3578H109.84C110.083 21.3578 110.298 21.3398 110.487 21.3038C110.685 21.2678 110.852 21.2138 110.987 21.1418C111.131 21.0608 111.248 20.9619 111.338 20.8449C111.437 20.7279 111.509 20.5929 111.554 20.44C111.599 20.287 111.621 20.116 111.621 19.9271C111.621 19.7291 111.599 19.5537 111.554 19.4007C111.509 19.2477 111.437 19.1172 111.338 19.0093C111.248 18.8923 111.131 18.7978 110.987 18.7258C110.852 18.6448 110.685 18.5864 110.487 18.5504C110.298 18.5144 110.083 18.4964 109.84 18.4964H107.41V21.3578ZM107.41 17.1872H109.61C110.204 17.1872 110.645 17.0747 110.933 16.8497C111.23 16.6158 111.378 16.2738 111.378 15.8239C111.378 15.374 111.23 15.0366 110.933 14.8117C110.645 14.5777 110.204 14.4607 109.61 14.4607H107.41V17.1872ZM117.89 22.802C117.206 22.802 116.613 22.6625 116.109 22.3836C115.605 22.1046 115.213 21.7087 114.934 21.1958C114.655 20.6739 114.516 20.062 114.516 19.3602C114.516 18.6583 114.655 18.051 114.934 17.5381C115.213 17.0252 115.605 16.6293 116.109 16.3503C116.613 16.0714 117.206 15.9319 117.89 15.9319C118.574 15.9319 119.168 16.0714 119.672 16.3503C120.176 16.6293 120.567 17.0252 120.846 17.5381C121.125 18.051 121.265 18.6583 121.265 19.3602C121.265 20.062 121.125 20.6739 120.846 21.1958C120.567 21.7087 120.176 22.1046 119.672 22.3836C119.168 22.6625 118.574 22.802 117.89 22.802ZM117.89 21.5197C118.394 21.5197 118.799 21.3398 119.105 20.9798C119.411 20.6109 119.564 20.071 119.564 19.3602C119.564 18.6403 119.411 18.105 119.105 17.754C118.799 17.3941 118.394 17.2141 117.89 17.2141C117.386 17.2141 116.981 17.3941 116.676 17.754C116.37 18.105 116.217 18.6403 116.217 19.3602C116.217 20.071 116.37 20.6109 116.676 20.9798C116.981 21.3398 117.386 21.5197 117.89 21.5197ZM121.568 22.667L124.659 18.8608V19.6571L121.743 16.0669H123.714L125.604 18.4829H125.01L126.899 16.0669H128.87L125.955 19.6436V18.8878L129.045 22.667H127.061L125.01 20.0755H125.577L123.539 22.667H121.568Z" fill="black"/>
<path d="M55.3767 39.9715V39.3866L59.5495 34.1677H60.4493L56.3102 39.3866L55.8716 39.2516H62.204V39.9715H55.3767ZM59.8195 42.041V39.9715L59.842 39.2516V37.4295H60.6293V42.041H59.8195ZM65.1338 42.1085C64.5639 42.1085 64.024 42.0185 63.5141 41.8386C63.0117 41.6511 62.6068 41.4037 62.2994 41.0962L62.6931 40.4551C62.948 40.7175 63.2892 40.935 63.7166 41.1075C64.1515 41.2799 64.6239 41.3662 65.1338 41.3662C65.7862 41.3662 66.2848 41.2237 66.6297 40.9387C66.9822 40.6538 67.1584 40.2714 67.1584 39.7915C67.1584 39.3116 66.9859 38.9292 66.641 38.6442C66.3036 38.3593 65.7674 38.2168 65.0326 38.2168H64.4702V37.6207L66.8997 34.5726L67.0122 34.8875H62.6256V34.1677H67.687V34.7413L65.2575 37.7894L64.8639 37.5307H65.1675C66.1123 37.5307 66.8172 37.7407 67.2821 38.1606C67.7545 38.5805 67.9907 39.1204 67.9907 39.7802C67.9907 40.2227 67.8857 40.6201 67.6758 40.9725C67.4658 41.3249 67.1471 41.6024 66.7197 41.8048C66.2998 42.0073 65.7712 42.1085 65.1338 42.1085ZM71.5077 42.1085C70.9453 42.1085 70.4092 42.0185 69.8993 41.8386C69.3894 41.6511 68.9845 41.4037 68.6845 41.0962L69.0782 40.4551C69.3256 40.7175 69.6631 40.935 70.0905 41.1075C70.5254 41.2799 70.994 41.3662 71.4964 41.3662C72.1638 41.3662 72.6699 41.2199 73.0149 40.9275C73.3673 40.6276 73.5435 40.2376 73.5435 39.7577C73.5435 39.4203 73.461 39.1316 73.2961 38.8917C73.1386 38.6442 72.8686 38.453 72.4862 38.3181C72.1038 38.1831 71.5789 38.1156 70.9116 38.1156H69.2357L69.6406 34.1677H73.9484V34.8875H69.9668L70.3829 34.4939L70.0342 37.8007L69.6181 37.3957H71.0915C71.8864 37.3957 72.5237 37.4932 73.0036 37.6882C73.4835 37.8831 73.8284 38.1568 74.0384 38.5093C74.2559 38.8542 74.3646 39.2591 74.3646 39.724C74.3646 40.1664 74.2596 40.5713 74.0496 40.9387C73.8397 41.2987 73.5248 41.5836 73.1048 41.7936C72.6849 42.0035 72.1525 42.1085 71.5077 42.1085ZM79.0337 42.041V34.1677H79.7199L85.1525 41.0062H84.7925V34.1677H85.6136V42.041H84.9275L79.5061 35.2025H79.8661V42.041H79.0337ZM90.4217 42.0973C89.8518 42.0973 89.3382 41.9698 88.8808 41.7148C88.4309 41.4524 88.0747 41.0962 87.8123 40.6463C87.5498 40.1889 87.4186 39.6678 87.4186 39.0829C87.4186 38.4905 87.5498 37.9694 87.8123 37.5195C88.0747 37.0696 88.4309 36.7171 88.8808 36.4622C89.3307 36.2072 89.8443 36.0798 90.4217 36.0798C91.0066 36.0798 91.524 36.2072 91.9739 36.4622C92.4313 36.7171 92.7875 37.0696 93.0424 37.5195C93.3048 37.9694 93.4361 38.4905 93.4361 39.0829C93.4361 39.6678 93.3048 40.1889 93.0424 40.6463C92.7875 41.0962 92.4313 41.4524 91.9739 41.7148C91.5165 41.9698 90.9991 42.0973 90.4217 42.0973ZM90.4217 41.3887C90.8491 41.3887 91.2278 41.2949 91.5577 41.1075C91.8876 40.9125 92.1463 40.6426 92.3338 40.2976C92.5288 39.9452 92.6262 39.5403 92.6262 39.0829C92.6262 38.618 92.5288 38.2131 92.3338 37.8681C92.1463 37.5232 91.8876 37.257 91.5577 37.0696C91.2278 36.8746 90.8529 36.7771 90.4329 36.7771C90.013 36.7771 89.6381 36.8746 89.3082 37.0696C88.9783 37.257 88.7158 37.5232 88.5209 37.8681C88.3259 38.2131 88.2284 38.618 88.2284 39.0829C88.2284 39.5403 88.3259 39.9452 88.5209 40.2976C88.7158 40.6426 88.9783 40.9125 89.3082 41.1075C89.6381 41.2949 90.0093 41.3887 90.4217 41.3887ZM96.6524 42.0973C96.165 42.0973 95.7038 42.0298 95.2689 41.8948C94.834 41.7523 94.4928 41.5761 94.2454 41.3662L94.6053 40.7363C94.8452 40.9163 95.1527 41.0737 95.5276 41.2087C95.9025 41.3362 96.2962 41.3999 96.7086 41.3999C97.271 41.3999 97.6759 41.3137 97.9233 41.1412C98.1708 40.9612 98.2945 40.725 98.2945 40.4326C98.2945 40.2152 98.2233 40.0464 98.0808 39.9265C97.9458 39.799 97.7659 39.7053 97.5409 39.6453C97.316 39.5778 97.0648 39.5215 96.7873 39.4766C96.5099 39.4316 96.2324 39.3791 95.955 39.3191C95.6851 39.2591 95.4376 39.1729 95.2127 39.0604C94.9877 38.9404 94.804 38.7792 94.6615 38.5767C94.5266 38.3743 94.4591 38.1043 94.4591 37.7669C94.4591 37.4445 94.5491 37.1558 94.729 36.9009C94.909 36.6459 95.1714 36.4472 95.5163 36.3047C95.8688 36.1548 96.2962 36.0798 96.7986 36.0798C97.181 36.0798 97.5634 36.1323 97.9458 36.2372C98.3283 36.3347 98.6432 36.4659 98.8906 36.6309L98.542 37.272C98.2795 37.0921 97.9983 36.9646 97.6984 36.8896C97.3984 36.8071 97.0985 36.7659 96.7986 36.7659C96.2662 36.7659 95.8725 36.8596 95.6176 37.0471C95.3701 37.227 95.2464 37.4595 95.2464 37.7444C95.2464 37.9694 95.3139 38.1456 95.4489 38.2731C95.5913 38.4005 95.775 38.5018 96 38.5767C96.2324 38.6442 96.4836 38.7005 96.7536 38.7455C97.031 38.7905 97.3047 38.8467 97.5747 38.9142C97.8521 38.9742 98.1033 39.0604 98.3283 39.1729C98.5607 39.2778 98.7444 39.4316 98.8794 39.634C99.0219 39.829 99.0931 40.0877 99.0931 40.4101C99.0931 40.755 98.9956 41.055 98.8007 41.3099C98.6132 41.5574 98.3357 41.7523 97.9683 41.8948C97.6084 42.0298 97.1697 42.0973 96.6524 42.0973ZM99.1637 43.1658L102.875 32.5705H103.607L99.8948 43.1658H99.1637ZM106.009 42.0973C105.424 42.0973 104.899 41.9698 104.434 41.7148C103.977 41.4524 103.617 41.0962 103.355 40.6463C103.092 40.1889 102.961 39.6678 102.961 39.0829C102.961 38.4905 103.092 37.9694 103.355 37.5195C103.617 37.0696 103.977 36.7171 104.434 36.4622C104.899 36.2072 105.424 36.0798 106.009 36.0798C106.511 36.0798 106.965 36.1773 107.37 36.3722C107.775 36.5672 108.094 36.8596 108.326 37.2495L107.73 37.6544C107.527 37.3545 107.276 37.1333 106.976 36.9908C106.676 36.8484 106.35 36.7771 105.998 36.7771C105.578 36.7771 105.199 36.8746 104.862 37.0696C104.524 37.257 104.258 37.5232 104.063 37.8681C103.868 38.2131 103.771 38.618 103.771 39.0829C103.771 39.5478 103.868 39.9527 104.063 40.2976C104.258 40.6426 104.524 40.9125 104.862 41.1075C105.199 41.2949 105.578 41.3887 105.998 41.3887C106.35 41.3887 106.676 41.3174 106.976 41.1749C107.276 41.0325 107.527 40.815 107.73 40.5226L108.326 40.9275C108.094 41.3099 107.775 41.6024 107.37 41.8048C106.965 41.9998 106.511 42.0973 106.009 42.0973ZM111.828 42.0973C111.273 42.0973 110.846 41.9473 110.546 41.6473C110.246 41.3474 110.096 40.9238 110.096 40.3764V34.8313H110.894V40.3314C110.894 40.6763 110.981 40.9425 111.153 41.13C111.333 41.3174 111.588 41.4111 111.918 41.4111C112.27 41.4111 112.563 41.3099 112.795 41.1075L113.076 41.6811C112.919 41.8236 112.728 41.9285 112.503 41.996C112.285 42.0635 112.06 42.0973 111.828 42.0973ZM109.038 36.7996V36.136H112.694V36.7996H109.038ZM117.544 36.0798C118.024 36.0798 118.444 36.1735 118.804 36.361C119.172 36.5409 119.457 36.8184 119.659 37.1933C119.869 37.5682 119.974 38.0406 119.974 38.6105V42.041H119.175V38.6892C119.175 38.0669 119.018 37.5982 118.703 37.2833C118.396 36.9608 117.961 36.7996 117.398 36.7996C116.978 36.7996 116.611 36.8859 116.296 37.0583C115.989 37.2233 115.749 37.467 115.576 37.7894C115.411 38.1043 115.329 38.4868 115.329 38.9367V42.041H114.53V36.136H115.295V37.7557L115.171 37.452C115.359 37.0246 115.659 36.6909 116.071 36.4509C116.483 36.2035 116.975 36.0798 117.544 36.0798Z" fill="black"/>
<defs>
<filter id="filter0_d_2040_610" x="0.000195503" y="0.000195503" width="48.6441" height="48.7096" filterUnits="userSpaceOnUse" color-interpolation-filters="sRGB">
<feFlood flood-opacity="0" result="BackgroundImageFix"/>
<feColorMatrix in="SourceAlpha" type="matrix" values="0 0 0 0 0 0 0 0 0 0 0 0 0 0 0 0 0 0 127 0" result="hardAlpha"/>
<feOffset dy="-3"/>
<feGaussianBlur stdDeviation="2.1"/>
<feComposite in2="hardAlpha" operator="out"/>
<feColorMatrix type="matrix" values="0 0 0 0 0 0 0 0 0 0 0 0 0 0 0 0 0 0 0.25 0"/>
<feBlend mode="normal" in2="BackgroundImageFix" result="effect1_dropShadow_2040_610"/>
<feBlend mode="normal" in="SourceGraphic" in2="effect1_dropShadow_2040_610" result="shape"/>
</filter>
</defs>
</svg>
