<svg width="326" height="76" viewBox="0 0 326 76" fill="none" xmlns="http://www.w3.org/2000/svg">
<path d="M3.04972 45.5786L3.00773 20.4932L13.8661 20.4738C16.1118 20.4697 18.0476 20.8366 19.6734 21.5743C21.2992 22.2881 22.5552 23.3251 23.4414 24.6853C24.3277 26.0455 24.7724 27.6693 24.7755 29.5566C24.7787 31.4201 24.3394 33.0335 23.4577 34.3969C22.576 35.7364 21.3234 36.7659 19.7001 37.4856C18.0767 38.2052 16.1421 38.567 13.8964 38.5711L6.26328 38.5847L8.83923 36.0357L8.85518 45.5682L3.04972 45.5786ZM18.9968 45.55L12.7103 36.4588L18.9099 36.4477L25.2682 45.5388L18.9968 45.55ZM8.84031 36.6808L6.25554 33.9619L13.5661 33.9488C15.3579 33.9456 16.6952 33.5609 17.5779 32.7948C18.4605 32.0048 18.9007 30.9289 18.8984 29.5672C18.8961 28.1815 18.4523 27.1072 17.5671 26.3443C16.6818 25.5814 15.3433 25.2015 13.5515 25.2047L6.24091 25.2178L8.8165 22.4538L8.84031 36.6808ZM29.0436 45.532L29.0373 41.7692L38.6977 32.6136C39.4611 31.9194 40.0215 31.2972 40.3789 30.7471C40.7364 30.197 40.9744 29.6948 41.0931 29.2407C41.2357 28.7865 41.3067 28.3683 41.3061 27.986C41.3044 26.9826 40.9567 26.2187 40.263 25.6944C39.5931 25.1461 38.6012 24.8731 37.2872 24.8755C36.236 24.8774 35.2568 25.0822 34.3496 25.49C33.4664 25.8977 32.7149 26.5321 32.0951 27.3933L27.8619 24.6774C28.8151 23.2422 30.1511 22.105 31.8699 21.2657C33.5886 20.4265 35.5708 20.0048 37.8166 20.0008C39.6801 19.9975 41.3051 20.3051 42.6919 20.9238C44.1024 21.5185 45.1909 22.3647 45.9572 23.4623C46.7474 24.5599 47.1438 25.8732 47.1464 27.4022C47.1478 28.2145 47.0416 29.027 46.8279 29.8396C46.6381 30.6284 46.2334 31.4653 45.6137 32.3503C45.0179 33.2354 44.1356 34.2284 42.9668 35.3295L34.9522 42.9053L33.8377 40.793L47.993 40.7676L48.0009 45.498L29.0436 45.532ZM60.3595 45.9059C58.6155 45.909 56.883 45.6851 55.1621 45.2343C53.4651 44.7595 52.0066 44.0932 50.7868 43.2353L53.0728 38.7875C54.0296 39.4786 55.1295 40.0261 56.3725 40.4301C57.6394 40.8339 58.9179 41.0347 60.208 41.0324C61.6654 41.0298 62.8116 40.741 63.6469 40.1662C64.4821 39.5913 64.8988 38.7902 64.8971 37.7629C64.896 37.1178 64.7278 36.5448 64.3925 36.0437C64.0572 35.5425 63.4593 35.1614 62.5988 34.9001C61.7622 34.6388 60.5794 34.5095 59.0503 34.5123L52.6357 34.5238L53.9021 20.402L69.2042 20.3746L69.212 25.0333L55.9884 25.057L58.9942 22.3997L58.1152 32.4713L55.1005 29.8248L60.4043 29.8153C62.8889 29.8108 64.8844 30.1537 66.3907 30.8438C67.9208 31.51 69.0332 32.4278 69.728 33.5972C70.4228 34.7666 70.7715 36.0919 70.7739 37.5732C70.7764 39.0544 70.4084 40.4288 69.6699 41.6963C68.9314 42.94 67.7863 43.9574 66.2347 44.7486C64.707 45.5158 62.7486 45.9016 60.3595 45.9059ZM85.3276 45.8611C83.273 45.8648 81.4325 45.3664 79.8063 44.3659C78.18 43.3415 76.8993 41.8625 75.9644 39.9291C75.0294 37.9956 74.5596 35.6551 74.555 32.9077C74.5504 30.1602 75.0123 27.8181 75.9408 25.8813C76.8693 23.9444 78.145 22.4729 79.7679 21.4665C81.3908 20.4363 83.2295 19.9194 85.2841 19.9157C87.3626 19.912 89.2031 20.4223 90.8055 21.4467C92.4317 22.4472 93.7124 23.9142 94.6473 25.8477C95.5823 27.7812 96.0521 30.1217 96.0567 32.8691C96.0613 35.6166 95.5994 37.9587 94.6709 39.8955C93.7424 41.8323 92.4667 43.3159 90.8438 44.3461C89.2448 45.3524 87.4061 45.8574 85.3276 45.8611ZM85.3193 40.9515C86.2989 40.9498 87.1465 40.6735 87.8623 40.1227C88.602 39.5719 89.174 38.6989 89.5781 37.5036C90.0061 36.3083 90.2186 34.767 90.2154 32.8796C90.2123 30.9922 89.9947 29.4516 89.5626 28.2579C89.1545 27.0641 88.5796 26.1931 87.8381 25.6449C87.1205 25.0967 86.2719 24.8235 85.2924 24.8252C84.3367 24.827 83.4891 25.1032 82.7494 25.654C82.0336 26.2048 81.4616 27.0779 81.0336 28.2732C80.6295 29.4684 80.429 31.0098 80.4321 32.8971C80.4353 34.7845 80.6409 36.3251 81.0491 37.5189C81.4811 38.7127 82.0559 39.5837 82.7736 40.1319C83.5151 40.68 84.3637 40.9533 85.3193 40.9515ZM106.405 45.3933L106.371 25.0383L98.3436 25.0527L98.3357 20.3223L120.196 20.2831L120.204 25.0135L112.176 25.0279L112.21 45.3829L106.405 45.3933ZM130.109 30.3712L142.186 30.3495L142.194 34.8649L130.117 34.8866L130.109 30.3712ZM130.557 40.6913L144.21 40.6668L144.218 45.3255L124.795 45.3603L124.753 20.275L143.71 20.241L143.718 24.8997L130.53 24.9233L130.557 40.6913ZM166.477 45.7156C164.78 45.7186 163.215 45.4109 161.781 44.7923C160.37 44.1498 159.21 43.244 158.3 42.075L161.519 38.1989C162.213 39.1055 162.943 39.797 163.708 40.2734C164.473 40.726 165.298 40.9515 166.182 40.9499C168.547 40.9457 169.727 39.5579 169.723 36.7865L169.703 24.8531L160.887 24.8689L160.879 20.2102L175.465 20.184L175.492 36.4537C175.497 39.5595 174.737 41.8783 173.21 43.41C171.684 44.9418 169.439 45.7103 166.477 45.7156ZM193.82 45.6666C190.261 45.673 187.476 44.6865 185.465 42.7071C183.455 40.7278 182.447 37.8985 182.441 34.2194L182.417 20.1716L188.223 20.1612L188.246 33.9939C188.25 36.383 188.743 38.1023 189.724 39.1517C190.705 40.2012 192.08 40.7243 193.848 40.7211C195.616 40.7179 196.989 40.1899 197.966 39.1369C198.944 38.084 199.431 36.363 199.427 33.9739L199.404 20.1411L205.138 20.1308L205.161 34.1786C205.167 37.8578 204.169 40.6907 202.165 42.6772C200.162 44.6637 197.38 45.6602 193.82 45.6666ZM212.35 45.2033L212.308 20.118L217.11 20.1094L227.819 37.7933L225.274 37.7979L235.745 20.076L240.511 20.0674L240.625 45.1526L235.178 45.1624L235.114 28.4269L236.117 28.4251L227.755 42.5238L225.139 42.5285L216.551 28.4602L217.769 28.458L217.797 45.1936L212.35 45.2033ZM248.01 45.1394L247.968 20.054L260.224 20.0321C263.377 20.0264 265.744 20.6194 267.322 21.8112C268.925 23.0028 269.728 24.5782 269.731 26.5372C269.733 27.8512 269.413 28.9986 268.769 29.9792C268.126 30.936 267.243 31.6782 266.121 32.2058C264.999 32.7334 263.71 32.9986 262.252 33.0012L262.931 31.5307C264.508 31.5278 265.906 31.7881 267.125 32.3115C268.344 32.8111 269.289 33.5619 269.96 34.5642C270.654 35.5663 271.003 36.7961 271.005 38.2534C271.009 40.4036 270.163 42.0894 268.469 43.3109C266.775 44.5085 264.279 45.1102 260.982 45.1161L248.01 45.1394ZM253.772 40.757L260.545 40.7449C262.05 40.7422 263.185 40.5012 263.948 40.0221C264.736 39.5189 265.129 38.7298 265.127 37.6547C265.125 36.6035 264.73 35.8278 263.941 35.3275C263.175 34.8033 262.04 34.5425 260.535 34.5452L253.332 34.5581L253.325 30.3295L259.524 30.3183C260.934 30.3158 262.009 30.075 262.748 29.5958C263.512 29.0928 263.893 28.3395 263.891 27.3361C263.89 26.3566 263.506 25.6286 262.741 25.1521C261.999 24.6518 260.924 24.4028 259.514 24.4054L253.745 24.4157L253.772 40.757ZM289.03 45.4959C287.047 45.4994 285.207 45.1802 283.51 44.5382C281.837 43.8961 280.378 42.9909 279.133 41.8225C277.913 40.654 276.955 39.282 276.26 37.7065C275.588 36.1309 275.251 34.4113 275.248 32.5478C275.244 30.6844 275.576 28.9636 276.242 27.3856C276.933 25.8076 277.898 24.4321 279.138 23.2593C280.379 22.0864 281.834 21.1759 283.506 20.5279C285.177 19.8798 286.992 19.554 288.951 19.5505C290.934 19.547 292.75 19.8662 294.4 20.5083C296.073 21.1504 297.52 22.0556 298.741 23.2241C299.985 24.3925 300.955 25.7645 301.65 27.3401C302.346 28.8917 302.695 30.6112 302.698 32.4986C302.701 34.3621 302.358 36.0948 301.668 37.6967C300.977 39.2748 300.012 40.6502 298.772 41.8231C297.555 42.972 296.111 43.8705 294.44 44.5186C292.793 45.1666 290.989 45.4924 289.03 45.4959ZM288.986 40.5505C290.109 40.5485 291.136 40.3556 292.067 39.9716C293.022 39.5877 293.857 39.0367 294.573 38.3187C295.288 37.6007 295.837 36.7516 296.217 35.7713C296.622 34.7911 296.823 33.7037 296.821 32.5092C296.819 31.3146 296.614 30.228 296.206 29.2492C295.822 28.2703 295.271 27.4232 294.554 26.7077C293.86 25.9923 293.034 25.4442 292.078 25.0637C291.122 24.6832 290.082 24.4939 288.959 24.4959C287.837 24.4979 286.798 24.6909 285.843 25.0749C284.911 25.4588 284.088 26.0098 283.373 26.7278C282.657 27.4458 282.097 28.2949 281.693 29.2752C281.312 30.2554 281.123 31.3428 281.125 32.5373C281.127 33.7079 281.32 34.7946 281.704 35.7974C282.111 36.7762 282.662 37.6233 283.356 38.3388C284.074 39.0542 284.911 39.6022 285.868 39.9828C286.824 40.3633 287.863 40.5526 288.986 40.5505Z" fill="#490606"/>
<path d="M38.5254 68.6398C38.0728 67.92 37.7229 67.0891 37.4757 66.1473C37.2285 65.1975 37.104 64.1762 37.102 63.0834C37.1001 61.9907 37.221 60.969 37.4647 60.0183C37.7085 59.0598 38.0554 58.2278 38.5055 57.5223L39.5864 57.5205C39.1128 58.3606 38.766 59.2401 38.5459 60.1591C38.3258 61.0701 38.2167 62.0442 38.2185 63.0815C38.2204 64.1189 38.333 65.0966 38.5563 66.0148C38.7797 66.925 39.1297 67.7995 39.6063 68.638L38.5254 68.6398ZM41.2284 66.331L41.2135 58.0166L42.4013 58.0146L42.4162 66.329L41.2284 66.331ZM44.9054 66.3248L44.8905 58.0104L45.8645 58.0088L49.6053 64.2859L49.0827 64.2867L52.7536 57.9972L53.7276 57.9956L53.7543 66.31L52.614 66.3119L52.5905 59.791L52.8637 59.7906L49.5953 65.3074L49.0489 65.3083L45.737 59.8025L46.034 59.802L46.0457 66.3229L44.9054 66.3248ZM56.2496 66.3058L56.2347 57.9914L57.4225 57.9894L57.4355 65.2704L61.9371 65.2629L61.939 66.2963L56.2496 66.3058ZM66.4918 66.2886L66.4769 57.9742L67.4509 57.9726L71.1917 64.2496L70.6691 64.2505L74.34 57.961L75.314 57.9594L75.3407 66.2738L74.2004 66.2757L74.1769 59.7548L74.4501 59.7544L71.1817 65.2711L70.6353 65.2721L67.3234 59.7663L67.6204 59.7658L67.632 66.2867L66.4918 66.2886ZM81.5895 66.3583C80.956 66.3594 80.3659 66.2535 79.8191 66.0406C79.2803 65.8277 78.8126 65.5315 78.416 65.1521C78.0193 64.7648 77.7097 64.3139 77.4871 63.7996C77.2644 63.2853 77.1526 62.7232 77.1515 62.1135C77.1504 61.5038 77.2602 60.9414 77.481 60.4263C77.7018 59.9112 78.0099 59.4633 78.4051 59.0826C78.8003 58.6939 79.267 58.3922 79.8051 58.1775C80.3431 57.9628 80.9329 57.8549 81.5743 57.8538C82.2078 57.8528 82.79 57.9587 83.3209 58.1716C83.8597 58.3766 84.3274 58.6727 84.724 59.0601C85.1286 59.4395 85.4382 59.8864 85.6529 60.4007C85.8755 60.915 85.9874 61.481 85.9885 62.0987C85.9896 62.7163 85.8798 63.2827 85.659 63.7978C85.4461 64.3128 85.1381 64.7647 84.7349 65.1534C84.3397 65.5341 83.873 65.8318 83.335 66.0466C82.8048 66.2533 82.223 66.3572 81.5895 66.3583ZM81.5876 65.3012C82.0469 65.3004 82.4704 65.2205 82.8581 65.0615C83.2537 64.9025 83.5938 64.6802 83.8784 64.3946C84.1708 64.1012 84.3959 63.7603 84.5536 63.372C84.7192 62.9837 84.8016 62.5599 84.8007 62.1007C84.7999 61.6414 84.716 61.2179 84.549 60.8302C84.39 60.4424 84.1637 60.1063 83.8702 59.8217C83.5846 59.5292 83.2437 59.3041 82.8475 59.1464C82.4592 58.9887 82.0354 58.9102 81.5762 58.911C81.109 58.9117 80.6776 58.9917 80.2819 59.1507C79.8942 59.3097 79.5541 59.536 79.2616 59.8294C78.9692 60.115 78.7401 60.4519 78.5745 60.8402C78.4169 61.2285 78.3384 61.6522 78.3393 62.1115C78.3401 62.5708 78.42 62.9943 78.5791 63.382C78.7461 63.7698 78.9763 64.1099 79.2698 64.4024C79.5633 64.6869 79.9042 64.9081 80.2925 65.0658C80.6887 65.2235 81.1204 65.302 81.5876 65.3012ZM91.5649 66.3416C90.9315 66.3426 90.3413 66.2367 89.7946 66.0238C89.2557 65.8109 88.788 65.5148 88.3914 65.1354C87.9948 64.748 87.6852 64.2972 87.4625 63.7828C87.2399 63.2685 87.128 62.7065 87.1269 62.0968C87.1258 61.487 87.2357 60.9246 87.4565 60.4096C87.6773 59.8945 87.9853 59.4466 88.3806 59.0658C88.7758 58.6772 89.2424 58.3755 89.7805 58.1608C90.3186 57.9461 90.9083 57.8382 91.5497 57.8371C92.1832 57.836 92.7654 57.942 93.2963 58.1549C93.8351 58.3598 94.3029 58.656 94.6995 59.0434C95.104 59.4228 95.4136 59.8696 95.6284 60.384C95.851 60.8983 95.9629 61.4643 95.964 62.0819C95.9651 62.6996 95.8552 63.2659 95.6344 63.781C95.4215 64.2961 95.1135 64.7479 94.7104 65.1366C94.3151 65.5174 93.8485 65.8151 93.3104 66.0298C92.7802 66.2366 92.1984 66.3405 91.5649 66.3416ZM94.2879 67.9761C94.0107 67.9766 93.7454 67.9414 93.4919 67.8706C93.2384 67.8076 92.9848 67.7012 92.7311 67.5511C92.4775 67.409 92.2158 67.2194 91.9462 66.9823C91.6765 66.7531 91.383 66.4686 91.0657 66.1286L92.336 65.7939C92.5741 66.0865 92.8002 66.3237 93.0143 66.5054C93.2364 66.6951 93.4544 66.8293 93.6683 66.9082C93.8823 66.9949 94.0922 67.0381 94.2981 67.0378C94.8919 67.0368 95.3983 66.7984 95.8171 66.3225L96.3766 66.9986C95.8393 67.6489 95.1431 67.9747 94.2879 67.9761ZM91.563 65.2844C92.0223 65.2837 92.4458 65.2038 92.8335 65.0448C93.2292 64.8857 93.5693 64.6595 93.8538 64.366C94.1463 64.0725 94.3713 63.7317 94.529 63.3434C94.6946 62.9551 94.777 62.5353 94.7762 62.0839C94.7754 61.6247 94.6915 61.2012 94.5245 60.8134C94.3654 60.4257 94.1391 60.0895 93.8457 59.805C93.5601 59.5125 93.2192 59.2873 92.823 59.1296C92.4347 58.9719 92.0109 58.8935 91.5516 58.8942C91.0844 58.895 90.653 58.9749 90.2574 59.1339C89.8696 59.293 89.5295 59.5192 89.2371 59.8127C88.9446 60.0983 88.7156 60.4352 88.55 60.8235C88.3923 61.2117 88.3139 61.6355 88.3147 62.0948C88.3155 62.5461 88.3954 62.9657 88.5545 63.3534C88.7215 63.7411 88.9517 64.0813 89.2452 64.3737C89.5388 64.6662 89.8797 64.8913 90.2679 65.0491C90.6641 65.2068 91.0958 65.2852 91.563 65.2844ZM100.402 63.4642L100.4 62.4783L103.595 62.473L103.597 63.4588L100.402 63.4642ZM110.721 66.3094C110.135 66.3104 109.565 66.2203 109.01 66.0391C108.463 65.8579 108.016 65.6132 107.667 65.3049L108.211 64.3657C108.489 64.6265 108.85 64.8397 109.293 65.0053C109.737 65.1708 110.208 65.2532 110.707 65.2523C111.341 65.2513 111.827 65.1158 112.167 64.846C112.507 64.5762 112.677 64.2156 112.676 63.7643C112.676 63.4555 112.6 63.1864 112.449 62.957C112.298 62.7276 112.037 62.5538 111.664 62.4357C111.3 62.3096 110.797 62.2471 110.155 62.2482L108.267 62.2513L108.699 57.9033L113.39 57.8955L113.392 58.9288L109.14 58.936L109.756 58.3529L109.418 61.7862L108.8 61.2171L110.403 61.2144C111.234 61.213 111.904 61.3188 112.411 61.5317C112.918 61.7447 113.287 62.041 113.517 62.4207C113.747 62.7925 113.863 63.2238 113.864 63.7148C113.865 64.1899 113.751 64.6256 113.522 65.0219C113.293 65.4103 112.945 65.7237 112.478 65.962C112.019 66.1924 111.434 66.3082 110.721 66.3094ZM118.254 66.2968C117.605 66.2979 117.022 66.1326 116.507 65.8008C116 65.4691 115.595 64.9868 115.293 64.3538C114.999 63.7208 114.851 62.953 114.849 62.0502C114.848 61.1475 114.993 60.3792 115.285 59.7452C115.585 59.1112 115.987 58.6275 116.494 58.2941C117.008 57.9607 117.589 57.7934 118.239 57.7923C118.88 57.7912 119.459 57.9566 119.974 58.2883C120.489 58.62 120.894 59.1023 121.188 59.7353C121.482 60.3683 121.63 61.1362 121.632 62.0389C121.633 62.9416 121.488 63.7099 121.196 64.3439C120.904 64.9779 120.501 65.4616 119.987 65.795C119.473 66.1284 118.895 66.2957 118.254 66.2968ZM118.252 65.2397C118.688 65.2389 119.068 65.1195 119.392 64.8814C119.724 64.6433 119.981 64.2865 120.162 63.8111C120.351 63.3357 120.445 62.7456 120.444 62.0409C120.443 61.3361 120.346 60.7463 120.156 60.2716C119.973 59.7968 119.715 59.4409 119.382 59.2039C119.057 58.9668 118.676 58.8487 118.241 58.8494C117.805 58.8502 117.421 58.9696 117.089 59.2077C116.757 59.4458 116.496 59.8026 116.307 60.278C116.126 60.7534 116.036 61.3435 116.037 62.0483C116.038 62.753 116.131 63.3428 116.314 63.8176C116.504 64.2924 116.766 64.6483 117.099 64.8853C117.432 65.1223 117.817 65.2404 118.252 65.2397ZM126.176 66.2835C125.527 66.2846 124.945 66.1193 124.429 65.7875C123.922 65.4558 123.517 64.9735 123.215 64.3405C122.921 63.7075 122.773 62.9397 122.772 62.037C122.77 61.1342 122.915 60.3659 123.207 59.7319C123.507 59.098 123.91 58.6142 124.416 58.2808C124.93 57.9474 125.512 57.7801 126.161 57.779C126.803 57.7779 127.381 57.9433 127.896 58.275C128.412 58.6067 128.816 59.089 129.11 59.722C129.404 60.355 129.552 61.1229 129.554 62.0256C129.556 62.9283 129.41 63.6966 129.119 64.3306C128.827 64.9646 128.424 65.4483 127.91 65.7817C127.396 66.1151 126.818 66.2824 126.176 66.2835ZM126.174 65.2264C126.61 65.2256 126.99 65.1062 127.314 64.8681C127.646 64.63 127.903 64.2732 128.084 63.7978C128.273 63.3224 128.367 62.7323 128.366 62.0276C128.365 61.3228 128.269 60.7331 128.078 60.2583C127.895 59.7835 127.637 59.4276 127.304 59.1906C126.979 58.9536 126.599 58.8354 126.163 58.8361C125.728 58.8369 125.344 58.9563 125.012 59.1944C124.679 59.4325 124.419 59.7893 124.23 60.2647C124.048 60.7401 123.958 61.3302 123.96 62.035C123.961 62.7397 124.053 63.3295 124.236 63.8043C124.427 64.2791 124.689 64.635 125.022 64.872C125.355 65.109 125.739 65.2271 126.174 65.2264ZM134.099 66.2702C133.449 66.2713 132.867 66.106 132.352 65.7743C131.844 65.4425 131.44 64.9602 131.138 64.3272C130.844 63.6942 130.696 62.9264 130.694 62.0237C130.692 61.121 130.838 60.3526 131.129 59.7186C131.429 59.0847 131.832 58.601 132.338 58.2675C132.852 57.9341 133.434 57.7668 134.084 57.7657C134.725 57.7647 135.303 57.93 135.819 58.2617C136.334 58.5934 136.739 59.0757 137.033 59.7087C137.327 60.3417 137.475 61.1096 137.476 62.0123C137.478 62.915 137.333 63.6833 137.041 64.3173C136.749 64.9513 136.346 65.435 135.832 65.7684C135.318 66.1019 134.74 66.2691 134.099 66.2702ZM134.097 65.2131C134.532 65.2123 134.912 65.0929 135.236 64.8548C135.569 64.6167 135.825 64.2599 136.007 63.7845C136.196 63.3091 136.29 62.719 136.289 62.0143C136.287 61.3095 136.191 60.7198 136 60.245C135.817 59.7702 135.559 59.4143 135.226 59.1773C134.901 58.9403 134.521 58.8221 134.085 58.8228C133.65 58.8236 133.266 58.943 132.934 59.1811C132.602 59.4192 132.341 59.776 132.152 60.2514C131.971 60.7268 131.881 61.3169 131.882 62.0217C131.883 62.7264 131.975 63.3162 132.158 63.791C132.349 64.2658 132.611 64.6217 132.944 64.8587C133.277 65.0957 133.661 65.2138 134.097 65.2131ZM142.491 66.1611L142.476 57.8467L145.718 57.8412C146.447 57.84 147.069 57.9538 147.584 58.1826C148.099 58.4113 148.496 58.7432 148.773 59.1783C149.051 59.6133 149.191 60.1318 149.192 60.7336C149.193 61.3354 149.055 61.8543 148.779 62.2903C148.503 62.7183 148.107 63.0516 147.593 63.29C147.079 63.5205 146.457 63.6363 145.729 63.6376L143.14 63.6419L143.673 63.0828L143.679 66.1591L142.491 66.1611ZM143.673 63.2015L143.138 62.6085L145.691 62.6043C146.452 62.603 147.025 62.4397 147.413 62.1144C147.808 61.7891 148.005 61.3295 148.004 60.7356C148.003 60.1417 147.804 59.6827 147.408 59.3587C147.019 59.0347 146.445 58.8734 145.685 58.8746L143.131 58.8789L143.664 58.2842L143.673 63.2015ZM153.501 66.2139C152.86 66.215 152.285 66.0773 151.778 65.801C151.279 65.5247 150.886 65.1453 150.6 64.6628C150.314 64.1802 150.171 63.6261 150.17 63.0006C150.168 62.375 150.31 61.8205 150.594 61.337C150.878 60.8535 151.27 60.4767 151.768 60.2066C152.274 59.9286 152.848 59.7891 153.49 59.788C154.06 59.7871 154.567 59.901 155.011 60.1299C155.462 60.3509 155.811 60.6829 156.058 61.1259L155.191 61.6856C154.985 61.3771 154.731 61.1519 154.43 61.0099C154.137 60.8599 153.82 60.7852 153.479 60.7858C153.068 60.7865 152.7 60.8781 152.375 61.0608C152.051 61.2435 151.794 61.5013 151.605 61.8342C151.415 62.1591 151.321 62.5473 151.322 62.9987C151.322 63.45 151.418 63.8418 151.609 64.1741C151.799 64.5063 152.057 64.7632 152.382 64.9448C152.707 65.1264 153.076 65.2169 153.487 65.2162C153.828 65.2156 154.145 65.1438 154.437 65.0008C154.738 64.8498 154.991 64.6198 155.196 64.3106L156.064 64.8555C155.82 65.2914 155.472 65.6286 155.021 65.8669C154.578 66.0972 154.071 66.2129 153.501 66.2139ZM159.348 66.2041C158.826 66.2049 158.327 66.1345 157.851 65.9928C157.384 65.851 157.015 65.6774 156.746 65.472L157.219 64.5685C157.489 64.7502 157.822 64.904 158.218 65.0301C158.614 65.1561 159.018 65.2188 159.43 65.2181C159.96 65.2172 160.34 65.1413 160.57 64.9905C160.807 64.8396 160.925 64.6296 160.925 64.3604C160.924 64.1624 160.853 64.0081 160.71 63.8975C160.567 63.7869 160.377 63.704 160.14 63.649C159.91 63.594 159.652 63.5469 159.367 63.5078C159.082 63.4607 158.797 63.4058 158.512 63.3429C158.227 63.2721 157.965 63.1776 157.727 63.0592C157.49 62.9329 157.299 62.7629 157.156 62.5494C157.013 62.3279 156.942 62.035 156.941 61.6708C156.94 61.2907 157.047 60.9579 157.26 60.6725C157.473 60.3871 157.774 60.1688 158.161 60.0177C158.557 59.8587 159.024 59.7787 159.563 59.7778C159.974 59.7771 160.39 59.8279 160.81 59.9301C161.238 60.0245 161.586 60.1624 161.856 60.3441L161.371 61.2476C161.085 61.0581 160.788 60.9279 160.479 60.8572C160.17 60.7864 159.861 60.7513 159.552 60.7518C159.054 60.7527 158.682 60.8364 158.436 61.0031C158.191 61.1619 158.069 61.368 158.069 61.6214C158.07 61.8352 158.141 62.0014 158.284 62.1199C158.435 62.2305 158.625 62.3173 158.855 62.3802C159.092 62.4432 159.354 62.4982 159.639 62.5452C159.924 62.5843 160.209 62.6393 160.494 62.7101C160.779 62.7729 161.037 62.8636 161.267 62.982C161.505 63.1003 161.695 63.2663 161.838 63.4799C161.989 63.6934 162.064 63.9784 162.065 64.3347C162.066 64.7148 161.955 65.0436 161.734 65.3211C161.513 65.5986 161.201 65.8169 160.797 65.976C160.393 66.1271 159.911 66.2031 159.348 66.2041ZM163.877 68.4295L162.797 68.4313C163.278 67.5911 163.629 66.7155 163.849 65.8045C164.069 64.8856 164.178 63.9075 164.176 62.8702C164.175 61.8329 164.062 60.8591 163.839 59.9488C163.615 59.0306 163.261 58.1523 162.777 57.3137L163.858 57.3119C164.326 58.0159 164.68 58.8467 164.919 59.8045C165.166 60.7543 165.291 61.7756 165.293 62.8683C165.295 63.9611 165.174 64.9828 164.93 65.9334C164.694 66.8761 164.343 67.7081 163.877 68.4295Z" fill="black"/>
<path d="M177.182 61.4922H207.598" stroke="url(#paint0_linear_2040_575)" stroke-width="0.863039"/>
<path d="M30.418 62.5488H0.00151467" stroke="url(#paint1_linear_2040_575)" stroke-width="0.863039"/>
<defs>
<linearGradient id="paint0_linear_2040_575" x1="203.036" y1="61.9922" x2="177.689" y2="61.9922" gradientUnits="userSpaceOnUse">
<stop stop-color="#666666" stop-opacity="0"/>
<stop offset="1"/>
</linearGradient>
<linearGradient id="paint1_linear_2040_575" x1="4.56398" y1="63.0488" x2="29.911" y2="63.0488" gradientUnits="userSpaceOnUse">
<stop stop-color="#666666" stop-opacity="0"/>
<stop offset="1"/>
</linearGradient>
</defs>
</svg>
