<svg width="326" height="76" viewBox="0 0 326 76" fill="none" xmlns="http://www.w3.org/2000/svg">
<path d="M3.04972 45.5786L3.00773 20.4932L13.8661 20.4738C16.1118 20.4697 18.0476 20.8366 19.6734 21.5743C21.2992 22.2881 22.5552 23.3251 23.4414 24.6853C24.3277 26.0455 24.7724 27.6693 24.7755 29.5566C24.7787 31.4201 24.3394 33.0335 23.4577 34.3969C22.576 35.7364 21.3234 36.7659 19.7001 37.4856C18.0767 38.2052 16.1421 38.567 13.8964 38.5711L6.26328 38.5847L8.83923 36.0357L8.85518 45.5682L3.04972 45.5786ZM18.9968 45.55L12.7103 36.4588L18.9099 36.4477L25.2682 45.5388L18.9968 45.55ZM8.84031 36.6808L6.25554 33.9619L13.5661 33.9488C15.3579 33.9456 16.6952 33.5609 17.5779 32.7948C18.4605 32.0048 18.9007 30.9289 18.8984 29.5672C18.8961 28.1815 18.4523 27.1072 17.5671 26.3443C16.6818 25.5814 15.3433 25.2015 13.5515 25.2047L6.24091 25.2178L8.8165 22.4538L8.84031 36.6808ZM29.0436 45.532L29.0373 41.7692L38.6977 32.6136C39.4611 31.9194 40.0215 31.2972 40.3789 30.7471C40.7364 30.197 40.9744 29.6948 41.0931 29.2407C41.2357 28.7865 41.3067 28.3683 41.3061 27.986C41.3044 26.9826 40.9567 26.2187 40.263 25.6944C39.5931 25.1461 38.6012 24.8731 37.2872 24.8755C36.236 24.8774 35.2568 25.0822 34.3496 25.49C33.4664 25.8977 32.7149 26.5321 32.0951 27.3933L27.8619 24.6774C28.8151 23.2422 30.1511 22.105 31.8699 21.2657C33.5886 20.4265 35.5708 20.0048 37.8166 20.0008C39.6801 19.9975 41.3051 20.3051 42.6919 20.9238C44.1024 21.5185 45.1909 22.3647 45.9572 23.4623C46.7474 24.5599 47.1438 25.8732 47.1464 27.4022C47.1478 28.2145 47.0416 29.027 46.8279 29.8396C46.6381 30.6284 46.2334 31.4653 45.6137 32.3503C45.0179 33.2354 44.1356 34.2284 42.9668 35.3295L34.9522 42.9053L33.8377 40.793L47.993 40.7676L48.0009 45.498L29.0436 45.532ZM60.3595 45.9059C58.6155 45.909 56.883 45.6851 55.1621 45.2343C53.4651 44.7595 52.0066 44.0932 50.7868 43.2353L53.0728 38.7875C54.0296 39.4786 55.1295 40.0261 56.3725 40.4301C57.6394 40.8339 58.9179 41.0347 60.208 41.0324C61.6654 41.0298 62.8116 40.741 63.6469 40.1662C64.4821 39.5913 64.8988 38.7902 64.8971 37.7629C64.896 37.1178 64.7278 36.5448 64.3925 36.0437C64.0572 35.5425 63.4593 35.1614 62.5988 34.9001C61.7622 34.6388 60.5794 34.5095 59.0503 34.5123L52.6357 34.5238L53.9021 20.402L69.2042 20.3746L69.212 25.0333L55.9884 25.057L58.9942 22.3997L58.1152 32.4713L55.1005 29.8248L60.4043 29.8153C62.8889 29.8108 64.8844 30.1537 66.3907 30.8438C67.9208 31.51 69.0332 32.4278 69.728 33.5972C70.4228 34.7666 70.7715 36.0919 70.7739 37.5732C70.7764 39.0544 70.4084 40.4288 69.6699 41.6963C68.9314 42.94 67.7863 43.9574 66.2347 44.7486C64.707 45.5158 62.7486 45.9016 60.3595 45.9059ZM85.3276 45.8611C83.273 45.8648 81.4325 45.3664 79.8063 44.3659C78.18 43.3415 76.8993 41.8625 75.9644 39.9291C75.0294 37.9956 74.5596 35.6551 74.555 32.9077C74.5504 30.1602 75.0123 27.8181 75.9408 25.8813C76.8693 23.9444 78.145 22.4729 79.7679 21.4665C81.3908 20.4363 83.2295 19.9194 85.2841 19.9157C87.3626 19.912 89.2031 20.4223 90.8055 21.4467C92.4317 22.4472 93.7124 23.9142 94.6473 25.8477C95.5823 27.7812 96.0521 30.1217 96.0567 32.8691C96.0613 35.6166 95.5994 37.9587 94.6709 39.8955C93.7424 41.8323 92.4667 43.3159 90.8438 44.3461C89.2448 45.3524 87.4061 45.8574 85.3276 45.8611ZM85.3193 40.9515C86.2989 40.9498 87.1465 40.6735 87.8623 40.1227C88.602 39.5719 89.174 38.6989 89.5781 37.5036C90.0061 36.3083 90.2186 34.767 90.2154 32.8796C90.2123 30.9922 89.9947 29.4516 89.5626 28.2579C89.1545 27.0641 88.5796 26.1931 87.8381 25.6449C87.1205 25.0967 86.2719 24.8235 85.2924 24.8252C84.3367 24.827 83.4891 25.1032 82.7494 25.654C82.0336 26.2048 81.4616 27.0779 81.0336 28.2732C80.6295 29.4684 80.429 31.0098 80.4321 32.8971C80.4353 34.7845 80.6409 36.3251 81.0491 37.5189C81.4811 38.7127 82.0559 39.5837 82.7736 40.1319C83.5151 40.68 84.3637 40.9533 85.3193 40.9515ZM106.405 45.3933L106.371 25.0383L98.3436 25.0527L98.3357 20.3223L120.196 20.2831L120.204 25.0135L112.176 25.0279L112.21 45.3829L106.405 45.3933ZM130.109 30.3712L142.186 30.3495L142.194 34.8649L130.117 34.8866L130.109 30.3712ZM130.557 40.6913L144.21 40.6668L144.218 45.3255L124.795 45.3603L124.753 20.275L143.71 20.241L143.718 24.8997L130.53 24.9233L130.557 40.6913ZM166.477 45.7156C164.78 45.7186 163.215 45.4109 161.781 44.7923C160.37 44.1498 159.21 43.244 158.3 42.075L161.519 38.1989C162.213 39.1055 162.943 39.797 163.708 40.2734C164.473 40.726 165.298 40.9515 166.182 40.9499C168.547 40.9457 169.727 39.5579 169.723 36.7865L169.703 24.8531L160.887 24.8689L160.879 20.2102L175.465 20.184L175.492 36.4537C175.497 39.5595 174.737 41.8783 173.21 43.41C171.684 44.9418 169.439 45.7103 166.477 45.7156ZM193.82 45.6666C190.261 45.673 187.476 44.6865 185.465 42.7071C183.455 40.7278 182.447 37.8985 182.441 34.2194L182.417 20.1716L188.223 20.1612L188.246 33.9939C188.25 36.383 188.743 38.1023 189.724 39.1517C190.705 40.2012 192.08 40.7243 193.848 40.7211C195.616 40.7179 196.989 40.1899 197.966 39.1369C198.944 38.084 199.431 36.363 199.427 33.9739L199.404 20.1411L205.138 20.1308L205.161 34.1786C205.167 37.8578 204.169 40.6907 202.165 42.6772C200.162 44.6637 197.38 45.6602 193.82 45.6666ZM212.35 45.2033L212.308 20.118L217.11 20.1094L227.819 37.7933L225.274 37.7979L235.745 20.076L240.511 20.0674L240.625 45.1526L235.178 45.1624L235.114 28.4269L236.117 28.4251L227.755 42.5238L225.139 42.5285L216.551 28.4602L217.769 28.458L217.797 45.1936L212.35 45.2033ZM248.01 45.1394L247.968 20.054L260.224 20.0321C263.377 20.0264 265.744 20.6194 267.322 21.8112C268.925 23.0028 269.728 24.5782 269.731 26.5372C269.733 27.8512 269.413 28.9986 268.769 29.9792C268.126 30.936 267.243 31.6782 266.121 32.2058C264.999 32.7334 263.71 32.9986 262.252 33.0012L262.931 31.5307C264.508 31.5278 265.906 31.7881 267.125 32.3115C268.344 32.8111 269.289 33.5619 269.96 34.5642C270.654 35.5663 271.003 36.7961 271.005 38.2534C271.009 40.4036 270.163 42.0894 268.469 43.3109C266.775 44.5085 264.279 45.1102 260.982 45.1161L248.01 45.1394ZM253.772 40.757L260.545 40.7449C262.05 40.7422 263.185 40.5012 263.948 40.0221C264.736 39.5189 265.129 38.7298 265.127 37.6547C265.125 36.6035 264.73 35.8278 263.941 35.3275C263.175 34.8033 262.04 34.5425 260.535 34.5452L253.332 34.5581L253.325 30.3295L259.524 30.3183C260.934 30.3158 262.009 30.075 262.748 29.5958C263.512 29.0928 263.893 28.3395 263.891 27.3361C263.89 26.3566 263.506 25.6286 262.741 25.1521C261.999 24.6518 260.924 24.4028 259.514 24.4054L253.745 24.4157L253.772 40.757ZM289.03 45.4959C287.047 45.4994 285.207 45.1802 283.51 44.5382C281.837 43.8961 280.378 42.9909 279.133 41.8225C277.913 40.654 276.955 39.282 276.26 37.7065C275.588 36.1309 275.251 34.4113 275.248 32.5478C275.244 30.6844 275.576 28.9636 276.242 27.3856C276.933 25.8076 277.898 24.4321 279.138 23.2593C280.379 22.0864 281.834 21.1759 283.506 20.5279C285.177 19.8798 286.992 19.554 288.951 19.5505C290.934 19.547 292.75 19.8662 294.4 20.5083C296.073 21.1504 297.52 22.0556 298.741 23.2241C299.985 24.3925 300.955 25.7645 301.65 27.3401C302.346 28.8917 302.695 30.6112 302.698 32.4986C302.701 34.3621 302.358 36.0948 301.668 37.6967C300.977 39.2748 300.012 40.6502 298.772 41.8231C297.555 42.972 296.111 43.8705 294.44 44.5186C292.793 45.1666 290.989 45.4924 289.03 45.4959ZM288.986 40.5505C290.109 40.5485 291.136 40.3556 292.067 39.9716C293.022 39.5877 293.857 39.0367 294.573 38.3187C295.288 37.6007 295.837 36.7516 296.217 35.7713C296.622 34.7911 296.823 33.7037 296.821 32.5092C296.819 31.3146 296.614 30.228 296.206 29.2492C295.822 28.2703 295.271 27.4232 294.554 26.7077C293.86 25.9923 293.034 25.4442 292.078 25.0637C291.122 24.6832 290.082 24.4939 288.959 24.4959C287.837 24.4979 286.798 24.6909 285.843 25.0749C284.911 25.4588 284.088 26.0098 283.373 26.7278C282.657 27.4458 282.097 28.2949 281.693 29.2752C281.312 30.2554 281.123 31.3428 281.125 32.5373C281.127 33.7079 281.32 34.7946 281.704 35.7974C282.111 36.7762 282.662 37.6233 283.356 38.3388C284.074 39.0542 284.911 39.6022 285.868 39.9828C286.824 40.3633 287.863 40.5526 288.986 40.5505Z" fill="#490606"/>
<path d="M38.5254 68.6398C38.0728 67.92 37.7229 67.0891 37.4757 66.1473C37.2285 65.1975 37.104 64.1762 37.102 63.0834C37.1001 61.9907 37.221 60.969 37.4647 60.0183C37.7085 59.0598 38.0554 58.2278 38.5055 57.5223L39.5864 57.5205C39.1128 58.3606 38.766 59.2401 38.5459 60.1591C38.3258 61.0701 38.2167 62.0442 38.2185 63.0815C38.2204 64.1189 38.333 65.0966 38.5563 66.0148C38.7797 66.925 39.1297 67.7995 39.6063 68.638L38.5254 68.6398ZM41.2284 66.331L41.2135 58.0166L42.4013 58.0146L42.4162 66.329L41.2284 66.331ZM44.9054 66.3248L44.8905 58.0104L45.8645 58.0088L49.6053 64.2859L49.0827 64.2867L52.7536 57.9972L53.7276 57.9956L53.7543 66.31L52.614 66.3119L52.5905 59.791L52.8637 59.7906L49.5953 65.3074L49.0489 65.3083L45.737 59.8025L46.034 59.802L46.0457 66.3229L44.9054 66.3248ZM56.2496 66.3058L56.2347 57.9914L57.4225 57.9894L57.4355 65.2704L61.9371 65.2629L61.939 66.2963L56.2496 66.3058ZM66.4918 66.2886L66.4769 57.9742L67.4509 57.9726L71.1917 64.2496L70.6691 64.2505L74.34 57.961L75.314 57.9594L75.3407 66.2738L74.2004 66.2757L74.1769 59.7548L74.4501 59.7544L71.1817 65.2711L70.6353 65.2721L67.3234 59.7663L67.6204 59.7658L67.632 66.2867L66.4918 66.2886ZM81.5895 66.3583C80.956 66.3594 80.3659 66.2535 79.8191 66.0406C79.2803 65.8277 78.8126 65.5315 78.416 65.1521C78.0193 64.7648 77.7097 64.3139 77.4871 63.7996C77.2644 63.2853 77.1526 62.7232 77.1515 62.1135C77.1504 61.5038 77.2602 60.9414 77.481 60.4263C77.7018 59.9112 78.0099 59.4633 78.4051 59.0826C78.8003 58.6939 79.267 58.3922 79.8051 58.1775C80.3431 57.9628 80.9329 57.8549 81.5743 57.8538C82.2078 57.8528 82.79 57.9587 83.3209 58.1716C83.8597 58.3766 84.3274 58.6727 84.724 59.0601C85.1286 59.4395 85.4382 59.8864 85.6529 60.4007C85.8755 60.915 85.9874 61.481 85.9885 62.0987C85.9896 62.7163 85.8798 63.2827 85.659 63.7978C85.4461 64.3128 85.1381 64.7647 84.7349 65.1534C84.3397 65.5341 83.873 65.8318 83.335 66.0466C82.8048 66.2533 82.223 66.3572 81.5895 66.3583ZM81.5876 65.3012C82.0469 65.3004 82.4704 65.2205 82.8581 65.0615C83.2537 64.9025 83.5938 64.6802 83.8784 64.3946C84.1708 64.1012 84.3959 63.7603 84.5536 63.372C84.7192 62.9837 84.8016 62.5599 84.8007 62.1007C84.7999 61.6414 84.716 61.2179 84.549 60.8302C84.39 60.4424 84.1637 60.1063 83.8702 59.8217C83.5846 59.5292 83.2437 59.3041 82.8475 59.1464C82.4592 58.9887 82.0354 58.9102 81.5762 58.911C81.109 58.9117 80.6776 58.9917 80.2819 59.1507C79.8942 59.3097 79.5541 59.536 79.2616 59.8294C78.9692 60.115 78.7401 60.4519 78.5745 60.8402C78.4169 61.2285 78.3384 61.6522 78.3393 62.1115C78.3401 62.5708 78.42 62.9943 78.5791 63.382C78.7461 63.7698 78.9763 64.1099 79.2698 64.4024C79.5633 64.6869 79.9042 64.9081 80.2925 65.0658C80.6887 65.2235 81.1204 65.302 81.5876 65.3012ZM91.5649 66.3416C90.9315 66.3426 90.3413 66.2367 89.7946 66.0238C89.2557 65.8109 88.788 65.5148 88.3914 65.1354C87.9948 64.748 87.6852 64.2972 87.4625 63.7828C87.2399 63.2685 87.128 62.7065 87.1269 62.0968C87.1258 61.487 87.2357 60.9246 87.4565 60.4096C87.6773 59.8945 87.9853 59.4466 88.3806 59.0658C88.7758 58.6772 89.2424 58.3755 89.7805 58.1608C90.3186 57.9461 90.9083 57.8382 91.5497 57.8371C92.1832 57.836 92.7654 57.942 93.2963 58.1549C93.8351 58.3598 94.3029 58.656 94.6995 59.0434C95.104 59.4228 95.4136 59.8696 95.6284 60.384C95.851 60.8983 95.9629 61.4643 95.964 62.0819C95.9651 62.6996 95.8552 63.2659 95.6344 63.781C95.4215 64.2961 95.1135 64.7479 94.7104 65.1366C94.3151 65.5174 93.8485 65.8151 93.3104 66.0298C92.7802 66.2366 92.1984 66.3405 91.5649 66.3416ZM94.2879 67.9761C94.0107 67.9766 93.7454 67.9414 93.4919 67.8706C93.2384 67.8076 92.9848 67.7012 92.7311 67.5511C92.4775 67.409 92.2158 67.2194 91.9462 66.9823C91.6765 66.7531 91.383 66.4686 91.0657 66.1286L92.336 65.7939C92.5741 66.0865 92.8002 66.3237 93.0143 66.5054C93.2364 66.6951 93.4544 66.8293 93.6683 66.9082C93.8823 66.9949 94.0922 67.0381 94.2981 67.0378C94.8919 67.0368 95.3983 66.7984 95.8171 66.3225L96.3766 66.9986C95.8393 67.6489 95.1431 67.9747 94.2879 67.9761ZM91.563 65.2844C92.0223 65.2837 92.4458 65.2038 92.8335 65.0448C93.2292 64.8857 93.5693 64.6595 93.8538 64.366C94.1463 64.0725 94.3713 63.7317 94.529 63.3434C94.6946 62.9551 94.777 62.5353 94.7762 62.0839C94.7754 61.6247 94.6915 61.2012 94.5245 60.8134C94.3654 60.4257 94.1391 60.0895 93.8457 59.805C93.5601 59.5125 93.2192 59.2873 92.823 59.1296C92.4347 58.9719 92.0109 58.8935 91.5516 58.8942C91.0844 58.895 90.653 58.9749 90.2574 59.1339C89.8696 59.293 89.5295 59.5192 89.2371 59.8127C88.9446 60.0983 88.7156 60.4352 88.55 60.8235C88.3923 61.2117 88.3139 61.6355 88.3147 62.0948C88.3155 62.5461 88.3954 62.9657 88.5545 63.3534C88.7215 63.7411 88.9517 64.0813 89.2452 64.3737C89.5388 64.6662 89.8797 64.8913 90.2679 65.0491C90.6641 65.2068 91.0958 65.2852 91.563 65.2844ZM100.402 63.4642L100.4 62.4783L103.595 62.473L103.597 63.4588L100.402 63.4642ZM109.438 66.2165L109.424 58.3772L109.936 58.9346L107.548 58.9386L107.546 57.9053L110.599 57.9002L110.614 66.2146L109.438 66.2165ZM115.83 66.3008C115.18 66.3019 114.598 66.1366 114.083 65.8049C113.575 65.4732 113.171 64.9908 112.869 64.3579C112.575 63.7249 112.427 62.957 112.425 62.0543C112.424 61.1516 112.569 60.3833 112.86 59.7493C113.16 59.1153 113.563 58.6316 114.069 58.2982C114.584 57.9647 115.165 57.7975 115.815 57.7964C116.456 57.7953 117.034 57.9606 117.55 58.2923C118.065 58.6241 118.47 59.1064 118.764 59.7394C119.058 60.3724 119.206 61.1402 119.207 62.0429C119.209 62.9456 119.064 63.714 118.772 64.348C118.48 64.9819 118.077 65.4656 117.563 65.7991C117.049 66.1325 116.471 66.2998 115.83 66.3008ZM115.828 65.2437C116.263 65.243 116.643 65.1236 116.967 64.8855C117.3 64.6474 117.556 64.2906 117.738 63.8152C117.927 63.3398 118.021 62.7497 118.02 62.0449C118.018 61.3402 117.922 60.7504 117.731 60.2756C117.548 59.8008 117.29 59.4449 116.957 59.2079C116.632 58.9709 116.252 58.8528 115.816 58.8535C115.381 58.8542 114.997 58.9737 114.665 59.2118C114.333 59.4499 114.072 59.8067 113.883 60.2821C113.702 60.7575 113.612 61.3476 113.613 62.0523C113.614 62.7571 113.706 63.3468 113.889 63.8216C114.08 64.2964 114.342 64.6523 114.675 64.8893C115.008 65.1263 115.392 65.2445 115.828 65.2437ZM123.752 66.2876C123.103 66.2886 122.52 66.1233 122.005 65.7916C121.498 65.4599 121.093 64.9775 120.791 64.3446C120.497 63.7116 120.349 62.9437 120.347 62.041C120.346 61.1383 120.491 60.37 120.783 59.736C121.083 59.102 121.486 58.6183 121.992 58.2849C122.506 57.9514 123.088 57.7842 123.737 57.7831C124.378 57.782 124.957 57.9473 125.472 58.279C125.987 58.6108 126.392 59.0931 126.686 59.7261C126.98 60.3591 127.128 61.1269 127.13 62.0296C127.131 62.9323 126.986 63.7007 126.694 64.3347C126.402 64.9686 125.999 65.4523 125.485 65.7858C124.971 66.1192 124.394 66.2865 123.752 66.2876ZM123.75 65.2304C124.186 65.2297 124.566 65.1103 124.89 64.8722C125.222 64.6341 125.479 64.2773 125.66 63.8019C125.849 63.3265 125.943 62.7364 125.942 62.0316C125.941 61.3269 125.845 60.7371 125.654 60.2623C125.471 59.7875 125.213 59.4316 124.88 59.1946C124.555 58.9576 124.174 58.8395 123.739 58.8402C123.303 58.8409 122.919 58.9604 122.587 59.1985C122.255 59.4366 121.994 59.7934 121.805 60.2688C121.624 60.7442 121.534 61.3343 121.535 62.039C121.537 62.7438 121.629 63.3335 121.812 63.8084C122.002 64.2831 122.264 64.639 122.597 64.876C122.93 65.113 123.315 65.2312 123.75 65.2304ZM131.674 66.2743C131.025 66.2753 130.443 66.11 129.928 65.7783C129.42 65.4466 129.015 64.9642 128.713 64.3313C128.419 63.6983 128.271 62.9304 128.27 62.0277C128.268 61.125 128.413 60.3567 128.705 59.7227C129.005 59.0887 129.408 58.605 129.914 58.2716C130.428 57.9382 131.01 57.7709 131.659 57.7698C132.301 57.7687 132.879 57.934 133.394 58.2658C133.91 58.5975 134.314 59.0798 134.608 59.7128C134.903 60.3458 135.05 61.1136 135.052 62.0163C135.054 62.9191 134.909 63.6874 134.617 64.3214C134.325 64.9553 133.922 65.439 133.408 65.7725C132.894 66.1059 132.316 66.2732 131.674 66.2743ZM131.673 65.2171C132.108 65.2164 132.488 65.097 132.812 64.8589C133.144 64.6208 133.401 64.264 133.582 63.7886C133.772 63.3132 133.866 62.7231 133.864 62.0183C133.863 61.3136 133.767 60.7238 133.576 60.249C133.393 59.7742 133.135 59.4183 132.802 59.1813C132.477 58.9443 132.097 58.8262 131.661 58.8269C131.226 58.8276 130.842 58.9471 130.51 59.1852C130.177 59.4233 129.917 59.7801 129.728 60.2555C129.546 60.7309 129.456 61.321 129.458 62.0257C129.459 62.7305 129.551 63.3203 129.734 63.7951C129.925 64.2698 130.187 64.6257 130.52 64.8627C130.853 65.0997 131.237 65.2179 131.673 65.2171ZM139.597 66.261C138.948 66.2621 138.365 66.0967 137.85 65.765C137.343 65.4333 136.938 64.951 136.636 64.318C136.342 63.685 136.194 62.9171 136.192 62.0144C136.191 61.1117 136.336 60.3434 136.628 59.7094C136.927 59.0754 137.33 58.5917 137.836 58.2583C138.351 57.9249 138.932 57.7576 139.582 57.7565C140.223 57.7554 140.801 57.9207 141.317 58.2525C141.832 58.5842 142.237 59.0665 142.531 59.6995C142.825 60.3325 142.973 61.1003 142.974 62.0031C142.976 62.9058 142.831 63.6741 142.539 64.3081C142.247 64.942 141.844 65.4257 141.33 65.7592C140.816 66.0926 140.238 66.2599 139.597 66.261ZM139.595 65.2038C140.03 65.2031 140.41 65.0837 140.735 64.8456C141.067 64.6075 141.323 64.2507 141.505 63.7753C141.694 63.2999 141.788 62.7098 141.787 62.005C141.785 61.3003 141.689 60.7105 141.498 60.2357C141.315 59.7609 141.057 59.405 140.724 59.168C140.399 58.931 140.019 58.8129 139.584 58.8136C139.148 58.8144 138.764 58.9338 138.432 59.1719C138.1 59.41 137.839 59.7668 137.65 60.2422C137.469 60.7176 137.379 61.3077 137.38 62.0124C137.381 62.7172 137.473 63.307 137.656 63.7818C137.847 64.2566 138.109 64.6124 138.442 64.8494C138.775 65.0864 139.159 65.2046 139.595 65.2038ZM147.989 66.1519L147.974 57.8374L151.217 57.832C151.945 57.8308 152.567 57.9446 153.082 58.1733C153.597 58.4021 153.994 58.734 154.272 59.1691C154.549 59.6041 154.689 60.1225 154.69 60.7243C154.691 61.3262 154.553 61.845 154.277 62.281C154.001 62.7091 153.605 63.0423 153.091 63.2808C152.577 63.5113 151.955 63.6271 151.227 63.6283L148.638 63.6327L149.171 63.0735L149.177 66.1499L147.989 66.1519ZM149.171 63.1923L148.636 62.5993L151.189 62.595C151.95 62.5938 152.523 62.4305 152.911 62.1052C153.306 61.7798 153.503 61.3202 153.502 60.7263C153.501 60.1325 153.302 59.6735 152.906 59.3495C152.517 59.0255 151.943 58.8641 151.183 58.8654L148.629 58.8697L149.163 58.2749L149.171 63.1923ZM158.999 66.2046C158.358 66.2057 157.783 66.0681 157.276 65.7918C156.777 65.5155 156.384 65.1361 156.098 64.6535C155.812 64.171 155.669 63.6169 155.668 62.9914C155.667 62.3658 155.808 61.8113 156.092 61.3278C156.376 60.8443 156.768 60.4675 157.266 60.1974C157.772 59.9194 158.346 59.7799 158.988 59.7788C159.558 59.7778 160.065 59.8918 160.509 60.1207C160.96 60.3417 161.309 60.6736 161.556 61.1167L160.69 61.6764C160.483 61.3679 160.229 61.1427 159.928 61.0006C159.635 60.8507 159.318 60.776 158.978 60.7765C158.566 60.7772 158.198 60.8689 157.873 61.0516C157.549 61.2343 157.292 61.492 157.103 61.8249C156.913 62.1499 156.819 62.5381 156.82 62.9894C156.821 63.4408 156.916 63.8326 157.107 64.1648C157.298 64.4971 157.555 64.754 157.88 64.9356C158.205 65.1172 158.574 65.2076 158.986 65.2069C159.326 65.2064 159.643 65.1346 159.935 64.9915C160.236 64.8406 160.489 64.6105 160.694 64.3014L161.562 64.8463C161.318 65.2822 160.97 65.6193 160.519 65.8576C160.076 66.088 159.569 66.2037 158.999 66.2046ZM164.846 66.1948C164.324 66.1957 163.825 66.1253 163.349 65.9835C162.882 65.8418 162.513 65.6682 162.244 65.4628L162.717 64.5593C162.987 64.741 163.32 64.8948 163.716 65.0208C164.112 65.1469 164.516 65.2095 164.928 65.2088C165.458 65.208 165.838 65.1321 166.068 64.9813C166.305 64.8304 166.423 64.6204 166.423 64.3511C166.423 64.1532 166.351 63.9989 166.208 63.8883C166.066 63.7776 165.875 63.6948 165.638 63.6398C165.408 63.5847 165.151 63.5377 164.865 63.4986C164.58 63.4515 164.295 63.3966 164.01 63.3337C163.725 63.2629 163.463 63.1683 163.225 63.0499C162.988 62.9236 162.797 62.7537 162.654 62.5402C162.511 62.3187 162.44 62.0258 162.439 61.6616C162.438 61.2815 162.545 60.9487 162.758 60.6633C162.971 60.3779 163.272 60.1596 163.659 60.0085C164.055 59.8495 164.522 59.7695 165.061 59.7686C165.472 59.7679 165.888 59.8187 166.308 59.9209C166.736 60.0152 167.084 60.1532 167.354 60.3349L166.869 61.2384C166.583 61.0488 166.286 60.9187 165.977 60.8479C165.668 60.7772 165.359 60.7421 165.05 60.7426C164.552 60.7434 164.18 60.8272 163.934 60.9939C163.689 61.1527 163.567 61.3588 163.567 61.6122C163.568 61.826 163.639 61.9921 163.782 62.1107C163.933 62.2213 164.123 62.3081 164.353 62.371C164.59 62.434 164.852 62.489 165.137 62.536C165.422 62.5751 165.707 62.6301 165.992 62.7008C166.278 62.7637 166.535 62.8543 166.765 62.9727C167.003 63.0911 167.193 63.2571 167.336 63.4706C167.487 63.6842 167.562 63.9691 167.563 64.3255C167.564 64.7056 167.454 65.0344 167.232 65.3119C167.011 65.5894 166.699 65.8077 166.295 65.9667C165.892 66.1179 165.409 66.1939 164.846 66.1948ZM169.376 68.4203L168.295 68.4221C168.776 67.5819 169.127 66.7063 169.347 65.7953C169.567 64.8764 169.676 63.8983 169.674 62.861C169.673 61.8236 169.56 60.8498 169.337 59.9396C169.113 59.0214 168.759 58.1431 168.275 57.3045L169.356 57.3027C169.824 58.0067 170.178 58.8375 170.417 59.7952C170.664 60.7451 170.789 61.7663 170.791 62.8591C170.793 63.9518 170.672 64.9735 170.428 65.9242C170.192 66.8669 169.841 67.6989 169.376 68.4203Z" fill="black"/>
<path d="M177.182 61.4922H207.598" stroke="url(#paint0_linear_2040_575)" stroke-width="0.863039"/>
<path d="M30.418 62.5488H0.00151467" stroke="url(#paint1_linear_2040_575)" stroke-width="0.863039"/>
<defs>
<linearGradient id="paint0_linear_2040_575" x1="203.036" y1="61.9922" x2="177.689" y2="61.9922" gradientUnits="userSpaceOnUse">
<stop stop-color="#666666" stop-opacity="0"/>
<stop offset="1"/>
</linearGradient>
<linearGradient id="paint1_linear_2040_575" x1="4.56398" y1="63.0488" x2="29.911" y2="63.0488" gradientUnits="userSpaceOnUse">
<stop stop-color="#666666" stop-opacity="0"/>
<stop offset="1"/>
</linearGradient>
</defs>
</svg>
