<svg width="224" height="114" viewBox="0 0 224 114" fill="none" xmlns="http://www.w3.org/2000/svg">
<path d="M15.2072 38.6315C12.2191 38.6315 9.35553 38.2402 6.61646 37.4576C3.8774 36.6395 1.67191 35.5901 1.73954e-05 34.3095L2.93473 27.7998C4.53548 28.9381 6.42081 29.8807 8.59072 30.6277C10.7962 31.3392 13.0195 31.6949 15.2605 31.6949C16.968 31.6949 18.3375 31.5348 19.3691 31.2147C20.4363 30.859 21.2189 30.3787 21.7169 29.774C22.2149 29.1693 22.4639 28.4756 22.4639 27.693C22.4639 26.697 22.0726 25.9144 21.29 25.3453C20.5074 24.7405 19.4758 24.2603 18.1952 23.9046C16.9146 23.5133 15.4917 23.1576 13.9266 22.8374C12.397 22.4817 10.8496 22.0548 9.28438 21.5568C7.75478 21.0588 6.34967 20.4185 5.06907 19.6359C3.78847 18.8533 2.73908 17.8217 1.92092 16.5411C1.13833 15.2605 0.747035 13.6242 0.747035 11.6321C0.747035 9.49781 1.31619 7.55912 2.4545 5.81608C3.62839 4.03746 5.37143 2.63236 7.68363 1.60076C10.0314 0.533595 12.9661 1.1576e-05 16.4878 1.1576e-05C18.8355 1.1576e-05 21.1477 0.284589 23.4244 0.853745C25.701 1.38733 27.7108 2.20549 29.4539 3.30823L26.7859 9.87132C25.0429 8.8753 23.2999 8.14606 21.5568 7.68362C19.8138 7.18561 18.1063 6.93661 16.4344 6.93661C14.7625 6.93661 13.393 7.13225 12.3258 7.52355C11.2586 7.91484 10.4938 8.43064 10.0314 9.07094C9.56896 9.67567 9.33774 10.3871 9.33774 11.2053C9.33774 12.1657 9.72904 12.9483 10.5116 13.5531C11.2942 14.1222 12.3258 14.5846 13.6064 14.9404C14.887 15.2961 16.2921 15.6518 17.8217 16.0075C19.3869 16.3633 20.9343 16.7723 22.4639 17.2348C24.0291 17.6972 25.452 18.3197 26.7326 19.1023C28.0132 19.8849 29.0448 20.9165 29.8274 22.1971C30.6455 23.4777 31.0546 25.0963 31.0546 27.0527C31.0546 29.1515 30.4677 31.0724 29.2938 32.8154C28.1199 34.5585 26.3591 35.9636 24.0113 37.0308C21.6991 38.0979 18.7644 38.6315 15.2072 38.6315ZM73.1382 8.85751C75.4148 8.85751 77.4246 9.31995 79.1677 10.2448C80.9463 11.1341 82.3336 12.5215 83.3296 14.4068C84.3612 16.2565 84.877 18.6399 84.877 21.5568V37.9912H76.5531V22.8374C76.5531 20.5252 76.0729 18.8177 75.1124 17.715C74.152 16.6123 72.8002 16.0609 71.0572 16.0609C69.8477 16.0609 68.7628 16.3455 67.8023 16.9146C66.8419 17.4482 66.0948 18.2664 65.5613 19.3691C65.0277 20.4719 64.7609 21.877 64.7609 23.5844V37.9912H56.437V22.8374C56.437 20.5252 55.9567 18.8177 54.9963 17.715C54.0714 16.6123 52.7375 16.0609 50.9944 16.0609C49.785 16.0609 48.7 16.3455 47.7396 16.9146C46.7791 17.4482 46.0321 18.2664 45.4985 19.3691C44.9649 20.4719 44.6981 21.877 44.6981 23.5844V37.9912H36.3742V9.28438H44.3246V17.1281L42.8306 14.8337C43.8266 12.8772 45.2317 11.4009 47.0459 10.4049C48.8956 9.37331 50.9944 8.85751 53.3422 8.85751C55.9745 8.85751 58.2689 9.53338 60.2254 10.8851C62.2175 12.2013 63.5336 14.2289 64.1739 16.968L61.2392 16.1676C62.1997 13.9266 63.7293 12.1479 65.8281 10.8318C67.9624 9.5156 70.3991 8.85751 73.1382 8.85751ZM109.946 37.9912V32.3886L109.413 31.1613V21.1299C109.413 19.3513 108.861 17.964 107.759 16.968C106.691 15.972 105.037 15.474 102.796 15.474C101.267 15.474 99.7548 15.723 98.2608 16.221C96.8023 16.6834 95.5573 17.3237 94.5257 18.1419L91.5376 12.3258C93.1028 11.2231 94.9882 10.3693 97.1936 9.7646C99.3991 9.15987 101.64 8.85751 103.917 8.85751C108.292 8.85751 111.689 9.88911 114.108 11.9523C116.527 14.0155 117.737 17.2348 117.737 21.6102V37.9912H109.946ZM101.196 38.4181C98.9545 38.4181 97.0336 38.0446 95.4328 37.2976C93.8321 36.515 92.6048 35.4656 91.7511 34.1494C90.8973 32.8332 90.4705 31.357 90.4705 29.7207C90.4705 28.0132 90.8796 26.5191 91.6977 25.2385C92.5515 23.9579 93.8854 22.9619 95.6996 22.2505C97.5138 21.5035 99.8793 21.1299 102.796 21.1299H110.427V25.9856H103.703C101.747 25.9856 100.395 26.3057 99.6481 26.946C98.9367 27.5863 98.581 28.3867 98.581 29.3471C98.581 30.4143 98.99 31.268 99.8082 31.9084C100.662 32.5131 101.818 32.8154 103.277 32.8154C104.664 32.8154 105.909 32.4953 107.012 31.855C108.114 31.1791 108.915 30.2009 109.413 28.9203L110.693 32.7621C110.089 34.6118 108.986 36.0169 107.385 36.9774C105.784 37.9379 103.721 38.4181 101.196 38.4181ZM125.27 37.9912V9.28438H133.221V17.3949L132.1 15.0471C132.954 13.0195 134.323 11.4899 136.209 10.4583C138.094 9.39109 140.388 8.85751 143.092 8.85751V16.5411C142.736 16.5056 142.416 16.4878 142.131 16.4878C141.847 16.4522 141.544 16.4344 141.224 16.4344C138.948 16.4344 137.098 17.0925 135.675 18.4087C134.288 19.6893 133.594 21.6991 133.594 24.4382V37.9912H125.27ZM160.77 38.4181C157.391 38.4181 154.758 37.5643 152.873 35.8569C150.988 34.1138 150.045 31.5348 150.045 28.1199V2.93473H158.369V28.0132C158.369 29.2226 158.689 30.1653 159.33 30.8412C159.97 31.4815 160.841 31.8016 161.944 31.8016C163.26 31.8016 164.381 31.4459 165.306 30.7345L167.547 36.6039C166.693 37.2086 165.661 37.6711 164.452 37.9912C163.278 38.2758 162.051 38.4181 160.77 38.4181ZM145.616 16.3277V9.92468H165.519V16.3277H145.616ZM2.93473 102.991V65.6403H19.1023C22.4461 65.6403 25.3275 66.1917 27.7464 67.2944C30.1653 68.3616 32.0329 69.909 33.349 71.9366C34.6652 73.9642 35.3233 76.3831 35.3233 79.1934C35.3233 81.968 34.6652 84.3691 33.349 86.3967C32.0329 88.4244 30.1653 89.9895 27.7464 91.0923C25.3275 92.1595 22.4461 92.693 19.1023 92.693H7.73699L11.5788 88.7979V102.991H2.93473ZM11.5788 89.7583L7.73699 85.6497H18.6221C21.29 85.6497 23.2821 85.0806 24.5983 83.9423C25.9144 82.8039 26.5725 81.221 26.5725 79.1934C26.5725 77.1302 25.9144 75.5294 24.5983 74.3911C23.2821 73.2528 21.29 72.6836 18.6221 72.6836H7.73699L11.5788 68.575V89.7583ZM58.2553 102.991V97.3886L57.7217 96.1613V86.1299C57.7217 84.3513 57.1704 82.964 56.0676 81.968C55.0005 80.972 53.3464 80.474 51.1053 80.474C49.5757 80.474 48.0639 80.723 46.5698 81.221C45.1114 81.6834 43.8663 82.3237 42.8347 83.1419L39.8467 77.3258C41.4119 76.2231 43.2972 75.3693 45.5027 74.7646C47.7081 74.1599 49.9492 73.8575 52.2258 73.8575C56.6012 73.8575 59.9984 74.8891 62.4173 76.9523C64.8362 79.0155 66.0457 82.2348 66.0457 86.6102V102.991H58.2553ZM49.5045 103.418C47.2635 103.418 45.3426 103.045 43.7418 102.298C42.1411 101.515 40.9138 100.466 40.0601 99.1494C39.2064 97.8332 38.7795 96.357 38.7795 94.7207C38.7795 93.0132 39.1886 91.5191 40.0067 90.2385C40.8605 88.9579 42.1944 87.9619 44.0086 87.2505C45.8228 86.5035 48.1884 86.1299 51.1053 86.1299H58.7356V90.9856H52.0124C50.0559 90.9856 48.7042 91.3057 47.9572 91.946C47.2457 92.5863 46.89 93.3867 46.89 94.3471C46.89 95.4143 47.2991 96.268 48.1172 96.9084C48.971 97.5131 50.1271 97.8154 51.5855 97.8154C52.9728 97.8154 54.2179 97.4953 55.3206 96.855C56.4234 96.1791 57.2237 95.2009 57.7217 93.9203L59.0023 97.7621C58.3976 99.6118 57.2949 101.017 55.6941 101.977C54.0934 102.938 52.0302 103.418 49.5045 103.418ZM87.6608 103.418C84.566 103.418 81.8092 102.796 79.3903 101.551C76.9713 100.27 75.0682 98.5091 73.6809 96.268C72.3292 94.027 71.6533 91.4836 71.6533 88.6378C71.6533 85.7564 72.3292 83.213 73.6809 81.0075C75.0682 78.7665 76.9713 77.0234 79.3903 75.7784C81.8092 74.4978 84.566 73.8575 87.6608 73.8575C90.6845 73.8575 93.3168 74.4978 95.5579 75.7784C97.7989 77.0234 99.453 78.8198 100.52 81.1676L94.0638 84.6359C93.3168 83.2842 92.3741 82.2881 91.2358 81.6478C90.1331 81.0075 88.9236 80.6874 87.6075 80.6874C86.1846 80.6874 84.904 81.0075 83.7657 81.6478C82.6273 82.2881 81.7203 83.1952 81.0444 84.3691C80.4041 85.543 80.0839 86.9659 80.0839 88.6378C80.0839 90.3097 80.4041 91.7326 81.0444 92.9065C81.7203 94.0804 82.6273 94.9874 83.7657 95.6277C84.904 96.268 86.1846 96.5882 87.6075 96.5882C88.9236 96.5882 90.1331 96.2858 91.2358 95.6811C92.3741 95.0408 93.3168 94.027 94.0638 92.6397L100.52 96.1613C99.453 98.4735 97.7989 100.27 95.5579 101.551C93.3168 102.796 90.6845 103.418 87.6608 103.418ZM112.04 97.1218L112.253 86.9837L125.646 74.2844H135.571L122.711 87.3572L118.389 90.8788L112.04 97.1218ZM105.157 102.991V63.3993H113.48V102.991H105.157ZM126.553 102.991L116.842 90.9322L122.071 84.4758L136.638 102.991H126.553ZM140.381 102.991V74.2844H148.705V102.991H140.381ZM144.543 70.2825C143.014 70.2825 141.769 69.8378 140.808 68.9485C139.848 68.0592 139.368 66.9565 139.368 65.6403C139.368 64.3241 139.848 63.2214 140.808 62.3321C141.769 61.4428 143.014 60.9981 144.543 60.9981C146.073 60.9981 147.318 61.425 148.278 62.2787C149.239 63.0969 149.719 64.1641 149.719 65.4802C149.719 66.8676 149.239 68.0237 148.278 68.9485C147.354 69.8378 146.109 70.2825 144.543 70.2825ZM173.879 73.8575C176.155 73.8575 178.183 74.3199 179.962 75.2448C181.776 76.1341 183.199 77.5215 184.23 79.4068C185.262 81.2565 185.778 83.6399 185.778 86.5568V102.991H177.454V87.8374C177.454 85.5252 176.938 83.8177 175.906 82.715C174.91 81.6123 173.488 81.0609 171.638 81.0609C170.322 81.0609 169.13 81.3455 168.063 81.9146C167.031 82.4482 166.213 83.2842 165.608 84.4225C165.039 85.5608 164.755 87.0193 164.755 88.7979V102.991H156.431V74.2844H164.381V82.2348L162.887 79.8337C163.919 77.9127 165.395 76.4365 167.316 75.4049C169.237 74.3733 171.424 73.8575 173.879 73.8575ZM207.031 113.77C204.328 113.77 201.713 113.432 199.187 112.756C196.697 112.116 194.616 111.137 192.945 109.821L196.253 103.845C197.462 104.841 198.992 105.624 200.842 106.193C202.727 106.797 204.577 107.1 206.391 107.1C209.343 107.1 211.478 106.442 212.794 105.126C214.146 103.809 214.821 101.853 214.821 99.2561V94.9341L215.355 87.7307L215.248 80.474V74.2844H223.145V98.189C223.145 103.525 221.758 107.456 218.983 109.981C216.209 112.507 212.225 113.77 207.031 113.77ZM205.751 101.604C203.083 101.604 200.664 101.035 198.494 99.8964C196.359 98.7225 194.634 97.104 193.318 95.0408C192.037 92.942 191.397 90.5053 191.397 87.7307C191.397 84.9205 192.037 82.4838 193.318 80.4206C194.634 78.3218 196.359 76.7033 198.494 75.565C200.664 74.4267 203.083 73.8575 205.751 73.8575C208.169 73.8575 210.304 74.3555 212.154 75.3515C214.003 76.312 215.444 77.8238 216.476 79.887C217.507 81.9146 218.023 84.5292 218.023 87.7307C218.023 90.8966 217.507 93.5112 216.476 95.5744C215.444 97.602 214.003 99.1138 212.154 100.11C210.304 101.106 208.169 101.604 205.751 101.604ZM207.405 94.774C208.863 94.774 210.161 94.4894 211.3 93.9203C212.438 93.3155 213.327 92.4796 213.968 91.4124C214.608 90.3453 214.928 89.118 214.928 87.7307C214.928 86.3078 214.608 85.0806 213.968 84.049C213.327 82.9818 212.438 82.1636 211.3 81.5945C210.161 80.9898 208.863 80.6874 207.405 80.6874C205.946 80.6874 204.648 80.9898 203.509 81.5945C202.371 82.1636 201.464 82.9818 200.788 84.049C200.148 85.0806 199.828 86.3078 199.828 87.7307C199.828 89.118 200.148 90.3453 200.788 91.4124C201.464 92.4796 202.371 93.3155 203.509 93.9203C204.648 94.4894 205.946 94.774 207.405 94.774Z" fill="white"/>
</svg>
