<svg width="208" height="17" viewBox="0 0 208 17" fill="none" xmlns="http://www.w3.org/2000/svg">
<path d="M2.25052 16.8484C1.53052 15.7564 0.972524 14.4964 0.576524 13.0684C0.192524 11.6284 0.000523552 10.0804 0.000523552 8.42444C0.000523552 6.76844 0.192524 5.22044 0.576524 3.78045C0.972524 2.32844 1.53052 1.06844 2.25052 0.000444531H4.93252C4.17652 1.35644 3.62452 2.72445 3.27652 4.10445C2.92852 5.47245 2.75452 6.91245 2.75452 8.42444C2.75452 9.93645 2.92852 11.3824 3.27652 12.7624C3.62452 14.1304 4.17652 15.4924 4.93252 16.8484H2.25052ZM6.61412 13.3564V0.756444H9.53012V13.3564H6.61412ZM12.5204 13.3564V0.756444H14.9324L20.2964 9.64845H19.0184L24.2924 0.756444H26.6864L26.7224 13.3564H23.9864L23.9684 4.95045H24.4724L20.2604 12.0244H18.9464L14.6444 4.95045H15.2564V13.3564H12.5204ZM29.7118 13.3564V0.756444H32.6278V10.9804H38.9458V13.3564H29.7118ZM45.6727 13.3564V0.756444H48.0847L53.4487 9.64845H52.1707L57.4447 0.756444H59.8387L59.8747 13.3564H57.1387L57.1207 4.95045H57.6247L53.4127 12.0244H52.0987L47.7967 4.95045H48.4087V13.3564H45.6727ZM68.9841 13.5724C67.9881 13.5724 67.0641 13.4104 66.2121 13.0864C65.3721 12.7624 64.6401 12.3064 64.0161 11.7184C63.4041 11.1304 62.9241 10.4404 62.5761 9.64845C62.2401 8.85645 62.0721 7.99244 62.0721 7.05644C62.0721 6.12044 62.2401 5.25644 62.5761 4.46444C62.9241 3.67245 63.4101 2.98245 64.0341 2.39444C64.6581 1.80644 65.3901 1.35044 66.2301 1.02644C67.0701 0.702445 67.9821 0.540445 68.9661 0.540445C69.9621 0.540445 70.8741 0.702445 71.7021 1.02644C72.5421 1.35044 73.2681 1.80644 73.8801 2.39444C74.5041 2.98245 74.9901 3.67245 75.3381 4.46444C75.6861 5.24444 75.8601 6.10844 75.8601 7.05644C75.8601 7.99244 75.6861 8.86245 75.3381 9.66645C74.9901 10.4584 74.5041 11.1484 73.8801 11.7364C73.2681 12.3124 72.5421 12.7624 71.7021 13.0864C70.8741 13.4104 69.9681 13.5724 68.9841 13.5724ZM68.9661 11.0884C69.5301 11.0884 70.0461 10.9924 70.5141 10.8004C70.9941 10.6084 71.4141 10.3324 71.7741 9.97245C72.1341 9.61245 72.4101 9.18645 72.6021 8.69445C72.8061 8.20245 72.9081 7.65645 72.9081 7.05644C72.9081 6.45645 72.8061 5.91045 72.6021 5.41845C72.4101 4.92644 72.1341 4.50044 71.7741 4.14044C71.4261 3.78044 71.0121 3.50444 70.5321 3.31244C70.0521 3.12045 69.5301 3.02445 68.9661 3.02445C68.4021 3.02445 67.8801 3.12045 67.4001 3.31244C66.9321 3.50444 66.5181 3.78044 66.1581 4.14044C65.7981 4.50044 65.5161 4.92644 65.3121 5.41845C65.1201 5.91045 65.0241 6.45645 65.0241 7.05644C65.0241 7.64444 65.1201 8.19044 65.3121 8.69445C65.5161 9.18645 65.7921 9.61245 66.1401 9.97245C66.5001 10.3324 66.9201 10.6084 67.4001 10.8004C67.8801 10.9924 68.4021 11.0884 68.9661 11.0884ZM84.1536 13.5724C83.1696 13.5724 82.2516 13.4104 81.3996 13.0864C80.5596 12.7624 79.8276 12.3064 79.2036 11.7184C78.5916 11.1304 78.1116 10.4404 77.7636 9.64845C77.4276 8.85645 77.2596 7.99244 77.2596 7.05644C77.2596 6.12044 77.4276 5.25644 77.7636 4.46444C78.1116 3.67245 78.5976 2.98245 79.2216 2.39444C79.8456 1.80644 80.5776 1.35044 81.4176 1.02644C82.2576 0.702445 83.1696 0.540445 84.1536 0.540445C85.1496 0.540445 86.0616 0.702445 86.8896 1.02644C87.7296 1.35044 88.4556 1.80644 89.0676 2.39444C89.6916 2.97044 90.1776 3.65444 90.5256 4.44644C90.8736 5.23844 91.0476 6.10844 91.0476 7.05644C91.0476 7.99244 90.8736 8.86245 90.5256 9.66645C90.1776 10.4584 89.6916 11.1484 89.0676 11.7364C88.4556 12.3124 87.7296 12.7624 86.8896 13.0864C86.0616 13.4104 85.1496 13.5724 84.1536 13.5724ZM88.2756 16.2544C87.7836 16.2544 87.3156 16.2004 86.8716 16.0924C86.4396 15.9844 86.0076 15.8104 85.5756 15.5704C85.1556 15.3304 84.7116 15.0064 84.2436 14.5984C83.7876 14.1904 83.2896 13.6864 82.7496 13.0864L85.8096 12.3124C86.1336 12.7564 86.4336 13.1104 86.7096 13.3744C86.9856 13.6384 87.2496 13.8244 87.5016 13.9324C87.7656 14.0404 88.0416 14.0944 88.3296 14.0944C89.0976 14.0944 89.7816 13.7824 90.3816 13.1584L91.6776 14.7064C90.8256 15.7384 89.6916 16.2544 88.2756 16.2544ZM84.1536 11.0884C84.7176 11.0884 85.2336 10.9924 85.7016 10.8004C86.1816 10.6084 86.6016 10.3324 86.9616 9.97245C87.3216 9.61245 87.5976 9.18645 87.7896 8.69445C87.9936 8.19044 88.0956 7.64444 88.0956 7.05644C88.0956 6.45645 87.9936 5.91045 87.7896 5.41845C87.5976 4.92644 87.3216 4.50044 86.9616 4.14044C86.6016 3.78044 86.1816 3.50444 85.7016 3.31244C85.2336 3.12045 84.7176 3.02445 84.1536 3.02445C83.5896 3.02445 83.0676 3.12045 82.5876 3.31244C82.1076 3.50444 81.6876 3.78044 81.3276 4.14044C80.9796 4.50044 80.7036 4.92644 80.4996 5.41845C80.3076 5.91045 80.2116 6.45645 80.2116 7.05644C80.2116 7.64444 80.3076 8.19044 80.4996 8.69445C80.7036 9.18645 80.9796 9.61245 81.3276 9.97245C81.6876 10.3324 82.1076 10.6084 82.5876 10.8004C83.0676 10.9924 83.5896 11.0884 84.1536 11.0884ZM97.7788 9.41445V7.16445H102.873V9.41445H97.7788ZM111.53 13.3564V1.83644L112.79 3.09644H109.01V0.756444H114.446V13.3564H111.53ZM122.035 13.5724C121.003 13.5724 120.079 13.3204 119.263 12.8164C118.447 12.3004 117.805 11.5564 117.337 10.5844C116.869 9.61245 116.635 8.43644 116.635 7.05644C116.635 5.67644 116.869 4.50044 117.337 3.52845C117.805 2.55644 118.447 1.81844 119.263 1.31444C120.079 0.798445 121.003 0.540445 122.035 0.540445C123.079 0.540445 124.003 0.798445 124.807 1.31444C125.623 1.81844 126.265 2.55644 126.733 3.52845C127.201 4.50044 127.435 5.67644 127.435 7.05644C127.435 8.43644 127.201 9.61245 126.733 10.5844C126.265 11.5564 125.623 12.3004 124.807 12.8164C124.003 13.3204 123.079 13.5724 122.035 13.5724ZM122.035 11.1064C122.527 11.1064 122.953 10.9684 123.313 10.6924C123.685 10.4164 123.973 9.97845 124.177 9.37845C124.393 8.77844 124.501 8.00444 124.501 7.05644C124.501 6.10844 124.393 5.33444 124.177 4.73444C123.973 4.13444 123.685 3.69644 123.313 3.42044C122.953 3.14444 122.527 3.00644 122.035 3.00644C121.555 3.00644 121.129 3.14444 120.757 3.42044C120.397 3.69644 120.109 4.13444 119.893 4.73444C119.689 5.33444 119.587 6.10844 119.587 7.05644C119.587 8.00444 119.689 8.77844 119.893 9.37845C120.109 9.97845 120.397 10.4164 120.757 10.6924C121.129 10.9684 121.555 11.1064 122.035 11.1064ZM134.251 13.5724C133.219 13.5724 132.295 13.3204 131.479 12.8164C130.663 12.3004 130.021 11.5564 129.553 10.5844C129.085 9.61245 128.851 8.43644 128.851 7.05644C128.851 5.67644 129.085 4.50044 129.553 3.52845C130.021 2.55644 130.663 1.81844 131.479 1.31444C132.295 0.798445 133.219 0.540445 134.251 0.540445C135.295 0.540445 136.219 0.798445 137.023 1.31444C137.839 1.81844 138.481 2.55644 138.949 3.52845C139.417 4.50044 139.651 5.67644 139.651 7.05644C139.651 8.43644 139.417 9.61245 138.949 10.5844C138.481 11.5564 137.839 12.3004 137.023 12.8164C136.219 13.3204 135.295 13.5724 134.251 13.5724ZM134.251 11.1064C134.743 11.1064 135.169 10.9684 135.529 10.6924C135.901 10.4164 136.189 9.97845 136.393 9.37845C136.609 8.77844 136.717 8.00444 136.717 7.05644C136.717 6.10844 136.609 5.33444 136.393 4.73444C136.189 4.13444 135.901 3.69644 135.529 3.42044C135.169 3.14444 134.743 3.00644 134.251 3.00644C133.771 3.00644 133.345 3.14444 132.973 3.42044C132.613 3.69644 132.325 4.13444 132.109 4.73444C131.905 5.33444 131.803 6.10844 131.803 7.05644C131.803 8.00444 131.905 8.77844 132.109 9.37845C132.325 9.97845 132.613 10.4164 132.973 10.6924C133.345 10.9684 133.771 11.1064 134.251 11.1064ZM146.468 13.5724C145.436 13.5724 144.512 13.3204 143.696 12.8164C142.88 12.3004 142.238 11.5564 141.77 10.5844C141.302 9.61245 141.068 8.43644 141.068 7.05644C141.068 5.67644 141.302 4.50044 141.77 3.52845C142.238 2.55644 142.88 1.81844 143.696 1.31444C144.512 0.798445 145.436 0.540445 146.468 0.540445C147.512 0.540445 148.436 0.798445 149.24 1.31444C150.056 1.81844 150.698 2.55644 151.166 3.52845C151.634 4.50044 151.868 5.67644 151.868 7.05644C151.868 8.43644 151.634 9.61245 151.166 10.5844C150.698 11.5564 150.056 12.3004 149.24 12.8164C148.436 13.3204 147.512 13.5724 146.468 13.5724ZM146.468 11.1064C146.96 11.1064 147.386 10.9684 147.746 10.6924C148.118 10.4164 148.406 9.97845 148.61 9.37845C148.826 8.77844 148.934 8.00444 148.934 7.05644C148.934 6.10844 148.826 5.33444 148.61 4.73444C148.406 4.13444 148.118 3.69644 147.746 3.42044C147.386 3.14444 146.96 3.00644 146.468 3.00644C145.988 3.00644 145.562 3.14444 145.19 3.42044C144.83 3.69644 144.542 4.13444 144.326 4.73444C144.122 5.33444 144.02 6.10844 144.02 7.05644C144.02 8.00444 144.122 8.77844 144.326 9.37845C144.542 9.97845 144.83 10.4164 145.19 10.6924C145.562 10.9684 145.988 11.1064 146.468 11.1064ZM158.685 13.5724C157.653 13.5724 156.729 13.3204 155.913 12.8164C155.097 12.3004 154.455 11.5564 153.987 10.5844C153.519 9.61245 153.285 8.43644 153.285 7.05644C153.285 5.67644 153.519 4.50044 153.987 3.52845C154.455 2.55644 155.097 1.81844 155.913 1.31444C156.729 0.798445 157.653 0.540445 158.685 0.540445C159.729 0.540445 160.653 0.798445 161.457 1.31444C162.273 1.81844 162.915 2.55644 163.383 3.52845C163.851 4.50044 164.085 5.67644 164.085 7.05644C164.085 8.43644 163.851 9.61245 163.383 10.5844C162.915 11.5564 162.273 12.3004 161.457 12.8164C160.653 13.3204 159.729 13.5724 158.685 13.5724ZM158.685 11.1064C159.177 11.1064 159.603 10.9684 159.963 10.6924C160.335 10.4164 160.623 9.97845 160.827 9.37845C161.043 8.77844 161.151 8.00444 161.151 7.05644C161.151 6.10844 161.043 5.33444 160.827 4.73444C160.623 4.13444 160.335 3.69644 159.963 3.42044C159.603 3.14444 159.177 3.00644 158.685 3.00644C158.205 3.00644 157.779 3.14444 157.407 3.42044C157.047 3.69644 156.759 4.13444 156.543 4.73444C156.339 5.33444 156.237 6.10844 156.237 7.05644C156.237 8.00444 156.339 8.77844 156.543 9.37845C156.759 9.97845 157.047 10.4164 157.407 10.6924C157.779 10.9684 158.205 11.1064 158.685 11.1064ZM166.294 13.3564V0.756444H171.748C172.876 0.756444 173.848 0.942445 174.664 1.31444C175.48 1.67444 176.11 2.19644 176.554 2.88045C176.998 3.56444 177.22 4.38044 177.22 5.32845C177.22 6.26444 176.998 7.07444 176.554 7.75844C176.11 8.44245 175.48 8.97045 174.664 9.34245C173.848 9.70245 172.876 9.88245 171.748 9.88245H167.914L169.21 8.56845V13.3564H166.294ZM169.21 8.89245L167.914 7.50644H171.586C172.486 7.50644 173.158 7.31444 173.602 6.93044C174.046 6.54644 174.268 6.01244 174.268 5.32845C174.268 4.63245 174.046 4.09245 173.602 3.70845C173.158 3.32445 172.486 3.13244 171.586 3.13244H167.914L169.21 1.74644V8.89245ZM185.507 13.5724C184.535 13.5724 183.629 13.4164 182.789 13.1044C181.961 12.7804 181.241 12.3244 180.629 11.7364C180.017 11.1484 179.537 10.4584 179.189 9.66645C178.853 8.87444 178.685 8.00444 178.685 7.05644C178.685 6.10844 178.853 5.23844 179.189 4.44644C179.537 3.65444 180.017 2.96444 180.629 2.37645C181.253 1.78844 181.979 1.33844 182.807 1.02644C183.635 0.702445 184.541 0.540445 185.525 0.540445C186.617 0.540445 187.601 0.732445 188.477 1.11645C189.365 1.48844 190.109 2.04044 190.709 2.77245L188.837 4.50045C188.405 4.00844 187.925 3.64244 187.397 3.40244C186.869 3.15045 186.293 3.02445 185.669 3.02445C185.081 3.02445 184.541 3.12045 184.049 3.31244C183.557 3.50444 183.131 3.78044 182.771 4.14044C182.411 4.50044 182.129 4.92644 181.925 5.41845C181.733 5.91045 181.637 6.45645 181.637 7.05644C181.637 7.65645 181.733 8.20245 181.925 8.69445C182.129 9.18645 182.411 9.61245 182.771 9.97245C183.131 10.3324 183.557 10.6084 184.049 10.8004C184.541 10.9924 185.081 11.0884 185.669 11.0884C186.293 11.0884 186.869 10.9684 187.397 10.7284C187.925 10.4764 188.405 10.0984 188.837 9.59445L190.709 11.3224C190.109 12.0544 189.365 12.6124 188.477 12.9964C187.601 13.3804 186.611 13.5724 185.507 13.5724ZM196.748 13.5724C195.74 13.5724 194.774 13.4404 193.85 13.1764C192.926 12.9004 192.182 12.5464 191.618 12.1144L192.608 9.91845C193.148 10.3024 193.784 10.6204 194.516 10.8724C195.26 11.1124 196.01 11.2324 196.766 11.2324C197.342 11.2324 197.804 11.1784 198.152 11.0704C198.512 10.9504 198.776 10.7884 198.944 10.5844C199.112 10.3804 199.196 10.1464 199.196 9.88245C199.196 9.54645 199.064 9.28245 198.8 9.09044C198.536 8.88645 198.188 8.72445 197.756 8.60445C197.324 8.47245 196.844 8.35245 196.316 8.24445C195.8 8.12445 195.278 7.98045 194.75 7.81244C194.234 7.64444 193.76 7.42844 193.328 7.16445C192.896 6.90044 192.542 6.55244 192.266 6.12045C192.002 5.68844 191.87 5.13644 191.87 4.46444C191.87 3.74444 192.062 3.09044 192.446 2.50244C192.842 1.90244 193.43 1.42844 194.21 1.08044C195.002 0.720445 195.992 0.540445 197.18 0.540445C197.972 0.540445 198.752 0.636445 199.52 0.828445C200.288 1.00844 200.966 1.28444 201.554 1.65644L200.654 3.87045C200.066 3.53445 199.478 3.28845 198.89 3.13244C198.302 2.96444 197.726 2.88045 197.162 2.88045C196.598 2.88045 196.136 2.94644 195.776 3.07844C195.416 3.21045 195.158 3.38444 195.002 3.60044C194.846 3.80444 194.768 4.04444 194.768 4.32044C194.768 4.64444 194.9 4.90844 195.164 5.11244C195.428 5.30444 195.776 5.46044 196.208 5.58045C196.64 5.70044 197.114 5.82044 197.63 5.94044C198.158 6.06045 198.68 6.19845 199.196 6.35444C199.724 6.51044 200.204 6.72045 200.636 6.98445C201.068 7.24845 201.416 7.59645 201.68 8.02845C201.956 8.46045 202.094 9.00644 202.094 9.66645C202.094 10.3744 201.896 11.0224 201.5 11.6104C201.104 12.1984 200.51 12.6724 199.718 13.0324C198.938 13.3924 197.948 13.5724 196.748 13.5724ZM205.455 16.8484H202.773C203.553 15.4924 204.111 14.1304 204.447 12.7624C204.795 11.3824 204.969 9.93645 204.969 8.42444C204.969 6.91245 204.795 5.47245 204.447 4.10445C204.111 2.72445 203.553 1.35644 202.773 0.000444531H205.455C206.199 1.06844 206.763 2.32844 207.147 3.78045C207.531 5.22044 207.723 6.76844 207.723 8.42444C207.723 10.0804 207.531 11.6284 207.147 13.0684C206.763 14.4964 206.199 15.7564 205.455 16.8484Z" fill="black"/>
</svg>
