<svg width="165" height="50" viewBox="0 0 165 50" fill="none" xmlns="http://www.w3.org/2000/svg">
<g filter="url(#filter0_d_2040_1174)">
<rect x="24.1406" y="4.7168" width="33" height="31" rx="6" transform="rotate(46.3303 24.1406 4.7168)" fill="white"/>
</g>
<path d="M20.1982 21.1045H28.2373C28.4651 21.1045 28.6809 21.2079 28.8232 21.3857L30.3037 23.2363C30.4101 23.3693 30.4677 23.5348 30.4678 23.7051V33.3545C30.4678 33.7687 30.132 34.1045 29.7178 34.1045H18.7178C18.3036 34.1045 17.9678 33.7687 17.9678 33.3545V23.7051C17.9678 23.5348 18.0255 23.3693 18.1318 23.2363L19.6123 21.3857C19.7546 21.2079 19.9705 21.1045 20.1982 21.1045Z" stroke="black" stroke-width="0.5"/>
<path d="M18.2178 23.3545H30.2178" stroke="black" stroke-width="0.5"/>
<path d="M26.4678 23.6045V29.834L24.374 28.1592L24.2178 28.0342L24.0615 28.1592L21.9678 29.834V23.6045H26.4678Z" stroke="black" stroke-width="0.5"/>
<path d="M55.966 22.667V13.1515H60.0962C60.798 13.1515 61.3919 13.2685 61.8778 13.5024C62.3637 13.7364 62.7326 14.0738 62.9846 14.5147C63.2365 14.9556 63.3625 15.491 63.3625 16.1209C63.3625 16.7417 63.2365 17.2771 62.9846 17.727C62.7326 18.1679 62.3637 18.5099 61.8778 18.7528C61.3919 18.9868 60.798 19.1037 60.0962 19.1037H57.6937V22.667H55.966ZM57.6937 17.7405H59.8262C60.4381 17.7405 60.9015 17.6056 61.2164 17.3356C61.5314 17.0567 61.6888 16.6518 61.6888 16.1209C61.6888 15.59 61.5314 15.1896 61.2164 14.9196C60.9015 14.6497 60.4381 14.5147 59.8262 14.5147H57.6937V17.7405ZM67.3297 22.802C66.6368 22.802 66.034 22.6625 65.5211 22.3836C65.0082 22.0956 64.6123 21.6907 64.3333 21.1688C64.0544 20.6469 63.9149 20.035 63.9149 19.3332C63.9149 18.6313 64.0544 18.0285 64.3333 17.5246C64.6123 17.0117 65.0082 16.6203 65.5211 16.3503C66.034 16.0714 66.6368 15.9319 67.3297 15.9319C67.7526 15.9319 68.171 15.9994 68.5849 16.1344C68.9988 16.2693 69.3408 16.4583 69.6107 16.7013L69.1113 17.8755C68.8774 17.6685 68.6119 17.5111 68.315 17.4031C68.027 17.2951 67.7481 17.2411 67.4782 17.2411C66.8933 17.2411 66.4389 17.4256 66.1149 17.7945C65.8 18.1544 65.6425 18.6718 65.6425 19.3467C65.6425 20.0126 65.8 20.5389 66.1149 20.9259C66.4389 21.3038 66.8933 21.4927 67.4782 21.4927C67.7391 21.4927 68.018 21.4388 68.315 21.3308C68.6119 21.2228 68.8774 21.0608 69.1113 20.8449L69.6107 22.0326C69.3408 22.2666 68.9943 22.4555 68.5714 22.5995C68.1575 22.7345 67.7436 22.802 67.3297 22.802ZM73.0616 22.802C72.6927 22.802 72.3328 22.7705 71.9819 22.7075C71.6399 22.6445 71.325 22.559 71.0371 22.451C70.7491 22.3341 70.4972 22.1901 70.2812 22.0191L70.7131 20.9124C70.9381 21.0563 71.181 21.1823 71.442 21.2903C71.7029 21.3983 71.9729 21.4792 72.2518 21.5332C72.5308 21.5872 72.8052 21.6142 73.0751 21.6142C73.5071 21.6142 73.8265 21.5422 74.0334 21.3983C74.2494 21.2453 74.3574 21.0473 74.3574 20.8044C74.3574 20.5974 74.2854 20.44 74.1414 20.332C74.0064 20.215 73.7995 20.1295 73.5205 20.0755L72.1708 19.8191C71.613 19.7111 71.1855 19.5087 70.8886 19.2117C70.6007 18.9058 70.4567 18.5144 70.4567 18.0375C70.4567 17.6056 70.5737 17.2321 70.8076 16.9172C71.0506 16.6023 71.3835 16.3593 71.8064 16.1884C72.2293 16.0174 72.7152 15.9319 73.2641 15.9319C73.579 15.9319 73.885 15.9634 74.1819 16.0264C74.4788 16.0804 74.7578 16.1659 75.0187 16.2828C75.2887 16.3908 75.5226 16.5348 75.7206 16.7148L75.2617 17.8215C75.0907 17.6775 74.8928 17.5561 74.6678 17.4571C74.4429 17.3491 74.2089 17.2681 73.966 17.2141C73.732 17.1512 73.5026 17.1197 73.2776 17.1197C72.8367 17.1197 72.5083 17.1961 72.2923 17.3491C72.0854 17.5021 71.9819 17.7045 71.9819 17.9565C71.9819 18.1454 72.0449 18.3029 72.1708 18.4289C72.2968 18.5549 72.4903 18.6403 72.7512 18.6853L74.1009 18.9418C74.6858 19.0498 75.1267 19.2477 75.4236 19.5357C75.7296 19.8236 75.8825 20.2105 75.8825 20.6964C75.8825 21.1373 75.7656 21.5152 75.5316 21.8302C75.2977 22.1451 74.9692 22.3881 74.5463 22.559C74.1234 22.721 73.6285 22.802 73.0616 22.802ZM81.0359 22.667V13.1515H85.1661C85.8679 13.1515 86.4618 13.2685 86.9477 13.5024C87.4336 13.7364 87.8025 14.0738 88.0544 14.5147C88.3064 14.9556 88.4324 15.491 88.4324 16.1209C88.4324 16.7417 88.3064 17.2771 88.0544 17.727C87.8025 18.1679 87.4336 18.5099 86.9477 18.7528C86.4618 18.9868 85.8679 19.1037 85.1661 19.1037H82.7636V22.667H81.0359ZM82.7636 17.7405H84.8961C85.508 17.7405 85.9714 17.6056 86.2863 17.3356C86.6012 17.0567 86.7587 16.6518 86.7587 16.1209C86.7587 15.59 86.6012 15.1896 86.2863 14.9196C85.9714 14.6497 85.508 14.5147 84.8961 14.5147H82.7636V17.7405ZM92.602 22.802C91.8552 22.802 91.2118 22.6625 90.6719 22.3836C90.1321 22.1046 89.7136 21.7087 89.4167 21.1958C89.1288 20.6829 88.9848 20.0755 88.9848 19.3737C88.9848 18.6898 89.1243 18.0915 89.4032 17.5786C89.6911 17.0657 90.0826 16.6653 90.5775 16.3773C91.0814 16.0804 91.6527 15.9319 92.2916 15.9319C92.9215 15.9319 93.4613 16.0669 93.9113 16.3368C94.3612 16.6068 94.7076 16.9892 94.9505 17.4841C95.2025 17.979 95.3285 18.5684 95.3285 19.2522V19.7516H90.348V18.7798H94.1407L93.9248 18.9823C93.9248 18.3704 93.7898 17.9025 93.5198 17.5786C93.2499 17.2456 92.863 17.0792 92.3591 17.0792C91.9812 17.0792 91.6572 17.1692 91.3873 17.3491C91.1263 17.5201 90.9239 17.7675 90.7799 18.0915C90.6449 18.4064 90.5775 18.7843 90.5775 19.2252V19.3197C90.5775 19.8146 90.6539 20.224 90.8069 20.5479C90.9599 20.8719 91.1893 21.1148 91.4953 21.2768C91.8012 21.4388 92.1791 21.5197 92.629 21.5197C92.9979 21.5197 93.3669 21.4657 93.7358 21.3578C94.1047 21.2408 94.4421 21.0608 94.7481 20.8179L95.2205 21.9516C94.9055 22.2126 94.5096 22.4195 94.0327 22.5725C93.5558 22.7255 93.0789 22.802 92.602 22.802ZM96.6646 22.667V16.0669H98.3112V17.6596H98.1762C98.3022 17.1197 98.5497 16.7103 98.9186 16.4313C99.2875 16.1434 99.7779 15.9769 100.39 15.9319L100.903 15.8914L101.011 17.3221L100.039 17.4166C99.49 17.4706 99.0761 17.6416 98.7971 17.9295C98.5182 18.2084 98.3787 18.6044 98.3787 19.1172V22.667H96.6646ZM105.75 22.667V13.1515H109.907C110.906 13.1515 111.68 13.372 112.229 13.8129C112.777 14.2448 113.052 14.8476 113.052 15.6215C113.052 16.1974 112.885 16.6833 112.552 17.0792C112.22 17.4751 111.765 17.7405 111.189 17.8755V17.673C111.63 17.736 112.008 17.871 112.323 18.078C112.638 18.2849 112.876 18.5504 113.038 18.8743C113.209 19.1982 113.295 19.5761 113.295 20.0081C113.295 20.5659 113.164 21.0473 112.903 21.4522C112.651 21.8482 112.283 22.1496 111.797 22.3566C111.311 22.5635 110.73 22.667 110.056 22.667H105.75ZM107.41 21.3578H109.84C110.083 21.3578 110.298 21.3398 110.487 21.3038C110.685 21.2678 110.852 21.2138 110.987 21.1418C111.131 21.0608 111.248 20.9619 111.338 20.8449C111.437 20.7279 111.509 20.5929 111.554 20.44C111.599 20.287 111.621 20.116 111.621 19.9271C111.621 19.7291 111.599 19.5537 111.554 19.4007C111.509 19.2477 111.437 19.1172 111.338 19.0093C111.248 18.8923 111.131 18.7978 110.987 18.7258C110.852 18.6448 110.685 18.5864 110.487 18.5504C110.298 18.5144 110.083 18.4964 109.84 18.4964H107.41V21.3578ZM107.41 17.1872H109.61C110.204 17.1872 110.645 17.0747 110.933 16.8497C111.23 16.6158 111.378 16.2738 111.378 15.8239C111.378 15.374 111.23 15.0366 110.933 14.8117C110.645 14.5777 110.204 14.4607 109.61 14.4607H107.41V17.1872ZM117.89 22.802C117.206 22.802 116.613 22.6625 116.109 22.3836C115.605 22.1046 115.213 21.7087 114.934 21.1958C114.655 20.6739 114.516 20.062 114.516 19.3602C114.516 18.6583 114.655 18.051 114.934 17.5381C115.213 17.0252 115.605 16.6293 116.109 16.3503C116.613 16.0714 117.206 15.9319 117.89 15.9319C118.574 15.9319 119.168 16.0714 119.672 16.3503C120.176 16.6293 120.567 17.0252 120.846 17.5381C121.125 18.051 121.265 18.6583 121.265 19.3602C121.265 20.062 121.125 20.6739 120.846 21.1958C120.567 21.7087 120.176 22.1046 119.672 22.3836C119.168 22.6625 118.574 22.802 117.89 22.802ZM117.89 21.5197C118.394 21.5197 118.799 21.3398 119.105 20.9798C119.411 20.6109 119.564 20.071 119.564 19.3602C119.564 18.6403 119.411 18.105 119.105 17.754C118.799 17.3941 118.394 17.2141 117.89 17.2141C117.386 17.2141 116.981 17.3941 116.676 17.754C116.37 18.105 116.217 18.6403 116.217 19.3602C116.217 20.071 116.37 20.6109 116.676 20.9798C116.981 21.3398 117.386 21.5197 117.89 21.5197ZM121.568 22.667L124.659 18.8608V19.6571L121.743 16.0669H123.714L125.604 18.4829H125.01L126.899 16.0669H128.87L125.955 19.6436V18.8878L129.045 22.667H127.061L125.01 20.0755H125.577L123.539 22.667H121.568Z" fill="black"/>
<path d="M58.5035 42.1085C57.8736 42.1085 57.33 42.0185 56.8726 41.8386C56.4227 41.6586 56.074 41.3999 55.8266 41.0625C55.5866 40.7175 55.4666 40.3126 55.4666 39.8477C55.4666 39.3978 55.5829 39.0154 55.8153 38.7005C56.0553 38.378 56.4002 38.1306 56.8501 37.9581C57.3075 37.7857 57.8586 37.6994 58.5035 37.6994C59.1409 37.6994 59.6883 37.7857 60.1457 37.9581C60.6031 38.1306 60.9517 38.378 61.1917 38.7005C61.4391 39.0154 61.5629 39.3978 61.5629 39.8477C61.5629 40.3126 61.4391 40.7175 61.1917 41.0625C60.9442 41.3999 60.5918 41.6586 60.1344 41.8386C59.677 42.0185 59.1334 42.1085 58.5035 42.1085ZM58.5035 41.4224C59.2009 41.4224 59.7445 41.2799 60.1344 40.995C60.5318 40.71 60.7305 40.3239 60.7305 39.8365C60.7305 39.3491 60.5318 38.9667 60.1344 38.6892C59.7445 38.4043 59.2009 38.2618 58.5035 38.2618C57.8061 38.2618 57.2625 38.4043 56.8726 38.6892C56.4827 38.9667 56.2877 39.3491 56.2877 39.8365C56.2877 40.3239 56.4827 40.71 56.8726 40.995C57.2625 41.2799 57.8061 41.4224 58.5035 41.4224ZM58.5035 38.1606C57.9186 38.1606 57.42 38.0819 57.0076 37.9244C56.6027 37.7669 56.2915 37.542 56.074 37.2495C55.8566 36.9496 55.7478 36.5934 55.7478 36.181C55.7478 35.7461 55.8603 35.3749 56.0853 35.0675C56.3177 34.7526 56.6401 34.5126 57.0526 34.3476C57.465 34.1827 57.9486 34.1002 58.5035 34.1002C59.0584 34.1002 59.542 34.1827 59.9544 34.3476C60.3744 34.5126 60.7005 34.7526 60.933 35.0675C61.1654 35.3749 61.2817 35.7461 61.2817 36.181C61.2817 36.5934 61.1729 36.9496 60.9555 37.2495C60.738 37.542 60.4193 37.7669 59.9994 37.9244C59.587 38.0819 59.0884 38.1606 58.5035 38.1606ZM58.5035 37.6207C59.1184 37.6207 59.5983 37.4932 59.9432 37.2383C60.2881 36.9833 60.4606 36.6422 60.4606 36.2147C60.4606 35.7648 60.2806 35.4162 59.9207 35.1687C59.5683 34.9138 59.0959 34.7863 58.5035 34.7863C57.9111 34.7863 57.4387 34.9138 57.0863 35.1687C56.7339 35.4162 56.5577 35.7611 56.5577 36.2035C56.5577 36.6384 56.7264 36.9833 57.0638 37.2383C57.4087 37.4932 57.8886 37.6207 58.5035 37.6207ZM65.8223 42.1085C65.2149 42.1085 64.675 41.951 64.2026 41.6361C63.7302 41.3137 63.359 40.8563 63.0891 40.2639C62.8192 39.664 62.6842 38.9442 62.6842 38.1043C62.6842 37.2645 62.8192 36.5484 63.0891 35.9561C63.359 35.3562 63.7302 34.8988 64.2026 34.5838C64.675 34.2614 65.2149 34.1002 65.8223 34.1002C66.4296 34.1002 66.9695 34.2614 67.4419 34.5838C67.9143 34.8988 68.2855 35.3562 68.5554 35.9561C68.8329 36.5484 68.9716 37.2645 68.9716 38.1043C68.9716 38.9442 68.8329 39.664 68.5554 40.2639C68.2855 40.8563 67.9143 41.3137 67.4419 41.6361C66.9695 41.951 66.4296 42.1085 65.8223 42.1085ZM65.8223 41.3662C66.2872 41.3662 66.6921 41.2424 67.037 40.995C67.3819 40.74 67.6519 40.3726 67.8468 39.8927C68.0418 39.4053 68.1393 38.8092 68.1393 38.1043C68.1393 37.3995 68.0418 36.8071 67.8468 36.3272C67.6519 35.8398 67.3819 35.4724 67.037 35.225C66.6921 34.97 66.2872 34.8425 65.8223 34.8425C65.3724 34.8425 64.9712 34.97 64.6188 35.225C64.2664 35.4724 63.9927 35.8398 63.7977 36.3272C63.6027 36.8071 63.5053 37.3995 63.5053 38.1043C63.5053 38.8092 63.6027 39.4053 63.7977 39.8927C63.9927 40.3726 64.2664 40.74 64.6188 40.995C64.9712 41.2424 65.3724 41.3662 65.8223 41.3662ZM73.2694 42.1085C72.6621 42.1085 72.1222 41.951 71.6498 41.6361C71.1774 41.3137 70.8062 40.8563 70.5363 40.2639C70.2663 39.664 70.1313 38.9442 70.1313 38.1043C70.1313 37.2645 70.2663 36.5484 70.5363 35.9561C70.8062 35.3562 71.1774 34.8988 71.6498 34.5838C72.1222 34.2614 72.6621 34.1002 73.2694 34.1002C73.8768 34.1002 74.4167 34.2614 74.8891 34.5838C75.3615 34.8988 75.7327 35.3562 76.0026 35.9561C76.28 36.5484 76.4188 37.2645 76.4188 38.1043C76.4188 38.9442 76.28 39.664 76.0026 40.2639C75.7327 40.8563 75.3615 41.3137 74.8891 41.6361C74.4167 41.951 73.8768 42.1085 73.2694 42.1085ZM73.2694 41.3662C73.7343 41.3662 74.1392 41.2424 74.4842 40.995C74.8291 40.74 75.099 40.3726 75.294 39.8927C75.489 39.4053 75.5864 38.8092 75.5864 38.1043C75.5864 37.3995 75.489 36.8071 75.294 36.3272C75.099 35.8398 74.8291 35.4724 74.4842 35.225C74.1392 34.97 73.7343 34.8425 73.2694 34.8425C72.8195 34.8425 72.4184 34.97 72.0659 35.225C71.7135 35.4724 71.4398 35.8398 71.2449 36.3272C71.0499 36.8071 70.9524 37.3995 70.9524 38.1043C70.9524 38.8092 71.0499 39.4053 71.2449 39.8927C71.4398 40.3726 71.7135 40.74 72.0659 40.995C72.4184 41.2424 72.8195 41.3662 73.2694 41.3662ZM81.2196 42.041V34.1677H81.9057L87.3383 41.0062H86.9783V34.1677H87.7994V42.041H87.1133L81.692 35.2025H82.0519V42.041H81.2196ZM92.6075 42.0973C92.0376 42.0973 91.524 41.9698 91.0666 41.7148C90.6167 41.4524 90.2605 41.0962 89.9981 40.6463C89.7356 40.1889 89.6044 39.6678 89.6044 39.0829C89.6044 38.4905 89.7356 37.9694 89.9981 37.5195C90.2605 37.0696 90.6167 36.7171 91.0666 36.4622C91.5165 36.2072 92.0301 36.0798 92.6075 36.0798C93.1924 36.0798 93.7098 36.2072 94.1597 36.4622C94.6171 36.7171 94.9733 37.0696 95.2282 37.5195C95.4907 37.9694 95.6219 38.4905 95.6219 39.0829C95.6219 39.6678 95.4907 40.1889 95.2282 40.6463C94.9733 41.0962 94.6171 41.4524 94.1597 41.7148C93.7023 41.9698 93.1849 42.0973 92.6075 42.0973ZM92.6075 41.3887C93.0349 41.3887 93.4136 41.2949 93.7435 41.1075C94.0735 40.9125 94.3322 40.6426 94.5196 40.2976C94.7146 39.9452 94.8121 39.5403 94.8121 39.0829C94.8121 38.618 94.7146 38.2131 94.5196 37.8681C94.3322 37.5232 94.0735 37.257 93.7435 37.0696C93.4136 36.8746 93.0387 36.7771 92.6188 36.7771C92.1989 36.7771 91.8239 36.8746 91.494 37.0696C91.1641 37.257 90.9016 37.5232 90.7067 37.8681C90.5117 38.2131 90.4142 38.618 90.4142 39.0829C90.4142 39.5403 90.5117 39.9452 90.7067 40.2976C90.9016 40.6426 91.1641 40.9125 91.494 41.1075C91.8239 41.2949 92.1951 41.3887 92.6075 41.3887ZM98.8382 42.0973C98.3508 42.0973 97.8896 42.0298 97.4547 41.8948C97.0198 41.7523 96.6786 41.5761 96.4312 41.3662L96.7911 40.7363C97.0311 40.9163 97.3385 41.0737 97.7134 41.2087C98.0883 41.3362 98.482 41.3999 98.8944 41.3999C99.4568 41.3999 99.8617 41.3137 100.109 41.1412C100.357 40.9612 100.48 40.725 100.48 40.4326C100.48 40.2152 100.409 40.0464 100.267 39.9265C100.132 39.799 99.9517 39.7053 99.7267 39.6453C99.5018 39.5778 99.2506 39.5215 98.9731 39.4766C98.6957 39.4316 98.4183 39.3791 98.1408 39.3191C97.8709 39.2591 97.6234 39.1729 97.3985 39.0604C97.1735 38.9404 96.9898 38.7792 96.8473 38.5767C96.7124 38.3743 96.6449 38.1043 96.6449 37.7669C96.6449 37.4445 96.7349 37.1558 96.9148 36.9009C97.0948 36.6459 97.3572 36.4472 97.7022 36.3047C98.0546 36.1548 98.482 36.0798 98.9844 36.0798C99.3668 36.0798 99.7492 36.1323 100.132 36.2372C100.514 36.3347 100.829 36.4659 101.076 36.6309L100.728 37.272C100.465 37.0921 100.184 36.9646 99.8842 36.8896C99.5843 36.8071 99.2843 36.7659 98.9844 36.7659C98.452 36.7659 98.0583 36.8596 97.8034 37.0471C97.5559 37.227 97.4322 37.4595 97.4322 37.7444C97.4322 37.9694 97.4997 38.1456 97.6347 38.2731C97.7771 38.4005 97.9609 38.5018 98.1858 38.5767C98.4183 38.6442 98.6695 38.7005 98.9394 38.7455C99.2168 38.7905 99.4905 38.8467 99.7605 38.9142C100.038 38.9742 100.289 39.0604 100.514 39.1729C100.747 39.2778 100.93 39.4316 101.065 39.634C101.208 39.829 101.279 40.0877 101.279 40.4101C101.279 40.755 101.181 41.055 100.986 41.3099C100.799 41.5574 100.522 41.7523 100.154 41.8948C99.7942 42.0298 99.3556 42.0973 98.8382 42.0973ZM101.35 43.1658L105.061 32.5705H105.792L102.081 43.1658H101.35ZM108.195 42.0973C107.61 42.0973 107.085 41.9698 106.62 41.7148C106.163 41.4524 105.803 41.0962 105.54 40.6463C105.278 40.1889 105.147 39.6678 105.147 39.0829C105.147 38.4905 105.278 37.9694 105.54 37.5195C105.803 37.0696 106.163 36.7171 106.62 36.4622C107.085 36.2072 107.61 36.0798 108.195 36.0798C108.697 36.0798 109.151 36.1773 109.556 36.3722C109.961 36.5672 110.279 36.8596 110.512 37.2495L109.916 37.6544C109.713 37.3545 109.462 37.1333 109.162 36.9908C108.862 36.8484 108.536 36.7771 108.184 36.7771C107.764 36.7771 107.385 36.8746 107.048 37.0696C106.71 37.257 106.444 37.5232 106.249 37.8681C106.054 38.2131 105.957 38.618 105.957 39.0829C105.957 39.5478 106.054 39.9527 106.249 40.2976C106.444 40.6426 106.71 40.9125 107.048 41.1075C107.385 41.2949 107.764 41.3887 108.184 41.3887C108.536 41.3887 108.862 41.3174 109.162 41.1749C109.462 41.0325 109.713 40.815 109.916 40.5226L110.512 40.9275C110.279 41.3099 109.961 41.6024 109.556 41.8048C109.151 41.9998 108.697 42.0973 108.195 42.0973ZM114.014 42.0973C113.459 42.0973 113.031 41.9473 112.731 41.6473C112.432 41.3474 112.282 40.9238 112.282 40.3764V34.8313H113.08V40.3314C113.08 40.6763 113.166 40.9425 113.339 41.13C113.519 41.3174 113.774 41.4111 114.104 41.4111C114.456 41.4111 114.749 41.3099 114.981 41.1075L115.262 41.6811C115.105 41.8236 114.913 41.9285 114.689 41.996C114.471 42.0635 114.246 42.0973 114.014 42.0973ZM111.224 36.7996V36.136H114.88V36.7996H111.224ZM119.73 36.0798C120.21 36.0798 120.63 36.1735 120.99 36.361C121.357 36.5409 121.642 36.8184 121.845 37.1933C122.055 37.5682 122.16 38.0406 122.16 38.6105V42.041H121.361V38.6892C121.361 38.0669 121.204 37.5982 120.889 37.2833C120.581 36.9608 120.146 36.7996 119.584 36.7996C119.164 36.7996 118.797 36.8859 118.482 37.0583C118.174 37.2233 117.934 37.467 117.762 37.7894C117.597 38.1043 117.514 38.4868 117.514 38.9367V42.041H116.716V36.136H117.481V37.7557L117.357 37.452C117.544 37.0246 117.844 36.6909 118.257 36.4509C118.669 36.2035 119.16 36.0798 119.73 36.0798Z" fill="black"/>
<defs>
<filter id="filter0_d_2040_1174" x="0.000195503" y="0.000195503" width="48.6441" height="48.7096" filterUnits="userSpaceOnUse" color-interpolation-filters="sRGB">
<feFlood flood-opacity="0" result="BackgroundImageFix"/>
<feColorMatrix in="SourceAlpha" type="matrix" values="0 0 0 0 0 0 0 0 0 0 0 0 0 0 0 0 0 0 127 0" result="hardAlpha"/>
<feOffset dy="-3"/>
<feGaussianBlur stdDeviation="2.1"/>
<feComposite in2="hardAlpha" operator="out"/>
<feColorMatrix type="matrix" values="0 0 0 0 0 0 0 0 0 0 0 0 0 0 0 0 0 0 0.25 0"/>
<feBlend mode="normal" in2="BackgroundImageFix" result="effect1_dropShadow_2040_1174"/>
<feBlend mode="normal" in="SourceGraphic" in2="effect1_dropShadow_2040_1174" result="shape"/>
</filter>
</defs>
</svg>
