<svg width="165" height="50" viewBox="0 0 165 50" fill="none" xmlns="http://www.w3.org/2000/svg">
<g filter="url(#filter0_d_2040_1174)">
<rect x="24.1406" y="4.7168" width="33" height="31" rx="6" transform="rotate(46.3303 24.1406 4.7168)" fill="white"/>
</g>
<path d="M20.1982 21.1045H28.2373C28.4651 21.1045 28.6809 21.2079 28.8232 21.3857L30.3037 23.2363C30.4101 23.3693 30.4677 23.5348 30.4678 23.7051V33.3545C30.4678 33.7687 30.132 34.1045 29.7178 34.1045H18.7178C18.3036 34.1045 17.9678 33.7687 17.9678 33.3545V23.7051C17.9678 23.5348 18.0255 23.3693 18.1318 23.2363L19.6123 21.3857C19.7546 21.2079 19.9705 21.1045 20.1982 21.1045Z" stroke="black" stroke-width="0.5"/>
<path d="M18.2178 23.3545H30.2178" stroke="black" stroke-width="0.5"/>
<path d="M26.4678 23.6045V29.834L24.374 28.1592L24.2178 28.0342L24.0615 28.1592L21.9678 29.834V23.6045H26.4678Z" stroke="black" stroke-width="0.5"/>
<path d="M55.966 22.667V13.1515H60.0962C60.798 13.1515 61.3919 13.2685 61.8778 13.5024C62.3637 13.7364 62.7326 14.0738 62.9846 14.5147C63.2365 14.9556 63.3625 15.491 63.3625 16.1209C63.3625 16.7417 63.2365 17.2771 62.9846 17.727C62.7326 18.1679 62.3637 18.5099 61.8778 18.7528C61.3919 18.9868 60.798 19.1037 60.0962 19.1037H57.6937V22.667H55.966ZM57.6937 17.7405H59.8262C60.4381 17.7405 60.9015 17.6056 61.2164 17.3356C61.5314 17.0567 61.6888 16.6518 61.6888 16.1209C61.6888 15.59 61.5314 15.1896 61.2164 14.9196C60.9015 14.6497 60.4381 14.5147 59.8262 14.5147H57.6937V17.7405ZM67.3297 22.802C66.6368 22.802 66.034 22.6625 65.5211 22.3836C65.0082 22.0956 64.6123 21.6907 64.3333 21.1688C64.0544 20.6469 63.9149 20.035 63.9149 19.3332C63.9149 18.6313 64.0544 18.0285 64.3333 17.5246C64.6123 17.0117 65.0082 16.6203 65.5211 16.3503C66.034 16.0714 66.6368 15.9319 67.3297 15.9319C67.7526 15.9319 68.171 15.9994 68.5849 16.1344C68.9988 16.2693 69.3408 16.4583 69.6107 16.7013L69.1113 17.8755C68.8774 17.6685 68.6119 17.5111 68.315 17.4031C68.027 17.2951 67.7481 17.2411 67.4782 17.2411C66.8933 17.2411 66.4389 17.4256 66.1149 17.7945C65.8 18.1544 65.6425 18.6718 65.6425 19.3467C65.6425 20.0126 65.8 20.5389 66.1149 20.9259C66.4389 21.3038 66.8933 21.4927 67.4782 21.4927C67.7391 21.4927 68.018 21.4388 68.315 21.3308C68.6119 21.2228 68.8774 21.0608 69.1113 20.8449L69.6107 22.0326C69.3408 22.2666 68.9943 22.4555 68.5714 22.5995C68.1575 22.7345 67.7436 22.802 67.3297 22.802ZM73.0616 22.802C72.6927 22.802 72.3328 22.7705 71.9819 22.7075C71.6399 22.6445 71.325 22.559 71.0371 22.451C70.7491 22.3341 70.4972 22.1901 70.2812 22.0191L70.7131 20.9124C70.9381 21.0563 71.181 21.1823 71.442 21.2903C71.7029 21.3983 71.9729 21.4792 72.2518 21.5332C72.5308 21.5872 72.8052 21.6142 73.0751 21.6142C73.5071 21.6142 73.8265 21.5422 74.0334 21.3983C74.2494 21.2453 74.3574 21.0473 74.3574 20.8044C74.3574 20.5974 74.2854 20.44 74.1414 20.332C74.0064 20.215 73.7995 20.1295 73.5205 20.0755L72.1708 19.8191C71.613 19.7111 71.1855 19.5087 70.8886 19.2117C70.6007 18.9058 70.4567 18.5144 70.4567 18.0375C70.4567 17.6056 70.5737 17.2321 70.8076 16.9172C71.0506 16.6023 71.3835 16.3593 71.8064 16.1884C72.2293 16.0174 72.7152 15.9319 73.2641 15.9319C73.579 15.9319 73.885 15.9634 74.1819 16.0264C74.4788 16.0804 74.7578 16.1659 75.0187 16.2828C75.2887 16.3908 75.5226 16.5348 75.7206 16.7148L75.2617 17.8215C75.0907 17.6775 74.8928 17.5561 74.6678 17.4571C74.4429 17.3491 74.2089 17.2681 73.966 17.2141C73.732 17.1512 73.5026 17.1197 73.2776 17.1197C72.8367 17.1197 72.5083 17.1961 72.2923 17.3491C72.0854 17.5021 71.9819 17.7045 71.9819 17.9565C71.9819 18.1454 72.0449 18.3029 72.1708 18.4289C72.2968 18.5549 72.4903 18.6403 72.7512 18.6853L74.1009 18.9418C74.6858 19.0498 75.1267 19.2477 75.4236 19.5357C75.7296 19.8236 75.8825 20.2105 75.8825 20.6964C75.8825 21.1373 75.7656 21.5152 75.5316 21.8302C75.2977 22.1451 74.9692 22.3881 74.5463 22.559C74.1234 22.721 73.6285 22.802 73.0616 22.802ZM81.0359 22.667V13.1515H85.1661C85.8679 13.1515 86.4618 13.2685 86.9477 13.5024C87.4336 13.7364 87.8025 14.0738 88.0544 14.5147C88.3064 14.9556 88.4324 15.491 88.4324 16.1209C88.4324 16.7417 88.3064 17.2771 88.0544 17.727C87.8025 18.1679 87.4336 18.5099 86.9477 18.7528C86.4618 18.9868 85.8679 19.1037 85.1661 19.1037H82.7636V22.667H81.0359ZM82.7636 17.7405H84.8961C85.508 17.7405 85.9714 17.6056 86.2863 17.3356C86.6012 17.0567 86.7587 16.6518 86.7587 16.1209C86.7587 15.59 86.6012 15.1896 86.2863 14.9196C85.9714 14.6497 85.508 14.5147 84.8961 14.5147H82.7636V17.7405ZM92.602 22.802C91.8552 22.802 91.2118 22.6625 90.6719 22.3836C90.1321 22.1046 89.7136 21.7087 89.4167 21.1958C89.1288 20.6829 88.9848 20.0755 88.9848 19.3737C88.9848 18.6898 89.1243 18.0915 89.4032 17.5786C89.6911 17.0657 90.0826 16.6653 90.5775 16.3773C91.0814 16.0804 91.6527 15.9319 92.2916 15.9319C92.9215 15.9319 93.4613 16.0669 93.9113 16.3368C94.3612 16.6068 94.7076 16.9892 94.9505 17.4841C95.2025 17.979 95.3285 18.5684 95.3285 19.2522V19.7516H90.348V18.7798H94.1407L93.9248 18.9823C93.9248 18.3704 93.7898 17.9025 93.5198 17.5786C93.2499 17.2456 92.863 17.0792 92.3591 17.0792C91.9812 17.0792 91.6572 17.1692 91.3873 17.3491C91.1263 17.5201 90.9239 17.7675 90.7799 18.0915C90.6449 18.4064 90.5775 18.7843 90.5775 19.2252V19.3197C90.5775 19.8146 90.6539 20.224 90.8069 20.5479C90.9599 20.8719 91.1893 21.1148 91.4953 21.2768C91.8012 21.4388 92.1791 21.5197 92.629 21.5197C92.9979 21.5197 93.3669 21.4657 93.7358 21.3578C94.1047 21.2408 94.4421 21.0608 94.7481 20.8179L95.2205 21.9516C94.9055 22.2126 94.5096 22.4195 94.0327 22.5725C93.5558 22.7255 93.0789 22.802 92.602 22.802ZM96.6646 22.667V16.0669H98.3112V17.6596H98.1762C98.3022 17.1197 98.5497 16.7103 98.9186 16.4313C99.2875 16.1434 99.7779 15.9769 100.39 15.9319L100.903 15.8914L101.011 17.3221L100.039 17.4166C99.49 17.4706 99.0761 17.6416 98.7971 17.9295C98.5182 18.2084 98.3787 18.6044 98.3787 19.1172V22.667H96.6646ZM105.75 22.667V13.1515H109.907C110.906 13.1515 111.68 13.372 112.229 13.8129C112.777 14.2448 113.052 14.8476 113.052 15.6215C113.052 16.1974 112.885 16.6833 112.552 17.0792C112.22 17.4751 111.765 17.7405 111.189 17.8755V17.673C111.63 17.736 112.008 17.871 112.323 18.078C112.638 18.2849 112.876 18.5504 113.038 18.8743C113.209 19.1982 113.295 19.5761 113.295 20.0081C113.295 20.5659 113.164 21.0473 112.903 21.4522C112.651 21.8482 112.283 22.1496 111.797 22.3566C111.311 22.5635 110.73 22.667 110.056 22.667H105.75ZM107.41 21.3578H109.84C110.083 21.3578 110.298 21.3398 110.487 21.3038C110.685 21.2678 110.852 21.2138 110.987 21.1418C111.131 21.0608 111.248 20.9619 111.338 20.8449C111.437 20.7279 111.509 20.5929 111.554 20.44C111.599 20.287 111.621 20.116 111.621 19.9271C111.621 19.7291 111.599 19.5537 111.554 19.4007C111.509 19.2477 111.437 19.1172 111.338 19.0093C111.248 18.8923 111.131 18.7978 110.987 18.7258C110.852 18.6448 110.685 18.5864 110.487 18.5504C110.298 18.5144 110.083 18.4964 109.84 18.4964H107.41V21.3578ZM107.41 17.1872H109.61C110.204 17.1872 110.645 17.0747 110.933 16.8497C111.23 16.6158 111.378 16.2738 111.378 15.8239C111.378 15.374 111.23 15.0366 110.933 14.8117C110.645 14.5777 110.204 14.4607 109.61 14.4607H107.41V17.1872ZM117.89 22.802C117.206 22.802 116.613 22.6625 116.109 22.3836C115.605 22.1046 115.213 21.7087 114.934 21.1958C114.655 20.6739 114.516 20.062 114.516 19.3602C114.516 18.6583 114.655 18.051 114.934 17.5381C115.213 17.0252 115.605 16.6293 116.109 16.3503C116.613 16.0714 117.206 15.9319 117.89 15.9319C118.574 15.9319 119.168 16.0714 119.672 16.3503C120.176 16.6293 120.567 17.0252 120.846 17.5381C121.125 18.051 121.265 18.6583 121.265 19.3602C121.265 20.062 121.125 20.6739 120.846 21.1958C120.567 21.7087 120.176 22.1046 119.672 22.3836C119.168 22.6625 118.574 22.802 117.89 22.802ZM117.89 21.5197C118.394 21.5197 118.799 21.3398 119.105 20.9798C119.411 20.6109 119.564 20.071 119.564 19.3602C119.564 18.6403 119.411 18.105 119.105 17.754C118.799 17.3941 118.394 17.2141 117.89 17.2141C117.386 17.2141 116.981 17.3941 116.676 17.754C116.37 18.105 116.217 18.6403 116.217 19.3602C116.217 20.071 116.37 20.6109 116.676 20.9798C116.981 21.3398 117.386 21.5197 117.89 21.5197ZM121.568 22.667L124.659 18.8608V19.6571L121.743 16.0669H123.714L125.604 18.4829H125.01L126.899 16.0669H128.87L125.955 19.6436V18.8878L129.045 22.667H127.061L125.01 20.0755H125.577L123.539 22.667H121.568Z" fill="black"/>
<path d="M56.8838 42.041V34.5051L57.2438 34.8875H55.028V34.1677H57.6937V42.041H56.8838ZM60.9592 42.041L64.356 34.5276L64.6034 34.8875H59.7332L60.1493 34.4939V36.361H59.3508V34.1677H65.132V34.7413L61.8365 42.041H60.9592ZM69.1175 42.1085C68.5101 42.1085 67.9702 41.951 67.4978 41.6361C67.0254 41.3137 66.6542 40.8563 66.3843 40.2639C66.1144 39.664 65.9794 38.9442 65.9794 38.1043C65.9794 37.2645 66.1144 36.5484 66.3843 35.9561C66.6542 35.3562 67.0254 34.8988 67.4978 34.5838C67.9702 34.2614 68.5101 34.1002 69.1175 34.1002C69.7248 34.1002 70.2647 34.2614 70.7371 34.5838C71.2095 34.8988 71.5807 35.3562 71.8506 35.9561C72.1281 36.5484 72.2668 37.2645 72.2668 38.1043C72.2668 38.9442 72.1281 39.664 71.8506 40.2639C71.5807 40.8563 71.2095 41.3137 70.7371 41.6361C70.2647 41.951 69.7248 42.1085 69.1175 42.1085ZM69.1175 41.3662C69.5824 41.3662 69.9873 41.2424 70.3322 40.995C70.6771 40.74 70.9471 40.3726 71.142 39.8927C71.337 39.4053 71.4345 38.8092 71.4345 38.1043C71.4345 37.3995 71.337 36.8071 71.142 36.3272C70.9471 35.8398 70.6771 35.4724 70.3322 35.225C69.9873 34.97 69.5824 34.8425 69.1175 34.8425C68.6676 34.8425 68.2664 34.97 67.914 35.225C67.5616 35.4724 67.2879 35.8398 67.0929 36.3272C66.8979 36.8071 66.8005 37.3995 66.8005 38.1043C66.8005 38.8092 66.8979 39.4053 67.0929 39.8927C67.2879 40.3726 67.5616 40.74 67.914 40.995C68.2664 41.2424 68.6676 41.3662 69.1175 41.3662ZM77.0676 42.041V34.1677H77.7537L83.1863 41.0062H82.8264V34.1677H83.6475V42.041H82.9614L77.54 35.2025H77.8999V42.041H77.0676ZM88.4556 42.0973C87.8857 42.0973 87.372 41.9698 86.9146 41.7148C86.4647 41.4524 86.1086 41.0962 85.8461 40.6463C85.5837 40.1889 85.4524 39.6678 85.4524 39.0829C85.4524 38.4905 85.5837 37.9694 85.8461 37.5195C86.1086 37.0696 86.4647 36.7171 86.9146 36.4622C87.3645 36.2072 87.8782 36.0798 88.4556 36.0798C89.0404 36.0798 89.5578 36.2072 90.0077 36.4622C90.4651 36.7171 90.8213 37.0696 91.0763 37.5195C91.3387 37.9694 91.4699 38.4905 91.4699 39.0829C91.4699 39.6678 91.3387 40.1889 91.0763 40.6463C90.8213 41.0962 90.4651 41.4524 90.0077 41.7148C89.5503 41.9698 89.0329 42.0973 88.4556 42.0973ZM88.4556 41.3887C88.883 41.3887 89.2616 41.2949 89.5916 41.1075C89.9215 40.9125 90.1802 40.6426 90.3677 40.2976C90.5626 39.9452 90.6601 39.5403 90.6601 39.0829C90.6601 38.618 90.5626 38.2131 90.3677 37.8681C90.1802 37.5232 89.9215 37.257 89.5916 37.0696C89.2616 36.8746 88.8867 36.7771 88.4668 36.7771C88.0469 36.7771 87.672 36.8746 87.342 37.0696C87.0121 37.257 86.7497 37.5232 86.5547 37.8681C86.3598 38.2131 86.2623 38.618 86.2623 39.0829C86.2623 39.5403 86.3598 39.9452 86.5547 40.2976C86.7497 40.6426 87.0121 40.9125 87.342 41.1075C87.672 41.2949 88.0432 41.3887 88.4556 41.3887ZM94.6862 42.0973C94.1988 42.0973 93.7377 42.0298 93.3028 41.8948C92.8679 41.7523 92.5267 41.5761 92.2792 41.3662L92.6392 40.7363C92.8791 40.9163 93.1865 41.0737 93.5615 41.2087C93.9364 41.3362 94.33 41.3999 94.7425 41.3999C95.3048 41.3999 95.7098 41.3137 95.9572 41.1412C96.2046 40.9612 96.3284 40.725 96.3284 40.4326C96.3284 40.2152 96.2571 40.0464 96.1147 39.9265C95.9797 39.799 95.7997 39.7053 95.5748 39.6453C95.3498 39.5778 95.0986 39.5215 94.8212 39.4766C94.5437 39.4316 94.2663 39.3791 93.9889 39.3191C93.7189 39.2591 93.4715 39.1729 93.2465 39.0604C93.0216 38.9404 92.8379 38.7792 92.6954 38.5767C92.5604 38.3743 92.4929 38.1043 92.4929 37.7669C92.4929 37.4445 92.5829 37.1558 92.7629 36.9009C92.9428 36.6459 93.2053 36.4472 93.5502 36.3047C93.9026 36.1548 94.33 36.0798 94.8324 36.0798C95.2149 36.0798 95.5973 36.1323 95.9797 36.2372C96.3621 36.3347 96.677 36.4659 96.9245 36.6309L96.5758 37.272C96.3134 37.0921 96.0322 36.9646 95.7322 36.8896C95.4323 36.8071 95.1324 36.7659 94.8324 36.7659C94.3001 36.7659 93.9064 36.8596 93.6514 37.0471C93.404 37.227 93.2803 37.4595 93.2803 37.7444C93.2803 37.9694 93.3478 38.1456 93.4827 38.2731C93.6252 38.4005 93.8089 38.5018 94.0339 38.5767C94.2663 38.6442 94.5175 38.7005 94.7874 38.7455C95.0649 38.7905 95.3386 38.8467 95.6085 38.9142C95.886 38.9742 96.1372 39.0604 96.3621 39.1729C96.5946 39.2778 96.7783 39.4316 96.9132 39.634C97.0557 39.829 97.127 40.0877 97.127 40.4101C97.127 40.755 97.0295 41.055 96.8345 41.3099C96.6471 41.5574 96.3696 41.7523 96.0022 41.8948C95.6423 42.0298 95.2036 42.0973 94.6862 42.0973ZM97.1976 43.1658L100.909 32.5705H101.64L97.9287 43.1658H97.1976ZM104.043 42.0973C103.458 42.0973 102.933 41.9698 102.468 41.7148C102.011 41.4524 101.651 41.0962 101.388 40.6463C101.126 40.1889 100.995 39.6678 100.995 39.0829C100.995 38.4905 101.126 37.9694 101.388 37.5195C101.651 37.0696 102.011 36.7171 102.468 36.4622C102.933 36.2072 103.458 36.0798 104.043 36.0798C104.545 36.0798 104.999 36.1773 105.404 36.3722C105.809 36.5672 106.127 36.8596 106.36 37.2495L105.764 37.6544C105.561 37.3545 105.31 37.1333 105.01 36.9908C104.71 36.8484 104.384 36.7771 104.032 36.7771C103.612 36.7771 103.233 36.8746 102.896 37.0696C102.558 37.257 102.292 37.5232 102.097 37.8681C101.902 38.2131 101.805 38.618 101.805 39.0829C101.805 39.5478 101.902 39.9527 102.097 40.2976C102.292 40.6426 102.558 40.9125 102.896 41.1075C103.233 41.2949 103.612 41.3887 104.032 41.3887C104.384 41.3887 104.71 41.3174 105.01 41.1749C105.31 41.0325 105.561 40.815 105.764 40.5226L106.36 40.9275C106.127 41.3099 105.809 41.6024 105.404 41.8048C104.999 41.9998 104.545 42.0973 104.043 42.0973ZM109.862 42.0973C109.307 42.0973 108.879 41.9473 108.579 41.6473C108.28 41.3474 108.13 40.9238 108.13 40.3764V34.8313H108.928V40.3314C108.928 40.6763 109.014 40.9425 109.187 41.13C109.367 41.3174 109.622 41.4111 109.952 41.4111C110.304 41.4111 110.597 41.3099 110.829 41.1075L111.11 41.6811C110.953 41.8236 110.762 41.9285 110.537 41.996C110.319 42.0635 110.094 42.0973 109.862 42.0973ZM107.072 36.7996V36.136H110.728V36.7996H107.072ZM115.578 36.0798C116.058 36.0798 116.478 36.1735 116.838 36.361C117.205 36.5409 117.49 36.8184 117.693 37.1933C117.903 37.5682 118.008 38.0406 118.008 38.6105V42.041H117.209V38.6892C117.209 38.0669 117.052 37.5982 116.737 37.2833C116.429 36.9608 115.994 36.7996 115.432 36.7996C115.012 36.7996 114.645 36.8859 114.33 37.0583C114.022 37.2233 113.782 37.467 113.61 37.7894C113.445 38.1043 113.363 38.4868 113.363 38.9367V42.041H112.564V36.136H113.329V37.7557L113.205 37.452C113.393 37.0246 113.692 36.6909 114.105 36.4509C114.517 36.2035 115.008 36.0798 115.578 36.0798Z" fill="black"/>
<defs>
<filter id="filter0_d_2040_1174" x="0.000195503" y="0.000195503" width="48.6441" height="48.7096" filterUnits="userSpaceOnUse" color-interpolation-filters="sRGB">
<feFlood flood-opacity="0" result="BackgroundImageFix"/>
<feColorMatrix in="SourceAlpha" type="matrix" values="0 0 0 0 0 0 0 0 0 0 0 0 0 0 0 0 0 0 127 0" result="hardAlpha"/>
<feOffset dy="-3"/>
<feGaussianBlur stdDeviation="2.1"/>
<feComposite in2="hardAlpha" operator="out"/>
<feColorMatrix type="matrix" values="0 0 0 0 0 0 0 0 0 0 0 0 0 0 0 0 0 0 0.25 0"/>
<feBlend mode="normal" in2="BackgroundImageFix" result="effect1_dropShadow_2040_1174"/>
<feBlend mode="normal" in="SourceGraphic" in2="effect1_dropShadow_2040_1174" result="shape"/>
</filter>
</defs>
</svg>
