<svg width="165" height="50" viewBox="0 0 165 50" fill="none" xmlns="http://www.w3.org/2000/svg">
<g filter="url(#filter0_d_1844_1495)">
<rect x="24.1387" y="4.71704" width="33" height="31" rx="6" transform="rotate(46.3303 24.1387 4.71704)" fill="white"/>
</g>
<path d="M17.4195 22.964V34.1356C17.4195 34.3251 17.4804 34.4807 17.6022 34.6025C17.724 34.7243 17.88 34.7852 18.0701 34.7852H31.557C31.7464 34.7852 31.9021 34.7243 32.0239 34.6025C32.1457 34.4807 32.2066 34.3251 32.2066 34.1356V22.964H27.9817V30.1336L24.8131 28.5493L21.6444 30.1336V22.964H17.4195ZM18.0701 35.8414C17.5969 35.8414 17.1942 35.6753 16.8618 35.3429C16.5295 35.0105 16.3633 34.6081 16.3633 34.1356V22.6239C16.3633 22.4183 16.396 22.2246 16.4615 22.043C16.527 21.8613 16.6256 21.6941 16.7573 21.5413L18.4028 19.5661C18.5556 19.3598 18.7468 19.2042 18.9764 19.0993C19.2059 18.9944 19.452 18.9419 19.7147 18.9419H29.8713C30.1332 18.9419 30.3825 18.9944 30.6191 19.0993C30.8557 19.2042 31.0504 19.3595 31.2032 19.5651L32.8689 21.5824C33.0005 21.7352 33.0991 21.906 33.1646 22.0947C33.2301 22.2827 33.2628 22.4799 33.2628 22.6862V34.1356C33.2628 34.6074 33.0967 35.0098 32.7643 35.3429C32.4319 35.6753 32.0295 35.8414 31.557 35.8414H18.0701ZM17.8209 21.9078H31.7841L30.3793 20.2199C30.311 20.1523 30.2329 20.0985 30.1449 20.0583C30.0568 20.0182 29.9653 19.9981 29.8702 19.9981H19.7347C19.6404 19.9981 19.5488 20.0185 19.4601 20.0594C19.3714 20.1002 19.2939 20.1544 19.2278 20.222L17.8209 21.9078ZM22.6996 22.964V28.4067L24.812 27.3505L26.9244 28.4067V22.965L22.6996 22.964Z" fill="black"/>
<path d="M55.9631 22.6675V13.152H60.0932C60.7951 13.152 61.389 13.269 61.8749 13.5029C62.3608 13.7369 62.7297 14.0743 62.9816 14.5152C63.2336 14.9561 63.3595 15.4915 63.3595 16.1214C63.3595 16.7422 63.2336 17.2776 62.9816 17.7275C62.7297 18.1684 62.3608 18.5104 61.8749 18.7533C61.389 18.9873 60.7951 19.1042 60.0932 19.1042H57.6907V22.6675H55.9631ZM57.6907 17.741H59.8233C60.4352 17.741 60.8986 17.6061 61.2135 17.3361C61.5284 17.0572 61.6859 16.6523 61.6859 16.1214C61.6859 15.5905 61.5284 15.1901 61.2135 14.9201C60.8986 14.6502 60.4352 14.5152 59.8233 14.5152H57.6907V17.741ZM67.3268 22.8025C66.6339 22.8025 66.031 22.663 65.5181 22.384C65.0052 22.0961 64.6093 21.6912 64.3304 21.1693C64.0514 20.6474 63.912 20.0355 63.912 19.3337C63.912 18.6318 64.0514 18.029 64.3304 17.5251C64.6093 17.0122 65.0052 16.6208 65.5181 16.3508C66.031 16.0719 66.6339 15.9324 67.3268 15.9324C67.7497 15.9324 68.1681 15.9999 68.582 16.1349C68.9959 16.2698 69.3378 16.4588 69.6078 16.7017L69.1084 17.876C68.8744 17.669 68.609 17.5116 68.312 17.4036C68.0241 17.2956 67.7452 17.2416 67.4752 17.2416C66.8903 17.2416 66.4359 17.4261 66.112 17.795C65.7971 18.1549 65.6396 18.6723 65.6396 19.3472C65.6396 20.013 65.7971 20.5394 66.112 20.9263C66.4359 21.3043 66.8903 21.4932 67.4752 21.4932C67.7362 21.4932 68.0151 21.4392 68.312 21.3313C68.609 21.2233 68.8744 21.0613 69.1084 20.8454L69.6078 22.0331C69.3378 22.2671 68.9914 22.456 68.5685 22.6C68.1546 22.735 67.7407 22.8025 67.3268 22.8025ZM73.0587 22.8025C72.6898 22.8025 72.3299 22.771 71.9789 22.708C71.637 22.645 71.3221 22.5595 71.0341 22.4515C70.7462 22.3346 70.4943 22.1906 70.2783 22.0196L70.7102 20.9129C70.9352 21.0568 71.1781 21.1828 71.4391 21.2908C71.7 21.3987 71.9699 21.4797 72.2489 21.5337C72.5278 21.5877 72.8023 21.6147 73.0722 21.6147C73.5041 21.6147 73.8236 21.5427 74.0305 21.3987C74.2465 21.2458 74.3544 21.0478 74.3544 20.8049C74.3544 20.5979 74.2825 20.4405 74.1385 20.3325C74.0035 20.2155 73.7966 20.13 73.5176 20.076L72.1679 19.8196C71.61 19.7116 71.1826 19.5091 70.8857 19.2122C70.5977 18.9063 70.4538 18.5149 70.4538 18.038C70.4538 17.6061 70.5707 17.2326 70.8047 16.9177C71.0476 16.6028 71.3806 16.3598 71.8035 16.1889C72.2264 16.0179 72.7123 15.9324 73.2612 15.9324C73.5761 15.9324 73.882 15.9639 74.179 16.0269C74.4759 16.0809 74.7549 16.1664 75.0158 16.2833C75.2857 16.3913 75.5197 16.5353 75.7177 16.7152L75.2588 17.822C75.0878 17.678 74.8898 17.5566 74.6649 17.4576C74.4399 17.3496 74.206 17.2686 73.963 17.2146C73.7291 17.1516 73.4996 17.1202 73.2747 17.1202C72.8338 17.1202 72.5053 17.1966 72.2894 17.3496C72.0824 17.5026 71.9789 17.705 71.9789 17.957C71.9789 18.1459 72.0419 18.3034 72.1679 18.4294C72.2939 18.5554 72.4873 18.6408 72.7483 18.6858L74.098 18.9423C74.6829 19.0502 75.1238 19.2482 75.4207 19.5361C75.7267 19.8241 75.8796 20.211 75.8796 20.6969C75.8796 21.1378 75.7626 21.5157 75.5287 21.8307C75.2947 22.1456 74.9663 22.3885 74.5434 22.5595C74.1205 22.7215 73.6256 22.8025 73.0587 22.8025ZM81.033 22.6675V13.152H85.1631C85.865 13.152 86.4588 13.269 86.9447 13.5029C87.4306 13.7369 87.7996 14.0743 88.0515 14.5152C88.3035 14.9561 88.4294 15.4915 88.4294 16.1214C88.4294 16.7422 88.3035 17.2776 88.0515 17.7275C87.7996 18.1684 87.4306 18.5104 86.9447 18.7533C86.4588 18.9873 85.865 19.1042 85.1631 19.1042H82.7606V22.6675H81.033ZM82.7606 17.741H84.8932C85.5051 17.741 85.9685 17.6061 86.2834 17.3361C86.5983 17.0572 86.7558 16.6523 86.7558 16.1214C86.7558 15.5905 86.5983 15.1901 86.2834 14.9201C85.9685 14.6502 85.5051 14.5152 84.8932 14.5152H82.7606V17.741ZM92.5991 22.8025C91.8523 22.8025 91.2089 22.663 90.669 22.384C90.1291 22.1051 89.7107 21.7092 89.4138 21.1963C89.1258 20.6834 88.9819 20.076 88.9819 19.3742C88.9819 18.6903 89.1213 18.0919 89.4003 17.5791C89.6882 17.0662 90.0796 16.6658 90.5745 16.3778C91.0784 16.0809 91.6498 15.9324 92.2887 15.9324C92.9185 15.9324 93.4584 16.0674 93.9083 16.3373C94.3582 16.6073 94.7047 16.9897 94.9476 17.4846C95.1996 17.9795 95.3255 18.5688 95.3255 19.2527V19.7521H90.3451V18.7803H94.1378L93.9218 18.9828C93.9218 18.3709 93.7868 17.903 93.5169 17.5791C93.247 17.2461 92.86 17.0797 92.3562 17.0797C91.9782 17.0797 91.6543 17.1696 91.3844 17.3496C91.1234 17.5206 90.921 17.768 90.777 18.0919C90.642 18.4069 90.5745 18.7848 90.5745 19.2257V19.3202C90.5745 19.8151 90.651 20.2245 90.804 20.5484C90.9569 20.8724 91.1864 21.1153 91.4923 21.2773C91.7983 21.4392 92.1762 21.5202 92.6261 21.5202C92.995 21.5202 93.3639 21.4662 93.7329 21.3583C94.1018 21.2413 94.4392 21.0613 94.7451 20.8184L95.2175 21.9521C94.9026 22.2131 94.5067 22.42 94.0298 22.573C93.5529 22.726 93.076 22.8025 92.5991 22.8025ZM96.6616 22.6675V16.0674H98.3083V17.66H98.1733C98.2993 17.1202 98.5467 16.7107 98.9157 16.4318C99.2846 16.1439 99.775 15.9774 100.387 15.9324L100.9 15.8919L101.008 17.3226L100.036 17.4171C99.487 17.4711 99.0731 17.642 98.7942 17.93C98.5152 18.2089 98.3758 18.6048 98.3758 19.1177V22.6675H96.6616ZM105.747 22.6675V13.152H109.904C110.903 13.152 111.677 13.3724 112.226 13.8134C112.775 14.2453 113.049 14.8481 113.049 15.622C113.049 16.1978 112.882 16.6837 112.55 17.0797C112.217 17.4756 111.762 17.741 111.186 17.876V17.6735C111.627 17.7365 112.005 17.8715 112.32 18.0785C112.635 18.2854 112.873 18.5509 113.035 18.8748C113.206 19.1987 113.292 19.5766 113.292 20.0085C113.292 20.5664 113.161 21.0478 112.9 21.4527C112.649 21.8487 112.28 22.1501 111.794 22.357C111.308 22.564 110.727 22.6675 110.053 22.6675H105.747ZM107.407 21.3583H109.837C110.08 21.3583 110.296 21.3403 110.485 21.3043C110.682 21.2683 110.849 21.2143 110.984 21.1423C111.128 21.0613 111.245 20.9623 111.335 20.8454C111.434 20.7284 111.506 20.5934 111.551 20.4405C111.596 20.2875 111.618 20.1165 111.618 19.9276C111.618 19.7296 111.596 19.5541 111.551 19.4012C111.506 19.2482 111.434 19.1177 111.335 19.0098C111.245 18.8928 111.128 18.7983 110.984 18.7263C110.849 18.6453 110.682 18.5868 110.485 18.5509C110.296 18.5149 110.08 18.4969 109.837 18.4969H107.407V21.3583ZM107.407 17.1876H109.607C110.201 17.1876 110.642 17.0752 110.93 16.8502C111.227 16.6163 111.375 16.2743 111.375 15.8244C111.375 15.3745 111.227 15.0371 110.93 14.8121C110.642 14.5782 110.201 14.4612 109.607 14.4612H107.407V17.1876ZM117.887 22.8025C117.204 22.8025 116.61 22.663 116.106 22.384C115.602 22.1051 115.21 21.7092 114.931 21.1963C114.653 20.6744 114.513 20.0625 114.513 19.3607C114.513 18.6588 114.653 18.0515 114.931 17.5386C115.21 17.0257 115.602 16.6298 116.106 16.3508C116.61 16.0719 117.204 15.9324 117.887 15.9324C118.571 15.9324 119.165 16.0719 119.669 16.3508C120.173 16.6298 120.564 17.0257 120.843 17.5386C121.122 18.0515 121.262 18.6588 121.262 19.3607C121.262 20.0625 121.122 20.6744 120.843 21.1963C120.564 21.7092 120.173 22.1051 119.669 22.384C119.165 22.663 118.571 22.8025 117.887 22.8025ZM117.887 21.5202C118.391 21.5202 118.796 21.3403 119.102 20.9803C119.408 20.6114 119.561 20.0715 119.561 19.3607C119.561 18.6408 119.408 18.1054 119.102 17.7545C118.796 17.3946 118.391 17.2146 117.887 17.2146C117.383 17.2146 116.979 17.3946 116.673 17.7545C116.367 18.1054 116.214 18.6408 116.214 19.3607C116.214 20.0715 116.367 20.6114 116.673 20.9803C116.979 21.3403 117.383 21.5202 117.887 21.5202ZM121.565 22.6675L124.656 18.8613V19.6576L121.74 16.0674H123.711L125.601 18.4834H125.007L126.896 16.0674H128.867L125.952 19.6441V18.8883L129.042 22.6675H127.058L125.007 20.076H125.574L123.536 22.6675H121.565Z" fill="black"/>
<path d="M58.5006 42.1092C57.8707 42.1092 57.3271 42.0193 56.8697 41.8393C56.4198 41.6593 56.0711 41.4006 55.8236 41.0632C55.5837 40.7183 55.4637 40.3134 55.4637 39.8485C55.4637 39.3986 55.5799 39.0161 55.8124 38.7012C56.0523 38.3788 56.3973 38.1313 56.8472 37.9589C57.3046 37.7864 57.8557 37.7002 58.5006 37.7002C59.1379 37.7002 59.6853 37.7864 60.1427 37.9589C60.6001 38.1313 60.9488 38.3788 61.1888 38.7012C61.4362 39.0161 61.5599 39.3986 61.5599 39.8485C61.5599 40.3134 61.4362 40.7183 61.1888 41.0632C60.9413 41.4006 60.5889 41.6593 60.1315 41.8393C59.6741 42.0193 59.1304 42.1092 58.5006 42.1092ZM58.5006 41.4231C59.1979 41.4231 59.7416 41.2807 60.1315 40.9957C60.5289 40.7108 60.7276 40.3246 60.7276 39.8372C60.7276 39.3498 60.5289 38.9674 60.1315 38.69C59.7416 38.405 59.1979 38.2625 58.5006 38.2625C57.8032 38.2625 57.2596 38.405 56.8697 38.69C56.4797 38.9674 56.2848 39.3498 56.2848 39.8372C56.2848 40.3246 56.4797 40.7108 56.8697 40.9957C57.2596 41.2807 57.8032 41.4231 58.5006 41.4231ZM58.5006 38.1613C57.9157 38.1613 57.4171 38.0826 57.0046 37.9251C56.5997 37.7677 56.2885 37.5427 56.0711 37.2503C55.8536 36.9503 55.7449 36.5942 55.7449 36.1817C55.7449 35.7468 55.8574 35.3757 56.0823 35.0682C56.3148 34.7533 56.6372 34.5133 57.0496 34.3484C57.462 34.1834 57.9457 34.1009 58.5006 34.1009C59.0555 34.1009 59.5391 34.1834 59.9515 34.3484C60.3714 34.5133 60.6976 34.7533 60.9301 35.0682C61.1625 35.3757 61.2787 35.7468 61.2787 36.1817C61.2787 36.5942 61.17 36.9503 60.9526 37.2503C60.7351 37.5427 60.4164 37.7677 59.9965 37.9251C59.5841 38.0826 59.0854 38.1613 58.5006 38.1613ZM58.5006 37.6214C59.1154 37.6214 59.5953 37.494 59.9403 37.239C60.2852 36.9841 60.4577 36.6429 60.4577 36.2155C60.4577 35.7656 60.2777 35.4169 59.9178 35.1695C59.5653 34.9145 59.0929 34.787 58.5006 34.787C57.9082 34.787 57.4358 34.9145 57.0834 35.1695C56.7309 35.4169 56.5547 35.7618 56.5547 36.2042C56.5547 36.6391 56.7234 36.9841 57.0609 37.239C57.4058 37.494 57.8857 37.6214 58.5006 37.6214ZM65.8193 42.1092C65.212 42.1092 64.6721 41.9518 64.1997 41.6368C63.7273 41.3144 63.3561 40.857 63.0862 40.2646C62.8162 39.6648 62.6813 38.9449 62.6813 38.1051C62.6813 37.2653 62.8162 36.5492 63.0862 35.9568C63.3561 35.3569 63.7273 34.8995 64.1997 34.5846C64.6721 34.2621 65.212 34.1009 65.8193 34.1009C66.4267 34.1009 66.9666 34.2621 67.439 34.5846C67.9114 34.8995 68.2826 35.3569 68.5525 35.9568C68.83 36.5492 68.9687 37.2653 68.9687 38.1051C68.9687 38.9449 68.83 39.6648 68.5525 40.2646C68.2826 40.857 67.9114 41.3144 67.439 41.6368C66.9666 41.9518 66.4267 42.1092 65.8193 42.1092ZM65.8193 41.3669C66.2842 41.3669 66.6892 41.2432 67.0341 40.9957C67.379 40.7408 67.649 40.3734 67.8439 39.8935C68.0389 39.4061 68.1364 38.8099 68.1364 38.1051C68.1364 37.4002 68.0389 36.8079 67.8439 36.328C67.649 35.8406 67.379 35.4731 67.0341 35.2257C66.6892 34.9707 66.2842 34.8433 65.8193 34.8433C65.3694 34.8433 64.9683 34.9707 64.6159 35.2257C64.2634 35.4731 63.9897 35.8406 63.7948 36.328C63.5998 36.8079 63.5023 37.4002 63.5023 38.1051C63.5023 38.8099 63.5998 39.4061 63.7948 39.8935C63.9897 40.3734 64.2634 40.7408 64.6159 40.9957C64.9683 41.2432 65.3694 41.3669 65.8193 41.3669ZM73.2665 42.1092C72.6591 42.1092 72.1192 41.9518 71.6468 41.6368C71.1744 41.3144 70.8033 40.857 70.5333 40.2646C70.2634 39.6648 70.1284 38.9449 70.1284 38.1051C70.1284 37.2653 70.2634 36.5492 70.5333 35.9568C70.8033 35.3569 71.1744 34.8995 71.6468 34.5846C72.1192 34.2621 72.6591 34.1009 73.2665 34.1009C73.8739 34.1009 74.4138 34.2621 74.8862 34.5846C75.3586 34.8995 75.7297 35.3569 75.9997 35.9568C76.2771 36.5492 76.4158 37.2653 76.4158 38.1051C76.4158 38.9449 76.2771 39.6648 75.9997 40.2646C75.7297 40.857 75.3586 41.3144 74.8862 41.6368C74.4138 41.9518 73.8739 42.1092 73.2665 42.1092ZM73.2665 41.3669C73.7314 41.3669 74.1363 41.2432 74.4812 40.9957C74.8262 40.7408 75.0961 40.3734 75.2911 39.8935C75.486 39.4061 75.5835 38.8099 75.5835 38.1051C75.5835 37.4002 75.486 36.8079 75.2911 36.328C75.0961 35.8406 74.8262 35.4731 74.4812 35.2257C74.1363 34.9707 73.7314 34.8433 73.2665 34.8433C72.8166 34.8433 72.4154 34.9707 72.063 35.2257C71.7106 35.4731 71.4369 35.8406 71.2419 36.328C71.047 36.8079 70.9495 37.4002 70.9495 38.1051C70.9495 38.8099 71.047 39.4061 71.2419 39.8935C71.4369 40.3734 71.7106 40.7408 72.063 40.9957C72.4154 41.2432 72.8166 41.3669 73.2665 41.3669ZM81.2166 42.0417V34.1684H81.9027L87.3353 41.007H86.9754V34.1684H87.7965V42.0417H87.1104L81.689 35.2032H82.049V42.0417H81.2166ZM92.6046 42.098C92.0347 42.098 91.5211 41.9705 91.0637 41.7156C90.6138 41.4531 90.2576 41.0969 89.9951 40.647C89.7327 40.1896 89.6015 39.6685 89.6015 39.0836C89.6015 38.4912 89.7327 37.9701 89.9951 37.5202C90.2576 37.0703 90.6138 36.7179 91.0637 36.4629C91.5136 36.208 92.0272 36.0805 92.6046 36.0805C93.1895 36.0805 93.7069 36.208 94.1568 36.4629C94.6142 36.7179 94.9703 37.0703 95.2253 37.5202C95.4877 37.9701 95.619 38.4912 95.619 39.0836C95.619 39.6685 95.4877 40.1896 95.2253 40.647C94.9703 41.0969 94.6142 41.4531 94.1568 41.7156C93.6994 41.9705 93.182 42.098 92.6046 42.098ZM92.6046 41.3894C93.032 41.3894 93.4107 41.2957 93.7406 41.1082C94.0705 40.9132 94.3292 40.6433 94.5167 40.2984C94.7116 39.9459 94.8091 39.541 94.8091 39.0836C94.8091 38.6187 94.7116 38.2138 94.5167 37.8689C94.3292 37.524 94.0705 37.2578 93.7406 37.0703C93.4107 36.8753 93.0357 36.7779 92.6158 36.7779C92.1959 36.7779 91.821 36.8753 91.4911 37.0703C91.1611 37.2578 90.8987 37.524 90.7037 37.8689C90.5088 38.2138 90.4113 38.6187 90.4113 39.0836C90.4113 39.541 90.5088 39.9459 90.7037 40.2984C90.8987 40.6433 91.1611 40.9132 91.4911 41.1082C91.821 41.2957 92.1922 41.3894 92.6046 41.3894ZM98.8352 42.098C98.3478 42.098 97.8867 42.0305 97.4518 41.8955C97.0169 41.7531 96.6757 41.5768 96.4282 41.3669L96.7882 40.737C97.0281 40.917 97.3356 41.0745 97.7105 41.2094C98.0854 41.3369 98.4791 41.4006 98.8915 41.4006C99.4539 41.4006 99.8588 41.3144 100.106 41.1419C100.354 40.962 100.477 40.7258 100.477 40.4333C100.477 40.2159 100.406 40.0472 100.264 39.9272C100.129 39.7997 99.9488 39.706 99.7238 39.646C99.4988 39.5785 99.2477 39.5223 98.9702 39.4773C98.6928 39.4323 98.4153 39.3798 98.1379 39.3198C97.8679 39.2598 97.6205 39.1736 97.3955 39.0611C97.1706 38.9412 96.9869 38.7799 96.8444 38.5775C96.7094 38.375 96.642 38.1051 96.642 37.7677C96.642 37.4452 96.7319 37.1565 96.9119 36.9016C97.0919 36.6466 97.3543 36.4479 97.6992 36.3055C98.0517 36.1555 98.4791 36.0805 98.9815 36.0805C99.3639 36.0805 99.7463 36.133 100.129 36.238C100.511 36.3355 100.826 36.4667 101.074 36.6316L100.725 37.2728C100.462 37.0928 100.181 36.9653 99.8813 36.8903C99.5813 36.8079 99.2814 36.7666 98.9815 36.7666C98.4491 36.7666 98.0554 36.8603 97.8005 37.0478C97.553 37.2278 97.4293 37.4602 97.4293 37.7452C97.4293 37.9701 97.4968 38.1463 97.6317 38.2738C97.7742 38.4013 97.9579 38.5025 98.1829 38.5775C98.4153 38.645 98.6665 38.7012 98.9365 38.7462C99.2139 38.7912 99.4876 38.8474 99.7575 38.9149C100.035 38.9749 100.286 39.0611 100.511 39.1736C100.744 39.2786 100.927 39.4323 101.062 39.6348C101.205 39.8297 101.276 40.0884 101.276 40.4108C101.276 40.7558 101.178 41.0557 100.984 41.3107C100.796 41.5581 100.519 41.7531 100.151 41.8955C99.7913 42.0305 99.3526 42.098 98.8352 42.098ZM101.347 43.1665L105.058 32.5713H105.789L102.078 43.1665H101.347ZM108.192 42.098C107.607 42.098 107.082 41.9705 106.617 41.7156C106.16 41.4531 105.8 41.0969 105.538 40.647C105.275 40.1896 105.144 39.6685 105.144 39.0836C105.144 38.4912 105.275 37.9701 105.538 37.5202C105.8 37.0703 106.16 36.7179 106.617 36.4629C107.082 36.208 107.607 36.0805 108.192 36.0805C108.694 36.0805 109.148 36.178 109.553 36.3729C109.958 36.5679 110.277 36.8603 110.509 37.2503L109.913 37.6552C109.71 37.3552 109.459 37.134 109.159 36.9916C108.859 36.8491 108.533 36.7779 108.181 36.7779C107.761 36.7779 107.382 36.8753 107.045 37.0703C106.707 37.2578 106.441 37.524 106.246 37.8689C106.051 38.2138 105.954 38.6187 105.954 39.0836C105.954 39.5485 106.051 39.9534 106.246 40.2984C106.441 40.6433 106.707 40.9132 107.045 41.1082C107.382 41.2957 107.761 41.3894 108.181 41.3894C108.533 41.3894 108.859 41.3182 109.159 41.1757C109.459 41.0332 109.71 40.8158 109.913 40.5233L110.509 40.9282C110.277 41.3107 109.958 41.6031 109.553 41.8055C109.148 42.0005 108.694 42.098 108.192 42.098ZM114.011 42.098C113.456 42.098 113.028 41.948 112.729 41.6481C112.429 41.3481 112.279 40.9245 112.279 40.3771V34.832H113.077V40.3321C113.077 40.677 113.163 40.9432 113.336 41.1307C113.516 41.3182 113.771 41.4119 114.101 41.4119C114.453 41.4119 114.746 41.3107 114.978 41.1082L115.259 41.6818C115.102 41.8243 114.911 41.9293 114.686 41.9968C114.468 42.0642 114.243 42.098 114.011 42.098ZM111.221 36.8004V36.1367H114.877V36.8004H111.221ZM119.727 36.0805C120.207 36.0805 120.627 36.1742 120.987 36.3617C121.355 36.5417 121.639 36.8191 121.842 37.194C122.052 37.5689 122.157 38.0413 122.157 38.6112V42.0417H121.358V38.69C121.358 38.0676 121.201 37.5989 120.886 37.284C120.578 36.9616 120.144 36.8004 119.581 36.8004C119.161 36.8004 118.794 36.8866 118.479 37.0591C118.171 37.224 117.931 37.4677 117.759 37.7901C117.594 38.1051 117.512 38.4875 117.512 38.9374V42.0417H116.713V36.1367H117.478V37.7564L117.354 37.4527C117.542 37.0253 117.841 36.6916 118.254 36.4517C118.666 36.2042 119.157 36.0805 119.727 36.0805Z" fill="black"/>
<defs>
<filter id="filter0_d_1844_1495" x="-0.000781059" y="-4.86374e-05" width="48.6422" height="48.7096" filterUnits="userSpaceOnUse" color-interpolation-filters="sRGB">
<feFlood flood-opacity="0" result="BackgroundImageFix"/>
<feColorMatrix in="SourceAlpha" type="matrix" values="0 0 0 0 0 0 0 0 0 0 0 0 0 0 0 0 0 0 127 0" result="hardAlpha"/>
<feOffset dy="-3"/>
<feGaussianBlur stdDeviation="2.1"/>
<feComposite in2="hardAlpha" operator="out"/>
<feColorMatrix type="matrix" values="0 0 0 0 0 0 0 0 0 0 0 0 0 0 0 0 0 0 0.25 0"/>
<feBlend mode="normal" in2="BackgroundImageFix" result="effect1_dropShadow_1844_1495"/>
<feBlend mode="normal" in="SourceGraphic" in2="effect1_dropShadow_1844_1495" result="shape"/>
</filter>
</defs>
</svg>
