<svg width="326" height="76" viewBox="0 0 326 76" fill="none" xmlns="http://www.w3.org/2000/svg">
<path d="M17.2011 45.8737C15.1942 45.8766 13.2705 45.6166 11.4298 45.0937C9.58906 44.5468 8.10636 43.8442 6.9817 42.9857L8.94358 38.6109C10.0203 39.3738 11.2878 40.0051 12.7462 40.5047C14.2284 40.9804 15.7221 41.2172 17.2272 41.215C18.374 41.2133 19.2935 41.1045 19.9859 40.8885C20.7021 40.6486 21.2271 40.3253 21.5607 39.9186C21.8943 39.512 22.0606 39.0459 22.0595 38.5203C22.0581 37.8514 21.7942 37.3262 21.2678 36.9447C20.7414 36.5393 20.0479 36.2177 19.1873 35.9801C18.3267 35.7185 17.3705 35.481 16.3189 35.2675C15.2911 35.03 14.2512 34.7449 13.1994 34.4119C12.1714 34.0789 11.2268 33.6502 10.3656 33.1259C9.50444 32.6015 8.79822 31.9097 8.24693 31.0504C7.71954 30.1911 7.45445 29.0925 7.45166 27.7546C7.44868 26.3212 7.82822 25.0186 8.59028 23.8468C9.37619 22.6511 10.5449 21.7058 12.0963 21.0107C13.6716 20.2917 15.6419 19.9305 18.0071 19.9271C19.5839 19.9248 21.1372 20.1137 22.667 20.4938C24.1967 20.8499 25.5477 21.3975 26.7199 22.1364L24.9373 26.5468C23.7652 25.8796 22.5936 25.3915 21.4223 25.0826C20.2509 24.7498 19.1038 24.5843 17.9809 24.5859C16.8581 24.5875 15.9386 24.7202 15.2224 24.984C14.5062 25.2479 13.9933 25.595 13.6836 26.0255C13.3738 26.4321 13.2196 26.9101 13.2207 27.4596C13.222 28.1047 13.4859 28.6299 14.0124 29.0353C14.5388 29.4168 15.2323 29.7264 16.0928 29.964C16.9534 30.2017 17.8976 30.4392 18.9254 30.6767C19.9771 30.9141 21.0169 31.1873 22.0449 31.4964C23.0967 31.8055 24.0532 32.2222 24.9144 32.7466C25.7755 33.2709 26.4698 33.9628 26.9972 34.8221C27.5485 35.6813 27.8255 36.768 27.8282 38.082C27.8312 39.4915 27.4397 40.7822 26.6537 41.954C25.8677 43.1258 24.6871 44.0712 23.1118 44.7901C21.5604 45.5091 19.5902 45.8703 17.2011 45.8737ZM33.2439 45.4206L33.1916 20.3353L45.4476 20.3176C48.6012 20.3131 50.9676 20.907 52.5469 22.0992C54.1501 23.2915 54.9537 24.8671 54.9578 26.8262C54.9605 28.1401 54.6404 29.2874 53.9974 30.2678C53.3543 31.2244 52.4719 31.9663 51.3501 32.4935C50.2284 33.0207 48.9388 33.2854 47.4815 33.2875L48.1593 31.8172C49.7361 31.8149 51.1342 32.0757 52.3538 32.5995C53.5732 33.0995 54.5185 33.8507 55.1895 34.8532C55.8845 35.8556 56.2334 37.0854 56.2365 38.5428C56.241 40.693 55.3963 42.3785 53.7026 43.5993C52.0089 44.7963 49.5135 45.3972 46.2166 45.4019L33.2439 45.4206ZM39.0044 41.0403L45.7775 41.0305C47.2826 41.0284 48.4169 40.7878 49.1804 40.3089C49.9678 39.8061 50.3603 39.0171 50.3581 37.942C50.3559 36.8908 49.9601 36.115 49.1706 35.6144C48.405 35.0899 47.2697 34.8287 45.7645 34.8309L38.5614 34.8413L38.5526 30.6126L44.7523 30.6037C46.1619 30.6016 47.2364 30.3612 47.9761 29.8823C48.7395 29.3795 49.1202 28.6264 49.1181 27.623C49.1161 26.6434 48.7323 25.9153 47.9668 25.4386C47.2251 24.938 46.1495 24.6887 44.74 24.6907L38.9703 24.699L39.0044 41.0403ZM60.9522 37.5326L60.9428 33.0531L71.0845 33.0385L71.0938 37.518L60.9522 37.5326ZM81.2028 45.3516L81.1604 24.9966L73.1331 25.0082L73.1232 20.2778L94.9833 20.2463L94.9932 24.9767L86.9659 24.9883L87.0083 45.3432L81.2028 45.3516ZM104.901 30.3379L116.978 30.3205L116.987 34.8359L104.91 34.8532L104.901 30.3379ZM105.353 40.6581L119.006 40.6384L119.016 45.2971L99.5927 45.3251L99.5404 20.2398L118.498 20.2125L118.507 24.8712L105.32 24.8902L105.353 40.6581ZM123.241 37.4429L123.232 32.9634L133.374 32.9488L133.383 37.4283L123.241 37.4429ZM141.149 45.2653L141.101 22.3301L143.615 24.835L136.09 24.8459L136.08 20.1872L146.902 20.1716L146.955 45.2569L141.149 45.2653ZM163.498 45.6631C161.443 45.6661 159.602 45.167 157.976 44.166C156.349 43.141 155.068 41.6616 154.132 39.7278C153.196 37.794 152.726 35.4533 152.72 32.7059C152.714 29.9585 153.175 27.6165 154.103 25.68C155.03 23.7435 156.306 22.2724 157.928 21.2666C159.55 20.237 161.389 19.7207 163.444 19.7177C165.522 19.7147 167.363 20.2257 168.966 21.2507C170.592 22.2518 171.873 23.7193 172.809 25.6531C173.745 27.5869 174.216 29.9275 174.222 32.675C174.227 35.4224 173.766 37.7644 172.839 39.7009C171.911 41.6374 170.636 43.1204 169.013 44.1501C167.415 45.1558 165.576 45.6601 163.498 45.6631ZM163.487 40.7536C164.467 40.7522 165.315 40.4762 166.03 39.9257C166.77 39.3751 167.341 38.5023 167.745 37.3072C168.172 36.112 168.384 34.5707 168.38 32.6834C168.376 30.796 168.158 29.2553 167.726 28.0614C167.317 26.8675 166.742 25.9963 166 25.4479C165.282 24.8994 164.433 24.6259 163.454 24.6273C162.498 24.6287 161.651 24.9046 160.911 25.4552C160.196 26.0057 159.624 26.8785 159.197 28.0737C158.793 29.2688 158.593 30.8101 158.597 32.6974C158.601 34.5848 158.807 36.1255 159.216 37.3194C159.648 38.5134 160.223 39.3845 160.941 39.933C161.683 40.4814 162.532 40.7549 163.487 40.7536ZM189.254 45.6261C187.199 45.629 185.358 45.13 183.732 44.1289C182.105 43.1039 180.824 41.6245 179.888 39.6907C178.952 37.7569 178.481 35.4163 178.476 32.6688C178.47 29.9214 178.931 27.5794 179.859 25.6429C180.786 23.7064 182.061 22.2353 183.684 21.2296C185.306 20.1999 187.145 19.6836 189.199 19.6807C191.278 19.6777 193.119 20.1887 194.721 21.2137C196.348 22.2147 197.629 23.6822 198.565 25.616C199.501 27.5498 199.972 29.8904 199.977 32.6379C199.983 35.3853 199.522 37.7273 198.594 39.6638C197.667 41.6003 196.392 43.0833 194.769 44.113C193.171 45.1187 191.332 45.6231 189.254 45.6261ZM189.243 40.7165C190.223 40.7151 191.07 40.4391 191.786 39.8886C192.525 39.338 193.097 38.4652 193.501 37.2701C193.928 36.0749 194.14 34.5337 194.136 32.6463C194.132 30.7589 193.914 29.2183 193.481 28.0243C193.073 26.8304 192.498 25.9592 191.756 25.4108C191.038 24.8623 190.189 24.5888 189.21 24.5902C188.254 24.5916 187.407 24.8676 186.667 25.4181C185.951 25.9686 185.38 26.8415 184.952 28.0366C184.549 29.2317 184.349 30.773 184.353 32.6604C184.357 34.5477 184.563 36.0884 184.972 37.2824C185.404 38.4763 185.979 39.3475 186.697 39.8959C187.439 40.4443 188.288 40.7179 189.243 40.7165ZM215.009 45.589C212.955 45.5919 211.114 45.0929 209.488 44.0918C207.861 43.0668 206.58 41.5874 205.644 39.6536C204.708 37.7198 204.237 35.3792 204.232 32.6317C204.226 29.8843 204.687 27.5423 205.615 25.6058C206.542 23.6694 207.817 22.1982 209.44 21.1925C211.062 20.1628 212.901 19.6465 214.955 19.6436C217.034 19.6406 218.875 20.1516 220.477 21.1766C222.104 22.1777 223.385 23.6451 224.321 25.5789C225.257 27.5127 225.728 29.8534 225.733 32.6008C225.739 35.3482 225.278 37.6902 224.35 39.6267C223.423 41.5632 222.148 43.0463 220.525 44.0759C218.927 45.0816 217.088 45.586 215.009 45.589ZM214.999 40.6794C215.979 40.678 216.826 40.402 217.542 39.8515C218.281 39.301 218.853 38.4281 219.257 37.233C219.684 36.0378 219.896 34.4966 219.892 32.6092C219.888 30.7218 219.67 29.1812 219.237 27.9873C218.829 26.7933 218.253 25.9221 217.512 25.3737C216.794 24.8252 215.945 24.5517 214.966 24.5531C214.01 24.5545 213.162 24.8305 212.423 25.381C211.707 25.9315 211.136 26.8044 210.708 27.9995C210.305 29.1947 210.105 30.7359 210.109 32.6233C210.113 34.5107 210.319 36.0513 210.728 37.2453C211.16 38.4392 211.735 39.3104 212.453 39.8588C213.195 40.4073 214.044 40.6808 214.999 40.6794ZM243.704 45.5477C241.721 45.5505 239.893 45.2426 238.219 44.6238C236.569 43.9811 235.122 43.0754 233.877 41.9065C232.656 40.7376 231.698 39.3653 231.002 37.7895C230.329 36.2136 229.991 34.482 229.987 32.5947C229.983 30.7073 230.314 28.9747 230.98 27.397C231.67 25.8192 232.634 24.4441 233.874 23.2716C235.114 22.0992 236.57 21.2012 238.241 20.5776C239.912 19.9302 241.751 19.605 243.757 19.6021C245.979 19.5989 247.975 19.9663 249.744 20.7044C251.538 21.4424 253.045 22.5154 254.266 23.9232L250.547 27.3688C249.637 26.4145 248.644 25.7111 247.568 25.2588C246.492 24.7825 245.321 24.5453 244.054 24.5471C242.836 24.5488 241.725 24.7416 240.723 25.1253C239.72 25.509 238.849 26.0597 238.11 26.7775C237.395 27.4953 236.835 28.3442 236.431 29.3243C236.051 30.3044 235.862 31.3917 235.865 32.5862C235.867 33.7569 236.06 34.8317 236.445 35.8106C236.853 36.7896 237.416 37.6488 238.134 38.3884C238.876 39.1041 239.738 39.6523 240.718 40.0332C241.722 40.414 242.822 40.6035 244.016 40.6018C245.163 40.6002 246.273 40.4194 247.348 40.0595C248.446 39.6756 249.508 39.041 250.533 38.1556L253.839 42.3436C252.479 43.3729 250.892 44.1636 249.078 44.7157C247.287 45.2678 245.496 45.5451 243.704 45.5477ZM248.534 41.5987L248.514 32.1738L253.818 32.1662L253.839 42.3436L248.534 41.5987Z" fill="#490606"/>
<path d="M43.6711 69.1687C43.2182 68.4488 42.8681 67.6179 42.6206 66.6759C42.3732 65.7261 42.2483 64.7048 42.246 63.612C42.2438 62.5193 42.3644 61.4976 42.6079 60.547C42.8513 59.5885 43.198 58.7566 43.6479 58.0512L44.7288 58.0496C44.2554 58.8897 43.9088 59.7691 43.689 60.688C43.4692 61.5989 43.3604 62.5731 43.3625 63.6104C43.3647 64.6477 43.4776 65.6255 43.7012 66.5437C43.9248 67.454 44.2751 68.3285 44.7519 69.1672L43.6711 69.1687ZM46.3734 66.8606L46.356 58.5462L47.5438 58.5444L47.5611 66.8589L46.3734 66.8606ZM50.0504 66.8553L50.033 58.5409L51.007 58.5395L54.7497 64.8174L54.2271 64.8182L57.8961 58.5295L58.8701 58.5281L58.8993 66.8425L57.759 66.8442L57.7336 60.3233L58.0067 60.3229L54.74 65.8389L54.1936 65.8397L50.8801 60.3332L51.177 60.3328L51.1906 66.8536L50.0504 66.8553ZM61.3945 66.8389L61.3772 58.5245L62.565 58.5228L62.5802 65.8039L67.0818 65.7974L67.084 66.8308L61.3945 66.8389ZM71.6368 66.8242L71.6194 58.5098L72.5934 58.5084L76.3361 64.7863L75.8135 64.7871L79.4825 58.4985L80.4565 58.4971L80.4857 66.8115L79.3454 66.8131L79.32 60.2922L79.5931 60.2918L76.3264 65.8078L75.78 65.8086L72.4665 60.3021L72.7634 60.3017L72.777 66.8226L71.6368 66.8242ZM86.7345 66.8975C86.101 66.8984 85.5109 66.7923 84.9641 66.5793C84.4252 66.3663 83.9573 66.07 83.5606 65.6905C83.1639 65.3031 82.8541 64.8522 82.6313 64.3378C82.4085 63.8234 82.2965 63.2614 82.2952 62.6516C82.294 62.0419 82.4037 61.4795 82.6243 60.9645C82.845 60.4495 83.1528 60.0017 83.548 59.621C83.9431 59.2324 84.4097 58.9308 84.9477 58.7163C85.4857 58.5017 86.0754 58.394 86.7168 58.393C87.3503 58.3921 87.9325 58.4982 88.4635 58.7112C89.0024 58.9163 89.4702 59.2126 89.8669 59.6C90.2715 59.9795 90.5813 60.4265 90.7962 60.9409C91.019 61.4553 91.131 62.0213 91.1323 62.6389C91.1336 63.2566 91.0239 63.8229 90.8033 64.3379C90.5905 64.8529 90.2826 65.3047 89.8796 65.6933C89.4845 66.074 89.0179 66.3716 88.4799 66.5861C87.9498 66.7928 87.368 66.8966 86.7345 66.8975ZM86.7323 65.8404C87.1916 65.8397 87.6151 65.7599 88.0027 65.601C88.3983 65.442 88.7384 65.2198 89.0228 64.9344C89.3152 64.641 89.5402 64.3001 89.6977 63.9119C89.8632 63.5237 89.9455 63.0999 89.9445 62.6406C89.9436 62.1813 89.8595 61.7578 89.6924 61.3701C89.5333 60.9823 89.3069 60.6461 89.0133 60.3614C88.7276 60.0689 88.3867 59.8437 87.9904 59.6859C87.6021 59.5281 87.1783 59.4495 86.719 59.4501C86.2518 59.4508 85.8204 59.5306 85.4248 59.6896C85.0371 59.8485 84.6971 60.0747 84.4047 60.3681C84.1123 60.6536 83.8834 60.9904 83.7179 61.3787C83.5604 61.7669 83.4821 62.1907 83.483 62.6499C83.484 63.1092 83.564 63.5327 83.7232 63.9205C83.8903 64.3083 84.1207 64.6484 84.4143 64.941C84.7078 65.2256 85.0488 65.4469 85.4371 65.6047C85.8334 65.7625 86.2651 65.841 86.7323 65.8404ZM96.71 66.8831C96.0765 66.884 95.4863 66.778 94.9395 66.565C94.4006 66.3519 93.9328 66.0557 93.5361 65.6762C93.1393 65.2887 92.8296 64.8378 92.6068 64.3234C92.384 63.809 92.272 63.247 92.2707 62.6373C92.2694 62.0275 92.3791 61.4652 92.5998 60.9502C92.8204 60.4351 93.1283 59.9873 93.5234 59.6066C93.9185 59.2181 94.3851 58.9165 94.9231 58.7019C95.4611 58.4873 96.0508 58.3796 96.6922 58.3787C97.3257 58.3778 97.9079 58.4838 98.4389 58.6969C98.9778 58.902 99.4456 59.1982 99.8424 59.5857C100.247 59.9652 100.557 60.4121 100.772 60.9265C100.994 61.4409 101.106 62.0069 101.108 62.6246C101.109 63.2422 100.999 63.8085 100.779 64.3235C100.566 64.8386 100.258 65.2904 99.8551 65.6789C99.4599 66.0596 98.9934 66.3572 98.4553 66.5718C97.9252 66.7784 97.3434 66.8822 96.71 66.8831ZM99.4334 68.5183C99.1562 68.5187 98.8909 68.4835 98.6373 68.4126C98.3838 68.3496 98.1302 68.2431 97.8765 68.093C97.6228 67.9508 97.3611 67.7611 97.0914 67.524C96.8217 67.2947 96.5281 67.0101 96.2106 66.67L97.4809 66.3356C97.719 66.6283 97.9452 66.8655 98.1594 67.0473C98.3815 67.237 98.5995 67.3713 98.8135 67.4502C99.0275 67.537 99.2374 67.5803 99.4433 67.58C100.037 67.5791 100.543 67.3408 100.962 66.8651L101.522 67.5413C100.985 68.1914 100.289 68.5171 99.4334 68.5183ZM96.7078 65.826C97.167 65.8253 97.5905 65.7455 97.9782 65.5866C98.3738 65.4277 98.7138 65.2015 98.9983 64.9081C99.2906 64.6147 99.5156 64.2739 99.6732 63.8857C99.8386 63.4974 99.9209 63.0776 99.92 62.6263C99.919 62.167 99.835 61.7435 99.6679 61.3557C99.5087 60.9679 99.2823 60.6317 98.9887 60.3471C98.7031 60.0545 98.3621 59.8293 97.9658 59.6715C97.5775 59.5137 97.1537 59.4351 96.6944 59.4358C96.2272 59.4365 95.7958 59.5163 95.4003 59.6752C95.0126 59.8341 94.6726 60.0603 94.3802 60.3537C94.0878 60.6392 93.8589 60.9761 93.6934 61.3643C93.5358 61.7525 93.4575 62.1763 93.4585 62.6356C93.4594 63.0869 93.5395 63.5065 93.6986 63.8943C93.8657 64.282 94.0961 64.6222 94.3897 64.9148C94.6833 65.2073 95.0242 65.4325 95.4126 65.5903C95.8088 65.7481 96.2406 65.8267 96.7078 65.826ZM105.546 64.0079L105.544 63.022L108.739 63.0174L108.741 64.0033L105.546 64.0079ZM115.866 66.8555C115.28 66.8564 114.71 66.7661 114.155 66.5848C113.608 66.4035 113.16 66.1587 112.811 65.8503L113.356 64.9112C113.633 65.1721 113.994 65.3854 114.438 65.551C114.882 65.7167 115.353 65.7992 115.852 65.7984C116.485 65.7975 116.972 65.6622 117.312 65.3925C117.652 65.1228 117.821 64.7622 117.82 64.3109C117.82 64.0021 117.744 63.7329 117.593 63.5035C117.442 63.2741 117.181 63.1003 116.808 62.982C116.444 62.8559 115.941 62.7932 115.299 62.7942L113.411 62.7969L113.841 58.449L118.533 58.4422L118.535 59.4756L114.283 59.4817L114.899 58.8988L114.562 62.332L113.943 61.7628L115.547 61.7604C116.378 61.7592 117.047 61.8652 117.555 62.0783C118.062 62.2913 118.431 62.5877 118.661 62.9675C118.891 63.3393 119.007 63.7707 119.008 64.2617C119.009 64.7368 118.895 65.1725 118.666 65.5687C118.438 65.9571 118.09 66.2703 117.623 66.5086C117.164 66.7389 116.579 66.8545 115.866 66.8555ZM123.399 66.8447C122.75 66.8456 122.167 66.6802 121.652 66.3483C121.145 66.0165 120.74 65.5341 120.437 64.901C120.143 64.268 119.995 63.5001 119.993 62.5974C119.991 61.6947 120.136 60.9264 120.428 60.2925C120.727 59.6585 121.13 59.1749 121.636 58.8416C122.15 58.5083 122.732 58.3412 123.381 58.3402C124.023 58.3393 124.601 58.5048 125.117 58.8366C125.632 59.1684 126.037 59.6509 126.331 60.284C126.625 60.917 126.773 61.6849 126.775 62.5876C126.777 63.4903 126.632 64.2586 126.341 64.8925C126.049 65.5264 125.646 66.01 125.132 66.3433C124.618 66.6767 124.04 66.8438 123.399 66.8447ZM123.397 65.7876C123.832 65.787 124.212 65.6676 124.536 65.4296C124.868 65.1916 125.125 64.8349 125.306 64.3595C125.495 63.8841 125.589 63.2941 125.588 62.5893C125.586 61.8846 125.49 61.2948 125.299 60.8199C125.116 60.3451 124.858 59.9891 124.525 59.7521C124.199 59.515 123.819 59.3967 123.384 59.3974C122.948 59.398 122.564 59.5173 122.232 59.7554C121.9 59.9934 121.639 60.3501 121.45 60.8255C121.269 61.3008 121.179 61.8909 121.181 62.5957C121.182 63.3004 121.275 63.8902 121.458 64.365C121.649 64.8399 121.911 65.1958 122.244 65.4329C122.577 65.67 122.961 65.7882 123.397 65.7876ZM131.321 66.8333C130.672 66.8342 130.09 66.6688 129.574 66.3369C129.067 66.0051 128.662 65.5226 128.36 64.8896C128.065 64.2565 127.917 63.4887 127.916 62.586C127.914 61.6832 128.059 60.9149 128.35 60.281C128.65 59.6471 129.053 59.1635 129.559 58.8302C130.073 58.4969 130.654 58.3298 131.304 58.3288C131.945 58.3279 132.523 58.4934 133.039 58.8252C133.554 59.157 133.959 59.6395 134.253 60.2725C134.548 60.9056 134.696 61.6735 134.698 62.5762C134.7 63.4789 134.555 64.2472 134.263 64.8811C133.971 65.515 133.569 65.9986 133.055 66.3319C132.541 66.6652 131.963 66.8324 131.321 66.8333ZM131.319 65.7762C131.755 65.7755 132.135 65.6562 132.459 65.4182C132.791 65.1802 133.047 64.8235 133.229 64.3481C133.418 63.8727 133.511 63.2826 133.51 62.5779C133.508 61.8732 133.412 61.2834 133.221 60.8085C133.038 60.3337 132.78 59.9777 132.447 59.7406C132.122 59.5036 131.741 59.3853 131.306 59.386C130.87 59.3866 130.487 59.5059 130.154 59.7439C129.822 59.982 129.562 60.3387 129.373 60.8141C129.192 61.2894 129.102 61.8795 129.103 62.5842C129.105 63.289 129.197 63.8788 129.38 64.3536C129.571 64.8285 129.833 65.1844 130.166 65.4215C130.499 65.6586 130.884 65.7768 131.319 65.7762ZM139.244 66.8219C138.594 66.8228 138.012 66.6574 137.497 66.3255C136.989 65.9937 136.584 65.5112 136.282 64.8782C135.988 64.2451 135.84 63.4773 135.838 62.5746C135.836 61.6718 135.981 60.9035 136.273 60.2696C136.572 59.6357 136.975 59.1521 137.481 58.8188C137.995 58.4855 138.577 58.3184 139.226 58.3174C139.867 58.3165 140.446 58.482 140.961 58.8138C141.477 59.1456 141.881 59.6281 142.176 60.2611C142.47 60.8942 142.618 61.6621 142.62 62.5648C142.622 63.4675 142.477 64.2358 142.185 64.8697C141.894 65.5036 141.491 65.9872 140.977 66.3205C140.463 66.6538 139.885 66.821 139.244 66.8219ZM139.242 65.7648C139.677 65.7641 140.057 65.6448 140.381 65.4068C140.713 65.1688 140.97 64.8121 141.151 64.3367C141.34 63.8613 141.434 63.2712 141.432 62.5665C141.431 61.8618 141.335 61.272 141.144 60.7971C140.96 60.3223 140.702 59.9663 140.369 59.7292C140.044 59.4922 139.664 59.3739 139.228 59.3746C138.793 59.3752 138.409 59.4945 138.077 59.7325C137.745 59.9706 137.484 60.3273 137.295 60.8027C137.114 61.278 137.024 61.8681 137.026 62.5728C137.027 63.2776 137.119 63.8674 137.303 64.3422C137.494 64.8171 137.756 65.173 138.089 65.4101C138.422 65.6472 138.806 65.7654 139.242 65.7648ZM147.636 66.7148L147.618 58.4004L150.861 58.3957C151.59 58.3947 152.211 58.5086 152.727 58.7375C153.242 58.9664 153.638 59.2984 153.916 59.7335C154.194 60.1686 154.334 60.6871 154.335 61.2889C154.337 61.8907 154.199 62.4095 153.923 62.8455C153.647 63.2735 153.251 63.6066 152.737 63.8449C152.223 64.0753 151.602 64.191 150.873 64.192L148.284 64.1958L148.817 63.6367L148.824 66.7131L147.636 66.7148ZM148.817 63.7555L148.282 63.1624L150.835 63.1587C151.596 63.1576 152.169 62.9945 152.557 62.6693C152.952 62.344 153.149 61.8845 153.148 61.2906C153.146 60.6967 152.947 60.2377 152.551 59.9136C152.162 59.5895 151.588 59.428 150.828 59.4291L148.274 59.4328L148.807 58.8381L148.817 63.7555ZM158.646 66.7702C158.005 66.7711 157.43 66.6334 156.923 66.357C156.424 66.0805 156.031 65.701 155.745 65.2184C155.459 64.7358 155.315 64.1817 155.314 63.5561C155.312 62.9306 155.454 62.3761 155.738 61.8926C156.022 61.4092 156.413 61.0325 156.911 60.7625C157.418 60.4847 157.991 60.3453 158.633 60.3443C159.203 60.3435 159.71 60.4576 160.154 60.6866C160.606 60.9077 160.955 61.2398 161.201 61.6828L160.335 62.2423C160.129 61.9338 159.875 61.7085 159.574 61.5664C159.28 61.4164 158.963 61.3416 158.623 61.3421C158.211 61.3427 157.843 61.4343 157.519 61.6169C157.195 61.7995 156.938 62.0572 156.748 62.39C156.559 62.715 156.465 63.1031 156.466 63.5545C156.467 64.0058 156.563 64.3976 156.753 64.7299C156.944 65.0623 157.202 65.3192 157.527 65.5009C157.852 65.6825 158.22 65.7731 158.632 65.7725C158.973 65.772 159.289 65.7003 159.582 65.5573C159.883 65.4064 160.135 65.1764 160.341 64.8673L161.209 65.4124C160.964 65.8483 160.617 66.1854 160.166 66.4236C159.723 66.6538 159.216 66.7694 158.646 66.7702ZM164.493 66.7618C163.971 66.7625 163.472 66.692 162.996 66.5501C162.529 66.4083 162.16 66.2346 161.891 66.0291L162.364 65.1257C162.633 65.3075 162.966 65.4614 163.363 65.5875C163.759 65.7136 164.163 65.7764 164.574 65.7758C165.105 65.775 165.485 65.6993 165.714 65.5485C165.952 65.3977 166.07 65.1877 166.069 64.9185C166.069 64.7205 165.997 64.5662 165.855 64.4555C165.712 64.3449 165.522 64.262 165.284 64.2069C165.054 64.1518 164.797 64.1047 164.512 64.0655C164.226 64.0184 163.941 63.9634 163.656 63.9004C163.371 63.8296 163.109 63.7349 162.871 63.6165C162.634 63.4902 162.443 63.3202 162.3 63.1066C162.157 62.8851 162.085 62.5922 162.085 62.2279C162.084 61.8479 162.19 61.5151 162.403 61.2298C162.616 60.9444 162.917 60.7262 163.305 60.5752C163.7 60.4162 164.167 60.3364 164.706 60.3356C165.117 60.335 165.533 60.3859 165.953 60.4882C166.381 60.5826 166.73 60.7207 166.999 60.9024L166.514 61.8058C166.229 61.6162 165.931 61.486 165.623 61.4152C165.314 61.3443 165.005 61.3092 164.696 61.3096C164.197 61.3103 163.825 61.394 163.58 61.5606C163.335 61.7194 163.212 61.9254 163.213 62.1788C163.213 62.3926 163.285 62.5588 163.428 62.6774C163.578 62.788 163.769 62.8748 163.998 62.9379C164.236 63.0009 164.498 63.0559 164.783 63.103C165.068 63.1422 165.353 63.1972 165.638 63.2681C165.923 63.331 166.181 63.4217 166.411 63.5401C166.649 63.6586 166.839 63.8246 166.982 64.0382C167.133 64.2518 167.209 64.5367 167.21 64.8931C167.21 65.2731 167.1 65.6019 166.879 65.8794C166.658 66.1569 166.346 66.3751 165.942 66.534C165.538 66.6851 165.056 66.761 164.493 66.7618ZM169.023 68.9883L167.942 68.9898C168.424 68.1498 168.774 67.2743 168.994 66.3633C169.214 65.4445 169.323 64.4664 169.32 63.4291C169.318 62.3917 169.205 61.4179 168.982 60.5076C168.758 59.5894 168.404 58.7109 167.919 57.8723L169 57.8707C169.469 58.5748 169.823 59.4057 170.062 60.3635C170.31 61.3134 170.435 62.3347 170.437 63.4275C170.439 64.5202 170.319 65.5419 170.075 66.4924C169.84 67.4351 169.489 68.267 169.023 68.9883Z" fill="black"/>
<path d="M176.667 62.0947H211.434" stroke="url(#paint0_linear_2040_1139)" stroke-width="0.863039"/>
<path d="M34.7666 62.8018H7.65324e-05" stroke="url(#paint1_linear_2040_1139)" stroke-width="0.863039"/>
<defs>
<linearGradient id="paint0_linear_2040_1139" x1="206.219" y1="62.5947" x2="177.246" y2="62.5947" gradientUnits="userSpaceOnUse">
<stop stop-color="#666666" stop-opacity="0"/>
<stop offset="1"/>
</linearGradient>
<linearGradient id="paint1_linear_2040_1139" x1="5.21505" y1="63.3017" x2="34.1872" y2="63.3017" gradientUnits="userSpaceOnUse">
<stop stop-color="#666666" stop-opacity="0"/>
<stop offset="1"/>
</linearGradient>
</defs>
</svg>
