<svg width="165" height="50" viewBox="0 0 165 50" fill="none" xmlns="http://www.w3.org/2000/svg">
<g filter="url(#filter0_d_1844_1655)">
<rect x="24.1387" y="4.71704" width="33" height="31" rx="6" transform="rotate(46.3303 24.1387 4.71704)" fill="white"/>
</g>
<path d="M17.4195 22.964V34.1356C17.4195 34.3251 17.4804 34.4807 17.6022 34.6025C17.724 34.7243 17.88 34.7852 18.0701 34.7852H31.557C31.7464 34.7852 31.9021 34.7243 32.0239 34.6025C32.1457 34.4807 32.2066 34.3251 32.2066 34.1356V22.964H27.9817V30.1336L24.8131 28.5493L21.6444 30.1336V22.964H17.4195ZM18.0701 35.8414C17.5969 35.8414 17.1942 35.6753 16.8618 35.3429C16.5295 35.0105 16.3633 34.6081 16.3633 34.1356V22.6239C16.3633 22.4183 16.396 22.2246 16.4615 22.043C16.527 21.8613 16.6256 21.6941 16.7573 21.5413L18.4028 19.5661C18.5556 19.3598 18.7468 19.2042 18.9764 19.0993C19.2059 18.9944 19.452 18.9419 19.7147 18.9419H29.8713C30.1332 18.9419 30.3825 18.9944 30.6191 19.0993C30.8557 19.2042 31.0504 19.3595 31.2032 19.5651L32.8689 21.5824C33.0005 21.7352 33.0991 21.906 33.1646 22.0947C33.2301 22.2827 33.2628 22.4799 33.2628 22.6862V34.1356C33.2628 34.6074 33.0967 35.0098 32.7643 35.3429C32.4319 35.6753 32.0295 35.8414 31.557 35.8414H18.0701ZM17.8209 21.9078H31.7841L30.3793 20.2199C30.311 20.1523 30.2329 20.0985 30.1449 20.0583C30.0568 20.0182 29.9653 19.9981 29.8702 19.9981H19.7347C19.6404 19.9981 19.5488 20.0185 19.4601 20.0594C19.3714 20.1002 19.2939 20.1544 19.2278 20.222L17.8209 21.9078ZM22.6996 22.964V28.4067L24.812 27.3505L26.9244 28.4067V22.965L22.6996 22.964Z" fill="black"/>
<path d="M55.9631 22.6675V13.152H60.0932C60.7951 13.152 61.389 13.269 61.8749 13.5029C62.3608 13.7369 62.7297 14.0743 62.9816 14.5152C63.2336 14.9561 63.3595 15.4915 63.3595 16.1214C63.3595 16.7422 63.2336 17.2776 62.9816 17.7275C62.7297 18.1684 62.3608 18.5104 61.8749 18.7533C61.389 18.9873 60.7951 19.1042 60.0932 19.1042H57.6907V22.6675H55.9631ZM57.6907 17.741H59.8233C60.4352 17.741 60.8986 17.6061 61.2135 17.3361C61.5284 17.0572 61.6859 16.6523 61.6859 16.1214C61.6859 15.5905 61.5284 15.1901 61.2135 14.9201C60.8986 14.6502 60.4352 14.5152 59.8233 14.5152H57.6907V17.741ZM67.3268 22.8025C66.6339 22.8025 66.031 22.663 65.5181 22.384C65.0052 22.0961 64.6093 21.6912 64.3304 21.1693C64.0514 20.6474 63.912 20.0355 63.912 19.3337C63.912 18.6318 64.0514 18.029 64.3304 17.5251C64.6093 17.0122 65.0052 16.6208 65.5181 16.3508C66.031 16.0719 66.6339 15.9324 67.3268 15.9324C67.7497 15.9324 68.1681 15.9999 68.582 16.1349C68.9959 16.2698 69.3378 16.4588 69.6078 16.7017L69.1084 17.876C68.8744 17.669 68.609 17.5116 68.312 17.4036C68.0241 17.2956 67.7452 17.2416 67.4752 17.2416C66.8903 17.2416 66.4359 17.4261 66.112 17.795C65.7971 18.1549 65.6396 18.6723 65.6396 19.3472C65.6396 20.013 65.7971 20.5394 66.112 20.9263C66.4359 21.3043 66.8903 21.4932 67.4752 21.4932C67.7362 21.4932 68.0151 21.4392 68.312 21.3313C68.609 21.2233 68.8744 21.0613 69.1084 20.8454L69.6078 22.0331C69.3378 22.2671 68.9914 22.456 68.5685 22.6C68.1546 22.735 67.7407 22.8025 67.3268 22.8025ZM73.0587 22.8025C72.6898 22.8025 72.3299 22.771 71.9789 22.708C71.637 22.645 71.3221 22.5595 71.0341 22.4515C70.7462 22.3346 70.4943 22.1906 70.2783 22.0196L70.7102 20.9129C70.9352 21.0568 71.1781 21.1828 71.4391 21.2908C71.7 21.3987 71.9699 21.4797 72.2489 21.5337C72.5278 21.5877 72.8023 21.6147 73.0722 21.6147C73.5041 21.6147 73.8236 21.5427 74.0305 21.3987C74.2465 21.2458 74.3544 21.0478 74.3544 20.8049C74.3544 20.5979 74.2825 20.4405 74.1385 20.3325C74.0035 20.2155 73.7966 20.13 73.5176 20.076L72.1679 19.8196C71.61 19.7116 71.1826 19.5091 70.8857 19.2122C70.5977 18.9063 70.4538 18.5149 70.4538 18.038C70.4538 17.6061 70.5707 17.2326 70.8047 16.9177C71.0476 16.6028 71.3806 16.3598 71.8035 16.1889C72.2264 16.0179 72.7123 15.9324 73.2612 15.9324C73.5761 15.9324 73.882 15.9639 74.179 16.0269C74.4759 16.0809 74.7549 16.1664 75.0158 16.2833C75.2857 16.3913 75.5197 16.5353 75.7177 16.7152L75.2588 17.822C75.0878 17.678 74.8898 17.5566 74.6649 17.4576C74.4399 17.3496 74.206 17.2686 73.963 17.2146C73.7291 17.1516 73.4996 17.1202 73.2747 17.1202C72.8338 17.1202 72.5053 17.1966 72.2894 17.3496C72.0824 17.5026 71.9789 17.705 71.9789 17.957C71.9789 18.1459 72.0419 18.3034 72.1679 18.4294C72.2939 18.5554 72.4873 18.6408 72.7483 18.6858L74.098 18.9423C74.6829 19.0502 75.1238 19.2482 75.4207 19.5361C75.7267 19.8241 75.8796 20.211 75.8796 20.6969C75.8796 21.1378 75.7626 21.5157 75.5287 21.8307C75.2947 22.1456 74.9663 22.3885 74.5434 22.5595C74.1205 22.7215 73.6256 22.8025 73.0587 22.8025ZM81.033 22.6675V13.152H85.1631C85.865 13.152 86.4588 13.269 86.9447 13.5029C87.4306 13.7369 87.7996 14.0743 88.0515 14.5152C88.3035 14.9561 88.4294 15.4915 88.4294 16.1214C88.4294 16.7422 88.3035 17.2776 88.0515 17.7275C87.7996 18.1684 87.4306 18.5104 86.9447 18.7533C86.4588 18.9873 85.865 19.1042 85.1631 19.1042H82.7606V22.6675H81.033ZM82.7606 17.741H84.8932C85.5051 17.741 85.9685 17.6061 86.2834 17.3361C86.5983 17.0572 86.7558 16.6523 86.7558 16.1214C86.7558 15.5905 86.5983 15.1901 86.2834 14.9201C85.9685 14.6502 85.5051 14.5152 84.8932 14.5152H82.7606V17.741ZM92.5991 22.8025C91.8523 22.8025 91.2089 22.663 90.669 22.384C90.1291 22.1051 89.7107 21.7092 89.4138 21.1963C89.1258 20.6834 88.9819 20.076 88.9819 19.3742C88.9819 18.6903 89.1213 18.0919 89.4003 17.5791C89.6882 17.0662 90.0796 16.6658 90.5745 16.3778C91.0784 16.0809 91.6498 15.9324 92.2887 15.9324C92.9185 15.9324 93.4584 16.0674 93.9083 16.3373C94.3582 16.6073 94.7047 16.9897 94.9476 17.4846C95.1996 17.9795 95.3255 18.5688 95.3255 19.2527V19.7521H90.3451V18.7803H94.1378L93.9218 18.9828C93.9218 18.3709 93.7868 17.903 93.5169 17.5791C93.247 17.2461 92.86 17.0797 92.3562 17.0797C91.9782 17.0797 91.6543 17.1696 91.3844 17.3496C91.1234 17.5206 90.921 17.768 90.777 18.0919C90.642 18.4069 90.5745 18.7848 90.5745 19.2257V19.3202C90.5745 19.8151 90.651 20.2245 90.804 20.5484C90.9569 20.8724 91.1864 21.1153 91.4923 21.2773C91.7983 21.4392 92.1762 21.5202 92.6261 21.5202C92.995 21.5202 93.3639 21.4662 93.7329 21.3583C94.1018 21.2413 94.4392 21.0613 94.7451 20.8184L95.2175 21.9521C94.9026 22.2131 94.5067 22.42 94.0298 22.573C93.5529 22.726 93.076 22.8025 92.5991 22.8025ZM96.6616 22.6675V16.0674H98.3083V17.66H98.1733C98.2993 17.1202 98.5467 16.7107 98.9157 16.4318C99.2846 16.1439 99.775 15.9774 100.387 15.9324L100.9 15.8919L101.008 17.3226L100.036 17.4171C99.487 17.4711 99.0731 17.642 98.7942 17.93C98.5152 18.2089 98.3758 18.6048 98.3758 19.1177V22.6675H96.6616ZM105.747 22.6675V13.152H109.904C110.903 13.152 111.677 13.3724 112.226 13.8134C112.775 14.2453 113.049 14.8481 113.049 15.622C113.049 16.1978 112.882 16.6837 112.55 17.0797C112.217 17.4756 111.762 17.741 111.186 17.876V17.6735C111.627 17.7365 112.005 17.8715 112.32 18.0785C112.635 18.2854 112.873 18.5509 113.035 18.8748C113.206 19.1987 113.292 19.5766 113.292 20.0085C113.292 20.5664 113.161 21.0478 112.9 21.4527C112.649 21.8487 112.28 22.1501 111.794 22.357C111.308 22.564 110.727 22.6675 110.053 22.6675H105.747ZM107.407 21.3583H109.837C110.08 21.3583 110.296 21.3403 110.485 21.3043C110.682 21.2683 110.849 21.2143 110.984 21.1423C111.128 21.0613 111.245 20.9623 111.335 20.8454C111.434 20.7284 111.506 20.5934 111.551 20.4405C111.596 20.2875 111.618 20.1165 111.618 19.9276C111.618 19.7296 111.596 19.5541 111.551 19.4012C111.506 19.2482 111.434 19.1177 111.335 19.0098C111.245 18.8928 111.128 18.7983 110.984 18.7263C110.849 18.6453 110.682 18.5868 110.485 18.5509C110.296 18.5149 110.08 18.4969 109.837 18.4969H107.407V21.3583ZM107.407 17.1876H109.607C110.201 17.1876 110.642 17.0752 110.93 16.8502C111.227 16.6163 111.375 16.2743 111.375 15.8244C111.375 15.3745 111.227 15.0371 110.93 14.8121C110.642 14.5782 110.201 14.4612 109.607 14.4612H107.407V17.1876ZM117.887 22.8025C117.204 22.8025 116.61 22.663 116.106 22.384C115.602 22.1051 115.21 21.7092 114.931 21.1963C114.653 20.6744 114.513 20.0625 114.513 19.3607C114.513 18.6588 114.653 18.0515 114.931 17.5386C115.21 17.0257 115.602 16.6298 116.106 16.3508C116.61 16.0719 117.204 15.9324 117.887 15.9324C118.571 15.9324 119.165 16.0719 119.669 16.3508C120.173 16.6298 120.564 17.0257 120.843 17.5386C121.122 18.0515 121.262 18.6588 121.262 19.3607C121.262 20.0625 121.122 20.6744 120.843 21.1963C120.564 21.7092 120.173 22.1051 119.669 22.384C119.165 22.663 118.571 22.8025 117.887 22.8025ZM117.887 21.5202C118.391 21.5202 118.796 21.3403 119.102 20.9803C119.408 20.6114 119.561 20.0715 119.561 19.3607C119.561 18.6408 119.408 18.1054 119.102 17.7545C118.796 17.3946 118.391 17.2146 117.887 17.2146C117.383 17.2146 116.979 17.3946 116.673 17.7545C116.367 18.1054 116.214 18.6408 116.214 19.3607C116.214 20.0715 116.367 20.6114 116.673 20.9803C116.979 21.3403 117.383 21.5202 117.887 21.5202ZM121.565 22.6675L124.656 18.8613V19.6576L121.74 16.0674H123.711L125.601 18.4834H125.007L126.896 16.0674H128.867L125.952 19.6441V18.8883L129.042 22.6675H127.058L125.007 20.076H125.574L123.536 22.6675H121.565Z" fill="black"/>
<path d="M57.9944 42.1092C57.432 42.1092 56.8959 42.0193 56.386 41.8393C55.8761 41.6518 55.4712 41.4044 55.1713 41.0969L55.5649 40.4558C55.8124 40.7183 56.1498 40.9357 56.5772 41.1082C57.0121 41.2807 57.4808 41.3669 57.9832 41.3669C58.6505 41.3669 59.1567 41.2207 59.5016 40.9282C59.854 40.6283 60.0302 40.2384 60.0302 39.7585C60.0302 39.4211 59.9478 39.1324 59.7828 38.8924C59.6253 38.645 59.3554 38.4538 58.973 38.3188C58.5906 38.1838 58.0657 38.1163 57.3983 38.1163H55.7224L56.1273 34.1684H60.4352V34.8883H56.4535L56.8697 34.4946L56.521 37.8014L56.1048 37.3965H57.5783C58.3731 37.3965 59.0105 37.494 59.4904 37.6889C59.9703 37.8839 60.3152 38.1576 60.5251 38.51C60.7426 38.8549 60.8513 39.2598 60.8513 39.7247C60.8513 40.1671 60.7463 40.5721 60.5364 40.9395C60.3264 41.2994 60.0115 41.5843 59.5916 41.7943C59.1717 42.0043 58.6393 42.1092 57.9944 42.1092ZM65.0175 42.1092C64.4101 42.1092 63.8703 41.9518 63.3979 41.6368C62.9255 41.3144 62.5543 40.857 62.2843 40.2646C62.0144 39.6648 61.8794 38.9449 61.8794 38.1051C61.8794 37.2653 62.0144 36.5492 62.2843 35.9568C62.5543 35.3569 62.9255 34.8995 63.3979 34.5846C63.8703 34.2621 64.4101 34.1009 65.0175 34.1009C65.6249 34.1009 66.1648 34.2621 66.6372 34.5846C67.1096 34.8995 67.4807 35.3569 67.7507 35.9568C68.0281 36.5492 68.1668 37.2653 68.1668 38.1051C68.1668 38.9449 68.0281 39.6648 67.7507 40.2646C67.4807 40.857 67.1096 41.3144 66.6372 41.6368C66.1648 41.9518 65.6249 42.1092 65.0175 42.1092ZM65.0175 41.3669C65.4824 41.3669 65.8873 41.2432 66.2323 40.9957C66.5772 40.7408 66.8471 40.3734 67.0421 39.8935C67.237 39.4061 67.3345 38.8099 67.3345 38.1051C67.3345 37.4002 67.237 36.8079 67.0421 36.328C66.8471 35.8406 66.5772 35.4731 66.2323 35.2257C65.8873 34.9707 65.4824 34.8433 65.0175 34.8433C64.5676 34.8433 64.1664 34.9707 63.814 35.2257C63.4616 35.4731 63.1879 35.8406 62.9929 36.328C62.798 36.8079 62.7005 37.4002 62.7005 38.1051C62.7005 38.8099 62.798 39.4061 62.9929 39.8935C63.1879 40.3734 63.4616 40.7408 63.814 40.9957C64.1664 41.2432 64.5676 41.3669 65.0175 41.3669ZM72.4647 42.1092C71.8573 42.1092 71.3174 41.9518 70.845 41.6368C70.3726 41.3144 70.0014 40.857 69.7315 40.2646C69.4616 39.6648 69.3266 38.9449 69.3266 38.1051C69.3266 37.2653 69.4616 36.5492 69.7315 35.9568C70.0014 35.3569 70.3726 34.8995 70.845 34.5846C71.3174 34.2621 71.8573 34.1009 72.4647 34.1009C73.072 34.1009 73.6119 34.2621 74.0843 34.5846C74.5567 34.8995 74.9279 35.3569 75.1978 35.9568C75.4753 36.5492 75.614 37.2653 75.614 38.1051C75.614 38.9449 75.4753 39.6648 75.1978 40.2646C74.9279 40.857 74.5567 41.3144 74.0843 41.6368C73.6119 41.9518 73.072 42.1092 72.4647 42.1092ZM72.4647 41.3669C72.9296 41.3669 73.3345 41.2432 73.6794 40.9957C74.0243 40.7408 74.2943 40.3734 74.4892 39.8935C74.6842 39.4061 74.7817 38.8099 74.7817 38.1051C74.7817 37.4002 74.6842 36.8079 74.4892 36.328C74.2943 35.8406 74.0243 35.4731 73.6794 35.2257C73.3345 34.9707 72.9296 34.8433 72.4647 34.8433C72.0148 34.8433 71.6136 34.9707 71.2612 35.2257C70.9087 35.4731 70.6351 35.8406 70.4401 36.328C70.2451 36.8079 70.1477 37.4002 70.1477 38.1051C70.1477 38.8099 70.2451 39.4061 70.4401 39.8935C70.6351 40.3734 70.9087 40.7408 71.2612 40.9957C71.6136 41.2432 72.0148 41.3669 72.4647 41.3669ZM80.4148 42.0417V34.1684H81.1009L86.5335 41.007H86.1736V34.1684H86.9947V42.0417H86.3086L80.8872 35.2032H81.2471V42.0417H80.4148ZM91.8028 42.098C91.2329 42.098 90.7192 41.9705 90.2618 41.7156C89.8119 41.4531 89.4558 41.0969 89.1933 40.647C88.9309 40.1896 88.7996 39.6685 88.7996 39.0836C88.7996 38.4912 88.9309 37.9701 89.1933 37.5202C89.4558 37.0703 89.8119 36.7179 90.2618 36.4629C90.7117 36.208 91.2254 36.0805 91.8028 36.0805C92.3876 36.0805 92.905 36.208 93.3549 36.4629C93.8123 36.7179 94.1685 37.0703 94.4235 37.5202C94.6859 37.9701 94.8171 38.4912 94.8171 39.0836C94.8171 39.6685 94.6859 40.1896 94.4235 40.647C94.1685 41.0969 93.8123 41.4531 93.3549 41.7156C92.8975 41.9705 92.3801 42.098 91.8028 42.098ZM91.8028 41.3894C92.2302 41.3894 92.6088 41.2957 92.9388 41.1082C93.2687 40.9132 93.5274 40.6433 93.7149 40.2984C93.9098 39.9459 94.0073 39.541 94.0073 39.0836C94.0073 38.6187 93.9098 38.2138 93.7149 37.8689C93.5274 37.524 93.2687 37.2578 92.9388 37.0703C92.6088 36.8753 92.2339 36.7779 91.814 36.7779C91.3941 36.7779 91.0192 36.8753 90.6892 37.0703C90.3593 37.2578 90.0969 37.524 89.9019 37.8689C89.7069 38.2138 89.6095 38.6187 89.6095 39.0836C89.6095 39.541 89.7069 39.9459 89.9019 40.2984C90.0969 40.6433 90.3593 40.9132 90.6892 41.1082C91.0192 41.2957 91.3903 41.3894 91.8028 41.3894ZM98.0334 42.098C97.546 42.098 97.0849 42.0305 96.65 41.8955C96.215 41.7531 95.8739 41.5768 95.6264 41.3669L95.9863 40.737C96.2263 40.917 96.5337 41.0745 96.9086 41.2094C97.2836 41.3369 97.6772 41.4006 98.0896 41.4006C98.652 41.4006 99.0569 41.3144 99.3044 41.1419C99.5518 40.962 99.6756 40.7258 99.6756 40.4333C99.6756 40.2159 99.6043 40.0472 99.4619 39.9272C99.3269 39.7997 99.1469 39.706 98.922 39.646C98.697 39.5785 98.4458 39.5223 98.1684 39.4773C97.8909 39.4323 97.6135 39.3798 97.3361 39.3198C97.0661 39.2598 96.8187 39.1736 96.5937 39.0611C96.3688 38.9412 96.1851 38.7799 96.0426 38.5775C95.9076 38.375 95.8401 38.1051 95.8401 37.7677C95.8401 37.4452 95.9301 37.1565 96.1101 36.9016C96.29 36.6466 96.5525 36.4479 96.8974 36.3055C97.2498 36.1555 97.6772 36.0805 98.1796 36.0805C98.562 36.0805 98.9445 36.133 99.3269 36.238C99.7093 36.3355 100.024 36.4667 100.272 36.6316L99.923 37.2728C99.6606 37.0928 99.3794 36.9653 99.0794 36.8903C98.7795 36.8079 98.4796 36.7666 98.1796 36.7666C97.6472 36.7666 97.2536 36.8603 96.9986 37.0478C96.7512 37.2278 96.6275 37.4602 96.6275 37.7452C96.6275 37.9701 96.6949 38.1463 96.8299 38.2738C96.9724 38.4013 97.1561 38.5025 97.381 38.5775C97.6135 38.645 97.8647 38.7012 98.1346 38.7462C98.4121 38.7912 98.6858 38.8474 98.9557 38.9149C99.2332 38.9749 99.4844 39.0611 99.7093 39.1736C99.9418 39.2786 100.125 39.4323 100.26 39.6348C100.403 39.8297 100.474 40.0884 100.474 40.4108C100.474 40.7558 100.377 41.0557 100.182 41.3107C99.9942 41.5581 99.7168 41.7531 99.3494 41.8955C98.9895 42.0305 98.5508 42.098 98.0334 42.098ZM100.545 43.1665L104.257 32.5713H104.988L101.276 43.1665H100.545ZM107.39 42.098C106.805 42.098 106.28 41.9705 105.815 41.7156C105.358 41.4531 104.998 41.0969 104.736 40.647C104.473 40.1896 104.342 39.6685 104.342 39.0836C104.342 38.4912 104.473 37.9701 104.736 37.5202C104.998 37.0703 105.358 36.7179 105.815 36.4629C106.28 36.208 106.805 36.0805 107.39 36.0805C107.893 36.0805 108.346 36.178 108.751 36.3729C109.156 36.5679 109.475 36.8603 109.707 37.2503L109.111 37.6552C108.909 37.3552 108.657 37.134 108.357 36.9916C108.057 36.8491 107.731 36.7779 107.379 36.7779C106.959 36.7779 106.58 36.8753 106.243 37.0703C105.905 37.2578 105.639 37.524 105.444 37.8689C105.249 38.2138 105.152 38.6187 105.152 39.0836C105.152 39.5485 105.249 39.9534 105.444 40.2984C105.639 40.6433 105.905 40.9132 106.243 41.1082C106.58 41.2957 106.959 41.3894 107.379 41.3894C107.731 41.3894 108.057 41.3182 108.357 41.1757C108.657 41.0332 108.909 40.8158 109.111 40.5233L109.707 40.9282C109.475 41.3107 109.156 41.6031 108.751 41.8055C108.346 42.0005 107.893 42.098 107.39 42.098ZM113.209 42.098C112.654 42.098 112.227 41.948 111.927 41.6481C111.627 41.3481 111.477 40.9245 111.477 40.3771V34.832H112.275V40.3321C112.275 40.677 112.362 40.9432 112.534 41.1307C112.714 41.3182 112.969 41.4119 113.299 41.4119C113.651 41.4119 113.944 41.3107 114.176 41.1082L114.457 41.6818C114.3 41.8243 114.109 41.9293 113.884 41.9968C113.666 42.0642 113.441 42.098 113.209 42.098ZM110.42 36.8004V36.1367H114.075V36.8004H110.42ZM118.926 36.0805C119.405 36.0805 119.825 36.1742 120.185 36.3617C120.553 36.5417 120.838 36.8191 121.04 37.194C121.25 37.5689 121.355 38.0413 121.355 38.6112V42.0417H120.556V38.69C120.556 38.0676 120.399 37.5989 120.084 37.284C119.777 36.9616 119.342 36.8004 118.779 36.8004C118.359 36.8004 117.992 36.8866 117.677 37.0591C117.37 37.224 117.13 37.4677 116.957 37.7901C116.792 38.1051 116.71 38.4875 116.71 38.9374V42.0417H115.911V36.1367H116.676V37.7564L116.552 37.4527C116.74 37.0253 117.04 36.6916 117.452 36.4517C117.864 36.2042 118.356 36.0805 118.926 36.0805Z" fill="black"/>
<defs>
<filter id="filter0_d_1844_1655" x="-0.000781059" y="-4.86374e-05" width="48.6422" height="48.7096" filterUnits="userSpaceOnUse" color-interpolation-filters="sRGB">
<feFlood flood-opacity="0" result="BackgroundImageFix"/>
<feColorMatrix in="SourceAlpha" type="matrix" values="0 0 0 0 0 0 0 0 0 0 0 0 0 0 0 0 0 0 127 0" result="hardAlpha"/>
<feOffset dy="-3"/>
<feGaussianBlur stdDeviation="2.1"/>
<feComposite in2="hardAlpha" operator="out"/>
<feColorMatrix type="matrix" values="0 0 0 0 0 0 0 0 0 0 0 0 0 0 0 0 0 0 0.25 0"/>
<feBlend mode="normal" in2="BackgroundImageFix" result="effect1_dropShadow_1844_1655"/>
<feBlend mode="normal" in="SourceGraphic" in2="effect1_dropShadow_1844_1655" result="shape"/>
</filter>
</defs>
</svg>
