<svg width="165" height="50" viewBox="0 0 165 50" fill="none" xmlns="http://www.w3.org/2000/svg">
<g filter="url(#filter0_d_2040_1097)">
<rect x="24.1406" y="4.7168" width="33" height="31" rx="6" transform="rotate(46.3303 24.1406 4.7168)" fill="white"/>
</g>
<path d="M20.1982 21.1045H28.2373C28.4651 21.1045 28.6809 21.2079 28.8232 21.3857L30.3037 23.2363C30.4101 23.3693 30.4677 23.5348 30.4678 23.7051V33.3545C30.4678 33.7687 30.132 34.1045 29.7178 34.1045H18.7178C18.3036 34.1045 17.9678 33.7687 17.9678 33.3545V23.7051C17.9678 23.5348 18.0255 23.3693 18.1318 23.2363L19.6123 21.3857C19.7546 21.2079 19.9705 21.1045 20.1982 21.1045Z" stroke="black" stroke-width="0.5"/>
<path d="M18.2178 23.3545H30.2178" stroke="black" stroke-width="0.5"/>
<path d="M26.4678 23.6045V29.834L24.374 28.1592L24.2178 28.0342L24.0615 28.1592L21.9678 29.834V23.6045H26.4678Z" stroke="black" stroke-width="0.5"/>
<path d="M55.967 22.667V13.1515H60.0971C60.799 13.1515 61.3929 13.2685 61.8788 13.5024C62.3647 13.7364 62.7336 14.0738 62.9855 14.5147C63.2375 14.9556 63.3634 15.491 63.3634 16.1209C63.3634 16.7417 63.2375 17.2771 62.9855 17.727C62.7336 18.1679 62.3647 18.5099 61.8788 18.7528C61.3929 18.9868 60.799 19.1037 60.0971 19.1037H57.6946V22.667H55.967ZM57.6946 17.7405H59.8272C60.4391 17.7405 60.9025 17.6056 61.2174 17.3356C61.5323 17.0567 61.6898 16.6518 61.6898 16.1209C61.6898 15.59 61.5323 15.1896 61.2174 14.9196C60.9025 14.6497 60.4391 14.5147 59.8272 14.5147H57.6946V17.7405ZM67.3307 22.802C66.6378 22.802 66.0349 22.6625 65.522 22.3836C65.0092 22.0956 64.6132 21.6907 64.3343 21.1688C64.0554 20.6469 63.9159 20.035 63.9159 19.3332C63.9159 18.6313 64.0554 18.0285 64.3343 17.5246C64.6132 17.0117 65.0092 16.6203 65.522 16.3503C66.0349 16.0714 66.6378 15.9319 67.3307 15.9319C67.7536 15.9319 68.172 15.9994 68.5859 16.1344C68.9998 16.2693 69.3417 16.4583 69.6117 16.7013L69.1123 17.8755C68.8783 17.6685 68.6129 17.5111 68.316 17.4031C68.028 17.2951 67.7491 17.2411 67.4791 17.2411C66.8943 17.2411 66.4398 17.4256 66.1159 17.7945C65.801 18.1544 65.6435 18.6718 65.6435 19.3467C65.6435 20.0126 65.801 20.5389 66.1159 20.9259C66.4398 21.3038 66.8943 21.4927 67.4791 21.4927C67.7401 21.4927 68.019 21.4388 68.316 21.3308C68.6129 21.2228 68.8783 21.0608 69.1123 20.8449L69.6117 22.0326C69.3417 22.2666 68.9953 22.4555 68.5724 22.5995C68.1585 22.7345 67.7446 22.802 67.3307 22.802ZM73.0626 22.802C72.6937 22.802 72.3338 22.7705 71.9829 22.7075C71.6409 22.6445 71.326 22.559 71.0381 22.451C70.7501 22.3341 70.4982 22.1901 70.2822 22.0191L70.7141 20.9124C70.9391 21.0563 71.182 21.1823 71.443 21.2903C71.7039 21.3983 71.9739 21.4792 72.2528 21.5332C72.5317 21.5872 72.8062 21.6142 73.0761 21.6142C73.508 21.6142 73.8275 21.5422 74.0344 21.3983C74.2504 21.2453 74.3583 21.0473 74.3583 20.8044C74.3583 20.5974 74.2864 20.44 74.1424 20.332C74.0074 20.215 73.8005 20.1295 73.5215 20.0755L72.1718 19.8191C71.6139 19.7111 71.1865 19.5087 70.8896 19.2117C70.6016 18.9058 70.4577 18.5144 70.4577 18.0375C70.4577 17.6056 70.5746 17.2321 70.8086 16.9172C71.0515 16.6023 71.3845 16.3593 71.8074 16.1884C72.2303 16.0174 72.7162 15.9319 73.2651 15.9319C73.58 15.9319 73.8859 15.9634 74.1829 16.0264C74.4798 16.0804 74.7588 16.1659 75.0197 16.2828C75.2897 16.3908 75.5236 16.5348 75.7216 16.7148L75.2627 17.8215C75.0917 17.6775 74.8937 17.5561 74.6688 17.4571C74.4438 17.3491 74.2099 17.2681 73.9669 17.2141C73.733 17.1512 73.5035 17.1197 73.2786 17.1197C72.8377 17.1197 72.5092 17.1961 72.2933 17.3491C72.0863 17.5021 71.9829 17.7045 71.9829 17.9565C71.9829 18.1454 72.0458 18.3029 72.1718 18.4289C72.2978 18.5549 72.4912 18.6403 72.7522 18.6853L74.1019 18.9418C74.6868 19.0498 75.1277 19.2477 75.4246 19.5357C75.7306 19.8236 75.8835 20.2105 75.8835 20.6964C75.8835 21.1373 75.7666 21.5152 75.5326 21.8302C75.2986 22.1451 74.9702 22.3881 74.5473 22.559C74.1244 22.721 73.6295 22.802 73.0626 22.802ZM81.0369 22.667V13.1515H85.167C85.8689 13.1515 86.4628 13.2685 86.9487 13.5024C87.4345 13.7364 87.8035 14.0738 88.0554 14.5147C88.3074 14.9556 88.4333 15.491 88.4333 16.1209C88.4333 16.7417 88.3074 17.2771 88.0554 17.727C87.8035 18.1679 87.4345 18.5099 86.9487 18.7528C86.4628 18.9868 85.8689 19.1037 85.167 19.1037H82.7645V22.667H81.0369ZM82.7645 17.7405H84.8971C85.509 17.7405 85.9724 17.6056 86.2873 17.3356C86.6022 17.0567 86.7597 16.6518 86.7597 16.1209C86.7597 15.59 86.6022 15.1896 86.2873 14.9196C85.9724 14.6497 85.509 14.5147 84.8971 14.5147H82.7645V17.7405ZM92.603 22.802C91.8562 22.802 91.2128 22.6625 90.6729 22.3836C90.133 22.1046 89.7146 21.7087 89.4177 21.1958C89.1297 20.6829 88.9858 20.0755 88.9858 19.3737C88.9858 18.6898 89.1252 18.0915 89.4042 17.5786C89.6921 17.0657 90.0835 16.6653 90.5784 16.3773C91.0823 16.0804 91.6537 15.9319 92.2926 15.9319C92.9224 15.9319 93.4623 16.0669 93.9122 16.3368C94.3621 16.6068 94.7086 16.9892 94.9515 17.4841C95.2035 17.979 95.3294 18.5684 95.3294 19.2522V19.7516H90.349V18.7798H94.1417L93.9257 18.9823C93.9257 18.3704 93.7908 17.9025 93.5208 17.5786C93.2509 17.2456 92.864 17.0792 92.3601 17.0792C91.9821 17.0792 91.6582 17.1692 91.3883 17.3491C91.1273 17.5201 90.9249 17.7675 90.7809 18.0915C90.6459 18.4064 90.5784 18.7843 90.5784 19.2252V19.3197C90.5784 19.8146 90.6549 20.224 90.8079 20.5479C90.9609 20.8719 91.1903 21.1148 91.4962 21.2768C91.8022 21.4388 92.1801 21.5197 92.63 21.5197C92.9989 21.5197 93.3678 21.4657 93.7368 21.3578C94.1057 21.2408 94.4431 21.0608 94.7491 20.8179L95.2215 21.9516C94.9065 22.2126 94.5106 22.4195 94.0337 22.5725C93.5568 22.7255 93.0799 22.802 92.603 22.802ZM96.6655 22.667V16.0669H98.3122V17.6596H98.1772C98.3032 17.1197 98.5506 16.7103 98.9196 16.4313C99.2885 16.1434 99.7789 15.9769 100.391 15.9319L100.904 15.8914L101.012 17.3221L100.04 17.4166C99.4909 17.4706 99.077 17.6416 98.7981 17.9295C98.5191 18.2084 98.3797 18.6044 98.3797 19.1172V22.667H96.6655ZM105.751 22.667V13.1515H109.908C110.907 13.1515 111.681 13.372 112.23 13.8129C112.778 14.2448 113.053 14.8476 113.053 15.6215C113.053 16.1974 112.886 16.6833 112.553 17.0792C112.221 17.4751 111.766 17.7405 111.19 17.8755V17.673C111.631 17.736 112.009 17.871 112.324 18.078C112.639 18.2849 112.877 18.5504 113.039 18.8743C113.21 19.1982 113.296 19.5761 113.296 20.0081C113.296 20.5659 113.165 21.0473 112.904 21.4522C112.652 21.8482 112.284 22.1496 111.798 22.3566C111.312 22.5635 110.731 22.667 110.057 22.667H105.751ZM107.411 21.3578H109.841C110.083 21.3578 110.299 21.3398 110.488 21.3038C110.686 21.2678 110.853 21.2138 110.988 21.1418C111.132 21.0608 111.249 20.9619 111.339 20.8449C111.438 20.7279 111.51 20.5929 111.555 20.44C111.6 20.287 111.622 20.116 111.622 19.9271C111.622 19.7291 111.6 19.5537 111.555 19.4007C111.51 19.2477 111.438 19.1172 111.339 19.0093C111.249 18.8923 111.132 18.7978 110.988 18.7258C110.853 18.6448 110.686 18.5864 110.488 18.5504C110.299 18.5144 110.083 18.4964 109.841 18.4964H107.411V21.3578ZM107.411 17.1872H109.611C110.205 17.1872 110.646 17.0747 110.934 16.8497C111.231 16.6158 111.379 16.2738 111.379 15.8239C111.379 15.374 111.231 15.0366 110.934 14.8117C110.646 14.5777 110.205 14.4607 109.611 14.4607H107.411V17.1872ZM117.891 22.802C117.207 22.802 116.614 22.6625 116.11 22.3836C115.606 22.1046 115.214 21.7087 114.935 21.1958C114.656 20.6739 114.517 20.062 114.517 19.3602C114.517 18.6583 114.656 18.051 114.935 17.5381C115.214 17.0252 115.606 16.6293 116.11 16.3503C116.614 16.0714 117.207 15.9319 117.891 15.9319C118.575 15.9319 119.169 16.0714 119.673 16.3503C120.177 16.6293 120.568 17.0252 120.847 17.5381C121.126 18.051 121.266 18.6583 121.266 19.3602C121.266 20.062 121.126 20.6739 120.847 21.1958C120.568 21.7087 120.177 22.1046 119.673 22.3836C119.169 22.6625 118.575 22.802 117.891 22.802ZM117.891 21.5197C118.395 21.5197 118.8 21.3398 119.106 20.9798C119.412 20.6109 119.565 20.071 119.565 19.3602C119.565 18.6403 119.412 18.105 119.106 17.754C118.8 17.3941 118.395 17.2141 117.891 17.2141C117.387 17.2141 116.982 17.3941 116.677 17.754C116.371 18.105 116.218 18.6403 116.218 19.3602C116.218 20.071 116.371 20.6109 116.677 20.9798C116.982 21.3398 117.387 21.5197 117.891 21.5197ZM121.569 22.667L124.66 18.8608V19.6571L121.744 16.0669H123.715L125.605 18.4829H125.011L126.9 16.0669H128.871L125.956 19.6436V18.8878L129.046 22.667H127.062L125.011 20.0755H125.578L123.54 22.667H121.569Z" fill="black"/>
<path d="M56.8848 42.041V34.5051L57.2447 34.8875H55.029V34.1677H57.6946V42.041H56.8848ZM60.9601 42.041L64.3569 34.5276L64.6044 34.8875H59.7342L60.1503 34.4939V36.361H59.3517V34.1677H65.133V34.7413L61.8375 42.041H60.9601ZM69.1185 42.1085C68.5111 42.1085 67.9712 41.951 67.4988 41.6361C67.0264 41.3137 66.6552 40.8563 66.3853 40.2639C66.1153 39.664 65.9804 38.9442 65.9804 38.1043C65.9804 37.2645 66.1153 36.5484 66.3853 35.9561C66.6552 35.3562 67.0264 34.8988 67.4988 34.5838C67.9712 34.2614 68.5111 34.1002 69.1185 34.1002C69.7258 34.1002 70.2657 34.2614 70.7381 34.5838C71.2105 34.8988 71.5817 35.3562 71.8516 35.9561C72.1291 36.5484 72.2678 37.2645 72.2678 38.1043C72.2678 38.9442 72.1291 39.664 71.8516 40.2639C71.5817 40.8563 71.2105 41.3137 70.7381 41.6361C70.2657 41.951 69.7258 42.1085 69.1185 42.1085ZM69.1185 41.3662C69.5834 41.3662 69.9883 41.2424 70.3332 40.995C70.6781 40.74 70.9481 40.3726 71.143 39.8927C71.338 39.4053 71.4355 38.8092 71.4355 38.1043C71.4355 37.3995 71.338 36.8071 71.143 36.3272C70.9481 35.8398 70.6781 35.4724 70.3332 35.225C69.9883 34.97 69.5834 34.8425 69.1185 34.8425C68.6685 34.8425 68.2674 34.97 67.915 35.225C67.5625 35.4724 67.2888 35.8398 67.0939 36.3272C66.8989 36.8071 66.8014 37.3995 66.8014 38.1043C66.8014 38.8092 66.8989 39.4053 67.0939 39.8927C67.2888 40.3726 67.5625 40.74 67.915 40.995C68.2674 41.2424 68.6685 41.3662 69.1185 41.3662ZM77.0686 42.041V34.1677H77.7547L83.1873 41.0062H82.8274V34.1677H83.6484V42.041H82.9623L77.541 35.2025H77.9009V42.041H77.0686ZM88.4565 42.0973C87.8867 42.0973 87.373 41.9698 86.9156 41.7148C86.4657 41.4524 86.1095 41.0962 85.8471 40.6463C85.5846 40.1889 85.4534 39.6678 85.4534 39.0829C85.4534 38.4905 85.5846 37.9694 85.8471 37.5195C86.1095 37.0696 86.4657 36.7171 86.9156 36.4622C87.3655 36.2072 87.8792 36.0798 88.4565 36.0798C89.0414 36.0798 89.5588 36.2072 90.0087 36.4622C90.4661 36.7171 90.8223 37.0696 91.0772 37.5195C91.3397 37.9694 91.4709 38.4905 91.4709 39.0829C91.4709 39.6678 91.3397 40.1889 91.0772 40.6463C90.8223 41.0962 90.4661 41.4524 90.0087 41.7148C89.5513 41.9698 89.0339 42.0973 88.4565 42.0973ZM88.4565 41.3887C88.884 41.3887 89.2626 41.2949 89.5926 41.1075C89.9225 40.9125 90.1812 40.6426 90.3686 40.2976C90.5636 39.9452 90.6611 39.5403 90.6611 39.0829C90.6611 38.618 90.5636 38.2131 90.3686 37.8681C90.1812 37.5232 89.9225 37.257 89.5926 37.0696C89.2626 36.8746 88.8877 36.7771 88.4678 36.7771C88.0479 36.7771 87.673 36.8746 87.343 37.0696C87.0131 37.257 86.7507 37.5232 86.5557 37.8681C86.3607 38.2131 86.2633 38.618 86.2633 39.0829C86.2633 39.5403 86.3607 39.9452 86.5557 40.2976C86.7507 40.6426 87.0131 40.9125 87.343 41.1075C87.673 41.2949 88.0441 41.3887 88.4565 41.3887ZM94.6872 42.0973C94.1998 42.0973 93.7386 42.0298 93.3037 41.8948C92.8688 41.7523 92.5277 41.5761 92.2802 41.3662L92.6401 40.7363C92.8801 40.9163 93.1875 41.0737 93.5624 41.2087C93.9374 41.3362 94.331 41.3999 94.7434 41.3999C95.3058 41.3999 95.7107 41.3137 95.9582 41.1412C96.2056 40.9612 96.3293 40.725 96.3293 40.4326C96.3293 40.2152 96.2581 40.0464 96.1156 39.9265C95.9807 39.799 95.8007 39.7053 95.5758 39.6453C95.3508 39.5778 95.0996 39.5215 94.8222 39.4766C94.5447 39.4316 94.2673 39.3791 93.9898 39.3191C93.7199 39.2591 93.4725 39.1729 93.2475 39.0604C93.0225 38.9404 92.8388 38.7792 92.6964 38.5767C92.5614 38.3743 92.4939 38.1043 92.4939 37.7669C92.4939 37.4445 92.5839 37.1558 92.7639 36.9009C92.9438 36.6459 93.2063 36.4472 93.5512 36.3047C93.9036 36.1548 94.331 36.0798 94.8334 36.0798C95.2158 36.0798 95.5983 36.1323 95.9807 36.2372C96.3631 36.3347 96.678 36.4659 96.9255 36.6309L96.5768 37.272C96.3144 37.0921 96.0332 36.9646 95.7332 36.8896C95.4333 36.8071 95.1334 36.7659 94.8334 36.7659C94.301 36.7659 93.9074 36.8596 93.6524 37.0471C93.405 37.227 93.2812 37.4595 93.2812 37.7444C93.2812 37.9694 93.3487 38.1456 93.4837 38.2731C93.6262 38.4005 93.8099 38.5018 94.0348 38.5767C94.2673 38.6442 94.5185 38.7005 94.7884 38.7455C95.0659 38.7905 95.3396 38.8467 95.6095 38.9142C95.8869 38.9742 96.1381 39.0604 96.3631 39.1729C96.5955 39.2778 96.7793 39.4316 96.9142 39.634C97.0567 39.829 97.1279 40.0877 97.1279 40.4101C97.1279 40.755 97.0304 41.055 96.8355 41.3099C96.648 41.5574 96.3706 41.7523 96.0032 41.8948C95.6432 42.0298 95.2046 42.0973 94.6872 42.0973ZM97.1986 43.1658L100.91 32.5705H101.641L97.9297 43.1658H97.1986ZM104.044 42.0973C103.459 42.0973 102.934 41.9698 102.469 41.7148C102.012 41.4524 101.652 41.0962 101.389 40.6463C101.127 40.1889 100.996 39.6678 100.996 39.0829C100.996 38.4905 101.127 37.9694 101.389 37.5195C101.652 37.0696 102.012 36.7171 102.469 36.4622C102.934 36.2072 103.459 36.0798 104.044 36.0798C104.546 36.0798 105 36.1773 105.405 36.3722C105.81 36.5672 106.128 36.8596 106.361 37.2495L105.765 37.6544C105.562 37.3545 105.311 37.1333 105.011 36.9908C104.711 36.8484 104.385 36.7771 104.033 36.7771C103.613 36.7771 103.234 36.8746 102.897 37.0696C102.559 37.257 102.293 37.5232 102.098 37.8681C101.903 38.2131 101.806 38.618 101.806 39.0829C101.806 39.5478 101.903 39.9527 102.098 40.2976C102.293 40.6426 102.559 40.9125 102.897 41.1075C103.234 41.2949 103.613 41.3887 104.033 41.3887C104.385 41.3887 104.711 41.3174 105.011 41.1749C105.311 41.0325 105.562 40.815 105.765 40.5226L106.361 40.9275C106.128 41.3099 105.81 41.6024 105.405 41.8048C105 41.9998 104.546 42.0973 104.044 42.0973ZM109.863 42.0973C109.308 42.0973 108.88 41.9473 108.58 41.6473C108.281 41.3474 108.131 40.9238 108.131 40.3764V34.8313H108.929V40.3314C108.929 40.6763 109.015 40.9425 109.188 41.13C109.368 41.3174 109.623 41.4111 109.953 41.4111C110.305 41.4111 110.598 41.3099 110.83 41.1075L111.111 41.6811C110.954 41.8236 110.763 41.9285 110.538 41.996C110.32 42.0635 110.095 42.0973 109.863 42.0973ZM107.073 36.7996V36.136H110.729V36.7996H107.073ZM115.579 36.0798C116.059 36.0798 116.479 36.1735 116.839 36.361C117.206 36.5409 117.491 36.8184 117.694 37.1933C117.904 37.5682 118.009 38.0406 118.009 38.6105V42.041H117.21V38.6892C117.21 38.0669 117.053 37.5982 116.738 37.2833C116.43 36.9608 115.995 36.7996 115.433 36.7996C115.013 36.7996 114.646 36.8859 114.331 37.0583C114.023 37.2233 113.783 37.467 113.611 37.7894C113.446 38.1043 113.364 38.4868 113.364 38.9367V42.041H112.565V36.136H113.33V37.7557L113.206 37.452C113.394 37.0246 113.693 36.6909 114.106 36.4509C114.518 36.2035 115.009 36.0798 115.579 36.0798Z" fill="black"/>
<defs>
<filter id="filter0_d_2040_1097" x="0.000195503" y="0.000195503" width="48.6441" height="48.7096" filterUnits="userSpaceOnUse" color-interpolation-filters="sRGB">
<feFlood flood-opacity="0" result="BackgroundImageFix"/>
<feColorMatrix in="SourceAlpha" type="matrix" values="0 0 0 0 0 0 0 0 0 0 0 0 0 0 0 0 0 0 127 0" result="hardAlpha"/>
<feOffset dy="-3"/>
<feGaussianBlur stdDeviation="2.1"/>
<feComposite in2="hardAlpha" operator="out"/>
<feColorMatrix type="matrix" values="0 0 0 0 0 0 0 0 0 0 0 0 0 0 0 0 0 0 0.25 0"/>
<feBlend mode="normal" in2="BackgroundImageFix" result="effect1_dropShadow_2040_1097"/>
<feBlend mode="normal" in="SourceGraphic" in2="effect1_dropShadow_2040_1097" result="shape"/>
</filter>
</defs>
</svg>
