<svg width="326" height="76" viewBox="0 0 326 76" fill="none" xmlns="http://www.w3.org/2000/svg">
<path d="M3.05146 46.5854L3.00997 21.5L13.8683 21.4803C16.1141 21.4762 18.0498 21.843 19.6756 22.5807C21.3014 23.2945 22.5574 24.3314 23.4436 25.6916C24.3298 27.0518 24.7745 28.6756 24.7776 30.5629C24.7807 32.4264 24.3414 34.0399 23.4597 35.4032C22.5779 36.7427 21.3253 37.7723 19.702 38.492C18.0786 39.2116 16.144 39.5735 13.8983 39.5776L6.26516 39.5914L8.84116 37.0424L8.85692 46.5748L3.05146 46.5854ZM18.9986 46.5564L12.7122 37.4654L18.9118 37.4542L25.2699 46.545L18.9986 46.5564ZM8.84222 37.6874L6.25751 34.9686L13.5681 34.9553C15.3599 34.9521 16.6972 34.5674 17.5799 33.8013C18.4625 33.0113 18.9027 31.9354 18.9005 30.5736C18.8982 29.1879 18.4544 28.1137 17.5692 27.3507C16.684 26.5878 15.3454 26.208 13.5536 26.2113L6.24305 26.2245L8.81869 23.4605L8.84222 37.6874ZM33.1306 46.5308L33.0927 23.5956L35.6054 26.0996L28.0798 26.1132L28.0721 21.4545L38.8946 21.4349L38.9361 46.5202L33.1306 46.5308ZM55.4789 46.9203C53.4242 46.924 51.5838 46.4256 49.9576 45.4252C48.3313 44.4008 47.0507 42.9219 46.1158 40.9884C45.1808 39.055 44.7111 36.7145 44.7065 33.9671C44.702 31.2196 45.164 28.8775 46.0925 26.9406C47.0211 25.0038 48.2968 23.5322 49.9197 22.5258C51.5426 21.4956 53.3813 20.9786 55.4359 20.9748C57.5144 20.9711 59.3549 21.4814 60.9573 22.5058C62.5835 23.5063 63.8641 24.9732 64.799 26.9067C65.734 28.8402 66.2037 31.1806 66.2083 33.9281C66.2128 36.6755 65.7508 39.0176 64.8223 40.9545C63.8937 42.8913 62.618 44.3749 60.9951 45.4051C59.3961 46.4115 57.5574 46.9165 55.4789 46.9203ZM55.4707 42.0107C56.4503 42.0089 57.2979 41.7326 58.0137 41.1819C58.7534 40.631 59.3254 39.758 59.7296 38.5627C60.1576 37.3674 60.3701 35.826 60.367 33.9386C60.3638 32.0513 60.1463 30.5107 59.7143 29.3169C59.3061 28.1231 58.7313 27.2522 57.9898 26.704C57.2722 26.1558 56.4236 25.8826 55.4441 25.8844C54.4884 25.8861 53.6408 26.1624 52.9011 26.7133C52.1852 27.264 51.6133 28.1371 51.1852 29.3324C50.7811 30.5277 50.5806 32.069 50.5837 33.9564C50.5868 35.8438 50.7924 37.3844 51.2005 38.5782C51.6325 39.7719 52.2074 40.6429 52.925 41.1911C53.6665 41.7392 54.5151 42.0124 55.4707 42.0107ZM81.2347 46.8735C79.1801 46.8773 77.3397 46.3789 75.7135 45.3784C74.0872 44.3541 72.8066 42.8752 71.8716 40.9417C70.9367 39.0082 70.4669 36.6678 70.4624 33.9203C70.4579 31.1729 70.9199 28.8307 71.8484 26.8939C72.7769 24.9571 74.0527 23.4854 75.6756 22.4791C77.2985 21.4488 79.1372 20.9318 81.1918 20.9281C83.2703 20.9243 85.1108 21.4347 86.7131 22.4591C88.3394 23.4595 89.62 24.9265 90.5549 26.86C91.4898 28.7934 91.9596 31.1339 91.9641 33.8813C91.9687 36.6288 91.5067 38.9709 90.5781 40.9078C89.6496 42.8446 88.3739 44.3281 86.751 45.3584C85.152 46.3647 83.3132 46.8698 81.2347 46.8735ZM81.2266 41.964C82.2061 41.9622 83.0538 41.6859 83.7696 41.1351C84.5093 40.5843 85.0812 39.7112 85.4854 38.516C85.9135 37.3206 86.1259 35.7793 86.1228 33.8919C86.1197 32.0045 85.9021 30.464 85.4701 29.2702C85.062 28.0764 84.4872 27.2054 83.7457 26.6573C83.028 26.1091 82.1795 25.8359 81.1999 25.8377C80.2443 25.8394 79.3966 26.1157 78.6569 26.6665C77.9411 27.2173 77.3692 28.0904 76.9411 29.2857C76.5369 30.481 76.3364 32.0223 76.3395 33.9097C76.3427 35.797 76.5483 37.3376 76.9564 38.5314C77.3884 39.7252 77.9632 40.5962 78.6809 41.1444C79.4224 41.6925 80.271 41.9657 81.2266 41.964ZM106.991 46.8268C104.936 46.8305 103.096 46.3322 101.469 45.3317C99.843 44.3073 98.5624 42.8284 97.6275 40.895C96.6926 38.9615 96.2228 36.621 96.2183 33.8736C96.2137 31.1262 96.6757 28.784 97.6043 26.8472C98.5328 24.9103 99.8085 23.4387 101.431 22.4324C103.054 21.4021 104.893 20.8851 106.948 20.8814C109.026 20.8776 110.867 21.3879 112.469 22.4123C114.095 23.4128 115.376 24.8798 116.311 26.8132C117.246 28.7467 117.715 31.0871 117.72 33.8346C117.725 36.582 117.263 38.9242 116.334 40.861C115.405 42.7979 114.13 44.2814 112.507 45.3117C110.908 46.318 109.069 46.823 106.991 46.8268ZM106.982 41.9172C107.962 41.9155 108.81 41.6392 109.525 41.0884C110.265 40.5376 110.837 39.6645 111.241 38.4692C111.669 37.2739 111.882 35.7326 111.879 33.8452C111.876 31.9578 111.658 30.4172 111.226 29.2235C110.818 28.0297 110.243 27.1587 109.502 26.6106C108.784 26.0624 107.935 25.7892 106.956 25.7909C106 25.7927 105.152 26.069 104.413 26.6198C103.697 27.1706 103.125 28.0436 102.697 29.239C102.293 30.4342 102.092 31.9756 102.095 33.8629C102.099 35.7503 102.304 37.2909 102.712 38.4847C103.144 39.6785 103.719 40.5494 104.437 41.0976C105.178 41.6458 106.027 41.919 106.982 41.9172ZM128.068 46.3585L128.034 26.0036L120.007 26.0181L119.999 21.2877L141.859 21.2481L141.867 25.9785L133.84 25.993L133.873 46.348L128.068 46.3585ZM151.773 31.3359L163.849 31.314L163.857 35.8294L151.78 35.8513L151.773 31.3359ZM152.22 41.656L165.873 41.6312L165.881 46.2899L146.458 46.3252L146.416 21.2398L165.374 21.2054L165.381 25.8641L152.194 25.888L152.22 41.656ZM188.14 46.6796C186.443 46.6826 184.878 46.3749 183.444 45.7563C182.033 45.1138 180.873 44.2081 179.963 43.0391L183.182 39.1629C183.876 40.0695 184.606 40.761 185.371 41.2375C186.137 41.69 186.961 41.9155 187.845 41.9139C190.21 41.9096 191.391 40.5218 191.386 37.7504L191.366 25.817L182.551 25.833L182.543 21.1743L197.128 21.1478L197.155 37.4174C197.16 40.5232 196.4 42.842 194.873 44.3738C193.347 45.9056 191.102 46.6742 188.14 46.6796ZM215.483 46.6299C211.924 46.6364 209.139 45.65 207.129 43.6707C205.118 41.6914 204.11 38.8622 204.104 35.183L204.081 21.1352L209.886 21.1246L209.909 34.9574C209.913 37.3465 210.406 39.0657 211.387 40.1152C212.368 41.1646 213.743 41.6877 215.511 41.6845C217.279 41.6813 218.652 41.1532 219.63 40.1002C220.607 39.0472 221.094 37.3262 221.09 34.9371L221.067 21.1044L226.801 21.094L226.824 35.1417C226.83 38.8209 225.832 41.6538 223.828 43.6404C221.825 45.627 219.043 46.6235 215.483 46.6299ZM234.013 46.1663L233.971 21.0809L238.774 21.0722L249.482 38.7559L246.938 38.7606L257.408 21.0384L262.175 21.0298L262.288 46.115L256.841 46.1249L256.777 29.3894L257.781 29.3876L249.418 43.4864L246.802 43.4912L238.214 29.4231L239.432 29.4209L239.46 46.1564L234.013 46.1663ZM269.673 46.1016L269.631 21.0162L281.887 20.994C285.041 20.9883 287.407 21.5813 288.986 22.7729C290.588 23.9646 291.391 25.5399 291.395 27.499C291.397 28.813 291.076 29.9603 290.433 30.941C289.789 31.8978 288.907 32.64 287.785 33.1676C286.663 33.6953 285.373 33.9604 283.916 33.9631L284.594 32.4925C286.171 32.4897 287.569 32.7499 288.788 33.2733C290.007 33.7728 290.952 34.5237 291.623 35.5259C292.317 36.528 292.666 37.7578 292.668 39.2151C292.672 41.3653 291.827 43.0511 290.132 44.2726C288.438 45.4703 285.942 46.0721 282.646 46.078L269.673 46.1016ZM275.435 41.7191L282.208 41.7068C283.713 41.7041 284.848 41.4631 285.611 40.9839C286.399 40.4808 286.792 39.6917 286.79 38.6166C286.788 37.5654 286.393 36.7896 285.604 36.2894C284.838 35.7652 283.703 35.5044 282.198 35.5071L274.995 35.5202L274.988 31.2915L281.188 31.2803C282.597 31.2777 283.672 31.0369 284.412 30.5577C285.175 30.0546 285.556 29.3014 285.555 28.298C285.553 27.3184 285.17 26.5905 284.404 26.114C283.663 25.6137 282.587 25.3648 281.178 25.3673L275.408 25.3778L275.435 41.7191ZM310.693 46.4572C308.71 46.4608 306.87 46.1416 305.173 45.4996C303.5 44.8576 302.041 43.9524 300.796 42.784C299.576 41.6156 298.618 40.2436 297.923 38.668C297.251 37.0925 296.914 35.3729 296.911 33.5095C296.908 31.646 297.239 29.9252 297.906 28.3472C298.596 26.7692 299.561 25.3937 300.802 24.2208C302.042 23.0479 303.498 22.1374 305.169 21.4893C306.84 20.8412 308.656 20.5154 310.615 20.5118C312.598 20.5082 314.414 20.8275 316.063 21.4695C317.737 22.1116 319.184 23.0168 320.404 24.1852C321.648 25.3536 322.618 26.7256 323.314 28.3011C324.009 29.8528 324.358 31.5723 324.361 33.4596C324.364 35.3231 324.021 37.0558 323.331 38.6578C322.64 40.2358 321.675 41.6113 320.435 42.7842C319.218 43.9332 317.774 44.8317 316.103 45.4798C314.456 46.1278 312.652 46.4536 310.693 46.4572ZM310.649 41.5119C311.772 41.5098 312.799 41.3168 313.73 40.9329C314.685 40.5489 315.521 39.9979 316.236 39.2799C316.952 38.5618 317.5 37.7127 317.88 36.7325C318.285 35.7522 318.486 34.6648 318.484 33.4703C318.482 32.2758 318.277 31.1891 317.87 30.2103C317.486 29.2315 316.935 28.3844 316.217 27.6689C315.523 26.9535 314.698 26.4055 313.741 26.025C312.785 25.6444 311.746 25.4552 310.623 25.4572C309.5 25.4593 308.461 25.6523 307.506 26.0363C306.575 26.4202 305.752 26.9712 305.036 27.6892C304.32 28.4073 303.76 29.2564 303.356 30.2367C302.975 31.2169 302.786 32.3042 302.788 33.4988C302.79 34.6694 302.983 35.7561 303.367 36.7588C303.774 37.7376 304.325 38.5848 305.019 39.3002C305.737 40.0156 306.574 40.5636 307.531 40.9441C308.487 41.3247 309.526 41.5139 310.649 41.5119Z" fill="#490606"/>
<path d="M36.2073 68.3221C35.7547 67.6023 35.4049 66.7715 35.1579 65.8297C34.9108 64.8799 34.7864 63.8586 34.7846 62.7659C34.7828 61.6731 34.9038 60.6514 35.1477 59.7008C35.3916 58.7422 35.7387 57.9101 36.1889 57.2045L37.2697 57.2026C36.796 58.0428 36.4491 58.9224 36.2289 59.8413C36.0086 60.7524 35.8994 61.7265 35.9011 62.7639C35.9028 63.8012 36.0153 64.7789 36.2385 65.6971C36.4618 66.6073 36.8116 67.4816 37.2881 68.3201L36.2073 68.3221ZM38.9105 66.0129L38.8968 57.6985L40.0846 57.6963L40.0983 66.0108L38.9105 66.0129ZM42.5875 66.0062L42.5738 57.6918L43.5478 57.6901L47.2878 63.9666L46.7651 63.9676L50.4368 57.6776L51.4108 57.6758L51.4364 65.9902L50.2962 65.9923L50.2735 59.4714L50.5467 59.4709L47.2776 64.9881L46.7312 64.9891L43.4201 59.4838L43.717 59.4833L43.7278 66.0042L42.5875 66.0062ZM53.9317 65.9857L53.918 57.6712L55.1057 57.6691L55.1178 64.9501L59.6194 64.942L59.6211 65.9753L53.9317 65.9857ZM64.1739 65.9671L64.1602 57.6527L65.1342 57.6509L68.8742 63.9274L68.3515 63.9284L72.0232 57.6384L72.9972 57.6366L73.0228 65.951L71.8826 65.9531L71.8599 59.4322L72.1331 59.4317L68.864 64.949L68.3176 64.9499L65.0065 59.4447L65.3034 59.4441L65.3142 65.965L64.1739 65.9671ZM79.2716 66.0347C78.6381 66.0358 78.048 65.93 77.5013 65.7172C76.9625 65.5044 76.4948 65.2083 76.0983 64.8289C75.7017 64.4416 75.3921 63.9908 75.1696 63.4765C74.947 62.9622 74.8352 62.4002 74.8342 61.7905C74.8332 61.1808 74.9431 60.6184 75.164 60.1033C75.3848 59.5882 75.6929 59.1402 76.0882 58.7594C76.4835 58.3707 76.9502 58.0689 77.4883 57.8541C78.0264 57.6394 78.6162 57.5314 79.2575 57.5302C79.891 57.5291 80.4732 57.6349 81.0041 57.8478C81.5429 58.0527 82.0106 58.3488 82.4072 58.7361C82.8116 59.1154 83.1212 59.5622 83.3358 60.0766C83.5584 60.5909 83.6702 61.1568 83.6712 61.7745C83.6722 62.3921 83.5623 62.9585 83.3415 63.4736C83.1285 63.9887 82.8204 64.4406 82.4172 64.8293C82.0219 65.2101 81.5552 65.5079 81.0171 65.7227C80.4869 65.9296 79.9051 66.0336 79.2716 66.0347ZM79.2699 64.9776C79.7291 64.9767 80.1526 64.8968 80.5404 64.7377C80.9361 64.5786 81.2762 64.3563 81.5608 64.0707C81.8533 63.7772 82.0784 63.4363 82.2361 63.048C82.4018 62.6597 82.4842 62.2359 82.4834 61.7766C82.4827 61.3174 82.3988 60.8939 82.2319 60.5062C82.0729 60.1184 81.8467 59.7823 81.5532 59.4978C81.2677 59.2053 80.9268 58.9803 80.5306 58.8226C80.1423 58.6649 79.7186 58.5865 79.2593 58.5874C78.7921 58.5882 78.3607 58.6682 77.965 58.8273C77.5773 58.9863 77.2372 59.2126 76.9447 59.5061C76.6521 59.7917 76.4231 60.1287 76.2574 60.517C76.0997 60.9053 76.0212 61.3291 76.022 61.7884C76.0227 62.2476 76.1026 62.6711 76.2616 63.0588C76.4285 63.4465 76.6587 63.7866 76.9522 64.0791C77.2457 64.3636 77.5865 64.5847 77.9748 64.7424C78.371 64.9 78.8027 64.9784 79.2699 64.9776ZM89.2471 66.0166C88.6136 66.0177 88.0235 65.9119 87.4767 65.6991C86.9379 65.4863 86.4703 65.1902 86.0737 64.8108C85.6771 64.4235 85.3676 63.9727 85.145 63.4584C84.9224 62.9441 84.8106 62.3821 84.8096 61.7724C84.8086 61.1627 84.9186 60.6003 85.1394 60.0852C85.3603 59.5701 85.6684 59.1221 86.0637 58.7413C86.4589 58.3526 86.9256 58.0508 87.4637 57.836C88.0018 57.6213 88.5916 57.5133 89.233 57.5121C89.8665 57.511 90.4487 57.6168 90.9796 57.8297C91.5183 58.0346 91.986 58.3307 92.3826 58.718C92.7871 59.0973 93.0966 59.5441 93.3113 60.0585C93.5338 60.5728 93.6456 61.1387 93.6467 61.7564C93.6477 62.374 93.5378 62.9404 93.3169 63.4555C93.1039 63.9706 92.7959 64.4225 92.3927 64.8112C91.9974 65.192 91.5307 65.4898 90.9926 65.7046C90.4624 65.9115 89.8805 66.0155 89.2471 66.0166ZM91.9698 67.6508C91.6926 67.6513 91.4273 67.6161 91.1738 67.5453C90.9203 67.4824 90.6667 67.376 90.4131 67.226C90.1595 67.0839 89.8978 66.8944 89.6282 66.6573C89.3586 66.4282 89.0651 66.1436 88.7478 65.8037L90.0182 65.4688C90.2562 65.7614 90.4823 65.9985 90.6964 66.1803C90.9184 66.3699 91.1364 66.5041 91.3504 66.5829C91.5643 66.6696 91.7742 66.7128 91.9801 66.7124C92.574 66.7114 93.0804 66.4729 93.4993 65.997L94.0586 66.673C93.5213 67.3233 92.825 67.6492 91.9698 67.6508ZM89.2453 64.9595C89.7046 64.9586 90.1281 64.8787 90.5158 64.7196C90.9115 64.5605 91.2516 64.3342 91.5362 64.0407C91.8287 63.7472 92.0538 63.4063 92.2115 63.018C92.3772 62.6297 92.4596 62.2099 92.4589 61.7585C92.4581 61.2993 92.3743 60.8758 92.2074 60.4881C92.0483 60.1003 91.8221 59.7642 91.5287 59.4797C91.2431 59.1872 90.9022 58.9622 90.5061 58.8045C90.1178 58.6468 89.694 58.5684 89.2347 58.5693C88.7676 58.5701 88.3361 58.6501 87.9405 58.8092C87.5527 58.9682 87.2126 59.1945 86.9201 59.488C86.6276 59.7736 86.3985 60.1106 86.2329 60.4989C86.0751 60.8872 85.9966 61.311 85.9974 61.7703C85.9981 62.2216 86.078 62.6411 86.237 63.0289C86.404 63.4166 86.6342 63.7566 86.9276 64.0491C87.2211 64.3416 87.562 64.5666 87.9502 64.7243C88.3464 64.8819 88.7781 64.9603 89.2453 64.9595ZM98.0841 63.138L98.0825 62.1522L101.278 62.1464L101.279 63.1322L98.0841 63.138ZM107.156 65.8891L110.67 58.0671L110.98 58.6011L106.039 58.61L106.632 58.0269L106.635 60.0937L105.495 60.0957L105.491 57.5777L111.762 57.5663L111.764 58.374L108.415 65.8868L107.156 65.8891ZM115.293 65.9693C114.707 65.9704 114.137 65.8804 113.582 65.6993C113.036 65.5181 112.588 65.2735 112.239 64.9653L112.784 64.0259C113.061 64.2867 113.422 64.4999 113.866 64.6654C114.309 64.8309 114.781 64.9131 115.279 64.9122C115.913 64.9111 116.4 64.7756 116.74 64.5057C117.08 64.2359 117.249 63.8753 117.249 63.4239C117.248 63.1151 117.173 62.846 117.022 62.6167C116.871 62.3873 116.609 62.2136 116.237 62.0955C115.872 61.9694 115.37 61.907 114.728 61.9082L112.84 61.9116L113.272 57.5635L117.964 57.555L117.965 58.5884L113.713 58.5961L114.33 58.013L113.991 61.4463L113.372 60.8773L114.976 60.8744C115.807 60.8728 116.477 60.9785 116.984 61.1914C117.491 61.4043 117.86 61.7006 118.09 62.0802C118.32 62.452 118.436 62.8833 118.436 63.3743C118.437 63.8494 118.323 64.2851 118.094 64.6815C117.865 65.0699 117.517 65.3833 117.05 65.6217C116.592 65.8522 116.006 65.968 115.293 65.9693ZM122.826 65.9557C122.177 65.9569 121.595 65.7916 121.079 65.46C120.572 65.1283 120.167 64.646 119.865 64.0131C119.571 63.3801 119.424 62.6123 119.422 61.7096C119.421 60.8069 119.566 60.0385 119.858 59.4045C120.158 58.7705 120.561 58.2867 121.067 57.9532C121.581 57.6197 122.163 57.4524 122.812 57.4512C123.453 57.45 124.032 57.6153 124.547 57.9469C125.062 58.2786 125.467 58.7609 125.761 59.3938C126.055 60.0268 126.203 60.7946 126.204 61.6973C126.206 62.6 126.061 63.3684 125.769 64.0024C125.477 64.6364 125.074 65.1202 124.559 65.4537C124.045 65.7872 123.468 65.9545 122.826 65.9557ZM122.824 64.8986C123.26 64.8978 123.64 64.7783 123.964 64.5402C124.296 64.302 124.553 63.9452 124.734 63.4698C124.924 62.9943 125.018 62.4042 125.017 61.6995C125.015 60.9947 124.919 60.405 124.729 59.9302C124.546 59.4554 124.288 59.0995 123.955 58.8626C123.63 58.6256 123.249 58.5075 122.814 58.5083C122.378 58.5091 121.994 58.6286 121.662 58.8668C121.33 59.1049 121.069 59.4617 120.88 59.9372C120.699 60.4126 120.609 61.0027 120.61 61.7075C120.611 62.4122 120.703 63.002 120.886 63.4767C121.077 63.9515 121.339 64.3074 121.672 64.5443C122.005 64.7813 122.389 64.8993 122.824 64.8986ZM130.749 65.9413C130.099 65.9425 129.517 65.7772 129.002 65.4456C128.494 65.1139 128.09 64.6316 127.788 63.9987C127.494 63.3658 127.346 62.5979 127.344 61.6952C127.343 60.7925 127.488 60.0242 127.78 59.3902C128.08 58.7561 128.483 58.2724 128.989 57.9389C129.503 57.6054 130.085 57.438 130.734 57.4368C131.376 57.4357 131.954 57.6009 132.469 57.9326C132.985 58.2642 133.389 58.7465 133.683 59.3794C133.977 60.0124 134.125 60.7802 134.127 61.6829C134.128 62.5856 133.983 63.354 133.691 63.988C133.399 64.622 132.996 65.1058 132.482 65.4393C131.968 65.7728 131.39 65.9401 130.749 65.9413ZM130.747 64.8842C131.182 64.8834 131.562 64.7639 131.886 64.5258C132.219 64.2876 132.475 63.9308 132.657 63.4554C132.846 62.9799 132.94 62.3898 132.939 61.6851C132.938 60.9803 132.842 60.3906 132.651 59.9158C132.468 59.441 132.21 59.0852 131.877 58.8482C131.552 58.6113 131.172 58.4932 130.736 58.494C130.301 58.4947 129.917 58.6142 129.585 58.8524C129.252 59.0905 128.992 59.4473 128.802 59.9228C128.621 60.3982 128.531 60.9883 128.532 61.6931C128.533 62.3978 128.625 62.9876 128.808 63.4624C128.999 63.9371 129.261 64.293 129.594 64.5299C129.927 64.7669 130.311 64.885 130.747 64.8842ZM139.141 65.831L139.127 57.5166L142.369 57.5107C143.098 57.5094 143.72 57.6231 144.235 57.8518C144.75 58.0805 145.146 58.4124 145.424 58.8474C145.702 59.2824 145.842 59.8008 145.842 60.4026C145.843 61.0044 145.706 61.5233 145.429 61.9594C145.153 62.3875 144.758 62.7208 144.243 62.9592C143.729 63.1898 143.107 63.3058 142.379 63.3071L139.79 63.3118L140.323 62.7526L140.328 65.8289L139.141 65.831ZM140.323 62.8713L139.788 62.2784L142.342 62.2738C143.102 62.2724 143.676 62.109 144.063 61.7837C144.459 61.4583 144.656 60.9987 144.655 60.4048C144.654 59.8109 144.455 59.352 144.059 59.028C143.67 58.7041 143.096 58.5428 142.335 58.5442L139.782 58.5488L140.315 57.954L140.323 62.8713ZM150.151 65.8823C149.509 65.8835 148.935 65.746 148.428 65.4697C147.929 65.1935 147.536 64.8141 147.25 64.3316C146.964 63.8491 146.821 63.2951 146.82 62.6695C146.819 62.0439 146.96 61.4894 147.245 61.0058C147.529 60.5223 147.92 60.1455 148.419 59.8753C148.925 59.5973 149.499 59.4576 150.14 59.4565C150.71 59.4554 151.217 59.5693 151.661 59.7982C152.113 60.0191 152.462 60.351 152.708 60.794L151.842 61.3538C151.635 61.0454 151.382 60.8202 151.081 60.6782C150.787 60.5283 150.47 60.4536 150.13 60.4542C149.718 60.455 149.35 60.5467 149.026 60.7294C148.701 60.9121 148.445 61.17 148.255 61.5029C148.066 61.8279 147.971 62.2161 147.972 62.6674C147.973 63.1188 148.068 63.5106 148.259 63.8428C148.45 64.175 148.707 64.4319 149.032 64.6134C149.357 64.795 149.726 64.8854 150.137 64.8846C150.478 64.884 150.794 64.8122 151.087 64.6691C151.388 64.5181 151.641 64.288 151.846 63.9788L152.714 64.5236C152.469 64.9596 152.122 65.2968 151.671 65.5351C151.228 65.7656 150.721 65.8813 150.151 65.8823ZM155.998 65.8717C155.476 65.8727 154.977 65.8023 154.501 65.6606C154.034 65.519 153.665 65.3454 153.396 65.14L153.869 64.2365C154.139 64.4181 154.472 64.5719 154.868 64.6979C155.264 64.8239 155.668 64.8865 156.08 64.8857C156.61 64.8848 156.99 64.8088 157.22 64.658C157.457 64.5071 157.575 64.297 157.575 64.0278C157.574 63.8298 157.503 63.6756 157.36 63.565C157.218 63.4544 157.027 63.3716 156.79 63.3166C156.56 63.2616 156.303 63.2145 156.017 63.1754C155.732 63.1284 155.447 63.0735 155.162 63.0107C154.877 62.94 154.615 62.8454 154.378 62.7271C154.14 62.6008 153.949 62.4309 153.807 62.2174C153.664 61.9959 153.592 61.703 153.591 61.3388C153.591 60.9587 153.697 60.6259 153.91 60.3405C154.124 60.055 154.424 59.8367 154.812 59.6856C155.208 59.5265 155.675 59.4464 156.213 59.4455C156.625 59.4447 157.041 59.4954 157.461 59.5976C157.888 59.6919 158.237 59.8298 158.507 60.0114L158.021 60.915C157.736 60.7255 157.438 60.5954 157.13 60.5247C156.821 60.454 156.512 60.4189 156.203 60.4195C155.704 60.4204 155.332 60.5042 155.087 60.6709C154.842 60.8297 154.719 61.0358 154.72 61.2892C154.72 61.503 154.792 61.6692 154.934 61.7877C155.085 61.8983 155.275 61.985 155.505 62.048C155.742 62.1109 156.004 62.1659 156.289 62.2128C156.574 62.2519 156.859 62.3068 157.144 62.3776C157.43 62.4404 157.687 62.531 157.917 62.6494C158.155 62.7677 158.345 62.9337 158.488 63.1472C158.639 63.3607 158.714 63.6457 158.715 64.002C158.716 64.3821 158.605 64.7109 158.384 64.9884C158.163 65.266 157.85 65.4843 157.447 65.6434C157.043 65.7946 156.56 65.8707 155.998 65.8717ZM160.527 68.0965L159.446 68.0985C159.928 67.2583 160.279 66.3826 160.499 65.4716C160.719 64.5526 160.828 63.5745 160.827 62.5372C160.825 61.4999 160.712 60.5261 160.489 59.6159C160.266 58.6977 159.912 57.8194 159.428 56.9809L160.509 56.979C160.977 57.6829 161.331 58.5137 161.57 59.4714C161.817 60.4211 161.941 61.4424 161.943 62.5352C161.945 63.6279 161.824 64.6496 161.58 65.6003C161.344 66.543 160.993 67.3751 160.527 68.0965Z" fill="black"/>
<path d="M171.002 61.3242H199.46" stroke="url(#paint0_linear_2040_1062)" stroke-width="0.863039"/>
<path d="M28.458 62.3975H0.000244021" stroke="url(#paint1_linear_2040_1062)" stroke-width="0.863039"/>
<defs>
<linearGradient id="paint0_linear_2040_1062" x1="195.191" y1="61.8242" x2="171.476" y2="61.8242" gradientUnits="userSpaceOnUse">
<stop stop-color="#666666" stop-opacity="0"/>
<stop offset="1"/>
</linearGradient>
<linearGradient id="paint1_linear_2040_1062" x1="4.26891" y1="62.8974" x2="27.9837" y2="62.8974" gradientUnits="userSpaceOnUse">
<stop stop-color="#666666" stop-opacity="0"/>
<stop offset="1"/>
</linearGradient>
</defs>
</svg>
