<svg width="208" height="298" viewBox="0 0 208 298" fill="none" xmlns="http://www.w3.org/2000/svg">
<rect x="2.6757" y="13.8569" width="202.9" height="149.626" rx="22.0671" fill="url(#paint0_linear_2039_598)" stroke="#A3B988" stroke-width="3.22934"/>
<path d="M0.622559 165.098L206.751 165.098V288.889H0.622559L0.622559 165.098Z" fill="#F6F3F3"/>
<path d="M38.2789 197.48L34.2474 188.377H35.2878L39.0592 196.947H38.487L42.2844 188.377H43.2598L39.2283 197.48H38.2789ZM46.7654 197.545C46.0544 197.545 45.4302 197.398 44.8927 197.103C44.3551 196.8 43.9346 196.388 43.6312 195.868C43.3277 195.339 43.176 194.736 43.176 194.06C43.176 193.384 43.319 192.786 43.6052 192.265C43.8999 191.745 44.2988 191.338 44.8016 191.043C45.3131 190.74 45.8854 190.588 46.5183 190.588C47.1598 190.588 47.7277 190.735 48.2219 191.03C48.7248 191.316 49.1193 191.724 49.4054 192.252C49.6915 192.773 49.8345 193.375 49.8345 194.06C49.8345 194.104 49.8302 194.151 49.8215 194.203C49.8215 194.247 49.8215 194.294 49.8215 194.346H43.8783V193.657H49.3273L48.9632 193.93C48.9632 193.436 48.8548 192.998 48.6381 192.617C48.43 192.226 48.1439 191.923 47.7798 191.706C47.4156 191.49 46.9951 191.381 46.5183 191.381C46.0501 191.381 45.6296 191.49 45.2568 191.706C44.884 191.923 44.5935 192.226 44.3855 192.617C44.1774 193.007 44.0733 193.453 44.0733 193.956V194.099C44.0733 194.619 44.186 195.079 44.4115 195.478C44.6456 195.868 44.9663 196.176 45.3738 196.401C45.79 196.618 46.2625 196.726 46.7914 196.726C47.2075 196.726 47.5933 196.652 47.9488 196.505C48.313 196.358 48.6251 196.132 48.8852 195.829L49.4054 196.427C49.1019 196.791 48.7204 197.069 48.2609 197.259C47.8101 197.45 47.3116 197.545 46.7654 197.545ZM51.714 197.48V190.653H52.5983V192.513L52.5073 192.187C52.698 191.667 53.0188 191.273 53.4696 191.004C53.9205 190.727 54.4797 190.588 55.1473 190.588V191.485C55.1126 191.485 55.0779 191.485 55.0432 191.485C55.0085 191.477 54.9739 191.472 54.9392 191.472C54.2196 191.472 53.656 191.693 53.2485 192.135C52.8411 192.569 52.6373 193.189 52.6373 193.995V197.48H51.714ZM58.742 197.545C58.1785 197.545 57.6453 197.467 57.1424 197.311C56.6396 197.147 56.2451 196.943 55.959 196.7L56.3751 195.972C56.6526 196.18 57.008 196.362 57.4415 196.518C57.875 196.665 58.3302 196.739 58.807 196.739C59.4573 196.739 59.9255 196.639 60.2116 196.44C60.4977 196.232 60.6407 195.959 60.6407 195.621C60.6407 195.369 60.5584 195.174 60.3937 195.036C60.2376 194.888 60.0295 194.78 59.7694 194.71C59.5093 194.632 59.2189 194.567 58.8981 194.515C58.5773 194.463 58.2565 194.403 57.9357 194.333C57.6236 194.264 57.3375 194.164 57.0774 194.034C56.8173 193.895 56.6049 193.709 56.4401 193.475C56.2841 193.241 56.2061 192.929 56.2061 192.539C56.2061 192.166 56.3101 191.832 56.5182 191.537C56.7263 191.242 57.0297 191.013 57.4285 190.848C57.836 190.675 58.3302 190.588 58.9111 190.588C59.3533 190.588 59.7954 190.649 60.2376 190.77C60.6798 190.883 61.0439 191.034 61.33 191.225L60.9269 191.966C60.6234 191.758 60.2983 191.611 59.9515 191.524C59.6047 191.429 59.2579 191.381 58.9111 191.381C58.2955 191.381 57.8403 191.49 57.5456 191.706C57.2595 191.914 57.1164 192.183 57.1164 192.513C57.1164 192.773 57.1944 192.976 57.3505 193.124C57.5152 193.271 57.7276 193.388 57.9877 193.475C58.2565 193.553 58.5469 193.618 58.8591 193.67C59.1799 193.722 59.4963 193.787 59.8084 193.865C60.1292 193.934 60.4197 194.034 60.6798 194.164C60.9485 194.286 61.1609 194.463 61.317 194.697C61.4817 194.923 61.5641 195.222 61.5641 195.595C61.5641 195.994 61.4514 196.34 61.226 196.635C61.0092 196.921 60.6884 197.147 60.2636 197.311C59.8474 197.467 59.3403 197.545 58.742 197.545ZM67.537 197.48V195.972L67.498 195.725V193.202C67.498 192.621 67.3333 192.174 67.0038 191.862C66.683 191.55 66.2019 191.394 65.5603 191.394C65.1181 191.394 64.6976 191.468 64.2988 191.615C63.9 191.763 63.5618 191.958 63.2844 192.2L62.8683 191.511C63.2151 191.216 63.6312 190.991 64.1167 190.835C64.6022 190.67 65.1138 190.588 65.6513 190.588C66.5357 190.588 67.2162 190.809 67.6931 191.251C68.1786 191.685 68.4214 192.348 68.4214 193.241V197.48H67.537ZM65.1831 197.545C64.6716 197.545 64.2251 197.463 63.8436 197.298C63.4708 197.125 63.1847 196.891 62.9853 196.596C62.7859 196.293 62.6862 195.946 62.6862 195.556C62.6862 195.2 62.7685 194.879 62.9333 194.593C63.1067 194.299 63.3841 194.064 63.7656 193.891C64.1557 193.709 64.6759 193.618 65.3262 193.618H67.6801V194.307H65.3522C64.6933 194.307 64.2338 194.424 63.9737 194.658C63.7222 194.892 63.5965 195.183 63.5965 195.53C63.5965 195.92 63.7483 196.232 64.0517 196.466C64.3552 196.7 64.78 196.817 65.3262 196.817C65.8464 196.817 66.2929 196.7 66.6657 196.466C67.0472 196.223 67.3246 195.877 67.498 195.426L67.7061 196.063C67.5327 196.514 67.2293 196.874 66.7958 197.142C66.3709 197.411 65.8334 197.545 65.1831 197.545ZM73.0881 197.545C72.4465 197.545 71.9524 197.372 71.6056 197.025C71.2588 196.678 71.0854 196.189 71.0854 195.556V189.144H72.0087V195.504C72.0087 195.903 72.1084 196.21 72.3078 196.427C72.5159 196.644 72.8107 196.752 73.1922 196.752C73.5997 196.752 73.9378 196.635 74.2066 196.401L74.5317 197.064C74.3496 197.229 74.1285 197.35 73.8684 197.428C73.617 197.506 73.3569 197.545 73.0881 197.545ZM69.8629 191.42V190.653H74.0895V191.42H69.8629ZM76.2126 197.48V190.653H77.1359V197.48H76.2126ZM76.6807 189.144C76.49 189.144 76.3296 189.079 76.1996 188.949C76.0695 188.819 76.0045 188.663 76.0045 188.481C76.0045 188.299 76.0695 188.147 76.1996 188.026C76.3296 187.896 76.49 187.831 76.6807 187.831C76.8715 187.831 77.0319 187.891 77.1619 188.013C77.292 188.134 77.357 188.286 77.357 188.468C77.357 188.659 77.292 188.819 77.1619 188.949C77.0406 189.079 76.8802 189.144 76.6807 189.144ZM79.7051 197.48V187.831H80.6285V197.48H79.7051ZM86.0978 197.545C85.3868 197.545 84.7626 197.398 84.225 197.103C83.6875 196.8 83.267 196.388 82.9636 195.868C82.6601 195.339 82.5084 194.736 82.5084 194.06C82.5084 193.384 82.6514 192.786 82.9376 192.265C83.2323 191.745 83.6312 191.338 84.134 191.043C84.6455 190.74 85.2178 190.588 85.8507 190.588C86.4922 190.588 87.0601 190.735 87.5543 191.03C88.0572 191.316 88.4517 191.724 88.7378 192.252C89.0239 192.773 89.1669 193.375 89.1669 194.06C89.1669 194.104 89.1626 194.151 89.1539 194.203C89.1539 194.247 89.1539 194.294 89.1539 194.346H83.2107V193.657H88.6597L88.2956 193.93C88.2956 193.436 88.1872 192.998 87.9705 192.617C87.7624 192.226 87.4763 191.923 87.1121 191.706C86.748 191.49 86.3275 191.381 85.8507 191.381C85.3825 191.381 84.962 191.49 84.5892 191.706C84.2164 191.923 83.9259 192.226 83.7179 192.617C83.5098 193.007 83.4057 193.453 83.4057 193.956V194.099C83.4057 194.619 83.5184 195.079 83.7439 195.478C83.978 195.868 84.2987 196.176 84.7062 196.401C85.1224 196.618 85.5949 196.726 86.1238 196.726C86.5399 196.726 86.9257 196.652 87.2812 196.505C87.6454 196.358 87.9575 196.132 88.2176 195.829L88.7378 196.427C88.4343 196.791 88.0528 197.069 87.5933 197.259C87.1425 197.45 86.644 197.545 86.0978 197.545ZM94.6451 197.48V188.377H95.4384L99.6 195.478H99.1838L103.306 188.377H104.1V197.48H103.176V189.821H103.397L99.6 196.323H99.1448L95.3213 189.821H95.5684V197.48H94.6451ZM106.871 197.48V190.653H107.794V197.48H106.871ZM107.339 189.144C107.148 189.144 106.988 189.079 106.858 188.949C106.728 188.819 106.663 188.663 106.663 188.481C106.663 188.299 106.728 188.147 106.858 188.026C106.988 187.896 107.148 187.831 107.339 187.831C107.53 187.831 107.69 187.891 107.82 188.013C107.95 188.134 108.015 188.286 108.015 188.468C108.015 188.659 107.95 188.819 107.82 188.949C107.699 189.079 107.538 189.144 107.339 189.144ZM113.081 197.545C112.431 197.545 111.846 197.398 111.326 197.103C110.814 196.809 110.411 196.401 110.116 195.881C109.821 195.352 109.674 194.745 109.674 194.06C109.674 193.367 109.821 192.76 110.116 192.239C110.411 191.719 110.814 191.316 111.326 191.03C111.846 190.735 112.431 190.588 113.081 190.588C113.68 190.588 114.213 190.722 114.681 190.991C115.158 191.26 115.535 191.654 115.812 192.174C116.098 192.686 116.242 193.315 116.242 194.06C116.242 194.797 116.103 195.426 115.825 195.946C115.548 196.466 115.171 196.865 114.694 197.142C114.226 197.411 113.688 197.545 113.081 197.545ZM113.146 196.726C113.632 196.726 114.065 196.618 114.447 196.401C114.837 196.176 115.14 195.864 115.357 195.465C115.583 195.057 115.695 194.589 115.695 194.06C115.695 193.523 115.583 193.054 115.357 192.656C115.14 192.257 114.837 191.949 114.447 191.732C114.065 191.507 113.632 191.394 113.146 191.394C112.67 191.394 112.24 191.507 111.859 191.732C111.477 191.949 111.174 192.257 110.949 192.656C110.723 193.054 110.61 193.523 110.61 194.06C110.61 194.589 110.723 195.057 110.949 195.465C111.174 195.864 111.477 196.176 111.859 196.401C112.24 196.618 112.67 196.726 113.146 196.726ZM115.721 197.48V195.426L115.812 194.047L115.682 192.669V187.831H116.606V197.48H115.721ZM118.67 194.359V193.553H122.077V194.359H118.67ZM126.619 197.558C125.943 197.558 125.293 197.45 124.669 197.233C124.053 197.008 123.576 196.722 123.238 196.375L123.615 195.634C123.936 195.946 124.365 196.21 124.903 196.427C125.449 196.635 126.021 196.739 126.619 196.739C127.192 196.739 127.655 196.67 128.011 196.531C128.375 196.384 128.64 196.189 128.804 195.946C128.978 195.703 129.064 195.434 129.064 195.14C129.064 194.784 128.96 194.498 128.752 194.281C128.553 194.064 128.288 193.895 127.959 193.774C127.629 193.644 127.265 193.531 126.866 193.436C126.468 193.341 126.069 193.241 125.67 193.137C125.271 193.024 124.903 192.877 124.565 192.695C124.235 192.513 123.966 192.274 123.758 191.979C123.559 191.676 123.459 191.281 123.459 190.796C123.459 190.345 123.576 189.933 123.81 189.56C124.053 189.179 124.422 188.876 124.916 188.65C125.41 188.416 126.043 188.299 126.814 188.299C127.326 188.299 127.833 188.373 128.336 188.52C128.839 188.659 129.272 188.854 129.637 189.105L129.311 189.873C128.921 189.612 128.505 189.422 128.063 189.3C127.629 189.179 127.209 189.118 126.801 189.118C126.255 189.118 125.804 189.192 125.449 189.339C125.093 189.487 124.829 189.686 124.656 189.938C124.491 190.18 124.409 190.458 124.409 190.77C124.409 191.125 124.508 191.411 124.708 191.628C124.916 191.845 125.185 192.014 125.514 192.135C125.852 192.257 126.221 192.365 126.619 192.461C127.018 192.556 127.413 192.66 127.803 192.773C128.202 192.885 128.566 193.033 128.895 193.215C129.233 193.388 129.502 193.622 129.702 193.917C129.91 194.212 130.014 194.598 130.014 195.075C130.014 195.517 129.892 195.929 129.65 196.31C129.407 196.683 129.034 196.986 128.531 197.22C128.037 197.446 127.4 197.558 126.619 197.558ZM131.915 197.48V190.653H132.839V197.48H131.915ZM132.384 189.144C132.193 189.144 132.033 189.079 131.902 188.949C131.772 188.819 131.707 188.663 131.707 188.481C131.707 188.299 131.772 188.147 131.902 188.026C132.033 187.896 132.193 187.831 132.384 187.831C132.574 187.831 132.735 187.891 132.865 188.013C132.995 188.134 133.06 188.286 133.06 188.468C133.06 188.659 132.995 188.819 132.865 188.949C132.743 189.079 132.583 189.144 132.384 189.144ZM134.667 197.48V196.869L139.218 191.108L139.414 191.42H134.745V190.653H140.142V191.251L135.603 197.025L135.369 196.713H140.233V197.48H134.667ZM144.836 197.545C144.125 197.545 143.501 197.398 142.963 197.103C142.426 196.8 142.005 196.388 141.702 195.868C141.398 195.339 141.247 194.736 141.247 194.06C141.247 193.384 141.39 192.786 141.676 192.265C141.971 191.745 142.369 191.338 142.872 191.043C143.384 190.74 143.956 190.588 144.589 190.588C145.23 190.588 145.798 190.735 146.293 191.03C146.795 191.316 147.19 191.724 147.476 192.252C147.762 192.773 147.905 193.375 147.905 194.06C147.905 194.104 147.901 194.151 147.892 194.203C147.892 194.247 147.892 194.294 147.892 194.346H141.949V193.657H147.398L147.034 193.93C147.034 193.436 146.925 192.998 146.709 192.617C146.501 192.226 146.215 191.923 145.85 191.706C145.486 191.49 145.066 191.381 144.589 191.381C144.121 191.381 143.7 191.49 143.327 191.706C142.955 191.923 142.664 192.226 142.456 192.617C142.248 193.007 142.144 193.453 142.144 193.956V194.099C142.144 194.619 142.257 195.079 142.482 195.478C142.716 195.868 143.037 196.176 143.444 196.401C143.861 196.618 144.333 196.726 144.862 196.726C145.278 196.726 145.664 196.652 146.019 196.505C146.384 196.358 146.696 196.132 146.956 195.829L147.476 196.427C147.173 196.791 146.791 197.069 146.332 197.259C145.881 197.45 145.382 197.545 144.836 197.545ZM153.383 197.48V188.377H154.346V197.48H153.383ZM157.308 197.48V188.377H158.101L162.263 195.478H161.846L165.969 188.377H166.762V197.48H165.839V189.821H166.06L162.263 196.323H161.807L157.984 189.821H158.231V197.48H157.308ZM169.728 197.48V188.377H170.691V196.648H175.789V197.48H169.728ZM24.9313 216.558C24.2464 216.558 23.6135 216.446 23.0326 216.22C22.4517 215.986 21.9488 215.661 21.524 215.245C21.0992 214.829 20.7654 214.339 20.5226 213.775C20.2885 213.212 20.1715 212.596 20.1715 211.929C20.1715 211.261 20.2885 210.646 20.5226 210.082C20.7654 209.518 21.0992 209.029 21.524 208.612C21.9575 208.196 22.4647 207.876 23.0456 207.65C23.6265 207.416 24.2594 207.299 24.9443 207.299C25.6032 207.299 26.2231 207.412 26.804 207.637C27.3849 207.854 27.8748 208.183 28.2736 208.625L27.6623 209.237C27.2895 208.855 26.8777 208.582 26.4269 208.417C25.976 208.244 25.4905 208.157 24.9703 208.157C24.4241 208.157 23.9169 208.253 23.4487 208.443C22.9806 208.625 22.5731 208.89 22.2263 209.237C21.8795 209.575 21.6064 209.974 21.407 210.433C21.2162 210.884 21.1208 211.383 21.1208 211.929C21.1208 212.475 21.2162 212.978 21.407 213.437C21.6064 213.888 21.8795 214.287 22.2263 214.634C22.5731 214.972 22.9806 215.236 23.4487 215.427C23.9169 215.609 24.4241 215.7 24.9703 215.7C25.4905 215.7 25.976 215.613 26.4269 215.44C26.8777 215.267 27.2895 214.989 27.6623 214.608L28.2736 215.219C27.8748 215.661 27.3849 215.995 26.804 216.22C26.2231 216.446 25.5989 216.558 24.9313 216.558ZM32.6083 216.545C31.9494 216.545 31.3555 216.398 30.8266 216.103C30.3064 215.8 29.8946 215.388 29.5911 214.868C29.2877 214.339 29.136 213.736 29.136 213.06C29.136 212.375 29.2877 211.773 29.5911 211.252C29.8946 210.732 30.3064 210.325 30.8266 210.03C31.3468 209.735 31.9407 209.588 32.6083 209.588C33.2846 209.588 33.8828 209.735 34.403 210.03C34.9318 210.325 35.3437 210.732 35.6384 211.252C35.9419 211.773 36.0936 212.375 36.0936 213.06C36.0936 213.736 35.9419 214.339 35.6384 214.868C35.3437 215.388 34.9318 215.8 34.403 216.103C33.8741 216.398 33.2759 216.545 32.6083 216.545ZM32.6083 215.726C33.1025 215.726 33.5403 215.618 33.9218 215.401C34.3033 215.176 34.6024 214.864 34.8191 214.465C35.0446 214.057 35.1573 213.589 35.1573 213.06C35.1573 212.523 35.0446 212.054 34.8191 211.656C34.6024 211.257 34.3033 210.949 33.9218 210.732C33.5403 210.507 33.1068 210.394 32.6213 210.394C32.1358 210.394 31.7023 210.507 31.3208 210.732C30.9393 210.949 30.6359 211.257 30.4105 211.656C30.185 212.054 30.0723 212.523 30.0723 213.06C30.0723 213.589 30.185 214.057 30.4105 214.465C30.6359 214.864 30.9393 215.176 31.3208 215.401C31.7023 215.618 32.1314 215.726 32.6083 215.726ZM41.4641 209.588C42.0189 209.588 42.5045 209.696 42.9206 209.913C43.3454 210.121 43.6749 210.442 43.909 210.875C44.1518 211.309 44.2731 211.855 44.2731 212.514V216.48H43.3498V212.605C43.3498 211.885 43.1677 211.344 42.8036 210.979C42.4481 210.607 41.9452 210.42 41.295 210.42C40.8095 210.42 40.3847 210.52 40.0205 210.719C39.665 210.91 39.3876 211.192 39.1882 211.565C38.9975 211.929 38.9021 212.371 38.9021 212.891V216.48H37.9787V209.653H38.8631V211.526L38.72 211.174C38.9368 210.68 39.2836 210.294 39.7604 210.017C40.2373 209.731 40.8051 209.588 41.4641 209.588ZM48.9261 216.545C48.2845 216.545 47.7903 216.372 47.4435 216.025C47.0967 215.678 46.9233 215.189 46.9233 214.556V208.144H47.8467V214.504C47.8467 214.903 47.9464 215.21 48.1458 215.427C48.3538 215.644 48.6486 215.752 49.0301 215.752C49.4376 215.752 49.7757 215.635 50.0445 215.401L50.3696 216.064C50.1875 216.229 49.9665 216.35 49.7064 216.428C49.4549 216.506 49.1948 216.545 48.9261 216.545ZM45.7008 210.42V209.653H49.9274V210.42H45.7008ZM56.3291 216.48V214.972L56.2901 214.725V212.202C56.2901 211.621 56.1254 211.174 55.7959 210.862C55.4752 210.55 54.994 210.394 54.3524 210.394C53.9102 210.394 53.4897 210.468 53.0909 210.615C52.6921 210.763 52.354 210.958 52.0765 211.2L51.6604 210.511C52.0072 210.216 52.4233 209.991 52.9088 209.835C53.3944 209.67 53.9059 209.588 54.4434 209.588C55.3278 209.588 56.0084 209.809 56.4852 210.251C56.9707 210.685 57.2135 211.348 57.2135 212.241V216.48H56.3291ZM53.9752 216.545C53.4637 216.545 53.0172 216.463 52.6357 216.298C52.2629 216.125 51.9768 215.891 51.7774 215.596C51.578 215.293 51.4783 214.946 51.4783 214.556C51.4783 214.2 51.5607 213.879 51.7254 213.593C51.8988 213.299 52.1762 213.064 52.5577 212.891C52.9479 212.709 53.4681 212.618 54.1183 212.618H56.4722V213.307H54.1443C53.4854 213.307 53.0259 213.424 52.7658 213.658C52.5144 213.892 52.3886 214.183 52.3886 214.53C52.3886 214.92 52.5404 215.232 52.8438 215.466C53.1473 215.7 53.5721 215.817 54.1183 215.817C54.6385 215.817 55.085 215.7 55.4578 215.466C55.8393 215.223 56.1167 214.877 56.2901 214.426L56.4982 215.063C56.3248 215.514 56.0214 215.874 55.5879 216.142C55.163 216.411 54.6255 216.545 53.9752 216.545ZM59.7214 216.48V209.653H60.6448V216.48H59.7214ZM60.1896 208.144C59.9988 208.144 59.8385 208.079 59.7084 207.949C59.5784 207.819 59.5133 207.663 59.5133 207.481C59.5133 207.299 59.5784 207.147 59.7084 207.026C59.8385 206.896 59.9988 206.831 60.1896 206.831C60.3803 206.831 60.5407 206.891 60.6708 207.013C60.8008 207.134 60.8658 207.286 60.8658 207.468C60.8658 207.659 60.8008 207.819 60.6708 207.949C60.5494 208.079 60.389 208.144 60.1896 208.144ZM66.6993 209.588C67.2542 209.588 67.7397 209.696 68.1558 209.913C68.5807 210.121 68.9101 210.442 69.1442 210.875C69.387 211.309 69.5084 211.855 69.5084 212.514V216.48H68.585V212.605C68.585 211.885 68.4029 211.344 68.0388 210.979C67.6833 210.607 67.1805 210.42 66.5302 210.42C66.0447 210.42 65.6199 210.52 65.2557 210.719C64.9003 210.91 64.6228 211.192 64.4234 211.565C64.2327 211.929 64.1373 212.371 64.1373 212.891V216.48H63.214V209.653H64.0983V211.526L63.9552 211.174C64.172 210.68 64.5188 210.294 64.9956 210.017C65.4725 209.731 66.0404 209.588 66.6993 209.588ZM74.9026 216.545C74.1916 216.545 73.5674 216.398 73.0299 216.103C72.4923 215.8 72.0718 215.388 71.7684 214.868C71.4649 214.339 71.3132 213.736 71.3132 213.06C71.3132 212.384 71.4563 211.786 71.7424 211.265C72.0371 210.745 72.436 210.338 72.9388 210.043C73.4504 209.74 74.0226 209.588 74.6555 209.588C75.2971 209.588 75.8649 209.735 76.3591 210.03C76.862 210.316 77.2565 210.724 77.5426 211.252C77.8287 211.773 77.9717 212.375 77.9717 213.06C77.9717 213.104 77.9674 213.151 77.9587 213.203C77.9587 213.247 77.9587 213.294 77.9587 213.346H72.0155V212.657H77.4646L77.1004 212.93C77.1004 212.436 76.992 211.998 76.7753 211.617C76.5672 211.226 76.2811 210.923 75.917 210.706C75.5528 210.49 75.1323 210.381 74.6555 210.381C74.1873 210.381 73.7668 210.49 73.394 210.706C73.0212 210.923 72.7307 211.226 72.5227 211.617C72.3146 212.007 72.2105 212.453 72.2105 212.956V213.099C72.2105 213.619 72.3233 214.079 72.5487 214.478C72.7828 214.868 73.1036 215.176 73.511 215.401C73.9272 215.618 74.3997 215.726 74.9286 215.726C75.3447 215.726 75.7306 215.652 76.086 215.505C76.4502 215.358 76.7623 215.132 77.0224 214.829L77.5426 215.427C77.2391 215.791 76.8577 216.069 76.3981 216.259C75.9473 216.45 75.4488 216.545 74.9026 216.545ZM79.8512 216.48V209.653H80.7355V211.513L80.6445 211.187C80.8352 210.667 81.156 210.273 81.6068 210.004C82.0577 209.727 82.6169 209.588 83.2845 209.588V210.485C83.2498 210.485 83.2151 210.485 83.1804 210.485C83.1458 210.477 83.1111 210.472 83.0764 210.472C82.3568 210.472 81.7932 210.693 81.3858 211.135C80.9783 211.569 80.7745 212.189 80.7745 212.995V216.48H79.8512ZM88.4746 216.48V209.653H89.3979V216.48H88.4746ZM88.9428 208.144C88.752 208.144 88.5916 208.079 88.4616 207.949C88.3315 207.819 88.2665 207.663 88.2665 207.481C88.2665 207.299 88.3315 207.147 88.4616 207.026C88.5916 206.896 88.752 206.831 88.9428 206.831C89.1335 206.831 89.2939 206.891 89.4239 207.013C89.554 207.134 89.619 207.286 89.619 207.468C89.619 207.659 89.554 207.819 89.4239 207.949C89.3026 208.079 89.1422 208.144 88.9428 208.144ZM94.6852 216.545C94.0349 216.545 93.4497 216.398 92.9295 216.103C92.418 215.809 92.0148 215.401 91.72 214.881C91.4252 214.352 91.2779 213.745 91.2779 213.06C91.2779 212.367 91.4252 211.76 91.72 211.239C92.0148 210.719 92.418 210.316 92.9295 210.03C93.4497 209.735 94.0349 209.588 94.6852 209.588C95.2834 209.588 95.8166 209.722 96.2848 209.991C96.7616 210.26 97.1388 210.654 97.4162 211.174C97.7023 211.686 97.8454 212.315 97.8454 213.06C97.8454 213.797 97.7066 214.426 97.4292 214.946C97.1518 215.466 96.7746 215.865 96.2978 216.142C95.8296 216.411 95.2921 216.545 94.6852 216.545ZM94.7502 215.726C95.2357 215.726 95.6692 215.618 96.0507 215.401C96.4408 215.176 96.7443 214.864 96.961 214.465C97.1864 214.057 97.2992 213.589 97.2992 213.06C97.2992 212.523 97.1864 212.054 96.961 211.656C96.7443 211.257 96.4408 210.949 96.0507 210.732C95.6692 210.507 95.2357 210.394 94.7502 210.394C94.2733 210.394 93.8442 210.507 93.4627 210.732C93.0812 210.949 92.7778 211.257 92.5523 211.656C92.3269 212.054 92.2142 212.523 92.2142 213.06C92.2142 213.589 92.3269 214.057 92.5523 214.465C92.7778 214.864 93.0812 215.176 93.4627 215.401C93.8442 215.618 94.2733 215.726 94.7502 215.726ZM97.3252 216.48V214.426L97.4162 213.047L97.2861 211.669V206.831H98.2095V216.48H97.3252ZM103.681 216.545C102.97 216.545 102.346 216.398 101.808 216.103C101.271 215.8 100.85 215.388 100.547 214.868C100.243 214.339 100.092 213.736 100.092 213.06C100.092 212.384 100.235 211.786 100.521 211.265C100.816 210.745 101.215 210.338 101.717 210.043C102.229 209.74 102.801 209.588 103.434 209.588C104.076 209.588 104.644 209.735 105.138 210.03C105.641 210.316 106.035 210.724 106.321 211.252C106.607 211.773 106.75 212.375 106.75 213.06C106.75 213.104 106.746 213.151 106.737 213.203C106.737 213.247 106.737 213.294 106.737 213.346H100.794V212.657H106.243L105.879 212.93C105.879 212.436 105.771 211.998 105.554 211.617C105.346 211.226 105.06 210.923 104.696 210.706C104.331 210.49 103.911 210.381 103.434 210.381C102.966 210.381 102.545 210.49 102.173 210.706C101.8 210.923 101.509 211.226 101.301 211.617C101.093 212.007 100.989 212.453 100.989 212.956V213.099C100.989 213.619 101.102 214.079 101.327 214.478C101.561 214.868 101.882 215.176 102.29 215.401C102.706 215.618 103.178 215.726 103.707 215.726C104.123 215.726 104.509 215.652 104.865 215.505C105.229 215.358 105.541 215.132 105.801 214.829L106.321 215.427C106.018 215.791 105.636 216.069 105.177 216.259C104.726 216.45 104.227 216.545 103.681 216.545ZM112.718 216.48V214.972L112.679 214.725V212.202C112.679 211.621 112.514 211.174 112.185 210.862C111.864 210.55 111.383 210.394 110.741 210.394C110.299 210.394 109.878 210.468 109.48 210.615C109.081 210.763 108.743 210.958 108.465 211.2L108.049 210.511C108.396 210.216 108.812 209.991 109.298 209.835C109.783 209.67 110.295 209.588 110.832 209.588C111.716 209.588 112.397 209.809 112.874 210.251C113.359 210.685 113.602 211.348 113.602 212.241V216.48H112.718ZM110.364 216.545C109.852 216.545 109.406 216.463 109.024 216.298C108.652 216.125 108.366 215.891 108.166 215.596C107.967 215.293 107.867 214.946 107.867 214.556C107.867 214.2 107.949 213.879 108.114 213.593C108.288 213.299 108.565 213.064 108.946 212.891C109.337 212.709 109.857 212.618 110.507 212.618H112.861V213.307H110.533C109.874 213.307 109.415 213.424 109.154 213.658C108.903 213.892 108.777 214.183 108.777 214.53C108.777 214.92 108.929 215.232 109.233 215.466C109.536 215.7 109.961 215.817 110.507 215.817C111.027 215.817 111.474 215.7 111.847 215.466C112.228 215.223 112.505 214.877 112.679 214.426L112.887 215.063C112.714 215.514 112.41 215.874 111.977 216.142C111.552 216.411 111.014 216.545 110.364 216.545ZM116.11 216.48V206.831H117.033V216.48H116.11ZM123.162 216.48V208.795C123.162 208.188 123.34 207.698 123.696 207.325C124.051 206.952 124.563 206.766 125.23 206.766C125.49 206.766 125.742 206.8 125.984 206.87C126.227 206.939 126.431 207.048 126.596 207.195L126.284 207.884C126.154 207.771 126.002 207.689 125.828 207.637C125.655 207.576 125.469 207.546 125.269 207.546C124.879 207.546 124.58 207.654 124.372 207.871C124.164 208.088 124.06 208.409 124.06 208.834V209.874L124.086 210.303V216.48H123.162ZM121.94 210.42V209.653H126.167V210.42H121.94ZM130.082 216.545C129.423 216.545 128.829 216.398 128.3 216.103C127.78 215.8 127.368 215.388 127.065 214.868C126.761 214.339 126.61 213.736 126.61 213.06C126.61 212.375 126.761 211.773 127.065 211.252C127.368 210.732 127.78 210.325 128.3 210.03C128.821 209.735 129.414 209.588 130.082 209.588C130.758 209.588 131.357 209.735 131.877 210.03C132.406 210.325 132.817 210.732 133.112 211.252C133.416 211.773 133.567 212.375 133.567 213.06C133.567 213.736 133.416 214.339 133.112 214.868C132.817 215.388 132.406 215.8 131.877 216.103C131.348 216.398 130.75 216.545 130.082 216.545ZM130.082 215.726C130.576 215.726 131.014 215.618 131.396 215.401C131.777 215.176 132.076 214.864 132.293 214.465C132.518 214.057 132.631 213.589 132.631 213.06C132.631 212.523 132.518 212.054 132.293 211.656C132.076 211.257 131.777 210.949 131.396 210.732C131.014 210.507 130.581 210.394 130.095 210.394C129.61 210.394 129.176 210.507 128.795 210.732C128.413 210.949 128.11 211.257 127.884 211.656C127.659 212.054 127.546 212.523 127.546 213.06C127.546 213.589 127.659 214.057 127.884 214.465C128.11 214.864 128.413 215.176 128.795 215.401C129.176 215.618 129.605 215.726 130.082 215.726ZM135.452 216.48V209.653H136.337V211.513L136.246 211.187C136.437 210.667 136.757 210.273 137.208 210.004C137.659 209.727 138.218 209.588 138.886 209.588V210.485C138.851 210.485 138.816 210.485 138.782 210.485C138.747 210.477 138.712 210.472 138.678 210.472C137.958 210.472 137.395 210.693 136.987 211.135C136.58 211.569 136.376 212.189 136.376 212.995V216.48H135.452ZM146.037 216.558C145.465 216.558 144.919 216.48 144.399 216.324C143.887 216.168 143.484 215.978 143.189 215.752L143.71 214.764C144.004 214.963 144.369 215.132 144.802 215.271C145.236 215.41 145.678 215.479 146.129 215.479C146.709 215.479 147.126 215.397 147.377 215.232C147.637 215.067 147.767 214.838 147.767 214.543C147.767 214.326 147.689 214.157 147.533 214.036C147.377 213.914 147.169 213.823 146.909 213.762C146.657 213.702 146.376 213.65 146.064 213.606C145.751 213.554 145.439 213.494 145.127 213.424C144.815 213.346 144.529 213.242 144.269 213.112C144.009 212.973 143.801 212.787 143.645 212.553C143.489 212.31 143.41 211.989 143.41 211.591C143.41 211.174 143.528 210.81 143.762 210.498C143.996 210.186 144.325 209.948 144.75 209.783C145.184 209.61 145.695 209.523 146.285 209.523C146.735 209.523 147.191 209.579 147.65 209.692C148.118 209.796 148.5 209.948 148.795 210.147L148.261 211.135C147.949 210.927 147.624 210.784 147.286 210.706C146.948 210.628 146.61 210.589 146.272 210.589C145.725 210.589 145.318 210.68 145.049 210.862C144.78 211.036 144.646 211.261 144.646 211.539C144.646 211.773 144.724 211.955 144.88 212.085C145.045 212.206 145.253 212.302 145.504 212.371C145.764 212.44 146.051 212.501 146.363 212.553C146.675 212.596 146.987 212.657 147.299 212.735C147.611 212.804 147.893 212.904 148.144 213.034C148.404 213.164 148.612 213.346 148.769 213.58C148.933 213.814 149.016 214.127 149.016 214.517C149.016 214.933 148.894 215.293 148.651 215.596C148.409 215.9 148.066 216.138 147.624 216.311C147.182 216.476 146.653 216.558 146.037 216.558ZM154.256 209.523C154.82 209.523 155.314 209.631 155.739 209.848C156.172 210.065 156.511 210.394 156.753 210.836C156.996 211.278 157.117 211.838 157.117 212.514V216.48H155.869V212.657C155.869 211.989 155.704 211.487 155.375 211.148C155.054 210.81 154.599 210.641 154.009 210.641C153.567 210.641 153.181 210.728 152.852 210.901C152.522 211.075 152.267 211.331 152.084 211.669C151.911 212.007 151.824 212.427 151.824 212.93V216.48H150.576V209.588H151.772V211.448L151.577 210.953C151.803 210.503 152.15 210.151 152.618 209.9C153.086 209.649 153.632 209.523 154.256 209.523ZM163.707 216.48V215.024L163.642 214.751V212.267C163.642 211.738 163.485 211.331 163.173 211.044C162.87 210.75 162.41 210.602 161.795 210.602C161.387 210.602 160.989 210.672 160.598 210.81C160.208 210.94 159.879 211.118 159.61 211.344L159.09 210.407C159.445 210.121 159.87 209.904 160.364 209.757C160.867 209.601 161.392 209.523 161.938 209.523C162.883 209.523 163.611 209.753 164.123 210.212C164.634 210.672 164.89 211.374 164.89 212.319V216.48H163.707ZM161.444 216.558C160.932 216.558 160.481 216.472 160.091 216.298C159.71 216.125 159.415 215.887 159.207 215.583C158.999 215.271 158.895 214.92 158.895 214.53C158.895 214.157 158.981 213.819 159.155 213.515C159.337 213.212 159.627 212.969 160.026 212.787C160.434 212.605 160.98 212.514 161.665 212.514H163.85V213.411H161.717C161.093 213.411 160.672 213.515 160.455 213.723C160.239 213.931 160.13 214.183 160.13 214.478C160.13 214.816 160.265 215.089 160.533 215.297C160.802 215.496 161.175 215.596 161.652 215.596C162.12 215.596 162.527 215.492 162.874 215.284C163.23 215.076 163.485 214.772 163.642 214.374L163.889 215.232C163.724 215.639 163.433 215.965 163.017 216.207C162.601 216.441 162.077 216.558 161.444 216.558ZM170.205 216.558C169.502 216.558 168.874 216.407 168.319 216.103C167.773 215.8 167.343 215.384 167.031 214.855C166.719 214.326 166.563 213.719 166.563 213.034C166.563 212.349 166.719 211.742 167.031 211.213C167.343 210.685 167.773 210.273 168.319 209.978C168.874 209.675 169.502 209.523 170.205 209.523C170.829 209.523 171.384 209.649 171.869 209.9C172.363 210.143 172.745 210.507 173.014 210.992L172.064 211.604C171.839 211.265 171.561 211.018 171.232 210.862C170.911 210.698 170.564 210.615 170.192 210.615C169.741 210.615 169.338 210.715 168.982 210.914C168.627 211.114 168.345 211.396 168.137 211.76C167.929 212.115 167.825 212.54 167.825 213.034C167.825 213.528 167.929 213.958 168.137 214.322C168.345 214.686 168.627 214.968 168.982 215.167C169.338 215.366 169.741 215.466 170.192 215.466C170.564 215.466 170.911 215.388 171.232 215.232C171.561 215.067 171.839 214.816 172.064 214.478L173.014 215.076C172.745 215.553 172.363 215.921 171.869 216.181C171.384 216.433 170.829 216.558 170.205 216.558ZM175.556 214.816L175.582 213.216L179.548 209.588H181.057L178.013 212.579L177.337 213.151L175.556 214.816ZM174.541 216.48V206.831H175.79V216.48H174.541ZM179.808 216.48L177.103 213.125L177.909 212.124L181.343 216.48H179.808ZM184.316 216.558C183.744 216.558 183.197 216.48 182.677 216.324C182.166 216.168 181.762 215.978 181.468 215.752L181.988 214.764C182.283 214.963 182.647 215.132 183.08 215.271C183.514 215.41 183.956 215.479 184.407 215.479C184.988 215.479 185.404 215.397 185.655 215.232C185.915 215.067 186.045 214.838 186.045 214.543C186.045 214.326 185.967 214.157 185.811 214.036C185.655 213.914 185.447 213.823 185.187 213.762C184.936 213.702 184.654 213.65 184.342 213.606C184.03 213.554 183.718 213.494 183.405 213.424C183.093 213.346 182.807 213.242 182.547 213.112C182.287 212.973 182.079 212.787 181.923 212.553C181.767 212.31 181.689 211.989 181.689 211.591C181.689 211.174 181.806 210.81 182.04 210.498C182.274 210.186 182.603 209.948 183.028 209.783C183.462 209.61 183.973 209.523 184.563 209.523C185.014 209.523 185.469 209.579 185.928 209.692C186.397 209.796 186.778 209.948 187.073 210.147L186.54 211.135C186.228 210.927 185.902 210.784 185.564 210.706C185.226 210.628 184.888 210.589 184.55 210.589C184.004 210.589 183.596 210.68 183.327 210.862C183.059 211.036 182.924 211.261 182.924 211.539C182.924 211.773 183.002 211.955 183.158 212.085C183.323 212.206 183.531 212.302 183.783 212.371C184.043 212.44 184.329 212.501 184.641 212.553C184.953 212.596 185.265 212.657 185.577 212.735C185.889 212.804 186.171 212.904 186.423 213.034C186.683 213.164 186.891 213.346 187.047 213.58C187.212 213.814 187.294 214.127 187.294 214.517C187.294 214.933 187.173 215.293 186.93 215.596C186.687 215.9 186.345 216.138 185.902 216.311C185.46 216.476 184.931 216.558 184.316 216.558ZM188.36 218.405L189.01 215.778L189.179 216.532C188.928 216.532 188.715 216.454 188.542 216.298C188.377 216.142 188.295 215.93 188.295 215.661C188.295 215.401 188.377 215.189 188.542 215.024C188.715 214.859 188.924 214.777 189.166 214.777C189.418 214.777 189.622 214.864 189.778 215.037C189.934 215.202 190.012 215.41 190.012 215.661C190.012 215.748 190.003 215.835 189.986 215.921C189.977 215.999 189.955 216.095 189.921 216.207C189.895 216.311 189.851 216.441 189.791 216.598L189.179 218.405H188.36ZM35.3238 235.558C34.7516 235.558 34.2054 235.48 33.6852 235.324C33.1737 235.168 32.7705 234.978 32.4758 234.752L32.996 233.764C33.2907 233.963 33.6549 234.132 34.0884 234.271C34.5219 234.41 34.964 234.479 35.4149 234.479C35.9958 234.479 36.4119 234.397 36.6634 234.232C36.9235 234.067 37.0535 233.838 37.0535 233.543C37.0535 233.326 36.9755 233.157 36.8194 233.036C36.6634 232.914 36.4553 232.823 36.1952 232.762C35.9437 232.702 35.662 232.65 35.3499 232.606C35.0377 232.554 34.7256 232.494 34.4135 232.424C34.1014 232.346 33.8153 232.242 33.5552 232.112C33.2951 231.973 33.087 231.787 32.9309 231.553C32.7749 231.31 32.6968 230.989 32.6968 230.591C32.6968 230.174 32.8139 229.81 33.048 229.498C33.2821 229.186 33.6115 228.948 34.0364 228.783C34.4698 228.61 34.9814 228.523 35.5709 228.523C36.0218 228.523 36.4769 228.579 36.9365 228.692C37.4046 228.796 37.7861 228.948 38.0809 229.147L37.5477 230.135C37.2356 229.927 36.9104 229.784 36.5723 229.706C36.2342 229.628 35.8961 229.589 35.5579 229.589C35.0117 229.589 34.6042 229.68 34.3355 229.862C34.0667 230.036 33.9323 230.261 33.9323 230.539C33.9323 230.773 34.0103 230.955 34.1664 231.085C34.3311 231.206 34.5392 231.302 34.7906 231.371C35.0507 231.44 35.3368 231.501 35.649 231.553C35.9611 231.596 36.2732 231.657 36.5853 231.735C36.8974 231.804 37.1792 231.904 37.4306 232.034C37.6907 232.164 37.8988 232.346 38.0549 232.58C38.2196 232.814 38.302 233.127 38.302 233.517C38.302 233.933 38.1806 234.293 37.9378 234.596C37.6951 234.9 37.3526 235.138 36.9104 235.311C36.4683 235.476 35.9394 235.558 35.3238 235.558ZM41.1918 235.48L38.6298 228.588H39.8133L42.0892 234.83H41.53L43.8969 228.588H44.9503L47.2651 234.83H46.7189L49.0468 228.588H50.1652L47.5903 235.48H46.3938L44.222 229.784H44.5861L42.3883 235.48H41.1918ZM54.3108 235.558C53.5738 235.558 52.9236 235.407 52.36 235.103C51.8052 234.8 51.3717 234.384 51.0595 233.855C50.7561 233.326 50.6044 232.719 50.6044 232.034C50.6044 231.349 50.7518 230.742 51.0465 230.213C51.35 229.685 51.7618 229.273 52.282 228.978C52.8109 228.675 53.4048 228.523 54.0637 228.523C54.7313 228.523 55.3208 228.67 55.8324 228.965C56.3439 229.26 56.7427 229.676 57.0288 230.213C57.3236 230.742 57.471 231.362 57.471 232.073C57.471 232.125 57.4667 232.186 57.458 232.255C57.458 232.325 57.4537 232.39 57.445 232.45H51.5797V231.553H56.7947L56.2875 231.865C56.2962 231.423 56.2052 231.028 56.0144 230.682C55.8237 230.335 55.5593 230.066 55.2211 229.875C54.8917 229.676 54.5059 229.576 54.0637 229.576C53.6302 229.576 53.2444 229.676 52.9063 229.875C52.5681 230.066 52.3037 230.339 52.1129 230.695C51.9222 231.041 51.8268 231.44 51.8268 231.891V232.099C51.8268 232.559 51.9309 232.971 52.139 233.335C52.3557 233.69 52.6548 233.968 53.0363 234.167C53.4178 234.366 53.8556 234.466 54.3498 234.466C54.7573 234.466 55.1258 234.397 55.4552 234.258C55.7934 234.119 56.0881 233.911 56.3396 233.634L57.0288 234.44C56.7167 234.804 56.3266 235.082 55.8584 235.272C55.3989 235.463 54.883 235.558 54.3108 235.558ZM62.2738 235.558C61.5368 235.558 60.8866 235.407 60.323 235.103C59.7682 234.8 59.3347 234.384 59.0225 233.855C58.7191 233.326 58.5674 232.719 58.5674 232.034C58.5674 231.349 58.7148 230.742 59.0095 230.213C59.313 229.685 59.7248 229.273 60.245 228.978C60.7739 228.675 61.3678 228.523 62.0267 228.523C62.6943 228.523 63.2838 228.67 63.7954 228.965C64.3069 229.26 64.7057 229.676 64.9918 230.213C65.2866 230.742 65.434 231.362 65.434 232.073C65.434 232.125 65.4297 232.186 65.421 232.255C65.421 232.325 65.4167 232.39 65.408 232.45H59.5427V231.553H64.7577L64.2505 231.865C64.2592 231.423 64.1682 231.028 63.9774 230.682C63.7867 230.335 63.5223 230.066 63.1841 229.875C62.8547 229.676 62.4689 229.576 62.0267 229.576C61.5932 229.576 61.2074 229.676 60.8693 229.875C60.5311 230.066 60.2667 230.339 60.0759 230.695C59.8852 231.041 59.7898 231.44 59.7898 231.891V232.099C59.7898 232.559 59.8939 232.971 60.102 233.335C60.3187 233.69 60.6178 233.968 60.9993 234.167C61.3808 234.366 61.8186 234.466 62.3128 234.466C62.7203 234.466 63.0888 234.397 63.4182 234.258C63.7564 234.119 64.0511 233.911 64.3026 233.634L64.9918 234.44C64.6797 234.804 64.2896 235.082 63.8214 235.272C63.3619 235.463 62.846 235.558 62.2738 235.558ZM69.5345 235.558C68.8409 235.558 68.3034 235.372 67.9219 234.999C67.5404 234.626 67.3497 234.093 67.3497 233.4V227.079H68.5982V233.348C68.5982 233.72 68.6892 234.007 68.8713 234.206C69.062 234.405 69.3308 234.505 69.6776 234.505C70.0677 234.505 70.3928 234.397 70.6529 234.18L71.0431 235.077C70.8524 235.242 70.6226 235.363 70.3538 235.441C70.0937 235.519 69.8206 235.558 69.5345 235.558ZM66.1792 229.615V228.588H70.5749V229.615H66.1792ZM74.5292 235.558C73.957 235.558 73.4108 235.48 72.8906 235.324C72.3791 235.168 71.9759 234.978 71.6811 234.752L72.2013 233.764C72.4961 233.963 72.8603 234.132 73.2938 234.271C73.7273 234.41 74.1694 234.479 74.6203 234.479C75.2012 234.479 75.6173 234.397 75.8687 234.232C76.1288 234.067 76.2589 233.838 76.2589 233.543C76.2589 233.326 76.1809 233.157 76.0248 233.036C75.8687 232.914 75.6607 232.823 75.4006 232.762C75.1491 232.702 74.8674 232.65 74.5552 232.606C74.2431 232.554 73.931 232.494 73.6189 232.424C73.3068 232.346 73.0207 232.242 72.7606 232.112C72.5005 231.973 72.2924 231.787 72.1363 231.553C71.9803 231.31 71.9022 230.989 71.9022 230.591C71.9022 230.174 72.0193 229.81 72.2534 229.498C72.4875 229.186 72.8169 228.948 73.2417 228.783C73.6752 228.61 74.1868 228.523 74.7763 228.523C75.2272 228.523 75.6823 228.579 76.1419 228.692C76.61 228.796 76.9915 228.948 77.2863 229.147L76.7531 230.135C76.441 229.927 76.1158 229.784 75.7777 229.706C75.4396 229.628 75.1015 229.589 74.7633 229.589C74.2171 229.589 73.8096 229.68 73.5409 229.862C73.2721 230.036 73.1377 230.261 73.1377 230.539C73.1377 230.773 73.2157 230.955 73.3718 231.085C73.5365 231.206 73.7446 231.302 73.996 231.371C74.2561 231.44 74.5422 231.501 74.8544 231.553C75.1665 231.596 75.4786 231.657 75.7907 231.735C76.1028 231.804 76.3846 231.904 76.636 232.034C76.8961 232.164 77.1042 232.346 77.2603 232.58C77.425 232.814 77.5074 233.127 77.5074 233.517C77.5074 233.933 77.386 234.293 77.1432 234.596C76.9005 234.9 76.558 235.138 76.1158 235.311C75.6737 235.476 75.1448 235.558 74.5292 235.558ZM78.5735 237.405L79.2237 234.778L79.3928 235.532C79.1414 235.532 78.9289 235.454 78.7555 235.298C78.5908 235.142 78.5085 234.93 78.5085 234.661C78.5085 234.401 78.5908 234.189 78.7555 234.024C78.9289 233.859 79.137 233.777 79.3798 233.777C79.6312 233.777 79.835 233.864 79.991 234.037C80.1471 234.202 80.2251 234.41 80.2251 234.661C80.2251 234.748 80.2164 234.835 80.1991 234.921C80.1904 234.999 80.1688 235.095 80.1341 235.207C80.1081 235.311 80.0647 235.441 80.004 235.598L79.3928 237.405H78.5735ZM89.8004 235.48V233.972L89.7614 233.725V231.202C89.7614 230.621 89.5967 230.174 89.2672 229.862C88.9464 229.55 88.4652 229.394 87.8237 229.394C87.3815 229.394 86.961 229.468 86.5622 229.615C86.1634 229.763 85.8252 229.958 85.5478 230.2L85.1316 229.511C85.4784 229.216 85.8946 228.991 86.3801 228.835C86.8656 228.67 87.3772 228.588 87.9147 228.588C88.799 228.588 89.4796 228.809 89.9565 229.251C90.442 229.685 90.6848 230.348 90.6848 231.241V235.48H89.8004ZM87.4465 235.545C86.935 235.545 86.4885 235.463 86.107 235.298C85.7342 235.125 85.4481 234.891 85.2487 234.596C85.0493 234.293 84.9496 233.946 84.9496 233.556C84.9496 233.2 85.0319 232.879 85.1967 232.593C85.3701 232.299 85.6475 232.064 86.029 231.891C86.4191 231.709 86.9393 231.618 87.5896 231.618H89.9435V232.307H87.6156C86.9567 232.307 86.4972 232.424 86.2371 232.658C85.9856 232.892 85.8599 233.183 85.8599 233.53C85.8599 233.92 86.0116 234.232 86.3151 234.466C86.6185 234.7 87.0434 234.817 87.5896 234.817C88.1098 234.817 88.5563 234.7 88.9291 234.466C89.3106 234.223 89.588 233.877 89.7614 233.426L89.9695 234.063C89.7961 234.514 89.4926 234.874 89.0591 235.142C88.6343 235.411 88.0968 235.545 87.4465 235.545ZM96.678 228.588C97.2329 228.588 97.7184 228.696 98.1346 228.913C98.5594 229.121 98.8889 229.442 99.1229 229.875C99.3657 230.309 99.4871 230.855 99.4871 231.514V235.48H98.5637V231.605C98.5637 230.885 98.3817 230.344 98.0175 229.979C97.6621 229.607 97.1592 229.42 96.5089 229.42C96.0234 229.42 95.5986 229.52 95.2345 229.719C94.879 229.91 94.6016 230.192 94.4021 230.565C94.2114 230.929 94.116 231.371 94.116 231.891V235.48H93.1927V228.653H94.077V230.526L93.934 230.174C94.1507 229.68 94.4975 229.294 94.9744 229.017C95.4512 228.731 96.0191 228.588 96.678 228.588ZM104.699 235.545C104.049 235.545 103.464 235.398 102.944 235.103C102.432 234.809 102.029 234.401 101.734 233.881C101.439 233.352 101.292 232.745 101.292 232.06C101.292 231.367 101.439 230.76 101.734 230.239C102.029 229.719 102.432 229.316 102.944 229.03C103.464 228.735 104.049 228.588 104.699 228.588C105.297 228.588 105.831 228.722 106.299 228.991C106.776 229.26 107.153 229.654 107.43 230.174C107.716 230.686 107.859 231.315 107.859 232.06C107.859 232.797 107.721 233.426 107.443 233.946C107.166 234.466 106.789 234.865 106.312 235.142C105.844 235.411 105.306 235.545 104.699 235.545ZM104.764 234.726C105.25 234.726 105.683 234.618 106.065 234.401C106.455 234.176 106.758 233.864 106.975 233.465C107.201 233.057 107.313 232.589 107.313 232.06C107.313 231.523 107.201 231.054 106.975 230.656C106.758 230.257 106.455 229.949 106.065 229.732C105.683 229.507 105.25 229.394 104.764 229.394C104.287 229.394 103.858 229.507 103.477 229.732C103.095 229.949 102.792 230.257 102.566 230.656C102.341 231.054 102.228 231.523 102.228 232.06C102.228 232.589 102.341 233.057 102.566 233.465C102.792 233.864 103.095 234.176 103.477 234.401C103.858 234.618 104.287 234.726 104.764 234.726ZM107.339 235.48V233.426L107.43 232.047L107.3 230.669V225.831H108.224V235.48H107.339ZM114.184 235.48V228.588H115.432V235.48H114.184ZM114.808 227.261C114.565 227.261 114.361 227.183 114.197 227.027C114.041 226.871 113.963 226.68 113.963 226.455C113.963 226.221 114.041 226.026 114.197 225.87C114.361 225.714 114.565 225.636 114.808 225.636C115.051 225.636 115.25 225.714 115.406 225.87C115.571 226.017 115.653 226.204 115.653 226.429C115.653 226.663 115.575 226.863 115.419 227.027C115.263 227.183 115.059 227.261 114.808 227.261ZM121.496 228.523C122.06 228.523 122.554 228.631 122.979 228.848C123.412 229.065 123.75 229.394 123.993 229.836C124.236 230.278 124.357 230.838 124.357 231.514V235.48H123.109V231.657C123.109 230.989 122.944 230.487 122.615 230.148C122.294 229.81 121.839 229.641 121.249 229.641C120.807 229.641 120.421 229.728 120.092 229.901C119.762 230.075 119.506 230.331 119.324 230.669C119.151 231.007 119.064 231.427 119.064 231.93V235.48L117.816 235.48V228.588L119.012 228.588V230.448L118.817 229.953C119.043 229.503 119.389 229.151 119.858 228.9C120.326 228.649 120.872 228.523 121.496 228.523ZM129.516 235.558C128.848 235.558 128.25 235.411 127.721 235.116C127.201 234.822 126.789 234.41 126.486 233.881C126.182 233.352 126.031 232.736 126.031 232.034C126.031 231.332 126.182 230.721 126.486 230.2C126.789 229.672 127.201 229.26 127.721 228.965C128.25 228.67 128.848 228.523 129.516 228.523C130.097 228.523 130.621 228.653 131.09 228.913C131.558 229.173 131.931 229.563 132.208 230.083C132.494 230.604 132.637 231.254 132.637 232.034C132.637 232.814 132.498 233.465 132.221 233.985C131.952 234.505 131.584 234.9 131.116 235.168C130.647 235.428 130.114 235.558 129.516 235.558ZM129.62 234.466C130.053 234.466 130.444 234.366 130.79 234.167C131.146 233.968 131.423 233.686 131.623 233.322C131.831 232.949 131.935 232.52 131.935 232.034C131.935 231.54 131.831 231.115 131.623 230.76C131.423 230.396 131.146 230.114 130.79 229.914C130.444 229.715 130.053 229.615 129.62 229.615C129.178 229.615 128.783 229.715 128.437 229.914C128.09 230.114 127.812 230.396 127.604 230.76C127.396 231.115 127.292 231.54 127.292 232.034C127.292 232.52 127.396 232.949 127.604 233.322C127.812 233.686 128.09 233.968 128.437 234.167C128.783 234.366 129.178 234.466 129.62 234.466ZM131.974 235.48V233.621L132.052 232.021L131.922 230.422V225.831H133.17V235.48H131.974ZM135.533 235.48V228.588H136.781V235.48H135.533ZM136.157 227.261C135.914 227.261 135.71 227.183 135.546 227.027C135.39 226.871 135.311 226.68 135.311 226.455C135.311 226.221 135.39 226.026 135.546 225.87C135.71 225.714 135.914 225.636 136.157 225.636C136.4 225.636 136.599 225.714 136.755 225.87C136.92 226.017 137.002 226.204 137.002 226.429C137.002 226.663 136.924 226.863 136.768 227.027C136.612 227.183 136.408 227.261 136.157 227.261ZM140.973 235.48L137.955 228.588H139.256L141.935 234.83H141.311L144.042 228.588H145.264L142.247 235.48H140.973ZM146.429 235.48V228.588H147.678V235.48H146.429ZM147.054 227.261C146.811 227.261 146.607 227.183 146.442 227.027C146.286 226.871 146.208 226.68 146.208 226.455C146.208 226.221 146.286 226.026 146.442 225.87C146.607 225.714 146.811 225.636 147.054 225.636C147.296 225.636 147.496 225.714 147.652 225.87C147.817 226.017 147.899 226.204 147.899 226.429C147.899 226.663 147.821 226.863 147.665 227.027C147.509 227.183 147.305 227.261 147.054 227.261ZM152.91 235.558C152.242 235.558 151.644 235.411 151.115 235.116C150.595 234.822 150.183 234.41 149.879 233.881C149.576 233.352 149.424 232.736 149.424 232.034C149.424 231.332 149.576 230.721 149.879 230.2C150.183 229.672 150.595 229.26 151.115 228.965C151.644 228.67 152.242 228.523 152.91 228.523C153.491 228.523 154.015 228.653 154.483 228.913C154.951 229.173 155.324 229.563 155.602 230.083C155.888 230.604 156.031 231.254 156.031 232.034C156.031 232.814 155.892 233.465 155.615 233.985C155.346 234.505 154.977 234.9 154.509 235.168C154.041 235.428 153.508 235.558 152.91 235.558ZM153.014 234.466C153.447 234.466 153.837 234.366 154.184 234.167C154.54 233.968 154.817 233.686 155.016 233.322C155.225 232.949 155.329 232.52 155.329 232.034C155.329 231.54 155.225 231.115 155.016 230.76C154.817 230.396 154.54 230.114 154.184 229.914C153.837 229.715 153.447 229.615 153.014 229.615C152.572 229.615 152.177 229.715 151.83 229.914C151.483 230.114 151.206 230.396 150.998 230.76C150.79 231.115 150.686 231.54 150.686 232.034C150.686 232.52 150.79 232.949 150.998 233.322C151.206 233.686 151.483 233.968 151.83 234.167C152.177 234.366 152.572 234.466 153.014 234.466ZM155.368 235.48V233.621L155.446 232.021L155.316 230.422V225.831H156.564V235.48H155.368ZM161.826 235.558C161.237 235.558 160.717 235.45 160.266 235.233C159.824 235.017 159.477 234.687 159.225 234.245C158.983 233.794 158.861 233.231 158.861 232.554V228.588H160.11V232.411C160.11 233.088 160.27 233.595 160.591 233.933C160.92 234.271 161.38 234.44 161.969 234.44C162.403 234.44 162.78 234.353 163.101 234.18C163.422 233.998 163.669 233.738 163.842 233.4C164.016 233.053 164.102 232.637 164.102 232.151V228.588H165.351V235.48H164.167V233.621L164.362 234.115C164.137 234.574 163.799 234.93 163.348 235.181C162.897 235.433 162.39 235.558 161.826 235.558ZM172.006 235.48V234.024L171.941 233.751V231.267C171.941 230.738 171.785 230.331 171.473 230.044C171.169 229.75 170.71 229.602 170.094 229.602C169.687 229.602 169.288 229.672 168.898 229.81C168.508 229.94 168.178 230.118 167.91 230.344L167.389 229.407C167.745 229.121 168.17 228.904 168.664 228.757C169.167 228.601 169.691 228.523 170.237 228.523C171.182 228.523 171.911 228.753 172.422 229.212C172.934 229.672 173.19 230.374 173.19 231.319V235.48H172.006ZM169.743 235.558C169.232 235.558 168.781 235.472 168.391 235.298C168.009 235.125 167.714 234.887 167.506 234.583C167.298 234.271 167.194 233.92 167.194 233.53C167.194 233.157 167.281 232.819 167.454 232.515C167.636 232.212 167.927 231.969 168.326 231.787C168.733 231.605 169.279 231.514 169.964 231.514H172.149V232.411H170.016C169.392 232.411 168.972 232.515 168.755 232.723C168.538 232.931 168.43 233.183 168.43 233.478C168.43 233.816 168.564 234.089 168.833 234.297C169.102 234.496 169.474 234.596 169.951 234.596C170.42 234.596 170.827 234.492 171.174 234.284C171.529 234.076 171.785 233.772 171.941 233.374L172.188 234.232C172.023 234.639 171.733 234.965 171.317 235.207C170.901 235.441 170.376 235.558 169.743 235.558ZM175.5 235.48V225.831H176.748V235.48H175.5ZM19.0549 255.558C18.4827 255.558 17.9365 255.48 17.4163 255.324C16.9048 255.168 16.5016 254.978 16.2068 254.752L16.727 253.764C17.0218 253.963 17.386 254.132 17.8195 254.271C18.253 254.41 18.6951 254.479 19.146 254.479C19.7269 254.479 20.143 254.397 20.3944 254.232C20.6545 254.067 20.7846 253.838 20.7846 253.543C20.7846 253.326 20.7066 253.157 20.5505 253.036C20.3944 252.914 20.1864 252.823 19.9263 252.762C19.6748 252.702 19.3931 252.65 19.0809 252.606C18.7688 252.554 18.4567 252.494 18.1446 252.424C17.8325 252.346 17.5464 252.242 17.2863 252.112C17.0262 251.973 16.8181 251.787 16.662 251.553C16.506 251.31 16.4279 250.989 16.4279 250.591C16.4279 250.174 16.545 249.81 16.7791 249.498C17.0131 249.186 17.3426 248.948 17.7674 248.783C18.2009 248.61 18.7125 248.523 19.302 248.523C19.7529 248.523 20.208 248.579 20.6675 248.692C21.1357 248.796 21.5172 248.948 21.812 249.147L21.2788 250.135C20.9667 249.927 20.6415 249.784 20.3034 249.706C19.9653 249.628 19.6271 249.589 19.289 249.589C18.7428 249.589 18.3353 249.68 18.0666 249.862C17.7978 250.036 17.6634 250.261 17.6634 250.539C17.6634 250.773 17.7414 250.955 17.8975 251.085C18.0622 251.206 18.2703 251.302 18.5217 251.371C18.7818 251.44 19.0679 251.501 19.3801 251.553C19.6922 251.596 20.0043 251.657 20.3164 251.735C20.6285 251.804 20.9103 251.904 21.1617 252.034C21.4218 252.164 21.6299 252.346 21.786 252.58C21.9507 252.814 22.0331 253.127 22.0331 253.517C22.0331 253.933 21.9117 254.293 21.6689 254.596C21.4262 254.9 21.0837 255.138 20.6415 255.311C20.1994 255.476 19.6705 255.558 19.0549 255.558ZM26.6625 255.558C25.9256 255.558 25.2753 255.407 24.7118 255.103C24.1569 254.8 23.7234 254.384 23.4113 253.855C23.1078 253.326 22.9561 252.719 22.9561 252.034C22.9561 251.349 23.1035 250.742 23.3983 250.213C23.7017 249.685 24.1136 249.273 24.6338 248.978C25.1626 248.675 25.7565 248.523 26.4154 248.523C27.083 248.523 27.6726 248.67 28.1841 248.965C28.6956 249.26 29.0945 249.676 29.3806 250.213C29.6753 250.742 29.8227 251.362 29.8227 252.073C29.8227 252.125 29.8184 252.186 29.8097 252.255C29.8097 252.325 29.8054 252.39 29.7967 252.45H23.9315V251.553H29.1465L28.6393 251.865C28.648 251.423 28.5569 251.028 28.3662 250.682C28.1754 250.335 27.911 250.066 27.5729 249.875C27.2434 249.676 26.8576 249.576 26.4154 249.576C25.9819 249.576 25.5961 249.676 25.258 249.875C24.9199 250.066 24.6554 250.339 24.4647 250.695C24.2739 251.041 24.1786 251.44 24.1786 251.891V252.099C24.1786 252.559 24.2826 252.971 24.4907 253.335C24.7074 253.69 25.0066 253.968 25.388 254.167C25.7695 254.366 26.2074 254.466 26.7015 254.466C27.109 254.466 27.4775 254.397 27.807 254.258C28.1451 254.119 28.4399 253.911 28.6913 253.634L29.3806 254.44C29.0684 254.804 28.6783 255.082 28.2101 255.272C27.7506 255.463 27.2347 255.558 26.6625 255.558ZM31.5564 255.48V248.588H32.7528V250.461L32.6358 249.992C32.8265 249.516 33.1473 249.151 33.5981 248.9C34.049 248.649 34.6039 248.523 35.2628 248.523V249.732C35.2108 249.724 35.1587 249.719 35.1067 249.719C35.0634 249.719 35.02 249.719 34.9767 249.719C34.3091 249.719 33.7802 249.919 33.3901 250.317C32.9999 250.716 32.8048 251.293 32.8048 252.047V255.48H31.5564ZM38.8886 255.48L35.8715 248.588H37.172L39.851 254.83H39.2267L41.9578 248.588H43.1803L40.1631 255.48H38.8886ZM44.3454 255.48V248.588H45.5939V255.48H44.3454ZM44.9697 247.261C44.7269 247.261 44.5232 247.183 44.3584 247.027C44.2024 246.871 44.1243 246.68 44.1243 246.455C44.1243 246.221 44.2024 246.026 44.3584 245.87C44.5232 245.714 44.7269 245.636 44.9697 245.636C45.2124 245.636 45.4118 245.714 45.5679 245.87C45.7326 246.017 45.815 246.204 45.815 246.429C45.815 246.663 45.737 246.863 45.5809 247.027C45.4248 247.183 45.2211 247.261 44.9697 247.261ZM51.6581 248.523C52.2216 248.523 52.7158 248.631 53.1406 248.848C53.5741 249.065 53.9123 249.394 54.155 249.836C54.3978 250.278 54.5192 250.838 54.5192 251.514V255.48H53.2707V251.657C53.2707 250.989 53.106 250.487 52.7765 250.148C52.4557 249.81 52.0005 249.641 51.411 249.641C50.9688 249.641 50.583 249.728 50.2535 249.901C49.9241 250.075 49.6683 250.331 49.4862 250.669C49.3128 251.007 49.2261 251.427 49.2261 251.93V255.48H47.9777V248.588H49.1741V250.448L48.979 249.953C49.2045 249.503 49.5513 249.151 50.0194 248.9C50.4876 248.649 51.0338 248.523 51.6581 248.523ZM59.8468 258.081C59.2139 258.081 58.5984 257.99 58.0001 257.808C57.4106 257.635 56.9294 257.384 56.5566 257.054L57.1548 256.092C57.4756 256.369 57.8701 256.586 58.3383 256.742C58.8064 256.907 59.2963 256.989 59.8078 256.989C60.6228 256.989 61.221 256.798 61.6025 256.417C61.984 256.035 62.1747 255.454 62.1747 254.674V253.218L62.3048 251.852L62.2397 250.474V248.588H63.4232V254.544C63.4232 255.758 63.1197 256.651 62.5128 257.223C61.9059 257.795 61.0173 258.081 59.8468 258.081ZM59.6908 255.194C59.0232 255.194 58.425 255.056 57.8961 254.778C57.3759 254.492 56.9597 254.098 56.6476 253.595C56.3442 253.092 56.1924 252.511 56.1924 251.852C56.1924 251.184 56.3442 250.604 56.6476 250.109C56.9597 249.607 57.3759 249.216 57.8961 248.939C58.425 248.662 59.0232 248.523 59.6908 248.523C60.2803 248.523 60.8179 248.644 61.3034 248.887C61.7889 249.121 62.1747 249.485 62.4608 249.979C62.7556 250.474 62.903 251.098 62.903 251.852C62.903 252.598 62.7556 253.218 62.4608 253.712C62.1747 254.206 61.7889 254.579 61.3034 254.83C60.8179 255.073 60.2803 255.194 59.6908 255.194ZM59.8338 254.102C60.2933 254.102 60.7008 254.007 61.0563 253.816C61.4118 253.625 61.6892 253.361 61.8886 253.023C62.0967 252.684 62.2007 252.294 62.2007 251.852C62.2007 251.41 62.0967 251.02 61.8886 250.682C61.6892 250.344 61.4118 250.083 61.0563 249.901C60.7008 249.711 60.2933 249.615 59.8338 249.615C59.3743 249.615 58.9625 249.711 58.5984 249.901C58.2429 250.083 57.9611 250.344 57.753 250.682C57.5536 251.02 57.4539 251.41 57.4539 251.852C57.4539 252.294 57.5536 252.684 57.753 253.023C57.9611 253.361 58.2429 253.625 58.5984 253.816C58.9625 254.007 59.3743 254.102 59.8338 254.102ZM67.7854 255.558C67.2132 255.558 66.667 255.48 66.1468 255.324C65.6353 255.168 65.2321 254.978 64.9374 254.752L65.4576 253.764C65.7523 253.963 66.1165 254.132 66.55 254.271C66.9835 254.41 67.4256 254.479 67.8765 254.479C68.4574 254.479 68.8735 254.397 69.125 254.232C69.3851 254.067 69.5151 253.838 69.5151 253.543C69.5151 253.326 69.4371 253.157 69.281 253.036C69.125 252.914 68.9169 252.823 68.6568 252.762C68.4054 252.702 68.1236 252.65 67.8115 252.606C67.4993 252.554 67.1872 252.494 66.8751 252.424C66.563 252.346 66.2769 252.242 66.0168 252.112C65.7567 251.973 65.5486 251.787 65.3925 251.553C65.2365 251.31 65.1584 250.989 65.1584 250.591C65.1584 250.174 65.2755 249.81 65.5096 249.498C65.7437 249.186 66.0731 248.948 66.498 248.783C66.9315 248.61 67.443 248.523 68.0325 248.523C68.4834 248.523 68.9386 248.579 69.3981 248.692C69.8662 248.796 70.2477 248.948 70.5425 249.147L70.0093 250.135C69.6972 249.927 69.3721 249.784 69.0339 249.706C68.6958 249.628 68.3577 249.589 68.0195 249.589C67.4733 249.589 67.0658 249.68 66.7971 249.862C66.5283 250.036 66.3939 250.261 66.3939 250.539C66.3939 250.773 66.4719 250.955 66.628 251.085C66.7927 251.206 67.0008 251.302 67.2522 251.371C67.5123 251.44 67.7985 251.501 68.1106 251.553C68.4227 251.596 68.7348 251.657 69.0469 251.735C69.359 251.804 69.6408 251.904 69.8923 252.034C70.1524 252.164 70.3604 252.346 70.5165 252.58C70.6812 252.814 70.7636 253.127 70.7636 253.517C70.7636 253.933 70.6422 254.293 70.3994 254.596C70.1567 254.9 69.8142 255.138 69.3721 255.311C68.9299 255.476 68.401 255.558 67.7854 255.558ZM77.273 255.48L74.711 248.588H75.8944L78.1703 254.83H77.6111L79.978 248.588H81.0314L83.3463 254.83H82.8001L85.128 248.588H86.2464L83.6714 255.48H82.475L80.3031 249.784H80.6673L78.4694 255.48H77.273ZM87.5133 255.48V248.588H88.7617V255.48H87.5133ZM88.1375 247.261C87.8947 247.261 87.691 247.183 87.5263 247.027C87.3702 246.871 87.2922 246.68 87.2922 246.455C87.2922 246.221 87.3702 246.026 87.5263 245.87C87.691 245.714 87.8947 245.636 88.1375 245.636C88.3803 245.636 88.5797 245.714 88.7357 245.87C88.9005 246.017 88.9828 246.204 88.9828 246.429C88.9828 246.663 88.9048 246.863 88.7487 247.027C88.5927 247.183 88.3889 247.261 88.1375 247.261ZM93.5124 255.558C92.8188 255.558 92.2813 255.372 91.8998 254.999C91.5183 254.626 91.3276 254.093 91.3276 253.4V247.079H92.5761V253.348C92.5761 253.72 92.6671 254.007 92.8492 254.206C93.0399 254.405 93.3087 254.505 93.6555 254.505C94.0456 254.505 94.3707 254.397 94.6308 254.18L95.021 255.077C94.8303 255.242 94.6005 255.363 94.3317 255.441C94.0716 255.519 93.7985 255.558 93.5124 255.558ZM90.1571 249.615V248.588H94.5528V249.615H90.1571ZM100.211 248.523C100.774 248.523 101.269 248.631 101.693 248.848C102.127 249.065 102.465 249.394 102.708 249.836C102.951 250.278 103.072 250.838 103.072 251.514V255.48H101.823V251.657C101.823 250.989 101.659 250.487 101.329 250.148C101.008 249.81 100.553 249.641 99.9637 249.641C99.5215 249.641 99.1357 249.728 98.8063 249.901C98.4768 250.075 98.221 250.331 98.039 250.669C97.8656 251.007 97.7789 251.427 97.7789 251.93V255.48H96.5304V245.831H97.7789V250.448L97.5318 249.953C97.7572 249.503 98.104 249.151 98.5722 248.9C99.0403 248.649 99.5866 248.523 100.211 248.523ZM110.852 255.558C110.279 255.558 109.733 255.48 109.213 255.324C108.702 255.168 108.298 254.978 108.004 254.752L108.524 253.764C108.819 253.963 109.183 254.132 109.616 254.271C110.05 254.41 110.492 254.479 110.943 254.479C111.524 254.479 111.94 254.397 112.191 254.232C112.451 254.067 112.581 253.838 112.581 253.543C112.581 253.326 112.503 253.157 112.347 253.036C112.191 252.914 111.983 252.823 111.723 252.762C111.472 252.702 111.19 252.65 110.878 252.606C110.566 252.554 110.253 252.494 109.941 252.424C109.629 252.346 109.343 252.242 109.083 252.112C108.823 251.973 108.615 251.787 108.459 251.553C108.303 251.31 108.225 250.989 108.225 250.591C108.225 250.174 108.342 249.81 108.576 249.498C108.81 249.186 109.139 248.948 109.564 248.783C109.998 248.61 110.509 248.523 111.099 248.523C111.55 248.523 112.005 248.579 112.464 248.692C112.932 248.796 113.314 248.948 113.609 249.147L113.076 250.135C112.763 249.927 112.438 249.784 112.1 249.706C111.762 249.628 111.424 249.589 111.086 249.589C110.54 249.589 110.132 249.68 109.863 249.862C109.595 250.036 109.46 250.261 109.46 250.539C109.46 250.773 109.538 250.955 109.694 251.085C109.859 251.206 110.067 251.302 110.318 251.371C110.579 251.44 110.865 251.501 111.177 251.553C111.489 251.596 111.801 251.657 112.113 251.735C112.425 251.804 112.707 251.904 112.958 252.034C113.219 252.164 113.427 252.346 113.583 252.58C113.747 252.814 113.83 253.127 113.83 253.517C113.83 253.933 113.708 254.293 113.466 254.596C113.223 254.9 112.88 255.138 112.438 255.311C111.996 255.476 111.467 255.558 110.852 255.558ZM115.39 255.48V245.831H116.639V255.48H115.39ZM119.022 255.48V248.588H120.271V255.48H119.022ZM119.647 247.261C119.404 247.261 119.2 247.183 119.035 247.027C118.879 246.871 118.801 246.68 118.801 246.455C118.801 246.221 118.879 246.026 119.035 245.87C119.2 245.714 119.404 245.636 119.647 245.636C119.889 245.636 120.089 245.714 120.245 245.87C120.41 246.017 120.492 246.204 120.492 246.429C120.492 246.663 120.414 246.863 120.258 247.027C120.102 247.183 119.898 247.261 119.647 247.261ZM125.672 258.081C125.039 258.081 124.423 257.99 123.825 257.808C123.236 257.635 122.754 257.384 122.382 257.054L122.98 256.092C123.301 256.369 123.695 256.586 124.163 256.742C124.631 256.907 125.121 256.989 125.633 256.989C126.448 256.989 127.046 256.798 127.427 256.417C127.809 256.035 128 255.454 128 254.674V253.218L128.13 251.852L128.065 250.474V248.588H129.248V254.544C129.248 255.758 128.945 256.651 128.338 257.223C127.731 257.795 126.842 258.081 125.672 258.081ZM125.516 255.194C124.848 255.194 124.25 255.056 123.721 254.778C123.201 254.492 122.785 254.098 122.473 253.595C122.169 253.092 122.017 252.511 122.017 251.852C122.017 251.184 122.169 250.604 122.473 250.109C122.785 249.607 123.201 249.216 123.721 248.939C124.25 248.662 124.848 248.523 125.516 248.523C126.105 248.523 126.643 248.644 127.128 248.887C127.614 249.121 128 249.485 128.286 249.979C128.581 250.474 128.728 251.098 128.728 251.852C128.728 252.598 128.581 253.218 128.286 253.712C128 254.206 127.614 254.579 127.128 254.83C126.643 255.073 126.105 255.194 125.516 255.194ZM125.659 254.102C126.118 254.102 126.526 254.007 126.881 253.816C127.237 253.625 127.514 253.361 127.714 253.023C127.922 252.684 128.026 252.294 128.026 251.852C128.026 251.41 127.922 251.02 127.714 250.682C127.514 250.344 127.237 250.083 126.881 249.901C126.526 249.711 126.118 249.615 125.659 249.615C125.199 249.615 124.787 249.711 124.423 249.901C124.068 250.083 123.786 250.344 123.578 250.682C123.379 251.02 123.279 251.41 123.279 251.852C123.279 252.294 123.379 252.684 123.578 253.023C123.786 253.361 124.068 253.625 124.423 253.816C124.787 254.007 125.199 254.102 125.659 254.102ZM135.314 248.523C135.878 248.523 136.372 248.631 136.797 248.848C137.23 249.065 137.568 249.394 137.811 249.836C138.054 250.278 138.175 250.838 138.175 251.514V255.48H136.927V251.657C136.927 250.989 136.762 250.487 136.432 250.148C136.112 249.81 135.656 249.641 135.067 249.641C134.625 249.641 134.239 249.728 133.909 249.901C133.58 250.075 133.324 250.331 133.142 250.669C132.969 251.007 132.882 251.427 132.882 251.93V255.48H131.634V245.831H132.882V250.448L132.635 249.953C132.86 249.503 133.207 249.151 133.675 248.9C134.144 248.649 134.69 248.523 135.314 248.523ZM142.853 255.558C142.159 255.558 141.621 255.372 141.24 254.999C140.858 254.626 140.668 254.093 140.668 253.4V247.079H141.916V253.348C141.916 253.72 142.007 254.007 142.189 254.206C142.38 254.405 142.649 254.505 142.996 254.505C143.386 254.505 143.711 254.397 143.971 254.18L144.361 255.077C144.17 255.242 143.941 255.363 143.672 255.441C143.412 255.519 143.139 255.558 142.853 255.558ZM139.497 249.615V248.588L143.893 248.588V249.615L139.497 249.615ZM145.87 255.48V245.831H147.119V255.48H145.87ZM149.802 258.081C149.472 258.081 149.152 258.025 148.84 257.912C148.527 257.808 148.259 257.652 148.033 257.444L148.566 256.508C148.74 256.673 148.931 256.798 149.139 256.885C149.347 256.972 149.568 257.015 149.802 257.015C150.105 257.015 150.357 256.937 150.556 256.781C150.756 256.625 150.942 256.347 151.115 255.949L151.545 254.999L151.675 254.843L154.38 248.588H155.602L152.26 256.17C152.06 256.655 151.835 257.037 151.584 257.314C151.341 257.592 151.072 257.787 150.777 257.899C150.482 258.021 150.157 258.081 149.802 258.081ZM151.44 255.702L148.293 248.588H149.594L152.273 254.726L151.44 255.702ZM168.882 248.523C169.437 248.523 169.927 248.631 170.352 248.848C170.776 249.065 171.106 249.394 171.34 249.836C171.583 250.278 171.704 250.838 171.704 251.514V255.48H170.456V251.657C170.456 250.989 170.3 250.487 169.987 250.148C169.675 249.81 169.238 249.641 168.674 249.641C168.258 249.641 167.894 249.728 167.582 249.901C167.269 250.075 167.027 250.331 166.853 250.669C166.689 251.007 166.606 251.427 166.606 251.93V255.48H165.358V251.657C165.358 250.989 165.202 250.487 164.89 250.148C164.586 249.81 164.148 249.641 163.576 249.641C163.169 249.641 162.809 249.728 162.497 249.901C162.185 250.075 161.942 250.331 161.768 250.669C161.595 251.007 161.508 251.427 161.508 251.93V255.48H160.26V248.588H161.456V250.422L161.261 249.953C161.478 249.503 161.812 249.151 162.263 248.9C162.713 248.649 163.238 248.523 163.836 248.523C164.495 248.523 165.063 248.688 165.54 249.017C166.017 249.338 166.329 249.828 166.476 250.487L165.969 250.278C166.177 249.75 166.541 249.325 167.061 249.004C167.582 248.683 168.188 248.523 168.882 248.523ZM176.953 255.558C176.26 255.558 175.644 255.407 175.107 255.103C174.569 254.8 174.144 254.384 173.832 253.855C173.52 253.317 173.364 252.71 173.364 252.034C173.364 251.349 173.52 250.742 173.832 250.213C174.144 249.685 174.569 249.273 175.107 248.978C175.644 248.675 176.26 248.523 176.953 248.523C177.638 248.523 178.25 248.675 178.787 248.978C179.333 249.273 179.758 249.685 180.062 250.213C180.374 250.734 180.53 251.341 180.53 252.034C180.53 252.719 180.374 253.326 180.062 253.855C179.758 254.384 179.333 254.8 178.787 255.103C178.25 255.407 177.638 255.558 176.953 255.558ZM176.953 254.466C177.396 254.466 177.79 254.366 178.137 254.167C178.492 253.968 178.77 253.686 178.969 253.322C179.169 252.949 179.268 252.52 179.268 252.034C179.268 251.54 179.169 251.115 178.969 250.76C178.77 250.396 178.492 250.114 178.137 249.914C177.79 249.715 177.396 249.615 176.953 249.615C176.511 249.615 176.117 249.715 175.77 249.914C175.423 250.114 175.146 250.396 174.938 250.76C174.73 251.115 174.626 251.54 174.626 252.034C174.626 252.52 174.73 252.949 174.938 253.322C175.146 253.686 175.423 253.968 175.77 254.167C176.117 254.366 176.511 254.466 176.953 254.466ZM182.256 255.48V248.588H183.453V250.461L183.336 249.992C183.527 249.516 183.847 249.151 184.298 248.9C184.749 248.649 185.304 248.523 185.963 248.523V249.732C185.911 249.724 185.859 249.719 185.807 249.719C185.763 249.719 185.72 249.719 185.677 249.719C185.009 249.719 184.48 249.919 184.09 250.317C183.7 250.716 183.505 251.293 183.505 252.047V255.48H182.256ZM190.507 255.558C189.77 255.558 189.12 255.407 188.557 255.103C188.002 254.8 187.568 254.384 187.256 253.855C186.953 253.326 186.801 252.719 186.801 252.034C186.801 251.349 186.948 250.742 187.243 250.213C187.546 249.685 187.958 249.273 188.479 248.978C189.007 248.675 189.601 248.523 190.26 248.523C190.928 248.523 191.517 248.67 192.029 248.965C192.54 249.26 192.939 249.676 193.225 250.213C193.52 250.742 193.667 251.362 193.667 252.073C193.667 252.125 193.663 252.186 193.654 252.255C193.654 252.325 193.65 252.39 193.641 252.45H187.776V251.553H192.991L192.484 251.865C192.493 251.423 192.402 251.028 192.211 250.682C192.02 250.335 191.756 250.066 191.418 249.875C191.088 249.676 190.702 249.576 190.26 249.576C189.827 249.576 189.441 249.676 189.103 249.875C188.765 250.066 188.5 250.339 188.309 250.695C188.119 251.041 188.023 251.44 188.023 251.891V252.099C188.023 252.559 188.127 252.971 188.335 253.335C188.552 253.69 188.851 253.968 189.233 254.167C189.614 254.366 190.052 254.466 190.546 254.466C190.954 254.466 191.322 254.397 191.652 254.258C191.99 254.119 192.285 253.911 192.536 253.634L193.225 254.44C192.913 254.804 192.523 255.082 192.055 255.272C191.595 255.463 191.08 255.558 190.507 255.558ZM81.8406 274.48L78.8234 267.588H80.1239L82.8029 273.83H82.1787L84.9097 267.588H86.1322L83.1151 274.48H81.8406ZM90.059 274.558C89.3654 274.558 88.7498 274.407 88.2123 274.103C87.6748 273.8 87.2499 273.384 86.9378 272.855C86.6257 272.317 86.4696 271.71 86.4696 271.034C86.4696 270.349 86.6257 269.742 86.9378 269.213C87.2499 268.685 87.6748 268.273 88.2123 267.978C88.7498 267.675 89.3654 267.523 90.059 267.523C90.7439 267.523 91.3552 267.675 91.8927 267.978C92.4389 268.273 92.8637 268.685 93.1672 269.213C93.4793 269.734 93.6354 270.341 93.6354 271.034C93.6354 271.719 93.4793 272.326 93.1672 272.855C92.8637 273.384 92.4389 273.8 91.8927 274.103C91.3552 274.407 90.7439 274.558 90.059 274.558ZM90.059 273.466C90.5012 273.466 90.8956 273.366 91.2424 273.167C91.5979 272.968 91.8754 272.686 92.0748 272.322C92.2742 271.949 92.3739 271.52 92.3739 271.034C92.3739 270.54 92.2742 270.115 92.0748 269.76C91.8754 269.396 91.5979 269.114 91.2424 268.914C90.8956 268.715 90.5012 268.615 90.059 268.615C89.6168 268.615 89.2223 268.715 88.8755 268.914C88.5287 269.114 88.2513 269.396 88.0432 269.76C87.8351 270.115 87.7311 270.54 87.7311 271.034C87.7311 271.52 87.8351 271.949 88.0432 272.322C88.2513 272.686 88.5287 272.968 88.8755 273.167C89.2223 273.366 89.6168 273.466 90.059 273.466ZM95.362 274.48V264.831H96.6104V274.48H95.362ZM101.894 274.558C101.305 274.558 100.785 274.45 100.334 274.233C99.8916 274.017 99.5448 273.687 99.2933 273.245C99.0506 272.794 98.9292 272.231 98.9292 271.554V267.588H100.178V271.411C100.178 272.088 100.338 272.595 100.659 272.933C100.988 273.271 101.448 273.44 102.037 273.44C102.471 273.44 102.848 273.353 103.169 273.18C103.49 272.998 103.737 272.738 103.91 272.4C104.083 272.053 104.17 271.637 104.17 271.151V267.588H105.419V274.48H104.235V272.621L104.43 273.115C104.205 273.574 103.867 273.93 103.416 274.181C102.965 274.433 102.458 274.558 101.894 274.558ZM116.418 267.523C116.973 267.523 117.462 267.631 117.887 267.848C118.312 268.065 118.642 268.394 118.876 268.836C119.118 269.278 119.24 269.838 119.24 270.514V274.48H117.991V270.657C117.991 269.989 117.835 269.487 117.523 269.148C117.211 268.81 116.773 268.641 116.21 268.641C115.793 268.641 115.429 268.728 115.117 268.901C114.805 269.075 114.562 269.331 114.389 269.669C114.224 270.007 114.142 270.427 114.142 270.93V274.48H112.893V270.657C112.893 269.989 112.737 269.487 112.425 269.148C112.122 268.81 111.684 268.641 111.112 268.641C110.704 268.641 110.344 268.728 110.032 268.901C109.72 269.075 109.477 269.331 109.304 269.669C109.131 270.007 109.044 270.427 109.044 270.93V274.48H107.795V267.588H108.992V269.422L108.797 268.953C109.014 268.503 109.347 268.151 109.798 267.9C110.249 267.649 110.774 267.523 111.372 267.523C112.031 267.523 112.599 267.688 113.075 268.017C113.552 268.338 113.864 268.828 114.012 269.487L113.505 269.278C113.713 268.75 114.077 268.325 114.597 268.004C115.117 267.683 115.724 267.523 116.418 267.523ZM124.606 274.558C123.869 274.558 123.219 274.407 122.655 274.103C122.101 273.8 121.667 273.384 121.355 272.855C121.051 272.326 120.9 271.719 120.9 271.034C120.9 270.349 121.047 269.742 121.342 269.213C121.645 268.685 122.057 268.273 122.577 267.978C123.106 267.675 123.7 267.523 124.359 267.523C125.027 267.523 125.616 267.67 126.128 267.965C126.639 268.26 127.038 268.676 127.324 269.213C127.619 269.742 127.766 270.362 127.766 271.073C127.766 271.125 127.762 271.186 127.753 271.255C127.753 271.325 127.749 271.39 127.74 271.45H121.875V270.553H127.09L126.583 270.865C126.592 270.423 126.501 270.028 126.31 269.682C126.119 269.335 125.855 269.066 125.517 268.875C125.187 268.676 124.801 268.576 124.359 268.576C123.926 268.576 123.54 268.676 123.202 268.875C122.864 269.066 122.599 269.339 122.408 269.695C122.218 270.041 122.122 270.44 122.122 270.891V271.099C122.122 271.559 122.226 271.971 122.434 272.335C122.651 272.69 122.95 272.968 123.332 273.167C123.713 273.366 124.151 273.466 124.645 273.466C125.053 273.466 125.421 273.397 125.751 273.258C126.089 273.119 126.384 272.911 126.635 272.634L127.324 273.44C127.012 273.804 126.622 274.082 126.154 274.272C125.694 274.463 125.178 274.558 124.606 274.558ZM129.799 274.558C129.556 274.558 129.348 274.476 129.175 274.311C129.001 274.138 128.915 273.921 128.915 273.661C128.915 273.401 129.001 273.189 129.175 273.024C129.348 272.859 129.556 272.777 129.799 272.777C130.033 272.777 130.233 272.859 130.397 273.024C130.571 273.189 130.657 273.401 130.657 273.661C130.657 273.921 130.571 274.138 130.397 274.311C130.233 274.476 130.033 274.558 129.799 274.558Z" fill="black"/>
<path d="M0.622559 286.734H206.751V286.734C206.751 292.679 201.932 297.499 195.987 297.499H11.387C5.44197 297.499 0.622559 292.679 0.622559 286.734V286.734Z" fill="url(#paint1_linear_2039_598)"/>
<path d="M0.622559 286.734H101.029C106.974 286.734 111.793 291.554 111.793 297.499V297.499H11.387C5.44197 297.499 0.622559 292.679 0.622559 286.734V286.734Z" fill="#A2383F"/>
<rect x="22.8301" width="161.073" height="22.6054" rx="11.3027" fill="#899F61"/>
<path d="M36.4777 15.8027L36.4777 6.76059L38.5703 6.76059L38.5703 15.8027L36.4777 15.8027ZM40.7162 15.8027L40.7162 6.76059L42.4471 6.76059L46.2965 13.1418L45.3794 13.1418L49.1642 6.76059L50.8822 6.76059L50.908 15.8027L48.9446 15.8027L48.9316 9.77033L49.2933 9.77033L46.2707 14.8468L45.3277 14.8468L42.2405 9.77033L42.6796 9.77033L42.6796 15.8027L40.7162 15.8027ZM53.0533 15.8027L53.0533 6.76059L55.1459 6.76059L55.1459 14.0976L59.6799 14.0976L59.6799 15.8027L53.0533 15.8027ZM64.5073 15.8027L64.5073 6.76059L66.2383 6.76059L70.0876 13.1418L69.1705 13.1418L72.9553 6.76059L74.6733 6.76059L74.6991 15.8027L72.7357 15.8027L72.7228 9.77033L73.0844 9.77033L70.0618 14.8468L69.1188 14.8468L66.0316 9.77033L66.4708 9.77033L66.4708 15.8027L64.5073 15.8027ZM81.2363 15.9577C80.5215 15.9577 79.8585 15.8415 79.247 15.609C78.6442 15.3765 78.1189 15.0492 77.6711 14.6273C77.2319 14.2053 76.8875 13.7101 76.6377 13.1418C76.3966 12.5734 76.276 11.9534 76.276 11.2817C76.276 10.61 76.3966 9.98993 76.6377 9.42156C76.8875 8.8532 77.2362 8.35804 77.684 7.93607C78.1318 7.5141 78.6571 7.18686 79.26 6.95435C79.8628 6.72184 80.5172 6.60558 81.2234 6.60558C81.9381 6.60558 82.5926 6.72184 83.1868 6.95435C83.7896 7.18686 84.3106 7.5141 84.7498 7.93607C85.1976 8.35804 85.5464 8.8532 85.7961 9.42156C86.0459 9.98132 86.1707 10.6013 86.1707 11.2817C86.1707 11.9534 86.0459 12.5777 85.7961 13.1547C85.5464 13.723 85.1976 14.2182 84.7498 14.6402C84.3106 15.0535 83.7896 15.3765 83.1868 15.609C82.5926 15.8415 81.9425 15.9577 81.2363 15.9577ZM81.2234 14.1751C81.6281 14.1751 81.9984 14.1063 82.3343 13.9685C82.6787 13.8307 82.9801 13.6326 83.2385 13.3743C83.4968 13.1159 83.6949 12.8102 83.8327 12.4571C83.9791 12.1041 84.0523 11.7122 84.0523 11.2817C84.0523 10.8511 83.9791 10.4593 83.8327 10.1062C83.6949 9.75311 83.4968 9.4474 83.2385 9.18905C82.9888 8.9307 82.6917 8.73264 82.3472 8.59485C82.0027 8.45707 81.6281 8.38818 81.2234 8.38818C80.8186 8.38818 80.444 8.45707 80.0996 8.59485C79.7637 8.73264 79.4666 8.9307 79.2083 9.18905C78.9499 9.4474 78.7476 9.75311 78.6012 10.1062C78.4634 10.4593 78.3945 10.8511 78.3945 11.2817C78.3945 11.7036 78.4634 12.0955 78.6012 12.4571C78.7476 12.8102 78.9456 13.1159 79.1954 13.3743C79.4537 13.6326 79.7551 13.8307 80.0996 13.9685C80.444 14.1063 80.8186 14.1751 81.2234 14.1751ZM92.1224 15.9577C91.4162 15.9577 90.7575 15.8415 90.146 15.609C89.5432 15.3765 89.0179 15.0492 88.5701 14.6273C88.1309 14.2053 87.7865 13.7101 87.5367 13.1418C87.2956 12.5734 87.1751 11.9534 87.1751 11.2817C87.1751 10.61 87.2956 9.98993 87.5367 9.42156C87.7865 8.8532 88.1352 8.35804 88.583 7.93607C89.0308 7.5141 89.5562 7.18686 90.159 6.95435C90.7618 6.72184 91.4162 6.60558 92.1224 6.60558C92.8372 6.60558 93.4916 6.72184 94.0858 6.95435C94.6886 7.18686 95.2096 7.5141 95.6488 7.93607C96.0966 8.34942 96.4454 8.84028 96.6951 9.40865C96.9449 9.97701 97.0697 10.6013 97.0697 11.2817C97.0697 11.9534 96.9449 12.5777 96.6951 13.1547C96.4454 13.723 96.0966 14.2182 95.6488 14.6402C95.2096 15.0535 94.6886 15.3765 94.0858 15.609C93.4916 15.8415 92.8372 15.9577 92.1224 15.9577ZM95.0805 17.8824C94.7274 17.8824 94.3915 17.8437 94.0729 17.7662C93.7629 17.6887 93.4529 17.5638 93.1429 17.3916C92.8415 17.2193 92.5228 16.9868 92.187 16.694C91.8597 16.4012 91.5024 16.0396 91.1148 15.609L93.3108 15.0535C93.5433 15.3722 93.7586 15.6262 93.9567 15.8156C94.1547 16.0051 94.3442 16.1386 94.525 16.2161C94.7145 16.2936 94.9125 16.3323 95.1192 16.3323C95.6704 16.3323 96.1612 16.1084 96.5918 15.6606L97.5218 16.7715C96.9104 17.5121 96.0966 17.8824 95.0805 17.8824ZM92.1224 14.1751C92.5271 14.1751 92.8974 14.1063 93.2333 13.9685C93.5778 13.8307 93.8792 13.6326 94.1375 13.3743C94.3958 13.1159 94.5939 12.8102 94.7317 12.4571C94.8781 12.0955 94.9513 11.7036 94.9513 11.2817C94.9513 10.8511 94.8781 10.4593 94.7317 10.1062C94.5939 9.75311 94.3958 9.4474 94.1375 9.18905C93.8792 8.9307 93.5778 8.73264 93.2333 8.59485C92.8974 8.45707 92.5271 8.38818 92.1224 8.38818C91.7177 8.38818 91.3431 8.45707 90.9986 8.59485C90.6541 8.73264 90.3527 8.9307 90.0944 9.18905C89.8446 9.4474 89.6466 9.75311 89.5002 10.1062C89.3624 10.4593 89.2935 10.8511 89.2935 11.2817C89.2935 11.7036 89.3624 12.0955 89.5002 12.4571C89.6466 12.8102 89.8446 13.1159 90.0944 13.3743C90.3527 13.6326 90.6541 13.8307 90.9986 13.9685C91.3431 14.1063 91.7177 14.1751 92.1224 14.1751ZM101.9 12.9738L101.9 11.3592L105.556 11.3592L105.556 12.9738L101.9 12.9738ZM113.448 15.9577C112.819 15.9577 112.195 15.8759 111.575 15.7123C110.963 15.5401 110.438 15.299 109.999 14.9889L110.825 13.3872C111.17 13.6369 111.566 13.835 112.014 13.9814C112.47 14.1278 112.931 14.201 113.396 14.201C113.921 14.201 114.335 14.0976 114.636 13.891C114.937 13.6843 115.088 13.3958 115.088 13.0255C115.088 12.793 115.028 12.5863 114.907 12.4055C114.787 12.2246 114.571 12.0868 114.261 11.9921C113.96 11.8974 113.534 11.85 112.983 11.85L110.67 11.85L111.135 6.76059L116.651 6.76059L116.651 8.43984L111.885 8.43984L112.97 7.48396L112.647 11.1137L111.562 10.1579L113.473 10.1579C114.369 10.1579 115.088 10.2827 115.631 10.5325C116.182 10.7736 116.582 11.1051 116.832 11.5271C117.082 11.9491 117.207 12.427 117.207 12.9609C117.207 13.4948 117.073 13.99 116.806 14.4464C116.539 14.8942 116.126 15.2602 115.566 15.5444C115.015 15.82 114.309 15.9577 113.448 15.9577ZM121.931 15.9577C121.19 15.9577 120.527 15.7769 119.942 15.4152C119.356 15.0449 118.895 14.511 118.559 13.8135C118.224 13.1159 118.056 12.272 118.056 11.2817C118.056 10.2913 118.224 9.4474 118.559 8.74986C118.895 8.05232 119.356 7.52271 119.942 7.16103C120.527 6.79073 121.19 6.60558 121.931 6.60558C122.68 6.60558 123.343 6.79073 123.92 7.16103C124.506 7.52271 124.966 8.05232 125.302 8.74986C125.638 9.4474 125.806 10.2913 125.806 11.2817C125.806 12.272 125.638 13.1159 125.302 13.8135C124.966 14.511 124.506 15.0449 123.92 15.4152C123.343 15.7769 122.68 15.9577 121.931 15.9577ZM121.931 14.1881C122.284 14.1881 122.59 14.089 122.848 13.891C123.115 13.6929 123.322 13.3786 123.468 12.948C123.623 12.5174 123.7 11.962 123.7 11.2817C123.7 10.6013 123.623 10.0459 123.468 9.61532C123.322 9.18475 123.115 8.87042 122.848 8.67236C122.59 8.47429 122.284 8.37526 121.931 8.37526C121.586 8.37526 121.281 8.47429 121.014 8.67236C120.755 8.87042 120.549 9.18475 120.394 9.61532C120.247 10.0459 120.174 10.6013 120.174 11.2817C120.174 11.962 120.247 12.5174 120.394 12.948C120.549 13.3786 120.755 13.6929 121.014 13.891C121.281 14.089 121.586 14.1881 121.931 14.1881ZM130.698 15.9577C129.957 15.9577 129.294 15.7769 128.709 15.4152C128.123 15.0449 127.662 14.511 127.327 13.8135C126.991 13.1159 126.823 12.272 126.823 11.2817C126.823 10.2913 126.991 9.4474 127.327 8.74986C127.662 8.05232 128.123 7.52271 128.709 7.16103C129.294 6.79073 129.957 6.60558 130.698 6.60558C131.447 6.60558 132.11 6.79073 132.687 7.16103C133.273 7.52271 133.734 8.05232 134.069 8.74986C134.405 9.4474 134.573 10.2913 134.573 11.2817C134.573 12.272 134.405 13.1159 134.069 13.8135C133.734 14.511 133.273 15.0449 132.687 15.4152C132.11 15.7769 131.447 15.9577 130.698 15.9577ZM130.698 14.1881C131.051 14.1881 131.357 14.089 131.615 13.891C131.882 13.6929 132.089 13.3786 132.235 12.948C132.39 12.5174 132.468 11.962 132.468 11.2817C132.468 10.6013 132.39 10.0459 132.235 9.61532C132.089 9.18475 131.882 8.87042 131.615 8.67236C131.357 8.47429 131.051 8.37526 130.698 8.37526C130.353 8.37526 130.048 8.47429 129.781 8.67236C129.522 8.87042 129.316 9.18475 129.161 9.61532C129.014 10.0459 128.941 10.6013 128.941 11.2817C128.941 11.962 129.014 12.5174 129.161 12.948C129.316 13.3786 129.522 13.6929 129.781 13.891C130.048 14.089 130.353 14.1881 130.698 14.1881ZM139.465 15.9577C138.724 15.9577 138.061 15.7769 137.476 15.4152C136.89 15.0449 136.429 14.511 136.094 13.8135C135.758 13.1159 135.59 12.272 135.59 11.2817C135.59 10.2913 135.758 9.4474 136.094 8.74986C136.429 8.05232 136.89 7.52271 137.476 7.16103C138.061 6.79073 138.724 6.60558 139.465 6.60558C140.214 6.60558 140.877 6.79073 141.454 7.16103C142.04 7.52271 142.501 8.05232 142.836 8.74986C143.172 9.4474 143.34 10.2913 143.34 11.2817C143.34 12.272 143.172 13.1159 142.836 13.8135C142.501 14.511 142.04 15.0449 141.454 15.4152C140.877 15.7769 140.214 15.9577 139.465 15.9577ZM139.465 14.1881C139.818 14.1881 140.124 14.089 140.382 13.891C140.649 13.6929 140.856 13.3786 141.002 12.948C141.157 12.5174 141.235 11.962 141.235 11.2817C141.235 10.6013 141.157 10.0459 141.002 9.61532C140.856 9.18474 140.649 8.87042 140.382 8.67236C140.124 8.47429 139.818 8.37526 139.465 8.37526C139.121 8.37526 138.815 8.47429 138.548 8.67236C138.29 8.87042 138.083 9.18474 137.928 9.61532C137.782 10.0459 137.708 10.6013 137.708 11.2817C137.708 11.962 137.782 12.5174 137.928 12.948C138.083 13.3786 138.29 13.6929 138.548 13.891C138.815 14.089 139.121 14.1881 139.465 14.1881ZM148.584 15.8027L148.584 6.76059L152.498 6.76059C153.307 6.76059 154.005 6.89407 154.59 7.16103C155.176 7.41937 155.628 7.79398 155.946 8.28484C156.265 8.7757 156.424 9.36128 156.424 10.0416C156.424 10.7133 156.265 11.2946 155.946 11.7854C155.628 12.2763 155.176 12.6552 154.59 12.9222C154.005 13.1805 153.307 13.3097 152.498 13.3097L149.746 13.3097L150.676 12.3667L150.676 15.8027L148.584 15.8027ZM150.676 12.5992L149.746 11.6046L152.381 11.6046C153.027 11.6046 153.509 11.4668 153.828 11.1912C154.147 10.9157 154.306 10.5325 154.306 10.0416C154.306 9.54213 154.147 9.1546 153.828 8.87903C153.509 8.60346 153.027 8.46568 152.381 8.46568L149.746 8.46568L150.676 7.47104L150.676 12.5992ZM161.122 15.9061C160.373 15.9061 159.706 15.7554 159.12 15.454C158.534 15.1439 158.074 14.7177 157.738 14.1751C157.411 13.6326 157.247 13.0169 157.247 12.328C157.247 11.6304 157.411 11.0147 157.738 10.4808C158.074 9.93826 158.534 9.51629 159.12 9.21489C159.706 8.90487 160.373 8.74986 161.122 8.74986C161.854 8.74986 162.491 8.90487 163.034 9.21488C163.577 9.51629 163.977 9.95117 164.235 10.5195L162.672 11.3592C162.491 11.0319 162.263 10.7908 161.988 10.6358C161.721 10.4808 161.428 10.4033 161.109 10.4033C160.765 10.4033 160.455 10.4808 160.179 10.6358C159.904 10.7908 159.684 11.0104 159.52 11.2946C159.365 11.5788 159.288 11.9232 159.288 12.328C159.288 12.7327 159.365 13.0772 159.52 13.3614C159.684 13.6455 159.904 13.8651 160.179 14.0201C160.455 14.1751 160.765 14.2527 161.109 14.2527C161.428 14.2527 161.721 14.1795 161.988 14.0331C162.263 13.878 162.491 13.6326 162.672 13.2968L164.235 14.1493C163.977 14.7091 163.577 15.1439 163.034 15.454C162.491 15.7554 161.854 15.9061 161.122 15.9061ZM167.734 15.9061C167.139 15.9061 166.567 15.8372 166.016 15.6994C165.473 15.553 165.042 15.3722 164.724 15.1569L165.396 13.7101C165.714 13.9082 166.089 14.0718 166.519 14.201C166.959 14.3215 167.389 14.3818 167.811 14.3818C168.276 14.3818 168.603 14.3258 168.793 14.2139C168.991 14.1019 169.09 13.9469 169.09 13.7489C169.09 13.5853 169.012 13.4647 168.857 13.3872C168.711 13.3011 168.513 13.2365 168.263 13.1934C168.013 13.1504 167.738 13.1073 167.436 13.0643C167.144 13.0212 166.847 12.9652 166.545 12.8963C166.244 12.8188 165.968 12.7069 165.718 12.5605C165.469 12.4141 165.266 12.216 165.111 11.9663C164.965 11.7165 164.892 11.3936 164.892 10.9975C164.892 10.5583 165.017 10.1708 165.266 9.83492C165.525 9.49907 165.895 9.23641 166.377 9.04696C166.859 8.84889 167.436 8.74986 168.108 8.74986C168.582 8.74986 169.064 8.80153 169.555 8.90487C170.046 9.00821 170.455 9.15891 170.782 9.35698L170.11 10.7908C169.775 10.5927 169.434 10.4593 169.09 10.3904C168.754 10.3129 168.427 10.2741 168.108 10.2741C167.66 10.2741 167.333 10.3344 167.126 10.455C166.92 10.5755 166.816 10.7305 166.816 10.92C166.816 11.0922 166.89 11.2214 167.036 11.3075C167.191 11.3936 167.393 11.4625 167.643 11.5142C167.893 11.5658 168.164 11.6132 168.457 11.6563C168.758 11.6907 169.06 11.7467 169.361 11.8242C169.663 11.9017 169.934 12.0136 170.175 12.16C170.425 12.2978 170.627 12.4916 170.782 12.7413C170.937 12.9824 171.015 13.3011 171.015 13.6972C171.015 14.1278 170.885 14.511 170.627 14.8468C170.369 15.1741 169.994 15.4324 169.503 15.6219C169.021 15.8113 168.431 15.9061 167.734 15.9061Z" fill="white"/>
<rect y="137.062" width="205.869" height="40.3749" fill="#39422F"/>
<rect y="137.062" width="205.869" height="40.3749" stroke="white"/>
<path d="M41.2021 166.817C39.6792 166.817 38.3156 166.445 37.1115 165.701C35.9073 164.94 34.9599 163.842 34.2693 162.407C33.5787 160.973 33.2334 159.238 33.2334 157.201C33.2334 155.165 33.5787 153.429 34.2693 151.995C34.9599 150.561 35.9073 149.472 37.1115 148.728C38.3156 147.966 39.6792 147.586 41.2021 147.586C42.7427 147.586 44.1063 147.966 45.2927 148.728C46.4969 149.472 47.4443 150.561 48.1349 151.995C48.8255 153.429 49.1708 155.165 49.1708 157.201C49.1708 159.238 48.8255 160.973 48.1349 162.407C47.4443 163.842 46.4969 164.94 45.2927 165.701C44.1063 166.445 42.7427 166.817 41.2021 166.817ZM41.2021 163.178C41.9281 163.178 42.5568 162.974 43.088 162.567C43.637 162.16 44.062 161.513 44.363 160.628C44.6818 159.742 44.8411 158.6 44.8411 157.201C44.8411 155.802 44.6818 154.66 44.363 153.775C44.062 152.889 43.637 152.243 43.088 151.836C42.5568 151.428 41.9281 151.225 41.2021 151.225C40.4938 151.225 39.8651 151.428 39.3162 151.836C38.7849 152.243 38.3599 152.889 38.0412 153.775C37.7401 154.66 37.5896 155.802 37.5896 157.201C37.5896 158.6 37.7401 159.742 38.0412 160.628C38.3599 161.513 38.7849 162.16 39.3162 162.567C39.8651 162.974 40.4938 163.178 41.2021 163.178ZM51.0491 162.593L51.0491 159.698L59.8147 147.904L64.3303 147.904L55.7506 159.698L53.6522 159.087L68.2881 159.087L68.2881 162.593L51.0491 162.593ZM61.0631 166.498L61.0631 162.593L61.1959 159.087L61.1959 155.607L65.26 155.607L65.26 166.498L61.0631 166.498ZM70.1798 160.681L70.1798 157.361L77.697 157.361L77.697 160.681L70.1798 160.681ZM85.5916 166.817C84.2989 166.817 83.0151 166.649 81.7401 166.312C80.4651 165.958 79.3849 165.462 78.4995 164.825L80.1729 161.531C80.8812 162.044 81.7047 162.452 82.6432 162.753C83.5818 163.054 84.5291 163.204 85.4854 163.204C86.5656 163.204 87.4156 162.992 88.0354 162.567C88.6552 162.142 88.9651 161.557 88.9651 160.814C88.9651 160.105 88.6906 159.548 88.1416 159.14C87.5927 158.733 86.7073 158.529 85.4854 158.529L83.5198 158.529L83.5198 155.687L88.6994 149.817L89.1776 151.357L79.4292 151.357L79.4292 147.904L92.4447 147.904L92.4447 150.693L87.2916 156.564L85.1135 155.315L86.362 155.315C88.6463 155.315 90.3729 155.829 91.5416 156.856C92.7104 157.883 93.2947 159.202 93.2947 160.814C93.2947 161.858 93.0203 162.841 92.4713 163.762C91.9224 164.665 91.0812 165.4 89.9479 165.967C88.8146 166.533 87.3625 166.817 85.5916 166.817ZM103.25 166.817C101.727 166.817 100.364 166.445 99.1596 165.701C97.9555 164.94 97.0081 163.842 96.3175 162.407C95.6268 160.973 95.2815 159.238 95.2815 157.201C95.2815 155.165 95.6268 153.429 96.3175 151.995C97.0081 150.561 97.9555 149.472 99.1596 148.728C100.364 147.966 101.727 147.586 103.25 147.586C104.791 147.586 106.154 147.966 107.341 148.728C108.545 149.472 109.492 150.561 110.183 151.995C110.874 153.429 111.219 155.165 111.219 157.201C111.219 159.238 110.874 160.973 110.183 162.407C109.492 163.842 108.545 164.94 107.341 165.701C106.154 166.445 104.791 166.817 103.25 166.817ZM103.25 163.178C103.976 163.178 104.605 162.974 105.136 162.567C105.685 162.16 106.11 161.513 106.411 160.628C106.73 159.742 106.889 158.6 106.889 157.201C106.889 155.802 106.73 154.66 106.411 153.775C106.11 152.889 105.685 152.243 105.136 151.836C104.605 151.428 103.976 151.225 103.25 151.225C102.542 151.225 101.913 151.428 101.364 151.836C100.833 152.243 100.408 152.889 100.089 153.775C99.7883 154.66 99.6378 155.802 99.6378 157.201C99.6378 158.6 99.7883 159.742 100.089 160.628C100.408 161.513 100.833 162.16 101.364 162.567C101.913 162.974 102.542 163.178 103.25 163.178ZM121.278 166.817C119.756 166.817 118.392 166.445 117.188 165.701C115.984 164.94 115.036 163.842 114.346 162.407C113.655 160.973 113.31 159.238 113.31 157.201C113.31 155.165 113.655 153.429 114.346 151.995C115.036 150.561 115.984 149.472 117.188 148.728C118.392 147.966 119.756 147.586 121.278 147.586C122.819 147.586 124.183 147.966 125.369 148.728C126.573 149.472 127.521 150.561 128.211 151.995C128.902 153.429 129.247 155.165 129.247 157.201C129.247 159.238 128.902 160.973 128.211 162.407C127.521 163.842 126.573 164.94 125.369 165.701C124.183 166.445 122.819 166.817 121.278 166.817ZM121.278 163.178C122.005 163.178 122.633 162.974 123.164 162.567C123.713 162.16 124.138 161.513 124.439 160.628C124.758 159.742 124.918 158.6 124.918 157.201C124.918 155.802 124.758 154.66 124.439 153.775C124.138 152.889 123.713 152.243 123.164 151.836C122.633 151.428 122.005 151.225 121.278 151.225C120.57 151.225 119.941 151.428 119.393 151.836C118.861 152.243 118.436 152.889 118.118 153.775C117.816 154.66 117.666 155.802 117.666 157.201C117.666 158.6 117.816 159.742 118.118 160.628C118.436 161.513 118.861 162.16 119.393 162.567C119.941 162.974 120.57 163.178 121.278 163.178ZM158.039 151.995C159.172 151.995 160.172 152.225 161.04 152.686C161.926 153.128 162.616 153.819 163.112 154.757C163.626 155.678 163.882 156.865 163.882 158.317L163.882 166.498L159.739 166.498L159.739 158.954C159.739 157.803 159.5 156.953 159.021 156.404C158.543 155.855 157.87 155.581 157.003 155.581C156.401 155.581 155.86 155.723 155.382 156.006C154.904 156.272 154.532 156.679 154.267 157.228C154.001 157.777 153.868 158.476 153.868 159.326L153.868 166.498L149.725 166.498L149.725 158.954C149.725 157.803 149.485 156.953 149.007 156.404C148.547 155.855 147.883 155.581 147.015 155.581C146.413 155.581 145.873 155.723 145.395 156.006C144.917 156.272 144.545 156.679 144.279 157.228C144.014 157.777 143.881 158.476 143.881 159.326L143.881 166.498L139.737 166.498L139.737 152.207L143.695 152.207L143.695 156.112L142.951 154.97C143.447 153.996 144.146 153.261 145.05 152.765C145.97 152.252 147.015 151.995 148.184 151.995C149.494 151.995 150.637 152.331 151.61 153.004C152.602 153.66 153.257 154.669 153.576 156.032L152.115 155.634C152.593 154.518 153.355 153.633 154.4 152.978C155.462 152.323 156.675 151.995 158.039 151.995ZM167.596 166.498L167.596 146.789L171.74 146.789L171.74 166.498L167.596 166.498Z" fill="#F6F4F3"/>
<defs>
<linearGradient id="paint0_linear_2039_598" x1="104.125" y1="165.097" x2="104.125" y2="12.2422" gradientUnits="userSpaceOnUse">
<stop offset="0.906845" stop-color="#FFF4EA"/>
</linearGradient>
<linearGradient id="paint1_linear_2039_598" x1="103.687" y1="286.734" x2="103.687" y2="297.499" gradientUnits="userSpaceOnUse">
<stop offset="0.365385" stop-color="#B77F53"/>
<stop offset="1" stop-color="white"/>
</linearGradient>
</defs>
</svg>
