<svg width="155" height="50" viewBox="0 0 155 50" fill="none" xmlns="http://www.w3.org/2000/svg">
<g filter="url(#filter0_d_1772_400)">
<rect x="24.1387" y="4.71701" width="33" height="31" rx="6" transform="rotate(46.3303 24.1387 4.71701)" fill="white"/>
</g>
<path d="M17.4195 22.9641V34.1357C17.4195 34.3251 17.4804 34.4808 17.6022 34.6026C17.724 34.7244 17.88 34.7853 18.0701 34.7853H31.557C31.7464 34.7853 31.9021 34.7244 32.0239 34.6026C32.1457 34.4808 32.2066 34.3251 32.2066 34.1357V22.9641H27.9817V30.1337L24.8131 28.5494L21.6444 30.1337V22.9641H17.4195ZM18.0701 35.8415C17.5969 35.8415 17.1942 35.6753 16.8618 35.343C16.5295 35.0106 16.3633 34.6082 16.3633 34.1357V22.624C16.3633 22.4184 16.396 22.2247 16.4615 22.043C16.527 21.8614 16.6256 21.6941 16.7573 21.5413L18.4028 19.5662C18.5556 19.3599 18.7468 19.2043 18.9764 19.0994C19.2059 18.9944 19.452 18.942 19.7147 18.942H29.8713C30.1332 18.942 30.3825 18.9944 30.6191 19.0994C30.8557 19.2043 31.0504 19.3595 31.2032 19.5651L32.8689 21.5825C33.0005 21.7353 33.0991 21.9061 33.1646 22.0948C33.2301 22.2828 33.2628 22.48 33.2628 22.6863V34.1357C33.2628 34.6075 33.0967 35.0099 32.7643 35.343C32.4319 35.6753 32.0295 35.8415 31.557 35.8415H18.0701ZM17.8209 21.9078H31.7841L30.3793 20.22C30.311 20.1524 30.2329 20.0985 30.1449 20.0584C30.0568 20.0183 29.9653 19.9982 29.8702 19.9982H19.7347C19.6404 19.9982 19.5488 20.0186 19.4601 20.0595C19.3714 20.1003 19.2939 20.1545 19.2278 20.2221L17.8209 21.9078ZM22.6996 22.9641V28.4068L24.812 27.3506L26.9244 28.4068V22.9651L22.6996 22.9641Z" fill="black"/>
<path d="M55.9651 22.6676V13.1521H60.0952C60.797 13.1521 61.3909 13.2691 61.8768 13.503C62.3627 13.737 62.7316 14.0744 62.9836 14.5153C63.2355 14.9562 63.3615 15.4916 63.3615 16.1215C63.3615 16.7424 63.2355 17.2777 62.9836 17.7276C62.7316 18.1686 62.3627 18.5105 61.8768 18.7534C61.3909 18.9874 60.797 19.1044 60.0952 19.1044H57.6927V22.6676H55.9651ZM57.6927 17.7411H59.8252C60.4371 17.7411 60.9005 17.6062 61.2155 17.3362C61.5304 17.0573 61.6879 16.6524 61.6879 16.1215C61.6879 15.5906 61.5304 15.1902 61.2155 14.9202C60.9005 14.6503 60.4371 14.5153 59.8252 14.5153H57.6927V17.7411ZM67.3287 22.8026C66.6359 22.8026 66.033 22.6631 65.5201 22.3842C65.0072 22.0962 64.6113 21.6913 64.3323 21.1694C64.0534 20.6475 63.9139 20.0357 63.9139 19.3338C63.9139 18.632 64.0534 18.0291 64.3323 17.5252C64.6113 17.0123 65.0072 16.6209 65.5201 16.3509C66.033 16.072 66.6359 15.9325 67.3287 15.9325C67.7516 15.9325 68.17 16 68.5839 16.135C68.9979 16.27 69.3398 16.4589 69.6097 16.7019L69.1103 17.8761C68.8764 17.6692 68.6109 17.5117 68.314 17.4037C68.0261 17.2957 67.7471 17.2418 67.4772 17.2418C66.8923 17.2418 66.4379 17.4262 66.114 17.7951C65.799 18.1551 65.6416 18.6724 65.6416 19.3473C65.6416 20.0132 65.799 20.5396 66.114 20.9265C66.4379 21.3044 66.8923 21.4934 67.4772 21.4934C67.7381 21.4934 68.0171 21.4394 68.314 21.3314C68.6109 21.2234 68.8764 21.0614 69.1103 20.8455L69.6097 22.0332C69.3398 22.2672 68.9934 22.4561 68.5704 22.6001C68.1565 22.7351 67.7426 22.8026 67.3287 22.8026ZM73.0607 22.8026C72.6917 22.8026 72.3318 22.7711 71.9809 22.7081C71.639 22.6451 71.324 22.5596 71.0361 22.4516C70.7482 22.3347 70.4962 22.1907 70.2803 22.0197L70.7122 20.913C70.9371 21.0569 71.1801 21.1829 71.441 21.2909C71.702 21.3989 71.9719 21.4799 72.2508 21.5338C72.5298 21.5878 72.8042 21.6148 73.0742 21.6148C73.5061 21.6148 73.8255 21.5428 74.0325 21.3989C74.2484 21.2459 74.3564 21.0479 74.3564 20.805C74.3564 20.598 74.2844 20.4406 74.1404 20.3326C74.0055 20.2156 73.7985 20.1301 73.5196 20.0762L72.1699 19.8197C71.612 19.7117 71.1846 19.5093 70.8876 19.2123C70.5997 18.9064 70.4557 18.515 70.4557 18.0381C70.4557 17.6062 70.5727 17.2328 70.8066 16.9178C71.0496 16.6029 71.3825 16.3599 71.8054 16.189C72.2283 16.018 72.7142 15.9325 73.2631 15.9325C73.5781 15.9325 73.884 15.964 74.1809 16.027C74.4779 16.081 74.7568 16.1665 75.0178 16.2835C75.2877 16.3914 75.5216 16.5354 75.7196 16.7154L75.2607 17.8221C75.0897 17.6782 74.8918 17.5567 74.6668 17.4577C74.4419 17.3497 74.2079 17.2687 73.965 17.2148C73.731 17.1518 73.5016 17.1203 73.2766 17.1203C72.8357 17.1203 72.5073 17.1968 72.2913 17.3497C72.0844 17.5027 71.9809 17.7052 71.9809 17.9571C71.9809 18.1461 72.0439 18.3035 72.1699 18.4295C72.2958 18.5555 72.4893 18.641 72.7502 18.6859L74.0999 18.9424C74.6848 19.0504 75.1257 19.2483 75.4227 19.5363C75.7286 19.8242 75.8816 20.2111 75.8816 20.697C75.8816 21.1379 75.7646 21.5158 75.5306 21.8308C75.2967 22.1457 74.9683 22.3887 74.5454 22.5596C74.1224 22.7216 73.6275 22.8026 73.0607 22.8026ZM81.035 22.6676V13.1521H85.1651C85.8669 13.1521 86.4608 13.2691 86.9467 13.503C87.4326 13.737 87.8015 14.0744 88.0535 14.5153C88.3054 14.9562 88.4314 15.4916 88.4314 16.1215C88.4314 16.7424 88.3054 17.2777 88.0535 17.7276C87.8015 18.1686 87.4326 18.5105 86.9467 18.7534C86.4608 18.9874 85.8669 19.1044 85.1651 19.1044H82.7626V22.6676H81.035ZM82.7626 17.7411H84.8951C85.507 17.7411 85.9704 17.6062 86.2853 17.3362C86.6003 17.0573 86.7577 16.6524 86.7577 16.1215C86.7577 15.5906 86.6003 15.1902 86.2853 14.9202C85.9704 14.6503 85.507 14.5153 84.8951 14.5153H82.7626V17.7411ZM92.6011 22.8026C91.8542 22.8026 91.2108 22.6631 90.671 22.3842C90.1311 22.1052 89.7127 21.7093 89.4157 21.1964C89.1278 20.6835 88.9838 20.0762 88.9838 19.3743C88.9838 18.6904 89.1233 18.0921 89.4022 17.5792C89.6902 17.0663 90.0816 16.6659 90.5765 16.3779C91.0804 16.081 91.6518 15.9325 92.2906 15.9325C92.9205 15.9325 93.4604 16.0675 93.9103 16.3374C94.3602 16.6074 94.7066 16.9898 94.9496 17.4847C95.2015 17.9796 95.3275 18.569 95.3275 19.2528V19.7522H90.347V18.7804H94.1397L93.9238 18.9829C93.9238 18.371 93.7888 17.9031 93.5189 17.5792C93.2489 17.2462 92.862 17.0798 92.3581 17.0798C91.9802 17.0798 91.6563 17.1698 91.3863 17.3497C91.1254 17.5207 90.9229 17.7681 90.7789 18.0921C90.644 18.407 90.5765 18.7849 90.5765 19.2258V19.3203C90.5765 19.8152 90.653 20.2246 90.8059 20.5486C90.9589 20.8725 91.1884 21.1154 91.4943 21.2774C91.8002 21.4394 92.1781 21.5203 92.628 21.5203C92.997 21.5203 93.3659 21.4664 93.7348 21.3584C94.1037 21.2414 94.4412 21.0614 94.7471 20.8185L95.2195 21.9523C94.9046 22.2132 94.5087 22.4202 94.0318 22.5731C93.5549 22.7261 93.078 22.8026 92.6011 22.8026ZM96.6636 22.6676V16.0675H98.3102V17.6602H98.1753C98.3012 17.1203 98.5487 16.7109 98.9176 16.4319C99.2865 16.144 99.7769 15.9775 100.389 15.9325L100.902 15.892L101.01 17.3227L100.038 17.4172C99.489 17.4712 99.0751 17.6422 98.7961 17.9301C98.5172 18.209 98.3777 18.605 98.3777 19.1179V22.6676H96.6636ZM105.749 22.6676V13.1521H109.906C110.905 13.1521 111.679 13.3726 112.228 13.8135C112.776 14.2454 113.051 14.8483 113.051 15.6221C113.051 16.198 112.884 16.6839 112.552 17.0798C112.219 17.4757 111.764 17.7411 111.188 17.8761V17.6737C111.629 17.7366 112.007 17.8716 112.322 18.0786C112.637 18.2855 112.875 18.551 113.037 18.8749C113.208 19.1988 113.294 19.5768 113.294 20.0087C113.294 20.5665 113.163 21.0479 112.902 21.4529C112.65 21.8488 112.282 22.1502 111.796 22.3572C111.31 22.5641 110.729 22.6676 110.055 22.6676H105.749ZM107.409 21.3584H109.839C110.082 21.3584 110.297 21.3404 110.486 21.3044C110.684 21.2684 110.851 21.2144 110.986 21.1424C111.13 21.0614 111.247 20.9625 111.337 20.8455C111.436 20.7285 111.508 20.5935 111.553 20.4406C111.598 20.2876 111.62 20.1166 111.62 19.9277C111.62 19.7297 111.598 19.5543 111.553 19.4013C111.508 19.2483 111.436 19.1179 111.337 19.0099C111.247 18.8929 111.13 18.7984 110.986 18.7264C110.851 18.6455 110.684 18.587 110.486 18.551C110.297 18.515 110.082 18.497 109.839 18.497H107.409V21.3584ZM107.409 17.1878H109.609C110.203 17.1878 110.644 17.0753 110.932 16.8503C111.229 16.6164 111.377 16.2745 111.377 15.8246C111.377 15.3746 111.229 15.0372 110.932 14.8123C110.644 14.5783 110.203 14.4613 109.609 14.4613H107.409V17.1878ZM117.889 22.8026C117.205 22.8026 116.612 22.6631 116.108 22.3842C115.604 22.1052 115.212 21.7093 114.933 21.1964C114.655 20.6745 114.515 20.0627 114.515 19.3608C114.515 18.659 114.655 18.0516 114.933 17.5387C115.212 17.0258 115.604 16.6299 116.108 16.3509C116.612 16.072 117.205 15.9325 117.889 15.9325C118.573 15.9325 119.167 16.072 119.671 16.3509C120.175 16.6299 120.566 17.0258 120.845 17.5387C121.124 18.0516 121.264 18.659 121.264 19.3608C121.264 20.0627 121.124 20.6745 120.845 21.1964C120.566 21.7093 120.175 22.1052 119.671 22.3842C119.167 22.6631 118.573 22.8026 117.889 22.8026ZM117.889 21.5203C118.393 21.5203 118.798 21.3404 119.104 20.9805C119.41 20.6115 119.563 20.0717 119.563 19.3608C119.563 18.641 119.41 18.1056 119.104 17.7546C118.798 17.3947 118.393 17.2148 117.889 17.2148C117.385 17.2148 116.981 17.3947 116.675 17.7546C116.369 18.1056 116.216 18.641 116.216 19.3608C116.216 20.0717 116.369 20.6115 116.675 20.9805C116.981 21.3404 117.385 21.5203 117.889 21.5203ZM121.567 22.6676L124.658 18.8614V19.6577L121.742 16.0675H123.713L125.603 18.4835H125.009L126.898 16.0675H128.869L125.954 19.6442V18.8884L129.044 22.6676H127.06L125.009 20.0762H125.576L123.538 22.6676H121.567Z" fill="black"/>
<path d="M56.8829 42.0419V34.506L57.2428 34.8884H55.027V34.1686H57.6927V42.0419H56.8829ZM62.7128 42.1094C62.1055 42.1094 61.5656 41.9519 61.0932 41.637C60.6208 41.3145 60.2496 40.8571 59.9797 40.2648C59.7097 39.6649 59.5747 38.945 59.5747 38.1052C59.5747 37.2654 59.7097 36.5493 59.9797 35.9569C60.2496 35.357 60.6208 34.8996 61.0932 34.5847C61.5656 34.2623 62.1055 34.1011 62.7128 34.1011C63.3202 34.1011 63.8601 34.2623 64.3325 34.5847C64.8049 34.8996 65.1761 35.357 65.446 35.9569C65.7234 36.5493 65.8622 37.2654 65.8622 38.1052C65.8622 38.945 65.7234 39.6649 65.446 40.2648C65.1761 40.8571 64.8049 41.3145 64.3325 41.637C63.8601 41.9519 63.3202 42.1094 62.7128 42.1094ZM62.7128 41.367C63.1777 41.367 63.5826 41.2433 63.9276 40.9959C64.2725 40.7409 64.5424 40.3735 64.7374 39.8936C64.9324 39.4062 65.0298 38.8101 65.0298 38.1052C65.0298 37.4004 64.9324 36.808 64.7374 36.3281C64.5424 35.8407 64.2725 35.4733 63.9276 35.2258C63.5826 34.9709 63.1777 34.8434 62.7128 34.8434C62.2629 34.8434 61.8618 34.9709 61.5093 35.2258C61.1569 35.4733 60.8832 35.8407 60.6883 36.3281C60.4933 36.808 60.3958 37.4004 60.3958 38.1052C60.3958 38.8101 60.4933 39.4062 60.6883 39.8936C60.8832 40.3735 61.1569 40.7409 61.5093 40.9959C61.8618 41.2433 62.2629 41.367 62.7128 41.367ZM70.16 42.1094C69.5526 42.1094 69.0127 41.9519 68.5403 41.637C68.0679 41.3145 67.6968 40.8571 67.4268 40.2648C67.1569 39.6649 67.0219 38.945 67.0219 38.1052C67.0219 37.2654 67.1569 36.5493 67.4268 35.9569C67.6968 35.357 68.0679 34.8996 68.5403 34.5847C69.0127 34.2623 69.5526 34.1011 70.16 34.1011C70.7674 34.1011 71.3072 34.2623 71.7796 34.5847C72.252 34.8996 72.6232 35.357 72.8932 35.9569C73.1706 36.5493 73.3093 37.2654 73.3093 38.1052C73.3093 38.945 73.1706 39.6649 72.8932 40.2648C72.6232 40.8571 72.252 41.3145 71.7796 41.637C71.3072 41.9519 70.7674 42.1094 70.16 42.1094ZM70.16 41.367C70.6249 41.367 71.0298 41.2433 71.3747 40.9959C71.7197 40.7409 71.9896 40.3735 72.1846 39.8936C72.3795 39.4062 72.477 38.8101 72.477 38.1052C72.477 37.4004 72.3795 36.808 72.1846 36.3281C71.9896 35.8407 71.7197 35.4733 71.3747 35.2258C71.0298 34.9709 70.6249 34.8434 70.16 34.8434C69.7101 34.8434 69.3089 34.9709 68.9565 35.2258C68.6041 35.4733 68.3304 35.8407 68.1354 36.3281C67.9404 36.808 67.843 37.4004 67.843 38.1052C67.843 38.8101 67.9404 39.4062 68.1354 39.8936C68.3304 40.3735 68.6041 40.7409 68.9565 40.9959C69.3089 41.2433 69.7101 41.367 70.16 41.367ZM77.6071 42.1094C76.9998 42.1094 76.4599 41.9519 75.9875 41.637C75.5151 41.3145 75.1439 40.8571 74.874 40.2648C74.604 39.6649 74.469 38.945 74.469 38.1052C74.469 37.2654 74.604 36.5493 74.874 35.9569C75.1439 35.357 75.5151 34.8996 75.9875 34.5847C76.4599 34.2623 76.9998 34.1011 77.6071 34.1011C78.2145 34.1011 78.7544 34.2623 79.2268 34.5847C79.6992 34.8996 80.0704 35.357 80.3403 35.9569C80.6177 36.5493 80.7565 37.2654 80.7565 38.1052C80.7565 38.945 80.6177 39.6649 80.3403 40.2648C80.0704 40.8571 79.6992 41.3145 79.2268 41.637C78.7544 41.9519 78.2145 42.1094 77.6071 42.1094ZM77.6071 41.367C78.072 41.367 78.477 41.2433 78.8219 40.9959C79.1668 40.7409 79.4367 40.3735 79.6317 39.8936C79.8267 39.4062 79.9241 38.8101 79.9241 38.1052C79.9241 37.4004 79.8267 36.808 79.6317 36.3281C79.4367 35.8407 79.1668 35.4733 78.8219 35.2258C78.477 34.9709 78.072 34.8434 77.6071 34.8434C77.1572 34.8434 76.7561 34.9709 76.4036 35.2258C76.0512 35.4733 75.7775 35.8407 75.5826 36.3281C75.3876 36.808 75.2901 37.4004 75.2901 38.1052C75.2901 38.8101 75.3876 39.4062 75.5826 39.8936C75.7775 40.3735 76.0512 40.7409 76.4036 40.9959C76.7561 41.2433 77.1572 41.367 77.6071 41.367ZM85.5573 42.0419V34.1686H86.2434L91.676 41.0071H91.3161V34.1686H92.1371V42.0419H91.451L86.0297 35.2033H86.3896V42.0419H85.5573ZM96.9452 42.0981C96.3753 42.0981 95.8617 41.9707 95.4043 41.7157C94.9544 41.4533 94.5982 41.0971 94.3358 40.6472C94.0733 40.1898 93.9421 39.6686 93.9421 39.0838C93.9421 38.4914 94.0733 37.9702 94.3358 37.5203C94.5982 37.0704 94.9544 36.718 95.4043 36.4631C95.8542 36.2081 96.3678 36.0806 96.9452 36.0806C97.5301 36.0806 98.0475 36.2081 98.4974 36.4631C98.9548 36.718 99.311 37.0704 99.5659 37.5203C99.8284 37.9702 99.9596 38.4914 99.9596 39.0838C99.9596 39.6686 99.8284 40.1898 99.5659 40.6472C99.311 41.0971 98.9548 41.4533 98.4974 41.7157C98.04 41.9707 97.5226 42.0981 96.9452 42.0981ZM96.9452 41.3895C97.3726 41.3895 97.7513 41.2958 98.0812 41.1083C98.4112 40.9134 98.6699 40.6434 98.8573 40.2985C99.0523 39.9461 99.1498 39.5412 99.1498 39.0838C99.1498 38.6189 99.0523 38.2139 98.8573 37.869C98.6699 37.5241 98.4112 37.2579 98.0812 37.0704C97.7513 36.8755 97.3764 36.778 96.9565 36.778C96.5366 36.778 96.1616 36.8755 95.8317 37.0704C95.5018 37.2579 95.2393 37.5241 95.0444 37.869C94.8494 38.2139 94.7519 38.6189 94.7519 39.0838C94.7519 39.5412 94.8494 39.9461 95.0444 40.2985C95.2393 40.6434 95.5018 40.9134 95.8317 41.1083C96.1616 41.2958 96.5328 41.3895 96.9452 41.3895ZM103.176 42.0981C102.688 42.0981 102.227 42.0306 101.792 41.8957C101.358 41.7532 101.016 41.577 100.769 41.367L101.129 40.7372C101.369 40.9171 101.676 41.0746 102.051 41.2096C102.426 41.337 102.82 41.4008 103.232 41.4008C103.794 41.4008 104.199 41.3145 104.447 41.1421C104.694 40.9621 104.818 40.7259 104.818 40.4335C104.818 40.216 104.747 40.0473 104.604 39.9273C104.469 39.7999 104.289 39.7061 104.064 39.6461C103.839 39.5787 103.588 39.5224 103.311 39.4774C103.033 39.4324 102.756 39.3799 102.479 39.32C102.209 39.26 101.961 39.1737 101.736 39.0613C101.511 38.9413 101.328 38.7801 101.185 38.5776C101.05 38.3752 100.983 38.1052 100.983 37.7678C100.983 37.4454 101.073 37.1567 101.253 36.9017C101.432 36.6468 101.695 36.4481 102.04 36.3056C102.392 36.1556 102.82 36.0806 103.322 36.0806C103.705 36.0806 104.087 36.1331 104.469 36.2381C104.852 36.3356 105.167 36.4668 105.414 36.6318L105.065 37.2729C104.803 37.0929 104.522 36.9655 104.222 36.8905C103.922 36.808 103.622 36.7668 103.322 36.7668C102.79 36.7668 102.396 36.8605 102.141 37.0479C101.894 37.2279 101.77 37.4604 101.77 37.7453C101.77 37.9702 101.837 38.1465 101.972 38.2739C102.115 38.4014 102.299 38.5026 102.524 38.5776C102.756 38.6451 103.007 38.7013 103.277 38.7463C103.555 38.7913 103.828 38.8476 104.098 38.915C104.376 38.975 104.627 39.0613 104.852 39.1737C105.084 39.2787 105.268 39.4324 105.403 39.6349C105.545 39.8299 105.617 40.0885 105.617 40.411C105.617 40.7559 105.519 41.0558 105.324 41.3108C105.137 41.5582 104.859 41.7532 104.492 41.8957C104.132 42.0306 103.693 42.0981 103.176 42.0981ZM105.687 43.1666L109.399 32.5714H110.13L106.418 43.1666H105.687ZM112.533 42.0981C111.948 42.0981 111.423 41.9707 110.958 41.7157C110.501 41.4533 110.141 41.0971 109.878 40.6472C109.616 40.1898 109.484 39.6686 109.484 39.0838C109.484 38.4914 109.616 37.9702 109.878 37.5203C110.141 37.0704 110.501 36.718 110.958 36.4631C111.423 36.2081 111.948 36.0806 112.533 36.0806C113.035 36.0806 113.489 36.1781 113.894 36.3731C114.298 36.568 114.617 36.8605 114.85 37.2504L114.253 37.6553C114.051 37.3554 113.8 37.1342 113.5 36.9917C113.2 36.8492 112.874 36.778 112.521 36.778C112.101 36.778 111.723 36.8755 111.385 37.0704C111.048 37.2579 110.782 37.5241 110.587 37.869C110.392 38.2139 110.294 38.6189 110.294 39.0838C110.294 39.5487 110.392 39.9536 110.587 40.2985C110.782 40.6434 111.048 40.9134 111.385 41.1083C111.723 41.2958 112.101 41.3895 112.521 41.3895C112.874 41.3895 113.2 41.3183 113.5 41.1758C113.8 41.0333 114.051 40.8159 114.253 40.5235L114.85 40.9284C114.617 41.3108 114.298 41.6032 113.894 41.8057C113.489 42.0006 113.035 42.0981 112.533 42.0981ZM118.351 42.0981C117.796 42.0981 117.369 41.9482 117.069 41.6482C116.769 41.3483 116.619 40.9246 116.619 40.3772V34.8322H117.418V40.3322C117.418 40.6772 117.504 40.9434 117.677 41.1308C117.856 41.3183 118.111 41.412 118.441 41.412C118.794 41.412 119.086 41.3108 119.319 41.1083L119.6 41.682C119.442 41.8244 119.251 41.9294 119.026 41.9969C118.809 42.0644 118.584 42.0981 118.351 42.0981ZM115.562 36.8005V36.1369H119.217V36.8005H115.562ZM124.068 36.0806C124.548 36.0806 124.968 36.1744 125.328 36.3618C125.695 36.5418 125.98 36.8192 126.183 37.1942C126.392 37.5691 126.497 38.0415 126.497 38.6114V42.0419H125.699V38.6901C125.699 38.0677 125.541 37.5991 125.226 37.2841C124.919 36.9617 124.484 36.8005 123.922 36.8005C123.502 36.8005 123.134 36.8867 122.819 37.0592C122.512 37.2242 122.272 37.4679 122.1 37.7903C121.935 38.1052 121.852 38.4876 121.852 38.9375V42.0419H121.054V36.1369H121.818V37.7565L121.695 37.4529C121.882 37.0254 122.182 36.6918 122.595 36.4518C123.007 36.2044 123.498 36.0806 124.068 36.0806Z" fill="black"/>
<defs>
<filter id="filter0_d_1772_400" x="-0.000781059" y="-2.86102e-06" width="48.6422" height="48.7095" filterUnits="userSpaceOnUse" color-interpolation-filters="sRGB">
<feFlood flood-opacity="0" result="BackgroundImageFix"/>
<feColorMatrix in="SourceAlpha" type="matrix" values="0 0 0 0 0 0 0 0 0 0 0 0 0 0 0 0 0 0 127 0" result="hardAlpha"/>
<feOffset dy="-3"/>
<feGaussianBlur stdDeviation="2.1"/>
<feComposite in2="hardAlpha" operator="out"/>
<feColorMatrix type="matrix" values="0 0 0 0 0 0 0 0 0 0 0 0 0 0 0 0 0 0 0.25 0"/>
<feBlend mode="normal" in2="BackgroundImageFix" result="effect1_dropShadow_1772_400"/>
<feBlend mode="normal" in="SourceGraphic" in2="effect1_dropShadow_1772_400" result="shape"/>
</filter>
</defs>
</svg>
