<svg width="165" height="50" viewBox="0 0 165 50" fill="none" xmlns="http://www.w3.org/2000/svg">
<g filter="url(#filter0_d_2040_354)">
<rect x="24.1406" y="4.7168" width="33" height="31" rx="6" transform="rotate(46.3303 24.1406 4.7168)" fill="white"/>
</g>
<path d="M20.1982 21.1045H28.2373C28.4651 21.1045 28.6809 21.2079 28.8232 21.3857L30.3037 23.2363C30.4101 23.3693 30.4677 23.5348 30.4678 23.7051V33.3545C30.4678 33.7687 30.132 34.1045 29.7178 34.1045H18.7178C18.3036 34.1045 17.9678 33.7687 17.9678 33.3545V23.7051C17.9678 23.5348 18.0255 23.3693 18.1318 23.2363L19.6123 21.3857C19.7546 21.2079 19.9705 21.1045 20.1982 21.1045Z" stroke="black" stroke-width="0.5"/>
<path d="M18.2178 23.3545H30.2178" stroke="black" stroke-width="0.5"/>
<path d="M26.4678 23.6045V29.834L24.374 28.1592L24.2178 28.0342L24.0615 28.1592L21.9678 29.834V23.6045H26.4678Z" stroke="black" stroke-width="0.5"/>
<path d="M55.966 22.667V13.1515H60.0962C60.798 13.1515 61.3919 13.2685 61.8778 13.5024C62.3637 13.7364 62.7326 14.0738 62.9846 14.5147C63.2365 14.9556 63.3625 15.491 63.3625 16.1209C63.3625 16.7417 63.2365 17.2771 62.9846 17.727C62.7326 18.1679 62.3637 18.5099 61.8778 18.7528C61.3919 18.9868 60.798 19.1037 60.0962 19.1037H57.6937V22.667H55.966ZM57.6937 17.7405H59.8262C60.4381 17.7405 60.9015 17.6056 61.2164 17.3356C61.5314 17.0567 61.6888 16.6518 61.6888 16.1209C61.6888 15.59 61.5314 15.1896 61.2164 14.9196C60.9015 14.6497 60.4381 14.5147 59.8262 14.5147H57.6937V17.7405ZM67.3297 22.802C66.6368 22.802 66.034 22.6625 65.5211 22.3836C65.0082 22.0956 64.6123 21.6907 64.3333 21.1688C64.0544 20.6469 63.9149 20.035 63.9149 19.3332C63.9149 18.6313 64.0544 18.0285 64.3333 17.5246C64.6123 17.0117 65.0082 16.6203 65.5211 16.3503C66.034 16.0714 66.6368 15.9319 67.3297 15.9319C67.7526 15.9319 68.171 15.9994 68.5849 16.1344C68.9988 16.2693 69.3408 16.4583 69.6107 16.7013L69.1113 17.8755C68.8774 17.6685 68.6119 17.5111 68.315 17.4031C68.027 17.2951 67.7481 17.2411 67.4782 17.2411C66.8933 17.2411 66.4389 17.4256 66.1149 17.7945C65.8 18.1544 65.6425 18.6718 65.6425 19.3467C65.6425 20.0126 65.8 20.5389 66.1149 20.9259C66.4389 21.3038 66.8933 21.4927 67.4782 21.4927C67.7391 21.4927 68.018 21.4388 68.315 21.3308C68.6119 21.2228 68.8774 21.0608 69.1113 20.8449L69.6107 22.0326C69.3408 22.2666 68.9943 22.4555 68.5714 22.5995C68.1575 22.7345 67.7436 22.802 67.3297 22.802ZM73.0616 22.802C72.6927 22.802 72.3328 22.7705 71.9819 22.7075C71.6399 22.6445 71.325 22.559 71.0371 22.451C70.7491 22.3341 70.4972 22.1901 70.2812 22.0191L70.7131 20.9124C70.9381 21.0563 71.181 21.1823 71.442 21.2903C71.7029 21.3983 71.9729 21.4792 72.2518 21.5332C72.5308 21.5872 72.8052 21.6142 73.0751 21.6142C73.5071 21.6142 73.8265 21.5422 74.0334 21.3983C74.2494 21.2453 74.3574 21.0473 74.3574 20.8044C74.3574 20.5974 74.2854 20.44 74.1414 20.332C74.0064 20.215 73.7995 20.1295 73.5205 20.0755L72.1708 19.8191C71.613 19.7111 71.1855 19.5087 70.8886 19.2117C70.6007 18.9058 70.4567 18.5144 70.4567 18.0375C70.4567 17.6056 70.5737 17.2321 70.8076 16.9172C71.0506 16.6023 71.3835 16.3593 71.8064 16.1884C72.2293 16.0174 72.7152 15.9319 73.2641 15.9319C73.579 15.9319 73.885 15.9634 74.1819 16.0264C74.4788 16.0804 74.7578 16.1659 75.0187 16.2828C75.2887 16.3908 75.5226 16.5348 75.7206 16.7148L75.2617 17.8215C75.0907 17.6775 74.8928 17.5561 74.6678 17.4571C74.4429 17.3491 74.2089 17.2681 73.966 17.2141C73.732 17.1512 73.5026 17.1197 73.2776 17.1197C72.8367 17.1197 72.5083 17.1961 72.2923 17.3491C72.0854 17.5021 71.9819 17.7045 71.9819 17.9565C71.9819 18.1454 72.0449 18.3029 72.1708 18.4289C72.2968 18.5549 72.4903 18.6403 72.7512 18.6853L74.1009 18.9418C74.6858 19.0498 75.1267 19.2477 75.4236 19.5357C75.7296 19.8236 75.8825 20.2105 75.8825 20.6964C75.8825 21.1373 75.7656 21.5152 75.5316 21.8302C75.2977 22.1451 74.9692 22.3881 74.5463 22.559C74.1234 22.721 73.6285 22.802 73.0616 22.802ZM81.0359 22.667V13.1515H85.1661C85.8679 13.1515 86.4618 13.2685 86.9477 13.5024C87.4336 13.7364 87.8025 14.0738 88.0544 14.5147C88.3064 14.9556 88.4324 15.491 88.4324 16.1209C88.4324 16.7417 88.3064 17.2771 88.0544 17.727C87.8025 18.1679 87.4336 18.5099 86.9477 18.7528C86.4618 18.9868 85.8679 19.1037 85.1661 19.1037H82.7636V22.667H81.0359ZM82.7636 17.7405H84.8961C85.508 17.7405 85.9714 17.6056 86.2863 17.3356C86.6012 17.0567 86.7587 16.6518 86.7587 16.1209C86.7587 15.59 86.6012 15.1896 86.2863 14.9196C85.9714 14.6497 85.508 14.5147 84.8961 14.5147H82.7636V17.7405ZM92.602 22.802C91.8552 22.802 91.2118 22.6625 90.6719 22.3836C90.1321 22.1046 89.7136 21.7087 89.4167 21.1958C89.1288 20.6829 88.9848 20.0755 88.9848 19.3737C88.9848 18.6898 89.1243 18.0915 89.4032 17.5786C89.6911 17.0657 90.0826 16.6653 90.5775 16.3773C91.0814 16.0804 91.6527 15.9319 92.2916 15.9319C92.9215 15.9319 93.4613 16.0669 93.9113 16.3368C94.3612 16.6068 94.7076 16.9892 94.9505 17.4841C95.2025 17.979 95.3285 18.5684 95.3285 19.2522V19.7516H90.348V18.7798H94.1407L93.9248 18.9823C93.9248 18.3704 93.7898 17.9025 93.5198 17.5786C93.2499 17.2456 92.863 17.0792 92.3591 17.0792C91.9812 17.0792 91.6572 17.1692 91.3873 17.3491C91.1263 17.5201 90.9239 17.7675 90.7799 18.0915C90.6449 18.4064 90.5775 18.7843 90.5775 19.2252V19.3197C90.5775 19.8146 90.6539 20.224 90.8069 20.5479C90.9599 20.8719 91.1893 21.1148 91.4953 21.2768C91.8012 21.4388 92.1791 21.5197 92.629 21.5197C92.9979 21.5197 93.3669 21.4657 93.7358 21.3578C94.1047 21.2408 94.4421 21.0608 94.7481 20.8179L95.2205 21.9516C94.9055 22.2126 94.5096 22.4195 94.0327 22.5725C93.5558 22.7255 93.0789 22.802 92.602 22.802ZM96.6646 22.667V16.0669H98.3112V17.6596H98.1762C98.3022 17.1197 98.5497 16.7103 98.9186 16.4313C99.2875 16.1434 99.7779 15.9769 100.39 15.9319L100.903 15.8914L101.011 17.3221L100.039 17.4166C99.49 17.4706 99.0761 17.6416 98.7971 17.9295C98.5182 18.2084 98.3787 18.6044 98.3787 19.1172V22.667H96.6646ZM105.75 22.667V13.1515H109.907C110.906 13.1515 111.68 13.372 112.229 13.8129C112.777 14.2448 113.052 14.8476 113.052 15.6215C113.052 16.1974 112.885 16.6833 112.552 17.0792C112.22 17.4751 111.765 17.7405 111.189 17.8755V17.673C111.63 17.736 112.008 17.871 112.323 18.078C112.638 18.2849 112.876 18.5504 113.038 18.8743C113.209 19.1982 113.295 19.5761 113.295 20.0081C113.295 20.5659 113.164 21.0473 112.903 21.4522C112.651 21.8482 112.283 22.1496 111.797 22.3566C111.311 22.5635 110.73 22.667 110.056 22.667H105.75ZM107.41 21.3578H109.84C110.083 21.3578 110.298 21.3398 110.487 21.3038C110.685 21.2678 110.852 21.2138 110.987 21.1418C111.131 21.0608 111.248 20.9619 111.338 20.8449C111.437 20.7279 111.509 20.5929 111.554 20.44C111.599 20.287 111.621 20.116 111.621 19.9271C111.621 19.7291 111.599 19.5537 111.554 19.4007C111.509 19.2477 111.437 19.1172 111.338 19.0093C111.248 18.8923 111.131 18.7978 110.987 18.7258C110.852 18.6448 110.685 18.5864 110.487 18.5504C110.298 18.5144 110.083 18.4964 109.84 18.4964H107.41V21.3578ZM107.41 17.1872H109.61C110.204 17.1872 110.645 17.0747 110.933 16.8497C111.23 16.6158 111.378 16.2738 111.378 15.8239C111.378 15.374 111.23 15.0366 110.933 14.8117C110.645 14.5777 110.204 14.4607 109.61 14.4607H107.41V17.1872ZM117.89 22.802C117.206 22.802 116.613 22.6625 116.109 22.3836C115.605 22.1046 115.213 21.7087 114.934 21.1958C114.655 20.6739 114.516 20.062 114.516 19.3602C114.516 18.6583 114.655 18.051 114.934 17.5381C115.213 17.0252 115.605 16.6293 116.109 16.3503C116.613 16.0714 117.206 15.9319 117.89 15.9319C118.574 15.9319 119.168 16.0714 119.672 16.3503C120.176 16.6293 120.567 17.0252 120.846 17.5381C121.125 18.051 121.265 18.6583 121.265 19.3602C121.265 20.062 121.125 20.6739 120.846 21.1958C120.567 21.7087 120.176 22.1046 119.672 22.3836C119.168 22.6625 118.574 22.802 117.89 22.802ZM117.89 21.5197C118.394 21.5197 118.799 21.3398 119.105 20.9798C119.411 20.6109 119.564 20.071 119.564 19.3602C119.564 18.6403 119.411 18.105 119.105 17.754C118.799 17.3941 118.394 17.2141 117.89 17.2141C117.386 17.2141 116.981 17.3941 116.676 17.754C116.37 18.105 116.217 18.6403 116.217 19.3602C116.217 20.071 116.37 20.6109 116.676 20.9798C116.981 21.3398 117.386 21.5197 117.89 21.5197ZM121.568 22.667L124.659 18.8608V19.6571L121.743 16.0669H123.714L125.604 18.4829H125.01L126.899 16.0669H128.87L125.955 19.6436V18.8878L129.045 22.667H127.061L125.01 20.0755H125.577L123.539 22.667H121.568Z" fill="black"/>
<path d="M56.8838 42.041V34.5051L57.2438 34.8875H55.028V34.1677H57.6937V42.041H56.8838ZM62.7138 42.1085C62.1064 42.1085 61.5665 41.951 61.0941 41.6361C60.6217 41.3137 60.2506 40.8563 59.9806 40.2639C59.7107 39.664 59.5757 38.9442 59.5757 38.1043C59.5757 37.2645 59.7107 36.5484 59.9806 35.9561C60.2506 35.3562 60.6217 34.8988 61.0941 34.5838C61.5665 34.2614 62.1064 34.1002 62.7138 34.1002C63.3212 34.1002 63.8611 34.2614 64.3335 34.5838C64.8059 34.8988 65.177 35.3562 65.447 35.9561C65.7244 36.5484 65.8631 37.2645 65.8631 38.1043C65.8631 38.9442 65.7244 39.664 65.447 40.2639C65.177 40.8563 64.8059 41.3137 64.3335 41.6361C63.8611 41.951 63.3212 42.1085 62.7138 42.1085ZM62.7138 41.3662C63.1787 41.3662 63.5836 41.2424 63.9285 40.995C64.2735 40.74 64.5434 40.3726 64.7384 39.8927C64.9333 39.4053 65.0308 38.8092 65.0308 38.1043C65.0308 37.3995 64.9333 36.8071 64.7384 36.3272C64.5434 35.8398 64.2735 35.4724 63.9285 35.225C63.5836 34.97 63.1787 34.8425 62.7138 34.8425C62.2639 34.8425 61.8627 34.97 61.5103 35.225C61.1579 35.4724 60.8842 35.8398 60.6892 36.3272C60.4943 36.8071 60.3968 37.3995 60.3968 38.1043C60.3968 38.8092 60.4943 39.4053 60.6892 39.8927C60.8842 40.3726 61.1579 40.74 61.5103 40.995C61.8627 41.2424 62.2639 41.3662 62.7138 41.3662ZM70.161 42.1085C69.5536 42.1085 69.0137 41.951 68.5413 41.6361C68.0689 41.3137 67.6977 40.8563 67.4278 40.2639C67.1578 39.664 67.0229 38.9442 67.0229 38.1043C67.0229 37.2645 67.1578 36.5484 67.4278 35.9561C67.6977 35.3562 68.0689 34.8988 68.5413 34.5838C69.0137 34.2614 69.5536 34.1002 70.161 34.1002C70.7683 34.1002 71.3082 34.2614 71.7806 34.5838C72.253 34.8988 72.6242 35.3562 72.8941 35.9561C73.1716 36.5484 73.3103 37.2645 73.3103 38.1043C73.3103 38.9442 73.1716 39.664 72.8941 40.2639C72.6242 40.8563 72.253 41.3137 71.7806 41.6361C71.3082 41.951 70.7683 42.1085 70.161 42.1085ZM70.161 41.3662C70.6259 41.3662 71.0308 41.2424 71.3757 40.995C71.7206 40.74 71.9906 40.3726 72.1855 39.8927C72.3805 39.4053 72.478 38.8092 72.478 38.1043C72.478 37.3995 72.3805 36.8071 72.1855 36.3272C71.9906 35.8398 71.7206 35.4724 71.3757 35.225C71.0308 34.97 70.6259 34.8425 70.161 34.8425C69.7111 34.8425 69.3099 34.97 68.9575 35.225C68.605 35.4724 68.3313 35.8398 68.1364 36.3272C67.9414 36.8071 67.8439 37.3995 67.8439 38.1043C67.8439 38.8092 67.9414 39.4053 68.1364 39.8927C68.3313 40.3726 68.605 40.74 68.9575 40.995C69.3099 41.2424 69.7111 41.3662 70.161 41.3662ZM77.6081 42.1085C77.0007 42.1085 76.4609 41.951 75.9885 41.6361C75.5161 41.3137 75.1449 40.8563 74.8749 40.2639C74.605 39.664 74.47 38.9442 74.47 38.1043C74.47 37.2645 74.605 36.5484 74.8749 35.9561C75.1449 35.3562 75.5161 34.8988 75.9885 34.5838C76.4609 34.2614 77.0007 34.1002 77.6081 34.1002C78.2155 34.1002 78.7554 34.2614 79.2278 34.5838C79.7002 34.8988 80.0713 35.3562 80.3413 35.9561C80.6187 36.5484 80.7574 37.2645 80.7574 38.1043C80.7574 38.9442 80.6187 39.664 80.3413 40.2639C80.0713 40.8563 79.7002 41.3137 79.2278 41.6361C78.7554 41.951 78.2155 42.1085 77.6081 42.1085ZM77.6081 41.3662C78.073 41.3662 78.4779 41.2424 78.8229 40.995C79.1678 40.74 79.4377 40.3726 79.6327 39.8927C79.8276 39.4053 79.9251 38.8092 79.9251 38.1043C79.9251 37.3995 79.8276 36.8071 79.6327 36.3272C79.4377 35.8398 79.1678 35.4724 78.8229 35.225C78.4779 34.97 78.073 34.8425 77.6081 34.8425C77.1582 34.8425 76.757 34.97 76.4046 35.225C76.0522 35.4724 75.7785 35.8398 75.5835 36.3272C75.3886 36.8071 75.2911 37.3995 75.2911 38.1043C75.2911 38.8092 75.3886 39.4053 75.5835 39.8927C75.7785 40.3726 76.0522 40.74 76.4046 40.995C76.757 41.2424 77.1582 41.3662 77.6081 41.3662ZM85.5582 42.041V34.1677H86.2444L91.677 41.0062H91.317V34.1677H92.1381V42.041H91.452L86.0306 35.2025H86.3906V42.041H85.5582ZM96.9462 42.0973C96.3763 42.0973 95.8627 41.9698 95.4053 41.7148C94.9554 41.4524 94.5992 41.0962 94.3368 40.6463C94.0743 40.1889 93.9431 39.6678 93.9431 39.0829C93.9431 38.4905 94.0743 37.9694 94.3368 37.5195C94.5992 37.0696 94.9554 36.7171 95.4053 36.4622C95.8552 36.2072 96.3688 36.0798 96.9462 36.0798C97.5311 36.0798 98.0485 36.2072 98.4984 36.4622C98.9558 36.7171 99.3119 37.0696 99.5669 37.5195C99.8293 37.9694 99.9606 38.4905 99.9606 39.0829C99.9606 39.6678 99.8293 40.1889 99.5669 40.6463C99.3119 41.0962 98.9558 41.4524 98.4984 41.7148C98.041 41.9698 97.5236 42.0973 96.9462 42.0973ZM96.9462 41.3887C97.3736 41.3887 97.7523 41.2949 98.0822 41.1075C98.4121 40.9125 98.6708 40.6426 98.8583 40.2976C99.0533 39.9452 99.1507 39.5403 99.1507 39.0829C99.1507 38.618 99.0533 38.2131 98.8583 37.8681C98.6708 37.5232 98.4121 37.257 98.0822 37.0696C97.7523 36.8746 97.3774 36.7771 96.9574 36.7771C96.5375 36.7771 96.1626 36.8746 95.8327 37.0696C95.5028 37.257 95.2403 37.5232 95.0454 37.8681C94.8504 38.2131 94.7529 38.618 94.7529 39.0829C94.7529 39.5403 94.8504 39.9452 95.0454 40.2976C95.2403 40.6426 95.5028 40.9125 95.8327 41.1075C96.1626 41.2949 96.5338 41.3887 96.9462 41.3887ZM103.177 42.0973C102.689 42.0973 102.228 42.0298 101.793 41.8948C101.358 41.7523 101.017 41.5761 100.77 41.3662L101.13 40.7363C101.37 40.9163 101.677 41.0737 102.052 41.2087C102.427 41.3362 102.821 41.3999 103.233 41.3999C103.795 41.3999 104.2 41.3137 104.448 41.1412C104.695 40.9612 104.819 40.725 104.819 40.4326C104.819 40.2152 104.748 40.0464 104.605 39.9265C104.47 39.799 104.29 39.7053 104.065 39.6453C103.84 39.5778 103.589 39.5215 103.312 39.4766C103.034 39.4316 102.757 39.3791 102.48 39.3191C102.21 39.2591 101.962 39.1729 101.737 39.0604C101.512 38.9404 101.328 38.7792 101.186 38.5767C101.051 38.3743 100.984 38.1043 100.984 37.7669C100.984 37.4445 101.074 37.1558 101.254 36.9009C101.433 36.6459 101.696 36.4472 102.041 36.3047C102.393 36.1548 102.821 36.0798 103.323 36.0798C103.705 36.0798 104.088 36.1323 104.47 36.2372C104.853 36.3347 105.168 36.4659 105.415 36.6309L105.066 37.272C104.804 37.0921 104.523 36.9646 104.223 36.8896C103.923 36.8071 103.623 36.7659 103.323 36.7659C102.791 36.7659 102.397 36.8596 102.142 37.0471C101.895 37.227 101.771 37.4595 101.771 37.7444C101.771 37.9694 101.838 38.1456 101.973 38.2731C102.116 38.4005 102.3 38.5018 102.524 38.5767C102.757 38.6442 103.008 38.7005 103.278 38.7455C103.556 38.7905 103.829 38.8467 104.099 38.9142C104.377 38.9742 104.628 39.0604 104.853 39.1729C105.085 39.2778 105.269 39.4316 105.404 39.634C105.546 39.829 105.618 40.0877 105.618 40.4101C105.618 40.755 105.52 41.055 105.325 41.3099C105.138 41.5574 104.86 41.7523 104.493 41.8948C104.133 42.0298 103.694 42.0973 103.177 42.0973ZM105.688 43.1658L109.4 32.5705H110.131L106.419 43.1658H105.688ZM112.534 42.0973C111.949 42.0973 111.424 41.9698 110.959 41.7148C110.501 41.4524 110.142 41.0962 109.879 40.6463C109.617 40.1889 109.485 39.6678 109.485 39.0829C109.485 38.4905 109.617 37.9694 109.879 37.5195C110.142 37.0696 110.501 36.7171 110.959 36.4622C111.424 36.2072 111.949 36.0798 112.534 36.0798C113.036 36.0798 113.49 36.1773 113.895 36.3722C114.299 36.5672 114.618 36.8596 114.851 37.2495L114.254 37.6544C114.052 37.3545 113.801 37.1333 113.501 36.9908C113.201 36.8484 112.875 36.7771 112.522 36.7771C112.102 36.7771 111.724 36.8746 111.386 37.0696C111.049 37.257 110.783 37.5232 110.588 37.8681C110.393 38.2131 110.295 38.618 110.295 39.0829C110.295 39.5478 110.393 39.9527 110.588 40.2976C110.783 40.6426 111.049 40.9125 111.386 41.1075C111.724 41.2949 112.102 41.3887 112.522 41.3887C112.875 41.3887 113.201 41.3174 113.501 41.1749C113.801 41.0325 114.052 40.815 114.254 40.5226L114.851 40.9275C114.618 41.3099 114.299 41.6024 113.895 41.8048C113.49 41.9998 113.036 42.0973 112.534 42.0973ZM118.352 42.0973C117.797 42.0973 117.37 41.9473 117.07 41.6473C116.77 41.3474 116.62 40.9238 116.62 40.3764V34.8313H117.419V40.3314C117.419 40.6763 117.505 40.9425 117.677 41.13C117.857 41.3174 118.112 41.4111 118.442 41.4111C118.795 41.4111 119.087 41.3099 119.32 41.1075L119.601 41.6811C119.443 41.8236 119.252 41.9285 119.027 41.996C118.81 42.0635 118.585 42.0973 118.352 42.0973ZM115.563 36.7996V36.136H119.218V36.7996H115.563ZM124.069 36.0798C124.549 36.0798 124.969 36.1735 125.329 36.361C125.696 36.5409 125.981 36.8184 126.184 37.1933C126.393 37.5682 126.498 38.0406 126.498 38.6105V42.041H125.7V38.6892C125.7 38.0669 125.542 37.5982 125.227 37.2833C124.92 36.9608 124.485 36.7996 123.923 36.7996C123.503 36.7996 123.135 36.8859 122.82 37.0583C122.513 37.2233 122.273 37.467 122.101 37.7894C121.936 38.1043 121.853 38.4868 121.853 38.9367V42.041H121.055V36.136H121.819V37.7557L121.696 37.452C121.883 37.0246 122.183 36.6909 122.596 36.4509C123.008 36.2035 123.499 36.0798 124.069 36.0798Z" fill="black"/>
<defs>
<filter id="filter0_d_2040_354" x="0.000195503" y="0.000195503" width="48.6441" height="48.7096" filterUnits="userSpaceOnUse" color-interpolation-filters="sRGB">
<feFlood flood-opacity="0" result="BackgroundImageFix"/>
<feColorMatrix in="SourceAlpha" type="matrix" values="0 0 0 0 0 0 0 0 0 0 0 0 0 0 0 0 0 0 127 0" result="hardAlpha"/>
<feOffset dy="-3"/>
<feGaussianBlur stdDeviation="2.1"/>
<feComposite in2="hardAlpha" operator="out"/>
<feColorMatrix type="matrix" values="0 0 0 0 0 0 0 0 0 0 0 0 0 0 0 0 0 0 0.25 0"/>
<feBlend mode="normal" in2="BackgroundImageFix" result="effect1_dropShadow_2040_354"/>
<feBlend mode="normal" in="SourceGraphic" in2="effect1_dropShadow_2040_354" result="shape"/>
</filter>
</defs>
</svg>
