<svg width="326" height="76" viewBox="0 0 326 76" fill="none" xmlns="http://www.w3.org/2000/svg">
<path d="M17.209 47.8502C15.2022 47.8529 13.2784 47.5928 11.4377 47.0697C9.59685 46.5227 8.11406 45.8199 6.9893 44.9614L8.95065 40.5867C10.0274 41.3497 11.295 41.9811 12.7535 42.4808C14.2358 42.9566 15.7295 43.1935 17.2346 43.1915C18.3813 43.1899 19.3009 43.0811 19.9933 42.8652C20.7095 42.6253 21.2343 42.302 21.5679 41.8954C21.9015 41.4888 22.0677 41.0228 22.0666 40.4972C22.0651 39.8282 21.8011 39.303 21.2747 38.9214C20.7482 38.516 20.0546 38.1944 19.194 37.9567C18.3334 37.6951 17.3772 37.4575 16.3256 37.2439C15.2977 37.0064 14.2578 36.7211 13.2059 36.388C12.1779 36.055 11.2332 35.6262 10.372 35.1018C9.51078 34.5774 8.80447 33.8855 8.25309 33.0262C7.72559 32.1668 7.46037 31.0682 7.45742 29.7303C7.45426 28.2969 7.83364 26.9943 8.59557 25.8226C9.38133 24.627 10.5499 23.6817 12.1013 22.9868C13.6765 22.2679 15.6467 21.9069 18.0119 21.9036C19.5887 21.9015 21.142 22.0905 22.6719 22.4707C24.2017 22.827 25.5527 23.3746 26.725 24.1136L24.9429 28.5239C23.7708 27.8566 22.599 27.3684 21.4277 27.0594C20.2563 26.7265 19.1092 26.5609 17.9863 26.5624C16.8634 26.5639 15.9439 26.6966 15.2278 26.9603C14.5117 27.2241 13.9988 27.5712 13.6891 28.0017C13.3794 28.4083 13.2252 28.8863 13.2264 29.4358C13.2278 30.0808 13.4918 30.6061 14.0183 31.0115C14.5447 31.393 15.2383 31.7027 16.0988 31.9404C16.9594 32.1781 17.9037 32.4158 18.9315 32.6533C19.9832 32.8908 21.0231 33.1641 22.0511 33.4733C23.1029 33.7824 24.0595 34.1992 24.9207 34.7236C25.782 35.2481 26.4763 35.9399 27.0038 36.7993C27.5552 37.6586 27.8323 38.7453 27.8352 40.0593C27.8383 41.4688 27.447 42.7595 26.6612 43.9312C25.8754 45.1029 24.6948 46.0482 23.1196 46.7671C21.5683 47.4859 19.5981 47.847 17.209 47.8502ZM33.2518 47.3983L33.1965 22.313L45.4525 22.2963C48.606 22.292 50.9726 22.8861 52.552 24.0785C54.1553 25.2708 54.9591 26.8466 54.9634 28.8056C54.9663 30.1196 54.6463 31.2668 54.0034 32.2472C53.3605 33.2037 52.4782 33.9455 51.3565 34.4726C50.2348 34.9998 48.9452 35.2643 47.4879 35.2663L48.1655 33.7961C49.7423 33.7939 51.1405 34.0548 52.3601 34.5788C53.5797 35.0788 54.525 35.8301 55.1962 36.8326C55.8912 37.8351 56.2403 39.065 56.2435 40.5223C56.2483 42.6725 55.4039 44.3579 53.7103 45.5787C52.0167 46.7755 49.5214 47.3762 46.2245 47.3807L33.2518 47.3983ZM39.0118 43.0185L45.7848 43.0093C47.2899 43.0072 48.4242 42.7668 49.1877 42.2879C49.975 41.7851 50.3674 40.9962 50.3651 39.9211C50.3627 38.8699 49.9668 38.094 49.1773 37.5934C48.4117 37.0688 47.2763 36.8075 45.7712 36.8096L38.5681 36.8194L38.5587 32.5907L44.7584 32.5823C46.168 32.5804 47.2425 32.34 47.9821 31.8612C48.7455 31.3584 49.1261 30.6054 49.1239 29.6019C49.1217 28.6224 48.7379 27.8943 47.9723 27.4175C47.2306 26.9168 46.1549 26.6674 44.7454 26.6693L38.9757 26.6772L39.0118 43.0185ZM60.9591 39.5125L60.9492 35.033L71.0909 35.0192L71.1008 39.4987L60.9591 39.5125ZM78.8679 47.3363L78.8174 24.4011L81.3314 26.9062L73.8058 26.9165L73.7956 22.2578L84.6181 22.243L84.6734 47.3284L78.8679 47.3363ZM101.682 47.7353C99.3888 47.7384 97.3928 47.2633 95.6945 46.3099C94.02 45.3566 92.7268 43.9607 91.8149 42.1224C90.903 40.284 90.4441 38.015 90.4381 35.3154C90.4317 32.4246 90.9639 29.975 92.0346 27.9668C93.1291 25.9584 94.6309 24.4274 96.5398 23.3736C98.4726 22.3197 100.693 21.7911 103.202 21.7877C104.54 21.7859 105.818 21.9275 107.037 22.2125C108.256 22.4976 109.308 22.9262 110.194 23.4983L108.053 27.7658C107.359 27.2889 106.618 26.9674 105.829 26.8012C105.04 26.6112 104.216 26.5167 103.356 26.5179C101.182 26.5209 99.4629 27.1802 98.1996 28.4959C96.9363 29.8116 96.3074 31.7596 96.3131 34.3398C96.3141 34.7698 96.3151 35.2476 96.3163 35.7732C96.3413 36.2988 96.4142 36.8243 96.5348 37.3497L94.9188 35.8468C95.3707 34.9145 95.9543 34.1372 96.6697 33.5151C97.385 32.869 98.232 32.3901 99.2109 32.0782C100.214 31.7423 101.312 31.5736 102.507 31.572C104.131 31.5698 105.589 31.8903 106.881 32.5336C108.172 33.1769 109.202 34.0833 109.969 35.2529C110.76 36.4225 111.157 37.7957 111.16 39.3725C111.164 41.0687 110.737 42.5506 109.88 43.8179C109.047 45.0614 107.914 46.0305 106.482 46.7253C105.074 47.3962 103.474 47.7328 101.682 47.7353ZM101.35 43.3995C102.162 43.3984 102.879 43.2541 103.499 42.9666C104.144 42.6551 104.645 42.2124 105.002 41.6386C105.359 41.0647 105.536 40.4075 105.535 39.6668C105.532 38.5201 105.136 37.6128 104.346 36.9449C103.58 36.2531 102.552 35.9081 101.262 35.9098C100.402 35.911 99.6497 36.0793 99.0054 36.4146C98.3611 36.7261 97.8484 37.1688 97.4674 37.7427C97.1102 38.2926 96.9325 38.9379 96.9341 39.6785C96.9357 40.3953 97.1163 41.0401 97.4759 41.613C97.8355 42.162 98.3382 42.6033 98.984 42.9369C99.6297 43.2466 100.418 43.4008 101.35 43.3995ZM115.339 39.4385L115.329 34.959L125.471 34.9452L125.481 39.4247L115.339 39.4385ZM129.338 47.2676L129.329 43.5048L138.985 34.3534C139.748 33.6595 140.308 33.0376 140.665 32.4876C141.022 31.9376 141.26 31.4356 141.379 30.9815C141.521 30.5274 141.592 30.1092 141.591 29.727C141.589 28.7236 141.241 27.9595 140.547 27.4349C139.876 26.8863 138.884 26.6129 137.57 26.6147C136.519 26.6161 135.54 26.8205 134.633 27.2279C133.75 27.6352 132.999 28.2694 132.38 29.1303L128.145 26.4125C129.097 24.9777 130.433 23.8411 132.151 23.0026C133.869 22.1641 135.851 21.7433 138.097 21.7402C139.961 21.7377 141.586 22.0461 142.973 22.6653C144.384 23.2607 145.473 24.1073 146.24 25.2053C147.03 26.3032 147.428 27.6166 147.431 29.1456C147.433 29.9579 147.327 30.7704 147.114 31.5829C146.924 32.3716 146.52 33.2083 145.901 34.0931C145.306 34.9779 144.424 35.9706 143.256 37.0711L135.245 44.6435L134.129 42.5307L148.285 42.5114L148.295 47.2418L129.338 47.2676ZM160.654 47.655C158.91 47.6574 157.177 47.4328 155.456 46.9812C153.759 46.5057 152.3 45.8387 151.08 44.9803L153.363 40.5335C154.321 41.225 155.421 41.773 156.664 42.1775C157.931 42.5819 159.21 42.7832 160.5 42.7815C161.957 42.7795 163.103 42.4912 163.938 41.9167C164.773 41.3422 165.189 40.5413 165.187 39.514C165.186 38.8689 165.017 38.2958 164.682 37.7945C164.346 37.2933 163.748 36.9119 162.887 36.6502C162.051 36.3886 160.868 36.2588 159.339 36.2609L152.924 36.2696L154.183 22.1484L169.485 22.1276L169.495 26.7863L156.272 26.8042L159.276 24.1483L158.402 34.2195L155.386 31.5717L160.69 31.5645C163.175 31.5611 165.17 31.9048 166.677 32.5956C168.207 33.2624 169.32 34.1807 170.016 35.3504C170.711 36.5201 171.061 37.8456 171.064 39.3268C171.067 40.808 170.7 42.1823 169.962 43.4495C169.224 44.6928 168.08 45.7097 166.528 46.5002C165.001 47.2668 163.043 47.6518 160.654 47.655ZM185.622 47.621C183.567 47.6238 181.727 47.1246 180.1 46.1234C178.473 45.0983 177.192 43.6188 176.256 41.6849C175.32 39.7511 174.849 37.4104 174.842 34.663C174.836 31.9155 175.297 29.5736 176.225 27.6372C177.152 25.7007 178.427 24.2297 180.049 23.2241C181.672 22.1946 183.51 21.6784 185.565 21.6756C187.643 21.6728 189.484 22.184 191.087 23.2091C192.714 24.2103 193.995 25.6778 194.931 27.6117C195.867 29.5456 196.338 31.8863 196.344 34.6337C196.35 37.3811 195.89 39.7231 194.962 41.6595C194.035 43.5959 192.76 45.0789 191.137 46.1084C189.539 47.114 187.7 47.6182 185.622 47.621ZM185.611 42.7115C186.591 42.7101 187.438 42.4342 188.154 41.8838C188.893 41.3333 189.465 40.4605 189.868 39.2654C190.295 38.0703 190.507 36.529 190.503 34.6417C190.499 32.7543 190.28 31.2136 189.848 30.0197C189.439 28.8257 188.864 27.9544 188.122 27.406C187.404 26.8574 186.555 26.5839 185.576 26.5852C184.62 26.5865 183.772 26.8624 183.033 27.4129C182.317 27.9633 181.746 28.8361 181.319 30.0313C180.915 31.2264 180.715 32.7676 180.72 34.655C180.724 36.5423 180.93 38.083 181.339 39.277C181.772 40.471 182.347 41.3422 183.065 41.8907C183.807 42.4392 184.655 42.7128 185.611 42.7115ZM214.316 47.582C212.333 47.5847 210.505 47.2766 208.831 46.6577C207.181 46.0149 205.734 45.109 204.489 43.9401C203.268 42.7711 202.31 41.3986 201.613 39.8228C200.941 38.2469 200.602 36.5153 200.598 34.6279C200.594 32.7405 200.925 31.008 201.59 29.4303C202.28 27.8526 203.244 26.4775 204.484 25.3052C205.724 24.1329 207.179 23.235 208.85 22.6115C210.521 21.9642 212.36 21.6392 214.367 21.6364C216.589 21.6334 218.584 22.001 220.354 22.7392C222.147 23.4774 223.655 24.5504 224.876 25.9583L221.157 29.4037C220.247 28.4493 219.254 27.7459 218.178 27.2934C217.102 26.817 215.93 26.5797 214.664 26.5814C213.446 26.5831 212.335 26.7757 211.333 27.1594C210.33 27.543 209.459 28.0937 208.72 28.8114C208.005 29.5291 207.446 30.378 207.042 31.358C206.662 32.3381 206.473 33.4254 206.475 34.6199C206.478 35.7906 206.672 36.8654 207.056 37.8444C207.464 38.8234 208.028 39.6827 208.746 40.4223C209.488 41.138 210.349 41.6863 211.33 42.0673C212.334 42.4481 213.433 42.6378 214.628 42.6361C215.775 42.6346 216.885 42.4539 217.96 42.0941C219.058 41.7103 220.119 41.0758 221.145 40.1904L224.451 44.3788C223.091 45.4079 221.504 46.1985 219.69 46.7504C217.899 47.3024 216.108 47.5795 214.316 47.582ZM219.146 43.6334L219.125 34.2085L224.429 34.2013L224.451 44.3788L219.146 43.6334Z" fill="#490606"/>
<path d="M48.7852 67.9531C48.3323 67.2331 47.9821 66.4021 47.7346 65.4602C47.487 64.5103 47.3621 63.489 47.3597 62.3962C47.3574 61.3035 47.4779 60.2818 47.7213 59.3313C47.9647 58.3728 48.3113 57.5409 48.7611 56.8355L49.842 56.834C49.3687 57.674 49.0222 58.5535 48.8025 59.4723C48.5827 60.3832 48.474 61.3574 48.4762 62.3947C48.4785 63.432 48.5915 64.4098 48.8152 65.328C49.0389 66.2383 49.3892 67.1129 49.8661 67.9516L48.7852 67.9531ZM51.4873 65.645L51.4693 57.3306L52.6571 57.329L52.6751 65.6434L51.4873 65.645ZM55.1643 65.6399L55.1463 57.3255L56.1203 57.3242L59.8635 63.6023L59.3409 63.603L63.0094 57.3146L63.9834 57.3133L64.0132 65.6277L62.873 65.6292L62.847 59.1084L63.1202 59.108L59.8538 64.6238L59.3075 64.6246L55.9935 59.1179L56.2905 59.1175L56.3046 65.6383L55.1643 65.6399ZM66.5085 65.6242L66.4905 57.3098L67.6783 57.3081L67.694 64.5892L72.1957 64.5829L72.1979 65.6163L66.5085 65.6242ZM76.7507 65.61L76.7327 57.2956L77.7067 57.2942L81.4499 63.5724L80.9273 63.5731L84.5958 57.2847L85.5698 57.2833L85.5996 65.5977L84.4594 65.5993L84.4334 59.0785L84.7066 59.0781L81.4403 64.5939L80.8939 64.5946L77.5799 59.088L77.8769 59.0875L77.891 65.6084L76.7507 65.61ZM91.8485 65.6841C91.215 65.685 90.6248 65.5789 90.078 65.3658C89.5391 65.1528 89.0712 64.8565 88.6745 64.477C88.2777 64.0895 87.9679 63.6386 87.7451 63.1242C87.5223 62.6098 87.4102 62.0477 87.4089 61.438C87.4076 60.8283 87.5172 60.2659 87.7378 59.7509C87.9584 59.2359 88.2663 58.7881 88.6614 58.4074C89.0564 58.0189 89.523 57.7173 90.061 57.5028C90.599 57.2882 91.1887 57.1805 91.8301 57.1796C92.4635 57.1788 93.0458 57.2848 93.5768 57.4979C94.1157 57.703 94.5835 57.9993 94.9803 58.3868C95.385 58.7663 95.6947 59.2133 95.9097 59.7277C96.1325 60.2421 96.2446 60.8081 96.2459 61.4257C96.2472 62.0434 96.1376 62.6097 95.917 63.1247C95.7043 63.6397 95.3965 64.0915 94.9935 64.4801C94.5984 64.8607 94.1318 65.1583 93.5938 65.3728C93.0637 65.5795 92.482 65.6832 91.8485 65.6841ZM91.8462 64.627C92.3055 64.6263 92.7289 64.5466 93.1166 64.3876C93.5122 64.2287 93.8522 64.0065 94.1366 63.7211C94.429 63.4277 94.6539 63.0869 94.8115 62.6987C94.9769 62.3104 95.0591 61.8867 95.0581 61.4274C95.0571 60.9681 94.9731 60.5446 94.806 60.1568C94.6467 59.769 94.4203 59.4328 94.1267 59.1482C93.841 58.8556 93.5001 58.6304 93.1038 58.4725C92.7154 58.3147 92.2916 58.2361 91.8324 58.2367C91.3652 58.2374 90.9338 58.3172 90.5382 58.4761C90.1505 58.635 89.8105 58.8612 89.5182 59.1545C89.2258 59.44 88.9969 59.7769 88.8315 60.1651C88.6739 60.5533 88.5957 60.9771 88.5966 61.4364C88.5976 61.8956 88.6777 62.3192 88.837 62.7069C89.0041 63.0947 89.2345 63.4349 89.5281 63.7275C89.8217 64.0121 90.1626 64.2334 90.551 64.3912C90.9473 64.549 91.379 64.6276 91.8462 64.627ZM101.824 65.6703C101.19 65.6711 100.6 65.565 100.053 65.352C99.5145 65.139 99.0467 64.8427 98.6499 64.4631C98.2532 64.0757 97.9434 63.6247 97.7205 63.1103C97.4977 62.596 97.3856 62.0339 97.3843 61.4242C97.383 60.8144 97.4926 60.2521 97.7132 59.7371C97.9339 59.2221 98.2417 58.7742 98.6368 58.3936C99.0319 58.005 99.4984 57.7035 100.036 57.489C100.574 57.2744 101.164 57.1667 101.806 57.1658C102.439 57.1649 103.021 57.271 103.552 57.4841C104.091 57.6892 104.559 57.9855 104.956 58.373C105.36 58.7525 105.67 59.1995 105.885 59.7139C106.108 60.2283 106.22 60.7943 106.221 61.4119C106.223 62.0296 106.113 62.5959 105.892 63.1109C105.68 63.6259 105.372 64.0777 104.969 64.4662C104.574 64.8469 104.107 65.1445 103.569 65.359C103.039 65.5656 102.457 65.6694 101.824 65.6703ZM104.547 67.3056C104.27 67.306 104.005 67.2707 103.751 67.1998C103.498 67.1368 103.244 67.0303 102.991 66.8802C102.737 66.738 102.475 66.5483 102.205 66.3111C101.936 66.0819 101.642 65.7972 101.325 65.4571L102.595 65.1228C102.833 65.4155 103.059 65.6527 103.273 65.8345C103.495 66.0243 103.714 66.1586 103.928 66.2375C104.142 66.3243 104.351 66.3675 104.557 66.3673C105.151 66.3664 105.657 66.1282 106.076 65.6525L106.636 66.3287C106.099 66.9788 105.403 67.3044 104.547 67.3056ZM101.822 64.6131C102.281 64.6125 102.704 64.5327 103.092 64.3738C103.488 64.2149 103.828 63.9888 104.112 63.6954C104.404 63.402 104.629 63.0612 104.787 62.6729C104.952 62.2847 105.035 61.8649 105.034 61.4136C105.033 60.9543 104.949 60.5308 104.781 60.143C104.622 59.7552 104.396 59.419 104.102 59.1343C103.816 58.8417 103.476 58.6165 103.079 58.4587C102.691 58.3009 102.267 58.2223 101.808 58.2229C101.341 58.2236 100.909 58.3033 100.514 58.4623C100.126 58.6212 99.786 58.8473 99.4936 59.1407C99.2013 59.4262 98.9723 59.763 98.8069 60.1513C98.6494 60.5395 98.5711 60.9632 98.5721 61.4225C98.5731 61.8739 98.6532 62.2934 98.8124 62.6812C98.9795 63.069 99.2099 63.4092 99.5035 63.7018C99.7971 63.9943 100.138 64.2195 100.526 64.3774C100.923 64.5352 101.354 64.6138 101.822 64.6131ZM110.659 62.7955L110.657 61.8096L113.852 61.8052L113.855 62.791L110.659 62.7955ZM120.98 65.6437C120.394 65.6445 119.824 65.5542 119.269 65.3729C118.722 65.1915 118.274 64.9467 117.925 64.6383L118.47 63.6992C118.747 63.9601 119.108 64.1734 119.552 64.3391C119.996 64.5048 120.467 64.5873 120.966 64.5866C121.599 64.5857 122.086 64.4504 122.426 64.1807C122.766 63.911 122.935 63.5505 122.934 63.0991C122.934 62.7903 122.858 62.5212 122.707 62.2918C122.556 62.0623 122.294 61.8885 121.922 61.7702C121.557 61.644 121.054 61.5814 120.413 61.5823L118.524 61.5849L118.954 57.237L123.646 57.2305L123.648 58.2639L119.396 58.2698L120.012 57.6869L119.675 61.1201L119.057 60.5508L120.66 60.5486C121.492 60.5474 122.161 60.6534 122.668 60.8665C123.175 61.0796 123.544 61.376 123.775 61.7558C124.005 62.1276 124.121 62.559 124.122 63.05C124.123 63.5251 124.009 63.9608 123.78 64.357C123.552 64.7453 123.204 65.0586 122.737 65.2968C122.278 65.5271 121.693 65.6427 120.98 65.6437ZM128.513 65.6332C127.864 65.6341 127.281 65.4687 126.766 65.1368C126.258 64.8049 125.854 64.3225 125.551 63.6894C125.257 63.0563 125.109 62.2884 125.107 61.3857C125.105 60.483 125.25 59.7147 125.541 59.0808C125.841 58.4469 126.244 57.9634 126.75 57.6301C127.264 57.2968 127.845 57.1297 128.495 57.1288C129.136 57.1279 129.714 57.2934 130.23 57.6253C130.745 57.9571 131.15 58.4396 131.445 59.0727C131.739 59.7057 131.887 60.4736 131.889 61.3763C131.891 62.279 131.746 63.0473 131.454 63.6812C131.163 64.3151 130.76 64.7987 130.246 65.132C129.732 65.4653 129.154 65.6324 128.513 65.6332ZM128.511 64.5761C128.946 64.5755 129.326 64.4562 129.65 64.2182C129.982 63.9802 130.239 63.6235 130.42 63.1482C130.609 62.6728 130.703 62.0827 130.701 61.378C130.7 60.6732 130.603 60.0834 130.412 59.6086C130.229 59.1337 129.971 58.7778 129.638 58.5407C129.313 58.3036 128.932 58.1853 128.497 58.1859C128.061 58.1865 127.678 58.3058 127.346 58.5438C127.013 58.7819 126.753 59.1386 126.564 59.6139C126.383 60.0893 126.293 60.6793 126.295 61.3841C126.296 62.0888 126.388 62.6786 126.572 63.1535C126.763 63.6283 127.025 63.9843 127.358 64.2214C127.691 64.4585 128.075 64.5767 128.511 64.5761ZM136.435 65.6223C135.786 65.6232 135.204 65.4577 134.688 65.1258C134.181 64.7939 133.776 64.3115 133.474 63.6784C133.179 63.0453 133.031 62.2775 133.029 61.3747C133.027 60.472 133.172 59.7037 133.464 59.0699C133.763 58.436 134.166 57.9524 134.672 57.6191C135.186 57.2858 135.768 57.1187 136.417 57.1178C137.058 57.1169 137.637 57.2824 138.152 57.6143C138.668 57.9461 139.073 58.4286 139.367 59.0617C139.661 59.6947 139.809 60.4626 139.811 61.3653C139.813 62.2681 139.668 63.0363 139.377 63.6702C139.085 64.3041 138.682 64.7877 138.168 65.121C137.654 65.4543 137.077 65.6214 136.435 65.6223ZM136.433 64.5651C136.869 64.5645 137.248 64.4452 137.573 64.2072C137.905 63.9692 138.161 63.6125 138.342 63.1372C138.531 62.6618 138.625 62.0717 138.624 61.367C138.622 60.6622 138.526 60.0725 138.335 59.5976C138.152 59.1227 137.893 58.7668 137.56 58.5297C137.235 58.2926 136.855 58.1743 136.419 58.1749C135.984 58.1755 135.6 58.2948 135.268 58.5329C134.936 58.7709 134.675 59.1276 134.486 59.6029C134.305 60.0783 134.215 60.6684 134.217 61.3731C134.218 62.0778 134.311 62.6676 134.494 63.1425C134.685 63.6173 134.947 63.9733 135.28 64.2104C135.613 64.4475 135.998 64.5658 136.433 64.5651ZM144.358 65.6113C143.708 65.6122 143.126 65.4467 142.611 65.1148C142.103 64.783 141.698 64.3005 141.396 63.6674C141.102 63.0344 140.953 62.2665 140.952 61.3638C140.95 60.4611 141.094 59.6928 141.386 59.0589C141.686 58.425 142.088 57.9414 142.594 57.6081C143.108 57.2748 143.69 57.1077 144.339 57.1068C144.981 57.1059 145.559 57.2714 146.075 57.6033C146.59 57.9352 146.995 58.4176 147.289 59.0507C147.584 59.6838 147.732 60.4517 147.734 61.3544C147.736 62.2571 147.591 63.0254 147.299 63.6592C147.008 64.2931 146.605 64.7767 146.091 65.11C145.577 65.4433 144.999 65.6104 144.358 65.6113ZM144.355 64.5542C144.791 64.5536 145.171 64.4343 145.495 64.1962C145.827 63.9582 146.084 63.6015 146.265 63.1262C146.454 62.6508 146.547 62.0608 146.546 61.356C146.544 60.6513 146.448 60.0615 146.257 59.5866C146.074 59.1118 145.816 58.7558 145.483 58.5187C145.157 58.2816 144.777 58.1633 144.342 58.1639C143.906 58.1645 143.522 58.2839 143.19 58.5219C142.858 58.7599 142.598 59.1166 142.409 59.592C142.228 60.0673 142.138 60.6574 142.139 61.3621C142.141 62.0669 142.233 62.6567 142.416 63.1315C142.607 63.6064 142.869 63.9623 143.203 64.1994C143.536 64.4365 143.92 64.5548 144.355 64.5542ZM152.75 65.5046L152.732 57.1902L155.974 57.1857C156.703 57.1847 157.325 57.2987 157.84 57.5276C158.355 57.7565 158.752 58.0885 159.03 58.5237C159.308 58.9588 159.448 59.4773 159.449 60.0791C159.45 60.6809 159.313 61.1997 159.037 61.6356C158.76 62.0636 158.365 62.3967 157.851 62.635C157.337 62.8654 156.715 62.981 155.987 62.982L153.398 62.9856L153.931 62.4266L153.937 65.503L152.75 65.5046ZM153.931 62.5454L153.395 61.9523L155.949 61.9487C156.709 61.9477 157.283 61.7846 157.67 61.4594C158.065 61.1342 158.262 60.6746 158.261 60.0807C158.26 59.4868 158.061 59.0278 157.664 58.7037C157.276 58.3796 156.701 58.2181 155.941 58.2191L153.387 58.2227L153.92 57.628L153.931 62.5454ZM163.76 65.5606C163.119 65.5615 162.544 65.4237 162.037 65.1473C161.537 64.8708 161.145 64.4913 160.859 64.0087C160.572 63.526 160.429 62.9719 160.427 62.3464C160.426 61.7208 160.567 61.1663 160.851 60.6829C161.135 60.1995 161.527 59.8228 162.025 59.5529C162.531 59.275 163.105 59.1357 163.746 59.1348C164.316 59.134 164.823 59.2481 165.267 59.4771C165.719 59.6982 166.068 60.0303 166.315 60.4734L165.449 61.0329C165.242 60.7243 164.988 60.499 164.687 60.3569C164.394 60.2068 164.077 60.132 163.736 60.1325C163.325 60.1331 162.957 60.2247 162.632 60.4072C162.308 60.5898 162.051 60.8475 161.862 61.1804C161.673 61.5053 161.579 61.8934 161.579 62.3448C161.58 62.7961 161.676 63.188 161.867 63.5203C162.058 63.8526 162.316 64.1096 162.641 64.2913C162.966 64.4729 163.334 64.5635 163.746 64.5629C164.087 64.5624 164.403 64.4907 164.696 64.3478C164.996 64.1969 165.249 63.9669 165.454 63.6578L166.323 64.203C166.078 64.6389 165.731 64.9759 165.28 65.2141C164.837 65.4443 164.33 65.5598 163.76 65.5606ZM169.607 65.5525C169.085 65.5532 168.586 65.4827 168.11 65.3408C167.643 65.1989 167.274 65.0252 167.005 64.8197L167.478 63.9163C167.747 64.0981 168.08 64.252 168.476 64.3782C168.873 64.5043 169.277 64.5671 169.688 64.5666C170.219 64.5658 170.599 64.4901 170.828 64.3393C171.065 64.1885 171.184 63.9785 171.183 63.7093C171.183 63.5113 171.111 63.357 170.968 63.2463C170.826 63.1357 170.635 63.0528 170.398 62.9977C170.168 62.9426 169.91 62.8954 169.625 62.8562C169.34 62.8091 169.055 62.7541 168.77 62.6911C168.485 62.6203 168.223 62.5256 167.985 62.4072C167.747 62.2808 167.557 62.1108 167.414 61.8972C167.271 61.6757 167.199 61.3828 167.198 61.0186C167.197 60.6385 167.304 60.3057 167.517 60.0204C167.73 59.735 168.03 59.5168 168.418 59.3659C168.814 59.2069 169.281 59.1271 169.819 59.1264C170.231 59.1258 170.647 59.1767 171.067 59.279C171.494 59.3735 171.843 59.5116 172.113 59.6933L171.628 60.5967C171.342 60.407 171.045 60.2768 170.736 60.206C170.427 60.1351 170.118 60.0999 169.809 60.1003C169.31 60.101 168.939 60.1847 168.693 60.3513C168.448 60.51 168.326 60.7161 168.327 60.9695C168.327 61.1833 168.399 61.3495 168.541 61.468C168.692 61.5787 168.882 61.6655 169.112 61.7286C169.35 61.7916 169.611 61.8466 169.896 61.8938C170.182 61.933 170.467 61.988 170.752 62.0589C171.037 62.1218 171.295 62.2125 171.525 62.331C171.762 62.4494 171.953 62.6155 172.096 62.8291C172.247 63.0426 172.323 63.3276 172.323 63.6839C172.324 64.064 172.214 64.3928 171.993 64.6703C171.772 64.9477 171.459 65.1659 171.056 65.3248C170.652 65.4758 170.17 65.5517 169.607 65.5525ZM174.137 67.7793L173.056 67.7808C173.538 66.9407 173.888 66.0652 174.108 65.1543C174.328 64.2355 174.436 63.2574 174.434 62.2201C174.432 61.1827 174.319 60.2089 174.095 59.2986C173.872 58.3804 173.517 57.5019 173.032 56.6632L174.113 56.6617C174.582 57.3658 174.936 58.1968 175.176 59.1546C175.423 60.1044 175.548 61.1258 175.551 62.2185C175.553 63.3113 175.432 64.3329 175.189 65.2835C174.954 66.2261 174.603 67.058 174.137 67.7793Z" fill="black"/>
<path d="M183.138 61.7617H222.229" stroke="url(#paint0_linear_2040_302)" stroke-width="0.863039"/>
<path d="M39.0918 61.7412H5.96046e-06" stroke="url(#paint1_linear_2040_302)" stroke-width="0.863039"/>
<defs>
<linearGradient id="paint0_linear_2040_302" x1="216.366" y1="62.2617" x2="183.789" y2="62.2617" gradientUnits="userSpaceOnUse">
<stop stop-color="#666666" stop-opacity="0"/>
<stop offset="1"/>
</linearGradient>
<linearGradient id="paint1_linear_2040_302" x1="5.86377" y1="62.2412" x2="38.4403" y2="62.2412" gradientUnits="userSpaceOnUse">
<stop stop-color="#666666" stop-opacity="0"/>
<stop offset="1"/>
</linearGradient>
</defs>
</svg>
