<svg width="237" height="12" viewBox="0 0 237 12" fill="none" xmlns="http://www.w3.org/2000/svg">
<path d="M-0.000109315 11.0176L-0.000109315 1.21758H2.26789L2.26789 11.0176H-0.000109315ZM4.59364 11.0176L4.59364 1.21758H6.46964L10.6416 8.13358H9.64764L13.7496 1.21758H15.6116L15.6396 11.0176H13.5116L13.4976 4.47958H13.8896L10.6136 9.98158H9.59164L6.24564 4.47958H6.72164V11.0176H4.59364ZM17.9647 11.0176V1.21758H20.2327V9.16958H25.1467V11.0176H17.9647ZM33.8088 11.1296C33.0061 11.1296 32.2921 10.9616 31.6668 10.6256C31.0508 10.2896 30.5608 9.83224 30.1968 9.25358C29.8421 8.66558 29.6648 7.99824 29.6648 7.25158C29.6648 6.49558 29.8421 5.82824 30.1968 5.24958C30.5608 4.66158 31.0508 4.20424 31.6668 3.87758C32.2921 3.54158 33.0061 3.37358 33.8088 3.37358C34.6021 3.37358 35.3115 3.54158 35.9368 3.87758C36.5621 4.20424 37.0521 4.65691 37.4068 5.23558C37.7615 5.81424 37.9388 6.48624 37.9388 7.25158C37.9388 7.99824 37.7615 8.66558 37.4068 9.25358C37.0521 9.83224 36.5621 10.2896 35.9368 10.6256C35.3115 10.9616 34.6021 11.1296 33.8088 11.1296ZM33.8088 9.33758C34.1728 9.33758 34.4995 9.25358 34.7888 9.08558C35.0781 8.91758 35.3068 8.67958 35.4748 8.37158C35.6428 8.05424 35.7268 7.68091 35.7268 7.25158C35.7268 6.81291 35.6428 6.43958 35.4748 6.13158C35.3068 5.82358 35.0781 5.58558 34.7888 5.41758C34.4995 5.24958 34.1728 5.16558 33.8088 5.16558C33.4448 5.16558 33.1181 5.24958 32.8288 5.41758C32.5395 5.58558 32.3061 5.82358 32.1288 6.13158C31.9608 6.43958 31.8768 6.81291 31.8768 7.25158C31.8768 7.68091 31.9608 8.05424 32.1288 8.37158C32.3061 8.67958 32.5395 8.91758 32.8288 9.08558C33.1181 9.25358 33.4448 9.33758 33.8088 9.33758ZM43.9766 3.37358C44.574 3.37358 45.106 3.49491 45.5726 3.73758C46.0486 3.97091 46.422 4.33491 46.6926 4.82958C46.9633 5.31491 47.0986 5.94024 47.0986 6.70558V11.0176H44.9146V7.04158C44.9146 6.43491 44.7793 5.98691 44.5086 5.69758C44.2473 5.40824 43.874 5.26358 43.3886 5.26358C43.0433 5.26358 42.7306 5.33824 42.4506 5.48758C42.18 5.62758 41.9653 5.84691 41.8066 6.14558C41.6573 6.44424 41.5826 6.82691 41.5826 7.29358V11.0176H39.3986V3.48558H41.4846V5.57158L41.0926 4.94158C41.3633 4.43758 41.7506 4.05024 42.2546 3.77958C42.7586 3.50891 43.3326 3.37358 43.9766 3.37358ZM53.1972 11.0176V1.21758L55.4652 1.21758V9.16958H60.3792V11.0176H53.1972ZM61.4924 11.0176V3.48558H63.6764V11.0176H61.4924ZM62.5844 2.43558C62.183 2.43558 61.8564 2.31891 61.6044 2.08558C61.3524 1.85224 61.2264 1.56291 61.2264 1.21758C61.2264 0.872244 61.3524 0.582911 61.6044 0.349578C61.8564 0.116244 62.183 -0.000422716 62.5844 -0.000422716C62.9857 -0.000422716 63.3124 0.111578 63.5644 0.335578C63.8164 0.550245 63.9424 0.830245 63.9424 1.17558C63.9424 1.53958 63.8164 1.84291 63.5644 2.08558C63.3217 2.31891 62.995 2.43558 62.5844 2.43558ZM68.9373 11.1296C68.228 11.1296 67.5886 10.9709 67.0193 10.6536C66.45 10.3269 65.9973 9.87424 65.6613 9.29558C65.3346 8.71691 65.1713 8.03558 65.1713 7.25158C65.1713 6.45824 65.3346 5.77224 65.6613 5.19358C65.9973 4.61491 66.45 4.16691 67.0193 3.84958C67.5886 3.53224 68.228 3.37358 68.9373 3.37358C69.572 3.37358 70.1273 3.51358 70.6033 3.79358C71.0793 4.07358 71.448 4.49824 71.7093 5.06758C71.9706 5.63691 72.1013 6.36491 72.1013 7.25158C72.1013 8.12891 71.9753 8.85691 71.7233 9.43558C71.4713 10.0049 71.1073 10.4296 70.6313 10.7096C70.1646 10.9896 69.6 11.1296 68.9373 11.1296ZM69.3153 9.33758C69.67 9.33758 69.992 9.25358 70.2813 9.08558C70.5706 8.91758 70.7993 8.67958 70.9673 8.37158C71.1446 8.05424 71.2333 7.68091 71.2333 7.25158C71.2333 6.81291 71.1446 6.43958 70.9673 6.13158C70.7993 5.82358 70.5706 5.58558 70.2813 5.41758C69.992 5.24958 69.67 5.16558 69.3153 5.16558C68.9513 5.16558 68.6246 5.24958 68.3353 5.41758C68.046 5.58558 67.8126 5.82358 67.6353 6.13158C67.4673 6.43958 67.3833 6.81291 67.3833 7.25158C67.3833 7.68091 67.4673 8.05424 67.6353 8.37158C67.8126 8.67958 68.046 8.91758 68.3353 9.08558C68.6246 9.25358 68.9513 9.33758 69.3153 9.33758ZM71.2893 11.0176V9.47758L71.3313 7.23758L71.1913 5.01158V0.629578H73.3753V11.0176H71.2893ZM83.9815 11.0176V9.54758L83.8415 9.22558V6.59358C83.8415 6.12691 83.6968 5.76291 83.4075 5.50158C83.1275 5.24024 82.6935 5.10958 82.1055 5.10958C81.7042 5.10958 81.3075 5.17491 80.9155 5.30558C80.5328 5.42691 80.2062 5.59491 79.9355 5.80958L79.1515 4.28358C79.5622 3.99424 80.0568 3.77024 80.6355 3.61158C81.2142 3.45291 81.8022 3.37358 82.3995 3.37358C83.5475 3.37358 84.4388 3.64424 85.0735 4.18558C85.7082 4.72691 86.0255 5.57158 86.0255 6.71958V11.0176H83.9815ZM81.6855 11.1296C81.0975 11.1296 80.5935 11.0316 80.1735 10.8356C79.7535 10.6302 79.4315 10.3549 79.2075 10.0096C78.9835 9.66424 78.8715 9.27691 78.8715 8.84758C78.8715 8.39958 78.9788 8.00758 79.1935 7.67158C79.4175 7.33558 79.7675 7.07424 80.2435 6.88758C80.7195 6.69158 81.3402 6.59358 82.1055 6.59358H84.1075V7.86758H82.3435C81.8302 7.86758 81.4755 7.95158 81.2795 8.11958C81.0928 8.28758 80.9995 8.49758 80.9995 8.74958C80.9995 9.02958 81.1068 9.25358 81.3215 9.42158C81.5455 9.58024 81.8488 9.65958 82.2315 9.65958C82.5955 9.65958 82.9222 9.57558 83.2115 9.40758C83.5008 9.23024 83.7108 8.97358 83.8415 8.63758L84.1775 9.64558C84.0188 10.1309 83.7295 10.4996 83.3095 10.7516C82.8895 11.0036 82.3482 11.1296 81.6855 11.1296ZM92.5801 3.37358C93.1775 3.37358 93.7095 3.49491 94.1761 3.73758C94.6521 3.97091 95.0255 4.33491 95.2961 4.82958C95.5668 5.31491 95.7021 5.94024 95.7021 6.70558V11.0176L93.5181 11.0176V7.04158C93.5181 6.43491 93.3828 5.98691 93.1121 5.69758C92.8508 5.40824 92.4775 5.26358 91.9921 5.26358C91.6468 5.26358 91.3341 5.33824 91.0541 5.48758C90.7835 5.62758 90.5688 5.84691 90.4101 6.14558C90.2608 6.44424 90.1861 6.82691 90.1861 7.29358V11.0176H88.0021V3.48558H90.0881V5.57158L89.6961 4.94158C89.9668 4.43758 90.3541 4.05024 90.8581 3.77958C91.3621 3.50891 91.9361 3.37358 92.5801 3.37358ZM100.971 11.1296C100.261 11.1296 99.6218 10.9709 99.0525 10.6536C98.4832 10.3269 98.0305 9.87424 97.6945 9.29558C97.3678 8.71691 97.2045 8.03558 97.2045 7.25158C97.2045 6.45824 97.3678 5.77224 97.6945 5.19358C98.0305 4.61491 98.4832 4.16691 99.0525 3.84958C99.6218 3.53224 100.261 3.37358 100.971 3.37358C101.605 3.37358 102.161 3.51358 102.637 3.79358C103.113 4.07358 103.481 4.49824 103.743 5.06758C104.004 5.63691 104.135 6.36491 104.135 7.25158C104.135 8.12891 104.009 8.85691 103.757 9.43558C103.505 10.0049 103.141 10.4296 102.665 10.7096C102.198 10.9896 101.633 11.1296 100.971 11.1296ZM101.349 9.33758C101.703 9.33758 102.025 9.25358 102.315 9.08558C102.604 8.91758 102.833 8.67958 103.001 8.37158C103.178 8.05424 103.267 7.68091 103.267 7.25158C103.267 6.81291 103.178 6.43958 103.001 6.13158C102.833 5.82358 102.604 5.58558 102.315 5.41758C102.025 5.24958 101.703 5.16558 101.349 5.16558C100.985 5.16558 100.658 5.24958 100.369 5.41758C100.079 5.58558 99.8458 5.82358 99.6685 6.13158C99.5005 6.43958 99.4165 6.81291 99.4165 7.25158C99.4165 7.68091 99.5005 8.05424 99.6685 8.37158C99.8458 8.67958 100.079 8.91758 100.369 9.08558C100.658 9.25358 100.985 9.33758 101.349 9.33758ZM103.323 11.0176V9.47758L103.365 7.23758L103.225 5.01158V0.629578H105.409V11.0176H103.323ZM111.549 11.0176V1.21758H116.337C117.569 1.21758 118.493 1.45091 119.109 1.91758C119.734 2.38424 120.047 3.00024 120.047 3.76558C120.047 4.27891 119.921 4.72691 119.669 5.10958C119.417 5.48291 119.071 5.77224 118.633 5.97758C118.194 6.18291 117.69 6.28558 117.121 6.28558L117.387 5.71158C118.003 5.71158 118.549 5.81424 119.025 6.01958C119.501 6.21558 119.869 6.50958 120.131 6.90158C120.401 7.29358 120.537 7.77424 120.537 8.34358C120.537 9.18358 120.205 9.84158 119.543 10.3176C118.88 10.7842 117.905 11.0176 116.617 11.0176H111.549ZM113.803 9.30958H116.449C117.037 9.30958 117.48 9.21624 117.779 9.02958C118.087 8.83358 118.241 8.52558 118.241 8.10558C118.241 7.69491 118.087 7.39158 117.779 7.19558C117.48 6.99024 117.037 6.88758 116.449 6.88758H113.635V5.23558H116.057C116.607 5.23558 117.027 5.14224 117.317 4.95558C117.615 4.75958 117.765 4.46558 117.765 4.07358C117.765 3.69091 117.615 3.40624 117.317 3.21958C117.027 3.02358 116.607 2.92558 116.057 2.92558H113.803V9.30958ZM125.684 11.1296C124.881 11.1296 124.167 10.9616 123.542 10.6256C122.926 10.2896 122.436 9.83224 122.072 9.25358C121.717 8.66558 121.54 7.99824 121.54 7.25158C121.54 6.49558 121.717 5.82824 122.072 5.24958C122.436 4.66158 122.926 4.20424 123.542 3.87758C124.167 3.54158 124.881 3.37358 125.684 3.37358C126.477 3.37358 127.186 3.54158 127.812 3.87758C128.437 4.20424 128.927 4.65691 129.282 5.23558C129.636 5.81424 129.814 6.48624 129.814 7.25158C129.814 7.99824 129.636 8.66558 129.282 9.25358C128.927 9.83224 128.437 10.2896 127.812 10.6256C127.186 10.9616 126.477 11.1296 125.684 11.1296ZM125.684 9.33758C126.048 9.33758 126.374 9.25358 126.664 9.08558C126.953 8.91758 127.182 8.67958 127.35 8.37158C127.518 8.05424 127.602 7.68091 127.602 7.25158C127.602 6.81291 127.518 6.43958 127.35 6.13158C127.182 5.82358 126.953 5.58558 126.664 5.41758C126.374 5.24958 126.048 5.16558 125.684 5.16558C125.32 5.16558 124.993 5.24958 124.704 5.41758C124.414 5.58558 124.181 5.82358 124.004 6.13158C123.836 6.43958 123.752 6.81291 123.752 7.25158C123.752 7.68091 123.836 8.05424 124.004 8.37158C124.181 8.67958 124.414 8.91758 124.704 9.08558C124.993 9.25358 125.32 9.33758 125.684 9.33758ZM134.354 11.1296C133.467 11.1296 132.776 10.9056 132.282 10.4576C131.787 10.0002 131.54 9.32358 131.54 8.42758V1.81958H133.724V8.39958C133.724 8.71691 133.808 8.96424 133.976 9.14158C134.144 9.30958 134.372 9.39358 134.662 9.39358C135.007 9.39358 135.301 9.30024 135.544 9.11358L136.132 10.6536C135.908 10.8122 135.637 10.9336 135.32 11.0176C135.012 11.0922 134.69 11.1296 134.354 11.1296ZM130.378 5.33358V3.65358H135.6V5.33358H130.378ZM140.274 11.1296C139.387 11.1296 138.696 10.9056 138.202 10.4576C137.707 10.0002 137.46 9.32358 137.46 8.42758V1.81958H139.644V8.39958C139.644 8.71691 139.728 8.96424 139.896 9.14158C140.064 9.30958 140.292 9.39358 140.582 9.39358C140.927 9.39358 141.221 9.30024 141.464 9.11358L142.052 10.6536C141.828 10.8122 141.557 10.9336 141.24 11.0176C140.932 11.0922 140.61 11.1296 140.274 11.1296ZM136.298 5.33358V3.65358H141.52V5.33358H136.298ZM146.629 11.1296C145.826 11.1296 145.112 10.9616 144.487 10.6256C143.871 10.2896 143.381 9.83224 143.017 9.25358C142.662 8.66558 142.485 7.99824 142.485 7.25158C142.485 6.49558 142.662 5.82824 143.017 5.24958C143.381 4.66158 143.871 4.20424 144.487 3.87758C145.112 3.54158 145.826 3.37358 146.629 3.37358C147.422 3.37358 148.132 3.54158 148.757 3.87758C149.382 4.20424 149.872 4.65691 150.227 5.23558C150.582 5.81424 150.759 6.48624 150.759 7.25158C150.759 7.99824 150.582 8.66558 150.227 9.25358C149.872 9.83224 149.382 10.2896 148.757 10.6256C148.132 10.9616 147.422 11.1296 146.629 11.1296ZM146.629 9.33758C146.993 9.33758 147.32 9.25358 147.609 9.08558C147.898 8.91758 148.127 8.67958 148.295 8.37158C148.463 8.05424 148.547 7.68091 148.547 7.25158C148.547 6.81291 148.463 6.43958 148.295 6.13158C148.127 5.82358 147.898 5.58558 147.609 5.41758C147.32 5.24958 146.993 5.16558 146.629 5.16558C146.265 5.16558 145.938 5.24958 145.649 5.41758C145.36 5.58558 145.126 5.82358 144.949 6.13158C144.781 6.43958 144.697 6.81291 144.697 7.25158C144.697 7.68091 144.781 8.05424 144.949 8.37158C145.126 8.67958 145.36 8.91758 145.649 9.08558C145.938 9.25358 146.265 9.33758 146.629 9.33758ZM161.865 3.37358C162.462 3.37358 162.99 3.49491 163.447 3.73758C163.914 3.97091 164.278 4.33491 164.539 4.82958C164.81 5.31491 164.945 5.94024 164.945 6.70558V11.0176H162.761V7.04158C162.761 6.43491 162.635 5.98691 162.383 5.69758C162.131 5.40824 161.776 5.26358 161.319 5.26358C161.002 5.26358 160.717 5.33824 160.465 5.48758C160.213 5.62758 160.017 5.84224 159.877 6.13158C159.737 6.42091 159.667 6.78958 159.667 7.23758V11.0176L157.483 11.0176V7.04158C157.483 6.43491 157.357 5.98691 157.105 5.69758C156.862 5.40824 156.512 5.26358 156.055 5.26358C155.738 5.26358 155.453 5.33824 155.201 5.48758C154.949 5.62758 154.753 5.84224 154.613 6.13158C154.473 6.42091 154.403 6.78958 154.403 7.23758V11.0176H152.219V3.48558H154.305V5.54358L153.913 4.94158C154.174 4.42824 154.543 4.04091 155.019 3.77958C155.504 3.50891 156.055 3.37358 156.671 3.37358C157.362 3.37358 157.964 3.55091 158.477 3.90558C159 4.25091 159.345 4.78291 159.513 5.50158L158.743 5.29158C158.995 4.70358 159.396 4.23691 159.947 3.89158C160.507 3.54624 161.146 3.37358 161.865 3.37358ZM169.733 11.0176L174.101 1.21758H176.341L180.723 11.0176H178.343L174.759 2.36558L175.655 2.36558L172.057 11.0176H169.733ZM171.917 8.91758L172.519 7.19558L177.559 7.19558L178.175 8.91758L171.917 8.91758ZM183.234 11.0176L180.07 3.48558H182.324L184.956 9.96758H183.836L186.566 3.48558H188.666L185.488 11.0176H183.234ZM193.931 11.0176V9.54758L193.791 9.22558V6.59358C193.791 6.12691 193.646 5.76291 193.357 5.50158C193.077 5.24024 192.643 5.10958 192.055 5.10958C191.653 5.10958 191.257 5.17491 190.865 5.30558C190.482 5.42691 190.155 5.59491 189.885 5.80958L189.101 4.28358C189.511 3.99424 190.006 3.77024 190.585 3.61158C191.163 3.45291 191.751 3.37358 192.349 3.37358C193.497 3.37358 194.388 3.64424 195.023 4.18558C195.657 4.72691 195.975 5.57158 195.975 6.71958V11.0176H193.931ZM191.635 11.1296C191.047 11.1296 190.543 11.0316 190.123 10.8356C189.703 10.6302 189.381 10.3549 189.157 10.0096C188.933 9.66424 188.821 9.27691 188.821 8.84758C188.821 8.39958 188.928 8.00758 189.143 7.67158C189.367 7.33558 189.717 7.07424 190.193 6.88758C190.669 6.69158 191.289 6.59358 192.055 6.59358H194.057V7.86758H192.293C191.779 7.86758 191.425 7.95158 191.229 8.11958C191.042 8.28758 190.949 8.49758 190.949 8.74958C190.949 9.02958 191.056 9.25358 191.271 9.42158C191.495 9.58024 191.798 9.65958 192.181 9.65958C192.545 9.65958 192.871 9.57558 193.161 9.40758C193.45 9.23024 193.66 8.97358 193.791 8.63758L194.127 9.64558C193.968 10.1309 193.679 10.4996 193.259 10.7516C192.839 11.0036 192.297 11.1296 191.635 11.1296ZM197.951 11.0176V3.48558H200.135V11.0176H197.951ZM199.043 2.43558C198.642 2.43558 198.315 2.31891 198.063 2.08558C197.811 1.85224 197.685 1.56291 197.685 1.21758C197.685 0.872244 197.811 0.582911 198.063 0.349578C198.315 0.116244 198.642 -0.000422716 199.043 -0.000422716C199.445 -0.000422716 199.771 0.111578 200.023 0.335578C200.275 0.550245 200.401 0.830245 200.401 1.17558C200.401 1.53958 200.275 1.84291 200.023 2.08558C199.781 2.31891 199.454 2.43558 199.043 2.43558ZM202.162 11.0176V0.629578H204.346V11.0176H202.162ZM210.993 11.0176V9.54758L210.853 9.22558V6.59358C210.853 6.12691 210.709 5.76291 210.419 5.50158C210.139 5.24024 209.705 5.10958 209.117 5.10958C208.716 5.10958 208.319 5.17491 207.927 5.30558C207.545 5.42691 207.218 5.59491 206.947 5.80958L206.163 4.28358C206.574 3.99424 207.069 3.77024 207.647 3.61158C208.226 3.45291 208.814 3.37358 209.411 3.37358C210.559 3.37358 211.451 3.64424 212.085 4.18558C212.72 4.72691 213.037 5.57158 213.037 6.71958V11.0176H210.993ZM208.697 11.1296C208.109 11.1296 207.605 11.0316 207.185 10.8356C206.765 10.6302 206.443 10.3549 206.219 10.0096C205.995 9.66424 205.883 9.27691 205.883 8.84758C205.883 8.39958 205.991 8.00758 206.205 7.67158C206.429 7.33558 206.779 7.07424 207.255 6.88758C207.731 6.69158 208.352 6.59358 209.117 6.59358H211.119V7.86758H209.355C208.842 7.86758 208.487 7.95158 208.291 8.11958C208.105 8.28758 208.011 8.49758 208.011 8.74958C208.011 9.02958 208.119 9.25358 208.333 9.42158C208.557 9.58024 208.861 9.65958 209.243 9.65958C209.607 9.65958 209.934 9.57558 210.223 9.40758C210.513 9.23024 210.723 8.97358 210.853 8.63758L211.189 9.64558C211.031 10.1309 210.741 10.4996 210.321 10.7516C209.901 11.0036 209.36 11.1296 208.697 11.1296ZM219.466 11.1296C218.803 11.1296 218.234 10.9896 217.758 10.7096C217.282 10.4296 216.918 10.0049 216.666 9.43558C216.414 8.85691 216.288 8.12891 216.288 7.25158C216.288 6.36491 216.419 5.63691 216.68 5.06758C216.951 4.49824 217.324 4.07358 217.8 3.79358C218.276 3.51358 218.831 3.37358 219.466 3.37358C220.175 3.37358 220.81 3.53224 221.37 3.84958C221.939 4.16691 222.387 4.61491 222.714 5.19358C223.05 5.77224 223.218 6.45824 223.218 7.25158C223.218 8.03558 223.05 8.71691 222.714 9.29558C222.387 9.87424 221.939 10.3269 221.37 10.6536C220.81 10.9709 220.175 11.1296 219.466 11.1296ZM215.014 11.0176V0.629578H217.198V5.01158L217.058 7.23758L217.1 9.47758V11.0176H215.014ZM219.088 9.33758C219.452 9.33758 219.774 9.25358 220.054 9.08558C220.343 8.91758 220.572 8.67958 220.74 8.37158C220.917 8.05424 221.006 7.68091 221.006 7.25158C221.006 6.81291 220.917 6.43958 220.74 6.13158C220.572 5.82358 220.343 5.58558 220.054 5.41758C219.774 5.24958 219.452 5.16558 219.088 5.16558C218.724 5.16558 218.397 5.24958 218.108 5.41758C217.819 5.58558 217.59 5.82358 217.422 6.13158C217.254 6.43958 217.17 6.81291 217.17 7.25158C217.17 7.68091 217.254 8.05424 217.422 8.37158C217.59 8.67958 217.819 8.91758 218.108 9.08558C218.397 9.25358 218.724 9.33758 219.088 9.33758ZM224.68 11.0176V0.629578H226.864V11.0176H224.68ZM232.629 11.1296C231.77 11.1296 231.014 10.9616 230.361 10.6256C229.717 10.2896 229.217 9.83224 228.863 9.25358C228.508 8.66558 228.331 7.99824 228.331 7.25158C228.331 6.49558 228.503 5.82824 228.849 5.24958C229.203 4.66158 229.684 4.20424 230.291 3.87758C230.897 3.54158 231.583 3.37358 232.349 3.37358C233.086 3.37358 233.749 3.53224 234.337 3.84958C234.934 4.15758 235.405 4.60558 235.751 5.19358C236.096 5.77224 236.269 6.46758 236.269 7.27958C236.269 7.36358 236.264 7.46158 236.255 7.57358C236.245 7.67624 236.236 7.77424 236.227 7.86758H230.109V6.59358H235.079L234.239 6.97158C234.239 6.57958 234.159 6.23891 234.001 5.94958C233.842 5.66024 233.623 5.43624 233.343 5.27758C233.063 5.10958 232.736 5.02558 232.363 5.02558C231.989 5.02558 231.658 5.10958 231.369 5.27758C231.089 5.43624 230.869 5.66491 230.711 5.96358C230.552 6.25291 230.473 6.59824 230.473 6.99958V7.33558C230.473 7.74624 230.561 8.11024 230.739 8.42758C230.925 8.73558 231.182 8.97358 231.509 9.14158C231.845 9.30024 232.237 9.37958 232.685 9.37958C233.086 9.37958 233.436 9.31891 233.735 9.19758C234.043 9.07624 234.323 8.89424 234.575 8.65158L235.737 9.91158C235.391 10.3036 234.957 10.6069 234.435 10.8216C233.912 11.0269 233.31 11.1296 232.629 11.1296Z" fill="#F6F4F3"/>
</svg>
