<svg width="123" height="14" viewBox="0 0 123 14" fill="none" xmlns="http://www.w3.org/2000/svg">
<path d="M-0.000140548 12.816V0.216039H6.15586C7.73986 0.216039 8.92786 0.516039 9.71986 1.11604C10.5239 1.71604 10.9259 2.50804 10.9259 3.49204C10.9259 4.15204 10.7639 4.72804 10.4399 5.22004C10.1159 5.70004 9.67186 6.07204 9.10786 6.33604C8.54386 6.60004 7.89586 6.73204 7.16386 6.73204L7.50586 5.99404C8.29786 5.99404 8.99986 6.12604 9.61186 6.39004C10.2239 6.64204 10.6979 7.02004 11.0339 7.52404C11.3819 8.02804 11.5559 8.64604 11.5559 9.37804C11.5559 10.458 11.1299 11.304 10.2779 11.916C9.42586 12.516 8.17186 12.816 6.51586 12.816H-0.000140548ZM2.89786 10.62H6.29986C7.05586 10.62 7.62586 10.5 8.00986 10.26C8.40586 10.008 8.60386 9.61204 8.60386 9.07204C8.60386 8.54404 8.40586 8.15404 8.00986 7.90204C7.62586 7.63804 7.05586 7.50604 6.29986 7.50604H2.68186V5.38204H5.79586C6.50386 5.38204 7.04386 5.26204 7.41586 5.02204C7.79986 4.77004 7.99186 4.39204 7.99186 3.88804C7.99186 3.39604 7.79986 3.03004 7.41586 2.79004C7.04386 2.53804 6.50386 2.41204 5.79586 2.41204H2.89786V10.62ZM16.1978 12.816V2.59204H12.1658V0.216039H23.1458V2.59204H19.1138V12.816H16.1978ZM23.4887 8.87404V6.62404H28.5827V8.87404H23.4887ZM31.7554 12.816V1.29604L33.0154 2.55604H29.2354V0.216039H34.6714V12.816H31.7554ZM36.7162 10.17V8.20804L42.6562 0.216039H45.7162L39.9022 8.20804L38.4802 7.79404H48.3982V10.17H36.7162ZM43.5022 12.816V10.17L43.5922 7.79404V5.43604H46.3462V12.816H43.5022ZM49.6801 8.87404V6.62404H54.7741V8.87404H49.6801ZM58.2297 12.816L63.3057 1.33204L64.0617 2.59204H57.2757L58.5717 1.22404V4.64404H55.9797V0.216039H66.0777V2.10604L61.3977 12.816H58.2297ZM71.361 13.032C70.485 13.032 69.615 12.918 68.751 12.69C67.899 12.45 67.167 12.114 66.555 11.682L67.707 9.45004C68.187 9.79804 68.739 10.074 69.363 10.278C69.999 10.482 70.641 10.584 71.289 10.584C72.021 10.584 72.597 10.44 73.017 10.152C73.437 9.86404 73.647 9.46204 73.647 8.94604C73.647 8.62204 73.563 8.33404 73.395 8.08204C73.227 7.83004 72.927 7.63804 72.495 7.50604C72.075 7.37404 71.481 7.30804 70.713 7.30804H67.491L68.139 0.216039H75.825V2.55604H69.183L70.695 1.22404L70.245 6.28204L68.733 4.95004H71.397C72.645 4.95004 73.647 5.12404 74.403 5.47204C75.171 5.80804 75.729 6.27004 76.077 6.85804C76.425 7.44604 76.599 8.11204 76.599 8.85604C76.599 9.60004 76.413 10.29 76.041 10.926C75.669 11.55 75.093 12.06 74.313 12.456C73.545 12.84 72.561 13.032 71.361 13.032ZM83.1821 13.032C82.1501 13.032 81.2261 12.78 80.4101 12.276C79.5941 11.76 78.9521 11.016 78.4841 10.044C78.0161 9.07204 77.7821 7.89604 77.7821 6.51604C77.7821 5.13604 78.0161 3.96004 78.4841 2.98804C78.9521 2.01604 79.5941 1.27804 80.4101 0.77404C81.2261 0.25804 82.1501 3.98159e-05 83.1821 3.98159e-05C84.2261 3.98159e-05 85.1501 0.25804 85.9541 0.77404C86.7701 1.27804 87.4121 2.01604 87.8801 2.98804C88.3481 3.96004 88.5821 5.13604 88.5821 6.51604C88.5821 7.89604 88.3481 9.07204 87.8801 10.044C87.4121 11.016 86.7701 11.76 85.9541 12.276C85.1501 12.78 84.2261 13.032 83.1821 13.032ZM83.1821 10.566C83.6741 10.566 84.1001 10.428 84.4601 10.152C84.8321 9.87604 85.1201 9.43804 85.3241 8.83804C85.5401 8.23804 85.6481 7.46404 85.6481 6.51604C85.6481 5.56804 85.5401 4.79404 85.3241 4.19404C85.1201 3.59404 84.8321 3.15604 84.4601 2.88004C84.1001 2.60404 83.6741 2.46604 83.1821 2.46604C82.7021 2.46604 82.2761 2.60404 81.9041 2.88004C81.5441 3.15604 81.2561 3.59404 81.0401 4.19404C80.8361 4.79404 80.7341 5.56804 80.7341 6.51604C80.7341 7.46404 80.8361 8.23804 81.0401 8.83804C81.2561 9.43804 81.5441 9.87604 81.9041 10.152C82.2761 10.428 82.7021 10.566 83.1821 10.566ZM95.8885 12.816V0.216039H98.3005L103.665 9.10804H102.387L107.661 0.216039H110.055L110.091 12.816H107.355L107.337 4.41004H107.841L103.629 11.484H102.315L98.0125 4.41004H98.6245V12.816H95.8885ZM113.08 12.816V0.216039H115.996V10.44H122.314V12.816H113.08Z" fill="#1B622D"/>
</svg>
