<svg width="333" height="76" viewBox="0 0 333 76" fill="none" xmlns="http://www.w3.org/2000/svg">
<path d="M20.056 46.7647C18.0492 46.7677 16.1254 46.5078 14.2848 45.985C12.4441 45.4382 10.9615 44.7357 9.83686 43.8773L11.7991 39.5023C12.8757 40.2652 14.1432 40.8964 15.6015 41.3959C17.0837 41.8715 18.5774 42.1082 20.0825 42.106C21.2293 42.1043 22.1488 41.9954 22.8412 41.7793C23.5575 41.5393 24.0824 41.216 24.4161 40.8094C24.7497 40.4027 24.916 39.9366 24.915 39.411C24.9136 38.7421 24.6498 38.2169 24.1234 37.8354C23.597 37.4301 22.9035 37.1086 22.043 36.8709C21.1824 36.6094 20.2263 36.372 19.1747 36.1585C18.1469 35.9211 17.107 35.636 16.0552 35.3031C15.0272 34.9702 14.0826 34.5415 13.2215 34.0172C12.3604 33.4929 11.6542 32.8011 11.103 31.9419C10.5757 31.0826 10.3107 29.984 10.308 28.6461C10.3051 27.2127 10.6848 25.9101 11.4469 24.7383C12.2329 23.5426 13.4017 22.5971 14.9532 21.902C16.5285 21.1829 18.4988 20.8216 20.864 20.818C22.4408 20.8157 23.9941 21.0045 25.5239 21.3845C27.0536 21.7405 28.4045 22.288 29.5767 23.0269L27.7937 27.4374C26.6217 26.7702 25.4501 26.2822 24.2788 25.9734C23.1075 25.6406 21.9604 25.4751 20.8375 25.4768C19.7147 25.4785 18.7951 25.6113 18.0789 25.8751C17.3627 26.139 16.8498 26.4862 16.5401 26.9167C16.2303 27.3233 16.076 27.8013 16.0771 28.3508C16.0784 28.9959 16.3422 29.5211 16.8686 29.9264C17.395 30.3079 18.0884 30.6174 18.949 30.8551C19.8095 31.0927 20.7537 31.3302 21.7815 31.5676C22.8332 31.8049 23.873 32.0781 24.9009 32.3871C25.9527 32.6961 26.9092 33.1128 27.7703 33.6371C28.6314 34.1614 29.3257 34.8532 29.853 35.7125C30.4042 36.5717 30.6811 37.6584 30.6838 38.9724C30.6866 40.3819 30.295 41.6726 29.5089 42.8444C28.7229 44.0163 27.5422 44.9617 25.9668 45.6808C24.4154 46.3999 22.4451 46.7612 20.056 46.7647ZM36.0989 46.3107L36.0485 21.2254L48.3045 21.207C51.4581 21.2023 53.8245 21.7961 55.4037 22.9882C57.0067 24.1804 57.8103 25.756 57.8142 27.715C57.8168 29.029 57.4966 30.1763 56.8535 31.1568C56.2104 32.1134 55.3279 32.8553 54.2061 33.3826C53.0843 33.9098 51.7947 34.1746 50.3374 34.1767L51.0153 32.7064C52.5921 32.7041 53.9902 32.9648 55.2097 33.4886C56.4292 33.9885 57.3744 34.7396 58.0453 35.742C58.7402 36.7444 59.089 37.9743 59.092 39.4316C59.0963 41.5818 58.2515 43.2673 56.5577 44.4883C54.8639 45.6854 52.3685 46.2864 49.0716 46.2913L36.0989 46.3107ZM41.8597 41.9301L48.6328 41.9199C50.1379 41.9177 51.2722 41.6771 52.0358 41.1981C52.8231 40.6952 53.2158 39.9063 53.2136 38.8312C53.2115 37.78 52.8157 37.0041 52.0263 36.5036C51.2608 35.9791 50.1254 35.718 48.6203 35.7203L41.4172 35.731L41.4087 31.5024L47.6084 31.4931C49.018 31.491 50.0926 31.2505 50.8322 30.7716C51.5957 30.2687 51.9765 29.5156 51.9745 28.5122C51.9725 27.5326 51.5888 26.8045 50.8233 26.3279C50.0817 25.8273 49.0061 25.578 47.5965 25.5801L41.8269 25.5888L41.8597 41.9301ZM63.8077 38.4211L63.7987 33.9416L73.9404 33.9264L73.9494 38.406L63.8077 38.4211ZM81.715 46.2425L81.669 23.3073L84.1825 25.8121L76.6569 25.8234L76.6476 21.1647L87.4701 21.1485L87.5205 46.2338L81.715 46.2425ZM104.529 46.6384C102.236 46.6419 100.24 46.167 98.5417 45.2139C96.8674 44.2608 95.5745 42.8651 94.663 41.0269C93.7515 39.1886 93.293 36.9197 93.2876 34.22C93.2818 31.3293 93.8144 28.8796 94.8854 26.8712C95.9804 24.8627 97.4824 23.3315 99.3916 22.2774C101.325 21.2233 103.545 20.6944 106.054 20.6907C107.392 20.6887 108.67 20.8301 109.889 21.115C111.108 21.3998 112.16 21.8283 113.045 22.4004L110.904 26.6681C110.21 26.1913 109.469 25.8699 108.68 25.7038C107.891 25.5139 107.067 25.4195 106.207 25.4208C104.033 25.4241 102.314 26.0836 101.05 27.3995C99.7868 28.7154 99.1576 30.6635 99.1628 33.2437C99.1636 33.6737 99.1646 34.1515 99.1656 34.6771C99.1906 35.2027 99.2633 35.7282 99.3838 36.2536L97.7682 34.7509C98.2202 33.8185 98.804 33.0411 99.5195 32.4189C100.235 31.7728 101.082 31.2937 102.061 30.9817C103.064 30.6457 104.162 30.4768 105.357 30.475C106.981 30.4726 108.439 30.7929 109.731 31.4361C111.022 32.0792 112.051 32.9855 112.818 34.155C113.609 35.3245 114.006 36.6976 114.009 38.2744C114.012 39.9706 113.585 41.4525 112.728 42.72C111.894 43.9636 110.761 44.9329 109.329 45.6278C107.921 46.2989 106.321 46.6357 104.529 46.6384ZM104.198 42.3027C105.01 42.3015 105.727 42.1571 106.347 41.8695C106.992 41.5579 107.493 41.1152 107.85 40.5413C108.207 39.9674 108.385 39.3101 108.383 38.5695C108.381 37.4227 107.985 36.5155 107.195 35.8477C106.429 35.156 105.401 34.8111 104.111 34.8131C103.251 34.8144 102.499 34.9827 101.855 35.3182C101.21 35.6297 100.697 36.0724 100.316 36.6464C99.9591 37.1964 99.7812 37.8417 99.7827 38.5824C99.7841 39.2991 99.9646 39.9439 100.324 40.5167C100.684 41.0657 101.186 41.5069 101.832 41.8404C102.478 42.15 103.266 42.3041 104.198 42.3027ZM118.188 38.3398L118.179 33.8603L128.32 33.8451L128.329 38.3247L118.188 38.3398ZM141.525 46.5831C139.781 46.5857 138.048 46.3613 136.327 45.91C134.63 45.4347 133.171 44.7679 131.951 43.9097L134.235 39.4626C135.193 40.154 136.293 40.7018 137.536 41.1061C138.803 41.5104 140.081 41.7115 141.371 41.7096C142.829 41.7074 143.975 41.419 144.81 40.8444C145.645 40.2698 146.061 39.4688 146.059 38.4415C146.058 37.7964 145.89 37.2233 145.554 36.7221C145.219 36.2209 144.621 35.8395 143.76 35.578C142.923 35.3165 141.741 35.1868 140.212 35.1891L133.797 35.1987L135.059 21.0773L150.361 21.0544L150.37 25.7132L137.147 25.7329L140.151 23.0765L139.276 33.1479L136.26 30.5005L141.564 30.4925C144.049 30.4888 146.044 30.8323 147.551 31.5228C149.081 32.1895 150.194 33.1076 150.889 34.2773C151.584 35.4469 151.933 36.7723 151.936 38.2535C151.939 39.7347 151.572 41.109 150.834 42.3763C150.095 43.6198 148.951 44.6368 147.399 45.4276C145.872 46.1944 143.914 46.5795 141.525 46.5831ZM166.493 46.5458C164.438 46.5488 162.597 46.0499 160.971 45.0489C159.344 44.024 158.063 42.5447 157.127 40.6109C156.192 38.6772 155.721 36.3366 155.716 33.5891C155.71 30.8417 156.171 28.4997 157.099 26.5632C158.027 24.6266 159.302 23.1554 160.925 22.1496C162.547 21.1198 164.386 20.6034 166.441 20.6004C168.519 20.5973 170.36 21.1082 171.962 22.1331C173.589 23.1341 174.87 24.6014 175.806 26.5352C176.741 28.469 177.212 30.8096 177.217 33.557C177.223 36.3044 176.762 38.6464 175.834 40.583C174.906 42.5195 173.631 44.0027 172.008 45.0324C170.41 46.0382 168.571 46.5427 166.493 46.5458ZM166.483 41.6362C167.462 41.6347 168.31 41.3587 169.025 40.8082C169.765 40.2576 170.337 39.3847 170.74 38.1896C171.168 36.9944 171.38 35.4531 171.376 33.5657C171.372 31.6784 171.154 30.1377 170.722 28.9438C170.313 27.7499 169.738 26.8787 168.996 26.3304C168.279 25.7819 167.43 25.5085 166.45 25.5099C165.495 25.5114 164.647 25.7874 163.908 26.338C163.192 26.8885 162.62 27.7614 162.193 28.9566C161.789 30.1517 161.589 31.693 161.593 33.5804C161.597 35.4677 161.803 37.0084 162.211 38.2023C162.644 39.3962 163.219 40.2674 163.937 40.8158C164.678 41.3642 165.527 41.6376 166.483 41.6362ZM192.248 46.5073C190.194 46.5103 188.353 46.0114 186.727 45.0104C185.1 43.9855 183.819 42.5062 182.883 40.5724C181.948 38.6387 181.477 36.2981 181.472 33.5506C181.466 30.8032 181.927 28.4612 182.855 26.5247C183.783 24.5881 185.058 23.1169 186.681 22.1111C188.303 21.0813 190.142 20.5649 192.196 20.5619C194.275 20.5588 196.116 21.0697 197.718 22.0946C199.345 23.0955 200.626 24.5629 201.562 26.4967C202.497 28.4304 202.968 30.771 202.973 33.5185C202.979 36.2659 202.518 38.6079 201.59 40.5445C200.662 42.481 199.387 43.9642 197.764 44.9939C196.166 45.9997 194.327 46.5042 192.248 46.5073ZM192.239 41.5977C193.218 41.5962 194.066 41.3202 194.781 40.7697C195.521 40.2191 196.092 39.3462 196.496 38.1511C196.924 36.9559 197.136 35.4146 197.132 33.5272C197.128 31.6398 196.91 30.0992 196.478 28.9053C196.069 27.7114 195.494 26.8402 194.752 26.2918C194.034 25.7434 193.186 25.47 192.206 25.4714C191.251 25.4728 190.403 25.7489 189.664 26.2995C188.948 26.85 188.376 27.7229 187.949 28.9181C187.545 30.1132 187.345 31.6545 187.349 33.5418C187.352 35.4292 187.559 36.9699 187.967 38.1638C188.4 39.3577 188.975 40.2289 189.693 40.7773C190.434 41.3257 191.283 41.5991 192.239 41.5977ZM229.099 53.2611C227.283 53.2638 225.527 53.0394 223.829 52.588C222.156 52.1605 220.757 51.5056 219.633 50.6233L221.846 46.6063C222.66 47.2741 223.688 47.7981 224.931 48.1785C226.199 48.5828 227.441 48.784 228.66 48.7822C230.643 48.7792 232.075 48.3351 232.957 47.4498C233.863 46.5645 234.315 45.2498 234.311 43.5058L234.305 40.6031L234.654 35.7646L234.573 30.891L234.564 26.734L239.868 26.7261L239.9 42.7807C239.907 46.3643 238.981 49.0057 237.121 50.7047C235.261 52.4037 232.587 53.2558 229.099 53.2611ZM228.222 45.0917C226.43 45.0944 224.805 44.7145 223.346 43.9522C221.911 43.166 220.75 42.0807 219.864 40.6963C219.001 39.2881 218.567 37.6522 218.564 35.7887C218.56 33.9013 218.987 32.2642 219.844 30.8772C220.725 29.4663 221.881 28.3776 223.313 27.6109C224.769 26.8442 226.393 26.4596 228.185 26.4569C229.809 26.4544 231.244 26.7868 232.487 27.4539C233.731 28.097 234.7 29.111 235.396 30.4956C236.092 31.8563 236.442 33.6118 236.446 35.762C236.45 37.8882 236.107 39.6447 235.417 41.0314C234.727 42.3942 233.762 43.411 232.521 44.0818C231.28 44.7526 229.847 45.0893 228.222 45.0917ZM229.324 40.503C230.303 40.5015 231.175 40.3091 231.939 39.9257C232.703 39.5184 233.299 38.9561 233.727 38.2387C234.156 37.5214 234.369 36.6968 234.367 35.7651C234.365 34.8094 234.149 33.9855 233.717 33.2933C233.286 32.5773 232.688 32.0287 231.922 31.6475C231.157 31.2425 230.284 31.0408 229.305 31.0422C228.325 31.0437 227.454 31.2481 226.69 31.6554C225.926 32.0388 225.318 32.5892 224.866 33.3066C224.437 34 224.224 34.8246 224.226 35.7802C224.228 36.712 224.444 37.5359 224.876 38.252C225.331 38.968 225.941 39.5285 226.707 39.9335C227.472 40.3146 228.344 40.5045 229.324 40.503Z" fill="#490606"/>
<path d="M44.9987 68.2477C44.5459 67.5278 44.1958 66.6969 43.9484 65.7549C43.701 64.8051 43.5762 63.7838 43.574 62.691C43.5719 61.5983 43.6925 60.5766 43.9361 59.626C44.1797 58.6675 44.5264 57.8356 44.9763 57.1301L46.0572 57.1285C45.5838 57.9686 45.2371 58.8481 45.0173 59.767C44.7974 60.6779 44.6885 61.652 44.6906 62.6894C44.6926 63.7267 44.8055 64.7045 45.029 65.6227C45.2526 66.533 45.6027 67.4074 46.0795 68.2461L44.9987 68.2477ZM47.7011 65.9394L47.6844 57.625L48.8722 57.6232L48.8889 65.9376L47.7011 65.9394ZM51.3781 65.9339L51.3614 57.6195L52.3354 57.618L56.0776 63.8958L55.555 63.8965L59.2245 57.6077L60.1985 57.6063L60.227 65.9206L59.0868 65.9224L59.0618 59.4015L59.335 59.4011L56.0678 64.9173L55.5214 64.9181L52.2084 59.4117L52.5053 59.4113L52.5184 65.9322L51.3781 65.9339ZM62.7223 65.9169L62.7056 57.6025L63.8934 57.6007L63.908 64.8818L68.4097 64.875L68.4117 65.9084L62.7223 65.9169ZM72.9645 65.9016L72.9478 57.5872L73.9218 57.5857L77.664 63.8635L77.1414 63.8643L80.8109 57.5754L81.7849 57.574L81.8134 65.8884L80.6732 65.8901L80.6482 59.3692L80.9214 59.3688L77.6542 64.885L77.1078 64.8858L73.7948 59.3795L74.0917 59.379L74.1048 65.8999L72.9645 65.9016ZM88.0623 65.9741C87.4288 65.975 86.8386 65.869 86.2918 65.656C85.7529 65.443 85.2852 65.1468 84.8885 64.7673C84.4918 64.3799 84.182 63.929 83.9593 63.4146C83.7365 62.9002 83.6246 62.3382 83.6233 61.7284C83.6221 61.1187 83.7318 60.5563 83.9525 60.0413C84.1732 59.5263 84.4811 59.0784 84.8763 58.6977C85.2714 58.3091 85.738 58.0075 86.2761 57.7929C86.8141 57.5783 87.4038 57.4706 88.0452 57.4696C88.6787 57.4686 89.2609 57.5747 89.7919 57.7877C90.3307 57.9928 90.7985 58.289 91.1952 58.6764C91.5998 59.0559 91.9095 59.5028 92.1244 60.0172C92.3471 60.5316 92.4591 61.0976 92.4604 61.7152C92.4616 62.3329 92.3519 62.8992 92.1312 63.4142C91.9184 63.9293 91.6105 64.3811 91.2075 64.7697C90.8123 65.1504 90.3457 65.448 89.8077 65.6626C89.2775 65.8693 88.6957 65.9731 88.0623 65.9741ZM88.0601 64.9169C88.5194 64.9162 88.9429 64.8364 89.3306 64.6775C89.7262 64.5185 90.0662 64.2963 90.3507 64.0108C90.6431 63.7174 90.8681 63.3765 91.0257 62.9883C91.1912 62.6 91.2735 62.1763 91.2726 61.717C91.2717 61.2577 91.1877 60.8342 91.0206 60.4465C90.8615 60.0587 90.6351 59.7225 90.3416 59.4379C90.0559 59.1453 89.7149 58.9201 89.3187 58.7624C88.9304 58.6046 88.5066 58.526 88.0473 58.5267C87.5801 58.5274 87.1487 58.6072 86.7531 58.7662C86.3654 58.9252 86.0254 59.1513 85.733 59.4448C85.4406 59.7303 85.2116 60.0671 85.0461 60.4554C84.8885 60.8436 84.8102 61.2674 84.8111 61.7267C84.812 62.1859 84.8921 62.6095 85.0512 62.9972C85.2183 63.385 85.4486 63.7251 85.7422 64.0177C86.0357 64.3023 86.3767 64.5235 86.765 64.6813C87.1612 64.8391 87.5929 64.9176 88.0601 64.9169ZM98.0377 65.9591C97.4042 65.9601 96.8141 65.8541 96.2673 65.6411C95.7284 65.4281 95.2606 65.1318 94.8639 64.7523C94.4672 64.3649 94.1575 63.914 93.9347 63.3997C93.712 62.8853 93.6 62.3233 93.5988 61.7135C93.5976 61.1038 93.7073 60.5414 93.928 60.0264C94.1487 59.5114 94.4566 59.0635 94.8517 58.6828C95.2469 58.2942 95.7135 57.9926 96.2515 57.778C96.7895 57.5634 97.3792 57.4556 98.0206 57.4547C98.6541 57.4537 99.2363 57.5598 99.7673 57.7728C100.306 57.9778 100.774 58.2741 101.171 58.6615C101.575 59.041 101.885 59.4879 102.1 60.0023C102.323 60.5167 102.435 61.0827 102.436 61.7003C102.437 62.318 102.327 62.8843 102.107 63.3993C101.894 63.9144 101.586 64.3662 101.183 64.7548C100.788 65.1355 100.321 65.4331 99.7831 65.6477C99.253 65.8544 98.6712 65.9582 98.0377 65.9591ZM100.761 67.5942C100.484 67.5946 100.219 67.5594 99.965 67.4885C99.7115 67.4255 99.4578 67.319 99.2042 67.1689C98.9505 67.0268 98.6888 66.8371 98.4191 66.6C98.1494 66.3707 97.8558 66.0861 97.5384 65.7461L98.8087 65.4116C99.0468 65.7042 99.273 65.9415 99.4871 66.1233C99.7092 66.313 99.9273 66.4473 100.141 66.5261C100.355 66.6129 100.565 66.6561 100.771 66.6558C101.365 66.6549 101.871 66.4166 102.29 65.9409L102.85 66.6171C102.312 67.2672 101.616 67.5929 100.761 67.5942ZM98.0356 64.902C98.4949 64.9013 98.9183 64.8215 99.306 64.6626C99.7016 64.5036 100.042 64.2774 100.326 63.984C100.619 63.6906 100.844 63.3497 101.001 62.9615C101.167 62.5733 101.249 62.1534 101.248 61.7021C101.247 61.2428 101.163 60.8193 100.996 60.4315C100.837 60.0438 100.611 59.7076 100.317 59.423C100.031 59.1304 99.6904 58.9052 99.2942 58.7475C98.9058 58.5897 98.482 58.5111 98.0228 58.5118C97.5556 58.5125 97.1242 58.5923 96.7286 58.7513C96.3409 58.9102 96.0008 59.1364 95.7084 59.4298C95.416 59.7153 95.1871 60.0522 95.0216 60.4405C94.864 60.8287 94.7856 61.2525 94.7865 61.7118C94.7875 62.1631 94.8675 62.5827 95.0266 62.9704C95.1937 63.3582 95.424 63.6983 95.7176 63.9909C96.0112 64.2834 96.3521 64.5086 96.7404 64.6664C97.1367 64.8242 97.5684 64.9027 98.0356 64.902ZM106.874 63.0834L106.872 62.0975L110.067 62.0928L110.069 63.0786L106.874 63.0834ZM117.194 65.9305C116.608 65.9314 116.037 65.8412 115.483 65.6599C114.936 65.4786 114.488 65.2337 114.139 64.9254L114.684 63.9863C114.961 64.2472 115.322 64.4604 115.766 64.6261C116.21 64.7917 116.681 64.8741 117.18 64.8734C117.813 64.8724 118.3 64.7371 118.64 64.4674C118.98 64.1976 119.149 63.8371 119.148 63.3857C119.148 63.0769 119.072 62.8078 118.921 62.5784C118.77 62.349 118.509 62.1752 118.136 62.0569C117.772 61.9308 117.269 61.8682 116.627 61.8691L114.739 61.872L115.169 57.5241L119.861 57.517L119.863 58.5504L115.611 58.5568L116.228 57.9738L115.89 61.407L115.271 60.8378L116.875 60.8354C117.706 60.8342 118.375 60.9401 118.883 61.1531C119.39 61.3661 119.759 61.6625 119.989 62.0423C120.219 62.4141 120.335 62.8455 120.336 63.3364C120.337 63.8115 120.223 64.2472 119.994 64.6435C119.765 65.0319 119.418 65.3452 118.951 65.5834C118.492 65.8137 117.906 65.9294 117.194 65.9305ZM124.727 65.9192C124.077 65.9202 123.495 65.7548 122.98 65.423C122.472 65.0912 122.068 64.6087 121.765 63.9757C121.471 63.3427 121.323 62.5748 121.321 61.6721C121.319 60.7694 121.464 60.0011 121.756 59.3671C122.056 58.7332 122.459 58.2496 122.965 57.9162C123.479 57.5829 124.06 57.4157 124.71 57.4148C125.351 57.4138 125.93 57.5792 126.445 57.911C126.96 58.2429 127.365 58.7253 127.659 59.3583C127.954 59.9914 128.102 60.7592 128.103 61.6619C128.105 62.5646 127.96 63.333 127.669 63.9669C127.377 64.6008 126.974 65.0844 126.46 65.4178C125.946 65.7511 125.368 65.9183 124.727 65.9192ZM124.725 64.8621C125.16 64.8615 125.54 64.7421 125.864 64.5041C126.196 64.266 126.453 63.9093 126.634 63.4339C126.823 62.9585 126.917 62.3685 126.916 61.6637C126.914 60.959 126.818 60.3692 126.627 59.8944C126.444 59.4195 126.186 59.0636 125.853 58.8265C125.528 58.5894 125.147 58.4712 124.712 58.4719C124.276 58.4725 123.893 58.5919 123.56 58.8299C123.228 59.068 122.968 59.4247 122.779 59.9001C122.597 60.3755 122.508 60.9656 122.509 61.6703C122.51 62.375 122.603 62.9648 122.786 63.4397C122.977 63.9145 123.239 64.2704 123.572 64.5075C123.905 64.7446 124.289 64.8628 124.725 64.8621ZM132.649 65.9074C132 65.9084 131.418 65.7429 130.902 65.4111C130.395 65.0793 129.99 64.5969 129.688 63.9639C129.393 63.3308 129.245 62.5629 129.244 61.6602C129.242 60.7575 129.387 59.9892 129.678 59.3553C129.978 58.7214 130.381 58.2377 130.887 57.9044C131.401 57.5711 131.983 57.4039 132.632 57.4029C133.273 57.402 133.852 57.5674 134.367 57.8992C134.883 58.231 135.287 58.7134 135.582 59.3465C135.876 59.9795 136.024 60.7474 136.026 61.6501C136.028 62.5528 135.883 63.3211 135.591 63.955C135.299 64.5889 134.896 65.0726 134.382 65.4059C133.868 65.7393 133.291 65.9064 132.649 65.9074ZM132.647 64.8503C133.083 64.8496 133.462 64.7303 133.787 64.4922C134.119 64.2542 134.375 63.8975 134.557 63.4221C134.746 62.9467 134.839 62.3566 134.838 61.6519C134.837 60.9471 134.74 60.3573 134.549 59.8825C134.366 59.4077 134.108 59.0517 133.775 58.8147C133.45 58.5776 133.07 58.4594 132.634 58.46C132.199 58.4607 131.815 58.58 131.483 58.8181C131.151 59.0562 130.89 59.4129 130.701 59.8883C130.52 60.3636 130.43 60.9537 130.431 61.6585C130.433 62.3632 130.525 62.953 130.708 63.4278C130.899 63.9027 131.161 64.2586 131.494 64.4957C131.827 64.7327 132.212 64.8509 132.647 64.8503ZM140.572 65.8955C139.922 65.8965 139.34 65.7311 138.824 65.3993C138.317 65.0675 137.912 64.585 137.61 63.952C137.316 63.319 137.168 62.5511 137.166 61.6484C137.164 60.7457 137.309 59.9774 137.601 59.3435C137.9 58.7095 138.303 58.2259 138.809 57.8926C139.323 57.5592 139.905 57.3921 140.554 57.3911C141.196 57.3901 141.774 57.5555 142.29 57.8874C142.805 58.2192 143.21 58.7016 143.504 59.3346C143.798 59.9677 143.946 60.7355 143.948 61.6382C143.95 62.541 143.805 63.3093 143.513 63.9432C143.222 64.5771 142.819 65.0607 142.305 65.3941C141.791 65.7274 141.213 65.8946 140.572 65.8955ZM140.569 64.8384C141.005 64.8378 141.385 64.7184 141.709 64.4804C142.041 64.2423 142.298 63.8856 142.479 63.4102C142.668 62.9348 142.762 62.3448 142.76 61.64C142.759 60.9353 142.663 60.3455 142.472 59.8707C142.289 59.3958 142.031 59.0399 141.698 58.8028C141.372 58.5658 140.992 58.4475 140.557 58.4482C140.121 58.4489 139.737 58.5682 139.405 58.8063C139.073 59.0443 138.812 59.401 138.623 59.8764C138.442 60.3518 138.352 60.9419 138.354 61.6466C138.355 62.3514 138.447 62.9411 138.63 63.416C138.821 63.8908 139.083 64.2468 139.417 64.4838C139.75 64.7209 140.134 64.8391 140.569 64.8384ZM148.964 65.788L148.947 57.4736L152.189 57.4687C152.918 57.4676 153.54 57.5815 154.055 57.8104C154.57 58.0392 154.967 58.3712 155.245 58.8063C155.523 59.2414 155.662 59.7599 155.664 60.3617C155.665 60.9635 155.527 61.4824 155.251 61.9183C154.975 62.3463 154.579 62.6795 154.065 62.9178C153.551 63.1482 152.93 63.2639 152.201 63.265L149.612 63.2689L150.145 62.7099L150.151 65.7862L148.964 65.788ZM150.145 62.8286L149.61 62.2355L152.163 62.2317C152.924 62.2306 153.497 62.0674 153.885 61.7422C154.28 61.4169 154.477 60.9573 154.476 60.3635C154.475 59.7696 154.276 59.3106 153.879 58.9865C153.49 58.6625 152.916 58.501 152.156 58.5021L149.602 58.5059L150.135 57.9113L150.145 62.8286ZM159.974 65.8428C159.332 65.8437 158.758 65.706 158.251 65.4296C157.751 65.1532 157.359 64.7737 157.073 64.2911C156.787 63.8085 156.643 63.2544 156.642 62.6289C156.64 62.0033 156.782 61.4488 157.066 60.9654C157.35 60.4819 157.741 60.1052 158.24 59.8352C158.746 59.5573 159.32 59.4179 159.961 59.4169C160.531 59.4161 161.038 59.5301 161.482 59.7591C161.934 59.9801 162.283 60.3122 162.529 60.7553L161.663 61.3148C161.457 61.0063 161.203 60.781 160.902 60.6389C160.608 60.4889 160.292 60.4142 159.951 60.4147C159.539 60.4153 159.171 60.5069 158.847 60.6895C158.523 60.8721 158.266 61.1298 158.077 61.4627C157.887 61.7877 157.793 62.1758 157.794 62.6272C157.795 63.0785 157.89 63.4703 158.081 63.8026C158.272 64.1349 158.53 64.3919 158.855 64.5735C159.18 64.7552 159.548 64.8457 159.96 64.8451C160.3 64.8445 160.617 64.7728 160.91 64.6298C161.21 64.4789 161.463 64.2489 161.669 63.9398L162.537 64.4849C162.292 64.9208 161.944 65.2578 161.494 65.496C161.051 65.7263 160.544 65.8419 159.974 65.8428ZM165.821 65.834C165.299 65.8348 164.8 65.7643 164.324 65.6225C163.857 65.4806 163.488 65.307 163.218 65.1015L163.692 64.1981C163.961 64.3798 164.294 64.5337 164.69 64.6598C165.087 64.7859 165.491 64.8487 165.902 64.8481C166.433 64.8473 166.813 64.7715 167.042 64.6207C167.279 64.4699 167.398 64.2598 167.397 63.9906C167.397 63.7927 167.325 63.6383 167.182 63.5277C167.04 63.4171 166.849 63.3342 166.612 63.2791C166.382 63.224 166.125 63.1769 165.839 63.1377C165.554 63.0907 165.269 63.0357 164.984 62.9727C164.699 62.9019 164.437 62.8073 164.199 62.6888C163.962 62.5625 163.771 62.3925 163.628 62.179C163.485 61.9574 163.413 61.6646 163.413 61.3003C163.412 60.9202 163.518 60.5875 163.731 60.3021C163.945 60.0167 164.245 59.7985 164.633 59.6475C165.028 59.4885 165.495 59.4086 166.034 59.4078C166.446 59.4072 166.862 59.4581 167.281 59.5604C167.709 59.6548 168.058 59.7928 168.327 59.9745L167.842 60.878C167.557 60.6884 167.26 60.5581 166.951 60.4873C166.642 60.4165 166.333 60.3814 166.024 60.3818C165.525 60.3826 165.153 60.4663 164.908 60.6329C164.663 60.7917 164.541 60.9977 164.541 61.2511C164.541 61.4649 164.613 61.6311 164.756 61.7497C164.906 61.8603 165.097 61.9471 165.326 62.0101C165.564 62.0731 165.826 62.1282 166.111 62.1752C166.396 62.2144 166.681 62.2694 166.966 62.3403C167.251 62.4032 167.509 62.4939 167.739 62.6123C167.977 62.7307 168.167 62.8967 168.31 63.1103C168.461 63.3239 168.537 63.6088 168.537 63.9652C168.538 64.3452 168.428 64.674 168.207 64.9515C167.986 65.229 167.673 65.4472 167.27 65.6062C166.866 65.7572 166.383 65.8332 165.821 65.834ZM170.351 68.0603L169.27 68.0619C169.751 67.2218 170.102 66.3463 170.322 65.4353C170.542 64.5165 170.651 63.5384 170.648 62.501C170.646 61.4637 170.534 60.4899 170.31 59.5796C170.086 58.6614 169.732 57.783 169.248 56.9443L170.328 56.9427C170.797 57.6468 171.151 58.4777 171.391 59.4355C171.638 60.3853 171.763 61.4066 171.765 62.4994C171.767 63.5921 171.646 64.6138 171.403 65.5644C171.167 66.507 170.817 67.339 170.351 68.0603Z" fill="black"/>
<path d="M182.879 61.8809H218.768" stroke="url(#paint0_linear_2175_6)" stroke-width="0.863039"/>
<path d="M35.8887 61.8867H-0.000475645" stroke="url(#paint1_linear_2175_6)" stroke-width="0.863039"/>
<path d="M251.107 46.4405C250.288 45.203 249.652 43.7746 249.199 42.1554C248.761 40.5225 248.539 38.7668 248.535 36.8883C248.532 35.0097 248.746 33.2534 249.178 31.6192C249.624 29.9714 250.254 28.5411 251.069 27.3284L254.111 27.3238C253.257 28.8633 252.633 30.4161 252.242 31.9822C251.85 33.5346 251.656 35.1684 251.66 36.8836C251.663 38.5988 251.864 40.2388 252.262 41.8037C252.659 43.3549 253.289 44.899 254.149 46.436L251.107 46.4405ZM260.828 42.7097C259.834 42.7112 258.847 42.5834 257.866 42.3262C256.899 42.0554 256.068 41.6755 255.373 41.1865L256.674 38.6526C257.22 39.0465 257.846 39.3587 258.555 39.589C259.277 39.8194 260.005 39.934 260.74 39.9329C261.571 39.9316 262.224 39.7673 262.7 39.4399C263.175 39.1125 263.413 38.6561 263.411 38.0708C263.411 37.7032 263.315 37.3767 263.124 37.0911C262.933 36.8055 262.592 36.5882 262.101 36.4392C261.625 36.2902 260.951 36.2163 260.079 36.2176L256.424 36.2231L257.143 28.1769L265.862 28.1639L265.868 30.8183L258.333 30.8296L260.045 29.316L259.546 35.0545L257.828 33.5461L260.85 33.5416C262.266 33.5394 263.403 33.7351 264.261 34.1286C265.133 34.5085 265.767 35.0316 266.163 35.698C266.559 36.3645 266.758 37.1197 266.76 37.9637C266.762 38.8076 266.552 39.5907 266.132 40.3128C265.711 41.0213 265.059 41.6008 264.175 42.0513C263.305 42.4882 262.189 42.7077 260.828 42.7097ZM281.123 42.6794C279.979 42.6811 278.883 42.533 277.834 42.2351C276.785 41.9236 275.941 41.5233 275.3 41.0342L276.418 38.5414C277.031 38.9761 277.754 39.3357 278.585 39.6203C279.429 39.8913 280.28 40.0262 281.138 40.0249C281.791 40.0239 282.315 39.9619 282.71 39.8388C283.118 39.702 283.417 39.5178 283.607 39.2861C283.797 39.0544 283.892 38.7888 283.891 38.4893C283.89 38.1082 283.74 37.8089 283.44 37.5916C283.14 37.3606 282.745 37.1774 282.255 37.042C281.764 36.893 281.22 36.7577 280.62 36.6361C280.035 36.5009 279.442 36.3384 278.843 36.1487C278.257 35.959 277.719 35.7148 277.228 35.416C276.738 35.1173 276.335 34.7231 276.021 34.2335C275.721 33.7439 275.57 33.118 275.568 32.3557C275.567 31.5389 275.783 30.7967 276.217 30.129C276.665 29.4477 277.331 28.909 278.215 28.5129C279.113 28.1032 280.235 27.8973 281.583 27.8953C282.481 27.894 283.366 28.0016 284.238 28.2181C285.11 28.4209 285.879 28.7329 286.547 29.1539L285.531 31.6669C284.864 31.2868 284.196 31.0087 283.529 30.8328C282.861 30.6432 282.208 30.5489 281.568 30.5498C280.928 30.5508 280.404 30.6264 279.996 30.7768C279.588 30.9271 279.296 31.125 279.119 31.3702C278.943 31.6019 278.855 31.8743 278.855 32.1874C278.856 32.5549 279.007 32.8542 279.306 33.0852C279.606 33.3025 280.002 33.4789 280.492 33.6143C280.982 33.7497 281.52 33.885 282.106 34.0203C282.705 34.1555 283.297 34.3111 283.883 34.4872C284.482 34.6633 285.027 34.9007 285.518 35.1995C286.009 35.4982 286.404 35.8924 286.705 36.382C287.019 36.8716 287.177 37.4907 287.178 38.2394C287.18 39.0426 286.957 39.778 286.509 40.4457C286.061 41.1134 285.388 41.6521 284.491 42.0618C283.607 42.4715 282.484 42.6774 281.123 42.6794ZM290.039 42.421L290.017 31.4356L293.202 31.4309L293.224 42.4163L290.039 42.421ZM291.607 29.9018C291.021 29.9027 290.544 29.7333 290.176 29.3935C289.808 29.0537 289.623 28.632 289.622 28.1283C289.621 27.6247 289.804 27.2024 290.171 26.8615C290.538 26.5207 291.014 26.3498 291.599 26.3489C292.185 26.348 292.662 26.5107 293.03 26.8368C293.398 27.1494 293.582 27.5575 293.584 28.0612C293.585 28.592 293.402 29.0347 293.035 29.3892C292.682 29.7301 292.206 29.9009 291.607 29.9018ZM301.715 42.5669C300.68 42.5685 299.747 42.3384 298.916 41.8769C298.084 41.4017 297.423 40.7424 296.931 39.8992C296.453 39.0559 296.213 38.0625 296.21 36.9191C296.208 35.762 296.444 34.7611 296.919 33.9164C297.407 33.0717 298.066 32.4173 298.896 31.9532C299.725 31.4892 300.657 31.2564 301.692 31.2548C302.617 31.2534 303.428 31.4564 304.123 31.8638C304.818 32.2711 305.357 32.8897 305.74 33.7195C306.123 34.5493 306.315 35.6108 306.318 36.904C306.32 38.1836 306.139 39.2456 305.773 40.0902C305.407 40.9211 304.877 41.5412 304.184 41.9507C303.504 42.3601 302.681 42.5655 301.715 42.5669ZM302.261 39.9525C302.778 39.9517 303.247 39.8285 303.669 39.5828C304.09 39.3372 304.423 38.9895 304.667 38.54C304.925 38.0767 305.053 37.532 305.052 36.9059C305.051 36.2661 304.92 35.7218 304.661 35.2729C304.415 34.8241 304.08 34.4775 303.658 34.2331C303.236 33.9887 302.766 33.8668 302.248 33.8676C301.717 33.8684 301.241 33.9916 300.82 34.2373C300.398 34.483 300.059 34.8306 299.801 35.2802C299.557 35.7298 299.435 36.2745 299.437 36.9143C299.438 37.5404 299.562 38.0848 299.807 38.5472C300.067 38.9961 300.408 39.3427 300.831 39.5871C301.253 39.8315 301.73 39.9533 302.261 39.9525ZM305.145 42.3984L305.14 40.1524L305.195 36.8852L304.984 33.6389L304.971 27.2478L308.157 27.243L308.187 42.3939L305.145 42.3984ZM317.404 42.5435C316.152 42.5453 315.049 42.302 314.095 41.8133C313.154 41.3247 312.425 40.6587 311.906 39.8155C311.387 38.9587 311.126 37.9858 311.124 36.8968C311.122 35.7942 311.372 34.8205 311.874 33.9757C312.389 33.1174 313.089 32.4493 313.973 31.9715C314.857 31.4802 315.857 31.2336 316.973 31.232C318.048 31.2304 319.015 31.4603 319.874 31.9219C320.746 32.3698 321.435 33.0222 321.94 33.879C322.446 34.7222 322.699 35.736 322.702 36.9203C322.702 37.0428 322.695 37.1858 322.682 37.3491C322.669 37.4989 322.656 37.6419 322.642 37.778L313.719 37.7913L313.715 35.9332L320.964 35.9224L319.74 36.4755C319.739 35.9038 319.622 35.4071 319.39 34.9855C319.158 34.5638 318.837 34.2376 318.428 34.0068C318.019 33.7624 317.543 33.6406 316.998 33.6414C316.454 33.6422 315.971 33.7654 315.549 34.0111C315.141 34.2431 314.822 34.5771 314.592 35.013C314.361 35.4354 314.246 35.9392 314.247 36.5246L314.248 37.0146C314.25 37.6136 314.38 38.1443 314.64 38.6067C314.913 39.0555 315.288 39.4021 315.765 39.6464C316.255 39.8771 316.827 39.9919 317.481 39.991C318.066 39.9901 318.576 39.9008 319.012 39.7232C319.46 39.5456 319.868 39.2795 320.235 38.9251L321.934 40.7602C321.431 41.3327 320.799 41.7761 320.037 42.0903C319.276 42.3909 318.398 42.542 317.404 42.5435ZM327.435 46.3264L324.392 46.331C325.274 44.7914 325.904 43.2454 326.282 41.693C326.673 40.127 326.868 38.4863 326.864 36.7712C326.861 35.056 326.66 33.4227 326.262 31.8715C325.878 30.3066 325.242 28.7557 324.354 27.2188L327.396 27.2143C328.243 28.4245 328.885 29.8529 329.324 31.4994C329.763 33.1322 329.984 34.8879 329.988 36.7665C329.992 38.645 329.778 40.4014 329.345 42.0356C328.913 43.6561 328.276 45.0864 327.435 46.3264Z" fill="#490606"/>
<defs>
<linearGradient id="paint0_linear_2175_6" x1="213.385" y1="62.3808" x2="183.477" y2="62.3808" gradientUnits="userSpaceOnUse">
<stop stop-color="#666666" stop-opacity="0"/>
<stop offset="1"/>
</linearGradient>
<linearGradient id="paint1_linear_2175_6" x1="5.38289" y1="62.3867" x2="35.2905" y2="62.3867" gradientUnits="userSpaceOnUse">
<stop stop-color="#666666" stop-opacity="0"/>
<stop offset="1"/>
</linearGradient>
</defs>
</svg>
