<svg width="326" height="76" viewBox="0 0 326 76" fill="none" xmlns="http://www.w3.org/2000/svg">
<path d="M20.056 46.7559C18.0492 46.7589 16.1254 46.499 14.2848 45.9762C12.4441 45.4294 10.9615 44.7269 9.83686 43.8685L11.7991 39.4935C12.8757 40.2564 14.1432 40.8876 15.6015 41.3872C17.0837 41.8628 18.5774 42.0994 20.0825 42.0972C21.2293 42.0955 22.1488 41.9866 22.8412 41.7705C23.5575 41.5306 24.0824 41.2072 24.4161 40.8006C24.7497 40.394 24.916 39.9278 24.915 39.4022C24.9136 38.7333 24.6498 38.2081 24.1234 37.8266C23.597 37.4213 22.9035 37.0998 22.043 36.8622C21.1824 36.6006 20.2263 36.3632 19.1747 36.1497C18.1469 35.9123 17.107 35.6272 16.0552 35.2943C15.0272 34.9614 14.0826 34.5328 13.2215 34.0084C12.3604 33.4841 11.6542 32.7923 11.103 31.9331C10.5757 31.0738 10.3107 29.9752 10.308 28.6374C10.3051 27.2039 10.6848 25.9013 11.4469 24.7295C12.2329 23.5338 13.4017 22.5883 14.9532 21.8932C16.5285 21.1741 18.4988 20.8128 20.864 20.8093C22.4408 20.8069 23.9941 20.9957 25.5239 21.3757C27.0536 21.7317 28.4045 22.2792 29.5767 23.0181L27.7937 27.4286C26.6217 26.7614 25.4501 26.2734 24.2788 25.9646C23.1075 25.6319 21.9604 25.4663 20.8375 25.468C19.7147 25.4697 18.7951 25.6025 18.0789 25.8663C17.3627 26.1302 16.8498 26.4774 16.5401 26.9079C16.2303 27.3145 16.076 27.7925 16.0771 28.342C16.0784 28.9871 16.3422 29.5123 16.8686 29.9176C17.395 30.2991 18.0884 30.6087 18.949 30.8463C19.8095 31.0839 20.7537 31.3214 21.7815 31.5588C22.8332 31.7961 23.873 32.0693 24.9009 32.3783C25.9527 32.6874 26.9092 33.104 27.7703 33.6283C28.6314 34.1526 29.3257 34.8444 29.853 35.7037C30.4042 36.563 30.6811 37.6496 30.6838 38.9636C30.6866 40.3731 30.295 41.6638 29.5089 42.8357C28.7229 44.0075 27.5422 44.9529 25.9668 45.672C24.4154 46.3911 22.4451 46.7524 20.056 46.7559ZM36.0989 46.3019L36.0485 21.2166L48.3045 21.1983C51.4581 21.1935 53.8245 21.7873 55.4037 22.9795C57.0067 24.1716 57.8103 25.7472 57.8142 27.7062C57.8168 29.0202 57.4966 30.1675 56.8535 31.148C56.2104 32.1046 55.3279 32.8465 54.2061 33.3738C53.0843 33.9011 51.7947 34.1658 50.3374 34.168L51.0153 32.6977C52.5921 32.6953 53.9902 32.956 55.2097 33.4798C56.4292 33.9797 57.3744 34.7308 58.0453 35.7332C58.7402 36.7356 59.089 37.9655 59.092 39.4228C59.0963 41.573 58.2515 43.2585 56.5577 44.4795C54.8639 45.6766 52.3685 46.2776 49.0716 46.2825L36.0989 46.3019ZM41.8597 41.9213L48.6328 41.9111C50.1379 41.9089 51.2722 41.6683 52.0358 41.1893C52.8231 40.6864 53.2158 39.8975 53.2136 38.8224C53.2115 37.7712 52.8157 36.9953 52.0263 36.4948C51.2608 35.9703 50.1254 35.7092 48.6203 35.7115L41.4172 35.7223L41.4087 31.4936L47.6084 31.4843C49.018 31.4822 50.0926 31.2417 50.8322 30.7628C51.5957 30.2599 51.9765 29.5068 51.9745 28.5034C51.9725 27.5239 51.5888 26.7958 50.8233 26.3191C50.0817 25.8185 49.0061 25.5692 47.5965 25.5713L41.8269 25.58L41.8597 41.9213ZM63.8077 38.4123L63.7987 33.9328L73.9404 33.9176L73.9494 38.3972L63.8077 38.4123ZM81.715 46.2337L81.669 23.2985L84.1825 25.8033L76.6569 25.8146L76.6476 21.1559L87.4701 21.1397L87.5205 46.225L81.715 46.2337ZM104.529 46.6296C102.236 46.6331 100.24 46.1582 98.5417 45.2051C96.8674 44.252 95.5745 42.8563 94.663 41.0181C93.7515 39.1799 93.293 36.9109 93.2876 34.2112C93.2818 31.3205 93.8144 28.8709 94.8854 26.8624C95.9804 24.8539 97.4824 23.3227 99.3916 22.2686C101.325 21.2145 103.545 20.6856 106.054 20.6819C107.392 20.6799 108.67 20.8213 109.889 21.1062C111.108 21.391 112.16 21.8195 113.045 22.3916L110.904 26.6593C110.21 26.1825 109.469 25.8611 108.68 25.695C107.891 25.5051 107.067 25.4108 106.207 25.412C104.033 25.4153 102.314 26.0749 101.05 27.3907C99.7868 28.7066 99.1576 30.6547 99.1628 33.2349C99.1636 33.6649 99.1646 34.1427 99.1656 34.6683C99.1906 35.1939 99.2633 35.7194 99.3838 36.2448L97.7682 34.7421C98.2202 33.8097 98.804 33.0323 99.5195 32.4101C100.235 31.764 101.082 31.2849 102.061 30.9729C103.064 30.6369 104.162 30.468 105.357 30.4662C106.981 30.4638 108.439 30.7841 109.731 31.4273C111.022 32.0704 112.051 32.9767 112.818 34.1462C113.609 35.3157 114.006 36.6888 114.009 38.2656C114.012 39.9618 113.585 41.4437 112.728 42.7112C111.894 43.9548 110.761 44.9241 109.329 45.619C107.921 46.2901 106.321 46.627 104.529 46.6296ZM104.198 42.2939C105.01 42.2927 105.727 42.1483 106.347 41.8607C106.992 41.5491 107.493 41.1064 107.85 40.5325C108.207 39.9586 108.385 39.3013 108.383 38.5607C108.381 37.4139 107.985 36.5067 107.195 35.8389C106.429 35.1472 105.401 34.8024 104.111 34.8043C103.251 34.8056 102.499 34.9739 101.855 35.3094C101.21 35.6209 100.697 36.0637 100.316 36.6376C99.9591 37.1876 99.7812 37.8329 99.7827 38.5736C99.7841 39.2903 99.9646 39.9351 100.324 40.5079C100.684 41.0569 101.186 41.4981 101.832 41.8316C102.478 42.1412 103.266 42.2953 104.198 42.2939ZM118.188 38.331L118.179 33.8515L128.32 33.8363L128.329 38.3159L118.188 38.331ZM141.525 46.5743C139.781 46.5769 138.048 46.3526 136.327 45.9012C134.63 45.4259 133.171 44.7592 131.951 43.9009L134.235 39.4538C135.193 40.1452 136.293 40.693 137.536 41.0973C138.803 41.5016 140.081 41.7027 141.371 41.7008C142.829 41.6986 143.975 41.4102 144.81 40.8356C145.645 40.261 146.061 39.46 146.059 38.4327C146.058 37.7876 145.89 37.2145 145.554 36.7133C145.219 36.2121 144.621 35.8307 143.76 35.5692C142.923 35.3077 141.741 35.1781 140.212 35.1803L133.797 35.1899L135.059 21.0685L150.361 21.0457L150.37 25.7044L137.147 25.7241L140.151 23.0678L139.276 33.1391L136.26 30.4917L141.564 30.4838C144.049 30.48 146.044 30.8235 147.551 31.5141C149.081 32.1807 150.194 33.0989 150.889 34.2685C151.584 35.4381 151.933 36.7635 151.936 38.2447C151.939 39.726 151.572 41.1002 150.834 42.3676C150.095 43.611 148.951 44.6281 147.399 45.4188C145.872 46.1856 143.914 46.5707 141.525 46.5743ZM166.493 46.537C164.438 46.5401 162.597 46.0411 160.971 45.0401C159.344 44.0152 158.063 42.5359 157.127 40.6022C156.192 38.6684 155.721 36.3278 155.716 33.5804C155.71 30.8329 156.171 28.4909 157.099 26.5544C158.027 24.6178 159.302 23.1466 160.925 22.1408C162.547 21.1111 164.386 20.5947 166.441 20.5916C168.519 20.5885 170.36 21.0994 171.962 22.1243C173.589 23.1253 174.87 24.5926 175.806 26.5264C176.741 28.4602 177.212 30.8008 177.217 33.5482C177.223 36.2956 176.762 38.6376 175.834 40.5742C174.906 42.5107 173.631 43.9939 172.008 45.0236C170.41 46.0294 168.571 46.5339 166.493 46.537ZM166.483 41.6274C167.462 41.626 168.31 41.3499 169.025 40.7994C169.765 40.2488 170.337 39.3759 170.74 38.1808C171.168 36.9856 171.38 35.4443 171.376 33.5569C171.372 31.6696 171.154 30.1289 170.722 28.935C170.313 27.7411 169.738 26.8699 168.996 26.3216C168.279 25.7731 167.43 25.4997 166.45 25.5011C165.495 25.5026 164.647 25.7786 163.908 26.3292C163.192 26.8797 162.62 27.7526 162.193 28.9478C161.789 30.1429 161.589 31.6842 161.593 33.5716C161.597 35.4589 161.803 36.9996 162.211 38.1935C162.644 39.3874 163.219 40.2586 163.937 40.807C164.678 41.3554 165.527 41.6289 166.483 41.6274ZM192.248 46.4985C190.194 46.5015 188.353 46.0026 186.727 45.0016C185.1 43.9767 183.819 42.4974 182.883 40.5636C181.948 38.6299 181.477 36.2893 181.472 33.5418C181.466 30.7944 181.927 28.4524 182.855 26.5159C183.783 24.5793 185.058 23.1081 186.681 22.1023C188.303 21.0725 190.142 20.5561 192.196 20.5531C194.275 20.55 196.116 21.0609 197.718 22.0858C199.345 23.0868 200.626 24.5541 201.562 26.4879C202.497 28.4217 202.968 30.7623 202.973 33.5097C202.979 36.2571 202.518 38.5991 201.59 40.5357C200.662 42.4722 199.387 43.9554 197.764 44.9851C196.166 45.9909 194.327 46.4954 192.248 46.4985ZM192.239 41.5889C193.218 41.5874 194.066 41.3114 194.781 40.7609C195.521 40.2103 196.092 39.3374 196.496 38.1423C196.924 36.9471 197.136 35.4058 197.132 33.5184C197.128 31.6311 196.91 30.0904 196.478 28.8965C196.069 27.7026 195.494 26.8314 194.752 26.2831C194.034 25.7346 193.186 25.4612 192.206 25.4626C191.251 25.4641 190.403 25.7401 189.664 26.2907C188.948 26.8412 188.376 27.7141 187.949 28.9093C187.545 30.1044 187.345 31.6457 187.349 33.5331C187.352 35.4204 187.559 36.9611 187.967 38.155C188.4 39.3489 188.975 40.2201 189.693 40.7685C190.434 41.3169 191.283 41.5903 192.239 41.5889ZM220.943 46.4556C218.96 46.4585 217.132 46.1507 215.458 45.532C213.808 44.8894 212.361 43.9837 211.116 42.815C209.896 41.6461 208.937 40.2738 208.241 38.6981C207.569 37.1223 207.231 35.3907 207.227 33.5033C207.224 31.616 207.555 29.8834 208.22 28.3056C208.91 26.7278 209.875 25.3526 211.115 24.1801C212.355 23.0076 213.81 22.1095 215.482 21.4858C217.153 20.8383 218.992 20.513 220.998 20.51C223.22 20.5067 225.216 20.874 226.985 21.612C228.779 22.3499 230.286 23.4227 231.507 24.8305L227.787 28.2763C226.877 27.3221 225.884 26.6188 224.808 26.1664C223.732 25.6902 222.561 25.4531 221.295 25.455C220.077 25.4568 218.966 25.6496 217.963 26.0333C216.961 26.4171 216.09 26.9679 215.351 27.6857C214.635 28.4035 214.076 29.2525 213.671 30.2326C213.291 31.2127 213.102 32.3 213.105 33.4945C213.107 34.6652 213.3 35.74 213.684 36.7189C214.093 37.6979 214.656 38.5571 215.374 39.2966C216.116 40.0123 216.977 40.5605 217.957 40.9412C218.962 41.322 220.061 41.5115 221.256 41.5097C222.402 41.508 223.513 41.3271 224.587 40.9672C225.685 40.5833 226.747 39.9486 227.773 39.0631L231.078 43.251C229.718 44.2803 228.131 45.0711 226.317 45.6233C224.526 46.1755 222.735 46.4529 220.943 46.4556ZM225.773 42.5064L225.754 33.0814L231.058 33.0735L231.078 43.251L225.773 42.5064Z" fill="#490606"/>
<path d="M44.9987 68.2389C44.5459 67.519 44.1958 66.6881 43.9484 65.7462C43.701 64.7963 43.5762 63.775 43.574 62.6823C43.5719 61.5895 43.6925 60.5678 43.9361 59.6172C44.1797 58.6587 44.5264 57.8268 44.9763 57.1214L46.0572 57.1197C45.5838 57.9598 45.2371 58.8393 45.0173 59.7582C44.7974 60.6691 44.6885 61.6433 44.6906 62.6806C44.6926 63.7179 44.8055 64.6957 45.029 65.6139C45.2526 66.5242 45.6027 67.3987 46.0795 68.2373L44.9987 68.2389ZM47.7011 65.9306L47.6844 57.6162L48.8722 57.6144L48.8889 65.9288L47.7011 65.9306ZM51.3781 65.9251L51.3614 57.6107L52.3354 57.6092L56.0776 63.887L55.555 63.8877L59.2245 57.5989L60.1985 57.5975L60.227 65.9119L59.0868 65.9136L59.0618 59.3927L59.335 59.3923L56.0678 64.9085L55.5214 64.9093L52.2084 59.403L52.5053 59.4025L52.5184 65.9234L51.3781 65.9251ZM62.7223 65.9081L62.7056 57.5937L63.8934 57.5919L63.908 64.873L68.4097 64.8663L68.4117 65.8996L62.7223 65.9081ZM72.9645 65.8928L72.9478 57.5784L73.9218 57.5769L77.664 63.8547L77.1414 63.8555L80.8109 57.5666L81.7849 57.5652L81.8134 65.8796L80.6732 65.8813L80.6482 59.3604L80.9214 59.36L77.6542 64.8762L77.1078 64.877L73.7948 59.3707L74.0917 59.3702L74.1048 65.8911L72.9645 65.8928ZM88.0623 65.9653C87.4288 65.9662 86.8386 65.8602 86.2918 65.6472C85.7529 65.4342 85.2852 65.138 84.8885 64.7585C84.4918 64.3711 84.182 63.9202 83.9593 63.4058C83.7365 62.8914 83.6246 62.3294 83.6233 61.7197C83.6221 61.1099 83.7318 60.5476 83.9525 60.0325C84.1732 59.5175 84.4811 59.0696 84.8763 58.689C85.2714 58.3004 85.738 57.9988 86.2761 57.7842C86.8141 57.5695 87.4038 57.4618 88.0452 57.4608C88.6787 57.4599 89.2609 57.5659 89.7919 57.7789C90.3307 57.984 90.7985 58.2802 91.1952 58.6676C91.5998 59.0471 91.9095 59.494 92.1244 60.0084C92.3471 60.5228 92.4591 61.0888 92.4604 61.7064C92.4616 62.3241 92.3519 62.8904 92.1312 63.4055C91.9184 63.9205 91.6105 64.3723 91.2075 64.7609C90.8123 65.1416 90.3457 65.4392 89.8077 65.6538C89.2775 65.8605 88.6957 65.9643 88.0623 65.9653ZM88.0601 64.9081C88.5194 64.9075 88.9429 64.8276 89.3306 64.6687C89.7262 64.5097 90.0662 64.2875 90.3507 64.002C90.6431 63.7086 90.8681 63.3678 91.0257 62.9795C91.1912 62.5913 91.2735 62.1675 91.2726 61.7082C91.2717 61.2489 91.1877 60.8254 91.0206 60.4377C90.8615 60.0499 90.6351 59.7137 90.3416 59.4291C90.0559 59.1365 89.7149 58.9114 89.3187 58.7536C88.9304 58.5958 88.5066 58.5172 88.0473 58.5179C87.5801 58.5186 87.1487 58.5985 86.7531 58.7574C86.3654 58.9164 86.0254 59.1426 85.733 59.436C85.4406 59.7215 85.2116 60.0584 85.0461 60.4466C84.8885 60.8349 84.8102 61.2586 84.8111 61.7179C84.812 62.1772 84.8921 62.6007 85.0512 62.9884C85.2183 63.3762 85.4486 63.7164 85.7422 64.0089C86.0357 64.2935 86.3767 64.5147 86.765 64.6725C87.1612 64.8303 87.5929 64.9088 88.0601 64.9081ZM98.0377 65.9503C97.4042 65.9513 96.8141 65.8453 96.2673 65.6323C95.7284 65.4193 95.2606 65.1231 94.8639 64.7436C94.4672 64.3561 94.1575 63.9053 93.9347 63.3909C93.712 62.8765 93.6 62.3145 93.5988 61.7047C93.5976 61.095 93.7073 60.5326 93.928 60.0176C94.1487 59.5026 94.4566 59.0547 94.8517 58.674C95.2469 58.2854 95.7135 57.9838 96.2515 57.7692C96.7895 57.5546 97.3792 57.4468 98.0206 57.4459C98.6541 57.4449 99.2363 57.551 99.7673 57.764C100.306 57.9691 100.774 58.2653 101.171 58.6527C101.575 59.0322 101.885 59.4791 102.1 59.9935C102.323 60.5079 102.435 61.0739 102.436 61.6915C102.437 62.3092 102.327 62.8755 102.107 63.3905C101.894 63.9056 101.586 64.3574 101.183 64.746C100.788 65.1267 100.321 65.4243 99.7831 65.6389C99.253 65.8456 98.6712 65.9494 98.0377 65.9503ZM100.761 67.5854C100.484 67.5858 100.219 67.5506 99.965 67.4797C99.7115 67.4167 99.4578 67.3102 99.2042 67.1601C98.9505 67.018 98.6888 66.8283 98.4191 66.5912C98.1494 66.3619 97.8558 66.0773 97.5384 65.7373L98.8087 65.4028C99.0468 65.6954 99.273 65.9327 99.4871 66.1145C99.7092 66.3042 99.9273 66.4385 100.141 66.5173C100.355 66.6041 100.565 66.6474 100.771 66.647C101.365 66.6462 101.871 66.4078 102.29 65.9321L102.85 66.6083C102.312 67.2584 101.616 67.5841 100.761 67.5854ZM98.0356 64.8932C98.4949 64.8925 98.9183 64.8127 99.306 64.6538C99.7016 64.4948 100.042 64.2686 100.326 63.9752C100.619 63.6818 100.844 63.341 101.001 62.9527C101.167 62.5645 101.249 62.1447 101.248 61.6933C101.247 61.234 101.163 60.8105 100.996 60.4228C100.837 60.035 100.611 59.6988 100.317 59.4142C100.031 59.1216 99.6904 58.8964 99.2942 58.7387C98.9058 58.5809 98.482 58.5023 98.0228 58.503C97.5556 58.5037 97.1242 58.5835 96.7286 58.7425C96.3409 58.9014 96.0008 59.1276 95.7084 59.4211C95.416 59.7066 95.1871 60.0434 95.0216 60.4317C94.864 60.8199 94.7856 61.2437 94.7865 61.703C94.7875 62.1543 94.8675 62.5739 95.0266 62.9617C95.1937 63.3494 95.424 63.6896 95.7176 63.9821C96.0112 64.2747 96.3521 64.4998 96.7404 64.6576C97.1367 64.8154 97.5684 64.8939 98.0356 64.8932ZM106.874 63.0746L106.872 62.0887L110.067 62.084L110.069 63.0698L106.874 63.0746ZM117.194 65.9217C116.608 65.9226 116.037 65.8324 115.483 65.6511C114.936 65.4698 114.488 65.225 114.139 64.9167L114.684 63.9775C114.961 64.2384 115.322 64.4517 115.766 64.6173C116.21 64.7829 116.681 64.8653 117.18 64.8646C117.813 64.8637 118.3 64.7283 118.64 64.4586C118.98 64.1888 119.149 63.8283 119.148 63.3769C119.148 63.0681 119.072 62.799 118.921 62.5696C118.77 62.3402 118.509 62.1664 118.136 62.0481C117.772 61.922 117.269 61.8594 116.627 61.8604L114.739 61.8632L115.169 57.5153L119.861 57.5083L119.863 58.5416L115.611 58.548L116.228 57.965L115.89 61.3982L115.271 60.829L116.875 60.8266C117.706 60.8254 118.375 60.9313 118.883 61.1443C119.39 61.3574 119.759 61.6537 119.989 62.0335C120.219 62.4053 120.335 62.8367 120.336 63.3277C120.337 63.8028 120.223 64.2384 119.994 64.6347C119.765 65.0231 119.418 65.3364 118.951 65.5746C118.492 65.8049 117.906 65.9206 117.194 65.9217ZM124.727 65.9104C124.077 65.9114 123.495 65.746 122.98 65.4142C122.472 65.0824 122.068 64.5999 121.765 63.9669C121.471 63.3339 121.323 62.566 121.321 61.6633C121.319 60.7606 121.464 59.9923 121.756 59.3584C122.056 58.7244 122.459 58.2408 122.965 57.9075C123.479 57.5741 124.06 57.407 124.71 57.406C125.351 57.405 125.93 57.5704 126.445 57.9023C126.96 58.2341 127.365 58.7165 127.659 59.3495C127.954 59.9826 128.102 60.7504 128.103 61.6531C128.105 62.5559 127.96 63.3242 127.669 63.9581C127.377 64.592 126.974 65.0756 126.46 65.409C125.946 65.7423 125.368 65.9095 124.727 65.9104ZM124.725 64.8533C125.16 64.8527 125.54 64.7333 125.864 64.4953C126.196 64.2572 126.453 63.9005 126.634 63.4251C126.823 62.9497 126.917 62.3597 126.916 61.6549C126.914 60.9502 126.818 60.3604 126.627 59.8856C126.444 59.4107 126.186 59.0548 125.853 58.8177C125.528 58.5807 125.147 58.4625 124.712 58.4631C124.276 58.4638 123.893 58.5831 123.56 58.8212C123.228 59.0592 122.968 59.4159 122.779 59.8913C122.597 60.3667 122.508 60.9568 122.509 61.6615C122.51 62.3663 122.603 62.9561 122.786 63.4309C122.977 63.9057 123.239 64.2617 123.572 64.4987C123.905 64.7358 124.289 64.854 124.725 64.8533ZM132.649 65.8986C132 65.8996 131.418 65.7341 130.902 65.4023C130.395 65.0705 129.99 64.5881 129.688 63.9551C129.393 63.322 129.245 62.5542 129.244 61.6514C129.242 60.7487 129.387 59.9804 129.678 59.3465C129.978 58.7126 130.381 58.2289 130.887 57.8956C131.401 57.5623 131.983 57.3951 132.632 57.3941C133.273 57.3932 133.852 57.5586 134.367 57.8904C134.883 58.2222 135.287 58.7046 135.582 59.3377C135.876 59.9707 136.024 60.7386 136.026 61.6413C136.028 62.544 135.883 63.3123 135.591 63.9462C135.299 64.5802 134.896 65.0638 134.382 65.3971C133.868 65.7305 133.291 65.8976 132.649 65.8986ZM132.647 64.8415C133.083 64.8408 133.462 64.7215 133.787 64.4834C134.119 64.2454 134.375 63.8887 134.557 63.4133C134.746 62.9379 134.839 62.3478 134.838 61.6431C134.837 60.9383 134.74 60.3485 134.549 59.8737C134.366 59.3989 134.108 59.0429 133.775 58.8059C133.45 58.5688 133.07 58.4506 132.634 58.4513C132.199 58.4519 131.815 58.5713 131.483 58.8093C131.151 59.0474 130.89 59.4041 130.701 59.8795C130.52 60.3549 130.43 60.9449 130.431 61.6497C130.433 62.3544 130.525 62.9442 130.708 63.419C130.899 63.8939 131.161 64.2498 131.494 64.4869C131.827 64.7239 132.212 64.8421 132.647 64.8415ZM140.572 65.8867C139.922 65.8877 139.34 65.7223 138.824 65.3905C138.317 65.0587 137.912 64.5763 137.61 63.9432C137.316 63.3102 137.168 62.5423 137.166 61.6396C137.164 60.7369 137.309 59.9686 137.601 59.3347C137.9 58.7007 138.303 58.2171 138.809 57.8838C139.323 57.5504 139.905 57.3833 140.554 57.3823C141.196 57.3813 141.774 57.5468 142.29 57.8786C142.805 58.2104 143.21 58.6928 143.504 59.3258C143.798 59.9589 143.946 60.7268 143.948 61.6295C143.95 62.5322 143.805 63.3005 143.513 63.9344C143.222 64.5683 142.819 65.0519 142.305 65.3853C141.791 65.7186 141.213 65.8858 140.572 65.8867ZM140.569 64.8296C141.005 64.829 141.385 64.7096 141.709 64.4716C142.041 64.2335 142.298 63.8768 142.479 63.4014C142.668 62.926 142.762 62.336 142.76 61.6312C142.759 60.9265 142.663 60.3367 142.472 59.8619C142.289 59.387 142.031 59.0311 141.698 58.794C141.372 58.557 140.992 58.4388 140.557 58.4394C140.121 58.4401 139.737 58.5594 139.405 58.7975C139.073 59.0355 138.812 59.3922 138.623 59.8676C138.442 60.343 138.352 60.9331 138.354 61.6378C138.355 62.3426 138.447 62.9324 138.63 63.4072C138.821 63.882 139.083 64.238 139.417 64.475C139.75 64.7121 140.134 64.8303 140.569 64.8296ZM148.964 65.7792L148.947 57.4648L152.189 57.4599C152.918 57.4588 153.54 57.5727 154.055 57.8016C154.57 58.0304 154.967 58.3624 155.245 58.7975C155.523 59.2326 155.662 59.7511 155.664 60.3529C155.665 60.9547 155.527 61.4736 155.251 61.9095C154.975 62.3375 154.579 62.6707 154.065 62.909C153.551 63.1394 152.93 63.2552 152.201 63.2562L149.612 63.2601L150.145 62.7011L150.151 65.7774L148.964 65.7792ZM150.145 62.8198L149.61 62.2268L152.163 62.2229C152.924 62.2218 153.497 62.0586 153.885 61.7334C154.28 61.4081 154.477 60.9486 154.476 60.3547C154.475 59.7608 154.276 59.3018 153.879 58.9777C153.49 58.6537 152.916 58.4922 152.156 58.4933L149.602 58.4972L150.135 57.9025L150.145 62.8198ZM159.974 65.834C159.332 65.8349 158.758 65.6972 158.251 65.4208C157.751 65.1444 157.359 64.7649 157.073 64.2823C156.787 63.7997 156.643 63.2456 156.642 62.6201C156.64 61.9945 156.782 61.44 157.066 60.9566C157.35 60.4731 157.741 60.0964 158.24 59.8264C158.746 59.5485 159.32 59.4091 159.961 59.4081C160.531 59.4073 161.038 59.5213 161.482 59.7503C161.934 59.9714 162.283 60.3034 162.529 60.7465L161.663 61.306C161.457 60.9975 161.203 60.7722 160.902 60.6301C160.608 60.4801 160.292 60.4054 159.951 60.4059C159.539 60.4065 159.171 60.4981 158.847 60.6807C158.523 60.8633 158.266 61.1211 158.077 61.4539C157.887 61.7789 157.793 62.167 157.794 62.6184C157.795 63.0697 157.89 63.4615 158.081 63.7938C158.272 64.1261 158.53 64.3831 158.855 64.5647C159.18 64.7464 159.548 64.8369 159.96 64.8363C160.3 64.8358 160.617 64.764 160.91 64.621C161.21 64.4701 161.463 64.2401 161.669 63.931L162.537 64.4761C162.292 64.912 161.944 65.249 161.494 65.4873C161.051 65.7176 160.544 65.8331 159.974 65.834ZM165.821 65.8252C165.299 65.826 164.8 65.7555 164.324 65.6137C163.857 65.4718 163.488 65.2982 163.218 65.0927L163.692 64.1893C163.961 64.371 164.294 64.5249 164.69 64.651C165.087 64.7771 165.491 64.8399 165.902 64.8393C166.433 64.8385 166.813 64.7627 167.042 64.6119C167.279 64.4611 167.398 64.2511 167.397 63.9818C167.397 63.7839 167.325 63.6296 167.182 63.5189C167.04 63.4083 166.849 63.3254 166.612 63.2703C166.382 63.2152 166.125 63.1681 165.839 63.129C165.554 63.0819 165.269 63.0269 164.984 62.9639C164.699 62.8931 164.437 62.7985 164.199 62.6801C163.962 62.5537 163.771 62.3838 163.628 62.1702C163.485 61.9487 163.413 61.6558 163.413 61.2915C163.412 60.9114 163.518 60.5787 163.731 60.2933C163.945 60.0079 164.245 59.7897 164.633 59.6387C165.028 59.4797 165.495 59.3999 166.034 59.399C166.446 59.3984 166.862 59.4493 167.281 59.5516C167.709 59.646 168.058 59.784 168.327 59.9658L167.842 60.8692C167.557 60.6796 167.26 60.5494 166.951 60.4786C166.642 60.4077 166.333 60.3726 166.024 60.373C165.525 60.3738 165.153 60.4575 164.908 60.6241C164.663 60.7829 164.541 60.9889 164.541 61.2423C164.541 61.4561 164.613 61.6223 164.756 61.7409C164.906 61.8515 165.097 61.9383 165.326 62.0013C165.564 62.0643 165.826 62.1194 166.111 62.1665C166.396 62.2056 166.681 62.2606 166.966 62.3315C167.251 62.3944 167.509 62.4851 167.739 62.6035C167.977 62.7219 168.167 62.8879 168.31 63.1015C168.461 63.3151 168.537 63.6 168.537 63.9564C168.538 64.3365 168.428 64.6652 168.207 64.9427C167.986 65.2202 167.673 65.4384 167.27 65.5974C166.866 65.7484 166.383 65.8244 165.821 65.8252ZM170.351 68.0515L169.27 68.0531C169.751 67.213 170.102 66.3375 170.322 65.4265C170.542 64.5077 170.651 63.5296 170.648 62.4922C170.646 61.4549 170.534 60.4811 170.31 59.5708C170.086 58.6526 169.732 57.7742 169.248 56.9355L170.328 56.9339C170.797 57.638 171.151 58.4689 171.391 59.4267C171.638 60.3765 171.763 61.3978 171.765 62.4906C171.767 63.5833 171.646 64.605 171.403 65.5556C171.167 66.4982 170.817 67.3302 170.351 68.0515Z" fill="black"/>
<path d="M182.879 61.8721H218.768" stroke="url(#paint0_linear_2175_6)" stroke-width="0.863039"/>
<path d="M35.8887 61.8779H-0.000475645" stroke="url(#paint1_linear_2175_6)" stroke-width="0.863039"/>
<path d="M244.107 46.4317C243.288 45.1942 242.652 43.7658 242.199 42.1466C241.761 40.5137 241.539 38.758 241.535 36.8795C241.532 35.0009 241.746 33.2446 242.178 31.6104C242.624 29.9626 243.254 28.5323 244.069 27.3196L247.111 27.315C246.257 28.8546 245.633 30.4073 245.242 31.9734C244.85 33.5258 244.656 35.1596 244.66 36.8748C244.663 38.59 244.864 40.23 245.262 41.7949C245.659 43.3461 246.289 44.8902 247.149 46.4272L244.107 46.4317ZM253.828 42.7009C252.834 42.7024 251.847 42.5746 250.866 42.3174C249.899 42.0466 249.068 41.6667 248.373 41.1777L249.674 38.6438C250.22 39.0377 250.846 39.3499 251.555 39.5802C252.277 39.8106 253.005 39.9252 253.74 39.9241C254.571 39.9228 255.224 39.7585 255.7 39.4311C256.175 39.1037 256.413 38.6473 256.411 38.062C256.411 37.6944 256.315 37.3679 256.124 37.0823C255.933 36.7967 255.592 36.5794 255.101 36.4304C254.625 36.2814 253.951 36.2075 253.079 36.2088L249.424 36.2143L250.143 28.1681L258.862 28.1551L258.868 30.8095L251.333 30.8208L253.045 29.3072L252.546 35.0457L250.828 33.5373L253.85 33.5328C255.266 33.5307 256.403 33.7263 257.261 34.1198C258.133 34.4997 258.767 35.0228 259.163 35.6892C259.559 36.3557 259.758 37.1109 259.76 37.9549C259.762 38.7988 259.552 39.5819 259.132 40.304C258.711 41.0125 258.059 41.592 257.175 42.0425C256.305 42.4794 255.189 42.6989 253.828 42.7009ZM274.123 42.6706C272.979 42.6723 271.883 42.5242 270.834 42.2263C269.785 41.9148 268.941 41.5145 268.3 41.0254L269.418 38.5326C270.031 38.9673 270.754 39.3269 271.585 39.6115C272.429 39.8825 273.28 40.0174 274.138 40.0161C274.791 40.0151 275.315 39.9531 275.71 39.83C276.118 39.6932 276.417 39.509 276.607 39.2773C276.797 39.0456 276.892 38.78 276.891 38.4806C276.89 38.0994 276.74 37.8002 276.44 37.5828C276.14 37.3518 275.745 37.1687 275.255 37.0333C274.764 36.8843 274.22 36.7489 273.62 36.6273C273.035 36.4921 272.442 36.3296 271.843 36.1399C271.257 35.9502 270.719 35.706 270.228 35.4073C269.738 35.1085 269.335 34.7143 269.021 34.2248C268.721 33.7351 268.57 33.1092 268.568 32.3469C268.567 31.5301 268.783 30.7879 269.217 30.1202C269.665 29.4389 270.331 28.9002 271.215 28.5041C272.113 28.0944 273.235 27.8886 274.583 27.8865C275.481 27.8852 276.366 27.9928 277.238 28.2093C278.11 28.4122 278.879 28.7241 279.547 29.1451L278.531 31.6582C277.864 31.278 277.196 30.9999 276.529 30.824C275.861 30.6344 275.208 30.5401 274.568 30.541C273.928 30.542 273.404 30.6176 272.996 30.768C272.588 30.9183 272.296 31.1162 272.119 31.3615C271.943 31.5931 271.855 31.8655 271.855 32.1786C271.856 32.5462 272.007 32.8454 272.306 33.0764C272.606 33.2937 273.002 33.4701 273.492 33.6055C273.982 33.7409 274.52 33.8762 275.106 34.0115C275.705 34.1467 276.297 34.3024 276.883 34.4784C277.482 34.6545 278.027 34.8919 278.518 35.1907C279.009 35.4894 279.404 35.8836 279.705 36.3732C280.019 36.8628 280.177 37.4819 280.178 38.2306C280.18 39.0338 279.957 39.7692 279.509 40.4369C279.061 41.1046 278.388 41.6433 277.491 42.053C276.607 42.4627 275.484 42.6686 274.123 42.6706ZM283.039 42.4122L283.017 31.4268L286.202 31.4221L286.224 42.4075L283.039 42.4122ZM284.607 29.893C284.021 29.8939 283.544 29.7245 283.176 29.3847C282.808 29.0449 282.623 28.6232 282.622 28.1195C282.621 27.6159 282.804 27.1936 283.171 26.8527C283.538 26.5119 284.014 26.341 284.599 26.3401C285.185 26.3393 285.662 26.5019 286.03 26.8281C286.398 27.1406 286.582 27.5487 286.584 28.0524C286.585 28.5833 286.402 29.0259 286.035 29.3804C285.682 29.7213 285.206 29.8921 284.607 29.893ZM294.715 42.5581C293.68 42.5597 292.747 42.3297 291.916 41.8681C291.084 41.3929 290.423 40.7336 289.931 39.8904C289.453 39.0471 289.213 38.0538 289.21 36.9103C289.208 35.7532 289.444 34.7523 289.919 33.9076C290.407 33.0629 291.066 32.4085 291.896 31.9445C292.725 31.4804 293.657 31.2476 294.692 31.246C295.617 31.2446 296.428 31.4476 297.123 31.855C297.818 32.2623 298.357 32.8809 298.74 33.7107C299.123 34.5405 299.315 35.602 299.318 36.8952C299.32 38.1748 299.139 39.2368 298.773 40.0814C298.407 40.9123 297.877 41.5325 297.184 41.9419C296.504 42.3513 295.681 42.5567 294.715 42.5581ZM295.261 39.9437C295.778 39.9429 296.247 39.8197 296.669 39.574C297.09 39.3284 297.423 38.9808 297.667 38.5312C297.925 38.068 298.053 37.5233 298.052 36.8971C298.051 36.2573 297.92 35.713 297.661 35.2641C297.415 34.8153 297.08 34.4687 296.658 34.2243C296.236 33.9799 295.766 33.8581 295.248 33.8588C294.717 33.8596 294.241 33.9829 293.82 34.2285C293.398 34.4742 293.059 34.8218 292.801 35.2714C292.557 35.721 292.435 36.2657 292.437 36.9055C292.438 37.5317 292.562 38.076 292.807 38.5384C293.067 38.9873 293.408 39.3339 293.831 39.5783C294.253 39.8227 294.73 39.9445 295.261 39.9437ZM298.145 42.3897L298.14 40.1436L298.195 36.8764L297.984 33.6301L297.971 27.239L301.157 27.2342L301.187 42.3851L298.145 42.3897ZM310.404 42.5347C309.152 42.5365 308.049 42.2932 307.095 41.8045C306.154 41.3159 305.425 40.65 304.906 39.8067C304.387 38.9499 304.126 37.977 304.124 36.888C304.122 35.7854 304.372 34.8117 304.874 33.967C305.389 33.1086 306.089 32.4405 306.973 31.9627C307.857 31.4714 308.857 31.2248 309.973 31.2232C311.048 31.2216 312.015 31.4515 312.874 31.9131C313.746 32.361 314.435 33.0134 314.94 33.8702C315.446 34.7135 315.699 35.7272 315.702 36.9115C315.702 37.034 315.695 37.177 315.682 37.3403C315.669 37.4901 315.656 37.6331 315.642 37.7692L306.719 37.7826L306.715 35.9244L313.964 35.9136L312.74 36.4667C312.739 35.895 312.622 35.3983 312.39 34.9767C312.158 34.555 311.837 34.2288 311.428 33.998C311.019 33.7536 310.543 33.6318 309.998 33.6326C309.454 33.6334 308.971 33.7566 308.549 34.0023C308.141 34.2343 307.822 34.5683 307.592 35.0043C307.361 35.4266 307.246 35.9304 307.247 36.5158L307.248 37.0058C307.25 37.6048 307.38 38.1355 307.64 38.5979C307.913 39.0467 308.288 39.3933 308.765 39.6376C309.255 39.8683 309.827 39.9832 310.481 39.9822C311.066 39.9813 311.576 39.8921 312.012 39.7144C312.46 39.5368 312.868 39.2708 313.235 38.9163L314.934 40.7514C314.431 41.3239 313.799 41.7673 313.037 42.0815C312.276 42.3821 311.398 42.5332 310.404 42.5347ZM320.435 46.3176L317.392 46.3222C318.274 44.7826 318.904 43.2366 319.282 41.6842C319.673 40.1182 319.868 38.4776 319.864 36.7624C319.861 35.0472 319.66 33.4139 319.262 31.8627C318.878 30.2978 318.242 28.7469 317.354 27.21L320.396 27.2055C321.243 28.4157 321.885 29.8441 322.324 31.4906C322.763 33.1234 322.984 34.8791 322.988 36.7577C322.992 38.6362 322.778 40.3926 322.345 42.0268C321.913 43.6473 321.276 45.0776 320.435 46.3176Z" fill="#490606"/>
<defs>
<linearGradient id="paint0_linear_2175_6" x1="213.385" y1="62.372" x2="183.477" y2="62.3721" gradientUnits="userSpaceOnUse">
<stop stop-color="#666666" stop-opacity="0"/>
<stop offset="1"/>
</linearGradient>
<linearGradient id="paint1_linear_2175_6" x1="5.38289" y1="62.3779" x2="35.2905" y2="62.3779" gradientUnits="userSpaceOnUse">
<stop stop-color="#666666" stop-opacity="0"/>
<stop offset="1"/>
</linearGradient>
</defs>
</svg>
