<svg width="208" height="298" viewBox="0 0 208 298" fill="none" xmlns="http://www.w3.org/2000/svg">
<rect x="2.50578" y="13.8549" width="203.069" height="149.626" rx="22.0671" fill="url(#paint0_linear_2039_601)" stroke="#A3B988" stroke-width="3.22934"/>
<path d="M0.891602 165.096L207.19 165.096V288.887H0.891602L0.891602 165.096Z" fill="#F6F3F3"/>
<path d="M0.891113 286.734H207.19V286.734C207.19 292.679 202.37 297.499 196.425 297.499H11.6556C5.71052 297.499 0.891113 292.679 0.891113 286.734V286.734Z" fill="url(#paint1_linear_2039_601)"/>
<path d="M0.891113 286.734H101.389C107.334 286.734 112.153 291.554 112.153 297.499V297.499H11.6556C5.71053 297.499 0.891113 292.679 0.891113 286.734V286.734Z" fill="#323131"/>
<rect x="23.1167" width="161.206" height="22.6054" rx="11.3027" fill="#899F61"/>
<path d="M37.3164 15.8027L37.3164 6.76059L39.409 6.76059L39.409 15.8027L37.3164 15.8027ZM41.5549 15.8027L41.5549 6.76059L43.2858 6.76059L47.1352 13.1418L46.2181 13.1418L50.0028 6.76059L51.7209 6.76059L51.7467 15.8027L49.7832 15.8027L49.7703 9.77033L50.132 9.77033L47.1094 14.8468L46.1664 14.8468L43.0791 9.77033L43.5183 9.77033L43.5183 15.8027L41.5549 15.8027ZM53.892 15.8027L53.892 6.76059L55.9846 6.76059L55.9846 14.0976L60.5186 14.0976L60.5186 15.8027L53.892 15.8027ZM65.346 15.8027L65.346 6.76059L67.0769 6.76059L70.9263 13.1418L70.0092 13.1418L73.794 6.76059L75.512 6.76059L75.5378 15.8027L73.5744 15.8027L73.5615 9.77033L73.9231 9.77033L70.9005 14.8468L69.9575 14.8468L66.8703 9.77033L67.3095 9.77033L67.3095 15.8027L65.346 15.8027ZM82.075 15.9577C81.3602 15.9577 80.6971 15.8415 80.0857 15.609C79.4829 15.3765 78.9576 15.0492 78.5098 14.6273C78.0706 14.2053 77.7262 13.7101 77.4764 13.1418C77.2353 12.5734 77.1147 11.9534 77.1147 11.2817C77.1147 10.61 77.2353 9.98993 77.4764 9.42156C77.7262 8.8532 78.0749 8.35804 78.5227 7.93607C78.9705 7.5141 79.4958 7.18686 80.0986 6.95435C80.7015 6.72184 81.3559 6.60558 82.0621 6.60558C82.7768 6.60558 83.4313 6.72184 84.0255 6.95435C84.6283 7.18686 85.1493 7.5141 85.5885 7.93607C86.0363 8.35804 86.3851 8.8532 86.6348 9.42156C86.8846 9.98132 87.0094 10.6013 87.0094 11.2817C87.0094 11.9534 86.8846 12.5777 86.6348 13.1547C86.3851 13.723 86.0363 14.2182 85.5885 14.6402C85.1493 15.0535 84.6283 15.3765 84.0255 15.609C83.4313 15.8415 82.7811 15.9577 82.075 15.9577ZM82.0621 14.1751C82.4668 14.1751 82.8371 14.1063 83.173 13.9685C83.5174 13.8307 83.8188 13.6326 84.0772 13.3743C84.3355 13.1159 84.5336 12.8102 84.6714 12.4571C84.8178 12.1041 84.891 11.7122 84.891 11.2817C84.891 10.8511 84.8178 10.4593 84.6714 10.1062C84.5336 9.75311 84.3355 9.4474 84.0772 9.18905C83.8275 8.9307 83.5304 8.73264 83.1859 8.59485C82.8414 8.45707 82.4668 8.38818 82.0621 8.38818C81.6573 8.38818 81.2827 8.45707 80.9383 8.59485C80.6024 8.73264 80.3053 8.9307 80.047 9.18905C79.7886 9.4474 79.5863 9.75311 79.4399 10.1062C79.3021 10.4593 79.2332 10.8511 79.2332 11.2817C79.2332 11.7036 79.3021 12.0955 79.4399 12.4571C79.5863 12.8102 79.7843 13.1159 80.0341 13.3743C80.2924 13.6326 80.5938 13.8307 80.9383 13.9685C81.2827 14.1063 81.6573 14.1751 82.0621 14.1751ZM92.9611 15.9577C92.2549 15.9577 91.5962 15.8415 90.9847 15.609C90.3819 15.3765 89.8566 15.0492 89.4088 14.6273C88.9696 14.2053 88.6252 13.7101 88.3754 13.1418C88.1343 12.5734 88.0137 11.9534 88.0137 11.2817C88.0137 10.61 88.1343 9.98993 88.3754 9.42156C88.6252 8.8532 88.9739 8.35804 89.4217 7.93607C89.8695 7.5141 90.3948 7.18686 90.9977 6.95435C91.6005 6.72184 92.2549 6.60558 92.9611 6.60558C93.6758 6.60558 94.3303 6.72184 94.9245 6.95435C95.5273 7.18686 96.0483 7.5141 96.4875 7.93607C96.9353 8.34942 97.2841 8.84028 97.5338 9.40865C97.7836 9.97701 97.9084 10.6013 97.9084 11.2817C97.9084 11.9534 97.7836 12.5777 97.5338 13.1547C97.2841 13.723 96.9353 14.2182 96.4875 14.6402C96.0483 15.0535 95.5273 15.3765 94.9245 15.609C94.3303 15.8415 93.6758 15.9577 92.9611 15.9577ZM95.9192 17.8824C95.5661 17.8824 95.2302 17.8437 94.9116 17.7662C94.6016 17.6887 94.2916 17.5638 93.9816 17.3916C93.6802 17.2193 93.3615 16.9868 93.0257 16.694C92.6984 16.4012 92.3411 16.0396 91.9535 15.609L94.1495 15.0535C94.382 15.3722 94.5973 15.6262 94.7954 15.8156C94.9934 16.0051 95.1829 16.1386 95.3637 16.2161C95.5532 16.2936 95.7512 16.3323 95.9579 16.3323C96.5091 16.3323 96.9999 16.1084 97.4305 15.6606L98.3605 16.7715C97.7491 17.5121 96.9353 17.8824 95.9192 17.8824ZM92.9611 14.1751C93.3658 14.1751 93.7361 14.1063 94.072 13.9685C94.4164 13.8307 94.7178 13.6326 94.9762 13.3743C95.2345 13.1159 95.4326 12.8102 95.5704 12.4571C95.7168 12.0955 95.79 11.7036 95.79 11.2817C95.79 10.8511 95.7168 10.4593 95.5704 10.1062C95.4326 9.75311 95.2345 9.4474 94.9762 9.18905C94.7178 8.9307 94.4164 8.73264 94.072 8.59485C93.7361 8.45707 93.3658 8.38818 92.9611 8.38818C92.5563 8.38818 92.1817 8.45707 91.8373 8.59485C91.4928 8.73264 91.1914 8.9307 90.9331 9.18905C90.6833 9.4474 90.4853 9.75311 90.3389 10.1062C90.2011 10.4593 90.1322 10.8511 90.1322 11.2817C90.1322 11.7036 90.2011 12.0955 90.3389 12.4571C90.4853 12.8102 90.6833 13.1159 90.9331 13.3743C91.1914 13.6326 91.4928 13.8307 91.8373 13.9685C92.1817 14.1063 92.5563 14.1751 92.9611 14.1751ZM102.739 12.9738L102.739 11.3592L106.395 11.3592L106.395 12.9738L102.739 12.9738ZM112.659 15.8027L116.301 7.56147L116.844 8.46568L111.974 8.46568L112.904 7.48396L112.904 9.93826L111.044 9.93826L111.044 6.76059L118.291 6.76059L118.291 8.11691L114.932 15.8027L112.659 15.8027ZM122.082 15.9577C121.453 15.9577 120.829 15.8759 120.209 15.7123C119.598 15.5401 119.072 15.299 118.633 14.9889L119.46 13.3872C119.804 13.6369 120.201 13.835 120.648 13.9814C121.105 14.1278 121.565 14.201 122.03 14.201C122.556 14.201 122.969 14.0976 123.271 13.891C123.572 13.6843 123.723 13.3958 123.723 13.0255C123.723 12.793 123.662 12.5863 123.542 12.4055C123.421 12.2246 123.206 12.0868 122.896 11.9921C122.595 11.8974 122.168 11.85 121.617 11.85L119.305 11.85L119.77 6.76059L125.286 6.76059L125.286 8.43984L120.519 8.43984L121.604 7.48396L121.281 11.1137L120.196 10.1579L122.108 10.1579C123.004 10.1579 123.723 10.2827 124.265 10.5325C124.816 10.7736 125.217 11.1051 125.466 11.5271C125.716 11.9491 125.841 12.427 125.841 12.9609C125.841 13.4948 125.708 13.99 125.441 14.4464C125.174 14.8942 124.76 15.2602 124.201 15.5444C123.649 15.82 122.943 15.9577 122.082 15.9577ZM130.565 15.9577C129.825 15.9577 129.162 15.7769 128.576 15.4152C127.99 15.0449 127.53 14.511 127.194 13.8135C126.858 13.1159 126.69 12.272 126.69 11.2817C126.69 10.2913 126.858 9.4474 127.194 8.74986C127.53 8.05232 127.99 7.52271 128.576 7.16103C129.162 6.79073 129.825 6.60558 130.565 6.60558C131.314 6.60558 131.978 6.79073 132.555 7.16103C133.14 7.52271 133.601 8.05232 133.937 8.74986C134.273 9.4474 134.44 10.2913 134.44 11.2817C134.44 12.272 134.273 13.1159 133.937 13.8135C133.601 14.511 133.14 15.0449 132.555 15.4152C131.978 15.7769 131.314 15.9577 130.565 15.9577ZM130.565 14.1881C130.918 14.1881 131.224 14.089 131.482 13.891C131.749 13.6929 131.956 13.3786 132.102 12.948C132.257 12.5174 132.335 11.962 132.335 11.2817C132.335 10.6013 132.257 10.0459 132.102 9.61532C131.956 9.18475 131.749 8.87042 131.482 8.67236C131.224 8.47429 130.918 8.37526 130.565 8.37526C130.221 8.37526 129.915 8.47429 129.648 8.67236C129.39 8.87042 129.183 9.18475 129.028 9.61532C128.882 10.0459 128.809 10.6013 128.809 11.2817C128.809 11.962 128.882 12.5174 129.028 12.948C129.183 13.3786 129.39 13.6929 129.648 13.891C129.915 14.089 130.221 14.1881 130.565 14.1881ZM139.332 15.9577C138.592 15.9577 137.929 15.7769 137.343 15.4152C136.758 15.0449 136.297 14.511 135.961 13.8135C135.625 13.1159 135.457 12.272 135.457 11.2817C135.457 10.2913 135.625 9.4474 135.961 8.74986C136.297 8.05232 136.758 7.52271 137.343 7.16103C137.929 6.79073 138.592 6.60558 139.332 6.60558C140.082 6.60558 140.745 6.79073 141.322 7.16103C141.907 7.52271 142.368 8.05232 142.704 8.74986C143.04 9.4474 143.208 10.2913 143.208 11.2817C143.208 12.272 143.04 13.1159 142.704 13.8135C142.368 14.511 141.907 15.0449 141.322 15.4152C140.745 15.7769 140.082 15.9577 139.332 15.9577ZM139.332 14.1881C139.686 14.1881 139.991 14.089 140.25 13.891C140.517 13.6929 140.723 13.3786 140.87 12.948C141.025 12.5174 141.102 11.962 141.102 11.2817C141.102 10.6013 141.025 10.0459 140.87 9.61532C140.723 9.18474 140.517 8.87042 140.25 8.67236C139.991 8.47429 139.686 8.37526 139.332 8.37526C138.988 8.37526 138.682 8.47429 138.415 8.67236C138.157 8.87042 137.95 9.18474 137.795 9.61532C137.649 10.0459 137.576 10.6013 137.576 11.2817C137.576 11.962 137.649 12.5174 137.795 12.948C137.95 13.3786 138.157 13.6929 138.415 13.891C138.682 14.089 138.988 14.1881 139.332 14.1881ZM148.451 15.8027L148.451 6.76059L152.365 6.76059C153.174 6.76059 153.872 6.89407 154.458 7.16103C155.043 7.41937 155.495 7.79398 155.814 8.28484C156.132 8.7757 156.292 9.36128 156.292 10.0416C156.292 10.7133 156.132 11.2946 155.814 11.7854C155.495 12.2763 155.043 12.6552 154.458 12.9222C153.872 13.1805 153.174 13.3097 152.365 13.3097L149.614 13.3097L150.544 12.3667L150.544 15.8027L148.451 15.8027ZM150.544 12.5992L149.614 11.6046L152.249 11.6046C152.895 11.6046 153.377 11.4668 153.695 11.1912C154.014 10.9157 154.173 10.5325 154.173 10.0416C154.173 9.54213 154.014 9.1546 153.695 8.87903C153.377 8.60346 152.895 8.46568 152.249 8.46568L149.614 8.46568L150.544 7.47104L150.544 12.5992ZM160.99 15.9061C160.24 15.9061 159.573 15.7554 158.987 15.454C158.402 15.1439 157.941 14.7177 157.605 14.1751C157.278 13.6326 157.114 13.0169 157.114 12.328C157.114 11.6304 157.278 11.0147 157.605 10.4808C157.941 9.93826 158.402 9.51629 158.987 9.21489C159.573 8.90487 160.24 8.74986 160.99 8.74986C161.722 8.74986 162.359 8.90487 162.901 9.21488C163.444 9.51629 163.844 9.95117 164.103 10.5195L162.54 11.3592C162.359 11.0319 162.131 10.7908 161.855 10.6358C161.588 10.4808 161.295 10.4033 160.977 10.4033C160.632 10.4033 160.322 10.4808 160.047 10.6358C159.771 10.7908 159.551 11.0104 159.388 11.2946C159.233 11.5788 159.155 11.9232 159.155 12.328C159.155 12.7327 159.233 13.0772 159.388 13.3614C159.551 13.6455 159.771 13.8651 160.047 14.0201C160.322 14.1751 160.632 14.2527 160.977 14.2527C161.295 14.2527 161.588 14.1795 161.855 14.0331C162.131 13.878 162.359 13.6326 162.54 13.2968L164.103 14.1493C163.844 14.7091 163.444 15.1439 162.901 15.454C162.359 15.7554 161.722 15.9061 160.99 15.9061ZM167.601 15.9061C167.007 15.9061 166.434 15.8372 165.883 15.6994C165.34 15.553 164.91 15.3722 164.591 15.1569L165.263 13.7101C165.582 13.9082 165.956 14.0718 166.387 14.201C166.826 14.3215 167.256 14.3818 167.678 14.3818C168.143 14.3818 168.471 14.3258 168.66 14.2139C168.858 14.1019 168.957 13.9469 168.957 13.7489C168.957 13.5853 168.88 13.4647 168.725 13.3872C168.578 13.3011 168.38 13.2365 168.131 13.1934C167.881 13.1504 167.605 13.1073 167.304 13.0643C167.011 13.0212 166.714 12.9652 166.413 12.8963C166.111 12.8188 165.836 12.7069 165.586 12.5605C165.336 12.4141 165.134 12.216 164.979 11.9663C164.832 11.7165 164.759 11.3936 164.759 10.9975C164.759 10.5583 164.884 10.1708 165.134 9.83492C165.392 9.49907 165.762 9.23641 166.245 9.04696C166.727 8.84889 167.304 8.74986 167.976 8.74986C168.449 8.74986 168.931 8.80153 169.422 8.90487C169.913 9.00821 170.322 9.15891 170.649 9.35698L169.978 10.7908C169.642 10.5927 169.302 10.4593 168.957 10.3904C168.621 10.3129 168.294 10.2741 167.976 10.2741C167.528 10.2741 167.2 10.3344 166.994 10.455C166.787 10.5755 166.684 10.7305 166.684 10.92C166.684 11.0922 166.757 11.2214 166.903 11.3075C167.058 11.3936 167.261 11.4625 167.511 11.5142C167.76 11.5658 168.032 11.6132 168.324 11.6563C168.626 11.6907 168.927 11.7467 169.229 11.8242C169.53 11.9017 169.801 12.0136 170.042 12.16C170.292 12.2978 170.494 12.4916 170.649 12.7413C170.804 12.9824 170.882 13.3011 170.882 13.6972C170.882 14.1278 170.753 14.511 170.494 14.8468C170.236 15.1741 169.861 15.4324 169.371 15.6219C168.888 15.8113 168.298 15.9061 167.601 15.9061Z" fill="white"/>
<rect y="137.061" width="207.101" height="40.3749" fill="#39422F"/>
<rect y="137.061" width="207.101" height="40.3749" stroke="white"/>
<path d="M44.5042 166.756C42.9812 166.756 41.6177 166.384 40.4135 165.641C39.2094 164.879 38.262 163.781 37.5714 162.347C36.8807 160.913 36.5354 159.177 36.5354 157.141C36.5354 155.104 36.8807 153.369 37.5714 151.934C38.262 150.5 39.2094 149.411 40.4135 148.667C41.6177 147.906 42.9812 147.525 44.5042 147.525C46.0448 147.525 47.4083 147.906 48.5948 148.667C49.7989 149.411 50.7463 150.5 51.4369 151.934C52.1276 153.369 52.4729 155.104 52.4729 157.141C52.4729 159.177 52.1276 160.913 51.4369 162.347C50.7463 163.781 49.7989 164.879 48.5948 165.641C47.4083 166.384 46.0448 166.756 44.5042 166.756ZM44.5042 163.117C45.2302 163.117 45.8588 162.914 46.3901 162.506C46.939 162.099 47.364 161.453 47.6651 160.567C47.9838 159.682 48.1432 158.54 48.1432 157.141C48.1432 155.742 47.9838 154.6 47.6651 153.714C47.364 152.829 46.939 152.182 46.3901 151.775C45.8588 151.368 45.2302 151.164 44.5042 151.164C43.7958 151.164 43.1672 151.368 42.6182 151.775C42.087 152.182 41.662 152.829 41.3432 153.714C41.0422 154.6 40.8917 155.742 40.8917 157.141C40.8917 158.54 41.0422 159.682 41.3432 160.567C41.662 161.453 42.087 162.099 42.6182 162.506C43.1672 162.914 43.7958 163.117 44.5042 163.117ZM60.8855 166.756C59.5928 166.756 58.3089 166.588 57.0339 166.252C55.7766 165.897 54.6964 165.402 53.7933 164.764L55.4933 161.47C56.2016 161.984 57.0162 162.391 57.9371 162.692C58.8756 162.993 59.823 163.144 60.7792 163.144C61.8594 163.144 62.7094 162.931 63.3292 162.506C63.949 162.081 64.2589 161.488 64.2589 160.727C64.2589 160.248 64.135 159.823 63.887 159.452C63.6391 159.08 63.1964 158.796 62.5589 158.602C61.9391 158.407 61.0626 158.309 59.9292 158.309L55.1746 158.309L56.1308 147.844L67.473 147.844L67.473 151.297L57.6714 151.297L59.9027 149.331L59.2386 156.795L57.0074 154.83L60.9386 154.83C62.7803 154.83 64.2589 155.086 65.3745 155.6C66.5079 156.096 67.3313 156.778 67.8448 157.645C68.3584 158.513 68.6152 159.496 68.6152 160.594C68.6152 161.692 68.3407 162.71 67.7917 163.648C67.2428 164.569 66.3928 165.322 65.2417 165.906C64.1084 166.473 62.6563 166.756 60.8855 166.756ZM70.7063 160.62L70.7063 157.3L78.2235 157.3L78.2235 160.62L70.7063 160.62ZM83.3229 166.437L90.8135 149.491L91.9291 151.35L81.915 151.35L83.8275 149.331L83.8275 154.378L80.0025 154.378L80.0025 147.844L94.9041 147.844L94.9041 150.633L87.9978 166.437L83.3229 166.437ZM102.701 166.756C101.408 166.756 100.124 166.588 98.849 166.252C97.5917 165.897 96.5115 165.402 95.6084 164.764L97.3084 161.47C98.0167 161.984 98.8313 162.391 99.7521 162.692C100.691 162.993 101.638 163.144 102.594 163.144C103.675 163.144 104.525 162.931 105.144 162.506C105.764 162.081 106.074 161.488 106.074 160.727C106.074 160.248 105.95 159.823 105.702 159.452C105.454 159.08 105.011 158.796 104.374 158.602C103.754 158.407 102.878 158.309 101.744 158.309L96.9896 158.309L97.9459 147.844L109.288 147.844L109.288 151.297L99.4865 151.297L101.718 149.331L101.054 156.795L98.8224 154.83L102.754 154.83C104.595 154.83 106.074 155.086 107.19 155.6C108.323 156.096 109.146 156.778 109.66 157.645C110.173 158.513 110.43 159.496 110.43 160.594C110.43 161.692 110.156 162.71 109.607 163.648C109.058 164.569 108.208 165.322 107.057 165.906C105.923 166.473 104.471 166.756 102.701 166.756ZM120.145 166.756C118.622 166.756 117.258 166.384 116.054 165.641C114.85 164.879 113.903 163.781 113.212 162.347C112.521 160.913 112.176 159.177 112.176 157.141C112.176 155.104 112.521 153.369 113.212 151.934C113.903 150.5 114.85 149.411 116.054 148.667C117.258 147.906 118.622 147.525 120.145 147.525C121.685 147.525 123.049 147.906 124.235 148.667C125.44 149.411 126.387 150.5 127.078 151.934C127.768 153.369 128.114 155.104 128.114 157.141C128.114 159.177 127.768 160.913 127.078 162.347C126.387 163.781 125.44 164.879 124.235 165.641C123.049 166.384 121.685 166.756 120.145 166.756ZM120.145 163.117C120.871 163.117 121.499 162.914 122.031 162.506C122.58 162.099 123.005 161.453 123.306 160.567C123.624 159.682 123.784 158.54 123.784 157.141C123.784 155.742 123.624 154.6 123.306 153.714C123.005 152.829 122.58 152.182 122.031 151.775C121.499 151.368 120.871 151.164 120.145 151.164C119.436 151.164 118.808 151.368 118.259 151.775C117.728 152.182 117.303 152.829 116.984 153.714C116.683 154.6 116.532 155.742 116.532 157.141C116.532 158.54 116.683 159.682 116.984 160.567C117.303 161.453 117.728 162.099 118.259 162.506C118.808 162.914 119.436 163.117 120.145 163.117ZM156.905 151.934C158.038 151.934 159.039 152.165 159.906 152.625C160.792 153.068 161.483 153.758 161.978 154.697C162.492 155.618 162.749 156.804 162.749 158.256L162.749 166.437L158.605 166.437L158.605 158.894C158.605 157.743 158.366 156.893 157.888 156.344C157.41 155.795 156.737 155.52 155.869 155.52C155.267 155.52 154.727 155.662 154.249 155.945C153.771 156.211 153.399 156.618 153.133 157.167C152.867 157.716 152.735 158.416 152.735 159.266L152.735 166.437L148.591 166.437L148.591 158.894C148.591 157.743 148.352 156.893 147.874 156.344C147.413 155.795 146.749 155.52 145.882 155.52C145.279 155.52 144.739 155.662 144.261 155.945C143.783 156.211 143.411 156.618 143.146 157.167C142.88 157.716 142.747 158.416 142.747 159.266L142.747 166.437L138.603 166.437L138.603 152.147L142.561 152.147L142.561 156.052L141.817 154.909C142.313 153.935 143.013 153.201 143.916 152.705C144.837 152.191 145.882 151.934 147.05 151.934C148.361 151.934 149.503 152.271 150.477 152.944C151.468 153.599 152.124 154.608 152.442 155.972L150.982 155.573C151.46 154.458 152.221 153.572 153.266 152.917C154.328 152.262 155.541 151.934 156.905 151.934ZM166.463 166.437L166.463 146.728L170.607 146.728L170.607 166.437L166.463 166.437Z" fill="#F6F4F3"/>
<path d="M42.3128 198.625V189.522H43.2752V197.793H48.3731V198.625H42.3128ZM54.0546 198.625V197.116L54.0156 196.869V194.346C54.0156 193.765 53.8508 193.319 53.5214 193.007C53.2006 192.695 52.7194 192.539 52.0778 192.539C51.6357 192.539 51.2152 192.612 50.8163 192.76C50.4175 192.907 50.0794 193.102 49.802 193.345L49.3858 192.656C49.7326 192.361 50.1488 192.136 50.6343 191.979C51.1198 191.815 51.6313 191.732 52.1689 191.732C53.0532 191.732 53.7338 191.953 54.2106 192.396C54.6962 192.829 54.9389 193.492 54.9389 194.385V198.625H54.0546ZM51.7007 198.69C51.1892 198.69 50.7427 198.608 50.3612 198.443C49.9884 198.27 49.7023 198.035 49.5028 197.741C49.3034 197.437 49.2037 197.09 49.2037 196.7C49.2037 196.345 49.2861 196.024 49.4508 195.738C49.6242 195.443 49.9017 195.209 50.2831 195.036C50.6733 194.854 51.1935 194.763 51.8437 194.763H54.1976V195.452H51.8697C51.2108 195.452 50.7513 195.569 50.4912 195.803C50.2398 196.037 50.1141 196.327 50.1141 196.674C50.1141 197.064 50.2658 197.377 50.5693 197.611C50.8727 197.845 51.2975 197.962 51.8437 197.962C52.3639 197.962 52.8104 197.845 53.1832 197.611C53.5647 197.368 53.8422 197.021 54.0156 196.57L54.2236 197.207C54.0502 197.658 53.7468 198.018 53.3133 198.287C52.8885 198.556 52.3509 198.69 51.7007 198.69ZM57.4468 198.625V191.797H58.3312V193.657L58.2401 193.332C58.4309 192.812 58.7517 192.417 59.2025 192.149C59.6534 191.871 60.2126 191.732 60.8802 191.732V192.63C60.8455 192.63 60.8108 192.63 60.7761 192.63C60.7414 192.621 60.7068 192.617 60.6721 192.617C59.9525 192.617 59.3889 192.838 58.9814 193.28C58.5739 193.713 58.3702 194.333 58.3702 195.14V198.625H57.4468ZM65.4146 201.213C64.7904 201.213 64.1922 201.122 63.6199 200.94C63.0477 200.758 62.5839 200.498 62.2284 200.16L62.6966 199.457C63.0174 199.743 63.4119 199.969 63.88 200.134C64.3569 200.307 64.8597 200.394 65.3886 200.394C66.2556 200.394 66.8929 200.19 67.3003 199.782C67.7078 199.384 67.9116 198.759 67.9116 197.91V196.206L68.0416 195.036L67.9506 193.865V191.797H68.8349V197.793C68.8349 198.972 68.5445 199.834 67.9636 200.381C67.3914 200.936 66.5417 201.213 65.4146 201.213ZM65.2456 198.365C64.5953 198.365 64.0101 198.226 63.4899 197.949C62.9697 197.663 62.5579 197.268 62.2544 196.765C61.9596 196.262 61.8122 195.686 61.8122 195.036C61.8122 194.385 61.9596 193.813 62.2544 193.319C62.5579 192.816 62.9697 192.426 63.4899 192.149C64.0101 191.871 64.5953 191.732 65.2456 191.732C65.8525 191.732 66.3987 191.858 66.8842 192.11C67.3697 192.361 67.7555 192.734 68.0416 193.228C68.3277 193.722 68.4708 194.325 68.4708 195.036C68.4708 195.747 68.3277 196.349 68.0416 196.843C67.7555 197.338 67.3697 197.715 66.8842 197.975C66.3987 198.235 65.8525 198.365 65.2456 198.365ZM65.3366 197.546C65.8395 197.546 66.286 197.442 66.6761 197.233C67.0663 197.017 67.374 196.722 67.5995 196.349C67.8249 195.968 67.9376 195.53 67.9376 195.036C67.9376 194.541 67.8249 194.108 67.5995 193.735C67.374 193.362 67.0663 193.072 66.6761 192.864C66.286 192.647 65.8395 192.539 65.3366 192.539C64.8424 192.539 64.3959 192.647 63.9971 192.864C63.6069 193.072 63.2991 193.362 63.0737 193.735C62.857 194.108 62.7486 194.541 62.7486 195.036C62.7486 195.53 62.857 195.968 63.0737 196.349C63.2991 196.722 63.6069 197.017 63.9971 197.233C64.3959 197.442 64.8424 197.546 65.3366 197.546ZM74.3044 198.69C73.5935 198.69 72.9693 198.543 72.4317 198.248C71.8942 197.944 71.4737 197.533 71.1702 197.012C70.8668 196.484 70.7151 195.881 70.7151 195.205C70.7151 194.528 70.8581 193.93 71.1442 193.41C71.439 192.89 71.8378 192.482 72.3407 192.188C72.8522 191.884 73.4244 191.732 74.0573 191.732C74.6989 191.732 75.2668 191.88 75.761 192.175C76.2638 192.461 76.6583 192.868 76.9444 193.397C77.2305 193.917 77.3736 194.52 77.3736 195.205C77.3736 195.248 77.3693 195.296 77.3606 195.348C77.3606 195.391 77.3606 195.439 77.3606 195.491H71.4173V194.802H76.8664L76.5023 195.075C76.5023 194.58 76.3939 194.143 76.1771 193.761C75.9691 193.371 75.683 193.068 75.3188 192.851C74.9547 192.634 74.5342 192.526 74.0573 192.526C73.5892 192.526 73.1687 192.634 72.7959 192.851C72.423 193.068 72.1326 193.371 71.9245 193.761C71.7164 194.151 71.6124 194.598 71.6124 195.101V195.244C71.6124 195.764 71.7251 196.223 71.9505 196.622C72.1846 197.012 72.5054 197.32 72.9129 197.546C73.3291 197.762 73.8016 197.871 74.3304 197.871C74.7466 197.871 75.1324 197.797 75.4879 197.65C75.852 197.502 76.1641 197.277 76.4242 196.973L76.9444 197.572C76.641 197.936 76.2595 198.213 75.8 198.404C75.3492 198.595 74.8506 198.69 74.3044 198.69ZM78.8728 195.504V194.698H82.2801V195.504H78.8728ZM88.596 198.703C87.911 198.703 87.2781 198.59 86.6972 198.365C86.1164 198.131 85.6135 197.806 85.1887 197.39C84.7638 196.973 84.43 196.484 84.1873 195.92C83.9532 195.356 83.8362 194.741 83.8362 194.073C83.8362 193.406 83.9532 192.79 84.1873 192.227C84.43 191.663 84.7638 191.173 85.1887 190.757C85.6222 190.341 86.1294 190.02 86.7103 189.795C87.2911 189.561 87.924 189.443 88.609 189.443C89.2679 189.443 89.8878 189.556 90.4687 189.782C91.0496 189.998 91.5394 190.328 91.9382 190.77L91.327 191.381C90.9542 191 90.5424 190.727 90.0915 190.562C89.6407 190.389 89.1552 190.302 88.635 190.302C88.0888 190.302 87.5816 190.397 87.1134 190.588C86.6452 190.77 86.2377 191.034 85.8909 191.381C85.5441 191.719 85.271 192.118 85.0716 192.578C84.8809 193.029 84.7855 193.527 84.7855 194.073C84.7855 194.619 84.8809 195.122 85.0716 195.582C85.271 196.033 85.5441 196.431 85.8909 196.778C86.2377 197.116 86.6452 197.381 87.1134 197.572C87.5816 197.754 88.0888 197.845 88.635 197.845C89.1552 197.845 89.6407 197.758 90.0915 197.585C90.5424 197.411 90.9542 197.134 91.327 196.752L91.9382 197.364C91.5394 197.806 91.0496 198.139 90.4687 198.365C89.8878 198.59 89.2636 198.703 88.596 198.703ZM97.9717 198.625V197.116L97.9327 196.869V194.346C97.9327 193.765 97.768 193.319 97.4385 193.007C97.1177 192.695 96.6366 192.539 95.995 192.539C95.5528 192.539 95.1323 192.612 94.7335 192.76C94.3347 192.907 93.9965 193.102 93.7191 193.345L93.303 192.656C93.6498 192.361 94.0659 192.136 94.5514 191.979C95.0369 191.815 95.5485 191.732 96.086 191.732C96.9704 191.732 97.6509 191.953 98.1278 192.396C98.6133 192.829 98.8561 193.492 98.8561 194.385V198.625H97.9717ZM95.6178 198.69C95.1063 198.69 94.6598 198.608 94.2783 198.443C93.9055 198.27 93.6194 198.035 93.42 197.741C93.2206 197.437 93.1209 197.09 93.1209 196.7C93.1209 196.345 93.2032 196.024 93.368 195.738C93.5414 195.443 93.8188 195.209 94.2003 195.036C94.5904 194.854 95.1106 194.763 95.7609 194.763H98.1148V195.452H95.7869C95.128 195.452 94.6685 195.569 94.4084 195.803C94.1569 196.037 94.0312 196.327 94.0312 196.674C94.0312 197.064 94.183 197.377 94.4864 197.611C94.7899 197.845 95.2147 197.962 95.7609 197.962C96.2811 197.962 96.7276 197.845 97.1004 197.611C97.4819 197.368 97.7593 197.021 97.9327 196.57L98.1408 197.207C97.9674 197.658 97.664 198.018 97.2305 198.287C96.8056 198.556 96.2681 198.69 95.6178 198.69ZM104.888 198.69C104.299 198.69 103.766 198.556 103.289 198.287C102.812 198.009 102.43 197.615 102.144 197.103C101.867 196.583 101.728 195.95 101.728 195.205C101.728 194.459 101.867 193.831 102.144 193.319C102.422 192.799 102.799 192.404 103.276 192.136C103.753 191.867 104.29 191.732 104.888 191.732C105.539 191.732 106.119 191.88 106.631 192.175C107.151 192.461 107.559 192.868 107.853 193.397C108.148 193.917 108.296 194.52 108.296 195.205C108.296 195.898 108.148 196.505 107.853 197.025C107.559 197.546 107.151 197.953 106.631 198.248C106.119 198.543 105.539 198.69 104.888 198.69ZM101.364 201.148V191.797H102.248V193.852L102.157 195.218L102.287 196.596V201.148H101.364ZM104.823 197.871C105.309 197.871 105.742 197.762 106.124 197.546C106.505 197.32 106.809 197.008 107.034 196.609C107.26 196.202 107.372 195.734 107.372 195.205C107.372 194.676 107.26 194.212 107.034 193.813C106.809 193.414 106.505 193.102 106.124 192.877C105.742 192.651 105.309 192.539 104.823 192.539C104.338 192.539 103.9 192.651 103.51 192.877C103.128 193.102 102.825 193.414 102.599 193.813C102.383 194.212 102.274 194.676 102.274 195.205C102.274 195.734 102.383 196.202 102.599 196.609C102.825 197.008 103.128 197.32 103.51 197.546C103.9 197.762 104.338 197.871 104.823 197.871ZM114.418 198.625V197.116L114.379 196.869V194.346C114.379 193.765 114.215 193.319 113.885 193.007C113.564 192.695 113.083 192.539 112.442 192.539C112 192.539 111.579 192.612 111.18 192.76C110.781 192.907 110.443 193.102 110.166 193.345L109.75 192.656C110.096 192.361 110.513 192.136 110.998 191.979C111.484 191.815 111.995 191.732 112.533 191.732C113.417 191.732 114.098 191.953 114.575 192.396C115.06 192.829 115.303 193.492 115.303 194.385V198.625H114.418ZM112.065 198.69C111.553 198.69 111.107 198.608 110.725 198.443C110.352 198.27 110.066 198.035 109.867 197.741C109.667 197.437 109.568 197.09 109.568 196.7C109.568 196.345 109.65 196.024 109.815 195.738C109.988 195.443 110.266 195.209 110.647 195.036C111.037 194.854 111.557 194.763 112.208 194.763H114.562V195.452H112.234C111.575 195.452 111.115 195.569 110.855 195.803C110.604 196.037 110.478 196.327 110.478 196.674C110.478 197.064 110.63 197.377 110.933 197.611C111.237 197.845 111.661 197.962 112.208 197.962C112.728 197.962 113.174 197.845 113.547 197.611C113.929 197.368 114.206 197.021 114.379 196.57L114.588 197.207C114.414 197.658 114.111 198.018 113.677 198.287C113.252 198.556 112.715 198.69 112.065 198.69ZM120.646 198.69C119.97 198.69 119.363 198.543 118.825 198.248C118.296 197.944 117.88 197.533 117.577 197.012C117.273 196.484 117.121 195.881 117.121 195.205C117.121 194.52 117.273 193.917 117.577 193.397C117.88 192.877 118.296 192.469 118.825 192.175C119.363 191.88 119.97 191.732 120.646 191.732C121.227 191.732 121.751 191.845 122.219 192.07C122.688 192.296 123.056 192.634 123.325 193.085L122.636 193.553C122.401 193.206 122.111 192.951 121.764 192.786C121.417 192.621 121.04 192.539 120.633 192.539C120.147 192.539 119.709 192.651 119.319 192.877C118.929 193.094 118.621 193.401 118.396 193.8C118.171 194.199 118.058 194.667 118.058 195.205C118.058 195.742 118.171 196.21 118.396 196.609C118.621 197.008 118.929 197.32 119.319 197.546C119.709 197.762 120.147 197.871 120.633 197.871C121.04 197.871 121.417 197.788 121.764 197.624C122.111 197.459 122.401 197.207 122.636 196.869L123.325 197.338C123.056 197.78 122.688 198.118 122.219 198.352C121.751 198.577 121.227 198.69 120.646 198.69ZM125.037 198.625V191.797H125.96V198.625H125.037ZM125.505 190.289C125.315 190.289 125.154 190.224 125.024 190.094C124.894 189.964 124.829 189.808 124.829 189.626C124.829 189.443 124.894 189.292 125.024 189.17C125.154 189.04 125.315 188.975 125.505 188.975C125.696 188.975 125.856 189.036 125.986 189.157C126.117 189.279 126.182 189.43 126.182 189.613C126.182 189.803 126.117 189.964 125.986 190.094C125.865 190.224 125.705 190.289 125.505 190.289ZM130.688 198.69C130.047 198.69 129.553 198.517 129.206 198.17C128.859 197.823 128.686 197.333 128.686 196.7V190.289H129.609V196.648C129.609 197.047 129.709 197.355 129.908 197.572C130.116 197.788 130.411 197.897 130.793 197.897C131.2 197.897 131.538 197.78 131.807 197.546L132.132 198.209C131.95 198.374 131.729 198.495 131.469 198.573C131.217 198.651 130.957 198.69 130.688 198.69ZM127.463 192.565V191.797H131.69V192.565H127.463ZM133.738 201.213C133.417 201.213 133.109 201.161 132.815 201.057C132.528 200.953 132.281 200.797 132.073 200.589L132.502 199.899C132.676 200.064 132.862 200.19 133.062 200.277C133.27 200.372 133.5 200.42 133.751 200.42C134.054 200.42 134.314 200.333 134.531 200.16C134.757 199.995 134.969 199.7 135.168 199.275L135.611 198.274L135.715 198.131L138.524 191.797H139.434L136.014 199.444C135.823 199.886 135.611 200.238 135.377 200.498C135.151 200.758 134.904 200.94 134.635 201.044C134.367 201.157 134.067 201.213 133.738 201.213ZM135.559 198.82L132.411 191.797H133.374L136.157 198.066L135.559 198.82ZM144.333 198.625V189.522H145.296V198.625H144.333ZM148.258 198.625V189.522H149.051L153.212 196.622H152.796L156.919 189.522H157.712V198.625H156.789V190.965H157.01L153.212 197.468H152.757L148.934 190.965H149.181V198.625H148.258ZM160.678 198.625V189.522H161.641V197.793H166.739V198.625H160.678ZM27.3367 217.703C26.6518 217.703 26.0189 217.59 25.438 217.365C24.8571 217.131 24.3543 216.806 23.9294 216.39C23.5046 215.973 23.1708 215.484 22.9281 214.92C22.694 214.356 22.5769 213.741 22.5769 213.073C22.5769 212.406 22.694 211.79 22.9281 211.227C23.1708 210.663 23.5046 210.173 23.9294 209.757C24.3629 209.341 24.8701 209.02 25.451 208.795C26.0319 208.561 26.6648 208.443 27.3498 208.443C28.0087 208.443 28.6286 208.556 29.2095 208.782C29.7904 208.998 30.2802 209.328 30.679 209.77L30.0678 210.381C29.695 210 29.2832 209.727 28.8323 209.562C28.3815 209.389 27.896 209.302 27.3758 209.302C26.8296 209.302 26.3224 209.397 25.8542 209.588C25.386 209.77 24.9785 210.034 24.6317 210.381C24.2849 210.719 24.0118 211.118 23.8124 211.578C23.6217 212.029 23.5263 212.527 23.5263 213.073C23.5263 213.619 23.6217 214.122 23.8124 214.582C24.0118 215.033 24.2849 215.431 24.6317 215.778C24.9785 216.116 25.386 216.381 25.8542 216.572C26.3224 216.754 26.8296 216.845 27.3758 216.845C27.896 216.845 28.3815 216.758 28.8323 216.585C29.2832 216.411 29.695 216.134 30.0678 215.752L30.679 216.364C30.2802 216.806 29.7904 217.139 29.2095 217.365C28.6286 217.59 28.0043 217.703 27.3367 217.703ZM35.0137 217.69C34.3548 217.69 33.7609 217.543 33.2321 217.248C32.7119 216.944 32.3 216.533 31.9966 216.012C31.6931 215.484 31.5414 214.881 31.5414 214.205C31.5414 213.52 31.6931 212.917 31.9966 212.397C32.3 211.877 32.7119 211.469 33.2321 211.175C33.7523 210.88 34.3462 210.732 35.0137 210.732C35.69 210.732 36.2882 210.88 36.8084 211.175C37.3373 211.469 37.7491 211.877 38.0439 212.397C38.3473 212.917 38.4991 213.52 38.4991 214.205C38.4991 214.881 38.3473 215.484 38.0439 216.012C37.7491 216.533 37.3373 216.944 36.8084 217.248C36.2796 217.543 35.6813 217.69 35.0137 217.69ZM35.0137 216.871C35.5079 216.871 35.9458 216.762 36.3272 216.546C36.7087 216.32 37.0078 216.008 37.2246 215.609C37.45 215.202 37.5627 214.734 37.5627 214.205C37.5627 213.667 37.45 213.199 37.2246 212.8C37.0078 212.401 36.7087 212.094 36.3272 211.877C35.9458 211.651 35.5123 211.539 35.0267 211.539C34.5412 211.539 34.1077 211.651 33.7263 211.877C33.3448 212.094 33.0413 212.401 32.8159 212.8C32.5905 213.199 32.4778 213.667 32.4778 214.205C32.4778 214.734 32.5905 215.202 32.8159 215.609C33.0413 216.008 33.3448 216.32 33.7263 216.546C34.1077 216.762 34.5369 216.871 35.0137 216.871ZM43.8695 210.732C44.4244 210.732 44.9099 210.841 45.3261 211.057C45.7509 211.266 46.0804 211.586 46.3144 212.02C46.5572 212.453 46.6786 213 46.6786 213.658V217.625H45.7552V213.75C45.7552 213.03 45.5732 212.488 45.209 212.124C44.8536 211.751 44.3507 211.565 43.7004 211.565C43.2149 211.565 42.7901 211.664 42.426 211.864C42.0705 212.055 41.7931 212.336 41.5936 212.709C41.4029 213.073 41.3075 213.515 41.3075 214.036V217.625H40.3842V210.797H41.2685V212.67L41.1255 212.319C41.3422 211.825 41.689 211.439 42.1659 211.162C42.6427 210.875 43.2106 210.732 43.8695 210.732ZM51.3315 217.69C50.6899 217.69 50.1957 217.517 49.849 217.17C49.5022 216.823 49.3288 216.333 49.3288 215.7V209.289H50.2521V215.648C50.2521 216.047 50.3518 216.355 50.5512 216.572C50.7593 216.788 51.0541 216.897 51.4356 216.897C51.843 216.897 52.1812 216.78 52.4499 216.546L52.7751 217.209C52.593 217.374 52.3719 217.495 52.1118 217.573C51.8604 217.651 51.6003 217.69 51.3315 217.69ZM48.1063 211.565V210.797H52.3329V211.565H48.1063ZM58.7346 217.625V216.116L58.6956 215.869V213.346C58.6956 212.765 58.5308 212.319 58.2014 212.007C57.8806 211.695 57.3994 211.539 56.7578 211.539C56.3157 211.539 55.8952 211.612 55.4964 211.76C55.0975 211.907 54.7594 212.102 54.482 212.345L54.0658 211.656C54.4126 211.361 54.8288 211.136 55.3143 210.979C55.7998 210.815 56.3113 210.732 56.8489 210.732C57.7332 210.732 58.4138 210.953 58.8907 211.396C59.3762 211.829 59.6189 212.492 59.6189 213.385V217.625H58.7346ZM56.3807 217.69C55.8692 217.69 55.4227 217.608 55.0412 217.443C54.6684 217.27 54.3823 217.035 54.1829 216.741C53.9834 216.437 53.8837 216.09 53.8837 215.7C53.8837 215.345 53.9661 215.024 54.1308 214.738C54.3042 214.443 54.5817 214.209 54.9632 214.036C55.3533 213.854 55.8735 213.763 56.5237 213.763H58.8776V214.452H56.5498C55.8908 214.452 55.4313 214.569 55.1712 214.803C54.9198 215.037 54.7941 215.327 54.7941 215.674C54.7941 216.064 54.9458 216.377 55.2493 216.611C55.5527 216.845 55.9775 216.962 56.5237 216.962C57.0439 216.962 57.4905 216.845 57.8633 216.611C58.2447 216.368 58.5222 216.021 58.6956 215.57L58.9037 216.207C58.7303 216.658 58.4268 217.018 57.9933 217.287C57.5685 217.556 57.0309 217.69 56.3807 217.69ZM62.1269 217.625V210.797H63.0502V217.625H62.1269ZM62.595 209.289C62.4043 209.289 62.2439 209.224 62.1139 209.094C61.9838 208.964 61.9188 208.808 61.9188 208.626C61.9188 208.443 61.9838 208.292 62.1139 208.17C62.2439 208.04 62.4043 207.975 62.595 207.975C62.7858 207.975 62.9462 208.036 63.0762 208.157C63.2063 208.279 63.2713 208.43 63.2713 208.613C63.2713 208.803 63.2063 208.964 63.0762 209.094C62.9548 209.224 62.7944 209.289 62.595 209.289ZM69.1047 210.732C69.6596 210.732 70.1451 210.841 70.5613 211.057C70.9861 211.266 71.3156 211.586 71.5497 212.02C71.7924 212.453 71.9138 213 71.9138 213.658V217.625H70.9905V213.75C70.9905 213.03 70.8084 212.488 70.4442 212.124C70.0888 211.751 69.5859 211.565 68.9357 211.565C68.4501 211.565 68.0253 211.664 67.6612 211.864C67.3057 212.055 67.0283 212.336 66.8289 212.709C66.6381 213.073 66.5428 213.515 66.5428 214.036V217.625H65.6194V210.797H66.5037V212.67L66.3607 212.319C66.5774 211.825 66.9242 211.439 67.4011 211.162C67.8779 210.875 68.4458 210.732 69.1047 210.732ZM77.308 217.69C76.5971 217.69 75.9728 217.543 75.4353 217.248C74.8978 216.944 74.4773 216.533 74.1738 216.012C73.8704 215.484 73.7187 214.881 73.7187 214.205C73.7187 213.528 73.8617 212.93 74.1478 212.41C74.4426 211.89 74.8414 211.482 75.3443 211.188C75.8558 210.884 76.428 210.732 77.0609 210.732C77.7025 210.732 78.2704 210.88 78.7646 211.175C79.2674 211.461 79.6619 211.868 79.948 212.397C80.2341 212.917 80.3772 213.52 80.3772 214.205C80.3772 214.248 80.3729 214.296 80.3642 214.348C80.3642 214.391 80.3642 214.439 80.3642 214.491H74.4209V213.802H79.87L79.5059 214.075C79.5059 213.58 79.3975 213.143 79.1807 212.761C78.9727 212.371 78.6865 212.068 78.3224 211.851C77.9583 211.634 77.5378 211.526 77.0609 211.526C76.5927 211.526 76.1723 211.634 75.7994 211.851C75.4266 212.068 75.1362 212.371 74.9281 212.761C74.72 213.151 74.616 213.598 74.616 214.101V214.244C74.616 214.764 74.7287 215.223 74.9541 215.622C75.1882 216.012 75.509 216.32 75.9165 216.546C76.3326 216.762 76.8052 216.871 77.334 216.871C77.7502 216.871 78.136 216.797 78.4915 216.65C78.8556 216.502 79.1677 216.277 79.4278 215.973L79.948 216.572C79.6446 216.936 79.2631 217.213 78.8036 217.404C78.3528 217.595 77.8542 217.69 77.308 217.69ZM82.2566 217.625V210.797H83.1409V212.657L83.0499 212.332C83.2407 211.812 83.5614 211.417 84.0123 211.149C84.4631 210.871 85.0223 210.732 85.6899 210.732V211.63C85.6552 211.63 85.6206 211.63 85.5859 211.63C85.5512 211.621 85.5165 211.617 85.4818 211.617C84.7622 211.617 84.1987 211.838 83.7912 212.28C83.3837 212.713 83.18 213.333 83.18 214.14V217.625H82.2566ZM90.88 217.625V210.797H91.8034V217.625H90.88ZM91.3482 209.289C91.1575 209.289 90.9971 209.224 90.867 209.094C90.737 208.964 90.6719 208.808 90.6719 208.626C90.6719 208.443 90.737 208.292 90.867 208.17C90.9971 208.04 91.1575 207.975 91.3482 207.975C91.5389 207.975 91.6993 208.036 91.8294 208.157C91.9594 208.279 92.0245 208.43 92.0245 208.613C92.0245 208.803 91.9594 208.964 91.8294 209.094C91.708 209.224 91.5476 209.289 91.3482 209.289ZM97.0906 217.69C96.4404 217.69 95.8551 217.543 95.3349 217.248C94.8234 216.953 94.4203 216.546 94.1255 216.025C93.8307 215.497 93.6833 214.89 93.6833 214.205C93.6833 213.511 93.8307 212.904 94.1255 212.384C94.4203 211.864 94.8234 211.461 95.3349 211.175C95.8551 210.88 96.4404 210.732 97.0906 210.732C97.6888 210.732 98.222 210.867 98.6902 211.136C99.1671 211.404 99.5442 211.799 99.8216 212.319C100.108 212.831 100.251 213.459 100.251 214.205C100.251 214.942 100.112 215.57 99.8347 216.09C99.5572 216.611 99.1801 217.009 98.7032 217.287C98.235 217.556 97.6975 217.69 97.0906 217.69ZM97.1556 216.871C97.6411 216.871 98.0746 216.762 98.4561 216.546C98.8463 216.32 99.1497 216.008 99.3665 215.609C99.5919 215.202 99.7046 214.734 99.7046 214.205C99.7046 213.667 99.5919 213.199 99.3665 212.8C99.1497 212.401 98.8463 212.094 98.4561 211.877C98.0746 211.651 97.6411 211.539 97.1556 211.539C96.6788 211.539 96.2496 211.651 95.8681 211.877C95.4867 212.094 95.1832 212.401 94.9578 212.8C94.7324 213.199 94.6197 213.667 94.6197 214.205C94.6197 214.734 94.7324 215.202 94.9578 215.609C95.1832 216.008 95.4867 216.32 95.8681 216.546C96.2496 216.762 96.6788 216.871 97.1556 216.871ZM99.7306 217.625V215.57L99.8216 214.192L99.6916 212.813V207.975H100.615V217.625H99.7306ZM106.087 217.69C105.376 217.69 104.751 217.543 104.214 217.248C103.676 216.944 103.256 216.533 102.952 216.012C102.649 215.484 102.497 214.881 102.497 214.205C102.497 213.528 102.64 212.93 102.926 212.41C103.221 211.89 103.62 211.482 104.123 211.188C104.634 210.884 105.207 210.732 105.839 210.732C106.481 210.732 107.049 210.88 107.543 211.175C108.046 211.461 108.44 211.868 108.727 212.397C109.013 212.917 109.156 213.52 109.156 214.205C109.156 214.248 109.151 214.296 109.143 214.348C109.143 214.391 109.143 214.439 109.143 214.491H103.199V213.802L108.649 213.802L108.284 214.075C108.284 213.58 108.176 213.143 107.959 212.761C107.751 212.371 107.465 212.068 107.101 211.851C106.737 211.634 106.316 211.526 105.839 211.526C105.371 211.526 104.951 211.634 104.578 211.851C104.205 212.068 103.915 212.371 103.707 212.761C103.499 213.151 103.395 213.598 103.395 214.101V214.244C103.395 214.764 103.507 215.223 103.733 215.622C103.967 216.012 104.288 216.32 104.695 216.546C105.111 216.762 105.584 216.871 106.113 216.871C106.529 216.871 106.915 216.797 107.27 216.65C107.634 216.502 107.946 216.277 108.206 215.973L108.727 216.572C108.423 216.936 108.042 217.213 107.582 217.404C107.131 217.595 106.633 217.69 106.087 217.69ZM115.123 217.625V216.116L115.084 215.869V213.346C115.084 212.765 114.92 212.319 114.59 212.007C114.269 211.695 113.788 211.539 113.147 211.539C112.704 211.539 112.284 211.612 111.885 211.76C111.486 211.907 111.148 212.102 110.871 212.345L110.455 211.656C110.801 211.361 111.217 211.136 111.703 210.979C112.189 210.815 112.7 210.732 113.238 210.732C114.122 210.732 114.803 210.953 115.279 211.396C115.765 211.829 116.008 212.492 116.008 213.385V217.625H115.123ZM112.769 217.69C112.258 217.69 111.811 217.608 111.43 217.443C111.057 217.27 110.771 217.035 110.572 216.741C110.372 216.437 110.272 216.09 110.272 215.7C110.272 215.345 110.355 215.024 110.52 214.738C110.693 214.443 110.97 214.209 111.352 214.036C111.742 213.854 112.262 213.763 112.912 213.763H115.266V214.452H112.938C112.28 214.452 111.82 214.569 111.56 214.803C111.309 215.037 111.183 215.327 111.183 215.674C111.183 216.064 111.335 216.377 111.638 216.611C111.941 216.845 112.366 216.962 112.912 216.962C113.433 216.962 113.879 216.845 114.252 216.611C114.633 216.368 114.911 216.021 115.084 215.57L115.292 216.207C115.119 216.658 114.816 217.018 114.382 217.287C113.957 217.556 113.42 217.69 112.769 217.69ZM118.516 217.625V207.975H119.439V217.625L118.516 217.625ZM125.568 217.625V209.939C125.568 209.332 125.746 208.842 126.101 208.47C126.456 208.097 126.968 207.91 127.636 207.91C127.896 207.91 128.147 207.945 128.39 208.014C128.633 208.084 128.836 208.192 129.001 208.339L128.689 209.029C128.559 208.916 128.407 208.834 128.234 208.782C128.06 208.721 127.874 208.691 127.675 208.691C127.284 208.691 126.985 208.799 126.777 209.016C126.569 209.232 126.465 209.553 126.465 209.978V211.018L126.491 211.448V217.625H125.568ZM124.345 211.565V210.797H128.572V211.565H124.345ZM132.487 217.69C131.829 217.69 131.235 217.543 130.706 217.248C130.186 216.944 129.774 216.533 129.47 216.012C129.167 215.484 129.015 214.881 129.015 214.205C129.015 213.52 129.167 212.917 129.47 212.397C129.774 211.877 130.186 211.469 130.706 211.175C131.226 210.88 131.82 210.732 132.487 210.732C133.164 210.732 133.762 210.88 134.282 211.175C134.811 211.469 135.223 211.877 135.518 212.397C135.821 212.917 135.973 213.52 135.973 214.205C135.973 214.881 135.821 215.484 135.518 216.012C135.223 216.533 134.811 216.944 134.282 217.248C133.753 217.543 133.155 217.69 132.487 217.69ZM132.487 216.871C132.982 216.871 133.42 216.762 133.801 216.546C134.182 216.32 134.482 216.008 134.698 215.609C134.924 215.202 135.036 214.734 135.036 214.205C135.036 213.667 134.924 213.199 134.698 212.8C134.482 212.401 134.182 212.094 133.801 211.877C133.42 211.651 132.986 211.539 132.5 211.539C132.015 211.539 131.581 211.651 131.2 211.877C130.819 212.094 130.515 212.401 130.29 212.8C130.064 213.199 129.952 213.667 129.952 214.205C129.952 214.734 130.064 215.202 130.29 215.609C130.515 216.008 130.819 216.32 131.2 216.546C131.581 216.762 132.011 216.871 132.487 216.871ZM137.858 217.625V210.797H138.742V212.657L138.651 212.332C138.842 211.812 139.163 211.417 139.614 211.149C140.064 210.871 140.624 210.732 141.291 210.732V211.63C141.257 211.63 141.222 211.63 141.187 211.63C141.153 211.621 141.118 211.617 141.083 211.617C140.364 211.617 139.8 211.838 139.393 212.28C138.985 212.713 138.781 213.333 138.781 214.14V217.625H137.858ZM146.648 217.625V210.121C146.648 209.445 146.843 208.907 147.233 208.509C147.632 208.101 148.196 207.897 148.924 207.897C149.193 207.897 149.449 207.932 149.691 208.001C149.943 208.062 150.155 208.162 150.329 208.3L149.952 209.25C149.821 209.146 149.674 209.068 149.509 209.016C149.345 208.955 149.171 208.925 148.989 208.925C148.625 208.925 148.348 209.029 148.157 209.237C147.966 209.436 147.871 209.735 147.871 210.134V211.057L147.897 211.63V217.625H146.648ZM145.478 211.76V210.732H149.873V211.76H145.478ZM155.203 217.625V216.168L155.138 215.895V213.411C155.138 212.883 154.981 212.475 154.669 212.189C154.366 211.894 153.906 211.747 153.291 211.747C152.883 211.747 152.485 211.816 152.094 211.955C151.704 212.085 151.375 212.263 151.106 212.488L150.586 211.552C150.941 211.266 151.366 211.049 151.86 210.901C152.363 210.745 152.888 210.667 153.434 210.667C154.379 210.667 155.107 210.897 155.619 211.357C156.13 211.816 156.386 212.518 156.386 213.463V217.625H155.203ZM152.94 217.703C152.428 217.703 151.977 217.616 151.587 217.443C151.206 217.27 150.911 217.031 150.703 216.728C150.495 216.416 150.391 216.064 150.391 215.674C150.391 215.301 150.477 214.963 150.651 214.66C150.833 214.356 151.123 214.114 151.522 213.932C151.93 213.75 152.476 213.658 153.161 213.658H155.346V214.556H153.213C152.589 214.556 152.168 214.66 151.951 214.868C151.735 215.076 151.626 215.327 151.626 215.622C151.626 215.96 151.761 216.233 152.029 216.442C152.298 216.641 152.671 216.741 153.148 216.741C153.616 216.741 154.023 216.637 154.37 216.429C154.726 216.22 154.981 215.917 155.138 215.518L155.385 216.377C155.22 216.784 154.929 217.109 154.513 217.352C154.097 217.586 153.573 217.703 152.94 217.703ZM167.319 210.667C167.874 210.667 168.363 210.776 168.788 210.992C169.213 211.209 169.543 211.539 169.777 211.981C170.019 212.423 170.141 212.982 170.141 213.658V217.625H168.892V213.802C168.892 213.134 168.736 212.631 168.424 212.293C168.112 211.955 167.674 211.786 167.111 211.786C166.695 211.786 166.33 211.872 166.018 212.046C165.706 212.219 165.463 212.475 165.29 212.813C165.125 213.151 165.043 213.572 165.043 214.075V217.625H163.794V213.802C163.794 213.134 163.638 212.631 163.326 212.293C163.023 211.955 162.585 211.786 162.013 211.786C161.605 211.786 161.245 211.872 160.933 212.046C160.621 212.219 160.378 212.475 160.205 212.813C160.032 213.151 159.945 213.572 159.945 214.075V217.625H158.696V210.732H159.893V212.566L159.698 212.098C159.915 211.647 160.248 211.296 160.699 211.044C161.15 210.793 161.675 210.667 162.273 210.667C162.932 210.667 163.5 210.832 163.976 211.162C164.453 211.482 164.765 211.972 164.913 212.631L164.406 212.423C164.614 211.894 164.978 211.469 165.498 211.149C166.018 210.828 166.625 210.667 167.319 210.667ZM172.438 217.625V210.732H173.687V217.625H172.438ZM173.062 209.406C172.82 209.406 172.616 209.328 172.451 209.172C172.295 209.016 172.217 208.825 172.217 208.6C172.217 208.365 172.295 208.17 172.451 208.014C172.616 207.858 172.82 207.78 173.062 207.78C173.305 207.78 173.504 207.858 173.66 208.014C173.825 208.162 173.908 208.348 173.908 208.574C173.908 208.808 173.83 209.007 173.674 209.172C173.517 209.328 173.314 209.406 173.062 209.406ZM176.07 217.625V207.975H177.319V217.625H176.07ZM180.002 220.226C179.672 220.226 179.351 220.17 179.039 220.057C178.727 219.953 178.458 219.797 178.233 219.589L178.766 218.652C178.94 218.817 179.13 218.943 179.338 219.03C179.546 219.116 179.768 219.16 180.002 219.16C180.305 219.16 180.556 219.082 180.756 218.925C180.955 218.769 181.142 218.492 181.315 218.093L181.744 217.144L181.874 216.988L184.579 210.732H185.802L182.46 218.314C182.26 218.8 182.035 219.181 181.783 219.459C181.541 219.736 181.272 219.931 180.977 220.044C180.682 220.165 180.357 220.226 180.002 220.226ZM181.64 217.846L178.493 210.732H179.794L182.473 216.871L181.64 217.846ZM22.6999 236.703C22.1277 236.703 21.6031 236.573 21.1263 236.313C20.6581 236.044 20.2809 235.65 19.9948 235.129C19.7174 234.609 19.5787 233.959 19.5787 233.179C19.5787 232.398 19.7131 231.748 19.9818 231.228C20.2593 230.708 20.6321 230.318 21.1003 230.057C21.5771 229.797 22.1103 229.667 22.6999 229.667C23.3761 229.667 23.9744 229.815 24.4946 230.11C25.0148 230.404 25.4266 230.816 25.73 231.345C26.0335 231.865 26.1852 232.476 26.1852 233.179C26.1852 233.881 26.0335 234.497 25.73 235.025C25.4266 235.554 25.0148 235.966 24.4946 236.261C23.9744 236.556 23.3761 236.703 22.6999 236.703ZM19.0455 239.148V229.732H20.2419V231.592L20.1639 233.192L20.294 234.791V239.148H19.0455ZM22.5958 235.611C23.038 235.611 23.4325 235.511 23.7793 235.311C24.1348 235.112 24.4122 234.83 24.6116 234.466C24.8197 234.093 24.9237 233.664 24.9237 233.179C24.9237 232.684 24.8197 232.26 24.6116 231.904C24.4122 231.54 24.1348 231.258 23.7793 231.059C23.4325 230.859 23.038 230.76 22.5958 230.76C22.1623 230.76 21.7678 230.859 21.4124 231.059C21.0656 231.258 20.7881 231.54 20.5801 231.904C20.3807 232.26 20.2809 232.684 20.2809 233.179C20.2809 233.664 20.3807 234.093 20.5801 234.466C20.7881 234.83 21.0656 235.112 21.4124 235.311C21.7678 235.511 22.1623 235.611 22.5958 235.611ZM30.8623 236.703C30.1687 236.703 29.5531 236.551 29.0156 236.248C28.4781 235.944 28.0532 235.528 27.7411 234.999C27.429 234.462 27.2729 233.855 27.2729 233.179C27.2729 232.494 27.429 231.887 27.7411 231.358C28.0532 230.829 28.4781 230.417 29.0156 230.123C29.5531 229.819 30.1687 229.667 30.8623 229.667C31.5472 229.667 32.1585 229.819 32.696 230.123C33.2422 230.417 33.6671 230.829 33.9705 231.358C34.2826 231.878 34.4387 232.485 34.4387 233.179C34.4387 233.864 34.2826 234.471 33.9705 234.999C33.6671 235.528 33.2422 235.944 32.696 236.248C32.1585 236.551 31.5472 236.703 30.8623 236.703ZM30.8623 235.611C31.3045 235.611 31.699 235.511 32.0458 235.311C32.4012 235.112 32.6787 234.83 32.8781 234.466C33.0775 234.093 33.1772 233.664 33.1772 233.179C33.1772 232.684 33.0775 232.26 32.8781 231.904C32.6787 231.54 32.4012 231.258 32.0458 231.059C31.699 230.859 31.3045 230.76 30.8623 230.76C30.4201 230.76 30.0257 230.859 29.6789 231.059C29.3321 231.258 29.0546 231.54 28.8465 231.904C28.6385 232.26 28.5344 232.684 28.5344 233.179C28.5344 233.664 28.6385 234.093 28.8465 234.466C29.0546 234.83 29.3321 235.112 29.6789 235.311C30.0257 235.511 30.4201 235.611 30.8623 235.611ZM36.1653 236.625V229.732H37.3617V231.605L37.2447 231.137C37.4354 230.66 37.7562 230.296 38.2071 230.044C38.6579 229.793 39.2128 229.667 39.8717 229.667V230.877C39.8197 230.868 39.7677 230.864 39.7156 230.864C39.6723 230.864 39.6289 230.864 39.5856 230.864C38.918 230.864 38.3891 231.063 37.999 231.462C37.6088 231.861 37.4138 232.437 37.4138 233.192V236.625H36.1653ZM44.0568 236.703C43.3632 236.703 42.8256 236.517 42.4441 236.144C42.0627 235.771 41.8719 235.238 41.8719 234.544V228.224H43.1204V234.492C43.1204 234.865 43.2114 235.151 43.3935 235.351C43.5843 235.55 43.853 235.65 44.1998 235.65C44.59 235.65 44.9151 235.541 45.1752 235.325L45.5653 236.222C45.3746 236.387 45.1448 236.508 44.8761 236.586C44.616 236.664 44.3429 236.703 44.0568 236.703ZM40.7015 230.76V229.732H45.0972V230.76H40.7015ZM47.0747 236.625V229.732H48.3232V236.625H47.0747ZM47.699 228.406C47.4562 228.406 47.2525 228.328 47.0877 228.172C46.9317 228.016 46.8536 227.825 46.8536 227.6C46.8536 227.365 46.9317 227.17 47.0877 227.014C47.2525 226.858 47.4562 226.78 47.699 226.78C47.9417 226.78 48.1411 226.858 48.2972 227.014C48.4619 227.162 48.5443 227.348 48.5443 227.574C48.5443 227.808 48.4663 228.007 48.3102 228.172C48.1541 228.328 47.9504 228.406 47.699 228.406ZM53.6591 236.703C52.9655 236.703 52.3499 236.551 51.8124 236.248C51.2749 235.944 50.85 235.528 50.5379 234.999C50.2258 234.462 50.0697 233.855 50.0697 233.179C50.0697 232.494 50.2258 231.887 50.5379 231.358C50.85 230.829 51.2749 230.417 51.8124 230.123C52.3499 229.819 52.9655 229.667 53.6591 229.667C54.344 229.667 54.9553 229.819 55.4928 230.123C56.039 230.417 56.4638 230.829 56.7673 231.358C57.0794 231.878 57.2355 232.485 57.2355 233.179C57.2355 233.864 57.0794 234.471 56.7673 234.999C56.4638 235.528 56.039 235.944 55.4928 236.248C54.9553 236.551 54.344 236.703 53.6591 236.703ZM53.6591 235.611C54.1013 235.611 54.4958 235.511 54.8426 235.311C55.198 235.112 55.4755 234.83 55.6749 234.466C55.8743 234.093 55.974 233.664 55.974 233.179C55.974 232.684 55.8743 232.26 55.6749 231.904C55.4755 231.54 55.198 231.258 54.8426 231.059C54.4958 230.859 54.1013 230.76 53.6591 230.76C53.2169 230.76 52.8225 230.859 52.4757 231.059C52.1289 231.258 51.8514 231.54 51.6433 231.904C51.4353 232.26 51.3312 232.684 51.3312 233.179C51.3312 233.664 51.4353 234.093 51.6433 234.466C51.8514 234.83 52.1289 235.112 52.4757 235.311C52.8225 235.511 53.2169 235.611 53.6591 235.611ZM62.6425 229.667C63.206 229.667 63.7002 229.776 64.1251 229.992C64.5586 230.209 64.8967 230.539 65.1394 230.981C65.3822 231.423 65.5036 231.982 65.5036 232.658V236.625H64.2551V232.802C64.2551 232.134 64.0904 231.631 63.7609 231.293C63.4401 230.955 62.985 230.786 62.3954 230.786C61.9532 230.786 61.5674 230.872 61.2379 231.046C60.9085 231.219 60.6527 231.475 60.4707 231.813C60.2973 232.151 60.2106 232.572 60.2106 233.075V236.625H58.9621V229.732H60.1585V231.592L59.9635 231.098C60.1889 230.647 60.5357 230.296 61.0039 230.044C61.472 229.793 62.0182 229.667 62.6425 229.667ZM69.7908 236.703C69.2186 236.703 68.6724 236.625 68.1522 236.469C67.6407 236.313 67.2375 236.122 66.9428 235.897L67.463 234.908C67.7577 235.108 68.1219 235.277 68.5554 235.416C68.9889 235.554 69.431 235.624 69.8819 235.624C70.4628 235.624 70.8789 235.541 71.1304 235.377C71.3905 235.212 71.5205 234.982 71.5205 234.687C71.5205 234.471 71.4425 234.301 71.2864 234.18C71.1304 234.059 70.9223 233.968 70.6622 233.907C70.4108 233.846 70.129 233.794 69.8169 233.751C69.5047 233.699 69.1926 233.638 68.8805 233.569C68.5684 233.491 68.2823 233.387 68.0222 233.257C67.7621 233.118 67.554 232.932 67.3979 232.698C67.2419 232.455 67.1638 232.134 67.1638 231.735C67.1638 231.319 67.2809 230.955 67.515 230.643C67.7491 230.331 68.0785 230.092 68.5034 229.927C68.9369 229.754 69.4484 229.667 70.0379 229.667C70.4888 229.667 70.944 229.724 71.4035 229.836C71.8716 229.94 72.2531 230.092 72.5479 230.292L72.0147 231.28C71.7026 231.072 71.3775 230.929 71.0393 230.851C70.7012 230.773 70.3631 230.734 70.0249 230.734C69.4787 230.734 69.0712 230.825 68.8025 231.007C68.5337 231.18 68.3993 231.406 68.3993 231.683C68.3993 231.917 68.4773 232.099 68.6334 232.229C68.7981 232.351 69.0062 232.446 69.2576 232.515C69.5177 232.585 69.8039 232.645 70.116 232.698C70.4281 232.741 70.7402 232.802 71.0523 232.88C71.3644 232.949 71.6462 233.049 71.8977 233.179C72.1578 233.309 72.3658 233.491 72.5219 233.725C72.6866 233.959 72.769 234.271 72.769 234.661C72.769 235.077 72.6476 235.437 72.4048 235.741C72.1621 236.044 71.8196 236.283 71.3775 236.456C70.9353 236.621 70.4064 236.703 69.7908 236.703ZM73.8351 238.55L74.4853 235.923L74.6544 236.677C74.403 236.677 74.1906 236.599 74.0172 236.443C73.8524 236.287 73.7701 236.074 73.7701 235.806C73.7701 235.546 73.8524 235.333 74.0172 235.168C74.1906 235.004 74.3986 234.921 74.6414 234.921C74.8928 234.921 75.0966 235.008 75.2526 235.181C75.4087 235.346 75.4867 235.554 75.4867 235.806C75.4867 235.892 75.4781 235.979 75.4607 236.066C75.452 236.144 75.4304 236.239 75.3957 236.352C75.3697 236.456 75.3263 236.586 75.2656 236.742L74.6544 238.55H73.8351ZM84.4227 236.703C83.8331 236.703 83.2999 236.573 82.823 236.313C82.3549 236.044 81.9821 235.65 81.7046 235.129C81.4358 234.609 81.3015 233.959 81.3015 233.179C81.3015 232.398 81.4402 231.748 81.7176 231.228C82.0037 230.708 82.3809 230.318 82.8491 230.057C83.3259 229.797 83.8504 229.667 84.4227 229.667C85.0989 229.667 85.6971 229.815 86.2173 230.11C86.7375 230.404 87.1494 230.816 87.4528 231.345C87.7563 231.865 87.908 232.476 87.908 233.179C87.908 233.881 87.7563 234.497 87.4528 235.025C87.1494 235.554 86.7375 235.966 86.2173 236.261C85.6971 236.556 85.0989 236.703 84.4227 236.703ZM80.7683 236.625V226.975H82.0167V231.566L81.8867 233.166L81.9647 234.765V236.625H80.7683ZM84.3186 235.611C84.7608 235.611 85.1553 235.511 85.5021 235.311C85.8575 235.112 86.135 234.83 86.3344 234.466C86.5425 234.093 86.6465 233.664 86.6465 233.179C86.6465 232.684 86.5425 232.26 86.3344 231.904C86.135 231.54 85.8575 231.258 85.5021 231.059C85.1553 230.859 84.7608 230.76 84.3186 230.76C83.8851 230.76 83.4906 230.859 83.1352 231.059C82.7884 231.258 82.5109 231.54 82.3028 231.904C82.1034 232.26 82.0037 232.684 82.0037 233.179C82.0037 233.664 82.1034 234.093 82.3028 234.466C82.5109 234.83 82.7884 235.112 83.1352 235.311C83.4906 235.511 83.8851 235.611 84.3186 235.611ZM92.5331 236.703C91.9435 236.703 91.4233 236.595 90.9725 236.378C90.5303 236.161 90.1835 235.832 89.9321 235.39C89.6893 234.939 89.5679 234.375 89.5679 233.699V229.732H90.8164V233.556C90.8164 234.232 90.9768 234.739 91.2976 235.077C91.6271 235.416 92.0866 235.585 92.6761 235.585C93.1096 235.585 93.4868 235.498 93.8076 235.325C94.1284 235.142 94.3754 234.882 94.5488 234.544C94.7222 234.197 94.8089 233.781 94.8089 233.296V229.732H96.0574V236.625H94.874V234.765L95.069 235.259C94.8436 235.719 94.5055 236.074 94.0547 236.326C93.6038 236.577 93.0966 236.703 92.5331 236.703ZM98.4342 236.625V226.975H99.6827V236.625H98.4342ZM103.081 234.96L103.107 233.361L107.073 229.732H108.582L105.539 232.724L104.862 233.296L103.081 234.96ZM102.066 236.625V226.975H103.315V236.625H102.066ZM107.333 236.625L104.628 233.27L105.435 232.268L108.868 236.625H107.333ZM115.55 236.703C114.977 236.703 114.431 236.625 113.911 236.469C113.399 236.313 112.996 236.122 112.701 235.897L113.222 234.908C113.516 235.108 113.881 235.277 114.314 235.416C114.748 235.554 115.19 235.624 115.641 235.624C116.221 235.624 116.638 235.541 116.889 235.377C117.149 235.212 117.279 234.982 117.279 234.687C117.279 234.471 117.201 234.301 117.045 234.18C116.889 234.059 116.681 233.968 116.421 233.907C116.169 233.846 115.888 233.794 115.576 233.751C115.263 233.699 114.951 233.638 114.639 233.569C114.327 233.491 114.041 233.387 113.781 233.257C113.521 233.118 113.313 232.932 113.157 232.698C113.001 232.455 112.923 232.134 112.923 231.735C112.923 231.319 113.04 230.955 113.274 230.643C113.508 230.331 113.837 230.092 114.262 229.927C114.696 229.754 115.207 229.667 115.797 229.667C116.247 229.667 116.703 229.724 117.162 229.836C117.63 229.94 118.012 230.092 118.307 230.292L117.773 231.28C117.461 231.072 117.136 230.929 116.798 230.851C116.46 230.773 116.122 230.734 115.784 230.734C115.237 230.734 114.83 230.825 114.561 231.007C114.292 231.18 114.158 231.406 114.158 231.683C114.158 231.917 114.236 232.099 114.392 232.229C114.557 232.351 114.765 232.446 115.016 232.515C115.276 232.585 115.563 232.645 115.875 232.698C116.187 232.741 116.499 232.802 116.811 232.88C117.123 232.949 117.405 233.049 117.656 233.179C117.916 233.309 118.125 233.491 118.281 233.725C118.445 233.959 118.528 234.271 118.528 234.661C118.528 235.077 118.406 235.437 118.164 235.741C117.921 236.044 117.578 236.283 117.136 236.456C116.694 236.621 116.165 236.703 115.55 236.703ZM121.418 236.625L118.856 229.732L120.039 229.732L122.315 235.975H121.756L124.123 229.732H125.176L127.491 235.975H126.945L129.273 229.732H130.391L127.816 236.625H126.619L124.448 230.929H124.812L122.614 236.625H121.418ZM134.536 236.703C133.8 236.703 133.149 236.551 132.586 236.248C132.031 235.944 131.597 235.528 131.285 234.999C130.982 234.471 130.83 233.864 130.83 233.179C130.83 232.494 130.977 231.887 131.272 231.358C131.576 230.829 131.988 230.417 132.508 230.123C133.037 229.819 133.63 229.667 134.289 229.667C134.957 229.667 135.547 229.815 136.058 230.11C136.57 230.404 136.968 230.82 137.255 231.358C137.549 231.887 137.697 232.507 137.697 233.218C137.697 233.27 137.692 233.33 137.684 233.4C137.684 233.469 137.679 233.534 137.671 233.595H131.805V232.698H137.02L136.513 233.01C136.522 232.567 136.431 232.173 136.24 231.826C136.049 231.479 135.785 231.211 135.447 231.02C135.117 230.82 134.732 230.721 134.289 230.721C133.856 230.721 133.47 230.82 133.132 231.02C132.794 231.211 132.529 231.484 132.339 231.839C132.148 232.186 132.053 232.585 132.053 233.036V233.244C132.053 233.703 132.157 234.115 132.365 234.479C132.581 234.835 132.881 235.112 133.262 235.311C133.643 235.511 134.081 235.611 134.575 235.611C134.983 235.611 135.351 235.541 135.681 235.403C136.019 235.264 136.314 235.056 136.565 234.778L137.255 235.585C136.942 235.949 136.552 236.226 136.084 236.417C135.625 236.608 135.109 236.703 134.536 236.703ZM142.499 236.703C141.763 236.703 141.112 236.551 140.549 236.248C139.994 235.944 139.56 235.528 139.248 234.999C138.945 234.471 138.793 233.864 138.793 233.179C138.793 232.494 138.94 231.887 139.235 231.358C139.539 230.829 139.951 230.417 140.471 230.123C141 229.819 141.593 229.667 142.252 229.667C142.92 229.667 143.51 229.815 144.021 230.11C144.533 230.404 144.931 230.82 145.218 231.358C145.512 231.887 145.66 232.507 145.66 233.218C145.66 233.27 145.655 233.33 145.647 233.4C145.647 233.469 145.642 233.534 145.634 233.595H139.768V232.698H144.983L144.476 233.01C144.485 232.567 144.394 232.173 144.203 231.826C144.012 231.479 143.748 231.211 143.41 231.02C143.08 230.82 142.695 230.721 142.252 230.721C141.819 230.721 141.433 230.82 141.095 231.02C140.757 231.211 140.492 231.484 140.302 231.839C140.111 232.186 140.016 232.585 140.016 233.036V233.244C140.016 233.703 140.12 234.115 140.328 234.479C140.544 234.835 140.844 235.112 141.225 235.311C141.606 235.511 142.044 235.611 142.538 235.611C142.946 235.611 143.314 235.541 143.644 235.403C143.982 235.264 144.277 235.056 144.528 234.778L145.218 235.585C144.905 235.949 144.515 236.226 144.047 236.417C143.588 236.608 143.072 236.703 142.499 236.703ZM149.76 236.703C149.067 236.703 148.529 236.517 148.148 236.144C147.766 235.771 147.575 235.238 147.575 234.544V228.224H148.824V234.492C148.824 234.865 148.915 235.151 149.097 235.351C149.288 235.55 149.556 235.65 149.903 235.65C150.293 235.65 150.619 235.541 150.879 235.325L151.269 236.222C151.078 236.387 150.848 236.508 150.58 236.586C150.319 236.664 150.046 236.703 149.76 236.703ZM146.405 230.76V229.732H150.801V230.76H146.405ZM154.755 236.703C154.183 236.703 153.637 236.625 153.116 236.469C152.605 236.313 152.202 236.122 151.907 235.897L152.427 234.908C152.722 235.108 153.086 235.277 153.519 235.416C153.953 235.554 154.395 235.624 154.846 235.624C155.427 235.624 155.843 235.541 156.094 235.377C156.355 235.212 156.485 234.982 156.485 234.687C156.485 234.471 156.407 234.301 156.251 234.18C156.094 234.059 155.886 233.968 155.626 233.907C155.375 233.846 155.093 233.794 154.781 233.751C154.469 233.699 154.157 233.638 153.845 233.569C153.532 233.491 153.246 233.387 152.986 233.257C152.726 233.118 152.518 232.932 152.362 232.698C152.206 232.455 152.128 232.134 152.128 231.735C152.128 231.319 152.245 230.955 152.479 230.643C152.713 230.331 153.043 230.092 153.467 229.927C153.901 229.754 154.412 229.667 155.002 229.667C155.453 229.667 155.908 229.724 156.368 229.836C156.836 229.94 157.217 230.092 157.512 230.292L156.979 231.28C156.667 231.072 156.342 230.929 156.003 230.851C155.665 230.773 155.327 230.734 154.989 230.734C154.443 230.734 154.035 230.825 153.767 231.007C153.498 231.18 153.363 231.406 153.363 231.683C153.363 231.917 153.441 232.099 153.597 232.229C153.762 232.351 153.97 232.446 154.222 232.515C154.482 232.585 154.768 232.645 155.08 232.698C155.392 232.741 155.704 232.802 156.016 232.88C156.329 232.949 156.61 233.049 156.862 233.179C157.122 233.309 157.33 233.491 157.486 233.725C157.651 233.959 157.733 234.271 157.733 234.661C157.733 235.077 157.612 235.437 157.369 235.741C157.126 236.044 156.784 236.283 156.342 236.456C155.899 236.621 155.371 236.703 154.755 236.703ZM158.799 238.55L159.449 235.923L159.618 236.677C159.367 236.677 159.155 236.599 158.981 236.443C158.816 236.287 158.734 236.074 158.734 235.806C158.734 235.546 158.816 235.333 158.981 235.168C159.155 235.004 159.363 234.921 159.605 234.921C159.857 234.921 160.061 235.008 160.217 235.181C160.373 235.346 160.451 235.554 160.451 235.806C160.451 235.892 160.442 235.979 160.425 236.066C160.416 236.144 160.394 236.239 160.36 236.352C160.334 236.456 160.29 236.586 160.23 236.742L159.618 238.55H158.799ZM170.115 236.625V235.116L170.076 234.869V232.346C170.076 231.765 169.911 231.319 169.582 231.007C169.261 230.695 168.78 230.539 168.138 230.539C167.696 230.539 167.276 230.612 166.877 230.76C166.478 230.907 166.14 231.102 165.862 231.345L165.446 230.656C165.793 230.361 166.209 230.136 166.695 229.979C167.18 229.815 167.692 229.732 168.229 229.732C169.114 229.732 169.794 229.953 170.271 230.396C170.757 230.829 170.999 231.492 170.999 232.385V236.625H170.115ZM167.761 236.69C167.25 236.69 166.803 236.608 166.422 236.443C166.049 236.27 165.763 236.035 165.563 235.741C165.364 235.437 165.264 235.09 165.264 234.7C165.264 234.345 165.347 234.024 165.511 233.738C165.685 233.443 165.962 233.209 166.344 233.036C166.734 232.854 167.254 232.763 167.904 232.763H170.258V233.452H167.93C167.271 233.452 166.812 233.569 166.552 233.803C166.3 234.037 166.175 234.327 166.175 234.674C166.175 235.064 166.326 235.377 166.63 235.611C166.933 235.845 167.358 235.962 167.904 235.962C168.424 235.962 168.871 235.845 169.244 235.611C169.625 235.368 169.903 235.021 170.076 234.57L170.284 235.207C170.111 235.658 169.807 236.018 169.374 236.287C168.949 236.556 168.411 236.69 167.761 236.69ZM176.993 229.732C177.547 229.732 178.033 229.841 178.449 230.057C178.874 230.266 179.203 230.586 179.438 231.02C179.68 231.453 179.802 232 179.802 232.658V236.625H178.878V232.75C178.878 232.03 178.696 231.488 178.332 231.124C177.977 230.751 177.474 230.565 176.824 230.565C176.338 230.565 175.913 230.664 175.549 230.864C175.194 231.055 174.916 231.336 174.717 231.709C174.526 232.073 174.431 232.515 174.431 233.036V236.625H173.507V229.797H174.392V231.67L174.249 231.319C174.465 230.825 174.812 230.439 175.289 230.162C175.766 229.875 176.334 229.732 176.993 229.732ZM185.014 236.69C184.364 236.69 183.778 236.543 183.258 236.248C182.747 235.953 182.343 235.546 182.049 235.025C181.754 234.497 181.607 233.89 181.607 233.205C181.607 232.511 181.754 231.904 182.049 231.384C182.343 230.864 182.747 230.461 183.258 230.175C183.778 229.88 184.364 229.732 185.014 229.732C185.612 229.732 186.145 229.867 186.613 230.136C187.09 230.404 187.467 230.799 187.745 231.319C188.031 231.831 188.174 232.459 188.174 233.205C188.174 233.942 188.035 234.57 187.758 235.09C187.48 235.611 187.103 236.009 186.626 236.287C186.158 236.556 185.621 236.69 185.014 236.69ZM185.079 235.871C185.564 235.871 185.998 235.762 186.379 235.546C186.77 235.32 187.073 235.008 187.29 234.609C187.515 234.202 187.628 233.734 187.628 233.205C187.628 232.667 187.515 232.199 187.29 231.8C187.073 231.401 186.77 231.094 186.379 230.877C185.998 230.651 185.564 230.539 185.079 230.539C184.602 230.539 184.173 230.651 183.791 230.877C183.41 231.094 183.106 231.401 182.881 231.8C182.656 232.199 182.543 232.667 182.543 233.205C182.543 233.734 182.656 234.202 182.881 234.609C183.106 235.008 183.41 235.32 183.791 235.546C184.173 235.762 184.602 235.871 185.079 235.871ZM187.654 236.625V234.57L187.745 233.192L187.615 231.813V226.975H188.538V236.625H187.654ZM44.6267 256.703C44.0545 256.703 43.5299 256.573 43.0531 256.313C42.5849 256.044 42.2078 255.65 41.9217 255.129C41.6442 254.609 41.5055 253.959 41.5055 253.179C41.5055 252.398 41.6399 251.748 41.9087 251.228C42.1861 250.708 42.5589 250.318 43.0271 250.057C43.5039 249.797 44.0371 249.667 44.6267 249.667C45.303 249.667 45.9012 249.815 46.4214 250.11C46.9416 250.404 47.3534 250.816 47.6569 251.345C47.9603 251.865 48.112 252.476 48.112 253.179C48.112 253.881 47.9603 254.497 47.6569 255.025C47.3534 255.554 46.9416 255.966 46.4214 256.261C45.9012 256.556 45.303 256.703 44.6267 256.703ZM40.9723 259.148V249.732H42.1688V251.592L42.0907 253.192L42.2208 254.791V259.148H40.9723ZM44.5227 255.611C44.9648 255.611 45.3593 255.511 45.7061 255.311C46.0616 255.112 46.339 254.83 46.5384 254.466C46.7465 254.093 46.8505 253.664 46.8505 253.179C46.8505 252.684 46.7465 252.26 46.5384 251.904C46.339 251.54 46.0616 251.258 45.7061 251.059C45.3593 250.859 44.9648 250.76 44.5227 250.76C44.0892 250.76 43.6947 250.859 43.3392 251.059C42.9924 251.258 42.715 251.54 42.5069 251.904C42.3075 252.26 42.2078 252.684 42.2078 253.179C42.2078 253.664 42.3075 254.093 42.5069 254.466C42.715 254.83 42.9924 255.112 43.3392 255.311C43.6947 255.511 44.0892 255.611 44.5227 255.611ZM49.837 256.625V249.732H51.0335V251.605L50.9164 251.137C51.1072 250.66 51.428 250.296 51.8788 250.044C52.3296 249.793 52.8845 249.667 53.5434 249.667V250.877C53.4914 250.868 53.4394 250.864 53.3874 250.864C53.344 250.864 53.3007 250.864 53.2573 250.864C52.5897 250.864 52.0609 251.063 51.6707 251.462C51.2806 251.861 51.0855 252.437 51.0855 253.192V256.625H49.837ZM58.0879 256.703C57.3509 256.703 56.7007 256.551 56.1371 256.248C55.5822 255.944 55.1487 255.528 54.8366 254.999C54.5332 254.471 54.3814 253.864 54.3814 253.179C54.3814 252.494 54.5288 251.887 54.8236 251.358C55.1271 250.829 55.5389 250.417 56.0591 250.123C56.5879 249.819 57.1818 249.667 57.8408 249.667C58.5083 249.667 59.0979 249.815 59.6094 250.11C60.121 250.404 60.5198 250.82 60.8059 251.358C61.1007 251.887 61.2481 252.507 61.2481 253.218C61.2481 253.27 61.2437 253.33 61.2351 253.4C61.2351 253.469 61.2307 253.534 61.222 253.595H55.3568V252.698H60.5718L60.0646 253.01C60.0733 252.567 59.9822 252.173 59.7915 251.826C59.6008 251.479 59.3363 251.211 58.9982 251.02C58.6687 250.82 58.2829 250.721 57.8408 250.721C57.4073 250.721 57.0214 250.82 56.6833 251.02C56.3452 251.211 56.0808 251.484 55.89 251.839C55.6993 252.186 55.6039 252.585 55.6039 253.036V253.244C55.6039 253.703 55.7079 254.115 55.916 254.479C56.1328 254.835 56.4319 255.112 56.8134 255.311C57.1948 255.511 57.6327 255.611 58.1269 255.611C58.5344 255.611 58.9028 255.541 59.2323 255.403C59.5704 255.264 59.8652 255.056 60.1166 254.778L60.8059 255.585C60.4938 255.949 60.1036 256.226 59.6354 256.417C59.1759 256.608 58.6601 256.703 58.0879 256.703ZM71.604 249.667C72.1589 249.667 72.6487 249.776 73.0735 249.992C73.4984 250.209 73.8278 250.539 74.0619 250.981C74.3047 251.423 74.4261 251.982 74.4261 252.658V256.625H73.1776V252.802C73.1776 252.134 73.0215 251.631 72.7094 251.293C72.3973 250.955 71.9594 250.786 71.3959 250.786C70.9797 250.786 70.6156 250.872 70.3035 251.046C69.9914 251.219 69.7486 251.475 69.5752 251.813C69.4105 252.151 69.3281 252.572 69.3281 253.075V256.625H68.0796V252.802C68.0796 252.134 67.9236 251.631 67.6114 251.293C67.308 250.955 66.8702 250.786 66.2979 250.786C65.8905 250.786 65.5307 250.872 65.2185 251.046C64.9064 251.219 64.6637 251.475 64.4903 251.813C64.3169 252.151 64.2302 252.572 64.2302 253.075V256.625H62.9817V249.732H64.1781V251.566L63.9831 251.098C64.1998 250.647 64.5336 250.296 64.9844 250.044C65.4353 249.793 65.9598 249.667 66.558 249.667C67.217 249.667 67.7848 249.832 68.2617 250.162C68.7385 250.482 69.0507 250.972 69.1981 251.631L68.6909 251.423C68.8989 250.894 69.2631 250.469 69.7833 250.149C70.3035 249.828 70.9104 249.667 71.604 249.667ZM76.7233 256.625V249.732H77.9717V256.625H76.7233ZM77.3475 248.406C77.1047 248.406 76.901 248.328 76.7363 248.172C76.5802 248.016 76.5022 247.825 76.5022 247.6C76.5022 247.365 76.5802 247.17 76.7363 247.014C76.901 246.858 77.1047 246.78 77.3475 246.78C77.5903 246.78 77.7897 246.858 77.9457 247.014C78.1105 247.162 78.1928 247.348 78.1928 247.574C78.1928 247.808 78.1148 248.007 77.9587 248.172C77.8027 248.328 77.5989 248.406 77.3475 248.406ZM83.2556 256.703C82.6661 256.703 82.1459 256.595 81.695 256.378C81.2528 256.161 80.906 255.832 80.6546 255.39C80.4119 254.939 80.2905 254.375 80.2905 253.699V249.732H81.539V253.556C81.539 254.232 81.6993 254.739 82.0201 255.077C82.3496 255.416 82.8091 255.585 83.3987 255.585C83.8322 255.585 84.2093 255.498 84.5301 255.325C84.8509 255.142 85.098 254.882 85.2714 254.544C85.4448 254.197 85.5315 253.781 85.5315 253.296V249.732H86.78V256.625H85.5965V254.765L85.7916 255.259C85.5662 255.719 85.228 256.074 84.7772 256.326C84.3264 256.577 83.8192 256.703 83.2556 256.703ZM97.779 249.667C98.3339 249.667 98.8237 249.776 99.2486 249.992C99.6734 250.209 100.003 250.539 100.237 250.981C100.48 251.423 100.601 251.982 100.601 252.658V256.625H99.3526V252.802C99.3526 252.134 99.1965 251.631 98.8844 251.293C98.5723 250.955 98.1345 250.786 97.5709 250.786C97.1548 250.786 96.7906 250.872 96.4785 251.046C96.1664 251.219 95.9236 251.475 95.7502 251.813C95.5855 252.151 95.5031 252.572 95.5031 253.075V256.625H94.2547V252.802C94.2547 252.134 94.0986 251.631 93.7865 251.293C93.483 250.955 93.0452 250.786 92.473 250.786C92.0655 250.786 91.7057 250.872 91.3936 251.046C91.0814 251.219 90.8387 251.475 90.6653 251.813C90.4919 252.151 90.4052 252.572 90.4052 253.075V256.625H89.1567V249.732H90.3532V251.566L90.1581 251.098C90.3748 250.647 90.7086 250.296 91.1595 250.044C91.6103 249.793 92.1348 249.667 92.7331 249.667C93.392 249.667 93.9599 249.832 94.4367 250.162C94.9136 250.482 95.2257 250.972 95.3731 251.631L94.8659 251.423C95.074 250.894 95.4381 250.469 95.9583 250.149C96.4785 249.828 97.0854 249.667 97.779 249.667ZM108.758 256.703C108.064 256.703 107.527 256.517 107.145 256.144C106.764 255.771 106.573 255.238 106.573 254.544V248.224H107.821V254.492C107.821 254.865 107.912 255.151 108.094 255.351C108.285 255.55 108.554 255.65 108.901 255.65C109.291 255.65 109.616 255.541 109.876 255.325L110.266 256.222C110.076 256.387 109.846 256.508 109.577 256.586C109.317 256.664 109.044 256.703 108.758 256.703ZM105.402 250.76V249.732H109.798V250.76H105.402ZM116.054 256.625V255.168L115.989 254.895V252.411C115.989 251.883 115.833 251.475 115.521 251.189C115.218 250.894 114.758 250.747 114.143 250.747C113.735 250.747 113.336 250.816 112.946 250.955C112.556 251.085 112.227 251.263 111.958 251.488L111.438 250.552C111.793 250.266 112.218 250.049 112.712 249.901C113.215 249.745 113.739 249.667 114.286 249.667C115.231 249.667 115.959 249.897 116.47 250.357C116.982 250.816 117.238 251.518 117.238 252.463V256.625H116.054ZM113.791 256.703C113.28 256.703 112.829 256.616 112.439 256.443C112.057 256.27 111.763 256.031 111.555 255.728C111.347 255.416 111.242 255.064 111.242 254.674C111.242 254.301 111.329 253.963 111.503 253.66C111.685 253.356 111.975 253.114 112.374 252.932C112.781 252.75 113.328 252.658 114.013 252.658H116.197V253.556H114.065C113.44 253.556 113.02 253.66 112.803 253.868C112.586 254.076 112.478 254.327 112.478 254.622C112.478 254.96 112.612 255.233 112.881 255.442C113.15 255.641 113.523 255.741 114 255.741C114.468 255.741 114.875 255.637 115.222 255.429C115.577 255.22 115.833 254.917 115.989 254.518L116.236 255.377C116.072 255.784 115.781 256.109 115.365 256.352C114.949 256.586 114.424 256.703 113.791 256.703ZM120.563 254.96L120.589 253.361L124.555 249.732H126.064L123.021 252.724L122.344 253.296L120.563 254.96ZM119.548 256.625V246.975H120.797V256.625H119.548ZM124.815 256.625L122.11 253.27L122.916 252.268L126.35 256.625H124.815ZM130.339 256.703C129.602 256.703 128.952 256.551 128.388 256.248C127.833 255.944 127.4 255.528 127.088 254.999C126.784 254.471 126.633 253.864 126.633 253.179C126.633 252.494 126.78 251.887 127.075 251.358C127.378 250.829 127.79 250.417 128.31 250.123C128.839 249.819 129.433 249.667 130.092 249.667C130.76 249.667 131.349 249.815 131.861 250.11C132.372 250.404 132.771 250.82 133.057 251.358C133.352 251.887 133.499 252.507 133.499 253.218C133.499 253.27 133.495 253.33 133.486 253.4C133.486 253.469 133.482 253.534 133.473 253.595H127.608V252.698H132.823L132.316 253.01C132.324 252.567 132.233 252.173 132.043 251.826C131.852 251.479 131.588 251.211 131.249 251.02C130.92 250.82 130.534 250.721 130.092 250.721C129.658 250.721 129.273 250.82 128.935 251.02C128.596 251.211 128.332 251.484 128.141 251.839C127.95 252.186 127.855 252.585 127.855 253.036V253.244C127.855 253.703 127.959 254.115 128.167 254.479C128.384 254.835 128.683 255.112 129.065 255.311C129.446 255.511 129.884 255.611 130.378 255.611C130.786 255.611 131.154 255.541 131.484 255.403C131.822 255.264 132.116 255.056 132.368 254.778L133.057 255.585C132.745 255.949 132.355 256.226 131.887 256.417C131.427 256.608 130.911 256.703 130.339 256.703ZM139.321 256.625V255.168L139.256 254.895V252.411C139.256 251.883 139.1 251.475 138.788 251.189C138.484 250.894 138.025 250.747 137.409 250.747C137.002 250.747 136.603 250.816 136.213 250.955C135.823 251.085 135.493 251.263 135.224 251.488L134.704 250.552C135.06 250.266 135.485 250.049 135.979 249.901C136.482 249.745 137.006 249.667 137.552 249.667C138.497 249.667 139.226 249.897 139.737 250.357C140.249 250.816 140.504 251.518 140.504 252.463V256.625H139.321ZM137.058 256.703C136.547 256.703 136.096 256.616 135.706 256.443C135.324 256.27 135.029 256.031 134.821 255.728C134.613 255.416 134.509 255.064 134.509 254.674C134.509 254.301 134.596 253.963 134.769 253.66C134.951 253.356 135.242 253.114 135.641 252.932C136.048 252.75 136.594 252.658 137.279 252.658H139.464V253.556H137.331C136.707 253.556 136.287 253.66 136.07 253.868C135.853 254.076 135.745 254.327 135.745 254.622C135.745 254.96 135.879 255.233 136.148 255.442C136.417 255.641 136.789 255.741 137.266 255.741C137.734 255.741 138.142 255.637 138.489 255.429C138.844 255.22 139.1 254.917 139.256 254.518L139.503 255.377C139.338 255.784 139.048 256.109 138.632 256.352C138.216 256.586 137.691 256.703 137.058 256.703ZM144.144 256.625L141.582 249.732H142.766L145.042 255.975H144.483L146.849 249.732H147.903L150.218 255.975H149.672L151.999 249.732H153.118L150.543 256.625H149.346L147.175 250.929H147.539L145.341 256.625H144.144ZM158.447 256.625V255.168L158.382 254.895V252.411C158.382 251.883 158.226 251.475 157.914 251.189C157.611 250.894 157.151 250.747 156.536 250.747C156.128 250.747 155.729 250.816 155.339 250.955C154.949 251.085 154.62 251.263 154.351 251.488L153.831 250.552C154.186 250.266 154.611 250.049 155.105 249.901C155.608 249.745 156.133 249.667 156.679 249.667C157.624 249.667 158.352 249.897 158.864 250.357C159.375 250.816 159.631 251.518 159.631 252.463V256.625H158.447ZM156.185 256.703C155.673 256.703 155.222 256.616 154.832 256.443C154.451 256.27 154.156 256.031 153.948 255.728C153.74 255.416 153.636 255.064 153.636 254.674C153.636 254.301 153.722 253.963 153.896 253.66C154.078 253.356 154.368 253.114 154.767 252.932C155.175 252.75 155.721 252.658 156.406 252.658H158.591V253.556H156.458C155.833 253.556 155.413 253.66 155.196 253.868C154.979 254.076 154.871 254.327 154.871 254.622C154.871 254.96 155.005 255.233 155.274 255.442C155.543 255.641 155.916 255.741 156.393 255.741C156.861 255.741 157.268 255.637 157.615 255.429C157.971 255.22 158.226 254.917 158.382 254.518L158.63 255.377C158.465 255.784 158.174 256.109 157.758 256.352C157.342 256.586 156.818 256.703 156.185 256.703ZM162.113 259.226C161.784 259.226 161.463 259.17 161.151 259.057C160.839 258.953 160.57 258.797 160.345 258.589L160.878 257.652C161.051 257.817 161.242 257.943 161.45 258.03C161.658 258.116 161.879 258.16 162.113 258.16C162.417 258.16 162.668 258.082 162.868 257.925C163.067 257.769 163.254 257.492 163.427 257.093L163.856 256.144L163.986 255.988L166.691 249.732H167.914L164.571 257.314C164.372 257.8 164.147 258.181 163.895 258.459C163.652 258.736 163.384 258.931 163.089 259.044C162.794 259.165 162.469 259.226 162.113 259.226ZM163.752 256.846L160.605 249.732H161.905L164.584 255.871L163.752 256.846ZM72.1987 275.703C71.6265 275.703 71.102 275.573 70.6251 275.313C70.157 275.044 69.7798 274.65 69.4937 274.129C69.2163 273.609 69.0776 272.959 69.0776 272.179C69.0776 271.398 69.2119 270.748 69.4807 270.228C69.7581 269.708 70.131 269.318 70.5991 269.057C71.076 268.797 71.6092 268.667 72.1987 268.667C72.875 268.667 73.4732 268.815 73.9934 269.11C74.5136 269.404 74.9255 269.816 75.2289 270.345C75.5324 270.865 75.6841 271.476 75.6841 272.179C75.6841 272.881 75.5324 273.497 75.2289 274.025C74.9255 274.554 74.5136 274.966 73.9934 275.261C73.4732 275.556 72.875 275.703 72.1987 275.703ZM68.5443 278.148V268.732H69.7408V270.592L69.6628 272.192L69.7928 273.791V278.148H68.5443ZM72.0947 274.611C72.5369 274.611 72.9314 274.511 73.2782 274.311C73.6336 274.112 73.9111 273.83 74.1105 273.466C74.3186 273.093 74.4226 272.664 74.4226 272.179C74.4226 271.684 74.3186 271.26 74.1105 270.904C73.9111 270.54 73.6336 270.258 73.2782 270.059C72.9314 269.859 72.5369 269.76 72.0947 269.76C71.6612 269.76 71.2667 269.859 70.9113 270.059C70.5645 270.258 70.287 270.54 70.0789 270.904C69.8795 271.26 69.7798 271.684 69.7798 272.179C69.7798 272.664 69.8795 273.093 70.0789 273.466C70.287 273.83 70.5645 274.112 70.9113 274.311C71.2667 274.511 71.6612 274.611 72.0947 274.611ZM81.6242 275.625V274.168L81.5592 273.895V271.411C81.5592 270.883 81.4031 270.475 81.091 270.189C80.7875 269.894 80.328 269.747 79.7125 269.747C79.305 269.747 78.9062 269.816 78.516 269.955C78.1259 270.085 77.7964 270.263 77.5276 270.488L77.0074 269.552C77.3629 269.266 77.7877 269.049 78.2819 268.901C78.7848 268.745 79.3093 268.667 79.8555 268.667C80.8005 268.667 81.5288 268.897 82.0404 269.357C82.5519 269.816 82.8076 270.518 82.8076 271.463V275.625H81.6242ZM79.3613 275.703C78.8498 275.703 78.399 275.616 78.0088 275.443C77.6273 275.27 77.3326 275.031 77.1245 274.728C76.9164 274.416 76.8124 274.064 76.8124 273.674C76.8124 273.301 76.8991 272.963 77.0725 272.66C77.2545 272.356 77.545 272.114 77.9438 271.932C78.3513 271.75 78.8975 271.658 79.5824 271.658H81.7672V272.556H79.6344C79.0102 272.556 78.5897 272.66 78.373 272.868C78.1562 273.076 78.0478 273.327 78.0478 273.622C78.0478 273.96 78.1822 274.233 78.451 274.442C78.7198 274.641 79.0926 274.741 79.5694 274.741C80.0376 274.741 80.4451 274.637 80.7919 274.429C81.1473 274.22 81.4031 273.917 81.5592 273.518L81.8063 274.377C81.6415 274.784 81.3511 275.109 80.9349 275.352C80.5188 275.586 79.9942 275.703 79.3613 275.703ZM88.1222 275.703C87.4199 275.703 86.7914 275.551 86.2365 275.248C85.6903 274.944 85.2611 274.528 84.949 273.999C84.6369 273.471 84.4808 272.864 84.4808 272.179C84.4808 271.494 84.6369 270.887 84.949 270.358C85.2611 269.829 85.6903 269.417 86.2365 269.123C86.7914 268.819 87.4199 268.667 88.1222 268.667C88.7464 268.667 89.3013 268.793 89.7868 269.044C90.281 269.287 90.6625 269.651 90.9313 270.137L89.9819 270.748C89.7565 270.41 89.4791 270.163 89.1496 270.007C88.8288 269.842 88.482 269.76 88.1092 269.76C87.6584 269.76 87.2552 269.859 86.8997 270.059C86.5443 270.258 86.2625 270.54 86.0544 270.904C85.8463 271.26 85.7423 271.684 85.7423 272.179C85.7423 272.673 85.8463 273.102 86.0544 273.466C86.2625 273.83 86.5443 274.112 86.8997 274.311C87.2552 274.511 87.6584 274.611 88.1092 274.611C88.482 274.611 88.8288 274.533 89.1496 274.377C89.4791 274.212 89.7565 273.96 89.9819 273.622L90.9313 274.22C90.6625 274.697 90.281 275.066 89.7868 275.326C89.3013 275.577 88.7464 275.703 88.1222 275.703ZM93.4731 273.96L93.4991 272.361L97.4657 268.732H98.9742L95.9311 271.724L95.2548 272.296L93.4731 273.96ZM92.4588 275.625V265.975H93.7072V275.625H92.4588ZM97.7258 275.625L95.0207 272.27L95.827 271.268L99.2603 275.625H97.7258ZM104.624 275.625V274.168L104.559 273.895V271.411C104.559 270.883 104.403 270.475 104.091 270.189C103.788 269.894 103.328 269.747 102.712 269.747C102.305 269.747 101.906 269.816 101.516 269.955C101.126 270.085 100.796 270.263 100.528 270.488L100.007 269.552C100.363 269.266 100.788 269.049 101.282 268.901C101.785 268.745 102.309 268.667 102.856 268.667C103.801 268.667 104.529 268.897 105.04 269.357C105.552 269.816 105.808 270.518 105.808 271.463V275.625H104.624ZM102.361 275.703C101.85 275.703 101.399 275.616 101.009 275.443C100.627 275.27 100.333 275.031 100.124 274.728C99.9164 274.416 99.8123 274.064 99.8123 273.674C99.8123 273.301 99.899 272.963 100.072 272.66C100.255 272.356 100.545 272.114 100.944 271.932C101.351 271.75 101.897 271.658 102.582 271.658H104.767V272.556H102.634C102.01 272.556 101.59 272.66 101.373 272.868C101.156 273.076 101.048 273.327 101.048 273.622C101.048 273.96 101.182 274.233 101.451 274.442C101.72 274.641 102.093 274.741 102.569 274.741C103.038 274.741 103.445 274.637 103.792 274.429C104.147 274.22 104.403 273.917 104.559 273.518L104.806 274.377C104.642 274.784 104.351 275.109 103.935 275.352C103.519 275.586 102.994 275.703 102.361 275.703ZM111.135 278.226C110.502 278.226 109.887 278.135 109.288 277.953C108.699 277.779 108.218 277.528 107.845 277.199L108.443 276.236C108.764 276.514 109.158 276.73 109.627 276.886C110.095 277.051 110.585 277.134 111.096 277.134C111.911 277.134 112.509 276.943 112.891 276.561C113.272 276.18 113.463 275.599 113.463 274.819V273.362L113.593 271.997L113.528 270.618V268.732H114.712V274.689C114.712 275.902 114.408 276.795 113.801 277.368C113.194 277.94 112.306 278.226 111.135 278.226ZM110.979 275.339C110.312 275.339 109.713 275.2 109.184 274.923C108.664 274.637 108.248 274.242 107.936 273.739C107.633 273.236 107.481 272.656 107.481 271.997C107.481 271.329 107.633 270.748 107.936 270.254C108.248 269.751 108.664 269.361 109.184 269.084C109.713 268.806 110.312 268.667 110.979 268.667C111.569 268.667 112.106 268.789 112.592 269.031C113.077 269.266 113.463 269.63 113.749 270.124C114.044 270.618 114.191 271.242 114.191 271.997C114.191 272.742 114.044 273.362 113.749 273.856C113.463 274.351 113.077 274.723 112.592 274.975C112.106 275.218 111.569 275.339 110.979 275.339ZM111.122 274.246C111.582 274.246 111.989 274.151 112.345 273.96C112.7 273.77 112.978 273.505 113.177 273.167C113.385 272.829 113.489 272.439 113.489 271.997C113.489 271.554 113.385 271.164 113.177 270.826C112.978 270.488 112.7 270.228 112.345 270.046C111.989 269.855 111.582 269.76 111.122 269.76C110.663 269.76 110.251 269.855 109.887 270.046C109.531 270.228 109.249 270.488 109.041 270.826C108.842 271.164 108.742 271.554 108.742 271.997C108.742 272.439 108.842 272.829 109.041 273.167C109.249 273.505 109.531 273.77 109.887 273.96C110.251 274.151 110.663 274.246 111.122 274.246ZM117.097 275.625V268.732H118.346V275.625H117.097ZM117.721 267.406C117.479 267.406 117.275 267.328 117.11 267.172C116.954 267.016 116.876 266.825 116.876 266.6C116.876 266.365 116.954 266.17 117.11 266.014C117.275 265.858 117.479 265.78 117.721 265.78C117.964 265.78 118.163 265.858 118.32 266.014C118.484 266.162 118.567 266.348 118.567 266.574C118.567 266.808 118.489 267.007 118.333 267.172C118.176 267.328 117.973 267.406 117.721 267.406ZM124.41 268.667C124.973 268.667 125.467 268.776 125.892 268.992C126.326 269.209 126.664 269.539 126.907 269.981C127.149 270.423 127.271 270.982 127.271 271.658V275.625H126.022V271.802C126.022 271.134 125.858 270.631 125.528 270.293C125.207 269.955 124.752 269.786 124.163 269.786C123.72 269.786 123.335 269.872 123.005 270.046C122.676 270.219 122.42 270.475 122.238 270.813C122.064 271.151 121.978 271.572 121.978 272.075V275.625H120.729V268.732H121.926V270.592L121.731 270.098C121.956 269.647 122.303 269.296 122.771 269.044C123.239 268.793 123.785 268.667 124.41 268.667ZM132.598 278.226C131.966 278.226 131.35 278.135 130.752 277.953C130.162 277.779 129.681 277.528 129.308 277.199L129.906 276.236C130.227 276.514 130.622 276.73 131.09 276.886C131.558 277.051 132.048 277.134 132.559 277.134C133.374 277.134 133.973 276.943 134.354 276.561C134.736 276.18 134.926 275.599 134.926 274.819V273.362L135.056 271.997L134.991 270.618V268.732H136.175V274.689C136.175 275.902 135.871 276.795 135.264 277.368C134.658 277.94 133.769 278.226 132.598 278.226ZM132.442 275.339C131.775 275.339 131.177 275.2 130.648 274.923C130.128 274.637 129.711 274.242 129.399 273.739C129.096 273.236 128.944 272.656 128.944 271.997C128.944 271.329 129.096 270.748 129.399 270.254C129.711 269.751 130.128 269.361 130.648 269.084C131.177 268.806 131.775 268.667 132.442 268.667C133.032 268.667 133.57 268.789 134.055 269.031C134.541 269.266 134.926 269.63 135.212 270.124C135.507 270.618 135.655 271.242 135.655 271.997C135.655 272.742 135.507 273.362 135.212 273.856C134.926 274.351 134.541 274.723 134.055 274.975C133.57 275.218 133.032 275.339 132.442 275.339ZM132.585 274.246C133.045 274.246 133.452 274.151 133.808 273.96C134.163 273.77 134.441 273.505 134.64 273.167C134.848 272.829 134.952 272.439 134.952 271.997C134.952 271.554 134.848 271.164 134.64 270.826C134.441 270.488 134.163 270.228 133.808 270.046C133.452 269.855 133.045 269.76 132.585 269.76C132.126 269.76 131.714 269.855 131.35 270.046C130.995 270.228 130.713 270.488 130.505 270.826C130.305 271.164 130.206 271.554 130.206 271.997C130.206 272.439 130.305 272.829 130.505 273.167C130.713 273.505 130.995 273.77 131.35 273.96C131.714 274.151 132.126 274.246 132.585 274.246ZM138.859 275.703C138.617 275.703 138.409 275.621 138.235 275.456C138.062 275.283 137.975 275.066 137.975 274.806C137.975 274.546 138.062 274.333 138.235 274.168C138.409 274.004 138.617 273.921 138.859 273.921C139.094 273.921 139.293 274.004 139.458 274.168C139.631 274.333 139.718 274.546 139.718 274.806C139.718 275.066 139.631 275.283 139.458 275.456C139.293 275.621 139.094 275.703 138.859 275.703Z" fill="black"/>
<defs>
<linearGradient id="paint0_linear_2039_601" x1="104.04" y1="165.095" x2="104.04" y2="12.2402" gradientUnits="userSpaceOnUse">
<stop offset="0.906845" stop-color="#FFF4EA"/>
</linearGradient>
<linearGradient id="paint1_linear_2039_601" x1="104.04" y1="286.734" x2="104.04" y2="297.499" gradientUnits="userSpaceOnUse">
<stop offset="0.365385" stop-color="#128736"/>
<stop offset="1" stop-color="white"/>
</linearGradient>
</defs>
</svg>
