<svg width="215" height="307" viewBox="0 0 215 307" fill="none" xmlns="http://www.w3.org/2000/svg">
<g filter="url(#filter0_d_2201_36)">
<path d="M27.9878 13.8545L186.923 13.8545C199.111 13.8546 208.991 23.7347 208.991 35.9219L208.991 163.48L5.92041 163.48L5.92041 35.9219C5.92047 23.7346 15.8006 13.8546 27.9878 13.8545Z" fill="url(#paint0_linear_2201_36)" stroke="#1B8699" stroke-width="3.22934"/>
<path d="M4.30664 165.096L210.605 165.096V288.887H4.30664L4.30664 165.096Z" fill="#F6F3F3"/>
<path d="M4.30615 286.735H210.605V286.735C210.605 292.68 205.786 297.5 199.84 297.5H15.0706C9.12556 297.5 4.30615 292.68 4.30615 286.735V286.735Z" fill="url(#paint1_linear_2201_36)"/>
<path d="M4.30615 286.735H104.804C110.749 286.735 115.568 291.555 115.568 297.5V297.5H15.0706C9.12557 297.5 4.30615 292.68 4.30615 286.735V286.735Z" fill="#1B8699"/>
<rect x="26.5317" width="161.206" height="22.6054" rx="11.3027" fill="#1B8699"/>
<path d="M40.7314 15.8027L40.7314 6.76059L42.824 6.76059L42.824 15.8027L40.7314 15.8027ZM44.9699 15.8027L44.9699 6.76059L46.7009 6.76059L50.5502 13.1418L49.6331 13.1418L53.4179 6.76059L55.1359 6.76059L55.1617 15.8027L53.1983 15.8027L53.1854 9.77033L53.5471 9.77033L50.5244 14.8468L49.5814 14.8468L46.4942 9.77033L46.9334 9.77033L46.9334 15.8027L44.9699 15.8027ZM57.307 15.8027L57.307 6.76059L59.3996 6.76059L59.3996 14.0976L63.9336 14.0976L63.9336 15.8027L57.307 15.8027ZM68.7611 15.8027L68.7611 6.76059L70.492 6.76059L74.3414 13.1418L73.4242 13.1418L77.209 6.76059L78.927 6.76059L78.9528 15.8027L76.9894 15.8027L76.9765 9.77033L77.3382 9.77033L74.3155 14.8468L73.3726 14.8468L70.2853 9.77033L70.7245 9.77033L70.7245 15.8027L68.7611 15.8027ZM85.49 15.9577C84.7753 15.9577 84.1122 15.8415 83.5008 15.609C82.898 15.3765 82.3726 15.0492 81.9248 14.6273C81.4857 14.2053 81.1412 13.7101 80.8915 13.1418C80.6503 12.5734 80.5298 11.9534 80.5298 11.2817C80.5298 10.61 80.6503 9.98993 80.8915 9.42156C81.1412 8.8532 81.49 8.35804 81.9378 7.93607C82.3856 7.5141 82.9109 7.18686 83.5137 6.95435C84.1165 6.72184 84.771 6.60558 85.4771 6.60558C86.1919 6.60558 86.8464 6.72184 87.4406 6.95435C88.0434 7.18686 88.5644 7.5141 89.0036 7.93607C89.4514 8.35804 89.8001 8.8532 90.0499 9.42156C90.2996 9.98132 90.4245 10.6013 90.4245 11.2817C90.4245 11.9534 90.2996 12.5777 90.0499 13.1547C89.8001 13.723 89.4514 14.2182 89.0036 14.6402C88.5644 15.0535 88.0434 15.3765 87.4406 15.609C86.8464 15.8415 86.1962 15.9577 85.49 15.9577ZM85.4771 14.1751C85.8819 14.1751 86.2522 14.1063 86.588 13.9685C86.9325 13.8307 87.2339 13.6326 87.4922 13.3743C87.7506 13.1159 87.9486 12.8102 88.0864 12.4571C88.2328 12.1041 88.306 11.7122 88.306 11.2817C88.306 10.8511 88.2328 10.4593 88.0864 10.1062C87.9486 9.75311 87.7506 9.4474 87.4922 9.18905C87.2425 8.9307 86.9454 8.73264 86.6009 8.59485C86.2565 8.45707 85.8819 8.38818 85.4771 8.38818C85.0724 8.38818 84.6978 8.45707 84.3533 8.59485C84.0175 8.73264 83.7204 8.9307 83.462 9.18905C83.2037 9.4474 83.0013 9.75311 82.8549 10.1062C82.7171 10.4593 82.6482 10.8511 82.6482 11.2817C82.6482 11.7036 82.7171 12.0955 82.8549 12.4571C83.0013 12.8102 83.1994 13.1159 83.4491 13.3743C83.7074 13.6326 84.0088 13.8307 84.3533 13.9685C84.6978 14.1063 85.0724 14.1751 85.4771 14.1751ZM96.3761 15.9577C95.67 15.9577 95.0112 15.8415 94.3998 15.609C93.797 15.3765 93.2717 15.0492 92.8239 14.6273C92.3847 14.2053 92.0402 13.7101 91.7905 13.1418C91.5493 12.5734 91.4288 11.9534 91.4288 11.2817C91.4288 10.61 91.5493 9.98993 91.7905 9.42156C92.0402 8.8532 92.389 8.35804 92.8368 7.93607C93.2846 7.5141 93.8099 7.18686 94.4127 6.95435C95.0155 6.72184 95.67 6.60558 96.3761 6.60558C97.0909 6.60558 97.7454 6.72184 98.3396 6.95435C98.9424 7.18686 99.4634 7.5141 99.9026 7.93607C100.35 8.34942 100.699 8.84028 100.949 9.40865C101.199 9.97701 101.323 10.6013 101.323 11.2817C101.323 11.9534 101.199 12.5777 100.949 13.1547C100.699 13.723 100.35 14.2182 99.9026 14.6402C99.4634 15.0535 98.9424 15.3765 98.3396 15.609C97.7454 15.8415 97.0909 15.9577 96.3761 15.9577ZM99.3342 17.8824C98.9811 17.8824 98.6453 17.8437 98.3266 17.7662C98.0166 17.6887 97.7066 17.5638 97.3966 17.3916C97.0952 17.2193 96.7766 16.9868 96.4407 16.694C96.1135 16.4012 95.7561 16.0396 95.3686 15.609L97.5645 15.0535C97.797 15.3722 98.0123 15.6262 98.2104 15.8156C98.4085 16.0051 98.5979 16.1386 98.7788 16.2161C98.9682 16.2936 99.1663 16.3323 99.373 16.3323C99.9241 16.3323 100.415 16.1084 100.846 15.6606L101.776 16.7715C101.164 17.5121 100.35 17.8824 99.3342 17.8824ZM96.3761 14.1751C96.7809 14.1751 97.1512 14.1063 97.487 13.9685C97.8315 13.8307 98.1329 13.6326 98.3912 13.3743C98.6496 13.1159 98.8476 12.8102 98.9854 12.4571C99.1318 12.0955 99.205 11.7036 99.205 11.2817C99.205 10.8511 99.1318 10.4593 98.9854 10.1062C98.8476 9.75311 98.6496 9.4474 98.3912 9.18905C98.1329 8.9307 97.8315 8.73264 97.487 8.59485C97.1512 8.45707 96.7809 8.38818 96.3761 8.38818C95.9714 8.38818 95.5968 8.45707 95.2523 8.59485C94.9079 8.73264 94.6065 8.9307 94.3481 9.18905C94.0984 9.4474 93.9003 9.75311 93.7539 10.1062C93.6161 10.4593 93.5472 10.8511 93.5472 11.2817C93.5472 11.7036 93.6161 12.0955 93.7539 12.4571C93.9003 12.8102 94.0984 13.1159 94.3481 13.3743C94.6065 13.6326 94.9079 13.8307 95.2523 13.9685C95.5968 14.1063 95.9714 14.1751 96.3761 14.1751ZM106.154 12.9738L106.154 11.3592L109.81 11.3592L109.81 12.9738L106.154 12.9738ZM116.074 15.8027L119.716 7.56147L120.259 8.46568L115.389 8.46568L116.319 7.48396L116.319 9.93826L114.459 9.93826L114.459 6.76059L121.706 6.76059L121.706 8.11691L118.347 15.8027L116.074 15.8027ZM125.497 15.9577C124.869 15.9577 124.244 15.8759 123.624 15.7123C123.013 15.5401 122.487 15.299 122.048 14.9889L122.875 13.3872C123.219 13.6369 123.616 13.835 124.063 13.9814C124.52 14.1278 124.98 14.201 125.446 14.201C125.971 14.201 126.384 14.0976 126.686 13.891C126.987 13.6843 127.138 13.3958 127.138 13.0255C127.138 12.793 127.077 12.5863 126.957 12.4055C126.836 12.2246 126.621 12.0868 126.311 11.9921C126.01 11.8974 125.583 11.85 125.032 11.85L122.72 11.85L123.185 6.76059L128.701 6.76059L128.701 8.43984L123.934 8.43984L125.019 7.48396L124.696 11.1137L123.611 10.1579L125.523 10.1579C126.419 10.1579 127.138 10.2827 127.68 10.5325C128.231 10.7736 128.632 11.1051 128.882 11.5271C129.131 11.9491 129.256 12.427 129.256 12.9609C129.256 13.4948 129.123 13.99 128.856 14.4464C128.589 14.8942 128.175 15.2602 127.616 15.5444C127.064 15.82 126.358 15.9577 125.497 15.9577ZM133.98 15.9577C133.24 15.9577 132.577 15.7769 131.991 15.4152C131.405 15.0449 130.945 14.511 130.609 13.8135C130.273 13.1159 130.105 12.272 130.105 11.2817C130.105 10.2913 130.273 9.4474 130.609 8.74986C130.945 8.05232 131.405 7.52271 131.991 7.16103C132.577 6.79073 133.24 6.60558 133.98 6.60558C134.73 6.60558 135.393 6.79073 135.97 7.16103C136.555 7.52271 137.016 8.05232 137.352 8.74986C137.688 9.4474 137.856 10.2913 137.856 11.2817C137.856 12.272 137.688 13.1159 137.352 13.8135C137.016 14.511 136.555 15.0449 135.97 15.4152C135.393 15.7769 134.73 15.9577 133.98 15.9577ZM133.98 14.1881C134.333 14.1881 134.639 14.089 134.897 13.891C135.164 13.6929 135.371 13.3786 135.517 12.948C135.673 12.5174 135.75 11.962 135.75 11.2817C135.75 10.6013 135.673 10.0459 135.517 9.61532C135.371 9.18475 135.164 8.87042 134.897 8.67236C134.639 8.47429 134.333 8.37526 133.98 8.37526C133.636 8.37526 133.33 8.47429 133.063 8.67236C132.805 8.87042 132.598 9.18475 132.443 9.61532C132.297 10.0459 132.224 10.6013 132.224 11.2817C132.224 11.962 132.297 12.5174 132.443 12.948C132.598 13.3786 132.805 13.6929 133.063 13.891C133.33 14.089 133.636 14.1881 133.98 14.1881ZM142.747 15.9577C142.007 15.9577 141.344 15.7769 140.758 15.4152C140.173 15.0449 139.712 14.511 139.376 13.8135C139.04 13.1159 138.872 12.272 138.872 11.2817C138.872 10.2913 139.04 9.4474 139.376 8.74986C139.712 8.05232 140.173 7.52271 140.758 7.16103C141.344 6.79073 142.007 6.60558 142.747 6.60558C143.497 6.60558 144.16 6.79073 144.737 7.16103C145.322 7.52271 145.783 8.05232 146.119 8.74986C146.455 9.4474 146.623 10.2913 146.623 11.2817C146.623 12.272 146.455 13.1159 146.119 13.8135C145.783 14.511 145.322 15.0449 144.737 15.4152C144.16 15.7769 143.497 15.9577 142.747 15.9577ZM142.747 14.1881C143.101 14.1881 143.406 14.089 143.665 13.891C143.932 13.6929 144.138 13.3786 144.285 12.948C144.44 12.5174 144.517 11.962 144.517 11.2817C144.517 10.6013 144.44 10.0459 144.285 9.61532C144.138 9.18474 143.932 8.87042 143.665 8.67236C143.406 8.47429 143.101 8.37526 142.747 8.37526C142.403 8.37526 142.097 8.47429 141.83 8.67236C141.572 8.87042 141.365 9.18474 141.21 9.61532C141.064 10.0459 140.991 10.6013 140.991 11.2817C140.991 11.962 141.064 12.5174 141.21 12.948C141.365 13.3786 141.572 13.6929 141.83 13.891C142.097 14.089 142.403 14.1881 142.747 14.1881ZM151.866 15.8027L151.866 6.76059L155.78 6.76059C156.589 6.76059 157.287 6.89407 157.873 7.16103C158.458 7.41937 158.91 7.79398 159.229 8.28484C159.548 8.7757 159.707 9.36128 159.707 10.0416C159.707 10.7133 159.548 11.2946 159.229 11.7854C158.91 12.2763 158.458 12.6552 157.873 12.9222C157.287 13.1805 156.589 13.3097 155.78 13.3097L153.029 13.3097L153.959 12.3667L153.959 15.8027L151.866 15.8027ZM153.959 12.5992L153.029 11.6046L155.664 11.6046C156.31 11.6046 156.792 11.4668 157.11 11.1912C157.429 10.9157 157.588 10.5325 157.588 10.0416C157.588 9.54213 157.429 9.1546 157.11 8.87903C156.792 8.60346 156.31 8.46568 155.664 8.46568L153.029 8.46568L153.959 7.47104L153.959 12.5992ZM164.405 15.9061C163.655 15.9061 162.988 15.7554 162.402 15.454C161.817 15.1439 161.356 14.7177 161.02 14.1751C160.693 13.6326 160.529 13.0169 160.529 12.328C160.529 11.6304 160.693 11.0147 161.02 10.4808C161.356 9.93826 161.817 9.51629 162.402 9.21489C162.988 8.90487 163.655 8.74986 164.405 8.74986C165.137 8.74986 165.774 8.90487 166.316 9.21488C166.859 9.51629 167.259 9.95117 167.518 10.5195L165.955 11.3592C165.774 11.0319 165.546 10.7908 165.27 10.6358C165.003 10.4808 164.71 10.4033 164.392 10.4033C164.047 10.4033 163.737 10.4808 163.462 10.6358C163.186 10.7908 162.966 11.0104 162.803 11.2946C162.648 11.5788 162.57 11.9232 162.57 12.328C162.57 12.7327 162.648 13.0772 162.803 13.3614C162.966 13.6455 163.186 13.8651 163.462 14.0201C163.737 14.1751 164.047 14.2527 164.392 14.2527C164.71 14.2527 165.003 14.1795 165.27 14.0331C165.546 13.878 165.774 13.6326 165.955 13.2968L167.518 14.1493C167.259 14.7091 166.859 15.1439 166.316 15.454C165.774 15.7554 165.137 15.9061 164.405 15.9061ZM171.016 15.9061C170.422 15.9061 169.849 15.8372 169.298 15.6994C168.755 15.553 168.325 15.3722 168.006 15.1569L168.678 13.7101C168.997 13.9082 169.371 14.0718 169.802 14.201C170.241 14.3215 170.672 14.3818 171.093 14.3818C171.559 14.3818 171.886 14.3258 172.075 14.2139C172.273 14.1019 172.372 13.9469 172.372 13.7489C172.372 13.5853 172.295 13.4647 172.14 13.3872C171.993 13.3011 171.795 13.2365 171.546 13.1934C171.296 13.1504 171.02 13.1073 170.719 13.0643C170.426 13.0212 170.129 12.9652 169.828 12.8963C169.526 12.8188 169.251 12.7069 169.001 12.5605C168.751 12.4141 168.549 12.216 168.394 11.9663C168.247 11.7165 168.174 11.3936 168.174 10.9975C168.174 10.5583 168.299 10.1708 168.549 9.83492C168.807 9.49907 169.177 9.23641 169.66 9.04696C170.142 8.84889 170.719 8.74986 171.391 8.74986C171.864 8.74986 172.346 8.80153 172.837 8.90487C173.328 9.00821 173.737 9.15891 174.064 9.35698L173.393 10.7908C173.057 10.5927 172.717 10.4593 172.372 10.3904C172.036 10.3129 171.709 10.2741 171.391 10.2741C170.943 10.2741 170.616 10.3344 170.409 10.455C170.202 10.5755 170.099 10.7305 170.099 10.92C170.099 11.0922 170.172 11.2214 170.318 11.3075C170.473 11.3936 170.676 11.4625 170.926 11.5142C171.175 11.5658 171.447 11.6132 171.739 11.6563C172.041 11.6907 172.342 11.7467 172.644 11.8242C172.945 11.9017 173.216 12.0136 173.457 12.16C173.707 12.2978 173.909 12.4916 174.064 12.7413C174.219 12.9824 174.297 13.3011 174.297 13.6972C174.297 14.1278 174.168 14.511 173.909 14.8468C173.651 15.1741 173.277 15.4324 172.786 15.6219C172.303 15.8113 171.714 15.9061 171.016 15.9061Z" fill="white"/>
<rect x="4.30566" y="137" width="206" height="40" fill="#1B8699"/>
<rect x="4.30566" y="137" width="206" height="40" stroke="white"/>
<path d="M47.9192 166.755C46.3963 166.755 45.0327 166.383 43.8286 165.64C42.6244 164.878 41.677 163.78 40.9864 162.346C40.2958 160.912 39.9505 159.176 39.9505 157.14C39.9505 155.103 40.2958 153.368 40.9864 151.933C41.677 150.499 42.6244 149.41 43.8286 148.666C45.0327 147.905 46.3963 147.524 47.9192 147.524C49.4598 147.524 50.8233 147.905 52.0098 148.666C53.214 149.41 54.1614 150.499 54.852 151.933C55.5426 153.368 55.8879 155.103 55.8879 157.14C55.8879 159.176 55.5426 160.912 54.852 162.346C54.1614 163.78 53.214 164.878 52.0098 165.64C50.8233 166.383 49.4598 166.755 47.9192 166.755ZM47.9192 163.116C48.6452 163.116 49.2739 162.913 49.8051 162.505C50.3541 162.098 50.7791 161.452 51.0801 160.566C51.3989 159.681 51.5582 158.539 51.5582 157.14C51.5582 155.741 51.3989 154.599 51.0801 153.713C50.7791 152.828 50.3541 152.181 49.8051 151.774C49.2739 151.367 48.6452 151.163 47.9192 151.163C47.2109 151.163 46.5822 151.367 46.0333 151.774C45.502 152.181 45.077 152.828 44.7583 153.713C44.4572 154.599 44.3067 155.741 44.3067 157.14C44.3067 158.539 44.4572 159.681 44.7583 160.566C45.077 161.452 45.502 162.098 46.0333 162.505C46.5822 162.913 47.2109 163.116 47.9192 163.116ZM64.3005 166.755C63.0078 166.755 61.724 166.587 60.449 166.251C59.1917 165.896 58.1115 165.401 57.2084 164.763L58.9084 161.469C59.6167 161.983 60.4313 162.39 61.3521 162.691C62.2906 162.992 63.238 163.143 64.1943 163.143C65.2745 163.143 66.1245 162.93 66.7443 162.505C67.3641 162.08 67.674 161.487 67.674 160.726C67.674 160.247 67.55 159.822 67.3021 159.451C67.0542 159.079 66.6115 158.795 65.974 158.601C65.3542 158.406 64.4776 158.308 63.3443 158.308L58.5896 158.308L59.5459 147.843L70.888 147.843L70.888 151.296L61.0865 151.296L63.3177 149.33L62.6537 156.794L60.4224 154.829L64.3537 154.829C66.1953 154.829 67.674 155.086 68.7896 155.599C69.9229 156.095 70.7463 156.777 71.2599 157.644C71.7734 158.512 72.0302 159.495 72.0302 160.593C72.0302 161.691 71.7557 162.709 71.2068 163.647C70.6578 164.568 69.8078 165.321 68.6568 165.905C67.5234 166.472 66.0714 166.755 64.3005 166.755ZM74.1214 160.619L74.1214 157.299L81.6385 157.299L81.6385 160.619L74.1214 160.619ZM86.7379 166.437L94.2285 149.49L95.3441 151.349L85.3301 151.349L87.2426 149.33L87.2426 154.377L83.4176 154.377L83.4176 147.843L98.3191 147.843L98.3191 150.632L91.4129 166.437L86.7379 166.437ZM106.116 166.755C104.823 166.755 103.539 166.587 102.264 166.251C101.007 165.896 99.9266 165.401 99.0234 164.763L100.723 161.469C101.432 161.983 102.246 162.39 103.167 162.691C104.106 162.992 105.053 163.143 106.009 163.143C107.09 163.143 107.94 162.93 108.559 162.505C109.179 162.08 109.489 161.487 109.489 160.726C109.489 160.247 109.365 159.822 109.117 159.451C108.869 159.079 108.427 158.795 107.789 158.601C107.169 158.406 106.293 158.308 105.159 158.308L100.405 158.308L101.361 147.843L112.703 147.843L112.703 151.296L102.902 151.296L105.133 149.33L104.469 156.794L102.237 154.829L106.169 154.829C108.01 154.829 109.489 155.086 110.605 155.599C111.738 156.095 112.561 156.777 113.075 157.644C113.588 158.512 113.845 159.495 113.845 160.593C113.845 161.691 113.571 162.709 113.022 163.647C112.473 164.568 111.623 165.321 110.472 165.905C109.339 166.472 107.886 166.755 106.116 166.755ZM123.56 166.755C122.037 166.755 120.673 166.383 119.469 165.64C118.265 164.878 117.318 163.78 116.627 162.346C115.936 160.912 115.591 159.176 115.591 157.14C115.591 155.103 115.936 153.368 116.627 151.933C117.318 150.499 118.265 149.41 119.469 148.666C120.673 147.905 122.037 147.524 123.56 147.524C125.1 147.524 126.464 147.905 127.65 148.666C128.855 149.41 129.802 150.499 130.493 151.933C131.183 153.368 131.529 155.103 131.529 157.14C131.529 159.176 131.183 160.912 130.493 162.346C129.802 163.78 128.855 164.878 127.65 165.64C126.464 166.383 125.1 166.755 123.56 166.755ZM123.56 163.116C124.286 163.116 124.915 162.913 125.446 162.505C125.995 162.098 126.42 161.452 126.721 160.566C127.04 159.681 127.199 158.539 127.199 157.14C127.199 155.741 127.04 154.599 126.721 153.713C126.42 152.828 125.995 152.181 125.446 151.774C124.915 151.367 124.286 151.163 123.56 151.163C122.852 151.163 122.223 151.367 121.674 151.774C121.143 152.181 120.718 152.828 120.399 153.713C120.098 154.599 119.947 155.741 119.947 157.14C119.947 158.539 120.098 159.681 120.399 160.566C120.718 161.452 121.143 162.098 121.674 162.505C122.223 162.913 122.852 163.116 123.56 163.116ZM160.32 151.933C161.453 151.933 162.454 152.164 163.322 152.624C164.207 153.067 164.898 153.757 165.393 154.696C165.907 155.617 166.164 156.803 166.164 158.255L166.164 166.437L162.02 166.437L162.02 158.893C162.02 157.742 161.781 156.892 161.303 156.343C160.825 155.794 160.152 155.519 159.284 155.519C158.682 155.519 158.142 155.661 157.664 155.944C157.186 156.21 156.814 156.617 156.548 157.166C156.282 157.715 156.15 158.415 156.15 159.265L156.15 166.437L152.006 166.437L152.006 158.893C152.006 157.742 151.767 156.892 151.289 156.343C150.828 155.794 150.164 155.519 149.297 155.519C148.694 155.519 148.154 155.661 147.676 155.944C147.198 156.21 146.826 156.617 146.561 157.166C146.295 157.715 146.162 158.415 146.162 159.265L146.162 166.437L142.018 166.437L142.018 152.146L145.976 152.146L145.976 156.051L145.233 154.908C145.728 153.934 146.428 153.2 147.331 152.704C148.252 152.19 149.297 151.933 150.465 151.933C151.776 151.933 152.918 152.27 153.892 152.943C154.884 153.598 155.539 154.607 155.857 155.971L154.397 155.572C154.875 154.457 155.636 153.571 156.681 152.916C157.743 152.261 158.956 151.933 160.32 151.933ZM169.878 166.437L169.878 146.727L174.022 146.727L174.022 166.437L169.878 166.437Z" fill="#F6F4F3"/>
</g>
<path d="M42.7625 198.626V189.523H43.7249V197.794H48.8228V198.626H42.7625ZM54.5043 198.626V197.117L54.4653 196.87V194.347C54.4653 193.766 54.3005 193.32 53.9711 193.008C53.6503 192.696 53.1691 192.54 52.5275 192.54C52.0854 192.54 51.6649 192.613 51.2661 192.761C50.8672 192.908 50.5291 193.103 50.2517 193.346L49.8355 192.657C50.1823 192.362 50.5985 192.136 51.084 191.98C51.5695 191.816 52.081 191.733 52.6186 191.733C53.5029 191.733 54.1835 191.954 54.6603 192.397C55.1459 192.83 55.3886 193.493 55.3886 194.386V198.626H54.5043ZM52.1504 198.691C51.6389 198.691 51.1924 198.609 50.8109 198.444C50.4381 198.271 50.152 198.036 49.9526 197.742C49.7531 197.438 49.6534 197.091 49.6534 196.701C49.6534 196.346 49.7358 196.025 49.9005 195.739C50.0739 195.444 50.3514 195.21 50.7328 195.037C51.123 194.855 51.6432 194.764 52.2934 194.764H54.6473V195.453H52.3195C51.6605 195.453 51.201 195.57 50.9409 195.804C50.6895 196.038 50.5638 196.328 50.5638 196.675C50.5638 197.065 50.7155 197.377 51.019 197.612C51.3224 197.846 51.7472 197.963 52.2934 197.963C52.8136 197.963 53.2601 197.846 53.633 197.612C54.0144 197.369 54.2919 197.022 54.4653 196.571L54.6734 197.208C54.5 197.659 54.1965 198.019 53.763 198.288C53.3382 198.557 52.8006 198.691 52.1504 198.691ZM57.8966 198.626V191.798H58.7809V193.658L58.6899 193.333C58.8806 192.813 59.2014 192.418 59.6522 192.15C60.1031 191.872 60.6623 191.733 61.3299 191.733V192.631C61.2952 192.631 61.2605 192.631 61.2258 192.631C61.1911 192.622 61.1565 192.618 61.1218 192.618C60.4022 192.618 59.8386 192.839 59.4311 193.281C59.0237 193.714 58.8199 194.334 58.8199 195.141V198.626H57.8966ZM65.8643 201.214C65.2401 201.214 64.6419 201.123 64.0696 200.941C63.4974 200.759 63.0336 200.499 62.6781 200.161L63.1463 199.458C63.4671 199.744 63.8616 199.97 64.3297 200.135C64.8066 200.308 65.3095 200.395 65.8383 200.395C66.7053 200.395 67.3426 200.191 67.7501 199.783C68.1575 199.385 68.3613 198.76 68.3613 197.911V196.207L68.4913 195.037L68.4003 193.866V191.798H69.2846V197.794C69.2846 198.973 68.9942 199.835 68.4133 200.382C67.8411 200.937 66.9914 201.214 65.8643 201.214ZM65.6953 198.366C65.045 198.366 64.4598 198.227 63.9396 197.95C63.4194 197.664 63.0076 197.269 62.7041 196.766C62.4093 196.263 62.262 195.687 62.262 195.037C62.262 194.386 62.4093 193.814 62.7041 193.32C63.0076 192.817 63.4194 192.427 63.9396 192.15C64.4598 191.872 65.045 191.733 65.6953 191.733C66.3022 191.733 66.8484 191.859 67.3339 192.11C67.8194 192.362 68.2052 192.735 68.4913 193.229C68.7774 193.723 68.9205 194.326 68.9205 195.037C68.9205 195.748 68.7774 196.35 68.4913 196.844C68.2052 197.338 67.8194 197.716 67.3339 197.976C66.8484 198.236 66.3022 198.366 65.6953 198.366ZM65.7863 197.547C66.2892 197.547 66.7357 197.443 67.1258 197.234C67.516 197.018 67.8237 196.723 68.0492 196.35C68.2746 195.969 68.3873 195.531 68.3873 195.037C68.3873 194.542 68.2746 194.109 68.0492 193.736C67.8237 193.363 67.516 193.073 67.1258 192.865C66.7357 192.648 66.2892 192.54 65.7863 192.54C65.2921 192.54 64.8456 192.648 64.4468 192.865C64.0566 193.073 63.7489 193.363 63.5234 193.736C63.3067 194.109 63.1983 194.542 63.1983 195.037C63.1983 195.531 63.3067 195.969 63.5234 196.35C63.7489 196.723 64.0566 197.018 64.4468 197.234C64.8456 197.443 65.2921 197.547 65.7863 197.547ZM74.7541 198.691C74.0432 198.691 73.419 198.544 72.8814 198.249C72.3439 197.945 71.9234 197.534 71.6199 197.013C71.3165 196.484 71.1648 195.882 71.1648 195.206C71.1648 194.529 71.3078 193.931 71.5939 193.411C71.8887 192.891 72.2875 192.483 72.7904 192.189C73.3019 191.885 73.8741 191.733 74.507 191.733C75.1486 191.733 75.7165 191.881 76.2107 192.176C76.7136 192.462 77.108 192.869 77.3941 193.398C77.6803 193.918 77.8233 194.521 77.8233 195.206C77.8233 195.249 77.819 195.297 77.8103 195.349C77.8103 195.392 77.8103 195.44 77.8103 195.492H71.867V194.803H77.3161L76.952 195.076C76.952 194.581 76.8436 194.144 76.6269 193.762C76.4188 193.372 76.1327 193.069 75.7685 192.852C75.4044 192.635 74.9839 192.527 74.507 192.527C74.0389 192.527 73.6184 192.635 73.2456 192.852C72.8728 193.069 72.5823 193.372 72.3742 193.762C72.1662 194.152 72.0621 194.599 72.0621 195.102V195.245C72.0621 195.765 72.1748 196.224 72.4002 196.623C72.6343 197.013 72.9551 197.321 73.3626 197.547C73.7788 197.763 74.2513 197.872 74.7801 197.872C75.1963 197.872 75.5821 197.798 75.9376 197.651C76.3017 197.503 76.6138 197.278 76.8739 196.974L77.3941 197.573C77.0907 197.937 76.7092 198.214 76.2497 198.405C75.7989 198.596 75.3003 198.691 74.7541 198.691ZM79.3225 195.505V194.698H82.7298V195.505H79.3225ZM89.0457 198.704C88.3608 198.704 87.7278 198.591 87.147 198.366C86.5661 198.132 86.0632 197.807 85.6384 197.391C85.2135 196.974 84.8798 196.484 84.637 195.921C84.4029 195.357 84.2859 194.742 84.2859 194.074C84.2859 193.407 84.4029 192.791 84.637 192.228C84.8798 191.664 85.2135 191.174 85.6384 190.758C86.0719 190.342 86.5791 190.021 87.16 189.796C87.7408 189.562 88.3738 189.444 89.0587 189.444C89.7176 189.444 90.3375 189.557 90.9184 189.783C91.4993 189.999 91.9891 190.329 92.388 190.771L91.7767 191.382C91.4039 191.001 90.9921 190.728 90.5413 190.563C90.0904 190.389 89.6049 190.303 89.0847 190.303C88.5385 190.303 88.0313 190.398 87.5631 190.589C87.0949 190.771 86.6874 191.035 86.3406 191.382C85.9938 191.72 85.7207 192.119 85.5213 192.579C85.3306 193.03 85.2352 193.528 85.2352 194.074C85.2352 194.62 85.3306 195.123 85.5213 195.583C85.7207 196.034 85.9938 196.432 86.3406 196.779C86.6874 197.117 87.0949 197.382 87.5631 197.573C88.0313 197.755 88.5385 197.846 89.0847 197.846C89.6049 197.846 90.0904 197.759 90.5413 197.586C90.9921 197.412 91.4039 197.135 91.7767 196.753L92.388 197.364C91.9891 197.807 91.4993 198.14 90.9184 198.366C90.3375 198.591 89.7133 198.704 89.0457 198.704ZM98.4214 198.626V197.117L98.3824 196.87V194.347C98.3824 193.766 98.2177 193.32 97.8882 193.008C97.5674 192.696 97.0863 192.54 96.4447 192.54C96.0025 192.54 95.582 192.613 95.1832 192.761C94.7844 192.908 94.4463 193.103 94.1688 193.346L93.7527 192.657C94.0995 192.362 94.5156 192.136 95.0011 191.98C95.4867 191.816 95.9982 191.733 96.5357 191.733C97.4201 191.733 98.1007 191.954 98.5775 192.397C99.063 192.83 99.3058 193.493 99.3058 194.386V198.626H98.4214ZM96.0675 198.691C95.556 198.691 95.1095 198.609 94.728 198.444C94.3552 198.271 94.0691 198.036 93.8697 197.742C93.6703 197.438 93.5706 197.091 93.5706 196.701C93.5706 196.346 93.653 196.025 93.8177 195.739C93.9911 195.444 94.2685 195.21 94.65 195.037C95.0402 194.855 95.5603 194.764 96.2106 194.764H98.5645V195.453H96.2366C95.5777 195.453 95.1182 195.57 94.8581 195.804C94.6067 196.038 94.4809 196.328 94.4809 196.675C94.4809 197.065 94.6327 197.377 94.9361 197.612C95.2396 197.846 95.6644 197.963 96.2106 197.963C96.7308 197.963 97.1773 197.846 97.5501 197.612C97.9316 197.369 98.209 197.022 98.3824 196.571L98.5905 197.208C98.4171 197.659 98.1137 198.019 97.6802 198.288C97.2553 198.557 96.7178 198.691 96.0675 198.691ZM105.338 198.691C104.748 198.691 104.215 198.557 103.738 198.288C103.262 198.01 102.88 197.616 102.594 197.104C102.317 196.584 102.178 195.951 102.178 195.206C102.178 194.46 102.317 193.831 102.594 193.32C102.871 192.8 103.249 192.405 103.725 192.136C104.202 191.868 104.74 191.733 105.338 191.733C105.988 191.733 106.569 191.881 107.081 192.176C107.601 192.462 108.008 192.869 108.303 193.398C108.598 193.918 108.745 194.521 108.745 195.206C108.745 195.899 108.598 196.506 108.303 197.026C108.008 197.547 107.601 197.954 107.081 198.249C106.569 198.544 105.988 198.691 105.338 198.691ZM101.814 201.149V191.798H102.698V193.853L102.607 195.219L102.737 196.597V201.149H101.814ZM105.273 197.872C105.759 197.872 106.192 197.763 106.574 197.547C106.955 197.321 107.258 197.009 107.484 196.61C107.709 196.203 107.822 195.735 107.822 195.206C107.822 194.677 107.709 194.213 107.484 193.814C107.258 193.415 106.955 193.103 106.574 192.878C106.192 192.652 105.759 192.54 105.273 192.54C104.788 192.54 104.35 192.652 103.96 192.878C103.578 193.103 103.275 193.415 103.049 193.814C102.832 194.213 102.724 194.677 102.724 195.206C102.724 195.735 102.832 196.203 103.049 196.61C103.275 197.009 103.578 197.321 103.96 197.547C104.35 197.763 104.788 197.872 105.273 197.872ZM114.868 198.626V197.117L114.829 196.87V194.347C114.829 193.766 114.664 193.32 114.335 193.008C114.014 192.696 113.533 192.54 112.891 192.54C112.449 192.54 112.029 192.613 111.63 192.761C111.231 192.908 110.893 193.103 110.616 193.346L110.199 192.657C110.546 192.362 110.962 192.136 111.448 191.98C111.933 191.816 112.445 191.733 112.982 191.733C113.867 191.733 114.547 191.954 115.024 192.397C115.51 192.83 115.752 193.493 115.752 194.386V198.626H114.868ZM112.514 198.691C112.003 198.691 111.556 198.609 111.175 198.444C110.802 198.271 110.516 198.036 110.316 197.742C110.117 197.438 110.017 197.091 110.017 196.701C110.017 196.346 110.1 196.025 110.264 195.739C110.438 195.444 110.715 195.21 111.097 195.037C111.487 194.855 112.007 194.764 112.657 194.764H115.011V195.453H112.683C112.024 195.453 111.565 195.57 111.305 195.804C111.053 196.038 110.928 196.328 110.928 196.675C110.928 197.065 111.079 197.377 111.383 197.612C111.686 197.846 112.111 197.963 112.657 197.963C113.178 197.963 113.624 197.846 113.997 197.612C114.378 197.369 114.656 197.022 114.829 196.571L115.037 197.208C114.864 197.659 114.56 198.019 114.127 198.288C113.702 198.557 113.165 198.691 112.514 198.691ZM121.095 198.691C120.419 198.691 119.812 198.544 119.275 198.249C118.746 197.945 118.33 197.534 118.026 197.013C117.723 196.484 117.571 195.882 117.571 195.206C117.571 194.521 117.723 193.918 118.026 193.398C118.33 192.878 118.746 192.47 119.275 192.176C119.812 191.881 120.419 191.733 121.095 191.733C121.676 191.733 122.201 191.846 122.669 192.071C123.137 192.297 123.506 192.635 123.775 193.086L123.085 193.554C122.851 193.207 122.561 192.951 122.214 192.787C121.867 192.622 121.49 192.54 121.082 192.54C120.597 192.54 120.159 192.652 119.769 192.878C119.379 193.095 119.071 193.402 118.846 193.801C118.62 194.2 118.508 194.668 118.508 195.206C118.508 195.743 118.62 196.211 118.846 196.61C119.071 197.009 119.379 197.321 119.769 197.547C120.159 197.763 120.597 197.872 121.082 197.872C121.49 197.872 121.867 197.789 122.214 197.625C122.561 197.46 122.851 197.208 123.085 196.87L123.775 197.338C123.506 197.781 123.137 198.119 122.669 198.353C122.201 198.578 121.676 198.691 121.095 198.691ZM125.487 198.626V191.798H126.41V198.626H125.487ZM125.955 190.29C125.764 190.29 125.604 190.225 125.474 190.095C125.344 189.965 125.279 189.809 125.279 189.627C125.279 189.444 125.344 189.293 125.474 189.171C125.604 189.041 125.764 188.976 125.955 188.976C126.146 188.976 126.306 189.037 126.436 189.158C126.566 189.28 126.631 189.431 126.631 189.614C126.631 189.804 126.566 189.965 126.436 190.095C126.315 190.225 126.154 190.29 125.955 190.29ZM131.138 198.691C130.497 198.691 130.002 198.518 129.656 198.171C129.309 197.824 129.135 197.334 129.135 196.701V190.29H130.059V196.649C130.059 197.048 130.158 197.356 130.358 197.573C130.566 197.789 130.861 197.898 131.242 197.898C131.65 197.898 131.988 197.781 132.257 197.547L132.582 198.21C132.4 198.375 132.179 198.496 131.918 198.574C131.667 198.652 131.407 198.691 131.138 198.691ZM127.913 192.566V191.798H132.14V192.566H127.913ZM134.188 201.214C133.867 201.214 133.559 201.162 133.264 201.058C132.978 200.954 132.731 200.798 132.523 200.59L132.952 199.9C133.126 200.065 133.312 200.191 133.511 200.278C133.719 200.373 133.949 200.421 134.201 200.421C134.504 200.421 134.764 200.334 134.981 200.161C135.206 199.996 135.419 199.701 135.618 199.276L136.06 198.275L136.164 198.132L138.973 191.798H139.884L136.464 199.445C136.273 199.887 136.06 200.239 135.826 200.499C135.601 200.759 135.354 200.941 135.085 201.045C134.816 201.158 134.517 201.214 134.188 201.214ZM136.008 198.821L132.861 191.798H133.824L136.607 198.067L136.008 198.821ZM144.783 198.626V189.523H145.745V198.626H144.783ZM148.707 198.626V189.523H149.501L153.662 196.623H153.246L157.369 189.523H158.162V198.626H157.239V190.966H157.46L153.662 197.469H153.207L149.384 190.966H149.631V198.626H148.707ZM161.128 198.626V189.523H162.09V197.794H167.188V198.626H161.128ZM27.7865 217.704C27.1015 217.704 26.4686 217.591 25.8877 217.366C25.3068 217.132 24.804 216.807 24.3792 216.391C23.9543 215.974 23.6205 215.484 23.3778 214.921C23.1437 214.357 23.0266 213.742 23.0266 213.074C23.0266 212.407 23.1437 211.791 23.3778 211.228C23.6205 210.664 23.9543 210.174 24.3792 209.758C24.8127 209.342 25.3198 209.021 25.9007 208.796C26.4816 208.562 27.1145 208.444 27.7995 208.444C28.4584 208.444 29.0783 208.557 29.6592 208.783C30.2401 208.999 30.7299 209.329 31.1287 209.771L30.5175 210.382C30.1447 210.001 29.7329 209.728 29.282 209.563C28.8312 209.389 28.3457 209.303 27.8255 209.303C27.2793 209.303 26.7721 209.398 26.3039 209.589C25.8357 209.771 25.4282 210.035 25.0814 210.382C24.7346 210.72 24.4615 211.119 24.2621 211.579C24.0714 212.03 23.976 212.528 23.976 213.074C23.976 213.62 24.0714 214.123 24.2621 214.583C24.4615 215.034 24.7346 215.432 25.0814 215.779C25.4282 216.117 25.8357 216.382 26.3039 216.573C26.7721 216.755 27.2793 216.846 27.8255 216.846C28.3457 216.846 28.8312 216.759 29.282 216.586C29.7329 216.412 30.1447 216.135 30.5175 215.753L31.1287 216.364C30.7299 216.807 30.2401 217.14 29.6592 217.366C29.0783 217.591 28.454 217.704 27.7865 217.704ZM35.4634 217.691C34.8045 217.691 34.2106 217.544 33.6818 217.249C33.1616 216.945 32.7497 216.534 32.4463 216.013C32.1428 215.484 31.9911 214.882 31.9911 214.206C31.9911 213.521 32.1428 212.918 32.4463 212.398C32.7497 211.878 33.1616 211.47 33.6818 211.176C34.202 210.881 34.7959 210.733 35.4634 210.733C36.1397 210.733 36.7379 210.881 37.2581 211.176C37.787 211.47 38.1988 211.878 38.4936 212.398C38.7971 212.918 38.9488 213.521 38.9488 214.206C38.9488 214.882 38.7971 215.484 38.4936 216.013C38.1988 216.534 37.787 216.945 37.2581 217.249C36.7293 217.544 36.131 217.691 35.4634 217.691ZM35.4634 216.872C35.9576 216.872 36.3955 216.763 36.777 216.547C37.1584 216.321 37.4575 216.009 37.6743 215.61C37.8997 215.203 38.0124 214.735 38.0124 214.206C38.0124 213.668 37.8997 213.2 37.6743 212.801C37.4575 212.402 37.1584 212.095 36.777 211.878C36.3955 211.652 35.962 211.54 35.4765 211.54C34.9909 211.54 34.5574 211.652 34.176 211.878C33.7945 212.095 33.491 212.402 33.2656 212.801C33.0402 213.2 32.9275 213.668 32.9275 214.206C32.9275 214.735 33.0402 215.203 33.2656 215.61C33.491 216.009 33.7945 216.321 34.176 216.547C34.5574 216.763 34.9866 216.872 35.4634 216.872ZM44.3192 210.733C44.8741 210.733 45.3596 210.842 45.7758 211.058C46.2006 211.267 46.5301 211.587 46.7642 212.021C47.0069 212.454 47.1283 213.001 47.1283 213.659V217.626H46.2049V213.75C46.2049 213.031 46.0229 212.489 45.6587 212.125C45.3033 211.752 44.8004 211.566 44.1502 211.566C43.6646 211.566 43.2398 211.665 42.8757 211.865C42.5202 212.056 42.2428 212.337 42.0434 212.71C41.8526 213.074 41.7572 213.516 41.7572 214.037V217.626H40.8339V210.798H41.7182V212.671L41.5752 212.32C41.7919 211.826 42.1387 211.44 42.6156 211.163C43.0924 210.876 43.6603 210.733 44.3192 210.733ZM51.7812 217.691C51.1396 217.691 50.6455 217.518 50.2987 217.171C49.9519 216.824 49.7785 216.334 49.7785 215.701V209.29H50.7018V215.649C50.7018 216.048 50.8015 216.356 51.0009 216.573C51.209 216.789 51.5038 216.898 51.8853 216.898C52.2928 216.898 52.6309 216.781 52.8997 216.547L53.2248 217.21C53.0427 217.375 52.8216 217.496 52.5615 217.574C52.3101 217.652 52.05 217.691 51.7812 217.691ZM48.556 211.566V210.798H52.7826V211.566H48.556ZM59.1843 217.626V216.117L59.1453 215.87V213.347C59.1453 212.766 58.9806 212.32 58.6511 212.008C58.3303 211.696 57.8491 211.54 57.2075 211.54C56.7654 211.54 56.3449 211.613 55.9461 211.761C55.5472 211.908 55.2091 212.103 54.9317 212.346L54.5155 211.657C54.8623 211.362 55.2785 211.136 55.764 210.98C56.2495 210.816 56.761 210.733 57.2986 210.733C58.1829 210.733 58.8635 210.954 59.3404 211.397C59.8259 211.83 60.0686 212.493 60.0686 213.386V217.626H59.1843ZM56.8304 217.691C56.3189 217.691 55.8724 217.609 55.4909 217.444C55.1181 217.271 54.832 217.036 54.6326 216.742C54.4332 216.438 54.3334 216.091 54.3334 215.701C54.3334 215.346 54.4158 215.025 54.5805 214.739C54.7539 214.444 55.0314 214.21 55.4129 214.037C55.803 213.855 56.3232 213.764 56.9735 213.764H59.3274V214.453H56.9995C56.3405 214.453 55.881 214.57 55.6209 214.804C55.3695 215.038 55.2438 215.328 55.2438 215.675C55.2438 216.065 55.3955 216.377 55.699 216.612C56.0024 216.846 56.4272 216.963 56.9735 216.963C57.4937 216.963 57.9402 216.846 58.313 216.612C58.6944 216.369 58.9719 216.022 59.1453 215.571L59.3534 216.208C59.18 216.659 58.8765 217.019 58.443 217.288C58.0182 217.557 57.4807 217.691 56.8304 217.691ZM62.5766 217.626V210.798H63.4999V217.626H62.5766ZM63.0447 209.29C62.854 209.29 62.6936 209.225 62.5636 209.095C62.4335 208.965 62.3685 208.809 62.3685 208.627C62.3685 208.444 62.4335 208.293 62.5636 208.171C62.6936 208.041 62.854 207.976 63.0447 207.976C63.2355 207.976 63.3959 208.037 63.5259 208.158C63.656 208.28 63.721 208.431 63.721 208.614C63.721 208.804 63.656 208.965 63.5259 209.095C63.4045 209.225 63.2442 209.29 63.0447 209.29ZM69.5544 210.733C70.1093 210.733 70.5948 210.842 71.011 211.058C71.4358 211.267 71.7653 211.587 71.9994 212.021C72.2421 212.454 72.3635 213.001 72.3635 213.659V217.626H71.4402V213.75C71.4402 213.031 71.2581 212.489 70.894 212.125C70.5385 211.752 70.0356 211.566 69.3854 211.566C68.8999 211.566 68.475 211.665 68.1109 211.865C67.7554 212.056 67.478 212.337 67.2786 212.71C67.0878 213.074 66.9925 213.516 66.9925 214.037V217.626H66.0691V210.798H66.9534V212.671L66.8104 212.32C67.0271 211.826 67.3739 211.44 67.8508 211.163C68.3276 210.876 68.8955 210.733 69.5544 210.733ZM77.7577 217.691C77.0468 217.691 76.4226 217.544 75.885 217.249C75.3475 216.945 74.927 216.534 74.6235 216.013C74.3201 215.484 74.1684 214.882 74.1684 214.206C74.1684 213.529 74.3114 212.931 74.5975 212.411C74.8923 211.891 75.2911 211.483 75.794 211.189C76.3055 210.885 76.8777 210.733 77.5106 210.733C78.1522 210.733 78.7201 210.881 79.2143 211.176C79.7171 211.462 80.1116 211.869 80.3977 212.398C80.6838 212.918 80.8269 213.521 80.8269 214.206C80.8269 214.249 80.8226 214.297 80.8139 214.349C80.8139 214.392 80.8139 214.44 80.8139 214.492H74.8706V213.803H80.3197L79.9556 214.076C79.9556 213.581 79.8472 213.144 79.6304 212.762C79.4224 212.372 79.1363 212.069 78.7721 211.852C78.408 211.635 77.9875 211.527 77.5106 211.527C77.0425 211.527 76.622 211.635 76.2492 211.852C75.8763 212.069 75.5859 212.372 75.3778 212.762C75.1697 213.152 75.0657 213.599 75.0657 214.102V214.245C75.0657 214.765 75.1784 215.224 75.4038 215.623C75.6379 216.013 75.9587 216.321 76.3662 216.547C76.7824 216.763 77.2549 216.872 77.7837 216.872C78.1999 216.872 78.5857 216.798 78.9412 216.651C79.3053 216.503 79.6174 216.278 79.8775 215.974L80.3977 216.573C80.0943 216.937 79.7128 217.214 79.2533 217.405C78.8025 217.596 78.3039 217.691 77.7577 217.691ZM82.7063 217.626V210.798H83.5907V212.658L83.4996 212.333C83.6904 211.813 84.0111 211.418 84.462 211.15C84.9128 210.872 85.472 210.733 86.1396 210.733V211.631C86.1049 211.631 86.0703 211.631 86.0356 211.631C86.0009 211.622 85.9662 211.618 85.9315 211.618C85.2119 211.618 84.6484 211.839 84.2409 212.281C83.8334 212.714 83.6297 213.334 83.6297 214.141V217.626H82.7063ZM91.3297 217.626V210.798H92.2531V217.626H91.3297ZM91.7979 209.29C91.6072 209.29 91.4468 209.225 91.3167 209.095C91.1867 208.965 91.1216 208.809 91.1216 208.627C91.1216 208.444 91.1867 208.293 91.3167 208.171C91.4468 208.041 91.6072 207.976 91.7979 207.976C91.9886 207.976 92.149 208.037 92.2791 208.158C92.4091 208.28 92.4742 208.431 92.4742 208.614C92.4742 208.804 92.4091 208.965 92.2791 209.095C92.1577 209.225 91.9973 209.29 91.7979 209.29ZM97.5403 217.691C96.8901 217.691 96.3048 217.544 95.7846 217.249C95.2731 216.954 94.87 216.547 94.5752 216.026C94.2804 215.497 94.133 214.891 94.133 214.206C94.133 213.512 94.2804 212.905 94.5752 212.385C94.87 211.865 95.2731 211.462 95.7846 211.176C96.3048 210.881 96.8901 210.733 97.5403 210.733C98.1385 210.733 98.6717 210.868 99.1399 211.136C99.6168 211.405 99.9939 211.8 100.271 212.32C100.557 212.831 100.701 213.46 100.701 214.206C100.701 214.943 100.562 215.571 100.284 216.091C100.007 216.612 99.6298 217.01 99.1529 217.288C98.6847 217.557 98.1472 217.691 97.5403 217.691ZM97.6053 216.872C98.0909 216.872 98.5244 216.763 98.9058 216.547C99.296 216.321 99.5994 216.009 99.8162 215.61C100.042 215.203 100.154 214.735 100.154 214.206C100.154 213.668 100.042 213.2 99.8162 212.801C99.5994 212.402 99.296 212.095 98.9058 211.878C98.5244 211.652 98.0909 211.54 97.6053 211.54C97.1285 211.54 96.6993 211.652 96.3178 211.878C95.9364 212.095 95.6329 212.402 95.4075 212.801C95.1821 213.2 95.0694 213.668 95.0694 214.206C95.0694 214.735 95.1821 215.203 95.4075 215.61C95.6329 216.009 95.9364 216.321 96.3178 216.547C96.6993 216.763 97.1285 216.872 97.6053 216.872ZM100.18 217.626V215.571L100.271 214.193L100.141 212.814V207.976H101.065V217.626H100.18ZM106.536 217.691C105.825 217.691 105.201 217.544 104.664 217.249C104.126 216.945 103.706 216.534 103.402 216.013C103.099 215.484 102.947 214.882 102.947 214.206C102.947 213.529 103.09 212.931 103.376 212.411C103.671 211.891 104.07 211.483 104.573 211.189C105.084 210.885 105.656 210.733 106.289 210.733C106.931 210.733 107.499 210.881 107.993 211.176C108.496 211.462 108.89 211.869 109.176 212.398C109.462 212.918 109.605 213.521 109.605 214.206C109.605 214.249 109.601 214.297 109.592 214.349C109.592 214.392 109.592 214.44 109.592 214.492H103.649V213.803L109.098 213.803L108.734 214.076C108.734 213.581 108.626 213.144 108.409 212.762C108.201 212.372 107.915 212.069 107.551 211.852C107.187 211.635 106.766 211.527 106.289 211.527C105.821 211.527 105.401 211.635 105.028 211.852C104.655 212.069 104.364 212.372 104.156 212.762C103.948 213.152 103.844 213.599 103.844 214.102V214.245C103.844 214.765 103.957 215.224 104.182 215.623C104.416 216.013 104.737 216.321 105.145 216.547C105.561 216.763 106.033 216.872 106.562 216.872C106.978 216.872 107.364 216.798 107.72 216.651C108.084 216.503 108.396 216.278 108.656 215.974L109.176 216.573C108.873 216.937 108.491 217.214 108.032 217.405C107.581 217.596 107.083 217.691 106.536 217.691ZM115.573 217.626V216.117L115.534 215.87V213.347C115.534 212.766 115.369 212.32 115.04 212.008C114.719 211.696 114.238 211.54 113.596 211.54C113.154 211.54 112.734 211.613 112.335 211.761C111.936 211.908 111.598 212.103 111.32 212.346L110.904 211.657C111.251 211.362 111.667 211.136 112.153 210.98C112.638 210.816 113.15 210.733 113.687 210.733C114.572 210.733 115.252 210.954 115.729 211.397C116.215 211.83 116.457 212.493 116.457 213.386V217.626H115.573ZM113.219 217.691C112.708 217.691 112.261 217.609 111.88 217.444C111.507 217.271 111.221 217.036 111.021 216.742C110.822 216.438 110.722 216.091 110.722 215.701C110.722 215.346 110.805 215.025 110.969 214.739C111.143 214.444 111.42 214.21 111.802 214.037C112.192 213.855 112.712 213.764 113.362 213.764H115.716V214.453H113.388C112.729 214.453 112.27 214.57 112.01 214.804C111.758 215.038 111.633 215.328 111.633 215.675C111.633 216.065 111.784 216.377 112.088 216.612C112.391 216.846 112.816 216.963 113.362 216.963C113.882 216.963 114.329 216.846 114.702 216.612C115.083 216.369 115.361 216.022 115.534 215.571L115.742 216.208C115.569 216.659 115.265 217.019 114.832 217.288C114.407 217.557 113.869 217.691 113.219 217.691ZM118.965 217.626V207.976H119.889V217.626L118.965 217.626ZM126.018 217.626V209.94C126.018 209.333 126.195 208.843 126.551 208.47C126.906 208.098 127.418 207.911 128.085 207.911C128.345 207.911 128.597 207.946 128.84 208.015C129.082 208.085 129.286 208.193 129.451 208.34L129.139 209.03C129.009 208.917 128.857 208.835 128.684 208.783C128.51 208.722 128.324 208.692 128.124 208.692C127.734 208.692 127.435 208.8 127.227 209.017C127.019 209.233 126.915 209.554 126.915 209.979V211.019L126.941 211.449V217.626H126.018ZM124.795 211.566V210.798H129.022V211.566H124.795ZM132.937 217.691C132.278 217.691 131.684 217.544 131.156 217.249C130.635 216.945 130.223 216.534 129.92 216.013C129.617 215.484 129.465 214.882 129.465 214.206C129.465 213.521 129.617 212.918 129.92 212.398C130.223 211.878 130.635 211.47 131.156 211.176C131.676 210.881 132.27 210.733 132.937 210.733C133.613 210.733 134.212 210.881 134.732 211.176C135.261 211.47 135.673 211.878 135.967 212.398C136.271 212.918 136.423 213.521 136.423 214.206C136.423 214.882 136.271 215.484 135.967 216.013C135.673 216.534 135.261 216.945 134.732 217.249C134.203 217.544 133.605 217.691 132.937 217.691ZM132.937 216.872C133.431 216.872 133.869 216.763 134.251 216.547C134.632 216.321 134.931 216.009 135.148 215.61C135.373 215.203 135.486 214.735 135.486 214.206C135.486 213.668 135.373 213.2 135.148 212.801C134.931 212.402 134.632 212.095 134.251 211.878C133.869 211.652 133.436 211.54 132.95 211.54C132.465 211.54 132.031 211.652 131.65 211.878C131.268 212.095 130.965 212.402 130.739 212.801C130.514 213.2 130.401 213.668 130.401 214.206C130.401 214.735 130.514 215.203 130.739 215.61C130.965 216.009 131.268 216.321 131.65 216.547C132.031 216.763 132.46 216.872 132.937 216.872ZM138.308 217.626V210.798H139.192V212.658L139.101 212.333C139.292 211.813 139.612 211.418 140.063 211.15C140.514 210.872 141.073 210.733 141.741 210.733V211.631C141.706 211.631 141.672 211.631 141.637 211.631C141.602 211.622 141.568 211.618 141.533 211.618C140.813 211.618 140.25 211.839 139.842 212.281C139.435 212.714 139.231 213.334 139.231 214.141V217.626H138.308ZM147.098 217.626V210.122C147.098 209.446 147.293 208.908 147.683 208.509C148.082 208.102 148.646 207.898 149.374 207.898C149.643 207.898 149.898 207.933 150.141 208.002C150.393 208.063 150.605 208.163 150.778 208.301L150.401 209.251C150.271 209.147 150.124 209.069 149.959 209.017C149.794 208.956 149.621 208.926 149.439 208.926C149.075 208.926 148.797 209.03 148.607 209.238C148.416 209.437 148.32 209.736 148.32 210.135V211.058L148.346 211.631V217.626H147.098ZM145.928 211.761V210.733H150.323V211.761H145.928ZM155.652 217.626V216.169L155.587 215.896V213.412C155.587 212.883 155.431 212.476 155.119 212.19C154.816 211.895 154.356 211.748 153.741 211.748C153.333 211.748 152.934 211.817 152.544 211.956C152.154 212.086 151.824 212.264 151.556 212.489L151.036 211.553C151.391 211.267 151.816 211.05 152.31 210.902C152.813 210.746 153.337 210.668 153.884 210.668C154.829 210.668 155.557 210.898 156.068 211.358C156.58 211.817 156.836 212.519 156.836 213.464V217.626H155.652ZM153.389 217.704C152.878 217.704 152.427 217.617 152.037 217.444C151.655 217.271 151.361 217.032 151.153 216.729C150.944 216.417 150.84 216.065 150.84 215.675C150.84 215.302 150.927 214.964 151.101 214.661C151.283 214.357 151.573 214.115 151.972 213.933C152.379 213.75 152.926 213.659 153.611 213.659H155.795V214.557H153.663C153.038 214.557 152.618 214.661 152.401 214.869C152.184 215.077 152.076 215.328 152.076 215.623C152.076 215.961 152.21 216.234 152.479 216.443C152.748 216.642 153.121 216.742 153.598 216.742C154.066 216.742 154.473 216.638 154.82 216.43C155.175 216.221 155.431 215.918 155.587 215.519L155.834 216.377C155.67 216.785 155.379 217.11 154.963 217.353C154.547 217.587 154.022 217.704 153.389 217.704ZM167.768 210.668C168.323 210.668 168.813 210.777 169.238 210.993C169.663 211.21 169.992 211.54 170.226 211.982C170.469 212.424 170.591 212.983 170.591 213.659V217.626H169.342V213.803C169.342 213.135 169.186 212.632 168.874 212.294C168.562 211.956 168.124 211.787 167.56 211.787C167.144 211.787 166.78 211.873 166.468 212.047C166.156 212.22 165.913 212.476 165.74 212.814C165.575 213.152 165.493 213.573 165.493 214.076V217.626H164.244V213.803C164.244 213.135 164.088 212.632 163.776 212.294C163.472 211.956 163.035 211.787 162.462 211.787C162.055 211.787 161.695 211.873 161.383 212.047C161.071 212.22 160.828 212.476 160.655 212.814C160.481 213.152 160.395 213.573 160.395 214.076V217.626H159.146V210.733H160.343V212.567L160.148 212.099C160.364 211.648 160.698 211.297 161.149 211.045C161.6 210.794 162.124 210.668 162.723 210.668C163.381 210.668 163.949 210.833 164.426 211.163C164.903 211.483 165.215 211.973 165.363 212.632L164.855 212.424C165.063 211.895 165.428 211.47 165.948 211.15C166.468 210.829 167.075 210.668 167.768 210.668ZM172.888 217.626V210.733H174.136V217.626H172.888ZM173.512 209.407C173.269 209.407 173.065 209.329 172.901 209.173C172.745 209.017 172.667 208.826 172.667 208.601C172.667 208.366 172.745 208.171 172.901 208.015C173.065 207.859 173.269 207.781 173.512 207.781C173.755 207.781 173.954 207.859 174.11 208.015C174.275 208.163 174.357 208.349 174.357 208.575C174.357 208.809 174.279 209.008 174.123 209.173C173.967 209.329 173.763 209.407 173.512 209.407ZM176.52 217.626V207.976H177.768V217.626H176.52ZM180.451 220.227C180.122 220.227 179.801 220.171 179.489 220.058C179.177 219.954 178.908 219.798 178.683 219.59L179.216 218.653C179.389 218.818 179.58 218.944 179.788 219.031C179.996 219.117 180.217 219.161 180.451 219.161C180.755 219.161 181.006 219.083 181.206 218.926C181.405 218.77 181.591 218.493 181.765 218.094L182.194 217.145L182.324 216.989L185.029 210.733H186.252L182.909 218.315C182.71 218.801 182.484 219.182 182.233 219.46C181.99 219.737 181.721 219.932 181.427 220.045C181.132 220.166 180.807 220.227 180.451 220.227ZM182.09 217.847L178.943 210.733H180.243L182.922 216.872L182.09 217.847ZM23.1496 236.704C22.5774 236.704 22.0528 236.574 21.576 236.314C21.1078 236.045 20.7307 235.651 20.4445 235.13C20.1671 234.61 20.0284 233.96 20.0284 233.18C20.0284 232.399 20.1628 231.749 20.4315 231.229C20.709 230.709 21.0818 230.319 21.55 230.058C22.0268 229.798 22.56 229.668 23.1496 229.668C23.8258 229.668 24.4241 229.816 24.9443 230.11C25.4645 230.405 25.8763 230.817 26.1797 231.346C26.4832 231.866 26.6349 232.477 26.6349 233.18C26.6349 233.882 26.4832 234.497 26.1797 235.026C25.8763 235.555 25.4645 235.967 24.9443 236.262C24.4241 236.557 23.8258 236.704 23.1496 236.704ZM19.4952 239.149V229.733H20.6916V231.593L20.6136 233.193L20.7437 234.792V239.149H19.4952ZM23.0455 235.612C23.4877 235.612 23.8822 235.512 24.229 235.312C24.5845 235.113 24.8619 234.831 25.0613 234.467C25.2694 234.094 25.3734 233.665 25.3734 233.18C25.3734 232.685 25.2694 232.261 25.0613 231.905C24.8619 231.541 24.5845 231.259 24.229 231.06C23.8822 230.86 23.4877 230.761 23.0455 230.761C22.612 230.761 22.2176 230.86 21.8621 231.06C21.5153 231.259 21.2378 231.541 21.0298 231.905C20.8304 232.261 20.7307 232.685 20.7307 233.18C20.7307 233.665 20.8304 234.094 21.0298 234.467C21.2378 234.831 21.5153 235.113 21.8621 235.312C22.2176 235.512 22.612 235.612 23.0455 235.612ZM31.312 236.704C30.6184 236.704 30.0029 236.552 29.4653 236.249C28.9278 235.945 28.5029 235.529 28.1908 235C27.8787 234.463 27.7226 233.856 27.7226 233.18C27.7226 232.495 27.8787 231.888 28.1908 231.359C28.5029 230.83 28.9278 230.418 29.4653 230.123C30.0029 229.82 30.6184 229.668 31.312 229.668C31.9969 229.668 32.6082 229.82 33.1457 230.123C33.6919 230.418 34.1168 230.83 34.4202 231.359C34.7323 231.879 34.8884 232.486 34.8884 233.18C34.8884 233.865 34.7323 234.471 34.4202 235C34.1168 235.529 33.6919 235.945 33.1457 236.249C32.6082 236.552 31.9969 236.704 31.312 236.704ZM31.312 235.612C31.7542 235.612 32.1487 235.512 32.4955 235.312C32.8509 235.113 33.1284 234.831 33.3278 234.467C33.5272 234.094 33.6269 233.665 33.6269 233.18C33.6269 232.685 33.5272 232.261 33.3278 231.905C33.1284 231.541 32.8509 231.259 32.4955 231.06C32.1487 230.86 31.7542 230.761 31.312 230.761C30.8699 230.761 30.4754 230.86 30.1286 231.06C29.7818 231.259 29.5043 231.541 29.2963 231.905C29.0882 232.261 28.9841 232.685 28.9841 233.18C28.9841 233.665 29.0882 234.094 29.2963 234.467C29.5043 234.831 29.7818 235.113 30.1286 235.312C30.4754 235.512 30.8699 235.612 31.312 235.612ZM36.615 236.626V229.733H37.8115V231.606L37.6944 231.138C37.8852 230.661 38.2059 230.297 38.6568 230.045C39.1076 229.794 39.6625 229.668 40.3214 229.668V230.878C40.2694 230.869 40.2174 230.865 40.1654 230.865C40.122 230.865 40.0787 230.865 40.0353 230.865C39.3677 230.865 38.8388 231.064 38.4487 231.463C38.0586 231.862 37.8635 232.438 37.8635 233.193V236.626H36.615ZM44.5065 236.704C43.8129 236.704 43.2753 236.518 42.8939 236.145C42.5124 235.772 42.3216 235.239 42.3216 234.545V228.225H43.5701V234.493C43.5701 234.866 43.6611 235.152 43.8432 235.351C44.034 235.551 44.3027 235.651 44.6495 235.651C45.0397 235.651 45.3648 235.542 45.6249 235.325L46.015 236.223C45.8243 236.388 45.5946 236.509 45.3258 236.587C45.0657 236.665 44.7926 236.704 44.5065 236.704ZM41.1512 230.761V229.733H45.5469V230.761H41.1512ZM47.5244 236.626V229.733H48.7729V236.626H47.5244ZM48.1487 228.407C47.9059 228.407 47.7022 228.329 47.5374 228.173C47.3814 228.017 47.3034 227.826 47.3034 227.601C47.3034 227.366 47.3814 227.171 47.5374 227.015C47.7022 226.859 47.9059 226.781 48.1487 226.781C48.3914 226.781 48.5908 226.859 48.7469 227.015C48.9116 227.163 48.994 227.349 48.994 227.575C48.994 227.809 48.916 228.008 48.7599 228.173C48.6038 228.329 48.4001 228.407 48.1487 228.407ZM54.1088 236.704C53.4152 236.704 52.7996 236.552 52.2621 236.249C51.7246 235.945 51.2997 235.529 50.9876 235C50.6755 234.463 50.5194 233.856 50.5194 233.18C50.5194 232.495 50.6755 231.888 50.9876 231.359C51.2997 230.83 51.7246 230.418 52.2621 230.123C52.7996 229.82 53.4152 229.668 54.1088 229.668C54.7937 229.668 55.405 229.82 55.9425 230.123C56.4887 230.418 56.9135 230.83 57.217 231.359C57.5291 231.879 57.6852 232.486 57.6852 233.18C57.6852 233.865 57.5291 234.471 57.217 235C56.9135 235.529 56.4887 235.945 55.9425 236.249C55.405 236.552 54.7937 236.704 54.1088 236.704ZM54.1088 235.612C54.551 235.612 54.9455 235.512 55.2923 235.312C55.6477 235.113 55.9252 234.831 56.1246 234.467C56.324 234.094 56.4237 233.665 56.4237 233.18C56.4237 232.685 56.324 232.261 56.1246 231.905C55.9252 231.541 55.6477 231.259 55.2923 231.06C54.9455 230.86 54.551 230.761 54.1088 230.761C53.6666 230.761 53.2722 230.86 52.9254 231.06C52.5786 231.259 52.3011 231.541 52.093 231.905C51.885 232.261 51.7809 232.685 51.7809 233.18C51.7809 233.665 51.885 234.094 52.093 234.467C52.3011 234.831 52.5786 235.113 52.9254 235.312C53.2722 235.512 53.6666 235.612 54.1088 235.612ZM63.0922 229.668C63.6557 229.668 64.1499 229.777 64.5748 229.993C65.0083 230.21 65.3464 230.54 65.5891 230.982C65.8319 231.424 65.9533 231.983 65.9533 232.659V236.626H64.7048V232.803C64.7048 232.135 64.5401 231.632 64.2106 231.294C63.8898 230.956 63.4347 230.787 62.8451 230.787C62.4029 230.787 62.0171 230.873 61.6877 231.047C61.3582 231.22 61.1024 231.476 60.9204 231.814C60.747 232.152 60.6603 232.573 60.6603 233.076V236.626H59.4118V229.733H60.6082V231.593L60.4132 231.099C60.6386 230.648 60.9854 230.297 61.4536 230.045C61.9217 229.794 62.468 229.668 63.0922 229.668ZM70.2406 236.704C69.6683 236.704 69.1221 236.626 68.6019 236.47C68.0904 236.314 67.6872 236.123 67.3925 235.898L67.9127 234.909C68.2074 235.109 68.5716 235.278 69.0051 235.417C69.4386 235.555 69.8808 235.625 70.3316 235.625C70.9125 235.625 71.3286 235.542 71.5801 235.377C71.8402 235.213 71.9702 234.983 71.9702 234.688C71.9702 234.471 71.8922 234.302 71.7361 234.181C71.5801 234.06 71.372 233.969 71.1119 233.908C70.8605 233.847 70.5787 233.795 70.2666 233.752C69.9544 233.7 69.6423 233.639 69.3302 233.57C69.0181 233.492 68.732 233.388 68.4719 233.258C68.2118 233.119 68.0037 232.933 67.8476 232.698C67.6916 232.456 67.6136 232.135 67.6136 231.736C67.6136 231.32 67.7306 230.956 67.9647 230.644C68.1988 230.332 68.5282 230.093 68.9531 229.928C69.3866 229.755 69.8981 229.668 70.4877 229.668C70.9385 229.668 71.3937 229.725 71.8532 229.837C72.3214 229.941 72.7028 230.093 72.9976 230.293L72.4644 231.281C72.1523 231.073 71.8272 230.93 71.489 230.852C71.1509 230.774 70.8128 230.735 70.4746 230.735C69.9284 230.735 69.5209 230.826 69.2522 231.008C68.9834 231.181 68.849 231.407 68.849 231.684C68.849 231.918 68.9271 232.1 69.0831 232.23C69.2478 232.352 69.4559 232.447 69.7074 232.516C69.9675 232.586 70.2536 232.646 70.5657 232.698C70.8778 232.742 71.1899 232.803 71.502 232.881C71.8142 232.95 72.0959 233.05 72.3474 233.18C72.6075 233.31 72.8155 233.492 72.9716 233.726C73.1363 233.96 73.2187 234.272 73.2187 234.662C73.2187 235.078 73.0973 235.438 72.8546 235.742C72.6118 236.045 72.2693 236.284 71.8272 236.457C71.385 236.622 70.8561 236.704 70.2406 236.704ZM74.2848 238.551L74.935 235.924L75.1041 236.678C74.8527 236.678 74.6403 236.6 74.4669 236.444C74.3021 236.288 74.2198 236.075 74.2198 235.807C74.2198 235.547 74.3021 235.334 74.4669 235.169C74.6403 235.005 74.8483 234.922 75.0911 234.922C75.3425 234.922 75.5463 235.009 75.7023 235.182C75.8584 235.347 75.9364 235.555 75.9364 235.807C75.9364 235.893 75.9278 235.98 75.9104 236.067C75.9017 236.145 75.8801 236.24 75.8454 236.353C75.8194 236.457 75.776 236.587 75.7153 236.743L75.1041 238.551H74.2848ZM84.8724 236.704C84.2828 236.704 83.7496 236.574 83.2728 236.314C82.8046 236.045 82.4318 235.651 82.1543 235.13C81.8856 234.61 81.7512 233.96 81.7512 233.18C81.7512 232.399 81.8899 231.749 82.1673 231.229C82.4534 230.709 82.8306 230.319 83.2988 230.058C83.7756 229.798 84.3001 229.668 84.8724 229.668C85.5486 229.668 86.1468 229.816 86.667 230.11C87.1872 230.405 87.5991 230.817 87.9025 231.346C88.206 231.866 88.3577 232.477 88.3577 233.18C88.3577 233.882 88.206 234.497 87.9025 235.026C87.5991 235.555 87.1872 235.967 86.667 236.262C86.1468 236.557 85.5486 236.704 84.8724 236.704ZM81.218 236.626V226.976H82.4664V231.567L82.3364 233.167L82.4144 234.766V236.626H81.218ZM84.7683 235.612C85.2105 235.612 85.605 235.512 85.9518 235.312C86.3072 235.113 86.5847 234.831 86.7841 234.467C86.9922 234.094 87.0962 233.665 87.0962 233.18C87.0962 232.685 86.9922 232.261 86.7841 231.905C86.5847 231.541 86.3072 231.259 85.9518 231.06C85.605 230.86 85.2105 230.761 84.7683 230.761C84.3348 230.761 83.9403 230.86 83.5849 231.06C83.2381 231.259 82.9606 231.541 82.7526 231.905C82.5531 232.261 82.4534 232.685 82.4534 233.18C82.4534 233.665 82.5531 234.094 82.7526 234.467C82.9606 234.831 83.2381 235.113 83.5849 235.312C83.9403 235.512 84.3348 235.612 84.7683 235.612ZM92.9828 236.704C92.3932 236.704 91.873 236.596 91.4222 236.379C90.98 236.162 90.6332 235.833 90.3818 235.391C90.139 234.94 90.0177 234.376 90.0177 233.7V229.733H91.2661V233.557C91.2661 234.233 91.4265 234.74 91.7473 235.078C92.0768 235.417 92.5363 235.586 93.1258 235.586C93.5593 235.586 93.9365 235.499 94.2573 235.325C94.5781 235.143 94.8252 234.883 94.9986 234.545C95.172 234.198 95.2587 233.782 95.2587 233.297V229.733H96.5071V236.626H95.3237V234.766L95.5188 235.26C95.2933 235.72 94.9552 236.075 94.5044 236.327C94.0535 236.578 93.5463 236.704 92.9828 236.704ZM98.8839 236.626V226.976H100.132V236.626H98.8839ZM103.531 234.961L103.557 233.362L107.523 229.733H109.032L105.988 232.724L105.312 233.297L103.531 234.961ZM102.516 236.626V226.976H103.765V236.626H102.516ZM107.783 236.626L105.078 233.271L105.884 232.269L109.318 236.626H107.783ZM115.999 236.704C115.427 236.704 114.881 236.626 114.361 236.47C113.849 236.314 113.446 236.123 113.151 235.898L113.671 234.909C113.966 235.109 114.33 235.278 114.764 235.417C115.197 235.555 115.639 235.625 116.09 235.625C116.671 235.625 117.087 235.542 117.339 235.377C117.599 235.213 117.729 234.983 117.729 234.688C117.729 234.471 117.651 234.302 117.495 234.181C117.339 234.06 117.131 233.969 116.871 233.908C116.619 233.847 116.337 233.795 116.025 233.752C115.713 233.7 115.401 233.639 115.089 233.57C114.777 233.492 114.491 233.388 114.231 233.258C113.97 233.119 113.762 232.933 113.606 232.698C113.45 232.456 113.372 232.135 113.372 231.736C113.372 231.32 113.489 230.956 113.723 230.644C113.957 230.332 114.287 230.093 114.712 229.928C115.145 229.755 115.657 229.668 116.246 229.668C116.697 229.668 117.152 229.725 117.612 229.837C118.08 229.941 118.462 230.093 118.756 230.293L118.223 231.281C117.911 231.073 117.586 230.93 117.248 230.852C116.91 230.774 116.571 230.735 116.233 230.735C115.687 230.735 115.28 230.826 115.011 231.008C114.742 231.181 114.608 231.407 114.608 231.684C114.608 231.918 114.686 232.1 114.842 232.23C115.007 232.352 115.215 232.447 115.466 232.516C115.726 232.586 116.012 232.646 116.324 232.698C116.636 232.742 116.949 232.803 117.261 232.881C117.573 232.95 117.855 233.05 118.106 233.18C118.366 233.31 118.574 233.492 118.73 233.726C118.895 233.96 118.977 234.272 118.977 234.662C118.977 235.078 118.856 235.438 118.613 235.742C118.37 236.045 118.028 236.284 117.586 236.457C117.144 236.622 116.615 236.704 115.999 236.704ZM121.867 236.626L119.305 229.733L120.489 229.733L122.765 235.976H122.205L124.572 229.733H125.626L127.941 235.976H127.394L129.722 229.733H130.841L128.266 236.626H127.069L124.897 230.93H125.262L123.064 236.626H121.867ZM134.986 236.704C134.249 236.704 133.599 236.552 133.035 236.249C132.481 235.945 132.047 235.529 131.735 235C131.431 234.471 131.28 233.865 131.28 233.18C131.28 232.495 131.427 231.888 131.722 231.359C132.025 230.83 132.437 230.418 132.957 230.123C133.486 229.82 134.08 229.668 134.739 229.668C135.407 229.668 135.996 229.816 136.508 230.11C137.019 230.405 137.418 230.821 137.704 231.359C137.999 231.888 138.146 232.508 138.146 233.219C138.146 233.271 138.142 233.331 138.133 233.401C138.133 233.47 138.129 233.535 138.12 233.596H132.255V232.698H137.47L136.963 233.011C136.972 232.568 136.881 232.174 136.69 231.827C136.499 231.48 136.235 231.212 135.897 231.021C135.567 230.821 135.181 230.722 134.739 230.722C134.306 230.722 133.92 230.821 133.582 231.021C133.244 231.212 132.979 231.485 132.788 231.84C132.598 232.187 132.502 232.586 132.502 233.037V233.245C132.502 233.704 132.606 234.116 132.814 234.48C133.031 234.836 133.33 235.113 133.712 235.312C134.093 235.512 134.531 235.612 135.025 235.612C135.433 235.612 135.801 235.542 136.131 235.404C136.469 235.265 136.764 235.057 137.015 234.779L137.704 235.586C137.392 235.95 137.002 236.227 136.534 236.418C136.074 236.609 135.558 236.704 134.986 236.704ZM142.949 236.704C142.212 236.704 141.562 236.552 140.998 236.249C140.444 235.945 140.01 235.529 139.698 235C139.394 234.471 139.243 233.865 139.243 233.18C139.243 232.495 139.39 231.888 139.685 231.359C139.988 230.83 140.4 230.418 140.92 230.123C141.449 229.82 142.043 229.668 142.702 229.668C143.37 229.668 143.959 229.816 144.471 230.11C144.982 230.405 145.381 230.821 145.667 231.359C145.962 231.888 146.109 232.508 146.109 233.219C146.109 233.271 146.105 233.331 146.096 233.401C146.096 233.47 146.092 233.535 146.083 233.596H140.218V232.698H145.433L144.926 233.011C144.935 232.568 144.844 232.174 144.653 231.827C144.462 231.48 144.198 231.212 143.86 231.021C143.53 230.821 143.144 230.722 142.702 230.722C142.269 230.722 141.883 230.821 141.545 231.021C141.207 231.212 140.942 231.485 140.751 231.84C140.561 232.187 140.465 232.586 140.465 233.037V233.245C140.465 233.704 140.569 234.116 140.777 234.48C140.994 234.836 141.293 235.113 141.675 235.312C142.056 235.512 142.494 235.612 142.988 235.612C143.396 235.612 143.764 235.542 144.094 235.404C144.432 235.265 144.727 235.057 144.978 234.779L145.667 235.586C145.355 235.95 144.965 236.227 144.497 236.418C144.037 236.609 143.521 236.704 142.949 236.704ZM150.21 236.704C149.516 236.704 148.979 236.518 148.597 236.145C148.216 235.772 148.025 235.239 148.025 234.545V228.225H149.274V234.493C149.274 234.866 149.365 235.152 149.547 235.351C149.737 235.551 150.006 235.651 150.353 235.651C150.743 235.651 151.068 235.542 151.328 235.325L151.718 236.223C151.528 236.388 151.298 236.509 151.029 236.587C150.769 236.665 150.496 236.704 150.21 236.704ZM146.855 230.761V229.733H151.25V230.761H146.855ZM155.205 236.704C154.632 236.704 154.086 236.626 153.566 236.47C153.054 236.314 152.651 236.123 152.357 235.898L152.877 234.909C153.172 235.109 153.536 235.278 153.969 235.417C154.403 235.555 154.845 235.625 155.296 235.625C155.877 235.625 156.293 235.542 156.544 235.377C156.804 235.213 156.934 234.983 156.934 234.688C156.934 234.471 156.856 234.302 156.7 234.181C156.544 234.06 156.336 233.969 156.076 233.908C155.825 233.847 155.543 233.795 155.231 233.752C154.919 233.7 154.606 233.639 154.294 233.57C153.982 233.492 153.696 233.388 153.436 233.258C153.176 233.119 152.968 232.933 152.812 232.698C152.656 232.456 152.578 232.135 152.578 231.736C152.578 231.32 152.695 230.956 152.929 230.644C153.163 230.332 153.492 230.093 153.917 229.928C154.351 229.755 154.862 229.668 155.452 229.668C155.903 229.668 156.358 229.725 156.817 229.837C157.285 229.941 157.667 230.093 157.962 230.293L157.428 231.281C157.116 231.073 156.791 230.93 156.453 230.852C156.115 230.774 155.777 230.735 155.439 230.735C154.893 230.735 154.485 230.826 154.216 231.008C153.947 231.181 153.813 231.407 153.813 231.684C153.813 231.918 153.891 232.1 154.047 232.23C154.212 232.352 154.42 232.447 154.671 232.516C154.932 232.586 155.218 232.646 155.53 232.698C155.842 232.742 156.154 232.803 156.466 232.881C156.778 232.95 157.06 233.05 157.311 233.18C157.572 233.31 157.78 233.492 157.936 233.726C158.1 233.96 158.183 234.272 158.183 234.662C158.183 235.078 158.061 235.438 157.819 235.742C157.576 236.045 157.233 236.284 156.791 236.457C156.349 236.622 155.82 236.704 155.205 236.704ZM159.249 238.551L159.899 235.924L160.068 236.678C159.817 236.678 159.604 236.6 159.431 236.444C159.266 236.288 159.184 236.075 159.184 235.807C159.184 235.547 159.266 235.334 159.431 235.169C159.604 235.005 159.812 234.922 160.055 234.922C160.307 234.922 160.51 235.009 160.666 235.182C160.822 235.347 160.9 235.555 160.9 235.807C160.9 235.893 160.892 235.98 160.874 236.067C160.866 236.145 160.844 236.24 160.809 236.353C160.783 236.457 160.74 236.587 160.679 236.743L160.068 238.551H159.249ZM170.565 236.626V235.117L170.526 234.87V232.347C170.526 231.766 170.361 231.32 170.032 231.008C169.711 230.696 169.23 230.54 168.588 230.54C168.146 230.54 167.725 230.613 167.326 230.761C166.928 230.908 166.59 231.103 166.312 231.346L165.896 230.657C166.243 230.362 166.659 230.136 167.144 229.98C167.63 229.816 168.141 229.733 168.679 229.733C169.563 229.733 170.244 229.954 170.721 230.397C171.206 230.83 171.449 231.493 171.449 232.386V236.626H170.565ZM168.211 236.691C167.699 236.691 167.253 236.609 166.871 236.444C166.499 236.271 166.212 236.036 166.013 235.742C165.814 235.438 165.714 235.091 165.714 234.701C165.714 234.346 165.796 234.025 165.961 233.739C166.134 233.444 166.412 233.21 166.793 233.037C167.183 232.855 167.704 232.764 168.354 232.764H170.708V233.453H168.38C167.721 233.453 167.261 233.57 167.001 233.804C166.75 234.038 166.624 234.328 166.624 234.675C166.624 235.065 166.776 235.377 167.079 235.612C167.383 235.846 167.808 235.963 168.354 235.963C168.874 235.963 169.321 235.846 169.693 235.612C170.075 235.369 170.352 235.022 170.526 234.571L170.734 235.208C170.56 235.659 170.257 236.019 169.823 236.288C169.399 236.557 168.861 236.691 168.211 236.691ZM177.442 229.733C177.997 229.733 178.483 229.842 178.899 230.058C179.324 230.267 179.653 230.587 179.887 231.021C180.13 231.454 180.251 232.001 180.251 232.659V236.626H179.328V232.75C179.328 232.031 179.146 231.489 178.782 231.125C178.426 230.752 177.924 230.566 177.273 230.566C176.788 230.566 176.363 230.665 175.999 230.865C175.643 231.056 175.366 231.337 175.166 231.71C174.976 232.074 174.88 232.516 174.88 233.037V236.626H173.957V229.798H174.841V231.671L174.698 231.32C174.915 230.826 175.262 230.44 175.739 230.163C176.216 229.876 176.783 229.733 177.442 229.733ZM185.464 236.691C184.813 236.691 184.228 236.544 183.708 236.249C183.196 235.954 182.793 235.547 182.498 235.026C182.204 234.497 182.056 233.891 182.056 233.206C182.056 232.512 182.204 231.905 182.498 231.385C182.793 230.865 183.196 230.462 183.708 230.176C184.228 229.881 184.813 229.733 185.464 229.733C186.062 229.733 186.595 229.868 187.063 230.136C187.54 230.405 187.917 230.8 188.195 231.32C188.481 231.831 188.624 232.46 188.624 233.206C188.624 233.943 188.485 234.571 188.208 235.091C187.93 235.612 187.553 236.01 187.076 236.288C186.608 236.557 186.07 236.691 185.464 236.691ZM185.529 235.872C186.014 235.872 186.448 235.763 186.829 235.547C187.219 235.321 187.523 235.009 187.739 234.61C187.965 234.203 188.078 233.735 188.078 233.206C188.078 232.668 187.965 232.2 187.739 231.801C187.523 231.402 187.219 231.095 186.829 230.878C186.448 230.652 186.014 230.54 185.529 230.54C185.052 230.54 184.623 230.652 184.241 230.878C183.86 231.095 183.556 231.402 183.331 231.801C183.105 232.2 182.993 232.668 182.993 233.206C182.993 233.735 183.105 234.203 183.331 234.61C183.556 235.009 183.86 235.321 184.241 235.547C184.623 235.763 185.052 235.872 185.529 235.872ZM188.104 236.626V234.571L188.195 233.193L188.065 231.814V226.976H188.988V236.626H188.104ZM45.0764 256.704C44.5042 256.704 43.9797 256.574 43.5028 256.314C43.0346 256.045 42.6575 255.651 42.3714 255.13C42.0939 254.61 41.9552 253.96 41.9552 253.18C41.9552 252.399 42.0896 251.749 42.3584 251.229C42.6358 250.709 43.0086 250.319 43.4768 250.058C43.9536 249.798 44.4868 249.668 45.0764 249.668C45.7527 249.668 46.3509 249.816 46.8711 250.11C47.3913 250.405 47.8031 250.817 48.1066 251.346C48.41 251.866 48.5617 252.477 48.5617 253.18C48.5617 253.882 48.41 254.497 48.1066 255.026C47.8031 255.555 47.3913 255.967 46.8711 256.262C46.3509 256.557 45.7527 256.704 45.0764 256.704ZM41.422 259.149V249.733H42.6185V251.593L42.5404 253.193L42.6705 254.792V259.149H41.422ZM44.9724 255.612C45.4145 255.612 45.809 255.512 46.1558 255.312C46.5113 255.113 46.7887 254.831 46.9881 254.467C47.1962 254.094 47.3003 253.665 47.3003 253.18C47.3003 252.685 47.1962 252.261 46.9881 251.905C46.7887 251.541 46.5113 251.259 46.1558 251.06C45.809 250.86 45.4145 250.761 44.9724 250.761C44.5389 250.761 44.1444 250.86 43.7889 251.06C43.4421 251.259 43.1647 251.541 42.9566 251.905C42.7572 252.261 42.6575 252.685 42.6575 253.18C42.6575 253.665 42.7572 254.094 42.9566 254.467C43.1647 254.831 43.4421 255.113 43.7889 255.312C44.1444 255.512 44.5389 255.612 44.9724 255.612ZM50.2867 256.626V249.733H51.4832V251.606L51.3661 251.138C51.5569 250.661 51.8777 250.297 52.3285 250.045C52.7793 249.794 53.3342 249.668 53.9931 249.668V250.878C53.9411 250.869 53.8891 250.865 53.8371 250.865C53.7937 250.865 53.7504 250.865 53.707 250.865C53.0394 250.865 52.5106 251.064 52.1204 251.463C51.7303 251.862 51.5352 252.438 51.5352 253.193V256.626H50.2867ZM58.5376 256.704C57.8006 256.704 57.1504 256.552 56.5868 256.249C56.0319 255.945 55.5984 255.529 55.2863 255C54.9829 254.471 54.8311 253.865 54.8311 253.18C54.8311 252.495 54.9785 251.888 55.2733 251.359C55.5768 250.83 55.9886 250.418 56.5088 250.123C57.0377 249.82 57.6315 249.668 58.2905 249.668C58.9581 249.668 59.5476 249.816 60.0591 250.11C60.5707 250.405 60.9695 250.821 61.2556 251.359C61.5504 251.888 61.6978 252.508 61.6978 253.219C61.6978 253.271 61.6934 253.331 61.6848 253.401C61.6848 253.47 61.6804 253.535 61.6718 253.596H55.8065V252.698H61.0215L60.5143 253.011C60.523 252.568 60.4319 252.174 60.2412 251.827C60.0505 251.48 59.786 251.212 59.4479 251.021C59.1184 250.821 58.7326 250.722 58.2905 250.722C57.857 250.722 57.4712 250.821 57.133 251.021C56.7949 251.212 56.5305 251.485 56.3397 251.84C56.149 252.187 56.0536 252.586 56.0536 253.037V253.245C56.0536 253.704 56.1577 254.116 56.3657 254.48C56.5825 254.836 56.8816 255.113 57.2631 255.312C57.6446 255.512 58.0824 255.612 58.5766 255.612C58.9841 255.612 59.3525 255.542 59.682 255.404C60.0201 255.265 60.3149 255.057 60.5663 254.779L61.2556 255.586C60.9435 255.95 60.5533 256.227 60.0851 256.418C59.6256 256.609 59.1098 256.704 58.5376 256.704ZM72.0537 249.668C72.6086 249.668 73.0984 249.777 73.5232 249.993C73.9481 250.21 74.2775 250.54 74.5116 250.982C74.7544 251.424 74.8758 251.983 74.8758 252.659V256.626H73.6273V252.803C73.6273 252.135 73.4712 251.632 73.1591 251.294C72.847 250.956 72.4091 250.787 71.8456 250.787C71.4294 250.787 71.0653 250.873 70.7532 251.047C70.4411 251.22 70.1983 251.476 70.0249 251.814C69.8602 252.152 69.7778 252.573 69.7778 253.076V256.626H68.5293V252.803C68.5293 252.135 68.3733 251.632 68.0612 251.294C67.7577 250.956 67.3199 250.787 66.7477 250.787C66.3402 250.787 65.9804 250.873 65.6682 251.047C65.3561 251.22 65.1134 251.476 64.94 251.814C64.7666 252.152 64.6799 252.573 64.6799 253.076V256.626H63.4314V249.733H64.6278V251.567L64.4328 251.099C64.6495 250.648 64.9833 250.297 65.4342 250.045C65.885 249.794 66.4095 249.668 67.0078 249.668C67.6667 249.668 68.2346 249.833 68.7114 250.163C69.1883 250.483 69.5004 250.973 69.6478 251.632L69.1406 251.424C69.3486 250.895 69.7128 250.47 70.233 250.15C70.7532 249.829 71.3601 249.668 72.0537 249.668ZM77.173 256.626V249.733H78.4214V256.626H77.173ZM77.7972 248.407C77.5544 248.407 77.3507 248.329 77.186 248.173C77.0299 248.017 76.9519 247.826 76.9519 247.601C76.9519 247.366 77.0299 247.171 77.186 247.015C77.3507 246.859 77.5544 246.781 77.7972 246.781C78.04 246.781 78.2394 246.859 78.3954 247.015C78.5602 247.163 78.6425 247.349 78.6425 247.575C78.6425 247.809 78.5645 248.008 78.4084 248.173C78.2524 248.329 78.0486 248.407 77.7972 248.407ZM83.7053 256.704C83.1158 256.704 82.5956 256.596 82.1447 256.379C81.7026 256.162 81.3558 255.833 81.1043 255.391C80.8616 254.94 80.7402 254.376 80.7402 253.7V249.733H81.9887V253.557C81.9887 254.233 82.1491 254.74 82.4698 255.078C82.7993 255.417 83.2588 255.586 83.8484 255.586C84.2819 255.586 84.659 255.499 84.9798 255.325C85.3006 255.143 85.5477 254.883 85.7211 254.545C85.8945 254.198 85.9812 253.782 85.9812 253.297V249.733H87.2297V256.626H86.0462V254.766L86.2413 255.26C86.0159 255.72 85.6777 256.075 85.2269 256.327C84.7761 256.578 84.2689 256.704 83.7053 256.704ZM98.2287 249.668C98.7836 249.668 99.2734 249.777 99.6983 249.993C100.123 250.21 100.453 250.54 100.687 250.982C100.929 251.424 101.051 251.983 101.051 252.659V256.626H99.8023V252.803C99.8023 252.135 99.6463 251.632 99.3341 251.294C99.022 250.956 98.5842 250.787 98.0206 250.787C97.6045 250.787 97.2403 250.873 96.9282 251.047C96.6161 251.22 96.3733 251.476 96.1999 251.814C96.0352 252.152 95.9528 252.573 95.9528 253.076V256.626H94.7044V252.803C94.7044 252.135 94.5483 251.632 94.2362 251.294C93.9327 250.956 93.4949 250.787 92.9227 250.787C92.5152 250.787 92.1554 250.873 91.8433 251.047C91.5312 251.22 91.2884 251.476 91.115 251.814C90.9416 252.152 90.8549 252.573 90.8549 253.076V256.626H89.6064V249.733H90.8029V251.567L90.6078 251.099C90.8245 250.648 91.1583 250.297 91.6092 250.045C92.06 249.794 92.5846 249.668 93.1828 249.668C93.8417 249.668 94.4096 249.833 94.8864 250.163C95.3633 250.483 95.6754 250.973 95.8228 251.632L95.3156 251.424C95.5237 250.895 95.8878 250.47 96.408 250.15C96.9282 249.829 97.5351 249.668 98.2287 249.668ZM109.207 256.704C108.514 256.704 107.976 256.518 107.595 256.145C107.213 255.772 107.023 255.239 107.023 254.545V248.225H108.271V254.493C108.271 254.866 108.362 255.152 108.544 255.351C108.735 255.551 109.004 255.651 109.35 255.651C109.741 255.651 110.066 255.542 110.326 255.325L110.716 256.223C110.525 256.388 110.296 256.509 110.027 256.587C109.767 256.665 109.494 256.704 109.207 256.704ZM105.852 250.761V249.733H110.248V250.761H105.852ZM116.504 256.626V255.169L116.439 254.896V252.412C116.439 251.883 116.283 251.476 115.971 251.19C115.667 250.895 115.208 250.748 114.592 250.748C114.185 250.748 113.786 250.817 113.396 250.956C113.006 251.086 112.676 251.264 112.407 251.489L111.887 250.553C112.243 250.267 112.668 250.05 113.162 249.902C113.665 249.746 114.189 249.668 114.735 249.668C115.68 249.668 116.409 249.898 116.92 250.358C117.432 250.817 117.687 251.519 117.687 252.464V256.626H116.504ZM114.241 256.704C113.73 256.704 113.279 256.617 112.889 256.444C112.507 256.271 112.212 256.032 112.004 255.729C111.796 255.417 111.692 255.065 111.692 254.675C111.692 254.302 111.779 253.964 111.952 253.661C112.134 253.357 112.425 253.115 112.824 252.933C113.231 252.75 113.777 252.659 114.462 252.659H116.647V253.557H114.514C113.89 253.557 113.47 253.661 113.253 253.869C113.036 254.077 112.928 254.328 112.928 254.623C112.928 254.961 113.062 255.234 113.331 255.443C113.6 255.642 113.972 255.742 114.449 255.742C114.917 255.742 115.325 255.638 115.672 255.43C116.027 255.221 116.283 254.918 116.439 254.519L116.686 255.377C116.521 255.785 116.231 256.11 115.815 256.353C115.399 256.587 114.874 256.704 114.241 256.704ZM121.012 254.961L121.038 253.362L125.005 249.733H126.513L123.47 252.724L122.794 253.297L121.012 254.961ZM119.998 256.626V246.976H121.246V256.626H119.998ZM125.265 256.626L122.56 253.271L123.366 252.269L126.8 256.626H125.265ZM130.789 256.704C130.052 256.704 129.402 256.552 128.838 256.249C128.283 255.945 127.85 255.529 127.538 255C127.234 254.471 127.082 253.865 127.082 253.18C127.082 252.495 127.23 251.888 127.525 251.359C127.828 250.83 128.24 250.418 128.76 250.123C129.289 249.82 129.883 249.668 130.542 249.668C131.209 249.668 131.799 249.816 132.31 250.11C132.822 250.405 133.221 250.821 133.507 251.359C133.802 251.888 133.949 252.508 133.949 253.219C133.949 253.271 133.945 253.331 133.936 253.401C133.936 253.47 133.932 253.535 133.923 253.596H128.058V252.698H133.273L132.766 253.011C132.774 252.568 132.683 252.174 132.492 251.827C132.302 251.48 132.037 251.212 131.699 251.021C131.37 250.821 130.984 250.722 130.542 250.722C130.108 250.722 129.722 250.821 129.384 251.021C129.046 251.212 128.782 251.485 128.591 251.84C128.4 252.187 128.305 252.586 128.305 253.037V253.245C128.305 253.704 128.409 254.116 128.617 254.48C128.834 254.836 129.133 255.113 129.514 255.312C129.896 255.512 130.334 255.612 130.828 255.612C131.235 255.612 131.604 255.542 131.933 255.404C132.271 255.265 132.566 255.057 132.818 254.779L133.507 255.586C133.195 255.95 132.805 256.227 132.336 256.418C131.877 256.609 131.361 256.704 130.789 256.704ZM139.771 256.626V255.169L139.706 254.896V252.412C139.706 251.883 139.55 251.476 139.238 251.19C138.934 250.895 138.475 250.748 137.859 250.748C137.452 250.748 137.053 250.817 136.663 250.956C136.272 251.086 135.943 251.264 135.674 251.489L135.154 250.553C135.509 250.267 135.934 250.05 136.428 249.902C136.931 249.746 137.456 249.668 138.002 249.668C138.947 249.668 139.675 249.898 140.187 250.358C140.698 250.817 140.954 251.519 140.954 252.464V256.626H139.771ZM137.508 256.704C136.996 256.704 136.546 256.617 136.155 256.444C135.774 256.271 135.479 256.032 135.271 255.729C135.063 255.417 134.959 255.065 134.959 254.675C134.959 254.302 135.046 253.964 135.219 253.661C135.401 253.357 135.692 253.115 136.09 252.933C136.498 252.75 137.044 252.659 137.729 252.659H139.914V253.557H137.781C137.157 253.557 136.736 253.661 136.519 253.869C136.303 254.077 136.194 254.328 136.194 254.623C136.194 254.961 136.329 255.234 136.598 255.443C136.866 255.642 137.239 255.742 137.716 255.742C138.184 255.742 138.592 255.638 138.938 255.43C139.294 255.221 139.55 254.918 139.706 254.519L139.953 255.377C139.788 255.785 139.498 256.11 139.081 256.353C138.665 256.587 138.141 256.704 137.508 256.704ZM144.594 256.626L142.032 249.733H143.216L145.491 255.976H144.932L147.299 249.733H148.353L150.667 255.976H150.121L152.449 249.733H153.568L150.993 256.626H149.796L147.624 250.93H147.988L145.791 256.626H144.594ZM158.897 256.626V255.169L158.832 254.896V252.412C158.832 251.883 158.676 251.476 158.364 251.19C158.061 250.895 157.601 250.748 156.985 250.748C156.578 250.748 156.179 250.817 155.789 250.956C155.399 251.086 155.069 251.264 154.801 251.489L154.28 250.553C154.636 250.267 155.061 250.05 155.555 249.902C156.058 249.746 156.582 249.668 157.128 249.668C158.074 249.668 158.802 249.898 159.313 250.358C159.825 250.817 160.081 251.519 160.081 252.464V256.626H158.897ZM156.634 256.704C156.123 256.704 155.672 256.617 155.282 256.444C154.9 256.271 154.606 256.032 154.397 255.729C154.189 255.417 154.085 255.065 154.085 254.675C154.085 254.302 154.172 253.964 154.345 253.661C154.528 253.357 154.818 253.115 155.217 252.933C155.624 252.75 156.17 252.659 156.855 252.659H159.04V253.557H156.907C156.283 253.557 155.863 253.661 155.646 253.869C155.429 254.077 155.321 254.328 155.321 254.623C155.321 254.961 155.455 255.234 155.724 255.443C155.993 255.642 156.366 255.742 156.842 255.742C157.311 255.742 157.718 255.638 158.065 255.43C158.42 255.221 158.676 254.918 158.832 254.519L159.079 255.377C158.915 255.785 158.624 256.11 158.208 256.353C157.792 256.587 157.267 256.704 156.634 256.704ZM162.563 259.227C162.234 259.227 161.913 259.171 161.601 259.058C161.289 258.954 161.02 258.798 160.794 258.59L161.328 257.653C161.501 257.818 161.692 257.944 161.9 258.031C162.108 258.117 162.329 258.161 162.563 258.161C162.867 258.161 163.118 258.083 163.317 257.926C163.517 257.77 163.703 257.493 163.877 257.094L164.306 256.145L164.436 255.989L167.141 249.733H168.363L165.021 257.315C164.822 257.801 164.596 258.182 164.345 258.46C164.102 258.737 163.833 258.932 163.539 259.045C163.244 259.166 162.919 259.227 162.563 259.227ZM164.202 256.847L161.055 249.733H162.355L165.034 255.872L164.202 256.847ZM72.6485 275.704C72.0762 275.704 71.5517 275.574 71.0749 275.314C70.6067 275.045 70.2295 274.651 69.9434 274.13C69.666 273.61 69.5273 272.96 69.5273 272.18C69.5273 271.399 69.6616 270.749 69.9304 270.229C70.2079 269.709 70.5807 269.319 71.0488 269.058C71.5257 268.798 72.0589 268.668 72.6485 268.668C73.3247 268.668 73.9229 268.816 74.4431 269.11C74.9633 269.405 75.3752 269.817 75.6786 270.346C75.9821 270.866 76.1338 271.477 76.1338 272.18C76.1338 272.882 75.9821 273.497 75.6786 274.026C75.3752 274.555 74.9633 274.967 74.4431 275.262C73.9229 275.557 73.3247 275.704 72.6485 275.704ZM68.9941 278.149V268.733H70.1905V270.593L70.1125 272.193L70.2425 273.792V278.149H68.9941ZM72.5444 274.612C72.9866 274.612 73.3811 274.512 73.7279 274.312C74.0833 274.113 74.3608 273.831 74.5602 273.467C74.7683 273.094 74.8723 272.665 74.8723 272.18C74.8723 271.685 74.7683 271.261 74.5602 270.905C74.3608 270.541 74.0833 270.259 73.7279 270.06C73.3811 269.86 72.9866 269.761 72.5444 269.761C72.1109 269.761 71.7164 269.86 71.361 270.06C71.0142 270.259 70.7367 270.541 70.5286 270.905C70.3292 271.261 70.2295 271.685 70.2295 272.18C70.2295 272.665 70.3292 273.094 70.5286 273.467C70.7367 273.831 71.0142 274.113 71.361 274.312C71.7164 274.512 72.1109 274.612 72.5444 274.612ZM82.0739 275.626V274.169L82.0089 273.896V271.412C82.0089 270.883 81.8528 270.476 81.5407 270.19C81.2372 269.895 80.7777 269.748 80.1622 269.748C79.7547 269.748 79.3559 269.817 78.9657 269.956C78.5756 270.086 78.2461 270.264 77.9773 270.489L77.4571 269.553C77.8126 269.267 78.2374 269.05 78.7316 268.902C79.2345 268.746 79.759 268.668 80.3052 268.668C81.2503 268.668 81.9785 268.898 82.4901 269.358C83.0016 269.817 83.2574 270.519 83.2574 271.464V275.626H82.0739ZM79.811 275.704C79.2995 275.704 78.8487 275.617 78.4585 275.444C78.077 275.271 77.7823 275.032 77.5742 274.729C77.3661 274.417 77.2621 274.065 77.2621 273.675C77.2621 273.302 77.3488 272.964 77.5222 272.661C77.7042 272.357 77.9947 272.115 78.3935 271.933C78.801 271.75 79.3472 271.659 80.0321 271.659H82.217V272.557H80.0841C79.4599 272.557 79.0394 272.661 78.8227 272.869C78.6059 273.077 78.4975 273.328 78.4975 273.623C78.4975 273.961 78.6319 274.234 78.9007 274.443C79.1695 274.642 79.5423 274.742 80.0191 274.742C80.4873 274.742 80.8948 274.638 81.2416 274.43C81.5971 274.221 81.8528 273.918 82.0089 273.519L82.256 274.377C82.0912 274.785 81.8008 275.11 81.3846 275.353C80.9685 275.587 80.4439 275.704 79.811 275.704ZM88.5719 275.704C87.8696 275.704 87.2411 275.552 86.6862 275.249C86.14 274.945 85.7108 274.529 85.3987 274C85.0866 273.471 84.9305 272.865 84.9305 272.18C84.9305 271.495 85.0866 270.888 85.3987 270.359C85.7108 269.83 86.14 269.418 86.6862 269.123C87.2411 268.82 87.8696 268.668 88.5719 268.668C89.1962 268.668 89.751 268.794 90.2365 269.045C90.7307 269.288 91.1122 269.652 91.381 270.138L90.4316 270.749C90.2062 270.411 89.9288 270.164 89.5993 270.008C89.2785 269.843 88.9317 269.761 88.5589 269.761C88.1081 269.761 87.7049 269.86 87.3494 270.06C86.994 270.259 86.7122 270.541 86.5041 270.905C86.296 271.261 86.192 271.685 86.192 272.18C86.192 272.674 86.296 273.103 86.5041 273.467C86.7122 273.831 86.994 274.113 87.3494 274.312C87.7049 274.512 88.1081 274.612 88.5589 274.612C88.9317 274.612 89.2785 274.534 89.5993 274.377C89.9288 274.213 90.2062 273.961 90.4316 273.623L91.381 274.221C91.1122 274.698 90.7307 275.067 90.2365 275.327C89.751 275.578 89.1962 275.704 88.5719 275.704ZM93.9228 273.961L93.9489 272.362L97.9154 268.733H99.4239L96.3808 271.724L95.7045 272.297L93.9228 273.961ZM92.9085 275.626V265.976H94.1569V275.626H92.9085ZM98.1755 275.626L95.4704 272.271L96.2767 271.269L99.7101 275.626H98.1755ZM105.074 275.626V274.169L105.009 273.896V271.412C105.009 270.883 104.853 270.476 104.541 270.19C104.237 269.895 103.778 269.748 103.162 269.748C102.755 269.748 102.356 269.817 101.966 269.956C101.576 270.086 101.246 270.264 100.977 270.489L100.457 269.553C100.813 269.267 101.237 269.05 101.732 268.902C102.234 268.746 102.759 268.668 103.305 268.668C104.25 268.668 104.979 268.898 105.49 269.358C106.002 269.817 106.257 270.519 106.257 271.464V275.626H105.074ZM102.811 275.704C102.3 275.704 101.849 275.617 101.459 275.444C101.077 275.271 100.782 275.032 100.574 274.729C100.366 274.417 100.262 274.065 100.262 273.675C100.262 273.302 100.349 272.964 100.522 272.661C100.704 272.357 100.995 272.115 101.393 271.933C101.801 271.75 102.347 271.659 103.032 271.659H105.217V272.557H103.084C102.46 272.557 102.039 272.661 101.823 272.869C101.606 273.077 101.498 273.328 101.498 273.623C101.498 273.961 101.632 274.234 101.901 274.443C102.169 274.642 102.542 274.742 103.019 274.742C103.487 274.742 103.895 274.638 104.242 274.43C104.597 274.221 104.853 273.918 105.009 273.519L105.256 274.377C105.091 274.785 104.801 275.11 104.385 275.353C103.968 275.587 103.444 275.704 102.811 275.704ZM111.585 278.227C110.952 278.227 110.336 278.136 109.738 277.954C109.149 277.78 108.667 277.529 108.295 277.2L108.893 276.237C109.214 276.515 109.608 276.731 110.076 276.887C110.545 277.052 111.034 277.135 111.546 277.135C112.361 277.135 112.959 276.944 113.341 276.562C113.722 276.181 113.913 275.6 113.913 274.82V273.363L114.043 271.998L113.978 270.619V268.733H115.161V274.69C115.161 275.903 114.858 276.796 114.251 277.369C113.644 277.941 112.755 278.227 111.585 278.227ZM111.429 275.34C110.761 275.34 110.163 275.201 109.634 274.924C109.114 274.638 108.698 274.243 108.386 273.74C108.082 273.237 107.931 272.657 107.931 271.998C107.931 271.33 108.082 270.749 108.386 270.255C108.698 269.752 109.114 269.362 109.634 269.084C110.163 268.807 110.761 268.668 111.429 268.668C112.018 268.668 112.556 268.79 113.041 269.032C113.527 269.267 113.913 269.631 114.199 270.125C114.494 270.619 114.641 271.243 114.641 271.998C114.641 272.743 114.494 273.363 114.199 273.857C113.913 274.351 113.527 274.724 113.041 274.976C112.556 275.218 112.018 275.34 111.429 275.34ZM111.572 274.247C112.031 274.247 112.439 274.152 112.794 273.961C113.15 273.771 113.427 273.506 113.627 273.168C113.835 272.83 113.939 272.44 113.939 271.998C113.939 271.555 113.835 271.165 113.627 270.827C113.427 270.489 113.15 270.229 112.794 270.047C112.439 269.856 112.031 269.761 111.572 269.761C111.112 269.761 110.701 269.856 110.336 270.047C109.981 270.229 109.699 270.489 109.491 270.827C109.292 271.165 109.192 271.555 109.192 271.998C109.192 272.44 109.292 272.83 109.491 273.168C109.699 273.506 109.981 273.771 110.336 273.961C110.701 274.152 111.112 274.247 111.572 274.247ZM117.547 275.626V268.733H118.795V275.626H117.547ZM118.171 267.407C117.928 267.407 117.725 267.329 117.56 267.173C117.404 267.017 117.326 266.826 117.326 266.601C117.326 266.366 117.404 266.171 117.56 266.015C117.725 265.859 117.928 265.781 118.171 265.781C118.414 265.781 118.613 265.859 118.769 266.015C118.934 266.163 119.016 266.349 119.016 266.575C119.016 266.809 118.938 267.008 118.782 267.173C118.626 267.329 118.422 267.407 118.171 267.407ZM124.859 268.668C125.423 268.668 125.917 268.777 126.342 268.993C126.775 269.21 127.114 269.54 127.356 269.982C127.599 270.424 127.721 270.983 127.721 271.659V275.626H126.472V271.803C126.472 271.135 126.307 270.632 125.978 270.294C125.657 269.956 125.202 269.787 124.612 269.787C124.17 269.787 123.784 269.873 123.455 270.047C123.125 270.22 122.87 270.476 122.688 270.814C122.514 271.152 122.427 271.573 122.427 272.076V275.626H121.179V268.733H122.375V270.593L122.18 270.099C122.406 269.648 122.753 269.297 123.221 269.045C123.689 268.794 124.235 268.668 124.859 268.668ZM133.048 278.227C132.415 278.227 131.8 278.136 131.201 277.954C130.612 277.78 130.131 277.529 129.758 277.2L130.356 276.237C130.677 276.515 131.071 276.731 131.54 276.887C132.008 277.052 132.498 277.135 133.009 277.135C133.824 277.135 134.422 276.944 134.804 276.562C135.185 276.181 135.376 275.6 135.376 274.82V273.363L135.506 271.998L135.441 270.619V268.733H136.625V274.69C136.625 275.903 136.321 276.796 135.714 277.369C135.107 277.941 134.219 278.227 133.048 278.227ZM132.892 275.34C132.225 275.34 131.626 275.201 131.097 274.924C130.577 274.638 130.161 274.243 129.849 273.74C129.546 273.237 129.394 272.657 129.394 271.998C129.394 271.33 129.546 270.749 129.849 270.255C130.161 269.752 130.577 269.362 131.097 269.084C131.626 268.807 132.225 268.668 132.892 268.668C133.482 268.668 134.019 268.79 134.505 269.032C134.99 269.267 135.376 269.631 135.662 270.125C135.957 270.619 136.104 271.243 136.104 271.998C136.104 272.743 135.957 273.363 135.662 273.857C135.376 274.351 134.99 274.724 134.505 274.976C134.019 275.218 133.482 275.34 132.892 275.34ZM133.035 274.247C133.495 274.247 133.902 274.152 134.258 273.961C134.613 273.771 134.891 273.506 135.09 273.168C135.298 272.83 135.402 272.44 135.402 271.998C135.402 271.555 135.298 271.165 135.09 270.827C134.891 270.489 134.613 270.229 134.258 270.047C133.902 269.856 133.495 269.761 133.035 269.761C132.576 269.761 132.164 269.856 131.8 270.047C131.444 270.229 131.162 270.489 130.954 270.827C130.755 271.165 130.655 271.555 130.655 271.998C130.655 272.44 130.755 272.83 130.954 273.168C131.162 273.506 131.444 273.771 131.8 273.961C132.164 274.152 132.576 274.247 133.035 274.247ZM139.309 275.704C139.066 275.704 138.858 275.622 138.685 275.457C138.512 275.284 138.425 275.067 138.425 274.807C138.425 274.547 138.512 274.334 138.685 274.169C138.858 274.005 139.066 273.922 139.309 273.922C139.543 273.922 139.743 274.005 139.907 274.169C140.081 274.334 140.167 274.547 140.167 274.807C140.167 275.067 140.081 275.284 139.907 275.457C139.743 275.622 139.543 275.704 139.309 275.704Z" fill="black"/>
<defs>
<filter id="filter0_d_2201_36" x="-0.000117779" y="0" width="214.911" height="306.112" filterUnits="userSpaceOnUse" color-interpolation-filters="sRGB">
<feFlood flood-opacity="0" result="BackgroundImageFix"/>
<feColorMatrix in="SourceAlpha" type="matrix" values="0 0 0 0 0 0 0 0 0 0 0 0 0 0 0 0 0 0 127 0" result="hardAlpha"/>
<feOffset dy="4.30578"/>
<feGaussianBlur stdDeviation="2.15289"/>
<feComposite in2="hardAlpha" operator="out"/>
<feColorMatrix type="matrix" values="0 0 0 0 0 0 0 0 0 0 0 0 0 0 0 0 0 0 0.25 0"/>
<feBlend mode="normal" in2="BackgroundImageFix" result="effect1_dropShadow_2201_36"/>
<feBlend mode="normal" in="SourceGraphic" in2="effect1_dropShadow_2201_36" result="shape"/>
</filter>
<linearGradient id="paint0_linear_2201_36" x1="107.456" y1="165.095" x2="107.456" y2="12.2402" gradientUnits="userSpaceOnUse">
<stop offset="0.906845" stop-color="#EFEFEF"/>
</linearGradient>
<linearGradient id="paint1_linear_2201_36" x1="107.456" y1="286.735" x2="107.456" y2="297.5" gradientUnits="userSpaceOnUse">
<stop offset="0.365385" stop-color="#1B8699"/>
<stop offset="1" stop-color="white"/>
</linearGradient>
</defs>
</svg>
