<svg width="292" height="36" viewBox="0 0 292 36" fill="none" xmlns="http://www.w3.org/2000/svg">
<path d="M21.045 0H272.27L292 19.5L272.27 36H21.045L0 19.5L21.045 0Z" fill="#EEC43A"/>
<path d="M13.8421 23V13.2H14.8781V23H13.8421ZM18.0667 23V13.2H18.9207L23.4007 20.844H22.9527L27.3907 13.2H28.2447V23H27.2507V14.754H27.4887L23.4007 21.754H22.9107L18.7947 14.754H19.0607V23H18.0667ZM31.4378 23V13.2H32.4738V22.104H37.9618V23H31.4378ZM49.7961 23.07C49.0867 23.07 48.4474 22.9113 47.8781 22.594C47.3181 22.2673 46.8747 21.824 46.5481 21.264C46.2214 20.6947 46.0581 20.046 46.0581 19.318C46.0581 18.5807 46.2214 17.932 46.5481 17.372C46.8747 16.812 47.3181 16.3733 47.8781 16.056C48.4381 15.7387 49.0774 15.58 49.7961 15.58C50.5241 15.58 51.1681 15.7387 51.7281 16.056C52.2974 16.3733 52.7407 16.812 53.0581 17.372C53.3847 17.932 53.5481 18.5807 53.5481 19.318C53.5481 20.046 53.3847 20.6947 53.0581 21.264C52.7407 21.824 52.2974 22.2673 51.7281 22.594C51.1587 22.9113 50.5147 23.07 49.7961 23.07ZM49.7961 22.188C50.3281 22.188 50.7994 22.0713 51.2101 21.838C51.6207 21.5953 51.9427 21.2593 52.1761 20.83C52.4187 20.3913 52.5401 19.8873 52.5401 19.318C52.5401 18.7393 52.4187 18.2353 52.1761 17.806C51.9427 17.3767 51.6207 17.0453 51.2101 16.812C50.7994 16.5693 50.3327 16.448 49.8101 16.448C49.2874 16.448 48.8207 16.5693 48.4101 16.812C47.9994 17.0453 47.6727 17.3767 47.4301 17.806C47.1874 18.2353 47.0661 18.7393 47.0661 19.318C47.0661 19.8873 47.1874 20.3913 47.4301 20.83C47.6727 21.2593 47.9994 21.5953 48.4101 21.838C48.8207 22.0713 49.2827 22.188 49.7961 22.188ZM59.3294 15.58C59.9267 15.58 60.4494 15.6967 60.8974 15.93C61.3547 16.154 61.7094 16.4993 61.9614 16.966C62.2227 17.4327 62.3534 18.0207 62.3534 18.73V23H61.3594V18.828C61.3594 18.0533 61.1634 17.47 60.7714 17.078C60.3887 16.6767 59.8474 16.476 59.1474 16.476C58.6247 16.476 58.1674 16.5833 57.7754 16.798C57.3927 17.0033 57.0941 17.3067 56.8794 17.708C56.6741 18.1 56.5714 18.576 56.5714 19.136V23H55.5774V15.65H56.5294V17.666L56.3754 17.288C56.6087 16.756 56.9821 16.3407 57.4954 16.042C58.0087 15.734 58.6201 15.58 59.3294 15.58ZM68.9124 23V13.2H69.9484V22.104H75.4364V23H68.9124ZM76.9465 23V15.65H77.9405V23H76.9465ZM77.4505 14.026C77.2452 14.026 77.0725 13.956 76.9325 13.816C76.7925 13.676 76.7225 13.508 76.7225 13.312C76.7225 13.116 76.7925 12.9527 76.9325 12.822C77.0725 12.682 77.2452 12.612 77.4505 12.612C77.6559 12.612 77.8285 12.6773 77.9685 12.808C78.1085 12.9387 78.1785 13.102 78.1785 13.298C78.1785 13.5033 78.1085 13.676 77.9685 13.816C77.8379 13.956 77.6652 14.026 77.4505 14.026ZM83.6323 23.07C82.9323 23.07 82.3023 22.9113 81.7423 22.594C81.1916 22.2767 80.7576 21.838 80.4403 21.278C80.123 20.7087 79.9643 20.0553 79.9643 19.318C79.9643 18.5713 80.123 17.918 80.4403 17.358C80.7576 16.798 81.1916 16.364 81.7423 16.056C82.3023 15.7387 82.9323 15.58 83.6323 15.58C84.2763 15.58 84.8503 15.7247 85.3543 16.014C85.8676 16.3033 86.2736 16.728 86.5723 17.288C86.8803 17.8387 87.0343 18.5153 87.0343 19.318C87.0343 20.1113 86.885 20.788 86.5863 21.348C86.2876 21.908 85.8816 22.3373 85.3683 22.636C84.8643 22.9253 84.2856 23.07 83.6323 23.07ZM83.7023 22.188C84.225 22.188 84.6916 22.0713 85.1023 21.838C85.5223 21.5953 85.849 21.2593 86.0823 20.83C86.325 20.3913 86.4463 19.8873 86.4463 19.318C86.4463 18.7393 86.325 18.2353 86.0823 17.806C85.849 17.3767 85.5223 17.0453 85.1023 16.812C84.6916 16.5693 84.225 16.448 83.7023 16.448C83.189 16.448 82.727 16.5693 82.3163 16.812C81.9056 17.0453 81.579 17.3767 81.3363 17.806C81.0936 18.2353 80.9723 18.7393 80.9723 19.318C80.9723 19.8873 81.0936 20.3913 81.3363 20.83C81.579 21.2593 81.9056 21.5953 82.3163 21.838C82.727 22.0713 83.189 22.188 83.7023 22.188ZM86.4743 23V20.788L86.5723 19.304L86.4323 17.82V12.612H87.4263V23H86.4743ZM96.4487 23.084C95.814 23.084 95.2493 22.9813 94.7547 22.776C94.26 22.5613 93.868 22.2673 93.5787 21.894C93.2987 21.5207 93.1587 21.0867 93.1587 20.592C93.1587 20.172 93.252 19.7893 93.4387 19.444C93.6253 19.0893 93.924 18.744 94.3347 18.408C94.7547 18.0627 95.31 17.7033 96.0007 17.33C96.5887 17.0033 97.046 16.7233 97.3727 16.49C97.7087 16.2473 97.9467 16.0187 98.0867 15.804C98.2267 15.58 98.2967 15.342 98.2967 15.09C98.2967 14.726 98.1707 14.432 97.9187 14.208C97.676 13.984 97.326 13.872 96.8687 13.872C96.374 13.872 95.9913 13.998 95.7207 14.25C95.45 14.4927 95.3147 14.81 95.3147 15.202C95.3147 15.398 95.3427 15.5847 95.3987 15.762C95.464 15.9393 95.5807 16.1353 95.7487 16.35C95.926 16.5647 96.1687 16.8353 96.4767 17.162L101.657 22.496L101.083 23.154L95.6787 17.596C95.352 17.2507 95.0907 16.952 94.8947 16.7C94.708 16.4387 94.5773 16.1913 94.5027 15.958C94.428 15.7247 94.3907 15.4773 94.3907 15.216C94.3907 14.796 94.4887 14.432 94.6847 14.124C94.89 13.8067 95.1793 13.564 95.5527 13.396C95.926 13.2187 96.3647 13.13 96.8687 13.13C97.326 13.13 97.7227 13.2093 98.0587 13.368C98.404 13.5173 98.67 13.7367 98.8567 14.026C99.0527 14.3153 99.1507 14.6653 99.1507 15.076C99.1507 15.4307 99.062 15.762 98.8847 16.07C98.7167 16.378 98.4367 16.6813 98.0447 16.98C97.6527 17.2693 97.1207 17.596 96.4487 17.96C95.8607 18.2867 95.394 18.5853 95.0487 18.856C94.7127 19.1267 94.4747 19.3927 94.3347 19.654C94.1947 19.906 94.1247 20.186 94.1247 20.494C94.1247 20.8487 94.2227 21.1613 94.4187 21.432C94.624 21.6933 94.904 21.8987 95.2587 22.048C95.6227 22.188 96.038 22.258 96.5047 22.258C97.158 22.258 97.7413 22.1227 98.2547 21.852C98.768 21.5813 99.1973 21.1707 99.5427 20.62C99.8973 20.0693 100.154 19.3787 100.313 18.548L101.111 18.8C100.933 19.7333 100.63 20.5173 100.201 21.152C99.7713 21.7867 99.2393 22.2673 98.6047 22.594C97.97 22.9207 97.2513 23.084 96.4487 23.084ZM110.682 23.07C110.038 23.07 109.459 22.9253 108.946 22.636C108.433 22.3373 108.027 21.908 107.728 21.348C107.429 20.788 107.28 20.1113 107.28 19.318C107.28 18.5153 107.429 17.8387 107.728 17.288C108.036 16.728 108.447 16.3033 108.96 16.014C109.473 15.7247 110.047 15.58 110.682 15.58C111.382 15.58 112.007 15.7387 112.558 16.056C113.118 16.364 113.557 16.798 113.874 17.358C114.191 17.918 114.35 18.5713 114.35 19.318C114.35 20.0553 114.191 20.7087 113.874 21.278C113.557 21.838 113.118 22.2767 112.558 22.594C112.007 22.9113 111.382 23.07 110.682 23.07ZM106.888 23V12.612H107.882V17.82L107.742 19.304L107.84 20.788V23H106.888ZM110.612 22.188C111.135 22.188 111.601 22.0713 112.012 21.838C112.423 21.5953 112.749 21.2593 112.992 20.83C113.235 20.3913 113.356 19.8873 113.356 19.318C113.356 18.7393 113.235 18.2353 112.992 17.806C112.749 17.3767 112.423 17.0453 112.012 16.812C111.601 16.5693 111.135 16.448 110.612 16.448C110.089 16.448 109.618 16.5693 109.198 16.812C108.787 17.0453 108.461 17.3767 108.218 17.806C107.985 18.2353 107.868 18.7393 107.868 19.318C107.868 19.8873 107.985 20.3913 108.218 20.83C108.461 21.2593 108.787 21.5953 109.198 21.838C109.618 22.0713 110.089 22.188 110.612 22.188ZM119.372 23.07C118.663 23.07 118.024 22.9113 117.454 22.594C116.894 22.2673 116.451 21.824 116.124 21.264C115.798 20.6947 115.634 20.046 115.634 19.318C115.634 18.5807 115.798 17.932 116.124 17.372C116.451 16.812 116.894 16.3733 117.454 16.056C118.014 15.7387 118.654 15.58 119.372 15.58C120.1 15.58 120.744 15.7387 121.304 16.056C121.874 16.3733 122.317 16.812 122.634 17.372C122.961 17.932 123.124 18.5807 123.124 19.318C123.124 20.046 122.961 20.6947 122.634 21.264C122.317 21.824 121.874 22.2673 121.304 22.594C120.735 22.9113 120.091 23.07 119.372 23.07ZM119.372 22.188C119.904 22.188 120.376 22.0713 120.786 21.838C121.197 21.5953 121.519 21.2593 121.752 20.83C121.995 20.3913 122.116 19.8873 122.116 19.318C122.116 18.7393 121.995 18.2353 121.752 17.806C121.519 17.3767 121.197 17.0453 120.786 16.812C120.376 16.5693 119.909 16.448 119.386 16.448C118.864 16.448 118.397 16.5693 117.986 16.812C117.576 17.0453 117.249 17.3767 117.006 17.806C116.764 18.2353 116.642 18.7393 116.642 19.318C116.642 19.8873 116.764 20.3913 117.006 20.83C117.249 21.2593 117.576 21.5953 117.986 21.838C118.397 22.0713 118.859 22.188 119.372 22.188ZM127.478 23.07C126.787 23.07 126.255 22.8833 125.882 22.51C125.508 22.1367 125.322 21.6093 125.322 20.928V14.026H126.316V20.872C126.316 21.3013 126.423 21.6327 126.638 21.866C126.862 22.0993 127.179 22.216 127.59 22.216C128.028 22.216 128.392 22.09 128.682 21.838L129.032 22.552C128.836 22.7293 128.598 22.86 128.318 22.944C128.047 23.028 127.767 23.07 127.478 23.07ZM124.006 16.476V15.65H128.556V16.476H124.006ZM132.974 23.07C132.283 23.07 131.751 22.8833 131.378 22.51C131.004 22.1367 130.818 21.6093 130.818 20.928V14.026H131.812V20.872C131.812 21.3013 131.919 21.6327 132.134 21.866C132.358 22.0993 132.675 22.216 133.086 22.216C133.524 22.216 133.888 22.09 134.178 21.838L134.528 22.552C134.332 22.7293 134.094 22.86 133.814 22.944C133.543 23.028 133.263 23.07 132.974 23.07ZM129.502 16.476V15.65H134.052V16.476H129.502ZM139.073 23.07C138.364 23.07 137.725 22.9113 137.155 22.594C136.595 22.2673 136.152 21.824 135.825 21.264C135.499 20.6947 135.335 20.046 135.335 19.318C135.335 18.5807 135.499 17.932 135.825 17.372C136.152 16.812 136.595 16.3733 137.155 16.056C137.715 15.7387 138.355 15.58 139.073 15.58C139.801 15.58 140.445 15.7387 141.005 16.056C141.575 16.3733 142.018 16.812 142.335 17.372C142.662 17.932 142.825 18.5807 142.825 19.318C142.825 20.046 142.662 20.6947 142.335 21.264C142.018 21.824 141.575 22.2673 141.005 22.594C140.436 22.9113 139.792 23.07 139.073 23.07ZM139.073 22.188C139.605 22.188 140.077 22.0713 140.487 21.838C140.898 21.5953 141.22 21.2593 141.453 20.83C141.696 20.3913 141.817 19.8873 141.817 19.318C141.817 18.7393 141.696 18.2353 141.453 17.806C141.22 17.3767 140.898 17.0453 140.487 16.812C140.077 16.5693 139.61 16.448 139.087 16.448C138.565 16.448 138.098 16.5693 137.687 16.812C137.277 17.0453 136.95 17.3767 136.707 17.806C136.465 18.2353 136.343 18.7393 136.343 19.318C136.343 19.8873 136.465 20.3913 136.707 20.83C136.95 21.2593 137.277 21.5953 137.687 21.838C138.098 22.0713 138.56 22.188 139.073 22.188ZM154.039 15.58C154.636 15.58 155.154 15.6967 155.593 15.93C156.041 16.154 156.386 16.4993 156.629 16.966C156.881 17.4327 157.007 18.0207 157.007 18.73V23H156.013V18.828C156.013 18.0533 155.826 17.47 155.453 17.078C155.089 16.6767 154.571 16.476 153.899 16.476C153.395 16.476 152.956 16.5833 152.583 16.798C152.219 17.0033 151.934 17.3067 151.729 17.708C151.533 18.1 151.435 18.576 151.435 19.136V23H150.441V18.828C150.441 18.0533 150.254 17.47 149.881 17.078C149.507 16.6767 148.985 16.476 148.313 16.476C147.818 16.476 147.384 16.5833 147.011 16.798C146.637 17.0033 146.348 17.3067 146.143 17.708C145.947 18.1 145.849 18.576 145.849 19.136V23H144.855V15.65H145.807V17.638L145.653 17.288C145.877 16.756 146.236 16.3407 146.731 16.042C147.235 15.734 147.827 15.58 148.509 15.58C149.227 15.58 149.839 15.762 150.343 16.126C150.847 16.4807 151.173 17.0173 151.323 17.736L150.931 17.582C151.145 16.9847 151.523 16.504 152.065 16.14C152.615 15.7667 153.273 15.58 154.039 15.58ZM165.06 25.716C164.547 24.8667 164.146 23.8867 163.856 22.776C163.576 21.656 163.436 20.452 163.436 19.164C163.436 17.876 163.576 16.672 163.856 15.552C164.146 14.4227 164.547 13.4427 165.06 12.612H166.012C165.462 13.5733 165.056 14.5953 164.794 15.678C164.542 16.7513 164.416 17.9133 164.416 19.164C164.416 20.4147 164.542 21.5813 164.794 22.664C165.056 23.7373 165.462 24.7547 166.012 25.716H165.06ZM170.41 23.084C169.71 23.084 169.043 22.972 168.408 22.748C167.773 22.5147 167.269 22.2067 166.896 21.824L167.386 21.026C167.694 21.3527 168.114 21.6233 168.646 21.838C169.187 22.0527 169.771 22.16 170.396 22.16C171.227 22.16 171.857 21.978 172.286 21.614C172.725 21.2407 172.944 20.7553 172.944 20.158C172.944 19.738 172.841 19.3787 172.636 19.08C172.44 18.772 172.104 18.534 171.628 18.366C171.152 18.198 170.499 18.114 169.668 18.114H167.582L168.086 13.2H173.448V14.096H168.492L169.01 13.606L168.576 17.722L168.058 17.218H169.892C170.881 17.218 171.675 17.3393 172.272 17.582C172.869 17.8247 173.299 18.1653 173.56 18.604C173.831 19.0333 173.966 19.5373 173.966 20.116C173.966 20.6667 173.835 21.1707 173.574 21.628C173.313 22.076 172.921 22.4307 172.398 22.692C171.875 22.9533 171.213 23.084 170.41 23.084ZM181.542 23.07C180.935 23.07 180.361 22.986 179.82 22.818C179.278 22.6407 178.854 22.4213 178.546 22.16L178.994 21.376C179.292 21.6 179.675 21.796 180.142 21.964C180.608 22.1227 181.098 22.202 181.612 22.202C182.312 22.202 182.816 22.0947 183.124 21.88C183.432 21.656 183.586 21.362 183.586 20.998C183.586 20.7273 183.497 20.5173 183.32 20.368C183.152 20.2093 182.928 20.0927 182.648 20.018C182.368 19.934 182.055 19.864 181.71 19.808C181.364 19.752 181.019 19.6867 180.674 19.612C180.338 19.5373 180.03 19.43 179.75 19.29C179.47 19.1407 179.241 18.94 179.064 18.688C178.896 18.436 178.812 18.1 178.812 17.68C178.812 17.2787 178.924 16.9193 179.148 16.602C179.372 16.2847 179.698 16.0373 180.128 15.86C180.566 15.6733 181.098 15.58 181.724 15.58C182.2 15.58 182.676 15.6453 183.152 15.776C183.628 15.8973 184.02 16.0607 184.328 16.266L183.894 17.064C183.567 16.84 183.217 16.6813 182.844 16.588C182.47 16.4853 182.097 16.434 181.724 16.434C181.061 16.434 180.571 16.5507 180.254 16.784C179.946 17.008 179.792 17.2973 179.792 17.652C179.792 17.932 179.876 18.1513 180.044 18.31C180.221 18.4687 180.45 18.5947 180.73 18.688C181.019 18.772 181.332 18.842 181.668 18.898C182.013 18.954 182.354 19.024 182.69 19.108C183.035 19.1827 183.348 19.29 183.628 19.43C183.917 19.5607 184.146 19.752 184.314 20.004C184.491 20.2467 184.58 20.5687 184.58 20.97C184.58 21.3993 184.458 21.7727 184.216 22.09C183.982 22.398 183.637 22.6407 183.18 22.818C182.732 22.986 182.186 23.07 181.542 23.07ZM186.404 23V15.65H187.398V23H186.404ZM186.908 14.026C186.702 14.026 186.53 13.956 186.39 13.816C186.25 13.676 186.18 13.508 186.18 13.312C186.18 13.116 186.25 12.9527 186.39 12.822C186.53 12.682 186.702 12.612 186.908 12.612C187.113 12.612 187.286 12.6773 187.426 12.808C187.566 12.9387 187.636 13.102 187.636 13.298C187.636 13.5033 187.566 13.676 187.426 13.816C187.295 13.956 187.122 14.026 186.908 14.026ZM193.089 23.07C192.389 23.07 191.759 22.9113 191.199 22.594C190.649 22.2767 190.215 21.838 189.897 21.278C189.58 20.7087 189.421 20.0553 189.421 19.318C189.421 18.5713 189.58 17.918 189.897 17.358C190.215 16.798 190.649 16.364 191.199 16.056C191.759 15.7387 192.389 15.58 193.089 15.58C193.733 15.58 194.307 15.7247 194.811 16.014C195.325 16.3033 195.731 16.728 196.029 17.288C196.337 17.8387 196.491 18.5153 196.491 19.318C196.491 20.1113 196.342 20.788 196.043 21.348C195.745 21.908 195.339 22.3373 194.825 22.636C194.321 22.9253 193.743 23.07 193.089 23.07ZM193.159 22.188C193.682 22.188 194.149 22.0713 194.559 21.838C194.979 21.5953 195.306 21.2593 195.539 20.83C195.782 20.3913 195.903 19.8873 195.903 19.318C195.903 18.7393 195.782 18.2353 195.539 17.806C195.306 17.3767 194.979 17.0453 194.559 16.812C194.149 16.5693 193.682 16.448 193.159 16.448C192.646 16.448 192.184 16.5693 191.773 16.812C191.363 17.0453 191.036 17.3767 190.793 17.806C190.551 18.2353 190.429 18.7393 190.429 19.318C190.429 19.8873 190.551 20.3913 190.793 20.83C191.036 21.2593 191.363 21.5953 191.773 21.838C192.184 22.0713 192.646 22.188 193.159 22.188ZM195.931 23V20.788L196.029 19.304L195.889 17.82V12.612H196.883V23H195.931ZM202.774 23.07C202.008 23.07 201.336 22.9113 200.758 22.594C200.179 22.2673 199.726 21.824 199.4 21.264C199.073 20.6947 198.91 20.046 198.91 19.318C198.91 18.59 199.064 17.946 199.372 17.386C199.689 16.826 200.118 16.3873 200.66 16.07C201.21 15.7433 201.826 15.58 202.508 15.58C203.198 15.58 203.81 15.7387 204.342 16.056C204.883 16.364 205.308 16.8027 205.616 17.372C205.924 17.932 206.078 18.5807 206.078 19.318C206.078 19.3647 206.073 19.416 206.064 19.472C206.064 19.5187 206.064 19.57 206.064 19.626H199.666V18.884H205.532L205.14 19.178C205.14 18.646 205.023 18.1747 204.79 17.764C204.566 17.344 204.258 17.0173 203.866 16.784C203.474 16.5507 203.021 16.434 202.508 16.434C202.004 16.434 201.551 16.5507 201.15 16.784C200.748 17.0173 200.436 17.344 200.212 17.764C199.988 18.184 199.876 18.6647 199.876 19.206V19.36C199.876 19.92 199.997 20.4147 200.24 20.844C200.492 21.264 200.837 21.5953 201.276 21.838C201.724 22.0713 202.232 22.188 202.802 22.188C203.25 22.188 203.665 22.1087 204.048 21.95C204.44 21.7913 204.776 21.5487 205.056 21.222L205.616 21.866C205.289 22.258 204.878 22.5567 204.384 22.762C203.898 22.9673 203.362 23.07 202.774 23.07ZM210.407 23L214.887 13.2H215.909L220.389 23H219.297L215.181 13.802H215.601L211.485 23H210.407ZM212.171 20.382L212.479 19.542H218.177L218.485 20.382H212.171ZM223.321 23L220.059 15.65H221.095L224.091 22.468H223.601L226.639 15.65H227.619L224.343 23H223.321ZM233.406 23V21.376L233.364 21.11V18.394C233.364 17.7687 233.187 17.288 232.832 16.952C232.487 16.616 231.969 16.448 231.278 16.448C230.802 16.448 230.349 16.5273 229.92 16.686C229.491 16.8447 229.127 17.0547 228.828 17.316L228.38 16.574C228.753 16.2567 229.201 16.014 229.724 15.846C230.247 15.6687 230.797 15.58 231.376 15.58C232.328 15.58 233.061 15.818 233.574 16.294C234.097 16.7607 234.358 17.4747 234.358 18.436V23H233.406ZM230.872 23.07C230.321 23.07 229.841 22.9813 229.43 22.804C229.029 22.6173 228.721 22.3653 228.506 22.048C228.291 21.7213 228.184 21.348 228.184 20.928C228.184 20.5453 228.273 20.2 228.45 19.892C228.637 19.5747 228.935 19.3227 229.346 19.136C229.766 18.94 230.326 18.842 231.026 18.842H233.56V19.584H231.054C230.345 19.584 229.85 19.71 229.57 19.962C229.299 20.214 229.164 20.5267 229.164 20.9C229.164 21.32 229.327 21.656 229.654 21.908C229.981 22.16 230.438 22.286 231.026 22.286C231.586 22.286 232.067 22.16 232.468 21.908C232.879 21.6467 233.177 21.2733 233.364 20.788L233.588 21.474C233.401 21.9593 233.075 22.3467 232.608 22.636C232.151 22.9253 231.572 23.07 230.872 23.07ZM237.058 23V15.65H238.052V23H237.058ZM237.562 14.026C237.357 14.026 237.184 13.956 237.044 13.816C236.904 13.676 236.834 13.508 236.834 13.312C236.834 13.116 236.904 12.9527 237.044 12.822C237.184 12.682 237.357 12.612 237.562 12.612C237.767 12.612 237.94 12.6773 238.08 12.808C238.22 12.9387 238.29 13.102 238.29 13.298C238.29 13.5033 238.22 13.676 238.08 13.816C237.949 13.956 237.777 14.026 237.562 14.026ZM240.818 23V12.612H241.812V23H240.818ZM249.183 23V21.376L249.141 21.11V18.394C249.141 17.7687 248.964 17.288 248.609 16.952C248.264 16.616 247.746 16.448 247.055 16.448C246.579 16.448 246.127 16.5273 245.697 16.686C245.268 16.8447 244.904 17.0547 244.605 17.316L244.157 16.574C244.531 16.2567 244.979 16.014 245.501 15.846C246.024 15.6687 246.575 15.58 247.153 15.58C248.105 15.58 248.838 15.818 249.351 16.294C249.874 16.7607 250.135 17.4747 250.135 18.436V23H249.183ZM246.649 23.07C246.099 23.07 245.618 22.9813 245.207 22.804C244.806 22.6173 244.498 22.3653 244.283 22.048C244.069 21.7213 243.961 21.348 243.961 20.928C243.961 20.5453 244.05 20.2 244.227 19.892C244.414 19.5747 244.713 19.3227 245.123 19.136C245.543 18.94 246.103 18.842 246.803 18.842H249.337V19.584H246.831C246.122 19.584 245.627 19.71 245.347 19.962C245.077 20.214 244.941 20.5267 244.941 20.9C244.941 21.32 245.105 21.656 245.431 21.908C245.758 22.16 246.215 22.286 246.803 22.286C247.363 22.286 247.844 22.16 248.245 21.908C248.656 21.6467 248.955 21.2733 249.141 20.788L249.365 21.474C249.179 21.9593 248.852 22.3467 248.385 22.636C247.928 22.9253 247.349 23.07 246.649 23.07ZM256.629 23.07C255.985 23.07 255.407 22.9253 254.893 22.636C254.38 22.3373 253.974 21.908 253.675 21.348C253.377 20.788 253.227 20.1113 253.227 19.318C253.227 18.5153 253.377 17.8387 253.675 17.288C253.983 16.728 254.394 16.3033 254.907 16.014C255.421 15.7247 255.995 15.58 256.629 15.58C257.329 15.58 257.955 15.7387 258.505 16.056C259.065 16.364 259.504 16.798 259.821 17.358C260.139 17.918 260.297 18.5713 260.297 19.318C260.297 20.0553 260.139 20.7087 259.821 21.278C259.504 21.838 259.065 22.2767 258.505 22.594C257.955 22.9113 257.329 23.07 256.629 23.07ZM252.835 23V12.612H253.829V17.82L253.689 19.304L253.787 20.788V23H252.835ZM256.559 22.188C257.082 22.188 257.549 22.0713 257.959 21.838C258.37 21.5953 258.697 21.2593 258.939 20.83C259.182 20.3913 259.303 19.8873 259.303 19.318C259.303 18.7393 259.182 18.2353 258.939 17.806C258.697 17.3767 258.37 17.0453 257.959 16.812C257.549 16.5693 257.082 16.448 256.559 16.448C256.037 16.448 255.565 16.5693 255.145 16.812C254.735 17.0453 254.408 17.3767 254.165 17.806C253.932 18.2353 253.815 18.7393 253.815 19.318C253.815 19.8873 253.932 20.3913 254.165 20.83C254.408 21.2593 254.735 21.5953 255.145 21.838C255.565 22.0713 256.037 22.188 256.559 22.188ZM262.324 23V12.612H263.318V23H262.324ZM269.205 23.07C268.44 23.07 267.768 22.9113 267.189 22.594C266.611 22.2673 266.158 21.824 265.831 21.264C265.505 20.6947 265.341 20.046 265.341 19.318C265.341 18.59 265.495 17.946 265.803 17.386C266.121 16.826 266.55 16.3873 267.091 16.07C267.642 15.7433 268.258 15.58 268.939 15.58C269.63 15.58 270.241 15.7387 270.773 16.056C271.315 16.364 271.739 16.8027 272.047 17.372C272.355 17.932 272.509 18.5807 272.509 19.318C272.509 19.3647 272.505 19.416 272.495 19.472C272.495 19.5187 272.495 19.57 272.495 19.626H266.097V18.884H271.963L271.571 19.178C271.571 18.646 271.455 18.1747 271.221 17.764C270.997 17.344 270.689 17.0173 270.297 16.784C269.905 16.5507 269.453 16.434 268.939 16.434C268.435 16.434 267.983 16.5507 267.581 16.784C267.18 17.0173 266.867 17.344 266.643 17.764C266.419 18.184 266.307 18.6647 266.307 19.206V19.36C266.307 19.92 266.429 20.4147 266.671 20.844C266.923 21.264 267.269 21.5953 267.707 21.838C268.155 22.0713 268.664 22.188 269.233 22.188C269.681 22.188 270.097 22.1087 270.479 21.95C270.871 21.7913 271.207 21.5487 271.487 21.222L272.047 21.866C271.721 22.258 271.31 22.5567 270.815 22.762C270.33 22.9673 269.793 23.07 269.205 23.07ZM274.658 25.716H273.706C274.266 24.7547 274.672 23.7373 274.924 22.664C275.186 21.5813 275.316 20.4147 275.316 19.164C275.316 17.9133 275.186 16.7513 274.924 15.678C274.672 14.5953 274.266 13.5733 273.706 12.612H274.658C275.19 13.4427 275.596 14.4227 275.876 15.552C276.156 16.672 276.296 17.876 276.296 19.164C276.296 20.452 276.156 21.656 275.876 22.776C275.596 23.8867 275.19 24.8667 274.658 25.716Z" fill="black"/>
</svg>
