<svg width="109" height="39" viewBox="0 0 109 39" fill="none" xmlns="http://www.w3.org/2000/svg">
<circle cx="19.1824" cy="19.1824" r="19.1824" fill="#A51A06"/>
<path d="M17.3053 10.6902C17.6215 10.4492 18.1136 10.1772 18.3977 10.0842C18.7242 9.97746 19.2325 9.92925 19.7775 9.95336C20.4215 9.9809 20.786 10.0647 21.2149 10.2828C21.5311 10.4434 22.0198 10.8256 22.3015 11.1332C22.5833 11.4408 22.9156 11.924 23.0398 12.2087C23.195 12.5622 23.2686 12.9983 23.2755 13.5882C23.2836 14.3343 23.2353 14.5535 22.9225 15.1951C22.7224 15.6036 22.3602 16.1155 22.1176 16.3325C21.8738 16.5482 21.4161 16.8466 21.0999 16.9947C20.6698 17.1944 20.3065 17.2656 19.6625 17.2759C18.9416 17.2862 18.6794 17.2334 18.0653 16.958C17.5985 16.7479 17.1615 16.4392 16.8637 16.1109C16.6073 15.8275 16.291 15.3615 16.1634 15.078C15.9898 14.6969 15.9288 14.3182 15.9265 13.6318C15.9254 12.794 15.9656 12.6241 16.3278 11.9148C16.6188 11.3444 16.889 11.007 17.3053 10.6902Z" fill="white"/>
<path d="M7.1034 10.9404C7.0919 10.8428 7.15515 10.7005 7.24369 10.6248C7.35063 10.533 7.91063 10.4848 8.90528 10.4825C10.1725 10.4779 10.4323 10.5066 10.5784 10.6707C10.6738 10.7763 10.8843 11.3605 11.3442 13.0695L12.9449 13.1268C13.8257 13.159 14.6099 13.2232 14.6892 13.2703C14.7686 13.3174 14.8353 13.4471 14.8376 13.5572C14.841 13.6674 14.7766 13.8201 14.6938 13.8958C14.5996 13.983 14.0177 14.0462 11.6524 14.1024L13.6256 21.5076L25.182 21.5053L25.297 21.0749C25.3603 20.8385 25.8685 19.1731 27.4439 14.1024L26.0088 14.045C24.8072 13.9968 24.553 13.9555 24.4472 13.7868C24.3541 13.6399 24.3541 13.532 24.4472 13.3851C24.5553 13.2141 24.7922 13.1796 26.0571 13.1509C26.8724 13.1326 27.6554 13.1463 27.798 13.1796C27.9406 13.2141 28.135 13.3185 28.2292 13.4138C28.3235 13.509 28.4017 13.7019 28.4006 13.8442C28.4006 13.9865 27.8521 15.8848 27.1828 18.0621C26.2779 21.0049 25.9019 22.0746 25.7179 22.2272C25.4856 22.4189 25.082 22.4327 19.6913 22.4281C15.1423 22.4246 13.9131 22.4545 13.9142 22.5669C13.9142 22.6461 13.966 22.9044 14.143 23.5712L19.4487 23.5999C24.3587 23.6263 24.7646 23.6435 24.8819 23.8294C24.975 23.9764 24.975 24.0842 24.8819 24.2312C24.7635 24.4171 24.3461 24.4343 19.2474 24.4653C14.0821 24.4963 13.7279 24.486 13.5451 24.2931C13.4267 24.168 12.6815 21.5971 9.94594 11.4018L8.68105 11.4052C7.80944 11.4075 7.37133 11.3639 7.27014 11.2641C7.19079 11.1837 7.1149 11.038 7.1034 10.9404Z" fill="white"/>
<path d="M14.7801 26.0101C14.8721 25.8678 15.1159 25.6486 15.3217 25.5224C15.5275 25.3973 15.8771 25.294 16.0979 25.294C16.3186 25.294 16.6682 25.3973 16.874 25.5224C17.0799 25.6486 17.3248 25.8678 17.4191 26.0101C17.5134 26.1525 17.6238 26.4486 17.6629 26.6701C17.7146 26.9593 17.6663 27.2084 17.4915 27.5596C17.3409 27.8591 17.104 28.1185 16.874 28.2322C16.6682 28.3332 16.3186 28.4169 16.0979 28.4192C15.8771 28.4204 15.5275 28.3377 15.3217 28.2344C15.0676 28.107 14.8698 27.8729 14.7053 27.5022C14.5398 27.1303 14.4857 26.8468 14.5363 26.6127C14.5777 26.4233 14.6869 26.1525 14.7801 26.0101Z" fill="white"/>
<path d="M20.6974 26.1249C20.8239 25.9195 21.0953 25.6486 21.3011 25.5224C21.507 25.3973 21.8427 25.294 22.0486 25.2928C22.2544 25.2928 22.5384 25.3513 22.681 25.4214C22.8236 25.4925 23.0582 25.6612 23.2042 25.7944C23.3491 25.9287 23.5204 26.2454 23.586 26.4979C23.6791 26.8572 23.6653 27.0626 23.5227 27.4448C23.4077 27.757 23.2077 28.0152 22.9685 28.1621C22.7626 28.2895 22.3878 28.4009 22.1348 28.4112C21.8623 28.4227 21.5162 28.34 21.285 28.2103C21.0712 28.0887 20.7998 27.8098 20.6813 27.5883C20.5629 27.3668 20.4675 27.0316 20.4675 26.8422C20.4675 26.6529 20.5721 26.3304 20.6974 26.1249Z" fill="white"/>
<path d="M17.4157 11.6424C17.6077 11.4267 18.024 11.1305 18.3402 10.9836C18.7369 10.7989 19.1279 10.7151 19.6051 10.7139C20.134 10.7116 20.4399 10.7851 20.9194 11.0284C21.2632 11.2029 21.6898 11.5265 21.8692 11.7469C22.0486 11.9672 22.2786 12.4068 22.3821 12.7225C22.5016 13.0909 22.5476 13.5018 22.5097 13.8702C22.4775 14.1858 22.3614 14.6254 22.251 14.8458C22.1417 15.0661 21.8888 15.4196 21.691 15.6308C21.492 15.8408 21.1229 16.122 20.87 16.2552C20.5296 16.4331 20.2007 16.4962 19.6051 16.4962C19.0152 16.4962 18.6771 16.4319 18.3402 16.2586C18.0872 16.1278 17.7112 15.8466 17.5031 15.6343C17.2961 15.4219 17.0408 15.0661 16.9362 14.8458C16.8304 14.6254 16.7234 14.1342 16.6981 13.7554C16.6648 13.2699 16.7131 12.9141 16.858 12.5503C16.9718 12.2657 17.2225 11.8571 17.4157 11.6424Z" fill="#A51A06"/>
<path d="M15.293 26.8396C15.293 26.6812 15.3965 26.4493 15.5229 26.3231C15.6506 26.1957 15.9059 26.0935 16.0979 26.0935C16.2899 26.0935 16.5452 26.1957 16.6728 26.3231C16.8005 26.4505 16.9028 26.7053 16.9028 26.897C16.9028 27.1391 16.8097 27.3101 16.5866 27.4743C16.413 27.6028 16.1795 27.7061 16.0691 27.7038C15.9588 27.7027 15.738 27.5707 15.5804 27.4134C15.4218 27.255 15.293 26.9968 15.293 26.8396Z" fill="#A51A06"/>
<path d="M21.2724 26.897C21.2724 26.7053 21.3748 26.4505 21.5024 26.3231C21.63 26.1957 21.8853 26.0935 22.0773 26.0935C22.32 26.0935 22.4913 26.1865 22.6557 26.4092C22.7845 26.5825 22.888 26.8155 22.8857 26.9256C22.8846 27.0358 22.7558 27.255 22.6005 27.4134C22.4453 27.5707 22.2245 27.7027 22.1118 27.7038C21.998 27.7061 21.7623 27.6028 21.5886 27.4743C21.3656 27.3101 21.2724 27.1391 21.2724 26.897Z" fill="#A51A06"/>
<path d="M20.0078 13.1629C20.4183 12.6751 20.8266 12.2057 20.9139 12.1196C21.0013 12.0335 21.183 11.9796 21.3164 11.9991C21.4555 12.0186 21.5763 12.1322 21.597 12.2631C21.6211 12.4169 21.2601 12.9402 20.5046 13.8458C19.8836 14.5895 19.3363 15.1967 19.2891 15.1944C19.242 15.1921 18.8395 14.8673 18.3957 14.4725C17.754 13.902 17.5954 13.6966 17.6195 13.4694C17.639 13.2857 17.7322 13.1709 17.8805 13.1468C18.0197 13.125 18.3267 13.2949 18.6567 13.5761C18.9568 13.8332 19.2156 14.0444 19.2316 14.0467C19.2477 14.049 19.5973 13.6518 20.0078 13.1629Z" fill="white"/>
<path d="M47.4365 14.7617V6.29108H49.3969V14.7617H47.4365ZM51.4071 14.7617V6.29108H53.0286L56.6347 12.2689H55.7756L59.3211 6.29108H60.9305L60.9547 14.7617H59.1154L59.1033 9.11059H59.4421L56.6105 13.8663H55.7271L52.835 9.11059H53.2465V14.7617H51.4071ZM62.9644 14.7617V6.29108H64.9248V13.1644H69.1722V14.7617H62.9644ZM73.6946 14.7617V6.29108H75.3161L78.9221 12.2689H78.063L81.6086 6.29108H83.218L83.2422 14.7617H81.4028L81.3907 9.11059H81.7296L78.8979 13.8663H78.0146L75.1225 9.11059H75.5339V14.7617H73.6946ZM89.3662 14.9069C88.6966 14.9069 88.0754 14.798 87.5026 14.5802C86.9379 14.3624 86.4458 14.0558 86.0263 13.6605C85.6149 13.2652 85.2922 12.8014 85.0583 12.2689C84.8324 11.7365 84.7194 11.1556 84.7194 10.5264C84.7194 9.89715 84.8324 9.31631 85.0583 8.78387C85.2922 8.25142 85.6189 7.78756 86.0384 7.39226C86.4579 6.99696 86.95 6.69041 87.5147 6.47259C88.0795 6.25477 88.6926 6.14587 89.3541 6.14587C90.0237 6.14587 90.6368 6.25477 91.1934 6.47259C91.7581 6.69041 92.2462 6.99696 92.6576 7.39226C93.0771 7.78756 93.4039 8.25142 93.6378 8.78387C93.8718 9.30824 93.9887 9.88908 93.9887 10.5264C93.9887 11.1556 93.8718 11.7405 93.6378 12.281C93.4039 12.8135 93.0771 13.2773 92.6576 13.6726C92.2462 14.0599 91.7581 14.3624 91.1934 14.5802C90.6368 14.798 90.0277 14.9069 89.3662 14.9069ZM89.3541 13.237C89.7332 13.237 90.0801 13.1725 90.3948 13.0434C90.7175 12.9143 90.9998 12.7288 91.2418 12.4867C91.4838 12.2447 91.6694 11.9583 91.7985 11.6276C91.9356 11.2968 92.0042 10.9298 92.0042 10.5264C92.0042 10.123 91.9356 9.75597 91.7985 9.42521C91.6694 9.09446 91.4838 8.80807 91.2418 8.56605C91.0079 8.32403 90.7296 8.13848 90.4069 8.00941C90.0842 7.88033 89.7332 7.81579 89.3541 7.81579C88.9749 7.81579 88.624 7.88033 88.3013 8.00941C87.9867 8.13848 87.7084 8.32403 87.4663 8.56605C87.2243 8.80807 87.0347 9.09446 86.8976 9.42521C86.7685 9.75597 86.704 10.123 86.704 10.5264C86.704 10.9217 86.7685 11.2888 86.8976 11.6276C87.0347 11.9583 87.2203 12.2447 87.4542 12.4867C87.6963 12.7288 87.9786 12.9143 88.3013 13.0434C88.624 13.1725 88.9749 13.237 89.3541 13.237ZM99.5642 14.9069C98.9027 14.9069 98.2856 14.798 97.7128 14.5802C97.1481 14.3624 96.656 14.0558 96.2365 13.6605C95.825 13.2652 95.5024 12.8014 95.2684 12.2689C95.0425 11.7365 94.9296 11.1556 94.9296 10.5264C94.9296 9.89715 95.0425 9.31631 95.2684 8.78387C95.5024 8.25142 95.8291 7.78756 96.2486 7.39226C96.6681 6.99696 97.1602 6.69041 97.7249 6.47259C98.2896 6.25477 98.9027 6.14587 99.5642 6.14587C100.234 6.14587 100.847 6.25477 101.404 6.47259C101.968 6.69041 102.456 6.99696 102.868 7.39226C103.287 7.77949 103.614 8.23932 103.848 8.77176C104.082 9.3042 104.199 9.88908 104.199 10.5264C104.199 11.1556 104.082 11.7405 103.848 12.281C103.614 12.8135 103.287 13.2773 102.868 13.6726C102.456 14.0599 101.968 14.3624 101.404 14.5802C100.847 14.798 100.234 14.9069 99.5642 14.9069ZM102.335 16.71C102.005 16.71 101.69 16.6737 101.391 16.6011C101.101 16.5285 100.811 16.4115 100.52 16.2501C100.238 16.0888 99.9394 15.871 99.6247 15.5967C99.3182 15.3224 98.9834 14.9836 98.6204 14.5802L100.678 14.0599C100.895 14.3584 101.097 14.5963 101.283 14.7738C101.468 14.9513 101.646 15.0763 101.815 15.1489C101.992 15.2216 102.178 15.2579 102.372 15.2579C102.888 15.2579 103.348 15.0481 103.751 14.6286L104.622 15.6693C104.05 16.3631 103.287 16.71 102.335 16.71ZM99.5642 13.237C99.9434 13.237 100.29 13.1725 100.605 13.0434C100.928 12.9143 101.21 12.7288 101.452 12.4867C101.694 12.2447 101.88 11.9583 102.009 11.6276C102.146 11.2888 102.214 10.9217 102.214 10.5264C102.214 10.123 102.146 9.75597 102.009 9.42521C101.88 9.09446 101.694 8.80807 101.452 8.56605C101.21 8.32403 100.928 8.13848 100.605 8.00941C100.29 7.88033 99.9434 7.81579 99.5642 7.81579C99.1851 7.81579 98.8341 7.88033 98.5115 8.00941C98.1888 8.13848 97.9064 8.32403 97.6644 8.56605C97.4304 8.80807 97.2449 9.09446 97.1077 9.42521C96.9787 9.75597 96.9141 10.123 96.9141 10.5264C96.9141 10.9217 96.9787 11.2888 97.1077 11.6276C97.2449 11.9583 97.4304 12.2447 97.6644 12.4867C97.9064 12.7288 98.1888 12.9143 98.5115 13.0434C98.8341 13.1725 99.1851 13.237 99.5642 13.237Z" fill="black"/>
<path d="M49.7081 32.6755C49.1081 32.6755 48.5361 32.5795 47.9921 32.3875C47.4481 32.1875 47.0161 31.9235 46.6961 31.5955L47.1161 30.9115C47.3801 31.1915 47.7401 31.4235 48.1961 31.6075C48.6601 31.7915 49.1601 31.8835 49.6961 31.8835C50.4081 31.8835 50.9481 31.7275 51.3161 31.4155C51.6921 31.0955 51.8801 30.6795 51.8801 30.1675C51.8801 29.8075 51.7921 29.4995 51.6161 29.2435C51.4481 28.9795 51.1601 28.7755 50.7521 28.6315C50.3441 28.4875 49.7841 28.4155 49.0721 28.4155H47.2841L47.7161 24.2035H52.3121V24.9715H48.0641L48.5081 24.5515L48.1361 28.0795L47.6921 27.6475H49.2641C50.1121 27.6475 50.7921 27.7515 51.3041 27.9595C51.8161 28.1675 52.1841 28.4595 52.4081 28.8355C52.6401 29.2035 52.7561 29.6355 52.7561 30.1315C52.7561 30.6035 52.6441 31.0355 52.4201 31.4275C52.1961 31.8115 51.8601 32.1155 51.4121 32.3395C50.9641 32.5635 50.3961 32.6755 49.7081 32.6755ZM57.201 32.6755C56.553 32.6755 55.977 32.5075 55.473 32.1715C54.969 31.8275 54.573 31.3395 54.285 30.7075C53.997 30.0675 53.853 29.2995 53.853 28.4035C53.853 27.5075 53.997 26.7435 54.285 26.1115C54.573 25.4715 54.969 24.9835 55.473 24.6475C55.977 24.3035 56.553 24.1315 57.201 24.1315C57.849 24.1315 58.425 24.3035 58.929 24.6475C59.433 24.9835 59.829 25.4715 60.117 26.1115C60.413 26.7435 60.561 27.5075 60.561 28.4035C60.561 29.2995 60.413 30.0675 60.117 30.7075C59.829 31.3395 59.433 31.8275 58.929 32.1715C58.425 32.5075 57.849 32.6755 57.201 32.6755ZM57.201 31.8835C57.697 31.8835 58.129 31.7515 58.497 31.4875C58.865 31.2155 59.153 30.8235 59.361 30.3115C59.569 29.7915 59.673 29.1555 59.673 28.4035C59.673 27.6515 59.569 27.0195 59.361 26.5075C59.153 25.9875 58.865 25.5955 58.497 25.3315C58.129 25.0595 57.697 24.9235 57.201 24.9235C56.721 24.9235 56.293 25.0595 55.917 25.3315C55.541 25.5955 55.249 25.9875 55.041 26.5075C54.833 27.0195 54.729 27.6515 54.729 28.4035C54.729 29.1555 54.833 29.7915 55.041 30.3115C55.249 30.8235 55.541 31.2155 55.917 31.4875C56.293 31.7515 56.721 31.8835 57.201 31.8835ZM65.1463 32.6755C64.4983 32.6755 63.9223 32.5075 63.4183 32.1715C62.9143 31.8275 62.5183 31.3395 62.2303 30.7075C61.9423 30.0675 61.7983 29.2995 61.7983 28.4035C61.7983 27.5075 61.9423 26.7435 62.2303 26.1115C62.5183 25.4715 62.9143 24.9835 63.4183 24.6475C63.9223 24.3035 64.4983 24.1315 65.1463 24.1315C65.7943 24.1315 66.3703 24.3035 66.8743 24.6475C67.3783 24.9835 67.7743 25.4715 68.0623 26.1115C68.3583 26.7435 68.5063 27.5075 68.5063 28.4035C68.5063 29.2995 68.3583 30.0675 68.0623 30.7075C67.7743 31.3395 67.3783 31.8275 66.8743 32.1715C66.3703 32.5075 65.7943 32.6755 65.1463 32.6755ZM65.1463 31.8835C65.6423 31.8835 66.0743 31.7515 66.4423 31.4875C66.8103 31.2155 67.0983 30.8235 67.3063 30.3115C67.5143 29.7915 67.6183 29.1555 67.6183 28.4035C67.6183 27.6515 67.5143 27.0195 67.3063 26.5075C67.0983 25.9875 66.8103 25.5955 66.4423 25.3315C66.0743 25.0595 65.6423 24.9235 65.1463 24.9235C64.6663 24.9235 64.2383 25.0595 63.8623 25.3315C63.4863 25.5955 63.1943 25.9875 62.9863 26.5075C62.7783 27.0195 62.6743 27.6515 62.6743 28.4035C62.6743 29.1555 62.7783 29.7915 62.9863 30.3115C63.1943 30.8235 63.4863 31.2155 63.8623 31.4875C64.2383 31.7515 64.6663 31.8835 65.1463 31.8835ZM73.0916 32.6755C72.4436 32.6755 71.8676 32.5075 71.3636 32.1715C70.8596 31.8275 70.4636 31.3395 70.1756 30.7075C69.8876 30.0675 69.7436 29.2995 69.7436 28.4035C69.7436 27.5075 69.8876 26.7435 70.1756 26.1115C70.4636 25.4715 70.8596 24.9835 71.3636 24.6475C71.8676 24.3035 72.4436 24.1315 73.0916 24.1315C73.7396 24.1315 74.3156 24.3035 74.8196 24.6475C75.3236 24.9835 75.7196 25.4715 76.0076 26.1115C76.3036 26.7435 76.4516 27.5075 76.4516 28.4035C76.4516 29.2995 76.3036 30.0675 76.0076 30.7075C75.7196 31.3395 75.3236 31.8275 74.8196 32.1715C74.3156 32.5075 73.7396 32.6755 73.0916 32.6755ZM73.0916 31.8835C73.5876 31.8835 74.0196 31.7515 74.3876 31.4875C74.7556 31.2155 75.0436 30.8235 75.2516 30.3115C75.4596 29.7915 75.5636 29.1555 75.5636 28.4035C75.5636 27.6515 75.4596 27.0195 75.2516 26.5075C75.0436 25.9875 74.7556 25.5955 74.3876 25.3315C74.0196 25.0595 73.5876 24.9235 73.0916 24.9235C72.6116 24.9235 72.1836 25.0595 71.8076 25.3315C71.4316 25.5955 71.1396 25.9875 70.9316 26.5075C70.7236 27.0195 70.6196 27.6515 70.6196 28.4035C70.6196 29.1555 70.7236 29.7915 70.9316 30.3115C71.1396 30.8235 71.4316 31.2155 71.8076 31.4875C72.1836 31.7515 72.6116 31.8835 73.0916 31.8835ZM81.5736 32.6035V24.2035H84.7176C85.4296 24.2035 86.0416 24.3195 86.5536 24.5515C87.0656 24.7755 87.4576 25.1035 87.7296 25.5355C88.0096 25.9595 88.1496 26.4755 88.1496 27.0835C88.1496 27.6755 88.0096 28.1875 87.7296 28.6195C87.4576 29.0435 87.0656 29.3715 86.5536 29.6035C86.0416 29.8355 85.4296 29.9515 84.7176 29.9515H82.0656L82.4616 29.5315V32.6035H81.5736ZM82.4616 29.6035L82.0656 29.1715H84.6936C85.5336 29.1715 86.1696 28.9915 86.6016 28.6315C87.0416 28.2635 87.2616 27.7475 87.2616 27.0835C87.2616 26.4115 87.0416 25.8915 86.6016 25.5235C86.1696 25.1555 85.5336 24.9715 84.6936 24.9715H82.0656L82.4616 24.5515V29.6035ZM92.4705 32.6635C91.8465 32.6635 91.2865 32.5275 90.7905 32.2555C90.3025 31.9755 89.9185 31.5955 89.6385 31.1155C89.3585 30.6275 89.2185 30.0715 89.2185 29.4475C89.2185 28.8155 89.3585 28.2595 89.6385 27.7795C89.9185 27.2995 90.3025 26.9235 90.7905 26.6515C91.2865 26.3795 91.8465 26.2435 92.4705 26.2435C93.0065 26.2435 93.4905 26.3475 93.9225 26.5555C94.3545 26.7635 94.6945 27.0755 94.9425 27.4915L94.3065 27.9235C94.0905 27.6035 93.8225 27.3675 93.5025 27.2155C93.1825 27.0635 92.8345 26.9875 92.4585 26.9875C92.0105 26.9875 91.6065 27.0915 91.2465 27.2995C90.8865 27.4995 90.6025 27.7835 90.3945 28.1515C90.1865 28.5195 90.0825 28.9515 90.0825 29.4475C90.0825 29.9435 90.1865 30.3755 90.3945 30.7435C90.6025 31.1115 90.8865 31.3995 91.2465 31.6075C91.6065 31.8075 92.0105 31.9075 92.4585 31.9075C92.8345 31.9075 93.1825 31.8315 93.5025 31.6795C93.8225 31.5275 94.0905 31.2955 94.3065 30.9835L94.9425 31.4155C94.6945 31.8235 94.3545 32.1355 93.9225 32.3515C93.4905 32.5595 93.0065 32.6635 92.4705 32.6635ZM98.3082 32.6635C97.7882 32.6635 97.2962 32.5915 96.8322 32.4475C96.3682 32.2955 96.0042 32.1075 95.7402 31.8835L96.1242 31.2115C96.3802 31.4035 96.7082 31.5715 97.1082 31.7155C97.5082 31.8515 97.9282 31.9195 98.3682 31.9195C98.9682 31.9195 99.4002 31.8275 99.6642 31.6435C99.9282 31.4515 100.06 31.1995 100.06 30.8875C100.06 30.6555 99.9842 30.4755 99.8322 30.3475C99.6882 30.2115 99.4962 30.1115 99.2562 30.0475C99.0162 29.9755 98.7482 29.9155 98.4522 29.8675C98.1562 29.8195 97.8602 29.7635 97.5642 29.6995C97.2762 29.6355 97.0122 29.5435 96.7722 29.4235C96.5322 29.2955 96.3362 29.1235 96.1842 28.9075C96.0402 28.6915 95.9682 28.4035 95.9682 28.0435C95.9682 27.6995 96.0642 27.3915 96.2562 27.1195C96.4482 26.8475 96.7282 26.6355 97.0962 26.4835C97.4722 26.3235 97.9282 26.2435 98.4642 26.2435C98.8722 26.2435 99.2802 26.2995 99.6882 26.4115C100.096 26.5155 100.432 26.6555 100.696 26.8315L100.324 27.5155C100.044 27.3235 99.7442 27.1875 99.4242 27.1075C99.1042 27.0195 98.7842 26.9755 98.4642 26.9755C97.8962 26.9755 97.4762 27.0755 97.2042 27.2755C96.9402 27.4675 96.8082 27.7155 96.8082 28.0195C96.8082 28.2595 96.8802 28.4475 97.0242 28.5835C97.1762 28.7195 97.3722 28.8275 97.6122 28.9075C97.8602 28.9795 98.1282 29.0395 98.4162 29.0875C98.7122 29.1355 99.0042 29.1955 99.2922 29.2675C99.5882 29.3315 99.8562 29.4235 100.096 29.5435C100.344 29.6555 100.54 29.8195 100.684 30.0355C100.836 30.2435 100.912 30.5195 100.912 30.8635C100.912 31.2315 100.808 31.5515 100.6 31.8235C100.4 32.0875 100.104 32.2955 99.7122 32.4475C99.3282 32.5915 98.8602 32.6635 98.3082 32.6635Z" fill="black"/>
</svg>
