<svg width="137" height="39" viewBox="0 0 137 39" fill="none" xmlns="http://www.w3.org/2000/svg">
<circle cx="19.1824" cy="19.1824" r="19.1824" fill="#A51A06"/>
<path d="M24.6654 8.66087C24.6859 8.63318 24.7312 8.5911 24.7662 8.56755C24.8144 8.535 24.8554 8.52421 24.9335 8.5235C25.0147 8.5226 25.0512 8.53195 25.1043 8.56719C25.1413 8.59164 25.19 8.63821 25.2125 8.67058C25.235 8.70277 25.2578 8.76156 25.2636 8.80112C25.2701 8.84715 25.2312 9.1478 25.1552 9.63724C25.0901 10.0576 25.0368 10.4196 25.0368 10.4419C25.0368 10.4642 25.043 10.4823 25.0503 10.4825C25.0577 10.4825 25.2458 10.503 25.4684 10.5278C25.6908 10.5528 25.9215 10.582 25.9808 10.5926C26.0402 10.603 26.1373 10.6294 26.1966 10.651C26.256 10.6726 26.357 10.7193 26.4214 10.7549C26.4856 10.7905 26.5859 10.8632 26.6442 10.9162C26.7024 10.9693 26.785 11.0613 26.8272 11.1207C26.8696 11.18 26.9284 11.2812 26.9578 11.3454C26.9872 11.4098 27.0239 11.5109 27.0392 11.5702C27.0547 11.6295 27.0928 11.9046 27.1241 12.1816C27.1552 12.4585 27.182 12.6872 27.1832 12.6897C27.1845 12.6924 27.6022 12.6647 29.0376 12.5622L29.1264 12.6057C29.1784 12.6311 29.2325 12.6751 29.2568 12.712C29.2796 12.7467 29.3034 12.8154 29.3097 12.8648C29.3183 12.933 29.3127 12.9742 29.2863 13.0356C29.2671 13.0802 29.2235 13.1387 29.1896 13.1657C29.1491 13.1975 29.0899 13.2209 29.0196 13.2327C28.9603 13.2426 28.673 13.2672 28.3813 13.2872C28.0897 13.3072 27.7194 13.3336 27.2663 13.3683L27.2665 13.4222C27.2667 13.4519 27.3839 14.5401 27.527 15.8407L27.7973 18.2951C27.8029 18.3445 27.7991 18.4458 27.7888 18.5199C27.7786 18.5941 27.7496 18.7155 27.7246 18.7896C27.6995 18.8638 27.6459 18.9811 27.6054 19.0503C27.5418 19.1593 26.8824 19.8256 22.6837 24.0244C18.4389 28.2693 17.8198 28.8818 17.7096 28.9452C17.6404 28.985 17.519 29.0398 17.4399 29.0672C17.3216 29.1078 17.2559 29.118 17.0713 29.1245C16.8988 29.1304 16.8172 29.1252 16.7206 29.1017C16.6514 29.0846 16.5381 29.045 16.4689 29.0134C16.3997 28.9817 16.3026 28.9291 16.2531 28.8962C16.2037 28.8632 14.526 27.2007 12.5251 25.202C10.5242 23.203 8.85214 21.523 8.80953 21.4687C8.76691 21.4144 8.7029 21.3132 8.66748 21.244C8.63206 21.1747 8.58585 21.0534 8.56481 20.9743C8.53694 20.8705 8.52597 20.7754 8.52543 20.6326C8.52471 20.4807 8.5337 20.4016 8.56463 20.291C8.58675 20.2119 8.63619 20.0865 8.67467 20.0123C8.71315 19.9382 8.7973 19.8168 8.86167 19.7426C8.92605 19.6683 11.105 17.4825 13.7038 14.8852C17.0745 11.5164 18.4623 10.1407 18.5457 10.0855C18.6099 10.0429 18.7111 9.98823 18.7705 9.96413C18.8298 9.93986 18.9188 9.90911 18.9683 9.89581C19.0177 9.8825 19.1188 9.86632 19.193 9.8602C19.2978 9.85139 19.5864 9.87764 20.4876 9.97762L22.996 10.2558C23.7377 10.3381 24.3466 10.4045 24.3491 10.4034C24.3514 10.4023 24.4089 10.0415 24.4771 9.60128C24.5451 9.1611 24.6067 8.7808 24.6143 8.75617C24.6218 8.73136 24.6449 8.68856 24.6654 8.66087Z" fill="white"/>
<path fill-rule="evenodd" clip-rule="evenodd" d="M19.2739 10.535C19.3432 10.5346 19.9824 10.5986 20.6944 10.6774C21.4065 10.7561 22.871 10.9182 23.949 11.0376C25.8278 11.2454 25.9134 11.2566 26.0168 11.3044C26.0761 11.3321 26.1571 11.3833 26.1966 11.4186C26.2362 11.4538 26.2899 11.5221 26.3162 11.5703C26.3424 11.6187 26.373 11.6904 26.3842 11.73C26.3953 11.7696 26.428 12.0123 26.4566 12.2694C26.4854 12.5266 26.5073 12.7382 26.5055 12.7396C26.5037 12.7411 26.312 12.7553 26.0797 12.7711C25.8474 12.7871 25.6209 12.8047 25.5763 12.8103C25.5007 12.82 25.4937 12.8173 25.4711 12.7698C25.4578 12.7418 25.4173 12.6747 25.3812 12.6204C25.345 12.5663 25.271 12.4785 25.2166 12.4253C25.1623 12.3721 25.0611 12.2935 24.9919 12.2505C24.9227 12.2078 24.7892 12.1464 24.6952 12.1143C24.5371 12.0601 24.5068 12.0558 24.2906 12.0555C24.1513 12.0553 24.0241 12.0644 23.976 12.0785C23.9314 12.0912 23.8425 12.1225 23.7782 12.1477C23.7138 12.1731 23.6088 12.2275 23.5444 12.2691C23.48 12.3104 23.3801 12.3922 23.3222 12.4507C23.2643 12.5093 23.1814 12.6138 23.1382 12.683C23.0949 12.7522 23.0397 12.8655 23.0152 12.9347C22.991 13.004 22.9626 13.1133 22.9523 13.1775C22.9419 13.2418 22.9332 13.3449 22.9332 13.4067C22.9331 13.4686 22.946 13.5819 22.9617 13.6585C22.9775 13.7351 23.0107 13.8464 23.0357 13.9057C23.0607 13.965 23.1154 14.0663 23.1575 14.1305C23.1994 14.1948 23.2774 14.2909 23.3306 14.3441C23.384 14.3971 23.4842 14.4775 23.5534 14.5226C23.6226 14.5678 23.7239 14.6228 23.7782 14.6447C23.8325 14.6667 23.9398 14.6974 24.0164 14.7132C24.093 14.7289 24.2124 14.7418 24.2816 14.7418C24.3509 14.7418 24.4703 14.7291 24.5469 14.7134C24.6235 14.6978 24.7387 14.6631 24.8031 14.6363C24.8675 14.6095 24.9646 14.5582 25.0189 14.5223C25.0732 14.4865 25.1703 14.4043 25.2346 14.3399C25.299 14.2757 25.3858 14.1657 25.4279 14.0958C25.47 14.0258 25.5245 13.908 25.5493 13.8338C25.5739 13.7597 25.6004 13.6504 25.6077 13.5909C25.6151 13.5313 25.6212 13.4828 25.6212 13.4828C25.6212 13.4828 25.8356 13.467 26.0977 13.4477C26.3599 13.4285 26.576 13.4145 26.5782 13.4164C26.5803 13.4186 26.6386 13.93 26.7076 14.553C26.7767 15.1761 26.8991 16.2806 26.9795 17.0074C27.0806 17.9207 27.1226 18.361 27.1153 18.4324C27.1095 18.4892 27.0842 18.5824 27.059 18.6392C27.0174 18.7334 26.5915 19.1646 22.2176 23.5383C17.8471 27.9089 17.4124 28.3385 17.314 28.3842C17.2174 28.4291 17.1863 28.4343 17.0173 28.4342C16.8582 28.434 16.8129 28.4272 16.7296 28.391C16.641 28.3525 16.2529 27.9704 12.9933 24.7141C10.993 22.7153 9.33278 21.0438 9.30419 20.9992C9.27578 20.9548 9.23856 20.8697 9.22165 20.8104C9.20116 20.7381 9.1936 20.6639 9.199 20.5856C9.20457 20.5047 9.22507 20.4301 9.26535 20.3429C9.32199 20.2206 9.45757 20.0831 14.065 15.4738C16.6728 12.8651 18.8469 10.7008 18.8963 10.6644C18.9458 10.6279 19.0226 10.5841 19.0671 10.567C19.1148 10.5488 19.1998 10.5355 19.2739 10.535ZM24.3086 12.6614C24.4476 12.6656 24.4875 12.6745 24.5918 12.7242C24.6623 12.7576 24.7509 12.8196 24.8031 12.8718C24.8545 12.9232 24.918 13.0137 24.9514 13.0831C25.0059 13.1963 25.0099 13.2172 25.0099 13.3932C25.0099 13.5675 25.0056 13.591 24.9539 13.6989C24.9232 13.7633 24.8624 13.8552 24.8191 13.9032C24.7668 13.9611 24.695 14.0127 24.6062 14.056C24.4778 14.1188 24.4643 14.1215 24.2816 14.1215C24.0989 14.1215 24.0855 14.1188 23.9571 14.056C23.8683 14.0127 23.7965 13.9611 23.7442 13.9032C23.7008 13.8552 23.6401 13.7633 23.6093 13.6989C23.5577 13.591 23.5534 13.5677 23.5534 13.3923C23.5534 13.2106 23.5561 13.1969 23.6189 13.0687C23.6626 12.9791 23.7133 12.9088 23.7717 12.8565C23.8197 12.8134 23.8914 12.7616 23.931 12.7411C23.9706 12.7208 24.0353 12.6932 24.0749 12.6803C24.1191 12.6656 24.2092 12.6584 24.3086 12.6614Z" fill="#A51A06"/>
<path d="M19.0168 13.9918C19.0494 13.9583 19.1003 13.9202 19.1299 13.9071C19.1596 13.8941 19.2182 13.8832 19.2603 13.8828C19.3024 13.8825 19.363 13.8934 19.3952 13.9073C19.4302 13.9224 20.3136 14.7939 21.6048 16.0875C23.4139 17.8996 23.7597 18.254 23.7784 18.3144C23.7913 18.3567 23.7953 18.416 23.7881 18.4583C23.7814 18.4978 23.7581 18.5577 23.7365 18.5913C23.7149 18.625 23.6648 18.6713 23.6252 18.6944C23.5743 18.724 23.5245 18.7364 23.4544 18.7368C23.3751 18.7373 23.3395 18.7271 23.2746 18.6852C23.23 18.6566 22.2416 17.6793 21.0778 16.5138C19.2439 14.6769 18.9595 14.385 18.9428 14.3226C18.9322 14.2831 18.9233 14.2345 18.9233 14.2148C18.9233 14.195 18.9311 14.1506 18.9406 14.1159C18.9501 14.0813 18.9845 14.0254 19.0168 13.9918Z" fill="white"/>
<path d="M18.0649 14.9448C18.0969 14.9113 18.1473 14.8732 18.177 14.8601C18.2066 14.8471 18.2652 14.8362 18.3073 14.8358C18.3494 14.8355 18.406 14.8435 18.4332 14.854C18.4603 14.8644 19.2015 15.5905 20.0802 16.4678C21.1774 17.5632 21.6885 18.0852 21.7117 18.1346C21.7302 18.1742 21.7455 18.2349 21.7455 18.2695C21.7455 18.304 21.7307 18.3648 21.7129 18.4043C21.6951 18.4439 21.6548 18.4985 21.6234 18.5257C21.5921 18.5528 21.532 18.5838 21.49 18.5944C21.4338 18.6086 21.3896 18.608 21.3236 18.5924C21.2362 18.5717 21.1877 18.5252 19.646 16.9863C18.7728 16.1146 18.0432 15.3772 18.0248 15.3476C18.0063 15.3179 17.9856 15.2612 17.9786 15.2217C17.9716 15.1812 17.975 15.1183 17.9865 15.0778C17.9977 15.0383 18.0329 14.9784 18.0649 14.9448Z" fill="white"/>
<path d="M17.0824 15.9285C17.1083 15.892 17.163 15.8454 17.2038 15.8251C17.2445 15.8048 17.3122 15.7881 17.3543 15.7881C17.3964 15.7881 17.4611 15.8037 17.4982 15.8228C17.537 15.8429 18.2365 16.5293 19.1519 17.4456C20.2822 18.5773 20.7459 19.0531 20.7657 19.1011C20.7808 19.1381 20.793 19.1948 20.7928 19.227C20.7926 19.2591 20.7777 19.3178 20.7599 19.3573C20.7421 19.3969 20.7018 19.4515 20.6704 19.4787C20.6391 19.5058 20.583 19.5362 20.5459 19.5459C20.5089 19.5558 20.4665 19.5637 20.4515 19.5637C20.4366 19.5636 20.3922 19.5542 20.3527 19.5429C20.2913 19.5254 20.0448 19.287 18.6846 17.9294C17.4852 16.7326 17.0787 16.3164 17.0499 16.2556C17.0193 16.1912 17.0139 16.1563 17.0235 16.0848C17.0305 16.0321 17.0549 15.9674 17.0824 15.9285Z" fill="white"/>
<path d="M16.1298 16.8815C16.1555 16.845 16.21 16.7984 16.2508 16.7781C16.2915 16.7578 16.3533 16.7413 16.3878 16.7414C16.4225 16.7416 16.4792 16.7501 16.5137 16.7603C16.563 16.7749 17.0472 17.2496 18.7376 18.9402C20.7351 20.938 20.9 21.1076 20.9194 21.1824C20.9309 21.227 20.9351 21.2876 20.9288 21.3172C20.9225 21.3469 20.9036 21.3989 20.8867 21.4327C20.87 21.4667 20.8318 21.5123 20.8022 21.5345C20.7725 21.5566 20.7139 21.5835 20.6718 21.5943C20.6161 21.6085 20.5722 21.6085 20.51 21.5938C20.4284 21.5744 20.3302 21.4793 18.2712 19.4226C16.4323 17.5858 16.1135 17.2597 16.0881 17.1906C16.0672 17.1338 16.062 17.0856 16.0707 17.0288C16.0775 16.9842 16.1041 16.918 16.1298 16.8815Z" fill="white"/>
<path d="M15.1747 17.8359C15.2006 17.8003 15.2554 17.754 15.2968 17.7327C15.3381 17.7115 15.4043 17.6943 15.4438 17.6944C15.4834 17.6946 15.5481 17.7101 15.5877 17.7286C15.6371 17.7518 16.1586 18.2623 17.254 19.36C18.631 20.7399 18.8511 20.9675 18.8676 21.0295C18.8784 21.0691 18.8868 21.1218 18.8867 21.1464C18.8865 21.1712 18.8717 21.2237 18.8539 21.2633C18.8361 21.3029 18.7959 21.3575 18.7644 21.3847C18.7331 21.4118 18.677 21.4422 18.64 21.4519C18.6029 21.4618 18.5605 21.4699 18.5456 21.4699C18.5306 21.4699 18.4862 21.4611 18.4467 21.4505C18.3846 21.4338 18.1557 21.2124 16.7698 19.8279C15.5444 18.6037 15.1579 18.2074 15.136 18.1526C15.1168 18.1039 15.1108 18.0517 15.1175 17.9908C15.1238 17.9348 15.1454 17.8764 15.1747 17.8359Z" fill="white"/>
<path d="M14.2571 18.746C14.2918 18.7114 14.3463 18.6757 14.3785 18.6667C14.4107 18.6577 14.4651 18.6498 14.4998 18.649C14.5345 18.6483 14.5951 18.6631 14.6347 18.6816C14.684 18.7048 15.2049 19.2144 16.2929 20.304C17.4228 21.4357 17.8869 21.9121 17.9067 21.9601C17.9218 21.9971 17.9342 22.0518 17.9342 22.0814C17.9342 22.1111 17.9216 22.1658 17.9062 22.2028C17.8909 22.2399 17.8605 22.2895 17.8387 22.313C17.8172 22.3366 17.767 22.3708 17.7274 22.3891C17.6879 22.4074 17.6292 22.4225 17.5971 22.4227C17.5649 22.4229 17.5082 22.4107 17.4712 22.3956C17.4232 22.3758 16.9469 21.9117 15.8151 20.7818C14.7255 19.6937 14.2159 19.1728 14.1927 19.1236C14.1742 19.084 14.1589 19.0274 14.1587 18.9977C14.1586 18.968 14.1665 18.9134 14.1764 18.8763C14.1861 18.8393 14.2224 18.7805 14.2571 18.746Z" fill="white"/>
<path d="M13.3347 19.6732C13.3674 19.6493 13.4143 19.6236 13.439 19.6164C13.4638 19.6091 13.5123 19.6026 13.5468 19.602C13.5815 19.6013 13.6421 19.6161 13.6817 19.6346C13.7315 19.658 14.4128 20.3286 15.8961 21.8144C17.0744 22.9947 18.0426 23.9766 18.0477 23.9964C18.0527 24.0162 18.0615 24.0547 18.0674 24.0818C18.0732 24.109 18.0683 24.1698 18.0563 24.2167C18.0425 24.2715 18.0119 24.3249 17.9709 24.3657C17.9301 24.4067 17.8767 24.4373 17.8218 24.4512C17.7749 24.4632 17.7102 24.4677 17.678 24.4614C17.6458 24.4549 17.5994 24.4393 17.5746 24.4265C17.55 24.4138 16.5691 23.4419 15.3949 22.2668C13.8633 20.7338 13.2527 20.1114 13.2327 20.0631C13.2176 20.026 13.2054 19.9653 13.2054 19.9282C13.2056 19.8912 13.2214 19.8284 13.2406 19.7889C13.2597 19.7493 13.3021 19.6973 13.3347 19.6732Z" fill="white"/>
<path d="M12.3871 20.6187C12.4167 20.5985 12.4613 20.5762 12.486 20.5691C12.5108 20.562 12.5591 20.5556 12.5939 20.555C12.6286 20.5543 12.6892 20.5691 12.7287 20.5876C12.7785 20.6108 13.46 21.2816 14.9432 22.7674C17.0706 24.8983 17.0859 24.9142 17.1033 25.0034C17.113 25.0528 17.115 25.1175 17.1078 25.1472C17.1006 25.1769 17.0814 25.2274 17.065 25.2596C17.0486 25.2918 17.0129 25.3335 16.9857 25.3524C16.9586 25.3712 16.8999 25.3962 16.8553 25.4077C16.794 25.4237 16.7548 25.4237 16.6935 25.4081C16.6187 25.3889 16.4517 25.2267 14.4666 23.2444C12.9822 21.7623 12.3101 21.0794 12.2867 21.0295C12.2682 20.99 12.2529 20.9253 12.2529 20.8857C12.2528 20.8461 12.2707 20.7782 12.2928 20.7345C12.315 20.691 12.3574 20.6388 12.3871 20.6187Z" fill="white"/>
<path d="M47.4389 14.7617V6.29108H51.1055C51.8638 6.29108 52.5173 6.41612 53.0659 6.6662C53.6144 6.90822 54.038 7.25915 54.3365 7.71898C54.635 8.17882 54.7842 8.72739 54.7842 9.36471C54.7842 9.99396 54.635 10.5385 54.3365 10.9983C54.038 11.4582 53.6144 11.8131 53.0659 12.0632C52.5173 12.3052 51.8638 12.4262 51.1055 12.4262H48.528L49.3993 11.5429V14.7617H47.4389ZM49.3993 11.7607L48.528 10.8289H50.9966C51.6017 10.8289 52.0534 10.6998 52.3519 10.4417C52.6504 10.1835 52.7997 9.82454 52.7997 9.36471C52.7997 8.89681 52.6504 8.53378 52.3519 8.27563C52.0534 8.01747 51.6017 7.8884 50.9966 7.8884H48.528L49.3993 6.95663V11.7607ZM56.0506 14.7617V8.25142H57.8537V10.0908L57.5996 9.55832C57.7932 9.09849 58.1038 8.7516 58.5313 8.51764C58.9589 8.27563 59.4792 8.15462 60.0923 8.15462V9.89715C60.0117 9.88908 59.9391 9.88505 59.8745 9.88505C59.81 9.87698 59.7414 9.87295 59.6688 9.87295C59.1525 9.87295 58.733 10.0222 58.4103 10.3207C58.0957 10.6111 57.9384 11.0669 57.9384 11.6881V14.7617H56.0506ZM64.2535 14.8585C63.5598 14.8585 62.9426 14.7133 62.4021 14.4229C61.8697 14.1325 61.4461 13.7372 61.1315 13.237C60.825 12.7288 60.6717 12.152 60.6717 11.5066C60.6717 10.8531 60.825 10.2763 61.1315 9.77614C61.4461 9.2679 61.8697 8.87261 62.4021 8.59025C62.9426 8.29983 63.5598 8.15462 64.2535 8.15462C64.9393 8.15462 65.5524 8.29983 66.0929 8.59025C66.6334 8.87261 67.0569 9.26387 67.3635 9.76404C67.67 10.2642 67.8233 10.8451 67.8233 11.5066C67.8233 12.152 67.67 12.7288 67.3635 13.237C67.0569 13.7372 66.6334 14.1325 66.0929 14.4229C65.5524 14.7133 64.9393 14.8585 64.2535 14.8585ZM64.2535 13.3096C64.5682 13.3096 64.8505 13.237 65.1006 13.0918C65.3507 12.9466 65.5483 12.7409 65.6936 12.4746C65.8388 12.2004 65.9114 11.8777 65.9114 11.5066C65.9114 11.1274 65.8388 10.8047 65.6936 10.5385C65.5483 10.2723 65.3507 10.0666 65.1006 9.92135C64.8505 9.77614 64.5682 9.70353 64.2535 9.70353C63.9389 9.70353 63.6566 9.77614 63.4065 9.92135C63.1564 10.0666 62.9547 10.2723 62.8014 10.5385C62.6562 10.8047 62.5836 11.1274 62.5836 11.5066C62.5836 11.8777 62.6562 12.2004 62.8014 12.4746C62.9547 12.7409 63.1564 12.9466 63.4065 13.0918C63.6566 13.237 63.9389 13.3096 64.2535 13.3096ZM71.8804 14.8585C71.2673 14.8585 70.7147 14.7214 70.2226 14.4471C69.7305 14.1647 69.3392 13.7735 69.0488 13.2733C68.7665 12.7731 68.6253 12.1842 68.6253 11.5066C68.6253 10.8209 68.7665 10.2279 69.0488 9.72774C69.3392 9.22757 69.7305 8.84034 70.2226 8.56605C70.7147 8.29176 71.2673 8.15462 71.8804 8.15462C72.429 8.15462 72.909 8.27563 73.3204 8.51764C73.7319 8.75966 74.0505 9.12672 74.2764 9.61883C74.5023 10.1109 74.6152 10.7402 74.6152 11.5066C74.6152 12.2649 74.5063 12.8941 74.2885 13.3943C74.0707 13.8864 73.7561 14.2535 73.3446 14.4955C72.9413 14.7375 72.4532 14.8585 71.8804 14.8585ZM72.2072 13.3096C72.5137 13.3096 72.792 13.237 73.0421 13.0918C73.2922 12.9466 73.4899 12.7409 73.6351 12.4746C73.7883 12.2004 73.865 11.8777 73.865 11.5066C73.865 11.1274 73.7883 10.8047 73.6351 10.5385C73.4899 10.2723 73.2922 10.0666 73.0421 9.92135C72.792 9.77614 72.5137 9.70353 72.2072 9.70353C71.8925 9.70353 71.6102 9.77614 71.3601 9.92135C71.11 10.0666 70.9083 10.2723 70.7551 10.5385C70.6098 10.8047 70.5372 11.1274 70.5372 11.5066C70.5372 11.8777 70.6098 12.2004 70.7551 12.4746C70.9083 12.7409 71.11 12.9466 71.3601 13.0918C71.6102 13.237 71.8925 13.3096 72.2072 13.3096ZM73.9134 14.7617V13.4306L73.9497 11.4945L73.8287 9.57042V5.78284H75.7164V14.7617H73.9134ZM80.2105 14.8585C79.67 14.8585 79.186 14.7537 78.7584 14.5439C78.3389 14.3342 78.0122 14.0155 77.7782 13.5879C77.5443 13.1523 77.4273 12.5997 77.4273 11.9301V8.25142H79.315V11.6518C79.315 12.1923 79.428 12.5916 79.6539 12.8498C79.8878 13.0999 80.2145 13.2249 80.634 13.2249C80.9245 13.2249 81.1826 13.1644 81.4085 13.0434C81.6344 12.9143 81.8119 12.7207 81.9409 12.4625C82.07 12.1963 82.1345 11.8656 82.1345 11.4703V8.25142H84.0223V14.7617H82.2314V12.9708L82.5581 13.4911C82.3403 13.9429 82.0176 14.2857 81.59 14.5197C81.1705 14.7456 80.7107 14.8585 80.2105 14.8585ZM88.9174 14.8585C88.2155 14.8585 87.5903 14.7173 87.0418 14.435C86.4932 14.1446 86.0616 13.7452 85.747 13.237C85.4404 12.7288 85.2871 12.152 85.2871 11.5066C85.2871 10.8531 85.4404 10.2763 85.747 9.77614C86.0616 9.2679 86.4932 8.87261 87.0418 8.59025C87.5903 8.29983 88.2155 8.15462 88.9174 8.15462C89.6031 8.15462 90.2001 8.29983 90.7083 8.59025C91.2166 8.87261 91.5917 9.28 91.8337 9.81244L90.3695 10.599C90.2001 10.2924 89.9863 10.0666 89.7282 9.92135C89.4781 9.77614 89.2038 9.70353 88.9053 9.70353C88.5826 9.70353 88.2922 9.77614 88.034 9.92135C87.7759 10.0666 87.5702 10.2723 87.4169 10.5385C87.2717 10.8047 87.1991 11.1274 87.1991 11.5066C87.1991 11.8857 87.2717 12.2084 87.4169 12.4746C87.5702 12.7409 87.7759 12.9466 88.034 13.0918C88.2922 13.237 88.5826 13.3096 88.9053 13.3096C89.2038 13.3096 89.4781 13.241 89.7282 13.1039C89.9863 12.9587 90.2001 12.7288 90.3695 12.4141L91.8337 13.2128C91.5917 13.7372 91.2166 14.1446 90.7083 14.435C90.2001 14.7173 89.6031 14.8585 88.9174 14.8585ZM95.6774 14.8585C94.911 14.8585 94.314 14.6649 93.8864 14.2777C93.4589 13.8824 93.2451 13.2975 93.2451 12.523V6.81142H95.1328V12.4988C95.1328 12.7731 95.2054 12.9869 95.3506 13.1402C95.4959 13.2854 95.6935 13.358 95.9436 13.358C96.2421 13.358 96.4962 13.2773 96.7059 13.116L97.2142 14.4471C97.0206 14.5842 96.7866 14.6891 96.5123 14.7617C96.2461 14.8263 95.9678 14.8585 95.6774 14.8585ZM92.2407 9.84875V8.39664H96.7543V9.84875H92.2407ZM105.888 14.9069C105.234 14.9069 104.625 14.8021 104.061 14.5923C103.504 14.3745 103.02 14.0679 102.608 13.6726C102.197 13.2773 101.874 12.8135 101.64 12.281C101.414 11.7486 101.302 11.1637 101.302 10.5264C101.302 9.88908 101.414 9.3042 101.64 8.77176C101.874 8.23932 102.197 7.77546 102.608 7.38016C103.028 6.98486 103.516 6.68234 104.073 6.47259C104.629 6.25477 105.238 6.14587 105.9 6.14587C106.634 6.14587 107.296 6.27494 107.884 6.53309C108.481 6.78318 108.982 7.15427 109.385 7.64638L108.126 8.80807C107.836 8.47731 107.513 8.23126 107.158 8.06991C106.803 7.9005 106.416 7.81579 105.997 7.81579C105.601 7.81579 105.238 7.88033 104.908 8.00941C104.577 8.13848 104.29 8.32403 104.048 8.56605C103.806 8.80807 103.617 9.09446 103.48 9.42521C103.351 9.75597 103.286 10.123 103.286 10.5264C103.286 10.9298 103.351 11.2968 103.48 11.6276C103.617 11.9583 103.806 12.2447 104.048 12.4867C104.29 12.7288 104.577 12.9143 104.908 13.0434C105.238 13.1725 105.601 13.237 105.997 13.237C106.416 13.237 106.803 13.1563 107.158 12.995C107.513 12.8256 107.836 12.5715 108.126 12.2326L109.385 13.3943C108.982 13.8864 108.481 14.2615 107.884 14.5197C107.296 14.7779 106.63 14.9069 105.888 14.9069ZM113.449 14.8585C112.755 14.8585 112.138 14.7133 111.598 14.4229C111.065 14.1325 110.642 13.7372 110.327 13.237C110.02 12.7288 109.867 12.152 109.867 11.5066C109.867 10.8531 110.02 10.2763 110.327 9.77614C110.642 9.2679 111.065 8.87261 111.598 8.59025C112.138 8.29983 112.755 8.15462 113.449 8.15462C114.135 8.15462 114.748 8.29983 115.288 8.59025C115.829 8.87261 116.252 9.26387 116.559 9.76404C116.865 10.2642 117.019 10.8451 117.019 11.5066C117.019 12.152 116.865 12.7288 116.559 13.237C116.252 13.7372 115.829 14.1325 115.288 14.4229C114.748 14.7133 114.135 14.8585 113.449 14.8585ZM113.449 13.3096C113.764 13.3096 114.046 13.237 114.296 13.0918C114.546 12.9466 114.744 12.7409 114.889 12.4746C115.034 12.2004 115.107 11.8777 115.107 11.5066C115.107 11.1274 115.034 10.8047 114.889 10.5385C114.744 10.2723 114.546 10.0666 114.296 9.92135C114.046 9.77614 113.764 9.70353 113.449 9.70353C113.134 9.70353 112.852 9.77614 112.602 9.92135C112.352 10.0666 112.15 10.2723 111.997 10.5385C111.852 10.8047 111.779 11.1274 111.779 11.5066C111.779 11.8777 111.852 12.2004 111.997 12.4746C112.15 12.7409 112.352 12.9466 112.602 13.0918C112.852 13.237 113.134 13.3096 113.449 13.3096ZM121.076 14.8585C120.463 14.8585 119.91 14.7214 119.418 14.4471C118.926 14.1647 118.535 13.7735 118.244 13.2733C117.962 12.7731 117.821 12.1842 117.821 11.5066C117.821 10.8209 117.962 10.2279 118.244 9.72774C118.535 9.22757 118.926 8.84034 119.418 8.56605C119.91 8.29176 120.463 8.15462 121.076 8.15462C121.624 8.15462 122.104 8.27563 122.516 8.51764C122.927 8.75966 123.246 9.12672 123.472 9.61883C123.698 10.1109 123.811 10.7402 123.811 11.5066C123.811 12.2649 123.702 12.8941 123.484 13.3943C123.266 13.8864 122.952 14.2535 122.54 14.4955C122.137 14.7375 121.649 14.8585 121.076 14.8585ZM121.403 13.3096C121.709 13.3096 121.987 13.237 122.238 13.0918C122.488 12.9466 122.685 12.7409 122.83 12.4746C122.984 12.2004 123.06 11.8777 123.06 11.5066C123.06 11.1274 122.984 10.8047 122.83 10.5385C122.685 10.2723 122.488 10.0666 122.238 9.92135C121.987 9.77614 121.709 9.70353 121.403 9.70353C121.088 9.70353 120.806 9.77614 120.556 9.92135C120.305 10.0666 120.104 10.2723 119.95 10.5385C119.805 10.8047 119.733 11.1274 119.733 11.5066C119.733 11.8777 119.805 12.2004 119.95 12.4746C120.104 12.7409 120.305 12.9466 120.556 13.0918C120.806 13.237 121.088 13.3096 121.403 13.3096ZM123.109 14.7617V13.4306L123.145 11.4945L123.024 9.57042V5.78284H124.912V14.7617H123.109ZM129.89 14.8585C129.148 14.8585 128.494 14.7133 127.93 14.4229C127.373 14.1325 126.941 13.7372 126.635 13.237C126.328 12.7288 126.175 12.152 126.175 11.5066C126.175 10.8531 126.324 10.2763 126.623 9.77614C126.929 9.2679 127.345 8.87261 127.869 8.59025C128.393 8.29983 128.986 8.15462 129.648 8.15462C130.285 8.15462 130.858 8.29176 131.366 8.56605C131.883 8.83227 132.29 9.2195 132.588 9.72774C132.887 10.2279 133.036 10.8289 133.036 11.5308C133.036 11.6034 133.032 11.6881 133.024 11.7849C133.016 11.8736 133.008 11.9583 133 12.039H127.712V10.9378H132.008L131.282 11.2646C131.282 10.9257 131.213 10.6313 131.076 10.3812C130.939 10.1311 130.749 9.93749 130.507 9.80034C130.265 9.65513 129.983 9.58253 129.66 9.58253C129.337 9.58253 129.051 9.65513 128.801 9.80034C128.559 9.93749 128.369 10.1351 128.232 10.3933C128.095 10.6434 128.026 10.9419 128.026 11.2888V11.5792C128.026 11.9341 128.103 12.2488 128.256 12.523C128.418 12.7893 128.64 12.995 128.922 13.1402C129.212 13.2773 129.551 13.3459 129.938 13.3459C130.285 13.3459 130.588 13.2935 130.846 13.1886C131.112 13.0837 131.354 12.9264 131.572 12.7167L132.576 13.8057C132.278 14.1446 131.903 14.4068 131.451 14.5923C130.999 14.7698 130.479 14.8585 129.89 14.8585Z" fill="black"/>
<path d="M46.9026 32.6035V31.9915L50.3946 28.5715C50.7146 28.2595 50.9546 27.9875 51.1146 27.7555C51.2746 27.5155 51.3826 27.2915 51.4386 27.0835C51.4946 26.8755 51.5226 26.6795 51.5226 26.4955C51.5226 26.0075 51.3546 25.6235 51.0186 25.3435C50.6906 25.0635 50.2026 24.9235 49.5546 24.9235C49.0586 24.9235 48.6186 24.9995 48.2346 25.1515C47.8586 25.3035 47.5346 25.5395 47.2626 25.8595L46.6506 25.3315C46.9786 24.9475 47.3986 24.6515 47.9106 24.4435C48.4226 24.2355 48.9946 24.1315 49.6266 24.1315C50.1946 24.1315 50.6866 24.2235 51.1026 24.4075C51.5186 24.5835 51.8386 24.8435 52.0626 25.1875C52.2946 25.5315 52.4106 25.9355 52.4106 26.3995C52.4106 26.6715 52.3706 26.9395 52.2906 27.2035C52.2186 27.4675 52.0826 27.7475 51.8826 28.0435C51.6906 28.3315 51.4066 28.6595 51.0306 29.0275L47.8266 32.1715L47.5866 31.8355H52.7946V32.6035H46.9026ZM57.2034 32.6755C56.5554 32.6755 55.9794 32.5075 55.4754 32.1715C54.9714 31.8275 54.5754 31.3395 54.2874 30.7075C53.9994 30.0675 53.8554 29.2995 53.8554 28.4035C53.8554 27.5075 53.9994 26.7435 54.2874 26.1115C54.5754 25.4715 54.9714 24.9835 55.4754 24.6475C55.9794 24.3035 56.5554 24.1315 57.2034 24.1315C57.8514 24.1315 58.4274 24.3035 58.9314 24.6475C59.4354 24.9835 59.8314 25.4715 60.1194 26.1115C60.4154 26.7435 60.5634 27.5075 60.5634 28.4035C60.5634 29.2995 60.4154 30.0675 60.1194 30.7075C59.8314 31.3395 59.4354 31.8275 58.9314 32.1715C58.4274 32.5075 57.8514 32.6755 57.2034 32.6755ZM57.2034 31.8835C57.6994 31.8835 58.1314 31.7515 58.4994 31.4875C58.8674 31.2155 59.1554 30.8235 59.3634 30.3115C59.5714 29.7915 59.6754 29.1555 59.6754 28.4035C59.6754 27.6515 59.5714 27.0195 59.3634 26.5075C59.1554 25.9875 58.8674 25.5955 58.4994 25.3315C58.1314 25.0595 57.6994 24.9235 57.2034 24.9235C56.7234 24.9235 56.2954 25.0595 55.9194 25.3315C55.5434 25.5955 55.2514 25.9875 55.0434 26.5075C54.8354 27.0195 54.7314 27.6515 54.7314 28.4035C54.7314 29.1555 54.8354 29.7915 55.0434 30.3115C55.2514 30.8235 55.5434 31.2155 55.9194 31.4875C56.2954 31.7515 56.7234 31.8835 57.2034 31.8835ZM65.1488 32.6755C64.5008 32.6755 63.9248 32.5075 63.4208 32.1715C62.9168 31.8275 62.5208 31.3395 62.2328 30.7075C61.9448 30.0675 61.8008 29.2995 61.8008 28.4035C61.8008 27.5075 61.9448 26.7435 62.2328 26.1115C62.5208 25.4715 62.9168 24.9835 63.4208 24.6475C63.9248 24.3035 64.5008 24.1315 65.1488 24.1315C65.7968 24.1315 66.3728 24.3035 66.8768 24.6475C67.3808 24.9835 67.7768 25.4715 68.0648 26.1115C68.3608 26.7435 68.5088 27.5075 68.5088 28.4035C68.5088 29.2995 68.3608 30.0675 68.0648 30.7075C67.7768 31.3395 67.3808 31.8275 66.8768 32.1715C66.3728 32.5075 65.7968 32.6755 65.1488 32.6755ZM65.1488 31.8835C65.6448 31.8835 66.0768 31.7515 66.4448 31.4875C66.8128 31.2155 67.1008 30.8235 67.3088 30.3115C67.5168 29.7915 67.6208 29.1555 67.6208 28.4035C67.6208 27.6515 67.5168 27.0195 67.3088 26.5075C67.1008 25.9875 66.8128 25.5955 66.4448 25.3315C66.0768 25.0595 65.6448 24.9235 65.1488 24.9235C64.6688 24.9235 64.2408 25.0595 63.8648 25.3315C63.4888 25.5955 63.1968 25.9875 62.9888 26.5075C62.7808 27.0195 62.6768 27.6515 62.6768 28.4035C62.6768 29.1555 62.7808 29.7915 62.9888 30.3115C63.1968 30.8235 63.4888 31.2155 63.8648 31.4875C64.2408 31.7515 64.6688 31.8835 65.1488 31.8835ZM73.0941 32.6755C72.4461 32.6755 71.8701 32.5075 71.3661 32.1715C70.8621 31.8275 70.4661 31.3395 70.1781 30.7075C69.8901 30.0675 69.7461 29.2995 69.7461 28.4035C69.7461 27.5075 69.8901 26.7435 70.1781 26.1115C70.4661 25.4715 70.8621 24.9835 71.3661 24.6475C71.8701 24.3035 72.4461 24.1315 73.0941 24.1315C73.7421 24.1315 74.3181 24.3035 74.8221 24.6475C75.3261 24.9835 75.7221 25.4715 76.0101 26.1115C76.3061 26.7435 76.4541 27.5075 76.4541 28.4035C76.4541 29.2995 76.3061 30.0675 76.0101 30.7075C75.7221 31.3395 75.3261 31.8275 74.8221 32.1715C74.3181 32.5075 73.7421 32.6755 73.0941 32.6755ZM73.0941 31.8835C73.5901 31.8835 74.0221 31.7515 74.3901 31.4875C74.7581 31.2155 75.0461 30.8235 75.2541 30.3115C75.4621 29.7915 75.5661 29.1555 75.5661 28.4035C75.5661 27.6515 75.4621 27.0195 75.2541 26.5075C75.0461 25.9875 74.7581 25.5955 74.3901 25.3315C74.0221 25.0595 73.5901 24.9235 73.0941 24.9235C72.6141 24.9235 72.1861 25.0595 71.8101 25.3315C71.4341 25.5955 71.1421 25.9875 70.9341 26.5075C70.7261 27.0195 70.6221 27.6515 70.6221 28.4035C70.6221 29.1555 70.7261 29.7915 70.9341 30.3115C71.1421 30.8235 71.4341 31.2155 71.8101 31.4875C72.1861 31.7515 72.6141 31.8835 73.0941 31.8835ZM84.5794 24.2035H85.4554V32.6035H84.5794V24.2035ZM79.3234 32.6035H78.4354V24.2035H79.3234V32.6035ZM84.6634 28.7275H79.2274V27.9475H84.6634V28.7275Z" fill="black"/>
</svg>
