<svg width="106" height="28" viewBox="0 0 106 28" fill="none" xmlns="http://www.w3.org/2000/svg">
<path d="M5.07812 26.9232L5.04522 3.88318L7.56881 6.39788L0.00883097 6.41377L0.00214848 1.73378L10.8741 1.71093L10.9101 26.9109L5.07812 26.9232ZM19.1757 26.8935L19.1428 3.85356L21.6664 6.36826L14.1065 6.38414L14.0998 1.70415L24.9717 1.6813L25.0077 26.8813L19.1757 26.8935ZM37.954 27.2861C36.202 27.2898 34.4617 27.0654 32.733 26.613C31.0283 26.1366 29.5634 25.4677 28.3381 24.6063L30.6358 20.1374C31.5968 20.8314 32.7015 21.3811 33.9501 21.7865C35.2227 22.1918 36.507 22.3931 37.803 22.3904C39.267 22.3873 40.4186 22.0969 41.2577 21.5191C42.0969 20.9414 42.5158 20.1365 42.5143 19.1045C42.5134 18.4565 42.3445 17.8808 42.0078 17.3775C41.6711 16.8742 41.0706 16.4915 40.2062 16.2293C39.3658 15.9671 38.1776 15.8376 36.6416 15.8408L30.1976 15.8543L31.4734 1.66764L46.8454 1.63533L46.852 6.31533L33.5681 6.34325L36.5883 3.67289L35.7027 13.7908L32.6749 11.1331L38.0029 11.1219C40.4989 11.1167 42.5034 11.4605 44.0164 12.1533C45.5533 12.8221 46.6706 13.7437 47.3683 14.9183C48.066 16.0928 48.4159 17.4241 48.418 18.9121C48.4202 20.4001 48.0501 21.7808 47.3079 23.0544C46.5657 24.304 45.4152 25.3264 43.8563 26.1217C42.3214 26.8929 40.354 27.281 37.954 27.2861ZM86.9547 7.09506C88.4906 7.09183 89.8471 7.40098 91.024 8.02251C92.2248 8.61998 93.1622 9.55401 93.836 10.8246C94.5338 12.0711 94.8841 13.6784 94.8869 15.6464L94.9027 26.7344L89.2867 26.7462L89.2721 16.5222C89.2699 14.9622 88.9442 13.8109 88.2952 13.0683C87.6461 12.3256 86.7336 11.9555 85.5576 11.958C84.7416 11.9597 84.0099 12.1533 83.3624 12.5386C82.7149 12.9 82.2117 13.453 81.8528 14.1978C81.4939 14.9425 81.3152 15.8909 81.3169 17.0429L81.3307 26.7629L75.7147 26.7747L75.7001 16.5507C75.6979 14.9907 75.3723 13.8394 74.7232 13.0968C74.0981 12.3541 73.1976 11.984 72.0216 11.9864C71.2056 11.9882 70.4739 12.1817 69.8265 12.5671C69.179 12.9284 68.6758 13.4815 68.3168 14.2262C67.9579 14.971 67.7792 15.9194 67.7809 17.0714L67.7948 26.7914L62.1788 26.8032L62.1511 7.43518L67.5151 7.42391L67.5227 12.7159L66.5125 11.17C67.1826 9.84861 68.1291 8.85062 69.3522 8.17605C70.5992 7.47743 72.0147 7.12645 73.5987 7.12312C75.3747 7.11939 76.9233 7.57214 78.2446 8.48136C79.5899 9.36654 80.4798 10.7327 80.9145 12.5798L78.9337 12.0439C79.5795 10.5306 80.6098 9.32839 82.0246 8.43742C83.4633 7.54639 85.1067 7.09894 86.9547 7.09506ZM99.9365 26.7238L99.8984 0.0118402L105.514 3.81435e-05L105.552 26.712L99.9365 26.7238Z" fill="black"/>
</svg>
