<svg width="116" height="26" viewBox="0 0 116 26" fill="none" xmlns="http://www.w3.org/2000/svg">
<path d="M5.07618 25.4318L5.04328 2.39182L7.56687 4.90652L0.00688636 4.92241L0.000203875 0.242413L10.8722 0.219565L10.9082 25.4195L5.07618 25.4318ZM19.1738 25.4022L19.1409 2.36219L21.6645 4.87689L14.1045 4.89278L14.0978 0.212786L24.9698 0.189939L25.0058 25.3899L19.1738 25.4022ZM37.952 25.7947C36.2 25.7984 34.4597 25.574 32.7311 25.1217C31.0264 24.6453 29.5614 23.9763 28.3362 23.1149L30.6338 18.6461C31.5948 19.3401 32.6996 19.8897 33.9482 20.2951C35.2208 20.7004 36.505 20.9017 37.801 20.899C39.265 20.8959 40.4166 20.6055 41.2558 20.0278C42.095 19.45 42.5138 18.6451 42.5124 17.6131C42.5114 16.9651 42.3426 16.3895 42.0059 15.8862C41.6692 15.3829 41.0686 15.0001 40.2042 14.738C39.3639 14.4757 38.1757 14.3462 36.6397 14.3494L30.1957 14.363L31.4714 0.176276L46.8434 0.143972L46.8501 4.82397L33.5661 4.85188L36.5863 2.18153L35.7008 12.2994L32.673 9.64177L38.001 9.63057C40.4969 9.62533 42.5014 9.96912 44.0144 10.6619C45.5514 11.3307 46.6687 12.2524 47.3664 13.4269C48.0641 14.6014 48.414 15.9327 48.4161 17.4207C48.4182 18.9087 48.0482 20.2895 47.306 21.563C46.5638 22.8126 45.4132 23.835 43.8544 24.6303C42.3195 25.4015 40.352 25.7897 37.952 25.7947ZM62.5728 25.311L62.5368 0.110992L67.3608 0.100854L78.1142 17.8623L75.5582 17.8677L86.0808 0.0615141L90.8688 0.0514522L90.9768 25.2513L85.5048 25.2628L85.4448 8.45087L86.4528 8.44875L78.049 22.6144L75.421 22.62L66.7968 8.49006L68.0208 8.48748L68.0448 25.2995L62.5728 25.311ZM96.9556 25.2387L96.9196 0.0387364L102.752 0.0264805L102.781 20.4745L115.417 20.4479L115.424 25.1999L96.9556 25.2387Z" fill="black"/>
</svg>
