<svg width="399" height="52" viewBox="0 0 399 52" fill="none" xmlns="http://www.w3.org/2000/svg">
<path d="M39.4909 18.128C38.6375 18.128 37.8215 18 37.0429 17.744C36.2642 17.4773 35.6509 17.136 35.2029 16.72L35.7949 15.472C36.2215 15.8453 36.7655 16.1547 37.4269 16.4C38.0882 16.6453 38.7762 16.768 39.4909 16.768C40.1415 16.768 40.6695 16.6933 41.0749 16.544C41.4802 16.3947 41.7789 16.192 41.9709 15.936C42.1629 15.6693 42.2589 15.3707 42.2589 15.04C42.2589 14.656 42.1309 14.3467 41.8749 14.112C41.6295 13.8773 41.3042 13.6907 40.8989 13.552C40.5042 13.4027 40.0669 13.2747 39.5869 13.168C39.1069 13.0613 38.6215 12.9387 38.1309 12.8C37.6509 12.6507 37.2082 12.464 36.8029 12.24C36.4082 12.016 36.0882 11.7173 35.8429 11.344C35.5975 10.96 35.4749 10.4693 35.4749 9.872C35.4749 9.296 35.6242 8.768 35.9229 8.288C36.2322 7.79733 36.7015 7.408 37.3309 7.12C37.9709 6.82133 38.7815 6.672 39.7629 6.672C40.4135 6.672 41.0589 6.75733 41.6989 6.928C42.3389 7.09867 42.8935 7.344 43.3629 7.664L42.8349 8.944C42.3549 8.624 41.8482 8.39467 41.3149 8.256C40.7815 8.10667 40.2642 8.032 39.7629 8.032C39.1335 8.032 38.6162 8.112 38.2109 8.272C37.8055 8.432 37.5069 8.64533 37.3149 8.912C37.1335 9.17867 37.0429 9.47733 37.0429 9.808C37.0429 10.2027 37.1655 10.5173 37.4109 10.752C37.6669 10.9867 37.9922 11.1733 38.3869 11.312C38.7922 11.4507 39.2349 11.5787 39.7149 11.696C40.1949 11.8027 40.6749 11.9253 41.1549 12.064C41.6455 12.2027 42.0882 12.384 42.4829 12.608C42.8882 12.832 43.2135 13.1307 43.4589 13.504C43.7042 13.8773 43.8269 14.3573 43.8269 14.944C43.8269 15.5093 43.6722 16.0373 43.3629 16.528C43.0535 17.008 42.5735 17.3973 41.9229 17.696C41.2829 17.984 40.4722 18.128 39.4909 18.128ZM48.8524 18.096C47.999 18.096 47.3377 17.8667 46.8684 17.408C46.399 16.9493 46.1644 16.2933 46.1644 15.44V7.664H47.7004V15.376C47.7004 15.8347 47.8124 16.1867 48.0364 16.432C48.271 16.6773 48.6017 16.8 49.0284 16.8C49.5084 16.8 49.9084 16.6667 50.2284 16.4L50.7084 17.504C50.4737 17.7067 50.191 17.856 49.8604 17.952C49.5404 18.048 49.2044 18.096 48.8524 18.096ZM44.7244 10.784V9.52H50.1324V10.784H44.7244ZM52.5654 18V9.52H54.0374V11.824L53.8934 11.248C54.128 10.6613 54.5227 10.2133 55.0774 9.904C55.632 9.59467 56.3147 9.44 57.1254 9.44V10.928C57.0614 10.9173 56.9974 10.912 56.9334 10.912C56.88 10.912 56.8267 10.912 56.7734 10.912C55.952 10.912 55.3014 11.1573 54.8214 11.648C54.3414 12.1387 54.1014 12.848 54.1014 13.776V18H52.5654ZM62.5724 18.096C61.719 18.096 60.9617 17.9093 60.3004 17.536C59.639 17.1627 59.1164 16.6507 58.7324 16C58.3484 15.3387 58.1564 14.592 58.1564 13.76C58.1564 12.9173 58.3484 12.1707 58.7324 11.52C59.1164 10.8693 59.639 10.3627 60.3004 10C60.9617 9.62667 61.719 9.44 62.5724 9.44C63.415 9.44 64.167 9.62667 64.8284 10C65.5004 10.3627 66.023 10.8693 66.3964 11.52C66.7804 12.16 66.9724 12.9067 66.9724 13.76C66.9724 14.6027 66.7804 15.3493 66.3964 16C66.023 16.6507 65.5004 17.1627 64.8284 17.536C64.167 17.9093 63.415 18.096 62.5724 18.096ZM62.5724 16.752C63.1164 16.752 63.6017 16.6293 64.0284 16.384C64.4657 16.1387 64.807 15.792 65.0524 15.344C65.2977 14.8853 65.4204 14.3573 65.4204 13.76C65.4204 13.152 65.2977 12.6293 65.0524 12.192C64.807 11.744 64.4657 11.3973 64.0284 11.152C63.6017 10.9067 63.1164 10.784 62.5724 10.784C62.0284 10.784 61.543 10.9067 61.1164 11.152C60.6897 11.3973 60.3484 11.744 60.0924 12.192C59.8364 12.6293 59.7084 13.152 59.7084 13.76C59.7084 14.3573 59.8364 14.8853 60.0924 15.344C60.3484 15.792 60.6897 16.1387 61.1164 16.384C61.543 16.6293 62.0284 16.752 62.5724 16.752ZM73.6246 9.44C74.318 9.44 74.926 9.57333 75.4486 9.84C75.982 10.1067 76.398 10.512 76.6966 11.056C76.9953 11.6 77.1446 12.288 77.1446 13.12V18H75.6086V13.296C75.6086 12.4747 75.406 11.856 75.0006 11.44C74.606 11.024 74.046 10.816 73.3206 10.816C72.7766 10.816 72.302 10.9227 71.8966 11.136C71.4913 11.3493 71.1766 11.664 70.9526 12.08C70.7393 12.496 70.6326 13.0133 70.6326 13.632V18H69.0966V9.52H70.5686V11.808L70.3286 11.2C70.606 10.6453 71.0326 10.2133 71.6086 9.904C72.1846 9.59467 72.8566 9.44 73.6246 9.44ZM83.6993 21.2C82.9206 21.2 82.1633 21.088 81.4273 20.864C80.7019 20.6507 80.1099 20.3413 79.6513 19.936L80.3873 18.752C80.7819 19.0933 81.2673 19.36 81.8433 19.552C82.4193 19.7547 83.0219 19.856 83.6513 19.856C84.6539 19.856 85.3899 19.6213 85.8593 19.152C86.3286 18.6827 86.5633 17.968 86.5633 17.008V15.216L86.7233 13.536L86.6433 11.84V9.52H88.0993V16.848C88.0993 18.3413 87.7259 19.44 86.9792 20.144C86.2326 20.848 85.1393 21.2 83.6993 21.2ZM83.5073 17.648C82.6859 17.648 81.9499 17.4773 81.2993 17.136C80.6593 16.784 80.1473 16.2987 79.7633 15.68C79.3899 15.0613 79.2033 14.3467 79.2033 13.536C79.2033 12.7147 79.3899 12 79.7633 11.392C80.1473 10.7733 80.6593 10.2933 81.2993 9.952C81.9499 9.61067 82.6859 9.44 83.5073 9.44C84.2326 9.44 84.8939 9.58933 85.4913 9.888C86.0886 10.176 86.5633 10.624 86.9153 11.232C87.2779 11.84 87.4593 12.608 87.4593 13.536C87.4593 14.4533 87.2779 15.216 86.9153 15.824C86.5633 16.432 86.0886 16.8907 85.4913 17.2C84.8939 17.4987 84.2326 17.648 83.5073 17.648ZM83.6833 16.304C84.2486 16.304 84.7499 16.1867 85.1873 15.952C85.6246 15.7173 85.9659 15.392 86.2113 14.976C86.4673 14.56 86.5953 14.08 86.5953 13.536C86.5953 12.992 86.4673 12.512 86.2113 12.096C85.9659 11.68 85.6246 11.36 85.1873 11.136C84.7499 10.9013 84.2486 10.784 83.6833 10.784C83.1179 10.784 82.6113 10.9013 82.1633 11.136C81.7259 11.36 81.3793 11.68 81.1233 12.096C80.8779 12.512 80.7553 12.992 80.7553 13.536C80.7553 14.08 80.8779 14.56 81.1233 14.976C81.3793 15.392 81.7259 15.7173 82.1633 15.952C82.6113 16.1867 83.1179 16.304 83.6833 16.304ZM100.595 18V16.208L100.515 15.872V12.816C100.515 12.1653 100.323 11.664 99.939 11.312C99.5657 10.9493 99.0003 10.768 98.243 10.768C97.7417 10.768 97.251 10.8533 96.771 11.024C96.291 11.184 95.8857 11.4027 95.555 11.68L94.915 10.528C95.3523 10.176 95.875 9.90933 96.483 9.728C97.1017 9.536 97.747 9.44 98.419 9.44C99.5817 9.44 100.478 9.72267 101.107 10.288C101.736 10.8533 102.051 11.7173 102.051 12.88V18H100.595ZM97.811 18.096C97.1817 18.096 96.627 17.9893 96.147 17.776C95.6777 17.5627 95.315 17.2693 95.059 16.896C94.803 16.512 94.675 16.08 94.675 15.6C94.675 15.1413 94.7817 14.7253 94.995 14.352C95.219 13.9787 95.5763 13.68 96.067 13.456C96.5683 13.232 97.2403 13.12 98.083 13.12H100.771V14.224H98.147C97.379 14.224 96.8617 14.352 96.595 14.608C96.3283 14.864 96.195 15.1733 96.195 15.536C96.195 15.952 96.3603 16.288 96.691 16.544C97.0217 16.7893 97.4803 16.912 98.067 16.912C98.643 16.912 99.1443 16.784 99.571 16.528C100.008 16.272 100.323 15.8987 100.515 15.408L100.819 16.464C100.616 16.9653 100.259 17.3653 99.747 17.664C99.235 17.952 98.5897 18.096 97.811 18.096ZM109.422 9.44C110.115 9.44 110.723 9.57333 111.246 9.84C111.779 10.1067 112.195 10.512 112.494 11.056C112.792 11.6 112.942 12.288 112.942 13.12V18H111.406V13.296C111.406 12.4747 111.203 11.856 110.798 11.44C110.403 11.024 109.843 10.816 109.118 10.816C108.574 10.816 108.099 10.9227 107.694 11.136C107.288 11.3493 106.974 11.664 106.75 12.08C106.536 12.496 106.43 13.0133 106.43 13.632V18H104.894V9.52H106.366V11.808L106.126 11.2C106.403 10.6453 106.83 10.2133 107.406 9.904C107.982 9.59467 108.654 9.44 109.422 9.44ZM119.288 18.096C118.467 18.096 117.731 17.9147 117.08 17.552C116.44 17.1893 115.933 16.6827 115.56 16.032C115.187 15.3813 115 14.624 115 13.76C115 12.896 115.187 12.144 115.56 11.504C115.933 10.8533 116.44 10.3467 117.08 9.984C117.731 9.62133 118.467 9.44 119.288 9.44C120.003 9.44 120.648 9.6 121.224 9.92C121.8 10.24 122.259 10.72 122.6 11.36C122.952 12 123.128 12.8 123.128 13.76C123.128 14.72 122.957 15.52 122.616 16.16C122.285 16.8 121.832 17.2853 121.256 17.616C120.68 17.936 120.024 18.096 119.288 18.096ZM119.416 16.752C119.949 16.752 120.429 16.6293 120.856 16.384C121.293 16.1387 121.635 15.792 121.88 15.344C122.136 14.8853 122.264 14.3573 122.264 13.76C122.264 13.152 122.136 12.6293 121.88 12.192C121.635 11.744 121.293 11.3973 120.856 11.152C120.429 10.9067 119.949 10.784 119.416 10.784C118.872 10.784 118.387 10.9067 117.96 11.152C117.533 11.3973 117.192 11.744 116.936 12.192C116.68 12.6293 116.552 13.152 116.552 13.76C116.552 14.3573 116.68 14.8853 116.936 15.344C117.192 15.792 117.533 16.1387 117.96 16.384C118.387 16.6293 118.872 16.752 119.416 16.752ZM122.312 18V15.712L122.408 13.744L122.248 11.776V6.128H123.784V18H122.312ZM135.515 9.44C136.209 9.44 136.817 9.57333 137.339 9.84C137.873 10.1067 138.289 10.512 138.587 11.056C138.886 11.6 139.035 12.288 139.035 13.12V18H137.499V13.296C137.499 12.4747 137.297 11.856 136.891 11.44C136.497 11.024 135.937 10.816 135.211 10.816C134.667 10.816 134.193 10.9227 133.787 11.136C133.382 11.3493 133.067 11.664 132.843 12.08C132.63 12.496 132.523 13.0133 132.523 13.632V18H130.987V6.128H132.523V11.808L132.219 11.2C132.497 10.6453 132.923 10.2133 133.499 9.904C134.075 9.59467 134.747 9.44 135.515 9.44ZM142.09 21.2C141.684 21.2 141.29 21.1307 140.906 20.992C140.522 20.864 140.191 20.672 139.914 20.416L140.57 19.264C140.783 19.4667 141.018 19.6213 141.274 19.728C141.53 19.8347 141.802 19.888 142.09 19.888C142.463 19.888 142.772 19.792 143.018 19.6C143.263 19.408 143.492 19.0667 143.706 18.576L144.234 17.408L144.394 17.216L147.722 9.52H149.226L145.114 18.848C144.868 19.4453 144.591 19.9147 144.282 20.256C143.983 20.5973 143.652 20.8373 143.29 20.976C142.927 21.1253 142.527 21.2 142.09 21.2ZM144.106 18.272L140.234 9.52H141.834L145.13 17.072L144.106 18.272ZM154.137 21.2C153.358 21.2 152.601 21.088 151.865 20.864C151.139 20.6507 150.547 20.3413 150.089 19.936L150.825 18.752C151.219 19.0933 151.705 19.36 152.281 19.552C152.857 19.7547 153.459 19.856 154.089 19.856C155.091 19.856 155.827 19.6213 156.297 19.152C156.766 18.6827 157.001 17.968 157.001 17.008V15.216L157.161 13.536L157.081 11.84V9.52H158.537V16.848C158.537 18.3413 158.163 19.44 157.417 20.144C156.67 20.848 155.577 21.2 154.137 21.2ZM153.945 17.648C153.123 17.648 152.387 17.4773 151.737 17.136C151.097 16.784 150.585 16.2987 150.201 15.68C149.827 15.0613 149.641 14.3467 149.641 13.536C149.641 12.7147 149.827 12 150.201 11.392C150.585 10.7733 151.097 10.2933 151.737 9.952C152.387 9.61067 153.123 9.44 153.945 9.44C154.67 9.44 155.331 9.58933 155.929 9.888C156.526 10.176 157.001 10.624 157.353 11.232C157.715 11.84 157.897 12.608 157.897 13.536C157.897 14.4533 157.715 15.216 157.353 15.824C157.001 16.432 156.526 16.8907 155.929 17.2C155.331 17.4987 154.67 17.648 153.945 17.648ZM154.121 16.304C154.686 16.304 155.187 16.1867 155.625 15.952C156.062 15.7173 156.403 15.392 156.649 14.976C156.905 14.56 157.033 14.08 157.033 13.536C157.033 12.992 156.905 12.512 156.649 12.096C156.403 11.68 156.062 11.36 155.625 11.136C155.187 10.9013 154.686 10.784 154.121 10.784C153.555 10.784 153.049 10.9013 152.601 11.136C152.163 11.36 151.817 11.68 151.561 12.096C151.315 12.512 151.193 12.992 151.193 13.536C151.193 14.08 151.315 14.56 151.561 14.976C151.817 15.392 152.163 15.7173 152.601 15.952C153.049 16.1867 153.555 16.304 154.121 16.304ZM161.472 18V9.52H163.008V18H161.472ZM162.24 7.888C161.941 7.888 161.69 7.792 161.488 7.6C161.296 7.408 161.2 7.17333 161.2 6.896C161.2 6.608 161.296 6.368 161.488 6.176C161.69 5.984 161.941 5.888 162.24 5.888C162.538 5.888 162.784 5.984 162.976 6.176C163.178 6.35733 163.28 6.58667 163.28 6.864C163.28 7.152 163.184 7.39733 162.992 7.6C162.8 7.792 162.549 7.888 162.24 7.888ZM169.716 18.096C168.81 18.096 168.01 17.9093 167.316 17.536C166.634 17.1627 166.1 16.6507 165.716 16C165.343 15.3493 165.156 14.6027 165.156 13.76C165.156 12.9173 165.338 12.1707 165.7 11.52C166.074 10.8693 166.58 10.3627 167.22 10C167.871 9.62667 168.602 9.44 169.412 9.44C170.234 9.44 170.959 9.62133 171.588 9.984C172.218 10.3467 172.708 10.8587 173.06 11.52C173.423 12.1707 173.604 12.9333 173.604 13.808C173.604 13.872 173.599 13.9467 173.588 14.032C173.588 14.1173 173.583 14.1973 173.572 14.272H166.356V13.168H172.772L172.148 13.552C172.159 13.008 172.047 12.5227 171.812 12.096C171.578 11.6693 171.252 11.3387 170.836 11.104C170.431 10.8587 169.956 10.736 169.412 10.736C168.879 10.736 168.404 10.8587 167.988 11.104C167.572 11.3387 167.247 11.6747 167.012 12.112C166.778 12.5387 166.66 13.0293 166.66 13.584V13.84C166.66 14.4053 166.788 14.912 167.044 15.36C167.311 15.7973 167.679 16.1387 168.148 16.384C168.618 16.6293 169.156 16.752 169.764 16.752C170.266 16.752 170.719 16.6667 171.124 16.496C171.54 16.3253 171.903 16.0693 172.212 15.728L173.06 16.72C172.676 17.168 172.196 17.5093 171.62 17.744C171.055 17.9787 170.42 18.096 169.716 18.096ZM180.265 9.44C180.959 9.44 181.567 9.57333 182.089 9.84C182.623 10.1067 183.039 10.512 183.337 11.056C183.636 11.6 183.785 12.288 183.785 13.12V18H182.249V13.296C182.249 12.4747 182.047 11.856 181.641 11.44C181.247 11.024 180.687 10.816 179.961 10.816C179.417 10.816 178.943 10.9227 178.537 11.136C178.132 11.3493 177.817 11.664 177.593 12.08C177.38 12.496 177.273 13.0133 177.273 13.632V18H175.737V9.52H177.209V11.808L176.969 11.2C177.247 10.6453 177.673 10.2133 178.249 9.904C178.825 9.59467 179.497 9.44 180.265 9.44ZM186.628 18V9.52H188.164V18H186.628ZM187.396 7.888C187.097 7.888 186.847 7.792 186.644 7.6C186.452 7.408 186.356 7.17333 186.356 6.896C186.356 6.608 186.452 6.368 186.644 6.176C186.847 5.984 187.097 5.888 187.396 5.888C187.695 5.888 187.94 5.984 188.132 6.176C188.335 6.35733 188.436 6.58667 188.436 6.864C188.436 7.152 188.34 7.39733 188.148 7.6C187.956 7.792 187.705 7.888 187.396 7.888ZM194.793 18.096C193.929 18.096 193.155 17.9093 192.473 17.536C191.801 17.1627 191.273 16.6507 190.889 16C190.505 15.3493 190.313 14.6027 190.313 13.76C190.313 12.9173 190.505 12.1707 190.889 11.52C191.273 10.8693 191.801 10.3627 192.473 10C193.155 9.62667 193.929 9.44 194.793 9.44C195.561 9.44 196.243 9.59467 196.841 9.904C197.449 10.2027 197.918 10.6507 198.249 11.248L197.081 12C196.803 11.584 196.462 11.28 196.057 11.088C195.662 10.8853 195.235 10.784 194.777 10.784C194.222 10.784 193.726 10.9067 193.289 11.152C192.851 11.3973 192.505 11.744 192.249 12.192C191.993 12.6293 191.865 13.152 191.865 13.76C191.865 14.368 191.993 14.896 192.249 15.344C192.505 15.792 192.851 16.1387 193.289 16.384C193.726 16.6293 194.222 16.752 194.777 16.752C195.235 16.752 195.662 16.656 196.057 16.464C196.462 16.2613 196.803 15.952 197.081 15.536L198.249 16.272C197.918 16.8587 197.449 17.312 196.841 17.632C196.243 17.9413 195.561 18.096 194.793 18.096ZM204.902 18V6.8H206.086V18H204.902ZM209.73 18V6.8H210.706L215.826 15.536H215.314L220.386 6.8H221.362V18H220.226V8.576H220.498L215.826 16.576H215.266L210.562 8.576H210.866V18H209.73ZM225.012 18V6.8H226.196V16.976H232.468V18H225.012ZM238.621 18V6.8H242.813C243.762 6.8 244.578 6.95467 245.261 7.264C245.944 7.56267 246.466 8 246.829 8.576C247.202 9.14133 247.389 9.82933 247.389 10.64C247.389 11.4293 247.202 12.112 246.829 12.688C246.466 13.2533 245.944 13.6907 245.261 14C244.578 14.2987 243.762 14.448 242.813 14.448H239.277L239.805 13.904V18H238.621ZM246.269 18L243.389 13.936H244.669L247.565 18H246.269ZM239.805 14L239.277 13.44H242.781C243.901 13.44 244.749 13.1947 245.325 12.704C245.912 12.2133 246.205 11.5253 246.205 10.64C246.205 9.744 245.912 9.05067 245.325 8.56C244.749 8.06933 243.901 7.824 242.781 7.824H239.277L239.805 7.264V14ZM253.367 18.08C252.557 18.08 251.826 17.8987 251.175 17.536C250.535 17.1627 250.029 16.656 249.655 16.016C249.282 15.3653 249.095 14.624 249.095 13.792C249.095 12.9493 249.282 12.208 249.655 11.568C250.029 10.928 250.535 10.4267 251.175 10.064C251.815 9.70133 252.546 9.52 253.367 9.52C254.199 9.52 254.935 9.70133 255.575 10.064C256.226 10.4267 256.733 10.928 257.095 11.568C257.469 12.208 257.655 12.9493 257.655 13.792C257.655 14.624 257.469 15.3653 257.095 16.016C256.733 16.656 256.226 17.1627 255.575 17.536C254.925 17.8987 254.189 18.08 253.367 18.08ZM253.367 17.072C253.975 17.072 254.514 16.9387 254.983 16.672C255.453 16.3947 255.821 16.0107 256.087 15.52C256.365 15.0187 256.503 14.4427 256.503 13.792C256.503 13.1307 256.365 12.5547 256.087 12.064C255.821 11.5733 255.453 11.1947 254.983 10.928C254.514 10.6507 253.981 10.512 253.383 10.512C252.786 10.512 252.253 10.6507 251.783 10.928C251.314 11.1947 250.941 11.5733 250.663 12.064C250.386 12.5547 250.247 13.1307 250.247 13.792C250.247 14.4427 250.386 15.0187 250.663 15.52C250.941 16.0107 251.314 16.3947 251.783 16.672C252.253 16.9387 252.781 17.072 253.367 17.072ZM263.447 18.08C262.732 18.08 262.108 17.9467 261.575 17.68C261.041 17.4133 260.625 17.0133 260.327 16.48C260.039 15.9467 259.895 15.28 259.895 14.48V9.6H261.031V14.352C261.031 15.248 261.249 15.9253 261.687 16.384C262.135 16.832 262.759 17.056 263.559 17.056C264.145 17.056 264.652 16.9387 265.079 16.704C265.516 16.4587 265.847 16.1067 266.071 15.648C266.305 15.1893 266.423 14.64 266.423 14V9.6H267.559V18H266.471V15.696L266.647 16.112C266.38 16.7307 265.964 17.216 265.399 17.568C264.844 17.9093 264.193 18.08 263.447 18.08ZM275.013 9.52C275.695 9.52 276.293 9.65333 276.805 9.92C277.327 10.176 277.733 10.5707 278.021 11.104C278.319 11.6373 278.469 12.3093 278.469 13.12V18H277.333V13.232C277.333 12.3467 277.109 11.68 276.661 11.232C276.223 10.7733 275.605 10.544 274.805 10.544C274.207 10.544 273.685 10.6667 273.237 10.912C272.799 11.1467 272.458 11.4933 272.213 11.952C271.978 12.4 271.861 12.944 271.861 13.584V18H270.725V9.6H271.813V11.904L271.637 11.472C271.903 10.864 272.33 10.3893 272.917 10.048C273.503 9.696 274.202 9.52 275.013 9.52ZM284.881 18.08C284.081 18.08 283.361 17.8987 282.721 17.536C282.092 17.1733 281.596 16.672 281.233 16.032C280.87 15.3813 280.689 14.6347 280.689 13.792C280.689 12.9387 280.87 12.192 281.233 11.552C281.596 10.912 282.092 10.416 282.721 10.064C283.361 9.70133 284.081 9.52 284.881 9.52C285.617 9.52 286.273 9.68533 286.849 10.016C287.436 10.3467 287.9 10.832 288.241 11.472C288.593 12.1013 288.769 12.8747 288.769 13.792C288.769 14.6987 288.598 15.472 288.257 16.112C287.916 16.752 287.452 17.2427 286.865 17.584C286.289 17.9147 285.628 18.08 284.881 18.08ZM284.961 17.072C285.558 17.072 286.092 16.9387 286.561 16.672C287.041 16.3947 287.414 16.0107 287.681 15.52C287.958 15.0187 288.097 14.4427 288.097 13.792C288.097 13.1307 287.958 12.5547 287.681 12.064C287.414 11.5733 287.041 11.1947 286.561 10.928C286.092 10.6507 285.558 10.512 284.961 10.512C284.374 10.512 283.846 10.6507 283.377 10.928C282.908 11.1947 282.534 11.5733 282.257 12.064C281.98 12.5547 281.841 13.1307 281.841 13.792C281.841 14.4427 281.98 15.0187 282.257 15.52C282.534 16.0107 282.908 16.3947 283.377 16.672C283.846 16.9387 284.374 17.072 284.961 17.072ZM288.129 18V15.472L288.241 13.776L288.081 12.08V6.128H289.217V18H288.129ZM300.056 18.08C299.224 18.08 298.478 17.8987 297.816 17.536C297.166 17.1627 296.654 16.656 296.28 16.016C295.907 15.3653 295.72 14.624 295.72 13.792C295.72 12.9493 295.907 12.208 296.28 11.568C296.654 10.928 297.166 10.4267 297.816 10.064C298.478 9.70133 299.224 9.52 300.056 9.52C300.771 9.52 301.416 9.65867 301.992 9.936C302.568 10.2133 303.022 10.6293 303.352 11.184L302.504 11.76C302.216 11.3333 301.859 11.0187 301.432 10.816C301.006 10.6133 300.542 10.512 300.04 10.512C299.443 10.512 298.904 10.6507 298.424 10.928C297.944 11.1947 297.566 11.5733 297.288 12.064C297.011 12.5547 296.872 13.1307 296.872 13.792C296.872 14.4533 297.011 15.0293 297.288 15.52C297.566 16.0107 297.944 16.3947 298.424 16.672C298.904 16.9387 299.443 17.072 300.04 17.072C300.542 17.072 301.006 16.9707 301.432 16.768C301.859 16.5653 302.216 16.256 302.504 15.84L303.352 16.416C303.022 16.96 302.568 17.376 301.992 17.664C301.416 17.9413 300.771 18.08 300.056 18.08ZM309.056 18.08C308.341 18.08 307.717 17.9467 307.184 17.68C306.651 17.4133 306.235 17.0133 305.936 16.48C305.648 15.9467 305.504 15.28 305.504 14.48V9.6H306.64V14.352C306.64 15.248 306.859 15.9253 307.296 16.384C307.744 16.832 308.368 17.056 309.168 17.056C309.755 17.056 310.261 16.9387 310.688 16.704C311.125 16.4587 311.456 16.1067 311.68 15.648C311.915 15.1893 312.032 14.64 312.032 14V9.6H313.168V18H312.08V15.696L312.256 16.112C311.989 16.7307 311.573 17.216 311.008 17.568C310.453 17.9093 309.803 18.08 309.056 18.08ZM320.67 18.08C319.945 18.08 319.289 17.9147 318.702 17.584C318.115 17.2427 317.646 16.7573 317.294 16.128C316.953 15.488 316.782 14.7093 316.782 13.792C316.782 12.8747 316.953 12.1013 317.294 11.472C317.635 10.832 318.099 10.3467 318.686 10.016C319.273 9.68533 319.934 9.52 320.67 9.52C321.47 9.52 322.185 9.70133 322.814 10.064C323.454 10.416 323.955 10.9173 324.318 11.568C324.681 12.208 324.862 12.9493 324.862 13.792C324.862 14.6453 324.681 15.392 324.318 16.032C323.955 16.672 323.454 17.1733 322.814 17.536C322.185 17.8987 321.47 18.08 320.67 18.08ZM316.334 21.104V9.6H317.422V12.128L317.31 13.808L317.47 15.504V21.104H316.334ZM320.59 17.072C321.187 17.072 321.721 16.9387 322.19 16.672C322.659 16.3947 323.033 16.0107 323.31 15.52C323.587 15.0187 323.726 14.4427 323.726 13.792C323.726 13.1413 323.587 12.5707 323.31 12.08C323.033 11.5893 322.659 11.2053 322.19 10.928C321.721 10.6507 321.187 10.512 320.59 10.512C319.993 10.512 319.454 10.6507 318.974 10.928C318.505 11.2053 318.131 11.5893 317.854 12.08C317.587 12.5707 317.454 13.1413 317.454 13.792C317.454 14.4427 317.587 15.0187 317.854 15.52C318.131 16.0107 318.505 16.3947 318.974 16.672C319.454 16.9387 319.993 17.072 320.59 17.072ZM333.077 18L329.909 9.6H330.997L333.877 17.392H333.381L336.341 9.6H337.317L340.245 17.392H339.749L342.677 9.6H343.717L340.533 18H339.461L336.645 10.672H336.981L334.149 18H333.077ZM345.428 18V9.6H346.564V18H345.428ZM346.004 7.744C345.769 7.744 345.572 7.664 345.412 7.504C345.252 7.344 345.172 7.152 345.172 6.928C345.172 6.704 345.252 6.51733 345.412 6.368C345.572 6.208 345.769 6.128 346.004 6.128C346.238 6.128 346.436 6.20267 346.596 6.352C346.756 6.50133 346.836 6.688 346.836 6.912C346.836 7.14667 346.756 7.344 346.596 7.504C346.446 7.664 346.249 7.744 346.004 7.744ZM352.381 18.08C351.591 18.08 350.983 17.8667 350.557 17.44C350.13 17.0133 349.917 16.4107 349.917 15.632V7.744H351.053V15.568C351.053 16.0587 351.175 16.4373 351.421 16.704C351.677 16.9707 352.039 17.104 352.509 17.104C353.01 17.104 353.426 16.96 353.757 16.672L354.157 17.488C353.933 17.6907 353.661 17.84 353.341 17.936C353.031 18.032 352.711 18.08 352.381 18.08ZM348.413 10.544V9.6H353.613V10.544H348.413ZM360.513 9.52C361.195 9.52 361.793 9.65333 362.305 9.92C362.827 10.176 363.233 10.5707 363.521 11.104C363.819 11.6373 363.969 12.3093 363.969 13.12V18H362.833V13.232C362.833 12.3467 362.609 11.68 362.161 11.232C361.723 10.7733 361.105 10.544 360.305 10.544C359.707 10.544 359.185 10.6667 358.737 10.912C358.299 11.1467 357.958 11.4933 357.713 11.952C357.478 12.4 357.361 12.944 357.361 13.584V18H356.225V6.128H357.361V11.904L357.137 11.472C357.403 10.864 357.83 10.3893 358.417 10.048C359.003 9.696 359.702 9.52 360.513 9.52ZM30.8988 44L27.1867 35.52H28.7868L32.0828 43.2H31.3148L34.6748 35.52H36.1788L32.4668 44H30.8988ZM37.6123 44V35.52H39.1483V44H37.6123ZM38.3803 33.888C38.0816 33.888 37.8309 33.792 37.6283 33.6C37.4363 33.408 37.3403 33.1733 37.3403 32.896C37.3403 32.608 37.4363 32.368 37.6283 32.176C37.8309 31.984 38.0816 31.888 38.3803 31.888C38.6789 31.888 38.9243 31.984 39.1163 32.176C39.3189 32.3573 39.4203 32.5867 39.4203 32.864C39.4203 33.152 39.3243 33.3973 39.1323 33.6C38.9403 33.792 38.6896 33.888 38.3803 33.888ZM46.577 44.096C45.8517 44.096 45.1957 43.936 44.609 43.616C44.033 43.2853 43.5743 42.8 43.233 42.16C42.9023 41.52 42.737 40.72 42.737 39.76C42.737 38.8 42.9077 38 43.249 37.36C43.601 36.72 44.065 36.24 44.641 35.92C45.2277 35.6 45.873 35.44 46.577 35.44C47.409 35.44 48.145 35.6213 48.785 35.984C49.425 36.3467 49.9317 36.8533 50.305 37.504C50.6783 38.144 50.865 38.896 50.865 39.76C50.865 40.624 50.6783 41.3813 50.305 42.032C49.9317 42.6827 49.425 43.1893 48.785 43.552C48.145 43.9147 47.409 44.096 46.577 44.096ZM42.081 44V32.128H43.617V37.776L43.457 39.744L43.553 41.712V44H42.081ZM46.449 42.752C46.993 42.752 47.4783 42.6293 47.905 42.384C48.3423 42.1387 48.6837 41.792 48.929 41.344C49.185 40.8853 49.313 40.3573 49.313 39.76C49.313 39.152 49.185 38.6293 48.929 38.192C48.6837 37.744 48.3423 37.3973 47.905 37.152C47.4783 36.9067 46.993 36.784 46.449 36.784C45.9157 36.784 45.4303 36.9067 44.993 37.152C44.5663 37.3973 44.225 37.744 43.969 38.192C43.7237 38.6293 43.601 39.152 43.601 39.76C43.601 40.3573 43.7237 40.8853 43.969 41.344C44.225 41.792 44.5663 42.1387 44.993 42.384C45.4303 42.6293 45.9157 42.752 46.449 42.752ZM52.9873 44V35.52H54.4593V37.824L54.3153 37.248C54.5499 36.6613 54.9446 36.2133 55.4993 35.904C56.0539 35.5947 56.7366 35.44 57.5473 35.44V36.928C57.4833 36.9173 57.4193 36.912 57.3553 36.912C57.3019 36.912 57.2486 36.912 57.1953 36.912C56.3739 36.912 55.7233 37.1573 55.2433 37.648C54.7633 38.1387 54.5233 38.848 54.5233 39.776V44H52.9873ZM64.0794 44V42.208L63.9994 41.872V38.816C63.9994 38.1653 63.8074 37.664 63.4234 37.312C63.05 36.9493 62.4847 36.768 61.7274 36.768C61.226 36.768 60.7354 36.8533 60.2554 37.024C59.7754 37.184 59.37 37.4027 59.0394 37.68L58.3994 36.528C58.8367 36.176 59.3594 35.9093 59.9674 35.728C60.586 35.536 61.2314 35.44 61.9034 35.44C63.066 35.44 63.962 35.7227 64.5914 36.288C65.2207 36.8533 65.5354 37.7173 65.5354 38.88V44H64.0794ZM61.2954 44.096C60.666 44.096 60.1114 43.9893 59.6314 43.776C59.162 43.5627 58.7994 43.2693 58.5434 42.896C58.2874 42.512 58.1594 42.08 58.1594 41.6C58.1594 41.1413 58.266 40.7253 58.4794 40.352C58.7034 39.9787 59.0607 39.68 59.5514 39.456C60.0527 39.232 60.7247 39.12 61.5674 39.12H64.2554V40.224H61.6314C60.8634 40.224 60.346 40.352 60.0794 40.608C59.8127 40.864 59.6794 41.1733 59.6794 41.536C59.6794 41.952 59.8447 42.288 60.1754 42.544C60.506 42.7893 60.9647 42.912 61.5514 42.912C62.1274 42.912 62.6287 42.784 63.0554 42.528C63.4927 42.272 63.8074 41.8987 63.9994 41.408L64.3034 42.464C64.1007 42.9653 63.7434 43.3653 63.2314 43.664C62.7194 43.952 62.074 44.096 61.2954 44.096ZM72.9059 35.44C73.5992 35.44 74.2072 35.5733 74.7299 35.84C75.2632 36.1067 75.6792 36.512 75.9779 37.056C76.2765 37.6 76.4259 38.288 76.4259 39.12V44H74.8899V39.296C74.8899 38.4747 74.6872 37.856 74.2819 37.44C73.8872 37.024 73.3272 36.816 72.6019 36.816C72.0579 36.816 71.5832 36.9227 71.1779 37.136C70.7725 37.3493 70.4579 37.664 70.2339 38.08C70.0205 38.496 69.9139 39.0133 69.9139 39.632V44H68.3779V35.52H69.8499V37.808L69.6099 37.2C69.8872 36.6453 70.3139 36.2133 70.8899 35.904C71.4659 35.5947 72.1379 35.44 72.9059 35.44ZM82.1805 44.096C81.3272 44.096 80.6658 43.8667 80.1965 43.408C79.7272 42.9493 79.4925 42.2933 79.4925 41.44V33.664H81.0285V41.376C81.0285 41.8347 81.1405 42.1867 81.3645 42.432C81.5992 42.6773 81.9298 42.8 82.3565 42.8C82.8365 42.8 83.2365 42.6667 83.5565 42.4L84.0365 43.504C83.8018 43.7067 83.5192 43.856 83.1885 43.952C82.8685 44.048 82.5325 44.096 82.1805 44.096ZM78.0525 36.784V35.52H83.4605V36.784H78.0525ZM90.1904 44V32.128H91.7264V44H90.1904ZM99.9231 44V42.208L99.8431 41.872V38.816C99.8431 38.1653 99.6511 37.664 99.2671 37.312C98.8938 36.9493 98.3285 36.768 97.5711 36.768C97.0698 36.768 96.5791 36.8533 96.0991 37.024C95.6191 37.184 95.2138 37.4027 94.8831 37.68L94.2431 36.528C94.6805 36.176 95.2031 35.9093 95.8111 35.728C96.4298 35.536 97.0751 35.44 97.7471 35.44C98.9098 35.44 99.8058 35.7227 100.435 36.288C101.064 36.8533 101.379 37.7173 101.379 38.88V44H99.9231ZM97.1391 44.096C96.5098 44.096 95.9551 43.9893 95.4751 43.776C95.0058 43.5627 94.6431 43.2693 94.3871 42.896C94.1311 42.512 94.0031 42.08 94.0031 41.6C94.0031 41.1413 94.1098 40.7253 94.3231 40.352C94.5471 39.9787 94.9045 39.68 95.3951 39.456C95.8965 39.232 96.5685 39.12 97.4111 39.12H100.099V40.224H97.4751C96.7071 40.224 96.1898 40.352 95.9231 40.608C95.6565 40.864 95.5231 41.1733 95.5231 41.536C95.5231 41.952 95.6885 42.288 96.0191 42.544C96.3498 42.7893 96.8085 42.912 97.3951 42.912C97.9711 42.912 98.4725 42.784 98.8991 42.528C99.3365 42.272 99.6511 41.8987 99.8431 41.408L100.147 42.464C99.9445 42.9653 99.5871 43.3653 99.0751 43.664C98.5631 43.952 97.9178 44.096 97.1391 44.096ZM108.718 44.096C107.992 44.096 107.336 43.936 106.75 43.616C106.174 43.2853 105.715 42.8 105.374 42.16C105.043 41.52 104.878 40.72 104.878 39.76C104.878 38.8 105.048 38 105.39 37.36C105.742 36.72 106.206 36.24 106.782 35.92C107.368 35.6 108.014 35.44 108.718 35.44C109.55 35.44 110.286 35.6213 110.926 35.984C111.566 36.3467 112.072 36.8533 112.446 37.504C112.819 38.144 113.006 38.896 113.006 39.76C113.006 40.624 112.819 41.3813 112.446 42.032C112.072 42.6827 111.566 43.1893 110.926 43.552C110.286 43.9147 109.55 44.096 108.718 44.096ZM104.222 44V32.128H105.758V37.776L105.598 39.744L105.694 41.712V44H104.222ZM108.59 42.752C109.134 42.752 109.619 42.6293 110.046 42.384C110.483 42.1387 110.824 41.792 111.07 41.344C111.326 40.8853 111.454 40.3573 111.454 39.76C111.454 39.152 111.326 38.6293 111.07 38.192C110.824 37.744 110.483 37.3973 110.046 37.152C109.619 36.9067 109.134 36.784 108.59 36.784C108.056 36.784 107.571 36.9067 107.134 37.152C106.707 37.3973 106.366 37.744 106.11 38.192C105.864 38.6293 105.742 39.152 105.742 39.76C105.742 40.3573 105.864 40.8853 106.11 41.344C106.366 41.792 106.707 42.1387 107.134 42.384C107.571 42.6293 108.056 42.752 108.59 42.752ZM118.904 44.096C117.997 44.096 117.197 43.9093 116.504 43.536C115.821 43.1627 115.288 42.6507 114.904 42C114.531 41.3493 114.344 40.6027 114.344 39.76C114.344 38.9173 114.525 38.1707 114.888 37.52C115.261 36.8693 115.768 36.3627 116.408 36C117.059 35.6267 117.789 35.44 118.6 35.44C119.421 35.44 120.147 35.6213 120.776 35.984C121.405 36.3467 121.896 36.8587 122.248 37.52C122.611 38.1707 122.792 38.9333 122.792 39.808C122.792 39.872 122.787 39.9467 122.776 40.032C122.776 40.1173 122.771 40.1973 122.76 40.272H115.544V39.168H121.96L121.336 39.552C121.347 39.008 121.235 38.5227 121 38.096C120.765 37.6693 120.44 37.3387 120.024 37.104C119.619 36.8587 119.144 36.736 118.6 36.736C118.067 36.736 117.592 36.8587 117.176 37.104C116.76 37.3387 116.435 37.6747 116.2 38.112C115.965 38.5387 115.848 39.0293 115.848 39.584V39.84C115.848 40.4053 115.976 40.912 116.232 41.36C116.499 41.7973 116.867 42.1387 117.336 42.384C117.805 42.6293 118.344 42.752 118.952 42.752C119.453 42.752 119.907 42.6667 120.312 42.496C120.728 42.3253 121.091 42.0693 121.4 41.728L122.248 42.72C121.864 43.168 121.384 43.5093 120.808 43.744C120.243 43.9787 119.608 44.096 118.904 44.096ZM124.925 44V32.128H126.461V44H124.925ZM129.394 44V35.52H130.93V44H129.394ZM130.162 33.888C129.863 33.888 129.612 33.792 129.41 33.6C129.218 33.408 129.122 33.1733 129.122 32.896C129.122 32.608 129.218 32.368 129.41 32.176C129.612 31.984 129.863 31.888 130.162 31.888C130.46 31.888 130.706 31.984 130.898 32.176C131.1 32.3573 131.202 32.5867 131.202 32.864C131.202 33.152 131.106 33.3973 130.914 33.6C130.722 33.792 130.471 33.888 130.162 33.888ZM138.39 35.44C139.084 35.44 139.692 35.5733 140.214 35.84C140.748 36.1067 141.164 36.512 141.462 37.056C141.761 37.6 141.91 38.288 141.91 39.12V44H140.374V39.296C140.374 38.4747 140.172 37.856 139.766 37.44C139.372 37.024 138.812 36.816 138.086 36.816C137.542 36.816 137.068 36.9227 136.662 37.136C136.257 37.3493 135.942 37.664 135.718 38.08C135.505 38.496 135.398 39.0133 135.398 39.632V44H133.862V35.52H135.334V37.808L135.094 37.2C135.372 36.6453 135.798 36.2133 136.374 35.904C136.95 35.5947 137.622 35.44 138.39 35.44ZM148.465 47.2C147.686 47.2 146.929 47.088 146.193 46.864C145.468 46.6507 144.876 46.3413 144.417 45.936L145.153 44.752C145.548 45.0933 146.033 45.36 146.609 45.552C147.185 45.7547 147.788 45.856 148.417 45.856C149.42 45.856 150.156 45.6213 150.625 45.152C151.094 44.6827 151.329 43.968 151.329 43.008V41.216L151.489 39.536L151.409 37.84V35.52H152.865V42.848C152.865 44.3413 152.492 45.44 151.745 46.144C150.998 46.848 149.905 47.2 148.465 47.2ZM148.273 43.648C147.452 43.648 146.716 43.4773 146.065 43.136C145.425 42.784 144.913 42.2987 144.529 41.68C144.156 41.0613 143.969 40.3467 143.969 39.536C143.969 38.7147 144.156 38 144.529 37.392C144.913 36.7733 145.425 36.2933 146.065 35.952C146.716 35.6107 147.452 35.44 148.273 35.44C148.998 35.44 149.66 35.5893 150.257 35.888C150.854 36.176 151.329 36.624 151.681 37.232C152.044 37.84 152.225 38.608 152.225 39.536C152.225 40.4533 152.044 41.216 151.681 41.824C151.329 42.432 150.854 42.8907 150.257 43.2C149.66 43.4987 148.998 43.648 148.273 43.648ZM148.449 42.304C149.014 42.304 149.516 42.1867 149.953 41.952C150.39 41.7173 150.732 41.392 150.977 40.976C151.233 40.56 151.361 40.08 151.361 39.536C151.361 38.992 151.233 38.512 150.977 38.096C150.732 37.68 150.39 37.36 149.953 37.136C149.516 36.9013 149.014 36.784 148.449 36.784C147.884 36.784 147.377 36.9013 146.929 37.136C146.492 37.36 146.145 37.68 145.889 38.096C145.644 38.512 145.521 38.992 145.521 39.536C145.521 40.08 145.644 40.56 145.889 40.976C146.145 41.392 146.492 41.7173 146.929 41.952C147.377 42.1867 147.884 42.304 148.449 42.304ZM160.417 44V34.544C160.417 33.7973 160.635 33.1947 161.073 32.736C161.51 32.2773 162.139 32.048 162.961 32.048C163.281 32.048 163.59 32.0907 163.889 32.176C164.187 32.2613 164.438 32.3947 164.641 32.576L164.257 33.424C164.097 33.2853 163.91 33.184 163.697 33.12C163.483 33.0453 163.254 33.008 163.009 33.008C162.529 33.008 162.161 33.1413 161.905 33.408C161.649 33.6747 161.521 34.0693 161.521 34.592V35.872L161.553 36.4V44H160.417ZM158.913 36.544V35.6H164.113V36.544H158.913ZM168.93 44.08C168.119 44.08 167.389 43.8987 166.738 43.536C166.098 43.1627 165.591 42.656 165.218 42.016C164.845 41.3653 164.658 40.624 164.658 39.792C164.658 38.9493 164.845 38.208 165.218 37.568C165.591 36.928 166.098 36.4267 166.738 36.064C167.378 35.7013 168.109 35.52 168.93 35.52C169.762 35.52 170.498 35.7013 171.138 36.064C171.789 36.4267 172.295 36.928 172.658 37.568C173.031 38.208 173.218 38.9493 173.218 39.792C173.218 40.624 173.031 41.3653 172.658 42.016C172.295 42.656 171.789 43.1627 171.138 43.536C170.487 43.8987 169.751 44.08 168.93 44.08ZM168.93 43.072C169.538 43.072 170.077 42.9387 170.546 42.672C171.015 42.3947 171.383 42.0107 171.65 41.52C171.927 41.0187 172.066 40.4427 172.066 39.792C172.066 39.1307 171.927 38.5547 171.65 38.064C171.383 37.5733 171.015 37.1947 170.546 36.928C170.077 36.6507 169.543 36.512 168.946 36.512C168.349 36.512 167.815 36.6507 167.346 36.928C166.877 37.1947 166.503 37.5733 166.226 38.064C165.949 38.5547 165.81 39.1307 165.81 39.792C165.81 40.4427 165.949 41.0187 166.226 41.52C166.503 42.0107 166.877 42.3947 167.346 42.672C167.815 42.9387 168.343 43.072 168.93 43.072ZM175.537 44V35.6H176.625V37.888L176.513 37.488C176.748 36.848 177.142 36.3627 177.697 36.032C178.252 35.6907 178.94 35.52 179.761 35.52V36.624C179.718 36.624 179.676 36.624 179.633 36.624C179.59 36.6133 179.548 36.608 179.505 36.608C178.62 36.608 177.926 36.88 177.425 37.424C176.924 37.9573 176.673 38.72 176.673 39.712V44H175.537ZM190.515 44.096C189.811 44.096 189.165 43.936 188.579 43.616C188.003 43.2853 187.539 42.8 187.187 42.16C186.845 41.52 186.674 40.72 186.674 39.76C186.674 38.8 186.84 38 187.171 37.36C187.512 36.72 187.971 36.24 188.547 35.92C189.133 35.6 189.789 35.44 190.515 35.44C191.347 35.44 192.083 35.6213 192.723 35.984C193.363 36.3467 193.869 36.8533 194.243 37.504C194.616 38.144 194.803 38.896 194.803 39.76C194.803 40.624 194.616 41.3813 194.243 42.032C193.869 42.6827 193.363 43.1893 192.723 43.552C192.083 43.9147 191.347 44.096 190.515 44.096ZM186.019 47.104V35.52H187.491V37.808L187.395 39.776L187.555 41.744V47.104H186.019ZM190.387 42.752C190.931 42.752 191.416 42.6293 191.843 42.384C192.28 42.1387 192.621 41.792 192.867 41.344C193.123 40.8853 193.251 40.3573 193.251 39.76C193.251 39.152 193.123 38.6293 192.867 38.192C192.621 37.744 192.28 37.3973 191.843 37.152C191.416 36.9067 190.931 36.784 190.387 36.784C189.853 36.784 189.368 36.9067 188.931 37.152C188.504 37.3973 188.163 37.744 187.907 38.192C187.661 38.6293 187.539 39.152 187.539 39.76C187.539 40.3573 187.661 40.8853 187.907 41.344C188.163 41.792 188.504 42.1387 188.931 42.384C189.368 42.6293 189.853 42.752 190.387 42.752ZM196.925 44V35.52H198.397V37.824L198.253 37.248C198.487 36.6613 198.882 36.2133 199.437 35.904C199.991 35.5947 200.674 35.44 201.485 35.44V36.928C201.421 36.9173 201.357 36.912 201.293 36.912C201.239 36.912 201.186 36.912 201.133 36.912C200.311 36.912 199.661 37.1573 199.181 37.648C198.701 38.1387 198.461 38.848 198.461 39.776V44H196.925ZM207.076 44.096C206.169 44.096 205.369 43.9093 204.676 43.536C203.993 43.1627 203.46 42.6507 203.076 42C202.702 41.3493 202.516 40.6027 202.516 39.76C202.516 38.9173 202.697 38.1707 203.06 37.52C203.433 36.8693 203.94 36.3627 204.58 36C205.23 35.6267 205.961 35.44 206.772 35.44C207.593 35.44 208.318 35.6213 208.948 35.984C209.577 36.3467 210.068 36.8587 210.42 37.52C210.782 38.1707 210.964 38.9333 210.964 39.808C210.964 39.872 210.958 39.9467 210.948 40.032C210.948 40.1173 210.942 40.1973 210.932 40.272H203.716V39.168H210.132L209.508 39.552C209.518 39.008 209.406 38.5227 209.172 38.096C208.937 37.6693 208.612 37.3387 208.196 37.104C207.79 36.8587 207.316 36.736 206.772 36.736C206.238 36.736 205.764 36.8587 205.348 37.104C204.932 37.3387 204.606 37.6747 204.372 38.112C204.137 38.5387 204.02 39.0293 204.02 39.584V39.84C204.02 40.4053 204.148 40.912 204.404 41.36C204.67 41.7973 205.038 42.1387 205.508 42.384C205.977 42.6293 206.516 42.752 207.124 42.752C207.625 42.752 208.078 42.6667 208.484 42.496C208.9 42.3253 209.262 42.0693 209.572 41.728L210.42 42.72C210.036 43.168 209.556 43.5093 208.98 43.744C208.414 43.9787 207.78 44.096 207.076 44.096ZM223.705 35.44C224.387 35.44 224.99 35.5733 225.513 35.84C226.035 36.1067 226.441 36.512 226.729 37.056C227.027 37.6 227.177 38.288 227.177 39.12V44H225.641V39.296C225.641 38.4747 225.449 37.856 225.065 37.44C224.681 37.024 224.142 36.816 223.449 36.816C222.937 36.816 222.489 36.9227 222.105 37.136C221.721 37.3493 221.422 37.664 221.209 38.08C221.006 38.496 220.905 39.0133 220.905 39.632V44H219.369V39.296C219.369 38.4747 219.177 37.856 218.793 37.44C218.419 37.024 217.881 36.816 217.177 36.816C216.675 36.816 216.233 36.9227 215.849 37.136C215.465 37.3493 215.166 37.664 214.953 38.08C214.739 38.496 214.633 39.0133 214.633 39.632V44H213.097V35.52H214.569V37.776L214.329 37.2C214.595 36.6453 215.006 36.2133 215.561 35.904C216.115 35.5947 216.761 35.44 217.497 35.44C218.307 35.44 219.006 35.6427 219.593 36.048C220.179 36.4427 220.563 37.0453 220.745 37.856L220.121 37.6C220.377 36.9493 220.825 36.4267 221.465 36.032C222.105 35.6373 222.851 35.44 223.705 35.44ZM230.003 44V35.52H231.539V44H230.003ZM230.771 33.888C230.472 33.888 230.222 33.792 230.019 33.6C229.827 33.408 229.731 33.1733 229.731 32.896C229.731 32.608 229.827 32.368 230.019 32.176C230.222 31.984 230.472 31.888 230.771 31.888C231.07 31.888 231.315 31.984 231.507 32.176C231.71 32.3573 231.811 32.5867 231.811 32.864C231.811 33.152 231.715 33.3973 231.523 33.6C231.331 33.792 231.08 33.888 230.771 33.888ZM238.04 44.096C237.314 44.096 236.674 43.9627 236.12 43.696C235.576 43.4293 235.149 43.024 234.84 42.48C234.541 41.9253 234.392 41.232 234.392 40.4V35.52H235.928V40.224C235.928 41.056 236.125 41.68 236.52 42.096C236.925 42.512 237.49 42.72 238.216 42.72C238.749 42.72 239.213 42.6133 239.608 42.4C240.002 42.176 240.306 41.856 240.52 41.44C240.733 41.0133 240.84 40.5013 240.84 39.904V35.52H242.376V44H240.92V41.712L241.16 42.32C240.882 42.8853 240.466 43.3227 239.912 43.632C239.357 43.9413 238.733 44.096 238.04 44.096ZM255.908 35.44C256.59 35.44 257.193 35.5733 257.716 35.84C258.238 36.1067 258.644 36.512 258.932 37.056C259.23 37.6 259.38 38.288 259.38 39.12V44H257.844V39.296C257.844 38.4747 257.652 37.856 257.268 37.44C256.884 37.024 256.345 36.816 255.652 36.816C255.14 36.816 254.692 36.9227 254.308 37.136C253.924 37.3493 253.625 37.664 253.412 38.08C253.209 38.496 253.108 39.0133 253.108 39.632V44H251.572V39.296C251.572 38.4747 251.38 37.856 250.996 37.44C250.622 37.024 250.084 36.816 249.38 36.816C248.878 36.816 248.436 36.9227 248.052 37.136C247.668 37.3493 247.369 37.664 247.156 38.08C246.942 38.496 246.836 39.0133 246.836 39.632V44H245.3V35.52H246.772V37.776L246.532 37.2C246.798 36.6453 247.209 36.2133 247.764 35.904C248.318 35.5947 248.964 35.44 249.7 35.44C250.51 35.44 251.209 35.6427 251.796 36.048C252.382 36.4427 252.766 37.0453 252.948 37.856L252.324 37.6C252.58 36.9493 253.028 36.4267 253.668 36.032C254.308 35.6373 255.054 35.44 255.908 35.44ZM270.999 44.096C270.295 44.096 269.65 43.936 269.063 43.616C268.487 43.2853 268.023 42.8 267.671 42.16C267.33 41.52 267.159 40.72 267.159 39.76C267.159 38.8 267.324 38 267.655 37.36C267.996 36.72 268.455 36.24 269.031 35.92C269.618 35.6 270.274 35.44 270.999 35.44C271.831 35.44 272.567 35.6213 273.207 35.984C273.847 36.3467 274.354 36.8533 274.727 37.504C275.1 38.144 275.287 38.896 275.287 39.76C275.287 40.624 275.1 41.3813 274.727 42.032C274.354 42.6827 273.847 43.1893 273.207 43.552C272.567 43.9147 271.831 44.096 270.999 44.096ZM266.503 47.104V35.52H267.975V37.808L267.879 39.776L268.039 41.744V47.104H266.503ZM270.871 42.752C271.415 42.752 271.9 42.6293 272.327 42.384C272.764 42.1387 273.106 41.792 273.351 41.344C273.607 40.8853 273.735 40.3573 273.735 39.76C273.735 39.152 273.607 38.6293 273.351 38.192C273.106 37.744 272.764 37.3973 272.327 37.152C271.9 36.9067 271.415 36.784 270.871 36.784C270.338 36.784 269.852 36.9067 269.415 37.152C268.988 37.3973 268.647 37.744 268.391 38.192C268.146 38.6293 268.023 39.152 268.023 39.76C268.023 40.3573 268.146 40.8853 268.391 41.344C268.647 41.792 268.988 42.1387 269.415 42.384C269.852 42.6293 270.338 42.752 270.871 42.752ZM277.409 44V35.52H278.881V37.824L278.737 37.248C278.972 36.6613 279.366 36.2133 279.921 35.904C280.476 35.5947 281.158 35.44 281.969 35.44V36.928C281.905 36.9173 281.841 36.912 281.777 36.912C281.724 36.912 281.67 36.912 281.617 36.912C280.796 36.912 280.145 37.1573 279.665 37.648C279.185 38.1387 278.945 38.848 278.945 39.776V44H277.409ZM287.56 44.096C286.653 44.096 285.853 43.9093 285.16 43.536C284.477 43.1627 283.944 42.6507 283.56 42C283.187 41.3493 283 40.6027 283 39.76C283 38.9173 283.181 38.1707 283.544 37.52C283.917 36.8693 284.424 36.3627 285.064 36C285.715 35.6267 286.445 35.44 287.256 35.44C288.077 35.44 288.803 35.6213 289.432 35.984C290.061 36.3467 290.552 36.8587 290.904 37.52C291.267 38.1707 291.448 38.9333 291.448 39.808C291.448 39.872 291.443 39.9467 291.432 40.032C291.432 40.1173 291.427 40.1973 291.416 40.272H284.2V39.168H290.616L289.992 39.552C290.003 39.008 289.891 38.5227 289.656 38.096C289.421 37.6693 289.096 37.3387 288.68 37.104C288.275 36.8587 287.8 36.736 287.256 36.736C286.723 36.736 286.248 36.8587 285.832 37.104C285.416 37.3387 285.091 37.6747 284.856 38.112C284.621 38.5387 284.504 39.0293 284.504 39.584V39.84C284.504 40.4053 284.632 40.912 284.888 41.36C285.155 41.7973 285.523 42.1387 285.992 42.384C286.461 42.6293 287 42.752 287.608 42.752C288.109 42.752 288.563 42.6667 288.968 42.496C289.384 42.3253 289.747 42.0693 290.056 41.728L290.904 42.72C290.52 43.168 290.04 43.5093 289.464 43.744C288.899 43.9787 288.264 44.096 287.56 44.096ZM296.013 44.096C295.309 44.096 294.637 44 293.997 43.808C293.368 43.616 292.872 43.3813 292.509 43.104L293.149 41.888C293.512 42.1333 293.96 42.3413 294.493 42.512C295.026 42.6827 295.57 42.768 296.125 42.768C296.84 42.768 297.352 42.6667 297.661 42.464C297.981 42.2613 298.141 41.9787 298.141 41.616C298.141 41.3493 298.045 41.1413 297.853 40.992C297.661 40.8427 297.405 40.7307 297.085 40.656C296.776 40.5813 296.429 40.5173 296.045 40.464C295.661 40.4 295.277 40.3253 294.893 40.24C294.509 40.144 294.157 40.016 293.837 39.856C293.517 39.6853 293.261 39.456 293.069 39.168C292.877 38.8693 292.781 38.4747 292.781 37.984C292.781 37.472 292.925 37.024 293.213 36.64C293.501 36.256 293.906 35.9627 294.429 35.76C294.962 35.5467 295.592 35.44 296.317 35.44C296.872 35.44 297.432 35.5093 297.997 35.648C298.573 35.776 299.042 35.9627 299.405 36.208L298.749 37.424C298.365 37.168 297.965 36.992 297.549 36.896C297.133 36.8 296.717 36.752 296.301 36.752C295.629 36.752 295.128 36.864 294.797 37.088C294.466 37.3013 294.301 37.5787 294.301 37.92C294.301 38.208 294.397 38.432 294.589 38.592C294.792 38.7413 295.048 38.8587 295.357 38.944C295.677 39.0293 296.029 39.104 296.413 39.168C296.797 39.2213 297.181 39.296 297.565 39.392C297.949 39.4773 298.296 39.6 298.605 39.76C298.925 39.92 299.181 40.144 299.373 40.432C299.576 40.72 299.677 41.104 299.677 41.584C299.677 42.096 299.528 42.5387 299.229 42.912C298.93 43.2853 298.509 43.5787 297.965 43.792C297.421 43.9947 296.77 44.096 296.013 44.096ZM305.373 44.096C304.466 44.096 303.666 43.9093 302.973 43.536C302.29 43.1627 301.757 42.6507 301.373 42C300.999 41.3493 300.813 40.6027 300.813 39.76C300.813 38.9173 300.994 38.1707 301.357 37.52C301.73 36.8693 302.237 36.3627 302.877 36C303.527 35.6267 304.258 35.44 305.069 35.44C305.89 35.44 306.615 35.6213 307.245 35.984C307.874 36.3467 308.365 36.8587 308.717 37.52C309.079 38.1707 309.261 38.9333 309.261 39.808C309.261 39.872 309.255 39.9467 309.245 40.032C309.245 40.1173 309.239 40.1973 309.229 40.272H302.013V39.168H308.429L307.805 39.552C307.815 39.008 307.703 38.5227 307.469 38.096C307.234 37.6693 306.909 37.3387 306.493 37.104C306.087 36.8587 305.613 36.736 305.069 36.736C304.535 36.736 304.061 36.8587 303.645 37.104C303.229 37.3387 302.903 37.6747 302.669 38.112C302.434 38.5387 302.317 39.0293 302.317 39.584V39.84C302.317 40.4053 302.445 40.912 302.701 41.36C302.967 41.7973 303.335 42.1387 303.805 42.384C304.274 42.6293 304.813 42.752 305.421 42.752C305.922 42.752 306.375 42.6667 306.781 42.496C307.197 42.3253 307.559 42.0693 307.869 41.728L308.717 42.72C308.333 43.168 307.853 43.5093 307.277 43.744C306.711 43.9787 306.077 44.096 305.373 44.096ZM315.922 35.44C316.615 35.44 317.223 35.5733 317.746 35.84C318.279 36.1067 318.695 36.512 318.994 37.056C319.292 37.6 319.442 38.288 319.442 39.12V44H317.906V39.296C317.906 38.4747 317.703 37.856 317.298 37.44C316.903 37.024 316.343 36.816 315.618 36.816C315.074 36.816 314.599 36.9227 314.194 37.136C313.788 37.3493 313.474 37.664 313.25 38.08C313.036 38.496 312.93 39.0133 312.93 39.632V44H311.394V35.52H312.866V37.808L312.626 37.2C312.903 36.6453 313.33 36.2133 313.906 35.904C314.482 35.5947 315.154 35.44 315.922 35.44ZM325.196 44.096C324.343 44.096 323.681 43.8667 323.212 43.408C322.743 42.9493 322.508 42.2933 322.508 41.44V33.664H324.044V41.376C324.044 41.8347 324.156 42.1867 324.38 42.432C324.615 42.6773 324.945 42.8 325.372 42.8C325.852 42.8 326.252 42.6667 326.572 42.4L327.052 43.504C326.817 43.7067 326.535 43.856 326.204 43.952C325.884 44.048 325.548 44.096 325.196 44.096ZM321.068 36.784V35.52H326.476V36.784H321.068ZM334.173 44V42.208L334.093 41.872V38.816C334.093 38.1653 333.901 37.664 333.517 37.312C333.144 36.9493 332.578 36.768 331.821 36.768C331.32 36.768 330.829 36.8533 330.349 37.024C329.869 37.184 329.464 37.4027 329.133 37.68L328.493 36.528C328.93 36.176 329.453 35.9093 330.061 35.728C330.68 35.536 331.325 35.44 331.997 35.44C333.16 35.44 334.056 35.7227 334.685 36.288C335.314 36.8533 335.629 37.7173 335.629 38.88V44H334.173ZM331.389 44.096C330.76 44.096 330.205 43.9893 329.725 43.776C329.256 43.5627 328.893 43.2693 328.637 42.896C328.381 42.512 328.253 42.08 328.253 41.6C328.253 41.1413 328.36 40.7253 328.573 40.352C328.797 39.9787 329.154 39.68 329.645 39.456C330.146 39.232 330.818 39.12 331.661 39.12H334.349V40.224H331.725C330.957 40.224 330.44 40.352 330.173 40.608C329.906 40.864 329.773 41.1733 329.773 41.536C329.773 41.952 329.938 42.288 330.269 42.544C330.6 42.7893 331.058 42.912 331.645 42.912C332.221 42.912 332.722 42.784 333.149 42.528C333.586 42.272 333.901 41.8987 334.093 41.408L334.397 42.464C334.194 42.9653 333.837 43.3653 333.325 43.664C332.813 43.952 332.168 44.096 331.389 44.096ZM341.384 44.096C340.53 44.096 339.869 43.8667 339.4 43.408C338.93 42.9493 338.696 42.2933 338.696 41.44V33.664H340.232V41.376C340.232 41.8347 340.344 42.1867 340.568 42.432C340.802 42.6773 341.133 42.8 341.56 42.8C342.04 42.8 342.44 42.6667 342.76 42.4L343.24 43.504C343.005 43.7067 342.722 43.856 342.392 43.952C342.072 44.048 341.736 44.096 341.384 44.096ZM337.256 36.784V35.52H342.664V36.784H337.256ZM345.097 44V35.52H346.633V44H345.097ZM345.865 33.888C345.566 33.888 345.315 33.792 345.113 33.6C344.921 33.408 344.825 33.1733 344.825 32.896C344.825 32.608 344.921 32.368 345.113 32.176C345.315 31.984 345.566 31.888 345.865 31.888C346.163 31.888 346.409 31.984 346.601 32.176C346.803 32.3573 346.905 32.5867 346.905 32.864C346.905 33.152 346.809 33.3973 346.617 33.6C346.425 33.792 346.174 33.888 345.865 33.888ZM353.197 44.096C352.344 44.096 351.587 43.9093 350.925 43.536C350.264 43.1627 349.741 42.6507 349.357 42C348.973 41.3387 348.781 40.592 348.781 39.76C348.781 38.9173 348.973 38.1707 349.357 37.52C349.741 36.8693 350.264 36.3627 350.925 36C351.587 35.6267 352.344 35.44 353.197 35.44C354.04 35.44 354.792 35.6267 355.453 36C356.125 36.3627 356.648 36.8693 357.021 37.52C357.405 38.16 357.597 38.9067 357.597 39.76C357.597 40.6027 357.405 41.3493 357.021 42C356.648 42.6507 356.125 43.1627 355.453 43.536C354.792 43.9093 354.04 44.096 353.197 44.096ZM353.197 42.752C353.741 42.752 354.227 42.6293 354.653 42.384C355.091 42.1387 355.432 41.792 355.677 41.344C355.923 40.8853 356.045 40.3573 356.045 39.76C356.045 39.152 355.923 38.6293 355.677 38.192C355.432 37.744 355.091 37.3973 354.653 37.152C354.227 36.9067 353.741 36.784 353.197 36.784C352.653 36.784 352.168 36.9067 351.741 37.152C351.315 37.3973 350.973 37.744 350.717 38.192C350.461 38.6293 350.333 39.152 350.333 39.76C350.333 40.3573 350.461 40.8853 350.717 41.344C350.973 41.792 351.315 42.1387 351.741 42.384C352.168 42.6293 352.653 42.752 353.197 42.752ZM364.25 35.44C364.943 35.44 365.551 35.5733 366.074 35.84C366.607 36.1067 367.023 36.512 367.322 37.056C367.62 37.6 367.77 38.288 367.77 39.12V44H366.234V39.296C366.234 38.4747 366.031 37.856 365.626 37.44C365.231 37.024 364.671 36.816 363.946 36.816C363.402 36.816 362.927 36.9227 362.522 37.136C362.116 37.3493 361.802 37.664 361.578 38.08C361.364 38.496 361.258 39.0133 361.258 39.632V44H359.722V35.52H361.194V37.808L360.954 37.2C361.231 36.6453 361.658 36.2133 362.234 35.904C362.81 35.5947 363.482 35.44 364.25 35.44ZM370.98 44.096C370.682 44.096 370.426 43.9947 370.212 43.792C369.999 43.5787 369.892 43.312 369.892 42.992C369.892 42.672 369.999 42.4107 370.212 42.208C370.426 42.0053 370.682 41.904 370.98 41.904C371.268 41.904 371.514 42.0053 371.716 42.208C371.93 42.4107 372.036 42.672 372.036 42.992C372.036 43.312 371.93 43.5787 371.716 43.792C371.514 43.9947 371.268 44.096 370.98 44.096Z" fill="black"/>
</svg>
