<svg width="327" height="69" viewBox="0 0 327 69" fill="none" xmlns="http://www.w3.org/2000/svg">
<path d="M4.83979 13.8134C3.87674 13.8134 2.95581 13.6689 2.07703 13.38C1.19824 13.0791 0.50604 12.6939 0.000435403 12.2244L0.668556 10.8159C1.15008 11.2372 1.76403 11.5863 2.5104 11.8632C3.25677 12.1401 4.03323 12.2785 4.83979 12.2785C5.57412 12.2785 6.17001 12.1943 6.62747 12.0257C7.08492 11.8572 7.42199 11.6285 7.63867 11.3396C7.85536 11.0386 7.96371 10.7015 7.96371 10.3283C7.96371 9.89497 7.81925 9.54586 7.53033 9.28102C7.25345 9.01618 6.88629 8.80551 6.42883 8.64902C5.98342 8.48048 5.48986 8.33602 4.94814 8.21564C4.40642 8.09526 3.85868 7.95682 3.30492 7.80032C2.7632 7.63179 2.26362 7.42112 1.80617 7.16832C1.36075 6.91551 0.999606 6.57845 0.722727 6.15711C0.445849 5.72373 0.30741 5.16998 0.30741 4.49584C0.30741 3.84577 0.475944 3.24988 0.813014 2.70816C1.16212 2.15441 1.6918 1.71501 2.40206 1.38998C3.12435 1.05291 4.03925 0.884376 5.14677 0.884376C5.8811 0.884376 6.60941 0.980682 7.3317 1.17329C8.05399 1.3659 8.67998 1.64278 9.20966 2.00393L8.61377 3.44851C8.07205 3.08737 7.50023 2.82855 6.89832 2.67205C6.29641 2.50351 5.71256 2.41925 5.14677 2.41925C4.43651 2.41925 3.85266 2.50953 3.39521 2.69011C2.93776 2.87068 2.60069 3.11144 2.384 3.4124C2.17935 3.71335 2.07703 4.05042 2.07703 4.42361C2.07703 4.86902 2.21546 5.22415 2.49234 5.48899C2.78126 5.75383 3.14842 5.9645 3.59384 6.12099C4.05129 6.27749 4.55088 6.42195 5.09259 6.55437C5.63431 6.67475 6.17603 6.81319 6.71775 6.96969C7.27151 7.12618 7.77109 7.33083 8.21651 7.58363C8.67396 7.83644 9.04112 8.17351 9.318 8.59484C9.59488 9.01618 9.73332 9.5579 9.73332 10.22C9.73332 10.858 9.55877 11.4539 9.20966 12.0077C8.86055 12.5494 8.31883 12.9888 7.5845 13.3259C6.86221 13.6509 5.94731 13.8134 4.83979 13.8134ZM15.405 13.7773C14.4419 13.7773 13.6956 13.5185 13.1659 13.0008C12.6362 12.4832 12.3714 11.7428 12.3714 10.7798V2.00393H14.1049V10.7075C14.1049 11.2252 14.2313 11.6225 14.4841 11.8993C14.7489 12.1762 15.1221 12.3146 15.6036 12.3146C16.1454 12.3146 16.5968 12.1642 16.9579 11.8632L17.4997 13.1092C17.2348 13.3379 16.9158 13.5064 16.5426 13.6148C16.1815 13.7231 15.8023 13.7773 15.405 13.7773ZM10.7462 5.5251V4.09858H16.8496V5.5251H10.7462ZM19.5954 13.6689V4.09858H21.2567V6.69883L21.0942 6.04876C21.359 5.38666 21.8044 4.88106 22.4304 4.53195C23.0564 4.18284 23.8269 4.00829 24.7418 4.00829V5.68762C24.6695 5.67558 24.5973 5.66956 24.5251 5.66956C24.4649 5.66956 24.4047 5.66956 24.3445 5.66956C23.4176 5.66956 22.6832 5.94644 22.1415 6.5002C21.5998 7.05395 21.3289 7.85449 21.3289 8.90182V13.6689H19.5954ZM30.8891 13.7773C29.9261 13.7773 29.0714 13.5666 28.325 13.1453C27.5786 12.7239 26.9888 12.1461 26.5554 11.4118C26.122 10.6654 25.9053 9.82274 25.9053 8.88376C25.9053 7.93274 26.122 7.09007 26.5554 6.35574C26.9888 5.62141 27.5786 5.04959 28.325 4.6403C29.0714 4.21896 29.9261 4.00829 30.8891 4.00829C31.8402 4.00829 32.6889 4.21896 33.4352 4.6403C34.1936 5.04959 34.7835 5.62141 35.2048 6.35574C35.6382 7.07803 35.8549 7.9207 35.8549 8.88376C35.8549 9.83478 35.6382 10.6775 35.2048 11.4118C34.7835 12.1461 34.1936 12.7239 33.4352 13.1453C32.6889 13.5666 31.8402 13.7773 30.8891 13.7773ZM30.8891 12.2605C31.5031 12.2605 32.0508 12.122 32.5324 11.8452C33.0259 11.5683 33.4111 11.177 33.688 10.6714C33.9649 10.1538 34.1033 9.5579 34.1033 8.88376C34.1033 8.19758 33.9649 7.60771 33.688 7.11415C33.4111 6.60854 33.0259 6.2173 32.5324 5.94042C32.0508 5.66354 31.5031 5.5251 30.8891 5.5251C30.2752 5.5251 29.7275 5.66354 29.2459 5.94042C28.7644 6.2173 28.3792 6.60854 28.0903 7.11415C27.8013 7.60771 27.6569 8.19758 27.6569 8.88376C27.6569 9.5579 27.8013 10.1538 28.0903 10.6714C28.3792 11.177 28.7644 11.5683 29.2459 11.8452C29.7275 12.122 30.2752 12.2605 30.8891 12.2605ZM43.3625 4.00829C44.145 4.00829 44.8312 4.15877 45.421 4.45972C46.0229 4.76068 46.4924 5.21813 46.8295 5.83208C47.1666 6.44602 47.3351 7.22249 47.3351 8.16147V13.6689H45.6016V8.3601C45.6016 7.43316 45.3729 6.73494 44.9154 6.26545C44.47 5.79596 43.838 5.56122 43.0194 5.56122C42.4055 5.56122 41.8698 5.6816 41.4123 5.92236C40.9549 6.16313 40.5997 6.51825 40.3469 6.98774C40.1062 7.45723 39.9858 8.04109 39.9858 8.7393V13.6689H38.2523V4.09858H39.9136V6.68077L39.6427 5.99459C39.9557 5.36861 40.4372 4.88106 41.0873 4.53195C41.7373 4.18284 42.4958 4.00829 43.3625 4.00829ZM54.7325 17.2804C53.8537 17.2804 52.999 17.154 52.1684 16.9012C51.3498 16.6604 50.6817 16.3113 50.164 15.8539L50.9947 14.5176C51.4401 14.9029 51.9878 15.2038 52.6379 15.4205C53.288 15.6492 53.9681 15.7636 54.6784 15.7636C55.81 15.7636 56.6406 15.4988 57.1703 14.9691C57.7 14.4394 57.9648 13.6328 57.9648 12.5494V10.527L58.1454 8.63096L58.0551 6.71688V4.09858H59.6983V12.3688C59.6983 14.0542 59.277 15.2941 58.4343 16.0886C57.5916 16.8831 56.3577 17.2804 54.7325 17.2804ZM54.5158 13.2717C53.5889 13.2717 52.7583 13.0791 52.0239 12.6939C51.3016 12.2966 50.7238 11.7489 50.2904 11.0506C49.8691 10.3524 49.6584 9.54586 49.6584 8.63096C49.6584 7.70402 49.8691 6.89746 50.2904 6.21128C50.7238 5.51306 51.3016 4.97135 52.0239 4.58612C52.7583 4.2009 53.5889 4.00829 54.5158 4.00829C55.3344 4.00829 56.0808 4.17682 56.755 4.51389C57.4291 4.83892 57.9648 5.34453 58.3621 6.03071C58.7714 6.71688 58.976 7.58363 58.976 8.63096C58.976 9.66624 58.7714 10.527 58.3621 11.2132C57.9648 11.8993 57.4291 12.417 56.755 12.7661C56.0808 13.1031 55.3344 13.2717 54.5158 13.2717ZM54.7145 11.7549C55.3525 11.7549 55.9183 11.6225 56.4119 11.3576C56.9054 11.0928 57.2907 10.7256 57.5675 10.2561C57.8564 9.78663 58.0009 9.24491 58.0009 8.63096C58.0009 8.01701 57.8564 7.47529 57.5675 7.0058C57.2907 6.53631 56.9054 6.17517 56.4119 5.92236C55.9183 5.65752 55.3525 5.5251 54.7145 5.5251C54.0765 5.5251 53.5046 5.65752 52.999 5.92236C52.5055 6.17517 52.1142 6.53631 51.8253 7.0058C51.5484 7.47529 51.41 8.01701 51.41 8.63096C51.41 9.24491 51.5484 9.78663 51.8253 10.2561C52.1142 10.7256 52.5055 11.0928 52.999 11.3576C53.5046 11.6225 54.0765 11.7549 54.7145 11.7549ZM73.8008 13.6689V11.6465L73.7105 11.2673V7.81838C73.7105 7.08405 73.4938 6.51825 73.0604 6.12099C72.6391 5.71169 72.0011 5.50705 71.1463 5.50705C70.5805 5.50705 70.0268 5.60335 69.4851 5.79596C68.9434 5.97653 68.4859 6.22332 68.1127 6.53631L67.3904 5.23619C67.884 4.83893 68.4739 4.53797 69.16 4.33332C69.8583 4.11663 70.5866 4.00829 71.345 4.00829C72.6571 4.00829 73.6683 4.3273 74.3786 4.96533C75.0889 5.60335 75.444 6.57844 75.444 7.89061V13.6689H73.8008ZM70.6588 13.7773C69.9485 13.7773 69.3226 13.6569 68.7808 13.4161C68.2512 13.1754 67.8419 12.8443 67.5529 12.423C67.264 11.9896 67.1196 11.5021 67.1196 10.9604C67.1196 10.4427 67.2399 9.97322 67.4807 9.55188C67.7335 9.13054 68.1368 8.79347 68.6905 8.54067C69.2563 8.28787 70.0148 8.16147 70.9658 8.16147H73.9994V9.40742H71.038C70.1712 9.40742 69.5874 9.55188 69.2864 9.8408C68.9855 10.1297 68.835 10.4788 68.835 10.8881C68.835 11.3576 69.0216 11.7368 69.3948 12.0257C69.768 12.3026 70.2856 12.441 70.9477 12.441C71.5978 12.441 72.1636 12.2966 72.6451 12.0077C73.1387 11.7188 73.4938 11.2974 73.7105 10.7437L74.0536 11.9354C73.8248 12.5012 73.4216 12.9527 72.8437 13.2897C72.2659 13.6148 71.5376 13.7773 70.6588 13.7773ZM83.7622 4.00829C84.5447 4.00829 85.2308 4.15877 85.8207 4.45972C86.4226 4.76068 86.8921 5.21813 87.2292 5.83208C87.5663 6.44602 87.7348 7.22249 87.7348 8.16147V13.6689H86.0013V8.3601C86.0013 7.43316 85.7726 6.73494 85.3151 6.26545C84.8697 5.79596 84.2377 5.56122 83.4191 5.56122C82.8052 5.56122 82.2695 5.6816 81.812 5.92236C81.3545 6.16313 80.9994 6.51825 80.7466 6.98774C80.5059 7.45723 80.3855 8.04109 80.3855 8.7393V13.6689H78.652V4.09858H80.3132V6.68077L80.0424 5.99459C80.3554 5.36861 80.8369 4.88106 81.487 4.53195C82.137 4.18284 82.8954 4.00829 83.7622 4.00829ZM94.8975 13.7773C93.9705 13.7773 93.1399 13.5726 92.4056 13.1633C91.6833 12.754 91.1115 12.1822 90.6901 11.4479C90.2688 10.7136 90.0581 9.85885 90.0581 8.88376C90.0581 7.90867 90.2688 7.05997 90.6901 6.33768C91.1115 5.60335 91.6833 5.03154 92.4056 4.62224C93.1399 4.21294 93.9705 4.00829 94.8975 4.00829C95.704 4.00829 96.4323 4.18886 97.0824 4.55001C97.7325 4.91115 98.2501 5.45287 98.6353 6.17517C99.0326 6.89746 99.2312 7.80032 99.2312 8.88376C99.2312 9.9672 99.0386 10.8701 98.6534 11.5924C98.2802 12.3146 97.7686 12.8624 97.1185 13.2356C96.4685 13.5967 95.7281 13.7773 94.8975 13.7773ZM95.0419 12.2605C95.6438 12.2605 96.1856 12.122 96.6671 11.8452C97.1607 11.5683 97.5459 11.177 97.8228 10.6714C98.1117 10.1538 98.2561 9.5579 98.2561 8.88376C98.2561 8.19758 98.1117 7.60771 97.8228 7.11415C97.5459 6.60854 97.1607 6.2173 96.6671 5.94042C96.1856 5.66354 95.6438 5.5251 95.0419 5.5251C94.428 5.5251 93.8802 5.66354 93.3987 5.94042C92.9172 6.2173 92.532 6.60854 92.2431 7.11415C91.9541 7.60771 91.8097 8.19758 91.8097 8.88376C91.8097 9.5579 91.9541 10.1538 92.2431 10.6714C92.532 11.177 92.9172 11.5683 93.3987 11.8452C93.8802 12.122 94.428 12.2605 95.0419 12.2605ZM98.3103 13.6689V11.0868L98.4186 8.8657L98.2381 6.64465V0.270428H99.9716V13.6689H98.3103ZM113.211 4.00829C113.994 4.00829 114.68 4.15877 115.27 4.45972C115.872 4.76068 116.341 5.21813 116.678 5.83208C117.015 6.44602 117.184 7.22249 117.184 8.16147V13.6689H115.45V8.3601C115.45 7.43316 115.221 6.73494 114.764 6.26545C114.319 5.79596 113.687 5.56122 112.868 5.56122C112.254 5.56122 111.718 5.6816 111.261 5.92236C110.803 6.16313 110.448 6.51825 110.196 6.98774C109.955 7.45723 109.834 8.04109 109.834 8.7393V13.6689H108.101V0.270428H109.834V6.68077L109.491 5.99459C109.804 5.36861 110.286 4.88106 110.936 4.53195C111.586 4.18284 112.344 4.00829 113.211 4.00829ZM120.631 17.2804C120.173 17.2804 119.728 17.2022 119.295 17.0457C118.861 16.9012 118.488 16.6845 118.175 16.3956L118.915 15.0955C119.156 15.3242 119.421 15.4988 119.71 15.6191C119.999 15.7395 120.306 15.7997 120.631 15.7997C121.052 15.7997 121.401 15.6914 121.678 15.4747C121.955 15.258 122.214 14.8728 122.455 14.319L123.05 13.0008L123.231 12.7841L126.987 4.09858H128.684L124.044 14.626C123.767 15.3001 123.454 15.8298 123.105 16.215C122.768 16.6002 122.394 16.8711 121.985 17.0276C121.576 17.1961 121.124 17.2804 120.631 17.2804ZM122.906 13.9759L118.536 4.09858H120.342L124.062 12.6216L122.906 13.9759ZM134.227 17.2804C133.348 17.2804 132.493 17.154 131.663 16.9012C130.844 16.6604 130.176 16.3113 129.658 15.8539L130.489 14.5176C130.935 14.9029 131.482 15.2038 132.132 15.4205C132.782 15.6492 133.463 15.7636 134.173 15.7636C135.304 15.7636 136.135 15.4988 136.665 14.9691C137.194 14.4394 137.459 13.6328 137.459 12.5494V10.527L137.64 8.63096L137.55 6.71688V4.09858H139.193V12.3688C139.193 14.0542 138.771 15.2941 137.929 16.0886C137.086 16.8831 135.852 17.2804 134.227 17.2804ZM134.01 13.2717C133.083 13.2717 132.253 13.0791 131.518 12.6939C130.796 12.2966 130.218 11.7489 129.785 11.0506C129.364 10.3524 129.153 9.54586 129.153 8.63096C129.153 7.70402 129.364 6.89746 129.785 6.21128C130.218 5.51306 130.796 4.97135 131.518 4.58612C132.253 4.2009 133.083 4.00829 134.01 4.00829C134.829 4.00829 135.575 4.17682 136.249 4.51389C136.924 4.83892 137.459 5.34453 137.856 6.03071C138.266 6.71688 138.47 7.58363 138.47 8.63096C138.47 9.66624 138.266 10.527 137.856 11.2132C137.459 11.8993 136.924 12.417 136.249 12.7661C135.575 13.1031 134.829 13.2717 134.01 13.2717ZM134.209 11.7549C134.847 11.7549 135.413 11.6225 135.906 11.3576C136.4 11.0928 136.785 10.7256 137.062 10.2561C137.351 9.78663 137.495 9.24491 137.495 8.63096C137.495 8.01701 137.351 7.47529 137.062 7.0058C136.785 6.53631 136.4 6.17517 135.906 5.92236C135.413 5.65752 134.847 5.5251 134.209 5.5251C133.571 5.5251 132.999 5.65752 132.493 5.92236C132 6.17517 131.609 6.53631 131.32 7.0058C131.043 7.47529 130.904 8.01701 130.904 8.63096C130.904 9.24491 131.043 9.78663 131.32 10.2561C131.609 10.7256 132 11.0928 132.493 11.3576C132.999 11.6225 133.571 11.7549 134.209 11.7549ZM142.505 13.6689V4.09858H144.238V13.6689H142.505ZM143.372 2.25673C143.035 2.25673 142.752 2.14839 142.523 1.9317C142.306 1.71501 142.198 1.45017 142.198 1.13718C142.198 0.812147 142.306 0.541287 142.523 0.3246C142.752 0.107912 143.035 -0.000431742 143.372 -0.000431742C143.709 -0.000431742 143.986 0.107912 144.202 0.3246C144.431 0.529249 144.545 0.78807 144.545 1.10106C144.545 1.42609 144.437 1.70297 144.22 1.9317C144.004 2.14839 143.721 2.25673 143.372 2.25673ZM151.81 13.7773C150.787 13.7773 149.884 13.5666 149.101 13.1453C148.331 12.7239 147.729 12.1461 147.296 11.4118C146.874 10.6775 146.664 9.83478 146.664 8.88376C146.664 7.93274 146.868 7.09007 147.277 6.35574C147.699 5.62141 148.271 5.04959 148.993 4.6403C149.727 4.21896 150.552 4.00829 151.467 4.00829C152.394 4.00829 153.212 4.21294 153.923 4.62224C154.633 5.03154 155.187 5.60937 155.584 6.35574C155.993 7.09007 156.198 7.9508 156.198 8.93793C156.198 9.01016 156.192 9.09443 156.18 9.19073C156.18 9.28704 156.174 9.37733 156.162 9.46159H148.018V8.21564H155.259L154.555 8.64902C154.567 8.03507 154.44 7.48733 154.175 7.0058C153.911 6.52427 153.543 6.15109 153.074 5.88625C152.616 5.60937 152.081 5.47093 151.467 5.47093C150.865 5.47093 150.329 5.60937 149.86 5.88625C149.39 6.15109 149.023 6.53029 148.758 7.02386C148.493 7.50539 148.361 8.05914 148.361 8.68513V8.97405C148.361 9.61207 148.505 10.1839 148.794 10.6895C149.095 11.1831 149.511 11.5683 150.04 11.8452C150.57 12.122 151.178 12.2605 151.864 12.2605C152.43 12.2605 152.941 12.1642 153.399 11.9716C153.868 11.7789 154.278 11.49 154.627 11.1048L155.584 12.2244C155.15 12.73 154.609 13.1152 153.959 13.38C153.321 13.6449 152.604 13.7773 151.81 13.7773ZM163.715 4.00829C164.498 4.00829 165.184 4.15877 165.774 4.45972C166.376 4.76068 166.845 5.21813 167.182 5.83208C167.519 6.44602 167.688 7.22249 167.688 8.16147V13.6689H165.954V8.3601C165.954 7.43316 165.725 6.73494 165.268 6.26545C164.823 5.79596 164.191 5.56122 163.372 5.56122C162.758 5.56122 162.222 5.6816 161.765 5.92236C161.307 6.16313 160.952 6.51825 160.7 6.98774C160.459 7.45723 160.338 8.04109 160.338 8.7393V13.6689H158.605V4.09858H160.266V6.68077L159.995 5.99459C160.308 5.36861 160.79 4.88106 161.44 4.53195C162.09 4.18284 162.848 4.00829 163.715 4.00829ZM170.896 13.6689V4.09858H172.629V13.6689H170.896ZM171.763 2.25673C171.426 2.25673 171.143 2.14839 170.914 1.9317C170.697 1.71501 170.589 1.45017 170.589 1.13718C170.589 0.812147 170.697 0.541287 170.914 0.3246C171.143 0.107912 171.426 -0.000431742 171.763 -0.000431742C172.1 -0.000431742 172.377 0.107912 172.593 0.3246C172.822 0.529249 172.936 0.78807 172.936 1.10106C172.936 1.42609 172.828 1.70297 172.611 1.9317C172.395 2.14839 172.112 2.25673 171.763 2.25673ZM180.11 13.7773C179.135 13.7773 178.263 13.5666 177.492 13.1453C176.734 12.7239 176.138 12.1461 175.704 11.4118C175.271 10.6775 175.054 9.83478 175.054 8.88376C175.054 7.93274 175.271 7.09007 175.704 6.35574C176.138 5.62141 176.734 5.04959 177.492 4.6403C178.263 4.21896 179.135 4.00829 180.11 4.00829C180.977 4.00829 181.748 4.18284 182.422 4.53195C183.108 4.86902 183.638 5.37462 184.011 6.04876L182.693 6.89746C182.38 6.42797 181.994 6.08488 181.537 5.86819C181.092 5.63947 180.61 5.5251 180.092 5.5251C179.466 5.5251 178.907 5.66354 178.413 5.94042C177.919 6.2173 177.528 6.60854 177.239 7.11415C176.95 7.60771 176.806 8.19758 176.806 8.88376C176.806 9.56994 176.95 10.1658 177.239 10.6714C177.528 11.177 177.919 11.5683 178.413 11.8452C178.907 12.122 179.466 12.2605 180.092 12.2605C180.61 12.2605 181.092 12.1521 181.537 11.9354C181.994 11.7067 182.38 11.3576 182.693 10.8881L184.011 11.7188C183.638 12.3809 183.108 12.8925 182.422 13.2536C181.748 13.6027 180.977 13.7773 180.11 13.7773ZM191.52 13.6689V1.02883H192.856V13.6689H191.52ZM196.969 13.6689V1.02883H198.07L203.849 10.8881H203.271L208.995 1.02883H210.096V13.6689H208.814V3.03319H209.121L203.849 12.0618H203.217L197.908 3.03319H198.251V13.6689H196.969ZM214.215 13.6689V1.02883H215.551V12.5133H222.63V13.6689H214.215ZM229.574 13.6689V1.02883H234.305C235.377 1.02883 236.298 1.20339 237.068 1.5525C237.838 1.88957 238.428 2.38313 238.838 3.03319C239.259 3.67122 239.47 4.44768 239.47 5.36259C239.47 6.25341 239.259 7.02386 238.838 7.67392C238.428 8.31195 237.838 8.80551 237.068 9.15462C236.298 9.49169 235.377 9.66022 234.305 9.66022H230.315L230.91 9.04628V13.6689H229.574ZM238.206 13.6689L234.955 9.08239H236.4L239.668 13.6689H238.206ZM230.91 9.15462L230.315 8.52261H234.269C235.533 8.52261 236.49 8.24574 237.14 7.69198C237.802 7.13822 238.133 6.36176 238.133 5.36259C238.133 4.35138 237.802 3.56889 237.14 3.01514C236.49 2.46138 235.533 2.1845 234.269 2.1845H230.315L230.91 1.5525V9.15462ZM246.217 13.7592C245.302 13.7592 244.477 13.5546 243.743 13.1453C243.021 12.7239 242.449 12.1521 242.028 11.4298C241.606 10.6955 241.396 9.85885 241.396 8.91988C241.396 7.96886 241.606 7.1322 242.028 6.40991C242.449 5.68762 243.021 5.12182 243.743 4.71252C244.465 4.30322 245.29 4.09858 246.217 4.09858C247.156 4.09858 247.986 4.30322 248.709 4.71252C249.443 5.12182 250.015 5.68762 250.424 6.40991C250.845 7.1322 251.056 7.96886 251.056 8.91988C251.056 9.85885 250.845 10.6955 250.424 11.4298C250.015 12.1521 249.443 12.7239 248.709 13.1453C247.974 13.5546 247.144 13.7592 246.217 13.7592ZM246.217 12.6216C246.903 12.6216 247.511 12.4711 248.041 12.1702C248.57 11.8572 248.986 11.4238 249.287 10.8701C249.6 10.3043 249.756 9.65421 249.756 8.91988C249.756 8.17351 249.6 7.52344 249.287 6.96969C248.986 6.41593 248.57 5.98857 248.041 5.68762C247.511 5.37462 246.909 5.21813 246.235 5.21813C245.561 5.21813 244.959 5.37462 244.429 5.68762C243.899 5.98857 243.478 6.41593 243.165 6.96969C242.852 7.52344 242.696 8.17351 242.696 8.91988C242.696 9.65421 242.852 10.3043 243.165 10.8701C243.478 11.4238 243.899 11.8572 244.429 12.1702C244.959 12.4711 245.555 12.6216 246.217 12.6216ZM257.592 13.7592C256.786 13.7592 256.081 13.6088 255.479 13.3078C254.877 13.0068 254.408 12.5554 254.071 11.9535C253.746 11.3516 253.583 10.5992 253.583 9.69634V4.18886H254.865V9.55188C254.865 10.5631 255.112 11.3275 255.606 11.8452C256.111 12.3508 256.816 12.6036 257.718 12.6036C258.381 12.6036 258.952 12.4711 259.434 12.2063C259.927 11.9294 260.301 11.5322 260.553 11.0145C260.818 10.4969 260.951 9.87691 260.951 9.15462V4.18886H262.233V13.6689H261.005V11.0687L261.204 11.5382C260.903 12.2364 260.433 12.7841 259.795 13.1814C259.169 13.5666 258.435 13.7592 257.592 13.7592ZM270.645 4.09858C271.416 4.09858 272.09 4.24905 272.668 4.55001C273.258 4.83892 273.715 5.28434 274.04 5.88625C274.377 6.48816 274.546 7.24657 274.546 8.16147V13.6689H273.264V8.28787C273.264 7.2887 273.011 6.53631 272.505 6.03071C272.012 5.51306 271.313 5.25424 270.41 5.25424C269.736 5.25424 269.146 5.39268 268.641 5.66956C268.147 5.9344 267.762 6.32564 267.485 6.84329C267.22 7.34889 267.088 7.96284 267.088 8.68513V13.6689H265.806V4.18886H267.034V6.78911L266.835 6.30157C267.136 5.61539 267.618 5.07969 268.28 4.69447C268.942 4.29721 269.73 4.09858 270.645 4.09858ZM281.783 13.7592C280.88 13.7592 280.067 13.5546 279.345 13.1453C278.635 12.736 278.075 12.1702 277.666 11.4479C277.256 10.7136 277.052 9.87089 277.052 8.91988C277.052 7.95682 277.256 7.11414 277.666 6.39185C278.075 5.66956 278.635 5.10978 279.345 4.71252C280.067 4.30322 280.88 4.09858 281.783 4.09858C282.613 4.09858 283.354 4.28517 284.004 4.65835C284.666 5.03154 285.189 5.57927 285.575 6.30157C285.972 7.01182 286.171 7.88459 286.171 8.91988C286.171 9.94312 285.978 10.8159 285.593 11.5382C285.208 12.2605 284.684 12.8142 284.022 13.1995C283.372 13.5726 282.625 13.7592 281.783 13.7592ZM281.873 12.6216C282.547 12.6216 283.149 12.4711 283.679 12.1702C284.22 11.8572 284.642 11.4238 284.943 10.8701C285.256 10.3043 285.412 9.65421 285.412 8.91988C285.412 8.17351 285.256 7.52344 284.943 6.96969C284.642 6.41593 284.22 5.98857 283.679 5.68762C283.149 5.37462 282.547 5.21813 281.873 5.21813C281.211 5.21813 280.615 5.37462 280.085 5.68762C279.556 5.98857 279.134 6.41593 278.821 6.96969C278.508 7.52344 278.352 8.17351 278.352 8.91988C278.352 9.65421 278.508 10.3043 278.821 10.8701C279.134 11.4238 279.556 11.8572 280.085 12.1702C280.615 12.4711 281.211 12.6216 281.873 12.6216ZM285.448 13.6689V10.8159L285.575 8.90182L285.394 6.98774V0.270428H286.676V13.6689H285.448ZM298.909 13.7592C297.97 13.7592 297.128 13.5546 296.381 13.1453C295.647 12.7239 295.069 12.1521 294.648 11.4298C294.226 10.6955 294.016 9.85885 294.016 8.91988C294.016 7.96886 294.226 7.1322 294.648 6.40991C295.069 5.68762 295.647 5.12182 296.381 4.71252C297.128 4.30322 297.97 4.09858 298.909 4.09858C299.716 4.09858 300.444 4.25507 301.094 4.56807C301.744 4.88106 302.256 5.35055 302.629 5.97653L301.672 6.6266C301.347 6.14507 300.944 5.78994 300.462 5.56122C299.981 5.33249 299.457 5.21813 298.891 5.21813C298.217 5.21813 297.609 5.37462 297.067 5.68762C296.526 5.98857 296.098 6.41593 295.785 6.96969C295.472 7.52344 295.316 8.17351 295.316 8.91988C295.316 9.66624 295.472 10.3163 295.785 10.8701C296.098 11.4238 296.526 11.8572 297.067 12.1702C297.609 12.4711 298.217 12.6216 298.891 12.6216C299.457 12.6216 299.981 12.5073 300.462 12.2785C300.944 12.0498 301.347 11.7007 301.672 11.2312L302.629 11.8813C302.256 12.4952 301.744 12.9647 301.094 13.2897C300.444 13.6027 299.716 13.7592 298.909 13.7592ZM309.066 13.7592C308.259 13.7592 307.555 13.6088 306.953 13.3078C306.351 13.0068 305.882 12.5554 305.545 11.9535C305.22 11.3516 305.057 10.5992 305.057 9.69634V4.18886H306.339V9.55188C306.339 10.5631 306.586 11.3275 307.08 11.8452C307.585 12.3508 308.29 12.6036 309.192 12.6036C309.854 12.6036 310.426 12.4711 310.908 12.2063C311.401 11.9294 311.775 11.5322 312.027 11.0145C312.292 10.4969 312.425 9.87691 312.425 9.15462V4.18886H313.707V13.6689H312.479V11.0687L312.677 11.5382C312.376 12.2364 311.907 12.7841 311.269 13.1814C310.643 13.5666 309.909 13.7592 309.066 13.7592ZM322.173 13.7592C321.355 13.7592 320.614 13.5726 319.952 13.1995C319.29 12.8142 318.76 12.2665 318.363 11.5562C317.978 10.8339 317.785 9.95516 317.785 8.91988C317.785 7.88459 317.978 7.01182 318.363 6.30157C318.748 5.57927 319.272 5.03154 319.934 4.65835C320.596 4.28517 321.343 4.09858 322.173 4.09858C323.076 4.09858 323.883 4.30322 324.593 4.71252C325.315 5.10978 325.881 5.67558 326.29 6.40991C326.7 7.1322 326.904 7.96886 326.904 8.91988C326.904 9.88293 326.7 10.7256 326.29 11.4479C325.881 12.1702 325.315 12.736 324.593 13.1453C323.883 13.5546 323.076 13.7592 322.173 13.7592ZM317.28 17.1721V4.18886H318.508V7.04192L318.381 8.93793L318.562 10.852V17.1721H317.28ZM322.083 12.6216C322.757 12.6216 323.359 12.4711 323.889 12.1702C324.418 11.8572 324.84 11.4238 325.153 10.8701C325.466 10.3043 325.622 9.65421 325.622 8.91988C325.622 8.18554 325.466 7.5415 325.153 6.98774C324.84 6.43399 324.418 6.00061 323.889 5.68762C323.359 5.37462 322.757 5.21813 322.083 5.21813C321.409 5.21813 320.801 5.37462 320.259 5.68762C319.73 6.00061 319.308 6.43399 318.995 6.98774C318.694 7.5415 318.544 8.18554 318.544 8.91988C318.544 9.65421 318.694 10.3043 318.995 10.8701C319.308 11.4238 319.73 11.8572 320.259 12.1702C320.801 12.4711 321.409 12.6216 322.083 12.6216ZM12.9431 39.6689L9.3678 30.1889H10.5957L13.846 38.9828H13.2862L16.6268 30.1889H17.7283L21.0328 38.9828H20.473L23.7775 30.1889H24.9513L21.3578 39.6689H20.148L16.9699 31.3987H17.3491L14.153 39.6689H12.9431ZM26.8817 39.6689V30.1889H28.1638V39.6689H26.8817ZM27.5318 28.0942C27.2669 28.0942 27.0442 28.0039 26.8636 27.8234C26.6831 27.6428 26.5928 27.4261 26.5928 27.1733C26.5928 26.9205 26.6831 26.7098 26.8636 26.5413C27.0442 26.3607 27.2669 26.2704 27.5318 26.2704C27.7966 26.2704 28.0193 26.3547 28.1999 26.5232C28.3804 26.6918 28.4707 26.9024 28.4707 27.1552C28.4707 27.4201 28.3804 27.6428 28.1999 27.8234C28.0313 28.0039 27.8086 28.0942 27.5318 28.0942ZM34.7286 39.7592C33.8377 39.7592 33.1516 39.5185 32.67 39.0369C32.1885 38.5554 31.9478 37.8753 31.9478 36.9965V28.0942H33.2298V36.9242C33.2298 37.478 33.3683 37.9053 33.6451 38.2063C33.9341 38.5073 34.3434 38.6577 34.873 38.6577C35.4388 38.6577 35.9083 38.4952 36.2815 38.1702L36.7329 39.0911C36.4801 39.3198 36.1732 39.4884 35.812 39.5967C35.4629 39.7051 35.1018 39.7592 34.7286 39.7592ZM30.2504 31.2542V30.1889H36.119V31.2542H30.2504ZM43.9062 30.0986C44.6766 30.0986 45.3508 30.2491 45.9286 30.55C46.5185 30.8389 46.9759 31.2843 47.301 31.8862C47.638 32.4882 47.8066 33.2466 47.8066 34.1615V39.6689H46.5245V34.2879C46.5245 33.2887 46.2717 32.5363 45.7661 32.0307C45.2725 31.5131 44.5743 31.2542 43.6715 31.2542C42.9973 31.2542 42.4074 31.3927 41.9018 31.6696C41.4083 31.9344 41.023 32.3256 40.7462 32.8433C40.4813 33.3489 40.3489 33.9628 40.3489 34.6851V39.6689H39.0668V26.2704H40.3489V32.7891L40.0961 32.3016C40.3971 31.6154 40.8786 31.0797 41.5407 30.6945C42.2028 30.2972 42.9913 30.0986 43.9062 30.0986ZM58.3611 39.6689L54.1718 30.0986H55.9775L59.6973 38.7661H58.8306L62.6226 30.0986H64.32L60.1307 39.6689H58.3611ZM65.9378 39.6689V30.0986H67.6713V39.6689H65.9378ZM66.8046 28.2567C66.4675 28.2567 66.1846 28.1484 65.9559 27.9317C65.7392 27.715 65.6308 27.4502 65.6308 27.1372C65.6308 26.8121 65.7392 26.5413 65.9559 26.3246C66.1846 26.1079 66.4675 25.9996 66.8046 25.9996C67.1416 25.9996 67.4185 26.1079 67.6352 26.3246C67.8639 26.5292 67.9783 26.7881 67.9783 27.1011C67.9783 27.4261 67.8699 27.703 67.6532 27.9317C67.4366 28.1484 67.1537 28.2567 66.8046 28.2567ZM76.0553 39.7773C75.2367 39.7773 74.4963 39.5967 73.8342 39.2356C73.1841 38.8624 72.6665 38.3146 72.2813 37.5924C71.9081 36.8701 71.7215 35.9672 71.7215 34.8838C71.7215 33.8003 71.9141 32.8975 72.2993 32.1752C72.6966 31.4529 73.2203 30.9112 73.8703 30.55C74.5324 30.1889 75.2607 30.0083 76.0553 30.0083C76.9942 30.0083 77.8249 30.2129 78.5472 30.6222C79.2695 31.0315 79.8413 31.6034 80.2626 32.3377C80.6839 33.06 80.8946 33.9087 80.8946 34.8838C80.8946 35.8589 80.6839 36.7136 80.2626 37.4479C79.8413 38.1822 79.2695 38.754 78.5472 39.1633C77.8249 39.5726 76.9942 39.7773 76.0553 39.7773ZM70.9812 39.6689V26.2704H72.7147V32.6447L72.5341 34.8657L72.6424 37.0868V39.6689H70.9812ZM75.9108 38.2605C76.5247 38.2605 77.0725 38.122 77.554 37.8452C78.0476 37.5683 78.4328 37.177 78.7097 36.6714C78.9986 36.1538 79.1431 35.5579 79.1431 34.8838C79.1431 34.1976 78.9986 33.6077 78.7097 33.1141C78.4328 32.6085 78.0476 32.2173 77.554 31.9404C77.0725 31.6635 76.5247 31.5251 75.9108 31.5251C75.3089 31.5251 74.7611 31.6635 74.2676 31.9404C73.7861 32.2173 73.4008 32.6085 73.1119 33.1141C72.835 33.6077 72.6966 34.1976 72.6966 34.8838C72.6966 35.5579 72.835 36.1538 73.1119 36.6714C73.4008 37.177 73.7861 37.5683 74.2676 37.8452C74.7611 38.122 75.3089 38.2605 75.9108 38.2605ZM83.2897 39.6689V30.0986H84.951V32.6988L84.7885 32.0488C85.0533 31.3867 85.4987 30.8811 86.1247 30.532C86.7507 30.1828 87.5212 30.0083 88.4361 30.0083V31.6876C88.3638 31.6756 88.2916 31.6696 88.2194 31.6696C88.1592 31.6696 88.099 31.6696 88.0388 31.6696C87.1119 31.6696 86.3775 31.9464 85.8358 32.5002C85.2941 33.054 85.0232 33.8545 85.0232 34.9018V39.6689H83.2897ZM95.8081 39.6689V37.6465L95.7178 37.2673V33.8184C95.7178 33.084 95.5011 32.5183 95.0678 32.121C94.6464 31.7117 94.0084 31.507 93.1537 31.507C92.5879 31.507 92.0341 31.6034 91.4924 31.796C90.9507 31.9765 90.4932 32.2233 90.1201 32.5363L89.3978 31.2362C89.8913 30.8389 90.4812 30.538 91.1674 30.3333C91.8656 30.1166 92.5939 30.0083 93.3523 30.0083C94.6645 30.0083 95.6757 30.3273 96.3859 30.9653C97.0962 31.6034 97.4513 32.5784 97.4513 33.8906V39.6689H95.8081ZM92.6661 39.7773C91.9559 39.7773 91.3299 39.6569 90.7882 39.4161C90.2585 39.1754 89.8492 38.8443 89.5603 38.423C89.2714 37.9896 89.1269 37.5021 89.1269 36.9604C89.1269 36.4427 89.2473 35.9732 89.488 35.5519C89.7409 35.1305 90.1441 34.7935 90.6979 34.5407C91.2637 34.2879 92.0221 34.1615 92.9731 34.1615H96.0067V35.4074H93.0453C92.1786 35.4074 91.5947 35.5519 91.2938 35.8408C90.9928 36.1297 90.8423 36.4788 90.8423 36.8881C90.8423 37.3576 91.0289 37.7368 91.4021 38.0257C91.7753 38.3026 92.2929 38.441 92.9551 38.441C93.6051 38.441 94.1709 38.2966 94.6524 38.0077C95.146 37.7188 95.5011 37.2974 95.7178 36.7437L96.0609 37.9354C95.8322 38.5012 95.4289 38.9527 94.8511 39.2897C94.2732 39.6148 93.5449 39.7773 92.6661 39.7773ZM105.77 30.0083C106.552 30.0083 107.238 30.1588 107.828 30.4597C108.43 30.7607 108.899 31.2181 109.237 31.8321C109.574 32.446 109.742 33.2225 109.742 34.1615V39.6689H108.009V34.3601C108.009 33.4332 107.78 32.7349 107.322 32.2655C106.877 31.796 106.245 31.5612 105.426 31.5612C104.812 31.5612 104.277 31.6816 103.819 31.9224C103.362 32.1631 103.007 32.5183 102.754 32.9877C102.513 33.4572 102.393 34.0411 102.393 34.7393V39.6689H100.659V30.0986H102.321V32.6808L102.05 31.9946C102.363 31.3686 102.844 30.8811 103.494 30.532C104.144 30.1828 104.903 30.0083 105.77 30.0083ZM116.237 39.7773C115.274 39.7773 114.527 39.5185 113.998 39.0008C113.468 38.4832 113.203 37.7428 113.203 36.7798V28.0039H114.937V36.7075C114.937 37.2252 115.063 37.6225 115.316 37.8993C115.581 38.1762 115.954 38.3146 116.435 38.3146C116.977 38.3146 117.428 38.1642 117.79 37.8632L118.331 39.1092C118.066 39.3379 117.747 39.5064 117.374 39.6148C117.013 39.7231 116.634 39.7773 116.237 39.7773ZM111.578 31.5251V30.0986H117.681V31.5251H111.578ZM125.276 39.6689V26.2704H127.01V39.6689H125.276ZM136.261 39.6689V37.6465L136.17 37.2673V33.8184C136.17 33.084 135.954 32.5183 135.52 32.121C135.099 31.7117 134.461 31.507 133.606 31.507C133.04 31.507 132.487 31.6034 131.945 31.796C131.403 31.9765 130.946 32.2233 130.573 32.5363L129.85 31.2362C130.344 30.8389 130.934 30.538 131.62 30.3333C132.318 30.1166 133.046 30.0083 133.805 30.0083C135.117 30.0083 136.128 30.3273 136.839 30.9653C137.549 31.6034 137.904 32.5784 137.904 33.8906V39.6689H136.261ZM133.119 39.7773C132.408 39.7773 131.782 39.6569 131.241 39.4161C130.711 39.1754 130.302 38.8443 130.013 38.423C129.724 37.9896 129.579 37.5021 129.579 36.9604C129.579 36.4427 129.7 35.9732 129.941 35.5519C130.193 35.1305 130.597 34.7935 131.15 34.5407C131.716 34.2879 132.475 34.1615 133.426 34.1615H136.459V35.4074H133.498C132.631 35.4074 132.047 35.5519 131.746 35.8408C131.445 36.1297 131.295 36.4788 131.295 36.8881C131.295 37.3576 131.482 37.7368 131.855 38.0257C132.228 38.3026 132.746 38.441 133.408 38.441C134.058 38.441 134.623 38.2966 135.105 38.0077C135.599 37.7188 135.954 37.2974 136.17 36.7437L136.513 37.9354C136.285 38.5012 135.881 38.9527 135.304 39.2897C134.726 39.6148 133.998 39.7773 133.119 39.7773ZM146.186 39.7773C145.367 39.7773 144.627 39.5967 143.965 39.2356C143.315 38.8624 142.797 38.3146 142.412 37.5924C142.039 36.8701 141.852 35.9672 141.852 34.8838C141.852 33.8003 142.045 32.8975 142.43 32.1752C142.827 31.4529 143.351 30.9112 144.001 30.55C144.663 30.1889 145.391 30.0083 146.186 30.0083C147.125 30.0083 147.956 30.2129 148.678 30.6222C149.4 31.0315 149.972 31.6034 150.393 32.3377C150.815 33.06 151.025 33.9087 151.025 34.8838C151.025 35.8589 150.815 36.7136 150.393 37.4479C149.972 38.1822 149.4 38.754 148.678 39.1633C147.956 39.5726 147.125 39.7773 146.186 39.7773ZM141.112 39.6689V26.2704H142.845V32.6447L142.665 34.8657L142.773 37.0868V39.6689H141.112ZM146.042 38.2605C146.655 38.2605 147.203 38.122 147.685 37.8452C148.178 37.5683 148.564 37.177 148.84 36.6714C149.129 36.1538 149.274 35.5579 149.274 34.8838C149.274 34.1976 149.129 33.6077 148.84 33.1141C148.564 32.6085 148.178 32.2173 147.685 31.9404C147.203 31.6635 146.655 31.5251 146.042 31.5251C145.44 31.5251 144.892 31.6635 144.398 31.9404C143.917 32.2173 143.532 32.6085 143.243 33.1141C142.966 33.6077 142.827 34.1976 142.827 34.8838C142.827 35.5579 142.966 36.1538 143.243 36.6714C143.532 37.177 143.917 37.5683 144.398 37.8452C144.892 38.122 145.44 38.2605 146.042 38.2605ZM157.682 39.7773C156.659 39.7773 155.756 39.5666 154.973 39.1453C154.203 38.7239 153.601 38.1461 153.168 37.4118C152.746 36.6775 152.536 35.8348 152.536 34.8838C152.536 33.9327 152.74 33.0901 153.15 32.3557C153.571 31.6214 154.143 31.0496 154.865 30.6403C155.599 30.219 156.424 30.0083 157.339 30.0083C158.266 30.0083 159.084 30.2129 159.795 30.6222C160.505 31.0315 161.059 31.6094 161.456 32.3557C161.865 33.0901 162.07 33.9508 162.07 34.9379C162.07 35.0102 162.064 35.0944 162.052 35.1907C162.052 35.287 162.046 35.3773 162.034 35.4616H153.89V34.2156H161.131L160.427 34.649C160.439 34.0351 160.312 33.4873 160.048 33.0058C159.783 32.5243 159.416 32.1511 158.946 31.8862C158.489 31.6094 157.953 31.4709 157.339 31.4709C156.737 31.4709 156.201 31.6094 155.732 31.8862C155.262 32.1511 154.895 32.5303 154.63 33.0239C154.365 33.5054 154.233 34.0591 154.233 34.6851V34.974C154.233 35.6121 154.378 36.1839 154.666 36.6895C154.967 37.1831 155.383 37.5683 155.912 37.8452C156.442 38.122 157.05 38.2605 157.736 38.2605C158.302 38.2605 158.814 38.1642 159.271 37.9716C159.741 37.7789 160.15 37.49 160.499 37.1048L161.456 38.2244C161.023 38.73 160.481 39.1152 159.831 39.38C159.193 39.6449 158.477 39.7773 157.682 39.7773ZM164.477 39.6689V26.2704H166.211V39.6689H164.477ZM169.52 39.6689V30.0986H171.254V39.6689H169.52ZM170.387 28.2567C170.05 28.2567 169.767 28.1484 169.538 27.9317C169.322 27.715 169.213 27.4502 169.213 27.1372C169.213 26.8121 169.322 26.5413 169.538 26.3246C169.767 26.1079 170.05 25.9996 170.387 25.9996C170.724 25.9996 171.001 26.1079 171.218 26.3246C171.447 26.5292 171.561 26.7881 171.561 27.1011C171.561 27.4261 171.453 27.703 171.236 27.9317C171.019 28.1484 170.736 28.2567 170.387 28.2567ZM179.674 30.0083C180.456 30.0083 181.143 30.1588 181.732 30.4597C182.334 30.7607 182.804 31.2181 183.141 31.8321C183.478 32.446 183.647 33.2225 183.647 34.1615V39.6689H181.913V34.3601C181.913 33.4332 181.684 32.7349 181.227 32.2655C180.781 31.796 180.149 31.5612 179.331 31.5612C178.717 31.5612 178.181 31.6816 177.724 31.9224C177.266 32.1631 176.911 32.5183 176.658 32.9877C176.418 33.4572 176.297 34.0411 176.297 34.7393V39.6689H174.564V30.0986H176.225V32.6808L175.954 31.9946C176.267 31.3686 176.749 30.8811 177.399 30.532C178.049 30.1828 178.807 30.0083 179.674 30.0083ZM191.044 43.2804C190.165 43.2804 189.31 43.154 188.48 42.9012C187.661 42.6604 186.993 42.3113 186.475 41.8539L187.306 40.5176C187.752 40.9029 188.299 41.2038 188.949 41.4205C189.599 41.6492 190.28 41.7636 190.99 41.7636C192.121 41.7636 192.952 41.4988 193.482 40.9691C194.011 40.4394 194.276 39.6328 194.276 38.5494V36.527L194.457 34.631L194.367 32.7169V30.0986H196.01V38.3688C196.01 40.0542 195.588 41.2941 194.746 42.0886C193.903 42.8831 192.669 43.2804 191.044 43.2804ZM190.827 39.2717C189.9 39.2717 189.07 39.0791 188.335 38.6939C187.613 38.2966 187.035 37.7489 186.602 37.0506C186.181 36.3524 185.97 35.5459 185.97 34.631C185.97 33.704 186.181 32.8975 186.602 32.2113C187.035 31.5131 187.613 30.9713 188.335 30.5861C189.07 30.2009 189.9 30.0083 190.827 30.0083C191.646 30.0083 192.392 30.1768 193.066 30.5139C193.741 30.8389 194.276 31.3445 194.674 32.0307C195.083 32.7169 195.287 33.5836 195.287 34.631C195.287 35.6662 195.083 36.527 194.674 37.2132C194.276 37.8993 193.741 38.417 193.066 38.7661C192.392 39.1031 191.646 39.2717 190.827 39.2717ZM191.026 37.7549C191.664 37.7549 192.23 37.6225 192.723 37.3576C193.217 37.0928 193.602 36.7256 193.879 36.2561C194.168 35.7866 194.312 35.2449 194.312 34.631C194.312 34.017 194.168 33.4753 193.879 33.0058C193.602 32.5363 193.217 32.1752 192.723 31.9224C192.23 31.6575 191.664 31.5251 191.026 31.5251C190.388 31.5251 189.816 31.6575 189.31 31.9224C188.817 32.1752 188.426 32.5363 188.137 33.0058C187.86 33.4753 187.721 34.017 187.721 34.631C187.721 35.2449 187.86 35.7866 188.137 36.2561C188.426 36.7256 188.817 37.0928 189.31 37.3576C189.816 37.6225 190.388 37.7549 191.026 37.7549ZM204.533 39.6689V28.9971C204.533 28.1544 204.779 27.4742 205.273 26.9566C205.766 26.439 206.477 26.1801 207.404 26.1801C207.765 26.1801 208.114 26.2283 208.451 26.3246C208.788 26.4209 209.071 26.5714 209.3 26.776L208.866 27.7331C208.686 27.5766 208.475 27.4622 208.234 27.39C207.993 27.3057 207.735 27.2636 207.458 27.2636C206.916 27.2636 206.501 27.4141 206.212 27.715C205.923 28.016 205.778 28.4614 205.778 29.0513V30.4958L205.815 31.0917V39.6689H204.533ZM202.835 31.2542V30.1889H208.704V31.2542H202.835ZM214.14 39.7592C213.226 39.7592 212.401 39.5546 211.667 39.1453C210.944 38.7239 210.372 38.1521 209.951 37.4298C209.53 36.6955 209.319 35.8589 209.319 34.9199C209.319 33.9689 209.53 33.1322 209.951 32.4099C210.372 31.6876 210.944 31.1218 211.667 30.7125C212.389 30.3032 213.213 30.0986 214.14 30.0986C215.079 30.0986 215.91 30.3032 216.632 30.7125C217.367 31.1218 217.938 31.6876 218.348 32.4099C218.769 33.1322 218.98 33.9689 218.98 34.9199C218.98 35.8589 218.769 36.6955 218.348 37.4298C217.938 38.1521 217.367 38.7239 216.632 39.1453C215.898 39.5546 215.067 39.7592 214.14 39.7592ZM214.14 38.6216C214.827 38.6216 215.435 38.4711 215.964 38.1702C216.494 37.8572 216.909 37.4238 217.21 36.8701C217.523 36.3043 217.68 35.6542 217.68 34.9199C217.68 34.1735 217.523 33.5234 217.21 32.9697C216.909 32.4159 216.494 31.9886 215.964 31.6876C215.435 31.3746 214.833 31.2181 214.158 31.2181C213.484 31.2181 212.882 31.3746 212.353 31.6876C211.823 31.9886 211.402 32.4159 211.089 32.9697C210.776 33.5234 210.619 34.1735 210.619 34.9199C210.619 35.6542 210.776 36.3043 211.089 36.8701C211.402 37.4238 211.823 37.8572 212.353 38.1702C212.882 38.4711 213.478 38.6216 214.14 38.6216ZM221.597 39.6689V30.1889H222.825V32.7711L222.699 32.3196C222.964 31.5973 223.409 31.0496 224.035 30.6764C224.661 30.2912 225.437 30.0986 226.364 30.0986V31.3445C226.316 31.3445 226.268 31.3445 226.22 31.3445C226.172 31.3325 226.124 31.3265 226.075 31.3265C225.076 31.3265 224.294 31.6334 223.728 32.2474C223.162 32.8493 222.879 33.71 222.879 34.8296V39.6689H221.597ZM238.5 39.7773C237.706 39.7773 236.978 39.5967 236.315 39.2356C235.665 38.8624 235.142 38.3146 234.744 37.5924C234.359 36.8701 234.167 35.9672 234.167 34.8838C234.167 33.8003 234.353 32.8975 234.726 32.1752C235.112 31.4529 235.629 30.9112 236.279 30.55C236.941 30.1889 237.682 30.0083 238.5 30.0083C239.439 30.0083 240.27 30.2129 240.992 30.6222C241.715 31.0315 242.286 31.6034 242.708 32.3377C243.129 33.06 243.34 33.9087 243.34 34.8838C243.34 35.8589 243.129 36.7136 242.708 37.4479C242.286 38.1822 241.715 38.754 240.992 39.1633C240.27 39.5726 239.439 39.7773 238.5 39.7773ZM233.426 43.1721V30.0986H235.088V32.6808L234.979 34.9018L235.16 37.1229V43.1721H233.426ZM238.356 38.2605C238.97 38.2605 239.518 38.122 239.999 37.8452C240.493 37.5683 240.878 37.177 241.155 36.6714C241.444 36.1538 241.588 35.5579 241.588 34.8838C241.588 34.1976 241.444 33.6077 241.155 33.1141C240.878 32.6085 240.493 32.2173 239.999 31.9404C239.518 31.6635 238.97 31.5251 238.356 31.5251C237.754 31.5251 237.206 31.6635 236.713 31.9404C236.231 32.2173 235.846 32.6085 235.557 33.1141C235.28 33.6077 235.142 34.1976 235.142 34.8838C235.142 35.5579 235.28 36.1538 235.557 36.6714C235.846 37.177 236.231 37.5683 236.713 37.8452C237.206 38.122 237.754 38.2605 238.356 38.2605ZM245.735 39.6689V30.0986H247.396V32.6988L247.234 32.0488C247.499 31.3867 247.944 30.8811 248.57 30.532C249.196 30.1828 249.966 30.0083 250.881 30.0083V31.6876C250.809 31.6756 250.737 31.6696 250.665 31.6696C250.604 31.6696 250.544 31.6696 250.484 31.6696C249.557 31.6696 248.823 31.9464 248.281 32.5002C247.739 33.054 247.468 33.8545 247.468 34.9018V39.6689H245.735ZM257.191 39.7773C256.168 39.7773 255.265 39.5666 254.483 39.1453C253.712 38.7239 253.11 38.1461 252.677 37.4118C252.255 36.6775 252.045 35.8348 252.045 34.8838C252.045 33.9327 252.249 33.0901 252.659 32.3557C253.08 31.6214 253.652 31.0496 254.374 30.6403C255.109 30.219 255.933 30.0083 256.848 30.0083C257.775 30.0083 258.594 30.2129 259.304 30.6222C260.014 31.0315 260.568 31.6094 260.965 32.3557C261.374 33.0901 261.579 33.9508 261.579 34.9379C261.579 35.0102 261.573 35.0944 261.561 35.1907C261.561 35.287 261.555 35.3773 261.543 35.4616H253.399V34.2156H260.64L259.936 34.649C259.948 34.0351 259.821 33.4873 259.557 33.0058C259.292 32.5243 258.925 32.1511 258.455 31.8862C257.998 31.6094 257.462 31.4709 256.848 31.4709C256.246 31.4709 255.71 31.6094 255.241 31.8862C254.771 32.1511 254.404 32.5303 254.139 33.0239C253.875 33.5054 253.742 34.0591 253.742 34.6851V34.974C253.742 35.6121 253.887 36.1839 254.176 36.6895C254.477 37.1831 254.892 37.5683 255.422 37.8452C255.951 38.122 256.559 38.2605 257.245 38.2605C257.811 38.2605 258.323 38.1642 258.78 37.9716C259.25 37.7789 259.659 37.49 260.008 37.1048L260.965 38.2244C260.532 38.73 259.99 39.1152 259.34 39.38C258.702 39.6449 257.986 39.7773 257.191 39.7773ZM275.958 30.0083C276.729 30.0083 277.409 30.1588 277.999 30.4597C278.589 30.7607 279.046 31.2181 279.371 31.8321C279.708 32.446 279.877 33.2225 279.877 34.1615V39.6689H278.143V34.3601C278.143 33.4332 277.926 32.7349 277.493 32.2655C277.06 31.796 276.452 31.5612 275.669 31.5612C275.091 31.5612 274.586 31.6816 274.152 31.9224C273.719 32.1631 273.382 32.5183 273.141 32.9877C272.912 33.4572 272.798 34.0411 272.798 34.7393V39.6689H271.065V34.3601C271.065 33.4332 270.848 32.7349 270.415 32.2655C269.993 31.796 269.385 31.5612 268.591 31.5612C268.025 31.5612 267.525 31.6816 267.092 31.9224C266.659 32.1631 266.322 32.5183 266.081 32.9877C265.84 33.4572 265.72 34.0411 265.72 34.7393V39.6689H263.986V30.0986H265.647V32.6447L265.377 31.9946C265.678 31.3686 266.141 30.8811 266.767 30.532C267.393 30.1828 268.121 30.0083 268.952 30.0083C269.867 30.0083 270.655 30.237 271.317 30.6945C271.98 31.1399 272.413 31.82 272.618 32.7349L271.913 32.446C272.202 31.7117 272.708 31.1218 273.43 30.6764C274.152 30.231 274.995 30.0083 275.958 30.0083ZM283.066 39.6689V30.0986H284.8V39.6689H283.066ZM283.933 28.2567C283.596 28.2567 283.313 28.1484 283.084 27.9317C282.868 27.715 282.759 27.4502 282.759 27.1372C282.759 26.8121 282.868 26.5413 283.084 26.3246C283.313 26.1079 283.596 25.9996 283.933 25.9996C284.27 25.9996 284.547 26.1079 284.764 26.3246C284.992 26.5292 285.107 26.7881 285.107 27.1011C285.107 27.4261 284.998 27.703 284.782 27.9317C284.565 28.1484 284.282 28.2567 283.933 28.2567ZM292.136 39.7773C291.318 39.7773 290.595 39.6268 289.969 39.3259C289.356 39.0249 288.874 38.5674 288.525 37.9535C288.188 37.3275 288.019 36.545 288.019 35.6061V30.0986H289.753V35.4074C289.753 36.3464 289.976 37.0506 290.421 37.5201C290.878 37.9896 291.516 38.2244 292.335 38.2244C292.937 38.2244 293.461 38.104 293.906 37.8632C294.351 37.6104 294.694 37.2493 294.935 36.7798C295.176 36.2982 295.296 35.7204 295.296 35.0463V30.0986H297.03V39.6689H295.387V37.0868L295.658 37.7729C295.345 38.411 294.875 38.9045 294.249 39.2536C293.623 39.6027 292.919 39.7773 292.136 39.7773ZM312.302 30.0083C313.072 30.0083 313.753 30.1588 314.343 30.4597C314.932 30.7607 315.39 31.2181 315.715 31.8321C316.052 32.446 316.22 33.2225 316.22 34.1615V39.6689H314.487V34.3601C314.487 33.4332 314.27 32.7349 313.837 32.2655C313.404 31.796 312.796 31.5612 312.013 31.5612C311.435 31.5612 310.93 31.6816 310.496 31.9224C310.063 32.1631 309.726 32.5183 309.485 32.9877C309.256 33.4572 309.142 34.0411 309.142 34.7393V39.6689H307.409V34.3601C307.409 33.4332 307.192 32.7349 306.758 32.2655C306.337 31.796 305.729 31.5612 304.935 31.5612C304.369 31.5612 303.869 31.6816 303.436 31.9224C303.003 32.1631 302.665 32.5183 302.425 32.9877C302.184 33.4572 302.064 34.0411 302.064 34.7393V39.6689H300.33V30.0986H301.991V32.6447L301.72 31.9946C302.021 31.3686 302.485 30.8811 303.111 30.532C303.737 30.1828 304.465 30.0083 305.296 30.0083C306.211 30.0083 306.999 30.237 307.661 30.6945C308.323 31.1399 308.757 31.82 308.961 32.7349L308.257 32.446C308.546 31.7117 309.052 31.1218 309.774 30.6764C310.496 30.231 311.339 30.0083 312.302 30.0083ZM109.419 64.7773C108.624 64.7773 107.896 64.5967 107.234 64.2356C106.584 63.8624 106.06 63.3146 105.663 62.5924C105.278 61.8701 105.085 60.9672 105.085 59.8838C105.085 58.8003 105.272 57.8975 105.645 57.1752C106.03 56.4529 106.548 55.9112 107.198 55.55C107.86 55.1889 108.6 55.0083 109.419 55.0083C110.358 55.0083 111.189 55.2129 111.911 55.6222C112.633 56.0315 113.205 56.6034 113.626 57.3377C114.048 58.06 114.258 58.9087 114.258 59.8838C114.258 60.8589 114.048 61.7136 113.626 62.4479C113.205 63.1822 112.633 63.754 111.911 64.1633C111.189 64.5726 110.358 64.7773 109.419 64.7773ZM104.345 68.1721V55.0986H106.006V57.6808L105.898 59.9018L106.078 62.1229V68.1721H104.345ZM109.274 63.2605C109.888 63.2605 110.436 63.122 110.918 62.8452C111.411 62.5683 111.796 62.177 112.073 61.6714C112.362 61.1538 112.507 60.5579 112.507 59.8838C112.507 59.1976 112.362 58.6077 112.073 58.1141C111.796 57.6085 111.411 57.2173 110.918 56.9404C110.436 56.6635 109.888 56.5251 109.274 56.5251C108.673 56.5251 108.125 56.6635 107.631 56.9404C107.15 57.2173 106.765 57.6085 106.476 58.1141C106.199 58.6077 106.06 59.1976 106.06 59.8838C106.06 60.5579 106.199 61.1538 106.476 61.6714C106.765 62.177 107.15 62.5683 107.631 62.8452C108.125 63.122 108.673 63.2605 109.274 63.2605ZM116.653 64.6689V55.0986H118.315V57.6988L118.152 57.0488C118.417 56.3867 118.862 55.8811 119.488 55.532C120.114 55.1828 120.885 55.0083 121.8 55.0083V56.6876C121.728 56.6756 121.655 56.6696 121.583 56.6696C121.523 56.6696 121.463 56.6696 121.402 56.6696C120.476 56.6696 119.741 56.9464 119.2 57.5002C118.658 58.054 118.387 58.8545 118.387 59.9018V64.6689H116.653ZM128.11 64.7773C127.086 64.7773 126.184 64.5666 125.401 64.1453C124.631 63.7239 124.029 63.1461 123.595 62.4118C123.174 61.6775 122.963 60.8348 122.963 59.8838C122.963 58.9327 123.168 58.0901 123.577 57.3557C123.999 56.6214 124.57 56.0496 125.293 55.6403C126.027 55.219 126.852 55.0083 127.767 55.0083C128.694 55.0083 129.512 55.2129 130.222 55.6222C130.933 56.0315 131.486 56.6094 131.884 57.3557C132.293 58.0901 132.498 58.9508 132.498 59.9379C132.498 60.0102 132.492 60.0944 132.48 60.1907C132.48 60.287 132.473 60.3773 132.461 60.4616H124.318V59.2156H131.559L130.854 59.649C130.866 59.0351 130.74 58.4873 130.475 58.0058C130.21 57.5243 129.843 57.1511 129.374 56.8862C128.916 56.6094 128.381 56.4709 127.767 56.4709C127.165 56.4709 126.629 56.6094 126.159 56.8862C125.69 57.1511 125.323 57.5303 125.058 58.0239C124.793 58.5054 124.661 59.0591 124.661 59.6851V59.974C124.661 60.6121 124.805 61.1839 125.094 61.6895C125.395 62.1831 125.81 62.5683 126.34 62.8452C126.87 63.122 127.478 63.2605 128.164 63.2605C128.73 63.2605 129.241 63.1642 129.699 62.9716C130.168 62.7789 130.577 62.49 130.927 62.1048L131.884 63.2244C131.45 63.73 130.909 64.1152 130.258 64.38C129.62 64.6449 128.904 64.7773 128.11 64.7773ZM137.649 64.7773C136.855 64.7773 136.096 64.6689 135.374 64.4523C134.664 64.2356 134.104 63.9707 133.695 63.6577L134.417 62.2854C134.826 62.5623 135.332 62.797 135.934 62.9896C136.536 63.1822 137.15 63.2785 137.776 63.2785C138.582 63.2785 139.16 63.1642 139.509 62.9354C139.87 62.7067 140.051 62.3877 140.051 61.9784C140.051 61.6775 139.943 61.4427 139.726 61.2742C139.509 61.1056 139.22 60.9792 138.859 60.895C138.51 60.8107 138.119 60.7385 137.686 60.6783C137.252 60.6061 136.819 60.5218 136.385 60.4255C135.952 60.3171 135.555 60.1727 135.194 59.9921C134.832 59.7995 134.544 59.5407 134.327 59.2156C134.11 58.8786 134.002 58.4332 134.002 57.8794C134.002 57.3016 134.164 56.796 134.489 56.3626C134.814 55.9292 135.272 55.5982 135.862 55.3694C136.464 55.1287 137.174 55.0083 137.992 55.0083C138.618 55.0083 139.25 55.0865 139.889 55.243C140.539 55.3875 141.068 55.5982 141.478 55.875L140.737 57.2474C140.304 56.9585 139.852 56.7598 139.383 56.6515C138.913 56.5432 138.444 56.489 137.974 56.489C137.216 56.489 136.65 56.6154 136.277 56.8682C135.904 57.109 135.717 57.4219 135.717 57.8072C135.717 58.1322 135.826 58.385 136.042 58.5656C136.271 58.7341 136.56 58.8665 136.909 58.9628C137.27 59.0591 137.667 59.1434 138.101 59.2156C138.534 59.2758 138.968 59.3601 139.401 59.4684C139.834 59.5647 140.226 59.7032 140.575 59.8838C140.936 60.0643 141.225 60.3171 141.441 60.6422C141.67 60.9672 141.785 61.4006 141.785 61.9423C141.785 62.5201 141.616 63.0197 141.279 63.441C140.942 63.8624 140.466 64.1934 139.852 64.4342C139.238 64.6629 138.504 64.7773 137.649 64.7773ZM148.213 64.7773C147.189 64.7773 146.286 64.5666 145.504 64.1453C144.733 63.7239 144.132 63.1461 143.698 62.4118C143.277 61.6775 143.066 60.8348 143.066 59.8838C143.066 58.9327 143.271 58.0901 143.68 57.3557C144.101 56.6214 144.673 56.0496 145.396 55.6403C146.13 55.219 146.955 55.0083 147.869 55.0083C148.796 55.0083 149.615 55.2129 150.325 55.6222C151.035 56.0315 151.589 56.6094 151.986 57.3557C152.396 58.0901 152.6 58.9508 152.6 59.9379C152.6 60.0102 152.594 60.0944 152.582 60.1907C152.582 60.287 152.576 60.3773 152.564 60.4616H144.42V59.2156H151.661L150.957 59.649C150.969 59.0351 150.843 58.4873 150.578 58.0058C150.313 57.5243 149.946 57.1511 149.477 56.8862C149.019 56.6094 148.483 56.4709 147.869 56.4709C147.268 56.4709 146.732 56.6094 146.262 56.8862C145.793 57.1511 145.426 57.5303 145.161 58.0239C144.896 58.5054 144.764 59.0591 144.764 59.6851V59.974C144.764 60.6121 144.908 61.1839 145.197 61.6895C145.498 62.1831 145.913 62.5683 146.443 62.8452C146.973 63.122 147.581 63.2605 148.267 63.2605C148.832 63.2605 149.344 63.1642 149.802 62.9716C150.271 62.7789 150.68 62.49 151.029 62.1048L151.986 63.2244C151.553 63.73 151.011 64.1152 150.361 64.38C149.723 64.6449 149.007 64.7773 148.213 64.7773ZM160.118 55.0083C160.9 55.0083 161.586 55.1588 162.176 55.4597C162.778 55.7607 163.248 56.2181 163.585 56.8321C163.922 57.446 164.09 58.2225 164.09 59.1615V64.6689H162.357V59.3601C162.357 58.4332 162.128 57.7349 161.671 57.2655C161.225 56.796 160.593 56.5612 159.775 56.5612C159.161 56.5612 158.625 56.6816 158.168 56.9224C157.71 57.1631 157.355 57.5183 157.102 57.9877C156.861 58.4572 156.741 59.0411 156.741 59.7393V64.6689H155.008V55.0986H156.669V57.6808L156.398 56.9946C156.711 56.3686 157.192 55.8811 157.843 55.532C158.493 55.1828 159.251 55.0083 160.118 55.0083ZM170.585 64.7773C169.622 64.7773 168.876 64.5185 168.346 64.0008C167.816 63.4832 167.551 62.7428 167.551 61.7798V53.0039H169.285V61.7075C169.285 62.2252 169.411 62.6225 169.664 62.8993C169.929 63.1762 170.302 63.3146 170.784 63.3146C171.325 63.3146 171.777 63.1642 172.138 62.8632L172.68 64.1092C172.415 64.3379 172.096 64.5064 171.723 64.6148C171.361 64.7231 170.982 64.7773 170.585 64.7773ZM165.926 56.5251V55.0986H172.03V56.5251H165.926ZM180.716 64.6689V62.6465L180.626 62.2673V58.8184C180.626 58.084 180.409 57.5183 179.976 57.121C179.555 56.7117 178.916 56.507 178.062 56.507C177.496 56.507 176.942 56.6034 176.401 56.796C175.859 56.9765 175.401 57.2233 175.028 57.5363L174.306 56.2362C174.799 55.8389 175.389 55.538 176.075 55.3333C176.774 55.1166 177.502 55.0083 178.26 55.0083C179.573 55.0083 180.584 55.3273 181.294 55.9653C182.004 56.6034 182.359 57.5784 182.359 58.8906V64.6689H180.716ZM177.574 64.7773C176.864 64.7773 176.238 64.6569 175.696 64.4161C175.167 64.1754 174.757 63.8443 174.468 63.423C174.179 62.9896 174.035 62.5021 174.035 61.9604C174.035 61.4427 174.155 60.9732 174.396 60.5519C174.649 60.1305 175.052 59.7935 175.606 59.5407C176.172 59.2879 176.93 59.1615 177.881 59.1615H180.915V60.4074H177.953C177.087 60.4074 176.503 60.5519 176.202 60.8408C175.901 61.1297 175.75 61.4788 175.75 61.8881C175.75 62.3576 175.937 62.7368 176.31 63.0257C176.683 63.3026 177.201 63.441 177.863 63.441C178.513 63.441 179.079 63.2966 179.561 63.0077C180.054 62.7188 180.409 62.2974 180.626 61.7437L180.969 62.9354C180.74 63.5012 180.337 63.9527 179.759 64.2897C179.181 64.6148 178.453 64.7773 177.574 64.7773ZM188.854 64.7773C187.891 64.7773 187.144 64.5185 186.615 64.0008C186.085 63.4832 185.82 62.7428 185.82 61.7798V53.0039H187.554V61.7075C187.554 62.2252 187.68 62.6225 187.933 62.8993C188.198 63.1762 188.571 63.3146 189.052 63.3146C189.594 63.3146 190.046 63.1642 190.407 62.8632L190.948 64.1092C190.684 64.3379 190.365 64.5064 189.991 64.6148C189.63 64.7231 189.251 64.7773 188.854 64.7773ZM184.195 56.5251V55.0986H190.298V56.5251H184.195ZM193.044 64.6689V55.0986H194.778V64.6689H193.044ZM193.911 53.2567C193.574 53.2567 193.291 53.1484 193.062 52.9317C192.846 52.715 192.737 52.4502 192.737 52.1372C192.737 51.8121 192.846 51.5413 193.062 51.3246C193.291 51.1079 193.574 50.9996 193.911 50.9996C194.248 50.9996 194.525 51.1079 194.742 51.3246C194.97 51.5292 195.085 51.7881 195.085 52.1011C195.085 52.4261 194.976 52.703 194.76 52.9317C194.543 53.1484 194.26 53.2567 193.911 53.2567ZM202.187 64.7773C201.224 64.7773 200.369 64.5666 199.622 64.1453C198.876 63.7239 198.286 63.1461 197.853 62.4118C197.419 61.6654 197.203 60.8227 197.203 59.8838C197.203 58.9327 197.419 58.0901 197.853 57.3557C198.286 56.6214 198.876 56.0496 199.622 55.6403C200.369 55.219 201.224 55.0083 202.187 55.0083C203.138 55.0083 203.986 55.219 204.733 55.6403C205.491 56.0496 206.081 56.6214 206.502 57.3557C206.936 58.078 207.152 58.9207 207.152 59.8838C207.152 60.8348 206.936 61.6775 206.502 62.4118C206.081 63.1461 205.491 63.7239 204.733 64.1453C203.986 64.5666 203.138 64.7773 202.187 64.7773ZM202.187 63.2605C202.801 63.2605 203.348 63.122 203.83 62.8452C204.323 62.5683 204.709 62.177 204.986 61.6714C205.262 61.1538 205.401 60.5579 205.401 59.8838C205.401 59.1976 205.262 58.6077 204.986 58.1141C204.709 57.6085 204.323 57.2173 203.83 56.9404C203.348 56.6635 202.801 56.5251 202.187 56.5251C201.573 56.5251 201.025 56.6635 200.543 56.9404C200.062 57.2173 199.677 57.6085 199.388 58.1141C199.099 58.6077 198.954 59.1976 198.954 59.8838C198.954 60.5579 199.099 61.1538 199.388 61.6714C199.677 62.177 200.062 62.5683 200.543 62.8452C201.025 63.122 201.573 63.2605 202.187 63.2605ZM214.66 55.0083C215.442 55.0083 216.129 55.1588 216.719 55.4597C217.32 55.7607 217.79 56.2181 218.127 56.8321C218.464 57.446 218.633 58.2225 218.633 59.1615V64.6689H216.899V59.3601C216.899 58.4332 216.67 57.7349 216.213 57.2655C215.768 56.796 215.135 56.5612 214.317 56.5612C213.703 56.5612 213.167 56.6816 212.71 56.9224C212.252 57.1631 211.897 57.5183 211.644 57.9877C211.404 58.4572 211.283 59.0411 211.283 59.7393V64.6689H209.55V55.0986H211.211V57.6808L210.94 56.9946C211.253 56.3686 211.735 55.8811 212.385 55.532C213.035 55.1828 213.793 55.0083 214.66 55.0083ZM222.256 64.7773C221.919 64.7773 221.63 64.6629 221.389 64.4342C221.149 64.1934 221.028 63.8925 221.028 63.5313C221.028 63.1702 221.149 62.8753 221.389 62.6465C221.63 62.4178 221.919 62.3034 222.256 62.3034C222.581 62.3034 222.858 62.4178 223.087 62.6465C223.327 62.8753 223.448 63.1702 223.448 63.5313C223.448 63.8925 223.327 64.1934 223.087 64.4342C222.858 64.6629 222.581 64.7773 222.256 64.7773Z" fill="black"/>
</svg>
