<svg width="158" height="13" viewBox="0 0 158 13" fill="none" xmlns="http://www.w3.org/2000/svg">
<path d="M1.69067 12.9656C1.14583 12.1252 0.725655 11.1556 0.430147 10.0567C0.143873 8.94853 0.000736606 7.75727 0.000736606 6.48289C0.000736606 5.20851 0.143873 4.01724 0.430147 2.90908C0.725655 1.79169 1.14583 0.822057 1.69067 0.000175163H3.33906C2.77574 1.01598 2.36018 2.05488 2.09238 3.11686C1.83381 4.16961 1.70453 5.29162 1.70453 6.48289C1.70453 7.67415 1.83381 8.80078 2.09238 9.86276C2.36018 10.9155 2.77574 11.9498 3.33906 12.9656H1.69067ZM4.94144 10.2783V0.581957H6.7422V10.2783H4.94144ZM9.36487 10.2783V0.581957H10.847L15.0857 7.6603H14.31L18.4795 0.581957H19.9616L19.9755 10.2783H18.2717L18.2578 3.25538H18.618L15.0719 9.17016H14.2685L10.667 3.25538H11.0825V10.2783H9.36487ZM22.5946 10.2783V0.581957H24.3953V8.75461H29.4651V10.2783H22.5946ZM34.715 10.2783V0.581957H36.1972L40.4359 7.6603H39.6602L43.8296 0.581957H45.3118L45.3256 10.2783H43.6218L43.608 3.25538H43.9681L40.422 9.17016H39.6186L36.0171 3.25538H36.4327V10.2783H34.715ZM52.4881 10.4168C51.7309 10.4168 51.0337 10.2922 50.3965 10.0428C49.7593 9.7935 49.2052 9.4472 48.7343 9.00394C48.2633 8.55144 47.8985 8.02507 47.64 7.42482C47.3814 6.81533 47.2521 6.15044 47.2521 5.43014C47.2521 4.70984 47.3814 4.04956 47.64 3.44931C47.8985 2.83982 48.2633 2.31345 48.7343 1.87019C49.2052 1.41769 49.7593 1.06678 50.3965 0.81744C51.0337 0.568105 51.7263 0.443438 52.4743 0.443438C53.2315 0.443438 53.9241 0.568105 54.5521 0.81744C55.1893 1.06678 55.7434 1.41769 56.2143 1.87019C56.6853 2.31345 57.0501 2.83982 57.3086 3.44931C57.5672 4.04956 57.6965 4.70984 57.6965 5.43014C57.6965 6.15044 57.5672 6.81533 57.3086 7.42482C57.0501 8.0343 56.6853 8.56068 56.2143 9.00394C55.7434 9.4472 55.1893 9.7935 54.5521 10.0428C53.9241 10.2922 53.2362 10.4168 52.4881 10.4168ZM52.4743 8.83772C52.9637 8.83772 53.4162 8.75461 53.8318 8.58838C54.2473 8.42216 54.6075 8.18668 54.9122 7.88193C55.217 7.56796 55.4525 7.20781 55.6187 6.80148C55.7941 6.38592 55.8819 5.92881 55.8819 5.43014C55.8819 4.93147 55.7941 4.47897 55.6187 4.07265C55.4525 3.65709 55.217 3.29694 54.9122 2.9922C54.6075 2.67822 54.2473 2.43812 53.8318 2.27189C53.4162 2.10567 52.9637 2.02256 52.4743 2.02256C51.9849 2.02256 51.5324 2.10567 51.1168 2.27189C50.7105 2.43812 50.3503 2.67822 50.0364 2.9922C49.7316 3.29694 49.4915 3.65709 49.316 4.07265C49.1498 4.47897 49.0667 4.93147 49.0667 5.43014C49.0667 5.91957 49.1498 6.37207 49.316 6.78763C49.4915 7.20319 49.7316 7.56796 50.0364 7.88193C50.3411 8.18668 50.7012 8.42216 51.1168 8.58838C51.5324 8.75461 51.9849 8.83772 52.4743 8.83772ZM64.1487 10.4168C63.3914 10.4168 62.6942 10.2922 62.057 10.0428C61.4198 9.7935 60.8658 9.4472 60.3948 9.00394C59.9238 8.55144 59.5591 8.02507 59.3005 7.42482C59.0419 6.81533 58.9126 6.15044 58.9126 5.43014C58.9126 4.70984 59.0419 4.04956 59.3005 3.44931C59.5591 2.83982 59.9238 2.31345 60.3948 1.87019C60.8658 1.41769 61.4198 1.06678 62.057 0.81744C62.6942 0.568105 63.3868 0.443438 64.1348 0.443438C64.8921 0.443438 65.5847 0.568105 66.2126 0.81744C66.8498 1.06678 67.4039 1.41307 67.8748 1.85634C68.3458 2.2996 68.7106 2.82597 68.9691 3.43546C69.2277 4.04494 69.357 4.70984 69.357 5.43014C69.357 6.15044 69.2277 6.81533 68.9691 7.42482C68.7106 8.0343 68.3458 8.56068 67.8748 9.00394C67.4039 9.4472 66.8498 9.7935 66.2126 10.0428C65.5847 10.2922 64.8967 10.4168 64.1487 10.4168ZM67.3069 12.3977C66.9652 12.3977 66.6328 12.3561 66.3096 12.273C65.9956 12.1991 65.6816 12.0698 65.3676 11.8851C65.0629 11.7097 64.7443 11.4742 64.4119 11.1787C64.0794 10.8924 63.7146 10.5369 63.3176 10.1121L65.2291 9.61343C65.4877 9.95511 65.7324 10.2275 65.9633 10.4307C66.2034 10.6431 66.4342 10.7955 66.6559 10.8878C66.8775 10.9802 67.1084 11.0263 67.3485 11.0263C67.9857 11.0263 68.5397 10.7678 69.0107 10.2506L69.8418 11.248C69.1954 12.0144 68.3504 12.3977 67.3069 12.3977ZM64.1348 8.83772C64.6243 8.83772 65.0767 8.75461 65.4923 8.58838C65.9079 8.42216 66.268 8.18668 66.5728 7.88193C66.8775 7.56796 67.113 7.20319 67.2792 6.78763C67.4547 6.37207 67.5424 5.91957 67.5424 5.43014C67.5424 4.93147 67.4547 4.47897 67.2792 4.07265C67.113 3.65709 66.8775 3.29694 66.5728 2.9922C66.268 2.67822 65.9079 2.43812 65.4923 2.27189C65.0767 2.10567 64.6243 2.02256 64.1348 2.02256C63.6454 2.02256 63.1929 2.10567 62.7773 2.27189C62.3618 2.43812 62.0016 2.67822 61.6969 2.9922C61.3921 3.29694 61.152 3.65709 60.9766 4.07265C60.8103 4.47897 60.7272 4.93147 60.7272 5.43014C60.7272 5.91957 60.8103 6.37207 60.9766 6.78763C61.152 7.20319 61.3921 7.56796 61.6969 7.88193C62.0016 8.18668 62.3618 8.42216 62.7773 8.58838C63.1929 8.75461 63.6454 8.83772 64.1348 8.83772ZM74.5538 7.14778V5.70718H78.363V7.14778H74.5538ZM85.1108 10.2783V1.27455L85.9003 2.09182H83.0607V0.581957H86.9115V10.2783H85.1108ZM92.8798 10.4168C92.1133 10.4168 91.4207 10.2229 90.802 9.83506C90.1925 9.4472 89.7123 8.88389 89.3614 8.14512C89.0105 7.39712 88.835 6.49212 88.835 5.43014C88.835 4.36816 89.0105 3.46778 89.3614 2.72901C89.7123 1.981 90.1925 1.41307 90.802 1.02522C91.4207 0.637365 92.1133 0.443438 92.8798 0.443438C93.6555 0.443438 94.3481 0.637365 94.9576 1.02522C95.567 1.41307 96.0473 1.981 96.3982 2.72901C96.7583 3.46778 96.9384 4.36816 96.9384 5.43014C96.9384 6.49212 96.7583 7.39712 96.3982 8.14512C96.0473 8.88389 95.567 9.4472 94.9576 9.83506C94.3481 10.2229 93.6555 10.4168 92.8798 10.4168ZM92.8798 8.85157C93.3323 8.85157 93.7247 8.73152 94.0572 8.49142C94.3896 8.24208 94.6482 7.86346 94.8329 7.35556C95.0268 6.84765 95.1238 6.20585 95.1238 5.43014C95.1238 4.64519 95.0268 4.00339 94.8329 3.50472C94.6482 2.99681 94.3896 2.62281 94.0572 2.38271C93.7247 2.13338 93.3323 2.00871 92.8798 2.00871C92.4457 2.00871 92.0579 2.13338 91.7162 2.38271C91.3838 2.62281 91.1206 2.99681 90.9266 3.50472C90.742 4.00339 90.6496 4.64519 90.6496 5.43014C90.6496 6.20585 90.742 6.84765 90.9266 7.35556C91.1206 7.86346 91.3838 8.24208 91.7162 8.49142C92.0579 8.73152 92.4457 8.85157 92.8798 8.85157ZM102.2 10.4168C101.434 10.4168 100.741 10.2229 100.122 9.83506C99.5128 9.4472 99.0326 8.88389 98.6817 8.14512C98.3308 7.39712 98.1553 6.49212 98.1553 5.43014C98.1553 4.36816 98.3308 3.46778 98.6817 2.72901C99.0326 1.981 99.5128 1.41307 100.122 1.02522C100.741 0.637365 101.434 0.443438 102.2 0.443438C102.976 0.443438 103.668 0.637365 104.278 1.02522C104.887 1.41307 105.368 1.981 105.718 2.72901C106.079 3.46778 106.259 4.36816 106.259 5.43014C106.259 6.49212 106.079 7.39712 105.718 8.14512C105.368 8.88389 104.887 9.4472 104.278 9.83506C103.668 10.2229 102.976 10.4168 102.2 10.4168ZM102.2 8.85157C102.653 8.85157 103.045 8.73152 103.377 8.49142C103.71 8.24208 103.969 7.86346 104.153 7.35556C104.347 6.84765 104.444 6.20585 104.444 5.43014C104.444 4.64519 104.347 4.00339 104.153 3.50472C103.969 2.99681 103.71 2.62281 103.377 2.38271C103.045 2.13338 102.653 2.00871 102.2 2.00871C101.766 2.00871 101.378 2.13338 101.037 2.38271C100.704 2.62281 100.441 2.99681 100.247 3.50472C100.062 4.00339 99.9699 4.64519 99.9699 5.43014C99.9699 6.20585 100.062 6.84765 100.247 7.35556C100.441 7.86346 100.704 8.24208 101.037 8.49142C101.378 8.73152 101.766 8.85157 102.2 8.85157ZM111.52 10.4168C110.754 10.4168 110.061 10.2229 109.443 9.83506C108.833 9.4472 108.353 8.88389 108.002 8.14512C107.651 7.39712 107.476 6.49212 107.476 5.43014C107.476 4.36816 107.651 3.46778 108.002 2.72901C108.353 1.981 108.833 1.41307 109.443 1.02522C110.061 0.637365 110.754 0.443438 111.52 0.443438C112.296 0.443438 112.989 0.637365 113.598 1.02522C114.208 1.41307 114.688 1.981 115.039 2.72901C115.399 3.46778 115.579 4.36816 115.579 5.43014C115.579 6.49212 115.399 7.39712 115.039 8.14512C114.688 8.88389 114.208 9.4472 113.598 9.83506C112.989 10.2229 112.296 10.4168 111.52 10.4168ZM111.52 8.85157C111.973 8.85157 112.365 8.73152 112.698 8.49142C113.03 8.24208 113.289 7.86346 113.474 7.35556C113.667 6.84765 113.764 6.20585 113.764 5.43014C113.764 4.64519 113.667 4.00339 113.474 3.50472C113.289 2.99681 113.03 2.62281 112.698 2.38271C112.365 2.13338 111.973 2.00871 111.52 2.00871C111.086 2.00871 110.698 2.13338 110.357 2.38271C110.024 2.62281 109.761 2.99681 109.567 3.50472C109.383 4.00339 109.29 4.64519 109.29 5.43014C109.29 6.20585 109.383 6.84765 109.567 7.35556C109.761 7.86346 110.024 8.24208 110.357 8.49142C110.698 8.73152 111.086 8.85157 111.52 8.85157ZM120.841 10.4168C120.074 10.4168 119.382 10.2229 118.763 9.83506C118.153 9.4472 117.673 8.88389 117.322 8.14512C116.971 7.39712 116.796 6.49212 116.796 5.43014C116.796 4.36816 116.971 3.46778 117.322 2.72901C117.673 1.981 118.153 1.41307 118.763 1.02522C119.382 0.637365 120.074 0.443438 120.841 0.443438C121.616 0.443438 122.309 0.637365 122.918 1.02522C123.528 1.41307 124.008 1.981 124.359 2.72901C124.719 3.46778 124.899 4.36816 124.899 5.43014C124.899 6.49212 124.719 7.39712 124.359 8.14512C124.008 8.88389 123.528 9.4472 122.918 9.83506C122.309 10.2229 121.616 10.4168 120.841 10.4168ZM120.841 8.85157C121.293 8.85157 121.686 8.73152 122.018 8.49142C122.351 8.24208 122.609 7.86346 122.794 7.35556C122.988 6.84765 123.085 6.20585 123.085 5.43014C123.085 4.64519 122.988 4.00339 122.794 3.50472C122.609 2.99681 122.351 2.62281 122.018 2.38271C121.686 2.13338 121.293 2.00871 120.841 2.00871C120.407 2.00871 120.019 2.13338 119.677 2.38271C119.345 2.62281 119.081 2.99681 118.888 3.50472C118.703 4.00339 118.611 4.64519 118.611 5.43014C118.611 6.20585 118.703 6.84765 118.888 7.35556C119.081 7.86346 119.345 8.24208 119.677 8.49142C120.019 8.73152 120.407 8.85157 120.841 8.85157ZM126.809 10.2783V0.581957H130.798C131.657 0.581957 132.391 0.720476 133.001 0.997516C133.619 1.27455 134.095 1.67164 134.427 2.18878C134.76 2.70592 134.926 3.32003 134.926 4.03109C134.926 4.74216 134.76 5.35626 134.427 5.8734C134.095 6.39054 133.619 6.78763 133.001 7.06467C132.391 7.34171 131.657 7.48023 130.798 7.48023H127.806L128.61 6.63526V10.2783H126.809ZM128.61 6.82919L127.806 5.95651H130.715C131.509 5.95651 132.105 5.79029 132.502 5.45784C132.908 5.11616 133.111 4.64058 133.111 4.03109C133.111 3.41237 132.908 2.93679 132.502 2.60434C132.105 2.27189 131.509 2.10567 130.715 2.10567H127.806L128.61 1.21915V6.82919ZM141.348 10.4168C140.609 10.4168 139.921 10.2968 139.284 10.0567C138.656 9.80735 138.106 9.46106 137.635 9.01779C137.174 8.5653 136.813 8.0343 136.555 7.42482C136.296 6.81533 136.167 6.15044 136.167 5.43014C136.167 4.70984 136.296 4.04494 136.555 3.43546C136.813 2.82597 137.178 2.2996 137.649 1.85634C138.12 1.40384 138.67 1.05754 139.298 0.81744C139.925 0.568105 140.613 0.443438 141.361 0.443438C142.156 0.443438 142.881 0.581957 143.536 0.858996C144.192 1.1268 144.746 1.52851 145.198 2.06412L144.035 3.15842C143.684 2.7798 143.291 2.49814 142.857 2.31345C142.423 2.11952 141.952 2.02256 141.445 2.02256C140.937 2.02256 140.47 2.10567 140.046 2.27189C139.63 2.43812 139.265 2.6736 138.951 2.97834C138.646 3.28309 138.406 3.64324 138.231 4.0588C138.065 4.47435 137.982 4.93147 137.982 5.43014C137.982 5.92881 138.065 6.38592 138.231 6.80148C138.406 7.21704 138.646 7.57719 138.951 7.88193C139.265 8.18668 139.63 8.42216 140.046 8.58838C140.47 8.75461 140.937 8.83772 141.445 8.83772C141.952 8.83772 142.423 8.74537 142.857 8.56068C143.291 8.36675 143.684 8.07586 144.035 7.68801L145.198 8.79616C144.746 9.32254 144.192 9.72424 143.536 10.0013C142.881 10.2783 142.151 10.4168 141.348 10.4168ZM149.916 10.4168C149.159 10.4168 148.434 10.3106 147.741 10.0982C147.049 9.87661 146.499 9.59496 146.093 9.25328L146.716 7.85423C147.104 8.15897 147.584 8.41292 148.157 8.61609C148.73 8.81925 149.316 8.92083 149.916 8.92083C150.424 8.92083 150.835 8.86542 151.149 8.75461C151.463 8.64379 151.694 8.49604 151.842 8.31134C151.989 8.11742 152.063 7.9004 152.063 7.6603C152.063 7.36479 151.957 7.12931 151.745 6.95385C151.532 6.76916 151.255 6.62602 150.914 6.52444C150.581 6.41363 150.207 6.31205 149.792 6.2197C149.385 6.12735 148.974 6.02116 148.559 5.9011C148.152 5.77182 147.778 5.61021 147.437 5.41629C147.104 5.21312 146.832 4.94532 146.619 4.61287C146.407 4.28043 146.301 3.85563 146.301 3.33849C146.301 2.81212 146.439 2.33192 146.716 1.89789C147.003 1.45463 147.432 1.10371 148.005 0.845144C148.586 0.57734 149.321 0.443438 150.207 0.443438C150.789 0.443438 151.366 0.517315 151.939 0.665069C152.511 0.812823 153.01 1.02522 153.435 1.30226L152.867 2.7013C152.433 2.44274 151.985 2.25343 151.523 2.13338C151.061 2.00409 150.618 1.93945 150.193 1.93945C149.695 1.93945 149.288 1.99947 148.974 2.11952C148.67 2.23957 148.443 2.39656 148.296 2.59049C148.157 2.78442 148.088 3.00605 148.088 3.25538C148.088 3.55089 148.189 3.79099 148.393 3.97568C148.605 4.15114 148.877 4.28966 149.21 4.39124C149.551 4.49282 149.93 4.5944 150.346 4.69599C150.761 4.78833 151.172 4.89453 151.578 5.01458C151.994 5.13463 152.368 5.29162 152.7 5.48555C153.042 5.67947 153.315 5.94266 153.518 6.27511C153.73 6.60755 153.836 7.02773 153.836 7.53563C153.836 8.05277 153.693 8.53297 153.407 8.97624C153.13 9.41026 152.7 9.76118 152.119 10.029C151.537 10.2876 150.803 10.4168 149.916 10.4168ZM156.273 12.9656H154.625C155.197 11.9498 155.613 10.9155 155.871 9.86276C156.139 8.80078 156.273 7.67415 156.273 6.48289C156.273 5.29162 156.139 4.16961 155.871 3.11686C155.613 2.05488 155.197 1.01598 154.625 0.000175163H156.273C156.827 0.822057 157.247 1.79169 157.534 2.90908C157.82 4.01724 157.963 5.20851 157.963 6.48289C157.963 7.75727 157.82 8.94853 157.534 10.0567C157.247 11.1556 156.827 12.1252 156.273 12.9656Z" fill="black"/>
</svg>
