<svg width="156" height="13" viewBox="0 0 156 13" fill="none" xmlns="http://www.w3.org/2000/svg">
<path d="M1.69003 12.9654C1.14519 12.125 0.725014 11.1554 0.429506 10.0564C0.143233 8.94829 9.57372e-05 7.75702 9.57372e-05 6.48264C9.57372e-05 5.20826 0.143233 4.017 0.429506 2.90884C0.725014 1.79145 1.14519 0.821813 1.69003 -6.89776e-05H3.33842C2.7751 1.01574 2.35954 2.05464 2.09174 3.11662C1.83317 4.16937 1.70389 5.29137 1.70389 6.48264C1.70389 7.67391 1.83317 8.80054 2.09174 9.86252C2.35954 10.9153 2.7751 11.9495 3.33842 12.9654H1.69003ZM4.9408 10.2781V0.581713H6.74156V10.2781H4.9408ZM9.36423 10.2781V0.581713H10.8464L15.0851 7.66006H14.3094L18.4788 0.581713H19.961L19.9748 10.2781H18.271L18.2572 3.25514H18.6173L15.0712 9.16992H14.2678L10.6663 3.25514H11.0819V10.2781H9.36423ZM22.5939 10.2781V0.581713H24.3947V8.75436H29.4645V10.2781H22.5939ZM34.7144 10.2781V0.581713H36.1965L40.4352 7.66006H39.6595L43.829 0.581713H45.3111L45.325 10.2781H43.6212L43.6073 3.25514H43.9675L40.4214 9.16992H39.618L36.0165 3.25514H36.432V10.2781H34.7144ZM52.4875 10.4166C51.7303 10.4166 51.0331 10.2919 50.3959 10.0426C49.7587 9.79326 49.2046 9.44696 48.7336 9.0037C48.2627 8.5512 47.8979 8.02483 47.6393 7.42457C47.3808 6.81509 47.2515 6.1502 47.2515 5.42989C47.2515 4.70959 47.3808 4.04932 47.6393 3.44907C47.8979 2.83958 48.2627 2.31321 48.7336 1.86994C49.2046 1.41745 49.7587 1.06653 50.3959 0.817196C51.0331 0.567861 51.7256 0.443193 52.4737 0.443193C53.2309 0.443193 53.9235 0.567861 54.5514 0.817196C55.1886 1.06653 55.7427 1.41745 56.2137 1.86994C56.6846 2.31321 57.0494 2.83958 57.308 3.44907C57.5666 4.04932 57.6958 4.70959 57.6958 5.42989C57.6958 6.1502 57.5666 6.81509 57.308 7.42457C57.0494 8.03406 56.6846 8.56043 56.2137 9.0037C55.7427 9.44696 55.1886 9.79326 54.5514 10.0426C53.9235 10.2919 53.2355 10.4166 52.4875 10.4166ZM52.4737 8.83747C52.9631 8.83747 53.4156 8.75436 53.8311 8.58814C54.2467 8.42192 54.6069 8.18643 54.9116 7.88169C55.2163 7.56771 55.4518 7.20756 55.618 6.80124C55.7935 6.38568 55.8812 5.92856 55.8812 5.42989C55.8812 4.93122 55.7935 4.47873 55.618 4.0724C55.4518 3.65685 55.2163 3.29669 54.9116 2.99195C54.6069 2.67797 54.2467 2.43787 53.8311 2.27165C53.4156 2.10543 52.9631 2.02232 52.4737 2.02232C51.9842 2.02232 51.5317 2.10543 51.1162 2.27165C50.7098 2.43787 50.3497 2.67797 50.0357 2.99195C49.731 3.29669 49.4909 3.65685 49.3154 4.0724C49.1492 4.47873 49.0661 4.93122 49.0661 5.42989C49.0661 5.91933 49.1492 6.37183 49.3154 6.78739C49.4909 7.20294 49.731 7.56771 50.0357 7.88169C50.3405 8.18643 50.7006 8.42192 51.1162 8.58814C51.5317 8.75436 51.9842 8.83747 52.4737 8.83747ZM64.148 10.4166C63.3908 10.4166 62.6936 10.2919 62.0564 10.0426C61.4192 9.79326 60.8651 9.44696 60.3941 9.0037C59.9232 8.5512 59.5584 8.02483 59.2998 7.42457C59.0413 6.81509 58.912 6.1502 58.912 5.42989C58.912 4.70959 59.0413 4.04932 59.2998 3.44907C59.5584 2.83958 59.9232 2.31321 60.3941 1.86994C60.8651 1.41745 61.4192 1.06653 62.0564 0.817196C62.6936 0.567861 63.3862 0.443193 64.1342 0.443193C64.8914 0.443193 65.584 0.567861 66.212 0.817196C66.8492 1.06653 67.4032 1.41283 67.8742 1.85609C68.3452 2.29935 68.7099 2.82573 68.9685 3.43521C69.2271 4.0447 69.3564 4.70959 69.3564 5.42989C69.3564 6.1502 69.2271 6.81509 68.9685 7.42457C68.7099 8.03406 68.3452 8.56043 67.8742 9.0037C67.4032 9.44696 66.8492 9.79326 66.212 10.0426C65.584 10.2919 64.896 10.4166 64.148 10.4166ZM67.3063 12.3974C66.9646 12.3974 66.6321 12.3559 66.3089 12.2728C65.995 12.1989 65.681 12.0696 65.367 11.8849C65.0623 11.7094 64.7437 11.474 64.4112 11.1785C64.0788 10.8922 63.714 10.5366 63.3169 10.1119L65.2285 9.61318C65.487 9.95486 65.7318 10.2273 65.9626 10.4304C66.2027 10.6428 66.4336 10.7952 66.6552 10.8876C66.8769 10.9799 67.1077 11.0261 67.3478 11.0261C67.985 11.0261 68.5391 10.7675 69.0101 10.2504L69.8412 11.2477C69.1948 12.0142 68.3498 12.3974 67.3063 12.3974ZM64.1342 8.83747C64.6236 8.83747 65.0761 8.75436 65.4917 8.58814C65.9072 8.42192 66.2674 8.18643 66.5721 7.88169C66.8769 7.56771 67.1123 7.20294 67.2786 6.78739C67.454 6.37183 67.5418 5.91933 67.5418 5.42989C67.5418 4.93122 67.454 4.47873 67.2786 4.0724C67.1123 3.65685 66.8769 3.29669 66.5721 2.99195C66.2674 2.67797 65.9072 2.43787 65.4917 2.27165C65.0761 2.10543 64.6236 2.02232 64.1342 2.02232C63.6447 2.02232 63.1922 2.10543 62.7767 2.27165C62.3611 2.43787 62.001 2.67797 61.6962 2.99195C61.3915 3.29669 61.1514 3.65685 60.9759 4.0724C60.8097 4.47873 60.7266 4.93122 60.7266 5.42989C60.7266 5.91933 60.8097 6.37183 60.9759 6.78739C61.1514 7.20294 61.3915 7.56771 61.6962 7.88169C62.001 8.18643 62.3611 8.42192 62.7767 8.58814C63.1922 8.75436 63.6447 8.83747 64.1342 8.83747ZM74.5531 7.14754V5.70693H78.3624V7.14754H74.5531ZM86.7724 10.4166C86.089 10.4166 85.4195 10.3196 84.7638 10.1257C84.1174 9.92254 83.5726 9.6455 83.1293 9.29459L83.8912 7.89554C84.2421 8.18181 84.6669 8.41268 85.1655 8.58814C85.6735 8.7636 86.1998 8.85133 86.7447 8.85133C87.3819 8.85133 87.8805 8.71742 88.2407 8.44962C88.6101 8.18181 88.7948 7.82166 88.7948 7.36917C88.7948 7.06442 88.7163 6.79662 88.5593 6.56575C88.4115 6.33489 88.1437 6.15943 87.7559 6.03938C87.3772 5.91933 86.8555 5.85931 86.1906 5.85931H83.8496L84.3483 0.581713H90.0414V2.09158H85.0132L85.9551 1.23275L85.5811 5.18056L84.6392 4.33559H86.5923C87.5527 4.33559 88.3238 4.46488 88.9056 4.72345C89.4966 4.97278 89.926 5.3237 90.1938 5.77619C90.4708 6.21946 90.6094 6.72736 90.6094 7.29991C90.6094 7.86322 90.4708 8.38036 90.1938 8.85133C89.9168 9.32229 89.492 9.70091 88.9194 9.98719C88.3561 10.2735 87.6404 10.4166 86.7724 10.4166ZM95.6928 10.4166C94.9263 10.4166 94.2337 10.2227 93.615 9.83481C93.0055 9.44696 92.5253 8.88365 92.1744 8.14488C91.8235 7.39687 91.648 6.49188 91.648 5.42989C91.648 4.36791 91.8235 3.46754 92.1744 2.72876C92.5253 1.98076 93.0055 1.41283 93.615 1.02498C94.2337 0.637121 94.9263 0.443193 95.6928 0.443193C96.4685 0.443193 97.1611 0.637121 97.7706 1.02498C98.3801 1.41283 98.8603 1.98076 99.2112 2.72876C99.5714 3.46754 99.7514 4.36791 99.7514 5.42989C99.7514 6.49188 99.5714 7.39687 99.2112 8.14488C98.8603 8.88365 98.3801 9.44696 97.7706 9.83481C97.1611 10.2227 96.4685 10.4166 95.6928 10.4166ZM95.6928 8.85133C96.1453 8.85133 96.5378 8.73128 96.8702 8.49117C97.2027 8.24184 97.4612 7.86322 97.6459 7.35532C97.8399 6.84741 97.9368 6.2056 97.9368 5.42989C97.9368 4.64495 97.8399 4.00314 97.6459 3.50447C97.4612 2.99657 97.2027 2.62257 96.8702 2.38247C96.5378 2.13313 96.1453 2.00846 95.6928 2.00846C95.2588 2.00846 94.8709 2.13313 94.5292 2.38247C94.1968 2.62257 93.9336 2.99657 93.7397 3.50447C93.555 4.00314 93.4626 4.64495 93.4626 5.42989C93.4626 6.2056 93.555 6.84741 93.7397 7.35532C93.9336 7.86322 94.1968 8.24184 94.5292 8.49117C94.8709 8.73128 95.2588 8.85133 95.6928 8.85133ZM105.013 10.4166C104.247 10.4166 103.554 10.2227 102.935 9.83481C102.326 9.44696 101.846 8.88365 101.495 8.14488C101.144 7.39687 100.968 6.49188 100.968 5.42989C100.968 4.36791 101.144 3.46754 101.495 2.72876C101.846 1.98076 102.326 1.41283 102.935 1.02498C103.554 0.637121 104.247 0.443193 105.013 0.443193C105.789 0.443193 106.481 0.637121 107.091 1.02498C107.7 1.41283 108.181 1.98076 108.532 2.72876C108.892 3.46754 109.072 4.36791 109.072 5.42989C109.072 6.49188 108.892 7.39687 108.532 8.14488C108.181 8.88365 107.7 9.44696 107.091 9.83481C106.481 10.2227 105.789 10.4166 105.013 10.4166ZM105.013 8.85133C105.466 8.85133 105.858 8.73128 106.191 8.49117C106.523 8.24184 106.782 7.86322 106.966 7.35532C107.16 6.84741 107.257 6.2056 107.257 5.42989C107.257 4.64495 107.16 4.00314 106.966 3.50447C106.782 2.99657 106.523 2.62257 106.191 2.38247C105.858 2.13313 105.466 2.00846 105.013 2.00846C104.579 2.00846 104.191 2.13313 103.85 2.38247C103.517 2.62257 103.254 2.99657 103.06 3.50447C102.875 4.00314 102.783 4.64495 102.783 5.42989C102.783 6.2056 102.875 6.84741 103.06 7.35532C103.254 7.86322 103.517 8.24184 103.85 8.49117C104.191 8.73128 104.579 8.85133 105.013 8.85133ZM114.333 10.4166C113.567 10.4166 112.874 10.2227 112.256 9.83481C111.646 9.44696 111.166 8.88365 110.815 8.14488C110.464 7.39687 110.289 6.49188 110.289 5.42989C110.289 4.36791 110.464 3.46754 110.815 2.72876C111.166 1.98076 111.646 1.41283 112.256 1.02498C112.874 0.637121 113.567 0.443193 114.333 0.443193C115.109 0.443193 115.802 0.637121 116.411 1.02498C117.021 1.41283 117.501 1.98076 117.852 2.72876C118.212 3.46754 118.392 4.36791 118.392 5.42989C118.392 6.49188 118.212 7.39687 117.852 8.14488C117.501 8.88365 117.021 9.44696 116.411 9.83481C115.802 10.2227 115.109 10.4166 114.333 10.4166ZM114.333 8.85133C114.786 8.85133 115.178 8.73128 115.511 8.49117C115.843 8.24184 116.102 7.86322 116.287 7.35532C116.48 6.84741 116.577 6.2056 116.577 5.42989C116.577 4.64495 116.48 4.00314 116.287 3.50447C116.102 2.99657 115.843 2.62257 115.511 2.38247C115.178 2.13313 114.786 2.00846 114.333 2.00846C113.899 2.00846 113.512 2.13313 113.17 2.38247C112.837 2.62257 112.574 2.99657 112.38 3.50447C112.196 4.00314 112.103 4.64495 112.103 5.42989C112.103 6.2056 112.196 6.84741 112.38 7.35532C112.574 7.86322 112.837 8.24184 113.17 8.49117C113.512 8.73128 113.899 8.85133 114.333 8.85133ZM124.13 10.2781V0.581713H128.119C128.978 0.581713 129.712 0.720232 130.322 0.997272C130.94 1.27431 131.416 1.6714 131.748 2.18854C132.081 2.70568 132.247 3.31978 132.247 4.03085C132.247 4.74191 132.081 5.35602 131.748 5.87316C131.416 6.3903 130.94 6.78739 130.322 7.06442C129.712 7.34146 128.978 7.47998 128.119 7.47998H125.127L125.931 6.63501V10.2781H124.13ZM125.931 6.82894L125.127 5.95627H128.036C128.83 5.95627 129.426 5.79005 129.823 5.4576C130.229 5.11592 130.432 4.64033 130.432 4.03085C130.432 3.41213 130.229 2.93654 129.823 2.6041C129.426 2.27165 128.83 2.10543 128.036 2.10543H125.127L125.931 1.2189V6.82894ZM138.669 10.4166C137.93 10.4166 137.242 10.2965 136.605 10.0564C135.977 9.80711 135.427 9.46081 134.956 9.01755C134.495 8.56505 134.134 8.03406 133.876 7.42457C133.617 6.81509 133.488 6.1502 133.488 5.42989C133.488 4.70959 133.617 4.0447 133.876 3.43521C134.134 2.82573 134.499 2.29935 134.97 1.85609C135.441 1.4036 135.991 1.0573 136.619 0.817196C137.246 0.567861 137.934 0.443193 138.682 0.443193C139.477 0.443193 140.202 0.581713 140.857 0.858752C141.513 1.12656 142.067 1.52826 142.519 2.06387L141.356 3.15818C141.005 2.77956 140.612 2.4979 140.178 2.31321C139.744 2.11928 139.273 2.02232 138.766 2.02232C138.258 2.02232 137.791 2.10543 137.367 2.27165C136.951 2.43787 136.586 2.67336 136.272 2.9781C135.967 3.28284 135.727 3.64299 135.552 4.05855C135.386 4.47411 135.303 4.93122 135.303 5.42989C135.303 5.92856 135.386 6.38568 135.552 6.80124C135.727 7.2168 135.967 7.57695 136.272 7.88169C136.586 8.18643 136.951 8.42192 137.367 8.58814C137.791 8.75436 138.258 8.83747 138.766 8.83747C139.273 8.83747 139.744 8.74513 140.178 8.56043C140.612 8.36651 141.005 8.07562 141.356 7.68776L142.519 8.79592C142.067 9.32229 141.513 9.724 140.857 10.001C140.202 10.2781 139.472 10.4166 138.669 10.4166ZM147.237 10.4166C146.48 10.4166 145.755 10.3104 145.062 10.098C144.37 9.87637 143.82 9.59471 143.414 9.25303L144.037 7.85399C144.425 8.15873 144.905 8.41268 145.478 8.61584C146.051 8.819 146.637 8.92059 147.237 8.92059C147.745 8.92059 148.156 8.86518 148.47 8.75436C148.784 8.64355 149.015 8.49579 149.163 8.3111C149.31 8.11717 149.384 7.90016 149.384 7.66006C149.384 7.36455 149.278 7.12907 149.066 6.95361C148.853 6.76892 148.576 6.62578 148.235 6.5242C147.902 6.41338 147.528 6.3118 147.113 6.21946C146.706 6.12711 146.295 6.02091 145.88 5.90086C145.473 5.77158 145.099 5.60997 144.758 5.41604C144.425 5.21288 144.153 4.94508 143.94 4.61263C143.728 4.28018 143.622 3.85539 143.622 3.33825C143.622 2.81188 143.76 2.33168 144.037 1.89765C144.324 1.45439 144.753 1.10347 145.326 0.8449C145.907 0.577095 146.642 0.443193 147.528 0.443193C148.11 0.443193 148.687 0.517071 149.26 0.664825C149.832 0.812579 150.331 1.02498 150.756 1.30201L150.188 2.70106C149.754 2.44249 149.306 2.25318 148.844 2.13313C148.382 2.00385 147.939 1.9392 147.514 1.9392C147.016 1.9392 146.609 1.99923 146.295 2.11928C145.991 2.23933 145.764 2.39632 145.617 2.59025C145.478 2.78417 145.409 3.0058 145.409 3.25514C145.409 3.55065 145.51 3.79075 145.713 3.97544C145.926 4.1509 146.198 4.28942 146.531 4.391C146.872 4.49258 147.251 4.59416 147.667 4.69574C148.082 4.78809 148.493 4.89429 148.899 5.01434C149.315 5.13439 149.689 5.29138 150.021 5.4853C150.363 5.67923 150.636 5.94242 150.839 6.27486C151.051 6.60731 151.157 7.02749 151.157 7.53539C151.157 8.05253 151.014 8.53273 150.728 8.97599C150.451 9.41002 150.021 9.76094 149.44 10.0287C148.858 10.2873 148.124 10.4166 147.237 10.4166ZM153.594 12.9654H151.946C152.518 11.9495 152.934 10.9153 153.192 9.86252C153.46 8.80054 153.594 7.67391 153.594 6.48264C153.594 5.29137 153.46 4.16937 153.192 3.11662C152.934 2.05464 152.518 1.01574 151.946 -6.89776e-05H153.594C154.148 0.821813 154.568 1.79145 154.854 2.90884C155.141 4.017 155.284 5.20826 155.284 6.48264C155.284 7.75702 155.141 8.94829 154.854 10.0564C154.568 11.1554 154.148 12.125 153.594 12.9654Z" fill="black"/>
</svg>
