<svg width="232" height="17" viewBox="0 0 232 17" fill="none" xmlns="http://www.w3.org/2000/svg">
<path d="M-0.00113723 15.9917L-0.00113723 0.905086H6.20593C7.54217 0.905086 8.68444 1.12061 9.63274 1.55166C10.5954 1.9827 11.3354 2.60053 11.8526 3.40515C12.3699 4.20977 12.6285 5.16526 12.6285 6.27161C12.6285 7.37796 12.3699 8.33345 11.8526 9.13807C11.3354 9.94269 10.5954 10.5605 9.63274 10.9916C8.68444 11.4226 7.54217 11.6381 6.20593 11.6381H1.55063L2.80066 10.3234V15.9917H-0.00113723ZM2.80066 10.6252L1.55063 9.26738H6.07661C7.31228 9.26738 8.23903 9.00875 8.85686 8.4915C9.48906 7.95987 9.80516 7.21991 9.80516 6.27161C9.80516 5.30894 9.48906 4.56898 8.85686 4.05172C8.23903 3.53447 7.31228 3.27584 6.07661 3.27584H1.55063L2.80066 1.89649V10.6252ZM15.0626 15.9917V4.48277H17.6273V7.65096L17.3256 6.72421C17.6704 5.94833 18.2092 5.35923 18.942 4.95692C19.6891 4.55461 20.6159 4.35345 21.7222 4.35345V6.91818C21.6073 6.88944 21.4995 6.87507 21.399 6.87507C21.2984 6.86071 21.1978 6.85352 21.0972 6.85352C20.0771 6.85352 19.2653 7.15525 18.6618 7.75872C18.0583 8.34782 17.7566 9.23146 17.7566 10.4097V15.9917H15.0626ZM29.0749 16.1426C27.8967 16.1426 26.8479 15.8911 25.9283 15.3882C25.0087 14.871 24.2831 14.1669 23.7515 13.2761C23.2199 12.3853 22.9541 11.3723 22.9541 10.2372C22.9541 9.08778 23.2199 8.07482 23.7515 7.19836C24.2831 6.30753 25.0087 5.61067 25.9283 5.10779C26.8479 4.6049 27.8967 4.35345 29.0749 4.35345C30.2675 4.35345 31.3236 4.6049 32.2431 5.10779C33.1771 5.61067 33.9027 6.30035 34.4199 7.17681C34.9515 8.05327 35.2173 9.07341 35.2173 10.2372C35.2173 11.3723 34.9515 12.3853 34.4199 13.2761C33.9027 14.1669 33.1771 14.871 32.2431 15.3882C31.3236 15.8911 30.2675 16.1426 29.0749 16.1426ZM29.0749 13.8365C29.7359 13.8365 30.325 13.6928 30.8422 13.4054C31.3595 13.1181 31.7618 12.7014 32.0492 12.1554C32.3509 11.6094 32.5018 10.97 32.5018 10.2372C32.5018 9.49009 32.3509 8.8507 32.0492 8.31908C31.7618 7.77309 31.3595 7.35641 30.8422 7.06904C30.325 6.78168 29.7431 6.638 29.0965 6.638C28.4356 6.638 27.8465 6.78168 27.3292 7.06904C26.8263 7.35641 26.424 7.77309 26.1223 8.31908C25.8205 8.8507 25.6697 9.49009 25.6697 10.2372C25.6697 10.97 25.8205 11.6094 26.1223 12.1554C26.424 12.7014 26.8263 13.1181 27.3292 13.4054C27.8465 13.6928 28.4284 13.8365 29.0749 13.8365ZM42.6643 16.1426C41.558 16.1426 40.5594 15.8983 39.6686 15.4098C38.7921 14.9069 38.1024 14.2172 37.5996 13.3408C37.0967 12.4643 36.8452 11.4298 36.8452 10.2372C36.8452 9.04467 37.0967 8.01016 37.5996 7.1337C38.1024 6.25724 38.7921 5.57475 39.6686 5.08623C40.5594 4.59771 41.558 4.35345 42.6643 4.35345C43.627 4.35345 44.4891 4.56898 45.2506 5.00002C46.0121 5.4167 46.6156 6.05609 47.061 6.91818C47.5064 7.78027 47.7291 8.88662 47.7291 10.2372C47.7291 11.5735 47.5136 12.6798 47.0826 13.5563C46.6515 14.4184 46.0552 15.065 45.2937 15.496C44.5322 15.927 43.6557 16.1426 42.6643 16.1426ZM42.9876 13.8365C43.6342 13.8365 44.2089 13.6928 44.7118 13.4054C45.2291 13.1181 45.6386 12.7014 45.9403 12.1554C46.2564 11.6094 46.4144 10.97 46.4144 10.2372C46.4144 9.49009 46.2564 8.8507 45.9403 8.31908C45.6386 7.77309 45.2291 7.35641 44.7118 7.06904C44.2089 6.78168 43.6342 6.638 42.9876 6.638C42.3411 6.638 41.7591 6.78168 41.2419 7.06904C40.739 7.35641 40.3295 7.77309 40.0134 8.31908C39.7117 8.8507 39.5608 9.49009 39.5608 10.2372C39.5608 10.97 39.7117 11.6094 40.0134 12.1554C40.3295 12.7014 40.739 13.1181 41.2419 13.4054C41.7591 13.6928 42.3411 13.8365 42.9876 13.8365ZM46.4791 15.9917V13.2761L46.5869 10.2157L46.3713 7.15525V-0.000110776H49.0438V15.9917H46.4791ZM57.4605 16.1426C56.4835 16.1426 55.6214 15.963 54.8742 15.6038C54.1271 15.2302 53.5452 14.6698 53.1285 13.9227C52.7118 13.1612 52.5035 12.2057 52.5035 11.0562V4.48277H55.1975V10.6898C55.1975 11.7243 55.4274 12.5002 55.8872 13.0175C56.3613 13.5204 57.0295 13.7718 57.8916 13.7718C58.5238 13.7718 59.0697 13.6425 59.5295 13.3839C60.0037 13.1252 60.3701 12.7373 60.6287 12.22C60.9017 11.7028 61.0382 11.0634 61.0382 10.3019V4.48277H63.7322V15.9917H61.1675V12.8882L61.6201 13.8365C61.2322 14.5836 60.6646 15.1583 59.9175 15.5607C59.1703 15.9486 58.3513 16.1426 57.4605 16.1426ZM72.5399 16.1426C71.3329 16.1426 70.2553 15.8911 69.307 15.3882C68.3731 14.871 67.6403 14.1669 67.1087 13.2761C66.5771 12.3853 66.3113 11.3723 66.3113 10.2372C66.3113 9.08778 66.5771 8.07482 67.1087 7.19836C67.6403 6.30753 68.3731 5.61067 69.307 5.10779C70.2553 4.6049 71.3329 4.35345 72.5399 4.35345C73.6606 4.35345 74.6448 4.58335 75.4925 5.04313C76.3546 5.48854 77.0084 6.14948 77.4538 7.02594L75.3848 8.23287C75.0399 7.68688 74.6161 7.28457 74.1132 7.02594C73.6247 6.76731 73.0931 6.638 72.5183 6.638C71.8574 6.638 71.2611 6.78168 70.7295 7.06904C70.1979 7.35641 69.7812 7.77309 69.4794 8.31908C69.1777 8.8507 69.0268 9.49009 69.0268 10.2372C69.0268 10.9844 69.1777 11.6309 69.4794 12.1769C69.7812 12.7086 70.1979 13.1181 70.7295 13.4054C71.2611 13.6928 71.8574 13.8365 72.5183 13.8365C73.0931 13.8365 73.6247 13.7072 74.1132 13.4485C74.6161 13.1899 75.0399 12.7876 75.3848 12.2416L77.4538 13.4485C77.0084 14.3106 76.3546 14.9787 75.4925 15.4529C74.6448 15.9127 73.6606 16.1426 72.5399 16.1426ZM84.262 16.1426C82.9976 16.1426 82.0205 15.8193 81.3309 15.1727C80.6412 14.5118 80.2963 13.5419 80.2963 12.2632V1.9396H82.9904V12.1985C82.9904 12.7445 83.1269 13.1683 83.3999 13.4701C83.6872 13.7718 84.0824 13.9227 84.5853 13.9227C85.1887 13.9227 85.6916 13.7646 86.0939 13.4485L86.8482 15.3667C86.5321 15.6253 86.1442 15.8193 85.6844 15.9486C85.2246 16.0779 84.7505 16.1426 84.262 16.1426ZM78.3997 6.72421V4.56898H86.0724V6.72421H78.3997ZM102.262 16.2072C101.113 16.2072 100.042 16.0204 99.0511 15.6469C98.074 15.2589 97.2191 14.7201 96.4863 14.0304C95.7679 13.3264 95.2076 12.5002 94.8053 11.5519C94.403 10.6036 94.2018 9.56911 94.2018 8.44839C94.2018 7.32767 94.403 6.29316 94.8053 5.34486C95.2076 4.39656 95.7751 3.57757 96.5079 2.8879C97.2407 2.18386 98.0956 1.64505 99.0726 1.27148C100.05 0.883534 101.12 0.689563 102.284 0.689563C103.52 0.689563 104.647 0.905086 105.668 1.33613C106.688 1.75281 107.55 2.37783 108.254 3.21118L106.444 4.91382C105.898 4.32472 105.287 3.88649 104.612 3.59912C103.936 3.29739 103.203 3.14653 102.413 3.14653C101.623 3.14653 100.897 3.27584 100.236 3.53447C99.5899 3.7931 99.0223 4.15948 98.5338 4.63364C98.0597 5.10779 97.6861 5.66815 97.4131 6.31471C97.1545 6.96128 97.0251 7.67251 97.0251 8.44839C97.0251 9.22428 97.1545 9.9355 97.4131 10.5821C97.6861 11.2286 98.0597 11.789 98.5338 12.2632C99.0223 12.7373 99.5899 13.1037 100.236 13.3623C100.897 13.6209 101.623 13.7503 102.413 13.7503C103.203 13.7503 103.936 13.6066 104.612 13.3192C105.287 13.0175 105.898 12.5649 106.444 11.9614L108.254 13.6856C107.55 14.5046 106.688 15.1296 105.668 15.5607C104.647 15.9917 103.512 16.2072 102.262 16.2072ZM115.41 16.1426C114.232 16.1426 113.183 15.8911 112.264 15.3882C111.344 14.871 110.619 14.1669 110.087 13.2761C109.555 12.3853 109.29 11.3723 109.29 10.2372C109.29 9.08778 109.555 8.07482 110.087 7.19836C110.619 6.30753 111.344 5.61067 112.264 5.10779C113.183 4.6049 114.232 4.35345 115.41 4.35345C116.603 4.35345 117.659 4.6049 118.579 5.10779C119.513 5.61067 120.238 6.30035 120.755 7.17681C121.287 8.05327 121.553 9.07341 121.553 10.2372C121.553 11.3723 121.287 12.3853 120.755 13.2761C120.238 14.1669 119.513 14.871 118.579 15.3882C117.659 15.8911 116.603 16.1426 115.41 16.1426ZM115.41 13.8365C116.071 13.8365 116.66 13.6928 117.178 13.4054C117.695 13.1181 118.097 12.7014 118.385 12.1554C118.686 11.6094 118.837 10.97 118.837 10.2372C118.837 9.49009 118.686 8.8507 118.385 8.31908C118.097 7.77309 117.695 7.35641 117.178 7.06904C116.66 6.78168 116.079 6.638 115.432 6.638C114.771 6.638 114.182 6.78168 113.665 7.06904C113.162 7.35641 112.76 7.77309 112.458 8.31908C112.156 8.8507 112.005 9.49009 112.005 10.2372C112.005 10.97 112.156 11.6094 112.458 12.1554C112.76 12.7014 113.162 13.1181 113.665 13.4054C114.182 13.6928 114.764 13.8365 115.41 13.8365ZM129 16.1426C127.893 16.1426 126.895 15.8983 126.004 15.4098C125.128 14.9069 124.438 14.2172 123.935 13.3408C123.432 12.4643 123.181 11.4298 123.181 10.2372C123.181 9.04467 123.432 8.01016 123.935 7.1337C124.438 6.25724 125.128 5.57475 126.004 5.08623C126.895 4.59771 127.893 4.35345 129 4.35345C129.963 4.35345 130.825 4.56898 131.586 5.00002C132.348 5.4167 132.951 6.05609 133.397 6.91818C133.842 7.78027 134.065 8.88662 134.065 10.2372C134.065 11.5735 133.849 12.6798 133.418 13.5563C132.987 14.4184 132.391 15.065 131.629 15.496C130.868 15.927 129.991 16.1426 129 16.1426ZM129.323 13.8365C129.97 13.8365 130.544 13.6928 131.047 13.4054C131.565 13.1181 131.974 12.7014 132.276 12.1554C132.592 11.6094 132.75 10.97 132.75 10.2372C132.75 9.49009 132.592 8.8507 132.276 8.31908C131.974 7.77309 131.565 7.35641 131.047 7.06904C130.544 6.78168 129.97 6.638 129.323 6.638C128.677 6.638 128.095 6.78168 127.577 7.06904C127.074 7.35641 126.665 7.77309 126.349 8.31908C126.047 8.8507 125.896 9.49009 125.896 10.2372C125.896 10.97 126.047 11.6094 126.349 12.1554C126.665 12.7014 127.074 13.1181 127.577 13.4054C128.095 13.6928 128.677 13.8365 129.323 13.8365ZM132.815 15.9917V13.2761L132.922 10.2157L132.707 7.15525V-0.000110776H135.379V15.9917H132.815ZM144.335 16.1426C143.056 16.1426 141.935 15.8911 140.973 15.3882C140.024 14.871 139.284 14.1669 138.753 13.2761C138.235 12.3853 137.977 11.3723 137.977 10.2372C137.977 9.08778 138.228 8.07482 138.731 7.19836C139.248 6.30753 139.952 5.61067 140.843 5.10779C141.749 4.6049 142.776 4.35345 143.925 4.35345C145.046 4.35345 146.045 4.59771 146.921 5.08623C147.798 5.57475 148.487 6.26443 148.99 7.15525C149.493 8.04608 149.744 9.09496 149.744 10.3019C149.744 10.4168 149.737 10.5462 149.723 10.6898C149.723 10.8335 149.716 10.97 149.701 11.0993H140.111V9.31049H148.279L147.223 9.87084C147.237 9.20991 147.101 8.628 146.813 8.12511C146.526 7.62222 146.131 7.2271 145.628 6.93973C145.139 6.65237 144.572 6.50869 143.925 6.50869C143.264 6.50869 142.682 6.65237 142.18 6.93973C141.691 7.2271 141.303 7.62941 141.016 8.14666C140.743 8.64955 140.606 9.24583 140.606 9.9355V10.3665C140.606 11.0562 140.764 11.6669 141.08 12.1985C141.397 12.7301 141.842 13.1396 142.417 13.427C142.991 13.7143 143.652 13.858 144.399 13.858C145.046 13.858 145.628 13.7574 146.145 13.5563C146.662 13.3551 147.122 13.039 147.525 12.608L148.969 14.2675C148.451 14.871 147.798 15.3379 147.007 15.6684C146.231 15.9845 145.341 16.1426 144.335 16.1426ZM163.663 11.1209V8.87944H169.59V11.1209H163.663ZM183.731 16.2072C182.481 16.2072 181.396 16.0204 180.477 15.6469C179.557 15.2733 178.846 14.7488 178.343 14.0735C177.84 13.3839 177.589 12.5793 177.589 11.6597C177.589 10.7401 177.833 9.96424 178.321 9.33204C178.81 8.69984 179.514 8.2185 180.434 7.88803C181.353 7.55756 182.452 7.39233 183.731 7.39233C185.01 7.39233 186.109 7.55756 187.029 7.88803C187.963 8.2185 188.674 8.70702 189.162 9.35359C189.665 9.98579 189.917 10.7545 189.917 11.6597C189.917 12.5793 189.658 13.3839 189.141 14.0735C188.638 14.7488 187.919 15.2733 186.985 15.6469C186.066 16.0204 184.981 16.2072 183.731 16.2072ZM183.731 14.0089C184.766 14.0089 185.585 13.7934 186.188 13.3623C186.792 12.9313 187.093 12.335 187.093 11.5735C187.093 10.8263 186.792 10.2372 186.188 9.80619C185.585 9.37514 184.766 9.15962 183.731 9.15962C182.697 9.15962 181.885 9.37514 181.296 9.80619C180.707 10.2372 180.412 10.8263 180.412 11.5735C180.412 12.335 180.707 12.9313 181.296 13.3623C181.885 13.7934 182.697 14.0089 183.731 14.0089ZM183.731 8.85789C182.567 8.85789 181.569 8.70702 180.735 8.40529C179.902 8.08919 179.255 7.63659 178.796 7.04749C178.35 6.44403 178.127 5.72562 178.127 4.89226C178.127 4.03017 178.357 3.29021 178.817 2.67238C179.291 2.04017 179.952 1.55165 180.8 1.20682C181.648 0.861981 182.625 0.689563 183.731 0.689563C184.852 0.689563 185.836 0.861981 186.684 1.20682C187.531 1.55165 188.192 2.04017 188.667 2.67238C189.141 3.29021 189.378 4.03017 189.378 4.89226C189.378 5.72562 189.148 6.44403 188.688 7.04749C188.243 7.63659 187.596 8.08919 186.748 8.40529C185.901 8.70702 184.895 8.85789 183.731 8.85789ZM183.731 7.1337C184.622 7.1337 185.326 6.94692 185.843 6.57334C186.36 6.1854 186.619 5.66815 186.619 5.02158C186.619 4.34627 186.353 3.82183 185.822 3.44826C185.29 3.07468 184.593 2.8879 183.731 2.8879C182.869 2.8879 182.179 3.07468 181.662 3.44826C181.145 3.82183 180.886 4.34627 180.886 5.02158C180.886 5.66815 181.138 6.1854 181.641 6.57334C182.158 6.94692 182.855 7.1337 183.731 7.1337ZM197.791 16.2072C196.541 16.2072 195.456 16.0204 194.536 15.6469C193.617 15.2733 192.905 14.7488 192.403 14.0735C191.9 13.3839 191.648 12.5793 191.648 11.6597C191.648 10.7401 191.892 9.96424 192.381 9.33204C192.869 8.69984 193.574 8.2185 194.493 7.88803C195.413 7.55756 196.512 7.39233 197.791 7.39233C199.069 7.39233 200.169 7.55756 201.088 7.88803C202.022 8.2185 202.733 8.70702 203.222 9.35359C203.725 9.98579 203.976 10.7545 203.976 11.6597C203.976 12.5793 203.717 13.3839 203.2 14.0735C202.697 14.7488 201.979 15.2733 201.045 15.6469C200.125 16.0204 199.041 16.2072 197.791 16.2072ZM197.791 14.0089C198.825 14.0089 199.644 13.7934 200.248 13.3623C200.851 12.9313 201.153 12.335 201.153 11.5735C201.153 10.8263 200.851 10.2372 200.248 9.80619C199.644 9.37514 198.825 9.15962 197.791 9.15962C196.756 9.15962 195.944 9.37514 195.355 9.80619C194.766 10.2372 194.472 10.8263 194.472 11.5735C194.472 12.335 194.766 12.9313 195.355 13.3623C195.944 13.7934 196.756 14.0089 197.791 14.0089ZM197.791 8.85789C196.627 8.85789 195.628 8.70702 194.795 8.40529C193.961 8.08919 193.315 7.63659 192.855 7.04749C192.41 6.44403 192.187 5.72562 192.187 4.89226C192.187 4.03017 192.417 3.29021 192.877 2.67238C193.351 2.04017 194.012 1.55165 194.859 1.20682C195.707 0.861981 196.684 0.689563 197.791 0.689563C198.911 0.689563 199.896 0.861981 200.743 1.20682C201.591 1.55165 202.252 2.04017 202.726 2.67238C203.2 3.29021 203.437 4.03017 203.437 4.89226C203.437 5.72562 203.207 6.44403 202.748 7.04749C202.302 7.63659 201.656 8.08919 200.808 8.40529C199.96 8.70702 198.954 8.85789 197.791 8.85789ZM197.791 7.1337C198.681 7.1337 199.385 6.94692 199.903 6.57334C200.42 6.1854 200.679 5.66815 200.679 5.02158C200.679 4.34627 200.413 3.82183 199.881 3.44826C199.35 3.07468 198.653 2.8879 197.791 2.8879C196.928 2.8879 196.239 3.07468 195.722 3.44826C195.204 3.82183 194.946 4.34627 194.946 5.02158C194.946 5.66815 195.197 6.1854 195.7 6.57334C196.217 6.94692 196.914 7.1337 197.791 7.1337ZM212.087 16.2072C210.895 16.2072 209.817 15.9055 208.854 15.302C207.906 14.6986 207.159 13.8221 206.613 12.6726C206.067 11.5088 205.794 10.1007 205.794 8.44839C205.794 6.79605 206.067 5.39515 206.613 4.24569C207.159 3.08187 207.906 2.19822 208.854 1.59476C209.817 0.991295 210.895 0.689563 212.087 0.689563C213.294 0.689563 214.372 0.991295 215.32 1.59476C216.268 2.19822 217.015 3.08187 217.561 4.24569C218.122 5.39515 218.402 6.79605 218.402 8.44839C218.402 10.1007 218.122 11.5088 217.561 12.6726C217.015 13.8221 216.268 14.6986 215.32 15.302C214.372 15.9055 213.294 16.2072 212.087 16.2072ZM212.087 13.7718C212.791 13.7718 213.402 13.585 213.919 13.2115C214.436 12.8235 214.839 12.2344 215.126 11.4442C215.428 10.6539 215.579 9.65532 215.579 8.44839C215.579 7.2271 215.428 6.22851 215.126 5.45262C214.839 4.66237 214.436 4.08046 213.919 3.70689C213.402 3.31894 212.791 3.12497 212.087 3.12497C211.412 3.12497 210.808 3.31894 210.277 3.70689C209.76 4.08046 209.35 4.66237 209.048 5.45262C208.761 6.22851 208.617 7.2271 208.617 8.44839C208.617 9.65532 208.761 10.6539 209.048 11.4442C209.35 12.2344 209.76 12.8235 210.277 13.2115C210.808 13.585 211.412 13.7718 212.087 13.7718ZM225.296 16.2072C224.232 16.2072 223.191 16.0564 222.17 15.7546C221.165 15.4385 220.317 15.0075 219.627 14.4615L220.813 12.2847C221.359 12.7301 222.02 13.0893 222.795 13.3623C223.586 13.6353 224.405 13.7718 225.252 13.7718C226.244 13.7718 227.02 13.5635 227.58 13.1468C228.155 12.7301 228.442 12.1698 228.442 11.4657C228.442 10.9916 228.32 10.5749 228.076 10.2157C227.846 9.85648 227.429 9.58348 226.826 9.39669C226.237 9.20991 225.425 9.11651 224.39 9.11651H220.748L221.524 0.905086H230.382V3.25429H222.558L224.024 1.91804L223.442 8.06045L221.976 6.74576H225.015C226.51 6.74576 227.709 6.94692 228.615 7.34923C229.534 7.73717 230.202 8.28316 230.619 8.9872C231.05 9.67687 231.266 10.4671 231.266 11.358C231.266 12.2344 231.05 13.039 230.619 13.7718C230.188 14.5046 229.527 15.0937 228.636 15.5391C227.76 15.9845 226.646 16.2072 225.296 16.2072Z" fill="#272727"/>
</svg>
