<svg width="152" height="104" viewBox="0 0 152 104" fill="none" xmlns="http://www.w3.org/2000/svg">
<path d="M2.352 20V9.76L3.472 10.88H0.112V8.8H4.944V20H2.352ZM6.79362 20V18.32L11.1136 14.24C11.455 13.9307 11.7056 13.6533 11.8656 13.408C12.0256 13.1627 12.1323 12.9387 12.1856 12.736C12.2496 12.5333 12.2816 12.3467 12.2816 12.176C12.2816 11.728 12.127 11.3867 11.8176 11.152C11.519 10.9067 11.0763 10.784 10.4896 10.784C10.0203 10.784 9.58296 10.8747 9.17763 11.056C8.78296 11.2373 8.44696 11.52 8.16963 11.904L6.28163 10.688C6.70829 10.048 7.30563 9.54133 8.07363 9.168C8.84163 8.79467 9.72696 8.608 10.7296 8.608C11.5616 8.608 12.287 8.74667 12.9056 9.024C13.535 9.29067 14.0203 9.66933 14.3616 10.16C14.7136 10.6507 14.8896 11.2373 14.8896 11.92C14.8896 12.2827 14.8416 12.6453 14.7456 13.008C14.6603 13.36 14.479 13.7333 14.2016 14.128C13.935 14.5227 13.5403 14.9653 13.0176 15.456L9.43363 18.832L8.93763 17.888H15.2576V20H6.79362ZM20.1351 20.192C19.3565 20.192 18.5831 20.0907 17.8151 19.888C17.0578 19.6747 16.4071 19.376 15.8631 18.992L16.8871 17.008C17.3138 17.3173 17.8045 17.5627 18.3591 17.744C18.9245 17.9253 19.4951 18.016 20.0711 18.016C20.7218 18.016 21.2338 17.888 21.6071 17.632C21.9805 17.376 22.1671 17.0187 22.1671 16.56C22.1671 16.272 22.0925 16.016 21.9431 15.792C21.7938 15.568 21.5271 15.3973 21.1431 15.28C20.7698 15.1627 20.2418 15.104 19.5591 15.104H16.6951L17.2711 8.8H24.1031V10.88H18.1991L19.5431 9.696L19.1431 14.192L17.7991 13.008H20.1671C21.2765 13.008 22.1671 13.1627 22.8391 13.472C23.5218 13.7707 24.0178 14.1813 24.3271 14.704C24.6365 15.2267 24.7911 15.8187 24.7911 16.48C24.7911 17.1413 24.6258 17.7547 24.2951 18.32C23.9645 18.8747 23.4525 19.328 22.7591 19.68C22.0765 20.0213 21.2018 20.192 20.1351 20.192ZM41.926 11.264C42.6087 11.264 43.2113 11.4027 43.734 11.68C44.2673 11.9467 44.6833 12.3627 44.982 12.928C45.2913 13.4827 45.446 14.1973 45.446 15.072V20H42.95V15.456C42.95 14.7627 42.806 14.2507 42.518 13.92C42.23 13.5893 41.8247 13.424 41.302 13.424C40.9393 13.424 40.614 13.5093 40.326 13.68C40.038 13.84 39.814 14.0853 39.654 14.416C39.494 14.7467 39.414 15.168 39.414 15.68V20H36.918V15.456C36.918 14.7627 36.774 14.2507 36.486 13.92C36.2087 13.5893 35.8087 13.424 35.286 13.424C34.9233 13.424 34.598 13.5093 34.31 13.68C34.022 13.84 33.798 14.0853 33.638 14.416C33.478 14.7467 33.398 15.168 33.398 15.68V20H30.902V11.392H33.286V13.744L32.838 13.056C33.1367 12.4693 33.558 12.0267 34.102 11.728C34.6567 11.4187 35.286 11.264 35.99 11.264C36.7793 11.264 37.4673 11.4667 38.054 11.872C38.6513 12.2667 39.046 12.8747 39.238 13.696L38.358 13.456C38.646 12.784 39.1047 12.2507 39.734 11.856C40.374 11.4613 41.1047 11.264 41.926 11.264ZM47.6833 20V8.128H50.1793V20H47.6833ZM56.707 16.496V14.496H61.235V16.496H56.707ZM73.3461 20.192C72.4608 20.192 71.6395 20.048 70.8821 19.76C70.1355 19.472 69.4848 19.0667 68.9301 18.544C68.3861 18.0213 67.9595 17.408 67.6501 16.704C67.3515 16 67.2021 15.232 67.2021 14.4C67.2021 13.568 67.3515 12.8 67.6501 12.096C67.9595 11.392 68.3915 10.7787 68.9461 10.256C69.5008 9.73333 70.1515 9.328 70.8981 9.04C71.6448 8.752 72.4555 8.608 73.3301 8.608C74.2155 8.608 75.0261 8.752 75.7621 9.04C76.5088 9.328 77.1541 9.73333 77.6981 10.256C78.2528 10.7787 78.6848 11.392 78.9941 12.096C79.3035 12.7893 79.4581 13.5573 79.4581 14.4C79.4581 15.232 79.3035 16.0053 78.9941 16.72C78.6848 17.424 78.2528 18.0373 77.6981 18.56C77.1541 19.072 76.5088 19.472 75.7621 19.76C75.0261 20.048 74.2208 20.192 73.3461 20.192ZM73.3301 17.984C73.8315 17.984 74.2901 17.8987 74.7061 17.728C75.1328 17.5573 75.5061 17.312 75.8261 16.992C76.1461 16.672 76.3915 16.2933 76.5621 15.856C76.7435 15.4187 76.8341 14.9333 76.8341 14.4C76.8341 13.8667 76.7435 13.3813 76.5621 12.944C76.3915 12.5067 76.1461 12.128 75.8261 11.808C75.5168 11.488 75.1488 11.2427 74.7221 11.072C74.2955 10.9013 73.8315 10.816 73.3301 10.816C72.8288 10.816 72.3648 10.9013 71.9381 11.072C71.5221 11.2427 71.1541 11.488 70.8341 11.808C70.5141 12.128 70.2635 12.5067 70.0821 12.944C69.9115 13.3813 69.8261 13.8667 69.8261 14.4C69.8261 14.9227 69.9115 15.408 70.0821 15.856C70.2635 16.2933 70.5088 16.672 70.8181 16.992C71.1381 17.312 71.5115 17.5573 71.9381 17.728C72.3648 17.8987 72.8288 17.984 73.3301 17.984ZM84.4068 20L79.5747 8.8H82.3748L86.5988 18.72H84.9508L89.2388 8.8H91.8148L86.9668 20H84.4068ZM90.9029 20L95.8949 8.8H98.4549L103.463 20H100.743L96.6469 10.112H97.6709L93.5589 20H90.9029ZM93.3989 17.6L94.0869 15.632H99.8469L100.551 17.6H93.3989ZM104.625 20V8.8H107.217V17.888H112.833V20H104.625Z" fill="#4A8036"/>
<path d="M1.316 46V36.2H3.136V46H1.316ZM9.0487 46.098C8.2647 46.098 7.5647 45.9347 6.9487 45.608C6.34204 45.272 5.86604 44.8147 5.5207 44.236C5.17537 43.6573 5.0027 42.9993 5.0027 42.262C5.0027 41.5153 5.17537 40.8573 5.5207 40.288C5.86604 39.7093 6.34204 39.2567 6.9487 38.93C7.5647 38.6033 8.2647 38.44 9.0487 38.44C9.7767 38.44 10.416 38.5893 10.9667 38.888C11.5267 39.1773 11.9514 39.6067 12.2407 40.176L10.8967 40.96C10.6727 40.6053 10.3974 40.344 10.0707 40.176C9.75337 40.008 9.40804 39.924 9.0347 39.924C8.60537 39.924 8.21804 40.0173 7.8727 40.204C7.52737 40.3907 7.2567 40.6613 7.0607 41.016C6.8647 41.3613 6.7667 41.7767 6.7667 42.262C6.7667 42.7473 6.8647 43.1673 7.0607 43.522C7.2567 43.8673 7.52737 44.1333 7.8727 44.32C8.21804 44.5067 8.60537 44.6 9.0347 44.6C9.40804 44.6 9.75337 44.516 10.0707 44.348C10.3974 44.18 10.6727 43.9187 10.8967 43.564L12.2407 44.348C11.9514 44.908 11.5267 45.342 10.9667 45.65C10.416 45.9487 9.7767 46.098 9.0487 46.098ZM17.1581 46.098C16.3274 46.098 15.5994 45.9347 14.9741 45.608C14.3581 45.272 13.8774 44.8147 13.5321 44.236C13.1961 43.6573 13.0281 42.9993 13.0281 42.262C13.0281 41.5153 13.1914 40.8573 13.5181 40.288C13.8541 39.7093 14.3114 39.2567 14.8901 38.93C15.4781 38.6033 16.1454 38.44 16.8921 38.44C17.6201 38.44 18.2688 38.5987 18.8381 38.916C19.4074 39.2333 19.8554 39.6813 20.1821 40.26C20.5088 40.8387 20.6721 41.52 20.6721 42.304C20.6721 42.3787 20.6674 42.4627 20.6581 42.556C20.6581 42.6493 20.6534 42.738 20.6441 42.822H14.4141V41.66H19.7201L19.0341 42.024C19.0434 41.5947 18.9548 41.2167 18.7681 40.89C18.5814 40.5633 18.3248 40.3067 17.9981 40.12C17.6808 39.9333 17.3121 39.84 16.8921 39.84C16.4628 39.84 16.0848 39.9333 15.7581 40.12C15.4408 40.3067 15.1888 40.568 15.0021 40.904C14.8248 41.2307 14.7361 41.618 14.7361 42.066V42.346C14.7361 42.794 14.8388 43.1907 15.0441 43.536C15.2494 43.8813 15.5388 44.1473 15.9121 44.334C16.2854 44.5207 16.7148 44.614 17.2001 44.614C17.6201 44.614 17.9981 44.5487 18.3341 44.418C18.6701 44.2873 18.9688 44.082 19.2301 43.802L20.1681 44.88C19.8321 45.272 19.4074 45.5753 18.8941 45.79C18.3901 45.9953 17.8114 46.098 17.1581 46.098ZM30.9262 46.14C30.1796 46.14 29.4842 46.0187 28.8402 45.776C28.2056 45.524 27.6502 45.174 27.1742 44.726C26.7076 44.2687 26.3436 43.732 26.0822 43.116C25.8209 42.5 25.6902 41.828 25.6902 41.1C25.6902 40.372 25.8209 39.7 26.0822 39.084C26.3436 38.468 26.7122 37.936 27.1882 37.488C27.6642 37.0307 28.2196 36.6807 28.8542 36.438C29.4889 36.186 30.1842 36.06 30.9402 36.06C31.7429 36.06 32.4756 36.2 33.1382 36.48C33.8009 36.7507 34.3609 37.1567 34.8182 37.698L33.6422 38.804C33.2876 38.4213 32.8909 38.1367 32.4522 37.95C32.0136 37.754 31.5376 37.656 31.0242 37.656C30.5109 37.656 30.0396 37.74 29.6102 37.908C29.1902 38.076 28.8216 38.314 28.5042 38.622C28.1962 38.93 27.9536 39.294 27.7762 39.714C27.6082 40.134 27.5242 40.596 27.5242 41.1C27.5242 41.604 27.6082 42.066 27.7762 42.486C27.9536 42.906 28.1962 43.27 28.5042 43.578C28.8216 43.886 29.1902 44.124 29.6102 44.292C30.0396 44.46 30.5109 44.544 31.0242 44.544C31.5376 44.544 32.0136 44.4507 32.4522 44.264C32.8909 44.068 33.2876 43.774 33.6422 43.382L34.8182 44.502C34.3609 45.034 33.8009 45.44 33.1382 45.72C32.4756 46 31.7382 46.14 30.9262 46.14ZM36.3941 46V38.524H38.0601V40.582L37.8641 39.98C38.0881 39.476 38.4381 39.0933 38.9141 38.832C39.3994 38.5707 40.0014 38.44 40.7201 38.44V40.106C40.6454 40.0873 40.5754 40.078 40.5101 40.078C40.4448 40.0687 40.3794 40.064 40.3141 40.064C39.6514 40.064 39.1241 40.26 38.7321 40.652C38.3401 41.0347 38.1441 41.6087 38.1441 42.374V46H36.3941ZM45.6503 46.098C44.8196 46.098 44.0916 45.9347 43.4663 45.608C42.8503 45.272 42.3696 44.8147 42.0243 44.236C41.6883 43.6573 41.5203 42.9993 41.5203 42.262C41.5203 41.5153 41.6836 40.8573 42.0103 40.288C42.3463 39.7093 42.8036 39.2567 43.3823 38.93C43.9703 38.6033 44.6376 38.44 45.3843 38.44C46.1123 38.44 46.7609 38.5987 47.3303 38.916C47.8996 39.2333 48.3476 39.6813 48.6743 40.26C49.0009 40.8387 49.1643 41.52 49.1643 42.304C49.1643 42.3787 49.1596 42.4627 49.1503 42.556C49.1503 42.6493 49.1456 42.738 49.1363 42.822H42.9063V41.66H48.2123L47.5263 42.024C47.5356 41.5947 47.4469 41.2167 47.2603 40.89C47.0736 40.5633 46.8169 40.3067 46.4903 40.12C46.1729 39.9333 45.8043 39.84 45.3843 39.84C44.9549 39.84 44.5769 39.9333 44.2503 40.12C43.9329 40.3067 43.6809 40.568 43.4943 40.904C43.3169 41.2307 43.2283 41.618 43.2283 42.066V42.346C43.2283 42.794 43.3309 43.1907 43.5363 43.536C43.7416 43.8813 44.0309 44.1473 44.4043 44.334C44.7776 44.5207 45.2069 44.614 45.6923 44.614C46.1123 44.614 46.4903 44.5487 46.8263 44.418C47.1623 44.2873 47.4609 44.082 47.7223 43.802L48.6603 44.88C48.3243 45.272 47.8996 45.5753 47.3863 45.79C46.8823 45.9953 46.3036 46.098 45.6503 46.098ZM55.2462 46V44.488L55.1482 44.166V41.52C55.1482 41.0067 54.9942 40.61 54.6862 40.33C54.3782 40.0407 53.9115 39.896 53.2862 39.896C52.8662 39.896 52.4509 39.9613 52.0402 40.092C51.6389 40.2227 51.2982 40.4047 51.0182 40.638L50.3322 39.364C50.7335 39.056 51.2095 38.8273 51.7602 38.678C52.3202 38.5193 52.8989 38.44 53.4962 38.44C54.5789 38.44 55.4142 38.7013 56.0022 39.224C56.5995 39.7373 56.8982 40.5353 56.8982 41.618V46H55.2462ZM52.8942 46.098C52.3342 46.098 51.8442 46.0047 51.4242 45.818C51.0042 45.622 50.6775 45.356 50.4442 45.02C50.2202 44.6747 50.1082 44.2873 50.1082 43.858C50.1082 43.438 50.2062 43.06 50.4022 42.724C50.6075 42.388 50.9389 42.122 51.3962 41.926C51.8535 41.73 52.4602 41.632 53.2162 41.632H55.3862V42.794H53.3422C52.7449 42.794 52.3435 42.892 52.1382 43.088C51.9329 43.2747 51.8302 43.508 51.8302 43.788C51.8302 44.1053 51.9562 44.3573 52.2082 44.544C52.4602 44.7307 52.8102 44.824 53.2582 44.824C53.6875 44.824 54.0702 44.726 54.4062 44.53C54.7515 44.334 54.9989 44.0447 55.1482 43.662L55.4422 44.712C55.2742 45.1507 54.9709 45.4913 54.5322 45.734C54.1029 45.9767 53.5569 46.098 52.8942 46.098ZM68.5801 38.44C69.1774 38.44 69.7048 38.5567 70.1621 38.79C70.6288 39.0233 70.9928 39.3827 71.2541 39.868C71.5154 40.344 71.6461 40.96 71.6461 41.716V46H69.8961V41.94C69.8961 41.2773 69.7514 40.7827 69.4621 40.456C69.1728 40.1293 68.7574 39.966 68.2161 39.966C67.8334 39.966 67.4928 40.05 67.1941 40.218C66.9048 40.386 66.6761 40.6333 66.5081 40.96C66.3494 41.2867 66.2701 41.702 66.2701 42.206V46H64.5201V41.94C64.5201 41.2773 64.3754 40.7827 64.0861 40.456C63.7968 40.1293 63.3814 39.966 62.8401 39.966C62.4574 39.966 62.1168 40.05 61.8181 40.218C61.5288 40.386 61.3001 40.6333 61.1321 40.96C60.9734 41.2867 60.8941 41.702 60.8941 42.206V46H59.1441V38.524H60.8101V40.512L60.5161 39.924C60.7681 39.4387 61.1321 39.07 61.6081 38.818C62.0934 38.566 62.6441 38.44 63.2601 38.44C63.9601 38.44 64.5668 38.6127 65.0801 38.958C65.6028 39.3033 65.9481 39.826 66.1161 40.526L65.4301 40.288C65.6728 39.728 66.0741 39.28 66.6341 38.944C67.1941 38.608 67.8428 38.44 68.5801 38.44ZM82.5115 46.14C81.7462 46.14 81.0415 46.014 80.3975 45.762C79.7535 45.51 79.1935 45.16 78.7175 44.712C78.2415 44.2547 77.8728 43.7227 77.6115 43.116C77.3502 42.5 77.2195 41.828 77.2195 41.1C77.2195 40.372 77.3502 39.7047 77.6115 39.098C77.8728 38.482 78.2415 37.95 78.7175 37.502C79.1935 37.0447 79.7535 36.69 80.3975 36.438C81.0415 36.186 81.7415 36.06 82.4975 36.06C83.2628 36.06 83.9628 36.186 84.5975 36.438C85.2415 36.69 85.8015 37.0447 86.2775 37.502C86.7535 37.95 87.1222 38.482 87.3835 39.098C87.6448 39.7047 87.7755 40.372 87.7755 41.1C87.7755 41.828 87.6448 42.5 87.3835 43.116C87.1222 43.732 86.7535 44.264 86.2775 44.712C85.8015 45.16 85.2415 45.51 84.5975 45.762C83.9628 46.014 83.2675 46.14 82.5115 46.14ZM82.4975 44.544C82.9922 44.544 83.4495 44.46 83.8695 44.292C84.2895 44.124 84.6535 43.886 84.9615 43.578C85.2695 43.2607 85.5075 42.8967 85.6755 42.486C85.8528 42.066 85.9415 41.604 85.9415 41.1C85.9415 40.596 85.8528 40.1387 85.6755 39.728C85.5075 39.308 85.2695 38.944 84.9615 38.636C84.6535 38.3187 84.2895 38.076 83.8695 37.908C83.4495 37.74 82.9922 37.656 82.4975 37.656C82.0028 37.656 81.5455 37.74 81.1255 37.908C80.7148 38.076 80.3508 38.3187 80.0335 38.636C79.7255 38.944 79.4828 39.308 79.3055 39.728C79.1375 40.1387 79.0535 40.596 79.0535 41.1C79.0535 41.5947 79.1375 42.052 79.3055 42.472C79.4828 42.892 79.7255 43.2607 80.0335 43.578C80.3415 43.886 80.7055 44.124 81.1255 44.292C81.5455 44.46 82.0028 44.544 82.4975 44.544ZM91.5247 46L88.3187 38.524H90.1387L92.8967 45.118H92.0007L94.8567 38.524H96.5367L93.3307 46H91.5247ZM102.004 46V44.488L101.906 44.166V41.52C101.906 41.0067 101.752 40.61 101.444 40.33C101.136 40.0407 100.669 39.896 100.044 39.896C99.624 39.896 99.2087 39.9613 98.798 40.092C98.3967 40.2227 98.056 40.4047 97.776 40.638L97.09 39.364C97.4913 39.056 97.9673 38.8273 98.518 38.678C99.078 38.5193 99.6567 38.44 100.254 38.44C101.337 38.44 102.172 38.7013 102.76 39.224C103.357 39.7373 103.656 40.5353 103.656 41.618V46H102.004ZM99.652 46.098C99.092 46.098 98.602 46.0047 98.182 45.818C97.762 45.622 97.4353 45.356 97.202 45.02C96.978 44.6747 96.866 44.2873 96.866 43.858C96.866 43.438 96.964 43.06 97.16 42.724C97.3653 42.388 97.6967 42.122 98.154 41.926C98.6113 41.73 99.218 41.632 99.974 41.632H102.144V42.794H100.1C99.5027 42.794 99.1013 42.892 98.896 43.088C98.6907 43.2747 98.588 43.508 98.588 43.788C98.588 44.1053 98.714 44.3573 98.966 44.544C99.218 44.7307 99.568 44.824 100.016 44.824C100.445 44.824 100.828 44.726 101.164 44.53C101.509 44.334 101.757 44.0447 101.906 43.662L102.2 44.712C102.032 45.1507 101.729 45.4913 101.29 45.734C100.861 45.9767 100.315 46.098 99.652 46.098ZM105.902 46V35.612H107.652V46H105.902Z" fill="black"/>
<path d="M1.95 62.31H5.56V63.17H1.95V62.31ZM2.05 66H1.05V59H5.99V59.87H2.05V66ZM7.26 66V60.7H8.18V62.14L8.09 61.78C8.23667 61.4133 8.48333 61.1333 8.83 60.94C9.17667 60.7467 9.60333 60.65 10.11 60.65V61.58C10.07 61.5733 10.03 61.57 9.99 61.57C9.95667 61.57 9.92333 61.57 9.89 61.57C9.37667 61.57 8.97 61.7233 8.67 62.03C8.37 62.3367 8.22 62.78 8.22 63.36V66H7.26ZM13.7044 66.06C13.1377 66.06 12.6377 65.9433 12.2044 65.71C11.7777 65.4767 11.4444 65.1567 11.2044 64.75C10.971 64.3433 10.8544 63.8767 10.8544 63.35C10.8544 62.8233 10.9677 62.3567 11.1944 61.95C11.4277 61.5433 11.7444 61.2267 12.1444 61C12.551 60.7667 13.0077 60.65 13.5144 60.65C14.0277 60.65 14.481 60.7633 14.8744 60.99C15.2677 61.2167 15.5744 61.5367 15.7944 61.95C16.021 62.3567 16.1344 62.8333 16.1344 63.38C16.1344 63.42 16.131 63.4667 16.1244 63.52C16.1244 63.5733 16.121 63.6233 16.1144 63.67H11.6044V62.98H15.6144L15.2244 63.22C15.231 62.88 15.161 62.5767 15.0144 62.31C14.8677 62.0433 14.6644 61.8367 14.4044 61.69C14.151 61.5367 13.8544 61.46 13.5144 61.46C13.181 61.46 12.8844 61.5367 12.6244 61.69C12.3644 61.8367 12.161 62.0467 12.0144 62.32C11.8677 62.5867 11.7944 62.8933 11.7944 63.24V63.4C11.7944 63.7533 11.8744 64.07 12.0344 64.35C12.201 64.6233 12.431 64.8367 12.7244 64.99C13.0177 65.1433 13.3544 65.22 13.7344 65.22C14.0477 65.22 14.331 65.1667 14.5844 65.06C14.8444 64.9533 15.071 64.7933 15.2644 64.58L15.7944 65.2C15.5544 65.48 15.2544 65.6933 14.8944 65.84C14.541 65.9867 14.1444 66.06 13.7044 66.06ZM19.0874 66.06C18.6474 66.06 18.2274 66 17.8274 65.88C17.4341 65.76 17.1241 65.6133 16.8974 65.44L17.2974 64.68C17.5241 64.8333 17.8041 64.9633 18.1374 65.07C18.4708 65.1767 18.8108 65.23 19.1574 65.23C19.6041 65.23 19.9241 65.1667 20.1174 65.04C20.3174 64.9133 20.4174 64.7367 20.4174 64.51C20.4174 64.3433 20.3574 64.2133 20.2374 64.12C20.1174 64.0267 19.9574 63.9567 19.7574 63.91C19.5641 63.8633 19.3474 63.8233 19.1074 63.79C18.8674 63.75 18.6274 63.7033 18.3874 63.65C18.1474 63.59 17.9274 63.51 17.7274 63.41C17.5274 63.3033 17.3674 63.16 17.2474 62.98C17.1274 62.7933 17.0674 62.5467 17.0674 62.24C17.0674 61.92 17.1574 61.64 17.3374 61.4C17.5174 61.16 17.7708 60.9767 18.0974 60.85C18.4308 60.7167 18.8241 60.65 19.2774 60.65C19.6241 60.65 19.9741 60.6933 20.3274 60.78C20.6874 60.86 20.9808 60.9767 21.2074 61.13L20.7974 61.89C20.5574 61.73 20.3074 61.62 20.0474 61.56C19.7874 61.5 19.5274 61.47 19.2674 61.47C18.8474 61.47 18.5341 61.54 18.3274 61.68C18.1208 61.8133 18.0174 61.9867 18.0174 62.2C18.0174 62.38 18.0774 62.52 18.1974 62.62C18.3241 62.7133 18.4841 62.7867 18.6774 62.84C18.8774 62.8933 19.0974 62.94 19.3374 62.98C19.5774 63.0133 19.8174 63.06 20.0574 63.12C20.2974 63.1733 20.5141 63.25 20.7074 63.35C20.9074 63.45 21.0674 63.59 21.1874 63.77C21.3141 63.95 21.3774 64.19 21.3774 64.49C21.3774 64.81 21.2841 65.0867 21.0974 65.32C20.9108 65.5533 20.6474 65.7367 20.3074 65.87C19.9674 65.9967 19.5608 66.06 19.0874 66.06ZM25.5072 60.65C25.9405 60.65 26.3205 60.7333 26.6472 60.9C26.9805 61.0667 27.2405 61.32 27.4272 61.66C27.6139 62 27.7072 62.43 27.7072 62.95V66H26.7472V63.06C26.7472 62.5467 26.6205 62.16 26.3672 61.9C26.1205 61.64 25.7705 61.51 25.3172 61.51C24.9772 61.51 24.6805 61.5767 24.4272 61.71C24.1739 61.8433 23.9772 62.04 23.8372 62.3C23.7039 62.56 23.6372 62.8833 23.6372 63.27V66H22.6772V58.58H23.6372V62.13L23.4472 61.75C23.6205 61.4033 23.8872 61.1333 24.2472 60.94C24.6072 60.7467 25.0272 60.65 25.5072 60.65ZM34.1894 66.06C33.656 66.06 33.2427 65.9167 32.9494 65.63C32.656 65.3433 32.5094 64.9333 32.5094 64.4V59.54H33.4694V64.36C33.4694 64.6467 33.5394 64.8667 33.6794 65.02C33.826 65.1733 34.0327 65.25 34.2994 65.25C34.5994 65.25 34.8494 65.1667 35.0494 65L35.3494 65.69C35.2027 65.8167 35.026 65.91 34.8194 65.97C34.6194 66.03 34.4094 66.06 34.1894 66.06ZM31.6094 61.49V60.7H34.9894V61.49H31.6094ZM39.9 66V64.88L39.85 64.67V62.76C39.85 62.3533 39.73 62.04 39.49 61.82C39.2567 61.5933 38.9033 61.48 38.43 61.48C38.1167 61.48 37.81 61.5333 37.51 61.64C37.21 61.74 36.9567 61.8767 36.75 62.05L36.35 61.33C36.6233 61.11 36.95 60.9433 37.33 60.83C37.7167 60.71 38.12 60.65 38.54 60.65C39.2667 60.65 39.8267 60.8267 40.22 61.18C40.6133 61.5333 40.81 62.0733 40.81 62.8V66H39.9ZM38.16 66.06C37.7667 66.06 37.42 65.9933 37.12 65.86C36.8267 65.7267 36.6 65.5433 36.44 65.31C36.28 65.07 36.2 64.8 36.2 64.5C36.2 64.2133 36.2667 63.9533 36.4 63.72C36.54 63.4867 36.7633 63.3 37.07 63.16C37.3833 63.02 37.8033 62.95 38.33 62.95H40.01V63.64H38.37C37.89 63.64 37.5667 63.72 37.4 63.88C37.2333 64.04 37.15 64.2333 37.15 64.46C37.15 64.72 37.2533 64.93 37.46 65.09C37.6667 65.2433 37.9533 65.32 38.32 65.32C38.68 65.32 38.9933 65.24 39.26 65.08C39.5333 64.92 39.73 64.6867 39.85 64.38L40.04 65.04C39.9133 65.3533 39.69 65.6033 39.37 65.79C39.05 65.97 38.6467 66.06 38.16 66.06ZM44.2066 66.06C43.7666 66.06 43.3466 66 42.9466 65.88C42.5532 65.76 42.2432 65.6133 42.0166 65.44L42.4166 64.68C42.6432 64.8333 42.9232 64.9633 43.2566 65.07C43.5899 65.1767 43.9299 65.23 44.2766 65.23C44.7232 65.23 45.0432 65.1667 45.2366 65.04C45.4366 64.9133 45.5366 64.7367 45.5366 64.51C45.5366 64.3433 45.4766 64.2133 45.3566 64.12C45.2366 64.0267 45.0766 63.9567 44.8766 63.91C44.6832 63.8633 44.4666 63.8233 44.2266 63.79C43.9866 63.75 43.7466 63.7033 43.5066 63.65C43.2666 63.59 43.0466 63.51 42.8466 63.41C42.6466 63.3033 42.4866 63.16 42.3666 62.98C42.2466 62.7933 42.1866 62.5467 42.1866 62.24C42.1866 61.92 42.2766 61.64 42.4566 61.4C42.6366 61.16 42.8899 60.9767 43.2166 60.85C43.5499 60.7167 43.9432 60.65 44.3966 60.65C44.7432 60.65 45.0932 60.6933 45.4466 60.78C45.8066 60.86 46.0999 60.9767 46.3266 61.13L45.9166 61.89C45.6766 61.73 45.4266 61.62 45.1666 61.56C44.9066 61.5 44.6466 61.47 44.3866 61.47C43.9666 61.47 43.6532 61.54 43.4466 61.68C43.2399 61.8133 43.1366 61.9867 43.1366 62.2C43.1366 62.38 43.1966 62.52 43.3166 62.62C43.4432 62.7133 43.6032 62.7867 43.7966 62.84C43.9966 62.8933 44.2166 62.94 44.4566 62.98C44.6966 63.0133 44.9366 63.06 45.1766 63.12C45.4166 63.1733 45.6332 63.25 45.8266 63.35C46.0266 63.45 46.1866 63.59 46.3066 63.77C46.4332 63.95 46.4966 64.19 46.4966 64.49C46.4966 64.81 46.4032 65.0867 46.2166 65.32C46.0299 65.5533 45.7666 65.7367 45.4266 65.87C45.0866 65.9967 44.6799 66.06 44.2066 66.06ZM49.6163 66.06C49.083 66.06 48.6697 65.9167 48.3763 65.63C48.083 65.3433 47.9363 64.9333 47.9363 64.4V59.54H48.8963V64.36C48.8963 64.6467 48.9663 64.8667 49.1063 65.02C49.253 65.1733 49.4597 65.25 49.7263 65.25C50.0263 65.25 50.2763 65.1667 50.4763 65L50.7763 65.69C50.6297 65.8167 50.453 65.91 50.2463 65.97C50.0463 66.03 49.8363 66.06 49.6163 66.06ZM47.0363 61.49V60.7H50.4163V61.49H47.0363ZM54.2212 66.06C53.6545 66.06 53.1545 65.9433 52.7212 65.71C52.2945 65.4767 51.9612 65.1567 51.7212 64.75C51.4878 64.3433 51.3712 63.8767 51.3712 63.35C51.3712 62.8233 51.4845 62.3567 51.7112 61.95C51.9445 61.5433 52.2612 61.2267 52.6612 61C53.0678 60.7667 53.5245 60.65 54.0312 60.65C54.5445 60.65 54.9978 60.7633 55.3912 60.99C55.7845 61.2167 56.0912 61.5367 56.3112 61.95C56.5378 62.3567 56.6512 62.8333 56.6512 63.38C56.6512 63.42 56.6478 63.4667 56.6412 63.52C56.6412 63.5733 56.6378 63.6233 56.6312 63.67H52.1212V62.98H56.1312L55.7412 63.22C55.7478 62.88 55.6778 62.5767 55.5312 62.31C55.3845 62.0433 55.1812 61.8367 54.9212 61.69C54.6678 61.5367 54.3712 61.46 54.0312 61.46C53.6978 61.46 53.4012 61.5367 53.1412 61.69C52.8812 61.8367 52.6778 62.0467 52.5312 62.32C52.3845 62.5867 52.3112 62.8933 52.3112 63.24V63.4C52.3112 63.7533 52.3912 64.07 52.5512 64.35C52.7178 64.6233 52.9478 64.8367 53.2412 64.99C53.5345 65.1433 53.8712 65.22 54.2512 65.22C54.5645 65.22 54.8478 65.1667 55.1012 65.06C55.3612 64.9533 55.5878 64.7933 55.7812 64.58L56.3112 65.2C56.0712 65.48 55.7712 65.6933 55.4112 65.84C55.0578 65.9867 54.6612 66.06 54.2212 66.06ZM61.9898 66L60.0198 60.7H60.9298L62.6798 65.5H62.2498L64.0698 60.7H64.8798L66.6598 65.5H66.2398L68.0298 60.7H68.8898L66.9098 66H65.9898L64.3198 61.62H64.5998L62.9098 66H61.9898ZM69.9639 66V60.7H70.9239V66H69.9639ZM70.4439 59.68C70.2572 59.68 70.1006 59.62 69.9739 59.5C69.8539 59.38 69.7939 59.2333 69.7939 59.06C69.7939 58.88 69.8539 58.73 69.9739 58.61C70.1006 58.49 70.2572 58.43 70.4439 58.43C70.6306 58.43 70.7839 58.49 70.9039 58.61C71.0306 58.7233 71.0939 58.8667 71.0939 59.04C71.0939 59.22 71.0339 59.3733 70.9139 59.5C70.7939 59.62 70.6372 59.68 70.4439 59.68ZM74.6769 66.06C74.1435 66.06 73.7302 65.9167 73.4369 65.63C73.1435 65.3433 72.9969 64.9333 72.9969 64.4V59.54H73.9569V64.36C73.9569 64.6467 74.0269 64.8667 74.1669 65.02C74.3135 65.1733 74.5202 65.25 74.7869 65.25C75.0869 65.25 75.3369 65.1667 75.5369 65L75.8369 65.69C75.6902 65.8167 75.5135 65.91 75.3069 65.97C75.1069 66.03 74.8969 66.06 74.6769 66.06ZM72.0969 61.49V60.7H75.4769V61.49H72.0969ZM79.9275 60.65C80.3608 60.65 80.7408 60.7333 81.0675 60.9C81.4008 61.0667 81.6608 61.32 81.8475 61.66C82.0342 62 82.1275 62.43 82.1275 62.95V66H81.1675V63.06C81.1675 62.5467 81.0408 62.16 80.7875 61.9C80.5408 61.64 80.1908 61.51 79.7375 61.51C79.3975 61.51 79.1008 61.5767 78.8475 61.71C78.5942 61.8433 78.3975 62.04 78.2575 62.3C78.1242 62.56 78.0575 62.8833 78.0575 63.27V66H77.0975V58.58H78.0575V62.13L77.8675 61.75C78.0408 61.4033 78.3075 61.1333 78.6675 60.94C79.0275 60.7467 79.4475 60.65 79.9275 60.65ZM89.5997 66.06C89.1464 66.06 88.7364 65.96 88.3697 65.76C88.0097 65.5533 87.723 65.25 87.5097 64.85C87.303 64.45 87.1997 63.95 87.1997 63.35C87.1997 62.75 87.3064 62.25 87.5197 61.85C87.7397 61.45 88.0297 61.15 88.3897 60.95C88.7564 60.75 89.1597 60.65 89.5997 60.65C90.1197 60.65 90.5797 60.7633 90.9797 60.99C91.3797 61.2167 91.6964 61.5333 91.9297 61.94C92.163 62.34 92.2797 62.81 92.2797 63.35C92.2797 63.89 92.163 64.3633 91.9297 64.77C91.6964 65.1767 91.3797 65.4933 90.9797 65.72C90.5797 65.9467 90.1197 66.06 89.5997 66.06ZM86.7897 66V58.58H87.7497V62.11L87.6497 63.34L87.7097 64.57V66H86.7897ZM89.5197 65.22C89.8597 65.22 90.163 65.1433 90.4297 64.99C90.703 64.8367 90.9164 64.62 91.0697 64.34C91.2297 64.0533 91.3097 63.7233 91.3097 63.35C91.3097 62.97 91.2297 62.6433 91.0697 62.37C90.9164 62.09 90.703 61.8733 90.4297 61.72C90.163 61.5667 89.8597 61.49 89.5197 61.49C89.1864 61.49 88.883 61.5667 88.6097 61.72C88.343 61.8733 88.1297 62.09 87.9697 62.37C87.8164 62.6433 87.7397 62.97 87.7397 63.35C87.7397 63.7233 87.8164 64.0533 87.9697 64.34C88.1297 64.62 88.343 64.8367 88.6097 64.99C88.883 65.1433 89.1864 65.22 89.5197 65.22ZM93.7061 66V60.7H94.6261V62.14L94.5361 61.78C94.6828 61.4133 94.9294 61.1333 95.2761 60.94C95.6228 60.7467 96.0494 60.65 96.5561 60.65V61.58C96.5161 61.5733 96.4761 61.57 96.4361 61.57C96.4028 61.57 96.3694 61.57 96.3361 61.57C95.8228 61.57 95.4161 61.7233 95.1161 62.03C94.8161 62.3367 94.6661 62.78 94.6661 63.36V66H93.7061ZM97.8393 66V60.7H98.7993V66H97.8393ZM98.3193 59.68C98.1326 59.68 97.976 59.62 97.8493 59.5C97.7293 59.38 97.6693 59.2333 97.6693 59.06C97.6693 58.88 97.7293 58.73 97.8493 58.61C97.976 58.49 98.1326 58.43 98.3193 58.43C98.506 58.43 98.6593 58.49 98.7793 58.61C98.906 58.7233 98.9693 58.8667 98.9693 59.04C98.9693 59.22 98.9093 59.3733 98.7893 59.5C98.6693 59.62 98.5126 59.68 98.3193 59.68ZM103.052 68C102.566 68 102.092 67.93 101.632 67.79C101.179 67.6567 100.809 67.4633 100.522 67.21L100.982 66.47C101.229 66.6833 101.532 66.85 101.892 66.97C102.252 67.0967 102.629 67.16 103.022 67.16C103.649 67.16 104.109 67.0133 104.402 66.72C104.696 66.4267 104.842 65.98 104.842 65.38V64.26L104.942 63.21L104.892 62.15V60.7H105.802V65.28C105.802 66.2133 105.569 66.9 105.102 67.34C104.636 67.78 103.952 68 103.052 68ZM102.932 65.78C102.419 65.78 101.959 65.6733 101.552 65.46C101.152 65.24 100.832 64.9367 100.592 64.55C100.359 64.1633 100.242 63.7167 100.242 63.21C100.242 62.6967 100.359 62.25 100.592 61.87C100.832 61.4833 101.152 61.1833 101.552 60.97C101.959 60.7567 102.419 60.65 102.932 60.65C103.386 60.65 103.799 60.7433 104.172 60.93C104.546 61.11 104.842 61.39 105.062 61.77C105.289 62.15 105.402 62.63 105.402 63.21C105.402 63.7833 105.289 64.26 105.062 64.64C104.842 65.02 104.546 65.3067 104.172 65.5C103.799 65.6867 103.386 65.78 102.932 65.78ZM103.042 64.94C103.396 64.94 103.709 64.8667 103.982 64.72C104.256 64.5733 104.469 64.37 104.622 64.11C104.782 63.85 104.862 63.55 104.862 63.21C104.862 62.87 104.782 62.57 104.622 62.31C104.469 62.05 104.256 61.85 103.982 61.71C103.709 61.5633 103.396 61.49 103.042 61.49C102.689 61.49 102.372 61.5633 102.092 61.71C101.819 61.85 101.602 62.05 101.442 62.31C101.289 62.57 101.212 62.87 101.212 63.21C101.212 63.55 101.289 63.85 101.442 64.11C101.602 64.37 101.819 64.5733 102.092 64.72C102.372 64.8667 102.689 64.94 103.042 64.94ZM110.567 60.65C111 60.65 111.38 60.7333 111.707 60.9C112.04 61.0667 112.3 61.32 112.487 61.66C112.673 62 112.767 62.43 112.767 62.95V66H111.807V63.06C111.807 62.5467 111.68 62.16 111.427 61.9C111.18 61.64 110.83 61.51 110.377 61.51C110.037 61.51 109.74 61.5767 109.487 61.71C109.233 61.8433 109.037 62.04 108.897 62.3C108.763 62.56 108.697 62.8833 108.697 63.27V66H107.737V58.58H108.697V62.13L108.507 61.75C108.68 61.4033 108.947 61.1333 109.307 60.94C109.667 60.7467 110.087 60.65 110.567 60.65ZM116.463 66.06C115.93 66.06 115.517 65.9167 115.223 65.63C114.93 65.3433 114.783 64.9333 114.783 64.4V59.54H115.743V64.36C115.743 64.6467 115.813 64.8667 115.953 65.02C116.1 65.1733 116.307 65.25 116.573 65.25C116.873 65.25 117.123 65.1667 117.323 65L117.623 65.69C117.477 65.8167 117.3 65.91 117.093 65.97C116.893 66.03 116.683 66.06 116.463 66.06ZM113.883 61.49V60.7H117.263V61.49H113.883ZM3.72 80.06C3.26667 80.06 2.85667 79.96 2.49 79.76C2.13 79.5533 1.84333 79.25 1.63 78.85C1.42333 78.45 1.32 77.95 1.32 77.35C1.32 76.75 1.42667 76.25 1.64 75.85C1.86 75.45 2.15 75.15 2.51 74.95C2.87667 74.75 3.28 74.65 3.72 74.65C4.24 74.65 4.7 74.7633 5.1 74.99C5.5 75.2167 5.81667 75.5333 6.05 75.94C6.28333 76.34 6.4 76.81 6.4 77.35C6.4 77.89 6.28333 78.3633 6.05 78.77C5.81667 79.1767 5.5 79.4933 5.1 79.72C4.7 79.9467 4.24 80.06 3.72 80.06ZM0.91 80V72.58H1.87V76.11L1.77 77.34L1.83 78.57V80H0.91ZM3.64 79.22C3.98 79.22 4.28333 79.1433 4.55 78.99C4.82333 78.8367 5.03667 78.62 5.19 78.34C5.35 78.0533 5.43 77.7233 5.43 77.35C5.43 76.97 5.35 76.6433 5.19 76.37C5.03667 76.09 4.82333 75.8733 4.55 75.72C4.28333 75.5667 3.98 75.49 3.64 75.49C3.30667 75.49 3.00333 75.5667 2.73 75.72C2.46333 75.8733 2.25 76.09 2.09 76.37C1.93667 76.6433 1.86 76.97 1.86 77.35C1.86 77.7233 1.93667 78.0533 2.09 78.34C2.25 78.62 2.46333 78.8367 2.73 78.99C3.00333 79.1433 3.30667 79.22 3.64 79.22ZM7.82641 80V74.7H8.74641V76.14L8.65641 75.78C8.80307 75.4133 9.04974 75.1333 9.39641 74.94C9.74307 74.7467 10.1697 74.65 10.6764 74.65V75.58C10.6364 75.5733 10.5964 75.57 10.5564 75.57C10.5231 75.57 10.4897 75.57 10.4564 75.57C9.94307 75.57 9.53641 75.7233 9.23641 76.03C8.93641 76.3367 8.78641 76.78 8.78641 77.36V80H7.82641ZM14.859 80V78.88L14.809 78.67V76.76C14.809 76.3533 14.689 76.04 14.449 75.82C14.2157 75.5933 13.8623 75.48 13.389 75.48C13.0757 75.48 12.769 75.5333 12.469 75.64C12.169 75.74 11.9157 75.8767 11.709 76.05L11.309 75.33C11.5823 75.11 11.909 74.9433 12.289 74.83C12.6757 74.71 13.079 74.65 13.499 74.65C14.2257 74.65 14.7857 74.8267 15.179 75.18C15.5723 75.5333 15.769 76.0733 15.769 76.8V80H14.859ZM13.119 80.06C12.7257 80.06 12.379 79.9933 12.079 79.86C11.7857 79.7267 11.559 79.5433 11.399 79.31C11.239 79.07 11.159 78.8 11.159 78.5C11.159 78.2133 11.2257 77.9533 11.359 77.72C11.499 77.4867 11.7223 77.3 12.029 77.16C12.3423 77.02 12.7623 76.95 13.289 76.95H14.969V77.64H13.329C12.849 77.64 12.5257 77.72 12.359 77.88C12.1923 78.04 12.109 78.2333 12.109 78.46C12.109 78.72 12.2123 78.93 12.419 79.09C12.6257 79.2433 12.9123 79.32 13.279 79.32C13.639 79.32 13.9523 79.24 14.219 79.08C14.4923 78.92 14.689 78.6867 14.809 78.38L14.999 79.04C14.8723 79.3533 14.649 79.6033 14.329 79.79C14.009 79.97 13.6057 80.06 13.119 80.06ZM20.4755 74.65C20.9089 74.65 21.2889 74.7333 21.6155 74.9C21.9489 75.0667 22.2089 75.32 22.3955 75.66C22.5822 76 22.6755 76.43 22.6755 76.95V80H21.7155V77.06C21.7155 76.5467 21.5889 76.16 21.3355 75.9C21.0889 75.64 20.7389 75.51 20.2855 75.51C19.9455 75.51 19.6489 75.5767 19.3955 75.71C19.1422 75.8433 18.9455 76.04 18.8055 76.3C18.6722 76.56 18.6055 76.8833 18.6055 77.27V80H17.6455V74.7H18.5655V76.13L18.4155 75.75C18.5889 75.4033 18.8555 75.1333 19.2155 74.94C19.5755 74.7467 19.9955 74.65 20.4755 74.65ZM26.7422 80.06C26.2289 80.06 25.7689 79.9467 25.3622 79.72C24.9622 79.4933 24.6455 79.1767 24.4122 78.77C24.1789 78.3633 24.0622 77.89 24.0622 77.35C24.0622 76.81 24.1789 76.34 24.4122 75.94C24.6455 75.5333 24.9622 75.2167 25.3622 74.99C25.7689 74.7633 26.2289 74.65 26.7422 74.65C27.1889 74.65 27.5922 74.75 27.9522 74.95C28.3122 75.15 28.5989 75.45 28.8122 75.85C29.0322 76.25 29.1422 76.75 29.1422 77.35C29.1422 77.95 29.0355 78.45 28.8222 78.85C28.6155 79.25 28.3322 79.5533 27.9722 79.76C27.6122 79.96 27.2022 80.06 26.7422 80.06ZM26.8222 79.22C27.1555 79.22 27.4555 79.1433 27.7222 78.99C27.9955 78.8367 28.2089 78.62 28.3622 78.34C28.5222 78.0533 28.6022 77.7233 28.6022 77.35C28.6022 76.97 28.5222 76.6433 28.3622 76.37C28.2089 76.09 27.9955 75.8733 27.7222 75.72C27.4555 75.5667 27.1555 75.49 26.8222 75.49C26.4822 75.49 26.1789 75.5667 25.9122 75.72C25.6455 75.8733 25.4322 76.09 25.2722 76.37C25.1122 76.6433 25.0322 76.97 25.0322 77.35C25.0322 77.7233 25.1122 78.0533 25.2722 78.34C25.4322 78.62 25.6455 78.8367 25.9122 78.99C26.1789 79.1433 26.4822 79.22 26.8222 79.22ZM28.6322 80V78.57L28.6922 77.34L28.5922 76.11V72.58H29.5522V80H28.6322ZM31.4686 80V74.7H32.4286V80H31.4686ZM31.9486 73.68C31.7619 73.68 31.6053 73.62 31.4786 73.5C31.3586 73.38 31.2986 73.2333 31.2986 73.06C31.2986 72.88 31.3586 72.73 31.4786 72.61C31.6053 72.49 31.7619 72.43 31.9486 72.43C32.1353 72.43 32.2886 72.49 32.4086 72.61C32.5353 72.7233 32.5986 72.8667 32.5986 73.04C32.5986 73.22 32.5386 73.3733 32.4186 73.5C32.2986 73.62 32.1419 73.68 31.9486 73.68ZM37.1916 74.65C37.6249 74.65 38.0049 74.7333 38.3316 74.9C38.6649 75.0667 38.9249 75.32 39.1116 75.66C39.2982 76 39.3916 76.43 39.3916 76.95V80H38.4316V77.06C38.4316 76.5467 38.3049 76.16 38.0516 75.9C37.8049 75.64 37.4549 75.51 37.0016 75.51C36.6616 75.51 36.3649 75.5767 36.1116 75.71C35.8582 75.8433 35.6616 76.04 35.5216 76.3C35.3882 76.56 35.3216 76.8833 35.3216 77.27V80H34.3616V74.7H35.2816V76.13L35.1316 75.75C35.3049 75.4033 35.5716 75.1333 35.9316 74.94C36.2916 74.7467 36.7116 74.65 37.1916 74.65ZM43.5882 82C43.1015 82 42.6282 81.93 42.1682 81.79C41.7149 81.6567 41.3449 81.4633 41.0582 81.21L41.5182 80.47C41.7649 80.6833 42.0682 80.85 42.4282 80.97C42.7882 81.0967 43.1649 81.16 43.5582 81.16C44.1849 81.16 44.6449 81.0133 44.9382 80.72C45.2315 80.4267 45.3782 79.98 45.3782 79.38V78.26L45.4782 77.21L45.4282 76.15V74.7H46.3382V79.28C46.3382 80.2133 46.1049 80.9 45.6382 81.34C45.1715 81.78 44.4882 82 43.5882 82ZM43.4682 79.78C42.9549 79.78 42.4949 79.6733 42.0882 79.46C41.6882 79.24 41.3682 78.9367 41.1282 78.55C40.8949 78.1633 40.7782 77.7167 40.7782 77.21C40.7782 76.6967 40.8949 76.25 41.1282 75.87C41.3682 75.4833 41.6882 75.1833 42.0882 74.97C42.4949 74.7567 42.9549 74.65 43.4682 74.65C43.9215 74.65 44.3349 74.7433 44.7082 74.93C45.0815 75.11 45.3782 75.39 45.5982 75.77C45.8249 76.15 45.9382 76.63 45.9382 77.21C45.9382 77.7833 45.8249 78.26 45.5982 78.64C45.3782 79.02 45.0815 79.3067 44.7082 79.5C44.3349 79.6867 43.9215 79.78 43.4682 79.78ZM43.5782 78.94C43.9315 78.94 44.2449 78.8667 44.5182 78.72C44.7915 78.5733 45.0049 78.37 45.1582 78.11C45.3182 77.85 45.3982 77.55 45.3982 77.21C45.3982 76.87 45.3182 76.57 45.1582 76.31C45.0049 76.05 44.7915 75.85 44.5182 75.71C44.2449 75.5633 43.9315 75.49 43.5782 75.49C43.2249 75.49 42.9082 75.5633 42.6282 75.71C42.3549 75.85 42.1382 76.05 41.9782 76.31C41.8249 76.57 41.7482 76.87 41.7482 77.21C41.7482 77.55 41.8249 77.85 41.9782 78.11C42.1382 78.37 42.3549 78.5733 42.6282 78.72C42.9082 78.8667 43.2249 78.94 43.5782 78.94ZM51.058 80V74.7H52.018V80H51.058ZM51.538 73.68C51.3514 73.68 51.1947 73.62 51.068 73.5C50.948 73.38 50.888 73.2333 50.888 73.06C50.888 72.88 50.948 72.73 51.068 72.61C51.1947 72.49 51.3514 72.43 51.538 72.43C51.7247 72.43 51.878 72.49 51.998 72.61C52.1247 72.7233 52.188 72.8667 52.188 73.04C52.188 73.22 52.128 73.3733 52.008 73.5C51.888 73.62 51.7314 73.68 51.538 73.68ZM56.781 74.65C57.2143 74.65 57.5943 74.7333 57.921 74.9C58.2543 75.0667 58.5143 75.32 58.701 75.66C58.8877 76 58.981 76.43 58.981 76.95V80H58.021V77.06C58.021 76.5467 57.8943 76.16 57.641 75.9C57.3943 75.64 57.0443 75.51 56.591 75.51C56.251 75.51 55.9543 75.5767 55.701 75.71C55.4477 75.8433 55.251 76.04 55.111 76.3C54.9777 76.56 54.911 76.8833 54.911 77.27V80H53.951V74.7H54.871V76.13L54.721 75.75C54.8943 75.4033 55.161 75.1333 55.521 74.94C55.881 74.7467 56.301 74.65 56.781 74.65ZM63.7832 80V73H64.7832V80H63.7832ZM66.9789 80V73H67.7989L70.9389 78.29H70.4989L73.5989 73H74.4189L74.4289 80H73.4689L73.4589 74.51H73.6889L70.9289 79.15H70.4689L67.6889 74.51H67.9389V80H66.9789ZM76.6297 80V73H77.6297V79.13H81.4197V80H76.6297ZM87.5827 80.06C87.0494 80.06 86.5761 79.9433 86.1627 79.71C85.7494 79.4767 85.4227 79.1567 85.1827 78.75C84.9427 78.3367 84.8227 77.87 84.8227 77.35C84.8227 76.8233 84.9427 76.3567 85.1827 75.95C85.4227 75.5433 85.7494 75.2267 86.1627 75C86.5761 74.7667 87.0494 74.65 87.5827 74.65C88.1094 74.65 88.5794 74.7667 88.9927 75C89.4127 75.2267 89.7394 75.5433 89.9727 75.95C90.2127 76.35 90.3327 76.8167 90.3327 77.35C90.3327 77.8767 90.2127 78.3433 89.9727 78.75C89.7394 79.1567 89.4127 79.4767 88.9927 79.71C88.5794 79.9433 88.1094 80.06 87.5827 80.06ZM87.5827 79.22C87.9227 79.22 88.2261 79.1433 88.4927 78.99C88.7661 78.8367 88.9794 78.62 89.1327 78.34C89.2861 78.0533 89.3627 77.7233 89.3627 77.35C89.3627 76.97 89.2861 76.6433 89.1327 76.37C88.9794 76.09 88.7661 75.8733 88.4927 75.72C88.2261 75.5667 87.9227 75.49 87.5827 75.49C87.2427 75.49 86.9394 75.5667 86.6727 75.72C86.4061 75.8733 86.1927 76.09 86.0327 76.37C85.8727 76.6433 85.7927 76.97 85.7927 77.35C85.7927 77.7233 85.8727 78.0533 86.0327 78.34C86.1927 78.62 86.4061 78.8367 86.6727 78.99C86.9394 79.1433 87.2427 79.22 87.5827 79.22ZM93.0039 80L90.6839 74.7H91.6839L93.7439 79.5H93.2639L95.3639 74.7H96.3039L93.9839 80H93.0039ZM100.424 80V78.88L100.374 78.67V76.76C100.374 76.3533 100.254 76.04 100.014 75.82C99.7805 75.5933 99.4272 75.48 98.9538 75.48C98.6405 75.48 98.3338 75.5333 98.0338 75.64C97.7338 75.74 97.4805 75.8767 97.2738 76.05L96.8738 75.33C97.1472 75.11 97.4738 74.9433 97.8538 74.83C98.2405 74.71 98.6438 74.65 99.0638 74.65C99.7905 74.65 100.35 74.8267 100.744 75.18C101.137 75.5333 101.334 76.0733 101.334 76.8V80H100.424ZM98.6838 80.06C98.2905 80.06 97.9438 79.9933 97.6438 79.86C97.3505 79.7267 97.1238 79.5433 96.9638 79.31C96.8038 79.07 96.7238 78.8 96.7238 78.5C96.7238 78.2133 96.7905 77.9533 96.9238 77.72C97.0638 77.4867 97.2872 77.3 97.5938 77.16C97.9072 77.02 98.3272 76.95 98.8538 76.95H100.534V77.64H98.8938C98.4138 77.64 98.0905 77.72 97.9238 77.88C97.7572 78.04 97.6738 78.2333 97.6738 78.46C97.6738 78.72 97.7772 78.93 97.9838 79.09C98.1905 79.2433 98.4772 79.32 98.8438 79.32C99.2038 79.32 99.5172 79.24 99.7838 79.08C100.057 78.92 100.254 78.6867 100.374 78.38L100.564 79.04C100.437 79.3533 100.214 79.6033 99.8938 79.79C99.5738 79.97 99.1705 80.06 98.6838 80.06ZM103.21 80V72.58H104.17V80H103.21ZM3.22 93.06C2.68 93.06 2.19667 92.9433 1.77 92.71C1.35 92.4767 1.02 92.1567 0.78 91.75C0.54 91.3433 0.42 90.8767 0.42 90.35C0.42 89.8233 0.54 89.3567 0.78 88.95C1.02 88.5433 1.35 88.2267 1.77 88C2.19667 87.7667 2.68 87.65 3.22 87.65C3.7 87.65 4.12667 87.7467 4.5 87.94C4.88 88.1267 5.17333 88.4067 5.38 88.78L4.65 89.25C4.47667 88.99 4.26333 88.8 4.01 88.68C3.76333 88.5533 3.49667 88.49 3.21 88.49C2.86333 88.49 2.55333 88.5667 2.28 88.72C2.00667 88.8733 1.79 89.09 1.63 89.37C1.47 89.6433 1.39 89.97 1.39 90.35C1.39 90.73 1.47 91.06 1.63 91.34C1.79 91.62 2.00667 91.8367 2.28 91.99C2.55333 92.1433 2.86333 92.22 3.21 92.22C3.49667 92.22 3.76333 92.16 4.01 92.04C4.26333 91.9133 4.47667 91.72 4.65 91.46L5.38 91.92C5.17333 92.2867 4.88 92.57 4.5 92.77C4.12667 92.9633 3.7 93.06 3.22 93.06ZM8.91477 93.06C8.38143 93.06 7.9081 92.9433 7.49477 92.71C7.08143 92.4767 6.75477 92.1567 6.51477 91.75C6.27477 91.3367 6.15477 90.87 6.15477 90.35C6.15477 89.8233 6.27477 89.3567 6.51477 88.95C6.75477 88.5433 7.08143 88.2267 7.49477 88C7.9081 87.7667 8.38143 87.65 8.91477 87.65C9.44143 87.65 9.91143 87.7667 10.3248 88C10.7448 88.2267 11.0714 88.5433 11.3048 88.95C11.5448 89.35 11.6648 89.8167 11.6648 90.35C11.6648 90.8767 11.5448 91.3433 11.3048 91.75C11.0714 92.1567 10.7448 92.4767 10.3248 92.71C9.91143 92.9433 9.44143 93.06 8.91477 93.06ZM8.91477 92.22C9.25477 92.22 9.5581 92.1433 9.82477 91.99C10.0981 91.8367 10.3114 91.62 10.4648 91.34C10.6181 91.0533 10.6948 90.7233 10.6948 90.35C10.6948 89.97 10.6181 89.6433 10.4648 89.37C10.3114 89.09 10.0981 88.8733 9.82477 88.72C9.5581 88.5667 9.25477 88.49 8.91477 88.49C8.57477 88.49 8.27143 88.5667 8.00477 88.72C7.7381 88.8733 7.52477 89.09 7.36477 89.37C7.20477 89.6433 7.12477 89.97 7.12477 90.35C7.12477 90.7233 7.20477 91.0533 7.36477 91.34C7.52477 91.62 7.7381 91.8367 8.00477 91.99C8.27143 92.1433 8.57477 92.22 8.91477 92.22ZM15.9224 87.65C16.3558 87.65 16.7358 87.7333 17.0624 87.9C17.3958 88.0667 17.6558 88.32 17.8424 88.66C18.0291 89 18.1224 89.43 18.1224 89.95V93H17.1624V90.06C17.1624 89.5467 17.0358 89.16 16.7824 88.9C16.5358 88.64 16.1858 88.51 15.7324 88.51C15.3924 88.51 15.0958 88.5767 14.8424 88.71C14.5891 88.8433 14.3924 89.04 14.2524 89.3C14.1191 89.56 14.0524 89.8833 14.0524 90.27V93H13.0924V87.7H14.0124V89.13L13.8624 88.75C14.0358 88.4033 14.3024 88.1333 14.6624 87.94C15.0224 87.7467 15.4424 87.65 15.9224 87.65ZM21.8191 93.06C21.2857 93.06 20.8724 92.9167 20.5791 92.63C20.2857 92.3433 20.1391 91.9333 20.1391 91.4V86.54H21.0991V91.36C21.0991 91.6467 21.1691 91.8667 21.3091 92.02C21.4557 92.1733 21.6624 92.25 21.9291 92.25C22.2291 92.25 22.4791 92.1667 22.6791 92L22.9791 92.69C22.8324 92.8167 22.6557 92.91 22.4491 92.97C22.2491 93.03 22.0391 93.06 21.8191 93.06ZM19.2391 88.49V87.7H22.6191V88.49H19.2391ZM27.5297 93V91.88L27.4797 91.67V89.76C27.4797 89.3533 27.3597 89.04 27.1197 88.82C26.8864 88.5933 26.533 88.48 26.0597 88.48C25.7464 88.48 25.4397 88.5333 25.1397 88.64C24.8397 88.74 24.5864 88.8767 24.3797 89.05L23.9797 88.33C24.253 88.11 24.5797 87.9433 24.9597 87.83C25.3464 87.71 25.7497 87.65 26.1697 87.65C26.8964 87.65 27.4564 87.8267 27.8497 88.18C28.243 88.5333 28.4397 89.0733 28.4397 89.8V93H27.5297ZM25.7897 93.06C25.3964 93.06 25.0497 92.9933 24.7497 92.86C24.4564 92.7267 24.2297 92.5433 24.0697 92.31C23.9097 92.07 23.8297 91.8 23.8297 91.5C23.8297 91.2133 23.8964 90.9533 24.0297 90.72C24.1697 90.4867 24.393 90.3 24.6997 90.16C25.013 90.02 25.433 89.95 25.9597 89.95H27.6397V90.64H25.9997C25.5197 90.64 25.1964 90.72 25.0297 90.88C24.863 91.04 24.7797 91.2333 24.7797 91.46C24.7797 91.72 24.883 91.93 25.0897 92.09C25.2964 92.2433 25.583 92.32 25.9497 92.32C26.3097 92.32 26.623 92.24 26.8897 92.08C27.163 91.92 27.3597 91.6867 27.4797 91.38L27.6697 92.04C27.543 92.3533 27.3197 92.6033 26.9997 92.79C26.6797 92.97 26.2764 93.06 25.7897 93.06ZM30.3163 93V87.7H31.2763V93H30.3163ZM30.7963 86.68C30.6096 86.68 30.4529 86.62 30.3263 86.5C30.2063 86.38 30.1463 86.2333 30.1463 86.06C30.1463 85.88 30.2063 85.73 30.3263 85.61C30.4529 85.49 30.6096 85.43 30.7963 85.43C30.9829 85.43 31.1363 85.49 31.2563 85.61C31.3829 85.7233 31.4463 85.8667 31.4463 86.04C31.4463 86.22 31.3863 86.3733 31.2663 86.5C31.1463 86.62 30.9896 86.68 30.7963 86.68ZM36.0392 87.65C36.4726 87.65 36.8526 87.7333 37.1792 87.9C37.5126 88.0667 37.7726 88.32 37.9592 88.66C38.1459 89 38.2392 89.43 38.2392 89.95V93H37.2792V90.06C37.2792 89.5467 37.1526 89.16 36.8992 88.9C36.6526 88.64 36.3026 88.51 35.8492 88.51C35.5092 88.51 35.2126 88.5767 34.9592 88.71C34.7059 88.8433 34.5092 89.04 34.3692 89.3C34.2359 89.56 34.1692 89.8833 34.1692 90.27V93H33.2092V87.7H34.1292V89.13L33.9792 88.75C34.1526 88.4033 34.4192 88.1333 34.7792 87.94C35.1392 87.7467 35.5592 87.65 36.0392 87.65ZM42.4759 93.06C41.9092 93.06 41.4092 92.9433 40.9759 92.71C40.5492 92.4767 40.2159 92.1567 39.9759 91.75C39.7425 91.3433 39.6259 90.8767 39.6259 90.35C39.6259 89.8233 39.7392 89.3567 39.9659 88.95C40.1992 88.5433 40.5159 88.2267 40.9159 88C41.3225 87.7667 41.7792 87.65 42.2859 87.65C42.7992 87.65 43.2525 87.7633 43.6459 87.99C44.0392 88.2167 44.3459 88.5367 44.5659 88.95C44.7925 89.3567 44.9059 89.8333 44.9059 90.38C44.9059 90.42 44.9025 90.4667 44.8959 90.52C44.8959 90.5733 44.8925 90.6233 44.8859 90.67H40.3759V89.98H44.3859L43.9959 90.22C44.0025 89.88 43.9325 89.5767 43.7859 89.31C43.6392 89.0433 43.4359 88.8367 43.1759 88.69C42.9225 88.5367 42.6259 88.46 42.2859 88.46C41.9525 88.46 41.6559 88.5367 41.3959 88.69C41.1359 88.8367 40.9325 89.0467 40.7859 89.32C40.6392 89.5867 40.5659 89.8933 40.5659 90.24V90.4C40.5659 90.7533 40.6459 91.07 40.8059 91.35C40.9725 91.6233 41.2025 91.8367 41.4959 91.99C41.7892 92.1433 42.1259 92.22 42.5059 92.22C42.8192 92.22 43.1025 92.1667 43.3559 92.06C43.6159 91.9533 43.8425 91.7933 44.0359 91.58L44.5659 92.2C44.3259 92.48 44.0259 92.6933 43.6659 92.84C43.3125 92.9867 42.9159 93.06 42.4759 93.06ZM46.3389 93V87.7H47.2589V89.14L47.1689 88.78C47.3156 88.4133 47.5622 88.1333 47.9089 87.94C48.2556 87.7467 48.6822 87.65 49.1889 87.65V88.58C49.1489 88.5733 49.1089 88.57 49.0689 88.57C49.0356 88.57 49.0022 88.57 48.9689 88.57C48.4556 88.57 48.0489 88.7233 47.7489 89.03C47.4489 89.3367 47.2989 89.78 47.2989 90.36V93H46.3389ZM52.0507 93.06C51.6107 93.06 51.1907 93 50.7907 92.88C50.3974 92.76 50.0874 92.6133 49.8607 92.44L50.2607 91.68C50.4874 91.8333 50.7674 91.9633 51.1007 92.07C51.434 92.1767 51.774 92.23 52.1207 92.23C52.5674 92.23 52.8874 92.1667 53.0807 92.04C53.2807 91.9133 53.3807 91.7367 53.3807 91.51C53.3807 91.3433 53.3207 91.2133 53.2007 91.12C53.0807 91.0267 52.9207 90.9567 52.7207 90.91C52.5274 90.8633 52.3107 90.8233 52.0707 90.79C51.8307 90.75 51.5907 90.7033 51.3507 90.65C51.1107 90.59 50.8907 90.51 50.6907 90.41C50.4907 90.3033 50.3307 90.16 50.2107 89.98C50.0907 89.7933 50.0307 89.5467 50.0307 89.24C50.0307 88.92 50.1207 88.64 50.3007 88.4C50.4807 88.16 50.734 87.9767 51.0607 87.85C51.394 87.7167 51.7874 87.65 52.2407 87.65C52.5874 87.65 52.9374 87.6933 53.2907 87.78C53.6507 87.86 53.944 87.9767 54.1707 88.13L53.7607 88.89C53.5207 88.73 53.2707 88.62 53.0107 88.56C52.7507 88.5 52.4907 88.47 52.2307 88.47C51.8107 88.47 51.4974 88.54 51.2907 88.68C51.084 88.8133 50.9807 88.9867 50.9807 89.2C50.9807 89.38 51.0407 89.52 51.1607 89.62C51.2874 89.7133 51.4474 89.7867 51.6407 89.84C51.8407 89.8933 52.0607 89.94 52.3007 89.98C52.5407 90.0133 52.7807 90.06 53.0207 90.12C53.2607 90.1733 53.4774 90.25 53.6707 90.35C53.8707 90.45 54.0307 90.59 54.1507 90.77C54.2774 90.95 54.3407 91.19 54.3407 91.49C54.3407 91.81 54.2474 92.0867 54.0607 92.32C53.874 92.5533 53.6107 92.7367 53.2707 92.87C52.9307 92.9967 52.524 93.06 52.0507 93.06Z" fill="black"/>
</svg>
