<svg width="152" height="98" viewBox="0 0 152 98" fill="none" xmlns="http://www.w3.org/2000/svg">
<path d="M2.352 20V9.76L3.472 10.88H0.112V8.8H4.944V20H2.352ZM6.79362 20V18.32L11.1136 14.24C11.455 13.9307 11.7056 13.6533 11.8656 13.408C12.0256 13.1627 12.1323 12.9387 12.1856 12.736C12.2496 12.5333 12.2816 12.3467 12.2816 12.176C12.2816 11.728 12.127 11.3867 11.8176 11.152C11.519 10.9067 11.0763 10.784 10.4896 10.784C10.0203 10.784 9.58296 10.8747 9.17763 11.056C8.78296 11.2373 8.44696 11.52 8.16963 11.904L6.28163 10.688C6.70829 10.048 7.30563 9.54133 8.07363 9.168C8.84163 8.79467 9.72696 8.608 10.7296 8.608C11.5616 8.608 12.287 8.74667 12.9056 9.024C13.535 9.29067 14.0203 9.66933 14.3616 10.16C14.7136 10.6507 14.8896 11.2373 14.8896 11.92C14.8896 12.2827 14.8416 12.6453 14.7456 13.008C14.6603 13.36 14.479 13.7333 14.2016 14.128C13.935 14.5227 13.5403 14.9653 13.0176 15.456L9.43363 18.832L8.93763 17.888H15.2576V20H6.79362ZM20.1351 20.192C19.3565 20.192 18.5831 20.0907 17.8151 19.888C17.0578 19.6747 16.4071 19.376 15.8631 18.992L16.8871 17.008C17.3138 17.3173 17.8045 17.5627 18.3591 17.744C18.9245 17.9253 19.4951 18.016 20.0711 18.016C20.7218 18.016 21.2338 17.888 21.6071 17.632C21.9805 17.376 22.1671 17.0187 22.1671 16.56C22.1671 16.272 22.0925 16.016 21.9431 15.792C21.7938 15.568 21.5271 15.3973 21.1431 15.28C20.7698 15.1627 20.2418 15.104 19.5591 15.104H16.6951L17.2711 8.8H24.1031V10.88H18.1991L19.5431 9.696L19.1431 14.192L17.7991 13.008H20.1671C21.2765 13.008 22.1671 13.1627 22.8391 13.472C23.5218 13.7707 24.0178 14.1813 24.3271 14.704C24.6365 15.2267 24.7911 15.8187 24.7911 16.48C24.7911 17.1413 24.6258 17.7547 24.2951 18.32C23.9645 18.8747 23.4525 19.328 22.7591 19.68C22.0765 20.0213 21.2018 20.192 20.1351 20.192ZM41.926 11.264C42.6087 11.264 43.2113 11.4027 43.734 11.68C44.2673 11.9467 44.6833 12.3627 44.982 12.928C45.2913 13.4827 45.446 14.1973 45.446 15.072V20H42.95V15.456C42.95 14.7627 42.806 14.2507 42.518 13.92C42.23 13.5893 41.8247 13.424 41.302 13.424C40.9393 13.424 40.614 13.5093 40.326 13.68C40.038 13.84 39.814 14.0853 39.654 14.416C39.494 14.7467 39.414 15.168 39.414 15.68V20H36.918V15.456C36.918 14.7627 36.774 14.2507 36.486 13.92C36.2087 13.5893 35.8087 13.424 35.286 13.424C34.9233 13.424 34.598 13.5093 34.31 13.68C34.022 13.84 33.798 14.0853 33.638 14.416C33.478 14.7467 33.398 15.168 33.398 15.68V20H30.902V11.392H33.286V13.744L32.838 13.056C33.1367 12.4693 33.558 12.0267 34.102 11.728C34.6567 11.4187 35.286 11.264 35.99 11.264C36.7793 11.264 37.4673 11.4667 38.054 11.872C38.6513 12.2667 39.046 12.8747 39.238 13.696L38.358 13.456C38.646 12.784 39.1047 12.2507 39.734 11.856C40.374 11.4613 41.1047 11.264 41.926 11.264ZM47.6833 20V8.128H50.1793V20H47.6833ZM56.707 16.496V14.496H61.235V16.496H56.707ZM73.3461 20.192C72.4608 20.192 71.6395 20.048 70.8821 19.76C70.1355 19.472 69.4848 19.0667 68.9301 18.544C68.3861 18.0213 67.9595 17.408 67.6501 16.704C67.3515 16 67.2021 15.232 67.2021 14.4C67.2021 13.568 67.3515 12.8 67.6501 12.096C67.9595 11.392 68.3915 10.7787 68.9461 10.256C69.5008 9.73333 70.1515 9.328 70.8981 9.04C71.6448 8.752 72.4555 8.608 73.3301 8.608C74.2155 8.608 75.0261 8.752 75.7621 9.04C76.5088 9.328 77.1541 9.73333 77.6981 10.256C78.2528 10.7787 78.6848 11.392 78.9941 12.096C79.3035 12.7893 79.4581 13.5573 79.4581 14.4C79.4581 15.232 79.3035 16.0053 78.9941 16.72C78.6848 17.424 78.2528 18.0373 77.6981 18.56C77.1541 19.072 76.5088 19.472 75.7621 19.76C75.0261 20.048 74.2208 20.192 73.3461 20.192ZM73.3301 17.984C73.8315 17.984 74.2901 17.8987 74.7061 17.728C75.1328 17.5573 75.5061 17.312 75.8261 16.992C76.1461 16.672 76.3915 16.2933 76.5621 15.856C76.7435 15.4187 76.8341 14.9333 76.8341 14.4C76.8341 13.8667 76.7435 13.3813 76.5621 12.944C76.3915 12.5067 76.1461 12.128 75.8261 11.808C75.5168 11.488 75.1488 11.2427 74.7221 11.072C74.2955 10.9013 73.8315 10.816 73.3301 10.816C72.8288 10.816 72.3648 10.9013 71.9381 11.072C71.5221 11.2427 71.1541 11.488 70.8341 11.808C70.5141 12.128 70.2635 12.5067 70.0821 12.944C69.9115 13.3813 69.8261 13.8667 69.8261 14.4C69.8261 14.9227 69.9115 15.408 70.0821 15.856C70.2635 16.2933 70.5088 16.672 70.8181 16.992C71.1381 17.312 71.5115 17.5573 71.9381 17.728C72.3648 17.8987 72.8288 17.984 73.3301 17.984ZM84.4068 20L79.5747 8.8H82.3748L86.5988 18.72H84.9508L89.2388 8.8H91.8148L86.9668 20H84.4068ZM90.9029 20L95.8949 8.8H98.4549L103.463 20H100.743L96.6469 10.112H97.6709L93.5589 20H90.9029ZM93.3989 17.6L94.0869 15.632H99.8469L100.551 17.6H93.3989ZM104.625 20V8.8H107.217V17.888H112.833V20H104.625Z" fill="#4A8036"/>
<path d="M1.316 46V36.2H3.136V46H1.316ZM5.7867 46V36.2H7.2847L11.5687 43.354H10.7847L14.9987 36.2H16.4967L16.5107 46H14.7887L14.7747 38.902H15.1387L11.5547 44.88H10.7427L7.1027 38.902H7.5227V46H5.7867ZM19.1578 46V36.2H20.9778V44.46H26.1018V46H19.1578ZM31.4078 46V36.2H32.9058L37.1898 43.354H36.4058L40.6198 36.2H42.1178L42.1318 46H40.4098L40.3958 38.902H40.7598L37.1758 44.88H36.3638L32.7238 38.902H33.1438V46H31.4078ZM49.3709 46.14C48.6056 46.14 47.9009 46.014 47.2569 45.762C46.6129 45.51 46.0529 45.16 45.5769 44.712C45.1009 44.2547 44.7322 43.7227 44.4709 43.116C44.2096 42.5 44.0789 41.828 44.0789 41.1C44.0789 40.372 44.2096 39.7047 44.4709 39.098C44.7322 38.482 45.1009 37.95 45.5769 37.502C46.0529 37.0447 46.6129 36.69 47.2569 36.438C47.9009 36.186 48.6009 36.06 49.3569 36.06C50.1222 36.06 50.8222 36.186 51.4569 36.438C52.1009 36.69 52.6609 37.0447 53.1369 37.502C53.6129 37.95 53.9816 38.482 54.2429 39.098C54.5042 39.7047 54.6349 40.372 54.6349 41.1C54.6349 41.828 54.5042 42.5 54.2429 43.116C53.9816 43.732 53.6129 44.264 53.1369 44.712C52.6609 45.16 52.1009 45.51 51.4569 45.762C50.8222 46.014 50.1269 46.14 49.3709 46.14ZM49.3569 44.544C49.8516 44.544 50.3089 44.46 50.7289 44.292C51.1489 44.124 51.5129 43.886 51.8209 43.578C52.1289 43.2607 52.3669 42.8967 52.5349 42.486C52.7122 42.066 52.8009 41.604 52.8009 41.1C52.8009 40.596 52.7122 40.1387 52.5349 39.728C52.3669 39.308 52.1289 38.944 51.8209 38.636C51.5129 38.3187 51.1489 38.076 50.7289 37.908C50.3089 37.74 49.8516 37.656 49.3569 37.656C48.8622 37.656 48.4049 37.74 47.9849 37.908C47.5742 38.076 47.2102 38.3187 46.8929 38.636C46.5849 38.944 46.3422 39.308 46.1649 39.728C45.9969 40.1387 45.9129 40.596 45.9129 41.1C45.9129 41.5947 45.9969 42.052 46.1649 42.472C46.3422 42.892 46.5849 43.2607 46.8929 43.578C47.2009 43.886 47.5649 44.124 47.9849 44.292C48.4049 44.46 48.8622 44.544 49.3569 44.544ZM61.156 46.14C60.3907 46.14 59.686 46.014 59.042 45.762C58.398 45.51 57.838 45.16 57.362 44.712C56.886 44.2547 56.5174 43.7227 56.256 43.116C55.9947 42.5 55.864 41.828 55.864 41.1C55.864 40.372 55.9947 39.7047 56.256 39.098C56.5174 38.482 56.886 37.95 57.362 37.502C57.838 37.0447 58.398 36.69 59.042 36.438C59.686 36.186 60.386 36.06 61.142 36.06C61.9074 36.06 62.6074 36.186 63.242 36.438C63.886 36.69 64.446 37.04 64.922 37.488C65.398 37.936 65.7667 38.468 66.028 39.084C66.2894 39.7 66.42 40.372 66.42 41.1C66.42 41.828 66.2894 42.5 66.028 43.116C65.7667 43.732 65.398 44.264 64.922 44.712C64.446 45.16 63.886 45.51 63.242 45.762C62.6074 46.014 61.912 46.14 61.156 46.14ZM64.348 48.142C64.0027 48.142 63.6667 48.1 63.34 48.016C63.0227 47.9413 62.7054 47.8107 62.388 47.624C62.08 47.4467 61.758 47.2087 61.422 46.91C61.086 46.6207 60.7174 46.2613 60.316 45.832L62.248 45.328C62.5094 45.6733 62.7567 45.9487 62.99 46.154C63.2327 46.3687 63.466 46.5227 63.69 46.616C63.914 46.7093 64.1474 46.756 64.39 46.756C65.034 46.756 65.594 46.4947 66.07 45.972L66.91 46.98C66.2567 47.7547 65.4027 48.142 64.348 48.142ZM61.142 44.544C61.6367 44.544 62.094 44.46 62.514 44.292C62.934 44.124 63.298 43.886 63.606 43.578C63.914 43.2607 64.152 42.892 64.32 42.472C64.4974 42.052 64.586 41.5947 64.586 41.1C64.586 40.596 64.4974 40.1387 64.32 39.728C64.152 39.308 63.914 38.944 63.606 38.636C63.298 38.3187 62.934 38.076 62.514 37.908C62.094 37.74 61.6367 37.656 61.142 37.656C60.6474 37.656 60.19 37.74 59.77 37.908C59.35 38.076 58.986 38.3187 58.678 38.636C58.37 38.944 58.1274 39.308 57.95 39.728C57.782 40.1387 57.698 40.596 57.698 41.1C57.698 41.5947 57.782 42.052 57.95 42.472C58.1274 42.892 58.37 43.2607 58.678 43.578C58.986 43.886 59.35 44.124 59.77 44.292C60.19 44.46 60.6474 44.544 61.142 44.544ZM71.6723 42.836V41.38H75.5223V42.836H71.6723ZM82.3422 46V36.9L83.1402 37.726H80.2702V36.2H84.1622V46H82.3422ZM90.1942 46.14C89.4196 46.14 88.7196 45.944 88.0942 45.552C87.4782 45.16 86.9929 44.5907 86.6382 43.844C86.2836 43.088 86.1062 42.1733 86.1062 41.1C86.1062 40.0267 86.2836 39.1167 86.6382 38.37C86.9929 37.614 87.4782 37.04 88.0942 36.648C88.7196 36.256 89.4196 36.06 90.1942 36.06C90.9782 36.06 91.6782 36.256 92.2942 36.648C92.9102 37.04 93.3956 37.614 93.7502 38.37C94.1142 39.1167 94.2962 40.0267 94.2962 41.1C94.2962 42.1733 94.1142 43.088 93.7502 43.844C93.3956 44.5907 92.9102 45.16 92.2942 45.552C91.6782 45.944 90.9782 46.14 90.1942 46.14ZM90.1942 44.558C90.6516 44.558 91.0482 44.4367 91.3842 44.194C91.7202 43.942 91.9816 43.5593 92.1682 43.046C92.3642 42.5327 92.4622 41.884 92.4622 41.1C92.4622 40.3067 92.3642 39.658 92.1682 39.154C91.9816 38.6407 91.7202 38.2627 91.3842 38.02C91.0482 37.768 90.6516 37.642 90.1942 37.642C89.7556 37.642 89.3636 37.768 89.0182 38.02C88.6822 38.2627 88.4162 38.6407 88.2202 39.154C88.0336 39.658 87.9402 40.3067 87.9402 41.1C87.9402 41.884 88.0336 42.5327 88.2202 43.046C88.4162 43.5593 88.6822 43.942 89.0182 44.194C89.3636 44.4367 89.7556 44.558 90.1942 44.558ZM99.6142 46.14C98.8395 46.14 98.1395 45.944 97.5142 45.552C96.8982 45.16 96.4128 44.5907 96.0582 43.844C95.7035 43.088 95.5262 42.1733 95.5262 41.1C95.5262 40.0267 95.7035 39.1167 96.0582 38.37C96.4128 37.614 96.8982 37.04 97.5142 36.648C98.1395 36.256 98.8395 36.06 99.6142 36.06C100.398 36.06 101.098 36.256 101.714 36.648C102.33 37.04 102.815 37.614 103.17 38.37C103.534 39.1167 103.716 40.0267 103.716 41.1C103.716 42.1733 103.534 43.088 103.17 43.844C102.815 44.5907 102.33 45.16 101.714 45.552C101.098 45.944 100.398 46.14 99.6142 46.14ZM99.6142 44.558C100.071 44.558 100.468 44.4367 100.804 44.194C101.14 43.942 101.401 43.5593 101.588 43.046C101.784 42.5327 101.882 41.884 101.882 41.1C101.882 40.3067 101.784 39.658 101.588 39.154C101.401 38.6407 101.14 38.2627 100.804 38.02C100.468 37.768 100.071 37.642 99.6142 37.642C99.1755 37.642 98.7835 37.768 98.4382 38.02C98.1022 38.2627 97.8362 38.6407 97.6402 39.154C97.4535 39.658 97.3602 40.3067 97.3602 41.1C97.3602 41.884 97.4535 42.5327 97.6402 43.046C97.8362 43.5593 98.1022 43.942 98.4382 44.194C98.7835 44.4367 99.1755 44.558 99.6142 44.558ZM109.034 46.14C108.259 46.14 107.559 45.944 106.934 45.552C106.318 45.16 105.833 44.5907 105.478 43.844C105.123 43.088 104.946 42.1733 104.946 41.1C104.946 40.0267 105.123 39.1167 105.478 38.37C105.833 37.614 106.318 37.04 106.934 36.648C107.559 36.256 108.259 36.06 109.034 36.06C109.818 36.06 110.518 36.256 111.134 36.648C111.75 37.04 112.235 37.614 112.59 38.37C112.954 39.1167 113.136 40.0267 113.136 41.1C113.136 42.1733 112.954 43.088 112.59 43.844C112.235 44.5907 111.75 45.16 111.134 45.552C110.518 45.944 109.818 46.14 109.034 46.14ZM109.034 44.558C109.491 44.558 109.888 44.4367 110.224 44.194C110.56 43.942 110.821 43.5593 111.008 43.046C111.204 42.5327 111.302 41.884 111.302 41.1C111.302 40.3067 111.204 39.658 111.008 39.154C110.821 38.6407 110.56 38.2627 110.224 38.02C109.888 37.768 109.491 37.642 109.034 37.642C108.595 37.642 108.203 37.768 107.858 38.02C107.522 38.2627 107.256 38.6407 107.06 39.154C106.873 39.658 106.78 40.3067 106.78 41.1C106.78 41.884 106.873 42.5327 107.06 43.046C107.256 43.5593 107.522 43.942 107.858 44.194C108.203 44.4367 108.595 44.558 109.034 44.558ZM118.935 46V36.2H122.967C123.835 36.2 124.577 36.34 125.193 36.62C125.818 36.9 126.299 37.3013 126.635 37.824C126.971 38.3467 127.139 38.9673 127.139 39.686C127.139 40.4047 126.971 41.0253 126.635 41.548C126.299 42.0707 125.818 42.472 125.193 42.752C124.577 43.032 123.835 43.172 122.967 43.172H119.943L120.755 42.318V46H118.935ZM120.755 42.514L119.943 41.632H122.883C123.686 41.632 124.288 41.464 124.689 41.128C125.1 40.7827 125.305 40.302 125.305 39.686C125.305 39.0607 125.1 38.58 124.689 38.244C124.288 37.908 123.686 37.74 122.883 37.74H119.943L120.755 36.844V42.514ZM132.191 46.098C131.407 46.098 130.707 45.9347 130.091 45.608C129.485 45.272 129.009 44.8147 128.663 44.236C128.318 43.6573 128.145 42.9993 128.145 42.262C128.145 41.5153 128.318 40.8573 128.663 40.288C129.009 39.7093 129.485 39.2567 130.091 38.93C130.707 38.6033 131.407 38.44 132.191 38.44C132.919 38.44 133.559 38.5893 134.109 38.888C134.669 39.1773 135.094 39.6067 135.383 40.176L134.039 40.96C133.815 40.6053 133.54 40.344 133.213 40.176C132.896 40.008 132.551 39.924 132.177 39.924C131.748 39.924 131.361 40.0173 131.015 40.204C130.67 40.3907 130.399 40.6613 130.203 41.016C130.007 41.3613 129.909 41.7767 129.909 42.262C129.909 42.7473 130.007 43.1673 130.203 43.522C130.399 43.8673 130.67 44.1333 131.015 44.32C131.361 44.5067 131.748 44.6 132.177 44.6C132.551 44.6 132.896 44.516 133.213 44.348C133.54 44.18 133.815 43.9187 134.039 43.564L135.383 44.348C135.094 44.908 134.669 45.342 134.109 45.65C133.559 45.9487 132.919 46.098 132.191 46.098ZM139.206 46.098C138.581 46.098 137.979 46.0187 137.4 45.86C136.831 45.692 136.378 45.4913 136.042 45.258L136.714 43.928C137.05 44.1427 137.451 44.32 137.918 44.46C138.385 44.6 138.851 44.67 139.318 44.67C139.869 44.67 140.265 44.5953 140.508 44.446C140.76 44.2967 140.886 44.096 140.886 43.844C140.886 43.6387 140.802 43.4847 140.634 43.382C140.466 43.27 140.247 43.186 139.976 43.13C139.705 43.074 139.402 43.0227 139.066 42.976C138.739 42.9293 138.408 42.8687 138.072 42.794C137.745 42.71 137.447 42.5933 137.176 42.444C136.905 42.2853 136.686 42.0753 136.518 41.814C136.35 41.5527 136.266 41.2073 136.266 40.778C136.266 40.302 136.401 39.8913 136.672 39.546C136.943 39.1913 137.321 38.9207 137.806 38.734C138.301 38.538 138.884 38.44 139.556 38.44C140.06 38.44 140.569 38.496 141.082 38.608C141.595 38.72 142.02 38.8787 142.356 39.084L141.684 40.414C141.329 40.1993 140.97 40.0547 140.606 39.98C140.251 39.896 139.897 39.854 139.542 39.854C139.01 39.854 138.613 39.9333 138.352 40.092C138.1 40.2507 137.974 40.4513 137.974 40.694C137.974 40.918 138.058 41.086 138.226 41.198C138.394 41.31 138.613 41.3987 138.884 41.464C139.155 41.5293 139.453 41.5853 139.78 41.632C140.116 41.6693 140.447 41.73 140.774 41.814C141.101 41.898 141.399 42.0147 141.67 42.164C141.95 42.304 142.174 42.5047 142.342 42.766C142.51 43.0273 142.594 43.368 142.594 43.788C142.594 44.2547 142.454 44.6607 142.174 45.006C141.903 45.3513 141.516 45.622 141.012 45.818C140.508 46.0047 139.906 46.098 139.206 46.098Z" fill="black"/>
<path d="M1.95 63.31H5.56V64.17H1.95V63.31ZM2.05 67H1.05V60H5.99V60.87H2.05V67ZM7.26 67V61.7H8.18V63.14L8.09 62.78C8.23667 62.4133 8.48333 62.1333 8.83 61.94C9.17667 61.7467 9.60333 61.65 10.11 61.65V62.58C10.07 62.5733 10.03 62.57 9.99 62.57C9.95667 62.57 9.92333 62.57 9.89 62.57C9.37667 62.57 8.97 62.7233 8.67 63.03C8.37 63.3367 8.22 63.78 8.22 64.36V67H7.26ZM13.7044 67.06C13.1377 67.06 12.6377 66.9433 12.2044 66.71C11.7777 66.4767 11.4444 66.1567 11.2044 65.75C10.971 65.3433 10.8544 64.8767 10.8544 64.35C10.8544 63.8233 10.9677 63.3567 11.1944 62.95C11.4277 62.5433 11.7444 62.2267 12.1444 62C12.551 61.7667 13.0077 61.65 13.5144 61.65C14.0277 61.65 14.481 61.7633 14.8744 61.99C15.2677 62.2167 15.5744 62.5367 15.7944 62.95C16.021 63.3567 16.1344 63.8333 16.1344 64.38C16.1344 64.42 16.131 64.4667 16.1244 64.52C16.1244 64.5733 16.121 64.6233 16.1144 64.67H11.6044V63.98H15.6144L15.2244 64.22C15.231 63.88 15.161 63.5767 15.0144 63.31C14.8677 63.0433 14.6644 62.8367 14.4044 62.69C14.151 62.5367 13.8544 62.46 13.5144 62.46C13.181 62.46 12.8844 62.5367 12.6244 62.69C12.3644 62.8367 12.161 63.0467 12.0144 63.32C11.8677 63.5867 11.7944 63.8933 11.7944 64.24V64.4C11.7944 64.7533 11.8744 65.07 12.0344 65.35C12.201 65.6233 12.431 65.8367 12.7244 65.99C13.0177 66.1433 13.3544 66.22 13.7344 66.22C14.0477 66.22 14.331 66.1667 14.5844 66.06C14.8444 65.9533 15.071 65.7933 15.2644 65.58L15.7944 66.2C15.5544 66.48 15.2544 66.6933 14.8944 66.84C14.541 66.9867 14.1444 67.06 13.7044 67.06ZM19.0874 67.06C18.6474 67.06 18.2274 67 17.8274 66.88C17.4341 66.76 17.1241 66.6133 16.8974 66.44L17.2974 65.68C17.5241 65.8333 17.8041 65.9633 18.1374 66.07C18.4708 66.1767 18.8108 66.23 19.1574 66.23C19.6041 66.23 19.9241 66.1667 20.1174 66.04C20.3174 65.9133 20.4174 65.7367 20.4174 65.51C20.4174 65.3433 20.3574 65.2133 20.2374 65.12C20.1174 65.0267 19.9574 64.9567 19.7574 64.91C19.5641 64.8633 19.3474 64.8233 19.1074 64.79C18.8674 64.75 18.6274 64.7033 18.3874 64.65C18.1474 64.59 17.9274 64.51 17.7274 64.41C17.5274 64.3033 17.3674 64.16 17.2474 63.98C17.1274 63.7933 17.0674 63.5467 17.0674 63.24C17.0674 62.92 17.1574 62.64 17.3374 62.4C17.5174 62.16 17.7708 61.9767 18.0974 61.85C18.4308 61.7167 18.8241 61.65 19.2774 61.65C19.6241 61.65 19.9741 61.6933 20.3274 61.78C20.6874 61.86 20.9808 61.9767 21.2074 62.13L20.7974 62.89C20.5574 62.73 20.3074 62.62 20.0474 62.56C19.7874 62.5 19.5274 62.47 19.2674 62.47C18.8474 62.47 18.5341 62.54 18.3274 62.68C18.1208 62.8133 18.0174 62.9867 18.0174 63.2C18.0174 63.38 18.0774 63.52 18.1974 63.62C18.3241 63.7133 18.4841 63.7867 18.6774 63.84C18.8774 63.8933 19.0974 63.94 19.3374 63.98C19.5774 64.0133 19.8174 64.06 20.0574 64.12C20.2974 64.1733 20.5141 64.25 20.7074 64.35C20.9074 64.45 21.0674 64.59 21.1874 64.77C21.3141 64.95 21.3774 65.19 21.3774 65.49C21.3774 65.81 21.2841 66.0867 21.0974 66.32C20.9108 66.5533 20.6474 66.7367 20.3074 66.87C19.9674 66.9967 19.5608 67.06 19.0874 67.06ZM25.5072 61.65C25.9405 61.65 26.3205 61.7333 26.6472 61.9C26.9805 62.0667 27.2405 62.32 27.4272 62.66C27.6139 63 27.7072 63.43 27.7072 63.95V67H26.7472V64.06C26.7472 63.5467 26.6205 63.16 26.3672 62.9C26.1205 62.64 25.7705 62.51 25.3172 62.51C24.9772 62.51 24.6805 62.5767 24.4272 62.71C24.1739 62.8433 23.9772 63.04 23.8372 63.3C23.7039 63.56 23.6372 63.8833 23.6372 64.27V67H22.6772V59.58H23.6372V63.13L23.4472 62.75C23.6205 62.4033 23.8872 62.1333 24.2472 61.94C24.6072 61.7467 25.0272 61.65 25.5072 61.65ZM34.1894 67.06C33.656 67.06 33.2427 66.9167 32.9494 66.63C32.656 66.3433 32.5094 65.9333 32.5094 65.4V60.54H33.4694V65.36C33.4694 65.6467 33.5394 65.8667 33.6794 66.02C33.826 66.1733 34.0327 66.25 34.2994 66.25C34.5994 66.25 34.8494 66.1667 35.0494 66L35.3494 66.69C35.2027 66.8167 35.026 66.91 34.8194 66.97C34.6194 67.03 34.4094 67.06 34.1894 67.06ZM31.6094 62.49V61.7H34.9894V62.49H31.6094ZM39.9 67V65.88L39.85 65.67V63.76C39.85 63.3533 39.73 63.04 39.49 62.82C39.2567 62.5933 38.9033 62.48 38.43 62.48C38.1167 62.48 37.81 62.5333 37.51 62.64C37.21 62.74 36.9567 62.8767 36.75 63.05L36.35 62.33C36.6233 62.11 36.95 61.9433 37.33 61.83C37.7167 61.71 38.12 61.65 38.54 61.65C39.2667 61.65 39.8267 61.8267 40.22 62.18C40.6133 62.5333 40.81 63.0733 40.81 63.8V67H39.9ZM38.16 67.06C37.7667 67.06 37.42 66.9933 37.12 66.86C36.8267 66.7267 36.6 66.5433 36.44 66.31C36.28 66.07 36.2 65.8 36.2 65.5C36.2 65.2133 36.2667 64.9533 36.4 64.72C36.54 64.4867 36.7633 64.3 37.07 64.16C37.3833 64.02 37.8033 63.95 38.33 63.95H40.01V64.64H38.37C37.89 64.64 37.5667 64.72 37.4 64.88C37.2333 65.04 37.15 65.2333 37.15 65.46C37.15 65.72 37.2533 65.93 37.46 66.09C37.6667 66.2433 37.9533 66.32 38.32 66.32C38.68 66.32 38.9933 66.24 39.26 66.08C39.5333 65.92 39.73 65.6867 39.85 65.38L40.04 66.04C39.9133 66.3533 39.69 66.6033 39.37 66.79C39.05 66.97 38.6467 67.06 38.16 67.06ZM44.2066 67.06C43.7666 67.06 43.3466 67 42.9466 66.88C42.5532 66.76 42.2432 66.6133 42.0166 66.44L42.4166 65.68C42.6432 65.8333 42.9232 65.9633 43.2566 66.07C43.5899 66.1767 43.9299 66.23 44.2766 66.23C44.7232 66.23 45.0432 66.1667 45.2366 66.04C45.4366 65.9133 45.5366 65.7367 45.5366 65.51C45.5366 65.3433 45.4766 65.2133 45.3566 65.12C45.2366 65.0267 45.0766 64.9567 44.8766 64.91C44.6832 64.8633 44.4666 64.8233 44.2266 64.79C43.9866 64.75 43.7466 64.7033 43.5066 64.65C43.2666 64.59 43.0466 64.51 42.8466 64.41C42.6466 64.3033 42.4866 64.16 42.3666 63.98C42.2466 63.7933 42.1866 63.5467 42.1866 63.24C42.1866 62.92 42.2766 62.64 42.4566 62.4C42.6366 62.16 42.8899 61.9767 43.2166 61.85C43.5499 61.7167 43.9432 61.65 44.3966 61.65C44.7432 61.65 45.0932 61.6933 45.4466 61.78C45.8066 61.86 46.0999 61.9767 46.3266 62.13L45.9166 62.89C45.6766 62.73 45.4266 62.62 45.1666 62.56C44.9066 62.5 44.6466 62.47 44.3866 62.47C43.9666 62.47 43.6532 62.54 43.4466 62.68C43.2399 62.8133 43.1366 62.9867 43.1366 63.2C43.1366 63.38 43.1966 63.52 43.3166 63.62C43.4432 63.7133 43.6032 63.7867 43.7966 63.84C43.9966 63.8933 44.2166 63.94 44.4566 63.98C44.6966 64.0133 44.9366 64.06 45.1766 64.12C45.4166 64.1733 45.6332 64.25 45.8266 64.35C46.0266 64.45 46.1866 64.59 46.3066 64.77C46.4332 64.95 46.4966 65.19 46.4966 65.49C46.4966 65.81 46.4032 66.0867 46.2166 66.32C46.0299 66.5533 45.7666 66.7367 45.4266 66.87C45.0866 66.9967 44.6799 67.06 44.2066 67.06ZM49.6163 67.06C49.083 67.06 48.6697 66.9167 48.3763 66.63C48.083 66.3433 47.9363 65.9333 47.9363 65.4V60.54H48.8963V65.36C48.8963 65.6467 48.9663 65.8667 49.1063 66.02C49.253 66.1733 49.4597 66.25 49.7263 66.25C50.0263 66.25 50.2763 66.1667 50.4763 66L50.7763 66.69C50.6297 66.8167 50.453 66.91 50.2463 66.97C50.0463 67.03 49.8363 67.06 49.6163 67.06ZM47.0363 62.49V61.7H50.4163V62.49H47.0363ZM54.2212 67.06C53.6545 67.06 53.1545 66.9433 52.7212 66.71C52.2945 66.4767 51.9612 66.1567 51.7212 65.75C51.4878 65.3433 51.3712 64.8767 51.3712 64.35C51.3712 63.8233 51.4845 63.3567 51.7112 62.95C51.9445 62.5433 52.2612 62.2267 52.6612 62C53.0678 61.7667 53.5245 61.65 54.0312 61.65C54.5445 61.65 54.9978 61.7633 55.3912 61.99C55.7845 62.2167 56.0912 62.5367 56.3112 62.95C56.5378 63.3567 56.6512 63.8333 56.6512 64.38C56.6512 64.42 56.6478 64.4667 56.6412 64.52C56.6412 64.5733 56.6378 64.6233 56.6312 64.67H52.1212V63.98H56.1312L55.7412 64.22C55.7478 63.88 55.6778 63.5767 55.5312 63.31C55.3845 63.0433 55.1812 62.8367 54.9212 62.69C54.6678 62.5367 54.3712 62.46 54.0312 62.46C53.6978 62.46 53.4012 62.5367 53.1412 62.69C52.8812 62.8367 52.6778 63.0467 52.5312 63.32C52.3845 63.5867 52.3112 63.8933 52.3112 64.24V64.4C52.3112 64.7533 52.3912 65.07 52.5512 65.35C52.7178 65.6233 52.9478 65.8367 53.2412 65.99C53.5345 66.1433 53.8712 66.22 54.2512 66.22C54.5645 66.22 54.8478 66.1667 55.1012 66.06C55.3612 65.9533 55.5878 65.7933 55.7812 65.58L56.3112 66.2C56.0712 66.48 55.7712 66.6933 55.4112 66.84C55.0578 66.9867 54.6612 67.06 54.2212 67.06ZM61.9898 67L60.0198 61.7H60.9298L62.6798 66.5H62.2498L64.0698 61.7H64.8798L66.6598 66.5H66.2398L68.0298 61.7H68.8898L66.9098 67H65.9898L64.3198 62.62H64.5998L62.9098 67H61.9898ZM69.9639 67V61.7H70.9239V67H69.9639ZM70.4439 60.68C70.2572 60.68 70.1006 60.62 69.9739 60.5C69.8539 60.38 69.7939 60.2333 69.7939 60.06C69.7939 59.88 69.8539 59.73 69.9739 59.61C70.1006 59.49 70.2572 59.43 70.4439 59.43C70.6306 59.43 70.7839 59.49 70.9039 59.61C71.0306 59.7233 71.0939 59.8667 71.0939 60.04C71.0939 60.22 71.0339 60.3733 70.9139 60.5C70.7939 60.62 70.6372 60.68 70.4439 60.68ZM74.6769 67.06C74.1435 67.06 73.7302 66.9167 73.4369 66.63C73.1435 66.3433 72.9969 65.9333 72.9969 65.4V60.54H73.9569V65.36C73.9569 65.6467 74.0269 65.8667 74.1669 66.02C74.3135 66.1733 74.5202 66.25 74.7869 66.25C75.0869 66.25 75.3369 66.1667 75.5369 66L75.8369 66.69C75.6902 66.8167 75.5135 66.91 75.3069 66.97C75.1069 67.03 74.8969 67.06 74.6769 67.06ZM72.0969 62.49V61.7H75.4769V62.49H72.0969ZM79.9275 61.65C80.3608 61.65 80.7408 61.7333 81.0675 61.9C81.4008 62.0667 81.6608 62.32 81.8475 62.66C82.0342 63 82.1275 63.43 82.1275 63.95V67H81.1675V64.06C81.1675 63.5467 81.0408 63.16 80.7875 62.9C80.5408 62.64 80.1908 62.51 79.7375 62.51C79.3975 62.51 79.1008 62.5767 78.8475 62.71C78.5942 62.8433 78.3975 63.04 78.2575 63.3C78.1242 63.56 78.0575 63.8833 78.0575 64.27V67H77.0975V59.58H78.0575V63.13L77.8675 62.75C78.0408 62.4033 78.3075 62.1333 78.6675 61.94C79.0275 61.7467 79.4475 61.65 79.9275 61.65ZM89.5997 67.06C89.1464 67.06 88.7364 66.96 88.3697 66.76C88.0097 66.5533 87.723 66.25 87.5097 65.85C87.303 65.45 87.1997 64.95 87.1997 64.35C87.1997 63.75 87.3064 63.25 87.5197 62.85C87.7397 62.45 88.0297 62.15 88.3897 61.95C88.7564 61.75 89.1597 61.65 89.5997 61.65C90.1197 61.65 90.5797 61.7633 90.9797 61.99C91.3797 62.2167 91.6964 62.5333 91.9297 62.94C92.163 63.34 92.2797 63.81 92.2797 64.35C92.2797 64.89 92.163 65.3633 91.9297 65.77C91.6964 66.1767 91.3797 66.4933 90.9797 66.72C90.5797 66.9467 90.1197 67.06 89.5997 67.06ZM86.7897 67V59.58H87.7497V63.11L87.6497 64.34L87.7097 65.57V67H86.7897ZM89.5197 66.22C89.8597 66.22 90.163 66.1433 90.4297 65.99C90.703 65.8367 90.9164 65.62 91.0697 65.34C91.2297 65.0533 91.3097 64.7233 91.3097 64.35C91.3097 63.97 91.2297 63.6433 91.0697 63.37C90.9164 63.09 90.703 62.8733 90.4297 62.72C90.163 62.5667 89.8597 62.49 89.5197 62.49C89.1864 62.49 88.883 62.5667 88.6097 62.72C88.343 62.8733 88.1297 63.09 87.9697 63.37C87.8164 63.6433 87.7397 63.97 87.7397 64.35C87.7397 64.7233 87.8164 65.0533 87.9697 65.34C88.1297 65.62 88.343 65.8367 88.6097 65.99C88.883 66.1433 89.1864 66.22 89.5197 66.22ZM93.7061 67V61.7H94.6261V63.14L94.5361 62.78C94.6828 62.4133 94.9294 62.1333 95.2761 61.94C95.6228 61.7467 96.0494 61.65 96.5561 61.65V62.58C96.5161 62.5733 96.4761 62.57 96.4361 62.57C96.4028 62.57 96.3694 62.57 96.3361 62.57C95.8228 62.57 95.4161 62.7233 95.1161 63.03C94.8161 63.3367 94.6661 63.78 94.6661 64.36V67H93.7061ZM97.8393 67V61.7H98.7993V67H97.8393ZM98.3193 60.68C98.1326 60.68 97.976 60.62 97.8493 60.5C97.7293 60.38 97.6693 60.2333 97.6693 60.06C97.6693 59.88 97.7293 59.73 97.8493 59.61C97.976 59.49 98.1326 59.43 98.3193 59.43C98.506 59.43 98.6593 59.49 98.7793 59.61C98.906 59.7233 98.9693 59.8667 98.9693 60.04C98.9693 60.22 98.9093 60.3733 98.7893 60.5C98.6693 60.62 98.5126 60.68 98.3193 60.68ZM103.052 69C102.566 69 102.092 68.93 101.632 68.79C101.179 68.6567 100.809 68.4633 100.522 68.21L100.982 67.47C101.229 67.6833 101.532 67.85 101.892 67.97C102.252 68.0967 102.629 68.16 103.022 68.16C103.649 68.16 104.109 68.0133 104.402 67.72C104.696 67.4267 104.842 66.98 104.842 66.38V65.26L104.942 64.21L104.892 63.15V61.7H105.802V66.28C105.802 67.2133 105.569 67.9 105.102 68.34C104.636 68.78 103.952 69 103.052 69ZM102.932 66.78C102.419 66.78 101.959 66.6733 101.552 66.46C101.152 66.24 100.832 65.9367 100.592 65.55C100.359 65.1633 100.242 64.7167 100.242 64.21C100.242 63.6967 100.359 63.25 100.592 62.87C100.832 62.4833 101.152 62.1833 101.552 61.97C101.959 61.7567 102.419 61.65 102.932 61.65C103.386 61.65 103.799 61.7433 104.172 61.93C104.546 62.11 104.842 62.39 105.062 62.77C105.289 63.15 105.402 63.63 105.402 64.21C105.402 64.7833 105.289 65.26 105.062 65.64C104.842 66.02 104.546 66.3067 104.172 66.5C103.799 66.6867 103.386 66.78 102.932 66.78ZM103.042 65.94C103.396 65.94 103.709 65.8667 103.982 65.72C104.256 65.5733 104.469 65.37 104.622 65.11C104.782 64.85 104.862 64.55 104.862 64.21C104.862 63.87 104.782 63.57 104.622 63.31C104.469 63.05 104.256 62.85 103.982 62.71C103.709 62.5633 103.396 62.49 103.042 62.49C102.689 62.49 102.372 62.5633 102.092 62.71C101.819 62.85 101.602 63.05 101.442 63.31C101.289 63.57 101.212 63.87 101.212 64.21C101.212 64.55 101.289 64.85 101.442 65.11C101.602 65.37 101.819 65.5733 102.092 65.72C102.372 65.8667 102.689 65.94 103.042 65.94ZM110.567 61.65C111 61.65 111.38 61.7333 111.707 61.9C112.04 62.0667 112.3 62.32 112.487 62.66C112.673 63 112.767 63.43 112.767 63.95V67H111.807V64.06C111.807 63.5467 111.68 63.16 111.427 62.9C111.18 62.64 110.83 62.51 110.377 62.51C110.037 62.51 109.74 62.5767 109.487 62.71C109.233 62.8433 109.037 63.04 108.897 63.3C108.763 63.56 108.697 63.8833 108.697 64.27V67H107.737V59.58H108.697V63.13L108.507 62.75C108.68 62.4033 108.947 62.1333 109.307 61.94C109.667 61.7467 110.087 61.65 110.567 61.65ZM116.463 67.06C115.93 67.06 115.517 66.9167 115.223 66.63C114.93 66.3433 114.783 65.9333 114.783 65.4V60.54H115.743V65.36C115.743 65.6467 115.813 65.8667 115.953 66.02C116.1 66.1733 116.307 66.25 116.573 66.25C116.873 66.25 117.123 66.1667 117.323 66L117.623 66.69C117.477 66.8167 117.3 66.91 117.093 66.97C116.893 67.03 116.683 67.06 116.463 67.06ZM113.883 62.49V61.7H117.263V62.49H113.883ZM3.72 81.06C3.26667 81.06 2.85667 80.96 2.49 80.76C2.13 80.5533 1.84333 80.25 1.63 79.85C1.42333 79.45 1.32 78.95 1.32 78.35C1.32 77.75 1.42667 77.25 1.64 76.85C1.86 76.45 2.15 76.15 2.51 75.95C2.87667 75.75 3.28 75.65 3.72 75.65C4.24 75.65 4.7 75.7633 5.1 75.99C5.5 76.2167 5.81667 76.5333 6.05 76.94C6.28333 77.34 6.4 77.81 6.4 78.35C6.4 78.89 6.28333 79.3633 6.05 79.77C5.81667 80.1767 5.5 80.4933 5.1 80.72C4.7 80.9467 4.24 81.06 3.72 81.06ZM0.91 81V73.58H1.87V77.11L1.77 78.34L1.83 79.57V81H0.91ZM3.64 80.22C3.98 80.22 4.28333 80.1433 4.55 79.99C4.82333 79.8367 5.03667 79.62 5.19 79.34C5.35 79.0533 5.43 78.7233 5.43 78.35C5.43 77.97 5.35 77.6433 5.19 77.37C5.03667 77.09 4.82333 76.8733 4.55 76.72C4.28333 76.5667 3.98 76.49 3.64 76.49C3.30667 76.49 3.00333 76.5667 2.73 76.72C2.46333 76.8733 2.25 77.09 2.09 77.37C1.93667 77.6433 1.86 77.97 1.86 78.35C1.86 78.7233 1.93667 79.0533 2.09 79.34C2.25 79.62 2.46333 79.8367 2.73 79.99C3.00333 80.1433 3.30667 80.22 3.64 80.22ZM7.82641 81V75.7H8.74641V77.14L8.65641 76.78C8.80307 76.4133 9.04974 76.1333 9.39641 75.94C9.74307 75.7467 10.1697 75.65 10.6764 75.65V76.58C10.6364 76.5733 10.5964 76.57 10.5564 76.57C10.5231 76.57 10.4897 76.57 10.4564 76.57C9.94307 76.57 9.53641 76.7233 9.23641 77.03C8.93641 77.3367 8.78641 77.78 8.78641 78.36V81H7.82641ZM14.859 81V79.88L14.809 79.67V77.76C14.809 77.3533 14.689 77.04 14.449 76.82C14.2157 76.5933 13.8623 76.48 13.389 76.48C13.0757 76.48 12.769 76.5333 12.469 76.64C12.169 76.74 11.9157 76.8767 11.709 77.05L11.309 76.33C11.5823 76.11 11.909 75.9433 12.289 75.83C12.6757 75.71 13.079 75.65 13.499 75.65C14.2257 75.65 14.7857 75.8267 15.179 76.18C15.5723 76.5333 15.769 77.0733 15.769 77.8V81H14.859ZM13.119 81.06C12.7257 81.06 12.379 80.9933 12.079 80.86C11.7857 80.7267 11.559 80.5433 11.399 80.31C11.239 80.07 11.159 79.8 11.159 79.5C11.159 79.2133 11.2257 78.9533 11.359 78.72C11.499 78.4867 11.7223 78.3 12.029 78.16C12.3423 78.02 12.7623 77.95 13.289 77.95H14.969V78.64H13.329C12.849 78.64 12.5257 78.72 12.359 78.88C12.1923 79.04 12.109 79.2333 12.109 79.46C12.109 79.72 12.2123 79.93 12.419 80.09C12.6257 80.2433 12.9123 80.32 13.279 80.32C13.639 80.32 13.9523 80.24 14.219 80.08C14.4923 79.92 14.689 79.6867 14.809 79.38L14.999 80.04C14.8723 80.3533 14.649 80.6033 14.329 80.79C14.009 80.97 13.6057 81.06 13.119 81.06ZM20.4755 75.65C20.9089 75.65 21.2889 75.7333 21.6155 75.9C21.9489 76.0667 22.2089 76.32 22.3955 76.66C22.5822 77 22.6755 77.43 22.6755 77.95V81H21.7155V78.06C21.7155 77.5467 21.5889 77.16 21.3355 76.9C21.0889 76.64 20.7389 76.51 20.2855 76.51C19.9455 76.51 19.6489 76.5767 19.3955 76.71C19.1422 76.8433 18.9455 77.04 18.8055 77.3C18.6722 77.56 18.6055 77.8833 18.6055 78.27V81H17.6455V75.7H18.5655V77.13L18.4155 76.75C18.5889 76.4033 18.8555 76.1333 19.2155 75.94C19.5755 75.7467 19.9955 75.65 20.4755 75.65ZM26.7422 81.06C26.2289 81.06 25.7689 80.9467 25.3622 80.72C24.9622 80.4933 24.6455 80.1767 24.4122 79.77C24.1789 79.3633 24.0622 78.89 24.0622 78.35C24.0622 77.81 24.1789 77.34 24.4122 76.94C24.6455 76.5333 24.9622 76.2167 25.3622 75.99C25.7689 75.7633 26.2289 75.65 26.7422 75.65C27.1889 75.65 27.5922 75.75 27.9522 75.95C28.3122 76.15 28.5989 76.45 28.8122 76.85C29.0322 77.25 29.1422 77.75 29.1422 78.35C29.1422 78.95 29.0355 79.45 28.8222 79.85C28.6155 80.25 28.3322 80.5533 27.9722 80.76C27.6122 80.96 27.2022 81.06 26.7422 81.06ZM26.8222 80.22C27.1555 80.22 27.4555 80.1433 27.7222 79.99C27.9955 79.8367 28.2089 79.62 28.3622 79.34C28.5222 79.0533 28.6022 78.7233 28.6022 78.35C28.6022 77.97 28.5222 77.6433 28.3622 77.37C28.2089 77.09 27.9955 76.8733 27.7222 76.72C27.4555 76.5667 27.1555 76.49 26.8222 76.49C26.4822 76.49 26.1789 76.5667 25.9122 76.72C25.6455 76.8733 25.4322 77.09 25.2722 77.37C25.1122 77.6433 25.0322 77.97 25.0322 78.35C25.0322 78.7233 25.1122 79.0533 25.2722 79.34C25.4322 79.62 25.6455 79.8367 25.9122 79.99C26.1789 80.1433 26.4822 80.22 26.8222 80.22ZM28.6322 81V79.57L28.6922 78.34L28.5922 77.11V73.58H29.5522V81H28.6322ZM31.4686 81V75.7H32.4286V81H31.4686ZM31.9486 74.68C31.7619 74.68 31.6053 74.62 31.4786 74.5C31.3586 74.38 31.2986 74.2333 31.2986 74.06C31.2986 73.88 31.3586 73.73 31.4786 73.61C31.6053 73.49 31.7619 73.43 31.9486 73.43C32.1353 73.43 32.2886 73.49 32.4086 73.61C32.5353 73.7233 32.5986 73.8667 32.5986 74.04C32.5986 74.22 32.5386 74.3733 32.4186 74.5C32.2986 74.62 32.1419 74.68 31.9486 74.68ZM37.1916 75.65C37.6249 75.65 38.0049 75.7333 38.3316 75.9C38.6649 76.0667 38.9249 76.32 39.1116 76.66C39.2982 77 39.3916 77.43 39.3916 77.95V81H38.4316V78.06C38.4316 77.5467 38.3049 77.16 38.0516 76.9C37.8049 76.64 37.4549 76.51 37.0016 76.51C36.6616 76.51 36.3649 76.5767 36.1116 76.71C35.8582 76.8433 35.6616 77.04 35.5216 77.3C35.3882 77.56 35.3216 77.8833 35.3216 78.27V81H34.3616V75.7H35.2816V77.13L35.1316 76.75C35.3049 76.4033 35.5716 76.1333 35.9316 75.94C36.2916 75.7467 36.7116 75.65 37.1916 75.65ZM43.5882 83C43.1015 83 42.6282 82.93 42.1682 82.79C41.7149 82.6567 41.3449 82.4633 41.0582 82.21L41.5182 81.47C41.7649 81.6833 42.0682 81.85 42.4282 81.97C42.7882 82.0967 43.1649 82.16 43.5582 82.16C44.1849 82.16 44.6449 82.0133 44.9382 81.72C45.2315 81.4267 45.3782 80.98 45.3782 80.38V79.26L45.4782 78.21L45.4282 77.15V75.7H46.3382V80.28C46.3382 81.2133 46.1049 81.9 45.6382 82.34C45.1715 82.78 44.4882 83 43.5882 83ZM43.4682 80.78C42.9549 80.78 42.4949 80.6733 42.0882 80.46C41.6882 80.24 41.3682 79.9367 41.1282 79.55C40.8949 79.1633 40.7782 78.7167 40.7782 78.21C40.7782 77.6967 40.8949 77.25 41.1282 76.87C41.3682 76.4833 41.6882 76.1833 42.0882 75.97C42.4949 75.7567 42.9549 75.65 43.4682 75.65C43.9215 75.65 44.3349 75.7433 44.7082 75.93C45.0815 76.11 45.3782 76.39 45.5982 76.77C45.8249 77.15 45.9382 77.63 45.9382 78.21C45.9382 78.7833 45.8249 79.26 45.5982 79.64C45.3782 80.02 45.0815 80.3067 44.7082 80.5C44.3349 80.6867 43.9215 80.78 43.4682 80.78ZM43.5782 79.94C43.9315 79.94 44.2449 79.8667 44.5182 79.72C44.7915 79.5733 45.0049 79.37 45.1582 79.11C45.3182 78.85 45.3982 78.55 45.3982 78.21C45.3982 77.87 45.3182 77.57 45.1582 77.31C45.0049 77.05 44.7915 76.85 44.5182 76.71C44.2449 76.5633 43.9315 76.49 43.5782 76.49C43.2249 76.49 42.9082 76.5633 42.6282 76.71C42.3549 76.85 42.1382 77.05 41.9782 77.31C41.8249 77.57 41.7482 77.87 41.7482 78.21C41.7482 78.55 41.8249 78.85 41.9782 79.11C42.1382 79.37 42.3549 79.5733 42.6282 79.72C42.9082 79.8667 43.2249 79.94 43.5782 79.94ZM51.058 81V75.7H52.018V81H51.058ZM51.538 74.68C51.3514 74.68 51.1947 74.62 51.068 74.5C50.948 74.38 50.888 74.2333 50.888 74.06C50.888 73.88 50.948 73.73 51.068 73.61C51.1947 73.49 51.3514 73.43 51.538 73.43C51.7247 73.43 51.878 73.49 51.998 73.61C52.1247 73.7233 52.188 73.8667 52.188 74.04C52.188 74.22 52.128 74.3733 52.008 74.5C51.888 74.62 51.7314 74.68 51.538 74.68ZM56.781 75.65C57.2143 75.65 57.5943 75.7333 57.921 75.9C58.2543 76.0667 58.5143 76.32 58.701 76.66C58.8877 77 58.981 77.43 58.981 77.95V81H58.021V78.06C58.021 77.5467 57.8943 77.16 57.641 76.9C57.3943 76.64 57.0443 76.51 56.591 76.51C56.251 76.51 55.9543 76.5767 55.701 76.71C55.4477 76.8433 55.251 77.04 55.111 77.3C54.9777 77.56 54.911 77.8833 54.911 78.27V81H53.951V75.7H54.871V77.13L54.721 76.75C54.8943 76.4033 55.161 76.1333 55.521 75.94C55.881 75.7467 56.301 75.65 56.781 75.65ZM63.7832 81V74H64.7832V81H63.7832ZM66.9789 81V74H67.7989L70.9389 79.29H70.4989L73.5989 74H74.4189L74.4289 81H73.4689L73.4589 75.51H73.6889L70.9289 80.15H70.4689L67.6889 75.51H67.9389V81H66.9789ZM76.6297 81V74H77.6297V80.13H81.4197V81H76.6297ZM87.5827 81.06C87.0494 81.06 86.5761 80.9433 86.1627 80.71C85.7494 80.4767 85.4227 80.1567 85.1827 79.75C84.9427 79.3367 84.8227 78.87 84.8227 78.35C84.8227 77.8233 84.9427 77.3567 85.1827 76.95C85.4227 76.5433 85.7494 76.2267 86.1627 76C86.5761 75.7667 87.0494 75.65 87.5827 75.65C88.1094 75.65 88.5794 75.7667 88.9927 76C89.4127 76.2267 89.7394 76.5433 89.9727 76.95C90.2127 77.35 90.3327 77.8167 90.3327 78.35C90.3327 78.8767 90.2127 79.3433 89.9727 79.75C89.7394 80.1567 89.4127 80.4767 88.9927 80.71C88.5794 80.9433 88.1094 81.06 87.5827 81.06ZM87.5827 80.22C87.9227 80.22 88.2261 80.1433 88.4927 79.99C88.7661 79.8367 88.9794 79.62 89.1327 79.34C89.2861 79.0533 89.3627 78.7233 89.3627 78.35C89.3627 77.97 89.2861 77.6433 89.1327 77.37C88.9794 77.09 88.7661 76.8733 88.4927 76.72C88.2261 76.5667 87.9227 76.49 87.5827 76.49C87.2427 76.49 86.9394 76.5667 86.6727 76.72C86.4061 76.8733 86.1927 77.09 86.0327 77.37C85.8727 77.6433 85.7927 77.97 85.7927 78.35C85.7927 78.7233 85.8727 79.0533 86.0327 79.34C86.1927 79.62 86.4061 79.8367 86.6727 79.99C86.9394 80.1433 87.2427 80.22 87.5827 80.22ZM93.0039 81L90.6839 75.7H91.6839L93.7439 80.5H93.2639L95.3639 75.7H96.3039L93.9839 81H93.0039ZM100.424 81V79.88L100.374 79.67V77.76C100.374 77.3533 100.254 77.04 100.014 76.82C99.7805 76.5933 99.4272 76.48 98.9538 76.48C98.6405 76.48 98.3338 76.5333 98.0338 76.64C97.7338 76.74 97.4805 76.8767 97.2738 77.05L96.8738 76.33C97.1472 76.11 97.4738 75.9433 97.8538 75.83C98.2405 75.71 98.6438 75.65 99.0638 75.65C99.7905 75.65 100.35 75.8267 100.744 76.18C101.137 76.5333 101.334 77.0733 101.334 77.8V81H100.424ZM98.6838 81.06C98.2905 81.06 97.9438 80.9933 97.6438 80.86C97.3505 80.7267 97.1238 80.5433 96.9638 80.31C96.8038 80.07 96.7238 79.8 96.7238 79.5C96.7238 79.2133 96.7905 78.9533 96.9238 78.72C97.0638 78.4867 97.2872 78.3 97.5938 78.16C97.9072 78.02 98.3272 77.95 98.8538 77.95H100.534V78.64H98.8938C98.4138 78.64 98.0905 78.72 97.9238 78.88C97.7572 79.04 97.6738 79.2333 97.6738 79.46C97.6738 79.72 97.7772 79.93 97.9838 80.09C98.1905 80.2433 98.4772 80.32 98.8438 80.32C99.2038 80.32 99.5172 80.24 99.7838 80.08C100.057 79.92 100.254 79.6867 100.374 79.38L100.564 80.04C100.437 80.3533 100.214 80.6033 99.8938 80.79C99.5738 80.97 99.1705 81.06 98.6838 81.06ZM103.21 81V73.58H104.17V81H103.21ZM3.22 94.06C2.68 94.06 2.19667 93.9433 1.77 93.71C1.35 93.4767 1.02 93.1567 0.78 92.75C0.54 92.3433 0.42 91.8767 0.42 91.35C0.42 90.8233 0.54 90.3567 0.78 89.95C1.02 89.5433 1.35 89.2267 1.77 89C2.19667 88.7667 2.68 88.65 3.22 88.65C3.7 88.65 4.12667 88.7467 4.5 88.94C4.88 89.1267 5.17333 89.4067 5.38 89.78L4.65 90.25C4.47667 89.99 4.26333 89.8 4.01 89.68C3.76333 89.5533 3.49667 89.49 3.21 89.49C2.86333 89.49 2.55333 89.5667 2.28 89.72C2.00667 89.8733 1.79 90.09 1.63 90.37C1.47 90.6433 1.39 90.97 1.39 91.35C1.39 91.73 1.47 92.06 1.63 92.34C1.79 92.62 2.00667 92.8367 2.28 92.99C2.55333 93.1433 2.86333 93.22 3.21 93.22C3.49667 93.22 3.76333 93.16 4.01 93.04C4.26333 92.9133 4.47667 92.72 4.65 92.46L5.38 92.92C5.17333 93.2867 4.88 93.57 4.5 93.77C4.12667 93.9633 3.7 94.06 3.22 94.06ZM8.91477 94.06C8.38143 94.06 7.9081 93.9433 7.49477 93.71C7.08143 93.4767 6.75477 93.1567 6.51477 92.75C6.27477 92.3367 6.15477 91.87 6.15477 91.35C6.15477 90.8233 6.27477 90.3567 6.51477 89.95C6.75477 89.5433 7.08143 89.2267 7.49477 89C7.9081 88.7667 8.38143 88.65 8.91477 88.65C9.44143 88.65 9.91143 88.7667 10.3248 89C10.7448 89.2267 11.0714 89.5433 11.3048 89.95C11.5448 90.35 11.6648 90.8167 11.6648 91.35C11.6648 91.8767 11.5448 92.3433 11.3048 92.75C11.0714 93.1567 10.7448 93.4767 10.3248 93.71C9.91143 93.9433 9.44143 94.06 8.91477 94.06ZM8.91477 93.22C9.25477 93.22 9.5581 93.1433 9.82477 92.99C10.0981 92.8367 10.3114 92.62 10.4648 92.34C10.6181 92.0533 10.6948 91.7233 10.6948 91.35C10.6948 90.97 10.6181 90.6433 10.4648 90.37C10.3114 90.09 10.0981 89.8733 9.82477 89.72C9.5581 89.5667 9.25477 89.49 8.91477 89.49C8.57477 89.49 8.27143 89.5667 8.00477 89.72C7.7381 89.8733 7.52477 90.09 7.36477 90.37C7.20477 90.6433 7.12477 90.97 7.12477 91.35C7.12477 91.7233 7.20477 92.0533 7.36477 92.34C7.52477 92.62 7.7381 92.8367 8.00477 92.99C8.27143 93.1433 8.57477 93.22 8.91477 93.22ZM15.9224 88.65C16.3558 88.65 16.7358 88.7333 17.0624 88.9C17.3958 89.0667 17.6558 89.32 17.8424 89.66C18.0291 90 18.1224 90.43 18.1224 90.95V94H17.1624V91.06C17.1624 90.5467 17.0358 90.16 16.7824 89.9C16.5358 89.64 16.1858 89.51 15.7324 89.51C15.3924 89.51 15.0958 89.5767 14.8424 89.71C14.5891 89.8433 14.3924 90.04 14.2524 90.3C14.1191 90.56 14.0524 90.8833 14.0524 91.27V94H13.0924V88.7H14.0124V90.13L13.8624 89.75C14.0358 89.4033 14.3024 89.1333 14.6624 88.94C15.0224 88.7467 15.4424 88.65 15.9224 88.65ZM21.8191 94.06C21.2857 94.06 20.8724 93.9167 20.5791 93.63C20.2857 93.3433 20.1391 92.9333 20.1391 92.4V87.54H21.0991V92.36C21.0991 92.6467 21.1691 92.8667 21.3091 93.02C21.4557 93.1733 21.6624 93.25 21.9291 93.25C22.2291 93.25 22.4791 93.1667 22.6791 93L22.9791 93.69C22.8324 93.8167 22.6557 93.91 22.4491 93.97C22.2491 94.03 22.0391 94.06 21.8191 94.06ZM19.2391 89.49V88.7H22.6191V89.49H19.2391ZM27.5297 94V92.88L27.4797 92.67V90.76C27.4797 90.3533 27.3597 90.04 27.1197 89.82C26.8864 89.5933 26.533 89.48 26.0597 89.48C25.7464 89.48 25.4397 89.5333 25.1397 89.64C24.8397 89.74 24.5864 89.8767 24.3797 90.05L23.9797 89.33C24.253 89.11 24.5797 88.9433 24.9597 88.83C25.3464 88.71 25.7497 88.65 26.1697 88.65C26.8964 88.65 27.4564 88.8267 27.8497 89.18C28.243 89.5333 28.4397 90.0733 28.4397 90.8V94H27.5297ZM25.7897 94.06C25.3964 94.06 25.0497 93.9933 24.7497 93.86C24.4564 93.7267 24.2297 93.5433 24.0697 93.31C23.9097 93.07 23.8297 92.8 23.8297 92.5C23.8297 92.2133 23.8964 91.9533 24.0297 91.72C24.1697 91.4867 24.393 91.3 24.6997 91.16C25.013 91.02 25.433 90.95 25.9597 90.95H27.6397V91.64H25.9997C25.5197 91.64 25.1964 91.72 25.0297 91.88C24.863 92.04 24.7797 92.2333 24.7797 92.46C24.7797 92.72 24.883 92.93 25.0897 93.09C25.2964 93.2433 25.583 93.32 25.9497 93.32C26.3097 93.32 26.623 93.24 26.8897 93.08C27.163 92.92 27.3597 92.6867 27.4797 92.38L27.6697 93.04C27.543 93.3533 27.3197 93.6033 26.9997 93.79C26.6797 93.97 26.2764 94.06 25.7897 94.06ZM30.3163 94V88.7H31.2763V94H30.3163ZM30.7963 87.68C30.6096 87.68 30.4529 87.62 30.3263 87.5C30.2063 87.38 30.1463 87.2333 30.1463 87.06C30.1463 86.88 30.2063 86.73 30.3263 86.61C30.4529 86.49 30.6096 86.43 30.7963 86.43C30.9829 86.43 31.1363 86.49 31.2563 86.61C31.3829 86.7233 31.4463 86.8667 31.4463 87.04C31.4463 87.22 31.3863 87.3733 31.2663 87.5C31.1463 87.62 30.9896 87.68 30.7963 87.68ZM36.0392 88.65C36.4726 88.65 36.8526 88.7333 37.1792 88.9C37.5126 89.0667 37.7726 89.32 37.9592 89.66C38.1459 90 38.2392 90.43 38.2392 90.95V94H37.2792V91.06C37.2792 90.5467 37.1526 90.16 36.8992 89.9C36.6526 89.64 36.3026 89.51 35.8492 89.51C35.5092 89.51 35.2126 89.5767 34.9592 89.71C34.7059 89.8433 34.5092 90.04 34.3692 90.3C34.2359 90.56 34.1692 90.8833 34.1692 91.27V94H33.2092V88.7H34.1292V90.13L33.9792 89.75C34.1526 89.4033 34.4192 89.1333 34.7792 88.94C35.1392 88.7467 35.5592 88.65 36.0392 88.65ZM42.4759 94.06C41.9092 94.06 41.4092 93.9433 40.9759 93.71C40.5492 93.4767 40.2159 93.1567 39.9759 92.75C39.7425 92.3433 39.6259 91.8767 39.6259 91.35C39.6259 90.8233 39.7392 90.3567 39.9659 89.95C40.1992 89.5433 40.5159 89.2267 40.9159 89C41.3225 88.7667 41.7792 88.65 42.2859 88.65C42.7992 88.65 43.2525 88.7633 43.6459 88.99C44.0392 89.2167 44.3459 89.5367 44.5659 89.95C44.7925 90.3567 44.9059 90.8333 44.9059 91.38C44.9059 91.42 44.9025 91.4667 44.8959 91.52C44.8959 91.5733 44.8925 91.6233 44.8859 91.67H40.3759V90.98H44.3859L43.9959 91.22C44.0025 90.88 43.9325 90.5767 43.7859 90.31C43.6392 90.0433 43.4359 89.8367 43.1759 89.69C42.9225 89.5367 42.6259 89.46 42.2859 89.46C41.9525 89.46 41.6559 89.5367 41.3959 89.69C41.1359 89.8367 40.9325 90.0467 40.7859 90.32C40.6392 90.5867 40.5659 90.8933 40.5659 91.24V91.4C40.5659 91.7533 40.6459 92.07 40.8059 92.35C40.9725 92.6233 41.2025 92.8367 41.4959 92.99C41.7892 93.1433 42.1259 93.22 42.5059 93.22C42.8192 93.22 43.1025 93.1667 43.3559 93.06C43.6159 92.9533 43.8425 92.7933 44.0359 92.58L44.5659 93.2C44.3259 93.48 44.0259 93.6933 43.6659 93.84C43.3125 93.9867 42.9159 94.06 42.4759 94.06ZM46.3389 94V88.7H47.2589V90.14L47.1689 89.78C47.3156 89.4133 47.5622 89.1333 47.9089 88.94C48.2556 88.7467 48.6822 88.65 49.1889 88.65V89.58C49.1489 89.5733 49.1089 89.57 49.0689 89.57C49.0356 89.57 49.0022 89.57 48.9689 89.57C48.4556 89.57 48.0489 89.7233 47.7489 90.03C47.4489 90.3367 47.2989 90.78 47.2989 91.36V94H46.3389ZM52.0507 94.06C51.6107 94.06 51.1907 94 50.7907 93.88C50.3974 93.76 50.0874 93.6133 49.8607 93.44L50.2607 92.68C50.4874 92.8333 50.7674 92.9633 51.1007 93.07C51.434 93.1767 51.774 93.23 52.1207 93.23C52.5674 93.23 52.8874 93.1667 53.0807 93.04C53.2807 92.9133 53.3807 92.7367 53.3807 92.51C53.3807 92.3433 53.3207 92.2133 53.2007 92.12C53.0807 92.0267 52.9207 91.9567 52.7207 91.91C52.5274 91.8633 52.3107 91.8233 52.0707 91.79C51.8307 91.75 51.5907 91.7033 51.3507 91.65C51.1107 91.59 50.8907 91.51 50.6907 91.41C50.4907 91.3033 50.3307 91.16 50.2107 90.98C50.0907 90.7933 50.0307 90.5467 50.0307 90.24C50.0307 89.92 50.1207 89.64 50.3007 89.4C50.4807 89.16 50.734 88.9767 51.0607 88.85C51.394 88.7167 51.7874 88.65 52.2407 88.65C52.5874 88.65 52.9374 88.6933 53.2907 88.78C53.6507 88.86 53.944 88.9767 54.1707 89.13L53.7607 89.89C53.5207 89.73 53.2707 89.62 53.0107 89.56C52.7507 89.5 52.4907 89.47 52.2307 89.47C51.8107 89.47 51.4974 89.54 51.2907 89.68C51.084 89.8133 50.9807 89.9867 50.9807 90.2C50.9807 90.38 51.0407 90.52 51.1607 90.62C51.2874 90.7133 51.4474 90.7867 51.6407 90.84C51.8407 90.8933 52.0607 90.94 52.3007 90.98C52.5407 91.0133 52.7807 91.06 53.0207 91.12C53.2607 91.1733 53.4774 91.25 53.6707 91.35C53.8707 91.45 54.0307 91.59 54.1507 91.77C54.2774 91.95 54.3407 92.19 54.3407 92.49C54.3407 92.81 54.2474 93.0867 54.0607 93.32C53.874 93.5533 53.6107 93.7367 53.2707 93.87C52.9307 93.9967 52.524 94.06 52.0507 94.06Z" fill="black"/>
</svg>
