<svg width="153" height="33" viewBox="0 0 153 33" fill="none" xmlns="http://www.w3.org/2000/svg">
<circle cx="16.5" cy="16.5" r="16.5" fill="#755EBE"/>
<path d="M21.215 7.45318C21.2326 7.42936 21.2716 7.39317 21.3018 7.3729C21.3432 7.34491 21.3785 7.33563 21.4456 7.33501C21.5155 7.33424 21.5469 7.34228 21.5925 7.37259C21.6244 7.39363 21.6663 7.43369 21.6857 7.46153C21.705 7.48921 21.7246 7.53979 21.7296 7.57381C21.7351 7.61341 21.7017 7.87201 21.6363 8.29301C21.5803 8.65462 21.5345 8.96596 21.5345 8.98514C21.5345 9.00432 21.5398 9.01994 21.5461 9.02009C21.5525 9.02009 21.7143 9.03772 21.9057 9.05907C22.0971 9.08057 22.2955 9.10562 22.3465 9.11475C22.3976 9.12372 22.4811 9.14645 22.5321 9.16501C22.5832 9.18357 22.6701 9.22379 22.7255 9.25441C22.7807 9.28504 22.867 9.34752 22.9171 9.39315C22.9672 9.43877 23.0382 9.51796 23.0746 9.569C23.1111 9.62004 23.1616 9.70712 23.1868 9.76233C23.2122 9.8177 23.2438 9.90463 23.2569 9.95567C23.2702 10.0067 23.303 10.2433 23.3299 10.4815C23.3567 10.7197 23.3797 10.9164 23.3808 10.9186C23.3819 10.9209 23.7412 10.8971 24.9759 10.809L25.0523 10.8464C25.097 10.8682 25.1435 10.9061 25.1644 10.9378C25.184 10.9676 25.2045 11.0267 25.2099 11.0693C25.2173 11.1279 25.2125 11.1633 25.1898 11.2162C25.1732 11.2545 25.1358 11.3048 25.1066 11.328C25.0718 11.3554 25.0209 11.3755 24.9604 11.3857C24.9094 11.3942 24.6622 11.4154 24.4113 11.4326C24.1605 11.4497 23.842 11.4725 23.4522 11.5023L23.4524 11.5487C23.4526 11.5742 23.5534 12.5103 23.6765 13.629L23.909 15.7402C23.9138 15.7827 23.9105 15.8698 23.9017 15.9335C23.8929 15.9974 23.868 16.1018 23.8465 16.1655C23.8248 16.2294 23.7787 16.3302 23.7439 16.3898C23.6892 16.4835 23.122 17.0567 19.5104 20.6683C15.8592 24.3196 15.3267 24.8464 15.2319 24.901C15.1724 24.9352 15.068 24.9824 14.9999 25.0059C14.8982 25.0408 14.8417 25.0496 14.6829 25.0552C14.5345 25.0603 14.4643 25.0558 14.3813 25.0356C14.3217 25.0209 14.2243 24.9868 14.1647 24.9596C14.1052 24.9324 14.0217 24.8871 13.9791 24.8588C13.9366 24.8305 12.4936 23.4004 10.7724 21.6812C9.05133 19.9618 7.61309 18.5167 7.57644 18.47C7.53978 18.4233 7.48472 18.3362 7.45425 18.2767C7.42378 18.2171 7.38403 18.1127 7.36594 18.0447C7.34196 17.9554 7.33253 17.8736 7.33207 17.7508C7.33145 17.6201 7.33918 17.5521 7.36578 17.457C7.38481 17.3889 7.42734 17.2811 7.46044 17.2172C7.49354 17.1535 7.56592 17.0491 7.62129 16.9852C7.67666 16.9213 9.5509 15.0412 11.7863 12.8071C14.6856 9.90942 15.8794 8.72607 15.9511 8.67859C16.0063 8.64194 16.0934 8.59492 16.1445 8.57419C16.1955 8.55331 16.272 8.52686 16.3146 8.51542C16.3571 8.50397 16.444 8.49005 16.5079 8.4848C16.5981 8.47722 16.8463 8.4998 17.6215 8.58579L19.7791 8.82506C20.4171 8.8959 20.9408 8.95297 20.943 8.95204C20.945 8.95111 20.9945 8.6407 21.0531 8.26208C21.1115 7.88346 21.1646 7.55634 21.1711 7.53515C21.1776 7.5138 21.1974 7.47699 21.215 7.45318Z" fill="white"/>
<path fill-rule="evenodd" clip-rule="evenodd" d="M16.5775 9.06515C16.6371 9.06484 17.1869 9.1199 17.7994 9.18765C18.4118 9.25539 19.6716 9.39474 20.5988 9.49744C22.2149 9.67624 22.2885 9.68583 22.3775 9.72697C22.4285 9.75079 22.4981 9.79486 22.5321 9.82518C22.5662 9.85549 22.6124 9.91427 22.635 9.95572C22.6576 9.99732 22.6839 10.059 22.6935 10.0931C22.703 10.1271 22.7312 10.3359 22.7558 10.5571C22.7805 10.7782 22.7994 10.9603 22.7979 10.9615C22.7963 10.9627 22.6314 10.975 22.4316 10.9886C22.2318 11.0023 22.0369 11.0175 21.9985 11.0223C21.9336 11.0306 21.9276 11.0283 21.9081 10.9875C21.8966 10.9634 21.8618 10.9057 21.8307 10.859C21.7996 10.8124 21.7359 10.7369 21.6892 10.6912C21.6425 10.6454 21.5554 10.5778 21.4959 10.5408C21.4363 10.504 21.3216 10.4513 21.2407 10.4236C21.1047 10.377 21.0786 10.3733 20.8927 10.373C20.7728 10.3729 20.6635 10.3807 20.622 10.3928C20.5837 10.4038 20.5073 10.4307 20.4519 10.4523C20.3965 10.4742 20.3062 10.521 20.2508 10.5567C20.1954 10.5923 20.1095 10.6627 20.0597 10.713C20.0099 10.7634 19.9385 10.8532 19.9014 10.9128C19.8642 10.9723 19.8167 11.0698 19.7956 11.1293C19.7748 11.1889 19.7503 11.2829 19.7415 11.3381C19.7325 11.3935 19.7251 11.4821 19.7251 11.5353C19.725 11.5885 19.7361 11.686 19.7496 11.7519C19.7632 11.8177 19.7918 11.9135 19.8133 11.9645C19.8348 12.0156 19.8818 12.1026 19.918 12.1578C19.954 12.2132 20.0211 12.2958 20.0669 12.3416C20.1129 12.3872 20.199 12.4564 20.2586 12.4952C20.3181 12.534 20.4052 12.5813 20.4519 12.6002C20.4986 12.6191 20.5909 12.6455 20.6568 12.6591C20.7227 12.6726 20.8254 12.6837 20.8849 12.6837C20.9445 12.6837 21.0472 12.6727 21.1131 12.6593C21.179 12.6458 21.2781 12.616 21.3335 12.5929C21.3889 12.5699 21.4724 12.5258 21.5191 12.4949C21.5658 12.4641 21.6493 12.3934 21.7047 12.338C21.76 12.2828 21.8348 12.1882 21.8709 12.128C21.9071 12.0678 21.954 11.9665 21.9753 11.9026C21.9965 11.8389 22.0193 11.7449 22.0256 11.6937C22.0319 11.6425 22.0372 11.6007 22.0372 11.6007C22.0372 11.6007 22.2216 11.5871 22.4471 11.5706C22.6726 11.554 22.8585 11.542 22.8603 11.5437C22.8622 11.5455 22.9123 11.9854 22.9717 12.5213C23.0311 13.0572 23.1364 14.0073 23.2056 14.6325C23.2925 15.418 23.3287 15.7968 23.3223 15.8582C23.3174 15.9071 23.2956 15.9872 23.2739 16.0361C23.2382 16.1171 22.8718 16.488 19.1095 20.2501C15.3502 24.0096 14.9763 24.3791 14.8917 24.4184C14.8086 24.457 14.7818 24.4615 14.6365 24.4613C14.4996 24.4612 14.4606 24.4553 14.389 24.4242C14.3127 24.3911 13.979 24.0625 11.1752 21.2615C9.45454 19.5422 8.02651 18.1044 8.00192 18.0661C7.97748 18.0279 7.94547 17.9547 7.93093 17.9037C7.9133 17.8415 7.9068 17.7776 7.91144 17.7103C7.91624 17.6407 7.93387 17.5766 7.96851 17.5015C8.01723 17.3964 8.13385 17.2781 12.097 13.3134C14.3401 11.0695 16.2102 9.20775 16.2527 9.17651C16.2952 9.14511 16.3613 9.10738 16.3996 9.09268C16.4406 9.07706 16.5138 9.06562 16.5775 9.06515ZM20.9081 10.8942C21.0277 10.8978 21.062 10.9055 21.1517 10.9482C21.2124 10.977 21.2886 11.0303 21.3335 11.0752C21.3777 11.1194 21.4323 11.1972 21.4611 11.2569C21.5079 11.3544 21.5113 11.3723 21.5113 11.5237C21.5113 11.6736 21.5076 11.6939 21.4632 11.7866C21.4368 11.842 21.3845 11.9211 21.3472 11.9623C21.3022 12.0122 21.2405 12.0565 21.1641 12.0938C21.0537 12.1478 21.0421 12.1501 20.8849 12.1501C20.7278 12.1501 20.7162 12.1478 20.6058 12.0938C20.5294 12.0565 20.4677 12.0122 20.4227 11.9623C20.3854 11.9211 20.3331 11.842 20.3067 11.7866C20.2623 11.6939 20.2586 11.6737 20.2586 11.5229C20.2586 11.3666 20.2609 11.3548 20.3149 11.2445C20.3524 11.1675 20.3961 11.107 20.4463 11.062C20.4876 11.0249 20.5493 10.9804 20.5834 10.9627C20.6174 10.9453 20.6731 10.9216 20.7071 10.9105C20.7451 10.8978 20.8226 10.8916 20.9081 10.8942Z" fill="#755EBE"/>
<path d="M16.3571 12.0395C16.3851 12.0108 16.4289 11.978 16.4544 11.9667C16.4799 11.9556 16.5303 11.9461 16.5665 11.9458C16.6027 11.9455 16.6549 11.9549 16.6825 11.9668C16.7127 11.9798 17.4726 12.7295 18.5832 13.8422C20.1393 15.4009 20.4367 15.7057 20.4528 15.7577C20.464 15.794 20.4674 15.8451 20.4612 15.8814C20.4555 15.9155 20.4353 15.967 20.4168 15.9959C20.3982 16.0248 20.3551 16.0647 20.321 16.0845C20.2773 16.11 20.2344 16.1207 20.1741 16.121C20.1059 16.1215 20.0753 16.1127 20.0194 16.0766C19.9811 16.052 19.1309 15.2114 18.1299 14.2089C16.5525 12.6288 16.3078 12.3778 16.2934 12.3241C16.2843 12.2901 16.2767 12.2483 16.2767 12.2313C16.2767 12.2143 16.2833 12.1761 16.2915 12.1463C16.2997 12.1166 16.3293 12.0685 16.3571 12.0395Z" fill="white"/>
<path d="M15.5383 12.8593C15.5659 12.8305 15.6092 12.7977 15.6347 12.7864C15.6602 12.7753 15.7106 12.7658 15.7468 12.7655C15.783 12.7652 15.8317 12.7722 15.8551 12.7812C15.8784 12.7901 16.516 13.4147 17.2718 14.1693C18.2156 15.1115 18.6551 15.5605 18.6751 15.603C18.691 15.6371 18.7042 15.6893 18.7042 15.719C18.7042 15.7487 18.6915 15.801 18.6762 15.835C18.6609 15.8691 18.6262 15.9161 18.5992 15.9394C18.5722 15.9628 18.5206 15.9894 18.4844 15.9985C18.4361 16.0107 18.3981 16.0103 18.3413 15.9968C18.2662 15.979 18.2244 15.939 16.8983 14.6153C16.1472 13.8655 15.5196 13.2312 15.5038 13.2057C15.4879 13.1802 15.4701 13.1315 15.4641 13.0974C15.4581 13.0626 15.461 13.0085 15.4709 12.9737C15.4805 12.9397 15.5108 12.8882 15.5383 12.8593Z" fill="white"/>
<path d="M14.6932 13.7054C14.7155 13.674 14.7625 13.634 14.7976 13.6165C14.8326 13.599 14.8909 13.5846 14.9271 13.5846C14.9633 13.5846 15.019 13.5981 15.0508 13.6145C15.0842 13.6318 15.6859 14.2222 16.4733 15.0104C17.4455 15.9838 17.8444 16.3931 17.8614 16.4344C17.8744 16.4662 17.8849 16.5149 17.8848 16.5426C17.8846 16.5703 17.8718 16.6207 17.8565 16.6548C17.8411 16.6888 17.8065 16.7358 17.7794 16.7592C17.7525 16.7825 17.7043 16.8087 17.6724 16.817C17.6405 16.8255 17.604 16.8323 17.5912 16.8323C17.5784 16.8322 17.5402 16.8241 17.5061 16.8144C17.4534 16.7994 17.2413 16.5943 16.0713 15.4266C15.0397 14.3971 14.69 14.0391 14.6652 13.9868C14.6389 13.9314 14.6343 13.9014 14.6425 13.8398C14.6485 13.7945 14.6696 13.7388 14.6932 13.7054Z" fill="white"/>
<path d="M13.8738 14.5252C13.8959 14.4938 13.9428 14.4537 13.9779 14.4362C14.0129 14.4188 14.0661 14.4045 14.0958 14.4047C14.1256 14.4048 14.1743 14.4121 14.204 14.4209C14.2464 14.4335 14.6629 14.8418 16.1169 16.2959C17.8351 18.0144 17.9769 18.1603 17.9936 18.2246C18.0035 18.263 18.0071 18.3151 18.0017 18.3406C17.9963 18.3661 17.98 18.4108 17.9655 18.4399C17.9511 18.4691 17.9183 18.5084 17.8928 18.5275C17.8673 18.5465 17.8169 18.5697 17.7807 18.579C17.7327 18.5912 17.695 18.5912 17.6415 18.5785C17.5712 18.5618 17.4868 18.48 15.7157 16.7109C14.134 15.131 13.8597 14.8504 13.8379 14.791C13.82 14.7422 13.8155 14.7007 13.8229 14.6518C13.8288 14.6135 13.8517 14.5566 13.8738 14.5252Z" fill="white"/>
<path d="M13.0522 15.3461C13.0745 15.3155 13.1217 15.2756 13.1572 15.2574C13.1928 15.2391 13.2497 15.2243 13.2838 15.2244C13.3178 15.2246 13.3735 15.2379 13.4075 15.2538C13.45 15.2737 13.8986 15.7128 14.8408 16.6571C16.0252 17.844 16.2145 18.0398 16.2287 18.0932C16.238 18.1272 16.2453 18.1725 16.2451 18.1937C16.245 18.215 16.2323 18.2602 16.217 18.2942C16.2017 18.3282 16.167 18.3753 16.14 18.3986C16.1131 18.422 16.0648 18.4481 16.0329 18.4565C16.0011 18.465 15.9646 18.4719 15.9517 18.4719C15.9389 18.4719 15.9007 18.4643 15.8667 18.4552C15.8133 18.4408 15.6164 18.2504 14.4243 17.0595C13.3702 16.0066 13.0378 15.6657 13.019 15.6185C13.0024 15.5766 12.9973 15.5317 13.003 15.4793C13.0085 15.4312 13.027 15.3809 13.0522 15.3461Z" fill="white"/>
<path d="M12.263 16.1289C12.2928 16.0992 12.3397 16.0684 12.3674 16.0607C12.3951 16.053 12.4419 16.0461 12.4718 16.0455C12.5016 16.0449 12.5537 16.0576 12.5878 16.0735C12.6301 16.0935 13.0782 16.5318 14.0141 17.4691C14.986 18.4425 15.3852 18.8522 15.4022 18.8935C15.4152 18.9254 15.4259 18.9724 15.4259 18.9979C15.4259 19.0235 15.4151 19.0705 15.4018 19.1023C15.3886 19.1342 15.3625 19.1769 15.3438 19.1972C15.3252 19.2174 15.282 19.2468 15.248 19.2626C15.214 19.2784 15.1636 19.2913 15.1359 19.2915C15.1082 19.2917 15.0595 19.2811 15.0276 19.2681C14.9863 19.2511 14.5766 18.8519 13.6031 17.88C12.6659 16.9441 12.2275 16.4961 12.2076 16.4537C12.1917 16.4197 12.1785 16.3709 12.1784 16.3454C12.1782 16.3199 12.185 16.2729 12.1935 16.241C12.2019 16.2092 12.2331 16.1586 12.263 16.1289Z" fill="white"/>
<path d="M11.4695 16.9265C11.4977 16.9059 11.538 16.8838 11.5592 16.8776C11.5806 16.8713 11.6223 16.8657 11.652 16.8653C11.6819 16.8646 11.734 16.8773 11.768 16.8933C11.8109 16.9134 12.3969 17.4903 13.6727 18.7683C14.6863 19.7835 15.5191 20.6281 15.5235 20.6451C15.5278 20.6621 15.5354 20.6952 15.5405 20.7186C15.5454 20.742 15.5413 20.7942 15.5309 20.8346C15.519 20.8818 15.4927 20.9277 15.4574 20.9628C15.4223 20.9981 15.3764 21.0244 15.3292 21.0363C15.2888 21.0466 15.2332 21.0505 15.2055 21.0451C15.1778 21.0395 15.1379 21.0261 15.1165 21.0151C15.0954 21.0041 14.2517 20.1681 13.2417 19.1574C11.9242 17.8387 11.399 17.3034 11.3818 17.2618C11.3688 17.23 11.3583 17.1777 11.3583 17.1458C11.3585 17.114 11.3721 17.06 11.3886 17.026C11.405 16.9919 11.4415 16.9472 11.4695 16.9265Z" fill="white"/>
<path d="M10.6544 17.7397C10.68 17.7224 10.7183 17.7032 10.7395 17.6971C10.7609 17.691 10.8025 17.6855 10.8323 17.685C10.8622 17.6844 10.9143 17.6971 10.9483 17.713C10.9912 17.7329 11.5773 18.31 12.8532 19.588C14.683 21.4209 14.6962 21.4345 14.7112 21.5113C14.7195 21.5538 14.7212 21.6095 14.715 21.635C14.7088 21.6605 14.6923 21.704 14.6782 21.7317C14.6642 21.7593 14.6334 21.7952 14.61 21.8115C14.5867 21.8277 14.5362 21.8492 14.4979 21.8591C14.4451 21.8729 14.4114 21.8729 14.3587 21.8594C14.2943 21.8429 14.1507 21.7034 12.4432 19.9983C11.1664 18.7234 10.5882 18.136 10.5681 18.0932C10.5522 18.0591 10.5391 18.0034 10.5391 17.9694C10.5389 17.9354 10.5544 17.8769 10.5734 17.8393C10.5924 17.8019 10.6289 17.7571 10.6544 17.7397Z" fill="white"/>
<path d="M41.924 12.2778V3.81783H45.596C46.22 3.81783 46.748 3.92183 47.18 4.12983C47.612 4.33783 47.94 4.63783 48.164 5.02983C48.388 5.42183 48.5 5.89783 48.5 6.45783C48.5 7.00983 48.388 7.48583 48.164 7.88583C47.94 8.27783 47.612 8.58183 47.18 8.79783C46.748 9.00583 46.22 9.10983 45.596 9.10983H43.46V12.2778H41.924ZM43.46 7.89783H45.356C45.9 7.89783 46.312 7.77783 46.592 7.53783C46.872 7.28983 47.012 6.92983 47.012 6.45783C47.012 5.98583 46.872 5.62983 46.592 5.38983C46.312 5.14983 45.9 5.02983 45.356 5.02983H43.46V7.89783ZM49.4909 12.2778V6.40983H50.9549V7.82583H50.8349C50.9469 7.34583 51.1669 6.98183 51.4949 6.73383C51.8229 6.47783 52.2589 6.32983 52.8029 6.28983L53.2589 6.25383L53.3549 7.52583L52.4909 7.60983C52.0029 7.65783 51.6349 7.80983 51.3869 8.06583C51.1389 8.31383 51.0149 8.66583 51.0149 9.12183V12.2778H49.4909ZM56.7724 12.3978C56.1644 12.3978 55.6364 12.2738 55.1884 12.0258C54.7404 11.7778 54.3924 11.4258 54.1444 10.9698C53.8964 10.5058 53.7724 9.96183 53.7724 9.33783C53.7724 8.71383 53.8964 8.17383 54.1444 7.71783C54.3924 7.26183 54.7404 6.90983 55.1884 6.66183C55.6364 6.41383 56.1644 6.28983 56.7724 6.28983C57.3804 6.28983 57.9084 6.41383 58.3564 6.66183C58.8044 6.90983 59.1524 7.26183 59.4004 7.71783C59.6484 8.17383 59.7724 8.71383 59.7724 9.33783C59.7724 9.96183 59.6484 10.5058 59.4004 10.9698C59.1524 11.4258 58.8044 11.7778 58.3564 12.0258C57.9084 12.2738 57.3804 12.3978 56.7724 12.3978ZM56.7724 11.2578C57.2204 11.2578 57.5804 11.0978 57.8524 10.7778C58.1244 10.4498 58.2604 9.96983 58.2604 9.33783C58.2604 8.69783 58.1244 8.22183 57.8524 7.90983C57.5804 7.58983 57.2204 7.42983 56.7724 7.42983C56.3244 7.42983 55.9644 7.58983 55.6924 7.90983C55.4204 8.22183 55.2844 8.69783 55.2844 9.33783C55.2844 9.96983 55.4204 10.4498 55.6924 10.7778C55.9644 11.0978 56.3244 11.2578 56.7724 11.2578ZM63.2665 12.3978C62.7545 12.3978 62.3025 12.2738 61.9105 12.0258C61.5265 11.7778 61.2265 11.4258 61.0105 10.9698C60.7945 10.5058 60.6865 9.96183 60.6865 9.33783C60.6865 8.70583 60.7945 8.16583 61.0105 7.71783C61.2265 7.26183 61.5265 6.90983 61.9105 6.66183C62.3025 6.41383 62.7545 6.28983 63.2665 6.28983C63.7545 6.28983 64.1785 6.40983 64.5385 6.64983C64.9065 6.88983 65.1545 7.20583 65.2825 7.59783H65.1505V3.81783H66.6505V12.2778H65.1865V11.0298H65.2945C65.1745 11.4458 64.9305 11.7778 64.5625 12.0258C64.1945 12.2738 63.7625 12.3978 63.2665 12.3978ZM63.6865 11.2578C64.1345 11.2578 64.4945 11.0978 64.7665 10.7778C65.0385 10.4498 65.1745 9.96983 65.1745 9.33783C65.1745 8.69783 65.0385 8.22183 64.7665 7.90983C64.4945 7.58983 64.1345 7.42983 63.6865 7.42983C63.2385 7.42983 62.8785 7.58983 62.6065 7.90983C62.3345 8.22183 62.1985 8.69783 62.1985 9.33783C62.1985 9.96983 62.3345 10.4498 62.6065 10.7778C62.8785 11.0978 63.2385 11.2578 63.6865 11.2578ZM70.3298 12.3978C69.8418 12.3978 69.4378 12.3098 69.1178 12.1338C68.7978 11.9498 68.5578 11.6778 68.3978 11.3178C68.2458 10.9578 68.1698 10.5098 68.1698 9.97383V6.40983H69.6698V9.99783C69.6698 10.2698 69.7058 10.4978 69.7778 10.6818C69.8578 10.8658 69.9738 11.0018 70.1258 11.0898C70.2858 11.1778 70.4858 11.2218 70.7258 11.2218C70.9978 11.2218 71.2338 11.1618 71.4338 11.0418C71.6418 10.9138 71.8018 10.7378 71.9138 10.5138C72.0338 10.2818 72.0938 10.0138 72.0938 9.70983V6.40983H73.5938V12.2778H72.1298V11.0538H72.2978C72.1298 11.4858 71.8738 11.8178 71.5298 12.0498C71.1938 12.2818 70.7938 12.3978 70.3298 12.3978ZM77.867 12.3978C77.251 12.3978 76.715 12.2738 76.259 12.0258C75.803 11.7698 75.451 11.4098 75.203 10.9458C74.955 10.4818 74.831 9.93783 74.831 9.31383C74.831 8.68983 74.955 8.15383 75.203 7.70583C75.451 7.24983 75.803 6.90183 76.259 6.66183C76.715 6.41383 77.251 6.28983 77.867 6.28983C78.243 6.28983 78.615 6.34983 78.983 6.46983C79.351 6.58983 79.655 6.75783 79.895 6.97383L79.451 8.01783C79.243 7.83383 79.007 7.69383 78.743 7.59783C78.487 7.50183 78.239 7.45383 77.999 7.45383C77.479 7.45383 77.075 7.61783 76.787 7.94583C76.507 8.26583 76.367 8.72583 76.367 9.32583C76.367 9.91783 76.507 10.3858 76.787 10.7298C77.075 11.0658 77.479 11.2338 77.999 11.2338C78.231 11.2338 78.479 11.1858 78.743 11.0898C79.007 10.9938 79.243 10.8498 79.451 10.6578L79.895 11.7138C79.655 11.9218 79.347 12.0898 78.971 12.2178C78.603 12.3378 78.235 12.3978 77.867 12.3978ZM83.5266 12.3978C82.7426 12.3978 82.1586 12.2018 81.7746 11.8098C81.3906 11.4178 81.1986 10.8458 81.1986 10.0938V7.53783H80.0706V6.40983H81.1986V4.65783H82.6986V6.40983H84.4746V7.53783H82.6986V10.0098C82.6986 10.3938 82.7826 10.6818 82.9506 10.8738C83.1186 11.0658 83.3906 11.1618 83.7666 11.1618C83.8786 11.1618 83.9946 11.1498 84.1146 11.1258C84.2346 11.0938 84.3586 11.0618 84.4866 11.0298L84.7146 12.1338C84.5706 12.2138 84.3866 12.2778 84.1626 12.3258C83.9466 12.3738 83.7346 12.3978 83.5266 12.3978ZM92.7584 12.3978C91.8784 12.3978 91.1224 12.2218 90.4904 11.8698C89.8664 11.5098 89.3864 11.0058 89.0504 10.3578C88.7144 9.70183 88.5464 8.92983 88.5464 8.04183C88.5464 7.15383 88.7144 6.38583 89.0504 5.73783C89.3864 5.08983 89.8664 4.58983 90.4904 4.23783C91.1224 3.87783 91.8784 3.69783 92.7584 3.69783C93.3264 3.69783 93.8624 3.78583 94.3664 3.96183C94.8784 4.13783 95.2984 4.38983 95.6264 4.71783L95.1224 5.94183C94.7624 5.63783 94.3944 5.41783 94.0184 5.28183C93.6424 5.13783 93.2384 5.06583 92.8064 5.06583C91.9504 5.06583 91.2984 5.32583 90.8504 5.84583C90.4024 6.35783 90.1784 7.08983 90.1784 8.04183C90.1784 8.99383 90.4024 9.72983 90.8504 10.2498C91.2984 10.7698 91.9504 11.0298 92.8064 11.0298C93.2384 11.0298 93.6424 10.9618 94.0184 10.8258C94.3944 10.6818 94.7624 10.4578 95.1224 10.1538L95.6264 11.3778C95.2984 11.6978 94.8784 11.9498 94.3664 12.1338C93.8624 12.3098 93.3264 12.3978 92.7584 12.3978ZM99.0771 12.3978C98.4691 12.3978 97.9411 12.2738 97.4931 12.0258C97.0451 11.7778 96.6971 11.4258 96.4491 10.9698C96.2011 10.5058 96.0771 9.96183 96.0771 9.33783C96.0771 8.71383 96.2011 8.17383 96.4491 7.71783C96.6971 7.26183 97.0451 6.90983 97.4931 6.66183C97.9411 6.41383 98.4691 6.28983 99.0771 6.28983C99.6851 6.28983 100.213 6.41383 100.661 6.66183C101.109 6.90983 101.457 7.26183 101.705 7.71783C101.953 8.17383 102.077 8.71383 102.077 9.33783C102.077 9.96183 101.953 10.5058 101.705 10.9698C101.457 11.4258 101.109 11.7778 100.661 12.0258C100.213 12.2738 99.6851 12.3978 99.0771 12.3978ZM99.0771 11.2578C99.5251 11.2578 99.8851 11.0978 100.157 10.7778C100.429 10.4498 100.565 9.96983 100.565 9.33783C100.565 8.69783 100.429 8.22183 100.157 7.90983C99.8851 7.58983 99.5251 7.42983 99.0771 7.42983C98.6291 7.42983 98.2691 7.58983 97.9971 7.90983C97.7251 8.22183 97.5891 8.69783 97.5891 9.33783C97.5891 9.96983 97.7251 10.4498 97.9971 10.7778C98.2691 11.0978 98.6291 11.2578 99.0771 11.2578ZM105.571 12.3978C105.059 12.3978 104.607 12.2738 104.215 12.0258C103.831 11.7778 103.531 11.4258 103.315 10.9698C103.099 10.5058 102.991 9.96183 102.991 9.33783C102.991 8.70583 103.099 8.16583 103.315 7.71783C103.531 7.26183 103.831 6.90983 104.215 6.66183C104.607 6.41383 105.059 6.28983 105.571 6.28983C106.059 6.28983 106.483 6.40983 106.843 6.64983C107.211 6.88983 107.459 7.20583 107.587 7.59783H107.455V3.81783H108.955V12.2778H107.491V11.0298H107.599C107.479 11.4458 107.235 11.7778 106.867 12.0258C106.499 12.2738 106.067 12.3978 105.571 12.3978ZM105.991 11.2578C106.439 11.2578 106.799 11.0978 107.071 10.7778C107.343 10.4498 107.479 9.96983 107.479 9.33783C107.479 8.69783 107.343 8.22183 107.071 7.90983C106.799 7.58983 106.439 7.42983 105.991 7.42983C105.543 7.42983 105.183 7.58983 104.911 7.90983C104.639 8.22183 104.503 8.69783 104.503 9.33783C104.503 9.96983 104.639 10.4498 104.911 10.7778C105.183 11.0978 105.543 11.2578 105.991 11.2578ZM113.402 12.3978C112.738 12.3978 112.166 12.2738 111.686 12.0258C111.206 11.7778 110.834 11.4258 110.57 10.9698C110.314 10.5138 110.186 9.97383 110.186 9.34983C110.186 8.74183 110.31 8.20983 110.558 7.75383C110.814 7.29783 111.162 6.94183 111.602 6.68583C112.05 6.42183 112.558 6.28983 113.126 6.28983C113.686 6.28983 114.166 6.40983 114.566 6.64983C114.966 6.88983 115.274 7.22983 115.49 7.66983C115.714 8.10983 115.826 8.63383 115.826 9.24183V9.68583H111.398V8.82183H114.77L114.578 9.00183C114.578 8.45783 114.458 8.04183 114.218 7.75383C113.978 7.45783 113.634 7.30983 113.186 7.30983C112.85 7.30983 112.562 7.38983 112.322 7.54983C112.09 7.70183 111.91 7.92183 111.782 8.20983C111.662 8.48983 111.602 8.82583 111.602 9.21783V9.30183C111.602 9.74183 111.67 10.1058 111.806 10.3938C111.942 10.6818 112.146 10.8978 112.418 11.0418C112.69 11.1858 113.026 11.2578 113.426 11.2578C113.754 11.2578 114.082 11.2098 114.41 11.1138C114.738 11.0098 115.038 10.8498 115.31 10.6338L115.73 11.6418C115.45 11.8738 115.098 12.0578 114.674 12.1938C114.25 12.3298 113.826 12.3978 113.402 12.3978Z" fill="black"/>
<path d="M44 28.8022C43.22 28.8022 42.61 28.6322 42.17 28.2922C41.7367 27.9522 41.52 27.4788 41.52 26.8722C41.52 26.5522 41.5833 26.2688 41.71 26.0222C41.8433 25.7755 42.0267 25.5722 42.26 25.4122C42.4933 25.2522 42.7633 25.1455 43.07 25.0922V25.1622C42.7967 25.0955 42.5533 24.9822 42.34 24.8222C42.1333 24.6555 41.97 24.4555 41.85 24.2222C41.7367 23.9888 41.68 23.7355 41.68 23.4622C41.68 22.8755 41.89 22.4188 42.31 22.0922C42.7367 21.7588 43.3 21.5922 44 21.5922C44.7067 21.5922 45.27 21.7588 45.69 22.0922C46.11 22.4188 46.32 22.8755 46.32 23.4622C46.32 23.7288 46.26 23.9822 46.14 24.2222C46.0267 24.4555 45.8667 24.6555 45.66 24.8222C45.4533 24.9822 45.21 25.0955 44.93 25.1622V25.0922C45.2367 25.1388 45.5033 25.2422 45.73 25.4022C45.9633 25.5622 46.1467 25.7688 46.28 26.0222C46.4133 26.2688 46.48 26.5522 46.48 26.8722C46.48 27.4788 46.26 27.9522 45.82 28.2922C45.3867 28.6322 44.78 28.8022 44 28.8022ZM44 28.2422C44.6 28.2422 45.0567 28.1255 45.37 27.8922C45.6833 27.6522 45.84 27.2988 45.84 26.8322C45.84 26.3722 45.6833 26.0255 45.37 25.7922C45.0567 25.5522 44.6 25.4322 44 25.4322C43.4 25.4322 42.9433 25.5522 42.63 25.7922C42.3167 26.0255 42.16 26.3722 42.16 26.8322C42.16 27.2988 42.3167 27.6522 42.63 27.8922C42.9433 28.1255 43.4 28.2422 44 28.2422ZM44 24.8622C44.5267 24.8622 44.9367 24.7422 45.23 24.5022C45.53 24.2622 45.68 23.9255 45.68 23.4922C45.68 23.0722 45.53 22.7455 45.23 22.5122C44.9367 22.2722 44.5267 22.1522 44 22.1522C43.48 22.1522 43.07 22.2722 42.77 22.5122C42.47 22.7455 42.32 23.0755 42.32 23.5022C42.32 23.9288 42.47 24.2622 42.77 24.5022C43.07 24.7422 43.48 24.8622 44 24.8622ZM49.9961 28.8022C49.2161 28.8022 48.6061 28.6322 48.1661 28.2922C47.7328 27.9522 47.5161 27.4788 47.5161 26.8722C47.5161 26.5522 47.5794 26.2688 47.7061 26.0222C47.8394 25.7755 48.0228 25.5722 48.2561 25.4122C48.4894 25.2522 48.7594 25.1455 49.0661 25.0922V25.1622C48.7928 25.0955 48.5494 24.9822 48.3361 24.8222C48.1294 24.6555 47.9661 24.4555 47.8461 24.2222C47.7328 23.9888 47.6761 23.7355 47.6761 23.4622C47.6761 22.8755 47.8861 22.4188 48.3061 22.0922C48.7328 21.7588 49.2961 21.5922 49.9961 21.5922C50.7028 21.5922 51.2661 21.7588 51.6861 22.0922C52.1061 22.4188 52.3161 22.8755 52.3161 23.4622C52.3161 23.7288 52.2561 23.9822 52.1361 24.2222C52.0228 24.4555 51.8628 24.6555 51.6561 24.8222C51.4494 24.9822 51.2061 25.0955 50.9261 25.1622V25.0922C51.2328 25.1388 51.4994 25.2422 51.7261 25.4022C51.9594 25.5622 52.1428 25.7688 52.2761 26.0222C52.4094 26.2688 52.4761 26.5522 52.4761 26.8722C52.4761 27.4788 52.2561 27.9522 51.8161 28.2922C51.3828 28.6322 50.7761 28.8022 49.9961 28.8022ZM49.9961 28.2422C50.5961 28.2422 51.0528 28.1255 51.3661 27.8922C51.6794 27.6522 51.8361 27.2988 51.8361 26.8322C51.8361 26.3722 51.6794 26.0255 51.3661 25.7922C51.0528 25.5522 50.5961 25.4322 49.9961 25.4322C49.3961 25.4322 48.9394 25.5522 48.6261 25.7922C48.3128 26.0255 48.1561 26.3722 48.1561 26.8322C48.1561 27.2988 48.3128 27.6522 48.6261 27.8922C48.9394 28.1255 49.3961 28.2422 49.9961 28.2422ZM49.9961 24.8622C50.5228 24.8622 50.9328 24.7422 51.2261 24.5022C51.5261 24.2622 51.6761 23.9255 51.6761 23.4922C51.6761 23.0722 51.5261 22.7455 51.2261 22.5122C50.9328 22.2722 50.5228 22.1522 49.9961 22.1522C49.4761 22.1522 49.0661 22.2722 48.7661 22.5122C48.4661 22.7455 48.3161 23.0755 48.3161 23.5022C48.3161 23.9288 48.4661 24.2622 48.7661 24.5022C49.0661 24.7422 49.4761 24.8622 49.9961 24.8622ZM55.5622 28.8022C55.3089 28.8022 55.0622 28.7722 54.8222 28.7122C54.5822 28.6455 54.3555 28.5488 54.1422 28.4222C53.9289 28.2888 53.7355 28.1322 53.5622 27.9522L53.8422 27.4322C54.0955 27.7122 54.3689 27.9122 54.6622 28.0322C54.9555 28.1522 55.2589 28.2122 55.5722 28.2122C55.9122 28.2122 56.2122 28.1455 56.4722 28.0122C56.7389 27.8788 56.9622 27.6822 57.1422 27.4222C57.3289 27.1622 57.4689 26.8388 57.5622 26.4522C57.6555 26.0655 57.7022 25.6188 57.7022 25.1122V24.2722H57.7322C57.6855 24.6388 57.5689 24.9555 57.3822 25.2222C57.1955 25.4888 56.9589 25.6955 56.6722 25.8422C56.3855 25.9888 56.0655 26.0622 55.7122 26.0622C55.2855 26.0622 54.9089 25.9688 54.5822 25.7822C54.2622 25.5888 54.0089 25.3255 53.8222 24.9922C53.6422 24.6588 53.5522 24.2755 53.5522 23.8422C53.5522 23.4022 53.6455 23.0155 53.8322 22.6822C54.0255 22.3422 54.2889 22.0755 54.6222 21.8822C54.9555 21.6888 55.3355 21.5922 55.7622 21.5922C56.3155 21.5922 56.7822 21.7255 57.1622 21.9922C57.5489 22.2588 57.8389 22.6488 58.0322 23.1622C58.2322 23.6688 58.3322 24.2855 58.3322 25.0122C58.3322 25.8255 58.2222 26.5155 58.0022 27.0822C57.7822 27.6422 57.4655 28.0688 57.0522 28.3622C56.6389 28.6555 56.1422 28.8022 55.5622 28.8022ZM55.8022 25.4822C56.1222 25.4822 56.4055 25.4122 56.6522 25.2722C56.8989 25.1322 57.0889 24.9388 57.2222 24.6922C57.3622 24.4388 57.4322 24.1522 57.4322 23.8322C57.4322 23.4988 57.3622 23.2088 57.2222 22.9622C57.0889 22.7088 56.8989 22.5155 56.6522 22.3822C56.4122 22.2422 56.1289 22.1722 55.8022 22.1722C55.4822 22.1722 55.2022 22.2422 54.9622 22.3822C54.7222 22.5222 54.5322 22.7155 54.3922 22.9622C54.2589 23.2088 54.1922 23.4988 54.1922 23.8322C54.1922 24.1588 54.2589 24.4455 54.3922 24.6922C54.5322 24.9388 54.7222 25.1322 54.9622 25.2722C55.2022 25.4122 55.4822 25.4822 55.8022 25.4822ZM61.9883 28.8022C61.4616 28.8022 61.0149 28.6655 60.6483 28.3922C60.2883 28.1188 60.0149 27.7155 59.8283 27.1822C59.6416 26.6422 59.5483 25.9822 59.5483 25.2022C59.5483 24.4088 59.6416 23.7455 59.8283 23.2122C60.0149 22.6788 60.2883 22.2755 60.6483 22.0022C61.0149 21.7288 61.4616 21.5922 61.9883 21.5922C62.5283 21.5922 62.9783 21.7288 63.3383 22.0022C63.6983 22.2688 63.9683 22.6688 64.1483 23.2022C64.3349 23.7355 64.4283 24.3955 64.4283 25.1822C64.4283 25.9688 64.3349 26.6322 64.1483 27.1722C63.9616 27.7122 63.6883 28.1188 63.3283 28.3922C62.9683 28.6655 62.5216 28.8022 61.9883 28.8022ZM61.9883 28.2122C62.5883 28.2122 63.0349 27.9655 63.3283 27.4722C63.6216 26.9788 63.7683 26.2155 63.7683 25.1822C63.7683 24.1488 63.6216 23.3922 63.3283 22.9122C63.0416 22.4255 62.5949 22.1822 61.9883 22.1822C61.3883 22.1822 60.9416 22.4255 60.6483 22.9122C60.3549 23.3988 60.2083 24.1588 60.2083 25.1922C60.2083 26.2188 60.3549 26.9788 60.6483 27.4722C60.9416 27.9655 61.3883 28.2122 61.9883 28.2122Z" fill="black"/>
</svg>
