<svg width="120" height="26" viewBox="0 0 120 26" fill="none" xmlns="http://www.w3.org/2000/svg">
<path d="M4.9395 25.1761L4.90749 2.76171L7.36256 5.20812L0.00785393 5.22358L0.00135289 0.670662L10.5781 0.648435L10.6131 25.1642L4.9395 25.1761ZM14.6618 25.1556L14.6565 21.4783L24.0998 12.5277C24.846 11.849 25.3938 11.2408 25.7433 10.7031C26.0927 10.1653 26.3255 9.67451 26.4416 9.23065C26.5811 8.78674 26.6505 8.37799 26.65 8.00442C26.6486 7.02379 26.309 6.27736 25.6312 5.76512C24.9766 5.22948 24.0073 4.96301 22.7231 4.96571C21.6958 4.96787 20.7388 5.16834 19.8522 5.56713C18.9888 5.96586 18.2543 6.58614 17.6484 7.42795L13.512 4.77493C14.4439 3.37207 15.7498 2.26028 17.4297 1.43956C19.1096 0.618833 21.0469 0.206165 23.2417 0.201553C25.0628 0.197726 26.651 0.497917 28.006 1.10213C29.3844 1.68294 30.4479 2.50957 31.1966 3.58202C31.9686 4.65443 32.3557 5.93777 32.3579 7.43207C32.359 8.22591 32.2551 9.01997 32.0461 9.81425C31.8604 10.5851 31.4646 11.4032 30.8588 12.2683C30.2763 13.1334 29.4138 14.1042 28.2713 15.1806L20.4368 22.5869L19.3482 20.5228L33.182 20.4937L33.1886 25.1167L14.6618 25.1556ZM43.8656 25.5145C42.1612 25.5181 40.4681 25.2999 38.7864 24.8598C37.128 24.3963 35.7028 23.7455 34.5109 22.9075L36.7461 18.56C37.681 19.2352 38.7558 19.7699 39.9705 20.1643C41.2085 20.5586 42.4579 20.7544 43.7187 20.7518C45.1429 20.7488 46.2633 20.4663 47.0797 19.9042C47.896 19.3421 48.3035 18.5591 48.3021 17.5551C48.3012 16.9247 48.1369 16.3647 47.8094 15.8751C47.4818 15.3854 46.8976 15.0131 46.0566 14.758C45.2391 14.5029 44.0832 14.3769 42.5889 14.3801L36.3199 14.3932L37.561 0.59173L52.5155 0.560303L52.522 5.11322L39.5988 5.14038L42.537 2.54254L41.6754 12.3857L38.7299 9.80021L43.9132 9.78932C46.3414 9.78421 48.2915 10.1187 49.7634 10.7927C51.2586 11.4433 52.3456 12.3399 53.0243 13.4826C53.703 14.6252 54.0434 15.9203 54.0455 17.3679C54.0476 18.8155 53.6876 20.1588 52.9656 21.3978C52.2435 22.6134 51.1242 23.6081 49.6077 24.3818C48.1144 25.132 46.2004 25.5096 43.8656 25.5145ZM67.8179 25.0439L67.7829 0.528219L72.4759 0.518357L82.9372 17.7975L80.4506 17.8027L90.6875 0.480085L95.3455 0.470296L95.4505 24.9859L90.1271 24.9971L90.0688 8.64164L91.0494 8.63958L82.8738 22.4206L80.3172 22.426L71.9271 8.67977L73.1179 8.67726L73.1413 25.0328L67.8179 25.0439ZM101.267 24.9736L101.232 0.457925L106.906 0.446002L106.934 20.3388L119.227 20.3129L119.233 24.9359L101.267 24.9736Z" fill="black"/>
</svg>
