<svg width="110" height="27" viewBox="0 0 110 27" fill="none" xmlns="http://www.w3.org/2000/svg">
<path d="M4.94086 26.2067L4.90886 3.79234L7.36393 6.23876L0.00921893 6.25422L0.0027179 1.7013L10.5795 1.67907L10.6145 26.1948L4.94086 26.2067ZM14.6631 26.1863L14.6579 22.5089L24.1012 13.5583C24.8474 12.8797 25.3952 12.2714 25.7446 11.7337C26.0941 11.196 26.3269 10.7052 26.443 10.2613C26.5824 9.81738 26.6519 9.40863 26.6514 9.03506C26.65 8.05443 26.3104 7.308 25.6325 6.79576C24.978 6.26012 24.0087 5.99365 22.7245 5.99635C21.6972 5.99851 20.7402 6.19898 19.8535 6.59777C18.9902 6.9965 18.2556 7.61678 17.6498 8.45859L13.5133 5.80557C14.4452 4.40271 15.7512 3.29092 17.4311 2.47019C19.111 1.64947 21.0483 1.2368 23.243 1.23219C25.0642 1.22837 26.6523 1.52856 28.0074 2.13277C29.3858 2.71358 30.4493 3.54021 31.198 4.61266C31.97 5.68507 32.3571 6.96841 32.3592 8.4627C32.3604 9.25655 32.2564 10.0506 32.0474 10.8449C31.8617 11.6158 31.466 12.4338 30.8602 13.299C30.2777 14.1641 29.4152 15.1349 28.2727 16.2113L20.4382 23.6175L19.3495 21.5535L33.1834 21.5244L33.19 26.1474L14.6631 26.1863ZM43.867 26.5452C42.1625 26.5488 40.4695 26.3305 38.7878 25.8904C37.1294 25.4269 35.7042 24.7762 34.5122 23.9382L36.7475 19.5907C37.6824 20.2658 38.7571 20.8005 39.9718 21.1949C41.2098 21.5892 42.4593 21.7851 43.7201 21.7824C45.1443 21.7794 46.2646 21.4969 47.081 20.9348C47.8974 20.3727 48.3049 19.5897 48.3034 18.5857C48.3025 17.9553 48.1383 17.3953 47.8107 16.9057C47.4832 16.4161 46.8989 16.0437 46.058 15.7887C45.2405 15.5335 44.0845 15.4076 42.5902 15.4107L36.3212 15.4239L37.5623 1.62237L52.5169 1.59094L52.5234 6.14386L39.6001 6.17102L42.5383 3.57318L41.6768 13.4163L38.7312 10.8308L43.9145 10.82C46.3428 10.8149 48.2928 11.1493 49.7647 11.8233C51.26 12.4739 52.3469 13.3706 53.0257 14.5132C53.7044 15.6558 54.0448 16.951 54.0469 18.3986C54.0489 19.8462 53.689 21.1894 52.9669 22.4284C52.2449 23.6441 51.1256 24.6387 49.609 25.4124C48.1158 26.1627 46.2018 26.5403 43.867 26.5452ZM91.5371 6.90242C93.0314 6.89928 94.351 7.20003 95.4959 7.80468C96.6642 8.38594 97.5761 9.29461 98.2316 10.5307C98.9104 11.7434 99.2512 13.307 99.2539 15.2216L99.2693 26.0085L93.8059 26.02L93.7917 16.0736C93.7895 14.556 93.4727 13.4359 92.8412 12.7134C92.2098 11.9909 91.3221 11.6309 90.178 11.6333C89.3841 11.635 88.6723 11.8233 88.0424 12.1982C87.4125 12.5497 86.923 13.0878 86.5738 13.8123C86.2246 14.5368 86.0508 15.4595 86.0524 16.5802L86.0659 26.0362L80.6024 26.0477L80.5882 16.1013C80.586 14.5837 80.2692 13.4636 79.6378 12.7412C79.0297 12.0186 78.1536 11.6586 77.0096 11.661C76.2157 11.6627 75.5039 11.8509 74.874 12.2258C74.2441 12.5774 73.7545 13.1154 73.4054 13.84C73.0562 14.5645 72.8824 15.4871 72.884 16.6078L72.8975 26.0639L67.434 26.0754L67.4071 7.23331L72.6254 7.22234L72.6328 12.3706L71.65 10.8667C72.3019 9.58121 73.2228 8.61031 74.4126 7.95406C75.6257 7.27441 77.0028 6.93296 78.5438 6.92972C80.2716 6.92609 81.7782 7.36654 83.0636 8.25108C84.3723 9.11222 85.2381 10.4413 85.6609 12.2382L83.734 11.7169C84.3623 10.2446 85.3646 9.07511 86.7409 8.20833C88.1406 7.3415 89.7393 6.9062 91.5371 6.90242ZM104.166 25.9982L104.129 0.0115317L109.593 5.01518e-05L109.63 25.9867L104.166 25.9982Z" fill="black"/>
</svg>
