<svg width="399" height="52" viewBox="0 0 399 52" fill="none" xmlns="http://www.w3.org/2000/svg">
<path d="M9.06119 17.128C8.20785 17.128 7.39185 17 6.61319 16.744C5.83452 16.4773 5.22119 16.136 4.77319 15.72L5.36519 14.472C5.79185 14.8453 6.33585 15.1547 6.99719 15.4C7.65852 15.6453 8.34652 15.768 9.06119 15.768C9.71185 15.768 10.2399 15.6933 10.6452 15.544C11.0505 15.3947 11.3492 15.192 11.5412 14.936C11.7332 14.6693 11.8292 14.3707 11.8292 14.04C11.8292 13.656 11.7012 13.3467 11.4452 13.112C11.1999 12.8773 10.8745 12.6907 10.4692 12.552C10.0745 12.4027 9.63719 12.2747 9.15719 12.168C8.67719 12.0613 8.19185 11.9387 7.70119 11.8C7.22119 11.6507 6.77852 11.464 6.37319 11.24C5.97852 11.016 5.65852 10.7173 5.41319 10.344C5.16785 9.96 5.04519 9.46933 5.04519 8.872C5.04519 8.296 5.19452 7.768 5.49319 7.288C5.80252 6.79733 6.27185 6.408 6.90119 6.12C7.54119 5.82133 8.35185 5.672 9.33319 5.672C9.98385 5.672 10.6292 5.75733 11.2692 5.928C11.9092 6.09867 12.4639 6.344 12.9332 6.664L12.4052 7.944C11.9252 7.624 11.4185 7.39467 10.8852 7.256C10.3519 7.10667 9.83452 7.032 9.33319 7.032C8.70385 7.032 8.18652 7.112 7.78119 7.272C7.37585 7.432 7.07719 7.64533 6.88519 7.912C6.70385 8.17867 6.61319 8.47733 6.61319 8.808C6.61319 9.20267 6.73585 9.51733 6.98119 9.752C7.23719 9.98667 7.56252 10.1733 7.95719 10.312C8.36252 10.4507 8.80519 10.5787 9.28519 10.696C9.76519 10.8027 10.2452 10.9253 10.7252 11.064C11.2159 11.2027 11.6585 11.384 12.0532 11.608C12.4585 11.832 12.7839 12.1307 13.0292 12.504C13.2745 12.8773 13.3972 13.3573 13.3972 13.944C13.3972 14.5093 13.2425 15.0373 12.9332 15.528C12.6239 16.008 12.1439 16.3973 11.4932 16.696C10.8532 16.984 10.0425 17.128 9.06119 17.128ZM20.0067 17.096C19.3027 17.096 18.6574 16.936 18.0707 16.616C17.4947 16.2853 17.0307 15.8 16.6787 15.16C16.3374 14.52 16.1667 13.72 16.1667 12.76C16.1667 11.8 16.332 11 16.6627 10.36C17.004 9.72 17.4627 9.24 18.0387 8.92C18.6254 8.6 19.2814 8.44 20.0067 8.44C20.8387 8.44 21.5747 8.62133 22.2147 8.984C22.8547 9.34667 23.3614 9.85333 23.7347 10.504C24.108 11.144 24.2947 11.896 24.2947 12.76C24.2947 13.624 24.108 14.3813 23.7347 15.032C23.3614 15.6827 22.8547 16.1893 22.2147 16.552C21.5747 16.9147 20.8387 17.096 20.0067 17.096ZM15.5107 20.104V8.52H16.9827V10.808L16.8867 12.776L17.0467 14.744V20.104H15.5107ZM19.8787 15.752C20.4227 15.752 20.908 15.6293 21.3347 15.384C21.772 15.1387 22.1134 14.792 22.3587 14.344C22.6147 13.8853 22.7427 13.3573 22.7427 12.76C22.7427 12.152 22.6147 11.6293 22.3587 11.192C22.1134 10.744 21.772 10.3973 21.3347 10.152C20.908 9.90667 20.4227 9.784 19.8787 9.784C19.3454 9.784 18.86 9.90667 18.4227 10.152C17.996 10.3973 17.6547 10.744 17.3987 11.192C17.1534 11.6293 17.0307 12.152 17.0307 12.76C17.0307 13.3573 17.1534 13.8853 17.3987 14.344C17.6547 14.792 17.996 15.1387 18.4227 15.384C18.86 15.6293 19.3454 15.752 19.8787 15.752ZM31.6028 17V15.208L31.5228 14.872V11.816C31.5228 11.1653 31.3308 10.664 30.9468 10.312C30.5735 9.94933 30.0081 9.768 29.2508 9.768C28.7495 9.768 28.2588 9.85333 27.7788 10.024C27.2988 10.184 26.8935 10.4027 26.5628 10.68L25.9228 9.528C26.3601 9.176 26.8828 8.90933 27.4908 8.728C28.1095 8.536 28.7548 8.44 29.4268 8.44C30.5895 8.44 31.4855 8.72267 32.1148 9.288C32.7441 9.85333 33.0588 10.7173 33.0588 11.88V17H31.6028ZM28.8188 17.096C28.1895 17.096 27.6348 16.9893 27.1548 16.776C26.6855 16.5627 26.3228 16.2693 26.0668 15.896C25.8108 15.512 25.6828 15.08 25.6828 14.6C25.6828 14.1413 25.7895 13.7253 26.0028 13.352C26.2268 12.9787 26.5841 12.68 27.0748 12.456C27.5761 12.232 28.2481 12.12 29.0908 12.12H31.7788V13.224H29.1548C28.3868 13.224 27.8695 13.352 27.6028 13.608C27.3361 13.864 27.2028 14.1733 27.2028 14.536C27.2028 14.952 27.3681 15.288 27.6988 15.544C28.0295 15.7893 28.4881 15.912 29.0748 15.912C29.6508 15.912 30.1521 15.784 30.5788 15.528C31.0161 15.272 31.3308 14.8987 31.5228 14.408L31.8268 15.464C31.6241 15.9653 31.2668 16.3653 30.7548 16.664C30.2428 16.952 29.5975 17.096 28.8188 17.096ZM39.5973 17.096C38.7333 17.096 37.96 16.9093 37.2773 16.536C36.6053 16.1627 36.0773 15.6507 35.6933 15C35.3093 14.3493 35.1173 13.6027 35.1173 12.76C35.1173 11.9173 35.3093 11.1707 35.6933 10.52C36.0773 9.86933 36.6053 9.36267 37.2773 9C37.96 8.62667 38.7333 8.44 39.5973 8.44C40.3653 8.44 41.048 8.59467 41.6453 8.904C42.2533 9.20267 42.7226 9.65067 43.0533 10.248L41.8853 11C41.608 10.584 41.2666 10.28 40.8613 10.088C40.4666 9.88533 40.04 9.784 39.5813 9.784C39.0266 9.784 38.5306 9.90667 38.0933 10.152C37.656 10.3973 37.3093 10.744 37.0533 11.192C36.7973 11.6293 36.6693 12.152 36.6693 12.76C36.6693 13.368 36.7973 13.896 37.0533 14.344C37.3093 14.792 37.656 15.1387 38.0933 15.384C38.5306 15.6293 39.0266 15.752 39.5813 15.752C40.04 15.752 40.4666 15.656 40.8613 15.464C41.2666 15.2613 41.608 14.952 41.8853 14.536L43.0533 15.272C42.7226 15.8587 42.2533 16.312 41.6453 16.632C41.048 16.9413 40.3653 17.096 39.5973 17.096ZM44.9326 17V8.52H46.4686V17H44.9326ZM45.7006 6.888C45.4019 6.888 45.1512 6.792 44.9486 6.6C44.7566 6.408 44.6606 6.17333 44.6606 5.896C44.6606 5.608 44.7566 5.368 44.9486 5.176C45.1512 4.984 45.4019 4.888 45.7006 4.888C45.9992 4.888 46.2446 4.984 46.4366 5.176C46.6392 5.35733 46.7406 5.58667 46.7406 5.864C46.7406 6.152 46.6446 6.39733 46.4526 6.6C46.2606 6.792 46.0099 6.888 45.7006 6.888ZM53.0333 17.096C52.18 17.096 51.4226 16.9093 50.7613 16.536C50.1 16.1627 49.5773 15.6507 49.1933 15C48.8093 14.3387 48.6173 13.592 48.6173 12.76C48.6173 11.9173 48.8093 11.1707 49.1933 10.52C49.5773 9.86933 50.1 9.36267 50.7613 9C51.4226 8.62667 52.18 8.44 53.0333 8.44C53.876 8.44 54.628 8.62667 55.2893 9C55.9613 9.36267 56.484 9.86933 56.8573 10.52C57.2413 11.16 57.4333 11.9067 57.4333 12.76C57.4333 13.6027 57.2413 14.3493 56.8573 15C56.484 15.6507 55.9613 16.1627 55.2893 16.536C54.628 16.9093 53.876 17.096 53.0333 17.096ZM53.0333 15.752C53.5773 15.752 54.0626 15.6293 54.4893 15.384C54.9266 15.1387 55.268 14.792 55.5133 14.344C55.7586 13.8853 55.8813 13.3573 55.8813 12.76C55.8813 12.152 55.7586 11.6293 55.5133 11.192C55.268 10.744 54.9266 10.3973 54.4893 10.152C54.0626 9.90667 53.5773 9.784 53.0333 9.784C52.4893 9.784 52.004 9.90667 51.5773 10.152C51.1506 10.3973 50.8093 10.744 50.5533 11.192C50.2973 11.6293 50.1693 12.152 50.1693 12.76C50.1693 13.3573 50.2973 13.8853 50.5533 14.344C50.8093 14.792 51.1506 15.1387 51.5773 15.384C52.004 15.6293 52.4893 15.752 53.0333 15.752ZM63.1256 17.096C62.4002 17.096 61.7602 16.9627 61.2056 16.696C60.6616 16.4293 60.2349 16.024 59.9256 15.48C59.6269 14.9253 59.4776 14.232 59.4776 13.4V8.52H61.0136V13.224C61.0136 14.056 61.2109 14.68 61.6056 15.096C62.0109 15.512 62.5762 15.72 63.3016 15.72C63.8349 15.72 64.2989 15.6133 64.6936 15.4C65.0882 15.176 65.3922 14.856 65.6056 14.44C65.8189 14.0133 65.9256 13.5013 65.9256 12.904V8.52H67.4616V17H66.0056V14.712L66.2456 15.32C65.9682 15.8853 65.5522 16.3227 64.9976 16.632C64.4429 16.9413 63.8189 17.096 63.1256 17.096ZM72.8177 17.096C72.1137 17.096 71.4417 17 70.8017 16.808C70.1724 16.616 69.6764 16.3813 69.3137 16.104L69.9537 14.888C70.3164 15.1333 70.7644 15.3413 71.2977 15.512C71.831 15.6827 72.375 15.768 72.9297 15.768C73.6444 15.768 74.1564 15.6667 74.4657 15.464C74.7857 15.2613 74.9457 14.9787 74.9457 14.616C74.9457 14.3493 74.8497 14.1413 74.6577 13.992C74.4657 13.8427 74.2097 13.7307 73.8897 13.656C73.5804 13.5813 73.2337 13.5173 72.8497 13.464C72.4657 13.4 72.0817 13.3253 71.6977 13.24C71.3137 13.144 70.9617 13.016 70.6417 12.856C70.3217 12.6853 70.0657 12.456 69.8737 12.168C69.6817 11.8693 69.5857 11.4747 69.5857 10.984C69.5857 10.472 69.7297 10.024 70.0177 9.64C70.3057 9.256 70.711 8.96267 71.2337 8.76C71.767 8.54667 72.3964 8.44 73.1217 8.44C73.6764 8.44 74.2364 8.50933 74.8017 8.648C75.3777 8.776 75.847 8.96267 76.2097 9.208L75.5537 10.424C75.1697 10.168 74.7697 9.992 74.3537 9.896C73.9377 9.8 73.5217 9.752 73.1057 9.752C72.4337 9.752 71.9324 9.864 71.6017 10.088C71.271 10.3013 71.1057 10.5787 71.1057 10.92C71.1057 11.208 71.2017 11.432 71.3937 11.592C71.5964 11.7413 71.8524 11.8587 72.1617 11.944C72.4817 12.0293 72.8337 12.104 73.2177 12.168C73.6017 12.2213 73.9857 12.296 74.3697 12.392C74.7537 12.4773 75.1004 12.6 75.4097 12.76C75.7297 12.92 75.9857 13.144 76.1777 13.432C76.3804 13.72 76.4817 14.104 76.4817 14.584C76.4817 15.096 76.3324 15.5387 76.0337 15.912C75.735 16.2853 75.3137 16.5787 74.7697 16.792C74.2257 16.9947 73.575 17.096 72.8177 17.096ZM87.9622 17V15.208L87.8822 14.872V11.816C87.8822 11.1653 87.6902 10.664 87.3062 10.312C86.9329 9.94933 86.3675 9.768 85.6102 9.768C85.1089 9.768 84.6182 9.85333 84.1382 10.024C83.6582 10.184 83.2529 10.4027 82.9222 10.68L82.2822 9.528C82.7195 9.176 83.2422 8.90933 83.8502 8.728C84.4689 8.536 85.1142 8.44 85.7862 8.44C86.9489 8.44 87.8449 8.72267 88.4742 9.288C89.1035 9.85333 89.4182 10.7173 89.4182 11.88V17H87.9622ZM85.1782 17.096C84.5489 17.096 83.9942 16.9893 83.5142 16.776C83.0449 16.5627 82.6822 16.2693 82.4262 15.896C82.1702 15.512 82.0422 15.08 82.0422 14.6C82.0422 14.1413 82.1489 13.7253 82.3622 13.352C82.5862 12.9787 82.9435 12.68 83.4342 12.456C83.9355 12.232 84.6075 12.12 85.4502 12.12H88.1382V13.224H85.5142C84.7462 13.224 84.2289 13.352 83.9622 13.608C83.6955 13.864 83.5622 14.1733 83.5622 14.536C83.5622 14.952 83.7275 15.288 84.0582 15.544C84.3889 15.7893 84.8475 15.912 85.4342 15.912C86.0102 15.912 86.5115 15.784 86.9382 15.528C87.3755 15.272 87.6902 14.8987 87.8822 14.408L88.1862 15.464C87.9835 15.9653 87.6262 16.3653 87.1142 16.664C86.6022 16.952 85.9569 17.096 85.1782 17.096ZM96.7887 8.44C97.482 8.44 98.09 8.57333 98.6127 8.84C99.146 9.10667 99.562 9.512 99.8607 10.056C100.159 10.6 100.309 11.288 100.309 12.12V17H98.7727V12.296C98.7727 11.4747 98.57 10.856 98.1647 10.44C97.77 10.024 97.21 9.816 96.4847 9.816C95.9407 9.816 95.466 9.92267 95.0607 10.136C94.6554 10.3493 94.3407 10.664 94.1167 11.08C93.9034 11.496 93.7967 12.0133 93.7967 12.632V17H92.2607V8.52H93.7327V10.808L93.4927 10.2C93.77 9.64533 94.1967 9.21333 94.7727 8.904C95.3487 8.59467 96.0207 8.44 96.7887 8.44ZM106.655 17.096C105.834 17.096 105.098 16.9147 104.447 16.552C103.807 16.1893 103.301 15.6827 102.927 15.032C102.554 14.3813 102.367 13.624 102.367 12.76C102.367 11.896 102.554 11.144 102.927 10.504C103.301 9.85333 103.807 9.34667 104.447 8.984C105.098 8.62133 105.834 8.44 106.655 8.44C107.37 8.44 108.015 8.6 108.591 8.92C109.167 9.24 109.626 9.72 109.967 10.36C110.319 11 110.495 11.8 110.495 12.76C110.495 13.72 110.325 14.52 109.983 15.16C109.653 15.8 109.199 16.2853 108.623 16.616C108.047 16.936 107.391 17.096 106.655 17.096ZM106.783 15.752C107.317 15.752 107.797 15.6293 108.223 15.384C108.661 15.1387 109.002 14.792 109.247 14.344C109.503 13.8853 109.631 13.3573 109.631 12.76C109.631 12.152 109.503 11.6293 109.247 11.192C109.002 10.744 108.661 10.3973 108.223 10.152C107.797 9.90667 107.317 9.784 106.783 9.784C106.239 9.784 105.754 9.90667 105.327 10.152C104.901 10.3973 104.559 10.744 104.303 11.192C104.047 11.6293 103.919 12.152 103.919 12.76C103.919 13.3573 104.047 13.8853 104.303 14.344C104.559 14.792 104.901 15.1387 105.327 15.384C105.754 15.6293 106.239 15.752 106.783 15.752ZM109.679 17V14.712L109.775 12.744L109.615 10.776V5.128H111.151V17H109.679ZM120.786 17.096C120.082 17.096 119.41 17 118.77 16.808C118.141 16.616 117.645 16.3813 117.282 16.104L117.922 14.888C118.285 15.1333 118.733 15.3413 119.266 15.512C119.8 15.6827 120.344 15.768 120.898 15.768C121.613 15.768 122.125 15.6667 122.434 15.464C122.754 15.2613 122.914 14.9787 122.914 14.616C122.914 14.3493 122.818 14.1413 122.626 13.992C122.434 13.8427 122.178 13.7307 121.858 13.656C121.549 13.5813 121.202 13.5173 120.818 13.464C120.434 13.4 120.05 13.3253 119.666 13.24C119.282 13.144 118.93 13.016 118.61 12.856C118.29 12.6853 118.034 12.456 117.842 12.168C117.65 11.8693 117.554 11.4747 117.554 10.984C117.554 10.472 117.698 10.024 117.986 9.64C118.274 9.256 118.68 8.96267 119.202 8.76C119.736 8.54667 120.365 8.44 121.09 8.44C121.645 8.44 122.205 8.50933 122.77 8.648C123.346 8.776 123.816 8.96267 124.178 9.208L123.522 10.424C123.138 10.168 122.738 9.992 122.322 9.896C121.906 9.8 121.49 9.752 121.074 9.752C120.402 9.752 119.901 9.864 119.57 10.088C119.24 10.3013 119.074 10.5787 119.074 10.92C119.074 11.208 119.17 11.432 119.362 11.592C119.565 11.7413 119.821 11.8587 120.13 11.944C120.45 12.0293 120.802 12.104 121.186 12.168C121.57 12.2213 121.954 12.296 122.338 12.392C122.722 12.4773 123.069 12.6 123.378 12.76C123.698 12.92 123.954 13.144 124.146 13.432C124.349 13.72 124.45 14.104 124.45 14.584C124.45 15.096 124.301 15.5387 124.002 15.912C123.704 16.2853 123.282 16.5787 122.738 16.792C122.194 16.9947 121.544 17.096 120.786 17.096ZM129.282 17.096C128.429 17.096 127.767 16.8667 127.298 16.408C126.829 15.9493 126.594 15.2933 126.594 14.44V6.664H128.13V14.376C128.13 14.8347 128.242 15.1867 128.466 15.432C128.701 15.6773 129.031 15.8 129.458 15.8C129.938 15.8 130.338 15.6667 130.658 15.4L131.138 16.504C130.903 16.7067 130.621 16.856 130.29 16.952C129.97 17.048 129.634 17.096 129.282 17.096ZM125.154 9.784V8.52H130.562V9.784H125.154ZM136.563 17.096C135.838 17.096 135.198 16.9627 134.643 16.696C134.099 16.4293 133.672 16.024 133.363 15.48C133.064 14.9253 132.915 14.232 132.915 13.4V8.52H134.451V13.224C134.451 14.056 134.648 14.68 135.043 15.096C135.448 15.512 136.014 15.72 136.739 15.72C137.272 15.72 137.736 15.6133 138.131 15.4C138.526 15.176 138.83 14.856 139.043 14.44C139.256 14.0133 139.363 13.5013 139.363 12.904V8.52H140.899V17H139.443V14.712L139.683 15.32C139.406 15.8853 138.99 16.3227 138.435 16.632C137.88 16.9413 137.256 17.096 136.563 17.096ZM143.823 17V8.52H145.295V10.824L145.151 10.248C145.386 9.66133 145.781 9.21333 146.335 8.904C146.89 8.59467 147.573 8.44 148.383 8.44V9.928C148.319 9.91733 148.255 9.912 148.191 9.912C148.138 9.912 148.085 9.912 148.031 9.912C147.21 9.912 146.559 10.1573 146.079 10.648C145.599 11.1387 145.359 11.848 145.359 12.776V17H143.823ZM153.702 17.096C152.881 17.096 152.145 16.9147 151.494 16.552C150.854 16.1893 150.348 15.6827 149.974 15.032C149.601 14.3813 149.414 13.624 149.414 12.76C149.414 11.896 149.601 11.144 149.974 10.504C150.348 9.85333 150.854 9.34667 151.494 8.984C152.145 8.62133 152.881 8.44 153.702 8.44C154.417 8.44 155.062 8.6 155.638 8.92C156.214 9.24 156.673 9.72 157.014 10.36C157.366 11 157.542 11.8 157.542 12.76C157.542 13.72 157.372 14.52 157.03 15.16C156.7 15.8 156.246 16.2853 155.67 16.616C155.094 16.936 154.438 17.096 153.702 17.096ZM153.83 15.752C154.364 15.752 154.844 15.6293 155.27 15.384C155.708 15.1387 156.049 14.792 156.294 14.344C156.55 13.8853 156.678 13.3573 156.678 12.76C156.678 12.152 156.55 11.6293 156.294 11.192C156.049 10.744 155.708 10.3973 155.27 10.152C154.844 9.90667 154.364 9.784 153.83 9.784C153.286 9.784 152.801 9.90667 152.374 10.152C151.948 10.3973 151.606 10.744 151.35 11.192C151.094 11.6293 150.966 12.152 150.966 12.76C150.966 13.3573 151.094 13.8853 151.35 14.344C151.606 14.792 151.948 15.1387 152.374 15.384C152.801 15.6293 153.286 15.752 153.83 15.752ZM156.726 17V14.712L156.822 12.744L156.662 10.776V5.128H158.198V17H156.726ZM161.472 20.2C161.067 20.2 160.672 20.1307 160.288 19.992C159.904 19.864 159.574 19.672 159.296 19.416L159.952 18.264C160.166 18.4667 160.4 18.6213 160.656 18.728C160.912 18.8347 161.184 18.888 161.472 18.888C161.846 18.888 162.155 18.792 162.4 18.6C162.646 18.408 162.875 18.0667 163.088 17.576L163.616 16.408L163.776 16.216L167.104 8.52H168.608L164.496 17.848C164.251 18.4453 163.974 18.9147 163.664 19.256C163.366 19.5973 163.035 19.8373 162.672 19.976C162.31 20.1253 161.91 20.2 161.472 20.2ZM163.488 17.272L159.616 8.52H161.216L164.512 16.072L163.488 17.272ZM174.707 17V5.8H175.891V17H174.707ZM179.535 17V5.8H180.511L185.631 14.536H185.119L190.191 5.8H191.167V17H190.031V7.576H190.303L185.631 15.576H185.071L180.367 7.576H180.671V17H179.535ZM194.816 17V5.8H196V15.976H202.272V17H194.816ZM208.426 17V5.8H212.618C213.567 5.8 214.383 5.95467 215.066 6.264C215.748 6.56267 216.271 7 216.634 7.576C217.007 8.14133 217.194 8.82933 217.194 9.64C217.194 10.4293 217.007 11.112 216.634 11.688C216.271 12.2533 215.748 12.6907 215.066 13C214.383 13.2987 213.567 13.448 212.618 13.448H209.082L209.61 12.904V17H208.426ZM216.074 17L213.194 12.936H214.474L217.37 17H216.074ZM209.61 13L209.082 12.44H212.586C213.706 12.44 214.554 12.1947 215.13 11.704C215.716 11.2133 216.01 10.5253 216.01 9.64C216.01 8.744 215.716 8.05067 215.13 7.56C214.554 7.06933 213.706 6.824 212.586 6.824H209.082L209.61 6.264V13ZM223.172 17.08C222.361 17.08 221.631 16.8987 220.98 16.536C220.34 16.1627 219.833 15.656 219.46 15.016C219.087 14.3653 218.9 13.624 218.9 12.792C218.9 11.9493 219.087 11.208 219.46 10.568C219.833 9.928 220.34 9.42667 220.98 9.064C221.62 8.70133 222.351 8.52 223.172 8.52C224.004 8.52 224.74 8.70133 225.38 9.064C226.031 9.42667 226.537 9.928 226.9 10.568C227.273 11.208 227.46 11.9493 227.46 12.792C227.46 13.624 227.273 14.3653 226.9 15.016C226.537 15.656 226.031 16.1627 225.38 16.536C224.729 16.8987 223.993 17.08 223.172 17.08ZM223.172 16.072C223.78 16.072 224.319 15.9387 224.788 15.672C225.257 15.3947 225.625 15.0107 225.892 14.52C226.169 14.0187 226.308 13.4427 226.308 12.792C226.308 12.1307 226.169 11.5547 225.892 11.064C225.625 10.5733 225.257 10.1947 224.788 9.928C224.319 9.65067 223.785 9.512 223.188 9.512C222.591 9.512 222.057 9.65067 221.588 9.928C221.119 10.1947 220.745 10.5733 220.468 11.064C220.191 11.5547 220.052 12.1307 220.052 12.792C220.052 13.4427 220.191 14.0187 220.468 14.52C220.745 15.0107 221.119 15.3947 221.588 15.672C222.057 15.9387 222.585 16.072 223.172 16.072ZM233.251 17.08C232.537 17.08 231.913 16.9467 231.379 16.68C230.846 16.4133 230.43 16.0133 230.131 15.48C229.843 14.9467 229.699 14.28 229.699 13.48V8.6H230.835V13.352C230.835 14.248 231.054 14.9253 231.491 15.384C231.939 15.832 232.563 16.056 233.363 16.056C233.95 16.056 234.457 15.9387 234.883 15.704C235.321 15.4587 235.651 15.1067 235.875 14.648C236.11 14.1893 236.227 13.64 236.227 13V8.6H237.363V17H236.275V14.696L236.451 15.112C236.185 15.7307 235.769 16.216 235.203 16.568C234.649 16.9093 233.998 17.08 233.251 17.08ZM244.817 8.52C245.5 8.52 246.097 8.65333 246.609 8.92C247.132 9.176 247.537 9.57067 247.825 10.104C248.124 10.6373 248.273 11.3093 248.273 12.12V17H247.137V12.232C247.137 11.3467 246.913 10.68 246.465 10.232C246.028 9.77333 245.409 9.544 244.609 9.544C244.012 9.544 243.489 9.66667 243.041 9.912C242.604 10.1467 242.263 10.4933 242.017 10.952C241.783 11.4 241.665 11.944 241.665 12.584V17H240.529V8.6H241.617V10.904L241.441 10.472C241.708 9.864 242.135 9.38933 242.721 9.048C243.308 8.696 244.007 8.52 244.817 8.52ZM254.686 17.08C253.886 17.08 253.166 16.8987 252.526 16.536C251.896 16.1733 251.4 15.672 251.038 15.032C250.675 14.3813 250.494 13.6347 250.494 12.792C250.494 11.9387 250.675 11.192 251.038 10.552C251.4 9.912 251.896 9.416 252.526 9.064C253.166 8.70133 253.886 8.52 254.686 8.52C255.422 8.52 256.078 8.68533 256.654 9.016C257.24 9.34667 257.704 9.832 258.046 10.472C258.398 11.1013 258.574 11.8747 258.574 12.792C258.574 13.6987 258.403 14.472 258.062 15.112C257.72 15.752 257.256 16.2427 256.67 16.584C256.094 16.9147 255.432 17.08 254.686 17.08ZM254.766 16.072C255.363 16.072 255.896 15.9387 256.366 15.672C256.846 15.3947 257.219 15.0107 257.486 14.52C257.763 14.0187 257.902 13.4427 257.902 12.792C257.902 12.1307 257.763 11.5547 257.486 11.064C257.219 10.5733 256.846 10.1947 256.366 9.928C255.896 9.65067 255.363 9.512 254.766 9.512C254.179 9.512 253.651 9.65067 253.182 9.928C252.712 10.1947 252.339 10.5733 252.062 11.064C251.784 11.5547 251.646 12.1307 251.646 12.792C251.646 13.4427 251.784 14.0187 252.062 14.52C252.339 15.0107 252.712 15.3947 253.182 15.672C253.651 15.9387 254.179 16.072 254.766 16.072ZM257.934 17V14.472L258.046 12.776L257.886 11.08V5.128H259.022V17H257.934ZM269.861 17.08C269.029 17.08 268.282 16.8987 267.621 16.536C266.97 16.1627 266.458 15.656 266.085 15.016C265.712 14.3653 265.525 13.624 265.525 12.792C265.525 11.9493 265.712 11.208 266.085 10.568C266.458 9.928 266.97 9.42667 267.621 9.064C268.282 8.70133 269.029 8.52 269.861 8.52C270.576 8.52 271.221 8.65867 271.797 8.936C272.373 9.21333 272.826 9.62933 273.157 10.184L272.309 10.76C272.021 10.3333 271.664 10.0187 271.237 9.816C270.81 9.61333 270.346 9.512 269.845 9.512C269.248 9.512 268.709 9.65067 268.229 9.928C267.749 10.1947 267.37 10.5733 267.093 11.064C266.816 11.5547 266.677 12.1307 266.677 12.792C266.677 13.4533 266.816 14.0293 267.093 14.52C267.37 15.0107 267.749 15.3947 268.229 15.672C268.709 15.9387 269.248 16.072 269.845 16.072C270.346 16.072 270.81 15.9707 271.237 15.768C271.664 15.5653 272.021 15.256 272.309 14.84L273.157 15.416C272.826 15.96 272.373 16.376 271.797 16.664C271.221 16.9413 270.576 17.08 269.861 17.08ZM278.861 17.08C278.146 17.08 277.522 16.9467 276.989 16.68C276.455 16.4133 276.039 16.0133 275.741 15.48C275.453 14.9467 275.309 14.28 275.309 13.48V8.6H276.445V13.352C276.445 14.248 276.663 14.9253 277.101 15.384C277.549 15.832 278.173 16.056 278.973 16.056C279.559 16.056 280.066 15.9387 280.493 15.704C280.93 15.4587 281.261 15.1067 281.485 14.648C281.719 14.1893 281.837 13.64 281.837 13V8.6H282.973V17H281.885V14.696L282.061 15.112C281.794 15.7307 281.378 16.216 280.813 16.568C280.258 16.9093 279.607 17.08 278.861 17.08ZM290.475 17.08C289.749 17.08 289.093 16.9147 288.507 16.584C287.92 16.2427 287.451 15.7573 287.099 15.128C286.757 14.488 286.587 13.7093 286.587 12.792C286.587 11.8747 286.757 11.1013 287.099 10.472C287.44 9.832 287.904 9.34667 288.491 9.016C289.077 8.68533 289.739 8.52 290.475 8.52C291.275 8.52 291.989 8.70133 292.619 9.064C293.259 9.416 293.76 9.91733 294.123 10.568C294.485 11.208 294.667 11.9493 294.667 12.792C294.667 13.6453 294.485 14.392 294.123 15.032C293.76 15.672 293.259 16.1733 292.619 16.536C291.989 16.8987 291.275 17.08 290.475 17.08ZM286.139 20.104V8.6H287.227V11.128L287.115 12.808L287.275 14.504V20.104H286.139ZM290.395 16.072C290.992 16.072 291.525 15.9387 291.995 15.672C292.464 15.3947 292.837 15.0107 293.115 14.52C293.392 14.0187 293.531 13.4427 293.531 12.792C293.531 12.1413 293.392 11.5707 293.115 11.08C292.837 10.5893 292.464 10.2053 291.995 9.928C291.525 9.65067 290.992 9.512 290.395 9.512C289.797 9.512 289.259 9.65067 288.779 9.928C288.309 10.2053 287.936 10.5893 287.659 11.08C287.392 11.5707 287.259 12.1413 287.259 12.792C287.259 13.4427 287.392 14.0187 287.659 14.52C287.936 15.0107 288.309 15.3947 288.779 15.672C289.259 15.9387 289.797 16.072 290.395 16.072ZM304.514 17.08C303.714 17.08 302.994 16.8987 302.354 16.536C301.725 16.1733 301.229 15.672 300.866 15.032C300.503 14.3813 300.322 13.6347 300.322 12.792C300.322 11.9387 300.503 11.192 300.866 10.552C301.229 9.912 301.725 9.416 302.354 9.064C302.994 8.70133 303.714 8.52 304.514 8.52C305.25 8.52 305.906 8.68533 306.482 9.016C307.069 9.34667 307.533 9.832 307.874 10.472C308.226 11.1013 308.402 11.8747 308.402 12.792C308.402 13.6987 308.231 14.472 307.89 15.112C307.549 15.752 307.085 16.2427 306.498 16.584C305.922 16.9147 305.261 17.08 304.514 17.08ZM304.594 16.072C305.191 16.072 305.725 15.9387 306.194 15.672C306.674 15.3947 307.047 15.0107 307.314 14.52C307.591 14.0187 307.73 13.4427 307.73 12.792C307.73 12.1307 307.591 11.5547 307.314 11.064C307.047 10.5733 306.674 10.1947 306.194 9.928C305.725 9.65067 305.191 9.512 304.594 9.512C304.007 9.512 303.479 9.65067 303.01 9.928C302.541 10.1947 302.167 10.5733 301.89 11.064C301.613 11.5547 301.474 12.1307 301.474 12.792C301.474 13.4427 301.613 14.0187 301.89 14.52C302.167 15.0107 302.541 15.3947 303.01 15.672C303.479 15.9387 304.007 16.072 304.594 16.072ZM307.762 17V14.472L307.874 12.776L307.714 11.08V5.128H308.85V17H307.762ZM315.582 17.08C314.707 17.08 313.939 16.8987 313.278 16.536C312.616 16.1627 312.099 15.656 311.726 15.016C311.352 14.3653 311.166 13.624 311.166 12.792C311.166 11.96 311.342 11.224 311.694 10.584C312.056 9.944 312.547 9.44267 313.166 9.08C313.795 8.70667 314.499 8.52 315.278 8.52C316.067 8.52 316.766 8.70133 317.374 9.064C317.992 9.416 318.478 9.91733 318.83 10.568C319.182 11.208 319.358 11.9493 319.358 12.792C319.358 12.8453 319.352 12.904 319.342 12.968C319.342 13.0213 319.342 13.08 319.342 13.144H312.03V12.296H318.734L318.286 12.632C318.286 12.024 318.152 11.4853 317.886 11.016C317.63 10.536 317.278 10.1627 316.83 9.896C316.382 9.62933 315.864 9.496 315.278 9.496C314.702 9.496 314.184 9.62933 313.726 9.896C313.267 10.1627 312.91 10.536 312.654 11.016C312.398 11.496 312.27 12.0453 312.27 12.664V12.84C312.27 13.48 312.408 14.0453 312.686 14.536C312.974 15.016 313.368 15.3947 313.87 15.672C314.382 15.9387 314.963 16.072 315.614 16.072C316.126 16.072 316.6 15.9813 317.038 15.8C317.486 15.6187 317.87 15.3413 318.19 14.968L318.83 15.704C318.456 16.152 317.987 16.4933 317.422 16.728C316.867 16.9627 316.254 17.08 315.582 17.08ZM323.926 17.08C323.233 17.08 322.577 16.984 321.958 16.792C321.339 16.5893 320.854 16.3387 320.502 16.04L321.014 15.144C321.355 15.4 321.793 15.624 322.326 15.816C322.859 15.9973 323.419 16.088 324.006 16.088C324.806 16.088 325.382 15.9653 325.734 15.72C326.086 15.464 326.262 15.128 326.262 14.712C326.262 14.4027 326.161 14.1627 325.958 13.992C325.766 13.8107 325.51 13.6773 325.19 13.592C324.87 13.496 324.513 13.416 324.118 13.352C323.723 13.288 323.329 13.2133 322.934 13.128C322.55 13.0427 322.198 12.92 321.878 12.76C321.558 12.5893 321.297 12.36 321.094 12.072C320.902 11.784 320.806 11.4 320.806 10.92C320.806 10.4613 320.934 10.0507 321.19 9.688C321.446 9.32533 321.819 9.04267 322.31 8.84C322.811 8.62667 323.419 8.52 324.134 8.52C324.678 8.52 325.222 8.59467 325.766 8.744C326.31 8.88267 326.758 9.06933 327.11 9.304L326.614 10.216C326.241 9.96 325.841 9.77867 325.414 9.672C324.987 9.55467 324.561 9.496 324.134 9.496C323.377 9.496 322.817 9.62933 322.454 9.896C322.102 10.152 321.926 10.4827 321.926 10.888C321.926 11.208 322.022 11.4587 322.214 11.64C322.417 11.8213 322.678 11.9653 322.998 12.072C323.329 12.168 323.686 12.248 324.07 12.312C324.465 12.376 324.854 12.456 325.238 12.552C325.633 12.6373 325.99 12.76 326.31 12.92C326.641 13.0693 326.902 13.288 327.094 13.576C327.297 13.8533 327.398 14.2213 327.398 14.68C327.398 15.1707 327.259 15.5973 326.982 15.96C326.715 16.312 326.321 16.5893 325.798 16.792C325.286 16.984 324.662 17.08 323.926 17.08ZM329.482 17V8.6H330.618V17H329.482ZM330.058 6.744C329.824 6.744 329.626 6.664 329.466 6.504C329.306 6.344 329.226 6.152 329.226 5.928C329.226 5.704 329.306 5.51733 329.466 5.368C329.626 5.208 329.824 5.128 330.058 5.128C330.293 5.128 330.49 5.20267 330.65 5.352C330.81 5.50133 330.89 5.688 330.89 5.912C330.89 6.14667 330.81 6.344 330.65 6.504C330.501 6.664 330.304 6.744 330.058 6.744ZM337.363 20.184C336.595 20.184 335.859 20.072 335.155 19.848C334.451 19.624 333.881 19.304 333.443 18.888L334.019 18.024C334.414 18.376 334.899 18.6533 335.475 18.856C336.062 19.0693 336.681 19.176 337.331 19.176C338.398 19.176 339.182 18.9253 339.683 18.424C340.185 17.9333 340.435 17.1653 340.435 16.12V14.024L340.595 12.584L340.483 11.144V8.6H341.571V15.976C341.571 17.4267 341.214 18.488 340.499 19.16C339.795 19.8427 338.75 20.184 337.363 20.184ZM337.155 16.68C336.355 16.68 335.635 16.5093 334.995 16.168C334.355 15.816 333.849 15.3307 333.475 14.712C333.113 14.0933 332.931 13.384 332.931 12.584C332.931 11.784 333.113 11.08 333.475 10.472C333.849 9.85333 334.355 9.37333 334.995 9.032C335.635 8.69067 336.355 8.52 337.155 8.52C337.902 8.52 338.574 8.67467 339.171 8.984C339.769 9.29333 340.243 9.752 340.595 10.36C340.947 10.968 341.123 11.7093 341.123 12.584C341.123 13.4587 340.947 14.2 340.595 14.808C340.243 15.416 339.769 15.88 339.171 16.2C338.574 16.52 337.902 16.68 337.155 16.68ZM337.267 15.672C337.886 15.672 338.435 15.544 338.915 15.288C339.395 15.0213 339.774 14.6587 340.051 14.2C340.329 13.7307 340.467 13.192 340.467 12.584C340.467 11.976 340.329 11.4427 340.051 10.984C339.774 10.5253 339.395 10.168 338.915 9.912C338.435 9.64533 337.886 9.512 337.267 9.512C336.659 9.512 336.11 9.64533 335.619 9.912C335.139 10.168 334.761 10.5253 334.483 10.984C334.217 11.4427 334.083 11.976 334.083 12.584C334.083 13.192 334.217 13.7307 334.483 14.2C334.761 14.6587 335.139 15.0213 335.619 15.288C336.11 15.544 336.659 15.672 337.267 15.672ZM349.02 8.52C349.703 8.52 350.3 8.65333 350.812 8.92C351.335 9.176 351.74 9.57067 352.028 10.104C352.327 10.6373 352.476 11.3093 352.476 12.12V17H351.34V12.232C351.34 11.3467 351.116 10.68 350.668 10.232C350.231 9.77333 349.612 9.544 348.812 9.544C348.215 9.544 347.692 9.66667 347.244 9.912C346.807 10.1467 346.466 10.4933 346.22 10.952C345.986 11.4 345.868 11.944 345.868 12.584V17H344.732V8.6H345.82V10.904L345.644 10.472C345.911 9.864 346.338 9.38933 346.924 9.048C347.511 8.696 348.21 8.52 349.02 8.52ZM359.113 17.08C358.238 17.08 357.47 16.8987 356.809 16.536C356.148 16.1627 355.63 15.656 355.257 15.016C354.884 14.3653 354.697 13.624 354.697 12.792C354.697 11.96 354.873 11.224 355.225 10.584C355.588 9.944 356.078 9.44267 356.697 9.08C357.326 8.70667 358.03 8.52 358.809 8.52C359.598 8.52 360.297 8.70133 360.905 9.064C361.524 9.416 362.009 9.91733 362.361 10.568C362.713 11.208 362.889 11.9493 362.889 12.792C362.889 12.8453 362.884 12.904 362.873 12.968C362.873 13.0213 362.873 13.08 362.873 13.144H355.561V12.296H362.265L361.817 12.632C361.817 12.024 361.684 11.4853 361.417 11.016C361.161 10.536 360.809 10.1627 360.361 9.896C359.913 9.62933 359.396 9.496 358.809 9.496C358.233 9.496 357.716 9.62933 357.257 9.896C356.798 10.1627 356.441 10.536 356.185 11.016C355.929 11.496 355.801 12.0453 355.801 12.664V12.84C355.801 13.48 355.94 14.0453 356.217 14.536C356.505 15.016 356.9 15.3947 357.401 15.672C357.913 15.9387 358.494 16.072 359.145 16.072C359.657 16.072 360.132 15.9813 360.569 15.8C361.017 15.6187 361.401 15.3413 361.721 14.968L362.361 15.704C361.988 16.152 361.518 16.4933 360.953 16.728C360.398 16.9627 359.785 17.08 359.113 17.08ZM368.545 17.08C367.745 17.08 367.025 16.8987 366.385 16.536C365.756 16.1733 365.26 15.672 364.897 15.032C364.535 14.3813 364.353 13.6347 364.353 12.792C364.353 11.9387 364.535 11.192 364.897 10.552C365.26 9.912 365.756 9.416 366.385 9.064C367.025 8.70133 367.745 8.52 368.545 8.52C369.281 8.52 369.937 8.68533 370.513 9.016C371.1 9.34667 371.564 9.832 371.905 10.472C372.257 11.1013 372.433 11.8747 372.433 12.792C372.433 13.6987 372.263 14.472 371.921 15.112C371.58 15.752 371.116 16.2427 370.529 16.584C369.953 16.9147 369.292 17.08 368.545 17.08ZM368.625 16.072C369.223 16.072 369.756 15.9387 370.225 15.672C370.705 15.3947 371.079 15.0107 371.345 14.52C371.623 14.0187 371.761 13.4427 371.761 12.792C371.761 12.1307 371.623 11.5547 371.345 11.064C371.079 10.5733 370.705 10.1947 370.225 9.928C369.756 9.65067 369.223 9.512 368.625 9.512C368.039 9.512 367.511 9.65067 367.041 9.928C366.572 10.1947 366.199 10.5733 365.921 11.064C365.644 11.5547 365.505 12.1307 365.505 12.792C365.505 13.4427 365.644 14.0187 365.921 14.52C366.199 15.0107 366.572 15.3947 367.041 15.672C367.511 15.9387 368.039 16.072 368.625 16.072ZM371.793 17V14.472L371.905 12.776L371.745 11.08V5.128H372.881V17H371.793ZM382.888 17.08C382.099 17.08 381.491 16.8667 381.064 16.44C380.638 16.0133 380.424 15.4107 380.424 14.632V6.744H381.56V14.568C381.56 15.0587 381.683 15.4373 381.928 15.704C382.184 15.9707 382.547 16.104 383.016 16.104C383.518 16.104 383.934 15.96 384.264 15.672L384.664 16.488C384.44 16.6907 384.168 16.84 383.848 16.936C383.539 17.032 383.219 17.08 382.888 17.08ZM378.92 9.544V8.6H384.12V9.544H378.92ZM389.86 17.08C389.049 17.08 388.318 16.8987 387.668 16.536C387.028 16.1627 386.521 15.656 386.148 15.016C385.774 14.3653 385.588 13.624 385.588 12.792C385.588 11.9493 385.774 11.208 386.148 10.568C386.521 9.928 387.028 9.42667 387.668 9.064C388.308 8.70133 389.038 8.52 389.86 8.52C390.692 8.52 391.428 8.70133 392.068 9.064C392.718 9.42667 393.225 9.928 393.588 10.568C393.961 11.208 394.148 11.9493 394.148 12.792C394.148 13.624 393.961 14.3653 393.588 15.016C393.225 15.656 392.718 16.1627 392.068 16.536C391.417 16.8987 390.681 17.08 389.86 17.08ZM389.86 16.072C390.468 16.072 391.006 15.9387 391.476 15.672C391.945 15.3947 392.313 15.0107 392.58 14.52C392.857 14.0187 392.996 13.4427 392.996 12.792C392.996 12.1307 392.857 11.5547 392.58 11.064C392.313 10.5733 391.945 10.1947 391.476 9.928C391.006 9.65067 390.473 9.512 389.876 9.512C389.278 9.512 388.745 9.65067 388.276 9.928C387.806 10.1947 387.433 10.5733 387.156 11.064C386.878 11.5547 386.74 12.1307 386.74 12.792C386.74 13.4427 386.878 14.0187 387.156 14.52C387.433 15.0107 387.806 15.3947 388.276 15.672C388.745 15.9387 389.273 16.072 389.86 16.072ZM26.2437 29.44C26.9264 29.44 27.529 29.5733 28.0517 29.84C28.5744 30.1067 28.9797 30.512 29.2677 31.056C29.5664 31.6 29.7157 32.288 29.7157 33.12V38H28.1797V33.296C28.1797 32.4747 27.9877 31.856 27.6037 31.44C27.2197 31.024 26.681 30.816 25.9877 30.816C25.4757 30.816 25.0277 30.9227 24.6437 31.136C24.2597 31.3493 23.961 31.664 23.7477 32.08C23.545 32.496 23.4437 33.0133 23.4437 33.632V38H21.9077V33.296C21.9077 32.4747 21.7157 31.856 21.3317 31.44C20.9584 31.024 20.4197 30.816 19.7157 30.816C19.2144 30.816 18.7717 30.9227 18.3877 31.136C18.0037 31.3493 17.705 31.664 17.4917 32.08C17.2784 32.496 17.1717 33.0133 17.1717 33.632V38H15.6357V29.52H17.1077V31.776L16.8677 31.2C17.1344 30.6453 17.545 30.2133 18.0997 29.904C18.6544 29.5947 19.2997 29.44 20.0357 29.44C20.8464 29.44 21.545 29.6427 22.1317 30.048C22.7184 30.4427 23.1024 31.0453 23.2837 31.856L22.6597 31.6C22.9157 30.9493 23.3637 30.4267 24.0037 30.032C24.6437 29.6373 25.3904 29.44 26.2437 29.44ZM37.8059 38V36.208L37.7259 35.872V32.816C37.7259 32.1653 37.5339 31.664 37.1499 31.312C36.7766 30.9493 36.2113 30.768 35.4539 30.768C34.9526 30.768 34.4619 30.8533 33.9819 31.024C33.5019 31.184 33.0966 31.4027 32.7659 31.68L32.1259 30.528C32.5633 30.176 33.0859 29.9093 33.6939 29.728C34.3126 29.536 34.9579 29.44 35.6299 29.44C36.7926 29.44 37.6886 29.7227 38.3179 30.288C38.9473 30.8533 39.2619 31.7173 39.2619 32.88V38H37.8059ZM35.0219 38.096C34.3926 38.096 33.8379 37.9893 33.3579 37.776C32.8886 37.5627 32.5259 37.2693 32.2699 36.896C32.0139 36.512 31.8859 36.08 31.8859 35.6C31.8859 35.1413 31.9926 34.7253 32.2059 34.352C32.4299 33.9787 32.7873 33.68 33.2779 33.456C33.7793 33.232 34.4513 33.12 35.2939 33.12H37.9819V34.224H35.3579C34.5899 34.224 34.0726 34.352 33.8059 34.608C33.5393 34.864 33.4059 35.1733 33.4059 35.536C33.4059 35.952 33.5713 36.288 33.9019 36.544C34.2326 36.7893 34.6913 36.912 35.2779 36.912C35.8539 36.912 36.3553 36.784 36.7819 36.528C37.2193 36.272 37.5339 35.8987 37.7259 35.408L38.0299 36.464C37.8273 36.9653 37.4699 37.3653 36.9579 37.664C36.4459 37.952 35.8006 38.096 35.0219 38.096ZM42.1044 38V29.52H43.6404V38H42.1044ZM42.8724 27.888C42.5738 27.888 42.3231 27.792 42.1204 27.6C41.9284 27.408 41.8324 27.1733 41.8324 26.896C41.8324 26.608 41.9284 26.368 42.1204 26.176C42.3231 25.984 42.5738 25.888 42.8724 25.888C43.1711 25.888 43.4164 25.984 43.6084 26.176C43.8111 26.3573 43.9124 26.5867 43.9124 26.864C43.9124 27.152 43.8164 27.3973 43.6244 27.6C43.4324 27.792 43.1818 27.888 42.8724 27.888ZM51.1012 29.44C51.7945 29.44 52.4025 29.5733 52.9252 29.84C53.4585 30.1067 53.8745 30.512 54.1732 31.056C54.4719 31.6 54.6212 32.288 54.6212 33.12V38H53.0852V33.296C53.0852 32.4747 52.8825 31.856 52.4772 31.44C52.0825 31.024 51.5225 30.816 50.7972 30.816C50.2532 30.816 49.7785 30.9227 49.3732 31.136C48.9679 31.3493 48.6532 31.664 48.4292 32.08C48.2159 32.496 48.1092 33.0133 48.1092 33.632V38H46.5732V29.52H48.0452V31.808L47.8052 31.2C48.0825 30.6453 48.5092 30.2133 49.0852 29.904C49.6612 29.5947 50.3332 29.44 51.1012 29.44ZM60.3758 38.096C59.5225 38.096 58.8611 37.8667 58.3918 37.408C57.9225 36.9493 57.6878 36.2933 57.6878 35.44V27.664H59.2238V35.376C59.2238 35.8347 59.3358 36.1867 59.5598 36.432C59.7945 36.6773 60.1251 36.8 60.5518 36.8C61.0318 36.8 61.4318 36.6667 61.7518 36.4L62.2318 37.504C61.9971 37.7067 61.7145 37.856 61.3838 37.952C61.0638 38.048 60.7278 38.096 60.3758 38.096ZM56.2478 30.784V29.52H61.6558V30.784H56.2478ZM69.3528 38V36.208L69.2728 35.872V32.816C69.2728 32.1653 69.0808 31.664 68.6968 31.312C68.3235 30.9493 67.7581 30.768 67.0008 30.768C66.4995 30.768 66.0088 30.8533 65.5288 31.024C65.0488 31.184 64.6435 31.4027 64.3128 31.68L63.6728 30.528C64.1101 30.176 64.6328 29.9093 65.2408 29.728C65.8595 29.536 66.5048 29.44 67.1768 29.44C68.3395 29.44 69.2355 29.7227 69.8648 30.288C70.4941 30.8533 70.8088 31.7173 70.8088 32.88V38H69.3528ZM66.5688 38.096C65.9395 38.096 65.3848 37.9893 64.9048 37.776C64.4355 37.5627 64.0728 37.2693 63.8168 36.896C63.5608 36.512 63.4328 36.08 63.4328 35.6C63.4328 35.1413 63.5395 34.7253 63.7528 34.352C63.9768 33.9787 64.3341 33.68 64.8248 33.456C65.3261 33.232 65.9981 33.12 66.8408 33.12H69.5288V34.224H66.9048C66.1368 34.224 65.6195 34.352 65.3528 34.608C65.0861 34.864 64.9528 35.1733 64.9528 35.536C64.9528 35.952 65.1181 36.288 65.4488 36.544C65.7795 36.7893 66.2381 36.912 66.8248 36.912C67.4008 36.912 67.9021 36.784 68.3288 36.528C68.7661 36.272 69.0808 35.8987 69.2728 35.408L69.5768 36.464C69.3741 36.9653 69.0168 37.3653 68.5048 37.664C67.9928 37.952 67.3475 38.096 66.5688 38.096ZM73.6513 38V29.52H75.1873V38H73.6513ZM74.4193 27.888C74.1206 27.888 73.87 27.792 73.6673 27.6C73.4753 27.408 73.3793 27.1733 73.3793 26.896C73.3793 26.608 73.4753 26.368 73.6673 26.176C73.87 25.984 74.1206 25.888 74.4193 25.888C74.718 25.888 74.9633 25.984 75.1553 26.176C75.358 26.3573 75.4593 26.5867 75.4593 26.864C75.4593 27.152 75.3633 27.3973 75.1713 27.6C74.9793 27.792 74.7286 27.888 74.4193 27.888ZM82.6481 29.44C83.3414 29.44 83.9494 29.5733 84.4721 29.84C85.0054 30.1067 85.4214 30.512 85.7201 31.056C86.0187 31.6 86.1681 32.288 86.1681 33.12V38H84.6321V33.296C84.6321 32.4747 84.4294 31.856 84.0241 31.44C83.6294 31.024 83.0694 30.816 82.3441 30.816C81.8001 30.816 81.3254 30.9227 80.9201 31.136C80.5147 31.3493 80.2001 31.664 79.9761 32.08C79.7627 32.496 79.6561 33.0133 79.6561 33.632V38H78.1201V29.52H79.5921V31.808L79.3521 31.2C79.6294 30.6453 80.0561 30.2133 80.6321 29.904C81.2081 29.5947 81.8801 29.44 82.6481 29.44ZM93.5316 38V28.768C93.5316 27.936 93.7716 27.2747 94.2516 26.784C94.7422 26.2827 95.4356 26.032 96.3316 26.032C96.6622 26.032 96.9769 26.0747 97.2756 26.16C97.5849 26.2347 97.8462 26.3573 98.0596 26.528L97.5956 27.696C97.4356 27.568 97.2542 27.472 97.0516 27.408C96.8489 27.3333 96.6356 27.296 96.4116 27.296C95.9636 27.296 95.6222 27.424 95.3876 27.68C95.1529 27.9253 95.0356 28.2933 95.0356 28.784V29.92L95.0676 30.624V38H93.5316ZM92.0916 30.784V29.52H97.4996V30.784H92.0916ZM98.9482 38V29.52H100.42V31.824L100.276 31.248C100.511 30.6613 100.906 30.2133 101.46 29.904C102.015 29.5947 102.698 29.44 103.508 29.44V30.928C103.444 30.9173 103.38 30.912 103.316 30.912C103.263 30.912 103.21 30.912 103.156 30.912C102.335 30.912 101.684 31.1573 101.204 31.648C100.724 32.1387 100.484 32.848 100.484 33.776V38H98.9482ZM109.099 38.096C108.193 38.096 107.393 37.9093 106.699 37.536C106.017 37.1627 105.483 36.6507 105.099 36C104.726 35.3493 104.539 34.6027 104.539 33.76C104.539 32.9173 104.721 32.1707 105.083 31.52C105.457 30.8693 105.963 30.3627 106.603 30C107.254 29.6267 107.985 29.44 108.795 29.44C109.617 29.44 110.342 29.6213 110.971 29.984C111.601 30.3467 112.091 30.8587 112.443 31.52C112.806 32.1707 112.987 32.9333 112.987 33.808C112.987 33.872 112.982 33.9467 112.971 34.032C112.971 34.1173 112.966 34.1973 112.955 34.272H105.739V33.168H112.155L111.531 33.552C111.542 33.008 111.43 32.5227 111.195 32.096C110.961 31.6693 110.635 31.3387 110.219 31.104C109.814 30.8587 109.339 30.736 108.795 30.736C108.262 30.736 107.787 30.8587 107.371 31.104C106.955 31.3387 106.63 31.6747 106.395 32.112C106.161 32.5387 106.043 33.0293 106.043 33.584V33.84C106.043 34.4053 106.171 34.912 106.427 35.36C106.694 35.7973 107.062 36.1387 107.531 36.384C108.001 36.6293 108.539 36.752 109.147 36.752C109.649 36.752 110.102 36.6667 110.507 36.496C110.923 36.3253 111.286 36.0693 111.595 35.728L112.443 36.72C112.059 37.168 111.579 37.5093 111.003 37.744C110.438 37.9787 109.803 38.096 109.099 38.096ZM117.552 38.096C116.848 38.096 116.176 38 115.536 37.808C114.907 37.616 114.411 37.3813 114.048 37.104L114.688 35.888C115.051 36.1333 115.499 36.3413 116.032 36.512C116.565 36.6827 117.109 36.768 117.664 36.768C118.379 36.768 118.891 36.6667 119.2 36.464C119.52 36.2613 119.68 35.9787 119.68 35.616C119.68 35.3493 119.584 35.1413 119.392 34.992C119.2 34.8427 118.944 34.7307 118.624 34.656C118.315 34.5813 117.968 34.5173 117.584 34.464C117.2 34.4 116.816 34.3253 116.432 34.24C116.048 34.144 115.696 34.016 115.376 33.856C115.056 33.6853 114.8 33.456 114.608 33.168C114.416 32.8693 114.32 32.4747 114.32 31.984C114.32 31.472 114.464 31.024 114.752 30.64C115.04 30.256 115.445 29.9627 115.968 29.76C116.501 29.5467 117.131 29.44 117.856 29.44C118.411 29.44 118.971 29.5093 119.536 29.648C120.112 29.776 120.581 29.9627 120.944 30.208L120.288 31.424C119.904 31.168 119.504 30.992 119.088 30.896C118.672 30.8 118.256 30.752 117.84 30.752C117.168 30.752 116.667 30.864 116.336 31.088C116.005 31.3013 115.84 31.5787 115.84 31.92C115.84 32.208 115.936 32.432 116.128 32.592C116.331 32.7413 116.587 32.8587 116.896 32.944C117.216 33.0293 117.568 33.104 117.952 33.168C118.336 33.2213 118.72 33.296 119.104 33.392C119.488 33.4773 119.835 33.6 120.144 33.76C120.464 33.92 120.72 34.144 120.912 34.432C121.115 34.72 121.216 35.104 121.216 35.584C121.216 36.096 121.067 36.5387 120.768 36.912C120.469 37.2853 120.048 37.5787 119.504 37.792C118.96 37.9947 118.309 38.096 117.552 38.096ZM127.664 29.44C128.357 29.44 128.965 29.5733 129.488 29.84C130.021 30.1067 130.437 30.512 130.736 31.056C131.034 31.6 131.184 32.288 131.184 33.12V38H129.648V33.296C129.648 32.4747 129.445 31.856 129.04 31.44C128.645 31.024 128.085 30.816 127.36 30.816C126.816 30.816 126.341 30.9227 125.936 31.136C125.53 31.3493 125.216 31.664 124.992 32.08C124.778 32.496 124.672 33.0133 124.672 33.632V38H123.136V26.128H124.672V31.808L124.368 31.2C124.645 30.6453 125.072 30.2133 125.648 29.904C126.224 29.5947 126.896 29.44 127.664 29.44ZM138.554 29.44C139.248 29.44 139.856 29.5733 140.378 29.84C140.912 30.1067 141.328 30.512 141.626 31.056C141.925 31.6 142.074 32.288 142.074 33.12V38H140.538V33.296C140.538 32.4747 140.336 31.856 139.93 31.44C139.536 31.024 138.976 30.816 138.25 30.816C137.706 30.816 137.232 30.9227 136.826 31.136C136.421 31.3493 136.106 31.664 135.882 32.08C135.669 32.496 135.562 33.0133 135.562 33.632V38H134.026V29.52H135.498V31.808L135.258 31.2C135.536 30.6453 135.962 30.2133 136.538 29.904C137.114 29.5947 137.786 29.44 138.554 29.44ZM148.693 38.096C147.786 38.096 146.986 37.9093 146.293 37.536C145.61 37.1627 145.077 36.6507 144.693 36C144.32 35.3493 144.133 34.6027 144.133 33.76C144.133 32.9173 144.314 32.1707 144.677 31.52C145.05 30.8693 145.557 30.3627 146.197 30C146.848 29.6267 147.578 29.44 148.389 29.44C149.21 29.44 149.936 29.6213 150.565 29.984C151.194 30.3467 151.685 30.8587 152.037 31.52C152.4 32.1707 152.581 32.9333 152.581 33.808C152.581 33.872 152.576 33.9467 152.565 34.032C152.565 34.1173 152.56 34.1973 152.549 34.272H145.333V33.168H151.749L151.125 33.552C151.136 33.008 151.024 32.5227 150.789 32.096C150.554 31.6693 150.229 31.3387 149.813 31.104C149.408 30.8587 148.933 30.736 148.389 30.736C147.856 30.736 147.381 30.8587 146.965 31.104C146.549 31.3387 146.224 31.6747 145.989 32.112C145.754 32.5387 145.637 33.0293 145.637 33.584V33.84C145.637 34.4053 145.765 34.912 146.021 35.36C146.288 35.7973 146.656 36.1387 147.125 36.384C147.594 36.6293 148.133 36.752 148.741 36.752C149.242 36.752 149.696 36.6667 150.101 36.496C150.517 36.3253 150.88 36.0693 151.189 35.728L152.037 36.72C151.653 37.168 151.173 37.5093 150.597 37.744C150.032 37.9787 149.397 38.096 148.693 38.096ZM157.146 38.096C156.442 38.096 155.77 38 155.13 37.808C154.5 37.616 154.004 37.3813 153.642 37.104L154.282 35.888C154.644 36.1333 155.092 36.3413 155.626 36.512C156.159 36.6827 156.703 36.768 157.258 36.768C157.972 36.768 158.484 36.6667 158.794 36.464C159.114 36.2613 159.274 35.9787 159.274 35.616C159.274 35.3493 159.178 35.1413 158.986 34.992C158.794 34.8427 158.538 34.7307 158.218 34.656C157.908 34.5813 157.562 34.5173 157.178 34.464C156.794 34.4 156.41 34.3253 156.026 34.24C155.642 34.144 155.29 34.016 154.97 33.856C154.65 33.6853 154.394 33.456 154.202 33.168C154.01 32.8693 153.914 32.4747 153.914 31.984C153.914 31.472 154.058 31.024 154.346 30.64C154.634 30.256 155.039 29.9627 155.562 29.76C156.095 29.5467 156.724 29.44 157.45 29.44C158.004 29.44 158.564 29.5093 159.13 29.648C159.706 29.776 160.175 29.9627 160.538 30.208L159.882 31.424C159.498 31.168 159.098 30.992 158.682 30.896C158.266 30.8 157.85 30.752 157.434 30.752C156.762 30.752 156.26 30.864 155.93 31.088C155.599 31.3013 155.434 31.5787 155.434 31.92C155.434 32.208 155.53 32.432 155.722 32.592C155.924 32.7413 156.18 32.8587 156.49 32.944C156.81 33.0293 157.162 33.104 157.546 33.168C157.93 33.2213 158.314 33.296 158.698 33.392C159.082 33.4773 159.428 33.6 159.738 33.76C160.058 33.92 160.314 34.144 160.506 34.432C160.708 34.72 160.81 35.104 160.81 35.584C160.81 36.096 160.66 36.5387 160.362 36.912C160.063 37.2853 159.642 37.5787 159.098 37.792C158.554 37.9947 157.903 38.096 157.146 38.096ZM165.161 38.096C164.457 38.096 163.785 38 163.145 37.808C162.516 37.616 162.02 37.3813 161.657 37.104L162.297 35.888C162.66 36.1333 163.108 36.3413 163.641 36.512C164.175 36.6827 164.719 36.768 165.273 36.768C165.988 36.768 166.5 36.6667 166.809 36.464C167.129 36.2613 167.289 35.9787 167.289 35.616C167.289 35.3493 167.193 35.1413 167.001 34.992C166.809 34.8427 166.553 34.7307 166.233 34.656C165.924 34.5813 165.577 34.5173 165.193 34.464C164.809 34.4 164.425 34.3253 164.041 34.24C163.657 34.144 163.305 34.016 162.985 33.856C162.665 33.6853 162.409 33.456 162.217 33.168C162.025 32.8693 161.929 32.4747 161.929 31.984C161.929 31.472 162.073 31.024 162.361 30.64C162.649 30.256 163.055 29.9627 163.577 29.76C164.111 29.5467 164.74 29.44 165.465 29.44C166.02 29.44 166.58 29.5093 167.145 29.648C167.721 29.776 168.191 29.9627 168.553 30.208L167.897 31.424C167.513 31.168 167.113 30.992 166.697 30.896C166.281 30.8 165.865 30.752 165.449 30.752C164.777 30.752 164.276 30.864 163.945 31.088C163.615 31.3013 163.449 31.5787 163.449 31.92C163.449 32.208 163.545 32.432 163.737 32.592C163.94 32.7413 164.196 32.8587 164.505 32.944C164.825 33.0293 165.177 33.104 165.561 33.168C165.945 33.2213 166.329 33.296 166.713 33.392C167.097 33.4773 167.444 33.6 167.753 33.76C168.073 33.92 168.329 34.144 168.521 34.432C168.724 34.72 168.825 35.104 168.825 35.584C168.825 36.096 168.676 36.5387 168.377 36.912C168.079 37.2853 167.657 37.5787 167.113 37.792C166.569 37.9947 165.919 38.096 165.161 38.096ZM180.434 38V36.144L180.386 35.84V32.736C180.386 32.0213 180.183 31.472 179.778 31.088C179.383 30.704 178.791 30.512 178.002 30.512C177.458 30.512 176.941 30.6027 176.45 30.784C175.959 30.9653 175.543 31.2053 175.202 31.504L174.69 30.656C175.117 30.2933 175.629 30.016 176.226 29.824C176.823 29.6213 177.453 29.52 178.114 29.52C179.202 29.52 180.039 29.792 180.626 30.336C181.223 30.8693 181.522 31.6853 181.522 32.784V38H180.434ZM177.538 38.08C176.909 38.08 176.359 37.9787 175.89 37.776C175.431 37.5627 175.079 37.2747 174.834 36.912C174.589 36.5387 174.466 36.112 174.466 35.632C174.466 35.1947 174.567 34.8 174.77 34.448C174.983 34.0853 175.325 33.7973 175.794 33.584C176.274 33.36 176.914 33.248 177.714 33.248H180.61V34.096H177.746C176.935 34.096 176.37 34.24 176.05 34.528C175.741 34.816 175.586 35.1733 175.586 35.6C175.586 36.08 175.773 36.464 176.146 36.752C176.519 37.04 177.042 37.184 177.714 37.184C178.354 37.184 178.903 37.04 179.362 36.752C179.831 36.4533 180.173 36.0267 180.386 35.472L180.642 36.256C180.429 36.8107 180.055 37.2533 179.522 37.584C178.999 37.9147 178.338 38.08 177.538 38.08ZM188.895 29.52C189.578 29.52 190.175 29.6533 190.687 29.92C191.21 30.176 191.615 30.5707 191.903 31.104C192.202 31.6373 192.351 32.3093 192.351 33.12V38H191.215V33.232C191.215 32.3467 190.991 31.68 190.543 31.232C190.106 30.7733 189.487 30.544 188.687 30.544C188.09 30.544 187.567 30.6667 187.119 30.912C186.682 31.1467 186.341 31.4933 186.095 31.952C185.861 32.4 185.743 32.944 185.743 33.584V38H184.607V29.6H185.695V31.904L185.519 31.472C185.786 30.864 186.213 30.3893 186.799 30.048C187.386 29.696 188.085 29.52 188.895 29.52ZM198.764 38.08C197.964 38.08 197.244 37.8987 196.604 37.536C195.975 37.1733 195.479 36.672 195.116 36.032C194.753 35.3813 194.572 34.6347 194.572 33.792C194.572 32.9387 194.753 32.192 195.116 31.552C195.479 30.912 195.975 30.416 196.604 30.064C197.244 29.7013 197.964 29.52 198.764 29.52C199.5 29.52 200.156 29.6853 200.732 30.016C201.319 30.3467 201.783 30.832 202.124 31.472C202.476 32.1013 202.652 32.8747 202.652 33.792C202.652 34.6987 202.481 35.472 202.14 36.112C201.799 36.752 201.335 37.2427 200.748 37.584C200.172 37.9147 199.511 38.08 198.764 38.08ZM198.844 37.072C199.441 37.072 199.975 36.9387 200.444 36.672C200.924 36.3947 201.297 36.0107 201.564 35.52C201.841 35.0187 201.98 34.4427 201.98 33.792C201.98 33.1307 201.841 32.5547 201.564 32.064C201.297 31.5733 200.924 31.1947 200.444 30.928C199.975 30.6507 199.441 30.512 198.844 30.512C198.257 30.512 197.729 30.6507 197.26 30.928C196.791 31.1947 196.417 31.5733 196.14 32.064C195.863 32.5547 195.724 33.1307 195.724 33.792C195.724 34.4427 195.863 35.0187 196.14 35.52C196.417 36.0107 196.791 36.3947 197.26 36.672C197.729 36.9387 198.257 37.072 198.844 37.072ZM202.012 38V35.472L202.124 33.776L201.964 32.08V26.128H203.1V38H202.012ZM214.019 38.08C213.145 38.08 212.377 37.8987 211.715 37.536C211.054 37.1627 210.537 36.656 210.163 36.016C209.79 35.3653 209.603 34.624 209.603 33.792C209.603 32.96 209.779 32.224 210.131 31.584C210.494 30.944 210.985 30.4427 211.603 30.08C212.233 29.7067 212.937 29.52 213.715 29.52C214.505 29.52 215.203 29.7013 215.811 30.064C216.43 30.416 216.915 30.9173 217.267 31.568C217.619 32.208 217.795 32.9493 217.795 33.792C217.795 33.8453 217.79 33.904 217.779 33.968C217.779 34.0213 217.779 34.08 217.779 34.144H210.467V33.296H217.171L216.723 33.632C216.723 33.024 216.59 32.4853 216.323 32.016C216.067 31.536 215.715 31.1627 215.267 30.896C214.819 30.6293 214.302 30.496 213.715 30.496C213.139 30.496 212.622 30.6293 212.163 30.896C211.705 31.1627 211.347 31.536 211.091 32.016C210.835 32.496 210.707 33.0453 210.707 33.664V33.84C210.707 34.48 210.846 35.0453 211.123 35.536C211.411 36.016 211.806 36.3947 212.307 36.672C212.819 36.9387 213.401 37.072 214.051 37.072C214.563 37.072 215.038 36.9813 215.475 36.8C215.923 36.6187 216.307 36.3413 216.627 35.968L217.267 36.704C216.894 37.152 216.425 37.4933 215.859 37.728C215.305 37.9627 214.691 38.08 214.019 38.08ZM224.395 29.52C225.078 29.52 225.675 29.6533 226.187 29.92C226.71 30.176 227.115 30.5707 227.403 31.104C227.702 31.6373 227.851 32.3093 227.851 33.12V38H226.715V33.232C226.715 32.3467 226.491 31.68 226.043 31.232C225.606 30.7733 224.987 30.544 224.187 30.544C223.59 30.544 223.067 30.6667 222.619 30.912C222.182 31.1467 221.841 31.4933 221.595 31.952C221.361 32.4 221.243 32.944 221.243 33.584V38H220.107V29.6H221.195V31.904L221.019 31.472C221.286 30.864 221.713 30.3893 222.299 30.048C222.886 29.696 223.585 29.52 224.395 29.52ZM235.208 29.52C235.891 29.52 236.488 29.6533 237 29.92C237.523 30.176 237.928 30.5707 238.216 31.104C238.515 31.6373 238.664 32.3093 238.664 33.12V38H237.528V33.232C237.528 32.3467 237.304 31.68 236.856 31.232C236.419 30.7733 235.8 30.544 235 30.544C234.403 30.544 233.88 30.6667 233.432 30.912C232.995 31.1467 232.653 31.4933 232.408 31.952C232.173 32.4 232.056 32.944 232.056 33.584V38H230.92V26.128H232.056V31.904L231.832 31.472C232.099 30.864 232.525 30.3893 233.112 30.048C233.699 29.696 234.397 29.52 235.208 29.52ZM246.996 38V36.144L246.948 35.84V32.736C246.948 32.0213 246.746 31.472 246.34 31.088C245.946 30.704 245.354 30.512 244.564 30.512C244.02 30.512 243.503 30.6027 243.012 30.784C242.522 30.9653 242.106 31.2053 241.764 31.504L241.252 30.656C241.679 30.2933 242.191 30.016 242.788 29.824C243.386 29.6213 244.015 29.52 244.676 29.52C245.764 29.52 246.602 29.792 247.188 30.336C247.786 30.8693 248.084 31.6853 248.084 32.784V38H246.996ZM244.1 38.08C243.471 38.08 242.922 37.9787 242.452 37.776C241.994 37.5627 241.642 37.2747 241.396 36.912C241.151 36.5387 241.028 36.112 241.028 35.632C241.028 35.1947 241.13 34.8 241.332 34.448C241.546 34.0853 241.887 33.7973 242.356 33.584C242.836 33.36 243.476 33.248 244.276 33.248H247.172V34.096H244.308C243.498 34.096 242.932 34.24 242.612 34.528C242.303 34.816 242.148 35.1733 242.148 35.6C242.148 36.08 242.335 36.464 242.708 36.752C243.082 37.04 243.604 37.184 244.276 37.184C244.916 37.184 245.466 37.04 245.924 36.752C246.394 36.4533 246.735 36.0267 246.948 35.472L247.204 36.256C246.991 36.8107 246.618 37.2533 246.084 37.584C245.562 37.9147 244.9 38.08 244.1 38.08ZM255.458 29.52C256.141 29.52 256.738 29.6533 257.25 29.92C257.773 30.176 258.178 30.5707 258.466 31.104C258.765 31.6373 258.914 32.3093 258.914 33.12V38H257.778V33.232C257.778 32.3467 257.554 31.68 257.106 31.232C256.669 30.7733 256.05 30.544 255.25 30.544C254.653 30.544 254.13 30.6667 253.682 30.912C253.245 31.1467 252.903 31.4933 252.658 31.952C252.423 32.4 252.306 32.944 252.306 33.584V38H251.17V29.6H252.258V31.904L252.082 31.472C252.349 30.864 252.775 30.3893 253.362 30.048C253.949 29.696 254.647 29.52 255.458 29.52ZM265.47 38.08C264.638 38.08 263.892 37.8987 263.23 37.536C262.58 37.1627 262.068 36.656 261.694 36.016C261.321 35.3653 261.134 34.624 261.134 33.792C261.134 32.9493 261.321 32.208 261.694 31.568C262.068 30.928 262.58 30.4267 263.23 30.064C263.892 29.7013 264.638 29.52 265.47 29.52C266.185 29.52 266.83 29.6587 267.406 29.936C267.982 30.2133 268.436 30.6293 268.766 31.184L267.918 31.76C267.63 31.3333 267.273 31.0187 266.846 30.816C266.42 30.6133 265.956 30.512 265.454 30.512C264.857 30.512 264.318 30.6507 263.838 30.928C263.358 31.1947 262.98 31.5733 262.702 32.064C262.425 32.5547 262.286 33.1307 262.286 33.792C262.286 34.4533 262.425 35.0293 262.702 35.52C262.98 36.0107 263.358 36.3947 263.838 36.672C264.318 36.9387 264.857 37.072 265.454 37.072C265.956 37.072 266.42 36.9707 266.846 36.768C267.273 36.5653 267.63 36.256 267.918 35.84L268.766 36.416C268.436 36.96 267.982 37.376 267.406 37.664C266.83 37.9413 266.185 38.08 265.47 38.08ZM274.425 38.08C273.551 38.08 272.783 37.8987 272.121 37.536C271.46 37.1627 270.943 36.656 270.569 36.016C270.196 35.3653 270.009 34.624 270.009 33.792C270.009 32.96 270.185 32.224 270.537 31.584C270.9 30.944 271.391 30.4427 272.009 30.08C272.639 29.7067 273.343 29.52 274.121 29.52C274.911 29.52 275.609 29.7013 276.217 30.064C276.836 30.416 277.321 30.9173 277.673 31.568C278.025 32.208 278.201 32.9493 278.201 33.792C278.201 33.8453 278.196 33.904 278.185 33.968C278.185 34.0213 278.185 34.08 278.185 34.144H270.873V33.296H277.577L277.129 33.632C277.129 33.024 276.996 32.4853 276.729 32.016C276.473 31.536 276.121 31.1627 275.673 30.896C275.225 30.6293 274.708 30.496 274.121 30.496C273.545 30.496 273.028 30.6293 272.569 30.896C272.111 31.1627 271.753 31.536 271.497 32.016C271.241 32.496 271.113 33.0453 271.113 33.664V33.84C271.113 34.48 271.252 35.0453 271.529 35.536C271.817 36.016 272.212 36.3947 272.713 36.672C273.225 36.9387 273.807 37.072 274.457 37.072C274.969 37.072 275.444 36.9813 275.881 36.8C276.329 36.6187 276.713 36.3413 277.033 35.968L277.673 36.704C277.3 37.152 276.831 37.4933 276.265 37.728C275.711 37.9627 275.097 38.08 274.425 38.08ZM287.005 38.096C286.301 38.096 285.629 38 284.989 37.808C284.36 37.616 283.864 37.3813 283.501 37.104L284.141 35.888C284.504 36.1333 284.952 36.3413 285.485 36.512C286.019 36.6827 286.563 36.768 287.117 36.768C287.832 36.768 288.344 36.6667 288.653 36.464C288.973 36.2613 289.133 35.9787 289.133 35.616C289.133 35.3493 289.037 35.1413 288.845 34.992C288.653 34.8427 288.397 34.7307 288.077 34.656C287.768 34.5813 287.421 34.5173 287.037 34.464C286.653 34.4 286.269 34.3253 285.885 34.24C285.501 34.144 285.149 34.016 284.829 33.856C284.509 33.6853 284.253 33.456 284.061 33.168C283.869 32.8693 283.773 32.4747 283.773 31.984C283.773 31.472 283.917 31.024 284.205 30.64C284.493 30.256 284.899 29.9627 285.421 29.76C285.955 29.5467 286.584 29.44 287.309 29.44C287.864 29.44 288.424 29.5093 288.989 29.648C289.565 29.776 290.035 29.9627 290.397 30.208L289.741 31.424C289.357 31.168 288.957 30.992 288.541 30.896C288.125 30.8 287.709 30.752 287.293 30.752C286.621 30.752 286.12 30.864 285.789 31.088C285.459 31.3013 285.293 31.5787 285.293 31.92C285.293 32.208 285.389 32.432 285.581 32.592C285.784 32.7413 286.04 32.8587 286.349 32.944C286.669 33.0293 287.021 33.104 287.405 33.168C287.789 33.2213 288.173 33.296 288.557 33.392C288.941 33.4773 289.288 33.6 289.597 33.76C289.917 33.92 290.173 34.144 290.365 34.432C290.568 34.72 290.669 35.104 290.669 35.584C290.669 36.096 290.52 36.5387 290.221 36.912C289.923 37.2853 289.501 37.5787 288.957 37.792C288.413 37.9947 287.763 38.096 287.005 38.096ZM297.117 29.44C297.81 29.44 298.418 29.5733 298.941 29.84C299.474 30.1067 299.89 30.512 300.189 31.056C300.487 31.6 300.637 32.288 300.637 33.12V38H299.101V33.296C299.101 32.4747 298.898 31.856 298.493 31.44C298.098 31.024 297.538 30.816 296.813 30.816C296.269 30.816 295.794 30.9227 295.389 31.136C294.983 31.3493 294.669 31.664 294.445 32.08C294.231 32.496 294.125 33.0133 294.125 33.632V38H292.589V26.128H294.125V31.808L293.821 31.2C294.098 30.6453 294.525 30.2133 295.101 29.904C295.677 29.5947 296.349 29.44 297.117 29.44ZM307.255 38.096C306.349 38.096 305.549 37.9093 304.855 37.536C304.173 37.1627 303.639 36.6507 303.255 36C302.882 35.3493 302.695 34.6027 302.695 33.76C302.695 32.9173 302.877 32.1707 303.239 31.52C303.613 30.8693 304.119 30.3627 304.759 30C305.41 29.6267 306.141 29.44 306.951 29.44C307.773 29.44 308.498 29.6213 309.127 29.984C309.757 30.3467 310.247 30.8587 310.599 31.52C310.962 32.1707 311.143 32.9333 311.143 33.808C311.143 33.872 311.138 33.9467 311.127 34.032C311.127 34.1173 311.122 34.1973 311.111 34.272H303.895V33.168H310.311L309.687 33.552C309.698 33.008 309.586 32.5227 309.351 32.096C309.117 31.6693 308.791 31.3387 308.375 31.104C307.97 30.8587 307.495 30.736 306.951 30.736C306.418 30.736 305.943 30.8587 305.527 31.104C305.111 31.3387 304.786 31.6747 304.551 32.112C304.317 32.5387 304.199 33.0293 304.199 33.584V33.84C304.199 34.4053 304.327 34.912 304.583 35.36C304.85 35.7973 305.218 36.1387 305.687 36.384C306.157 36.6293 306.695 36.752 307.303 36.752C307.805 36.752 308.258 36.6667 308.663 36.496C309.079 36.3253 309.442 36.0693 309.751 35.728L310.599 36.72C310.215 37.168 309.735 37.5093 309.159 37.744C308.594 37.9787 307.959 38.096 307.255 38.096ZM313.276 38V26.128H314.812V38H313.276ZM317.969 38V28.768C317.969 27.936 318.209 27.2747 318.689 26.784C319.18 26.2827 319.873 26.032 320.769 26.032C321.1 26.032 321.414 26.0747 321.713 26.16C322.022 26.2347 322.284 26.3573 322.497 26.528L322.033 27.696C321.873 27.568 321.692 27.472 321.489 27.408C321.286 27.3333 321.073 27.296 320.849 27.296C320.401 27.296 320.06 27.424 319.825 27.68C319.59 27.9253 319.473 28.2933 319.473 28.784V29.92L319.505 30.624V38H317.969ZM316.529 30.784V29.52H321.937V30.784H316.529ZM332.947 38V36.208L332.867 35.872V32.816C332.867 32.1653 332.675 31.664 332.291 31.312C331.917 30.9493 331.352 30.768 330.595 30.768C330.093 30.768 329.603 30.8533 329.123 31.024C328.643 31.184 328.237 31.4027 327.907 31.68L327.267 30.528C327.704 30.176 328.227 29.9093 328.835 29.728C329.453 29.536 330.099 29.44 330.771 29.44C331.933 29.44 332.829 29.7227 333.459 30.288C334.088 30.8533 334.403 31.7173 334.403 32.88V38H332.947ZM330.163 38.096C329.533 38.096 328.979 37.9893 328.499 37.776C328.029 37.5627 327.667 37.2693 327.411 36.896C327.155 36.512 327.027 36.08 327.027 35.6C327.027 35.1413 327.133 34.7253 327.347 34.352C327.571 33.9787 327.928 33.68 328.419 33.456C328.92 33.232 329.592 33.12 330.435 33.12H333.123V34.224H330.499C329.731 34.224 329.213 34.352 328.947 34.608C328.68 34.864 328.547 35.1733 328.547 35.536C328.547 35.952 328.712 36.288 329.043 36.544C329.373 36.7893 329.832 36.912 330.419 36.912C330.995 36.912 331.496 36.784 331.923 36.528C332.36 36.272 332.675 35.8987 332.867 35.408L333.171 36.464C332.968 36.9653 332.611 37.3653 332.099 37.664C331.587 37.952 330.941 38.096 330.163 38.096ZM341.741 38.096C341.037 38.096 340.392 37.936 339.805 37.616C339.229 37.2853 338.765 36.8 338.413 36.16C338.072 35.52 337.901 34.72 337.901 33.76C337.901 32.8 338.066 32 338.397 31.36C338.738 30.72 339.197 30.24 339.773 29.92C340.36 29.6 341.016 29.44 341.741 29.44C342.573 29.44 343.309 29.6213 343.949 29.984C344.589 30.3467 345.096 30.8533 345.469 31.504C345.842 32.144 346.029 32.896 346.029 33.76C346.029 34.624 345.842 35.3813 345.469 36.032C345.096 36.6827 344.589 37.1893 343.949 37.552C343.309 37.9147 342.573 38.096 341.741 38.096ZM337.245 41.104V29.52H338.717V31.808L338.621 33.776L338.781 35.744V41.104H337.245ZM341.613 36.752C342.157 36.752 342.642 36.6293 343.069 36.384C343.506 36.1387 343.848 35.792 344.093 35.344C344.349 34.8853 344.477 34.3573 344.477 33.76C344.477 33.152 344.349 32.6293 344.093 32.192C343.848 31.744 343.506 31.3973 343.069 31.152C342.642 30.9067 342.157 30.784 341.613 30.784C341.08 30.784 340.594 30.9067 340.157 31.152C339.73 31.3973 339.389 31.744 339.133 32.192C338.888 32.6293 338.765 33.152 338.765 33.76C338.765 34.3573 338.888 34.8853 339.133 35.344C339.389 35.792 339.73 36.1387 340.157 36.384C340.594 36.6293 341.08 36.752 341.613 36.752ZM352.647 38.096C351.943 38.096 351.298 37.936 350.711 37.616C350.135 37.2853 349.671 36.8 349.319 36.16C348.978 35.52 348.807 34.72 348.807 33.76C348.807 32.8 348.973 32 349.303 31.36C349.645 30.72 350.103 30.24 350.679 29.92C351.266 29.6 351.922 29.44 352.647 29.44C353.479 29.44 354.215 29.6213 354.855 29.984C355.495 30.3467 356.002 30.8533 356.375 31.504C356.749 32.144 356.935 32.896 356.935 33.76C356.935 34.624 356.749 35.3813 356.375 36.032C356.002 36.6827 355.495 37.1893 354.855 37.552C354.215 37.9147 353.479 38.096 352.647 38.096ZM348.151 41.104V29.52H349.623V31.808L349.527 33.776L349.687 35.744V41.104H348.151ZM352.519 36.752C353.063 36.752 353.549 36.6293 353.975 36.384C354.413 36.1387 354.754 35.792 354.999 35.344C355.255 34.8853 355.383 34.3573 355.383 33.76C355.383 33.152 355.255 32.6293 354.999 32.192C354.754 31.744 354.413 31.3973 353.975 31.152C353.549 30.9067 353.063 30.784 352.519 30.784C351.986 30.784 351.501 30.9067 351.063 31.152C350.637 31.3973 350.295 31.744 350.039 32.192C349.794 32.6293 349.671 33.152 349.671 33.76C349.671 34.3573 349.794 34.8853 350.039 35.344C350.295 35.792 350.637 36.1387 351.063 36.384C351.501 36.6293 351.986 36.752 352.519 36.752ZM362.834 38.096C361.927 38.096 361.127 37.9093 360.434 37.536C359.751 37.1627 359.218 36.6507 358.834 36C358.46 35.3493 358.274 34.6027 358.274 33.76C358.274 32.9173 358.455 32.1707 358.818 31.52C359.191 30.8693 359.698 30.3627 360.338 30C360.988 29.6267 361.719 29.44 362.53 29.44C363.351 29.44 364.076 29.6213 364.706 29.984C365.335 30.3467 365.826 30.8587 366.178 31.52C366.54 32.1707 366.722 32.9333 366.722 33.808C366.722 33.872 366.716 33.9467 366.706 34.032C366.706 34.1173 366.7 34.1973 366.69 34.272H359.474V33.168H365.89L365.266 33.552C365.276 33.008 365.164 32.5227 364.93 32.096C364.695 31.6693 364.37 31.3387 363.954 31.104C363.548 30.8587 363.074 30.736 362.53 30.736C361.996 30.736 361.522 30.8587 361.106 31.104C360.69 31.3387 360.364 31.6747 360.13 32.112C359.895 32.5387 359.778 33.0293 359.778 33.584V33.84C359.778 34.4053 359.906 34.912 360.162 35.36C360.428 35.7973 360.796 36.1387 361.266 36.384C361.735 36.6293 362.274 36.752 362.882 36.752C363.383 36.752 363.836 36.6667 364.242 36.496C364.658 36.3253 365.02 36.0693 365.33 35.728L366.178 36.72C365.794 37.168 365.314 37.5093 364.738 37.744C364.172 37.9787 363.538 38.096 362.834 38.096ZM373.884 38V36.208L373.804 35.872V32.816C373.804 32.1653 373.612 31.664 373.228 31.312C372.855 30.9493 372.289 30.768 371.532 30.768C371.031 30.768 370.54 30.8533 370.06 31.024C369.58 31.184 369.175 31.4027 368.844 31.68L368.204 30.528C368.641 30.176 369.164 29.9093 369.772 29.728C370.391 29.536 371.036 29.44 371.708 29.44C372.871 29.44 373.767 29.7227 374.396 30.288C375.025 30.8533 375.34 31.7173 375.34 32.88V38H373.884ZM371.1 38.096C370.471 38.096 369.916 37.9893 369.436 37.776C368.967 37.5627 368.604 37.2693 368.348 36.896C368.092 36.512 367.964 36.08 367.964 35.6C367.964 35.1413 368.071 34.7253 368.284 34.352C368.508 33.9787 368.865 33.68 369.356 33.456C369.857 33.232 370.529 33.12 371.372 33.12H374.06V34.224H371.436C370.668 34.224 370.151 34.352 369.884 34.608C369.617 34.864 369.484 35.1733 369.484 35.536C369.484 35.952 369.649 36.288 369.98 36.544C370.311 36.7893 370.769 36.912 371.356 36.912C371.932 36.912 372.433 36.784 372.86 36.528C373.297 36.272 373.612 35.8987 373.804 35.408L374.108 36.464C373.905 36.9653 373.548 37.3653 373.036 37.664C372.524 37.952 371.879 38.096 371.1 38.096ZM378.183 38V26.128H379.719V38H378.183ZM383.019 38.096C382.721 38.096 382.465 37.9947 382.251 37.792C382.038 37.5787 381.931 37.312 381.931 36.992C381.931 36.672 382.038 36.4107 382.251 36.208C382.465 36.0053 382.721 35.904 383.019 35.904C383.307 35.904 383.553 36.0053 383.755 36.208C383.969 36.4107 384.075 36.672 384.075 36.992C384.075 37.312 383.969 37.5787 383.755 37.792C383.553 37.9947 383.307 38.096 383.019 38.096Z" fill="black"/>
</svg>
