<svg width="328" height="69" viewBox="0 0 328 69" fill="none" xmlns="http://www.w3.org/2000/svg">
<path d="M4.83938 13.8134C3.87632 13.8134 2.9554 13.6689 2.07661 13.38C1.19782 13.0791 0.505628 12.6939 2.3416e-05 12.2244L0.668144 10.8159C1.14967 11.2372 1.76362 11.5863 2.50999 11.8632C3.25636 12.1401 4.03282 12.2785 4.83938 12.2785C5.57371 12.2785 6.1696 12.1943 6.62705 12.0257C7.0845 11.8572 7.42157 11.6285 7.63826 11.3396C7.85495 11.0386 7.96329 10.7015 7.96329 10.3283C7.96329 9.89497 7.81884 9.54586 7.52992 9.28102C7.25304 9.01618 6.88587 8.80551 6.42842 8.64902C5.98301 8.48048 5.48944 8.33602 4.94772 8.21564C4.40601 8.09526 3.85827 7.95682 3.30451 7.80032C2.76279 7.63179 2.26321 7.42112 1.80575 7.16832C1.36034 6.91551 0.999194 6.57845 0.722315 6.15711C0.445437 5.72373 0.306998 5.16998 0.306998 4.49584C0.306998 3.84577 0.475532 3.24988 0.812602 2.70816C1.16171 2.15441 1.69139 1.71501 2.40164 1.38998C3.12394 1.05291 4.03884 0.884376 5.14635 0.884376C5.88068 0.884376 6.609 0.980682 7.33129 1.17329C8.05358 1.3659 8.67957 1.64278 9.20925 2.00393L8.61336 3.44851C8.07164 3.08737 7.49982 2.82855 6.89791 2.67205C6.296 2.50351 5.71215 2.41925 5.14635 2.41925C4.4361 2.41925 3.85225 2.50953 3.3948 2.69011C2.93734 2.87068 2.60027 3.11144 2.38359 3.4124C2.17894 3.71335 2.07661 4.05042 2.07661 4.42361C2.07661 4.86902 2.21505 5.22415 2.49193 5.48899C2.78085 5.75383 3.14801 5.9645 3.59343 6.12099C4.05088 6.27749 4.55046 6.42195 5.09218 6.55437C5.6339 6.67475 6.17562 6.81319 6.71734 6.96969C7.2711 7.12618 7.77068 7.33083 8.2161 7.58363C8.67355 7.83644 9.04071 8.17351 9.31759 8.59484C9.59447 9.01618 9.73291 9.5579 9.73291 10.22C9.73291 10.858 9.55836 11.4539 9.20925 12.0077C8.86014 12.5494 8.31842 12.9888 7.58409 13.3259C6.8618 13.6509 5.94689 13.8134 4.83938 13.8134ZM17.1923 13.7773C16.3977 13.7773 15.6694 13.5967 15.0073 13.2356C14.3573 12.8624 13.8336 12.3146 13.4363 11.5924C13.0511 10.8701 12.8585 9.9672 12.8585 8.88376C12.8585 7.80032 13.0451 6.89746 13.4183 6.17517C13.8035 5.45287 14.3212 4.91115 14.9712 4.55001C15.6333 4.18886 16.3737 4.00829 17.1923 4.00829C18.1312 4.00829 18.9619 4.21294 19.6842 4.62224C20.4065 5.03154 20.9783 5.60335 21.3996 6.33768C21.821 7.05997 22.0316 7.90867 22.0316 8.88376C22.0316 9.85885 21.821 10.7136 21.3996 11.4479C20.9783 12.1822 20.4065 12.754 19.6842 13.1633C18.9619 13.5726 18.1312 13.7773 17.1923 13.7773ZM12.1182 17.1721V4.09858H13.7794V6.68077L13.6711 8.90182L13.8517 11.1229V17.1721H12.1182ZM17.0478 12.2605C17.6618 12.2605 18.2095 12.122 18.691 11.8452C19.1846 11.5683 19.5698 11.177 19.8467 10.6714C20.1356 10.1538 20.2801 9.5579 20.2801 8.88376C20.2801 8.19758 20.1356 7.60771 19.8467 7.11415C19.5698 6.60854 19.1846 6.2173 18.691 5.94042C18.2095 5.66354 17.6618 5.5251 17.0478 5.5251C16.4459 5.5251 15.8982 5.66354 15.4046 5.94042C14.9231 6.2173 14.5378 6.60854 14.2489 7.11415C13.972 7.60771 13.8336 8.19758 13.8336 8.88376C13.8336 9.5579 13.972 10.1538 14.2489 10.6714C14.5378 11.177 14.9231 11.5683 15.4046 11.8452C15.8982 12.122 16.4459 12.2605 17.0478 12.2605ZM30.2794 13.6689V11.6465L30.1891 11.2673V7.81838C30.1891 7.08405 29.9725 6.51825 29.5391 6.12099C29.1177 5.71169 28.4797 5.50705 27.625 5.50705C27.0592 5.50705 26.5055 5.60335 25.9637 5.79596C25.422 5.97653 24.9646 6.22332 24.5914 6.53631L23.8691 5.23619C24.3627 4.83893 24.9525 4.53797 25.6387 4.33332C26.3369 4.11663 27.0652 4.00829 27.8236 4.00829C29.1358 4.00829 30.147 4.3273 30.8573 4.96533C31.5675 5.60335 31.9227 6.57844 31.9227 7.89061V13.6689H30.2794ZM27.1375 13.7773C26.4272 13.7773 25.8012 13.6569 25.2595 13.4161C24.7298 13.1754 24.3205 12.8443 24.0316 12.423C23.7427 11.9896 23.5982 11.5021 23.5982 10.9604C23.5982 10.4427 23.7186 9.97322 23.9594 9.55188C24.2122 9.13054 24.6155 8.79347 25.1692 8.54067C25.735 8.28787 26.4934 8.16147 27.4444 8.16147H30.4781V9.40742H27.5167C26.6499 9.40742 26.0661 9.55188 25.7651 9.8408C25.4642 10.1297 25.3137 10.4788 25.3137 10.8881C25.3137 11.3576 25.5003 11.7368 25.8735 12.0257C26.2466 12.3026 26.7643 12.441 27.4264 12.441C28.0764 12.441 28.6422 12.2966 29.1238 12.0077C29.6173 11.7188 29.9725 11.2974 30.1891 10.7437L30.5322 11.9354C30.3035 12.5012 29.9002 12.9527 29.3224 13.2897C28.7446 13.6148 28.0163 13.7773 27.1375 13.7773ZM39.3019 13.7773C38.3268 13.7773 37.454 13.5666 36.6836 13.1453C35.9252 12.7239 35.3293 12.1461 34.8959 11.4118C34.4625 10.6775 34.2458 9.83478 34.2458 8.88376C34.2458 7.93274 34.4625 7.09007 34.8959 6.35574C35.3293 5.62141 35.9252 5.04959 36.6836 4.6403C37.454 4.21896 38.3268 4.00829 39.3019 4.00829C40.1686 4.00829 40.9391 4.18284 41.6132 4.53195C42.2994 4.86902 42.8291 5.37462 43.2023 6.04876L41.8841 6.89746C41.5711 6.42797 41.1859 6.08488 40.7284 5.86819C40.283 5.63947 39.8015 5.5251 39.2838 5.5251C38.6578 5.5251 38.0981 5.66354 37.6045 5.94042C37.1109 6.2173 36.7197 6.60854 36.4308 7.11415C36.1419 7.60771 35.9974 8.19758 35.9974 8.88376C35.9974 9.56994 36.1419 10.1658 36.4308 10.6714C36.7197 11.177 37.1109 11.5683 37.6045 11.8452C38.0981 12.122 38.6578 12.2605 39.2838 12.2605C39.8015 12.2605 40.283 12.1521 40.7284 11.9354C41.1859 11.7067 41.5711 11.3576 41.8841 10.8881L43.2023 11.7188C42.8291 12.3809 42.2994 12.8925 41.6132 13.2536C40.9391 13.6027 40.1686 13.7773 39.3019 13.7773ZM45.3231 13.6689V4.09858H47.0566V13.6689H45.3231ZM46.1899 2.25673C45.8528 2.25673 45.5699 2.14839 45.3412 1.9317C45.1245 1.71501 45.0162 1.45017 45.0162 1.13718C45.0162 0.812147 45.1245 0.541287 45.3412 0.3246C45.5699 0.107912 45.8528 -0.000431742 46.1899 -0.000431742C46.527 -0.000431742 46.8038 0.107912 47.0205 0.3246C47.2493 0.529249 47.3636 0.78807 47.3636 1.10106C47.3636 1.42609 47.2553 1.70297 47.0386 1.9317C46.8219 2.14839 46.539 2.25673 46.1899 2.25673ZM54.4655 13.7773C53.5024 13.7773 52.6477 13.5666 51.9014 13.1453C51.155 12.7239 50.5651 12.1461 50.1317 11.4118C49.6984 10.6654 49.4817 9.82274 49.4817 8.88376C49.4817 7.93274 49.6984 7.09007 50.1317 6.35574C50.5651 5.62141 51.155 5.04959 51.9014 4.6403C52.6477 4.21896 53.5024 4.00829 54.4655 4.00829C55.4165 4.00829 56.2652 4.21896 57.0116 4.6403C57.77 5.04959 58.3599 5.62141 58.7812 6.35574C59.2146 7.07803 59.4313 7.9207 59.4313 8.88376C59.4313 9.83478 59.2146 10.6775 58.7812 11.4118C58.3599 12.1461 57.77 12.7239 57.0116 13.1453C56.2652 13.5666 55.4165 13.7773 54.4655 13.7773ZM54.4655 12.2605C55.0794 12.2605 55.6272 12.122 56.1087 11.8452C56.6023 11.5683 56.9875 11.177 57.2644 10.6714C57.5413 10.1538 57.6797 9.5579 57.6797 8.88376C57.6797 8.19758 57.5413 7.60771 57.2644 7.11415C56.9875 6.60854 56.6023 6.2173 56.1087 5.94042C55.6272 5.66354 55.0794 5.5251 54.4655 5.5251C53.8516 5.5251 53.3038 5.66354 52.8223 5.94042C52.3408 6.2173 51.9555 6.60854 51.6666 7.11415C51.3777 7.60771 51.2332 8.19758 51.2332 8.88376C51.2332 9.5579 51.3777 10.1538 51.6666 10.6714C51.9555 11.177 52.3408 11.5683 52.8223 11.8452C53.3038 12.122 53.8516 12.2605 54.4655 12.2605ZM65.8554 13.7773C65.0368 13.7773 64.3145 13.6268 63.6885 13.3259C63.0746 13.0249 62.5931 12.5674 62.244 11.9535C61.9069 11.3275 61.7384 10.545 61.7384 9.60605V4.09858H63.4719V9.40742C63.4719 10.3464 63.6946 11.0506 64.14 11.5201C64.5974 11.9896 65.2355 12.2244 66.0541 12.2244C66.656 12.2244 67.1796 12.104 67.625 11.8632C68.0705 11.6104 68.4135 11.2493 68.6543 10.7798C68.8951 10.2982 69.0154 9.72042 69.0154 9.04628V4.09858H70.749V13.6689H69.1057V11.0868L69.3766 11.7729C69.0636 12.411 68.5941 12.9045 67.9681 13.2536C67.3421 13.6027 66.6379 13.7773 65.8554 13.7773ZM76.7938 13.7773C75.9992 13.7773 75.2408 13.6689 74.5185 13.4523C73.8083 13.2356 73.2485 12.9707 72.8392 12.6577L73.5615 11.2854C73.9708 11.5623 74.4764 11.797 75.0783 11.9896C75.6802 12.1822 76.2942 12.2785 76.9202 12.2785C77.7267 12.2785 78.3046 12.1642 78.6537 11.9354C79.0148 11.7067 79.1954 11.3877 79.1954 10.9784C79.1954 10.6775 79.087 10.4427 78.8704 10.2742C78.6537 10.1056 78.3648 9.97924 78.0036 9.89497C77.6545 9.8107 77.2633 9.73847 76.8299 9.67828C76.3965 9.60605 75.9631 9.52179 75.5298 9.42548C75.0964 9.31714 74.6991 9.17268 74.338 8.9921C73.9768 8.79949 73.6879 8.54067 73.4712 8.21564C73.2545 7.87857 73.1462 7.43316 73.1462 6.8794C73.1462 6.30157 73.3087 5.79596 73.6337 5.36259C73.9588 4.92921 74.4162 4.59816 75.0061 4.36943C75.608 4.12867 76.3183 4.00829 77.1369 4.00829C77.7628 4.00829 78.3949 4.08654 79.0329 4.24303C79.6829 4.38749 80.2126 4.59816 80.6219 4.87504L79.8816 6.24739C79.4482 5.95848 78.9968 5.75985 78.5273 5.6515C78.0578 5.54316 77.5883 5.48899 77.1188 5.48899C76.3604 5.48899 75.7946 5.61539 75.4214 5.86819C75.0482 6.10896 74.8616 6.42195 74.8616 6.80717C74.8616 7.1322 74.97 7.385 75.1867 7.56558C75.4154 7.73411 75.7043 7.86653 76.0534 7.96284C76.4146 8.05914 76.8118 8.14341 77.2452 8.21564C77.6786 8.27583 78.112 8.3601 78.5453 8.46844C78.9787 8.56475 79.3699 8.70319 79.7191 8.88376C80.0802 9.06433 80.3691 9.31714 80.5858 9.64217C80.8145 9.9672 80.9289 10.4006 80.9289 10.9423C80.9289 11.5201 80.7604 12.0197 80.4233 12.441C80.0862 12.8624 79.6107 13.1934 78.9968 13.4342C78.3828 13.6629 77.6485 13.7773 76.7938 13.7773ZM93.8856 13.6689V11.6465L93.7953 11.2673V7.81838C93.7953 7.08405 93.5786 6.51825 93.1452 6.12099C92.7239 5.71169 92.0859 5.50705 91.2311 5.50705C90.6654 5.50705 90.1116 5.60335 89.5699 5.79596C89.0282 5.97653 88.5707 6.22332 88.1975 6.53631L87.4752 5.23619C87.9688 4.83893 88.5587 4.53797 89.2448 4.33332C89.9431 4.11663 90.6714 4.00829 91.4298 4.00829C92.7419 4.00829 93.7532 4.3273 94.4634 4.96533C95.1737 5.60335 95.5288 6.57844 95.5288 7.89061V13.6689H93.8856ZM90.7436 13.7773C90.0333 13.7773 89.4074 13.6569 88.8656 13.4161C88.336 13.1754 87.9267 12.8443 87.6377 12.423C87.3488 11.9896 87.2044 11.5021 87.2044 10.9604C87.2044 10.4427 87.3248 9.97322 87.5655 9.55188C87.8183 9.13054 88.2216 8.79347 88.7754 8.54067C89.3412 8.28787 90.0996 8.16147 91.0506 8.16147H94.0842V9.40742H91.1228C90.2561 9.40742 89.6722 9.55188 89.3712 9.8408C89.0703 10.1297 88.9198 10.4788 88.9198 10.8881C88.9198 11.3576 89.1064 11.7368 89.4796 12.0257C89.8528 12.3026 90.3704 12.441 91.0325 12.441C91.6826 12.441 92.2484 12.2966 92.7299 12.0077C93.2235 11.7188 93.5786 11.2974 93.7953 10.7437L94.1384 11.9354C93.9096 12.5012 93.5064 12.9527 92.9285 13.2897C92.3507 13.6148 91.6224 13.7773 90.7436 13.7773ZM103.847 4.00829C104.629 4.00829 105.316 4.15877 105.906 4.45972C106.507 4.76068 106.977 5.21813 107.314 5.83208C107.651 6.44602 107.82 7.22249 107.82 8.16147V13.6689H106.086V8.3601C106.086 7.43316 105.857 6.73494 105.4 6.26545C104.955 5.79596 104.323 5.56122 103.504 5.56122C102.89 5.56122 102.354 5.6816 101.897 5.92236C101.439 6.16313 101.084 6.51825 100.831 6.98774C100.591 7.45723 100.47 8.04109 100.47 8.7393V13.6689H98.7368V4.09858H100.398V6.68077L100.127 5.99459C100.44 5.36861 100.922 4.88106 101.572 4.53195C102.222 4.18284 102.98 4.00829 103.847 4.00829ZM114.982 13.7773C114.055 13.7773 113.225 13.5726 112.49 13.1633C111.768 12.754 111.196 12.1822 110.775 11.4479C110.354 10.7136 110.143 9.85885 110.143 8.88376C110.143 7.90867 110.354 7.05997 110.775 6.33768C111.196 5.60335 111.768 5.03154 112.49 4.62224C113.225 4.21294 114.055 4.00829 114.982 4.00829C115.789 4.00829 116.517 4.18886 117.167 4.55001C117.817 4.91115 118.335 5.45287 118.72 6.17517C119.117 6.89746 119.316 7.80032 119.316 8.88376C119.316 9.9672 119.123 10.8701 118.738 11.5924C118.365 12.3146 117.853 12.8624 117.203 13.2356C116.553 13.5967 115.813 13.7773 114.982 13.7773ZM115.127 12.2605C115.729 12.2605 116.27 12.122 116.752 11.8452C117.245 11.5683 117.631 11.177 117.908 10.6714C118.196 10.1538 118.341 9.5579 118.341 8.88376C118.341 8.19758 118.196 7.60771 117.908 7.11415C117.631 6.60854 117.245 6.2173 116.752 5.94042C116.27 5.66354 115.729 5.5251 115.127 5.5251C114.513 5.5251 113.965 5.66354 113.484 5.94042C113.002 6.2173 112.617 6.60854 112.328 7.11415C112.039 7.60771 111.894 8.19758 111.894 8.88376C111.894 9.5579 112.039 10.1538 112.328 10.6714C112.617 11.177 113.002 11.5683 113.484 11.8452C113.965 12.122 114.513 12.2605 115.127 12.2605ZM118.395 13.6689V11.0868L118.503 8.8657L118.323 6.64465V0.270428H120.056V13.6689H118.395ZM130.93 13.7773C130.136 13.7773 129.377 13.6689 128.655 13.4523C127.945 13.2356 127.385 12.9707 126.976 12.6577L127.698 11.2854C128.107 11.5623 128.613 11.797 129.215 11.9896C129.817 12.1822 130.431 12.2785 131.057 12.2785C131.863 12.2785 132.441 12.1642 132.79 11.9354C133.151 11.7067 133.332 11.3877 133.332 10.9784C133.332 10.6775 133.224 10.4427 133.007 10.2742C132.79 10.1056 132.501 9.97924 132.14 9.89497C131.791 9.8107 131.4 9.73847 130.967 9.67828C130.533 9.60605 130.1 9.52179 129.666 9.42548C129.233 9.31714 128.836 9.17268 128.475 8.9921C128.113 8.79949 127.825 8.54067 127.608 8.21564C127.391 7.87857 127.283 7.43316 127.283 6.8794C127.283 6.30157 127.445 5.79596 127.77 5.36259C128.095 4.92921 128.553 4.59816 129.143 4.36943C129.745 4.12867 130.455 4.00829 131.273 4.00829C131.899 4.00829 132.531 4.08654 133.17 4.24303C133.82 4.38749 134.349 4.59816 134.759 4.87504L134.018 6.24739C133.585 5.95848 133.133 5.75985 132.664 5.6515C132.194 5.54316 131.725 5.48899 131.255 5.48899C130.497 5.48899 129.931 5.61539 129.558 5.86819C129.185 6.10896 128.998 6.42195 128.998 6.80717C128.998 7.1322 129.107 7.385 129.323 7.56558C129.552 7.73411 129.841 7.86653 130.19 7.96284C130.551 8.05914 130.948 8.14341 131.382 8.21564C131.815 8.27583 132.249 8.3601 132.682 8.46844C133.115 8.56475 133.507 8.70319 133.856 8.88376C134.217 9.06433 134.506 9.31714 134.722 9.64217C134.951 9.9672 135.066 10.4006 135.066 10.9423C135.066 11.5201 134.897 12.0197 134.56 12.441C134.223 12.8624 133.747 13.1934 133.133 13.4342C132.519 13.6629 131.785 13.7773 130.93 13.7773ZM140.518 13.7773C139.555 13.7773 138.809 13.5185 138.279 13.0008C137.75 12.4832 137.485 11.7428 137.485 10.7798V2.00393H139.218V10.7075C139.218 11.2252 139.345 11.6225 139.597 11.8993C139.862 12.1762 140.236 12.3146 140.717 12.3146C141.259 12.3146 141.71 12.1642 142.071 11.8632L142.613 13.1092C142.348 13.3379 142.029 13.5064 141.656 13.6148C141.295 13.7231 140.916 13.7773 140.518 13.7773ZM135.86 5.5251V4.09858H141.963V5.5251H135.86ZM148.736 13.7773C147.917 13.7773 147.195 13.6268 146.569 13.3259C145.955 13.0249 145.473 12.5674 145.124 11.9535C144.787 11.3275 144.619 10.545 144.619 9.60605V4.09858H146.352V9.40742C146.352 10.3464 146.575 11.0506 147.02 11.5201C147.478 11.9896 148.116 12.2244 148.934 12.2244C149.536 12.2244 150.06 12.104 150.505 11.8632C150.951 11.6104 151.294 11.2493 151.534 10.7798C151.775 10.2982 151.896 9.72042 151.896 9.04628V4.09858H153.629V13.6689H151.986V11.0868L152.257 11.7729C151.944 12.411 151.474 12.9045 150.848 13.2536C150.222 13.6027 149.518 13.7773 148.736 13.7773ZM156.929 13.6689V4.09858H158.591V6.69883L158.428 6.04876C158.693 5.38666 159.138 4.88106 159.764 4.53195C160.39 4.18284 161.161 4.00829 162.076 4.00829V5.68762C162.003 5.67558 161.931 5.66956 161.859 5.66956C161.799 5.66956 161.739 5.66956 161.678 5.66956C160.751 5.66956 160.017 5.94644 159.475 6.5002C158.934 7.05395 158.663 7.85449 158.663 8.90182V13.6689H156.929ZM168.079 13.7773C167.152 13.7773 166.321 13.5726 165.587 13.1633C164.864 12.754 164.292 12.1822 163.871 11.4479C163.45 10.7136 163.239 9.85885 163.239 8.88376C163.239 7.90867 163.45 7.05997 163.871 6.33768C164.292 5.60335 164.864 5.03154 165.587 4.62224C166.321 4.21294 167.152 4.00829 168.079 4.00829C168.885 4.00829 169.613 4.18886 170.263 4.55001C170.914 4.91115 171.431 5.45287 171.816 6.17517C172.214 6.89746 172.412 7.80032 172.412 8.88376C172.412 9.9672 172.22 10.8701 171.834 11.5924C171.461 12.3146 170.95 12.8624 170.3 13.2356C169.649 13.5967 168.909 13.7773 168.079 13.7773ZM168.223 12.2605C168.825 12.2605 169.367 12.122 169.848 11.8452C170.342 11.5683 170.727 11.177 171.004 10.6714C171.293 10.1538 171.437 9.5579 171.437 8.88376C171.437 8.19758 171.293 7.60771 171.004 7.11415C170.727 6.60854 170.342 6.2173 169.848 5.94042C169.367 5.66354 168.825 5.5251 168.223 5.5251C167.609 5.5251 167.061 5.66354 166.58 5.94042C166.098 6.2173 165.713 6.60854 165.424 7.11415C165.135 7.60771 164.991 8.19758 164.991 8.88376C164.991 9.5579 165.135 10.1538 165.424 10.6714C165.713 11.177 166.098 11.5683 166.58 11.8452C167.061 12.122 167.609 12.2605 168.223 12.2605ZM171.491 13.6689V11.0868L171.6 8.8657L171.419 6.64465V0.270428H173.153V13.6689H171.491ZM176.848 17.2804C176.39 17.2804 175.945 17.2022 175.512 17.0457C175.078 16.9012 174.705 16.6845 174.392 16.3956L175.132 15.0955C175.373 15.3242 175.638 15.4988 175.927 15.6191C176.216 15.7395 176.523 15.7997 176.848 15.7997C177.269 15.7997 177.618 15.6914 177.895 15.4747C178.172 15.258 178.431 14.8728 178.672 14.319L179.268 13.0008L179.448 12.7841L183.204 4.09858H184.901L180.261 14.626C179.984 15.3001 179.671 15.8298 179.322 16.215C178.985 16.6002 178.611 16.8711 178.202 17.0276C177.793 17.1961 177.341 17.2804 176.848 17.2804ZM179.123 13.9759L174.753 4.09858H176.559L180.279 12.6216L179.123 13.9759ZM191.784 13.6689V1.02883H193.12V13.6689H191.784ZM197.233 13.6689V1.02883H198.334L204.113 10.8881H203.535L209.259 1.02883H210.361V13.6689H209.078V3.03319H209.385L204.113 12.0618H203.481L198.172 3.03319H198.515V13.6689H197.233ZM214.479 13.6689V1.02883H215.815V12.5133H222.894V13.6689H214.479ZM229.838 13.6689V1.02883H234.569C235.641 1.02883 236.562 1.20339 237.332 1.5525C238.103 1.88957 238.692 2.38313 239.102 3.03319C239.523 3.67122 239.734 4.44768 239.734 5.36259C239.734 6.25341 239.523 7.02386 239.102 7.67392C238.692 8.31195 238.103 8.80551 237.332 9.15462C236.562 9.49169 235.641 9.66022 234.569 9.66022H230.579L231.175 9.04628V13.6689H229.838ZM238.47 13.6689L235.219 9.08239H236.664L239.932 13.6689H238.47ZM231.175 9.15462L230.579 8.52261H234.533C235.797 8.52261 236.754 8.24574 237.404 7.69198C238.066 7.13822 238.397 6.36176 238.397 5.36259C238.397 4.35138 238.066 3.56889 237.404 3.01514C236.754 2.46138 235.797 2.1845 234.533 2.1845H230.579L231.175 1.5525V9.15462ZM246.481 13.7592C245.566 13.7592 244.741 13.5546 244.007 13.1453C243.285 12.7239 242.713 12.1521 242.292 11.4298C241.87 10.6955 241.66 9.85885 241.66 8.91988C241.66 7.96886 241.87 7.1322 242.292 6.40991C242.713 5.68762 243.285 5.12182 244.007 4.71252C244.729 4.30322 245.554 4.09858 246.481 4.09858C247.42 4.09858 248.251 4.30322 248.973 4.71252C249.707 5.12182 250.279 5.68762 250.688 6.40991C251.11 7.1322 251.32 7.96886 251.32 8.91988C251.32 9.85885 251.11 10.6955 250.688 11.4298C250.279 12.1521 249.707 12.7239 248.973 13.1453C248.238 13.5546 247.408 13.7592 246.481 13.7592ZM246.481 12.6216C247.167 12.6216 247.775 12.4711 248.305 12.1702C248.834 11.8572 249.25 11.4238 249.551 10.8701C249.864 10.3043 250.02 9.65421 250.02 8.91988C250.02 8.17351 249.864 7.52344 249.551 6.96969C249.25 6.41593 248.834 5.98857 248.305 5.68762C247.775 5.37462 247.173 5.21813 246.499 5.21813C245.825 5.21813 245.223 5.37462 244.693 5.68762C244.164 5.98857 243.742 6.41593 243.429 6.96969C243.116 7.52344 242.96 8.17351 242.96 8.91988C242.96 9.65421 243.116 10.3043 243.429 10.8701C243.742 11.4238 244.164 11.8572 244.693 12.1702C245.223 12.4711 245.819 12.6216 246.481 12.6216ZM257.856 13.7592C257.05 13.7592 256.345 13.6088 255.743 13.3078C255.142 13.0068 254.672 12.5554 254.335 11.9535C254.01 11.3516 253.847 10.5992 253.847 9.69634V4.18886H255.13V9.55188C255.13 10.5631 255.376 11.3275 255.87 11.8452C256.375 12.3508 257.08 12.6036 257.983 12.6036C258.645 12.6036 259.216 12.4711 259.698 12.2063C260.192 11.9294 260.565 11.5322 260.818 11.0145C261.082 10.4969 261.215 9.87691 261.215 9.15462V4.18886H262.497V13.6689H261.269V11.0687L261.468 11.5382C261.167 12.2364 260.697 12.7841 260.059 13.1814C259.433 13.5666 258.699 13.7592 257.856 13.7592ZM270.909 4.09858C271.68 4.09858 272.354 4.24905 272.932 4.55001C273.522 4.83892 273.979 5.28434 274.304 5.88625C274.641 6.48816 274.81 7.24657 274.81 8.16147V13.6689H273.528V8.28787C273.528 7.2887 273.275 6.53631 272.769 6.03071C272.276 5.51306 271.577 5.25424 270.675 5.25424C270 5.25424 269.411 5.39268 268.905 5.66956C268.411 5.9344 268.026 6.32564 267.749 6.84329C267.484 7.34889 267.352 7.96284 267.352 8.68513V13.6689H266.07V4.18886H267.298V6.78911L267.099 6.30157C267.4 5.61539 267.882 5.07969 268.544 4.69447C269.206 4.29721 269.994 4.09858 270.909 4.09858ZM282.047 13.7592C281.144 13.7592 280.331 13.5546 279.609 13.1453C278.899 12.736 278.339 12.1702 277.93 11.4479C277.52 10.7136 277.316 9.87089 277.316 8.91988C277.316 7.95682 277.52 7.11414 277.93 6.39185C278.339 5.66956 278.899 5.10978 279.609 4.71252C280.331 4.30322 281.144 4.09858 282.047 4.09858C282.877 4.09858 283.618 4.28517 284.268 4.65835C284.93 5.03154 285.454 5.57927 285.839 6.30157C286.236 7.01182 286.435 7.88459 286.435 8.91988C286.435 9.94312 286.242 10.8159 285.857 11.5382C285.472 12.2605 284.948 12.8142 284.286 13.1995C283.636 13.5726 282.889 13.7592 282.047 13.7592ZM282.137 12.6216C282.811 12.6216 283.413 12.4711 283.943 12.1702C284.484 11.8572 284.906 11.4238 285.207 10.8701C285.52 10.3043 285.676 9.65421 285.676 8.91988C285.676 8.17351 285.52 7.52344 285.207 6.96969C284.906 6.41593 284.484 5.98857 283.943 5.68762C283.413 5.37462 282.811 5.21813 282.137 5.21813C281.475 5.21813 280.879 5.37462 280.349 5.68762C279.82 5.98857 279.398 6.41593 279.085 6.96969C278.772 7.52344 278.616 8.17351 278.616 8.91988C278.616 9.65421 278.772 10.3043 279.085 10.8701C279.398 11.4238 279.82 11.8572 280.349 12.1702C280.879 12.4711 281.475 12.6216 282.137 12.6216ZM285.712 13.6689V10.8159L285.839 8.90182L285.658 6.98774V0.270428H286.94V13.6689H285.712ZM299.173 13.7592C298.234 13.7592 297.392 13.5546 296.645 13.1453C295.911 12.7239 295.333 12.1521 294.912 11.4298C294.49 10.6955 294.28 9.85885 294.28 8.91988C294.28 7.96886 294.49 7.1322 294.912 6.40991C295.333 5.68762 295.911 5.12182 296.645 4.71252C297.392 4.30322 298.234 4.09858 299.173 4.09858C299.98 4.09858 300.708 4.25507 301.358 4.56807C302.008 4.88106 302.52 5.35055 302.893 5.97653L301.936 6.6266C301.611 6.14507 301.208 5.78994 300.726 5.56122C300.245 5.33249 299.721 5.21813 299.155 5.21813C298.481 5.21813 297.873 5.37462 297.331 5.68762C296.79 5.98857 296.362 6.41593 296.049 6.96969C295.736 7.52344 295.58 8.17351 295.58 8.91988C295.58 9.66624 295.736 10.3163 296.049 10.8701C296.362 11.4238 296.79 11.8572 297.331 12.1702C297.873 12.4711 298.481 12.6216 299.155 12.6216C299.721 12.6216 300.245 12.5073 300.726 12.2785C301.208 12.0498 301.611 11.7007 301.936 11.2312L302.893 11.8813C302.52 12.4952 302.008 12.9647 301.358 13.2897C300.708 13.6027 299.98 13.7592 299.173 13.7592ZM309.33 13.7592C308.523 13.7592 307.819 13.6088 307.217 13.3078C306.615 13.0068 306.146 12.5554 305.809 11.9535C305.484 11.3516 305.321 10.5992 305.321 9.69634V4.18886H306.603V9.55188C306.603 10.5631 306.85 11.3275 307.344 11.8452C307.849 12.3508 308.554 12.6036 309.456 12.6036C310.119 12.6036 310.69 12.4711 311.172 12.2063C311.665 11.9294 312.039 11.5322 312.291 11.0145C312.556 10.4969 312.689 9.87691 312.689 9.15462V4.18886H313.971V13.6689H312.743V11.0687L312.941 11.5382C312.641 12.2364 312.171 12.7841 311.533 13.1814C310.907 13.5666 310.173 13.7592 309.33 13.7592ZM322.437 13.7592C321.619 13.7592 320.878 13.5726 320.216 13.1995C319.554 12.8142 319.025 12.2665 318.627 11.5562C318.242 10.8339 318.049 9.95516 318.049 8.91988C318.049 7.88459 318.242 7.01182 318.627 6.30157C319.013 5.57927 319.536 5.03154 320.198 4.65835C320.86 4.28517 321.607 4.09858 322.437 4.09858C323.34 4.09858 324.147 4.30322 324.857 4.71252C325.579 5.10978 326.145 5.67558 326.554 6.40991C326.964 7.1322 327.168 7.96886 327.168 8.91988C327.168 9.88293 326.964 10.7256 326.554 11.4479C326.145 12.1702 325.579 12.736 324.857 13.1453C324.147 13.5546 323.34 13.7592 322.437 13.7592ZM317.544 17.1721V4.18886H318.772V7.04192L318.645 8.93793L318.826 10.852V17.1721H317.544ZM322.347 12.6216C323.021 12.6216 323.623 12.4711 324.153 12.1702C324.683 11.8572 325.104 11.4238 325.417 10.8701C325.73 10.3043 325.886 9.65421 325.886 8.91988C325.886 8.18554 325.73 7.5415 325.417 6.98774C325.104 6.43399 324.683 6.00061 324.153 5.68762C323.623 5.37462 323.021 5.21813 322.347 5.21813C321.673 5.21813 321.065 5.37462 320.523 5.68762C319.994 6.00061 319.572 6.43399 319.259 6.98774C318.958 7.5415 318.808 8.18554 318.808 8.91988C318.808 9.65421 318.958 10.3043 319.259 10.8701C319.572 11.4238 319.994 11.8572 320.523 12.1702C321.065 12.4711 321.673 12.6216 322.347 12.6216ZM5.55313 39.7592C4.65027 39.7592 3.83769 39.5546 3.1154 39.1453C2.40514 38.736 1.84537 38.1702 1.43607 37.4479C1.02677 36.7136 0.822121 35.8709 0.822121 34.9199C0.822121 33.9568 1.02677 33.1141 1.43607 32.3919C1.84537 31.6696 2.40514 31.1098 3.1154 30.7125C3.83769 30.3032 4.65027 30.0986 5.55313 30.0986C6.38377 30.0986 7.12412 30.2852 7.77418 30.6584C8.43628 31.0315 8.95995 31.5793 9.34517 32.3016C9.74243 33.0118 9.94106 33.8846 9.94106 34.9199C9.94106 35.9431 9.74845 36.8159 9.36323 37.5382C8.978 38.2605 8.45434 38.8142 7.79224 39.1995C7.14218 39.5726 6.39581 39.7592 5.55313 39.7592ZM5.64342 38.6216C6.31756 38.6216 6.91947 38.4711 7.44915 38.1702C7.99087 37.8572 8.41221 37.4238 8.71316 36.8701C9.02616 36.3043 9.18265 35.6542 9.18265 34.9199C9.18265 34.1735 9.02616 33.5234 8.71316 32.9697C8.41221 32.4159 7.99087 31.9886 7.44915 31.6876C6.91947 31.3746 6.31756 31.2181 5.64342 31.2181C4.98132 31.2181 4.38543 31.3746 3.85575 31.6876C3.32607 31.9886 2.90473 32.4159 2.59174 32.9697C2.27874 33.5234 2.12225 34.1735 2.12225 34.9199C2.12225 35.6542 2.27874 36.3043 2.59174 36.8701C2.90473 37.4238 3.32607 37.8572 3.85575 38.1702C4.38543 38.4711 4.98132 38.6216 5.64342 38.6216ZM9.21877 39.6689V36.8159L9.34517 34.9018L9.16459 32.9877V26.2704H10.4467V39.6689H9.21877ZM18.044 39.7592C17.0569 39.7592 16.1901 39.5546 15.4437 39.1453C14.6974 38.7239 14.1135 38.1521 13.6922 37.4298C13.2708 36.6955 13.0602 35.8589 13.0602 34.9199C13.0602 33.9809 13.2588 33.1503 13.6561 32.428C14.0654 31.7057 14.6191 31.1399 15.3173 30.7306C16.0276 30.3092 16.8221 30.0986 17.7009 30.0986C18.5917 30.0986 19.3802 30.3032 20.0664 30.7125C20.7646 31.1098 21.3124 31.6756 21.7096 32.4099C22.1069 33.1322 22.3055 33.9689 22.3055 34.9199C22.3055 34.9801 22.2995 35.0463 22.2875 35.1185C22.2875 35.1787 22.2875 35.2449 22.2875 35.3171H14.0353V34.3601H21.6013L21.0957 34.7393C21.0957 34.0531 20.9452 33.4452 20.6442 32.9155C20.3553 32.3738 19.9581 31.9525 19.4525 31.6515C18.9469 31.3505 18.363 31.2001 17.7009 31.2001C17.0508 31.2001 16.467 31.3505 15.9493 31.6515C15.4317 31.9525 15.0284 32.3738 14.7395 32.9155C14.4506 33.4572 14.3061 34.0772 14.3061 34.7754V34.974C14.3061 35.6963 14.4626 36.3344 14.7756 36.8881C15.1006 37.4298 15.5461 37.8572 16.1119 38.1702C16.6897 38.4711 17.3458 38.6216 18.0801 38.6216C18.6579 38.6216 19.1936 38.5193 19.6872 38.3146C20.1928 38.11 20.6262 37.797 20.9873 37.3757L21.7096 38.2063C21.2883 38.7119 20.7586 39.0971 20.1206 39.362C19.4946 39.6268 18.8024 39.7592 18.044 39.7592ZM27.4612 39.7592C26.6787 39.7592 25.9383 39.6509 25.2401 39.4342C24.5419 39.2055 23.9942 38.9226 23.5969 38.5855L24.1747 37.5743C24.5599 37.8632 25.0535 38.116 25.6554 38.3327C26.2573 38.5374 26.8893 38.6397 27.5514 38.6397C28.4543 38.6397 29.1044 38.5012 29.5016 38.2244C29.8989 37.9354 30.0975 37.5562 30.0975 37.0868C30.0975 36.7376 29.9832 36.4668 29.7544 36.2742C29.5377 36.0695 29.2488 35.919 28.8877 35.8227C28.5265 35.7144 28.1233 35.6241 27.6778 35.5519C27.2324 35.4797 26.787 35.3954 26.3416 35.2991C25.9082 35.2028 25.511 35.0643 25.1498 34.8838C24.7887 34.6911 24.4937 34.4323 24.265 34.1073C24.0483 33.7823 23.94 33.3489 23.94 32.8072C23.94 32.2895 24.0844 31.8261 24.3734 31.4168C24.6623 31.0075 25.0836 30.6884 25.6374 30.4597C26.2032 30.219 26.8893 30.0986 27.6959 30.0986C28.3098 30.0986 28.9238 30.1828 29.5377 30.3514C30.1517 30.5079 30.6573 30.7185 31.0546 30.9834L30.4948 32.0126C30.0734 31.7237 29.622 31.5191 29.1405 31.3987C28.659 31.2663 28.1774 31.2001 27.6959 31.2001C26.8412 31.2001 26.2092 31.3505 25.7999 31.6515C25.4026 31.9404 25.204 32.3136 25.204 32.7711C25.204 33.1322 25.3123 33.4151 25.529 33.6197C25.7578 33.8244 26.0527 33.9869 26.4138 34.1073C26.787 34.2156 27.1903 34.3059 27.6237 34.3782C28.0691 34.4504 28.5085 34.5407 28.9419 34.649C29.3873 34.7453 29.7905 34.8838 30.1517 35.0643C30.5249 35.2329 30.8198 35.4797 31.0365 35.8047C31.2652 36.1177 31.3796 36.533 31.3796 37.0506C31.3796 37.6044 31.2231 38.0859 30.9101 38.4952C30.6091 38.8925 30.1637 39.2055 29.5739 39.4342C28.996 39.6509 28.2918 39.7592 27.4612 39.7592ZM33.7321 39.6689V30.1889H35.0142V39.6689H33.7321ZM34.3822 28.0942C34.1173 28.0942 33.8946 28.0039 33.7141 27.8234C33.5335 27.6428 33.4432 27.4261 33.4432 27.1733C33.4432 26.9205 33.5335 26.7098 33.7141 26.5413C33.8946 26.3607 34.1173 26.2704 34.3822 26.2704C34.647 26.2704 34.8697 26.3547 35.0503 26.5232C35.2309 26.6918 35.3212 26.9024 35.3212 27.1552C35.3212 27.4201 35.2309 27.6428 35.0503 27.8234C34.8818 28.0039 34.6591 28.0942 34.3822 28.0942ZM42.6263 43.2623C41.7596 43.2623 40.9289 43.1359 40.1344 42.8831C39.3399 42.6303 38.6959 42.2692 38.2023 41.7997L38.8523 40.8246C39.2978 41.2219 39.8455 41.5349 40.4956 41.7636C41.1577 42.0044 41.8559 42.1247 42.5902 42.1247C43.794 42.1247 44.6788 41.8418 45.2446 41.276C45.8104 40.7223 46.0933 39.8555 46.0933 38.6758V36.3103L46.2739 34.6851L46.1475 33.06V30.1889H47.3754V38.5133C47.3754 40.1505 46.9721 41.3483 46.1656 42.1067C45.371 42.8771 44.1913 43.2623 42.6263 43.2623ZM42.3916 39.3078C41.4887 39.3078 40.6761 39.1152 39.9538 38.73C39.2316 38.3327 38.6597 37.785 38.2384 37.0868C37.8291 36.3885 37.6245 35.588 37.6245 34.6851C37.6245 33.7823 37.8291 32.9877 38.2384 32.3016C38.6597 31.6034 39.2316 31.0616 39.9538 30.6764C40.6761 30.2912 41.4887 30.0986 42.3916 30.0986C43.2343 30.0986 43.9927 30.2731 44.6668 30.6222C45.3409 30.9713 45.8766 31.489 46.2739 32.1752C46.6712 32.8613 46.8698 33.698 46.8698 34.6851C46.8698 35.6723 46.6712 36.5089 46.2739 37.1951C45.8766 37.8813 45.3409 38.4049 44.6668 38.7661C43.9927 39.1272 43.2343 39.3078 42.3916 39.3078ZM42.518 38.1702C43.2162 38.1702 43.8362 38.0257 44.3779 37.7368C44.9196 37.4359 45.347 37.0266 45.66 36.5089C45.9729 35.9792 46.1294 35.3713 46.1294 34.6851C46.1294 33.999 45.9729 33.397 45.66 32.8794C45.347 32.3618 44.9196 31.9585 44.3779 31.6696C43.8362 31.3686 43.2162 31.2181 42.518 31.2181C41.8318 31.2181 41.2118 31.3686 40.6581 31.6696C40.1164 31.9585 39.689 32.3618 39.376 32.8794C39.0751 33.397 38.9246 33.999 38.9246 34.6851C38.9246 35.3713 39.0751 35.9792 39.376 36.5089C39.689 37.0266 40.1164 37.4359 40.6581 37.7368C41.2118 38.0257 41.8318 38.1702 42.518 38.1702ZM55.7823 30.0986C56.5528 30.0986 57.2269 30.2491 57.8048 30.55C58.3946 30.8389 58.8521 31.2843 59.1771 31.8862C59.5142 32.4882 59.6827 33.2466 59.6827 34.1615V39.6689H58.4006V34.2879C58.4006 33.2887 58.1478 32.5363 57.6422 32.0307C57.1487 31.5131 56.4505 31.2542 55.5476 31.2542C54.8735 31.2542 54.2836 31.3927 53.778 31.6696C53.2844 31.9344 52.8992 32.3256 52.6223 32.8433C52.3575 33.3489 52.225 33.9628 52.225 34.6851V39.6689H50.943V30.1889H52.1709V32.7891L51.9722 32.3016C52.2732 31.6154 52.7547 31.0797 53.4168 30.6945C54.0789 30.2972 54.8674 30.0986 55.7823 30.0986ZM67.1725 39.7592C66.1854 39.7592 65.3187 39.5546 64.5723 39.1453C63.8259 38.7239 63.2421 38.1521 62.8207 37.4298C62.3994 36.6955 62.1887 35.8589 62.1887 34.9199C62.1887 33.9809 62.3874 33.1503 62.7846 32.428C63.1939 31.7057 63.7477 31.1399 64.4459 30.7306C65.1561 30.3092 65.9507 30.0986 66.8295 30.0986C67.7203 30.0986 68.5088 30.3032 69.195 30.7125C69.8932 31.1098 70.4409 31.6756 70.8382 32.4099C71.2354 33.1322 71.4341 33.9689 71.4341 34.9199C71.4341 34.9801 71.428 35.0463 71.416 35.1185C71.416 35.1787 71.416 35.2449 71.416 35.3171H63.1638V34.3601H70.7298L70.2242 34.7393C70.2242 34.0531 70.0738 33.4452 69.7728 32.9155C69.4839 32.3738 69.0866 31.9525 68.581 31.6515C68.0754 31.3505 67.4916 31.2001 66.8295 31.2001C66.1794 31.2001 65.5955 31.3505 65.0779 31.6515C64.5603 31.9525 64.157 32.3738 63.8681 32.9155C63.5791 33.4572 63.4347 34.0772 63.4347 34.7754V34.974C63.4347 35.6963 63.5912 36.3344 63.9042 36.8881C64.2292 37.4298 64.6746 37.8572 65.2404 38.1702C65.8182 38.4711 66.4743 38.6216 67.2087 38.6216C67.7865 38.6216 68.3222 38.5193 68.8158 38.3146C69.3214 38.11 69.7547 37.797 70.1159 37.3757L70.8382 38.2063C70.4168 38.7119 69.8872 39.0971 69.2491 39.362C68.6231 39.6268 67.931 39.7592 67.1725 39.7592ZM77.8176 39.7592C76.9147 39.7592 76.1022 39.5546 75.3799 39.1453C74.6696 38.736 74.1098 38.1702 73.7005 37.4479C73.2912 36.7136 73.0866 35.8709 73.0866 34.9199C73.0866 33.9568 73.2912 33.1141 73.7005 32.3919C74.1098 31.6696 74.6696 31.1098 75.3799 30.7125C76.1022 30.3032 76.9147 30.0986 77.8176 30.0986C78.6482 30.0986 79.3886 30.2852 80.0387 30.6584C80.7008 31.0315 81.2244 31.5793 81.6096 32.3016C82.0069 33.0118 82.2055 33.8846 82.2055 34.9199C82.2055 35.9431 82.0129 36.8159 81.6277 37.5382C81.2425 38.2605 80.7188 38.8142 80.0567 39.1995C79.4066 39.5726 78.6603 39.7592 77.8176 39.7592ZM77.9079 38.6216C78.582 38.6216 79.1839 38.4711 79.7136 38.1702C80.2553 37.8572 80.6767 37.4238 80.9776 36.8701C81.2906 36.3043 81.4471 35.6542 81.4471 34.9199C81.4471 34.1735 81.2906 33.5234 80.9776 32.9697C80.6767 32.4159 80.2553 31.9886 79.7136 31.6876C79.1839 31.3746 78.582 31.2181 77.9079 31.2181C77.2458 31.2181 76.6499 31.3746 76.1202 31.6876C75.5905 31.9886 75.1692 32.4159 74.8562 32.9697C74.5432 33.5234 74.3867 34.1735 74.3867 34.9199C74.3867 35.6542 74.5432 36.3043 74.8562 36.8701C75.1692 37.4238 75.5905 37.8572 76.1202 38.1702C76.6499 38.4711 77.2458 38.6216 77.9079 38.6216ZM81.4832 39.6689V36.8159L81.6096 34.9018L81.4291 32.9877V26.2704H82.7111V39.6689H81.4832ZM94.0051 39.7592C93.1143 39.7592 92.4281 39.5185 91.9466 39.0369C91.4651 38.5554 91.2243 37.8753 91.2243 36.9965V28.0942H92.5064V36.9242C92.5064 37.478 92.6448 37.9053 92.9217 38.2063C93.2106 38.5073 93.6199 38.6577 94.1496 38.6577C94.7154 38.6577 95.1849 38.4952 95.5581 38.1702L96.0095 39.0911C95.7567 39.3198 95.4497 39.4884 95.0886 39.5967C94.7395 39.7051 94.3783 39.7592 94.0051 39.7592ZM89.5269 31.2542V30.1889H95.3955V31.2542H89.5269ZM101.873 39.7592C100.958 39.7592 100.133 39.5546 99.3988 39.1453C98.6765 38.7239 98.1047 38.1521 97.6833 37.4298C97.262 36.6955 97.0513 35.8589 97.0513 34.9199C97.0513 33.9689 97.262 33.1322 97.6833 32.4099C98.1047 31.6876 98.6765 31.1218 99.3988 30.7125C100.121 30.3032 100.946 30.0986 101.873 30.0986C102.812 30.0986 103.642 30.3032 104.365 30.7125C105.099 31.1218 105.671 31.6876 106.08 32.4099C106.501 33.1322 106.712 33.9689 106.712 34.9199C106.712 35.8589 106.501 36.6955 106.08 37.4298C105.671 38.1521 105.099 38.7239 104.365 39.1453C103.63 39.5546 102.8 39.7592 101.873 39.7592ZM101.873 38.6216C102.559 38.6216 103.167 38.4711 103.696 38.1702C104.226 37.8572 104.641 37.4238 104.942 36.8701C105.255 36.3043 105.412 35.6542 105.412 34.9199C105.412 34.1735 105.255 33.5234 104.942 32.9697C104.641 32.4159 104.226 31.9886 103.696 31.6876C103.167 31.3746 102.565 31.2181 101.891 31.2181C101.217 31.2181 100.615 31.3746 100.085 31.6876C99.5553 31.9886 99.1339 32.4159 98.8209 32.9697C98.5079 33.5234 98.3514 34.1735 98.3514 34.9199C98.3514 35.6542 98.5079 36.3043 98.8209 36.8701C99.1339 37.4238 99.5553 37.8572 100.085 38.1702C100.615 38.4711 101.211 38.6216 101.873 38.6216ZM125.883 30.0083C126.653 30.0083 127.334 30.1588 127.923 30.4597C128.513 30.7607 128.971 31.2181 129.296 31.8321C129.633 32.446 129.801 33.2225 129.801 34.1615V39.6689H128.068V34.3601C128.068 33.4332 127.851 32.7349 127.418 32.2655C126.984 31.796 126.376 31.5612 125.594 31.5612C125.016 31.5612 124.511 31.6816 124.077 31.9224C123.644 32.1631 123.307 32.5183 123.066 32.9877C122.837 33.4572 122.723 34.0411 122.723 34.7393V39.6689H120.989V34.3601C120.989 33.4332 120.773 32.7349 120.339 32.2655C119.918 31.796 119.31 31.5612 118.516 31.5612C117.95 31.5612 117.45 31.6816 117.017 31.9224C116.583 32.1631 116.246 32.5183 116.006 32.9877C115.765 33.4572 115.644 34.0411 115.644 34.7393V39.6689H113.911V30.0986H115.572V32.6447L115.301 31.9946C115.602 31.3686 116.066 30.8811 116.692 30.532C117.318 30.1828 118.046 30.0083 118.877 30.0083C119.792 30.0083 120.58 30.237 121.242 30.6945C121.904 31.1399 122.338 31.82 122.542 32.7349L121.838 32.446C122.127 31.7117 122.633 31.1218 123.355 30.6764C124.077 30.231 124.92 30.0083 125.883 30.0083ZM138.932 39.6689V37.6465L138.842 37.2673V33.8184C138.842 33.084 138.625 32.5183 138.191 32.121C137.77 31.7117 137.132 31.507 136.277 31.507C135.712 31.507 135.158 31.6034 134.616 31.796C134.074 31.9765 133.617 32.2233 133.244 32.5363L132.521 31.2362C133.015 30.8389 133.605 30.538 134.291 30.3333C134.989 30.1166 135.718 30.0083 136.476 30.0083C137.788 30.0083 138.799 30.3273 139.51 30.9653C140.22 31.6034 140.575 32.5784 140.575 33.8906V39.6689H138.932ZM135.79 39.7773C135.08 39.7773 134.454 39.6569 133.912 39.4161C133.382 39.1754 132.973 38.8443 132.684 38.423C132.395 37.9896 132.251 37.5021 132.251 36.9604C132.251 36.4427 132.371 35.9732 132.612 35.5519C132.865 35.1305 133.268 34.7935 133.822 34.5407C134.387 34.2879 135.146 34.1615 136.097 34.1615H139.13V35.4074H136.169C135.302 35.4074 134.718 35.5519 134.418 35.8408C134.117 36.1297 133.966 36.4788 133.966 36.8881C133.966 37.3576 134.153 37.7368 134.526 38.0257C134.899 38.3026 135.417 38.441 136.079 38.441C136.729 38.441 137.295 38.2966 137.776 38.0077C138.27 37.7188 138.625 37.2974 138.842 36.7437L139.185 37.9354C138.956 38.5012 138.553 38.9527 137.975 39.2897C137.397 39.6148 136.669 39.7773 135.79 39.7773ZM143.783 39.6689V30.0986H145.517V39.6689H143.783ZM144.65 28.2567C144.313 28.2567 144.03 28.1484 143.801 27.9317C143.584 27.715 143.476 27.4502 143.476 27.1372C143.476 26.8121 143.584 26.5413 143.801 26.3246C144.03 26.1079 144.313 25.9996 144.65 25.9996C144.987 25.9996 145.264 26.1079 145.48 26.3246C145.709 26.5292 145.824 26.7881 145.824 27.1011C145.824 27.4261 145.715 27.703 145.498 27.9317C145.282 28.1484 144.999 28.2567 144.65 28.2567ZM153.937 30.0083C154.719 30.0083 155.405 30.1588 155.995 30.4597C156.597 30.7607 157.067 31.2181 157.404 31.8321C157.741 32.446 157.909 33.2225 157.909 34.1615V39.6689H156.176V34.3601C156.176 33.4332 155.947 32.7349 155.49 32.2655C155.044 31.796 154.412 31.5612 153.594 31.5612C152.98 31.5612 152.444 31.6816 151.986 31.9224C151.529 32.1631 151.174 32.5183 150.921 32.9877C150.68 33.4572 150.56 34.0411 150.56 34.7393V39.6689H148.826V30.0986H150.488V32.6808L150.217 31.9946C150.53 31.3686 151.011 30.8811 151.661 30.532C152.311 30.1828 153.07 30.0083 153.937 30.0083ZM164.404 39.7773C163.441 39.7773 162.694 39.5185 162.165 39.0008C161.635 38.4832 161.37 37.7428 161.37 36.7798V28.0039H163.104V36.7075C163.104 37.2252 163.23 37.6225 163.483 37.8993C163.748 38.1762 164.121 38.3146 164.602 38.3146C165.144 38.3146 165.596 38.1642 165.957 37.8632L166.498 39.1092C166.234 39.3379 165.915 39.5064 165.541 39.6148C165.18 39.7231 164.801 39.7773 164.404 39.7773ZM159.745 31.5251V30.0986H165.848V31.5251H159.745ZM174.535 39.6689V37.6465L174.445 37.2673V33.8184C174.445 33.084 174.228 32.5183 173.795 32.121C173.373 31.7117 172.735 31.507 171.881 31.507C171.315 31.507 170.761 31.6034 170.219 31.796C169.678 31.9765 169.22 32.2233 168.847 32.5363L168.125 31.2362C168.618 30.8389 169.208 30.538 169.894 30.3333C170.593 30.1166 171.321 30.0083 172.079 30.0083C173.391 30.0083 174.403 30.3273 175.113 30.9653C175.823 31.6034 176.178 32.5784 176.178 33.8906V39.6689H174.535ZM171.393 39.7773C170.683 39.7773 170.057 39.6569 169.515 39.4161C168.985 39.1754 168.576 38.8443 168.287 38.423C167.998 37.9896 167.854 37.5021 167.854 36.9604C167.854 36.4427 167.974 35.9732 168.215 35.5519C168.468 35.1305 168.871 34.7935 169.425 34.5407C169.991 34.2879 170.749 34.1615 171.7 34.1615H174.734V35.4074H171.772C170.906 35.4074 170.322 35.5519 170.021 35.8408C169.72 36.1297 169.569 36.4788 169.569 36.8881C169.569 37.3576 169.756 37.7368 170.129 38.0257C170.502 38.3026 171.02 38.441 171.682 38.441C172.332 38.441 172.898 38.2966 173.379 38.0077C173.873 37.7188 174.228 37.2974 174.445 36.7437L174.788 37.9354C174.559 38.5012 174.156 38.9527 173.578 39.2897C173 39.6148 172.272 39.7773 171.393 39.7773ZM179.386 39.6689V30.0986H181.12V39.6689H179.386ZM180.253 28.2567C179.916 28.2567 179.633 28.1484 179.404 27.9317C179.188 27.715 179.079 27.4502 179.079 27.1372C179.079 26.8121 179.188 26.5413 179.404 26.3246C179.633 26.1079 179.916 25.9996 180.253 25.9996C180.59 25.9996 180.867 26.1079 181.084 26.3246C181.312 26.5292 181.427 26.7881 181.427 27.1011C181.427 27.4261 181.318 27.703 181.102 27.9317C180.885 28.1484 180.602 28.2567 180.253 28.2567ZM189.54 30.0083C190.322 30.0083 191.008 30.1588 191.598 30.4597C192.2 30.7607 192.67 31.2181 193.007 31.8321C193.344 32.446 193.512 33.2225 193.512 34.1615V39.6689H191.779V34.3601C191.779 33.4332 191.55 32.7349 191.093 32.2655C190.647 31.796 190.015 31.5612 189.197 31.5612C188.583 31.5612 188.047 31.6816 187.59 31.9224C187.132 32.1631 186.777 32.5183 186.524 32.9877C186.283 33.4572 186.163 34.0411 186.163 34.7393V39.6689H184.43V30.0986H186.091V32.6808L185.82 31.9946C186.133 31.3686 186.615 30.8811 187.265 30.532C187.915 30.1828 188.673 30.0083 189.54 30.0083ZM201.823 39.6689V29.2499C201.823 28.3109 202.094 27.5645 202.635 27.0108C203.189 26.445 203.972 26.1621 204.983 26.1621C205.356 26.1621 205.711 26.2102 206.048 26.3065C206.397 26.3908 206.692 26.5292 206.933 26.7219L206.409 28.04C206.229 27.8956 206.024 27.7872 205.795 27.715C205.567 27.6307 205.326 27.5886 205.073 27.5886C204.567 27.5886 204.182 27.7331 203.917 28.022C203.653 28.2989 203.52 28.7142 203.52 29.2679V30.55L203.556 31.3445V39.6689H201.823ZM200.198 31.5251V30.0986H206.301V31.5251H200.198ZM207.936 39.6689V30.0986H209.597V32.6988L209.435 32.0488C209.699 31.3867 210.145 30.8811 210.771 30.532C211.397 30.1828 212.167 30.0083 213.082 30.0083V31.6876C213.01 31.6756 212.938 31.6696 212.865 31.6696C212.805 31.6696 212.745 31.6696 212.685 31.6696C211.758 31.6696 211.024 31.9464 210.482 32.5002C209.94 33.054 209.669 33.8545 209.669 34.9018V39.6689H207.936ZM219.392 39.7773C218.369 39.7773 217.466 39.5666 216.683 39.1453C215.913 38.7239 215.311 38.1461 214.878 37.4118C214.456 36.6775 214.246 35.8348 214.246 34.8838C214.246 33.9327 214.45 33.0901 214.86 32.3557C215.281 31.6214 215.853 31.0496 216.575 30.6403C217.309 30.219 218.134 30.0083 219.049 30.0083C219.976 30.0083 220.795 30.2129 221.505 30.6222C222.215 31.0315 222.769 31.6094 223.166 32.3557C223.575 33.0901 223.78 33.9508 223.78 34.9379C223.78 35.0102 223.774 35.0944 223.762 35.1907C223.762 35.287 223.756 35.3773 223.744 35.4616H215.6V34.2156H222.841L222.137 34.649C222.149 34.0351 222.022 33.4873 221.758 33.0058C221.493 32.5243 221.126 32.1511 220.656 31.8862C220.199 31.6094 219.663 31.4709 219.049 31.4709C218.447 31.4709 217.911 31.6094 217.442 31.8862C216.972 32.1511 216.605 32.5303 216.34 33.0239C216.076 33.5054 215.943 34.0591 215.943 34.6851V34.974C215.943 35.6121 216.088 36.1839 216.376 36.6895C216.677 37.1831 217.093 37.5683 217.622 37.8452C218.152 38.122 218.76 38.2605 219.446 38.2605C220.012 38.2605 220.524 38.1642 220.981 37.9716C221.451 37.7789 221.86 37.49 222.209 37.1048L223.166 38.2244C222.733 38.73 222.191 39.1152 221.541 39.38C220.903 39.6449 220.187 39.7773 219.392 39.7773ZM228.932 39.7773C228.137 39.7773 227.379 39.6689 226.657 39.4523C225.946 39.2356 225.387 38.9707 224.977 38.6577L225.7 37.2854C226.109 37.5623 226.614 37.797 227.216 37.9896C227.818 38.1822 228.432 38.2785 229.058 38.2785C229.865 38.2785 230.443 38.1642 230.792 37.9354C231.153 37.7067 231.333 37.3877 231.333 36.9784C231.333 36.6775 231.225 36.4427 231.008 36.2742C230.792 36.1056 230.503 35.9792 230.142 35.895C229.793 35.8107 229.401 35.7385 228.968 35.6783C228.535 35.6061 228.101 35.5218 227.668 35.4255C227.234 35.3171 226.837 35.1727 226.476 34.9921C226.115 34.7995 225.826 34.5407 225.609 34.2156C225.393 33.8786 225.284 33.4332 225.284 32.8794C225.284 32.3016 225.447 31.796 225.772 31.3626C226.097 30.9292 226.554 30.5982 227.144 30.3694C227.746 30.1287 228.456 30.0083 229.275 30.0083C229.901 30.0083 230.533 30.0865 231.171 30.243C231.821 30.3875 232.351 30.5982 232.76 30.875L232.02 32.2474C231.586 31.9585 231.135 31.7598 230.665 31.6515C230.196 31.5432 229.726 31.489 229.257 31.489C228.498 31.489 227.933 31.6154 227.559 31.8682C227.186 32.109 227 32.4219 227 32.8072C227 33.1322 227.108 33.385 227.325 33.5656C227.553 33.7341 227.842 33.8665 228.191 33.9628C228.553 34.0591 228.95 34.1434 229.383 34.2156C229.817 34.2758 230.25 34.3601 230.683 34.4684C231.117 34.5647 231.508 34.7032 231.857 34.8838C232.218 35.0643 232.507 35.3171 232.724 35.6422C232.953 35.9672 233.067 36.4006 233.067 36.9423C233.067 37.5201 232.898 38.0197 232.561 38.441C232.224 38.8624 231.749 39.1934 231.135 39.4342C230.521 39.6629 229.787 39.7773 228.932 39.7773ZM240.344 30.0083C241.126 30.0083 241.812 30.1588 242.402 30.4597C243.004 30.7607 243.474 31.2181 243.811 31.8321C244.148 32.446 244.316 33.2225 244.316 34.1615V39.6689H242.583V34.3601C242.583 33.4332 242.354 32.7349 241.897 32.2655C241.451 31.796 240.819 31.5612 240.001 31.5612C239.387 31.5612 238.851 31.6816 238.393 31.9224C237.936 32.1631 237.581 32.5183 237.328 32.9877C237.087 33.4572 236.967 34.0411 236.967 34.7393V39.6689H235.233V26.2704H236.967V32.6808L236.624 31.9946C236.937 31.3686 237.418 30.8811 238.068 30.532C238.718 30.1828 239.477 30.0083 240.344 30.0083ZM252.635 30.0083C253.417 30.0083 254.103 30.1588 254.693 30.4597C255.295 30.7607 255.764 31.2181 256.102 31.8321C256.439 32.446 256.607 33.2225 256.607 34.1615V39.6689H254.874V34.3601C254.874 33.4332 254.645 32.7349 254.187 32.2655C253.742 31.796 253.11 31.5612 252.291 31.5612C251.678 31.5612 251.142 31.6816 250.684 31.9224C250.227 32.1631 249.872 32.5183 249.619 32.9877C249.378 33.4572 249.258 34.0411 249.258 34.7393V39.6689H247.524V30.0986H249.186V32.6808L248.915 31.9946C249.228 31.3686 249.709 30.8811 250.359 30.532C251.009 30.1828 251.768 30.0083 252.635 30.0083ZM264.077 39.7773C263.054 39.7773 262.151 39.5666 261.368 39.1453C260.598 38.7239 259.996 38.1461 259.563 37.4118C259.141 36.6775 258.93 35.8348 258.93 34.8838C258.93 33.9327 259.135 33.0901 259.544 32.3557C259.966 31.6214 260.538 31.0496 261.26 30.6403C261.994 30.219 262.819 30.0083 263.734 30.0083C264.661 30.0083 265.479 30.2129 266.19 30.6222C266.9 31.0315 267.454 31.6094 267.851 32.3557C268.26 33.0901 268.465 33.9508 268.465 34.9379C268.465 35.0102 268.459 35.0944 268.447 35.1907C268.447 35.287 268.441 35.3773 268.429 35.4616H260.285V34.2156H267.526L266.822 34.649C266.834 34.0351 266.707 33.4873 266.442 33.0058C266.177 32.5243 265.81 32.1511 265.341 31.8862C264.883 31.6094 264.348 31.4709 263.734 31.4709C263.132 31.4709 262.596 31.6094 262.127 31.8862C261.657 32.1511 261.29 32.5303 261.025 33.0239C260.76 33.5054 260.628 34.0591 260.628 34.6851V34.974C260.628 35.6121 260.772 36.1839 261.061 36.6895C261.362 37.1831 261.778 37.5683 262.307 37.8452C262.837 38.122 263.445 38.2605 264.131 38.2605C264.697 38.2605 265.208 38.1642 265.666 37.9716C266.135 37.7789 266.545 37.49 266.894 37.1048L267.851 38.2244C267.417 38.73 266.876 39.1152 266.226 39.38C265.588 39.6449 264.871 39.7773 264.077 39.7773ZM273.617 39.7773C272.822 39.7773 272.064 39.6689 271.341 39.4523C270.631 39.2356 270.071 38.9707 269.662 38.6577L270.384 37.2854C270.794 37.5623 271.299 37.797 271.901 37.9896C272.503 38.1822 273.117 38.2785 273.743 38.2785C274.55 38.2785 275.127 38.1642 275.476 37.9354C275.838 37.7067 276.018 37.3877 276.018 36.9784C276.018 36.6775 275.91 36.4427 275.693 36.2742C275.476 36.1056 275.188 35.9792 274.826 35.895C274.477 35.8107 274.086 35.7385 273.653 35.6783C273.219 35.6061 272.786 35.5218 272.353 35.4255C271.919 35.3171 271.522 35.1727 271.161 34.9921C270.8 34.7995 270.511 34.5407 270.294 34.2156C270.077 33.8786 269.969 33.4332 269.969 32.8794C269.969 32.3016 270.132 31.796 270.457 31.3626C270.782 30.9292 271.239 30.5982 271.829 30.3694C272.431 30.1287 273.141 30.0083 273.96 30.0083C274.586 30.0083 275.218 30.0865 275.856 30.243C276.506 30.3875 277.035 30.5982 277.445 30.875L276.704 32.2474C276.271 31.9585 275.82 31.7598 275.35 31.6515C274.881 31.5432 274.411 31.489 273.942 31.489C273.183 31.489 272.617 31.6154 272.244 31.8682C271.871 32.109 271.684 32.4219 271.684 32.8072C271.684 33.1322 271.793 33.385 272.009 33.5656C272.238 33.7341 272.527 33.8665 272.876 33.9628C273.237 34.0591 273.635 34.1434 274.068 34.2156C274.501 34.2758 274.935 34.3601 275.368 34.4684C275.802 34.5647 276.193 34.7032 276.542 34.8838C276.903 35.0643 277.192 35.3171 277.409 35.6422C277.637 35.9672 277.752 36.4006 277.752 36.9423C277.752 37.5201 277.583 38.0197 277.246 38.441C276.909 38.8624 276.434 39.1934 275.82 39.4342C275.206 39.6629 274.471 39.7773 273.617 39.7773ZM282.663 39.7773C281.868 39.7773 281.11 39.6689 280.388 39.4523C279.677 39.2356 279.118 38.9707 278.708 38.6577L279.431 37.2854C279.84 37.5623 280.346 37.797 280.947 37.9896C281.549 38.1822 282.163 38.2785 282.789 38.2785C283.596 38.2785 284.174 38.1642 284.523 37.9354C284.884 37.7067 285.064 37.3877 285.064 36.9784C285.064 36.6775 284.956 36.4427 284.739 36.2742C284.523 36.1056 284.234 35.9792 283.873 35.895C283.524 35.8107 283.132 35.7385 282.699 35.6783C282.266 35.6061 281.832 35.5218 281.399 35.4255C280.965 35.3171 280.568 35.1727 280.207 34.9921C279.846 34.7995 279.557 34.5407 279.34 34.2156C279.124 33.8786 279.015 33.4332 279.015 32.8794C279.015 32.3016 279.178 31.796 279.503 31.3626C279.828 30.9292 280.285 30.5982 280.875 30.3694C281.477 30.1287 282.187 30.0083 283.006 30.0083C283.632 30.0083 284.264 30.0865 284.902 30.243C285.552 30.3875 286.082 30.5982 286.491 30.875L285.751 32.2474C285.317 31.9585 284.866 31.7598 284.396 31.6515C283.927 31.5432 283.457 31.489 282.988 31.489C282.229 31.489 281.664 31.6154 281.291 31.8682C280.917 32.109 280.731 32.4219 280.731 32.8072C280.731 33.1322 280.839 33.385 281.056 33.5656C281.284 33.7341 281.573 33.8665 281.923 33.9628C282.284 34.0591 282.681 34.1434 283.114 34.2156C283.548 34.2758 283.981 34.3601 284.414 34.4684C284.848 34.5647 285.239 34.7032 285.588 34.8838C285.949 35.0643 286.238 35.3171 286.455 35.6422C286.684 35.9672 286.798 36.4006 286.798 36.9423C286.798 37.5201 286.629 38.0197 286.292 38.441C285.955 38.8624 285.48 39.1934 284.866 39.4342C284.252 39.6629 283.518 39.7773 282.663 39.7773ZM299.899 39.6689V37.5743L299.845 37.2312V33.7281C299.845 32.9215 299.616 32.3016 299.159 31.8682C298.713 31.4348 298.045 31.2181 297.154 31.2181C296.54 31.2181 295.957 31.3205 295.403 31.5251C294.849 31.7298 294.38 32.0006 293.994 32.3377L293.417 31.3806C293.898 30.9713 294.476 30.6584 295.15 30.4417C295.824 30.2129 296.534 30.0986 297.281 30.0986C298.509 30.0986 299.454 30.4055 300.116 31.0195C300.79 31.6214 301.127 32.5423 301.127 33.7823V39.6689H299.899ZM296.631 39.7592C295.92 39.7592 295.301 39.6449 294.771 39.4161C294.253 39.1754 293.856 38.8503 293.579 38.441C293.302 38.0197 293.164 37.5382 293.164 36.9965C293.164 36.5029 293.278 36.0575 293.507 35.6602C293.748 35.2509 294.133 34.9259 294.663 34.6851C295.204 34.4323 295.927 34.3059 296.829 34.3059H300.098V35.263H296.865C295.951 35.263 295.313 35.4255 294.951 35.7505C294.602 36.0755 294.428 36.4788 294.428 36.9604C294.428 37.5021 294.638 37.9354 295.06 38.2605C295.481 38.5855 296.071 38.748 296.829 38.748C297.552 38.748 298.172 38.5855 298.689 38.2605C299.219 37.9234 299.604 37.4419 299.845 36.8159L300.134 37.7007C299.893 38.3267 299.472 38.8263 298.87 39.1995C298.28 39.5726 297.534 39.7592 296.631 39.7592ZM309.449 30.0986C310.219 30.0986 310.893 30.2491 311.471 30.55C312.061 30.8389 312.518 31.2843 312.843 31.8862C313.18 32.4882 313.349 33.2466 313.349 34.1615V39.6689H312.067V34.2879C312.067 33.2887 311.814 32.5363 311.309 32.0307C310.815 31.5131 310.117 31.2542 309.214 31.2542C308.54 31.2542 307.95 31.3927 307.444 31.6696C306.951 31.9344 306.565 32.3256 306.289 32.8433C306.024 33.3489 305.891 33.9628 305.891 34.6851V39.6689H304.609V30.1889H305.837V32.7891L305.639 32.3016C305.939 31.6154 306.421 31.0797 307.083 30.6945C307.745 30.2972 308.534 30.0986 309.449 30.0986ZM320.586 39.7592C319.683 39.7592 318.871 39.5546 318.148 39.1453C317.438 38.736 316.878 38.1702 316.469 37.4479C316.06 36.7136 315.855 35.8709 315.855 34.9199C315.855 33.9568 316.06 33.1141 316.469 32.3919C316.878 31.6696 317.438 31.1098 318.148 30.7125C318.871 30.3032 319.683 30.0986 320.586 30.0986C321.417 30.0986 322.157 30.2852 322.807 30.6584C323.469 31.0315 323.993 31.5793 324.378 32.3016C324.775 33.0118 324.974 33.8846 324.974 34.9199C324.974 35.9431 324.781 36.8159 324.396 37.5382C324.011 38.2605 323.487 38.8142 322.825 39.1995C322.175 39.5726 321.429 39.7592 320.586 39.7592ZM320.676 38.6216C321.35 38.6216 321.952 38.4711 322.482 38.1702C323.024 37.8572 323.445 37.4238 323.746 36.8701C324.059 36.3043 324.216 35.6542 324.216 34.9199C324.216 34.1735 324.059 33.5234 323.746 32.9697C323.445 32.4159 323.024 31.9886 322.482 31.6876C321.952 31.3746 321.35 31.2181 320.676 31.2181C320.014 31.2181 319.418 31.3746 318.889 31.6876C318.359 31.9886 317.938 32.4159 317.625 32.9697C317.312 33.5234 317.155 34.1735 317.155 34.9199C317.155 35.6542 317.312 36.3043 317.625 36.8701C317.938 37.4238 318.359 37.8572 318.889 38.1702C319.418 38.4711 320.014 38.6216 320.676 38.6216ZM324.252 39.6689V36.8159L324.378 34.9018L324.197 32.9877V26.2704H325.48V39.6689H324.252ZM70.1527 64.7592C69.1656 64.7592 68.2988 64.5546 67.5524 64.1453C66.8061 63.7239 66.2222 63.1521 65.8009 62.4298C65.3796 61.6955 65.1689 60.8589 65.1689 59.9199C65.1689 58.9809 65.3675 58.1503 65.7648 57.428C66.1741 56.7057 66.7278 56.1399 67.426 55.7306C68.1363 55.3092 68.9308 55.0986 69.8096 55.0986C70.7004 55.0986 71.4889 55.3032 72.1751 55.7125C72.8733 56.1098 73.4211 56.6756 73.8183 57.4099C74.2156 58.1322 74.4142 58.9689 74.4142 59.9199C74.4142 59.9801 74.4082 60.0463 74.3962 60.1185C74.3962 60.1787 74.3962 60.2449 74.3962 60.3171H66.144V59.3601H73.71L73.2044 59.7393C73.2044 59.0531 73.0539 58.4452 72.753 57.9155C72.464 57.3738 72.0668 56.9525 71.5612 56.6515C71.0556 56.3505 70.4717 56.2001 69.8096 56.2001C69.1595 56.2001 68.5757 56.3505 68.0581 56.6515C67.5404 56.9525 67.1371 57.3738 66.8482 57.9155C66.5593 58.4572 66.4148 59.0772 66.4148 59.7754V59.974C66.4148 60.6963 66.5713 61.3344 66.8843 61.8881C67.2094 62.4298 67.6548 62.8572 68.2206 63.1702C68.7984 63.4711 69.4545 63.6216 70.1888 63.6216C70.7666 63.6216 71.3023 63.5193 71.7959 63.3146C72.3015 63.11 72.7349 62.797 73.096 62.3757L73.8183 63.2063C73.397 63.7119 72.8673 64.0971 72.2293 64.362C71.6033 64.6268 70.9111 64.7592 70.1527 64.7592ZM81.8631 55.0986C82.6336 55.0986 83.3077 55.2491 83.8856 55.55C84.4754 55.8389 84.9329 56.2843 85.2579 56.8862C85.595 57.4882 85.7635 58.2466 85.7635 59.1615V64.6689H84.4815V59.2879C84.4815 58.2887 84.2287 57.5363 83.723 57.0307C83.2295 56.5131 82.5313 56.2542 81.6284 56.2542C80.9543 56.2542 80.3644 56.3927 79.8588 56.6696C79.3652 56.9344 78.98 57.3256 78.7031 57.8433C78.4383 58.3489 78.3059 58.9628 78.3059 59.6851V64.6689H77.0238V55.1889H78.2517V57.7891L78.0531 57.3016C78.354 56.6154 78.8355 56.0797 79.4976 55.6945C80.1597 55.2972 80.9482 55.0986 81.8631 55.0986ZM94.0659 55.0986C94.8364 55.0986 95.5105 55.2491 96.0883 55.55C96.6782 55.8389 97.1357 56.2843 97.4607 56.8862C97.7978 57.4882 97.9663 58.2466 97.9663 59.1615V64.6689H96.6842V59.2879C96.6842 58.2887 96.4314 57.5363 95.9258 57.0307C95.4323 56.5131 94.734 56.2542 93.8312 56.2542C93.157 56.2542 92.5672 56.3927 92.0616 56.6696C91.568 56.9344 91.1828 57.3256 90.9059 57.8433C90.6411 58.3489 90.5086 58.9628 90.5086 59.6851V64.6689H89.2266V51.2704H90.5086V57.7891L90.2558 57.3016C90.5568 56.6154 91.0383 56.0797 91.7004 55.6945C92.3625 55.2972 93.151 55.0986 94.0659 55.0986ZM107.37 64.6689V62.5743L107.316 62.2312V58.7281C107.316 57.9215 107.087 57.3016 106.63 56.8682C106.184 56.4348 105.516 56.2181 104.626 56.2181C104.012 56.2181 103.428 56.3205 102.874 56.5251C102.32 56.7298 101.851 57.0006 101.465 57.3377L100.888 56.3806C101.369 55.9713 101.947 55.6584 102.621 55.4417C103.295 55.2129 104.006 55.0986 104.752 55.0986C105.98 55.0986 106.925 55.4055 107.587 56.0195C108.261 56.6214 108.598 57.5423 108.598 58.7823V64.6689H107.37ZM104.102 64.7592C103.392 64.7592 102.772 64.6449 102.242 64.4161C101.724 64.1754 101.327 63.8503 101.05 63.441C100.773 63.0197 100.635 62.5382 100.635 61.9965C100.635 61.5029 100.749 61.0575 100.978 60.6602C101.219 60.2509 101.604 59.9259 102.134 59.6851C102.675 59.4323 103.398 59.3059 104.3 59.3059H107.569V60.263H104.337C103.422 60.263 102.784 60.4255 102.423 60.7505C102.073 61.0755 101.899 61.4788 101.899 61.9604C101.899 62.5021 102.11 62.9354 102.531 63.2605C102.952 63.5855 103.542 63.748 104.3 63.748C105.023 63.748 105.643 63.5855 106.16 63.2605C106.69 62.9234 107.075 62.4419 107.316 61.8159L107.605 62.7007C107.364 63.3267 106.943 63.8263 106.341 64.1995C105.751 64.5726 105.005 64.7592 104.102 64.7592ZM116.92 55.0986C117.69 55.0986 118.364 55.2491 118.942 55.55C119.532 55.8389 119.989 56.2843 120.314 56.8862C120.652 57.4882 120.82 58.2466 120.82 59.1615V64.6689H119.538V59.2879C119.538 58.2887 119.285 57.5363 118.78 57.0307C118.286 56.5131 117.588 56.2542 116.685 56.2542C116.011 56.2542 115.421 56.3927 114.915 56.6696C114.422 56.9344 114.037 57.3256 113.76 57.8433C113.495 58.3489 113.362 58.9628 113.362 59.6851V64.6689H112.08V55.1889H113.308V57.7891L113.11 57.3016C113.411 56.6154 113.892 56.0797 114.554 55.6945C115.216 55.2972 116.005 55.0986 116.92 55.0986ZM128.22 64.7592C127.281 64.7592 126.438 64.5546 125.692 64.1453C124.957 63.7239 124.379 63.1521 123.958 62.4298C123.537 61.6955 123.326 60.8589 123.326 59.9199C123.326 58.9689 123.537 58.1322 123.958 57.4099C124.379 56.6876 124.957 56.1218 125.692 55.7125C126.438 55.3032 127.281 55.0986 128.22 55.0986C129.026 55.0986 129.754 55.2551 130.405 55.5681C131.055 55.8811 131.566 56.3505 131.939 56.9765L130.982 57.6266C130.657 57.1451 130.254 56.7899 129.773 56.5612C129.291 56.3325 128.767 56.2181 128.202 56.2181C127.527 56.2181 126.919 56.3746 126.378 56.6876C125.836 56.9886 125.409 57.4159 125.096 57.9697C124.783 58.5234 124.626 59.1735 124.626 59.9199C124.626 60.6662 124.783 61.3163 125.096 61.8701C125.409 62.4238 125.836 62.8572 126.378 63.1702C126.919 63.4711 127.527 63.6216 128.202 63.6216C128.767 63.6216 129.291 63.5073 129.773 63.2785C130.254 63.0498 130.657 62.7007 130.982 62.2312L131.939 62.8813C131.566 63.4952 131.055 63.9647 130.405 64.2897C129.754 64.6027 129.026 64.7592 128.22 64.7592ZM138.326 64.7592C137.339 64.7592 136.472 64.5546 135.726 64.1453C134.979 63.7239 134.396 63.1521 133.974 62.4298C133.553 61.6955 133.342 60.8589 133.342 59.9199C133.342 58.9809 133.541 58.1503 133.938 57.428C134.347 56.7057 134.901 56.1399 135.599 55.7306C136.31 55.3092 137.104 55.0986 137.983 55.0986C138.874 55.0986 139.662 55.3032 140.348 55.7125C141.047 56.1098 141.594 56.6756 141.992 57.4099C142.389 58.1322 142.588 58.9689 142.588 59.9199C142.588 59.9801 142.582 60.0463 142.57 60.1185C142.57 60.1787 142.57 60.2449 142.57 60.3171H134.317V59.3601H141.883L141.378 59.7393C141.378 59.0531 141.227 58.4452 140.926 57.9155C140.637 57.3738 140.24 56.9525 139.735 56.6515C139.229 56.3505 138.645 56.2001 137.983 56.2001C137.333 56.2001 136.749 56.3505 136.231 56.6515C135.714 56.9525 135.31 57.3738 135.022 57.9155C134.733 58.4572 134.588 59.0772 134.588 59.7754V59.974C134.588 60.6963 134.745 61.3344 135.058 61.8881C135.383 62.4298 135.828 62.8572 136.394 63.1702C136.972 63.4711 137.628 63.6216 138.362 63.6216C138.94 63.6216 139.476 63.5193 139.969 63.3146C140.475 63.11 140.908 62.797 141.269 62.3757L141.992 63.2063C141.57 63.7119 141.041 64.0971 140.403 64.362C139.777 64.6268 139.084 64.7592 138.326 64.7592ZM152.523 64.7773C151.729 64.7773 150.97 64.6689 150.248 64.4523C149.538 64.2356 148.978 63.9707 148.569 63.6577L149.291 62.2854C149.7 62.5623 150.206 62.797 150.808 62.9896C151.41 63.1822 152.024 63.2785 152.65 63.2785C153.456 63.2785 154.034 63.1642 154.383 62.9354C154.744 62.7067 154.925 62.3877 154.925 61.9784C154.925 61.6775 154.817 61.4427 154.6 61.2742C154.383 61.1056 154.094 60.9792 153.733 60.895C153.384 60.8107 152.993 60.7385 152.559 60.6783C152.126 60.6061 151.693 60.5218 151.259 60.4255C150.826 60.3171 150.429 60.1727 150.068 59.9921C149.706 59.7995 149.417 59.5407 149.201 59.2156C148.984 58.8786 148.876 58.4332 148.876 57.8794C148.876 57.3016 149.038 56.796 149.363 56.3626C149.688 55.9292 150.146 55.5982 150.736 55.3694C151.338 55.1287 152.048 55.0083 152.866 55.0083C153.492 55.0083 154.124 55.0865 154.762 55.243C155.412 55.3875 155.942 55.5982 156.351 55.875L155.611 57.2474C155.178 56.9585 154.726 56.7598 154.257 56.6515C153.787 56.5432 153.318 56.489 152.848 56.489C152.09 56.489 151.524 56.6154 151.151 56.8682C150.778 57.109 150.591 57.4219 150.591 57.8072C150.591 58.1322 150.7 58.385 150.916 58.5656C151.145 58.7341 151.434 58.8665 151.783 58.9628C152.144 59.0591 152.541 59.1434 152.975 59.2156C153.408 59.2758 153.842 59.3601 154.275 59.4684C154.708 59.5647 155.1 59.7032 155.449 59.8838C155.81 60.0643 156.099 60.3171 156.315 60.6422C156.544 60.9672 156.658 61.4006 156.658 61.9423C156.658 62.5201 156.49 63.0197 156.153 63.441C155.816 63.8624 155.34 64.1934 154.726 64.4342C154.112 64.6629 153.378 64.7773 152.523 64.7773ZM163.935 55.0083C164.718 55.0083 165.404 55.1588 165.994 55.4597C166.596 55.7607 167.065 56.2181 167.402 56.8321C167.739 57.446 167.908 58.2225 167.908 59.1615V64.6689H166.174V59.3601C166.174 58.4332 165.946 57.7349 165.488 57.2655C165.043 56.796 164.411 56.5612 163.592 56.5612C162.978 56.5612 162.442 56.6816 161.985 56.9224C161.527 57.1631 161.172 57.5183 160.92 57.9877C160.679 58.4572 160.558 59.0411 160.558 59.7393V64.6689H158.825V51.2704H160.558V57.6808L160.215 56.9946C160.528 56.3686 161.01 55.8811 161.66 55.532C162.31 55.1828 163.068 55.0083 163.935 55.0083ZM175.377 64.7773C174.354 64.7773 173.451 64.5666 172.669 64.1453C171.898 63.7239 171.296 63.1461 170.863 62.4118C170.442 61.6775 170.231 60.8348 170.231 59.8838C170.231 58.9327 170.436 58.0901 170.845 57.3557C171.266 56.6214 171.838 56.0496 172.56 55.6403C173.295 55.219 174.119 55.0083 175.034 55.0083C175.961 55.0083 176.78 55.2129 177.49 55.6222C178.2 56.0315 178.754 56.6094 179.151 57.3557C179.561 58.0901 179.765 58.9508 179.765 59.9379C179.765 60.0102 179.759 60.0944 179.747 60.1907C179.747 60.287 179.741 60.3773 179.729 60.4616H171.585V59.2156H178.826L178.122 59.649C178.134 59.0351 178.008 58.4873 177.743 58.0058C177.478 57.5243 177.111 57.1511 176.641 56.8862C176.184 56.6094 175.648 56.4709 175.034 56.4709C174.432 56.4709 173.897 56.6094 173.427 56.8862C172.958 57.1511 172.591 57.5303 172.326 58.0239C172.061 58.5054 171.928 59.0591 171.928 59.6851V59.974C171.928 60.6121 172.073 61.1839 172.362 61.6895C172.663 62.1831 173.078 62.5683 173.608 62.8452C174.137 63.122 174.745 63.2605 175.432 63.2605C175.997 63.2605 176.509 63.1642 176.966 62.9716C177.436 62.7789 177.845 62.49 178.194 62.1048L179.151 63.2244C178.718 63.73 178.176 64.1152 177.526 64.38C176.888 64.6449 176.172 64.7773 175.377 64.7773ZM182.172 64.6689V51.2704H183.906V64.6689H182.172ZM187.469 64.6689V54.2499C187.469 53.3109 187.739 52.5645 188.281 52.0108C188.835 51.445 189.617 51.1621 190.629 51.1621C191.002 51.1621 191.357 51.2102 191.694 51.3065C192.043 51.3908 192.338 51.5292 192.579 51.7219L192.055 53.04C191.875 52.8956 191.67 52.7872 191.441 52.715C191.212 52.6307 190.972 52.5886 190.719 52.5886C190.213 52.5886 189.828 52.7331 189.563 53.022C189.298 53.2989 189.166 53.7142 189.166 54.2679V55.55L189.202 56.3445V64.6689H187.469ZM185.843 56.5251V55.0986H191.947V56.5251H185.843ZM204.372 64.6689V62.6465L204.282 62.2673V58.8184C204.282 58.084 204.065 57.5183 203.632 57.121C203.21 56.7117 202.572 56.507 201.717 56.507C201.152 56.507 200.598 56.6034 200.056 56.796C199.514 56.9765 199.057 57.2233 198.684 57.5363L197.962 56.2362C198.455 55.8389 199.045 55.538 199.731 55.3333C200.429 55.1166 201.158 55.0083 201.916 55.0083C203.228 55.0083 204.239 55.3273 204.95 55.9653C205.66 56.6034 206.015 57.5784 206.015 58.8906V64.6689H204.372ZM201.23 64.7773C200.52 64.7773 199.894 64.6569 199.352 64.4161C198.822 64.1754 198.413 63.8443 198.124 63.423C197.835 62.9896 197.691 62.5021 197.691 61.9604C197.691 61.4427 197.811 60.9732 198.052 60.5519C198.305 60.1305 198.708 59.7935 199.262 59.5407C199.827 59.2879 200.586 59.1615 201.537 59.1615H204.571V60.4074H201.609C200.742 60.4074 200.159 60.5519 199.858 60.8408C199.557 61.1297 199.406 61.4788 199.406 61.8881C199.406 62.3576 199.593 62.7368 199.966 63.0257C200.339 63.3026 200.857 63.441 201.519 63.441C202.169 63.441 202.735 63.2966 203.216 63.0077C203.71 62.7188 204.065 62.2974 204.282 61.7437L204.625 62.9354C204.396 63.5012 203.993 63.9527 203.415 64.2897C202.837 64.6148 202.109 64.7773 201.23 64.7773ZM214.297 64.7773C213.503 64.7773 212.774 64.5967 212.112 64.2356C211.462 63.8624 210.939 63.3146 210.541 62.5924C210.156 61.8701 209.963 60.9672 209.963 59.8838C209.963 58.8003 210.15 57.8975 210.523 57.1752C210.908 56.4529 211.426 55.9112 212.076 55.55C212.738 55.1889 213.479 55.0083 214.297 55.0083C215.236 55.0083 216.067 55.2129 216.789 55.6222C217.511 56.0315 218.083 56.6034 218.505 57.3377C218.926 58.06 219.137 58.9087 219.137 59.8838C219.137 60.8589 218.926 61.7136 218.505 62.4479C218.083 63.1822 217.511 63.754 216.789 64.1633C216.067 64.5726 215.236 64.7773 214.297 64.7773ZM209.223 68.1721V55.0986H210.884V57.6808L210.776 59.9018L210.957 62.1229V68.1721H209.223ZM214.153 63.2605C214.767 63.2605 215.314 63.122 215.796 62.8452C216.29 62.5683 216.675 62.177 216.952 61.6714C217.241 61.1538 217.385 60.5579 217.385 59.8838C217.385 59.1976 217.241 58.6077 216.952 58.1141C216.675 57.6085 216.29 57.2173 215.796 56.9404C215.314 56.6635 214.767 56.5251 214.153 56.5251C213.551 56.5251 213.003 56.6635 212.51 56.9404C212.028 57.2173 211.643 57.6085 211.354 58.1141C211.077 58.6077 210.939 59.1976 210.939 59.8838C210.939 60.5579 211.077 61.1538 211.354 61.6714C211.643 62.177 212.028 62.5683 212.51 62.8452C213.003 63.122 213.551 63.2605 214.153 63.2605ZM226.606 64.7773C225.811 64.7773 225.083 64.5967 224.421 64.2356C223.771 63.8624 223.247 63.3146 222.85 62.5924C222.465 61.8701 222.272 60.9672 222.272 59.8838C222.272 58.8003 222.459 57.8975 222.832 57.1752C223.217 56.4529 223.735 55.9112 224.385 55.55C225.047 55.1889 225.787 55.0083 226.606 55.0083C227.545 55.0083 228.375 55.2129 229.098 55.6222C229.82 56.0315 230.392 56.6034 230.813 57.3377C231.234 58.06 231.445 58.9087 231.445 59.8838C231.445 60.8589 231.234 61.7136 230.813 62.4479C230.392 63.1822 229.82 63.754 229.098 64.1633C228.375 64.5726 227.545 64.7773 226.606 64.7773ZM221.532 68.1721V55.0986H223.193V57.6808L223.085 59.9018L223.265 62.1229V68.1721H221.532ZM226.461 63.2605C227.075 63.2605 227.623 63.122 228.105 62.8452C228.598 62.5683 228.983 62.177 229.26 61.6714C229.549 61.1538 229.694 60.5579 229.694 59.8838C229.694 59.1976 229.549 58.6077 229.26 58.1141C228.983 57.6085 228.598 57.2173 228.105 56.9404C227.623 56.6635 227.075 56.5251 226.461 56.5251C225.859 56.5251 225.312 56.6635 224.818 56.9404C224.337 57.2173 223.951 57.6085 223.662 58.1141C223.386 58.6077 223.247 59.1976 223.247 59.8838C223.247 60.5579 223.386 61.1538 223.662 61.6714C223.951 62.177 224.337 62.5683 224.818 62.8452C225.312 63.122 225.859 63.2605 226.461 63.2605ZM238.102 64.7773C237.079 64.7773 236.176 64.5666 235.393 64.1453C234.623 63.7239 234.021 63.1461 233.587 62.4118C233.166 61.6775 232.955 60.8348 232.955 59.8838C232.955 58.9327 233.16 58.0901 233.569 57.3557C233.991 56.6214 234.563 56.0496 235.285 55.6403C236.019 55.219 236.844 55.0083 237.759 55.0083C238.686 55.0083 239.504 55.2129 240.215 55.6222C240.925 56.0315 241.479 56.6094 241.876 57.3557C242.285 58.0901 242.49 58.9508 242.49 59.9379C242.49 60.0102 242.484 60.0944 242.472 60.1907C242.472 60.287 242.466 60.3773 242.454 60.4616H234.31V59.2156H241.551L240.847 59.649C240.859 59.0351 240.732 58.4873 240.467 58.0058C240.202 57.5243 239.835 57.1511 239.366 56.8862C238.908 56.6094 238.373 56.4709 237.759 56.4709C237.157 56.4709 236.621 56.6094 236.152 56.8862C235.682 57.1511 235.315 57.5303 235.05 58.0239C234.785 58.5054 234.653 59.0591 234.653 59.6851V59.974C234.653 60.6121 234.797 61.1839 235.086 61.6895C235.387 62.1831 235.803 62.5683 236.332 62.8452C236.862 63.122 237.47 63.2605 238.156 63.2605C238.722 63.2605 239.233 63.1642 239.691 62.9716C240.16 62.7789 240.57 62.49 240.919 62.1048L241.876 63.2244C241.442 63.73 240.901 64.1152 240.251 64.38C239.613 64.6449 238.896 64.7773 238.102 64.7773ZM250.573 64.6689V62.6465L250.483 62.2673V58.8184C250.483 58.084 250.266 57.5183 249.833 57.121C249.412 56.7117 248.773 56.507 247.919 56.507C247.353 56.507 246.799 56.6034 246.258 56.796C245.716 56.9765 245.258 57.2233 244.885 57.5363L244.163 56.2362C244.656 55.8389 245.246 55.538 245.932 55.3333C246.631 55.1166 247.359 55.0083 248.117 55.0083C249.43 55.0083 250.441 55.3273 251.151 55.9653C251.861 56.6034 252.216 57.5784 252.216 58.8906V64.6689H250.573ZM247.431 64.7773C246.721 64.7773 246.095 64.6569 245.553 64.4161C245.024 64.1754 244.614 63.8443 244.325 63.423C244.036 62.9896 243.892 62.5021 243.892 61.9604C243.892 61.4427 244.012 60.9732 244.253 60.5519C244.506 60.1305 244.909 59.7935 245.463 59.5407C246.029 59.2879 246.787 59.1615 247.738 59.1615H250.772V60.4074H247.81C246.944 60.4074 246.36 60.5519 246.059 60.8408C245.758 61.1297 245.607 61.4788 245.607 61.8881C245.607 62.3576 245.794 62.7368 246.167 63.0257C246.54 63.3026 247.058 63.441 247.72 63.441C248.37 63.441 248.936 63.2966 249.418 63.0077C249.911 62.7188 250.266 62.2974 250.483 61.7437L250.826 62.9354C250.597 63.5012 250.194 63.9527 249.616 64.2897C249.038 64.6148 248.31 64.7773 247.431 64.7773ZM255.424 64.6689V51.2704H257.158V64.6689H255.424ZM260.883 64.7773C260.546 64.7773 260.257 64.6629 260.016 64.4342C259.776 64.1934 259.655 63.8925 259.655 63.5313C259.655 63.1702 259.776 62.8753 260.016 62.6465C260.257 62.4178 260.546 62.3034 260.883 62.3034C261.208 62.3034 261.485 62.4178 261.714 62.6465C261.954 62.8753 262.075 63.1702 262.075 63.5313C262.075 63.8925 261.954 64.1934 261.714 64.4342C261.485 64.6629 261.208 64.7773 260.883 64.7773Z" fill="black"/>
</svg>
