<svg width="225" height="17" viewBox="0 0 225 17" fill="none" xmlns="http://www.w3.org/2000/svg">
<path d="M7.17892e-06 15.9917V0.905086H6.20707C7.54331 0.905086 8.68559 1.12061 9.63389 1.55166C10.5966 1.9827 11.3365 2.60053 11.8538 3.40515C12.371 4.20977 12.6297 5.16526 12.6297 6.27161C12.6297 7.37796 12.371 8.33345 11.8538 9.13807C11.3365 9.94269 10.5966 10.5605 9.63389 10.9916C8.68559 11.4226 7.54331 11.6381 6.20707 11.6381H1.55177L2.80181 10.3234V15.9917H7.17892e-06ZM2.80181 10.6252L1.55177 9.26738H6.07776C7.31342 9.26738 8.24017 9.00875 8.858 8.4915C9.4902 7.95987 9.80631 7.21991 9.80631 6.27161C9.80631 5.30894 9.4902 4.56898 8.858 4.05172C8.24017 3.53447 7.31342 3.27584 6.07776 3.27584H1.55177L2.80181 1.89649V10.6252ZM15.0637 15.9917V4.48277H17.6284V7.65096L17.3267 6.72421C17.6716 5.94833 18.2104 5.35923 18.9431 4.95692C19.6903 4.55461 20.617 4.35345 21.7234 4.35345V6.91818C21.6084 6.88944 21.5007 6.87507 21.4001 6.87507C21.2995 6.86071 21.1989 6.85352 21.0984 6.85352C20.0782 6.85352 19.2664 7.15525 18.663 7.75872C18.0595 8.34782 17.7578 9.23146 17.7578 10.4097V15.9917H15.0637ZM29.0761 16.1426C27.8979 16.1426 26.849 15.8911 25.9294 15.3882C25.0099 14.871 24.2843 14.1669 23.7527 13.2761C23.221 12.3853 22.9552 11.3723 22.9552 10.2372C22.9552 9.08778 23.221 8.07482 23.7527 7.19836C24.2843 6.30753 25.0099 5.61067 25.9294 5.10779C26.849 4.6049 27.8979 4.35345 29.0761 4.35345C30.2686 4.35345 31.3247 4.6049 32.2443 5.10779C33.1782 5.61067 33.9038 6.30035 34.4211 7.17681C34.9527 8.05327 35.2185 9.07341 35.2185 10.2372C35.2185 11.3723 34.9527 12.3853 34.4211 13.2761C33.9038 14.1669 33.1782 14.871 32.2443 15.3882C31.3247 15.8911 30.2686 16.1426 29.0761 16.1426ZM29.0761 13.8365C29.737 13.8365 30.3261 13.6928 30.8434 13.4054C31.3606 13.1181 31.7629 12.7014 32.0503 12.1554C32.352 11.6094 32.5029 10.97 32.5029 10.2372C32.5029 9.49009 32.352 8.8507 32.0503 8.31908C31.7629 7.77309 31.3606 7.35641 30.8434 7.06904C30.3261 6.78168 29.7442 6.638 29.0976 6.638C28.4367 6.638 27.8476 6.78168 27.3303 7.06904C26.8275 7.35641 26.4252 7.77309 26.1234 8.31908C25.8217 8.8507 25.6708 9.49009 25.6708 10.2372C25.6708 10.97 25.8217 11.6094 26.1234 12.1554C26.4252 12.7014 26.8275 13.1181 27.3303 13.4054C27.8476 13.6928 28.4295 13.8365 29.0761 13.8365ZM42.6655 16.1426C41.5591 16.1426 40.5605 15.8983 39.6697 15.4098C38.7933 14.9069 38.1036 14.2172 37.6007 13.3408C37.0978 12.4643 36.8464 11.4298 36.8464 10.2372C36.8464 9.04467 37.0978 8.01016 37.6007 7.1337C38.1036 6.25724 38.7933 5.57475 39.6697 5.08623C40.5605 4.59771 41.5591 4.35345 42.6655 4.35345C43.6282 4.35345 44.4902 4.56898 45.2518 5.00002C46.0133 5.4167 46.6167 6.05609 47.0622 6.91818C47.5076 7.78027 47.7303 8.88662 47.7303 10.2372C47.7303 11.5735 47.5148 12.6798 47.0837 13.5563C46.6527 14.4184 46.0564 15.065 45.2949 15.496C44.5334 15.927 43.6569 16.1426 42.6655 16.1426ZM42.9888 13.8365C43.6353 13.8365 44.2101 13.6928 44.713 13.4054C45.2302 13.1181 45.6397 12.7014 45.9414 12.1554C46.2575 11.6094 46.4156 10.97 46.4156 10.2372C46.4156 9.49009 46.2575 8.8507 45.9414 8.31908C45.6397 7.77309 45.2302 7.35641 44.713 7.06904C44.2101 6.78168 43.6353 6.638 42.9888 6.638C42.3422 6.638 41.7603 6.78168 41.243 7.06904C40.7401 7.35641 40.3307 7.77309 40.0146 8.31908C39.7128 8.8507 39.562 9.49009 39.562 10.2372C39.562 10.97 39.7128 11.6094 40.0146 12.1554C40.3307 12.7014 40.7401 13.1181 41.243 13.4054C41.7603 13.6928 42.3422 13.8365 42.9888 13.8365ZM46.4802 15.9917V13.2761L46.588 10.2157L46.3725 7.15525V-0.000110776H49.045V15.9917H46.4802ZM57.4616 16.1426C56.4846 16.1426 55.6225 15.963 54.8754 15.6038C54.1282 15.2302 53.5463 14.6698 53.1296 13.9227C52.713 13.1612 52.5046 12.2057 52.5046 11.0562V4.48277H55.1987V10.6898C55.1987 11.7243 55.4285 12.5002 55.8883 13.0175C56.3625 13.5204 57.0306 13.7718 57.8927 13.7718C58.5249 13.7718 59.0709 13.6425 59.5307 13.3839C60.0048 13.1252 60.3712 12.7373 60.6298 12.22C60.9028 11.7028 61.0393 11.0634 61.0393 10.3019V4.48277H63.7334V15.9917H61.1686V12.8882L61.6212 13.8365C61.2333 14.5836 60.6658 15.1583 59.9186 15.5607C59.1715 15.9486 58.3525 16.1426 57.4616 16.1426ZM72.541 16.1426C71.3341 16.1426 70.2565 15.8911 69.3082 15.3882C68.3742 14.871 67.6415 14.1669 67.1098 13.2761C66.5782 12.3853 66.3124 11.3723 66.3124 10.2372C66.3124 9.08778 66.5782 8.07482 67.1098 7.19836C67.6415 6.30753 68.3742 5.61067 69.3082 5.10779C70.2565 4.6049 71.3341 4.35345 72.541 4.35345C73.6617 4.35345 74.646 4.58335 75.4937 5.04313C76.3558 5.48854 77.0095 6.14948 77.4549 7.02594L75.3859 8.23287C75.0411 7.68688 74.6172 7.28457 74.1143 7.02594C73.6258 6.76731 73.0942 6.638 72.5195 6.638C71.8585 6.638 71.2622 6.78168 70.7306 7.06904C70.199 7.35641 69.7823 7.77309 69.4806 8.31908C69.1789 8.8507 69.028 9.49009 69.028 10.2372C69.028 10.9844 69.1789 11.6309 69.4806 12.1769C69.7823 12.7086 70.199 13.1181 70.7306 13.4054C71.2622 13.6928 71.8585 13.8365 72.5195 13.8365C73.0942 13.8365 73.6258 13.7072 74.1143 13.4485C74.6172 13.1899 75.0411 12.7876 75.3859 12.2416L77.4549 13.4485C77.0095 14.3106 76.3558 14.9787 75.4937 15.4529C74.646 15.9127 73.6617 16.1426 72.541 16.1426ZM84.2631 16.1426C82.9987 16.1426 82.0217 15.8193 81.332 15.1727C80.6423 14.5118 80.2975 13.5419 80.2975 12.2632V1.9396H82.9915V12.1985C82.9915 12.7445 83.128 13.1683 83.401 13.4701C83.6884 13.7718 84.0835 13.9227 84.5864 13.9227C85.1899 13.9227 85.6927 13.7646 86.0951 13.4485L86.8494 15.3667C86.5333 15.6253 86.1453 15.8193 85.6856 15.9486C85.2258 16.0779 84.7516 16.1426 84.2631 16.1426ZM78.4009 6.72421V4.56898H86.0735V6.72421H78.4009ZM102.264 16.2072C101.114 16.2072 100.044 16.0204 99.0522 15.6469C98.0752 15.2589 97.2203 14.7201 96.4875 14.0304C95.7691 13.3264 95.2087 12.5002 94.8064 11.5519C94.4041 10.6036 94.2029 9.56911 94.2029 8.44839C94.2029 7.32767 94.4041 6.29316 94.8064 5.34486C95.2087 4.39656 95.7763 3.57757 96.509 2.8879C97.2418 2.18386 98.0967 1.64505 99.0738 1.27148C100.051 0.883534 101.121 0.689563 102.285 0.689563C103.521 0.689563 104.649 0.905086 105.669 1.33613C106.689 1.75281 107.551 2.37783 108.255 3.21118L106.445 4.91382C105.899 4.32472 105.288 3.88649 104.613 3.59912C103.937 3.29739 103.205 3.14653 102.414 3.14653C101.624 3.14653 100.899 3.27584 100.238 3.53447C99.591 3.7931 99.0235 4.15948 98.535 4.63364C98.0608 5.10779 97.6872 5.66815 97.4142 6.31471C97.1556 6.96128 97.0263 7.67251 97.0263 8.44839C97.0263 9.22428 97.1556 9.9355 97.4142 10.5821C97.6872 11.2286 98.0608 11.789 98.535 12.2632C99.0235 12.7373 99.591 13.1037 100.238 13.3623C100.899 13.6209 101.624 13.7503 102.414 13.7503C103.205 13.7503 103.937 13.6066 104.613 13.3192C105.288 13.0175 105.899 12.5649 106.445 11.9614L108.255 13.6856C107.551 14.5046 106.689 15.1296 105.669 15.5607C104.649 15.9917 103.514 16.2072 102.264 16.2072ZM115.412 16.1426C114.233 16.1426 113.185 15.8911 112.265 15.3882C111.345 14.871 110.62 14.1669 110.088 13.2761C109.557 12.3853 109.291 11.3723 109.291 10.2372C109.291 9.08778 109.557 8.07482 110.088 7.19836C110.62 6.30753 111.345 5.61067 112.265 5.10779C113.185 4.6049 114.233 4.35345 115.412 4.35345C116.604 4.35345 117.66 4.6049 118.58 5.10779C119.514 5.61067 120.239 6.30035 120.757 7.17681C121.288 8.05327 121.554 9.07341 121.554 10.2372C121.554 11.3723 121.288 12.3853 120.757 13.2761C120.239 14.1669 119.514 14.871 118.58 15.3882C117.66 15.8911 116.604 16.1426 115.412 16.1426ZM115.412 13.8365C116.073 13.8365 116.662 13.6928 117.179 13.4054C117.696 13.1181 118.098 12.7014 118.386 12.1554C118.688 11.6094 118.838 10.97 118.838 10.2372C118.838 9.49009 118.688 8.8507 118.386 8.31908C118.098 7.77309 117.696 7.35641 117.179 7.06904C116.662 6.78168 116.08 6.638 115.433 6.638C114.772 6.638 114.183 6.78168 113.666 7.06904C113.163 7.35641 112.761 7.77309 112.459 8.31908C112.157 8.8507 112.006 9.49009 112.006 10.2372C112.006 10.97 112.157 11.6094 112.459 12.1554C112.761 12.7014 113.163 13.1181 113.666 13.4054C114.183 13.6928 114.765 13.8365 115.412 13.8365ZM129.001 16.1426C127.895 16.1426 126.896 15.8983 126.005 15.4098C125.129 14.9069 124.439 14.2172 123.936 13.3408C123.433 12.4643 123.182 11.4298 123.182 10.2372C123.182 9.04467 123.433 8.01016 123.936 7.1337C124.439 6.25724 125.129 5.57475 126.005 5.08623C126.896 4.59771 127.895 4.35345 129.001 4.35345C129.964 4.35345 130.826 4.56898 131.587 5.00002C132.349 5.4167 132.952 6.05609 133.398 6.91818C133.843 7.78027 134.066 8.88662 134.066 10.2372C134.066 11.5735 133.85 12.6798 133.419 13.5563C132.988 14.4184 132.392 15.065 131.63 15.496C130.869 15.927 129.992 16.1426 129.001 16.1426ZM129.324 13.8365C129.971 13.8365 130.546 13.6928 131.048 13.4054C131.566 13.1181 131.975 12.7014 132.277 12.1554C132.593 11.6094 132.751 10.97 132.751 10.2372C132.751 9.49009 132.593 8.8507 132.277 8.31908C131.975 7.77309 131.566 7.35641 131.048 7.06904C130.546 6.78168 129.971 6.638 129.324 6.638C128.678 6.638 128.096 6.78168 127.579 7.06904C127.076 7.35641 126.666 7.77309 126.35 8.31908C126.048 8.8507 125.897 9.49009 125.897 10.2372C125.897 10.97 126.048 11.6094 126.35 12.1554C126.666 12.7014 127.076 13.1181 127.579 13.4054C128.096 13.6928 128.678 13.8365 129.324 13.8365ZM132.816 15.9917V13.2761L132.923 10.2157L132.708 7.15525V-0.000110776H135.38V15.9917H132.816ZM144.336 16.1426C143.057 16.1426 141.936 15.8911 140.974 15.3882C140.025 14.871 139.286 14.1669 138.754 13.2761C138.237 12.3853 137.978 11.3723 137.978 10.2372C137.978 9.08778 138.229 8.07482 138.732 7.19836C139.25 6.30753 139.954 5.61067 140.844 5.10779C141.75 4.6049 142.777 4.35345 143.926 4.35345C145.047 4.35345 146.046 4.59771 146.922 5.08623C147.799 5.57475 148.488 6.26443 148.991 7.15525C149.494 8.04608 149.746 9.09496 149.746 10.3019C149.746 10.4168 149.738 10.5462 149.724 10.6898C149.724 10.8335 149.717 10.97 149.702 11.0993H140.112V9.31049H148.28L147.224 9.87084C147.238 9.20991 147.102 8.628 146.814 8.12511C146.527 7.62222 146.132 7.2271 145.629 6.93973C145.141 6.65237 144.573 6.50869 143.926 6.50869C143.266 6.50869 142.684 6.65237 142.181 6.93973C141.692 7.2271 141.304 7.62941 141.017 8.14666C140.744 8.64955 140.607 9.24583 140.607 9.9355V10.3665C140.607 11.0562 140.765 11.6669 141.082 12.1985C141.398 12.7301 141.843 13.1396 142.418 13.427C142.993 13.7143 143.653 13.858 144.401 13.858C145.047 13.858 145.629 13.7574 146.146 13.5563C146.664 13.3551 147.123 13.039 147.526 12.608L148.97 14.2675C148.452 14.871 147.799 15.3379 147.008 15.6684C146.233 15.9845 145.342 16.1426 144.336 16.1426ZM163.664 11.1209V8.87944H169.591V11.1209H163.664ZM180.09 15.9917V1.9827L181.318 3.25429H176.9V0.905086H182.892V15.9917H180.09ZM192.178 16.2072C190.985 16.2072 189.908 15.9055 188.945 15.302C187.997 14.6986 187.249 13.8221 186.703 12.6726C186.157 11.5088 185.884 10.1007 185.884 8.44839C185.884 6.79605 186.157 5.39515 186.703 4.24569C187.249 3.08187 187.997 2.19822 188.945 1.59476C189.908 0.991295 190.985 0.689563 192.178 0.689563C193.385 0.689563 194.462 0.991295 195.411 1.59476C196.359 2.19822 197.106 3.08187 197.652 4.24569C198.212 5.39515 198.493 6.79605 198.493 8.44839C198.493 10.1007 198.212 11.5088 197.652 12.6726C197.106 13.8221 196.359 14.6986 195.411 15.302C194.462 15.9055 193.385 16.2072 192.178 16.2072ZM192.178 13.7718C192.882 13.7718 193.492 13.585 194.01 13.2115C194.527 12.8235 194.929 12.2344 195.217 11.4442C195.518 10.6539 195.669 9.65532 195.669 8.44839C195.669 7.2271 195.518 6.22851 195.217 5.45262C194.929 4.66237 194.527 4.08046 194.01 3.70689C193.492 3.31894 192.882 3.12497 192.178 3.12497C191.502 3.12497 190.899 3.31894 190.367 3.70689C189.85 4.08046 189.441 4.66237 189.139 5.45262C188.851 6.22851 188.708 7.2271 188.708 8.44839C188.708 9.65532 188.851 10.6539 189.139 11.4442C189.441 12.2344 189.85 12.8235 190.367 13.2115C190.899 13.585 191.502 13.7718 192.178 13.7718ZM202.802 15.9917L209.031 2.02581L209.764 3.27584H201.207L202.544 1.91804V5.84056H199.936V0.905086H211.66V2.78014L205.798 15.9917H202.802ZM215.915 15.9917L222.143 2.02581L222.876 3.27584H214.32L215.656 1.91804V5.84056H213.048V0.905086H224.773V2.78014L218.91 15.9917H215.915Z" fill="#272727"/>
</svg>
