<svg width="133" height="14" viewBox="0 0 133 14" fill="none" xmlns="http://www.w3.org/2000/svg">
<path d="M-0.000140548 12.8159V0.215917H6.15586C7.73986 0.215917 8.92786 0.515917 9.71986 1.11592C10.5239 1.71592 10.9259 2.50792 10.9259 3.49192C10.9259 4.15192 10.7639 4.72792 10.4399 5.21992C10.1159 5.69992 9.67186 6.07192 9.10786 6.33592C8.54386 6.59992 7.89586 6.73192 7.16386 6.73192L7.50586 5.99392C8.29786 5.99392 8.99986 6.12592 9.61186 6.38992C10.2239 6.64192 10.6979 7.01992 11.0339 7.52392C11.3819 8.02792 11.5559 8.64592 11.5559 9.37792C11.5559 10.4579 11.1299 11.3039 10.2779 11.9159C9.42586 12.5159 8.17186 12.8159 6.51586 12.8159H-0.000140548ZM2.89786 10.6199H6.29986C7.05586 10.6199 7.62586 10.4999 8.00986 10.2599C8.40586 10.0079 8.60386 9.61192 8.60386 9.07192C8.60386 8.54392 8.40586 8.15392 8.00986 7.90192C7.62586 7.63792 7.05586 7.50592 6.29986 7.50592H2.68186V5.38192H5.79586C6.50386 5.38192 7.04386 5.26192 7.41586 5.02192C7.79986 4.76992 7.99186 4.39192 7.99186 3.88792C7.99186 3.39592 7.79986 3.02992 7.41586 2.78992C7.04386 2.53792 6.50386 2.41192 5.79586 2.41192H2.89786V10.6199ZM16.1978 12.8159V2.59192H12.1658V0.215917H23.1458V2.59192H19.1138V12.8159H16.1978ZM23.4887 8.87392V6.62392H28.5827V8.87392H23.4887ZM31.7554 12.8159V1.29592L33.0154 2.55592H29.2354V0.215917H34.6714V12.8159H31.7554ZM36.7162 10.1699V8.20792L42.6562 0.215917H45.7162L39.9022 8.20792L38.4802 7.79392H48.3982V10.1699H36.7162ZM43.5022 12.8159V10.1699L43.5922 7.79392V5.43592H46.3462V12.8159H43.5022ZM49.6801 8.87392V6.62392H54.7741V8.87392H49.6801ZM57.9468 12.8159V1.29592L59.2068 2.55592H55.4268V0.215917H60.8628V12.8159H57.9468ZM68.4516 13.0319C67.4196 13.0319 66.4956 12.7799 65.6796 12.2759C64.8636 11.7599 64.2216 11.0159 63.7536 10.0439C63.2856 9.07192 63.0516 7.89592 63.0516 6.51592C63.0516 5.13592 63.2856 3.95992 63.7536 2.98792C64.2216 2.01592 64.8636 1.27792 65.6796 0.773917C66.4956 0.257918 67.4196 -8.22544e-05 68.4516 -8.22544e-05C69.4956 -8.22544e-05 70.4196 0.257918 71.2236 0.773917C72.0396 1.27792 72.6816 2.01592 73.1496 2.98792C73.6176 3.95992 73.8516 5.13592 73.8516 6.51592C73.8516 7.89592 73.6176 9.07192 73.1496 10.0439C72.6816 11.0159 72.0396 11.7599 71.2236 12.2759C70.4196 12.7799 69.4956 13.0319 68.4516 13.0319ZM68.4516 10.5659C68.9436 10.5659 69.3696 10.4279 69.7296 10.1519C70.1016 9.87592 70.3896 9.43792 70.5936 8.83792C70.8096 8.23792 70.9176 7.46392 70.9176 6.51592C70.9176 5.56792 70.8096 4.79392 70.5936 4.19392C70.3896 3.59392 70.1016 3.15592 69.7296 2.87992C69.3696 2.60392 68.9436 2.46592 68.4516 2.46592C67.9716 2.46592 67.5456 2.60392 67.1736 2.87992C66.8136 3.15592 66.5256 3.59392 66.3096 4.19392C66.1056 4.79392 66.0036 5.56792 66.0036 6.51592C66.0036 7.46392 66.1056 8.23792 66.3096 8.83792C66.5256 9.43792 66.8136 9.87592 67.1736 10.1519C67.5456 10.4279 67.9716 10.5659 68.4516 10.5659ZM80.6684 13.0319C79.6364 13.0319 78.7124 12.7799 77.8964 12.2759C77.0804 11.7599 76.4384 11.0159 75.9704 10.0439C75.5024 9.07192 75.2684 7.89592 75.2684 6.51592C75.2684 5.13592 75.5024 3.95992 75.9704 2.98792C76.4384 2.01592 77.0804 1.27792 77.8964 0.773917C78.7124 0.257918 79.6364 -8.22544e-05 80.6684 -8.22544e-05C81.7124 -8.22544e-05 82.6364 0.257918 83.4404 0.773917C84.2564 1.27792 84.8984 2.01592 85.3664 2.98792C85.8344 3.95992 86.0684 5.13592 86.0684 6.51592C86.0684 7.89592 85.8344 9.07192 85.3664 10.0439C84.8984 11.0159 84.2564 11.7599 83.4404 12.2759C82.6364 12.7799 81.7124 13.0319 80.6684 13.0319ZM80.6684 10.5659C81.1604 10.5659 81.5864 10.4279 81.9464 10.1519C82.3184 9.87592 82.6064 9.43792 82.8104 8.83792C83.0264 8.23792 83.1344 7.46392 83.1344 6.51592C83.1344 5.56792 83.0264 4.79392 82.8104 4.19392C82.6064 3.59392 82.3184 3.15592 81.9464 2.87992C81.5864 2.60392 81.1604 2.46592 80.6684 2.46592C80.1884 2.46592 79.7624 2.60392 79.3904 2.87992C79.0304 3.15592 78.7424 3.59392 78.5264 4.19392C78.3224 4.79392 78.2204 5.56792 78.2204 6.51592C78.2204 7.46392 78.3224 8.23792 78.5264 8.83792C78.7424 9.43792 79.0304 9.87592 79.3904 10.1519C79.7624 10.4279 80.1884 10.5659 80.6684 10.5659ZM92.8852 13.0319C91.8532 13.0319 90.9292 12.7799 90.1132 12.2759C89.2972 11.7599 88.6552 11.0159 88.1872 10.0439C87.7192 9.07192 87.4852 7.89592 87.4852 6.51592C87.4852 5.13592 87.7192 3.95992 88.1872 2.98792C88.6552 2.01592 89.2972 1.27792 90.1132 0.773917C90.9292 0.257918 91.8532 -8.22544e-05 92.8852 -8.22544e-05C93.9292 -8.22544e-05 94.8532 0.257918 95.6572 0.773917C96.4732 1.27792 97.1152 2.01592 97.5832 2.98792C98.0512 3.95992 98.2852 5.13592 98.2852 6.51592C98.2852 7.89592 98.0512 9.07192 97.5832 10.0439C97.1152 11.0159 96.4732 11.7599 95.6572 12.2759C94.8532 12.7799 93.9292 13.0319 92.8852 13.0319ZM92.8852 10.5659C93.3772 10.5659 93.8032 10.4279 94.1632 10.1519C94.5352 9.87592 94.8232 9.43792 95.0272 8.83792C95.2432 8.23792 95.3512 7.46392 95.3512 6.51592C95.3512 5.56792 95.2432 4.79392 95.0272 4.19392C94.8232 3.59392 94.5352 3.15592 94.1632 2.87992C93.8032 2.60392 93.3772 2.46592 92.8852 2.46592C92.4052 2.46592 91.9792 2.60392 91.6072 2.87992C91.2472 3.15592 90.9592 3.59392 90.7432 4.19392C90.5392 4.79392 90.4372 5.56792 90.4372 6.51592C90.4372 7.46392 90.5392 8.23792 90.7432 8.83792C90.9592 9.43792 91.2472 9.87592 91.6072 10.1519C91.9792 10.4279 92.4052 10.5659 92.8852 10.5659ZM105.592 12.8159V0.215917H108.004L113.368 9.10792H112.09L117.364 0.215917H119.758L119.794 12.8159H117.058L117.04 4.40992H117.544L113.332 11.4839H112.018L107.716 4.40992H108.328V12.8159H105.592ZM122.783 12.8159V0.215917H125.699V10.4399H132.017V12.8159H122.783Z" fill="#1B622D"/>
</svg>
