<svg width="165" height="50" viewBox="0 0 165 50" fill="none" xmlns="http://www.w3.org/2000/svg">
<g filter="url(#filter0_d_2040_871)">
<rect x="24.1406" y="4.7168" width="33" height="31" rx="6" transform="rotate(46.3303 24.1406 4.7168)" fill="white"/>
</g>
<path d="M20.1982 21.1045H28.2373C28.4651 21.1045 28.6809 21.2079 28.8232 21.3857L30.3037 23.2363C30.4101 23.3693 30.4677 23.5348 30.4678 23.7051V33.3545C30.4678 33.7687 30.132 34.1045 29.7178 34.1045H18.7178C18.3036 34.1045 17.9678 33.7687 17.9678 33.3545V23.7051C17.9678 23.5348 18.0255 23.3693 18.1318 23.2363L19.6123 21.3857C19.7546 21.2079 19.9705 21.1045 20.1982 21.1045Z" stroke="black" stroke-width="0.5"/>
<path d="M18.2178 23.3545H30.2178" stroke="black" stroke-width="0.5"/>
<path d="M26.4678 23.6045V29.834L24.374 28.1592L24.2178 28.0342L24.0615 28.1592L21.9678 29.834V23.6045H26.4678Z" stroke="black" stroke-width="0.5"/>
<path d="M55.966 22.667V13.1515H60.0962C60.798 13.1515 61.3919 13.2685 61.8778 13.5024C62.3637 13.7364 62.7326 14.0738 62.9846 14.5147C63.2365 14.9556 63.3625 15.491 63.3625 16.1209C63.3625 16.7417 63.2365 17.2771 62.9846 17.727C62.7326 18.1679 62.3637 18.5099 61.8778 18.7528C61.3919 18.9868 60.798 19.1037 60.0962 19.1037H57.6937V22.667H55.966ZM57.6937 17.7405H59.8262C60.4381 17.7405 60.9015 17.6056 61.2164 17.3356C61.5314 17.0567 61.6888 16.6518 61.6888 16.1209C61.6888 15.59 61.5314 15.1896 61.2164 14.9196C60.9015 14.6497 60.4381 14.5147 59.8262 14.5147H57.6937V17.7405ZM67.3297 22.802C66.6368 22.802 66.034 22.6625 65.5211 22.3836C65.0082 22.0956 64.6123 21.6907 64.3333 21.1688C64.0544 20.6469 63.9149 20.035 63.9149 19.3332C63.9149 18.6313 64.0544 18.0285 64.3333 17.5246C64.6123 17.0117 65.0082 16.6203 65.5211 16.3503C66.034 16.0714 66.6368 15.9319 67.3297 15.9319C67.7526 15.9319 68.171 15.9994 68.5849 16.1344C68.9988 16.2693 69.3408 16.4583 69.6107 16.7013L69.1113 17.8755C68.8774 17.6685 68.6119 17.5111 68.315 17.4031C68.027 17.2951 67.7481 17.2411 67.4782 17.2411C66.8933 17.2411 66.4389 17.4256 66.1149 17.7945C65.8 18.1544 65.6425 18.6718 65.6425 19.3467C65.6425 20.0126 65.8 20.5389 66.1149 20.9259C66.4389 21.3038 66.8933 21.4927 67.4782 21.4927C67.7391 21.4927 68.018 21.4388 68.315 21.3308C68.6119 21.2228 68.8774 21.0608 69.1113 20.8449L69.6107 22.0326C69.3408 22.2666 68.9943 22.4555 68.5714 22.5995C68.1575 22.7345 67.7436 22.802 67.3297 22.802ZM73.0616 22.802C72.6927 22.802 72.3328 22.7705 71.9819 22.7075C71.6399 22.6445 71.325 22.559 71.0371 22.451C70.7491 22.3341 70.4972 22.1901 70.2812 22.0191L70.7131 20.9124C70.9381 21.0563 71.181 21.1823 71.442 21.2903C71.7029 21.3983 71.9729 21.4792 72.2518 21.5332C72.5308 21.5872 72.8052 21.6142 73.0751 21.6142C73.5071 21.6142 73.8265 21.5422 74.0334 21.3983C74.2494 21.2453 74.3574 21.0473 74.3574 20.8044C74.3574 20.5974 74.2854 20.44 74.1414 20.332C74.0064 20.215 73.7995 20.1295 73.5205 20.0755L72.1708 19.8191C71.613 19.7111 71.1855 19.5087 70.8886 19.2117C70.6007 18.9058 70.4567 18.5144 70.4567 18.0375C70.4567 17.6056 70.5737 17.2321 70.8076 16.9172C71.0506 16.6023 71.3835 16.3593 71.8064 16.1884C72.2293 16.0174 72.7152 15.9319 73.2641 15.9319C73.579 15.9319 73.885 15.9634 74.1819 16.0264C74.4788 16.0804 74.7578 16.1659 75.0187 16.2828C75.2887 16.3908 75.5226 16.5348 75.7206 16.7148L75.2617 17.8215C75.0907 17.6775 74.8928 17.5561 74.6678 17.4571C74.4429 17.3491 74.2089 17.2681 73.966 17.2141C73.732 17.1512 73.5026 17.1197 73.2776 17.1197C72.8367 17.1197 72.5083 17.1961 72.2923 17.3491C72.0854 17.5021 71.9819 17.7045 71.9819 17.9565C71.9819 18.1454 72.0449 18.3029 72.1708 18.4289C72.2968 18.5549 72.4903 18.6403 72.7512 18.6853L74.1009 18.9418C74.6858 19.0498 75.1267 19.2477 75.4236 19.5357C75.7296 19.8236 75.8825 20.2105 75.8825 20.6964C75.8825 21.1373 75.7656 21.5152 75.5316 21.8302C75.2977 22.1451 74.9692 22.3881 74.5463 22.559C74.1234 22.721 73.6285 22.802 73.0616 22.802ZM81.0359 22.667V13.1515H85.1661C85.8679 13.1515 86.4618 13.2685 86.9477 13.5024C87.4336 13.7364 87.8025 14.0738 88.0544 14.5147C88.3064 14.9556 88.4324 15.491 88.4324 16.1209C88.4324 16.7417 88.3064 17.2771 88.0544 17.727C87.8025 18.1679 87.4336 18.5099 86.9477 18.7528C86.4618 18.9868 85.8679 19.1037 85.1661 19.1037H82.7636V22.667H81.0359ZM82.7636 17.7405H84.8961C85.508 17.7405 85.9714 17.6056 86.2863 17.3356C86.6012 17.0567 86.7587 16.6518 86.7587 16.1209C86.7587 15.59 86.6012 15.1896 86.2863 14.9196C85.9714 14.6497 85.508 14.5147 84.8961 14.5147H82.7636V17.7405ZM92.602 22.802C91.8552 22.802 91.2118 22.6625 90.6719 22.3836C90.1321 22.1046 89.7136 21.7087 89.4167 21.1958C89.1288 20.6829 88.9848 20.0755 88.9848 19.3737C88.9848 18.6898 89.1243 18.0915 89.4032 17.5786C89.6911 17.0657 90.0826 16.6653 90.5775 16.3773C91.0814 16.0804 91.6527 15.9319 92.2916 15.9319C92.9215 15.9319 93.4613 16.0669 93.9113 16.3368C94.3612 16.6068 94.7076 16.9892 94.9505 17.4841C95.2025 17.979 95.3285 18.5684 95.3285 19.2522V19.7516H90.348V18.7798H94.1407L93.9248 18.9823C93.9248 18.3704 93.7898 17.9025 93.5198 17.5786C93.2499 17.2456 92.863 17.0792 92.3591 17.0792C91.9812 17.0792 91.6572 17.1692 91.3873 17.3491C91.1263 17.5201 90.9239 17.7675 90.7799 18.0915C90.6449 18.4064 90.5775 18.7843 90.5775 19.2252V19.3197C90.5775 19.8146 90.6539 20.224 90.8069 20.5479C90.9599 20.8719 91.1893 21.1148 91.4953 21.2768C91.8012 21.4388 92.1791 21.5197 92.629 21.5197C92.9979 21.5197 93.3669 21.4657 93.7358 21.3578C94.1047 21.2408 94.4421 21.0608 94.7481 20.8179L95.2205 21.9516C94.9055 22.2126 94.5096 22.4195 94.0327 22.5725C93.5558 22.7255 93.0789 22.802 92.602 22.802ZM96.6646 22.667V16.0669H98.3112V17.6596H98.1762C98.3022 17.1197 98.5497 16.7103 98.9186 16.4313C99.2875 16.1434 99.7779 15.9769 100.39 15.9319L100.903 15.8914L101.011 17.3221L100.039 17.4166C99.49 17.4706 99.0761 17.6416 98.7971 17.9295C98.5182 18.2084 98.3787 18.6044 98.3787 19.1172V22.667H96.6646ZM105.75 22.667V13.1515H109.907C110.906 13.1515 111.68 13.372 112.229 13.8129C112.777 14.2448 113.052 14.8476 113.052 15.6215C113.052 16.1974 112.885 16.6833 112.552 17.0792C112.22 17.4751 111.765 17.7405 111.189 17.8755V17.673C111.63 17.736 112.008 17.871 112.323 18.078C112.638 18.2849 112.876 18.5504 113.038 18.8743C113.209 19.1982 113.295 19.5761 113.295 20.0081C113.295 20.5659 113.164 21.0473 112.903 21.4522C112.651 21.8482 112.283 22.1496 111.797 22.3566C111.311 22.5635 110.73 22.667 110.056 22.667H105.75ZM107.41 21.3578H109.84C110.083 21.3578 110.298 21.3398 110.487 21.3038C110.685 21.2678 110.852 21.2138 110.987 21.1418C111.131 21.0608 111.248 20.9619 111.338 20.8449C111.437 20.7279 111.509 20.5929 111.554 20.44C111.599 20.287 111.621 20.116 111.621 19.9271C111.621 19.7291 111.599 19.5537 111.554 19.4007C111.509 19.2477 111.437 19.1172 111.338 19.0093C111.248 18.8923 111.131 18.7978 110.987 18.7258C110.852 18.6448 110.685 18.5864 110.487 18.5504C110.298 18.5144 110.083 18.4964 109.84 18.4964H107.41V21.3578ZM107.41 17.1872H109.61C110.204 17.1872 110.645 17.0747 110.933 16.8497C111.23 16.6158 111.378 16.2738 111.378 15.8239C111.378 15.374 111.23 15.0366 110.933 14.8117C110.645 14.5777 110.204 14.4607 109.61 14.4607H107.41V17.1872ZM117.89 22.802C117.206 22.802 116.613 22.6625 116.109 22.3836C115.605 22.1046 115.213 21.7087 114.934 21.1958C114.655 20.6739 114.516 20.062 114.516 19.3602C114.516 18.6583 114.655 18.051 114.934 17.5381C115.213 17.0252 115.605 16.6293 116.109 16.3503C116.613 16.0714 117.206 15.9319 117.89 15.9319C118.574 15.9319 119.168 16.0714 119.672 16.3503C120.176 16.6293 120.567 17.0252 120.846 17.5381C121.125 18.051 121.265 18.6583 121.265 19.3602C121.265 20.062 121.125 20.6739 120.846 21.1958C120.567 21.7087 120.176 22.1046 119.672 22.3836C119.168 22.6625 118.574 22.802 117.89 22.802ZM117.89 21.5197C118.394 21.5197 118.799 21.3398 119.105 20.9798C119.411 20.6109 119.564 20.071 119.564 19.3602C119.564 18.6403 119.411 18.105 119.105 17.754C118.799 17.3941 118.394 17.2141 117.89 17.2141C117.386 17.2141 116.981 17.3941 116.676 17.754C116.37 18.105 116.217 18.6403 116.217 19.3602C116.217 20.071 116.37 20.6109 116.676 20.9798C116.981 21.3398 117.386 21.5197 117.89 21.5197ZM121.568 22.667L124.659 18.8608V19.6571L121.743 16.0669H123.714L125.604 18.4829H125.01L126.899 16.0669H128.87L125.955 19.6436V18.8878L129.045 22.667H127.061L125.01 20.0755H125.577L123.539 22.667H121.568Z" fill="black"/>
<path d="M55.3767 39.9715V39.3866L59.5495 34.1677H60.4493L56.3102 39.3866L55.8716 39.2516H62.204V39.9715H55.3767ZM59.8195 42.041V39.9715L59.842 39.2516V37.4295H60.6293V42.041H59.8195ZM66.0859 42.1085C65.4785 42.1085 64.9386 41.951 64.4662 41.6361C63.9938 41.3137 63.6227 40.8563 63.3527 40.2639C63.0828 39.664 62.9478 38.9442 62.9478 38.1043C62.9478 37.2645 63.0828 36.5484 63.3527 35.9561C63.6227 35.3562 63.9938 34.8988 64.4662 34.5838C64.9386 34.2614 65.4785 34.1002 66.0859 34.1002C66.6933 34.1002 67.2331 34.2614 67.7055 34.5838C68.1779 34.8988 68.5491 35.3562 68.8191 35.9561C69.0965 36.5484 69.2352 37.2645 69.2352 38.1043C69.2352 38.9442 69.0965 39.664 68.8191 40.2639C68.5491 40.8563 68.1779 41.3137 67.7055 41.6361C67.2331 41.951 66.6933 42.1085 66.0859 42.1085ZM66.0859 41.3662C66.5508 41.3662 66.9557 41.2424 67.3006 40.995C67.6456 40.74 67.9155 40.3726 68.1105 39.8927C68.3054 39.4053 68.4029 38.8092 68.4029 38.1043C68.4029 37.3995 68.3054 36.8071 68.1105 36.3272C67.9155 35.8398 67.6456 35.4724 67.3006 35.225C66.9557 34.97 66.5508 34.8425 66.0859 34.8425C65.636 34.8425 65.2348 34.97 64.8824 35.225C64.53 35.4724 64.2563 35.8398 64.0613 36.3272C63.8664 36.8071 63.7689 37.3995 63.7689 38.1043C63.7689 38.8092 63.8664 39.4053 64.0613 39.8927C64.2563 40.3726 64.53 40.74 64.8824 40.995C65.2348 41.2424 65.636 41.3662 66.0859 41.3662ZM73.533 42.1085C72.9257 42.1085 72.3858 41.951 71.9134 41.6361C71.441 41.3137 71.0698 40.8563 70.7999 40.2639C70.5299 39.664 70.395 38.9442 70.395 38.1043C70.395 37.2645 70.5299 36.5484 70.7999 35.9561C71.0698 35.3562 71.441 34.8988 71.9134 34.5838C72.3858 34.2614 72.9257 34.1002 73.533 34.1002C74.1404 34.1002 74.6803 34.2614 75.1527 34.5838C75.6251 34.8988 75.9963 35.3562 76.2662 35.9561C76.5437 36.5484 76.6824 37.2645 76.6824 38.1043C76.6824 38.9442 76.5437 39.664 76.2662 40.2639C75.9963 40.8563 75.6251 41.3137 75.1527 41.6361C74.6803 41.951 74.1404 42.1085 73.533 42.1085ZM73.533 41.3662C73.9979 41.3662 74.4029 41.2424 74.7478 40.995C75.0927 40.74 75.3627 40.3726 75.5576 39.8927C75.7526 39.4053 75.8501 38.8092 75.8501 38.1043C75.8501 37.3995 75.7526 36.8071 75.5576 36.3272C75.3627 35.8398 75.0927 35.4724 74.7478 35.225C74.4029 34.97 73.9979 34.8425 73.533 34.8425C73.0831 34.8425 72.682 34.97 72.3296 35.225C71.9771 35.4724 71.7034 35.8398 71.5085 36.3272C71.3135 36.8071 71.216 37.3995 71.216 38.1043C71.216 38.8092 71.3135 39.4053 71.5085 39.8927C71.7034 40.3726 71.9771 40.74 72.3296 40.995C72.682 41.2424 73.0831 41.3662 73.533 41.3662ZM81.4832 42.041V34.1677H82.1693L87.6019 41.0062H87.242V34.1677H88.063V42.041H87.3769L81.9556 35.2025H82.3155V42.041H81.4832ZM92.8711 42.0973C92.3013 42.0973 91.7876 41.9698 91.3302 41.7148C90.8803 41.4524 90.5241 41.0962 90.2617 40.6463C89.9992 40.1889 89.868 39.6678 89.868 39.0829C89.868 38.4905 89.9992 37.9694 90.2617 37.5195C90.5241 37.0696 90.8803 36.7171 91.3302 36.4622C91.7801 36.2072 92.2938 36.0798 92.8711 36.0798C93.456 36.0798 93.9734 36.2072 94.4233 36.4622C94.8807 36.7171 95.2369 37.0696 95.4918 37.5195C95.7543 37.9694 95.8855 38.4905 95.8855 39.0829C95.8855 39.6678 95.7543 40.1889 95.4918 40.6463C95.2369 41.0962 94.8807 41.4524 94.4233 41.7148C93.9659 41.9698 93.4485 42.0973 92.8711 42.0973ZM92.8711 41.3887C93.2985 41.3887 93.6772 41.2949 94.0071 41.1075C94.3371 40.9125 94.5958 40.6426 94.7832 40.2976C94.9782 39.9452 95.0757 39.5403 95.0757 39.0829C95.0757 38.618 94.9782 38.2131 94.7832 37.8681C94.5958 37.5232 94.3371 37.257 94.0071 37.0696C93.6772 36.8746 93.3023 36.7771 92.8824 36.7771C92.4625 36.7771 92.0875 36.8746 91.7576 37.0696C91.4277 37.257 91.1652 37.5232 90.9703 37.8681C90.7753 38.2131 90.6778 38.618 90.6778 39.0829C90.6778 39.5403 90.7753 39.9452 90.9703 40.2976C91.1652 40.6426 91.4277 40.9125 91.7576 41.1075C92.0875 41.2949 92.4587 41.3887 92.8711 41.3887ZM99.1018 42.0973C98.6144 42.0973 98.1532 42.0298 97.7183 41.8948C97.2834 41.7523 96.9422 41.5761 96.6948 41.3662L97.0547 40.7363C97.2947 40.9163 97.6021 41.0737 97.977 41.2087C98.3519 41.3362 98.7456 41.3999 99.158 41.3999C99.7204 41.3999 100.125 41.3137 100.373 41.1412C100.62 40.9612 100.744 40.725 100.744 40.4326C100.744 40.2152 100.673 40.0464 100.53 39.9265C100.395 39.799 100.215 39.7053 99.9904 39.6453C99.7654 39.5778 99.5142 39.5215 99.2368 39.4766C98.9593 39.4316 98.6819 39.3791 98.4044 39.3191C98.1345 39.2591 97.887 39.1729 97.6621 39.0604C97.4371 38.9404 97.2534 38.7792 97.111 38.5767C96.976 38.3743 96.9085 38.1043 96.9085 37.7669C96.9085 37.4445 96.9985 37.1558 97.1784 36.9009C97.3584 36.6459 97.6209 36.4472 97.9658 36.3047C98.3182 36.1548 98.7456 36.0798 99.248 36.0798C99.6304 36.0798 100.013 36.1323 100.395 36.2372C100.778 36.3347 101.093 36.4659 101.34 36.6309L100.991 37.272C100.729 37.0921 100.448 36.9646 100.148 36.8896C99.8479 36.8071 99.5479 36.7659 99.248 36.7659C98.7156 36.7659 98.322 36.8596 98.067 37.0471C97.8196 37.227 97.6958 37.4595 97.6958 37.7444C97.6958 37.9694 97.7633 38.1456 97.8983 38.2731C98.0408 38.4005 98.2245 38.5018 98.4494 38.5767C98.6819 38.6442 98.9331 38.7005 99.203 38.7455C99.4805 38.7905 99.7542 38.8467 100.024 38.9142C100.302 38.9742 100.553 39.0604 100.778 39.1729C101.01 39.2778 101.194 39.4316 101.329 39.634C101.471 39.829 101.543 40.0877 101.543 40.4101C101.543 40.755 101.445 41.055 101.25 41.3099C101.063 41.5574 100.785 41.7523 100.418 41.8948C100.058 42.0298 99.6192 42.0973 99.1018 42.0973ZM101.613 43.1658L105.325 32.5705H106.056L102.344 43.1658H101.613ZM108.458 42.0973C107.874 42.0973 107.349 41.9698 106.884 41.7148C106.426 41.4524 106.066 41.0962 105.804 40.6463C105.542 40.1889 105.41 39.6678 105.41 39.0829C105.41 38.4905 105.542 37.9694 105.804 37.5195C106.066 37.0696 106.426 36.7171 106.884 36.4622C107.349 36.2072 107.874 36.0798 108.458 36.0798C108.961 36.0798 109.415 36.1773 109.819 36.3722C110.224 36.5672 110.543 36.8596 110.775 37.2495L110.179 37.6544C109.977 37.3545 109.726 37.1333 109.426 36.9908C109.126 36.8484 108.8 36.7771 108.447 36.7771C108.027 36.7771 107.649 36.8746 107.311 37.0696C106.974 37.257 106.708 37.5232 106.513 37.8681C106.318 38.2131 106.22 38.618 106.22 39.0829C106.22 39.5478 106.318 39.9527 106.513 40.2976C106.708 40.6426 106.974 40.9125 107.311 41.1075C107.649 41.2949 108.027 41.3887 108.447 41.3887C108.8 41.3887 109.126 41.3174 109.426 41.1749C109.726 41.0325 109.977 40.815 110.179 40.5226L110.775 40.9275C110.543 41.3099 110.224 41.6024 109.819 41.8048C109.415 41.9998 108.961 42.0973 108.458 42.0973ZM114.277 42.0973C113.722 42.0973 113.295 41.9473 112.995 41.6473C112.695 41.3474 112.545 40.9238 112.545 40.3764V34.8313H113.344V40.3314C113.344 40.6763 113.43 40.9425 113.602 41.13C113.782 41.3174 114.037 41.4111 114.367 41.4111C114.72 41.4111 115.012 41.3099 115.245 41.1075L115.526 41.6811C115.368 41.8236 115.177 41.9285 114.952 41.996C114.735 42.0635 114.51 42.0973 114.277 42.0973ZM111.488 36.7996V36.136H115.143V36.7996H111.488ZM119.994 36.0798C120.474 36.0798 120.894 36.1735 121.254 36.361C121.621 36.5409 121.906 36.8184 122.108 37.1933C122.318 37.5682 122.423 38.0406 122.423 38.6105V42.041H121.625V38.6892C121.625 38.0669 121.467 37.5982 121.152 37.2833C120.845 36.9608 120.41 36.7996 119.848 36.7996C119.428 36.7996 119.06 36.8859 118.745 37.0583C118.438 37.2233 118.198 37.467 118.026 37.7894C117.861 38.1043 117.778 38.4868 117.778 38.9367V42.041H116.98V36.136H117.744V37.7557L117.621 37.452C117.808 37.0246 118.108 36.6909 118.52 36.4509C118.933 36.2035 119.424 36.0798 119.994 36.0798Z" fill="black"/>
<defs>
<filter id="filter0_d_2040_871" x="0.000195503" y="0.000195503" width="48.6441" height="48.7096" filterUnits="userSpaceOnUse" color-interpolation-filters="sRGB">
<feFlood flood-opacity="0" result="BackgroundImageFix"/>
<feColorMatrix in="SourceAlpha" type="matrix" values="0 0 0 0 0 0 0 0 0 0 0 0 0 0 0 0 0 0 127 0" result="hardAlpha"/>
<feOffset dy="-3"/>
<feGaussianBlur stdDeviation="2.1"/>
<feComposite in2="hardAlpha" operator="out"/>
<feColorMatrix type="matrix" values="0 0 0 0 0 0 0 0 0 0 0 0 0 0 0 0 0 0 0.25 0"/>
<feBlend mode="normal" in2="BackgroundImageFix" result="effect1_dropShadow_2040_871"/>
<feBlend mode="normal" in="SourceGraphic" in2="effect1_dropShadow_2040_871" result="shape"/>
</filter>
</defs>
</svg>
