<svg width="165" height="50" viewBox="0 0 165 50" fill="none" xmlns="http://www.w3.org/2000/svg">
<g filter="url(#filter0_d_2040_871)">
<rect x="24.1406" y="4.7168" width="33" height="31" rx="6" transform="rotate(46.3303 24.1406 4.7168)" fill="white"/>
</g>
<path d="M20.1982 21.1045H28.2373C28.4651 21.1045 28.6809 21.2079 28.8232 21.3857L30.3037 23.2363C30.4101 23.3693 30.4677 23.5348 30.4678 23.7051V33.3545C30.4678 33.7687 30.132 34.1045 29.7178 34.1045H18.7178C18.3036 34.1045 17.9678 33.7687 17.9678 33.3545V23.7051C17.9678 23.5348 18.0255 23.3693 18.1318 23.2363L19.6123 21.3857C19.7546 21.2079 19.9705 21.1045 20.1982 21.1045Z" stroke="black" stroke-width="0.5"/>
<path d="M18.2178 23.3545H30.2178" stroke="black" stroke-width="0.5"/>
<path d="M26.4678 23.6045V29.834L24.374 28.1592L24.2178 28.0342L24.0615 28.1592L21.9678 29.834V23.6045H26.4678Z" stroke="black" stroke-width="0.5"/>
<path d="M55.966 22.667V13.1515H60.0962C60.798 13.1515 61.3919 13.2685 61.8778 13.5024C62.3637 13.7364 62.7326 14.0738 62.9846 14.5147C63.2365 14.9556 63.3625 15.491 63.3625 16.1209C63.3625 16.7417 63.2365 17.2771 62.9846 17.727C62.7326 18.1679 62.3637 18.5099 61.8778 18.7528C61.3919 18.9868 60.798 19.1037 60.0962 19.1037H57.6937V22.667H55.966ZM57.6937 17.7405H59.8262C60.4381 17.7405 60.9015 17.6056 61.2164 17.3356C61.5314 17.0567 61.6888 16.6518 61.6888 16.1209C61.6888 15.59 61.5314 15.1896 61.2164 14.9196C60.9015 14.6497 60.4381 14.5147 59.8262 14.5147H57.6937V17.7405ZM67.3297 22.802C66.6368 22.802 66.034 22.6625 65.5211 22.3836C65.0082 22.0956 64.6123 21.6907 64.3333 21.1688C64.0544 20.6469 63.9149 20.035 63.9149 19.3332C63.9149 18.6313 64.0544 18.0285 64.3333 17.5246C64.6123 17.0117 65.0082 16.6203 65.5211 16.3503C66.034 16.0714 66.6368 15.9319 67.3297 15.9319C67.7526 15.9319 68.171 15.9994 68.5849 16.1344C68.9988 16.2693 69.3408 16.4583 69.6107 16.7013L69.1113 17.8755C68.8774 17.6685 68.6119 17.5111 68.315 17.4031C68.027 17.2951 67.7481 17.2411 67.4782 17.2411C66.8933 17.2411 66.4389 17.4256 66.1149 17.7945C65.8 18.1544 65.6425 18.6718 65.6425 19.3467C65.6425 20.0126 65.8 20.5389 66.1149 20.9259C66.4389 21.3038 66.8933 21.4927 67.4782 21.4927C67.7391 21.4927 68.018 21.4388 68.315 21.3308C68.6119 21.2228 68.8774 21.0608 69.1113 20.8449L69.6107 22.0326C69.3408 22.2666 68.9943 22.4555 68.5714 22.5995C68.1575 22.7345 67.7436 22.802 67.3297 22.802ZM73.0616 22.802C72.6927 22.802 72.3328 22.7705 71.9819 22.7075C71.6399 22.6445 71.325 22.559 71.0371 22.451C70.7491 22.3341 70.4972 22.1901 70.2812 22.0191L70.7131 20.9124C70.9381 21.0563 71.181 21.1823 71.442 21.2903C71.7029 21.3983 71.9729 21.4792 72.2518 21.5332C72.5308 21.5872 72.8052 21.6142 73.0751 21.6142C73.5071 21.6142 73.8265 21.5422 74.0334 21.3983C74.2494 21.2453 74.3574 21.0473 74.3574 20.8044C74.3574 20.5974 74.2854 20.44 74.1414 20.332C74.0064 20.215 73.7995 20.1295 73.5205 20.0755L72.1708 19.8191C71.613 19.7111 71.1855 19.5087 70.8886 19.2117C70.6007 18.9058 70.4567 18.5144 70.4567 18.0375C70.4567 17.6056 70.5737 17.2321 70.8076 16.9172C71.0506 16.6023 71.3835 16.3593 71.8064 16.1884C72.2293 16.0174 72.7152 15.9319 73.2641 15.9319C73.579 15.9319 73.885 15.9634 74.1819 16.0264C74.4788 16.0804 74.7578 16.1659 75.0187 16.2828C75.2887 16.3908 75.5226 16.5348 75.7206 16.7148L75.2617 17.8215C75.0907 17.6775 74.8928 17.5561 74.6678 17.4571C74.4429 17.3491 74.2089 17.2681 73.966 17.2141C73.732 17.1512 73.5026 17.1197 73.2776 17.1197C72.8367 17.1197 72.5083 17.1961 72.2923 17.3491C72.0854 17.5021 71.9819 17.7045 71.9819 17.9565C71.9819 18.1454 72.0449 18.3029 72.1708 18.4289C72.2968 18.5549 72.4903 18.6403 72.7512 18.6853L74.1009 18.9418C74.6858 19.0498 75.1267 19.2477 75.4236 19.5357C75.7296 19.8236 75.8825 20.2105 75.8825 20.6964C75.8825 21.1373 75.7656 21.5152 75.5316 21.8302C75.2977 22.1451 74.9692 22.3881 74.5463 22.559C74.1234 22.721 73.6285 22.802 73.0616 22.802ZM81.0359 22.667V13.1515H85.1661C85.8679 13.1515 86.4618 13.2685 86.9477 13.5024C87.4336 13.7364 87.8025 14.0738 88.0544 14.5147C88.3064 14.9556 88.4324 15.491 88.4324 16.1209C88.4324 16.7417 88.3064 17.2771 88.0544 17.727C87.8025 18.1679 87.4336 18.5099 86.9477 18.7528C86.4618 18.9868 85.8679 19.1037 85.1661 19.1037H82.7636V22.667H81.0359ZM82.7636 17.7405H84.8961C85.508 17.7405 85.9714 17.6056 86.2863 17.3356C86.6012 17.0567 86.7587 16.6518 86.7587 16.1209C86.7587 15.59 86.6012 15.1896 86.2863 14.9196C85.9714 14.6497 85.508 14.5147 84.8961 14.5147H82.7636V17.7405ZM92.602 22.802C91.8552 22.802 91.2118 22.6625 90.6719 22.3836C90.1321 22.1046 89.7136 21.7087 89.4167 21.1958C89.1288 20.6829 88.9848 20.0755 88.9848 19.3737C88.9848 18.6898 89.1243 18.0915 89.4032 17.5786C89.6911 17.0657 90.0826 16.6653 90.5775 16.3773C91.0814 16.0804 91.6527 15.9319 92.2916 15.9319C92.9215 15.9319 93.4613 16.0669 93.9113 16.3368C94.3612 16.6068 94.7076 16.9892 94.9505 17.4841C95.2025 17.979 95.3285 18.5684 95.3285 19.2522V19.7516H90.348V18.7798H94.1407L93.9248 18.9823C93.9248 18.3704 93.7898 17.9025 93.5198 17.5786C93.2499 17.2456 92.863 17.0792 92.3591 17.0792C91.9812 17.0792 91.6572 17.1692 91.3873 17.3491C91.1263 17.5201 90.9239 17.7675 90.7799 18.0915C90.6449 18.4064 90.5775 18.7843 90.5775 19.2252V19.3197C90.5775 19.8146 90.6539 20.224 90.8069 20.5479C90.9599 20.8719 91.1893 21.1148 91.4953 21.2768C91.8012 21.4388 92.1791 21.5197 92.629 21.5197C92.9979 21.5197 93.3669 21.4657 93.7358 21.3578C94.1047 21.2408 94.4421 21.0608 94.7481 20.8179L95.2205 21.9516C94.9055 22.2126 94.5096 22.4195 94.0327 22.5725C93.5558 22.7255 93.0789 22.802 92.602 22.802ZM96.6646 22.667V16.0669H98.3112V17.6596H98.1762C98.3022 17.1197 98.5497 16.7103 98.9186 16.4313C99.2875 16.1434 99.7779 15.9769 100.39 15.9319L100.903 15.8914L101.011 17.3221L100.039 17.4166C99.49 17.4706 99.0761 17.6416 98.7971 17.9295C98.5182 18.2084 98.3787 18.6044 98.3787 19.1172V22.667H96.6646ZM105.75 22.667V13.1515H109.907C110.906 13.1515 111.68 13.372 112.229 13.8129C112.777 14.2448 113.052 14.8476 113.052 15.6215C113.052 16.1974 112.885 16.6833 112.552 17.0792C112.22 17.4751 111.765 17.7405 111.189 17.8755V17.673C111.63 17.736 112.008 17.871 112.323 18.078C112.638 18.2849 112.876 18.5504 113.038 18.8743C113.209 19.1982 113.295 19.5761 113.295 20.0081C113.295 20.5659 113.164 21.0473 112.903 21.4522C112.651 21.8482 112.283 22.1496 111.797 22.3566C111.311 22.5635 110.73 22.667 110.056 22.667H105.75ZM107.41 21.3578H109.84C110.083 21.3578 110.298 21.3398 110.487 21.3038C110.685 21.2678 110.852 21.2138 110.987 21.1418C111.131 21.0608 111.248 20.9619 111.338 20.8449C111.437 20.7279 111.509 20.5929 111.554 20.44C111.599 20.287 111.621 20.116 111.621 19.9271C111.621 19.7291 111.599 19.5537 111.554 19.4007C111.509 19.2477 111.437 19.1172 111.338 19.0093C111.248 18.8923 111.131 18.7978 110.987 18.7258C110.852 18.6448 110.685 18.5864 110.487 18.5504C110.298 18.5144 110.083 18.4964 109.84 18.4964H107.41V21.3578ZM107.41 17.1872H109.61C110.204 17.1872 110.645 17.0747 110.933 16.8497C111.23 16.6158 111.378 16.2738 111.378 15.8239C111.378 15.374 111.23 15.0366 110.933 14.8117C110.645 14.5777 110.204 14.4607 109.61 14.4607H107.41V17.1872ZM117.89 22.802C117.206 22.802 116.613 22.6625 116.109 22.3836C115.605 22.1046 115.213 21.7087 114.934 21.1958C114.655 20.6739 114.516 20.062 114.516 19.3602C114.516 18.6583 114.655 18.051 114.934 17.5381C115.213 17.0252 115.605 16.6293 116.109 16.3503C116.613 16.0714 117.206 15.9319 117.89 15.9319C118.574 15.9319 119.168 16.0714 119.672 16.3503C120.176 16.6293 120.567 17.0252 120.846 17.5381C121.125 18.051 121.265 18.6583 121.265 19.3602C121.265 20.062 121.125 20.6739 120.846 21.1958C120.567 21.7087 120.176 22.1046 119.672 22.3836C119.168 22.6625 118.574 22.802 117.89 22.802ZM117.89 21.5197C118.394 21.5197 118.799 21.3398 119.105 20.9798C119.411 20.6109 119.564 20.071 119.564 19.3602C119.564 18.6403 119.411 18.105 119.105 17.754C118.799 17.3941 118.394 17.2141 117.89 17.2141C117.386 17.2141 116.981 17.3941 116.676 17.754C116.37 18.105 116.217 18.6403 116.217 19.3602C116.217 20.071 116.37 20.6109 116.676 20.9798C116.981 21.3398 117.386 21.5197 117.89 21.5197ZM121.568 22.667L124.659 18.8608V19.6571L121.743 16.0669H123.714L125.604 18.4829H125.01L126.899 16.0669H128.87L125.955 19.6436V18.8878L129.045 22.667H127.061L125.01 20.0755H125.577L123.539 22.667H121.568Z" fill="black"/>
<path d="M57.9974 42.1085C57.435 42.1085 56.8988 42.0185 56.3889 41.8386C55.8791 41.6511 55.4741 41.4037 55.1742 41.0962L55.5679 40.4551C55.8153 40.7175 56.1527 40.935 56.5802 41.1075C57.0151 41.2799 57.4837 41.3662 57.9861 41.3662C58.6535 41.3662 59.1596 41.2199 59.5045 40.9275C59.857 40.6276 60.0332 40.2376 60.0332 39.7577C60.0332 39.4203 59.9507 39.1316 59.7857 38.8917C59.6283 38.6442 59.3583 38.453 58.9759 38.3181C58.5935 38.1831 58.0686 38.1156 57.4012 38.1156H55.7253L56.1303 34.1677H60.4381V34.8875H56.4564L56.8726 34.4939L56.5239 37.8007L56.1078 37.3957H57.5812C58.376 37.3957 59.0134 37.4932 59.4933 37.6882C59.9732 37.8831 60.3181 38.1568 60.5281 38.5093C60.7455 38.8542 60.8543 39.2591 60.8543 39.724C60.8543 40.1664 60.7493 40.5713 60.5393 40.9387C60.3294 41.2987 60.0144 41.5836 59.5945 41.7936C59.1746 42.0035 58.6422 42.1085 57.9974 42.1085ZM65.0204 42.1085C64.4131 42.1085 63.8732 41.951 63.4008 41.6361C62.9284 41.3137 62.5572 40.8563 62.2873 40.2639C62.0173 39.664 61.8824 38.9442 61.8824 38.1043C61.8824 37.2645 62.0173 36.5484 62.2873 35.9561C62.5572 35.3562 62.9284 34.8988 63.4008 34.5838C63.8732 34.2614 64.4131 34.1002 65.0204 34.1002C65.6278 34.1002 66.1677 34.2614 66.6401 34.5838C67.1125 34.8988 67.4837 35.3562 67.7536 35.9561C68.0311 36.5484 68.1698 37.2645 68.1698 38.1043C68.1698 38.9442 68.0311 39.664 67.7536 40.2639C67.4837 40.8563 67.1125 41.3137 66.6401 41.6361C66.1677 41.951 65.6278 42.1085 65.0204 42.1085ZM65.0204 41.3662C65.4853 41.3662 65.8903 41.2424 66.2352 40.995C66.5801 40.74 66.8501 40.3726 67.045 39.8927C67.24 39.4053 67.3375 38.8092 67.3375 38.1043C67.3375 37.3995 67.24 36.8071 67.045 36.3272C66.8501 35.8398 66.5801 35.4724 66.2352 35.225C65.8903 34.97 65.4853 34.8425 65.0204 34.8425C64.5705 34.8425 64.1694 34.97 63.8169 35.225C63.4645 35.4724 63.1908 35.8398 62.9959 36.3272C62.8009 36.8071 62.7034 37.3995 62.7034 38.1043C62.7034 38.8092 62.8009 39.4053 62.9959 39.8927C63.1908 40.3726 63.4645 40.74 63.8169 40.995C64.1694 41.2424 64.5705 41.3662 65.0204 41.3662ZM72.4676 42.1085C71.8602 42.1085 71.3203 41.951 70.8479 41.6361C70.3755 41.3137 70.0044 40.8563 69.7344 40.2639C69.4645 39.664 69.3295 38.9442 69.3295 38.1043C69.3295 37.2645 69.4645 36.5484 69.7344 35.9561C70.0044 35.3562 70.3755 34.8988 70.8479 34.5838C71.3203 34.2614 71.8602 34.1002 72.4676 34.1002C73.075 34.1002 73.6149 34.2614 74.0873 34.5838C74.5597 34.8988 74.9308 35.3562 75.2008 35.9561C75.4782 36.5484 75.6169 37.2645 75.6169 38.1043C75.6169 38.9442 75.4782 39.664 75.2008 40.2639C74.9308 40.8563 74.5597 41.3137 74.0873 41.6361C73.6149 41.951 73.075 42.1085 72.4676 42.1085ZM72.4676 41.3662C72.9325 41.3662 73.3374 41.2424 73.6823 40.995C74.0273 40.74 74.2972 40.3726 74.4922 39.8927C74.6871 39.4053 74.7846 38.8092 74.7846 38.1043C74.7846 37.3995 74.6871 36.8071 74.4922 36.3272C74.2972 35.8398 74.0273 35.4724 73.6823 35.225C73.3374 34.97 72.9325 34.8425 72.4676 34.8425C72.0177 34.8425 71.6165 34.97 71.2641 35.225C70.9117 35.4724 70.638 35.8398 70.443 36.3272C70.2481 36.8071 70.1506 37.3995 70.1506 38.1043C70.1506 38.8092 70.2481 39.4053 70.443 39.8927C70.638 40.3726 70.9117 40.74 71.2641 40.995C71.6165 41.2424 72.0177 41.3662 72.4676 41.3662ZM80.4177 42.041V34.1677H81.1038L86.5364 41.0062H86.1765V34.1677H86.9976V42.041H86.3115L80.8901 35.2025H81.2501V42.041H80.4177ZM91.8057 42.0973C91.2358 42.0973 90.7222 41.9698 90.2648 41.7148C89.8149 41.4524 89.4587 41.0962 89.1962 40.6463C88.9338 40.1889 88.8026 39.6678 88.8026 39.0829C88.8026 38.4905 88.9338 37.9694 89.1962 37.5195C89.4587 37.0696 89.8149 36.7171 90.2648 36.4622C90.7147 36.2072 91.2283 36.0798 91.8057 36.0798C92.3906 36.0798 92.908 36.2072 93.3579 36.4622C93.8153 36.7171 94.1714 37.0696 94.4264 37.5195C94.6888 37.9694 94.82 38.4905 94.82 39.0829C94.82 39.6678 94.6888 40.1889 94.4264 40.6463C94.1714 41.0962 93.8153 41.4524 93.3579 41.7148C92.9005 41.9698 92.3831 42.0973 91.8057 42.0973ZM91.8057 41.3887C92.2331 41.3887 92.6118 41.2949 92.9417 41.1075C93.2716 40.9125 93.5303 40.6426 93.7178 40.2976C93.9127 39.9452 94.0102 39.5403 94.0102 39.0829C94.0102 38.618 93.9127 38.2131 93.7178 37.8681C93.5303 37.5232 93.2716 37.257 92.9417 37.0696C92.6118 36.8746 92.2368 36.7771 91.8169 36.7771C91.397 36.7771 91.0221 36.8746 90.6922 37.0696C90.3622 37.257 90.0998 37.5232 89.9048 37.8681C89.7099 38.2131 89.6124 38.618 89.6124 39.0829C89.6124 39.5403 89.7099 39.9452 89.9048 40.2976C90.0998 40.6426 90.3622 40.9125 90.6922 41.1075C91.0221 41.2949 91.3933 41.3887 91.8057 41.3887ZM98.0363 42.0973C97.5489 42.0973 97.0878 42.0298 96.6529 41.8948C96.218 41.7523 95.8768 41.5761 95.6293 41.3662L95.9893 40.7363C96.2292 40.9163 96.5367 41.0737 96.9116 41.2087C97.2865 41.3362 97.6802 41.3999 98.0926 41.3999C98.655 41.3999 99.0599 41.3137 99.3073 41.1412C99.5548 40.9612 99.6785 40.725 99.6785 40.4326C99.6785 40.2152 99.6073 40.0464 99.4648 39.9265C99.3298 39.799 99.1499 39.7053 98.9249 39.6453C98.6999 39.5778 98.4488 39.5215 98.1713 39.4766C97.8939 39.4316 97.6164 39.3791 97.339 39.3191C97.069 39.2591 96.8216 39.1729 96.5966 39.0604C96.3717 38.9404 96.188 38.7792 96.0455 38.5767C95.9105 38.3743 95.8431 38.1043 95.8431 37.7669C95.8431 37.4445 95.933 37.1558 96.113 36.9009C96.293 36.6459 96.5554 36.4472 96.9003 36.3047C97.2528 36.1548 97.6802 36.0798 98.1826 36.0798C98.565 36.0798 98.9474 36.1323 99.3298 36.2372C99.7122 36.3347 100.027 36.4659 100.275 36.6309L99.9259 37.272C99.6635 37.0921 99.3823 36.9646 99.0824 36.8896C98.7824 36.8071 98.4825 36.7659 98.1826 36.7659C97.6502 36.7659 97.2565 36.8596 97.0016 37.0471C96.7541 37.227 96.6304 37.4595 96.6304 37.7444C96.6304 37.9694 96.6979 38.1456 96.8328 38.2731C96.9753 38.4005 97.159 38.5018 97.384 38.5767C97.6164 38.6442 97.8676 38.7005 98.1376 38.7455C98.415 38.7905 98.6887 38.8467 98.9586 38.9142C99.2361 38.9742 99.4873 39.0604 99.7122 39.1729C99.9447 39.2778 100.128 39.4316 100.263 39.634C100.406 39.829 100.477 40.0877 100.477 40.4101C100.477 40.755 100.38 41.055 100.185 41.3099C99.9972 41.5574 99.7197 41.7523 99.3523 41.8948C98.9924 42.0298 98.5537 42.0973 98.0363 42.0973ZM100.548 43.1658L104.259 32.5705H104.991L101.279 43.1658H100.548ZM107.393 42.0973C106.808 42.0973 106.283 41.9698 105.818 41.7148C105.361 41.4524 105.001 41.0962 104.739 40.6463C104.476 40.1889 104.345 39.6678 104.345 39.0829C104.345 38.4905 104.476 37.9694 104.739 37.5195C105.001 37.0696 105.361 36.7171 105.818 36.4622C106.283 36.2072 106.808 36.0798 107.393 36.0798C107.895 36.0798 108.349 36.1773 108.754 36.3722C109.159 36.5672 109.478 36.8596 109.71 37.2495L109.114 37.6544C108.911 37.3545 108.66 37.1333 108.36 36.9908C108.06 36.8484 107.734 36.7771 107.382 36.7771C106.962 36.7771 106.583 36.8746 106.246 37.0696C105.908 37.257 105.642 37.5232 105.447 37.8681C105.252 38.2131 105.155 38.618 105.155 39.0829C105.155 39.5478 105.252 39.9527 105.447 40.2976C105.642 40.6426 105.908 40.9125 106.246 41.1075C106.583 41.2949 106.962 41.3887 107.382 41.3887C107.734 41.3887 108.06 41.3174 108.36 41.1749C108.66 41.0325 108.911 40.815 109.114 40.5226L109.71 40.9275C109.478 41.3099 109.159 41.6024 108.754 41.8048C108.349 41.9998 107.895 42.0973 107.393 42.0973ZM113.212 42.0973C112.657 42.0973 112.23 41.9473 111.93 41.6473C111.63 41.3474 111.48 40.9238 111.48 40.3764V34.8313H112.278V40.3314C112.278 40.6763 112.365 40.9425 112.537 41.13C112.717 41.3174 112.972 41.4111 113.302 41.4111C113.654 41.4111 113.947 41.3099 114.179 41.1075L114.46 41.6811C114.303 41.8236 114.112 41.9285 113.887 41.996C113.669 42.0635 113.444 42.0973 113.212 42.0973ZM110.422 36.7996V36.136H114.078V36.7996H110.422ZM118.928 36.0798C119.408 36.0798 119.828 36.1735 120.188 36.361C120.556 36.5409 120.841 36.8184 121.043 37.1933C121.253 37.5682 121.358 38.0406 121.358 38.6105V42.041H120.559V38.6892C120.559 38.0669 120.402 37.5982 120.087 37.2833C119.78 36.9608 119.345 36.7996 118.782 36.7996C118.362 36.7996 117.995 36.8859 117.68 37.0583C117.373 37.2233 117.133 37.467 116.96 37.7894C116.795 38.1043 116.713 38.4868 116.713 38.9367V42.041H115.914V36.136H116.679V37.7557L116.555 37.452C116.743 37.0246 117.043 36.6909 117.455 36.4509C117.867 36.2035 118.359 36.0798 118.928 36.0798Z" fill="black"/>
<defs>
<filter id="filter0_d_2040_871" x="0.000195503" y="0.000195503" width="48.6441" height="48.7096" filterUnits="userSpaceOnUse" color-interpolation-filters="sRGB">
<feFlood flood-opacity="0" result="BackgroundImageFix"/>
<feColorMatrix in="SourceAlpha" type="matrix" values="0 0 0 0 0 0 0 0 0 0 0 0 0 0 0 0 0 0 127 0" result="hardAlpha"/>
<feOffset dy="-3"/>
<feGaussianBlur stdDeviation="2.1"/>
<feComposite in2="hardAlpha" operator="out"/>
<feColorMatrix type="matrix" values="0 0 0 0 0 0 0 0 0 0 0 0 0 0 0 0 0 0 0.25 0"/>
<feBlend mode="normal" in2="BackgroundImageFix" result="effect1_dropShadow_2040_871"/>
<feBlend mode="normal" in="SourceGraphic" in2="effect1_dropShadow_2040_871" result="shape"/>
</filter>
</defs>
</svg>
