<svg width="326" height="76" viewBox="0 0 326 76" fill="none" xmlns="http://www.w3.org/2000/svg">
<path d="M3.05497 45.5408L3.01006 20.4555L13.8684 20.4373C16.1142 20.4335 18.05 20.8006 19.6759 21.5385C21.3017 22.2525 22.5579 23.2896 23.4443 24.6499C24.3307 26.0102 24.7756 27.6341 24.7789 29.5214C24.7823 31.3849 24.3432 32.9983 23.4617 34.3615C22.5801 35.7009 21.3277 36.7303 19.7044 37.4498C18.0811 38.1692 16.1466 38.5308 13.9008 38.5346L6.26772 38.5474L8.84337 35.9987L8.86044 45.5311L3.05497 45.5408ZM19.0021 45.5141L12.7145 36.4222L18.9141 36.4118L25.2734 45.5036L19.0021 45.5141ZM8.84453 36.6437L6.25944 33.9245L13.57 33.9123C15.3618 33.9092 16.699 33.5248 17.5816 32.7588C18.4642 31.9689 18.9042 30.8931 18.9018 29.5313C18.8993 28.1456 18.4554 27.0713 17.5701 26.3082C16.6848 25.5452 15.3462 25.1652 13.5544 25.1682L6.24379 25.1805L8.81905 22.4168L8.84453 36.6437ZM37.7936 45.9127C36.0496 45.9156 34.3171 45.6915 32.5962 45.2405C30.8991 44.7655 29.4405 44.099 28.2205 43.241L30.5061 38.7934C31.463 39.4847 32.5629 40.0323 33.806 40.4364C35.0729 40.8404 36.3515 41.0413 37.6416 41.0392C39.0989 41.0367 40.2451 40.7481 41.0803 40.1733C41.9154 39.5986 42.3321 38.7975 42.3303 37.7702C42.3291 37.1252 42.1608 36.5521 41.8255 36.0509C41.4901 35.5498 40.8922 35.1685 40.0316 34.9072C39.195 34.6458 38.0121 34.5163 36.4831 34.5189L30.0684 34.5297L31.3333 20.408L46.6353 20.3824L46.6437 25.0411L33.4201 25.0632L36.4256 22.4063L35.5477 32.4778L32.5327 29.831L37.8365 29.8221C40.3211 29.8179 42.3166 30.161 43.823 30.8513C45.3532 31.5177 46.4658 32.4356 47.1607 33.6051C47.8556 34.7746 48.2044 36.0999 48.2071 37.5812C48.2097 39.0624 47.8419 40.4367 47.1035 41.7042C46.3651 42.9478 45.2202 43.965 43.6687 44.756C42.1411 45.5231 40.1827 45.9086 37.7936 45.9127ZM62.7617 45.8708C60.7071 45.8742 58.8666 45.3756 57.2402 44.3749C55.6138 43.3504 54.333 41.8713 53.3978 39.9377C52.4626 38.0041 51.9925 35.6636 51.9876 32.9161C51.9827 30.1687 52.4443 27.8266 53.3726 25.8899C54.3009 23.9532 55.5764 22.4817 57.1992 21.4756C58.8219 20.4456 60.6606 19.9288 62.7152 19.9254C64.7937 19.9219 66.6342 20.4325 68.2367 21.4571C69.8631 22.4578 71.1439 23.9249 72.0791 25.8585C73.0143 27.7921 73.4844 30.1326 73.4893 32.8801C73.4942 35.6275 73.0325 37.9696 72.1043 39.9063C71.176 41.843 69.9005 43.3264 68.2777 44.3564C66.6789 45.3625 64.8402 45.8673 62.7617 45.8708ZM62.7529 40.9612C63.7324 40.9596 64.58 40.6834 65.2958 40.1327C66.0354 39.582 66.6072 38.709 67.0112 37.5138C67.4391 36.3186 67.6514 34.7772 67.648 32.8899C67.6446 31.0025 67.4268 29.4619 66.9947 28.2681C66.5864 27.0742 66.0114 26.2032 65.2699 25.6549C64.5521 25.1066 63.7035 24.8333 62.724 24.835C61.7684 24.8366 60.9207 25.1127 60.1811 25.6635C59.4654 26.2141 58.8936 27.0871 58.4657 28.2824C58.0616 29.4776 57.8613 31.0189 57.8647 32.9063C57.8681 34.7936 58.0739 36.3343 58.4822 37.5281C58.9144 38.7219 59.4893 39.593 60.207 40.1413C60.9486 40.6895 61.7972 40.9628 62.7529 40.9612ZM88.5175 45.8276C86.4629 45.8311 84.6224 45.3325 82.9961 44.3318C81.3697 43.3072 80.0888 41.8281 79.1536 39.8945C78.2184 37.9609 77.7484 35.6204 77.7435 32.873C77.7385 30.1255 78.2002 27.7834 79.1285 25.8467C80.0568 23.91 81.3323 22.4386 82.9551 21.4324C84.5778 20.4024 86.4165 19.8857 88.4711 19.8822C90.5496 19.8787 92.3901 20.3893 93.9926 21.4139C95.619 22.4146 96.8998 23.8818 97.835 25.8154C98.7702 27.749 99.2403 30.0895 99.2452 32.8369C99.2501 35.5844 98.7884 37.9264 97.8601 39.8632C96.9319 41.7999 95.6564 43.2832 94.0336 44.3133C92.4347 45.3194 90.596 45.8242 88.5175 45.8276ZM88.5088 40.9181C89.4883 40.9164 90.3359 40.6403 91.0516 40.0896C91.7913 39.5389 92.3631 38.6659 92.7671 37.4707C93.195 36.2754 93.4073 34.7341 93.4039 32.8467C93.4005 30.9593 93.1827 29.4187 92.7505 28.2249C92.3423 27.0311 91.7673 26.16 91.0257 25.6118C90.308 25.0635 89.4594 24.7901 88.4799 24.7918C87.5242 24.7934 86.6766 25.0696 85.937 25.6203C85.2212 26.171 84.6494 27.0439 84.2215 28.2392C83.8175 29.4344 83.6172 30.9757 83.6206 32.8631C83.624 34.7505 83.8298 36.2911 84.2381 37.4849C84.6703 38.6788 85.2452 39.5498 85.9629 40.0981C86.7045 40.6464 87.5531 40.9197 88.5088 40.9181ZM109.595 45.3623L109.558 25.0073L101.531 25.0208L101.523 20.2904L123.383 20.2537L123.391 24.9841L115.364 24.9976L115.4 45.3525L109.595 45.3623ZM133.298 30.343L145.374 30.3227L145.382 34.8381L133.306 34.8583L133.298 30.343ZM133.746 40.6631L147.4 40.6402L147.408 45.2989L127.985 45.3315L127.94 20.2461L146.897 20.2143L146.906 24.873L133.718 24.8951L133.746 40.6631ZM169.667 45.6916C167.97 45.6945 166.405 45.3865 164.97 44.7678C163.56 44.1251 162.399 43.2192 161.489 42.05L164.708 38.1743C165.402 39.081 166.132 39.7726 166.898 40.2492C167.663 40.7018 168.487 40.9274 169.371 40.9259C171.737 40.9219 172.917 39.5343 172.912 36.763L172.89 24.8295L164.075 24.8443L164.066 20.1856L178.652 20.1611L178.681 36.4308C178.686 39.5366 177.926 41.8552 176.4 43.3868C174.873 44.9184 172.629 45.6867 169.667 45.6916ZM197.01 45.6458C193.451 45.6518 190.665 44.665 188.655 42.6854C186.645 40.7058 185.636 37.8764 185.63 34.1973L185.604 20.1495L191.41 20.1397L191.435 33.9725C191.439 36.3616 191.932 38.0809 192.913 39.1305C193.895 40.18 195.269 40.7033 197.037 40.7003C198.805 40.6974 200.178 40.1695 201.156 39.1166C202.133 38.0638 202.62 36.3429 202.616 33.9538L202.591 20.121L208.325 20.1114L208.35 34.1592C208.356 37.8384 207.358 40.6711 205.355 42.6574C203.351 44.6437 200.57 45.6398 197.01 45.6458ZM215.54 45.1847L215.495 20.0994L220.297 20.0913L231.008 37.7765L228.464 37.7808L238.932 20.0601L243.698 20.0521L243.815 45.1373L238.368 45.1465L238.302 28.411L239.305 28.4093L230.945 42.507L228.329 42.5114L219.739 28.4421L220.957 28.4401L220.987 45.1756L215.54 45.1847ZM251.2 45.1249L251.155 20.0396L263.411 20.0191C266.564 20.0138 268.931 20.6071 270.51 21.799C272.112 22.9908 272.916 24.5663 272.919 26.5253C272.921 27.8393 272.601 28.9866 271.958 29.9672C271.314 30.9239 270.432 31.666 269.31 32.1935C268.188 32.721 266.898 32.986 265.441 32.9884L266.119 31.518C267.696 31.5153 269.094 31.7758 270.313 32.2993C271.533 32.799 272.478 33.55 273.148 34.5523C273.843 35.5545 274.192 36.7843 274.194 38.2417C274.198 40.3918 273.353 42.0776 271.659 43.2988C269.965 44.4962 267.469 45.0977 264.172 45.1032L251.2 45.1249ZM256.962 40.7433L263.735 40.7319C265.24 40.7294 266.374 40.4886 267.138 40.0095C267.925 39.5065 268.318 38.7174 268.316 37.6423C268.314 36.5911 267.919 35.8153 267.129 35.3149C266.364 34.7906 265.229 34.5297 263.723 34.5322L256.52 34.5443L256.513 30.3156L262.712 30.3053C264.122 30.3029 265.197 30.0622 265.936 29.5831C266.7 29.0801 267.081 28.3269 267.079 27.3235C267.077 26.344 266.694 25.616 265.928 25.1394C265.187 24.639 264.111 24.3899 262.702 24.3923L256.932 24.402L256.962 40.7433ZM292.22 45.4862C290.237 45.4896 288.397 45.1701 286.7 44.5279C285.026 43.8857 283.567 42.9802 282.323 41.8117C281.102 40.6431 280.144 39.271 279.449 37.6953C278.777 36.1196 278.439 34.4001 278.436 32.5366C278.433 30.6731 278.764 28.9524 279.43 27.3745C280.12 25.7965 281.085 24.4212 282.326 23.2485C283.566 22.0757 285.021 21.1654 286.693 20.5176C288.364 19.8697 290.179 19.5442 292.138 19.5409C294.121 19.5376 295.937 19.857 297.587 20.4993C299.26 21.1416 300.707 22.047 301.928 23.2156C303.172 24.3842 304.142 25.7563 304.838 27.3319C305.534 28.8837 305.883 30.6032 305.887 32.4906C305.89 34.3541 305.547 36.0867 304.857 37.6886C304.167 39.2665 303.201 40.6419 301.961 41.8146C300.745 42.9634 299.301 43.8617 297.63 44.5096C295.983 45.1574 294.179 45.4829 292.22 45.4862ZM292.176 40.5409C293.299 40.539 294.325 40.3462 295.257 39.9624C296.211 39.5785 297.047 39.0276 297.762 38.3097C298.478 37.5918 299.026 36.7427 299.406 35.7625C299.81 34.7823 300.012 33.695 300.009 32.5004C300.007 31.3059 299.802 30.2192 299.394 29.2404C299.01 28.2615 298.459 27.4143 297.741 26.6988C297.047 25.9832 296.222 25.4351 295.266 25.0544C294.309 24.6738 293.27 24.4844 292.147 24.4863C291.024 24.4882 289.985 24.681 289.03 25.0649C288.099 25.4487 287.276 25.9996 286.56 26.7175C285.845 27.4354 285.285 28.2845 284.881 29.2647C284.5 30.2448 284.311 31.3322 284.313 32.5267C284.315 33.6974 284.508 34.7841 284.892 35.7869C285.3 36.7657 285.851 37.6129 286.545 38.3285C287.263 39.044 288.101 39.5921 289.057 39.9727C290.013 40.3534 291.053 40.5428 292.176 40.5409Z" fill="#490606"/>
<path d="M39.1729 68.9406C38.7203 68.2208 38.3704 67.3899 38.1232 66.448C37.876 65.4982 37.7515 64.477 37.7495 63.3842C37.7476 62.2915 37.8685 61.2698 38.1122 60.3191C38.356 59.3606 38.7029 58.5286 39.153 57.8231L40.2339 57.8212C39.7603 58.6614 39.4134 59.5409 39.1934 60.4599C38.9733 61.3709 38.8642 62.345 38.866 63.3823C38.8679 64.4197 38.9805 65.3974 39.2038 66.3156C39.4272 67.2258 39.7772 68.1002 40.2538 68.9388L39.1729 68.9406ZM41.8759 66.6318L41.861 58.3174L43.0488 58.3154L43.0637 66.6298L41.8759 66.6318ZM45.5529 66.6256L45.538 58.3112L46.512 58.3096L50.2528 64.5867L49.7302 64.5875L53.4011 58.298L54.375 58.2964L54.4018 66.6108L53.2615 66.6127L53.238 60.0919L53.5112 60.0914L50.2428 65.6082L49.6964 65.6091L46.3845 60.1033L46.6815 60.1028L46.6932 66.6237L45.5529 66.6256ZM56.8971 66.6066L56.8822 58.2922L58.0699 58.2902L58.083 65.5713L62.5846 65.5637L62.5865 66.5971L56.8971 66.6066ZM67.1393 66.5895L67.1244 58.275L68.0984 58.2734L71.8392 64.5505L71.3166 64.5514L74.9875 58.2619L75.9614 58.2602L75.9882 66.5746L74.8479 66.5765L74.8244 60.0557L75.0976 60.0552L71.8292 65.572L71.2828 65.5729L67.9709 60.0672L68.2679 60.0667L68.2795 66.5875L67.1393 66.5895ZM82.237 66.6592C81.6035 66.6602 81.0134 66.5543 80.4666 66.3414C79.9278 66.1285 79.4601 65.8324 79.0635 65.453C78.6668 65.0656 78.3572 64.6148 78.1346 64.1005C77.9119 63.5861 77.8001 63.0241 77.799 62.4144C77.7979 61.8046 77.9077 61.2422 78.1285 60.7272C78.3493 60.2121 78.6573 59.7642 79.0526 59.3834C79.4478 58.9948 79.9145 58.6931 80.4525 58.4784C80.9906 58.2637 81.5804 58.1558 82.2218 58.1547C82.8552 58.1537 83.4374 58.2596 83.9684 58.4725C84.5072 58.6775 84.9749 58.9736 85.3715 59.361C85.7761 59.7404 86.0857 60.1873 86.3004 60.7016C86.523 61.2159 86.6349 61.7819 86.636 62.3996C86.6371 63.0172 86.5273 63.5836 86.3065 64.0986C86.0936 64.6137 85.7856 65.0656 85.3824 65.4542C84.9872 65.835 84.5205 66.1327 83.9825 66.3474C83.4523 66.5542 82.8705 66.6581 82.237 66.6592ZM82.2351 65.6021C82.6944 65.6013 83.1179 65.5214 83.5056 65.3624C83.9012 65.2033 84.2413 64.981 84.5259 64.6955C84.8183 64.402 85.0434 64.0612 85.2011 63.6729C85.3667 63.2846 85.4491 62.8608 85.4482 62.4016C85.4474 61.9423 85.3635 61.5188 85.1965 61.1311C85.0375 60.7433 84.8112 60.4072 84.5177 60.1226C84.2321 59.8301 83.8912 59.605 83.495 59.4473C83.1067 59.2895 82.6829 59.2111 82.2237 59.2118C81.7565 59.2126 81.325 59.2925 80.9294 59.4516C80.5417 59.6106 80.2016 59.8368 79.9091 60.1303C79.6167 60.4159 79.3876 60.7528 79.222 61.1411C79.0644 61.5293 78.9859 61.9531 78.9867 62.4124C78.9876 62.8717 79.0675 63.2952 79.2266 63.6829C79.3936 64.0706 79.6238 64.4107 79.9173 64.7032C80.2108 64.9878 80.5517 65.209 80.94 65.3667C81.3362 65.5244 81.7679 65.6028 82.2351 65.6021ZM92.2124 66.6425C91.579 66.6435 90.9888 66.5376 90.4421 66.3247C89.9032 66.1118 89.4355 65.8157 89.0389 65.4362C88.6423 65.0489 88.3327 64.5981 88.11 64.0837C87.8874 63.5694 87.7755 63.0074 87.7744 62.3977C87.7733 61.7879 87.8832 61.2255 88.104 60.7105C88.3248 60.1954 88.6328 59.7475 89.028 59.3667C89.4233 58.978 89.8899 58.6764 90.428 58.4617C90.9661 58.247 91.5558 58.1391 92.1972 58.138C92.8307 58.1369 93.4129 58.2429 93.9438 58.4558C94.4826 58.6607 94.9504 58.9569 95.347 59.3443C95.7515 59.7237 96.0611 60.1705 96.2758 60.6849C96.4985 61.1992 96.6104 61.7652 96.6115 62.3828C96.6126 63.0005 96.5027 63.5668 96.2819 64.0819C96.069 64.597 95.761 65.0488 95.3579 65.4375C94.9626 65.8183 94.496 66.116 93.9579 66.3307C93.4277 66.5375 92.8459 66.6414 92.2124 66.6425ZM94.9354 68.277C94.6582 68.2775 94.3929 68.2423 94.1394 68.1715C93.8859 68.1085 93.6323 68.0021 93.3786 67.852C93.125 67.7099 92.8633 67.5203 92.5937 67.2832C92.324 67.054 92.0305 66.7695 91.7132 66.4295L92.9835 66.0948C93.2216 66.3874 93.4477 66.6245 93.6618 66.8063C93.8839 66.996 94.1019 67.1302 94.3158 67.2091C94.5298 67.2958 94.7397 67.339 94.9456 67.3387C95.5395 67.3377 96.0458 67.0993 96.4646 66.6235L97.0241 67.2995C96.4868 67.9498 95.7906 68.2756 94.9354 68.277ZM92.2105 65.5853C92.6698 65.5846 93.0933 65.5047 93.481 65.3457C93.8767 65.1866 94.2168 64.9604 94.5013 64.6669C94.7938 64.3734 95.0188 64.0326 95.1765 63.6443C95.3421 63.256 95.4245 62.8362 95.4237 62.3848C95.4229 61.9256 95.339 61.5021 95.172 61.1143C95.0129 60.7266 94.7866 60.3904 94.4931 60.1059C94.2075 59.8134 93.8666 59.5882 93.4704 59.4305C93.0822 59.2728 92.6584 59.1943 92.1991 59.1951C91.7319 59.1959 91.3005 59.2758 90.9048 59.4348C90.5171 59.5939 90.177 59.8201 89.8846 60.1136C89.5921 60.3991 89.3631 60.7361 89.1975 61.1243C89.0398 61.5126 88.9614 61.9364 88.9622 62.3957C88.963 62.847 89.0429 63.2666 89.202 63.6543C89.369 64.042 89.5992 64.3821 89.8927 64.6746C90.1862 64.9671 90.5271 65.1922 90.9154 65.35C91.3116 65.5077 91.7433 65.5861 92.2105 65.5853ZM101.049 63.7651L101.047 62.7793L104.242 62.7739L104.244 63.7597L101.049 63.7651ZM110.085 66.5175L110.071 58.6782L110.583 59.2356L108.196 59.2396L108.194 58.2062L111.246 58.2011L111.261 66.5155L110.085 66.5175ZM116.477 66.6018C115.828 66.6029 115.246 66.4376 114.73 66.1058C114.223 65.7741 113.818 65.2918 113.516 64.6588C113.222 64.0258 113.074 63.258 113.073 62.3553C113.071 61.4525 113.216 60.6842 113.508 60.0502C113.808 59.4163 114.211 58.9325 114.717 58.5991C115.231 58.2657 115.813 58.0984 116.462 58.0973C117.103 58.0963 117.682 58.2616 118.197 58.5933C118.712 58.925 119.117 59.4074 119.411 60.0403C119.705 60.6733 119.853 61.4412 119.855 62.3439C119.856 63.2466 119.711 64.0149 119.419 64.6489C119.128 65.2829 118.725 65.7666 118.211 66.1C117.696 66.4335 117.119 66.6007 116.477 66.6018ZM116.475 65.5447C116.911 65.5439 117.291 65.4245 117.615 65.1864C117.947 64.9483 118.204 64.5916 118.385 64.1161C118.574 63.6407 118.668 63.0506 118.667 62.3459C118.666 61.6411 118.57 61.0514 118.379 60.5766C118.196 60.1018 117.938 59.7459 117.605 59.5089C117.28 59.2719 116.899 59.1537 116.464 59.1544C116.028 59.1552 115.645 59.2746 115.312 59.5127C114.98 59.7508 114.72 60.1076 114.53 60.583C114.349 61.0584 114.259 61.6485 114.26 62.3533C114.262 63.058 114.354 63.6478 114.537 64.1226C114.728 64.5974 114.99 64.9533 115.323 65.1903C115.656 65.4273 116.04 65.5454 116.475 65.5447ZM124.4 66.5885C123.75 66.5896 123.168 66.4243 122.653 66.0926C122.145 65.7608 121.741 65.2785 121.439 64.6455C121.144 64.0125 120.997 63.2447 120.995 62.342C120.993 61.4393 121.138 60.6709 121.43 60.037C121.73 59.403 122.133 58.9193 122.639 58.5858C123.153 58.2524 123.735 58.0851 124.384 58.0841C125.026 58.083 125.604 58.2483 126.119 58.58C126.635 58.9117 127.039 59.3941 127.334 60.0271C127.628 60.6601 127.776 61.4279 127.777 62.3306C127.779 63.2333 127.634 64.0017 127.342 64.6356C127.05 65.2696 126.647 65.7533 126.133 66.0867C125.619 66.4202 125.041 66.5874 124.4 66.5885ZM124.398 65.5314C124.833 65.5307 125.213 65.4112 125.537 65.1731C125.869 64.935 126.126 64.5783 126.307 64.1029C126.497 63.6274 126.591 63.0373 126.589 62.3326C126.588 61.6279 126.492 61.0381 126.301 60.5633C126.118 60.0885 125.86 59.7326 125.527 59.4956C125.202 59.2586 124.822 59.1404 124.386 59.1412C123.951 59.1419 123.567 59.2613 123.235 59.4994C122.903 59.7375 122.642 60.0943 122.453 60.5697C122.271 61.0452 122.181 61.6352 122.183 62.34C122.184 63.0447 122.276 63.6345 122.459 64.1093C122.65 64.5841 122.912 64.94 123.245 65.177C123.578 65.414 123.962 65.5321 124.398 65.5314ZM132.322 66.5752C131.673 66.5763 131.09 66.411 130.575 66.0793C130.068 65.7476 129.663 65.2652 129.361 64.6322C129.067 63.9993 128.919 63.2314 128.917 62.3287C128.916 61.426 129.061 60.6576 129.353 60.0237C129.652 59.3897 130.055 58.906 130.562 58.5726C131.076 58.2391 131.657 58.0719 132.307 58.0708C132.948 58.0697 133.526 58.235 134.042 58.5667C134.557 58.8984 134.962 59.3808 135.256 60.0138C135.55 60.6468 135.698 61.4146 135.7 62.3173C135.701 63.22 135.556 63.9884 135.264 64.6223C134.972 65.2563 134.569 65.74 134.055 66.0735C133.541 66.4069 132.963 66.5742 132.322 66.5752ZM132.32 65.5181C132.756 65.5174 133.135 65.398 133.46 65.1599C133.792 64.9218 134.049 64.565 134.23 64.0896C134.419 63.6142 134.513 63.0241 134.512 62.3193C134.51 61.6146 134.414 61.0248 134.224 60.55C134.041 60.0752 133.783 59.7193 133.45 59.4823C133.124 59.2453 132.744 59.1272 132.309 59.1279C131.873 59.1286 131.489 59.248 131.157 59.4862C130.825 59.7243 130.564 60.081 130.375 60.5565C130.194 61.0319 130.104 61.622 130.105 62.3267C130.106 63.0315 130.198 63.6212 130.381 64.096C130.572 64.5708 130.834 64.9267 131.167 65.1637C131.5 65.4007 131.885 65.5188 132.32 65.5181ZM140.244 66.562C139.595 66.563 139.013 66.3977 138.497 66.066C137.99 65.7343 137.585 65.2519 137.283 64.619C136.989 63.986 136.841 63.2181 136.84 62.3154C136.838 61.4127 136.983 60.6444 137.275 60.0104C137.575 59.3764 137.978 58.8927 138.484 58.5593C138.998 58.2258 139.58 58.0586 140.229 58.0575C140.871 58.0564 141.449 58.2217 141.964 58.5535C142.479 58.8852 142.884 59.3675 143.178 60.0005C143.472 60.6335 143.62 61.4013 143.622 62.3041C143.623 63.2068 143.478 63.9751 143.187 64.6091C142.895 65.243 142.492 65.7267 141.978 66.0602C141.463 66.3936 140.886 66.5609 140.244 66.562ZM140.242 65.5048C140.678 65.5041 141.058 65.3847 141.382 65.1466C141.714 64.9085 141.971 64.5517 142.152 64.0763C142.341 63.6009 142.435 63.0108 142.434 62.306C142.433 61.6013 142.337 61.0115 142.146 60.5367C141.963 60.0619 141.705 59.706 141.372 59.469C141.047 59.232 140.667 59.1139 140.231 59.1146C139.795 59.1153 139.412 59.2348 139.079 59.4729C138.747 59.711 138.487 60.0678 138.297 60.5432C138.116 61.0186 138.026 61.6087 138.027 62.3134C138.029 63.0182 138.121 63.6079 138.304 64.0828C138.495 64.5575 138.757 64.9134 139.09 65.1504C139.423 65.3874 139.807 65.5056 140.242 65.5048ZM148.636 66.4529L148.621 58.1385L151.864 58.133C152.593 58.1318 153.214 58.2456 153.729 58.4743C154.245 58.7031 154.641 59.035 154.919 59.4701C155.197 59.9051 155.336 60.4236 155.338 61.0254C155.339 61.6272 155.201 62.1461 154.925 62.5821C154.648 63.0101 154.253 63.3434 153.739 63.5818C153.224 63.8123 152.603 63.9281 151.874 63.9294L149.285 63.9337L149.819 63.3745L149.824 66.4509L148.636 66.4529ZM149.819 63.4933L149.283 62.9003L151.837 62.896C152.597 62.8948 153.171 62.7315 153.558 62.4062C153.954 62.0809 154.151 61.6212 154.15 61.0274C154.149 60.4335 153.95 59.9745 153.553 59.6505C153.165 59.3265 152.59 59.1652 151.83 59.1664L149.277 59.1707L149.81 58.5759L149.819 63.4933ZM159.647 66.5057C159.005 66.5068 158.431 66.3691 157.924 66.0928C157.424 65.8165 157.032 65.4371 156.746 64.9546C156.46 64.472 156.316 63.9179 156.315 63.2924C156.314 62.6668 156.456 62.1123 156.74 61.6288C157.024 61.1453 157.415 60.7685 157.914 60.4984C158.42 60.2204 158.994 60.0809 159.635 60.0798C160.205 60.0789 160.712 60.1928 161.156 60.4217C161.608 60.6427 161.957 60.9747 162.203 61.4177L161.337 61.9774C161.131 61.6689 160.877 61.4437 160.576 61.3017C160.282 61.1517 159.966 61.077 159.625 61.0776C159.213 61.0783 158.845 61.1699 158.521 61.3526C158.197 61.5353 157.94 61.7931 157.75 62.126C157.561 62.4509 157.466 62.8391 157.467 63.2905C157.468 63.7418 157.564 64.1336 157.754 64.4659C157.945 64.7981 158.203 65.0551 158.528 65.2366C158.853 65.4182 159.221 65.5087 159.633 65.508C159.973 65.5074 160.29 65.4356 160.583 65.2926C160.883 65.1416 161.136 64.9116 161.342 64.6024L162.21 65.1473C161.965 65.5832 161.617 65.9204 161.166 66.1587C160.723 66.3891 160.217 66.5047 159.647 66.5057ZM165.494 66.4959C164.971 66.4968 164.472 66.4263 163.997 66.2846C163.53 66.1428 163.161 65.9692 162.891 65.7638L163.365 64.8603C163.634 65.042 163.967 65.1958 164.363 65.3219C164.76 65.4479 165.164 65.5106 165.575 65.5099C166.106 65.509 166.486 65.4331 166.715 65.2823C166.952 65.1315 167.071 64.9214 167.07 64.6522C167.07 64.4542 166.998 64.2999 166.856 64.1893C166.713 64.0787 166.523 63.9959 166.285 63.9408C166.055 63.8858 165.798 63.8387 165.513 63.7996C165.228 63.7526 164.943 63.6976 164.657 63.6347C164.372 63.564 164.111 63.4694 163.873 63.351C163.635 63.2247 163.445 63.0548 163.302 62.8412C163.159 62.6197 163.087 62.3269 163.087 61.9626C163.086 61.5825 163.192 61.2498 163.405 60.9643C163.619 60.6789 163.919 60.4607 164.307 60.3096C164.703 60.1505 165.17 60.0705 165.708 60.0696C166.12 60.069 166.536 60.1197 166.956 60.222C167.383 60.3163 167.732 60.4543 168.002 60.6359L167.516 61.5395C167.231 61.3499 166.934 61.2197 166.625 61.149C166.316 61.0782 166.007 61.0431 165.698 61.0436C165.199 61.0445 164.827 61.1282 164.582 61.2949C164.337 61.4537 164.214 61.6598 164.215 61.9132C164.215 62.127 164.287 62.2932 164.43 62.4117C164.58 62.5223 164.77 62.6091 165 62.6721C165.238 62.735 165.499 62.79 165.784 62.837C166.069 62.8762 166.355 62.9311 166.64 63.0019C166.925 63.0648 167.183 63.1554 167.412 63.2738C167.65 63.3922 167.84 63.5581 167.983 63.7717C168.134 63.9852 168.21 64.2702 168.211 64.6265C168.211 65.0066 168.101 65.3354 167.88 65.6129C167.659 65.8904 167.346 66.1087 166.943 66.2678C166.539 66.4189 166.056 66.4949 165.494 66.4959ZM170.023 68.7213L168.942 68.7231C169.424 67.883 169.775 67.0074 169.995 66.0964C170.215 65.1775 170.324 64.1993 170.322 63.162C170.32 62.1247 170.207 61.1509 169.984 60.2406C169.761 59.3225 169.407 58.4441 168.922 57.6056L170.003 57.6037C170.472 58.3077 170.825 59.1386 171.065 60.0963C171.312 61.0461 171.437 62.0674 171.438 63.1601C171.44 64.2529 171.32 65.2746 171.076 66.2252C170.84 67.1679 170.489 67.9999 170.023 68.7213Z" fill="black"/>
<path d="M177.347 61.6465H207.467" stroke="url(#paint0_linear_2040_836)" stroke-width="0.863039"/>
<path d="M31.1191 62.6934H0.998845" stroke="url(#paint1_linear_2040_836)" stroke-width="0.863039"/>
<defs>
<linearGradient id="paint0_linear_2040_836" x1="202.949" y1="62.1464" x2="177.849" y2="62.1465" gradientUnits="userSpaceOnUse">
<stop stop-color="#666666" stop-opacity="0"/>
<stop offset="1"/>
</linearGradient>
<linearGradient id="paint1_linear_2040_836" x1="5.51689" y1="63.1933" x2="30.6171" y2="63.1933" gradientUnits="userSpaceOnUse">
<stop stop-color="#666666" stop-opacity="0"/>
<stop offset="1"/>
</linearGradient>
</defs>
</svg>
